<?xml version="1.0" encoding="UTF-8" standalone="no"?>
<svg
   xmlns:dc="http://purl.org/dc/elements/1.1/"
   xmlns:cc="http://creativecommons.org/ns#"
   xmlns:rdf="http://www.w3.org/1999/02/22-rdf-syntax-ns#"
   xmlns:svg="http://www.w3.org/2000/svg"
   xmlns="http://www.w3.org/2000/svg"
   xmlns:sodipodi="http://sodipodi.sourceforge.net/DTD/sodipodi-0.dtd"
   xmlns:inkscape="http://www.inkscape.org/namespaces/inkscape"
   viewBox="0 0 512 512"
   version="1.1"
   id="svg865"
   sodipodi:docname="_ionicons_svg_md-save.svg"
   inkscape:version="0.92.4 (5da689c313, 2019-01-14)">
  <metadata
     id="metadata871">
    <rdf:RDF>
      <cc:Work
         rdf:about="">
        <dc:format>image/svg+xml</dc:format>
        <dc:type
           rdf:resource="http://purl.org/dc/dcmitype/StillImage" />
      </cc:Work>
    </rdf:RDF>
  </metadata>
  <defs
     id="defs869" />
  <sodipodi:namedview
     pagecolor="#ffffff"
     bordercolor="#666666"
     borderopacity="1"
     objecttolerance="10"
     gridtolerance="10"
     guidetolerance="10"
     inkscape:pageopacity="0"
     inkscape:pageshadow="2"
     inkscape:window-width="1850"
     inkscape:window-height="1016"
     id="namedview867"
     showgrid="false"
     inkscape:zoom="1.1545728"
     inkscape:cx="173.80735"
     inkscape:cy="225.16037"
     inkscape:window-x="70"
     inkscape:window-y="27"
     inkscape:window-maximized="1"
     inkscape:current-layer="svg865" />
  <path
     d="M 288.59494,69.196728 H 56.574579 c -21.48002,0 -38.700277,16.77549 -38.700277,37.307992 v 260.98122 c 0,20.53251 17.220257,37.308 38.700277,37.308 H 327.29521 c 21.29875,0 38.70027,-16.77549 38.70027,-37.308 V 143.81272 Z M 191.88958,367.39857 c -32.08407,0 -58.00509,-24.98849 -58.00509,-55.9183 0,-30.92982 25.92102,-55.91831 58.00509,-55.91831 32.08406,0 58.00509,24.98849 58.00509,55.91831 0,30.92981 -25.92103,55.9183 -58.00509,55.9183 z M 249.89467,181.03334 H 56.574579 V 106.50472 H 249.89467 Z"
     id="path863"
     inkscape:connector-curvature="0"
     style="stroke-width:0.8898772" />
  <path
     id="path884"
     d="m 380.65079,137.02976 128,128 -128,128 z"
     inkscape:connector-curvature="0" />
</svg>
