<svg version="1.1" xmlns="http://www.w3.org/2000/svg" xlink="http://www.w3.org/1999/xlink" x="0px" y="0px" width="15px" height="17.142857142857142px" viewBox="0 0 15 17.142857142857142" style="enable-background:new 0 0 15 15;" space="preserve">
    <path d="M11.747209821428571,4.319196428571429c0.86953125,0.15636160714285713,1.5827008928571429,0.6251116071428572,2.1401785714285713,1.40625c0.49051339285714285,0.6920758928571429,0.825,1.562611607142857,1.003125,2.611607142857143c0.15636160714285713,0.9599330357142858,0.14464285714285716,1.91953125,-0.033482142857142856,2.8794642857142856c-0.2675223214285714,1.5847098214285713,-0.8025669642857143,2.9129464285714284,-1.6051339285714286,3.984375c-0.9589285714285715,1.2947544642857143,-2.1626116071428574,1.9419642857142856,-3.61171875,1.9419642857142856c-0.35691964285714284,0,-0.7466517857142857,-0.1114955357142857,-1.1705357142857142,-0.33482142857142855c-0.28995535714285714,-0.17845982142857142,-0.6130580357142856,-0.26785714285714285,-0.9699776785714285,-0.26785714285714285s-0.6796875,0.08939732142857143,-0.9699776785714285,0.26785714285714285c-0.42388392857142854,0.22332589285714285,-0.8136160714285714,0.33482142857142855,-1.1705357142857142,0.33482142857142855c-1.449107142857143,0,-2.6527901785714287,-0.6472098214285713,-3.61171875,-1.9419642857142856c-0.8025669642857143,-1.0714285714285714,-1.3376116071428572,-2.3996651785714285,-1.6051339285714286,-3.984375c-0.178125,-0.9599330357142858,-0.18984375,-1.91953125,-0.033482142857142856,-2.8794642857142856c0.178125,-1.0489955357142857,0.5126116071428571,-1.91953125,1.003125,-2.611607142857143c0.5574776785714285,-0.7811383928571428,1.2706473214285714,-1.2498883928571427,2.1401785714285713,-1.40625c0.5350446428571428,-0.08939732142857143,1.2706473214285714,-0.011049107142857144,2.2071428571428573,0.234375c0.8025669642857143,0.22332589285714285,1.4825892857142857,0.4911830357142857,2.0400669642857143,0.8035714285714286c0.5574776785714285,-0.31238839285714287,1.2375,-0.5802455357142856,2.0400669642857143,-0.8035714285714286c0.9368303571428571,-0.24542410714285715,1.672767857142857,-0.32377232142857143,2.2078124999999997,-0.234375zm-1.8395089285714283,-1.3727678571428572c-0.31205357142857143,0.2902901785714286,-0.7248883928571428,0.5022321428571428,-1.2375,0.6361607142857143c-0.35691964285714284,0.1114955357142857,-0.7466517857142857,0.16741071428571427,-1.1705357142857142,0.16741071428571427l-0.5015625,-0.033482142857142856c-0.04453125,-0.31238839285714287,-0.04453125,-0.6696428571428571,0,-1.0714285714285714c0.08939732142857143,-0.8035714285714286,0.3455357142857143,-1.4172991071428571,0.7690848214285714,-1.841517857142857c0.31205357142857143,-0.2902901785714286,0.7248883928571428,-0.5022321428571428,1.2375,-0.6361607142857143c0.35691964285714284,-0.1114955357142857,0.7466517857142857,-0.16741071428571427,1.1705357142857142,-0.16741071428571427l0.5015625,0.033482142857142856l0.033482142857142856,0.5022321428571428c0,0.42421875,-0.05591517857142857,0.8146205357142856,-0.16707589285714286,1.171875c-0.13359375,0.51328125,-0.34520089285714284,0.9264508928571429,-0.6354910714285714,1.2388392857142856z" fill="#FFFFFF"/>
    </svg>