<svg version="1.1" xmlns="http://www.w3.org/2000/svg" xlink="http://www.w3.org/1999/xlink" x="0px" y="0px" width="15px" height="20px" viewBox="0 0 15 20" style="enable-background:new 0 0 15 15;" space="preserve">
    <path d="M14.849609375,19.9545703125a0.3125,0.3125,0,0,1,-0.42925781250000006,-0.10496093749999999l-4.895703125,-8.0635546875a1.2469921874999998,1.2469921874999998,0,0,0,0.506171875,-0.3705078125l4.92375,8.1096875a0.3125,0.3125,0,0,1,-0.10496093749999999,0.4293359375zM5.5782421875,12.278828125l-1.27109375,3.4955078125l1.4109375,3.4486328124999996c0.26144531249999997,0.6390625,0.9912890624999999,0.9450000000000001,1.6301953125,0.6836328125000001c0.6389453125,-0.26140625,0.9450390625,-0.9912500000000001,0.6836328125000001,-1.6302343750000001l-2.453671875,-5.9975390625000005zM3.75,3.4375c0.9492578125,0,1.71875,-0.7694921875,1.71875,-1.71875S4.6992578125,0,3.75,0S2.03125,0.7694921875,2.03125,1.71875s0.7694921875,1.71875,1.71875,1.71875zm6.0483203125,6.606562499999999l-4.6875,-5.9375c-0.1848828125,-0.2341796875,-0.458984375,-0.35578125000000005,-0.7358203125,-0.3559375V3.75H3.125v0.001015625c-0.279140625,0.0001171875,-0.5553515625000001,0.1234765625,-0.74,0.3609375L0,7.178359374999999v3.738046875c0,0.5255859375,0.43011718749999994,0.9683984375,0.955625,0.9584375C1.4650390625,11.86515625,1.875,11.44921875,1.875,10.9375v-3.1158593750000003l0.625,-0.8035546875v5.496015625L0.3877734375,18.3224609375c-0.2359375,0.6487890625000001,0.09875,1.3659765625,0.7475781250000001,1.6019140625000001c0.648515625,0.2358984375,1.3659375000000002,-0.09859375000000001,1.6019140625000001,-0.7475781250000001L5.3125,12.095234374999999V7.9078515625l-1.226796875,-1.5553125a0.15625,0.15625,0,1,1,0.2448828125,-0.1941796875l3.99609375,5.0475390625c0.35722656249999996,0.4525,0.9518749999999999,0.4429296875,1.31671875,0.1548828125c0.406640625,-0.3209375,0.4749609375,-0.911484375,0.15492187500000001,-1.31671875z" fill="#FFFFFF"/>
    </svg>