<svg version="1.1" xmlns="http://www.w3.org/2000/svg" xlink="http://www.w3.org/1999/xlink" x="0px" y="0px" width="15px" height="15px" viewBox="0 0 15 15" style="enable-background:new 0 0 15 15;" space="preserve">
    <path d="M13.929688,4.285156L13.929688,10.714844L0,10.714844L0,4.285156ZM15,9.105469L16.070312,9.105469L16.070312,5.894531L15,5.894531L15,3.480469C15,3.402344,14.976562,3.339844,14.925781,3.289062C14.875,3.238281,14.808594,3.214844,14.730469,3.214844L-0.804688,3.214844C-0.882812,3.214844,-0.945312,3.238281,-0.996094,3.289062C-1.046875,3.339844,-1.070312,3.402344,-1.070312,3.480469L-1.070312,11.519531C-1.070312,11.597656,-1.046875,11.660156,-0.996094,11.710938C-0.945312,11.761719,-0.882812,11.785156,-0.804688,11.785156L14.730469,11.785156C14.808594,11.785156,14.875,11.761719,14.925781,11.710938C14.976562,11.660156,15,11.597656,15,11.519531ZM17.144531,5.894531L17.144531,9.105469C17.144531,9.402344,17.039062,9.65625,16.828125,9.863281C16.621094,10.074219,16.367188,10.179688,16.070312,10.179688L16.070312,11.519531C16.070312,11.886719,15.941406,12.203125,15.679688,12.464844C15.414062,12.726562,15.101562,12.855469,14.730469,12.855469L-0.804688,12.855469C-1.171875,12.855469,-1.488281,12.726562,-1.75,12.464844C-2.011719,12.203125,-2.144531,11.886719,-2.144531,11.519531L-2.144531,3.480469C-2.144531,3.113281,-2.011719,2.796875,-1.75,2.535156C-1.488281,2.273438,-1.171875,2.144531,-0.804688,2.144531L14.730469,2.144531C15.101562,2.144531,15.414062,2.273438,15.679688,2.535156C15.941406,2.796875,16.070312,3.113281,16.070312,3.480469L16.070312,4.820312C16.367188,4.820312,16.621094,4.925781,16.828125,5.136719C17.039062,5.34375,17.144531,5.597656,17.144531,5.894531ZM17.144531,5.894531" fill="#FFFFFF"/>
    </svg>