<svg version="1.1" xmlns="http://www.w3.org/2000/svg" xlink="http://www.w3.org/1999/xlink" x="0px" y="0px" width="15px" height="15px" viewBox="0 0 15 15" style="enable-background:new 0 0 15 15;" space="preserve">
    <path d="M14.0625,3.75h-0.9375V2.34375c0,-0.258984375,-0.209765625,-0.46875,-0.46875,-0.46875h-2.8125c-0.258984375,0,-0.46875,0.209765625,-0.46875,0.46875v1.40625H5.625V2.34375c0,-0.258984375,-0.209765625,-0.46875,-0.46875,-0.46875H2.34375c-0.258984375,0,-0.46875,0.209765625,-0.46875,0.46875v1.40625H0.9375c-0.51767578125,0,-0.9375,0.41982421875,-0.9375,0.9375v7.5c0,0.51767578125,0.41982421875,0.9375,0.9375,0.9375h13.125c0.51767578125,0,0.9375,-0.41982421875,0.9375,-0.9375V4.6875c0,-0.51767578125,-0.41982421875,-0.9375,-0.9375,-0.9375zM5.625,7.734375c0,0.1294921875,-0.1048828125,0.234375,-0.234375,0.234375H2.109375c-0.1294921875,0,-0.234375,-0.1048828125,-0.234375,-0.234375v-0.46875c0,-0.1294921875,0.1048828125,-0.234375,0.234375,-0.234375h3.28125c0.1294921875,0,0.234375,0.1048828125,0.234375,0.234375v0.46875zm7.5,0c0,0.1294921875,-0.1048828125,0.234375,-0.234375,0.234375h-1.171875v1.171875c0,0.1294921875,-0.1048828125,0.234375,-0.234375,0.234375h-0.46875c-0.1294921875,0,-0.234375,-0.1048828125,-0.234375,-0.234375v-1.171875h-1.171875c-0.1294921875,0,-0.234375,-0.1048828125,-0.234375,-0.234375v-0.46875c0,-0.1294921875,0.1048828125,-0.234375,0.234375,-0.234375h1.171875v-1.171875c0,-0.1294921875,0.1048828125,-0.234375,0.234375,-0.234375h0.46875c0.1294921875,0,0.234375,0.1048828125,0.234375,0.234375v1.171875h1.171875c0.1294921875,0,0.234375,0.1048828125,0.234375,0.234375v0.46875z" fill="#FFFFFF"/>
    </svg>