<svg version="1.1" xmlns="http://www.w3.org/2000/svg" xlink="http://www.w3.org/1999/xlink" x="0px" y="0px" width="15px" height="15px" viewBox="0 0 15 15" style="enable-background:new 0 0 15 15;" space="preserve">
    <path d="M1.605469,13.929688L4.019531,13.929688L4.019531,11.519531L1.605469,11.519531ZM4.554688,13.929688L7.230469,13.929688L7.230469,11.519531L4.554688,11.519531ZM1.605469,10.980469L4.019531,10.980469L4.019531,8.304688L1.605469,8.304688ZM4.554688,10.980469L7.230469,10.980469L7.230469,8.304688L4.554688,8.304688ZM1.605469,7.769531L4.019531,7.769531L4.019531,5.355469L1.605469,5.355469ZM7.769531,13.929688L10.445312,13.929688L10.445312,11.519531L7.769531,11.519531ZM4.554688,7.769531L7.230469,7.769531L7.230469,5.355469L4.554688,5.355469ZM10.980469,13.929688L13.394531,13.929688L13.394531,11.519531L10.980469,11.519531ZM7.769531,10.980469L10.445312,10.980469L10.445312,8.304688L7.769531,8.304688ZM4.820312,3.75L4.820312,1.339844C4.820312,1.265625,4.792969,1.203125,4.742188,1.152344C4.6875,1.097656,4.625,1.070312,4.554688,1.070312L4.019531,1.070312C3.945312,1.070312,3.882812,1.097656,3.828125,1.152344C3.777344,1.203125,3.75,1.265625,3.75,1.339844L3.75,3.75C3.75,3.824219,3.777344,3.886719,3.828125,3.9375C3.882812,3.992188,3.945312,4.019531,4.019531,4.019531L4.554688,4.019531C4.625,4.019531,4.6875,3.992188,4.742188,3.9375C4.792969,3.886719,4.820312,3.824219,4.820312,3.75ZM10.980469,10.980469L13.394531,10.980469L13.394531,8.304688L10.980469,8.304688ZM7.769531,7.769531L10.445312,7.769531L10.445312,5.355469L7.769531,5.355469ZM10.980469,7.769531L13.394531,7.769531L13.394531,5.355469L10.980469,5.355469ZM11.25,3.75L11.25,1.339844C11.25,1.265625,11.222656,1.203125,11.171875,1.152344C11.117188,1.097656,11.054688,1.070312,10.980469,1.070312L10.445312,1.070312C10.375,1.070312,10.3125,1.097656,10.257812,1.152344C10.203125,1.203125,10.179688,1.265625,10.179688,1.339844L10.179688,3.75C10.179688,3.824219,10.203125,3.886719,10.257812,3.9375C10.3125,3.992188,10.375,4.019531,10.445312,4.019531L10.980469,4.019531C11.054688,4.019531,11.117188,3.992188,11.171875,3.9375C11.222656,3.886719,11.25,3.824219,11.25,3.75ZM14.464844,3.214844L14.464844,13.929688C14.464844,14.21875,14.359375,14.46875,14.144531,14.683594C13.933594,14.894531,13.683594,15,13.394531,15L1.605469,15C1.316406,15,1.066406,14.894531,0.855469,14.683594C0.640625,14.46875,0.535156,14.21875,0.535156,13.929688L0.535156,3.214844C0.535156,2.925781,0.640625,2.671875,0.855469,2.460938C1.066406,2.25,1.316406,2.144531,1.605469,2.144531L2.679688,2.144531L2.679688,1.339844C2.679688,0.972656,2.808594,0.65625,3.070312,0.394531C3.335938,0.132812,3.648438,0,4.019531,0L4.554688,0C4.921875,0,5.238281,0.132812,5.5,0.394531C5.761719,0.65625,5.894531,0.972656,5.894531,1.339844L5.894531,2.144531L9.105469,2.144531L9.105469,1.339844C9.105469,0.972656,9.238281,0.65625,9.5,0.394531C9.761719,0.132812,10.078125,0,10.445312,0L10.980469,0C11.351562,0,11.664062,0.132812,11.929688,0.394531C12.191406,0.65625,12.320312,0.972656,12.320312,1.339844L12.320312,2.144531L13.394531,2.144531C13.683594,2.144531,13.933594,2.25,14.144531,2.460938C14.359375,2.671875,14.464844,2.925781,14.464844,3.214844ZM14.464844,3.214844" fill="#FFFFFF"/>
    </svg>