<svg version="1.1" xmlns="http://www.w3.org/2000/svg" xlink="http://www.w3.org/1999/xlink" x="0px" y="0px" width="15px" height="15px" viewBox="0 0 15 15" style="enable-background:new 0 0 15 15;" space="preserve">
    <path d="M3.214844,9.644531C3.214844,9.347656,3.109375,9.09375,2.898438,8.886719C2.691406,8.675781,2.4375,8.570312,2.144531,8.570312C1.847656,8.570312,1.59375,8.675781,1.386719,8.886719C1.175781,9.09375,1.070312,9.347656,1.070312,9.644531C1.070312,9.9375,1.175781,10.191406,1.386719,10.398438C1.59375,10.609375,1.847656,10.714844,2.144531,10.714844C2.4375,10.714844,2.691406,10.609375,2.898438,10.398438C3.109375,10.191406,3.214844,9.9375,3.214844,9.644531ZM4.820312,5.894531C4.820312,5.597656,4.71875,5.34375,4.507812,5.136719C4.296875,4.925781,4.046875,4.820312,3.75,4.820312C3.453125,4.820312,3.203125,4.925781,2.992188,5.136719C2.78125,5.34375,2.679688,5.597656,2.679688,5.894531C2.679688,6.1875,2.78125,6.441406,2.992188,6.648438C3.203125,6.859375,3.453125,6.964844,3.75,6.964844C4.046875,6.964844,4.296875,6.859375,4.507812,6.648438C4.71875,6.441406,4.820312,6.1875,4.820312,5.894531ZM8.402344,9.917969L9.25,6.722656C9.28125,6.578125,9.261719,6.441406,9.1875,6.316406C9.109375,6.191406,9.003906,6.109375,8.863281,6.070312C8.726562,6.03125,8.589844,6.046875,8.460938,6.125C8.335938,6.199219,8.25,6.308594,8.210938,6.453125L7.367188,9.652344C7.03125,9.679688,6.734375,9.800781,6.46875,10.015625C6.207031,10.230469,6.03125,10.503906,5.941406,10.839844C5.832031,11.269531,5.886719,11.675781,6.109375,12.0625C6.332031,12.445312,6.660156,12.695312,7.089844,12.808594C7.519531,12.917969,7.925781,12.863281,8.3125,12.640625C8.695312,12.417969,8.945312,12.089844,9.058594,11.660156C9.144531,11.324219,9.128906,11,9.007812,10.679688C8.882812,10.363281,8.683594,10.109375,8.402344,9.917969ZM13.929688,9.644531C13.929688,9.347656,13.824219,9.09375,13.613281,8.886719C13.40625,8.675781,13.152344,8.570312,12.855469,8.570312C12.5625,8.570312,12.308594,8.675781,12.101562,8.886719C11.890625,9.09375,11.785156,9.347656,11.785156,9.644531C11.785156,9.9375,11.890625,10.191406,12.101562,10.398438C12.308594,10.609375,12.5625,10.714844,12.855469,10.714844C13.152344,10.714844,13.40625,10.609375,13.613281,10.398438C13.824219,10.191406,13.929688,9.9375,13.929688,9.644531ZM8.570312,4.285156C8.570312,3.988281,8.46875,3.738281,8.257812,3.527344C8.046875,3.320312,7.796875,3.214844,7.5,3.214844C7.203125,3.214844,6.953125,3.320312,6.742188,3.527344C6.53125,3.738281,6.429688,3.988281,6.429688,4.285156C6.429688,4.582031,6.53125,4.835938,6.742188,5.042969C6.953125,5.253906,7.203125,5.355469,7.5,5.355469C7.796875,5.355469,8.046875,5.253906,8.257812,5.042969C8.46875,4.835938,8.570312,4.582031,8.570312,4.285156ZM12.320312,5.894531C12.320312,5.597656,12.21875,5.34375,12.007812,5.136719C11.796875,4.925781,11.546875,4.820312,11.25,4.820312C10.953125,4.820312,10.703125,4.925781,10.492188,5.136719C10.28125,5.34375,10.179688,5.597656,10.179688,5.894531C10.179688,6.1875,10.28125,6.441406,10.492188,6.648438C10.703125,6.859375,10.953125,6.964844,11.25,6.964844C11.546875,6.964844,11.796875,6.859375,12.007812,6.648438C12.21875,6.441406,12.320312,6.1875,12.320312,5.894531ZM15,9.644531C15,11.097656,14.605469,12.445312,13.820312,13.6875C13.714844,13.847656,13.5625,13.929688,13.367188,13.929688L1.632812,13.929688C1.4375,13.929688,1.285156,13.847656,1.179688,13.6875C0.394531,12.453125,0,11.105469,0,9.644531C0,8.628906,0.199219,7.65625,0.59375,6.730469C0.992188,5.804688,1.523438,5.003906,2.191406,4.335938C2.863281,3.667969,3.660156,3.132812,4.585938,2.738281C5.511719,2.339844,6.484375,2.144531,7.5,2.144531C8.515625,2.144531,9.488281,2.339844,10.414062,2.738281C11.339844,3.132812,12.136719,3.667969,12.808594,4.335938C13.476562,5.003906,14.007812,5.804688,14.40625,6.730469C14.800781,7.65625,15,8.628906,15,9.644531ZM15,9.644531" fill="#FFFFFF"/>
    </svg>