<svg version="1.1" xmlns="http://www.w3.org/2000/svg" xlink="http://www.w3.org/1999/xlink" x="0px" y="0px" width="15px" height="15px" viewBox="0 0 15 15" style="enable-background:new 0 0 15 15;" space="preserve">
    <path d="M13.55830078125,1.45224609375c-1.9376953125,-1.93623046875,-5.07890625,-1.93623046875,-7.0166015625,0C5.50224609375,2.4908203125,4.691015625,3.75,4.691015625,5.625v2.51455078125l-1.1900390625,1.18916015625c-0.2841796875,0.28388671875,-0.7042968749999999,0.32431640625,-1.0775390625,0.1751953125c-0.6363281249999999,-0.254296875,-1.3892578125000001,-0.12568359375,-1.9048828125,0.38935546875c-0.69169921875,0.69111328125,-0.69169921875,1.81171875,0,2.50283203125c0.44765625,0.44736328124999997,1.07021484375,0.5736328125,1.6447265625,0.44208984375c-0.1318359375,0.57421875,-0.0052734374999999995,1.1961914062499999,0.4423828125,1.6435546875c0.69169921875,0.69111328125,1.812890625,0.69111328125,2.50458984375,0c0.515625,-0.5150390625,0.6442382812499999,-1.2673828125,0.38994140625,-1.90341796875c-0.14912109375,-0.37294921875000003,-0.10898437500000001,-0.79248046875,0.17548828125000002,-1.07666015625L6.86572265625,10.3125h2.51630859375c0.6796875,0,1.27646484375,-0.10898437500000001,1.81318359375,-0.29384765625c-1.161328125,-1.28583984375,-1.1668945312499999,-3.22939453125,0.03076171875,-4.4258789062499995c1.0072265625,-1.006640625,2.541796875,-1.1560546875,3.7716796875000003,-0.4921875c0.0380859375,-1.31630859375,-0.43388671875,-2.64404296875,-1.43935546875,-3.64833984375z" fill="#FFFFFF"/>
    </svg>