<svg version="1.1" xmlns="http://www.w3.org/2000/svg" xlink="http://www.w3.org/1999/xlink" x="0px" y="0px" width="15px" height="15px" viewBox="0 0 15 15" style="enable-background:new 0 0 15 15;" space="preserve">
    <path d="m8.6261199,2.9733845c-2.3398678,0,-4.3832534,1.4244144,-5.5205482,2.6431117L0.83436299,3.8987208C0.51889567,3.6599747,0.0479053,3.9143251,0.12852761,4.2799863L0.75738168,7.1345364L0.12826754,9.9893468C0.04764523,10.355008,0.5186356,10.609098,0.83410292,10.370612L3.1053117,8.652837c1.1372948,1.218437,3.1809404,2.642852,5.5208082,2.642852c3.5749501,0,6.4731921,-3.3289223,6.4731921,-4.1611526c0,-0.8322304,-2.898242,-4.1611519,-6.4731921,-4.1611519zM10.89993,7.7587091c-0.344596,0,-0.624174,-0.2795774,-0.624174,-0.6241727c0,-0.3448554,0.279578,-0.6241728,0.624174,-0.6241728c0.344855,0,0.624172,0.2793174,0.624172,0.6241728c0,0.3445953,-0.279578,0.6241727,-0.624172,0.6241727z" fill="#FFFFFF"/>
    </svg>