<svg version="1.1" xmlns="http://www.w3.org/2000/svg" xlink="http://www.w3.org/1999/xlink" x="0px" y="0px" width="15px" height="15px" viewBox="0 0 15 15" style="enable-background:new 0 0 15 15;" space="preserve">
    <path d="M13.316406,12.121094C13.628906,12.617188,13.691406,13.042969,13.496094,13.398438C13.304688,13.75,12.914062,13.929688,12.320312,13.929688L2.679688,13.929688C2.085938,13.929688,1.695312,13.75,1.503906,13.398438C1.308594,13.042969,1.371094,12.617188,1.683594,12.121094L5.894531,5.484375L5.894531,2.144531L5.355469,2.144531C5.210938,2.144531,5.085938,2.089844,4.980469,1.984375C4.875,1.878906,4.820312,1.753906,4.820312,1.605469C4.820312,1.460938,4.875,1.335938,4.980469,1.230469C5.085938,1.125,5.210938,1.070312,5.355469,1.070312L9.644531,1.070312C9.789062,1.070312,9.914062,1.125,10.019531,1.230469C10.125,1.335938,10.179688,1.460938,10.179688,1.605469C10.179688,1.753906,10.125,1.878906,10.019531,1.984375C9.914062,2.089844,9.789062,2.144531,9.644531,2.144531L9.105469,2.144531L9.105469,5.484375ZM6.796875,6.050781L4.519531,9.644531L10.480469,9.644531L8.203125,6.050781L8.035156,5.792969L8.035156,2.144531L6.964844,2.144531L6.964844,5.792969ZM6.796875,6.050781" fill="#FFFFFF"/>
    </svg>