<svg version="1.1" xmlns="http://www.w3.org/2000/svg" xlink="http://www.w3.org/1999/xlink" x="0px" y="0px" width="15px" height="15px" viewBox="0 0 15 15" style="enable-background:new 0 0 15 15;" space="preserve">
    <path d="M9.84375,13.125H0.46875c-0.2578125,0,-0.46875,0.2109375,-0.46875,0.46875v0.9375c0,0.2578125,0.2109375,0.46875,0.46875,0.46875h9.375c0.2578125,0,0.46875,-0.2109375,0.46875,-0.46875v-0.9375c0,-0.2578125,-0.2109375,-0.46875,-0.46875,-0.46875zm4.60546875,-9.9814453125l-2.373046875,-2.373046875c-0.181640625,-0.181640625,-0.48046874999999994,-0.181640625,-0.662109375,0l-0.3310546875,0.3310546875c-0.181640625,0.181640625,-0.181640625,0.48046874999999994,0,0.662109375L12.1875,2.8681640625V4.6875c0,0.8232421875,0.6123046875,1.5029296875,1.40625,1.6171875V11.015625c0,0.38671875,-0.31640625,0.703125,-0.703125,0.703125s-0.703125,-0.31640625,-0.703125,-0.703125v-0.9375c0,-1.423828125,-1.154296875,-2.578125,-2.578125,-2.578125h-0.234375V1.875c0,-1.0341796875,-0.8408203125,-1.875,-1.875,-1.875H2.8125C1.7783203125,0,0.9375,0.8408203125,0.9375,1.875v10.3125h8.4375V8.90625h0.234375c0.6474609375,0,1.171875,0.5244140625,1.171875,1.171875v0.814453125c0,1.1044921875,0.791015625,2.109375,1.8896484375,2.2236328125c1.259765625,0.1259765625,2.3291015625,-0.8642578125,2.3291015625,-2.1005859375V4.470703125c0,-0.498046875,-0.19921875,-0.9755859374999999,-0.55078125,-1.3271484375zM7.5,5.625H2.8125V1.875h4.6875v3.75z" fill="#FFFFFF"/>
    </svg>