<svg version="1.1" xmlns="http://www.w3.org/2000/svg" xlink="http://www.w3.org/1999/xlink" x="0px" y="0px" width="15px" height="15px" viewBox="0 0 15 15" style="enable-background:new 0 0 15 15;" space="preserve">
    <path d="M14.269056,1.9226699H13.522233L13.213002,1.6134387A1.4929448,1.4929448,0,0,0,12.156715,1.1758474h-0.478199c-0.259988,0,-0.515308,0.067914,-0.740989,0.1967411L7.3609478,3.4163148H6.0540086c-2.474783,0,-4.4809348,2.0061519,-4.4809348,4.4809349v0.037574c0,0.7643263,-0.3734113,1.4502359,-0.92325938,1.9811802c-0.42452189,0.4102851,-0.65580349,1.0194131,-0.54121291,1.6756831c0.15776625,0.905523,1.00120899,1.53332,1.92026739,1.53332h2.5314948c0.412386,0,0.7468225,-0.334436,0.7468225,-0.746823c0,-0.412386,-0.3344365,-0.746822,-0.7468225,-0.746822H1.946485c-0.2060764,0,-0.3734112,-0.167334,-0.3734112,-0.373411c0,-0.206077,0.1673348,-0.373412,0.3734112,-0.373412h5.2277577c0.2063094,0,0.3734109,-0.167101,0.3734109,-0.373411v-0.373411c0,-0.4123864,-0.3344363,-0.7468226,-0.7468225,-0.7468226H5.3071862l3.4888273,-1.878725l1.7389295,3.3723696h1.867056c0.20631,0,0.373412,-0.167101,0.373412,-0.37341v-0.373412c0,-0.4123864,-0.334436,-0.7468226,-0.746823,-0.7468226h-0.658604l-1.286168,-2.572103l2.158083,-1.1620091h0.533512c1.237391,0,2.240467,-1.003076,2.240467,-2.2404675V2.6694924c0,-0.412386,-0.334436,-0.7468225,-0.746822,-0.7468225zm-2.240468,0.3734112c0.20631,0,0.373411,0.1671015,0.373411,0.3734113c0,0.2063097,-0.167101,0.3734112,-0.373411,0.3734112c-0.206309,0,-0.373411,-0.1671015,-0.373411,-0.3734112c0,-0.2063098,0.167102,-0.3734113,0.373411,-0.3734113zm0.746823,2.2404675H11.959507L9.5827444,5.8164156L9.2613778,5.1734481L12.028588,3.7897261h1.798208c-0.154498,0.4336237,-0.56525,0.7468225,-1.051385,0.7468225z" fill="#FFFFFF"/>
    </svg>