<svg version="1.1" xmlns="http://www.w3.org/2000/svg" xlink="http://www.w3.org/1999/xlink" x="0px" y="0px" width="15px" height="15px" viewBox="0 0 15 15" style="enable-background:new 0 0 15 15;" space="preserve">
    <path d="M14.133639,1.2221942C13.988003,0.89711265,13.571898,0.88410945,13.397655,1.1909862C12.591452,2.5927377,11.148091,3.466557,9.4992765,3.466557H7.4187548c-2.7566914,0,-4.9932525,2.236561,-4.9932525,4.9932524c0,0.1820457,0.020805,0.3562894,0.039009,0.533134c1.6592162,-1.1884984,4.054417,-2.1975515,7.4508693,-2.1975515c0.2288584,0,0.4161044,0.187247,0.4161044,0.4161044c0,0.2288574,-0.187246,0.4161044,-0.4161044,0.4161044c-6.5380403,0,-9.31033574,4.0076053,-9.92408969,5.5133833c-0.17164305,0.423906,0.03120783,0.907627,0.45511416,1.081871c0.42650695,0.176845,0.91022833,-0.0286,1.08707273,-0.449913c0.039009,-0.09362,0.5435363,-1.245712,1.869869,-2.356191c0.8426114,1.141686,2.4446132,2.23136,4.5485416,2.007704c4.0830236,-0.296474,6.9567456,-3.9581933,6.9567456,-8.4417177c0,-1.3055275,-0.280872,-2.6578667,-0.774995,-3.7605431z" fill="#FFFFFF"/>
    </svg>