<svg version="1.1" xmlns="http://www.w3.org/2000/svg" xlink="http://www.w3.org/1999/xlink" x="0px" y="0px" width="15px" height="15px" viewBox="0 0 15 15" style="enable-background:new 0 0 15 15;" space="preserve">
    <path d="M14.32728515625,0.672744140625C13.650703125,-0.0038085937500000003,12.733828125,-0.17373046874999998,12.127353515625,0.17956054687499998c-1.72576171875,1.005234375,-5.31005859375,-1.554990234375,-9.406435546874999,2.5413867187499997S1.184794921875,10.401591796875,0.17956054687499998,12.127294921875c-0.353291015625,0.6065039062500001,-0.18339843749999998,1.523408203125,0.49315429687499995,2.199990234375c0.6766113281249999,0.6766113281249999,1.593515625,0.8464160156249999,2.200048828125,0.49312500000000004c1.7256152343750002,-1.0051757812500002,5.30994140625,1.5550488281250001,9.406289062499999,-2.541298828125S13.815234375,4.5984375,14.820439453125,2.872734375c0.353291015625,-0.6065039062500001,0.183427734375,-1.523408203125,-0.49315429687499995,-2.199990234375zM7.144951171875,2.7984960937500003c-1.704755859375,0.426181640625,-3.92015625,2.641259765625,-4.34642578125,4.34642578125c-0.053232421875,0.21298828125,-0.24439453125000002,0.3551953125,-0.454423828125,0.3551953125c-0.0376171875,0,-0.07587890624999999,-0.0045703125,-0.11405273437499999,-0.014091796875c-0.25113281249999997,-0.06281250000000001,-0.40382812500000004,-0.31728515625,-0.34107421875,-0.5684472656249999C2.3994433593749998,4.8757910156249995,4.8725390625000005,2.40029296875,6.917548828125,1.88900390625c0.251220703125,-0.06278320312499999,0.5056933593749999,0.089912109375,0.5684472656249999,0.34107421875s-0.089912109375,0.505634765625,-0.341044921875,0.5684179687500001z" fill="#FFFFFF"/>
    </svg>