<svg version="1.1" xmlns="http://www.w3.org/2000/svg" xlink="http://www.w3.org/1999/xlink" x="0px" y="0px" width="15px" height="15px" viewBox="0 0 15 15" style="enable-background:new 0 0 15 15;" space="preserve">
    <path d="M4.8076171875,4.6875H0.3515625c-0.193359375,0,-0.3515625,-0.158203125,-0.3515625,-0.3515625V1.9921875c0,-0.5830078125,0.47167968750000006,-1.0546875,1.0546875,-1.0546875h3.046875c0.5830078125,0,1.0546875,0.47167968750000006,1.0546875,1.0546875v2.34375c0.0029296875,0.193359375,-0.1552734375,0.3515625,-0.3486328125,0.3515625zm10.1953125,-0.3515625V1.9892578125000002c0,-0.5830078125,-0.47167968750000006,-1.0546875,-1.0546875,-1.0546875h-3.046875c-0.5830078125,0,-1.0546875,0.47167968750000006,-1.0546875,1.0546875v2.34375c0,0.193359375,0.158203125,0.3515625,0.3515625,0.3515625h4.453125c0.193359375,0.0029296875,0.3515625,-0.1552734375,0.3515625,-0.3486328125zm-4.8046875,1.2890625c-0.193359375,0,-0.3515625,0.158203125,-0.3515625,0.3515625v1.5234375c0,3.7529296875,-4.6875,3.7470703125,-4.6875,0v-1.5234375c0,-0.193359375,-0.158203125,-0.3515625,-0.3515625,-0.3515625h-4.453125c-0.1962890625,0,-0.3515625,0.158203125,-0.3515625,0.3544921875c0.0029296875,0.626953125,0.017578125,1.1806640625,0,1.5615234375C0.0029296875,11.953125,3.9931640625000004,14.765625,7.526367187499999,14.765625C11.0595703125,14.765625,15,11.953125,15,7.5380859375c-0.017578125,-0.375,-0.005859375,-0.966796875,0,-1.55859375c0,-0.1962890625,-0.1552734375,-0.3544921875,-0.3515625,-0.3544921875H10.1982421875z" fill="#FFFFFF"/>
    </svg>