<svg version="1.1" xmlns="http://www.w3.org/2000/svg" xlink="http://www.w3.org/1999/xlink" x="0px" y="0px" width="15px" height="15px" viewBox="0 0 15 15" style="enable-background:new 0 0 15 15;" space="preserve">
    <path d="M0.726562,10.085938L0.714844,10.046875C0.714844,10.019531,0.734375,9.996094,0.765625,9.996094L2.222656,10C2.296875,10,2.355469,9.9375,2.355469,9.863281C2.355469,9.804688,2.328125,9.765625,2.273438,9.734375L0.949219,9.0625C0.925781,9.046875,0.910156,9.019531,0.910156,8.984375C0.910156,8.960938,0.917969,8.933594,0.933594,8.921875C0.933594,8.921875,4.40625,5.65625,12.09375,8.820312L14.207031,7.722656C14.226562,7.714844,14.25,7.707031,14.277344,7.707031C14.367188,7.707031,14.441406,7.785156,14.441406,7.878906C14.441406,7.914062,14.429688,7.941406,14.417969,7.96875L13.171875,9.613281L14.417969,11.261719C14.429688,11.289062,14.441406,11.320312,14.441406,11.351562C14.441406,11.449219,14.367188,11.527344,14.277344,11.527344C14.25,11.527344,14.226562,11.519531,14.207031,11.507812L12.09375,10.410156C12.09375,10.410156,4.746094,13.519531,0.726562,10.085938ZM3.074219,9.410156C3.351562,9.410156,3.574219,9.175781,3.574219,8.878906C3.574219,8.578125,3.351562,8.34375,3.074219,8.34375C2.796875,8.34375,2.574219,8.578125,2.574219,8.878906C2.574219,9.175781,2.796875,9.410156,3.074219,9.410156ZM9.601562,3.898438L9.601562,5.699219L13.851562,5.699219C14.320312,5.699219,14.699219,5.296875,14.699219,4.800781C14.699219,4.296875,14.320312,3.898438,13.851562,3.898438ZM1.769531,5.195312L2.15625,5.023438L2.398438,5.464844L2.789062,5.164062L3.070312,5.578125L3.445312,5.257812L3.746094,5.652344L4.101562,5.308594L4.421875,5.683594L4.761719,5.320312L5.101562,5.683594L5.441406,5.320312L5.78125,5.683594L6.121094,5.320312L6.460938,5.683594L6.800781,5.320312L7.140625,5.683594L7.476562,5.320312L7.816406,5.683594L8.15625,5.320312L8.5,5.683594L8.894531,5.320312L9.300781,5.683594L9.300781,3.898438L0.300781,3.898438L0.300781,3.910156C0.601562,4.429688,1.207031,4.871094,1.769531,5.195312ZM1.769531,5.195312" fill="#FFFFFF"/>
    </svg>