<svg version="1.1" xmlns="http://www.w3.org/2000/svg" xlink="http://www.w3.org/1999/xlink" x="0px" y="0px" width="15px" height="15px" viewBox="0 0 15 15" style="enable-background:new 0 0 15 15;" space="preserve">
    <path d="M8.101562,1.386719C8.101562,2.070312,7.546875,2.625,6.863281,2.625C6.179688,2.625,5.625,2.070312,5.625,1.386719C5.625,0.703125,6.179688,0.148438,6.863281,0.148438C7.546875,0.148438,8.101562,0.703125,8.101562,1.386719ZM8.101562,1.386719" fill="#FFFFFF"/> <path d="M9.875,9.601562L8.101562,4.730469L8.089844,4.679688C8.089844,4.609375,8.152344,4.550781,8.226562,4.550781C8.289062,4.550781,8.339844,4.59375,8.355469,4.648438L9.5625,7.800781C9.640625,7.980469,9.96875,8.101562,10.1875,8.101562C10.476562,8.101562,10.507812,7.53125,10.5,7.5L9.292969,4.394531C9.191406,3.695312,8.488281,3,7.683594,3L6.113281,3C5.3125,3,4.554688,3.695312,4.453125,4.394531L3.300781,7.5C3.273438,7.558594,3.300781,8.101562,3.613281,8.101562C3.855469,8.101562,4.179688,8.015625,4.238281,7.800781L5.402344,4.636719C5.421875,4.585938,5.46875,4.550781,5.527344,4.550781C5.601562,4.550781,5.660156,4.609375,5.660156,4.679688L5.652344,4.722656L3.925781,9.601562C3.921875,9.613281,3.925781,9.886719,3.925781,9.898438C3.925781,10.003906,4.175781,10.199219,4.285156,10.199219L5.398438,10.199219L5.398438,14.128906C5.398438,14.441406,5.675781,14.699219,6,14.699219C6.324219,14.699219,6.601562,14.441406,6.601562,14.128906L6.601562,10.199219C6.601562,10.113281,7.199219,10.113281,7.199219,10.199219L7.199219,14.101562C7.199219,14.410156,7.476562,14.699219,7.800781,14.699219C8.125,14.699219,8.398438,14.410156,8.398438,14.101562L8.398438,10.199219L9.5625,10.199219C9.667969,10.199219,9.875,10.003906,9.875,9.898438C9.875,9.875,9.882812,9.621094,9.875,9.601562ZM9.875,9.601562" fill="#FFFFFF"/>
    </svg>