<svg version="1.1" xmlns="http://www.w3.org/2000/svg" xlink="http://www.w3.org/1999/xlink" x="0px" y="0px" width="15px" height="15px" viewBox="0 0 15 15" style="enable-background:new 0 0 15 15;" space="preserve">
    <path d="M4.945312,3.566406C5.582031,3.488281,6.039062,2.898438,5.960938,2.246094C5.886719,1.59375,5.304688,1.132812,4.664062,1.207031C4.027344,1.289062,3.574219,1.878906,3.648438,2.527344C3.730469,3.179688,4.304688,3.644531,4.945312,3.566406ZM14.527344,9.164062C14.464844,9.132812,9.710938,6.675781,9.710938,6.675781L8.507812,5.089844L8.429688,5.074219C8.265625,4.917969,8.101562,4.933594,7.800781,5.101562L7.800781,5.105469C7.800781,5.230469,7.734375,5.417969,7.816406,5.566406L8.742188,6.742188L8.757812,6.753906L8.023438,8.488281L6.058594,7.988281L5.972656,7.269531L7.59375,7.070312C7.667969,7.066406,7.742188,7.046875,7.8125,7.007812C8.078125,6.863281,8.183594,6.523438,8.042969,6.25C7.929688,6.039062,7.710938,5.925781,7.496094,5.953125L5.84375,6.15625L5.699219,4.910156C5.617188,4.261719,5.035156,3.792969,4.402344,3.871094C3.761719,3.953125,3.304688,4.542969,3.382812,5.195312L3.726562,8.078125C3.765625,8.445312,3.980469,8.765625,4.265625,8.953125L1.675781,9.265625L0.867188,11.304688L0.960938,11.273438C1.292969,11.117188,1.664062,11.03125,2.03125,11.03125C2.394531,11.03125,2.761719,11.117188,3.09375,11.269531C3.300781,11.367188,3.53125,11.417969,3.757812,11.417969C3.980469,11.417969,4.207031,11.367188,4.414062,11.273438C4.75,11.117188,5.117188,11.03125,5.484375,11.03125C5.847656,11.03125,6.214844,11.117188,6.542969,11.269531C6.753906,11.367188,6.984375,11.417969,7.210938,11.417969C7.4375,11.417969,7.660156,11.367188,7.871094,11.273438C8.203125,11.117188,8.574219,11.03125,8.9375,11.03125C9.304688,11.03125,9.671875,11.117188,10,11.269531C10.078125,11.304688,10.164062,11.328125,10.25,11.355469C11.574219,11,13.917969,10.316406,14.550781,9.738281C14.734375,9.570312,14.769531,9.289062,14.527344,9.164062ZM0.300781,13.800781C0.601562,13.800781,0.894531,13.730469,1.152344,13.609375C1.417969,13.484375,1.71875,13.410156,2.03125,13.410156C2.34375,13.410156,2.636719,13.484375,2.90625,13.609375C3.164062,13.730469,3.453125,13.800781,3.757812,13.800781C4.058594,13.800781,4.347656,13.730469,4.605469,13.609375C4.871094,13.484375,5.171875,13.410156,5.484375,13.410156C5.792969,13.410156,6.09375,13.484375,6.359375,13.609375C6.617188,13.730469,6.90625,13.800781,7.210938,13.800781C7.511719,13.800781,7.800781,13.730469,8.0625,13.609375C8.328125,13.484375,8.625,13.410156,8.9375,13.410156C9.25,13.410156,9.546875,13.484375,9.8125,13.609375C10.074219,13.730469,10.363281,13.800781,10.664062,13.800781C10.96875,13.800781,11.257812,13.730469,11.515625,13.609375C11.78125,13.484375,12.082031,13.410156,12.390625,13.410156C12.703125,13.410156,12.992188,13.484375,13.257812,13.609375C13.515625,13.730469,13.800781,13.800781,14.101562,13.800781L14.101562,12.5C13.800781,12.5,13.515625,12.429688,13.257812,12.3125C12.992188,12.183594,12.699219,12.113281,12.386719,12.113281C12.078125,12.113281,11.78125,12.183594,11.511719,12.3125C11.253906,12.429688,10.964844,12.5,10.664062,12.5C10.359375,12.5,10.074219,12.429688,9.8125,12.3125C9.546875,12.183594,9.25,12.113281,8.9375,12.113281C8.625,12.113281,8.328125,12.183594,8.0625,12.3125C7.800781,12.429688,7.511719,12.5,7.210938,12.5C6.90625,12.5,6.617188,12.429688,6.359375,12.3125C6.09375,12.183594,5.792969,12.113281,5.484375,12.113281C5.171875,12.113281,4.871094,12.183594,4.605469,12.3125C4.347656,12.429688,4.058594,12.5,3.757812,12.5C3.453125,12.5,3.164062,12.429688,2.90625,12.3125C2.636719,12.183594,2.34375,12.113281,2.03125,12.113281C1.71875,12.113281,1.417969,12.183594,1.152344,12.3125C0.894531,12.429688,0.601562,12.5,0.300781,12.5ZM0.300781,13.800781" fill="#FFFFFF"/>
    </svg>