<svg version="1.1" xmlns="http://www.w3.org/2000/svg" xlink="http://www.w3.org/1999/xlink" x="0px" y="0px" width="15px" height="15px" viewBox="0 0 15 15" style="enable-background:new 0 0 15 15;" space="preserve">
    <path d="M14.99970703125,0.93779296875c0,-0.6360351562500001,-0.6181640625,-1.08427734375,-1.21875,-0.8938476562500001L4.40625,2.8125c-0.3896484375,0.123046875,-0.65625,0.4833984375,-0.65625,0.8935546875v7.6587890625c-0.29443359375,-0.06972656249999999,-0.6070312499999999,-0.11484375,-0.9375,-0.11484375c-1.5533203125000001,0,-2.8125,0.83935546875,-2.8125,1.875s1.2591796874999999,1.875,2.8125,1.875s2.8125,-0.83935546875,2.8125,-1.875V6.27861328125l7.5,-2.1978515625v5.40908203125c-0.29443359375,-0.06972656249999999,-0.6070312499999999,-0.11484375,-0.9375,-0.11484375c-1.5533203125000001,0,-2.8125,0.83935546875,-2.8125,1.875s1.2591796874999999,1.875,2.8125,1.875s2.8125,-0.83935546875,2.8125,-1.875l-0.00029296875,-10.31220703125z" fill="#FFFFFF"/>
    </svg>