<svg version="1.1" xmlns="http://www.w3.org/2000/svg" xlink="http://www.w3.org/1999/xlink" x="0px" y="0px" width="15px" height="16.875px" viewBox="0 0 15 16.875" style="enable-background:new 0 0 15 15;" space="preserve">
    <path d="M18.984375,7.119140625v0.52734375c0,0.43687133789062504,-0.35414428710937496,0.791015625,-0.791015625,0.791015625h-0.263671875l-0.860657958984375,6.0245068359375C16.957694091796874,15.241387939453125,16.290208740234377,15.8203125,15.502917480468751,15.8203125H3.48145751953125c-0.787291259765625,0,-1.454776611328125,-0.578924560546875,-1.56614501953125,-1.3583056640625002L1.0546875,8.4375h-0.263671875c-0.43687133789062504,0,-0.791015625,-0.35414428710937496,-0.791015625,-0.791015625v-0.52734375c0,-0.43687133789062504,0.35414428710937496,-0.791015625,0.791015625,-0.791015625h2.219490966796875l3.5193603515625003,-4.839071044921875c0.34260864257812496,-0.4710498046875,1.002183837890625,-0.575233154296875,1.473299560546875,-0.23262451171875c0.47108276367187496,0.34260864257812496,0.575233154296875,1.002216796875,0.23262451171875,1.473299560546875L5.618748779296875,6.328125h7.74687744140625L10.748583984375001,2.7296960449218752c-0.34260864257812496,-0.4710498046875,-0.23842529296875,-1.1306909179687499,0.232657470703125,-1.473299560546875c0.471016845703125,-0.34260864257812496,1.1306909179687499,-0.238458251953125,1.473299560546875,0.23262451171875L15.973868408203126,6.328125H18.193359375c0.43687133789062504,0,0.791015625,0.35414428710937496,0.791015625,0.791015625zM10.283203125,12.919921875V9.228515625c0,-0.43687133789062504,-0.35414428710937496,-0.791015625,-0.791015625,-0.791015625s-0.791015625,0.35414428710937496,-0.791015625,0.791015625v3.69140625c0,0.43687133789062504,0.35414428710937496,0.791015625,0.791015625,0.791015625s0.791015625,-0.35414428710937496,0.791015625,-0.791015625zm3.69140625,0V9.228515625c0,-0.43687133789062504,-0.35414428710937496,-0.791015625,-0.791015625,-0.791015625s-0.791015625,0.35414428710937496,-0.791015625,0.791015625v3.69140625c0,0.43687133789062504,0.35414428710937496,0.791015625,0.791015625,0.791015625s0.791015625,-0.35414428710937496,0.791015625,-0.791015625zm-7.3828125,0V9.228515625c0,-0.43687133789062504,-0.35414428710937496,-0.791015625,-0.791015625,-0.791015625s-0.791015625,0.35414428710937496,-0.791015625,0.791015625v3.69140625c0,0.43687133789062504,0.35414428710937496,0.791015625,0.791015625,0.791015625s0.791015625,-0.35414428710937496,0.791015625,-0.791015625z" fill="#FFFFFF"/>
    </svg>