<svg version="1.1" xmlns="http://www.w3.org/2000/svg" xlink="http://www.w3.org/1999/xlink" x="0px" y="0px" width="15px" height="15px" viewBox="0 0 15 15" style="enable-background:new 0 0 15 15;" space="preserve">
    <path d="M0.9375,15h13.125v-1.875H0.9375v1.875zm11.25,-7.5h-1.9500000000000002c-0.47636718750000007,0,-0.8625,-0.3861328125,-0.8625,-0.8625v-0.2771484375c0,-0.80185546875,0.26015625000000003,-1.56474609375,0.6287109375000001,-2.276953125c0.26689453124999996,-0.51591796875,0.3779296875,-1.12470703125,0.26513671875,-1.7701171875000001c-0.19833984375,-1.1361328125,-1.12705078125,-2.0712890625,-2.2634765625,-2.26904296875C6.2291015625,-0.26484375,4.6875,1.0936523437499999,4.6875,2.8125c0,0.41484375,0.09140625000000001,0.8068359374999999,0.25458984375,1.1595703124999999C5.3326171875,4.8172851562500005,5.625,5.7041015625,5.625,6.635449218750001v0.00205078125c0,0.47636718750000007,-0.3861328125,0.8625,-0.8625,0.8625H2.8125c-1.5533203125000001,0,-2.8125,1.2591796874999999,-2.8125,2.8125v0.9375c0,0.51767578125,0.41982421875,0.9375,0.9375,0.9375h13.125c0.51767578125,0,0.9375,-0.41982421875,0.9375,-0.9375v-0.9375c0,-1.5533203125000001,-1.2591796874999999,-2.8125,-2.8125,-2.8125z" fill="#FFFFFF"/>
    </svg>