<svg version="1.1" xmlns="http://www.w3.org/2000/svg" xlink="http://www.w3.org/1999/xlink" x="0px" y="0px" width="15px" height="15px" viewBox="0 0 15 15" style="enable-background:new 0 0 15 15;" space="preserve">
    <path d="M3.75,8.333v2.143c0,0.404,-0.329,0.733,-0.732,0.733H2.4c-0.403,0,-0.732,-0.329,-0.732,-0.733V7.875H0.734c-0.404,0,-0.733,-0.329,-0.733,-0.733V6.526c0,-0.405,0.33,-0.734,0.733,-0.734h13.533C14.67,5.792,15,6.121,15,6.526v0.615c0,0.404,-0.33,0.733,-0.732,0.733h-0.934v2.601c0,0.404,-0.33,0.733,-0.732,0.733h-0.617c-0.403,0,-0.733,-0.329,-0.733,-0.733V8.333c0,-0.251,-0.205,-0.458,-0.458,-0.458H4.21C3.956,7.875,3.75,8.081,3.75,8.333z" fill="#FFFFFF"/>
    </svg>