<svg xmlns="http://www.w3.org/2000/svg" xlink="http://www.w3.org/1999/xlink" width="20px" height="20px" viewBox="0 0 15 15" version="1.1">
  <g id="surface1">
    <path d="M 12.796875 12.949219 L 12.75 13 C 12.117188 13.636719 11.394531 14.125 10.582031 14.464844 C 9.722656 14.820312 8.835938 15 7.925781 15 C 7.007812 15 6.121094 14.820312 5.273438 14.464844 C 4.449219 14.113281 3.726562 13.625 3.105469 13 C 2.476562 12.375 1.988281 11.65625 1.640625 10.839844 C 1.40625 10.265625 1.253906 9.738281 1.1875 9.257812 C 1.167969 9.101562 1.300781 9 1.589844 8.957031 C 1.875 8.910156 2.03125 8.96875 2.058594 9.125 C 2.066406 9.128906 2.066406 9.140625 2.066406 9.15625 C 2.167969 9.660156 2.296875 10.101562 2.453125 10.488281 C 2.730469 11.179688 3.15625 11.8125 3.726562 12.378906 C 4.273438 12.925781 4.902344 13.351562 5.617188 13.652344 C 6.351562 13.964844 7.125 14.121094 7.925781 14.121094 C 8.726562 14.121094 9.496094 13.964844 10.238281 13.652344 C 10.953125 13.34375 11.578125 12.921875 12.121094 12.378906 L 12.171875 12.328125 C 12.226562 12.273438 12.296875 12.257812 12.378906 12.28125 C 12.445312 12.296875 12.539062 12.359375 12.65625 12.464844 C 12.855469 12.671875 12.90625 12.832031 12.796875 12.949219 Z M 8.847656 7.800781 L 8.296875 8.355469 L 8.824219 8.882812 C 8.941406 9 8.921875 9.136719 8.765625 9.292969 C 8.667969 9.386719 8.578125 9.433594 8.496094 9.433594 C 8.441406 9.433594 8.386719 9.40625 8.335938 9.351562 L 7.816406 8.839844 L 7.265625 9.390625 C 7.238281 9.417969 7.195312 9.433594 7.140625 9.433594 C 7.054688 9.433594 6.96875 9.390625 6.878906 9.300781 L 6.863281 9.28125 C 6.761719 9.199219 6.714844 9.117188 6.714844 9.039062 C 6.714844 9 6.734375 8.953125 6.78125 8.898438 L 7.332031 8.355469 L 6.78125 7.800781 C 6.691406 7.710938 6.730469 7.585938 6.898438 7.425781 C 6.996094 7.324219 7.085938 7.273438 7.15625 7.273438 C 7.191406 7.273438 7.226562 7.289062 7.265625 7.316406 L 7.808594 7.867188 L 8.355469 7.324219 C 8.453125 7.230469 8.589844 7.265625 8.753906 7.433594 C 8.90625 7.582031 8.9375 7.707031 8.847656 7.800781 Z M 12.789062 8.277344 C 12.789062 8.9375 12.660156 9.574219 12.40625 10.1875 C 12.152344 10.773438 11.800781 11.292969 11.351562 11.742188 C 10.902344 12.191406 10.382812 12.542969 9.785156 12.796875 C 9.1875 13.054688 8.550781 13.183594 7.875 13.183594 C 7.203125 13.183594 6.566406 13.054688 5.96875 12.796875 C 5.371094 12.542969 4.847656 12.191406 4.402344 11.742188 C 3.945312 11.285156 3.597656 10.765625 3.355469 10.1875 C 3.273438 10.007812 3.230469 9.898438 3.230469 9.851562 L 3.222656 9.851562 C 3.171875 9.703125 3.292969 9.578125 3.582031 9.484375 C 3.863281 9.394531 4.027344 9.429688 4.085938 9.585938 C 4.292969 10.136719 4.5625 10.601562 4.898438 10.980469 L 4.90625 10.980469 L 4.90625 8.128906 C 4.921875 7.367188 5.207031 6.722656 5.757812 6.1875 C 6.34375 5.609375 7.050781 5.324219 7.875 5.324219 C 8.695312 5.324219 9.398438 5.609375 9.976562 6.1875 C 10.558594 6.761719 10.847656 7.457031 10.847656 8.269531 C 10.847656 9.089844 10.554688 9.789062 9.972656 10.371094 C 9.390625 10.953125 8.691406 11.242188 7.875 11.242188 C 7.554688 11.242188 7.242188 11.195312 6.9375 11.109375 C 6.78125 11.046875 6.746094 10.875 6.832031 10.597656 C 6.917969 10.3125 7.042969 10.191406 7.199219 10.238281 L 7.316406 10.261719 C 7.394531 10.277344 7.484375 10.296875 7.585938 10.3125 C 7.691406 10.328125 7.777344 10.335938 7.84375 10.335938 C 8.421875 10.335938 8.914062 10.136719 9.316406 9.738281 C 9.71875 9.339844 9.917969 8.851562 9.917969 8.277344 C 9.917969 7.714844 9.71875 7.238281 9.316406 6.847656 C 8.921875 6.449219 8.433594 6.253906 7.851562 6.253906 C 7.253906 6.253906 6.757812 6.476562 6.363281 6.921875 C 6.003906 7.324219 5.824219 7.769531 5.824219 8.261719 L 5.824219 11.71875 C 6.441406 12.09375 7.113281 12.28125 7.851562 12.28125 C 8.386719 12.28125 8.902344 12.175781 9.398438 11.972656 C 9.898438 11.769531 10.332031 11.480469 10.707031 11.109375 C 11.078125 10.734375 11.367188 10.300781 11.570312 9.808594 C 11.777344 9.320312 11.878906 8.808594 11.878906 8.277344 C 11.878906 7.171875 11.484375 6.226562 10.699219 5.441406 C 9.917969 4.660156 8.96875 4.269531 7.859375 4.269531 C 6.742188 4.269531 5.796875 4.660156 5.015625 5.441406 C 4.71875 5.738281 4.503906 5.980469 4.371094 6.167969 L 4.351562 6.1875 C 4.308594 6.246094 4.273438 6.289062 4.242188 6.316406 C 4.214844 6.339844 4.15625 6.367188 4.0625 6.394531 C 3.972656 6.421875 3.863281 6.414062 3.742188 6.371094 C 3.625 6.34375 3.523438 6.296875 3.4375 6.230469 C 3.347656 6.167969 3.304688 6.09375 3.304688 6.011719 L 3.304688 0.316406 C 3.304688 0.234375 3.335938 0.160156 3.394531 0.0976562 C 3.453125 0.03125 3.53125 0 3.625 0 L 10.964844 0 C 11.132812 0 11.214844 0.152344 11.214844 0.460938 C 11.214844 0.765625 11.132812 0.921875 10.964844 0.921875 L 4.175781 0.921875 L 4.175781 4.964844 L 4.183594 4.964844 C 4.410156 4.730469 4.691406 4.496094 5.039062 4.261719 C 5.386719 4.027344 5.6875 3.855469 5.941406 3.75 C 6.550781 3.492188 7.195312 3.363281 7.875 3.363281 C 8.550781 3.363281 9.1875 3.492188 9.785156 3.75 C 10.382812 4.007812 10.902344 4.359375 11.351562 4.804688 C 11.800781 5.257812 12.152344 5.777344 12.40625 6.363281 C 12.660156 6.988281 12.789062 7.625 12.789062 8.277344 Z M 12.53125 3.414062 C 12.582031 3.460938 12.605469 3.511719 12.605469 3.566406 C 12.605469 3.621094 12.589844 3.671875 12.558594 3.714844 C 12.527344 3.761719 12.484375 3.820312 12.421875 3.890625 C 12.277344 4.039062 12.167969 4.109375 12.09375 4.109375 C 12.046875 4.109375 12 4.089844 11.960938 4.050781 C 11.371094 3.542969 10.792969 3.171875 10.230469 2.9375 C 9.515625 2.625 8.746094 2.46875 7.917969 2.46875 C 7.175781 2.46875 6.445312 2.605469 5.726562 2.878906 C 5.574219 2.933594 5.449219 2.832031 5.347656 2.570312 C 5.296875 2.429688 5.277344 2.324219 5.28125 2.25 C 5.296875 2.164062 5.34375 2.105469 5.414062 2.085938 C 6.140625 1.765625 6.976562 1.605469 7.917969 1.605469 C 8.832031 1.605469 9.714844 1.785156 10.5625 2.144531 C 11.328125 2.464844 11.984375 2.890625 12.53125 3.414062 Z M 12.53125 3.414062 " fill="#FFFFFF"/>
  </g>
</svg>