<svg version="1.1" xmlns="http://www.w3.org/2000/svg" xlink="http://www.w3.org/1999/xlink" x="0px" y="0px" width="15px" height="16.875px" viewBox="0 0 15 16.875" style="enable-background:new 0 0 15 15;" space="preserve">
    <path d="M0.427510986328125,11.6015625h1.06767333984375C2.2139208984375,14.987603759765626,5.996689453125,16.875,9.4921875,16.875c3.5011999511718748,0,7.279090576171875,-1.8911865234375,7.997003173828125,-5.2734375h1.06767333984375c0.352364501953125,0,0.5288269042968751,-0.42602783203125005,0.279656982421875,-0.675164794921875l-2.2092077636718748,-2.2092077636718748c-0.15444580078124998,-0.15444580078124998,-0.40486816406250004,-0.15444580078124998,-0.559346923828125,0l-2.2092077636718748,2.2092077636718748c-0.24916992187499998,0.24916992187499998,-0.07270751953124999,0.675164794921875,0.279656982421875,0.675164794921875h1.1583764648437502c-0.6687377929687499,1.790233154296875,-2.800294189453125,2.8538525390625,-4.749949951171875,3.098638916015625V8.4375h1.7138671875c0.218419189453125,0,0.3955078125,-0.177088623046875,0.3955078125,-0.3955078125v-1.318359375c0,-0.218419189453125,-0.177088623046875,-0.3955078125,-0.3955078125,-0.3955078125h-1.7138671875v-0.18028564453124998c1.228743896484375,-0.43433349609375005,2.1092102050781247,-1.605926513671875,2.109375,-2.98338134765625C12.656414794921874,1.4426806640624998,11.258953857421876,0.02432373046875,9.537341308593751,0.00032958984374999997C7.769190673828126,-0.024356689453124997,6.328125,1.401580810546875,6.328125,3.1640625c0,1.3776196289062501,0.8805322265625,2.54937744140625,2.109375,2.9837768554687503V6.328125h-1.7138671875c-0.218419189453125,0,-0.3955078125,0.177088623046875,-0.3955078125,0.3955078125v1.318359375c0,0.218419189453125,0.177088623046875,0.3955078125,0.3955078125,0.3955078125h1.7138671875v6.2627014160156245c-1.942470703125,-0.243863525390625,-4.0809814453125,-1.3077795410156252,-4.749949951171875,-3.098638916015625h1.1583764648437502c0.352364501953125,0,0.5288269042968751,-0.42602783203125005,0.279656982421875,-0.675164794921875l-2.2092077636718748,-2.2092077636718748c-0.15444580078124998,-0.15444580078124998,-0.40486816406250004,-0.15444580078124998,-0.559346923828125,0L0.147821044921875,10.926397705078124C-0.10131591796875,11.175534667968751,0.07514648437499999,11.6015625,0.427510986328125,11.6015625zM9.4921875,2.109375c0.5815612792968751,0,1.0546875,0.47312622070312504,1.0546875,1.0546875s-0.47312622070312504,1.0546875,-1.0546875,1.0546875s-1.0546875,-0.47312622070312504,-1.0546875,-1.0546875s0.47312622070312504,-1.0546875,1.0546875,-1.0546875z" fill="#FFFFFF"/>
    </svg>