<?xml version="1.0" encoding="UTF-8" standalone="yes"?>
<svg xmlns="http://www.w3.org/2000/svg" xmlns:xlink="http://www.w3.org/1999/xlink" width="20px" height="20px" viewBox="0 0 15 15" version="1.1">
  <g id="surface1">
    <path style=" stroke:none;fill-rule:nonzero;fill:rgb(0%,0%,0%);fill-opacity:1;" d="M 8.195312 8.035156 C 8.195312 8.109375 8.167969 8.171875 8.109375 8.226562 L 4.210938 12.128906 C 4.15625 12.183594 4.089844 12.210938 4.019531 12.210938 C 3.945312 12.210938 3.882812 12.183594 3.824219 12.128906 L 3.40625 11.710938 C 3.351562 11.65625 3.324219 11.589844 3.324219 11.519531 C 3.324219 11.445312 3.351562 11.382812 3.40625 11.324219 L 6.695312 8.035156 L 3.40625 4.746094 C 3.351562 4.691406 3.324219 4.625 3.324219 4.554688 C 3.324219 4.480469 3.351562 4.417969 3.40625 4.359375 L 3.824219 3.941406 C 3.882812 3.886719 3.945312 3.859375 4.019531 3.859375 C 4.089844 3.859375 4.15625 3.886719 4.210938 3.941406 L 8.109375 7.84375 C 8.167969 7.898438 8.195312 7.964844 8.195312 8.035156 Z M 11.410156 8.035156 C 11.410156 8.109375 11.382812 8.171875 11.324219 8.226562 L 7.425781 12.128906 C 7.367188 12.183594 7.304688 12.210938 7.230469 12.210938 C 7.160156 12.210938 7.09375 12.183594 7.039062 12.128906 L 6.621094 11.710938 C 6.566406 11.65625 6.539062 11.589844 6.539062 11.519531 C 6.539062 11.445312 6.566406 11.382812 6.621094 11.324219 L 9.910156 8.035156 L 6.621094 4.746094 C 6.566406 4.691406 6.539062 4.625 6.539062 4.554688 C 6.539062 4.480469 6.566406 4.417969 6.621094 4.359375 L 7.039062 3.941406 C 7.09375 3.886719 7.160156 3.859375 7.230469 3.859375 C 7.304688 3.859375 7.367188 3.886719 7.425781 3.941406 L 11.324219 7.84375 C 11.382812 7.898438 11.410156 7.964844 11.410156 8.035156 Z M 11.410156 8.035156 "/>
  </g>
</svg>