<?xml version="1.0" encoding="UTF-8" standalone="yes"?>
<svg xmlns="http://www.w3.org/2000/svg" xmlns:xlink="http://www.w3.org/1999/xlink" width="20px" height="20px" viewBox="0 0 15 15" version="1.1">
  <g id="surface1">
    <path style=" stroke:none;fill-rule:nonzero;fill:rgb(0%,0%,0%);fill-opacity:1;" d="M 8.460938 11.519531 C 8.460938 11.589844 8.433594 11.65625 8.378906 11.710938 L 7.960938 12.128906 C 7.90625 12.183594 7.839844 12.210938 7.769531 12.210938 C 7.695312 12.210938 7.632812 12.183594 7.574219 12.128906 L 3.675781 8.226562 C 3.617188 8.171875 3.589844 8.109375 3.589844 8.035156 C 3.589844 7.964844 3.617188 7.898438 3.675781 7.84375 L 7.574219 3.941406 C 7.632812 3.886719 7.695312 3.859375 7.769531 3.859375 C 7.839844 3.859375 7.90625 3.886719 7.960938 3.941406 L 8.378906 4.359375 C 8.433594 4.417969 8.460938 4.480469 8.460938 4.554688 C 8.460938 4.625 8.433594 4.691406 8.378906 4.746094 L 5.089844 8.035156 L 8.378906 11.324219 C 8.433594 11.382812 8.460938 11.445312 8.460938 11.519531 Z M 11.675781 11.519531 C 11.675781 11.589844 11.648438 11.65625 11.59375 11.710938 L 11.175781 12.128906 C 11.117188 12.183594 11.054688 12.210938 10.980469 12.210938 C 10.910156 12.210938 10.84375 12.183594 10.789062 12.128906 L 6.890625 8.226562 C 6.832031 8.171875 6.804688 8.109375 6.804688 8.035156 C 6.804688 7.964844 6.832031 7.898438 6.890625 7.84375 L 10.789062 3.941406 C 10.84375 3.886719 10.910156 3.859375 10.980469 3.859375 C 11.054688 3.859375 11.117188 3.886719 11.175781 3.941406 L 11.59375 4.359375 C 11.648438 4.417969 11.675781 4.480469 11.675781 4.554688 C 11.675781 4.625 11.648438 4.691406 11.59375 4.746094 L 8.304688 8.035156 L 11.59375 11.324219 C 11.648438 11.382812 11.675781 11.445312 11.675781 11.519531 Z M 11.675781 11.519531 "/>
  </g>
</svg>