<?xml version="1.0" encoding="UTF-8" standalone="yes"?>
<svg xmlns="http://www.w3.org/2000/svg" xmlns:xlink="http://www.w3.org/1999/xlink" width="20px" height="20px" viewBox="0 0 15 15" version="1.1">
  <g id="surface1">
    <path style=" stroke:none;fill-rule:nonzero;fill:rgb(0%,0%,0%);fill-opacity:1;" d="M 10.179688 2.679688 C 10.179688 2.824219 10.125 2.949219 10.019531 3.054688 C 9.914062 3.160156 9.789062 3.214844 9.644531 3.214844 L 8.570312 3.214844 L 8.570312 11.785156 L 9.644531 11.785156 C 9.789062 11.785156 9.914062 11.839844 10.019531 11.945312 C 10.125 12.050781 10.179688 12.175781 10.179688 12.320312 C 10.179688 12.464844 10.125 12.59375 10.019531 12.699219 L 7.875 14.839844 C 7.769531 14.945312 7.644531 15 7.5 15 C 7.355469 15 7.230469 14.945312 7.125 14.839844 L 4.980469 12.699219 C 4.875 12.59375 4.820312 12.464844 4.820312 12.320312 C 4.820312 12.175781 4.875 12.050781 4.980469 11.945312 C 5.085938 11.839844 5.210938 11.785156 5.355469 11.785156 L 6.429688 11.785156 L 6.429688 3.214844 L 5.355469 3.214844 C 5.210938 3.214844 5.085938 3.160156 4.980469 3.054688 C 4.875 2.949219 4.820312 2.824219 4.820312 2.679688 C 4.820312 2.535156 4.875 2.40625 4.980469 2.300781 L 7.125 0.160156 C 7.230469 0.0546875 7.355469 0 7.5 0 C 7.644531 0 7.769531 0.0546875 7.875 0.160156 L 10.019531 2.300781 C 10.125 2.40625 10.179688 2.535156 10.179688 2.679688 Z M 10.179688 2.679688 "/>
  </g>
</svg>