<?xml version="1.0" encoding="UTF-8" standalone="yes"?>
<svg xmlns="http://www.w3.org/2000/svg" xmlns:xlink="http://www.w3.org/1999/xlink" width="20px" height="20px" viewBox="0 0 15 15" version="1.1">
  <g id="surface1">
    <path style=" stroke:none;fill-rule:nonzero;fill:rgb(0%,0%,0%);fill-opacity:1;" d="M 11.675781 7.230469 C 11.675781 7.304688 11.648438 7.367188 11.59375 7.425781 L 7.691406 11.324219 C 7.636719 11.382812 7.574219 11.410156 7.5 11.410156 C 7.425781 11.410156 7.363281 11.382812 7.308594 11.324219 L 3.40625 7.425781 C 3.351562 7.367188 3.324219 7.304688 3.324219 7.230469 C 3.324219 7.160156 3.351562 7.09375 3.40625 7.039062 L 3.824219 6.621094 C 3.882812 6.566406 3.945312 6.539062 4.019531 6.539062 C 4.089844 6.539062 4.15625 6.566406 4.210938 6.621094 L 7.5 9.910156 L 10.789062 6.621094 C 10.84375 6.566406 10.910156 6.539062 10.980469 6.539062 C 11.054688 6.539062 11.117188 6.566406 11.175781 6.621094 L 11.59375 7.039062 C 11.648438 7.09375 11.675781 7.160156 11.675781 7.230469 Z M 11.675781 4.019531 C 11.675781 4.089844 11.648438 4.15625 11.59375 4.210938 L 7.691406 8.109375 C 7.636719 8.167969 7.574219 8.195312 7.5 8.195312 C 7.425781 8.195312 7.363281 8.167969 7.308594 8.109375 L 3.40625 4.210938 C 3.351562 4.15625 3.324219 4.089844 3.324219 4.019531 C 3.324219 3.945312 3.351562 3.882812 3.40625 3.824219 L 3.824219 3.40625 C 3.882812 3.351562 3.945312 3.324219 4.019531 3.324219 C 4.089844 3.324219 4.15625 3.351562 4.210938 3.40625 L 7.5 6.695312 L 10.789062 3.40625 C 10.84375 3.351562 10.910156 3.324219 10.980469 3.324219 C 11.054688 3.324219 11.117188 3.351562 11.175781 3.40625 L 11.59375 3.824219 C 11.648438 3.882812 11.675781 3.945312 11.675781 4.019531 Z M 11.675781 4.019531 "/>
  </g>
</svg>