<svg xmlns="http://www.w3.org/2000/svg" xlink="http://www.w3.org/1999/xlink" width="20px" height="20px" viewBox="0 0 15 15" version="1.1">
  <g id="surface1">
    <path d="M 11.785156 8.035156 L 11.785156 6.964844 C 11.785156 6.820312 11.734375 6.695312 11.625 6.585938 C 11.519531 6.480469 11.394531 6.429688 11.25 6.429688 L 7.046875 6.429688 L 8.628906 4.847656 C 8.734375 4.742188 8.789062 4.613281 8.789062 4.46875 C 8.789062 4.324219 8.734375 4.199219 8.628906 4.09375 L 7.867188 3.332031 C 7.769531 3.230469 7.640625 3.179688 7.492188 3.179688 C 7.339844 3.179688 7.214844 3.230469 7.113281 3.332031 L 4.085938 6.363281 L 3.324219 7.125 C 3.222656 7.222656 3.171875 7.347656 3.171875 7.5 C 3.171875 7.652344 3.222656 7.777344 3.324219 7.875 L 4.085938 8.636719 L 7.113281 11.667969 C 7.214844 11.769531 7.339844 11.820312 7.492188 11.820312 C 7.640625 11.820312 7.769531 11.769531 7.867188 11.667969 L 8.628906 10.90625 C 8.730469 10.804688 8.78125 10.679688 8.78125 10.53125 C 8.78125 10.378906 8.730469 10.253906 8.628906 10.152344 L 7.046875 8.570312 L 11.25 8.570312 C 11.394531 8.570312 11.519531 8.519531 11.625 8.414062 C 11.734375 8.304688 11.785156 8.179688 11.785156 8.035156 Z M 13.929688 7.5 C 13.929688 8.667969 13.640625 9.742188 13.066406 10.726562 C 12.492188 11.710938 11.710938 12.492188 10.726562 13.066406 C 9.742188 13.640625 8.667969 13.929688 7.5 13.929688 C 6.332031 13.929688 5.257812 13.640625 4.273438 13.066406 C 3.289062 12.492188 2.507812 11.710938 1.933594 10.726562 C 1.359375 9.742188 1.070312 8.667969 1.070312 7.5 C 1.070312 6.332031 1.359375 5.257812 1.933594 4.273438 C 2.507812 3.289062 3.289062 2.507812 4.273438 1.933594 C 5.257812 1.359375 6.332031 1.070312 7.5 1.070312 C 8.667969 1.070312 9.742188 1.359375 10.726562 1.933594 C 11.710938 2.507812 12.492188 3.289062 13.066406 4.273438 C 13.640625 5.257812 13.929688 6.332031 13.929688 7.5 Z M 13.929688 7.5 " fill="#FFFFFF"/>
  </g>
</svg>