<svg xmlns="http://www.w3.org/2000/svg" xlink="http://www.w3.org/1999/xlink" width="20px" height="20px" viewBox="0 0 15 15" version="1.1">
  <g id="surface1">
    <path d="M 13.394531 8.035156 C 13.394531 8.335938 13.289062 8.589844 13.082031 8.796875 L 7.632812 14.246094 C 7.417969 14.453125 7.164062 14.554688 6.871094 14.554688 C 6.585938 14.554688 6.335938 14.453125 6.117188 14.246094 L 5.492188 13.617188 C 5.277344 13.40625 5.171875 13.152344 5.171875 12.855469 C 5.171875 12.5625 5.277344 12.308594 5.492188 12.09375 L 7.945312 9.644531 L 2.050781 9.644531 C 1.761719 9.644531 1.523438 9.539062 1.34375 9.328125 C 1.160156 9.121094 1.070312 8.867188 1.070312 8.570312 L 1.070312 7.5 C 1.070312 7.203125 1.160156 6.953125 1.34375 6.742188 C 1.523438 6.53125 1.761719 6.429688 2.050781 6.429688 L 7.945312 6.429688 L 5.492188 3.96875 C 5.277344 3.765625 5.171875 3.515625 5.171875 3.214844 C 5.171875 2.914062 5.277344 2.660156 5.492188 2.460938 L 6.117188 1.832031 C 6.332031 1.621094 6.582031 1.515625 6.871094 1.515625 C 7.167969 1.515625 7.421875 1.621094 7.632812 1.832031 L 13.082031 7.28125 C 13.289062 7.476562 13.394531 7.730469 13.394531 8.035156 Z M 13.394531 8.035156 " fill="#FFFFFF"/>
  </g>
</svg>