<?xml version="1.0" encoding="UTF-8" standalone="yes"?>
<svg xmlns="http://www.w3.org/2000/svg" xmlns:xlink="http://www.w3.org/1999/xlink" width="20px" height="20px" viewBox="0 0 15 15" version="1.1">
  <g id="surface1">
    <path style=" stroke:none;fill-rule:nonzero;fill:rgb(0%,0%,0%);fill-opacity:1;" d="M 10.714844 6.695312 L 10.714844 8.304688 C 10.714844 8.375 10.6875 8.4375 10.632812 8.492188 C 10.582031 8.546875 10.519531 8.570312 10.445312 8.570312 L 7.5 8.570312 L 7.5 10.179688 C 7.5 10.257812 7.476562 10.320312 7.425781 10.371094 C 7.375 10.421875 7.308594 10.445312 7.230469 10.445312 C 7.164062 10.445312 7.097656 10.417969 7.03125 10.363281 L 4.359375 7.691406 C 4.3125 7.640625 4.285156 7.578125 4.285156 7.5 C 4.285156 7.421875 4.3125 7.359375 4.359375 7.308594 L 7.039062 4.628906 C 7.089844 4.578125 7.152344 4.554688 7.230469 4.554688 C 7.304688 4.554688 7.367188 4.578125 7.421875 4.632812 C 7.472656 4.6875 7.5 4.75 7.5 4.820312 L 7.5 6.429688 L 10.445312 6.429688 C 10.519531 6.429688 10.582031 6.453125 10.632812 6.507812 C 10.6875 6.5625 10.714844 6.625 10.714844 6.695312 Z M 12.054688 7.5 C 12.054688 6.675781 11.851562 5.914062 11.441406 5.214844 C 11.035156 4.515625 10.484375 3.964844 9.785156 3.558594 C 9.085938 3.148438 8.324219 2.945312 7.5 2.945312 C 6.675781 2.945312 5.914062 3.148438 5.214844 3.558594 C 4.515625 3.964844 3.964844 4.515625 3.558594 5.214844 C 3.148438 5.914062 2.945312 6.675781 2.945312 7.5 C 2.945312 8.324219 3.148438 9.085938 3.558594 9.785156 C 3.964844 10.484375 4.515625 11.035156 5.214844 11.441406 C 5.914062 11.851562 6.675781 12.054688 7.5 12.054688 C 8.324219 12.054688 9.085938 11.851562 9.785156 11.441406 C 10.484375 11.035156 11.035156 10.484375 11.441406 9.785156 C 11.851562 9.085938 12.054688 8.324219 12.054688 7.5 Z M 13.929688 7.5 C 13.929688 8.667969 13.640625 9.742188 13.066406 10.726562 C 12.492188 11.710938 11.710938 12.492188 10.726562 13.066406 C 9.742188 13.640625 8.667969 13.929688 7.5 13.929688 C 6.332031 13.929688 5.257812 13.640625 4.273438 13.066406 C 3.289062 12.492188 2.507812 11.710938 1.933594 10.726562 C 1.359375 9.742188 1.070312 8.667969 1.070312 7.5 C 1.070312 6.332031 1.359375 5.257812 1.933594 4.273438 C 2.507812 3.289062 3.289062 2.507812 4.273438 1.933594 C 5.257812 1.359375 6.332031 1.070312 7.5 1.070312 C 8.667969 1.070312 9.742188 1.359375 10.726562 1.933594 C 11.710938 2.507812 12.492188 3.289062 13.066406 4.273438 C 13.640625 5.257812 13.929688 6.332031 13.929688 7.5 Z M 13.929688 7.5 "/>
  </g>
</svg>