<svg xmlns="http://www.w3.org/2000/svg" xlink="http://www.w3.org/1999/xlink" width="20px" height="20px" viewBox="0 0 15 15" version="1.1">
  <g id="surface1">
    <path d="M 8.035156 2.144531 C 8.035156 1.996094 7.984375 1.871094 7.875 1.765625 C 7.769531 1.660156 7.644531 1.605469 7.5 1.605469 C 7.355469 1.605469 7.230469 1.660156 7.125 1.765625 C 7.015625 1.871094 6.964844 1.996094 6.964844 2.144531 C 6.964844 2.289062 7.015625 2.414062 7.125 2.519531 C 7.230469 2.625 7.355469 2.679688 7.5 2.679688 C 7.644531 2.679688 7.769531 2.625 7.875 2.519531 C 7.984375 2.414062 8.035156 2.289062 8.035156 2.144531 Z M 15 9.910156 L 15 12.855469 C 15 12.980469 14.945312 13.0625 14.832031 13.109375 C 14.789062 13.121094 14.753906 13.125 14.730469 13.125 C 14.660156 13.125 14.59375 13.101562 14.539062 13.050781 L 13.761719 12.269531 C 13.097656 13.070312 12.207031 13.699219 11.09375 14.167969 C 9.980469 14.632812 8.785156 14.867188 7.5 14.867188 C 6.214844 14.867188 5.019531 14.632812 3.90625 14.167969 C 2.792969 13.699219 1.902344 13.070312 1.238281 12.269531 L 0.460938 13.050781 C 0.410156 13.101562 0.347656 13.125 0.269531 13.125 C 0.246094 13.125 0.210938 13.121094 0.167969 13.109375 C 0.0546875 13.0625 0 12.980469 0 12.855469 L 0 9.910156 C 0 9.832031 0.0234375 9.769531 0.0742188 9.71875 C 0.125 9.667969 0.191406 9.644531 0.269531 9.644531 L 3.214844 9.644531 C 3.335938 9.644531 3.421875 9.699219 3.464844 9.808594 C 3.511719 9.917969 3.492188 10.015625 3.40625 10.101562 L 2.570312 10.941406 C 2.945312 11.449219 3.472656 11.875 4.15625 12.226562 C 4.839844 12.574219 5.597656 12.804688 6.429688 12.914062 L 6.429688 7.5 L 4.820312 7.5 C 4.675781 7.5 4.550781 7.445312 4.445312 7.339844 C 4.339844 7.234375 4.285156 7.109375 4.285156 6.964844 L 4.285156 5.894531 C 4.285156 5.746094 4.339844 5.621094 4.445312 5.515625 C 4.550781 5.410156 4.675781 5.355469 4.820312 5.355469 L 6.429688 5.355469 L 6.429688 3.992188 C 6.105469 3.804688 5.84375 3.546875 5.648438 3.21875 C 5.453125 2.890625 5.355469 2.535156 5.355469 2.144531 C 5.355469 1.550781 5.566406 1.046875 5.984375 0.628906 C 6.402344 0.210938 6.910156 0 7.5 0 C 8.089844 0 8.597656 0.210938 9.015625 0.628906 C 9.433594 1.046875 9.644531 1.550781 9.644531 2.144531 C 9.644531 2.535156 9.546875 2.890625 9.351562 3.21875 C 9.15625 3.546875 8.894531 3.804688 8.570312 3.992188 L 8.570312 5.355469 L 10.179688 5.355469 C 10.324219 5.355469 10.449219 5.410156 10.554688 5.515625 C 10.660156 5.621094 10.714844 5.746094 10.714844 5.894531 L 10.714844 6.964844 C 10.714844 7.109375 10.660156 7.234375 10.554688 7.339844 C 10.449219 7.445312 10.324219 7.5 10.179688 7.5 L 8.570312 7.5 L 8.570312 12.914062 C 9.402344 12.804688 10.160156 12.574219 10.84375 12.226562 C 11.527344 11.875 12.054688 11.449219 12.429688 10.941406 L 11.59375 10.101562 C 11.507812 10.015625 11.488281 9.917969 11.535156 9.808594 C 11.578125 9.699219 11.664062 9.644531 11.785156 9.644531 L 14.730469 9.644531 C 14.808594 9.644531 14.875 9.667969 14.925781 9.71875 C 14.976562 9.769531 15 9.832031 15 9.910156 Z M 15 9.910156 " fill="#FFFFFF"/>
  </g>
</svg>