<?xml version="1.0" encoding="UTF-8" standalone="yes"?>
<svg xmlns="http://www.w3.org/2000/svg" xmlns:xlink="http://www.w3.org/1999/xlink" width="20px" height="20px" viewBox="0 0 15 15" version="1.1">
  <g id="surface1">
    <path style=" stroke:none;fill-rule:nonzero;fill:rgb(0%,0%,0%);fill-opacity:1;" d="M 11.8125 4.527344 L 8.839844 7.5 L 11.8125 10.472656 L 13.015625 9.265625 C 13.179688 9.09375 13.375 9.054688 13.601562 9.148438 C 13.820312 9.242188 13.929688 9.410156 13.929688 9.644531 L 13.929688 13.394531 C 13.929688 13.539062 13.875 13.664062 13.769531 13.769531 C 13.664062 13.875 13.539062 13.929688 13.394531 13.929688 L 9.644531 13.929688 C 9.410156 13.929688 9.242188 13.816406 9.148438 13.59375 C 9.054688 13.375 9.09375 13.183594 9.265625 13.015625 L 10.472656 11.8125 L 7.5 8.839844 L 4.527344 11.8125 L 5.734375 13.015625 C 5.90625 13.183594 5.945312 13.375 5.851562 13.59375 C 5.757812 13.816406 5.589844 13.929688 5.355469 13.929688 L 1.605469 13.929688 C 1.460938 13.929688 1.335938 13.875 1.230469 13.769531 C 1.125 13.664062 1.070312 13.539062 1.070312 13.394531 L 1.070312 9.644531 C 1.070312 9.410156 1.183594 9.242188 1.40625 9.148438 C 1.625 9.054688 1.816406 9.09375 1.984375 9.265625 L 3.1875 10.472656 L 6.160156 7.5 L 3.1875 4.527344 L 1.984375 5.734375 C 1.878906 5.839844 1.753906 5.894531 1.605469 5.894531 C 1.539062 5.894531 1.472656 5.878906 1.40625 5.851562 C 1.183594 5.757812 1.070312 5.589844 1.070312 5.355469 L 1.070312 1.605469 C 1.070312 1.460938 1.125 1.335938 1.230469 1.230469 C 1.335938 1.125 1.460938 1.070312 1.605469 1.070312 L 5.355469 1.070312 C 5.589844 1.070312 5.757812 1.183594 5.851562 1.40625 C 5.945312 1.625 5.90625 1.816406 5.734375 1.984375 L 4.527344 3.1875 L 7.5 6.160156 L 10.472656 3.1875 L 9.265625 1.984375 C 9.09375 1.816406 9.054688 1.625 9.148438 1.40625 C 9.242188 1.183594 9.410156 1.070312 9.644531 1.070312 L 13.394531 1.070312 C 13.539062 1.070312 13.664062 1.125 13.769531 1.230469 C 13.875 1.335938 13.929688 1.460938 13.929688 1.605469 L 13.929688 5.355469 C 13.929688 5.589844 13.820312 5.757812 13.601562 5.851562 C 13.53125 5.878906 13.460938 5.894531 13.394531 5.894531 C 13.246094 5.894531 13.121094 5.839844 13.015625 5.734375 Z M 11.8125 4.527344 "/>
  </g>
</svg>