<?xml version="1.0" encoding="UTF-8" standalone="yes"?>
<svg xmlns="http://www.w3.org/2000/svg" xmlns:xlink="http://www.w3.org/1999/xlink" width="20px" height="20px" viewBox="0 0 15 15" version="1.1">
  <g id="surface1">
    <path style=" stroke:none;fill-rule:nonzero;fill:rgb(0%,0%,0%);fill-opacity:1;" d="M 15 7.5 C 15 7.644531 14.945312 7.769531 14.839844 7.875 L 12.699219 10.019531 C 12.59375 10.125 12.464844 10.179688 12.320312 10.179688 C 12.175781 10.179688 12.050781 10.125 11.945312 10.019531 C 11.839844 9.914062 11.785156 9.789062 11.785156 9.644531 L 11.785156 8.570312 L 3.214844 8.570312 L 3.214844 9.644531 C 3.214844 9.789062 3.160156 9.914062 3.054688 10.019531 C 2.949219 10.125 2.824219 10.179688 2.679688 10.179688 C 2.535156 10.179688 2.40625 10.125 2.300781 10.019531 L 0.160156 7.875 C 0.0546875 7.769531 0 7.644531 0 7.5 C 0 7.355469 0.0546875 7.230469 0.160156 7.125 L 2.300781 4.980469 C 2.40625 4.875 2.535156 4.820312 2.679688 4.820312 C 2.824219 4.820312 2.949219 4.875 3.054688 4.980469 C 3.160156 5.085938 3.214844 5.210938 3.214844 5.355469 L 3.214844 6.429688 L 11.785156 6.429688 L 11.785156 5.355469 C 11.785156 5.210938 11.839844 5.085938 11.945312 4.980469 C 12.050781 4.875 12.175781 4.820312 12.320312 4.820312 C 12.464844 4.820312 12.59375 4.875 12.699219 4.980469 L 14.839844 7.125 C 14.945312 7.230469 15 7.355469 15 7.5 Z M 15 7.5 "/>
  </g>
</svg>