<?xml version="1.0" encoding="UTF-8" standalone="yes"?>
<svg xmlns="http://www.w3.org/2000/svg" xmlns:xlink="http://www.w3.org/1999/xlink" width="20px" height="20px" viewBox="0 0 15 15" version="1.1">
  <g id="surface1">
    <path style=" stroke:none;fill-rule:nonzero;fill:rgb(0%,0%,0%);fill-opacity:1;" d="M 10.121094 3.164062 L 9.164062 5.910156 L 10.144531 6.085938 C 11.066406 3.570312 11.527344 2.125 11.527344 1.75 C 11.527344 1.4375 11.421875 1.28125 11.207031 1.28125 C 10.890625 1.28125 10.527344 1.910156 10.121094 3.164062 Z M 7.617188 8.914062 L 7.894531 9.652344 C 8.101562 9.417969 8.296875 9.230469 8.488281 9.089844 L 8.210938 9.042969 L 7.890625 8.984375 Z M 5.171875 1.414062 C 5.171875 1.960938 5.617188 3.414062 6.503906 5.777344 C 6.605469 5.71875 6.742188 5.691406 6.914062 5.691406 C 6.996094 5.691406 7.207031 5.707031 7.542969 5.734375 L 6.527344 2.796875 C 6.109375 1.566406 5.765625 0.953125 5.5 0.953125 C 5.394531 0.953125 5.3125 1.003906 5.257812 1.101562 C 5.199219 1.199219 5.171875 1.304688 5.171875 1.414062 Z M 4.511719 7.769531 C 4.511719 7.96875 4.65625 8.300781 4.941406 8.765625 C 5.230469 9.226562 5.558594 9.652344 5.925781 10.042969 C 6.292969 10.433594 6.574219 10.628906 6.761719 10.628906 C 6.839844 10.628906 6.914062 10.59375 6.976562 10.523438 C 7.039062 10.449219 7.074219 10.375 7.074219 10.296875 C 7.074219 10.160156 6.984375 9.878906 6.804688 9.441406 C 6.734375 9.261719 6.644531 9.0625 6.539062 8.839844 C 6.429688 8.617188 6.296875 8.367188 6.140625 8.09375 C 5.980469 7.820312 5.808594 7.59375 5.625 7.417969 C 5.441406 7.238281 5.269531 7.148438 5.105469 7.148438 C 4.996094 7.148438 4.867188 7.222656 4.726562 7.375 C 4.582031 7.523438 4.511719 7.65625 4.511719 7.769531 Z M 3.1875 10.570312 C 3.1875 10.800781 3.257812 11.089844 3.398438 11.441406 C 3.726562 12.25 4.238281 12.886719 4.933594 13.34375 C 5.628906 13.800781 6.414062 14.027344 7.289062 14.027344 C 8.558594 14.027344 9.625 13.554688 10.488281 12.605469 C 11.335938 11.664062 11.761719 10.472656 11.761719 9.03125 C 11.761719 8.792969 11.757812 8.605469 11.753906 8.472656 C 11.746094 8.335938 11.714844 8.164062 11.65625 7.953125 C 11.597656 7.738281 11.511719 7.582031 11.402344 7.484375 C 11.089844 7.210938 10.496094 7 9.628906 6.851562 C 8.761719 6.703125 8.007812 6.628906 7.367188 6.628906 C 7.160156 6.628906 7.023438 6.660156 6.957031 6.722656 C 6.890625 6.75 6.855469 6.847656 6.855469 7.015625 C 6.855469 7.203125 6.914062 7.371094 7.035156 7.515625 C 7.15625 7.660156 7.308594 7.773438 7.5 7.851562 C 7.691406 7.929688 7.90625 7.996094 8.148438 8.046875 C 8.390625 8.101562 8.636719 8.132812 8.882812 8.144531 C 9.125 8.15625 9.363281 8.167969 9.59375 8.179688 C 9.820312 8.1875 10.015625 8.1875 10.179688 8.179688 L 10.371094 8.179688 C 10.503906 8.179688 10.617188 8.230469 10.707031 8.335938 C 10.789062 8.441406 10.84375 8.597656 10.863281 8.796875 C 10.707031 8.953125 10.441406 9.105469 10.0625 9.25 C 9.722656 9.371094 9.460938 9.5 9.28125 9.632812 C 8.925781 9.890625 8.621094 10.210938 8.375 10.589844 C 8.125 10.96875 8.003906 11.351562 8.003906 11.734375 C 8.003906 11.910156 8.054688 12.15625 8.15625 12.476562 C 8.261719 12.796875 8.3125 13.042969 8.3125 13.207031 L 8.285156 13.308594 C 8.265625 13.375 8.253906 13.414062 8.253906 13.425781 C 7.488281 13.371094 7.082031 12.769531 7.03125 11.617188 C 6.988281 11.628906 6.871094 11.636719 6.6875 11.636719 C 6.699219 11.675781 6.703125 11.734375 6.703125 11.8125 C 6.703125 12.105469 6.59375 12.355469 6.367188 12.558594 C 6.140625 12.761719 5.875 12.867188 5.574219 12.867188 C 5.117188 12.867188 4.652344 12.648438 4.179688 12.210938 C 3.710938 11.777344 3.472656 11.332031 3.472656 10.882812 C 3.472656 10.691406 3.566406 10.503906 3.75 10.320312 C 4.039062 10.679688 4.207031 10.890625 4.253906 10.957031 C 4.683594 11.539062 5.054688 11.828125 5.367188 11.828125 C 5.433594 11.828125 5.507812 11.804688 5.585938 11.757812 C 5.667969 11.707031 5.707031 11.652344 5.707031 11.585938 C 5.707031 11.394531 5.464844 10.992188 4.976562 10.371094 C 4.488281 9.75 4.164062 9.441406 4 9.441406 C 3.761719 9.441406 3.566406 9.566406 3.414062 9.8125 C 3.265625 10.0625 3.1875 10.316406 3.1875 10.570312 Z M 2.234375 10.648438 C 2.234375 10.082031 2.351562 9.628906 2.589844 9.28125 C 2.828125 8.9375 3.207031 8.691406 3.734375 8.546875 C 3.578125 8.132812 3.5 7.84375 3.5 7.675781 C 3.5 7.328125 3.667969 6.988281 4.007812 6.644531 C 4.351562 6.304688 4.691406 6.136719 5.03125 6.136719 C 5.191406 6.136719 5.386719 6.175781 5.617188 6.261719 C 4.707031 3.683594 4.253906 2.101562 4.253906 1.515625 C 4.253906 1.070312 4.367188 0.703125 4.59375 0.421875 C 4.824219 0.140625 5.15625 0 5.589844 0 C 6.324219 0 7.230469 1.621094 8.3125 4.863281 C 8.34375 4.957031 8.367188 5.023438 8.378906 5.054688 C 8.414062 4.964844 8.492188 4.746094 8.621094 4.390625 C 8.75 4.035156 8.871094 3.707031 8.984375 3.398438 C 9.101562 3.089844 9.25 2.734375 9.4375 2.332031 C 9.625 1.925781 9.804688 1.582031 9.976562 1.300781 C 10.152344 1.019531 10.347656 0.777344 10.566406 0.578125 C 10.789062 0.375 11 0.277344 11.207031 0.277344 C 11.605469 0.277344 11.917969 0.414062 12.144531 0.6875 C 12.375 0.960938 12.488281 1.300781 12.488281 1.707031 C 12.488281 2.308594 12.046875 3.84375 11.15625 6.3125 C 11.5 6.394531 11.777344 6.523438 12 6.695312 C 12.21875 6.871094 12.382812 7.085938 12.488281 7.347656 C 12.59375 7.613281 12.667969 7.871094 12.707031 8.132812 C 12.746094 8.390625 12.765625 8.699219 12.765625 9.058594 C 12.765625 9.894531 12.632812 10.675781 12.371094 11.402344 C 12.109375 12.125 11.742188 12.753906 11.265625 13.285156 C 10.792969 13.8125 10.203125 14.234375 9.5 14.539062 C 8.796875 14.847656 8.023438 15 7.171875 15 C 6.554688 15 5.933594 14.882812 5.308594 14.648438 C 4.476562 14.332031 3.753906 13.796875 3.148438 13.046875 C 2.539062 12.292969 2.234375 11.496094 2.234375 10.648438 Z M 2.234375 10.648438 "/>
  </g>
</svg>