<?xml version="1.0" encoding="UTF-8" standalone="yes"?>
<svg xmlns="http://www.w3.org/2000/svg" xmlns:xlink="http://www.w3.org/1999/xlink" width="20px" height="20px" viewBox="0 0 15 15" version="1.1">
  <g id="surface1">
    <path style=" stroke:none;fill-rule:nonzero;fill:rgb(0%,0%,0%);fill-opacity:1;" d="M 11.828125 7.5 C 11.828125 7.347656 11.777344 7.222656 11.675781 7.125 L 10.914062 6.363281 L 7.886719 3.332031 C 7.785156 3.230469 7.660156 3.179688 7.507812 3.179688 C 7.359375 3.179688 7.230469 3.230469 7.132812 3.332031 L 6.371094 4.09375 C 6.269531 4.195312 6.21875 4.320312 6.21875 4.46875 C 6.21875 4.621094 6.269531 4.746094 6.371094 4.847656 L 7.953125 6.429688 L 3.75 6.429688 C 3.605469 6.429688 3.480469 6.480469 3.375 6.585938 C 3.265625 6.695312 3.214844 6.820312 3.214844 6.964844 L 3.214844 8.035156 C 3.214844 8.179688 3.265625 8.304688 3.375 8.414062 C 3.480469 8.519531 3.605469 8.570312 3.75 8.570312 L 7.953125 8.570312 L 6.371094 10.152344 C 6.265625 10.257812 6.210938 10.386719 6.210938 10.53125 C 6.210938 10.675781 6.265625 10.800781 6.371094 10.90625 L 7.132812 11.667969 C 7.230469 11.769531 7.359375 11.820312 7.507812 11.820312 C 7.660156 11.820312 7.785156 11.769531 7.886719 11.667969 L 10.914062 8.636719 L 11.675781 7.875 C 11.777344 7.777344 11.828125 7.652344 11.828125 7.5 Z M 13.929688 7.5 C 13.929688 8.667969 13.640625 9.742188 13.066406 10.726562 C 12.492188 11.710938 11.710938 12.492188 10.726562 13.066406 C 9.742188 13.640625 8.667969 13.929688 7.5 13.929688 C 6.332031 13.929688 5.257812 13.640625 4.273438 13.066406 C 3.289062 12.492188 2.507812 11.710938 1.933594 10.726562 C 1.359375 9.742188 1.070312 8.667969 1.070312 7.5 C 1.070312 6.332031 1.359375 5.257812 1.933594 4.273438 C 2.507812 3.289062 3.289062 2.507812 4.273438 1.933594 C 5.257812 1.359375 6.332031 1.070312 7.5 1.070312 C 8.667969 1.070312 9.742188 1.359375 10.726562 1.933594 C 11.710938 2.507812 12.492188 3.289062 13.066406 4.273438 C 13.640625 5.257812 13.929688 6.332031 13.929688 7.5 Z M 13.929688 7.5 "/>
  </g>
</svg>