<svg xmlns="http://www.w3.org/2000/svg" xlink="http://www.w3.org/1999/xlink" width="20px" height="20px" viewBox="0 0 15 15" version="1.1">
  <g id="surface1">
    <path d="M 11.820312 7.507812 C 11.820312 7.359375 11.769531 7.230469 11.667969 7.132812 L 10.90625 6.371094 C 10.804688 6.269531 10.679688 6.21875 10.53125 6.21875 C 10.378906 6.21875 10.253906 6.269531 10.152344 6.371094 L 8.570312 7.953125 L 8.570312 3.75 C 8.570312 3.605469 8.519531 3.480469 8.414062 3.375 C 8.304688 3.265625 8.179688 3.214844 8.035156 3.214844 L 6.964844 3.214844 C 6.820312 3.214844 6.695312 3.265625 6.585938 3.375 C 6.480469 3.480469 6.429688 3.605469 6.429688 3.75 L 6.429688 7.953125 L 4.847656 6.371094 C 4.742188 6.265625 4.613281 6.210938 4.46875 6.210938 C 4.324219 6.210938 4.199219 6.265625 4.09375 6.371094 L 3.332031 7.132812 C 3.230469 7.230469 3.179688 7.359375 3.179688 7.507812 C 3.179688 7.660156 3.230469 7.785156 3.332031 7.886719 L 6.363281 10.914062 L 7.125 11.675781 C 7.222656 11.777344 7.347656 11.828125 7.5 11.828125 C 7.652344 11.828125 7.777344 11.777344 7.875 11.675781 L 8.636719 10.914062 L 11.667969 7.886719 C 11.769531 7.785156 11.820312 7.660156 11.820312 7.507812 Z M 13.929688 7.5 C 13.929688 8.667969 13.640625 9.742188 13.066406 10.726562 C 12.492188 11.710938 11.710938 12.492188 10.726562 13.066406 C 9.742188 13.640625 8.667969 13.929688 7.5 13.929688 C 6.332031 13.929688 5.257812 13.640625 4.273438 13.066406 C 3.289062 12.492188 2.507812 11.710938 1.933594 10.726562 C 1.359375 9.742188 1.070312 8.667969 1.070312 7.5 C 1.070312 6.332031 1.359375 5.257812 1.933594 4.273438 C 2.507812 3.289062 3.289062 2.507812 4.273438 1.933594 C 5.257812 1.359375 6.332031 1.070312 7.5 1.070312 C 8.667969 1.070312 9.742188 1.359375 10.726562 1.933594 C 11.710938 2.507812 12.492188 3.289062 13.066406 4.273438 C 13.640625 5.257812 13.929688 6.332031 13.929688 7.5 Z M 13.929688 7.5 " fill="#FFFFFF"/>
  </g>
</svg>