<?xml version="1.0" encoding="UTF-8" standalone="yes"?>
<svg xmlns="http://www.w3.org/2000/svg" xmlns:xlink="http://www.w3.org/1999/xlink" width="20px" height="20px" viewBox="0 0 15 15" version="1.1">
  <g id="surface1">
    <path style=" stroke:none;fill-rule:nonzero;fill:rgb(0%,0%,0%);fill-opacity:1;" d="M 9.105469 6.964844 C 9.105469 6.820312 9.054688 6.695312 8.949219 6.585938 C 8.84375 6.480469 8.714844 6.429688 8.570312 6.429688 L 6.429688 6.429688 C 6.285156 6.429688 6.15625 6.480469 6.050781 6.585938 C 5.945312 6.695312 5.894531 6.820312 5.894531 6.964844 C 5.894531 7.109375 5.945312 7.234375 6.050781 7.339844 C 6.15625 7.445312 6.285156 7.5 6.429688 7.5 L 8.570312 7.5 C 8.714844 7.5 8.84375 7.445312 8.949219 7.339844 C 9.054688 7.234375 9.105469 7.109375 9.105469 6.964844 Z M 13.929688 5.355469 L 13.929688 13.394531 C 13.929688 13.539062 13.875 13.664062 13.769531 13.769531 C 13.664062 13.875 13.539062 13.929688 13.394531 13.929688 L 1.605469 13.929688 C 1.460938 13.929688 1.335938 13.875 1.230469 13.769531 C 1.125 13.664062 1.070312 13.539062 1.070312 13.394531 L 1.070312 5.355469 C 1.070312 5.210938 1.125 5.085938 1.230469 4.980469 C 1.335938 4.875 1.460938 4.820312 1.605469 4.820312 L 13.394531 4.820312 C 13.539062 4.820312 13.664062 4.875 13.769531 4.980469 C 13.875 5.085938 13.929688 5.210938 13.929688 5.355469 Z M 14.464844 1.605469 L 14.464844 3.75 C 14.464844 3.894531 14.410156 4.019531 14.304688 4.125 C 14.199219 4.234375 14.074219 4.285156 13.929688 4.285156 L 1.070312 4.285156 C 0.925781 4.285156 0.800781 4.234375 0.695312 4.125 C 0.589844 4.019531 0.535156 3.894531 0.535156 3.75 L 0.535156 1.605469 C 0.535156 1.460938 0.589844 1.335938 0.695312 1.230469 C 0.800781 1.125 0.925781 1.070312 1.070312 1.070312 L 13.929688 1.070312 C 14.074219 1.070312 14.199219 1.125 14.304688 1.230469 C 14.410156 1.335938 14.464844 1.460938 14.464844 1.605469 Z M 14.464844 1.605469 "/>
  </g>
</svg>