<svg version="1.1" xmlns="http://www.w3.org/2000/svg" xlink="http://www.w3.org/1999/xlink" x="0px" y="0px" width="15px" height="15px" viewBox="0 0 15 15" style="enable-background:new 0 0 15 15;" space="preserve">
    <path d="M8.035156,2.144531C8.035156,1.996094,7.984375,1.871094,7.875,1.765625C7.769531,1.660156,7.644531,1.605469,7.5,1.605469C7.355469,1.605469,7.230469,1.660156,7.125,1.765625C7.015625,1.871094,6.964844,1.996094,6.964844,2.144531C6.964844,2.289062,7.015625,2.414062,7.125,2.519531C7.230469,2.625,7.355469,2.679688,7.5,2.679688C7.644531,2.679688,7.769531,2.625,7.875,2.519531C7.984375,2.414062,8.035156,2.289062,8.035156,2.144531ZM15,9.910156L15,12.855469C15,12.980469,14.945312,13.0625,14.832031,13.109375C14.789062,13.121094,14.753906,13.125,14.730469,13.125C14.660156,13.125,14.59375,13.101562,14.539062,13.050781L13.761719,12.269531C13.097656,13.070312,12.207031,13.699219,11.09375,14.167969C9.980469,14.632812,8.785156,14.867188,7.5,14.867188C6.214844,14.867188,5.019531,14.632812,3.90625,14.167969C2.792969,13.699219,1.902344,13.070312,1.238281,12.269531L0.460938,13.050781C0.410156,13.101562,0.347656,13.125,0.269531,13.125C0.246094,13.125,0.210938,13.121094,0.167969,13.109375C0.0546875,13.0625,0,12.980469,0,12.855469L0,9.910156C0,9.832031,0.0234375,9.769531,0.0742188,9.71875C0.125,9.667969,0.191406,9.644531,0.269531,9.644531L3.214844,9.644531C3.335938,9.644531,3.421875,9.699219,3.464844,9.808594C3.511719,9.917969,3.492188,10.015625,3.40625,10.101562L2.570312,10.941406C2.945312,11.449219,3.472656,11.875,4.15625,12.226562C4.839844,12.574219,5.597656,12.804688,6.429688,12.914062L6.429688,7.5L4.820312,7.5C4.675781,7.5,4.550781,7.445312,4.445312,7.339844C4.339844,7.234375,4.285156,7.109375,4.285156,6.964844L4.285156,5.894531C4.285156,5.746094,4.339844,5.621094,4.445312,5.515625C4.550781,5.410156,4.675781,5.355469,4.820312,5.355469L6.429688,5.355469L6.429688,3.992188C6.105469,3.804688,5.84375,3.546875,5.648438,3.21875C5.453125,2.890625,5.355469,2.535156,5.355469,2.144531C5.355469,1.550781,5.566406,1.046875,5.984375,0.628906C6.402344,0.210938,6.910156,0,7.5,0C8.089844,0,8.597656,0.210938,9.015625,0.628906C9.433594,1.046875,9.644531,1.550781,9.644531,2.144531C9.644531,2.535156,9.546875,2.890625,9.351562,3.21875C9.15625,3.546875,8.894531,3.804688,8.570312,3.992188L8.570312,5.355469L10.179688,5.355469C10.324219,5.355469,10.449219,5.410156,10.554688,5.515625C10.660156,5.621094,10.714844,5.746094,10.714844,5.894531L10.714844,6.964844C10.714844,7.109375,10.660156,7.234375,10.554688,7.339844C10.449219,7.445312,10.324219,7.5,10.179688,7.5L8.570312,7.5L8.570312,12.914062C9.402344,12.804688,10.160156,12.574219,10.84375,12.226562C11.527344,11.875,12.054688,11.449219,12.429688,10.941406L11.59375,10.101562C11.507812,10.015625,11.488281,9.917969,11.535156,9.808594C11.578125,9.699219,11.664062,9.644531,11.785156,9.644531L14.730469,9.644531C14.808594,9.644531,14.875,9.667969,14.925781,9.71875C14.976562,9.769531,15,9.832031,15,9.910156ZM15,9.910156" fill="#FFFFFF"/>
    </svg>