<svg xmlns="http://www.w3.org/2000/svg" xlink="http://www.w3.org/1999/xlink" width="20px" height="20px" viewBox="0 0 15 15" version="1.1">
  <g id="surface1">
    <path d="M 9.800781 8.035156 C 9.800781 8.109375 9.773438 8.171875 9.71875 8.226562 L 5.816406 12.128906 C 5.761719 12.183594 5.699219 12.210938 5.625 12.210938 C 5.550781 12.210938 5.488281 12.183594 5.433594 12.128906 L 5.015625 11.710938 C 4.957031 11.65625 4.929688 11.589844 4.929688 11.519531 C 4.929688 11.445312 4.957031 11.382812 5.015625 11.324219 L 8.304688 8.035156 L 5.015625 4.746094 C 4.957031 4.691406 4.929688 4.625 4.929688 4.554688 C 4.929688 4.480469 4.957031 4.417969 5.015625 4.359375 L 5.433594 3.941406 C 5.488281 3.886719 5.550781 3.859375 5.625 3.859375 C 5.699219 3.859375 5.761719 3.886719 5.816406 3.941406 L 9.71875 7.84375 C 9.773438 7.898438 9.800781 7.964844 9.800781 8.035156 Z M 9.800781 8.035156 " fill="#FFFFFF"/>
  </g>
</svg>