<svg xmlns="http://www.w3.org/2000/svg" xlink="http://www.w3.org/1999/xlink" width="20px" height="20px" viewBox="0 0 15 15" version="1.1">
  <g id="surface1">
    <path d="M 5.734375 4.042969 C 5.824219 4.042969 5.898438 4.011719 5.964844 3.945312 C 6.027344 3.882812 6.058594 3.804688 6.058594 3.714844 C 6.058594 3.628906 6.027344 3.550781 5.964844 3.484375 C 5.898438 3.421875 5.824219 3.390625 5.734375 3.390625 C 5.644531 3.390625 5.570312 3.421875 5.507812 3.484375 C 5.445312 3.550781 5.414062 3.628906 5.414062 3.714844 C 5.414062 3.804688 5.445312 3.882812 5.507812 3.945312 C 5.570312 4.011719 5.644531 4.042969 5.734375 4.042969 Z M 9.265625 4.042969 C 9.355469 4.042969 9.429688 4.011719 9.492188 3.945312 C 9.554688 3.882812 9.585938 3.804688 9.585938 3.714844 C 9.585938 3.628906 9.554688 3.550781 9.492188 3.484375 C 9.429688 3.421875 9.355469 3.390625 9.265625 3.390625 C 9.175781 3.390625 9.101562 3.421875 9.035156 3.484375 C 8.972656 3.550781 8.941406 3.628906 8.941406 3.714844 C 8.941406 3.804688 8.972656 3.882812 9.035156 3.945312 C 9.101562 4.011719 9.175781 4.042969 9.265625 4.042969 Z M 2.46875 5.582031 C 2.703125 5.582031 2.90625 5.667969 3.070312 5.835938 C 3.238281 6 3.324219 6.203125 3.324219 6.4375 L 3.324219 10.035156 C 3.324219 10.277344 3.242188 10.480469 3.078125 10.648438 C 2.910156 10.816406 2.710938 10.898438 2.46875 10.898438 C 2.230469 10.898438 2.027344 10.816406 1.859375 10.648438 C 1.691406 10.480469 1.605469 10.277344 1.605469 10.035156 L 1.605469 6.4375 C 1.605469 6.203125 1.691406 6 1.859375 5.835938 C 2.027344 5.667969 2.230469 5.582031 2.46875 5.582031 Z M 11.34375 5.742188 L 11.34375 11.316406 C 11.34375 11.574219 11.253906 11.792969 11.074219 11.96875 C 10.894531 12.148438 10.679688 12.238281 10.429688 12.238281 L 9.800781 12.238281 L 9.800781 14.136719 C 9.800781 14.378906 9.71875 14.582031 9.550781 14.75 C 9.382812 14.917969 9.179688 15 8.941406 15 C 8.699219 15 8.496094 14.917969 8.328125 14.75 C 8.160156 14.582031 8.078125 14.378906 8.078125 14.136719 L 8.078125 12.238281 L 6.921875 12.238281 L 6.921875 14.136719 C 6.921875 14.378906 6.839844 14.582031 6.671875 14.75 C 6.503906 14.917969 6.300781 15 6.058594 15 C 5.824219 15 5.625 14.917969 5.457031 14.75 C 5.289062 14.582031 5.207031 14.378906 5.207031 14.136719 L 5.199219 12.238281 L 4.578125 12.238281 C 4.320312 12.238281 4.105469 12.148438 3.925781 11.96875 C 3.746094 11.792969 3.65625 11.574219 3.65625 11.316406 L 3.65625 5.742188 Z M 9.398438 2.351562 C 9.996094 2.660156 10.472656 3.085938 10.832031 3.636719 C 11.1875 4.1875 11.367188 4.789062 11.367188 5.441406 L 3.625 5.441406 C 3.625 4.789062 3.804688 4.1875 4.160156 3.636719 C 4.515625 3.085938 4.996094 2.660156 5.601562 2.351562 L 5.003906 1.253906 C 4.964844 1.183594 4.980469 1.128906 5.046875 1.089844 C 5.121094 1.054688 5.175781 1.070312 5.214844 1.136719 L 5.816406 2.242188 C 6.347656 2.007812 6.910156 1.890625 7.5 1.890625 C 8.089844 1.890625 8.652344 2.007812 9.183594 2.242188 L 9.785156 1.136719 C 9.824219 1.070312 9.878906 1.054688 9.953125 1.089844 C 10.019531 1.128906 10.035156 1.183594 9.996094 1.253906 Z M 13.394531 6.4375 L 13.394531 10.035156 C 13.394531 10.277344 13.308594 10.480469 13.140625 10.648438 C 12.972656 10.816406 12.769531 10.898438 12.53125 10.898438 C 12.296875 10.898438 12.09375 10.816406 11.929688 10.648438 C 11.761719 10.480469 11.675781 10.277344 11.675781 10.035156 L 11.675781 6.4375 C 11.675781 6.195312 11.761719 5.996094 11.929688 5.828125 C 12.09375 5.664062 12.296875 5.582031 12.53125 5.582031 C 12.769531 5.582031 12.972656 5.664062 13.140625 5.828125 C 13.308594 5.996094 13.394531 6.195312 13.394531 6.4375 Z M 13.394531 6.4375 " fill="#FFFFFF"/>
  </g>
</svg>