<svg version="1.1" xmlns="http://www.w3.org/2000/svg" xlink="http://www.w3.org/1999/xlink" x="0px" y="0px" width="15px" height="16.875px" viewBox="0 0 15 16.875" style="enable-background:new 0 0 15 15;" space="preserve">
    <path d="M18.45703125,14.765625h-0.52734375V3.1640625H1.0546875v11.6015625H0.5280029296875c-0.29135742187499997,0,-0.52734375,0.235986328125,-0.52734375,0.52734375v1.0546875c0,0.29135742187499997,0.235986328125,0.52734375,0.52734375,0.52734375H5.80078125c0.29135742187499997,0,0.52734375,-0.235986328125,0.52734375,-0.52734375V10.546875c0,-1.7474853515625002,1.4165771484374998,-3.1640625,3.1640625,-3.1640625s3.1640625,1.4165771484374998,3.1640625,3.1640625l0.0006591796874999999,5.2734375v0.52734375c0,0.29135742187499997,0.235986328125,0.52734375,0.52734375,0.52734375H18.45703125c0.29135742187499997,0,0.52734375,-0.235986328125,0.52734375,-0.52734375v-1.0546875c0,-0.29135742187499997,-0.235986328125,-0.52734375,-0.52734375,-0.52734375zm0,-14.765625H0.52734375C0.235986328125,0,0,0.235986328125,0,0.52734375v1.0546875c0,0.29135742187499997,0.235986328125,0.52734375,0.52734375,0.52734375h17.9296875c0.29135742187499997,0,0.52734375,-0.235986328125,0.52734375,-0.52734375V0.52734375c0,-0.29135742187499997,-0.235986328125,-0.52734375,-0.52734375,-0.52734375z" fill="#FFFFFF"/>
    </svg>