<svg xmlns="http://www.w3.org/2000/svg" xlink="http://www.w3.org/1999/xlink" width="20px" height="20px" viewBox="0 0 15 15" version="1.1">
  <g id="surface1">
    <path d="M 15 11.25 L 15 12.320312 C 15 12.464844 14.945312 12.59375 14.839844 12.699219 C 14.734375 12.804688 14.609375 12.855469 14.464844 12.855469 L 0.535156 12.855469 C 0.390625 12.855469 0.265625 12.804688 0.160156 12.699219 C 0.0546875 12.59375 0 12.464844 0 12.320312 L 0 11.25 C 0 11.105469 0.0546875 10.980469 0.160156 10.875 C 0.265625 10.765625 0.390625 10.714844 0.535156 10.714844 L 14.464844 10.714844 C 14.609375 10.714844 14.734375 10.765625 14.839844 10.875 C 14.945312 10.980469 15 11.105469 15 11.25 Z M 11.785156 8.035156 L 11.785156 9.105469 C 11.785156 9.253906 11.734375 9.378906 11.625 9.484375 C 11.519531 9.589844 11.394531 9.644531 11.25 9.644531 L 3.75 9.644531 C 3.605469 9.644531 3.480469 9.589844 3.375 9.484375 C 3.265625 9.378906 3.214844 9.253906 3.214844 9.105469 L 3.214844 8.035156 C 3.214844 7.890625 3.265625 7.765625 3.375 7.660156 C 3.480469 7.554688 3.605469 7.5 3.75 7.5 L 11.25 7.5 C 11.394531 7.5 11.519531 7.554688 11.625 7.660156 C 11.734375 7.765625 11.785156 7.890625 11.785156 8.035156 Z M 13.929688 4.820312 L 13.929688 5.894531 C 13.929688 6.039062 13.875 6.164062 13.769531 6.269531 C 13.664062 6.375 13.539062 6.429688 13.394531 6.429688 L 1.605469 6.429688 C 1.460938 6.429688 1.335938 6.375 1.230469 6.269531 C 1.125 6.164062 1.070312 6.039062 1.070312 5.894531 L 1.070312 4.820312 C 1.070312 4.675781 1.125 4.550781 1.230469 4.445312 C 1.335938 4.339844 1.460938 4.285156 1.605469 4.285156 L 13.394531 4.285156 C 13.539062 4.285156 13.664062 4.339844 13.769531 4.445312 C 13.875 4.550781 13.929688 4.675781 13.929688 4.820312 Z M 10.714844 1.605469 L 10.714844 2.679688 C 10.714844 2.824219 10.660156 2.949219 10.554688 3.054688 C 10.449219 3.160156 10.324219 3.214844 10.179688 3.214844 L 4.820312 3.214844 C 4.675781 3.214844 4.550781 3.160156 4.445312 3.054688 C 4.339844 2.949219 4.285156 2.824219 4.285156 2.679688 L 4.285156 1.605469 C 4.285156 1.460938 4.339844 1.335938 4.445312 1.230469 C 4.550781 1.125 4.675781 1.070312 4.820312 1.070312 L 10.179688 1.070312 C 10.324219 1.070312 10.449219 1.125 10.554688 1.230469 C 10.660156 1.335938 10.714844 1.460938 10.714844 1.605469 Z M 10.714844 1.605469 " fill="#FFFFFF"/>
  </g>
</svg>