<?xml version="1.0" encoding="UTF-8" standalone="yes"?>
<svg xmlns="http://www.w3.org/2000/svg" xmlns:xlink="http://www.w3.org/1999/xlink" width="20px" height="20px" viewBox="0 0 15 15" version="1.1">
  <g id="surface1">
    <path style=" stroke:none;fill-rule:nonzero;fill:rgb(0%,0%,0%);fill-opacity:1;" d="M 13.929688 7.5 L 13.929688 8.570312 C 13.929688 8.867188 13.835938 9.121094 13.65625 9.328125 C 13.476562 9.539062 13.238281 9.644531 12.949219 9.644531 L 7.054688 9.644531 L 9.507812 12.105469 C 9.722656 12.304688 9.828125 12.554688 9.828125 12.855469 C 9.828125 13.160156 9.722656 13.410156 9.507812 13.609375 L 8.882812 14.246094 C 8.675781 14.453125 8.421875 14.554688 8.128906 14.554688 C 7.835938 14.554688 7.582031 14.453125 7.367188 14.246094 L 1.917969 8.789062 C 1.710938 8.582031 1.605469 8.332031 1.605469 8.035156 C 1.605469 7.746094 1.710938 7.492188 1.917969 7.273438 L 7.367188 1.832031 C 7.578125 1.621094 7.832031 1.515625 8.128906 1.515625 C 8.417969 1.515625 8.667969 1.621094 8.882812 1.832031 L 9.507812 2.453125 C 9.722656 2.664062 9.828125 2.917969 9.828125 3.214844 C 9.828125 3.511719 9.722656 3.765625 9.507812 3.976562 L 7.054688 6.429688 L 12.949219 6.429688 C 13.238281 6.429688 13.476562 6.53125 13.65625 6.742188 C 13.835938 6.953125 13.929688 7.203125 13.929688 7.5 Z M 13.929688 7.5 "/>
  </g>
</svg>