<?xml version="1.0" encoding="UTF-8" standalone="yes"?>
<svg xmlns="http://www.w3.org/2000/svg" xmlns:xlink="http://www.w3.org/1999/xlink" width="20px" height="20px" viewBox="0 0 15 15" version="1.1">
  <g id="surface1">
    <path style=" stroke:none;fill-rule:nonzero;fill:rgb(0%,0%,0%);fill-opacity:1;" d="M 10.070312 4.554688 C 10.070312 4.625 10.042969 4.691406 9.984375 4.746094 L 6.695312 8.035156 L 9.984375 11.324219 C 10.042969 11.382812 10.070312 11.445312 10.070312 11.519531 C 10.070312 11.589844 10.042969 11.65625 9.984375 11.710938 L 9.566406 12.128906 C 9.511719 12.183594 9.449219 12.210938 9.375 12.210938 C 9.300781 12.210938 9.238281 12.183594 9.183594 12.128906 L 5.28125 8.226562 C 5.226562 8.171875 5.199219 8.109375 5.199219 8.035156 C 5.199219 7.964844 5.226562 7.898438 5.28125 7.84375 L 9.183594 3.941406 C 9.238281 3.886719 9.300781 3.859375 9.375 3.859375 C 9.449219 3.859375 9.511719 3.886719 9.566406 3.941406 L 9.984375 4.359375 C 10.042969 4.417969 10.070312 4.480469 10.070312 4.554688 Z M 10.070312 4.554688 "/>
  </g>
</svg>