<svg xmlns="http://www.w3.org/2000/svg" xlink="http://www.w3.org/1999/xlink" width="20px" height="20px" viewBox="0 0 15 15" version="1.1">
  <g id="surface1">
    <path d="M 12.984375 12.355469 C 13.066406 12.320312 13.140625 12.3125 13.199219 12.328125 C 13.261719 12.347656 13.292969 12.394531 13.292969 12.476562 C 13.292969 12.558594 13.25 12.652344 13.167969 12.757812 C 13.09375 12.847656 12.972656 12.96875 12.796875 13.121094 C 12.625 13.273438 12.359375 13.464844 12 13.691406 C 11.640625 13.914062 11.246094 14.121094 10.820312 14.308594 C 10.390625 14.496094 9.867188 14.65625 9.246094 14.796875 C 8.621094 14.929688 7.984375 15 7.324219 15 C 6.660156 15 5.996094 14.914062 5.332031 14.742188 C 4.667969 14.566406 4.085938 14.355469 3.582031 14.101562 C 3.082031 13.847656 2.597656 13.554688 2.140625 13.230469 C 1.679688 12.902344 1.308594 12.609375 1.03125 12.351562 C 0.75 12.089844 0.515625 11.847656 0.328125 11.617188 C 0.28125 11.566406 0.253906 11.523438 0.242188 11.480469 C 0.230469 11.4375 0.234375 11.40625 0.25 11.378906 C 0.269531 11.355469 0.289062 11.335938 0.316406 11.320312 C 0.347656 11.308594 0.378906 11.300781 0.414062 11.304688 C 0.449219 11.308594 0.484375 11.320312 0.511719 11.34375 C 1.582031 11.996094 2.417969 12.457031 3.023438 12.730469 C 5.191406 13.714844 7.421875 13.964844 9.710938 13.484375 C 10.769531 13.261719 11.859375 12.886719 12.984375 12.355469 Z M 14.714844 11.390625 C 14.777344 11.480469 14.785156 11.675781 14.734375 11.972656 C 14.6875 12.273438 14.609375 12.558594 14.496094 12.832031 C 14.308594 13.296875 14.070312 13.640625 13.785156 13.871094 C 13.691406 13.949219 13.617188 13.972656 13.570312 13.945312 C 13.519531 13.917969 13.519531 13.851562 13.570312 13.746094 C 13.6875 13.492188 13.808594 13.15625 13.941406 12.726562 C 14.070312 12.300781 14.089844 12.027344 13.996094 11.902344 C 13.96875 11.863281 13.925781 11.832031 13.867188 11.804688 C 13.808594 11.78125 13.730469 11.765625 13.640625 11.757812 C 13.546875 11.75 13.464844 11.742188 13.394531 11.734375 C 13.320312 11.730469 13.222656 11.730469 13.101562 11.734375 C 12.976562 11.742188 12.890625 11.746094 12.835938 11.753906 C 12.78125 11.757812 12.695312 11.765625 12.578125 11.777344 C 12.457031 11.789062 12.394531 11.792969 12.386719 11.792969 C 12.355469 11.800781 12.320312 11.804688 12.28125 11.804688 C 12.242188 11.808594 12.210938 11.8125 12.1875 11.816406 C 12.164062 11.816406 12.140625 11.820312 12.117188 11.824219 C 12.089844 11.824219 12.070312 11.828125 12.058594 11.828125 L 11.972656 11.828125 L 11.949219 11.824219 L 11.933594 11.8125 L 11.917969 11.785156 C 11.886719 11.695312 12.015625 11.585938 12.3125 11.449219 C 12.609375 11.316406 12.894531 11.234375 13.175781 11.199219 C 13.433594 11.160156 13.734375 11.15625 14.078125 11.191406 C 14.425781 11.226562 14.636719 11.292969 14.714844 11.390625 Z M 11.417969 7.683594 C 11.417969 7.855469 11.453125 8.035156 11.53125 8.21875 C 11.605469 8.402344 11.695312 8.566406 11.796875 8.707031 C 11.902344 8.84375 12.007812 8.972656 12.113281 9.089844 C 12.21875 9.207031 12.308594 9.296875 12.386719 9.359375 L 12.496094 9.449219 L 10.597656 11.324219 C 10.375 11.117188 10.152344 10.90625 9.9375 10.695312 C 9.71875 10.476562 9.554688 10.316406 9.449219 10.203125 L 9.292969 10.035156 C 9.230469 9.976562 9.160156 9.882812 9.082031 9.761719 C 8.871094 10.089844 8.597656 10.375 8.265625 10.617188 C 7.933594 10.859375 7.578125 11.039062 7.199219 11.148438 C 6.820312 11.261719 6.429688 11.324219 6.027344 11.34375 C 5.625 11.359375 5.242188 11.300781 4.875 11.167969 C 4.511719 11.03125 4.183594 10.847656 3.890625 10.617188 C 3.601562 10.386719 3.371094 10.070312 3.199219 9.671875 C 3.023438 9.273438 2.9375 8.820312 2.9375 8.3125 C 2.9375 7.84375 3.015625 7.414062 3.171875 7.023438 C 3.328125 6.632812 3.53125 6.308594 3.773438 6.046875 C 4.019531 5.789062 4.316406 5.554688 4.667969 5.351562 C 5.015625 5.148438 5.355469 4.988281 5.691406 4.875 C 6.027344 4.761719 6.390625 4.664062 6.78125 4.585938 C 7.171875 4.507812 7.503906 4.457031 7.78125 4.433594 C 8.054688 4.40625 8.335938 4.390625 8.613281 4.378906 L 8.613281 3.316406 C 8.613281 2.953125 8.554688 2.679688 8.4375 2.503906 C 8.246094 2.207031 7.910156 2.058594 7.425781 2.058594 C 7.390625 2.058594 7.34375 2.0625 7.285156 2.066406 C 7.226562 2.074219 7.113281 2.105469 6.949219 2.167969 C 6.78125 2.230469 6.625 2.3125 6.480469 2.414062 C 6.332031 2.519531 6.175781 2.683594 6.011719 2.914062 C 5.84375 3.140625 5.707031 3.410156 5.609375 3.714844 L 3.148438 3.492188 C 3.148438 3.15625 3.207031 2.824219 3.332031 2.496094 C 3.453125 2.164062 3.640625 1.851562 3.890625 1.546875 C 4.144531 1.246094 4.445312 0.980469 4.796875 0.753906 C 5.148438 0.523438 5.570312 0.339844 6.0625 0.203125 C 6.558594 0.0664062 7.089844 0 7.660156 0 C 8.21875 0 8.722656 0.0703125 9.175781 0.210938 C 9.625 0.347656 9.988281 0.519531 10.257812 0.722656 C 10.527344 0.925781 10.753906 1.160156 10.9375 1.417969 C 11.117188 1.679688 11.242188 1.917969 11.3125 2.140625 C 11.382812 2.359375 11.417969 2.5625 11.417969 2.753906 Z M 5.792969 7.859375 C 5.792969 8.339844 5.988281 8.710938 6.378906 8.972656 C 6.746094 9.21875 7.132812 9.28125 7.542969 9.15625 C 8.011719 9.019531 8.328125 8.675781 8.496094 8.128906 C 8.574219 7.875 8.613281 7.59375 8.613281 7.28125 L 8.613281 5.925781 C 8.285156 5.9375 7.972656 5.972656 7.683594 6.027344 C 7.394531 6.082031 7.097656 6.175781 6.792969 6.308594 C 6.488281 6.4375 6.246094 6.636719 6.0625 6.902344 C 5.882812 7.167969 5.792969 7.484375 5.792969 7.859375 Z M 5.792969 7.859375 " fill="#FFFFFF"/>
  </g>
</svg>