<?xml version="1.0" encoding="UTF-8" standalone="yes"?>
<svg xmlns="http://www.w3.org/2000/svg" xmlns:xlink="http://www.w3.org/1999/xlink" width="20px" height="20px" viewBox="0 0 15 15" version="1.1">
  <g id="surface1">
    <path style=" stroke:none;fill-rule:nonzero;fill:rgb(0%,0%,0%);fill-opacity:1;" d="M 11.675781 10.980469 C 11.675781 11.054688 11.648438 11.117188 11.59375 11.175781 L 11.175781 11.59375 C 11.117188 11.648438 11.054688 11.675781 10.980469 11.675781 C 10.910156 11.675781 10.84375 11.648438 10.789062 11.59375 L 7.5 8.304688 L 4.210938 11.59375 C 4.15625 11.648438 4.089844 11.675781 4.019531 11.675781 C 3.945312 11.675781 3.882812 11.648438 3.824219 11.59375 L 3.40625 11.175781 C 3.351562 11.117188 3.324219 11.054688 3.324219 10.980469 C 3.324219 10.910156 3.351562 10.84375 3.40625 10.789062 L 7.308594 6.890625 C 7.363281 6.832031 7.425781 6.804688 7.5 6.804688 C 7.574219 6.804688 7.636719 6.832031 7.691406 6.890625 L 11.59375 10.789062 C 11.648438 10.84375 11.675781 10.910156 11.675781 10.980469 Z M 11.675781 7.769531 C 11.675781 7.839844 11.648438 7.90625 11.59375 7.960938 L 11.175781 8.378906 C 11.117188 8.433594 11.054688 8.460938 10.980469 8.460938 C 10.910156 8.460938 10.84375 8.433594 10.789062 8.378906 L 7.5 5.089844 L 4.210938 8.378906 C 4.15625 8.433594 4.089844 8.460938 4.019531 8.460938 C 3.945312 8.460938 3.882812 8.433594 3.824219 8.378906 L 3.40625 7.960938 C 3.351562 7.90625 3.324219 7.839844 3.324219 7.769531 C 3.324219 7.695312 3.351562 7.632812 3.40625 7.574219 L 7.308594 3.675781 C 7.363281 3.617188 7.425781 3.589844 7.5 3.589844 C 7.574219 3.589844 7.636719 3.617188 7.691406 3.675781 L 11.59375 7.574219 C 11.648438 7.632812 11.675781 7.695312 11.675781 7.769531 Z M 11.675781 7.769531 "/>
  </g>
</svg>