<?xml version="1.0" encoding="UTF-8" standalone="yes"?>
<svg xmlns="http://www.w3.org/2000/svg" xmlns:xlink="http://www.w3.org/1999/xlink" width="20px" height="20px" viewBox="0 0 15 15" version="1.1">
  <g id="surface1">
    <path style=" stroke:none;fill-rule:nonzero;fill:rgb(0%,0%,0%);fill-opacity:1;" d="M 14.019531 6.964844 C 14.019531 7.261719 13.917969 7.511719 13.710938 7.71875 L 8.261719 13.175781 C 8.042969 13.382812 7.789062 13.484375 7.5 13.484375 C 7.203125 13.484375 6.953125 13.382812 6.746094 13.175781 L 1.296875 7.71875 C 1.085938 7.515625 0.980469 7.265625 0.980469 6.964844 C 0.980469 6.667969 1.085938 6.414062 1.296875 6.203125 L 1.917969 5.574219 C 2.132812 5.367188 2.386719 5.265625 2.679688 5.265625 C 2.972656 5.265625 3.226562 5.367188 3.433594 5.574219 L 5.894531 8.035156 L 5.894531 2.144531 C 5.894531 1.851562 6 1.601562 6.210938 1.390625 C 6.421875 1.175781 6.675781 1.070312 6.964844 1.070312 L 8.035156 1.070312 C 8.324219 1.070312 8.578125 1.175781 8.789062 1.390625 C 9 1.601562 9.105469 1.851562 9.105469 2.144531 L 9.105469 8.035156 L 11.566406 5.574219 C 11.773438 5.367188 12.027344 5.265625 12.320312 5.265625 C 12.613281 5.265625 12.867188 5.367188 13.082031 5.574219 L 13.710938 6.203125 C 13.917969 6.421875 14.019531 6.675781 14.019531 6.964844 Z M 14.019531 6.964844 "/>
  </g>
</svg>