<svg xmlns="http://www.w3.org/2000/svg" xlink="http://www.w3.org/1999/xlink" width="20px" height="20px" viewBox="0 0 15 15" version="1.1">
  <g id="surface1">
    <path d="M 10.429688 7.332031 C 10.386719 7.445312 10.300781 7.5 10.179688 7.5 L 8.570312 7.5 L 8.570312 10.445312 C 8.570312 10.523438 8.546875 10.589844 8.496094 10.640625 C 8.445312 10.6875 8.382812 10.714844 8.304688 10.714844 L 6.695312 10.714844 C 6.617188 10.714844 6.554688 10.6875 6.503906 10.640625 C 6.453125 10.589844 6.429688 10.523438 6.429688 10.445312 L 6.429688 7.5 L 4.820312 7.5 C 4.742188 7.5 4.679688 7.476562 4.628906 7.425781 C 4.578125 7.375 4.554688 7.308594 4.554688 7.230469 C 4.554688 7.164062 4.582031 7.097656 4.636719 7.03125 L 7.308594 4.359375 C 7.367188 4.3125 7.433594 4.285156 7.5 4.285156 C 7.566406 4.285156 7.632812 4.3125 7.691406 4.359375 L 10.371094 7.039062 C 10.453125 7.128906 10.472656 7.226562 10.429688 7.332031 Z M 7.5 2.945312 C 6.675781 2.945312 5.914062 3.148438 5.214844 3.558594 C 4.515625 3.964844 3.964844 4.515625 3.558594 5.214844 C 3.148438 5.914062 2.945312 6.675781 2.945312 7.5 C 2.945312 8.324219 3.148438 9.085938 3.558594 9.785156 C 3.964844 10.484375 4.515625 11.035156 5.214844 11.441406 C 5.914062 11.851562 6.675781 12.054688 7.5 12.054688 C 8.324219 12.054688 9.085938 11.851562 9.785156 11.441406 C 10.484375 11.035156 11.035156 10.484375 11.441406 9.785156 C 11.851562 9.085938 12.054688 8.324219 12.054688 7.5 C 12.054688 6.675781 11.851562 5.914062 11.441406 5.214844 C 11.035156 4.515625 10.484375 3.964844 9.785156 3.558594 C 9.085938 3.148438 8.324219 2.945312 7.5 2.945312 Z M 13.929688 7.5 C 13.929688 8.667969 13.640625 9.742188 13.066406 10.726562 C 12.492188 11.710938 11.710938 12.492188 10.726562 13.066406 C 9.742188 13.640625 8.667969 13.929688 7.5 13.929688 C 6.332031 13.929688 5.257812 13.640625 4.273438 13.066406 C 3.289062 12.492188 2.507812 11.710938 1.933594 10.726562 C 1.359375 9.742188 1.070312 8.667969 1.070312 7.5 C 1.070312 6.332031 1.359375 5.257812 1.933594 4.273438 C 2.507812 3.289062 3.289062 2.507812 4.273438 1.933594 C 5.257812 1.359375 6.332031 1.070312 7.5 1.070312 C 8.667969 1.070312 9.742188 1.359375 10.726562 1.933594 C 11.710938 2.507812 12.492188 3.289062 13.066406 4.273438 C 13.640625 5.257812 13.929688 6.332031 13.929688 7.5 Z M 13.929688 7.5 " fill="#FFFFFF"/>
  </g>
</svg>