<svg xmlns="http://www.w3.org/2000/svg" xlink="http://www.w3.org/1999/xlink" width="20px" height="20px" viewBox="0 0 15 15" version="1.1">
  <g id="surface1">
    <path d="M 13.265625 10.171875 C 13.050781 10.867188 12.707031 11.566406 12.238281 12.261719 C 11.519531 13.355469 10.800781 13.902344 10.085938 13.902344 C 9.8125 13.902344 9.421875 13.8125 8.914062 13.636719 C 8.433594 13.457031 8.011719 13.367188 7.652344 13.367188 C 7.308594 13.367188 6.914062 13.460938 6.460938 13.644531 C 6.011719 13.832031 5.640625 13.929688 5.355469 13.929688 C 4.507812 13.929688 3.667969 13.207031 2.835938 11.761719 C 2.015625 10.304688 1.605469 8.902344 1.605469 7.550781 C 1.605469 6.277344 1.921875 5.234375 2.554688 4.417969 C 3.179688 3.617188 3.96875 3.214844 4.929688 3.214844 C 5.332031 3.214844 5.824219 3.296875 6.410156 3.464844 C 6.992188 3.632812 7.378906 3.714844 7.566406 3.714844 C 7.816406 3.714844 8.21875 3.621094 8.765625 3.433594 C 9.332031 3.242188 9.816406 3.148438 10.210938 3.148438 C 10.875 3.148438 11.46875 3.328125 11.996094 3.691406 C 12.285156 3.890625 12.574219 4.171875 12.867188 4.527344 C 12.425781 4.902344 12.105469 5.230469 11.910156 5.515625 C 11.546875 6.039062 11.367188 6.617188 11.367188 7.25 C 11.367188 7.941406 11.558594 8.5625 11.945312 9.117188 C 12.328125 9.667969 12.769531 10.019531 13.265625 10.171875 Z M 10.121094 0.351562 C 10.121094 0.691406 10.039062 1.070312 9.878906 1.488281 C 9.710938 1.910156 9.449219 2.292969 9.097656 2.644531 C 8.796875 2.945312 8.496094 3.148438 8.195312 3.246094 C 7.988281 3.308594 7.699219 3.355469 7.324219 3.390625 C 7.339844 2.558594 7.558594 1.839844 7.976562 1.238281 C 8.390625 0.640625 9.085938 0.230469 10.070312 0 C 10.074219 0.015625 10.082031 0.046875 10.089844 0.09375 C 10.097656 0.136719 10.105469 0.167969 10.113281 0.183594 C 10.113281 0.207031 10.113281 0.234375 10.117188 0.269531 C 10.117188 0.300781 10.121094 0.328125 10.121094 0.351562 Z M 10.121094 0.351562 " fill="#FFFFFF"/>
  </g>
</svg>