<svg xmlns="http://www.w3.org/2000/svg" xlink="http://www.w3.org/1999/xlink" width="20px" height="20px" viewBox="0 0 15 15" version="1.1">
  <g id="surface1">
    <path d="M 14.019531 8.128906 C 14.019531 8.414062 13.917969 8.664062 13.710938 8.882812 L 13.082031 9.507812 C 12.871094 9.722656 12.617188 9.828125 12.320312 9.828125 C 12.019531 9.828125 11.769531 9.722656 11.566406 9.507812 L 9.105469 7.054688 L 9.105469 12.949219 C 9.105469 13.238281 9.003906 13.476562 8.792969 13.65625 C 8.585938 13.835938 8.332031 13.929688 8.035156 13.929688 L 6.964844 13.929688 C 6.667969 13.929688 6.414062 13.835938 6.207031 13.65625 C 5.996094 13.476562 5.894531 13.238281 5.894531 12.949219 L 5.894531 7.054688 L 3.433594 9.507812 C 3.230469 9.722656 2.980469 9.828125 2.679688 9.828125 C 2.378906 9.828125 2.125 9.722656 1.925781 9.507812 L 1.296875 8.882812 C 1.085938 8.667969 0.980469 8.417969 0.980469 8.128906 C 0.980469 7.832031 1.085938 7.578125 1.296875 7.367188 L 6.746094 1.917969 C 6.941406 1.710938 7.191406 1.605469 7.5 1.605469 C 7.800781 1.605469 8.054688 1.710938 8.261719 1.917969 L 13.710938 7.367188 C 13.917969 7.582031 14.019531 7.835938 14.019531 8.128906 Z M 14.019531 8.128906 " fill="#FFFFFF"/>
  </g>
</svg>