<?xml version="1.0" encoding="UTF-8" standalone="yes"?>
<svg xmlns="http://www.w3.org/2000/svg" xmlns:xlink="http://www.w3.org/1999/xlink" width="20px" height="20px" viewBox="0 0 15 15" version="1.1">
  <g id="surface1">
    <path style=" stroke:none;fill-rule:nonzero;fill:rgb(0%,0%,0%);fill-opacity:1;" d="M 11.675781 9.910156 C 11.675781 9.984375 11.648438 10.046875 11.59375 10.101562 L 11.175781 10.523438 C 11.117188 10.578125 11.054688 10.605469 10.980469 10.605469 C 10.910156 10.605469 10.84375 10.578125 10.789062 10.523438 L 7.5 7.230469 L 4.210938 10.523438 C 4.15625 10.578125 4.089844 10.605469 4.019531 10.605469 C 3.945312 10.605469 3.882812 10.578125 3.824219 10.523438 L 3.40625 10.101562 C 3.351562 10.046875 3.324219 9.984375 3.324219 9.910156 C 3.324219 9.839844 3.351562 9.773438 3.40625 9.71875 L 7.308594 5.816406 C 7.363281 5.761719 7.425781 5.734375 7.5 5.734375 C 7.574219 5.734375 7.636719 5.761719 7.691406 5.816406 L 11.59375 9.71875 C 11.648438 9.773438 11.675781 9.839844 11.675781 9.910156 Z M 11.675781 9.910156 "/>
  </g>
</svg>