<svg version="1.1" xmlns="http://www.w3.org/2000/svg" xlink="http://www.w3.org/1999/xlink" x="0px" y="0px" width="15px" height="15px" viewBox="0 0 15 15" style="enable-background:new 0 0 15 15;" space="preserve">
    <path d="M9.207031,6.488281C9.207031,5.882812,9.058594,5.414062,8.757812,5.074219C8.460938,4.730469,8.050781,4.5625,7.523438,4.5625C7.171875,4.5625,6.828125,4.648438,6.488281,4.816406C6.148438,4.988281,5.839844,5.222656,5.566406,5.523438C5.292969,5.824219,5.070312,6.207031,4.902344,6.671875C4.730469,7.132812,4.644531,7.636719,4.644531,8.179688C4.644531,8.804688,4.792969,9.285156,5.09375,9.625C5.390625,9.964844,5.8125,10.136719,6.351562,10.136719C6.890625,10.136719,7.378906,9.949219,7.828125,9.578125C8.273438,9.207031,8.613281,8.746094,8.851562,8.191406C9.089844,7.636719,9.207031,7.066406,9.207031,6.488281ZM13.929688,7.5C13.929688,8.121094,13.824219,8.667969,13.617188,9.148438C13.414062,9.628906,13.136719,10.003906,12.792969,10.277344C12.453125,10.550781,12.085938,10.761719,11.695312,10.902344C11.304688,11.046875,10.898438,11.121094,10.480469,11.132812C10.445312,11.132812,10.402344,11.132812,10.351562,11.136719C10.296875,11.140625,10.25,11.140625,10.210938,11.140625C9.683594,11.140625,9.285156,10.992188,9.023438,10.699219C8.867188,10.511719,8.773438,10.28125,8.746094,10.003906C8.457031,10.371094,8.089844,10.679688,7.648438,10.921875C7.203125,11.167969,6.71875,11.292969,6.195312,11.292969C5.296875,11.292969,4.601562,11.023438,4.105469,10.492188C3.613281,9.960938,3.363281,9.207031,3.363281,8.238281C3.363281,7.359375,3.550781,6.550781,3.917969,5.808594C4.285156,5.066406,4.785156,4.480469,5.414062,4.046875C6.046875,3.613281,6.734375,3.398438,7.476562,3.398438C7.960938,3.398438,8.394531,3.496094,8.773438,3.695312C9.152344,3.894531,9.449219,4.171875,9.660156,4.527344L9.675781,4.371094L9.769531,3.902344C9.773438,3.867188,9.789062,3.832031,9.8125,3.800781C9.839844,3.765625,9.867188,3.75,9.894531,3.75L10.882812,3.75C10.910156,3.75,10.945312,3.78125,10.992188,3.84375C11.019531,3.871094,11.027344,3.914062,11.015625,3.976562L10.011719,9.117188C9.984375,9.25,9.96875,9.382812,9.96875,9.515625C9.96875,9.734375,10.003906,9.878906,10.074219,9.953125C10.144531,10.023438,10.269531,10.0625,10.445312,10.0625C10.601562,10.054688,10.761719,10.039062,10.921875,10.015625C11.085938,9.992188,11.289062,9.921875,11.535156,9.8125C11.78125,9.707031,11.996094,9.566406,12.179688,9.394531C12.363281,9.226562,12.523438,8.976562,12.65625,8.648438C12.789062,8.316406,12.855469,7.933594,12.855469,7.5C12.855469,5.871094,12.371094,4.570312,11.402344,3.597656C10.429688,2.628906,9.128906,2.144531,7.5,2.144531C6.773438,2.144531,6.082031,2.285156,5.421875,2.570312C4.757812,2.855469,4.1875,3.234375,3.710938,3.710938C3.234375,4.1875,2.855469,4.757812,2.570312,5.421875C2.285156,6.082031,2.144531,6.773438,2.144531,7.5C2.144531,8.226562,2.285156,8.917969,2.570312,9.578125C2.855469,10.242188,3.234375,10.8125,3.710938,11.289062C4.1875,11.765625,4.757812,12.144531,5.421875,12.429688C6.082031,12.714844,6.773438,12.855469,7.5,12.855469C8.773438,12.855469,9.902344,12.457031,10.890625,11.652344C10.953125,11.601562,11.019531,11.578125,11.089844,11.585938C11.164062,11.589844,11.222656,11.625,11.265625,11.683594L11.609375,12.09375C11.65625,12.164062,11.675781,12.230469,11.667969,12.296875C11.65625,12.367188,11.625,12.429688,11.566406,12.480469C11,12.945312,10.363281,13.300781,9.664062,13.550781C8.964844,13.804688,8.242188,13.929688,7.5,13.929688C6.628906,13.929688,5.796875,13.757812,5.003906,13.417969C4.214844,13.078125,3.53125,12.621094,2.953125,12.046875C2.378906,11.46875,1.921875,10.785156,1.582031,9.996094C1.242188,9.203125,1.070312,8.371094,1.070312,7.5C1.070312,6.628906,1.242188,5.796875,1.582031,5.003906C1.921875,4.214844,2.378906,3.53125,2.953125,2.953125C3.53125,2.378906,4.214844,1.921875,5.003906,1.582031C5.796875,1.242188,6.628906,1.070312,7.5,1.070312C9.417969,1.070312,10.972656,1.664062,12.152344,2.847656C13.335938,4.027344,13.929688,5.582031,13.929688,7.5ZM13.929688,7.5" fill="#FFFFFF"/>
    </svg>