<svg version="1.1" xmlns="http://www.w3.org/2000/svg" xlink="http://www.w3.org/1999/xlink" x="0px" y="0px" width="15px" height="15px" viewBox="0 0 15 15" style="enable-background:new 0 0 15 15;" space="preserve">
    <path d="M14.639499,12.02463H14.227356V2.9574947H1.0387977V12.02463H0.62717037c-0.22770872,0,-0.41214248,0.184433,-0.41214248,0.412142v0.824285c0,0.227709,0.18443376,0.412142,0.41214248,0.412142H4.7480799c0.2277088,0,0.4121425,-0.184433,0.4121425,-0.412142V8.7274894c0,-1.3657372,1.1071177,-2.4728549,2.4728549,-2.4728549c1.3657373,0,2.4728547,1.1071177,2.4728547,2.4728549l0.000515,4.1214256v0.412142c0,0.227709,0.184434,0.412142,0.412142,0.412142h4.12091c0.227709,0,0.412142,-0.184433,0.412142,-0.412142v-0.824285c0,-0.227709,-0.184433,-0.412142,-0.412142,-0.412142zm0,-11.53999017H0.62665519c-0.22770872,0,-0.41214248,0.1844337,-0.41214248,0.4121425V1.7210672c0,0.2277088,0.18443376,0.4121425,0.41214248,0.4121425H14.639499c0.227709,0,0.412142,-0.1844337,0.412142,-0.4121425V0.89678233c0,-0.2277088,-0.184433,-0.4121425,-0.412142,-0.4121425z" fill="#FFFFFF"/>
    </svg>