<?xml version="1.0" encoding="UTF-8" standalone="yes"?>
<svg xmlns="http://www.w3.org/2000/svg" xmlns:xlink="http://www.w3.org/1999/xlink" width="20px" height="20px" viewBox="0 0 15 15" version="1.1">
  <g id="surface1">
    <path style=" stroke:none;fill-rule:nonzero;fill:rgb(0%,0%,0%);fill-opacity:1;" d="M 11.820312 7.492188 C 11.820312 7.339844 11.769531 7.214844 11.667969 7.113281 L 8.636719 4.085938 L 7.875 3.324219 C 7.777344 3.222656 7.652344 3.171875 7.5 3.171875 C 7.347656 3.171875 7.222656 3.222656 7.125 3.324219 L 6.363281 4.085938 L 3.332031 7.113281 C 3.230469 7.214844 3.179688 7.339844 3.179688 7.492188 C 3.179688 7.640625 3.230469 7.769531 3.332031 7.867188 L 4.09375 8.628906 C 4.195312 8.730469 4.320312 8.78125 4.46875 8.78125 C 4.621094 8.78125 4.746094 8.730469 4.847656 8.628906 L 6.429688 7.046875 L 6.429688 11.25 C 6.429688 11.394531 6.480469 11.519531 6.585938 11.625 C 6.695312 11.734375 6.820312 11.785156 6.964844 11.785156 L 8.035156 11.785156 C 8.179688 11.785156 8.304688 11.734375 8.414062 11.625 C 8.519531 11.519531 8.570312 11.394531 8.570312 11.25 L 8.570312 7.046875 L 10.152344 8.628906 C 10.257812 8.734375 10.386719 8.789062 10.53125 8.789062 C 10.675781 8.789062 10.800781 8.734375 10.90625 8.628906 L 11.667969 7.867188 C 11.769531 7.769531 11.820312 7.640625 11.820312 7.492188 Z M 13.929688 7.5 C 13.929688 8.667969 13.640625 9.742188 13.066406 10.726562 C 12.492188 11.710938 11.710938 12.492188 10.726562 13.066406 C 9.742188 13.640625 8.667969 13.929688 7.5 13.929688 C 6.332031 13.929688 5.257812 13.640625 4.273438 13.066406 C 3.289062 12.492188 2.507812 11.710938 1.933594 10.726562 C 1.359375 9.742188 1.070312 8.667969 1.070312 7.5 C 1.070312 6.332031 1.359375 5.257812 1.933594 4.273438 C 2.507812 3.289062 3.289062 2.507812 4.273438 1.933594 C 5.257812 1.359375 6.332031 1.070312 7.5 1.070312 C 8.667969 1.070312 9.742188 1.359375 10.726562 1.933594 C 11.710938 2.507812 12.492188 3.289062 13.066406 4.273438 C 13.640625 5.257812 13.929688 6.332031 13.929688 7.5 Z M 13.929688 7.5 "/>
  </g>
</svg>