<svg version="1.1" xmlns="http://www.w3.org/2000/svg" xlink="http://www.w3.org/1999/xlink" x="0px" y="0px" width="15px" height="17.142857142857142px" viewBox="0 0 15 17.142857142857142" style="enable-background:new 0 0 15 15;" space="preserve">
    <path d="M14.193080357142856,8.564732142857142L13.761160714285714,13.831473214285715c-0.11049107142857142,1.3627232142857144,-2.1395089285714284,1.1752232142857142,-2.029017857142857,-0.1640625l0.33482142857142855,-4.1015625l-1.3761160714285714,0.07700892857142856c0.33816964285714285,0.6930803571428571,0.5290178571428572,1.4698660714285714,0.5290178571428572,2.2935267857142856c0,1.3794642857142858,-0.5390625,2.635044642857143,-1.4162946428571428,3.565848214285714l-1.3158482142857142,-1.3158482142857142c1.9386160714285714,-2.1328125,0.4386160714285714,-5.598214285714286,-2.477678571428571,-5.598214285714286c-0.8671874999999999,0,-1.6573660714285714,0.3314732142857143,-2.25,0.8705357142857143L2.4441964285714284,8.142857142857142c0.7366071428571428,-0.6930803571428571,1.6774553571428572,-1.1752232142857142,2.725446428571429,-1.345982142857143l2.5212053571428568,-2.869419642857143l-1.4263392857142858,-0.8303571428571429l-1.7276785714285714,1.5401785714285714c-1.0044642857142856,0.8973214285714286,-2.3638392857142856,-0.6194196428571428,-1.3560267857142856,-1.5200892857142856l2.2767857142857144,-2.0323660714285716c0.328125,-0.29464285714285715,0.8069196428571429,-0.3415178571428571,1.1886160714285714,-0.12053571428571429c0,0,4.6640625,2.708705357142857,4.670758928571429,2.7154017857142856c0.5424107142857142,0.33816964285714285,0.6930803571428571,1.2053571428571428,0.2042410714285714,1.7611607142857142L9.565848214285714,7.667410714285714l3.5524553571428568,-0.19754464285714288c0.6194196428571428,-0.036830357142857144,1.125,0.48214285714285715,1.0747767857142858,1.0948660714285714zm-2.1729910714285716,-5.15625c0.9408482142857143,0,1.7042410714285714,-0.7633928571428571,1.7042410714285714,-1.7042410714285714C13.724330357142856,0.7633928571428571,12.9609375,0,12.020089285714285,0c-0.9408482142857143,0,-1.7042410714285714,0.7633928571428571,-1.7042410714285714,1.7042410714285714c0,0.9408482142857143,0.7633928571428571,1.7042410714285714,1.7042410714285714,1.7042410714285714zM6.013392857142857,15.284598214285714c-2.698660714285714,0,-4.265625,-3.033482142857143,-2.7689732142857144,-5.2265625l-1.3292410714285714,-1.3292410714285714C1.21875,9.609375,0.8035714285714286,10.724330357142858,0.8035714285714286,11.933035714285714c0,4.376116071428571,5.045758928571428,6.743303571428571,8.417410714285714,4.1015625l-1.3292410714285714,-1.3292410714285714c-0.5357142857142857,0.36495535714285715,-1.1819196428571428,0.5792410714285714,-1.8783482142857142,0.5792410714285714z" fill="#FFFFFF"/>
    </svg>