<svg xmlns="http://www.w3.org/2000/svg" xlink="http://www.w3.org/1999/xlink" width="20px" height="20px" viewBox="0 0 15 15" version="1.1">
  <g id="surface1">
    <path d="M 11.675781 6.160156 C 11.675781 6.234375 11.648438 6.296875 11.59375 6.351562 L 7.691406 10.253906 C 7.636719 10.308594 7.574219 10.335938 7.5 10.335938 C 7.425781 10.335938 7.363281 10.308594 7.308594 10.253906 L 3.40625 6.351562 C 3.351562 6.296875 3.324219 6.234375 3.324219 6.160156 C 3.324219 6.089844 3.351562 6.023438 3.40625 5.96875 L 3.824219 5.550781 C 3.882812 5.492188 3.945312 5.464844 4.019531 5.464844 C 4.089844 5.464844 4.15625 5.492188 4.210938 5.550781 L 7.5 8.839844 L 10.789062 5.550781 C 10.84375 5.492188 10.910156 5.464844 10.980469 5.464844 C 11.054688 5.464844 11.117188 5.492188 11.175781 5.550781 L 11.59375 5.96875 C 11.648438 6.023438 11.675781 6.089844 11.675781 6.160156 Z M 11.675781 6.160156 " fill="#FFFFFF"/>
  </g>
</svg>