<?xml version="1.0" encoding="UTF-8" standalone="yes"?>
<svg xmlns="http://www.w3.org/2000/svg" xmlns:xlink="http://www.w3.org/1999/xlink" width="20px" height="20px" viewBox="0 0 15 15" version="1.1">
  <g id="surface1">
    <path style=" stroke:none;fill-rule:nonzero;fill:rgb(0%,0%,0%);fill-opacity:1;" d="M 15 11.25 L 15 12.320312 C 15 12.464844 14.945312 12.59375 14.839844 12.699219 C 14.734375 12.804688 14.609375 12.855469 14.464844 12.855469 L 0.535156 12.855469 C 0.390625 12.855469 0.265625 12.804688 0.160156 12.699219 C 0.0546875 12.59375 0 12.464844 0 12.320312 L 0 11.25 C 0 11.105469 0.0546875 10.980469 0.160156 10.875 C 0.265625 10.765625 0.390625 10.714844 0.535156 10.714844 L 14.464844 10.714844 C 14.609375 10.714844 14.734375 10.765625 14.839844 10.875 C 14.945312 10.980469 15 11.105469 15 11.25 Z M 15 8.035156 L 15 9.105469 C 15 9.253906 14.945312 9.378906 14.839844 9.484375 C 14.734375 9.589844 14.609375 9.644531 14.464844 9.644531 L 0.535156 9.644531 C 0.390625 9.644531 0.265625 9.589844 0.160156 9.484375 C 0.0546875 9.378906 0 9.253906 0 9.105469 L 0 8.035156 C 0 7.890625 0.0546875 7.765625 0.160156 7.660156 C 0.265625 7.554688 0.390625 7.5 0.535156 7.5 L 14.464844 7.5 C 14.609375 7.5 14.734375 7.554688 14.839844 7.660156 C 14.945312 7.765625 15 7.890625 15 8.035156 Z M 15 4.820312 L 15 5.894531 C 15 6.039062 14.945312 6.164062 14.839844 6.269531 C 14.734375 6.375 14.609375 6.429688 14.464844 6.429688 L 0.535156 6.429688 C 0.390625 6.429688 0.265625 6.375 0.160156 6.269531 C 0.0546875 6.164062 0 6.039062 0 5.894531 L 0 4.820312 C 0 4.675781 0.0546875 4.550781 0.160156 4.445312 C 0.265625 4.339844 0.390625 4.285156 0.535156 4.285156 L 14.464844 4.285156 C 14.609375 4.285156 14.734375 4.339844 14.839844 4.445312 C 14.945312 4.550781 15 4.675781 15 4.820312 Z M 15 1.605469 L 15 2.679688 C 15 2.824219 14.945312 2.949219 14.839844 3.054688 C 14.734375 3.160156 14.609375 3.214844 14.464844 3.214844 L 0.535156 3.214844 C 0.390625 3.214844 0.265625 3.160156 0.160156 3.054688 C 0.0546875 2.949219 0 2.824219 0 2.679688 L 0 1.605469 C 0 1.460938 0.0546875 1.335938 0.160156 1.230469 C 0.265625 1.125 0.390625 1.070312 0.535156 1.070312 L 14.464844 1.070312 C 14.609375 1.070312 14.734375 1.125 14.839844 1.230469 C 14.945312 1.335938 15 1.460938 15 1.605469 Z M 15 1.605469 "/>
  </g>
</svg>