<?xml version="1.0" encoding="UTF-8" standalone="yes"?>
<svg xmlns="http://www.w3.org/2000/svg" xmlns:xlink="http://www.w3.org/1999/xlink" width="20px" height="20px" viewBox="0 0 15 15" version="1.1">
  <g id="surface1">
    <path style=" stroke:none;fill-rule:nonzero;fill:rgb(0%,0%,0%);fill-opacity:1;" d="M 12.320312 0 C 12.464844 0 12.59375 0.0546875 12.699219 0.160156 C 12.804688 0.265625 12.855469 0.390625 12.855469 0.535156 L 12.855469 14.464844 C 12.855469 14.609375 12.804688 14.734375 12.699219 14.839844 C 12.59375 14.945312 12.464844 15 12.320312 15 L 1.605469 15 C 1.460938 15 1.335938 14.945312 1.230469 14.839844 C 1.125 14.734375 1.070312 14.609375 1.070312 14.464844 L 1.070312 0.535156 C 1.070312 0.390625 1.125 0.265625 1.230469 0.160156 C 1.335938 0.0546875 1.460938 0 1.605469 0 Z M 5.355469 2.410156 L 5.355469 2.945312 C 5.355469 3.023438 5.382812 3.089844 5.433594 3.140625 C 5.484375 3.1875 5.546875 3.214844 5.625 3.214844 L 6.160156 3.214844 C 6.238281 3.214844 6.304688 3.1875 6.351562 3.140625 C 6.402344 3.089844 6.429688 3.023438 6.429688 2.945312 L 6.429688 2.410156 C 6.429688 2.332031 6.402344 2.269531 6.351562 2.21875 C 6.304688 2.167969 6.238281 2.144531 6.160156 2.144531 L 5.625 2.144531 C 5.546875 2.144531 5.484375 2.167969 5.433594 2.21875 C 5.382812 2.269531 5.355469 2.332031 5.355469 2.410156 Z M 5.355469 4.554688 L 5.355469 5.089844 C 5.355469 5.167969 5.382812 5.230469 5.433594 5.28125 C 5.484375 5.332031 5.546875 5.355469 5.625 5.355469 L 6.160156 5.355469 C 6.238281 5.355469 6.304688 5.332031 6.351562 5.28125 C 6.402344 5.230469 6.429688 5.167969 6.429688 5.089844 L 6.429688 4.554688 C 6.429688 4.476562 6.402344 4.410156 6.351562 4.359375 C 6.304688 4.3125 6.238281 4.285156 6.160156 4.285156 L 5.625 4.285156 C 5.546875 4.285156 5.484375 4.3125 5.433594 4.359375 C 5.382812 4.410156 5.355469 4.476562 5.355469 4.554688 Z M 5.355469 6.695312 L 5.355469 7.230469 C 5.355469 7.308594 5.382812 7.375 5.433594 7.425781 C 5.484375 7.476562 5.546875 7.5 5.625 7.5 L 6.160156 7.5 C 6.238281 7.5 6.304688 7.476562 6.351562 7.425781 C 6.402344 7.375 6.429688 7.308594 6.429688 7.230469 L 6.429688 6.695312 C 6.429688 6.617188 6.402344 6.554688 6.351562 6.503906 C 6.304688 6.453125 6.238281 6.429688 6.160156 6.429688 L 5.625 6.429688 C 5.546875 6.429688 5.484375 6.453125 5.433594 6.503906 C 5.382812 6.554688 5.355469 6.617188 5.355469 6.695312 Z M 5.355469 8.839844 L 5.355469 9.375 C 5.355469 9.453125 5.382812 9.515625 5.433594 9.566406 C 5.484375 9.617188 5.546875 9.644531 5.625 9.644531 L 6.160156 9.644531 C 6.238281 9.644531 6.304688 9.617188 6.351562 9.566406 C 6.402344 9.515625 6.429688 9.453125 6.429688 9.375 L 6.429688 8.839844 C 6.429688 8.761719 6.402344 8.695312 6.351562 8.648438 C 6.304688 8.597656 6.238281 8.570312 6.160156 8.570312 L 5.625 8.570312 C 5.546875 8.570312 5.484375 8.597656 5.433594 8.648438 C 5.382812 8.695312 5.355469 8.761719 5.355469 8.839844 Z M 4.285156 11.519531 L 4.285156 10.980469 C 4.285156 10.902344 4.261719 10.839844 4.210938 10.789062 C 4.160156 10.738281 4.097656 10.714844 4.019531 10.714844 L 3.480469 10.714844 C 3.402344 10.714844 3.339844 10.738281 3.289062 10.789062 C 3.238281 10.839844 3.214844 10.902344 3.214844 10.980469 L 3.214844 11.519531 C 3.214844 11.597656 3.238281 11.660156 3.289062 11.710938 C 3.339844 11.761719 3.402344 11.785156 3.480469 11.785156 L 4.019531 11.785156 C 4.097656 11.785156 4.160156 11.761719 4.210938 11.710938 C 4.261719 11.660156 4.285156 11.597656 4.285156 11.519531 Z M 4.285156 9.375 L 4.285156 8.839844 C 4.285156 8.761719 4.261719 8.695312 4.210938 8.648438 C 4.160156 8.597656 4.097656 8.570312 4.019531 8.570312 L 3.480469 8.570312 C 3.402344 8.570312 3.339844 8.597656 3.289062 8.648438 C 3.238281 8.695312 3.214844 8.761719 3.214844 8.839844 L 3.214844 9.375 C 3.214844 9.453125 3.238281 9.515625 3.289062 9.566406 C 3.339844 9.617188 3.402344 9.644531 3.480469 9.644531 L 4.019531 9.644531 C 4.097656 9.644531 4.160156 9.617188 4.210938 9.566406 C 4.261719 9.515625 4.285156 9.453125 4.285156 9.375 Z M 4.285156 7.230469 L 4.285156 6.695312 C 4.285156 6.617188 4.261719 6.554688 4.210938 6.503906 C 4.160156 6.453125 4.097656 6.429688 4.019531 6.429688 L 3.480469 6.429688 C 3.402344 6.429688 3.339844 6.453125 3.289062 6.503906 C 3.238281 6.554688 3.214844 6.617188 3.214844 6.695312 L 3.214844 7.230469 C 3.214844 7.308594 3.238281 7.375 3.289062 7.425781 C 3.339844 7.476562 3.402344 7.5 3.480469 7.5 L 4.019531 7.5 C 4.097656 7.5 4.160156 7.476562 4.210938 7.425781 C 4.261719 7.375 4.285156 7.308594 4.285156 7.230469 Z M 4.285156 5.089844 L 4.285156 4.554688 C 4.285156 4.476562 4.261719 4.410156 4.210938 4.359375 C 4.160156 4.3125 4.097656 4.285156 4.019531 4.285156 L 3.480469 4.285156 C 3.402344 4.285156 3.339844 4.3125 3.289062 4.359375 C 3.238281 4.410156 3.214844 4.476562 3.214844 4.554688 L 3.214844 5.089844 C 3.214844 5.167969 3.238281 5.230469 3.289062 5.28125 C 3.339844 5.332031 3.402344 5.355469 3.480469 5.355469 L 4.019531 5.355469 C 4.097656 5.355469 4.160156 5.332031 4.210938 5.28125 C 4.261719 5.230469 4.285156 5.167969 4.285156 5.089844 Z M 4.285156 2.945312 L 4.285156 2.410156 C 4.285156 2.332031 4.261719 2.269531 4.210938 2.21875 C 4.160156 2.167969 4.097656 2.144531 4.019531 2.144531 L 3.480469 2.144531 C 3.402344 2.144531 3.339844 2.167969 3.289062 2.21875 C 3.238281 2.269531 3.214844 2.332031 3.214844 2.410156 L 3.214844 2.945312 C 3.214844 3.023438 3.238281 3.089844 3.289062 3.140625 C 3.339844 3.1875 3.402344 3.214844 3.480469 3.214844 L 4.019531 3.214844 C 4.097656 3.214844 4.160156 3.1875 4.210938 3.140625 C 4.261719 3.089844 4.285156 3.023438 4.285156 2.945312 Z M 8.570312 13.660156 L 8.570312 12.054688 C 8.570312 11.976562 8.546875 11.910156 8.496094 11.859375 C 8.445312 11.8125 8.382812 11.785156 8.304688 11.785156 L 5.625 11.785156 C 5.546875 11.785156 5.484375 11.8125 5.433594 11.859375 C 5.382812 11.910156 5.355469 11.976562 5.355469 12.054688 L 5.355469 13.660156 C 5.355469 13.738281 5.382812 13.804688 5.433594 13.851562 C 5.484375 13.902344 5.546875 13.929688 5.625 13.929688 L 8.304688 13.929688 C 8.382812 13.929688 8.445312 13.902344 8.496094 13.851562 C 8.546875 13.804688 8.570312 13.738281 8.570312 13.660156 Z M 8.570312 9.375 L 8.570312 8.839844 C 8.570312 8.761719 8.546875 8.695312 8.496094 8.648438 C 8.445312 8.597656 8.382812 8.570312 8.304688 8.570312 L 7.769531 8.570312 C 7.691406 8.570312 7.625 8.597656 7.574219 8.648438 C 7.523438 8.695312 7.5 8.761719 7.5 8.839844 L 7.5 9.375 C 7.5 9.453125 7.523438 9.515625 7.574219 9.566406 C 7.625 9.617188 7.691406 9.644531 7.769531 9.644531 L 8.304688 9.644531 C 8.382812 9.644531 8.445312 9.617188 8.496094 9.566406 C 8.546875 9.515625 8.570312 9.453125 8.570312 9.375 Z M 8.570312 7.230469 L 8.570312 6.695312 C 8.570312 6.617188 8.546875 6.554688 8.496094 6.503906 C 8.445312 6.453125 8.382812 6.429688 8.304688 6.429688 L 7.769531 6.429688 C 7.691406 6.429688 7.625 6.453125 7.574219 6.503906 C 7.523438 6.554688 7.5 6.617188 7.5 6.695312 L 7.5 7.230469 C 7.5 7.308594 7.523438 7.375 7.574219 7.425781 C 7.625 7.476562 7.691406 7.5 7.769531 7.5 L 8.304688 7.5 C 8.382812 7.5 8.445312 7.476562 8.496094 7.425781 C 8.546875 7.375 8.570312 7.308594 8.570312 7.230469 Z M 8.570312 5.089844 L 8.570312 4.554688 C 8.570312 4.476562 8.546875 4.410156 8.496094 4.359375 C 8.445312 4.3125 8.382812 4.285156 8.304688 4.285156 L 7.769531 4.285156 C 7.691406 4.285156 7.625 4.3125 7.574219 4.359375 C 7.523438 4.410156 7.5 4.476562 7.5 4.554688 L 7.5 5.089844 C 7.5 5.167969 7.523438 5.230469 7.574219 5.28125 C 7.625 5.332031 7.691406 5.355469 7.769531 5.355469 L 8.304688 5.355469 C 8.382812 5.355469 8.445312 5.332031 8.496094 5.28125 C 8.546875 5.230469 8.570312 5.167969 8.570312 5.089844 Z M 8.570312 2.945312 L 8.570312 2.410156 C 8.570312 2.332031 8.546875 2.269531 8.496094 2.21875 C 8.445312 2.167969 8.382812 2.144531 8.304688 2.144531 L 7.769531 2.144531 C 7.691406 2.144531 7.625 2.167969 7.574219 2.21875 C 7.523438 2.269531 7.5 2.332031 7.5 2.410156 L 7.5 2.945312 C 7.5 3.023438 7.523438 3.089844 7.574219 3.140625 C 7.625 3.1875 7.691406 3.214844 7.769531 3.214844 L 8.304688 3.214844 C 8.382812 3.214844 8.445312 3.1875 8.496094 3.140625 C 8.546875 3.089844 8.570312 3.023438 8.570312 2.945312 Z M 10.714844 11.519531 L 10.714844 10.980469 C 10.714844 10.902344 10.6875 10.839844 10.640625 10.789062 C 10.589844 10.738281 10.523438 10.714844 10.445312 10.714844 L 9.910156 10.714844 C 9.832031 10.714844 9.769531 10.738281 9.71875 10.789062 C 9.667969 10.839844 9.644531 10.902344 9.644531 10.980469 L 9.644531 11.519531 C 9.644531 11.597656 9.667969 11.660156 9.71875 11.710938 C 9.769531 11.761719 9.832031 11.785156 9.910156 11.785156 L 10.445312 11.785156 C 10.523438 11.785156 10.589844 11.761719 10.640625 11.710938 C 10.6875 11.660156 10.714844 11.597656 10.714844 11.519531 Z M 10.714844 9.375 L 10.714844 8.839844 C 10.714844 8.761719 10.6875 8.695312 10.640625 8.648438 C 10.589844 8.597656 10.523438 8.570312 10.445312 8.570312 L 9.910156 8.570312 C 9.832031 8.570312 9.769531 8.597656 9.71875 8.648438 C 9.667969 8.695312 9.644531 8.761719 9.644531 8.839844 L 9.644531 9.375 C 9.644531 9.453125 9.667969 9.515625 9.71875 9.566406 C 9.769531 9.617188 9.832031 9.644531 9.910156 9.644531 L 10.445312 9.644531 C 10.523438 9.644531 10.589844 9.617188 10.640625 9.566406 C 10.6875 9.515625 10.714844 9.453125 10.714844 9.375 Z M 10.714844 7.230469 L 10.714844 6.695312 C 10.714844 6.617188 10.6875 6.554688 10.640625 6.503906 C 10.589844 6.453125 10.523438 6.429688 10.445312 6.429688 L 9.910156 6.429688 C 9.832031 6.429688 9.769531 6.453125 9.71875 6.503906 C 9.667969 6.554688 9.644531 6.617188 9.644531 6.695312 L 9.644531 7.230469 C 9.644531 7.308594 9.667969 7.375 9.71875 7.425781 C 9.769531 7.476562 9.832031 7.5 9.910156 7.5 L 10.445312 7.5 C 10.523438 7.5 10.589844 7.476562 10.640625 7.425781 C 10.6875 7.375 10.714844 7.308594 10.714844 7.230469 Z M 10.714844 5.089844 L 10.714844 4.554688 C 10.714844 4.476562 10.6875 4.410156 10.640625 4.359375 C 10.589844 4.3125 10.523438 4.285156 10.445312 4.285156 L 9.910156 4.285156 C 9.832031 4.285156 9.769531 4.3125 9.71875 4.359375 C 9.667969 4.410156 9.644531 4.476562 9.644531 4.554688 L 9.644531 5.089844 C 9.644531 5.167969 9.667969 5.230469 9.71875 5.28125 C 9.769531 5.332031 9.832031 5.355469 9.910156 5.355469 L 10.445312 5.355469 C 10.523438 5.355469 10.589844 5.332031 10.640625 5.28125 C 10.6875 5.230469 10.714844 5.167969 10.714844 5.089844 Z M 10.714844 2.945312 L 10.714844 2.410156 C 10.714844 2.332031 10.6875 2.269531 10.640625 2.21875 C 10.589844 2.167969 10.523438 2.144531 10.445312 2.144531 L 9.910156 2.144531 C 9.832031 2.144531 9.769531 2.167969 9.71875 2.21875 C 9.667969 2.269531 9.644531 2.332031 9.644531 2.410156 L 9.644531 2.945312 C 9.644531 3.023438 9.667969 3.089844 9.71875 3.140625 C 9.769531 3.1875 9.832031 3.214844 9.910156 3.214844 L 10.445312 3.214844 C 10.523438 3.214844 10.589844 3.1875 10.640625 3.140625 C 10.6875 3.089844 10.714844 3.023438 10.714844 2.945312 Z M 10.714844 2.945312 "/>
  </g>
</svg>