<svg version="1.1" xmlns="http://www.w3.org/2000/svg" xlink="http://www.w3.org/1999/xlink" x="0px" y="0px" width="15px" height="15px" viewBox="0 0 15 15" style="enable-background:new 0 0 15 15;" space="preserve">
    <path d="M11.96875,7.132812C12.308594,9.117188,13.140625,10.667969,14.464844,11.785156C14.464844,12.074219,14.359375,12.328125,14.144531,12.539062C13.933594,12.75,13.683594,12.855469,13.394531,12.855469L9.644531,12.855469C9.644531,13.449219,9.433594,13.953125,9.015625,14.371094C8.597656,14.789062,8.089844,15,7.5,15C6.910156,15,6.40625,14.792969,5.988281,14.375C5.574219,13.960938,5.363281,13.457031,5.355469,12.867188ZM7.5,14.332031C7.589844,14.332031,7.632812,14.285156,7.632812,14.195312C7.632812,14.105469,7.589844,14.0625,7.5,14.0625C7.171875,14.0625,6.886719,13.945312,6.648438,13.707031C6.414062,13.46875,6.292969,13.1875,6.292969,12.855469C6.292969,12.769531,6.25,12.722656,6.160156,12.722656C6.070312,12.722656,6.027344,12.769531,6.027344,12.855469C6.027344,13.265625,6.171875,13.613281,6.457031,13.898438C6.746094,14.1875,7.09375,14.332031,7.5,14.332031ZM15.886719,0.9375C15.933594,0.992188,15.953125,1.058594,15.949219,1.132812C15.945312,1.210938,15.917969,1.273438,15.863281,1.324219L0.191406,14.898438C0.136719,14.945312,0.0703125,14.964844,-0.00390625,14.957031C-0.078125,14.953125,-0.140625,14.921875,-0.183594,14.867188L-0.886719,14.0625C-0.933594,14.007812,-0.953125,13.941406,-0.949219,13.867188C-0.945312,13.789062,-0.917969,13.730469,-0.863281,13.6875L0.695312,12.339844C0.589844,12.160156,0.535156,11.976562,0.535156,11.785156C0.816406,11.550781,1.070312,11.304688,1.296875,11.050781C1.527344,10.792969,1.761719,10.460938,2.007812,10.046875C2.253906,9.640625,2.460938,9.195312,2.632812,8.722656C2.800781,8.246094,2.941406,7.671875,3.050781,6.996094C3.160156,6.324219,3.214844,5.597656,3.214844,4.820312C3.214844,3.972656,3.539062,3.183594,4.195312,2.457031C4.847656,1.726562,5.703125,1.285156,6.761719,1.128906C6.71875,1.023438,6.695312,0.914062,6.695312,0.804688C6.695312,0.582031,6.773438,0.390625,6.929688,0.234375C7.085938,0.078125,7.277344,0,7.5,0C7.722656,0,7.914062,0.078125,8.070312,0.234375C8.226562,0.390625,8.304688,0.582031,8.304688,0.804688C8.304688,0.914062,8.28125,1.023438,8.238281,1.128906C8.929688,1.230469,9.539062,1.460938,10.070312,1.820312C10.601562,2.179688,11.011719,2.621094,11.308594,3.140625L14.808594,0.101562C14.863281,0.0546875,14.929688,0.0351562,15.003906,0.0429688C15.078125,0.046875,15.140625,0.078125,15.183594,0.132812ZM15.886719,0.9375" fill="#FFFFFF"/>
    </svg>