<svg version="1.1" xmlns="http://www.w3.org/2000/svg" xlink="http://www.w3.org/1999/xlink" x="0px" y="0px" width="15px" height="15px" viewBox="0 0 15 15" style="enable-background:new 0 0 15 15;" space="preserve">
    <path d="M0.31640625,7.2421875C-0.0205078125,7.376953125,-0.1083984375,7.8134765625,0.146484375,8.068359375l1.60546875,1.60546875l2.14453125,-0.71484375l-0.71484375,2.14453125l3.75,3.75c0.2578125,0.2578125,0.69140625,0.1669921875,0.826171875,-0.169921875l2.8740234375,-7.1396484375l-3.17578125,-3.17578125l-7.1396484375,2.8740234375zM14.8623046875,0.7998046875L14.2001953125,0.1376953125c-0.181640625,-0.1845703125,-0.48046874999999994,-0.1845703125,-0.662109375,0L10.541015625,3.1318359375l-1.18359375,-1.18359375c-0.123046875,-0.1259765625,-0.333984375,-0.087890625,-0.4072265625,0.0732421875l-0.796875,1.716796875l3.1083984375,3.1083984375l1.716796875,-0.796875c0.158203125,-0.0732421875,0.1962890625,-0.2841796875,0.0732421875,-0.4072265625l-1.18359375,-1.18359375L14.8623046875,1.4619140625c0.1845703125,-0.181640625,0.1845703125,-0.4775390625,0,-0.662109375z" fill="#FFFFFF"/>
    </svg>