<svg version="1.1" xmlns="http://www.w3.org/2000/svg" xlink="http://www.w3.org/1999/xlink" x="0px" y="0px" width="15px" height="15px" viewBox="0 0 15 15" style="enable-background:new 0 0 15 15;" space="preserve">
    <path d="M11.519531,1.070312C12.183594,1.070312,12.75,1.308594,13.222656,1.777344C13.691406,2.25,13.929688,2.816406,13.929688,3.480469L13.929688,11.519531C13.929688,12.183594,13.691406,12.75,13.222656,13.222656C12.75,13.691406,12.183594,13.929688,11.519531,13.929688L3.480469,13.929688C2.816406,13.929688,2.25,13.691406,1.777344,13.222656C1.308594,12.75,1.070312,12.183594,1.070312,11.519531L1.070312,3.480469C1.070312,2.816406,1.308594,2.25,1.777344,1.777344C2.25,1.308594,2.816406,1.070312,3.480469,1.070312ZM5.25,4.144531L2.144531,4.144531L2.144531,10.730469L5.339844,10.730469C5.992188,10.730469,6.542969,10.570312,6.988281,10.25C7.4375,9.929688,7.660156,9.453125,7.660156,8.824219C7.660156,7.941406,7.261719,7.382812,6.460938,7.148438C7.058594,6.859375,7.359375,6.402344,7.359375,5.777344C7.359375,5.457031,7.304688,5.1875,7.195312,4.96875C7.085938,4.746094,6.929688,4.578125,6.722656,4.460938C6.515625,4.34375,6.292969,4.261719,6.058594,4.214844C5.824219,4.167969,5.554688,4.144531,5.25,4.144531ZM5.0625,6.804688L3.589844,6.804688L3.589844,5.265625L4.957031,5.265625C5.621094,5.265625,5.953125,5.515625,5.953125,6.019531C5.953125,6.542969,5.65625,6.804688,5.0625,6.804688ZM5.140625,9.609375L3.589844,9.609375L3.589844,7.792969L5.171875,7.792969C5.863281,7.792969,6.210938,8.109375,6.210938,8.738281C6.210938,9.320312,5.855469,9.609375,5.140625,9.609375ZM10.582031,9.878906C10.199219,9.878906,9.910156,9.769531,9.710938,9.558594C9.507812,9.347656,9.410156,9.046875,9.410156,8.664062L12.847656,8.664062C12.855469,8.609375,12.855469,8.523438,12.855469,8.414062C12.855469,7.675781,12.648438,7.0625,12.234375,6.566406C11.816406,6.074219,11.25,5.824219,10.53125,5.824219C9.816406,5.824219,9.230469,6.066406,8.773438,6.546875C8.316406,7.027344,8.085938,7.628906,8.085938,8.355469C8.085938,9.105469,8.304688,9.710938,8.746094,10.171875C9.1875,10.628906,9.78125,10.855469,10.53125,10.855469C11.675781,10.855469,12.417969,10.324219,12.765625,9.257812L11.609375,9.257812C11.546875,9.449219,11.414062,9.597656,11.210938,9.710938C11.007812,9.820312,10.796875,9.878906,10.582031,9.878906ZM10.496094,6.8125C11.128906,6.8125,11.472656,7.152344,11.535156,7.835938L9.410156,7.835938C9.429688,7.523438,9.539062,7.273438,9.734375,7.089844C9.929688,6.90625,10.183594,6.8125,10.496094,6.8125ZM9.140625,4.585938L11.8125,4.585938L11.8125,5.230469L9.140625,5.230469ZM9.140625,4.585938" fill="#FFFFFF"/>
    </svg>