<svg xmlns="http://www.w3.org/2000/svg" xlink="http://www.w3.org/1999/xlink" width="20px" height="20px" viewBox="0 0 15 15" version="1.1">
  <g id="surface1">
    <path d="M 5.894531 2.679688 L 5.894531 9.105469 C 5.894531 9.253906 5.839844 9.378906 5.734375 9.484375 C 5.628906 9.589844 5.503906 9.644531 5.355469 9.644531 L 5.355469 14.464844 C 5.355469 14.609375 5.304688 14.734375 5.199219 14.839844 C 5.09375 14.945312 4.964844 15 4.820312 15 L 0.535156 15 C 0.390625 15 0.265625 14.945312 0.160156 14.839844 C 0.0546875 14.734375 0 14.609375 0 14.464844 L 0 10.179688 L 2.085938 2.871094 C 2.125 2.742188 2.210938 2.679688 2.34375 2.679688 Z M 8.570312 2.679688 L 8.570312 8.570312 L 6.429688 8.570312 L 6.429688 2.679688 Z M 15 10.179688 L 15 14.464844 C 15 14.609375 14.945312 14.734375 14.839844 14.839844 C 14.734375 14.945312 14.609375 15 14.464844 15 L 10.179688 15 C 10.035156 15 9.90625 14.945312 9.800781 14.839844 C 9.695312 14.734375 9.644531 14.609375 9.644531 14.464844 L 9.644531 9.644531 C 9.496094 9.644531 9.371094 9.589844 9.265625 9.484375 C 9.160156 9.378906 9.105469 9.253906 9.105469 9.105469 L 9.105469 2.679688 L 12.65625 2.679688 C 12.789062 2.679688 12.875 2.742188 12.914062 2.871094 Z M 6.160156 0.269531 L 6.160156 2.144531 L 3.214844 2.144531 L 3.214844 0.269531 C 3.214844 0.191406 3.238281 0.125 3.289062 0.0742188 C 3.339844 0.0234375 3.402344 0 3.480469 0 L 5.894531 0 C 5.972656 0 6.035156 0.0234375 6.085938 0.0742188 C 6.136719 0.125 6.160156 0.191406 6.160156 0.269531 Z M 11.785156 0.269531 L 11.785156 2.144531 L 8.839844 2.144531 L 8.839844 0.269531 C 8.839844 0.191406 8.863281 0.125 8.914062 0.0742188 C 8.964844 0.0234375 9.027344 0 9.105469 0 L 11.519531 0 C 11.597656 0 11.660156 0.0234375 11.710938 0.0742188 C 11.761719 0.125 11.785156 0.191406 11.785156 0.269531 Z M 11.785156 0.269531 " fill="#FFFFFF"/>
  </g>
</svg>