<svg version="1.1" xmlns="http://www.w3.org/2000/svg" xlink="http://www.w3.org/1999/xlink" x="0px" y="0px" width="15px" height="15px" viewBox="0 0 15 15" style="enable-background:new 0 0 15 15;" space="preserve">
    <path d="M0.527344,12.855469L0,12.855469L0,1.070312L0.527344,1.070312ZM1.054688,12.847656L0.785156,12.847656L0.785156,1.070312L1.054688,1.070312ZM1.839844,12.847656L1.582031,12.847656L1.582031,1.070312L1.839844,1.070312ZM3.15625,12.847656L2.894531,12.847656L2.894531,1.070312L3.15625,1.070312ZM4.46875,12.847656L3.949219,12.847656L3.949219,1.070312L4.46875,1.070312ZM5.523438,12.847656L5.265625,12.847656L5.265625,1.070312L5.523438,1.070312ZM6.050781,12.847656L5.792969,12.847656L5.792969,1.070312L6.050781,1.070312ZM6.578125,12.847656L6.320312,12.847656L6.320312,1.070312L6.578125,1.070312ZM7.894531,12.847656L7.367188,12.847656L7.367188,1.070312L7.894531,1.070312ZM9.207031,12.847656L8.679688,12.847656L8.679688,1.070312L9.207031,1.070312ZM10.261719,12.847656L9.734375,12.847656L9.734375,1.070312L10.261719,1.070312ZM11.316406,12.847656L10.789062,12.847656L10.789062,1.070312L11.316406,1.070312ZM12.105469,12.847656L11.578125,12.847656L11.578125,1.070312L12.105469,1.070312ZM13.6875,12.847656L12.898438,12.847656L12.898438,1.070312L13.6875,1.070312ZM14.214844,12.847656L13.945312,12.847656L13.945312,1.070312L14.214844,1.070312ZM15,12.855469L14.472656,12.855469L14.472656,1.070312L15,1.070312ZM15,12.855469" fill="#FFFFFF"/>
    </svg>