<?xml version="1.0" encoding="UTF-8" standalone="yes"?>
<svg xmlns="http://www.w3.org/2000/svg" xmlns:xlink="http://www.w3.org/1999/xlink" width="20px" height="20px" viewBox="0 0 15 15" version="1.1">
  <g id="surface1">
    <path style=" stroke:none;fill-rule:nonzero;fill:rgb(0%,0%,0%);fill-opacity:1;" d="M 4.78125 4.929688 C 4.722656 4.789062 4.628906 4.691406 4.496094 4.636719 C 4.359375 4.582031 4.222656 4.582031 4.085938 4.636719 C 3.480469 4.882812 2.949219 5.238281 2.484375 5.699219 C 2.023438 6.164062 1.667969 6.695312 1.421875 7.300781 C 1.367188 7.4375 1.367188 7.574219 1.421875 7.710938 C 1.480469 7.84375 1.578125 7.9375 1.714844 7.992188 C 1.789062 8.023438 1.855469 8.035156 1.917969 8.035156 C 2.152344 8.035156 2.320312 7.925781 2.417969 7.699219 C 2.609375 7.230469 2.882812 6.816406 3.242188 6.457031 C 3.601562 6.097656 4.019531 5.824219 4.488281 5.632812 C 4.625 5.570312 4.722656 5.472656 4.78125 5.339844 C 4.835938 5.207031 4.835938 5.070312 4.78125 4.929688 Z M 12.664062 1.949219 L 13.050781 2.335938 L 11.007812 4.371094 L 11.578125 4.9375 C 11.683594 5.042969 11.734375 5.171875 11.734375 5.320312 C 11.734375 5.46875 11.683594 5.59375 11.578125 5.699219 L 11.039062 6.234375 C 11.539062 7.132812 11.785156 8.089844 11.785156 9.105469 C 11.785156 9.90625 11.632812 10.667969 11.320312 11.398438 C 11.011719 12.125 10.59375 12.753906 10.066406 13.28125 C 9.539062 13.808594 8.910156 14.226562 8.183594 14.535156 C 7.453125 14.84375 6.691406 15 5.894531 15 C 5.09375 15 4.332031 14.84375 3.601562 14.535156 C 2.875 14.226562 2.246094 13.808594 1.71875 13.28125 C 1.191406 12.753906 0.773438 12.125 0.464844 11.398438 C 0.15625 10.667969 0 9.90625 0 9.105469 C 0 8.308594 0.15625 7.546875 0.464844 6.816406 C 0.773438 6.089844 1.191406 5.460938 1.71875 4.933594 C 2.246094 4.40625 2.875 3.988281 3.601562 3.679688 C 4.332031 3.367188 5.09375 3.214844 5.894531 3.214844 C 6.910156 3.214844 7.867188 3.460938 8.765625 3.960938 L 9.300781 3.421875 C 9.40625 3.316406 9.53125 3.265625 9.679688 3.265625 C 9.828125 3.265625 9.957031 3.316406 10.0625 3.421875 L 10.628906 3.992188 Z M 12.730469 1.480469 C 12.675781 1.539062 12.613281 1.566406 12.546875 1.566406 C 12.476562 1.566406 12.410156 1.539062 12.355469 1.480469 L 11.59375 0.726562 C 11.542969 0.671875 11.519531 0.609375 11.519531 0.535156 C 11.519531 0.464844 11.542969 0.398438 11.59375 0.34375 C 11.648438 0.292969 11.714844 0.269531 11.785156 0.269531 C 11.859375 0.269531 11.921875 0.292969 11.976562 0.34375 L 12.730469 1.105469 C 12.789062 1.15625 12.816406 1.21875 12.816406 1.292969 C 12.816406 1.367188 12.789062 1.429688 12.730469 1.480469 Z M 14.65625 3.40625 C 14.59375 3.457031 14.53125 3.480469 14.464844 3.480469 C 14.398438 3.480469 14.332031 3.457031 14.273438 3.40625 L 13.519531 2.644531 C 13.460938 2.59375 13.433594 2.53125 13.433594 2.457031 C 13.433594 2.382812 13.460938 2.320312 13.519531 2.269531 C 13.570312 2.210938 13.632812 2.183594 13.707031 2.183594 C 13.78125 2.183594 13.84375 2.210938 13.894531 2.269531 L 14.65625 3.023438 C 14.707031 3.078125 14.730469 3.140625 14.730469 3.214844 C 14.730469 3.285156 14.707031 3.351562 14.65625 3.40625 Z M 15 1.875 C 15 1.953125 14.976562 2.015625 14.925781 2.066406 C 14.875 2.117188 14.808594 2.144531 14.730469 2.144531 L 13.929688 2.144531 C 13.851562 2.144531 13.785156 2.117188 13.734375 2.066406 C 13.6875 2.015625 13.660156 1.953125 13.660156 1.875 C 13.660156 1.796875 13.6875 1.734375 13.734375 1.683594 C 13.785156 1.632812 13.851562 1.605469 13.929688 1.605469 L 14.730469 1.605469 C 14.808594 1.605469 14.875 1.632812 14.925781 1.683594 C 14.976562 1.734375 15 1.796875 15 1.875 Z M 13.394531 0.269531 L 13.394531 1.070312 C 13.394531 1.148438 13.367188 1.214844 13.316406 1.265625 C 13.265625 1.3125 13.203125 1.339844 13.125 1.339844 C 13.046875 1.339844 12.984375 1.3125 12.933594 1.265625 C 12.882812 1.214844 12.855469 1.148438 12.855469 1.070312 L 12.855469 0.269531 C 12.855469 0.191406 12.882812 0.125 12.933594 0.0742188 C 12.984375 0.0234375 13.046875 0 13.125 0 C 13.203125 0 13.265625 0.0234375 13.316406 0.0742188 C 13.367188 0.125 13.394531 0.191406 13.394531 0.269531 Z M 14.65625 0.726562 L 13.894531 1.480469 C 13.839844 1.539062 13.777344 1.566406 13.710938 1.566406 C 13.636719 1.566406 13.574219 1.539062 13.519531 1.480469 C 13.460938 1.429688 13.433594 1.367188 13.433594 1.292969 C 13.433594 1.21875 13.460938 1.15625 13.519531 1.105469 L 14.273438 0.34375 C 14.328125 0.292969 14.390625 0.269531 14.464844 0.269531 C 14.535156 0.269531 14.601562 0.292969 14.65625 0.34375 C 14.707031 0.398438 14.730469 0.464844 14.730469 0.535156 C 14.730469 0.609375 14.707031 0.671875 14.65625 0.726562 Z M 14.65625 0.726562 "/>
  </g>
</svg>