<?xml version="1.0" encoding="UTF-8" standalone="yes"?>
<svg xmlns="http://www.w3.org/2000/svg" xmlns:xlink="http://www.w3.org/1999/xlink" width="20px" height="20px" viewBox="0 0 15 15" version="1.1">
  <g id="surface1">
    <path style=" stroke:none;fill-rule:nonzero;fill:rgb(0%,0%,0%);fill-opacity:1;" d="M 8.109375 8.8125 L 9.351562 10.054688 L 8.101562 11.300781 Z M 8.101562 3.699219 L 9.351562 4.945312 L 8.109375 6.1875 Z M 7.015625 13.945312 L 10.898438 10.0625 L 8.335938 7.5 L 10.898438 4.9375 L 7.015625 1.054688 L 7.015625 6.167969 L 4.878906 4.035156 L 4.101562 4.8125 L 6.78125 7.5 L 4.101562 10.1875 L 4.878906 10.964844 L 7.015625 8.832031 Z M 13.03125 7.5 C 13.03125 8.667969 12.945312 9.6875 12.765625 10.558594 C 12.585938 11.433594 12.34375 12.148438 12.03125 12.710938 C 11.722656 13.273438 11.332031 13.726562 10.855469 14.070312 C 10.382812 14.417969 9.875 14.65625 9.335938 14.796875 C 8.796875 14.929688 8.1875 15 7.5 15 C 6.8125 15 6.199219 14.929688 5.664062 14.796875 C 5.125 14.65625 4.617188 14.417969 4.144531 14.070312 C 3.667969 13.726562 3.277344 13.273438 2.96875 12.710938 C 2.65625 12.148438 2.414062 11.433594 2.234375 10.558594 C 2.054688 9.6875 1.96875 8.667969 1.96875 7.5 C 1.96875 6.332031 2.054688 5.3125 2.234375 4.441406 C 2.414062 3.566406 2.65625 2.851562 2.96875 2.289062 C 3.277344 1.726562 3.667969 1.273438 4.144531 0.929688 C 4.617188 0.582031 5.125 0.339844 5.664062 0.203125 C 6.199219 0.0664062 6.8125 0 7.5 0 C 8.1875 0 8.796875 0.0664062 9.335938 0.203125 C 9.875 0.339844 10.382812 0.582031 10.855469 0.929688 C 11.332031 1.273438 11.722656 1.726562 12.03125 2.289062 C 12.34375 2.851562 12.585938 3.566406 12.765625 4.441406 C 12.945312 5.3125 13.03125 6.332031 13.03125 7.5 Z M 13.03125 7.5 "/>
  </g>
</svg>