<svg xmlns="http://www.w3.org/2000/svg" xlink="http://www.w3.org/1999/xlink" width="20px" height="20px" viewBox="0 0 15 15" version="1.1">
  <g id="surface1">
    <path d="M 11.886719 1.070312 C 12.015625 1.070312 12.136719 1.097656 12.253906 1.148438 C 12.4375 1.21875 12.585938 1.332031 12.695312 1.488281 C 12.804688 1.644531 12.855469 1.820312 12.855469 2.007812 L 12.855469 12.796875 C 12.855469 12.988281 12.804688 13.160156 12.695312 13.316406 C 12.585938 13.472656 12.4375 13.589844 12.253906 13.660156 C 12.148438 13.707031 12.027344 13.726562 11.886719 13.726562 C 11.617188 13.726562 11.386719 13.636719 11.191406 13.460938 L 7.5 9.910156 L 3.808594 13.460938 C 3.609375 13.644531 3.375 13.734375 3.113281 13.734375 C 2.984375 13.734375 2.863281 13.710938 2.746094 13.660156 C 2.5625 13.589844 2.414062 13.472656 2.304688 13.316406 C 2.195312 13.160156 2.144531 12.988281 2.144531 12.796875 L 2.144531 2.007812 C 2.144531 1.820312 2.195312 1.644531 2.304688 1.488281 C 2.414062 1.332031 2.5625 1.21875 2.746094 1.148438 C 2.863281 1.097656 2.984375 1.070312 3.113281 1.070312 Z M 11.886719 1.070312 " fill="#FFFFFF"/>
  </g>
</svg>