<?xml version="1.0" encoding="UTF-8" standalone="yes"?>
<svg xmlns="http://www.w3.org/2000/svg" xmlns:xlink="http://www.w3.org/1999/xlink" width="20px" height="20px" viewBox="0 0 15 15" version="1.1">
  <g id="surface1">
    <path style=" stroke:none;fill-rule:nonzero;fill:rgb(0%,0%,0%);fill-opacity:1;" d="M 11.910156 5.355469 C 12.011719 6.371094 11.644531 7.09375 10.816406 7.515625 C 11.46875 7.671875 11.957031 7.960938 12.28125 8.378906 C 12.601562 8.796875 12.730469 9.394531 12.65625 10.171875 C 12.617188 10.566406 12.527344 10.914062 12.382812 11.214844 C 12.242188 11.519531 12.0625 11.765625 11.84375 11.960938 C 11.625 12.15625 11.355469 12.320312 11.03125 12.453125 C 10.707031 12.582031 10.371094 12.679688 10.015625 12.738281 C 9.660156 12.800781 9.253906 12.84375 8.796875 12.867188 L 8.796875 15 L 7.507812 15 L 7.507812 12.898438 C 7.0625 12.898438 6.722656 12.894531 6.488281 12.890625 L 6.488281 15 L 5.199219 15 L 5.199219 12.867188 C 5.097656 12.867188 4.945312 12.863281 4.746094 12.859375 C 4.546875 12.859375 4.390625 12.855469 4.285156 12.855469 L 2.613281 12.855469 L 2.871094 11.324219 L 3.800781 11.324219 C 4.078125 11.324219 4.242188 11.183594 4.285156 10.898438 L 4.285156 7.535156 L 4.417969 7.535156 C 4.386719 7.527344 4.339844 7.523438 4.285156 7.523438 L 4.285156 5.121094 C 4.214844 4.742188 3.964844 4.554688 3.539062 4.554688 L 2.613281 4.554688 L 2.613281 3.179688 L 4.386719 3.1875 C 4.742188 3.1875 5.015625 3.1875 5.199219 3.179688 L 5.199219 1.070312 L 6.488281 1.070312 L 6.488281 3.140625 C 6.945312 3.128906 7.285156 3.121094 7.507812 3.121094 L 7.507812 1.070312 L 8.796875 1.070312 L 8.796875 3.179688 C 9.238281 3.21875 9.628906 3.28125 9.96875 3.367188 C 10.308594 3.457031 10.625 3.582031 10.914062 3.746094 C 11.207031 3.910156 11.433594 4.128906 11.605469 4.398438 C 11.777344 4.667969 11.878906 4.988281 11.910156 5.355469 Z M 10.113281 9.917969 C 10.113281 9.71875 10.070312 9.539062 9.984375 9.382812 C 9.902344 9.226562 9.800781 9.097656 9.675781 9 C 9.554688 8.898438 9.394531 8.8125 9.195312 8.742188 C 8.996094 8.671875 8.8125 8.621094 8.648438 8.589844 C 8.480469 8.554688 8.273438 8.53125 8.027344 8.511719 C 7.78125 8.496094 7.589844 8.488281 7.449219 8.488281 C 7.308594 8.488281 7.128906 8.492188 6.910156 8.496094 C 6.6875 8.5 6.558594 8.503906 6.511719 8.503906 L 6.511719 11.332031 C 6.558594 11.332031 6.660156 11.335938 6.820312 11.335938 C 6.984375 11.339844 7.117188 11.34375 7.222656 11.34375 C 7.328125 11.34375 7.476562 11.335938 7.667969 11.328125 C 7.855469 11.320312 8.019531 11.308594 8.15625 11.296875 C 8.292969 11.28125 8.453125 11.257812 8.632812 11.226562 C 8.816406 11.191406 8.96875 11.152344 9.097656 11.109375 C 9.226562 11.0625 9.359375 11.003906 9.496094 10.933594 C 9.632812 10.859375 9.742188 10.777344 9.828125 10.679688 C 9.910156 10.585938 9.980469 10.472656 10.03125 10.347656 C 10.085938 10.21875 10.113281 10.074219 10.113281 9.917969 Z M 9.515625 5.933594 C 9.515625 5.75 9.480469 5.585938 9.414062 5.445312 C 9.34375 5.304688 9.257812 5.1875 9.15625 5.09375 C 9.058594 5 8.921875 4.921875 8.753906 4.859375 C 8.589844 4.792969 8.433594 4.75 8.296875 4.722656 C 8.15625 4.691406 7.984375 4.671875 7.78125 4.652344 C 7.578125 4.636719 7.414062 4.628906 7.296875 4.632812 C 7.175781 4.636719 7.023438 4.636719 6.84375 4.640625 C 6.660156 4.644531 6.550781 4.644531 6.511719 4.644531 L 6.511719 7.214844 C 6.539062 7.214844 6.636719 7.214844 6.800781 7.21875 C 6.964844 7.222656 7.09375 7.222656 7.191406 7.21875 C 7.285156 7.214844 7.425781 7.210938 7.609375 7.203125 C 7.792969 7.195312 7.945312 7.179688 8.070312 7.15625 C 8.191406 7.132812 8.335938 7.105469 8.5 7.066406 C 8.664062 7.027344 8.800781 6.972656 8.90625 6.910156 C 9.011719 6.84375 9.117188 6.769531 9.214844 6.683594 C 9.316406 6.597656 9.390625 6.488281 9.441406 6.363281 C 9.492188 6.234375 9.515625 6.089844 9.515625 5.933594 Z M 9.515625 5.933594 "/>
  </g>
</svg>