<?xml version="1.0" encoding="UTF-8" standalone="yes"?>
<svg xmlns="http://www.w3.org/2000/svg" xmlns:xlink="http://www.w3.org/1999/xlink" width="20px" height="20px" viewBox="0 0 15 15" version="1.1">
  <g id="surface1">
    <path style=" stroke:none;fill-rule:nonzero;fill:rgb(0%,0%,0%);fill-opacity:1;" d="M 8.167969 7.28125 C 8.167969 7.042969 8.054688 6.859375 7.828125 6.730469 C 7.597656 6.601562 7.382812 6.597656 7.183594 6.722656 C 6.941406 6.832031 6.824219 7.035156 6.828125 7.328125 C 6.828125 7.621094 6.949219 7.816406 7.191406 7.917969 C 7.40625 8.046875 7.632812 8.035156 7.867188 7.886719 C 8.101562 7.734375 8.203125 7.535156 8.167969 7.28125 Z M 8.839844 7.148438 C 8.882812 7.515625 8.785156 7.855469 8.539062 8.160156 C 8.292969 8.46875 7.984375 8.636719 7.617188 8.671875 C 7.25 8.707031 6.917969 8.59375 6.621094 8.335938 C 6.324219 8.082031 6.167969 7.765625 6.152344 7.390625 C 6.140625 7.117188 6.210938 6.859375 6.367188 6.613281 C 6.519531 6.367188 6.722656 6.1875 6.972656 6.078125 C 7.363281 5.902344 7.757812 5.933594 8.15625 6.160156 C 8.554688 6.390625 8.785156 6.71875 8.839844 7.148438 Z M 10.277344 3.875 C 10.167969 3.992188 10.019531 4.085938 9.832031 4.160156 C 9.644531 4.234375 9.496094 4.277344 9.386719 4.292969 C 9.277344 4.3125 9.101562 4.332031 8.855469 4.359375 C 7.992188 4.472656 7.085938 4.472656 6.144531 4.359375 C 5.898438 4.328125 5.722656 4.300781 5.617188 4.28125 C 5.511719 4.261719 5.363281 4.21875 5.175781 4.148438 C 4.988281 4.078125 4.839844 3.988281 4.722656 3.875 C 4.792969 3.769531 4.894531 3.683594 5.023438 3.617188 C 5.152344 3.550781 5.261719 3.503906 5.355469 3.484375 C 5.453125 3.464844 5.582031 3.441406 5.75 3.414062 C 6.855469 3.21875 7.992188 3.21875 9.164062 3.40625 C 9.351562 3.433594 9.492188 3.457031 9.59375 3.476562 C 9.691406 3.496094 9.8125 3.542969 9.953125 3.613281 C 10.09375 3.679688 10.199219 3.769531 10.277344 3.875 Z M 10.628906 10.121094 C 10.628906 10.082031 10.644531 10.007812 10.675781 9.898438 C 10.707031 9.789062 10.714844 9.699219 10.703125 9.628906 C 10.6875 9.558594 10.640625 9.515625 10.554688 9.492188 C 9.65625 10.082031 8.636719 10.378906 7.5 10.378906 C 6.363281 10.378906 5.339844 10.082031 4.4375 9.492188 L 4.335938 9.542969 L 4.292969 9.644531 C 4.4375 10.503906 4.554688 11.089844 4.636719 11.402344 C 4.898438 11.851562 5.46875 12.152344 6.34375 12.304688 C 7.734375 12.5625 8.929688 12.414062 9.925781 11.859375 C 10.117188 11.753906 10.253906 11.609375 10.335938 11.429688 C 10.421875 11.25 10.484375 11.011719 10.527344 10.714844 C 10.566406 10.417969 10.601562 10.21875 10.628906 10.121094 Z M 11.71875 4.320312 C 11.769531 4.023438 11.746094 3.8125 11.652344 3.691406 C 11.410156 3.382812 10.980469 3.140625 10.355469 2.953125 C 9.148438 2.601562 7.789062 2.503906 6.277344 2.652344 C 5.542969 2.71875 4.910156 2.847656 4.386719 3.039062 C 4.175781 3.121094 4.007812 3.191406 3.886719 3.246094 C 3.769531 3.304688 3.636719 3.398438 3.496094 3.53125 C 3.351562 3.667969 3.269531 3.816406 3.246094 3.984375 C 3.292969 4.363281 3.34375 4.75 3.40625 5.140625 C 3.46875 5.53125 3.550781 6.007812 3.648438 6.570312 C 3.75 7.132812 3.816406 7.515625 3.851562 7.71875 C 3.855469 7.746094 3.871094 7.832031 3.890625 7.976562 C 3.914062 8.121094 3.933594 8.222656 3.949219 8.277344 C 3.96875 8.335938 4 8.410156 4.050781 8.503906 C 4.101562 8.597656 4.164062 8.675781 4.234375 8.738281 C 4.820312 9.183594 5.613281 9.464844 6.613281 9.574219 C 8.058594 9.730469 9.285156 9.554688 10.296875 9.046875 C 10.429688 8.976562 10.539062 8.910156 10.625 8.855469 C 10.710938 8.800781 10.800781 8.71875 10.886719 8.613281 C 10.972656 8.507812 11.027344 8.394531 11.050781 8.277344 C 11.316406 6.789062 11.539062 5.46875 11.71875 4.320312 Z M 13.929688 3.480469 L 13.929688 11.519531 C 13.929688 12.183594 13.691406 12.75 13.222656 13.222656 C 12.75 13.691406 12.183594 13.929688 11.519531 13.929688 L 3.480469 13.929688 C 2.816406 13.929688 2.25 13.691406 1.777344 13.222656 C 1.308594 12.75 1.070312 12.183594 1.070312 11.519531 L 1.070312 3.480469 C 1.070312 2.816406 1.308594 2.25 1.777344 1.777344 C 2.25 1.308594 2.816406 1.070312 3.480469 1.070312 L 11.519531 1.070312 C 12.183594 1.070312 12.75 1.308594 13.222656 1.777344 C 13.691406 2.25 13.929688 2.816406 13.929688 3.480469 Z M 13.929688 3.480469 "/>
  </g>
</svg>