<svg xmlns="http://www.w3.org/2000/svg" xlink="http://www.w3.org/1999/xlink" width="20px" height="20px" viewBox="0 0 15 15" version="1.1">
  <g id="surface1">
    <path d="M 6.964844 0 L 15 3.214844 L 15 4.285156 L 13.929688 4.285156 C 13.929688 4.429688 13.871094 4.554688 13.757812 4.664062 C 13.640625 4.769531 13.507812 4.820312 13.351562 4.820312 L 0.578125 4.820312 C 0.421875 4.820312 0.285156 4.769531 0.171875 4.664062 C 0.0585938 4.554688 0 4.429688 0 4.285156 L -1.070312 4.285156 L -1.070312 3.214844 Z M 1.070312 5.355469 L 3.214844 5.355469 L 3.214844 11.785156 L 4.285156 11.785156 L 4.285156 5.355469 L 6.429688 5.355469 L 6.429688 11.785156 L 7.5 11.785156 L 7.5 5.355469 L 9.644531 5.355469 L 9.644531 11.785156 L 10.714844 11.785156 L 10.714844 5.355469 L 12.855469 5.355469 L 12.855469 11.785156 L 13.351562 11.785156 C 13.507812 11.785156 13.640625 11.839844 13.757812 11.945312 C 13.871094 12.050781 13.929688 12.175781 13.929688 12.320312 L 13.929688 12.855469 L 0 12.855469 L 0 12.320312 C 0 12.175781 0.0585938 12.050781 0.171875 11.945312 C 0.285156 11.839844 0.421875 11.785156 0.578125 11.785156 L 1.070312 11.785156 Z M 14.421875 13.394531 C 14.578125 13.394531 14.714844 13.445312 14.828125 13.550781 C 14.941406 13.65625 15 13.785156 15 13.929688 L 15 15 L -1.070312 15 L -1.070312 13.929688 C -1.070312 13.785156 -1.015625 13.65625 -0.898438 13.550781 C -0.785156 13.445312 -0.648438 13.394531 -0.492188 13.394531 Z M 14.421875 13.394531 " fill="#FFFFFF"/>
  </g>
</svg>