<?xml version="1.0" encoding="UTF-8" standalone="yes"?>
<svg xmlns="http://www.w3.org/2000/svg" xmlns:xlink="http://www.w3.org/1999/xlink" width="20px" height="20px" viewBox="0 0 15 15" version="1.1">
  <g id="surface1">
    <path style=" stroke:none;fill-rule:nonzero;fill:rgb(0%,0%,0%);fill-opacity:1;" d="M 12.054688 7.476562 C 12.054688 6.578125 11.8125 5.753906 11.324219 5.003906 L 5.015625 11.308594 C 5.777344 11.804688 6.605469 12.054688 7.5 12.054688 C 8.121094 12.054688 8.710938 11.933594 9.269531 11.6875 C 9.832031 11.445312 10.316406 11.121094 10.722656 10.714844 C 11.128906 10.308594 11.453125 9.820312 11.695312 9.253906 C 11.933594 8.6875 12.054688 8.09375 12.054688 7.476562 Z M 3.691406 9.976562 L 10.011719 3.667969 C 9.257812 3.160156 8.421875 2.90625 7.5 2.90625 C 6.675781 2.90625 5.914062 3.109375 5.214844 3.515625 C 4.515625 3.921875 3.964844 4.476562 3.558594 5.179688 C 3.148438 5.882812 2.945312 6.648438 2.945312 7.476562 C 2.945312 8.378906 3.195312 9.214844 3.691406 9.976562 Z M 13.929688 7.476562 C 13.929688 8.351562 13.757812 9.1875 13.417969 9.984375 C 13.078125 10.785156 12.621094 11.46875 12.050781 12.046875 C 11.476562 12.621094 10.792969 13.078125 10 13.417969 C 9.203125 13.757812 8.371094 13.929688 7.5 13.929688 C 6.628906 13.929688 5.796875 13.757812 5 13.417969 C 4.207031 13.078125 3.523438 12.621094 2.949219 12.046875 C 2.378906 11.46875 1.921875 10.785156 1.582031 9.984375 C 1.242188 9.1875 1.070312 8.351562 1.070312 7.476562 C 1.070312 6.597656 1.242188 5.761719 1.582031 4.96875 C 1.921875 4.171875 2.378906 3.488281 2.949219 2.914062 C 3.523438 2.339844 4.207031 1.878906 5 1.539062 C 5.796875 1.199219 6.628906 1.03125 7.5 1.03125 C 8.371094 1.03125 9.203125 1.199219 10 1.539062 C 10.792969 1.878906 11.476562 2.339844 12.050781 2.914062 C 12.621094 3.488281 13.078125 4.171875 13.417969 4.96875 C 13.757812 5.761719 13.929688 6.597656 13.929688 7.476562 Z M 13.929688 7.476562 "/>
  </g>
</svg>