<svg xmlns="http://www.w3.org/2000/svg" xlink="http://www.w3.org/1999/xlink" width="20px" height="20px" viewBox="0 0 15 15" version="1.1">
  <g id="surface1">
    <path d="M 6.253906 12.730469 C 6.664062 12.910156 7.054688 13 7.425781 13 C 9.523438 13 10.570312 12.066406 10.570312 10.195312 C 10.570312 9.558594 10.457031 9.058594 10.230469 8.6875 C 10.078125 8.441406 9.90625 8.238281 9.714844 8.070312 C 9.523438 7.902344 9.332031 7.773438 9.148438 7.679688 C 8.964844 7.585938 8.738281 7.519531 8.476562 7.46875 C 8.210938 7.421875 7.976562 7.394531 7.773438 7.382812 C 7.566406 7.371094 7.304688 7.367188 6.980469 7.367188 C 6.574219 7.367188 6.292969 7.394531 6.136719 7.449219 C 6.136719 7.746094 6.132812 8.1875 6.132812 8.78125 C 6.128906 9.371094 6.128906 9.8125 6.128906 10.101562 C 6.128906 10.148438 6.125 10.335938 6.117188 10.667969 C 6.113281 11 6.113281 11.269531 6.113281 11.476562 C 6.117188 11.683594 6.128906 11.914062 6.152344 12.175781 C 6.175781 12.433594 6.207031 12.621094 6.253906 12.730469 Z M 6.136719 6.488281 C 6.371094 6.527344 6.675781 6.546875 7.046875 6.546875 C 7.503906 6.546875 7.90625 6.507812 8.246094 6.4375 C 8.585938 6.363281 8.890625 6.242188 9.164062 6.0625 C 9.4375 5.890625 9.648438 5.640625 9.789062 5.316406 C 9.929688 4.992188 10.003906 4.59375 10.003906 4.125 C 10.003906 3.734375 9.921875 3.394531 9.761719 3.101562 C 9.597656 2.808594 9.378906 2.578125 9.097656 2.414062 C 8.820312 2.25 8.519531 2.128906 8.195312 2.050781 C 7.871094 1.972656 7.523438 1.933594 7.15625 1.933594 C 6.878906 1.933594 6.515625 1.96875 6.070312 2.042969 C 6.070312 2.320312 6.078125 2.742188 6.101562 3.304688 C 6.125 3.871094 6.136719 4.292969 6.136719 4.578125 C 6.136719 4.730469 6.132812 4.953125 6.132812 5.25 C 6.128906 5.542969 6.128906 5.765625 6.128906 5.910156 C 6.128906 6.167969 6.128906 6.359375 6.136719 6.488281 Z M 1.605469 13.929688 L 1.625 13.140625 C 1.707031 13.121094 1.945312 13.074219 2.335938 13.007812 C 2.726562 12.941406 3.023438 12.867188 3.222656 12.78125 C 3.261719 12.714844 3.296875 12.640625 3.328125 12.554688 C 3.359375 12.472656 3.382812 12.378906 3.398438 12.273438 C 3.414062 12.171875 3.429688 12.082031 3.445312 12.003906 C 3.457031 11.925781 3.464844 11.820312 3.46875 11.6875 C 3.472656 11.558594 3.472656 11.464844 3.472656 11.40625 L 3.472656 10.855469 C 3.472656 5.375 3.414062 2.515625 3.289062 2.277344 C 3.265625 2.230469 3.207031 2.191406 3.105469 2.15625 C 3.003906 2.117188 2.878906 2.089844 2.734375 2.0625 C 2.585938 2.039062 2.445312 2.019531 2.320312 2.003906 C 2.191406 1.992188 2.054688 1.976562 1.914062 1.96875 C 1.769531 1.957031 1.683594 1.949219 1.65625 1.941406 L 1.625 1.246094 C 2.171875 1.234375 3.121094 1.203125 4.46875 1.152344 C 5.820312 1.097656 6.859375 1.070312 7.59375 1.070312 C 7.71875 1.070312 7.910156 1.074219 8.164062 1.074219 C 8.417969 1.078125 8.609375 1.078125 8.730469 1.078125 C 9.121094 1.078125 9.5 1.117188 9.875 1.1875 C 10.242188 1.261719 10.601562 1.378906 10.949219 1.539062 C 11.292969 1.703125 11.597656 1.898438 11.851562 2.132812 C 12.109375 2.367188 12.316406 2.660156 12.472656 3.007812 C 12.628906 3.359375 12.707031 3.742188 12.707031 4.160156 C 12.707031 4.449219 12.660156 4.71875 12.570312 4.960938 C 12.476562 5.203125 12.367188 5.402344 12.242188 5.5625 C 12.117188 5.722656 11.9375 5.882812 11.703125 6.042969 C 11.46875 6.207031 11.265625 6.332031 11.089844 6.421875 C 10.917969 6.507812 10.683594 6.621094 10.386719 6.753906 C 11.246094 6.949219 11.960938 7.324219 12.535156 7.875 C 13.105469 8.429688 13.394531 9.121094 13.394531 9.953125 C 13.394531 10.511719 13.296875 11.011719 13.101562 11.453125 C 12.90625 11.898438 12.644531 12.261719 12.316406 12.546875 C 11.992188 12.832031 11.605469 13.070312 11.164062 13.261719 C 10.71875 13.457031 10.261719 13.589844 9.792969 13.667969 C 9.324219 13.746094 8.832031 13.785156 8.320312 13.785156 C 8.074219 13.785156 7.707031 13.777344 7.214844 13.761719 C 6.722656 13.746094 6.355469 13.734375 6.109375 13.734375 C 5.519531 13.734375 4.664062 13.765625 3.539062 13.828125 C 2.417969 13.890625 1.773438 13.921875 1.605469 13.929688 Z M 1.605469 13.929688 " fill="#FFFFFF"/>
  </g>
</svg>