<?xml version="1.0" encoding="UTF-8" standalone="no"?>
<svg
   xmlns:dc="http://purl.org/dc/elements/1.1/"
   xmlns:cc="http://creativecommons.org/ns#"
   xmlns:rdf="http://www.w3.org/1999/02/22-rdf-syntax-ns#"
   xmlns:svg="http://www.w3.org/2000/svg"
   xmlns="http://www.w3.org/2000/svg"
   xmlns:sodipodi="http://sodipodi.sourceforge.net/DTD/sodipodi-0.dtd"
   xmlns:inkscape="http://www.inkscape.org/namespaces/inkscape"
   version="1.1"
   xlink="http://www.w3.org/1999/xlink"
   x="0px"
   y="0px"
   width="15px"
   height="15px"
   viewBox="0 0 15 15"
   style="enable-background:new 0 0 15 15;"
   space="preserve"
   id="svg4"
   sodipodi:docname="fa-bank.svg"
   inkscape:version="0.92.3 (2405546, 2018-03-11)">
  <metadata
     id="metadata10">
    <rdf:RDF>
      <cc:Work
         rdf:about="">
        <dc:format>image/svg+xml</dc:format>
        <dc:type
           rdf:resource="http://purl.org/dc/dcmitype/StillImage" />
        <dc:title></dc:title>
      </cc:Work>
    </rdf:RDF>
  </metadata>
  <defs
     id="defs8" />
  <sodipodi:namedview
     pagecolor="#ffffff"
     bordercolor="#666666"
     borderopacity="1"
     objecttolerance="10"
     gridtolerance="10"
     guidetolerance="10"
     inkscape:pageopacity="0"
     inkscape:pageshadow="2"
     inkscape:window-width="640"
     inkscape:window-height="480"
     id="namedview6"
     showgrid="false"
     inkscape:zoom="15.733333"
     inkscape:cx="7.5"
     inkscape:cy="7.5"
     inkscape:window-x="67"
     inkscape:window-y="27"
     inkscape:window-maximized="0"
     inkscape:current-layer="svg4" />
  <path
     d="M 7.5050982,0.19067797 14.936441,3.1639379 v 0.9898818 h -0.989882 c 0,0.133671 -0.05419,0.2492776 -0.15896,0.3504326 -0.108381,0.097543 -0.231214,0.1445083 -0.375722,0.1445083 H 1.5983186 c -0.1445084,0 -0.2709534,-0.046965 -0.3757218,-0.1445083 C 1.1178283,4.4030973 1.0636376,4.2874907 1.0636376,4.1538197 H 0.0737558 V 3.1639379 Z M 2.0535195,5.1437024 h 1.983378 V 11.090221 H 5.0267793 V 5.1437024 h 1.983378 V 11.090221 H 8.0000391 V 5.1437024 H 9.9834158 V 11.090221 H 10.973299 V 5.1437024 h 1.979765 v 5.9465186 h 0.458813 c 0.144508,0 0.267341,0.05058 0.375722,0.148121 0.10477,0.09754 0.15896,0.21315 0.15896,0.34682 v 0.494942 H 1.0636376 v -0.494942 c 0,-0.13367 0.054191,-0.249277 0.1589592,-0.34682 0.1047684,-0.09754 0.2312134,-0.148121 0.3757218,-0.148121 H 2.0535195 Z M 14.40176,12.578658 c 0.144508,0 0.270953,0.04696 0.375722,0.144508 0.104768,0.09754 0.158959,0.216762 0.158959,0.350433 v 0.989882 H 0.0737558 v -0.989882 c 0,-0.133671 0.05057726,-0.25289 0.15895828,-0.350433 0.10476926,-0.09754 0.23121339,-0.144508 0.37572175,-0.144508 z m 0,0"
     id="path2"
     inkscape:connector-curvature="0"
     style="fill:#ffffff;stroke-width:0.92485356" />
</svg>
