<svg xmlns="http://www.w3.org/2000/svg" xlink="http://www.w3.org/1999/xlink" width="20px" height="20px" viewBox="0 0 15 15" version="1.1">
  <g id="surface1">
    <path d="M 11.519531 1.070312 C 12.183594 1.070312 12.75 1.308594 13.222656 1.777344 C 13.691406 2.25 13.929688 2.816406 13.929688 3.480469 L 13.929688 11.519531 C 13.929688 12.183594 13.691406 12.75 13.222656 13.222656 C 12.75 13.691406 12.183594 13.929688 11.519531 13.929688 L 3.480469 13.929688 C 2.816406 13.929688 2.25 13.691406 1.777344 13.222656 C 1.308594 12.75 1.070312 12.183594 1.070312 11.519531 L 1.070312 3.480469 C 1.070312 2.816406 1.308594 2.25 1.777344 1.777344 C 2.25 1.308594 2.816406 1.070312 3.480469 1.070312 Z M 5.25 4.144531 L 2.144531 4.144531 L 2.144531 10.730469 L 5.339844 10.730469 C 5.992188 10.730469 6.542969 10.570312 6.988281 10.25 C 7.4375 9.929688 7.660156 9.453125 7.660156 8.824219 C 7.660156 7.941406 7.261719 7.382812 6.460938 7.148438 C 7.058594 6.859375 7.359375 6.402344 7.359375 5.777344 C 7.359375 5.457031 7.304688 5.1875 7.195312 4.96875 C 7.085938 4.746094 6.929688 4.578125 6.722656 4.460938 C 6.515625 4.34375 6.292969 4.261719 6.058594 4.214844 C 5.824219 4.167969 5.554688 4.144531 5.25 4.144531 Z M 5.0625 6.804688 L 3.589844 6.804688 L 3.589844 5.265625 L 4.957031 5.265625 C 5.621094 5.265625 5.953125 5.515625 5.953125 6.019531 C 5.953125 6.542969 5.65625 6.804688 5.0625 6.804688 Z M 5.140625 9.609375 L 3.589844 9.609375 L 3.589844 7.792969 L 5.171875 7.792969 C 5.863281 7.792969 6.210938 8.109375 6.210938 8.738281 C 6.210938 9.320312 5.855469 9.609375 5.140625 9.609375 Z M 10.582031 9.878906 C 10.199219 9.878906 9.910156 9.769531 9.710938 9.558594 C 9.507812 9.347656 9.410156 9.046875 9.410156 8.664062 L 12.847656 8.664062 C 12.855469 8.609375 12.855469 8.523438 12.855469 8.414062 C 12.855469 7.675781 12.648438 7.0625 12.234375 6.566406 C 11.816406 6.074219 11.25 5.824219 10.53125 5.824219 C 9.816406 5.824219 9.230469 6.066406 8.773438 6.546875 C 8.316406 7.027344 8.085938 7.628906 8.085938 8.355469 C 8.085938 9.105469 8.304688 9.710938 8.746094 10.171875 C 9.1875 10.628906 9.78125 10.855469 10.53125 10.855469 C 11.675781 10.855469 12.417969 10.324219 12.765625 9.257812 L 11.609375 9.257812 C 11.546875 9.449219 11.414062 9.597656 11.210938 9.710938 C 11.007812 9.820312 10.796875 9.878906 10.582031 9.878906 Z M 10.496094 6.8125 C 11.128906 6.8125 11.472656 7.152344 11.535156 7.835938 L 9.410156 7.835938 C 9.429688 7.523438 9.539062 7.273438 9.734375 7.089844 C 9.929688 6.90625 10.183594 6.8125 10.496094 6.8125 Z M 9.140625 4.585938 L 11.8125 4.585938 L 11.8125 5.230469 L 9.140625 5.230469 Z M 9.140625 4.585938 " fill="#FFFFFF"/>
  </g>
</svg>