<?xml version="1.0" encoding="UTF-8" standalone="yes"?>
<svg xmlns="http://www.w3.org/2000/svg" xmlns:xlink="http://www.w3.org/1999/xlink" width="20px" height="20px" viewBox="0 0 15 15" version="1.1">
  <g id="surface1">
    <path style=" stroke:none;fill-rule:nonzero;fill:rgb(0%,0%,0%);fill-opacity:1;" d="M 5.894531 7.5 L 5.894531 4.285156 L 3.75 4.285156 L 3.75 6.429688 C 3.75 6.722656 3.855469 6.976562 4.0625 7.1875 C 4.273438 7.394531 4.527344 7.5 4.820312 7.5 Z M 14.464844 11.25 L 14.464844 12.855469 L 4.820312 12.855469 L 4.820312 11.25 L 5.894531 9.644531 L 4.820312 9.644531 C 3.933594 9.644531 3.175781 9.328125 2.546875 8.703125 C 1.921875 8.074219 1.605469 7.316406 1.605469 6.429688 L 1.605469 3.75 L 1.070312 3.214844 L 1.339844 2.144531 L 5.355469 2.144531 L 5.625 1.070312 L 13.660156 1.070312 L 13.929688 2.679688 L 13.394531 2.945312 L 13.394531 9.644531 Z M 14.464844 11.25 "/>
  </g>
</svg>