<?xml version="1.0" encoding="UTF-8" standalone="no"?>
<svg
   xmlns:dc="http://purl.org/dc/elements/1.1/"
   xmlns:cc="http://creativecommons.org/ns#"
   xmlns:rdf="http://www.w3.org/1999/02/22-rdf-syntax-ns#"
   xmlns:svg="http://www.w3.org/2000/svg"
   xmlns="http://www.w3.org/2000/svg"
   xmlns:sodipodi="http://sodipodi.sourceforge.net/DTD/sodipodi-0.dtd"
   xmlns:inkscape="http://www.inkscape.org/namespaces/inkscape"
   version="1.1"
   xlink="http://www.w3.org/1999/xlink"
   x="0px"
   y="0px"
   width="15px"
   height="15px"
   viewBox="0 0 15 15"
   style="enable-background:new 0 0 15 15;"
   space="preserve"
   id="svg4"
   sodipodi:docname="fa-bed.svg"
   inkscape:version="0.92.3 (2405546, 2018-03-11)">
  <metadata
     id="metadata10">
    <rdf:RDF>
      <cc:Work
         rdf:about="">
        <dc:format>image/svg+xml</dc:format>
        <dc:type
           rdf:resource="http://purl.org/dc/dcmitype/StillImage" />
        <dc:title></dc:title>
      </cc:Work>
    </rdf:RDF>
  </metadata>
  <defs
     id="defs8" />
  <sodipodi:namedview
     pagecolor="#ffffff"
     bordercolor="#666666"
     borderopacity="1"
     objecttolerance="10"
     gridtolerance="10"
     guidetolerance="10"
     inkscape:pageopacity="0"
     inkscape:pageshadow="2"
     inkscape:window-width="640"
     inkscape:window-height="480"
     id="namedview6"
     showgrid="false"
     inkscape:zoom="15.733333"
     inkscape:cx="7.5"
     inkscape:cy="7.5"
     inkscape:window-x="67"
     inkscape:window-y="27"
     inkscape:window-maximized="0"
     inkscape:current-layer="svg4" />
  <path
     d="M 2.1336198,8.3909791 H 14.334784 c 0.121914,0 0.227352,0.04613 0.31961,0.1350933 0.08896,0.088964 0.131798,0.1944017 0.131798,0.3163142 V 12.005529 H 12.980565 V 10.199902 H 2.1336198 v 1.805627 H 0.32799309 V 3.4222097 c 0,-0.1219135 0.042834,-0.2306463 0.13179762,-0.3196099 C 0.55204821,3.0136362 0.6574863,2.9708022 0.77939973,2.9708022 H 1.6822131 c 0.1219134,0 0.2273515,0.042834 0.319609,0.1317976 0.088964,0.088964 0.1317977,0.1976964 0.1317977,0.3196099 z M 6.2028715,6.1339451 C 6.2028715,5.6331142 6.0249452,5.208067 5.6723863,4.8555082 5.3198274,4.5029501 4.8914856,4.325023 4.3939494,4.325023 c -0.4975363,0 -0.9258781,0.1779271 -1.2784369,0.5304852 -0.3525589,0.3525588 -0.5304853,0.777606 -0.5304853,1.2784369 0,0.4975362 0.1779264,0.9225834 0.5304853,1.2751422 0.3525588,0.3558536 0.7809006,0.5304852 1.2784369,0.5304852 0.4975362,0 0.925878,-0.1746316 1.2784369,-0.5304852 C 6.0249452,7.0565285 6.2028715,6.6314813 6.2028715,6.1339451 Z M 14.786192,7.9395725 V 7.4881658 c 0,-0.7479517 -0.263596,-1.3871697 -0.794081,-1.9176557 C 13.461625,5.0433195 12.825702,4.7764296 12.074455,4.7764296 H 7.1056856 c -0.1219134,0 -0.2273515,0.04613 -0.319609,0.1350924 C 6.6971129,5.0004857 6.654279,5.1059237 6.654279,5.2278362 v 2.7117363 z m 0,0"
     id="path2"
     inkscape:connector-curvature="0"
     style="fill:#ffffff" />
</svg>
