<svg xmlns="http://www.w3.org/2000/svg" xlink="http://www.w3.org/1999/xlink" width="20px" height="20px" viewBox="0 0 15 15" version="1.1">
  <g id="surface1">
    <path d="M 14.085938 1.179688 C 14.195312 1.074219 14.28125 1.039062 14.355469 1.070312 C 14.429688 1.105469 14.464844 1.195312 14.464844 1.339844 L 14.464844 13.660156 C 14.464844 13.804688 14.429688 13.894531 14.355469 13.929688 C 14.28125 13.960938 14.195312 13.925781 14.085938 13.820312 L 8.144531 7.875 C 8.101562 7.828125 8.0625 7.773438 8.035156 7.71875 L 8.035156 13.660156 C 8.035156 13.804688 8 13.894531 7.925781 13.929688 C 7.855469 13.960938 7.765625 13.925781 7.660156 13.820312 L 1.714844 7.875 C 1.609375 7.769531 1.558594 7.644531 1.558594 7.5 C 1.558594 7.355469 1.609375 7.230469 1.714844 7.125 L 7.660156 1.179688 C 7.765625 1.074219 7.855469 1.039062 7.925781 1.070312 C 8 1.105469 8.035156 1.195312 8.035156 1.339844 L 8.035156 7.28125 C 8.0625 7.222656 8.101562 7.167969 8.144531 7.125 Z M 14.085938 1.179688 " fill="#FFFFFF"/>
  </g>
</svg>