<svg version="1.1" xmlns="http://www.w3.org/2000/svg" xlink="http://www.w3.org/1999/xlink" x="0px" y="0px" width="15px" height="15px" viewBox="0 0 15 15" style="enable-background:new 0 0 15 15;" space="preserve">
    <path d="M4.820312,10.980469L4.820312,11.519531C4.820312,11.589844,4.792969,11.652344,4.742188,11.707031C4.6875,11.757812,4.625,11.785156,4.554688,11.785156L4.019531,11.785156C3.945312,11.785156,3.882812,11.757812,3.828125,11.707031C3.777344,11.652344,3.75,11.589844,3.75,11.519531L3.75,10.980469C3.75,10.910156,3.777344,10.847656,3.828125,10.792969C3.882812,10.742188,3.945312,10.714844,4.019531,10.714844L4.554688,10.714844C4.625,10.714844,4.6875,10.742188,4.742188,10.792969C4.792969,10.847656,4.820312,10.910156,4.820312,10.980469ZM4.820312,8.839844L4.820312,9.375C4.820312,9.449219,4.792969,9.511719,4.742188,9.5625C4.6875,9.617188,4.625,9.644531,4.554688,9.644531L4.019531,9.644531C3.945312,9.644531,3.882812,9.617188,3.828125,9.5625C3.777344,9.511719,3.75,9.449219,3.75,9.375L3.75,8.839844C3.75,8.765625,3.777344,8.703125,3.828125,8.652344C3.882812,8.597656,3.945312,8.570312,4.019531,8.570312L4.554688,8.570312C4.625,8.570312,4.6875,8.597656,4.742188,8.652344C4.792969,8.703125,4.820312,8.765625,4.820312,8.839844ZM6.964844,8.839844L6.964844,9.375C6.964844,9.449219,6.9375,9.511719,6.882812,9.5625C6.832031,9.617188,6.769531,9.644531,6.695312,9.644531L6.160156,9.644531C6.089844,9.644531,6.023438,9.617188,5.972656,9.5625C5.917969,9.511719,5.894531,9.449219,5.894531,9.375L5.894531,8.839844C5.894531,8.765625,5.917969,8.703125,5.972656,8.652344C6.023438,8.597656,6.089844,8.570312,6.160156,8.570312L6.695312,8.570312C6.769531,8.570312,6.832031,8.597656,6.882812,8.652344C6.9375,8.703125,6.964844,8.765625,6.964844,8.839844ZM4.820312,6.695312L4.820312,7.230469C4.820312,7.304688,4.792969,7.367188,4.742188,7.421875C4.6875,7.472656,4.625,7.5,4.554688,7.5L4.019531,7.5C3.945312,7.5,3.882812,7.472656,3.828125,7.421875C3.777344,7.367188,3.75,7.304688,3.75,7.230469L3.75,6.695312C3.75,6.625,3.777344,6.5625,3.828125,6.507812C3.882812,6.453125,3.945312,6.429688,4.019531,6.429688L4.554688,6.429688C4.625,6.429688,4.6875,6.453125,4.742188,6.507812C4.792969,6.5625,4.820312,6.625,4.820312,6.695312ZM11.25,10.980469L11.25,11.519531C11.25,11.589844,11.222656,11.652344,11.171875,11.707031C11.117188,11.757812,11.054688,11.785156,10.980469,11.785156L10.445312,11.785156C10.375,11.785156,10.3125,11.757812,10.257812,11.707031C10.203125,11.652344,10.179688,11.589844,10.179688,11.519531L10.179688,10.980469C10.179688,10.910156,10.203125,10.847656,10.257812,10.792969C10.3125,10.742188,10.375,10.714844,10.445312,10.714844L10.980469,10.714844C11.054688,10.714844,11.117188,10.742188,11.171875,10.792969C11.222656,10.847656,11.25,10.910156,11.25,10.980469ZM9.105469,8.839844L9.105469,9.375C9.105469,9.449219,9.082031,9.511719,9.027344,9.5625C8.972656,9.617188,8.910156,9.644531,8.839844,9.644531L8.304688,9.644531C8.230469,9.644531,8.167969,9.617188,8.117188,9.5625C8.0625,9.511719,8.035156,9.449219,8.035156,9.375L8.035156,8.839844C8.035156,8.765625,8.0625,8.703125,8.117188,8.652344C8.167969,8.597656,8.230469,8.570312,8.304688,8.570312L8.839844,8.570312C8.910156,8.570312,8.972656,8.597656,9.027344,8.652344C9.082031,8.703125,9.105469,8.765625,9.105469,8.839844ZM6.964844,6.695312L6.964844,7.230469C6.964844,7.304688,6.9375,7.367188,6.882812,7.421875C6.832031,7.472656,6.769531,7.5,6.695312,7.5L6.160156,7.5C6.089844,7.5,6.023438,7.472656,5.972656,7.421875C5.917969,7.367188,5.894531,7.304688,5.894531,7.230469L5.894531,6.695312C5.894531,6.625,5.917969,6.5625,5.972656,6.507812C6.023438,6.453125,6.089844,6.429688,6.160156,6.429688L6.695312,6.429688C6.769531,6.429688,6.832031,6.453125,6.882812,6.507812C6.9375,6.5625,6.964844,6.625,6.964844,6.695312ZM4.820312,4.554688L4.820312,5.089844C4.820312,5.160156,4.792969,5.222656,4.742188,5.277344C4.6875,5.332031,4.625,5.355469,4.554688,5.355469L4.019531,5.355469C3.945312,5.355469,3.882812,5.332031,3.828125,5.277344C3.777344,5.222656,3.75,5.160156,3.75,5.089844L3.75,4.554688C3.75,4.480469,3.777344,4.417969,3.828125,4.367188C3.882812,4.3125,3.945312,4.285156,4.019531,4.285156L4.554688,4.285156C4.625,4.285156,4.6875,4.3125,4.742188,4.367188C4.792969,4.417969,4.820312,4.480469,4.820312,4.554688ZM11.25,8.839844L11.25,9.375C11.25,9.449219,11.222656,9.511719,11.171875,9.5625C11.117188,9.617188,11.054688,9.644531,10.980469,9.644531L10.445312,9.644531C10.375,9.644531,10.3125,9.617188,10.257812,9.5625C10.203125,9.511719,10.179688,9.449219,10.179688,9.375L10.179688,8.839844C10.179688,8.765625,10.203125,8.703125,10.257812,8.652344C10.3125,8.597656,10.375,8.570312,10.445312,8.570312L10.980469,8.570312C11.054688,8.570312,11.117188,8.597656,11.171875,8.652344C11.222656,8.703125,11.25,8.765625,11.25,8.839844ZM9.105469,6.695312L9.105469,7.230469C9.105469,7.304688,9.082031,7.367188,9.027344,7.421875C8.972656,7.472656,8.910156,7.5,8.839844,7.5L8.304688,7.5C8.230469,7.5,8.167969,7.472656,8.117188,7.421875C8.0625,7.367188,8.035156,7.304688,8.035156,7.230469L8.035156,6.695312C8.035156,6.625,8.0625,6.5625,8.117188,6.507812C8.167969,6.453125,8.230469,6.429688,8.304688,6.429688L8.839844,6.429688C8.910156,6.429688,8.972656,6.453125,9.027344,6.507812C9.082031,6.5625,9.105469,6.625,9.105469,6.695312ZM6.964844,4.554688L6.964844,5.089844C6.964844,5.160156,6.9375,5.222656,6.882812,5.277344C6.832031,5.332031,6.769531,5.355469,6.695312,5.355469L6.160156,5.355469C6.089844,5.355469,6.023438,5.332031,5.972656,5.277344C5.917969,5.222656,5.894531,5.160156,5.894531,5.089844L5.894531,4.554688C5.894531,4.480469,5.917969,4.417969,5.972656,4.367188C6.023438,4.3125,6.089844,4.285156,6.160156,4.285156L6.695312,4.285156C6.769531,4.285156,6.832031,4.3125,6.882812,4.367188C6.9375,4.417969,6.964844,4.480469,6.964844,4.554688ZM4.820312,2.410156L4.820312,2.945312C4.820312,3.019531,4.792969,3.082031,4.742188,3.132812C4.6875,3.1875,4.625,3.214844,4.554688,3.214844L4.019531,3.214844C3.945312,3.214844,3.882812,3.1875,3.828125,3.132812C3.777344,3.082031,3.75,3.019531,3.75,2.945312L3.75,2.410156C3.75,2.339844,3.777344,2.273438,3.828125,2.222656C3.882812,2.167969,3.945312,2.144531,4.019531,2.144531L4.554688,2.144531C4.625,2.144531,4.6875,2.167969,4.742188,2.222656C4.792969,2.273438,4.820312,2.339844,4.820312,2.410156ZM11.25,6.695312L11.25,7.230469C11.25,7.304688,11.222656,7.367188,11.171875,7.421875C11.117188,7.472656,11.054688,7.5,10.980469,7.5L10.445312,7.5C10.375,7.5,10.3125,7.472656,10.257812,7.421875C10.203125,7.367188,10.179688,7.304688,10.179688,7.230469L10.179688,6.695312C10.179688,6.625,10.203125,6.5625,10.257812,6.507812C10.3125,6.453125,10.375,6.429688,10.445312,6.429688L10.980469,6.429688C11.054688,6.429688,11.117188,6.453125,11.171875,6.507812C11.222656,6.5625,11.25,6.625,11.25,6.695312ZM9.105469,4.554688L9.105469,5.089844C9.105469,5.160156,9.082031,5.222656,9.027344,5.277344C8.972656,5.332031,8.910156,5.355469,8.839844,5.355469L8.304688,5.355469C8.230469,5.355469,8.167969,5.332031,8.117188,5.277344C8.0625,5.222656,8.035156,5.160156,8.035156,5.089844L8.035156,4.554688C8.035156,4.480469,8.0625,4.417969,8.117188,4.367188C8.167969,4.3125,8.230469,4.285156,8.304688,4.285156L8.839844,4.285156C8.910156,4.285156,8.972656,4.3125,9.027344,4.367188C9.082031,4.417969,9.105469,4.480469,9.105469,4.554688ZM6.964844,2.410156L6.964844,2.945312C6.964844,3.019531,6.9375,3.082031,6.882812,3.132812C6.832031,3.1875,6.769531,3.214844,6.695312,3.214844L6.160156,3.214844C6.089844,3.214844,6.023438,3.1875,5.972656,3.132812C5.917969,3.082031,5.894531,3.019531,5.894531,2.945312L5.894531,2.410156C5.894531,2.339844,5.917969,2.273438,5.972656,2.222656C6.023438,2.167969,6.089844,2.144531,6.160156,2.144531L6.695312,2.144531C6.769531,2.144531,6.832031,2.167969,6.882812,2.222656C6.9375,2.273438,6.964844,2.339844,6.964844,2.410156ZM11.25,4.554688L11.25,5.089844C11.25,5.160156,11.222656,5.222656,11.171875,5.277344C11.117188,5.332031,11.054688,5.355469,10.980469,5.355469L10.445312,5.355469C10.375,5.355469,10.3125,5.332031,10.257812,5.277344C10.203125,5.222656,10.179688,5.160156,10.179688,5.089844L10.179688,4.554688C10.179688,4.480469,10.203125,4.417969,10.257812,4.367188C10.3125,4.3125,10.375,4.285156,10.445312,4.285156L10.980469,4.285156C11.054688,4.285156,11.117188,4.3125,11.171875,4.367188C11.222656,4.417969,11.25,4.480469,11.25,4.554688ZM9.105469,2.410156L9.105469,2.945312C9.105469,3.019531,9.082031,3.082031,9.027344,3.132812C8.972656,3.1875,8.910156,3.214844,8.839844,3.214844L8.304688,3.214844C8.230469,3.214844,8.167969,3.1875,8.117188,3.132812C8.0625,3.082031,8.035156,3.019531,8.035156,2.945312L8.035156,2.410156C8.035156,2.339844,8.0625,2.273438,8.117188,2.222656C8.167969,2.167969,8.230469,2.144531,8.304688,2.144531L8.839844,2.144531C8.910156,2.144531,8.972656,2.167969,9.027344,2.222656C9.082031,2.273438,9.105469,2.339844,9.105469,2.410156ZM11.25,2.410156L11.25,2.945312C11.25,3.019531,11.222656,3.082031,11.171875,3.132812C11.117188,3.1875,11.054688,3.214844,10.980469,3.214844L10.445312,3.214844C10.375,3.214844,10.3125,3.1875,10.257812,3.132812C10.203125,3.082031,10.179688,3.019531,10.179688,2.945312L10.179688,2.410156C10.179688,2.339844,10.203125,2.273438,10.257812,2.222656C10.3125,2.167969,10.375,2.144531,10.445312,2.144531L10.980469,2.144531C11.054688,2.144531,11.117188,2.167969,11.171875,2.222656C11.222656,2.273438,11.25,2.339844,11.25,2.410156ZM9.105469,13.929688L12.320312,13.929688L12.320312,1.070312L2.679688,1.070312L2.679688,13.929688L5.894531,13.929688L5.894531,12.054688C5.894531,11.980469,5.917969,11.917969,5.972656,11.867188C6.023438,11.8125,6.089844,11.785156,6.160156,11.785156L8.839844,11.785156C8.910156,11.785156,8.972656,11.8125,9.027344,11.867188C9.082031,11.917969,9.105469,11.980469,9.105469,12.054688ZM13.394531,0.535156L13.394531,14.464844C13.394531,14.609375,13.339844,14.734375,13.234375,14.839844C13.128906,14.945312,13.003906,15,12.855469,15L2.144531,15C1.996094,15,1.871094,14.945312,1.765625,14.839844C1.660156,14.734375,1.605469,14.609375,1.605469,14.464844L1.605469,0.535156C1.605469,0.390625,1.660156,0.265625,1.765625,0.160156C1.871094,0.0546875,1.996094,0,2.144531,0L12.855469,0C13.003906,0,13.128906,0.0546875,13.234375,0.160156C13.339844,0.265625,13.394531,0.390625,13.394531,0.535156ZM13.394531,0.535156" fill="#FFFFFF"/>
    </svg>