<?xml version="1.0" encoding="UTF-8" standalone="yes"?>
<svg xmlns="http://www.w3.org/2000/svg" xmlns:xlink="http://www.w3.org/1999/xlink" width="20px" height="20px" viewBox="0 0 15 15" version="1.1">
  <g id="surface1">
    <path style=" stroke:none;fill-rule:nonzero;fill:rgb(0%,0%,0%);fill-opacity:1;" d="M 0 10.714844 L 0 4.285156 L 4.285156 4.285156 L 4.285156 10.714844 Z M 16.070312 4.820312 C 16.367188 4.820312 16.621094 4.925781 16.828125 5.136719 C 17.039062 5.34375 17.144531 5.597656 17.144531 5.894531 L 17.144531 9.105469 C 17.144531 9.402344 17.039062 9.65625 16.828125 9.863281 C 16.621094 10.074219 16.367188 10.179688 16.070312 10.179688 L 16.070312 11.519531 C 16.070312 11.886719 15.941406 12.203125 15.679688 12.464844 C 15.414062 12.726562 15.101562 12.855469 14.730469 12.855469 L -0.804688 12.855469 C -1.171875 12.855469 -1.488281 12.726562 -1.75 12.464844 C -2.011719 12.203125 -2.144531 11.886719 -2.144531 11.519531 L -2.144531 3.480469 C -2.144531 3.113281 -2.011719 2.796875 -1.75 2.535156 C -1.488281 2.273438 -1.171875 2.144531 -0.804688 2.144531 L 14.730469 2.144531 C 15.101562 2.144531 15.414062 2.273438 15.679688 2.535156 C 15.941406 2.796875 16.070312 3.113281 16.070312 3.480469 Z M 16.070312 9.105469 L 16.070312 5.894531 L 15 5.894531 L 15 3.480469 C 15 3.402344 14.976562 3.339844 14.925781 3.289062 C 14.875 3.238281 14.808594 3.214844 14.730469 3.214844 L -0.804688 3.214844 C -0.882812 3.214844 -0.945312 3.238281 -0.996094 3.289062 C -1.046875 3.339844 -1.070312 3.402344 -1.070312 3.480469 L -1.070312 11.519531 C -1.070312 11.597656 -1.046875 11.660156 -0.996094 11.710938 C -0.945312 11.761719 -0.882812 11.785156 -0.804688 11.785156 L 14.730469 11.785156 C 14.808594 11.785156 14.875 11.761719 14.925781 11.710938 C 14.976562 11.660156 15 11.597656 15 11.519531 L 15 9.105469 Z M 16.070312 9.105469 "/>
  </g>
</svg>