<svg version="1.1" xmlns="http://www.w3.org/2000/svg" xlink="http://www.w3.org/1999/xlink" x="0px" y="0px" width="15px" height="17.142857142857142px" viewBox="0 0 15 17.142857142857142" style="enable-background:new 0 0 15 15;" space="preserve">
    <path d="M7.5,17.142857142857142c1.1825892857142857,0,2.1418526785714285,-0.9592633928571428,2.1418526785714285,-2.142857142857143H5.3581473214285715c0,1.18359375,0.9592633928571428,2.142857142857143,2.1418526785714285,2.142857142857143zm7.211718749999999,-5.0126116071428575c-0.646875,-0.6950892857142857,-1.8572544642857143,-1.7407366071428572,-1.8572544642857143,-5.165959821428571c0,-2.6015625,-1.8241071428571427,-4.684151785714286,-4.283705357142857,-5.195089285714285V1.0714285714285714c0,-0.5916294642857143,-0.47946428571428573,-1.0714285714285714,-1.0707589285714285,-1.0714285714285714s-1.0707589285714285,0.4797991071428571,-1.0707589285714285,1.0714285714285714v0.6977678571428572C3.969642857142857,2.2801339285714284,2.1455357142857143,4.362723214285714,2.1455357142857143,6.964285714285714c0,3.425223214285714,-1.2103794642857142,4.470870535714286,-1.8572544642857143,5.165959821428571c-0.20089285714285715,0.21595982142857142,-0.28995535714285714,0.47410714285714284,-0.28828125,0.7268973214285714c0.003683035714285714,0.5491071428571428,0.43459821428571427,1.0714285714285714,1.0747767857142858,1.0714285714285714h12.850446428571429c0.6401785714285715,0,1.0714285714285714,-0.5223214285714285,1.0747767857142858,-1.0714285714285714c0.001674107142857143,-0.25279017857142855,-0.08738839285714285,-0.5112723214285714,-0.28828125,-0.7268973214285714z" fill="#FFFFFF"/>
    </svg>