<svg xmlns="http://www.w3.org/2000/svg" xlink="http://www.w3.org/1999/xlink" width="20px" height="20px" viewBox="0 0 15 15" version="1.1">
  <g id="surface1">
    <path d="M 14.195312 8.035156 C 14.195312 8.179688 14.144531 8.304688 14.039062 8.414062 C 13.929688 8.519531 13.804688 8.570312 13.660156 8.570312 L 11.785156 8.570312 C 11.785156 9.527344 11.597656 10.335938 11.226562 11 L 12.964844 12.75 C 13.070312 12.855469 13.125 12.980469 13.125 13.125 C 13.125 13.269531 13.070312 13.394531 12.964844 13.5 C 12.867188 13.609375 12.738281 13.660156 12.589844 13.660156 C 12.4375 13.660156 12.3125 13.609375 12.210938 13.5 L 10.554688 11.851562 C 10.527344 11.878906 10.484375 11.917969 10.429688 11.960938 C 10.375 12.007812 10.257812 12.085938 10.078125 12.199219 C 9.898438 12.3125 9.71875 12.417969 9.535156 12.503906 C 9.351562 12.59375 9.121094 12.675781 8.847656 12.75 C 8.574219 12.820312 8.304688 12.855469 8.035156 12.855469 L 8.035156 5.355469 L 6.964844 5.355469 L 6.964844 12.855469 C 6.679688 12.855469 6.394531 12.820312 6.113281 12.742188 C 5.832031 12.667969 5.589844 12.578125 5.386719 12.46875 C 5.183594 12.359375 5 12.25 4.835938 12.140625 C 4.667969 12.03125 4.546875 11.941406 4.46875 11.871094 L 4.34375 11.753906 L 2.8125 13.484375 C 2.699219 13.601562 2.566406 13.660156 2.410156 13.660156 C 2.277344 13.660156 2.15625 13.617188 2.050781 13.527344 C 1.945312 13.425781 1.886719 13.300781 1.878906 13.15625 C 1.871094 13.007812 1.914062 12.875 2.007812 12.765625 L 3.699219 10.863281 C 3.375 10.230469 3.214844 9.464844 3.214844 8.570312 L 1.339844 8.570312 C 1.195312 8.570312 1.070312 8.519531 0.960938 8.414062 C 0.855469 8.304688 0.804688 8.179688 0.804688 8.035156 C 0.804688 7.890625 0.855469 7.765625 0.960938 7.660156 C 1.070312 7.554688 1.195312 7.5 1.339844 7.5 L 3.214844 7.5 L 3.214844 5.039062 L 1.765625 3.589844 C 1.660156 3.484375 1.605469 3.359375 1.605469 3.214844 C 1.605469 3.070312 1.660156 2.945312 1.765625 2.835938 C 1.871094 2.730469 1.996094 2.679688 2.144531 2.679688 C 2.289062 2.679688 2.414062 2.730469 2.519531 2.835938 L 3.96875 4.285156 L 11.03125 4.285156 L 12.480469 2.835938 C 12.585938 2.730469 12.710938 2.679688 12.855469 2.679688 C 13.003906 2.679688 13.128906 2.730469 13.234375 2.835938 C 13.339844 2.945312 13.394531 3.070312 13.394531 3.214844 C 13.394531 3.359375 13.339844 3.484375 13.234375 3.589844 L 11.785156 5.039062 L 11.785156 7.5 L 13.660156 7.5 C 13.804688 7.5 13.929688 7.554688 14.039062 7.660156 C 14.144531 7.765625 14.195312 7.890625 14.195312 8.035156 Z M 10.179688 3.214844 L 4.820312 3.214844 C 4.820312 2.472656 5.082031 1.839844 5.605469 1.320312 C 6.125 0.796875 6.757812 0.535156 7.5 0.535156 C 8.242188 0.535156 8.875 0.796875 9.394531 1.320312 C 9.917969 1.839844 10.179688 2.472656 10.179688 3.214844 Z M 10.179688 3.214844 " fill="#FFFFFF"/>
  </g>
</svg>