<?xml version="1.0" encoding="UTF-8" standalone="yes"?>
<svg xmlns="http://www.w3.org/2000/svg" xmlns:xlink="http://www.w3.org/1999/xlink" width="20px" height="20px" viewBox="0 0 15 15" version="1.1">
  <g id="surface1">
    <path style=" stroke:none;fill-rule:nonzero;fill:rgb(0%,0%,0%);fill-opacity:1;" d="M 0.527344 12.855469 L 0 12.855469 L 0 1.070312 L 0.527344 1.070312 Z M 1.054688 12.847656 L 0.785156 12.847656 L 0.785156 1.070312 L 1.054688 1.070312 Z M 1.839844 12.847656 L 1.582031 12.847656 L 1.582031 1.070312 L 1.839844 1.070312 Z M 3.15625 12.847656 L 2.894531 12.847656 L 2.894531 1.070312 L 3.15625 1.070312 Z M 4.46875 12.847656 L 3.949219 12.847656 L 3.949219 1.070312 L 4.46875 1.070312 Z M 5.523438 12.847656 L 5.265625 12.847656 L 5.265625 1.070312 L 5.523438 1.070312 Z M 6.050781 12.847656 L 5.792969 12.847656 L 5.792969 1.070312 L 6.050781 1.070312 Z M 6.578125 12.847656 L 6.320312 12.847656 L 6.320312 1.070312 L 6.578125 1.070312 Z M 7.894531 12.847656 L 7.367188 12.847656 L 7.367188 1.070312 L 7.894531 1.070312 Z M 9.207031 12.847656 L 8.679688 12.847656 L 8.679688 1.070312 L 9.207031 1.070312 Z M 10.261719 12.847656 L 9.734375 12.847656 L 9.734375 1.070312 L 10.261719 1.070312 Z M 11.316406 12.847656 L 10.789062 12.847656 L 10.789062 1.070312 L 11.316406 1.070312 Z M 12.105469 12.847656 L 11.578125 12.847656 L 11.578125 1.070312 L 12.105469 1.070312 Z M 13.6875 12.847656 L 12.898438 12.847656 L 12.898438 1.070312 L 13.6875 1.070312 Z M 14.214844 12.847656 L 13.945312 12.847656 L 13.945312 1.070312 L 14.214844 1.070312 Z M 15 12.855469 L 14.472656 12.855469 L 14.472656 1.070312 L 15 1.070312 Z M 15 12.855469 "/>
  </g>
</svg>