<?xml version="1.0" encoding="UTF-8" standalone="yes"?>
<svg xmlns="http://www.w3.org/2000/svg" xmlns:xlink="http://www.w3.org/1999/xlink" width="20px" height="20px" viewBox="0 0 15 15" version="1.1">
  <g id="surface1">
    <path style=" stroke:none;fill-rule:nonzero;fill:rgb(0%,0%,0%);fill-opacity:1;" d="M 7.632812 14.195312 C 7.632812 14.105469 7.589844 14.0625 7.5 14.0625 C 7.171875 14.0625 6.886719 13.945312 6.648438 13.707031 C 6.414062 13.46875 6.292969 13.1875 6.292969 12.855469 C 6.292969 12.769531 6.25 12.722656 6.160156 12.722656 C 6.070312 12.722656 6.027344 12.769531 6.027344 12.855469 C 6.027344 13.265625 6.171875 13.613281 6.457031 13.898438 C 6.746094 14.1875 7.09375 14.332031 7.5 14.332031 C 7.589844 14.332031 7.632812 14.285156 7.632812 14.195312 Z M 14.464844 11.785156 C 14.464844 12.074219 14.359375 12.328125 14.144531 12.539062 C 13.933594 12.75 13.683594 12.855469 13.394531 12.855469 L 9.644531 12.855469 C 9.644531 13.449219 9.433594 13.953125 9.015625 14.371094 C 8.597656 14.789062 8.089844 15 7.5 15 C 6.910156 15 6.402344 14.789062 5.984375 14.371094 C 5.566406 13.953125 5.355469 13.449219 5.355469 12.855469 L 1.605469 12.855469 C 1.316406 12.855469 1.066406 12.75 0.855469 12.539062 C 0.640625 12.328125 0.535156 12.074219 0.535156 11.785156 C 0.816406 11.550781 1.070312 11.304688 1.296875 11.050781 C 1.527344 10.792969 1.761719 10.460938 2.007812 10.046875 C 2.253906 9.640625 2.460938 9.195312 2.632812 8.722656 C 2.800781 8.246094 2.941406 7.671875 3.050781 6.996094 C 3.160156 6.324219 3.214844 5.597656 3.214844 4.820312 C 3.214844 3.972656 3.539062 3.183594 4.195312 2.457031 C 4.847656 1.726562 5.703125 1.285156 6.761719 1.128906 C 6.71875 1.023438 6.695312 0.914062 6.695312 0.804688 C 6.695312 0.582031 6.773438 0.390625 6.929688 0.234375 C 7.085938 0.078125 7.277344 0 7.5 0 C 7.722656 0 7.914062 0.078125 8.070312 0.234375 C 8.226562 0.390625 8.304688 0.582031 8.304688 0.804688 C 8.304688 0.914062 8.28125 1.023438 8.238281 1.128906 C 9.296875 1.285156 10.152344 1.726562 10.804688 2.457031 C 11.460938 3.183594 11.785156 3.972656 11.785156 4.820312 C 11.785156 5.597656 11.839844 6.324219 11.949219 6.996094 C 12.058594 7.671875 12.195312 8.246094 12.367188 8.722656 C 12.539062 9.195312 12.746094 9.640625 12.992188 10.046875 C 13.238281 10.460938 13.472656 10.792969 13.703125 11.050781 C 13.929688 11.304688 14.183594 11.550781 14.464844 11.785156 Z M 14.464844 11.785156 "/>
  </g>
</svg>