<svg version="1.1" xmlns="http://www.w3.org/2000/svg" xlink="http://www.w3.org/1999/xlink" x="0px" y="0px" width="15px" height="15px" viewBox="0 0 15 15" style="enable-background:new 0 0 15 15;" space="preserve">
    <path d="M13.929688,5.355469C14.222656,5.355469,14.476562,5.460938,14.6875,5.671875C14.894531,5.878906,15,6.132812,15,6.429688C15,6.722656,14.894531,6.976562,14.6875,7.1875C14.476562,7.394531,14.222656,7.5,13.929688,7.5L13.929688,10.714844C13.929688,11.003906,13.824219,11.253906,13.609375,11.46875C13.398438,11.679688,13.148438,11.785156,12.855469,11.785156C10.53125,9.847656,8.265625,8.789062,6.058594,8.605469C5.738281,8.710938,5.484375,8.894531,5.296875,9.15625C5.113281,9.417969,5.027344,9.699219,5.039062,10C5.050781,10.296875,5.160156,10.554688,5.375,10.773438C5.261719,10.957031,5.199219,11.140625,5.179688,11.320312C5.164062,11.503906,5.179688,11.664062,5.230469,11.804688C5.28125,11.949219,5.375,12.101562,5.511719,12.265625C5.648438,12.429688,5.78125,12.570312,5.914062,12.6875C6.042969,12.800781,6.214844,12.941406,6.429688,13.109375C6.265625,13.433594,5.957031,13.664062,5.496094,13.804688C5.035156,13.941406,4.566406,13.976562,4.085938,13.898438C3.605469,13.824219,3.238281,13.667969,2.980469,13.433594C2.941406,13.304688,2.859375,13.0625,2.734375,12.703125C2.609375,12.34375,2.519531,12.078125,2.464844,11.910156C2.410156,11.742188,2.347656,11.496094,2.273438,11.167969C2.195312,10.835938,2.15625,10.554688,2.148438,10.320312C2.140625,10.085938,2.148438,9.8125,2.175781,9.496094C2.203125,9.179688,2.265625,8.871094,2.359375,8.570312L1.339844,8.570312C0.972656,8.570312,0.65625,8.441406,0.394531,8.179688C0.132812,7.914062,0,7.601562,0,7.230469L0,5.625C0,5.257812,0.132812,4.941406,0.394531,4.679688C0.65625,4.417969,0.972656,4.285156,1.339844,4.285156L5.355469,4.285156C7.785156,4.285156,10.285156,3.214844,12.855469,1.070312C13.148438,1.070312,13.398438,1.175781,13.609375,1.390625C13.824219,1.601562,13.929688,1.851562,13.929688,2.144531ZM12.855469,10.414062L12.855469,2.425781C10.660156,4.113281,8.515625,5.070312,6.429688,5.296875L6.429688,7.558594C8.53125,7.792969,10.675781,8.746094,12.855469,10.414062ZM12.855469,10.414062" fill="#FFFFFF"/>
    </svg>