<svg xmlns="http://www.w3.org/2000/svg" xlink="http://www.w3.org/1999/xlink" width="20px" height="20px" viewBox="0 0 15 15" version="1.1">
  <g id="surface1">
    <path d="M 5.355469 2.144531 L 9.644531 2.144531 L 9.644531 1.070312 L 5.355469 1.070312 Z M 15 7.5 L 15 11.519531 C 15 11.886719 14.867188 12.203125 14.605469 12.464844 C 14.34375 12.726562 14.027344 12.855469 13.660156 12.855469 L 1.339844 12.855469 C 0.972656 12.855469 0.65625 12.726562 0.394531 12.464844 C 0.132812 12.203125 0 11.886719 0 11.519531 L 0 7.5 L 5.625 7.5 L 5.625 8.839844 C 5.625 8.984375 5.679688 9.109375 5.785156 9.214844 C 5.890625 9.320312 6.015625 9.375 6.160156 9.375 L 8.839844 9.375 C 8.984375 9.375 9.109375 9.320312 9.214844 9.214844 C 9.320312 9.109375 9.375 8.984375 9.375 8.839844 L 9.375 7.5 Z M 8.570312 7.5 L 8.570312 8.570312 L 6.429688 8.570312 L 6.429688 7.5 Z M 15 3.480469 L 15 6.695312 L 0 6.695312 L 0 3.480469 C 0 3.113281 0.132812 2.796875 0.394531 2.535156 C 0.65625 2.273438 0.972656 2.144531 1.339844 2.144531 L 4.285156 2.144531 L 4.285156 0.804688 C 4.285156 0.582031 4.363281 0.390625 4.519531 0.234375 C 4.675781 0.078125 4.867188 0 5.089844 0 L 9.910156 0 C 10.132812 0 10.324219 0.078125 10.480469 0.234375 C 10.636719 0.390625 10.714844 0.582031 10.714844 0.804688 L 10.714844 2.144531 L 13.660156 2.144531 C 14.027344 2.144531 14.34375 2.273438 14.605469 2.535156 C 14.867188 2.796875 15 3.113281 15 3.480469 Z M 15 3.480469 " fill="#FFFFFF"/>
  </g>
</svg>