<svg version="1.1" xmlns="http://www.w3.org/2000/svg" xlink="http://www.w3.org/1999/xlink" x="0px" y="0px" width="15px" height="18.75px" viewBox="0 0 15 18.75" style="enable-background:new 0 0 15 15;" space="preserve">
    <path d="M21.931640625,8.9560546875c0.9228515625,-0.46142578125,1.505859375,-1.40478515625,1.505859375,-2.4364013671875v-0.27978515625C23.4375,4.735107421875001,22.218017578125,3.515625,20.7132568359375,3.515625c-1.1726074218750002,0,-2.21337890625,0.7503662109374999,-2.5843505859375,1.862548828125c-0.28125,0.8433837890625001,-0.4248046875,1.653076171875,-1.3956298828125,1.653076171875H6.703857421875c-1.002685546875,0,-1.156494140625,-0.9353027343749999,-1.3956298828125,-1.653076171875C4.937622070312501,4.2659912109375,3.896484375,3.515625,2.7242431640625,3.515625C1.2194824218749998,3.515625,0,4.735107421875001,0,6.2398681640625v0.27978515625c0,1.0316162109375,0.5830078125,1.9749755859375,1.505859375,2.4364013671875c0.3453369140625,0.1724853515625,0.3453369140625,0.6654052734375,0,0.837890625C0.5830078125,10.25537109375,0,11.19873046875,0,12.2303466796875v0.27978515625C0,14.014892578125,1.2194824218749998,15.234375,2.7238769531249996,15.234375c1.1726074218750002,0,2.21337890625,-0.7503662109374999,2.5843505859375,-1.862548828125c0.28125,-0.8433837890625001,0.4248046875,-1.653076171875,1.3956298828125,-1.653076171875h10.0294189453125c1.002685546875,0,1.156494140625,0.9353027343749999,1.3956298828125,1.653076171875C18.4998779296875,14.4840087890625,19.541015625,15.234375,20.7132568359375,15.234375c1.5043945312499998,0,2.7238769531249996,-1.2194824218749998,2.7238769531249996,-2.7242431640625v-0.27978515625c0,-1.031982421875,-0.5830078125,-1.9749755859375,-1.505859375,-2.4364013671875c-0.344970703125,-0.1724853515625,-0.344970703125,-0.6654052734375,0.0003662109375,-0.837890625z" fill="#FFFFFF"/>
    </svg>