<?xml version="1.0" encoding="UTF-8" standalone="yes"?>
<svg xmlns="http://www.w3.org/2000/svg" xmlns:xlink="http://www.w3.org/1999/xlink" width="20px" height="20px" viewBox="0 0 15 15" version="1.1">
  <g id="surface1">
    <path style=" stroke:none;fill-rule:nonzero;fill:rgb(0%,0%,0%);fill-opacity:1;" d="M 8.730469 9.089844 L 6.269531 9.089844 L 7.5 4.476562 Z M 9.449219 11.785156 L 12.054688 11.785156 L 9.339844 3.214844 L 5.660156 3.214844 L 2.945312 11.785156 L 5.550781 11.785156 L 8.753906 9.15625 Z M 13.929688 3.480469 L 13.929688 11.519531 C 13.929688 12.175781 13.691406 12.742188 13.21875 13.21875 C 12.742188 13.691406 12.175781 13.929688 11.519531 13.929688 L 3.480469 13.929688 C 2.824219 13.929688 2.257812 13.691406 1.78125 13.21875 C 1.308594 12.742188 1.070312 12.175781 1.070312 11.519531 L 1.070312 3.480469 C 1.070312 2.824219 1.308594 2.257812 1.78125 1.78125 C 2.257812 1.308594 2.824219 1.070312 3.480469 1.070312 L 11.519531 1.070312 C 12.175781 1.070312 12.742188 1.308594 13.21875 1.78125 C 13.691406 2.257812 13.929688 2.824219 13.929688 3.480469 Z M 13.929688 3.480469 "/>
  </g>
</svg>