<svg xmlns="http://www.w3.org/2000/svg" xlink="http://www.w3.org/1999/xlink" width="20px" height="20px" viewBox="0 0 15 15" version="1.1">
  <g id="surface1">
    <path d="M 14.398438 2.835938 L 10.121094 2.835938 L 10.121094 3.875 L 14.398438 3.875 Z M 12.289062 6.402344 C 11.785156 6.402344 11.378906 6.550781 11.066406 6.84375 C 10.753906 7.136719 10.582031 7.535156 10.546875 8.035156 L 13.960938 8.035156 C 13.863281 6.949219 13.304688 6.402344 12.289062 6.402344 Z M 12.421875 11.300781 C 12.773438 11.300781 13.113281 11.210938 13.441406 11.03125 C 13.773438 10.855469 13.984375 10.609375 14.078125 10.304688 L 15.929688 10.304688 C 15.371094 12.015625 14.179688 12.875 12.355469 12.875 C 11.160156 12.875 10.210938 12.503906 9.503906 11.769531 C 8.796875 11.03125 8.445312 10.0625 8.445312 8.863281 C 8.445312 7.703125 8.808594 6.738281 9.539062 5.972656 C 10.265625 5.203125 11.207031 4.820312 12.355469 4.820312 C 13.125 4.820312 13.796875 5.011719 14.367188 5.390625 C 14.941406 5.769531 15.367188 6.269531 15.648438 6.890625 C 15.929688 7.507812 16.070312 8.199219 16.070312 8.964844 C 16.070312 9.058594 16.066406 9.191406 16.054688 9.359375 L 10.546875 9.359375 C 10.546875 9.976562 10.707031 10.457031 11.027344 10.792969 C 11.347656 11.132812 11.8125 11.300781 12.421875 11.300781 Z M 1.246094 10.882812 L 3.726562 10.882812 C 4.867188 10.882812 5.441406 10.414062 5.441406 9.484375 C 5.441406 8.480469 4.886719 7.976562 3.773438 7.976562 L 1.246094 7.976562 Z M 1.246094 6.386719 L 3.597656 6.386719 C 4.035156 6.386719 4.378906 6.285156 4.632812 6.082031 C 4.886719 5.878906 5.015625 5.5625 5.015625 5.132812 C 5.015625 4.328125 4.484375 3.925781 3.421875 3.925781 L 1.246094 3.925781 Z M -1.070312 2.125 L 3.902344 2.125 C 4.386719 2.125 4.820312 2.164062 5.199219 2.242188 C 5.578125 2.320312 5.929688 2.453125 6.257812 2.640625 C 6.582031 2.828125 6.835938 3.097656 7.011719 3.449219 C 7.1875 3.800781 7.273438 4.230469 7.273438 4.738281 C 7.273438 5.746094 6.792969 6.480469 5.835938 6.9375 C 6.46875 7.117188 6.949219 7.4375 7.273438 7.902344 C 7.597656 8.363281 7.757812 8.933594 7.757812 9.609375 C 7.757812 10.027344 7.691406 10.410156 7.554688 10.75 C 7.417969 11.09375 7.234375 11.382812 7 11.617188 C 6.769531 11.851562 6.496094 12.050781 6.175781 12.210938 C 5.859375 12.375 5.523438 12.492188 5.164062 12.5625 C 4.808594 12.636719 4.433594 12.671875 4.042969 12.671875 L -1.070312 12.671875 Z M -1.070312 2.125 " fill="#FFFFFF"/>
  </g>
</svg>