<?xml version="1.0" encoding="UTF-8" standalone="yes"?>
<svg xmlns="http://www.w3.org/2000/svg" xmlns:xlink="http://www.w3.org/1999/xlink" width="20px" height="20px" viewBox="0 0 15 15" version="1.1">
  <g id="surface1">
    <path style=" stroke:none;fill-rule:nonzero;fill:rgb(0%,0%,0%);fill-opacity:1;" d="M 16.070312 7.492188 C 16.070312 7.609375 16.035156 7.710938 15.960938 7.796875 C 15.890625 7.882812 15.796875 7.9375 15.6875 7.960938 L 13.96875 10.941406 C 13.988281 10.992188 13.996094 11.039062 13.996094 11.089844 C 13.996094 11.203125 13.960938 11.300781 13.890625 11.386719 C 13.820312 11.472656 13.730469 11.527344 13.617188 11.550781 L 12.003906 14.371094 C 12.019531 14.417969 12.027344 14.460938 12.027344 14.507812 C 12.027344 14.632812 11.984375 14.746094 11.890625 14.839844 C 11.796875 14.9375 11.683594 14.984375 11.550781 14.984375 C 11.410156 14.984375 11.296875 14.933594 11.207031 14.832031 L 7.859375 14.832031 C 7.765625 14.945312 7.644531 15 7.5 15 C 7.355469 15 7.234375 14.945312 7.140625 14.832031 L 3.800781 14.832031 C 3.707031 14.945312 3.585938 15 3.441406 15 C 3.3125 15 3.199219 14.953125 3.105469 14.863281 C 3.011719 14.769531 2.964844 14.65625 2.964844 14.523438 C 2.964844 14.476562 2.972656 14.421875 2.996094 14.355469 L 1.382812 11.550781 C 1.269531 11.527344 1.179688 11.472656 1.109375 11.386719 C 1.039062 11.300781 1.003906 11.203125 1.003906 11.089844 C 1.003906 11.039062 1.011719 10.992188 1.03125 10.941406 L -0.695312 7.960938 C -0.804688 7.933594 -0.898438 7.875 -0.96875 7.789062 C -1.035156 7.703125 -1.070312 7.601562 -1.070312 7.492188 C -1.070312 7.375 -1.035156 7.273438 -0.957031 7.1875 C -0.882812 7.097656 -0.789062 7.046875 -0.679688 7.023438 L 0.988281 4.144531 C 0.988281 4.136719 0.984375 4.128906 0.984375 4.117188 C 0.980469 4.105469 0.980469 4.097656 0.980469 4.09375 C 0.980469 3.890625 1.074219 3.75 1.265625 3.667969 L 3.011719 0.628906 C 2.992188 0.570312 2.980469 0.523438 2.980469 0.476562 C 2.980469 0.34375 3.027344 0.230469 3.121094 0.136719 C 3.21875 0.046875 3.328125 0 3.457031 0 C 3.601562 0 3.726562 0.0585938 3.824219 0.175781 L 7.140625 0.175781 C 7.230469 0.0585938 7.347656 0 7.5 0 C 7.652344 0 7.769531 0.0585938 7.859375 0.175781 L 11.191406 0.175781 C 11.292969 0.0585938 11.414062 0 11.558594 0 C 11.6875 0 11.800781 0.046875 11.894531 0.136719 C 11.988281 0.230469 12.035156 0.34375 12.035156 0.476562 C 12.035156 0.511719 12.027344 0.5625 12.003906 0.628906 L 13.734375 3.625 C 13.863281 3.628906 13.972656 3.679688 14.0625 3.769531 C 14.152344 3.863281 14.195312 3.96875 14.195312 4.09375 C 14.195312 4.164062 14.175781 4.242188 14.136719 4.320312 L 15.703125 7.03125 C 15.808594 7.054688 15.898438 7.109375 15.96875 7.195312 C 16.035156 7.28125 16.070312 7.378906 16.070312 7.492188 Z M 7.828125 14.179688 L 11.082031 14.179688 L 8.21875 11.214844 L 7.023438 11.214844 L 4.160156 14.179688 L 7.171875 14.179688 C 7.273438 14.089844 7.382812 14.046875 7.5 14.046875 C 7.617188 14.046875 7.726562 14.089844 7.828125 14.179688 Z M -0.132812 7.382812 C -0.128906 7.40625 -0.125 7.441406 -0.125 7.492188 C -0.125 7.546875 -0.132812 7.589844 -0.140625 7.617188 L 1.597656 10.628906 C 1.609375 10.628906 1.621094 10.632812 1.636719 10.640625 C 1.648438 10.644531 1.664062 10.652344 1.683594 10.660156 L 1.722656 10.679688 L 3.296875 9.015625 L 3.296875 6.109375 L 1.734375 4.488281 C 1.660156 4.53125 1.578125 4.558594 1.488281 4.570312 Z M 7.183594 0.820312 L 3.933594 0.820312 L 5.523438 2.496094 L 10.160156 0.820312 L 7.816406 0.820312 C 7.730469 0.910156 7.621094 0.953125 7.5 0.953125 C 7.378906 0.953125 7.269531 0.910156 7.183594 0.820312 Z M 13.066406 10.964844 C 13.070312 10.933594 13.085938 10.902344 13.109375 10.875 L 12.574219 10.304688 L 12.429688 10.964844 Z M 12.179688 10.964844 L 12.363281 10.085938 L 10.253906 7.859375 L 7.777344 10.429688 L 8.304688 10.964844 Z M 11.441406 14.046875 L 11.578125 13.8125 L 12.121094 11.214844 L 8.546875 11.214844 L 11.332031 14.085938 C 11.378906 14.066406 11.414062 14.050781 11.441406 14.046875 Z M 3.765625 14.179688 L 3.808594 14.179688 L 6.671875 11.214844 L 3.550781 11.214844 L 3.550781 14.019531 L 3.582031 14.070312 C 3.660156 14.097656 3.722656 14.136719 3.765625 14.179688 Z M 3.550781 10.964844 L 6.914062 10.964844 L 7.449219 10.414062 L 4.863281 7.726562 L 3.550781 9.117188 Z M 1.933594 10.964844 L 3.296875 10.964844 L 3.296875 9.382812 L 1.890625 10.863281 C 1.914062 10.910156 1.929688 10.941406 1.933594 10.964844 Z M 1.925781 4.058594 C 1.925781 4.066406 1.925781 4.070312 1.929688 4.078125 C 1.933594 4.082031 1.933594 4.085938 1.933594 4.09375 C 1.933594 4.183594 1.910156 4.261719 1.867188 4.335938 L 3.296875 5.816406 L 3.296875 3.566406 Z M 3.550781 3.472656 L 3.550781 6.078125 L 4.828125 7.390625 L 7.316406 4.761719 L 5.449219 2.789062 Z M 3.582031 0.929688 L 3.550781 0.996094 L 3.550781 3.207031 L 5.265625 2.585938 L 3.667969 0.902344 C 3.632812 0.914062 3.605469 0.921875 3.582031 0.929688 Z M 11.039062 0.820312 L 10.90625 0.820312 L 5.707031 2.695312 L 7.492188 4.578125 Z M 7.492188 4.9375 L 5.003906 7.574219 L 7.609375 10.246094 L 10.085938 7.675781 Z M 4.6875 7.550781 L 3.550781 6.371094 L 3.550781 8.746094 Z M 7.617188 10.597656 L 7.265625 10.964844 L 7.976562 10.964844 Z M 10.429688 7.683594 L 12.421875 9.785156 L 13.527344 4.5625 L 13.5 4.519531 L 13.492188 4.511719 Z M 13.308594 4.335938 C 13.265625 4.261719 13.242188 4.183594 13.242188 4.09375 L 13.242188 4.078125 L 11.433594 0.929688 C 11.40625 0.921875 11.371094 0.910156 11.324219 0.886719 L 7.667969 4.761719 L 10.261719 7.5 Z M 3.296875 3.296875 L 3.296875 1.429688 L 1.933594 3.792969 Z M 3.296875 11.214844 L 1.933594 11.214844 L 3.296875 13.585938 Z M 12.378906 11.214844 L 11.976562 13.117188 L 13.066406 11.214844 Z M 13.402344 10.628906 L 15.132812 7.609375 C 15.121094 7.554688 15.117188 7.515625 15.117188 7.492188 C 15.117188 7.484375 15.125 7.441406 15.140625 7.359375 L 13.710938 4.878906 L 12.632812 10.003906 L 13.277344 10.6875 C 13.304688 10.671875 13.34375 10.652344 13.402344 10.628906 Z M 13.402344 10.628906 "/>
  </g>
</svg>