<svg xmlns="http://www.w3.org/2000/svg" xlink="http://www.w3.org/1999/xlink" width="20px" height="20px" viewBox="0 0 15 15" version="1.1">
  <g id="surface1">
    <path d="M 10.179688 7.230469 C 10.179688 7.152344 10.152344 7.089844 10.101562 7.039062 L 7.15625 4.09375 C 7.105469 4.042969 7.042969 4.019531 6.964844 4.019531 C 6.886719 4.019531 6.820312 4.042969 6.773438 4.09375 L 3.832031 7.03125 C 3.777344 7.097656 3.75 7.164062 3.75 7.230469 C 3.75 7.308594 3.773438 7.375 3.824219 7.425781 C 3.875 7.476562 3.941406 7.5 4.019531 7.5 L 5.894531 7.5 L 5.894531 10.445312 C 5.894531 10.519531 5.917969 10.582031 5.972656 10.632812 C 6.023438 10.6875 6.089844 10.714844 6.160156 10.714844 L 7.769531 10.714844 C 7.839844 10.714844 7.902344 10.6875 7.957031 10.632812 C 8.007812 10.582031 8.035156 10.519531 8.035156 10.445312 L 8.035156 7.5 L 9.910156 7.5 C 9.984375 7.5 10.046875 7.472656 10.097656 7.421875 C 10.152344 7.367188 10.179688 7.304688 10.179688 7.230469 Z M 15.535156 9.644531 C 15.535156 10.53125 15.222656 11.289062 14.59375 11.914062 C 13.964844 12.542969 13.207031 12.855469 12.320312 12.855469 L 3.214844 12.855469 C 2.183594 12.855469 1.296875 12.488281 0.566406 11.757812 C -0.167969 11.023438 -0.535156 10.140625 -0.535156 9.105469 C -0.535156 8.382812 -0.339844 7.710938 0.0507812 7.097656 C 0.441406 6.484375 0.964844 6.023438 1.625 5.71875 C 1.613281 5.550781 1.605469 5.429688 1.605469 5.355469 C 1.605469 4.175781 2.027344 3.164062 2.863281 2.328125 C 3.699219 1.488281 4.710938 1.070312 5.894531 1.070312 C 6.761719 1.070312 7.558594 1.3125 8.28125 1.800781 C 9.003906 2.285156 9.53125 2.929688 9.859375 3.734375 C 10.257812 3.386719 10.71875 3.214844 11.25 3.214844 C 11.839844 3.214844 12.347656 3.421875 12.765625 3.84375 C 13.183594 4.261719 13.394531 4.765625 13.394531 5.355469 C 13.394531 5.78125 13.277344 6.167969 13.050781 6.511719 C 13.773438 6.683594 14.371094 7.0625 14.835938 7.648438 C 15.300781 8.230469 15.535156 8.894531 15.535156 9.644531 Z M 15.535156 9.644531 " fill="#FFFFFF"/>
  </g>
</svg>