<svg xmlns="http://www.w3.org/2000/svg" xlink="http://www.w3.org/1999/xlink" width="20px" height="20px" viewBox="0 0 15 15" version="1.1">
  <g id="surface1">
    <path d="M 10.90625 8.070312 L 6.621094 12.355469 C 6.566406 12.40625 6.5 12.429688 6.429688 12.429688 C 6.355469 12.429688 6.292969 12.40625 6.234375 12.355469 L 3.824219 9.945312 C 3.773438 9.886719 3.75 9.824219 3.75 9.75 C 3.75 9.679688 3.773438 9.617188 3.824219 9.566406 L 4.210938 9.183594 C 4.261719 9.132812 4.320312 9.105469 4.394531 9.105469 C 4.46875 9.105469 4.53125 9.132812 4.585938 9.183594 L 6.429688 11.023438 L 10.144531 7.308594 C 10.199219 7.257812 10.265625 7.230469 10.335938 7.230469 C 10.410156 7.230469 10.472656 7.257812 10.523438 7.308594 L 10.90625 7.691406 C 10.957031 7.742188 10.980469 7.804688 10.980469 7.875 C 10.980469 7.949219 10.957031 8.011719 10.90625 8.070312 Z M 1.070312 13.929688 L 12.855469 13.929688 L 12.855469 5.355469 L 1.070312 5.355469 Z M 4.285156 3.75 L 4.285156 1.339844 C 4.285156 1.261719 4.261719 1.195312 4.210938 1.148438 C 4.160156 1.097656 4.097656 1.070312 4.019531 1.070312 L 3.480469 1.070312 C 3.402344 1.070312 3.339844 1.097656 3.289062 1.148438 C 3.238281 1.195312 3.214844 1.261719 3.214844 1.339844 L 3.214844 3.75 C 3.214844 3.828125 3.238281 3.890625 3.289062 3.941406 C 3.339844 3.992188 3.402344 4.019531 3.480469 4.019531 L 4.019531 4.019531 C 4.097656 4.019531 4.160156 3.992188 4.210938 3.941406 C 4.261719 3.890625 4.285156 3.828125 4.285156 3.75 Z M 10.714844 3.75 L 10.714844 1.339844 C 10.714844 1.261719 10.6875 1.195312 10.640625 1.148438 C 10.589844 1.097656 10.523438 1.070312 10.445312 1.070312 L 9.910156 1.070312 C 9.832031 1.070312 9.769531 1.097656 9.71875 1.148438 C 9.667969 1.195312 9.644531 1.261719 9.644531 1.339844 L 9.644531 3.75 C 9.644531 3.828125 9.667969 3.890625 9.71875 3.941406 C 9.769531 3.992188 9.832031 4.019531 9.910156 4.019531 L 10.445312 4.019531 C 10.523438 4.019531 10.589844 3.992188 10.640625 3.941406 C 10.6875 3.890625 10.714844 3.828125 10.714844 3.75 Z M 13.929688 3.214844 L 13.929688 13.929688 C 13.929688 14.21875 13.824219 14.46875 13.609375 14.683594 C 13.398438 14.894531 13.148438 15 12.855469 15 L 1.070312 15 C 0.78125 15 0.53125 14.894531 0.316406 14.683594 C 0.105469 14.46875 0 14.21875 0 13.929688 L 0 3.214844 C 0 2.925781 0.105469 2.671875 0.316406 2.460938 C 0.53125 2.25 0.78125 2.144531 1.070312 2.144531 L 2.144531 2.144531 L 2.144531 1.339844 C 2.144531 0.972656 2.273438 0.65625 2.535156 0.394531 C 2.796875 0.132812 3.113281 0 3.480469 0 L 4.019531 0 C 4.386719 0 4.703125 0.132812 4.964844 0.394531 C 5.226562 0.65625 5.355469 0.972656 5.355469 1.339844 L 5.355469 2.144531 L 8.570312 2.144531 L 8.570312 1.339844 C 8.570312 0.972656 8.703125 0.65625 8.964844 0.394531 C 9.226562 0.132812 9.542969 0 9.910156 0 L 10.445312 0 C 10.816406 0 11.128906 0.132812 11.390625 0.394531 C 11.65625 0.65625 11.785156 0.972656 11.785156 1.339844 L 11.785156 2.144531 L 12.855469 2.144531 C 13.148438 2.144531 13.398438 2.25 13.609375 2.460938 C 13.824219 2.671875 13.929688 2.925781 13.929688 3.214844 Z M 13.929688 3.214844 " fill="#FFFFFF"/>
  </g>
</svg>