<?xml version="1.0" encoding="UTF-8" standalone="yes"?>
<svg xmlns="http://www.w3.org/2000/svg" xmlns:xlink="http://www.w3.org/1999/xlink" width="20px" height="20px" viewBox="0 0 15 15" version="1.1">
  <g id="surface1">
    <path style=" stroke:none;fill-rule:nonzero;fill:rgb(0%,0%,0%);fill-opacity:1;" d="M 7.875 10.875 L 11.675781 7.074219 C 11.78125 6.96875 11.835938 6.839844 11.835938 6.695312 C 11.835938 6.550781 11.78125 6.425781 11.675781 6.320312 L 10.824219 5.464844 C 10.71875 5.359375 10.589844 5.308594 10.445312 5.308594 C 10.300781 5.308594 10.175781 5.359375 10.070312 5.464844 L 7.5 8.035156 L 4.929688 5.464844 C 4.824219 5.359375 4.699219 5.308594 4.554688 5.308594 C 4.410156 5.308594 4.28125 5.359375 4.175781 5.464844 L 3.324219 6.320312 C 3.21875 6.425781 3.164062 6.550781 3.164062 6.695312 C 3.164062 6.839844 3.21875 6.96875 3.324219 7.074219 L 7.125 10.875 C 7.230469 10.980469 7.355469 11.03125 7.5 11.03125 C 7.644531 11.03125 7.769531 10.980469 7.875 10.875 Z M 13.929688 7.5 C 13.929688 8.667969 13.640625 9.742188 13.066406 10.726562 C 12.492188 11.710938 11.710938 12.492188 10.726562 13.066406 C 9.742188 13.640625 8.667969 13.929688 7.5 13.929688 C 6.332031 13.929688 5.257812 13.640625 4.273438 13.066406 C 3.289062 12.492188 2.507812 11.710938 1.933594 10.726562 C 1.359375 9.742188 1.070312 8.667969 1.070312 7.5 C 1.070312 6.332031 1.359375 5.257812 1.933594 4.273438 C 2.507812 3.289062 3.289062 2.507812 4.273438 1.933594 C 5.257812 1.359375 6.332031 1.070312 7.5 1.070312 C 8.667969 1.070312 9.742188 1.359375 10.726562 1.933594 C 11.710938 2.507812 12.492188 3.289062 13.066406 4.273438 C 13.640625 5.257812 13.929688 6.332031 13.929688 7.5 Z M 13.929688 7.5 "/>
  </g>
</svg>