<svg xmlns="http://www.w3.org/2000/svg" xlink="http://www.w3.org/1999/xlink" width="20px" height="20px" viewBox="0 0 15 15" version="1.1">
  <g id="surface1">
    <path d="M 10.699219 8.988281 L 10.699219 9.902344 C 10.699219 10.179688 10.59375 10.429688 10.390625 10.648438 C 10.1875 10.863281 9.925781 11.035156 9.605469 11.152344 C 9.285156 11.273438 8.953125 11.363281 8.617188 11.425781 C 8.28125 11.488281 7.953125 11.519531 7.632812 11.519531 C 6.488281 11.519531 5.535156 11.128906 4.765625 10.355469 C 4 9.578125 3.617188 8.613281 3.617188 7.457031 C 3.617188 6.324219 3.996094 5.378906 4.753906 4.621094 C 5.511719 3.863281 6.460938 3.480469 7.59375 3.480469 C 7.78125 3.480469 7.992188 3.496094 8.222656 3.519531 C 8.457031 3.546875 8.714844 3.59375 9.003906 3.671875 C 9.289062 3.746094 9.546875 3.839844 9.777344 3.953125 C 10.003906 4.070312 10.199219 4.226562 10.355469 4.429688 C 10.511719 4.628906 10.589844 4.855469 10.589844 5.105469 L 10.589844 6.019531 C 10.589844 6.109375 10.542969 6.152344 10.453125 6.152344 L 9.46875 6.152344 C 9.378906 6.152344 9.332031 6.109375 9.332031 6.019531 L 9.332031 5.433594 C 9.332031 5.191406 9.148438 5.003906 8.785156 4.867188 C 8.417969 4.730469 8.035156 4.664062 7.632812 4.664062 C 6.851562 4.664062 6.214844 4.917969 5.722656 5.429688 C 5.226562 5.9375 4.980469 6.601562 4.980469 7.417969 C 4.980469 8.257812 5.234375 8.953125 5.746094 9.503906 C 6.257812 10.054688 6.910156 10.328125 7.699219 10.328125 C 8.082031 10.328125 8.464844 10.261719 8.855469 10.128906 C 9.246094 9.996094 9.441406 9.808594 9.441406 9.574219 L 9.441406 8.988281 C 9.441406 8.949219 9.453125 8.917969 9.480469 8.894531 C 9.503906 8.867188 9.535156 8.855469 9.566406 8.855469 L 10.5625 8.855469 C 10.597656 8.855469 10.628906 8.867188 10.65625 8.894531 C 10.683594 8.917969 10.699219 8.949219 10.699219 8.988281 Z M 7.5 2.144531 C 6.773438 2.144531 6.082031 2.285156 5.421875 2.570312 C 4.757812 2.855469 4.1875 3.234375 3.710938 3.710938 C 3.234375 4.1875 2.855469 4.757812 2.570312 5.421875 C 2.285156 6.082031 2.144531 6.773438 2.144531 7.5 C 2.144531 8.226562 2.285156 8.917969 2.570312 9.578125 C 2.855469 10.242188 3.234375 10.8125 3.710938 11.289062 C 4.1875 11.765625 4.757812 12.144531 5.421875 12.429688 C 6.082031 12.714844 6.773438 12.855469 7.5 12.855469 C 8.226562 12.855469 8.917969 12.714844 9.578125 12.429688 C 10.242188 12.144531 10.8125 11.765625 11.289062 11.289062 C 11.765625 10.8125 12.144531 10.242188 12.429688 9.578125 C 12.714844 8.917969 12.855469 8.226562 12.855469 7.5 C 12.855469 6.773438 12.714844 6.082031 12.429688 5.421875 C 12.144531 4.757812 11.765625 4.1875 11.289062 3.710938 C 10.8125 3.234375 10.242188 2.855469 9.578125 2.570312 C 8.917969 2.285156 8.226562 2.144531 7.5 2.144531 Z M 13.929688 7.5 C 13.929688 8.667969 13.640625 9.742188 13.066406 10.726562 C 12.492188 11.710938 11.710938 12.492188 10.726562 13.066406 C 9.742188 13.640625 8.667969 13.929688 7.5 13.929688 C 6.332031 13.929688 5.257812 13.640625 4.273438 13.066406 C 3.289062 12.492188 2.507812 11.710938 1.933594 10.726562 C 1.359375 9.742188 1.070312 8.667969 1.070312 7.5 C 1.070312 6.332031 1.359375 5.257812 1.933594 4.273438 C 2.507812 3.289062 3.289062 2.507812 4.273438 1.933594 C 5.257812 1.359375 6.332031 1.070312 7.5 1.070312 C 8.667969 1.070312 9.742188 1.359375 10.726562 1.933594 C 11.710938 2.507812 12.492188 3.289062 13.066406 4.273438 C 13.640625 5.257812 13.929688 6.332031 13.929688 7.5 Z M 13.929688 7.5 " fill="#FFFFFF"/>
  </g>
</svg>