<svg xmlns="http://www.w3.org/2000/svg" xlink="http://www.w3.org/1999/xlink" width="20px" height="20px" viewBox="0 0 15 15" version="1.1">
  <g id="surface1">
    <path d="M 10.65625 5.648438 C 10.757812 5.84375 10.742188 6.03125 10.613281 6.203125 L 7.933594 9.953125 C 7.828125 10.101562 7.683594 10.179688 7.5 10.179688 C 7.316406 10.179688 7.171875 10.101562 7.066406 9.953125 L 4.386719 6.203125 C 4.257812 6.03125 4.242188 5.84375 4.34375 5.648438 C 4.4375 5.453125 4.597656 5.355469 4.820312 5.355469 L 10.179688 5.355469 C 10.402344 5.355469 10.5625 5.453125 10.65625 5.648438 Z M 11.785156 11.519531 L 11.785156 3.480469 C 11.785156 3.410156 11.757812 3.347656 11.707031 3.292969 C 11.652344 3.242188 11.589844 3.214844 11.519531 3.214844 L 3.480469 3.214844 C 3.410156 3.214844 3.347656 3.242188 3.292969 3.292969 C 3.242188 3.347656 3.214844 3.410156 3.214844 3.480469 L 3.214844 11.519531 C 3.214844 11.589844 3.242188 11.652344 3.292969 11.707031 C 3.347656 11.757812 3.410156 11.785156 3.480469 11.785156 L 11.519531 11.785156 C 11.589844 11.785156 11.652344 11.757812 11.707031 11.707031 C 11.757812 11.652344 11.785156 11.589844 11.785156 11.519531 Z M 13.929688 3.480469 L 13.929688 11.519531 C 13.929688 12.183594 13.691406 12.75 13.222656 13.222656 C 12.75 13.691406 12.183594 13.929688 11.519531 13.929688 L 3.480469 13.929688 C 2.816406 13.929688 2.25 13.691406 1.777344 13.222656 C 1.308594 12.75 1.070312 12.183594 1.070312 11.519531 L 1.070312 3.480469 C 1.070312 2.816406 1.308594 2.25 1.777344 1.777344 C 2.25 1.308594 2.816406 1.070312 3.480469 1.070312 L 11.519531 1.070312 C 12.183594 1.070312 12.75 1.308594 13.222656 1.777344 C 13.691406 2.25 13.929688 2.816406 13.929688 3.480469 Z M 13.929688 3.480469 " fill="#FFFFFF"/>
  </g>
</svg>