<?xml version="1.0" encoding="UTF-8" standalone="yes"?>
<svg xmlns="http://www.w3.org/2000/svg" xmlns:xlink="http://www.w3.org/1999/xlink" width="20px" height="20px" viewBox="0 0 15 15" version="1.1">
  <g id="surface1">
    <path style=" stroke:none;fill-rule:nonzero;fill:rgb(0%,0%,0%);fill-opacity:1;" d="M 10.179688 7.5 C 10.179688 7.683594 10.101562 7.828125 9.953125 7.933594 L 6.203125 10.613281 C 6.03125 10.742188 5.84375 10.757812 5.648438 10.65625 C 5.453125 10.5625 5.355469 10.402344 5.355469 10.179688 L 5.355469 4.820312 C 5.355469 4.597656 5.453125 4.4375 5.648438 4.34375 C 5.84375 4.242188 6.03125 4.257812 6.203125 4.386719 L 9.953125 7.066406 C 10.101562 7.171875 10.179688 7.316406 10.179688 7.5 Z M 11.785156 11.519531 L 11.785156 3.480469 C 11.785156 3.402344 11.761719 3.339844 11.710938 3.289062 C 11.660156 3.238281 11.597656 3.214844 11.519531 3.214844 L 3.480469 3.214844 C 3.402344 3.214844 3.339844 3.238281 3.289062 3.289062 C 3.238281 3.339844 3.214844 3.402344 3.214844 3.480469 L 3.214844 11.519531 C 3.214844 11.597656 3.238281 11.660156 3.289062 11.710938 C 3.339844 11.761719 3.402344 11.785156 3.480469 11.785156 L 11.519531 11.785156 C 11.597656 11.785156 11.660156 11.761719 11.710938 11.710938 C 11.761719 11.660156 11.785156 11.597656 11.785156 11.519531 Z M 13.929688 3.480469 L 13.929688 11.519531 C 13.929688 12.183594 13.691406 12.75 13.222656 13.222656 C 12.75 13.691406 12.183594 13.929688 11.519531 13.929688 L 3.480469 13.929688 C 2.816406 13.929688 2.25 13.691406 1.777344 13.222656 C 1.308594 12.75 1.070312 12.183594 1.070312 11.519531 L 1.070312 3.480469 C 1.070312 2.816406 1.308594 2.25 1.777344 1.777344 C 2.25 1.308594 2.816406 1.070312 3.480469 1.070312 L 11.519531 1.070312 C 12.183594 1.070312 12.75 1.308594 13.222656 1.777344 C 13.691406 2.25 13.929688 2.816406 13.929688 3.480469 Z M 13.929688 3.480469 "/>
  </g>
</svg>