<?xml version="1.0" encoding="UTF-8" standalone="yes"?>
<svg xmlns="http://www.w3.org/2000/svg" xmlns:xlink="http://www.w3.org/1999/xlink" width="20px" height="20px" viewBox="0 0 15 15" version="1.1">
  <g id="surface1">
    <path style=" stroke:none;fill-rule:nonzero;fill:rgb(0%,0%,0%);fill-opacity:1;" d="M 14.1875 8.355469 C 14.1875 8.5 14.144531 8.621094 14.058594 8.726562 C 13.972656 8.828125 13.863281 8.894531 13.734375 8.921875 C 13.691406 8.933594 13.640625 8.941406 13.585938 8.941406 L 12.304688 8.941406 L 12.304688 7.769531 L 13.585938 7.769531 C 13.640625 7.769531 13.691406 7.773438 13.734375 7.785156 C 13.863281 7.8125 13.972656 7.878906 14.058594 7.980469 C 14.144531 8.085938 14.1875 8.207031 14.1875 8.355469 Z M 14.039062 6.570312 C 14.039062 6.710938 13.996094 6.828125 13.910156 6.921875 C 13.828125 7.015625 13.722656 7.074219 13.59375 7.097656 C 13.578125 7.105469 13.535156 7.105469 13.46875 7.105469 L 12.304688 7.105469 L 12.304688 6.027344 L 13.46875 6.027344 C 13.484375 6.027344 13.507812 6.027344 13.539062 6.03125 C 13.570312 6.035156 13.589844 6.035156 13.59375 6.035156 C 13.722656 6.058594 13.828125 6.117188 13.910156 6.214844 C 13.996094 6.3125 14.039062 6.429688 14.039062 6.570312 Z M 3.949219 7.945312 L 3.949219 5.367188 L 2.042969 5.367188 L 2.042969 7.945312 C 2.042969 8.265625 1.9375 8.53125 1.722656 8.734375 C 1.511719 8.9375 1.21875 9.039062 0.84375 9.039062 C 0.242188 9.039062 -0.394531 8.875 -1.070312 8.546875 L -1.070312 9.484375 C -0.777344 9.566406 -0.4375 9.632812 -0.0585938 9.675781 C 0.320312 9.722656 0.625 9.746094 0.855469 9.75 L 1.207031 9.761719 C 3.035156 9.761719 3.949219 9.15625 3.949219 7.945312 Z M 9.925781 9.484375 L 9.925781 8.539062 C 9.375 8.828125 8.816406 8.992188 8.253906 9.03125 C 7.652344 9.078125 7.179688 8.960938 6.839844 8.6875 C 6.5 8.414062 6.328125 8.019531 6.328125 7.5 C 6.328125 6.980469 6.5 6.585938 6.839844 6.3125 C 7.179688 6.039062 7.652344 5.921875 8.253906 5.96875 C 8.816406 6.007812 9.375 6.167969 9.925781 6.453125 L 9.925781 5.515625 C 9.660156 5.449219 9.378906 5.394531 9.089844 5.351562 C 8.800781 5.3125 8.578125 5.285156 8.421875 5.273438 L 8.1875 5.257812 C 7.476562 5.222656 6.867188 5.261719 6.359375 5.375 C 5.847656 5.484375 5.453125 5.652344 5.179688 5.875 C 4.90625 6.097656 4.710938 6.34375 4.585938 6.613281 C 4.464844 6.878906 4.402344 7.175781 4.402344 7.5 C 4.402344 7.824219 4.464844 8.121094 4.585938 8.386719 C 4.710938 8.65625 4.90625 8.902344 5.179688 9.125 C 5.453125 9.347656 5.847656 9.515625 6.359375 9.625 C 6.867188 9.738281 7.476562 9.777344 8.1875 9.742188 C 8.75 9.722656 9.332031 9.632812 9.925781 9.484375 Z M 16.070312 8.519531 C 16.070312 8.21875 15.953125 7.972656 15.710938 7.78125 C 15.472656 7.585938 15.167969 7.476562 14.800781 7.449219 L 14.800781 7.425781 C 15.117188 7.378906 15.367188 7.265625 15.542969 7.078125 C 15.722656 6.890625 15.8125 6.667969 15.8125 6.410156 C 15.8125 6.105469 15.699219 5.859375 15.46875 5.675781 C 15.238281 5.492188 14.941406 5.390625 14.574219 5.375 C 14.554688 5.375 14.523438 5.371094 14.472656 5.371094 C 14.421875 5.367188 14.382812 5.367188 14.355469 5.367188 L 10.546875 5.367188 L 10.546875 9.632812 L 14.65625 9.632812 C 15.070312 9.632812 15.410156 9.53125 15.671875 9.328125 C 15.9375 9.125 16.070312 8.855469 16.070312 8.519531 Z M 17.144531 2.144531 L 17.144531 12.855469 C 17.144531 13.148438 17.035156 13.398438 16.824219 13.609375 C 16.613281 13.824219 16.363281 13.929688 16.070312 13.929688 L -1.070312 13.929688 C -1.363281 13.929688 -1.613281 13.824219 -1.824219 13.609375 C -2.035156 13.398438 -2.144531 13.148438 -2.144531 12.855469 L -2.144531 2.144531 C -2.144531 1.851562 -2.035156 1.601562 -1.824219 1.390625 C -1.613281 1.175781 -1.363281 1.070312 -1.070312 1.070312 L 16.070312 1.070312 C 16.363281 1.070312 16.613281 1.175781 16.824219 1.390625 C 17.035156 1.601562 17.144531 1.851562 17.144531 2.144531 Z M 17.144531 2.144531 "/>
  </g>
</svg>