<svg xmlns="http://www.w3.org/2000/svg" xlink="http://www.w3.org/1999/xlink" width="20px" height="20px" viewBox="0 0 15 15" version="1.1">
  <g id="surface1">
    <path d="M 1.875 12.855469 L 6.964844 12.855469 L 6.964844 3.214844 L 1.605469 3.214844 L 1.605469 12.589844 C 1.605469 12.660156 1.632812 12.722656 1.6875 12.777344 C 1.738281 12.832031 1.800781 12.855469 1.875 12.855469 Z M 13.394531 12.589844 L 13.394531 3.214844 L 8.035156 3.214844 L 8.035156 12.855469 L 13.125 12.855469 C 13.199219 12.855469 13.261719 12.832031 13.3125 12.777344 C 13.367188 12.722656 13.394531 12.660156 13.394531 12.589844 Z M 14.464844 2.410156 L 14.464844 12.589844 C 14.464844 12.957031 14.332031 13.273438 14.070312 13.535156 C 13.808594 13.796875 13.492188 13.929688 13.125 13.929688 L 1.875 13.929688 C 1.507812 13.929688 1.191406 13.796875 0.929688 13.535156 C 0.667969 13.273438 0.535156 12.957031 0.535156 12.589844 L 0.535156 2.410156 C 0.535156 2.042969 0.667969 1.726562 0.929688 1.464844 C 1.191406 1.203125 1.507812 1.070312 1.875 1.070312 L 13.125 1.070312 C 13.492188 1.070312 13.808594 1.203125 14.070312 1.464844 C 14.332031 1.726562 14.464844 2.042969 14.464844 2.410156 Z M 14.464844 2.410156 " fill="#FFFFFF"/>
  </g>
</svg>