<?xml version="1.0" encoding="UTF-8" standalone="yes"?>
<svg xmlns="http://www.w3.org/2000/svg" xmlns:xlink="http://www.w3.org/1999/xlink" width="20px" height="20px" viewBox="0 0 15 15" version="1.1">
  <g id="surface1">
    <path style=" stroke:none;fill-rule:nonzero;fill:rgb(0%,0%,0%);fill-opacity:1;" d="M 13.988281 4.738281 C 13.988281 4.960938 13.910156 5.152344 13.753906 5.308594 L 7.691406 11.367188 L 6.554688 12.503906 C 6.398438 12.660156 6.207031 12.738281 5.984375 12.738281 C 5.761719 12.738281 5.570312 12.660156 5.414062 12.503906 L 1.246094 8.335938 C 1.089844 8.179688 1.011719 7.992188 1.011719 7.769531 C 1.011719 7.542969 1.089844 7.355469 1.246094 7.199219 L 2.386719 6.058594 C 2.542969 5.902344 2.730469 5.824219 2.953125 5.824219 C 3.179688 5.824219 3.367188 5.902344 3.523438 6.058594 L 5.984375 8.53125 L 11.476562 3.03125 C 11.632812 2.875 11.820312 2.796875 12.046875 2.796875 C 12.269531 2.796875 12.457031 2.875 12.613281 3.03125 L 13.753906 4.167969 C 13.910156 4.324219 13.988281 4.515625 13.988281 4.738281 Z M 13.988281 4.738281 "/>
  </g>
</svg>