<svg xmlns="http://www.w3.org/2000/svg" xlink="http://www.w3.org/1999/xlink" width="20px" height="20px" viewBox="0 0 15 15" version="1.1">
  <g id="surface1">
    <path d="M 11.226562 7.558594 C 11.226562 7.945312 11.167969 8.238281 11.050781 8.445312 C 10.941406 8.640625 10.796875 8.738281 10.613281 8.738281 C 10.484375 8.738281 10.371094 8.714844 10.269531 8.664062 L 10.269531 6.789062 C 10.433594 6.621094 10.589844 6.539062 10.746094 6.539062 C 11.066406 6.539062 11.226562 6.878906 11.226562 7.558594 Z M 14.890625 7.257812 L 13.96875 7.257812 C 14.003906 6.710938 14.160156 6.4375 14.4375 6.4375 C 14.722656 6.4375 14.875 6.710938 14.890625 7.257812 Z M 1.839844 8.386719 C 1.839844 8.058594 1.75 7.800781 1.566406 7.621094 C 1.382812 7.441406 1.097656 7.28125 0.71875 7.140625 C 0.519531 7.066406 0.375 7 0.285156 6.9375 C 0.195312 6.878906 0.152344 6.808594 0.152344 6.730469 C 0.152344 6.585938 0.257812 6.511719 0.46875 6.511719 C 0.792969 6.511719 1.136719 6.605469 1.507812 6.789062 L 1.65625 5.851562 C 1.285156 5.671875 0.867188 5.582031 0.410156 5.582031 C -0.0195312 5.582031 -0.363281 5.6875 -0.621094 5.902344 C -0.886719 6.117188 -1.019531 6.421875 -1.019531 6.8125 C -1.019531 7.136719 -0.929688 7.390625 -0.75 7.570312 C -0.566406 7.753906 -0.289062 7.910156 0.0820312 8.042969 C 0.300781 8.121094 0.453125 8.195312 0.539062 8.257812 C 0.625 8.320312 0.667969 8.398438 0.667969 8.488281 C 0.667969 8.660156 0.535156 8.746094 0.269531 8.746094 C 0.105469 8.746094 -0.0898438 8.710938 -0.316406 8.640625 C -0.546875 8.574219 -0.746094 8.488281 -0.921875 8.386719 L -1.070312 9.332031 C -0.667969 9.5625 -0.199219 9.675781 0.335938 9.675781 C 0.785156 9.675781 1.148438 9.574219 1.414062 9.367188 C 1.699219 9.136719 1.839844 8.8125 1.839844 8.386719 Z M 4.3125 6.585938 L 4.46875 5.660156 L 3.667969 5.660156 L 3.667969 4.527344 L 2.585938 4.703125 L 2.4375 5.660156 L 2.050781 5.726562 L 1.910156 6.585938 L 2.425781 6.585938 L 2.425781 8.421875 C 2.425781 8.890625 2.550781 9.222656 2.796875 9.425781 C 3.007812 9.59375 3.316406 9.675781 3.726562 9.675781 C 3.902344 9.675781 4.125 9.644531 4.386719 9.585938 L 4.386719 8.597656 C 4.207031 8.636719 4.085938 8.65625 4.019531 8.65625 C 3.785156 8.65625 3.667969 8.515625 3.667969 8.238281 L 3.667969 6.585938 Z M 6.957031 6.796875 L 6.957031 5.632812 C 6.871094 5.617188 6.792969 5.609375 6.722656 5.609375 C 6.542969 5.609375 6.386719 5.652344 6.257812 5.742188 C 6.125 5.832031 6.03125 5.960938 5.976562 6.128906 L 5.894531 5.660156 L 4.796875 5.660156 L 4.796875 9.601562 L 6.050781 9.601562 L 6.050781 7.039062 C 6.195312 6.867188 6.425781 6.78125 6.738281 6.78125 C 6.828125 6.78125 6.898438 6.785156 6.957031 6.796875 Z M 7.265625 9.601562 L 8.519531 9.601562 L 8.519531 5.660156 L 7.265625 5.660156 Z M 12.472656 7.515625 C 12.472656 6.835938 12.347656 6.335938 12.09375 6.019531 C 11.871094 5.726562 11.5625 5.582031 11.167969 5.582031 C 10.808594 5.582031 10.484375 5.738281 10.1875 6.050781 L 10.121094 5.660156 L 9.015625 5.660156 L 9.015625 11.058594 L 10.269531 10.847656 L 10.269531 9.585938 C 10.472656 9.644531 10.660156 9.675781 10.839844 9.675781 C 11.304688 9.675781 11.675781 9.519531 11.960938 9.207031 C 12.300781 8.84375 12.472656 8.28125 12.472656 7.515625 Z M 8.554688 4.605469 C 8.554688 4.417969 8.492188 4.261719 8.363281 4.136719 C 8.234375 4.007812 8.078125 3.941406 7.894531 3.941406 C 7.710938 3.941406 7.554688 4.007812 7.425781 4.136719 C 7.296875 4.261719 7.230469 4.417969 7.230469 4.605469 C 7.230469 4.789062 7.296875 4.945312 7.425781 5.078125 C 7.554688 5.207031 7.710938 5.273438 7.894531 5.273438 C 8.078125 5.273438 8.234375 5.207031 8.363281 5.078125 C 8.492188 4.945312 8.554688 4.789062 8.554688 4.605469 Z M 16.070312 7.59375 C 16.070312 6.960938 15.9375 6.46875 15.667969 6.117188 C 15.390625 5.761719 14.988281 5.582031 14.464844 5.582031 C 13.929688 5.582031 13.507812 5.765625 13.195312 6.136719 C 12.886719 6.503906 12.730469 7.007812 12.730469 7.640625 C 12.730469 8.355469 12.90625 8.882812 13.257812 9.214844 C 13.566406 9.523438 14.015625 9.675781 14.605469 9.675781 C 15.171875 9.675781 15.617188 9.566406 15.945312 9.339844 L 15.8125 8.480469 C 15.492188 8.652344 15.136719 8.738281 14.742188 8.738281 C 14.5 8.738281 14.324219 8.6875 14.214844 8.578125 C 14.085938 8.472656 14.007812 8.289062 13.980469 8.027344 L 16.054688 8.027344 C 16.066406 7.949219 16.070312 7.804688 16.070312 7.59375 Z M 17.144531 2.144531 L 17.144531 12.855469 C 17.144531 13.148438 17.035156 13.398438 16.824219 13.609375 C 16.613281 13.824219 16.363281 13.929688 16.070312 13.929688 L -1.070312 13.929688 C -1.363281 13.929688 -1.613281 13.824219 -1.824219 13.609375 C -2.035156 13.398438 -2.144531 13.148438 -2.144531 12.855469 L -2.144531 2.144531 C -2.144531 1.851562 -2.035156 1.601562 -1.824219 1.390625 C -1.613281 1.175781 -1.363281 1.070312 -1.070312 1.070312 L 16.070312 1.070312 C 16.363281 1.070312 16.613281 1.175781 16.824219 1.390625 C 17.035156 1.601562 17.144531 1.851562 17.144531 2.144531 Z M 17.144531 2.144531 " fill="#FFFFFF"/>
  </g>
</svg>