<svg xmlns="http://www.w3.org/2000/svg" xlink="http://www.w3.org/1999/xlink" width="20px" height="20px" viewBox="0 0 15 15" version="1.1">
  <g id="surface1">
    <path d="M 15 7.5 C 15 8.472656 14.664062 9.367188 13.996094 10.191406 C 13.324219 11.015625 12.417969 11.664062 11.265625 12.140625 C 10.117188 12.617188 8.863281 12.855469 7.5 12.855469 C 7.109375 12.855469 6.703125 12.835938 6.285156 12.789062 C 5.179688 13.765625 3.898438 14.441406 2.4375 14.816406 C 2.164062 14.894531 1.84375 14.957031 1.480469 15 C 1.386719 15.011719 1.300781 14.984375 1.226562 14.925781 C 1.152344 14.863281 1.101562 14.78125 1.078125 14.683594 L 1.078125 14.671875 C 1.0625 14.652344 1.0625 14.617188 1.074219 14.574219 C 1.089844 14.527344 1.09375 14.5 1.09375 14.488281 C 1.089844 14.476562 1.101562 14.453125 1.128906 14.410156 L 1.179688 14.335938 L 1.238281 14.261719 L 1.304688 14.1875 C 1.34375 14.144531 1.429688 14.046875 1.566406 13.898438 C 1.699219 13.75 1.796875 13.644531 1.855469 13.582031 C 1.914062 13.515625 2 13.40625 2.113281 13.25 C 2.226562 13.09375 2.320312 12.953125 2.386719 12.824219 C 2.453125 12.695312 2.527344 12.53125 2.613281 12.328125 C 2.695312 12.128906 2.769531 11.917969 2.828125 11.695312 C 1.953125 11.195312 1.261719 10.582031 0.757812 9.851562 C 0.253906 9.121094 0 8.335938 0 7.5 C 0 6.773438 0.199219 6.082031 0.59375 5.421875 C 0.992188 4.757812 1.523438 4.1875 2.191406 3.707031 C 2.863281 3.226562 3.660156 2.847656 4.585938 2.566406 C 5.511719 2.285156 6.484375 2.144531 7.5 2.144531 C 8.863281 2.144531 10.117188 2.382812 11.265625 2.859375 C 12.417969 3.335938 13.324219 3.984375 13.996094 4.808594 C 14.664062 5.632812 15 6.527344 15 7.5 Z M 15 7.5 " fill="#FFFFFF"/>
  </g>
</svg>