<svg version="1.1" xmlns="http://www.w3.org/2000/svg" xlink="http://www.w3.org/1999/xlink" x="0px" y="0px" width="15px" height="18.75px" viewBox="0 0 15 18.75" style="enable-background:new 0 0 15 15;" space="preserve">
    <path d="M5.859375,8.203125v2.34375h11.71875v-2.34375c0,-1.292724609375,1.051025390625,-2.34375,2.34375,-2.34375h1.171875c0,-1.94091796875,-1.57470703125,-3.515625,-3.515625,-3.515625H5.859375c-1.94091796875,0,-3.515625,1.57470703125,-3.515625,3.515625h1.171875c1.292724609375,0,2.34375,1.051025390625,2.34375,2.34375zm15.234375,-1.171875h-1.171875c-0.648193359375,0,-1.171875,0.523681640625,-1.171875,1.171875v3.515625H4.6875v-3.515625c0,-0.648193359375,-0.523681640625,-1.171875,-1.171875,-1.171875H2.34375c-1.292724609375,0,-2.34375,1.051025390625,-2.34375,2.34375c0,0.8642578125,0.47607421875,1.611328125,1.171875,2.017822265625V15.8203125c0,0.322265625,0.263671875,0.5859375,0.5859375,0.5859375h2.34375c0.322265625,0,0.5859375,-0.263671875,0.5859375,-0.5859375v-0.5859375h14.0625v0.5859375c0,0.322265625,0.263671875,0.5859375,0.5859375,0.5859375h2.34375c0.322265625,0,0.5859375,-0.263671875,0.5859375,-0.5859375V11.392822265625c0.69580078125,-0.406494140625,1.171875,-1.153564453125,1.171875,-2.017822265625c0,-1.292724609375,-1.051025390625,-2.34375,-2.34375,-2.34375z" fill="#FFFFFF"/>
    </svg>