<?xml version="1.0" encoding="UTF-8" standalone="yes"?>
<svg xmlns="http://www.w3.org/2000/svg" xmlns:xlink="http://www.w3.org/1999/xlink" width="20px" height="20px" viewBox="0 0 15 15" version="1.1">
  <g id="surface1">
    <path style=" stroke:none;fill-rule:nonzero;fill:rgb(0%,0%,0%);fill-opacity:1;" d="M 0.476562 6.503906 C 0.476562 6.789062 0.375 7.023438 0.175781 7.207031 C 0.015625 7.351562 -0.234375 7.425781 -0.570312 7.425781 L -0.710938 7.425781 L -0.710938 5.582031 L -0.570312 5.582031 C -0.230469 5.582031 0.0195312 5.660156 0.175781 5.808594 C 0.375 5.980469 0.476562 6.214844 0.476562 6.503906 Z M 15.34375 5.960938 C 15.34375 6.25 15.164062 6.394531 14.808594 6.394531 L 14.648438 6.394531 L 14.648438 5.550781 L 14.816406 5.550781 C 15.167969 5.550781 15.34375 5.6875 15.34375 5.960938 Z M 1.039062 6.503906 C 1.039062 6.089844 0.898438 5.753906 0.621094 5.496094 C 0.339844 5.234375 -0.0195312 5.105469 -0.460938 5.105469 L -1.253906 5.105469 L -1.253906 7.894531 L -0.460938 7.894531 C -0.046875 7.894531 0.285156 7.789062 0.535156 7.574219 C 0.871094 7.289062 1.039062 6.933594 1.039062 6.503906 Z M 1.289062 7.894531 L 1.832031 7.894531 L 1.832031 5.105469 L 1.289062 5.105469 Z M 3.96875 7.046875 C 3.96875 6.824219 3.910156 6.652344 3.796875 6.527344 C 3.679688 6.40625 3.472656 6.289062 3.164062 6.175781 C 3.003906 6.121094 2.890625 6.070312 2.832031 6.019531 C 2.773438 5.96875 2.746094 5.902344 2.746094 5.824219 C 2.746094 5.738281 2.78125 5.664062 2.859375 5.605469 C 2.933594 5.546875 3.03125 5.515625 3.148438 5.515625 C 3.308594 5.515625 3.457031 5.589844 3.589844 5.742188 L 3.875 5.375 C 3.648438 5.167969 3.375 5.0625 3.054688 5.0625 C 2.808594 5.0625 2.601562 5.140625 2.4375 5.292969 C 2.269531 5.449219 2.183594 5.636719 2.183594 5.859375 C 2.183594 6.054688 2.234375 6.210938 2.335938 6.324219 C 2.4375 6.4375 2.613281 6.539062 2.871094 6.628906 C 3.078125 6.703125 3.203125 6.753906 3.246094 6.789062 C 3.355469 6.855469 3.40625 6.949219 3.40625 7.074219 C 3.40625 7.183594 3.367188 7.277344 3.289062 7.351562 C 3.210938 7.429688 3.109375 7.464844 2.988281 7.464844 C 2.71875 7.464844 2.523438 7.34375 2.394531 7.097656 L 2.042969 7.433594 C 2.289062 7.789062 2.609375 7.96875 3.003906 7.96875 C 3.289062 7.96875 3.519531 7.882812 3.699219 7.714844 C 3.878906 7.542969 3.96875 7.320312 3.96875 7.046875 Z M 6.292969 7.800781 L 6.292969 7.15625 C 6.089844 7.363281 5.871094 7.464844 5.640625 7.464844 C 5.367188 7.464844 5.144531 7.375 4.96875 7.195312 C 4.792969 7.011719 4.703125 6.78125 4.703125 6.503906 C 4.703125 6.234375 4.792969 6.007812 4.96875 5.820312 C 5.144531 5.632812 5.359375 5.542969 5.617188 5.542969 C 5.855469 5.542969 6.082031 5.648438 6.292969 5.859375 L 6.292969 5.214844 C 6.070312 5.101562 5.847656 5.046875 5.625 5.046875 C 5.210938 5.046875 4.863281 5.1875 4.574219 5.46875 C 4.285156 5.75 4.144531 6.097656 4.144531 6.503906 C 4.144531 6.910156 4.285156 7.253906 4.570312 7.539062 C 4.855469 7.820312 5.203125 7.960938 5.617188 7.960938 C 5.851562 7.960938 6.078125 7.90625 6.292969 7.800781 Z M 16.605469 12.855469 L 16.605469 8.445312 C 16.246094 8.667969 15.839844 8.902344 15.398438 9.148438 C 14.953125 9.394531 14.292969 9.722656 13.410156 10.128906 C 12.527344 10.535156 11.609375 10.917969 10.652344 11.28125 C 9.695312 11.640625 8.53125 12.015625 7.15625 12.40625 C 5.785156 12.796875 4.378906 13.125 2.9375 13.394531 L 16.070312 13.394531 C 16.214844 13.394531 16.34375 13.339844 16.449219 13.234375 C 16.554688 13.128906 16.605469 13.003906 16.605469 12.855469 Z M 9.484375 6.519531 C 9.484375 6.101562 9.335938 5.746094 9.039062 5.449219 C 8.746094 5.152344 8.386719 5.003906 7.96875 5.003906 C 7.550781 5.003906 7.191406 5.152344 6.898438 5.449219 C 6.601562 5.746094 6.453125 6.101562 6.453125 6.519531 C 6.453125 6.9375 6.601562 7.296875 6.898438 7.59375 C 7.191406 7.886719 7.550781 8.035156 7.96875 8.035156 C 8.386719 8.035156 8.746094 7.886719 9.039062 7.59375 C 9.335938 7.296875 9.484375 6.9375 9.484375 6.519531 Z M 10.757812 7.96875 L 11.960938 5.105469 L 11.367188 5.105469 L 10.613281 6.980469 L 9.867188 5.105469 L 9.273438 5.105469 L 10.464844 7.96875 Z M 12.203125 7.894531 L 13.746094 7.894531 L 13.746094 7.425781 L 12.75 7.425781 L 12.75 6.671875 L 13.710938 6.671875 L 13.710938 6.203125 L 12.75 6.203125 L 12.75 5.582031 L 13.746094 5.582031 L 13.746094 5.105469 L 12.203125 5.105469 Z M 15.476562 7.894531 L 16.148438 7.894531 L 15.269531 6.722656 C 15.691406 6.632812 15.902344 6.371094 15.902344 5.933594 C 15.902344 5.671875 15.816406 5.46875 15.644531 5.324219 C 15.472656 5.179688 15.230469 5.105469 14.917969 5.105469 L 14.105469 5.105469 L 14.105469 7.894531 L 14.648438 7.894531 L 14.648438 6.78125 L 14.722656 6.78125 Z M 17.144531 2.191406 L 17.144531 12.808594 C 17.144531 13.121094 17.035156 13.382812 16.820312 13.601562 C 16.605469 13.820312 16.34375 13.929688 16.039062 13.929688 L -1.039062 13.929688 C -1.34375 13.929688 -1.605469 13.820312 -1.820312 13.601562 C -2.035156 13.382812 -2.144531 13.121094 -2.144531 12.808594 L -2.144531 2.191406 C -2.144531 1.878906 -2.035156 1.617188 -1.820312 1.398438 C -1.605469 1.179688 -1.34375 1.070312 -1.039062 1.070312 L 16.039062 1.070312 C 16.34375 1.070312 16.605469 1.179688 16.820312 1.398438 C 17.035156 1.617188 17.144531 1.878906 17.144531 2.191406 Z M 17.144531 2.191406 "/>
  </g>
</svg>