<?xml version="1.0" encoding="UTF-8" standalone="yes"?>
<svg xmlns="http://www.w3.org/2000/svg" xmlns:xlink="http://www.w3.org/1999/xlink" width="20px" height="20px" viewBox="0 0 15 15" version="1.1">
  <g id="surface1">
    <path style=" stroke:none;fill-rule:nonzero;fill:rgb(0%,0%,0%);fill-opacity:1;" d="M 12.964844 5.683594 C 13.273438 5.683594 13.511719 5.761719 13.679688 5.921875 C 13.851562 6.082031 13.9375 6.3125 13.9375 6.621094 C 13.9375 6.929688 13.84375 7.15625 13.652344 7.308594 C 13.460938 7.457031 13.207031 7.535156 12.890625 7.535156 L 11.753906 7.535156 L 11.753906 9.015625 L 11.542969 9.015625 L 11.542969 5.683594 Z M 14.3125 10.621094 L 14.28125 10.714844 L 14.238281 10.796875 C 13.609375 12.082031 12.6875 13.101562 11.472656 13.863281 C 10.257812 14.621094 8.933594 15 7.5 15 C 6.484375 15 5.511719 14.800781 4.585938 14.40625 C 3.660156 14.007812 2.863281 13.476562 2.191406 12.808594 C 1.523438 12.136719 0.992188 11.339844 0.59375 10.414062 C 0.199219 9.488281 0 8.515625 0 7.5 C 0 6.484375 0.199219 5.511719 0.59375 4.585938 C 0.992188 3.660156 1.523438 2.863281 2.191406 2.191406 C 2.863281 1.523438 3.660156 0.992188 4.585938 0.59375 C 5.511719 0.199219 6.484375 0 7.5 0 C 8.863281 0 10.128906 0.347656 11.304688 1.039062 C 12.480469 1.730469 13.398438 2.671875 14.0625 3.867188 L 14.078125 3.902344 L 14.144531 4.035156 C 13.980469 4.117188 13.597656 4.308594 13.003906 4.609375 C 12.410156 4.90625 11.953125 5.140625 11.636719 5.316406 C 11.601562 5.332031 10.265625 6.078125 7.625 7.558594 C 9.769531 8.578125 11.996094 9.601562 14.3125 10.621094 Z M 7.5 14.816406 C 8.894531 14.816406 10.183594 14.445312 11.371094 13.707031 C 12.558594 12.96875 13.457031 11.96875 14.070312 10.714844 L 11.667969 9.632812 C 11.265625 10.414062 10.691406 11.035156 9.945312 11.492188 C 9.195312 11.949219 8.382812 12.179688 7.5 12.179688 C 6.65625 12.179688 5.875 11.96875 5.15625 11.550781 C 4.4375 11.132812 3.867188 10.5625 3.449219 9.84375 C 3.03125 9.125 2.820312 8.34375 2.820312 7.5 C 2.820312 6.65625 3.03125 5.875 3.449219 5.15625 C 3.867188 4.4375 4.4375 3.867188 5.15625 3.449219 C 5.875 3.03125 6.65625 2.820312 7.5 2.820312 C 8.34375 2.820312 9.125 3.027344 9.84375 3.4375 C 10.5625 3.847656 11.132812 4.417969 11.550781 5.148438 L 13.894531 3.949219 C 13.246094 2.789062 12.351562 1.871094 11.207031 1.195312 C 10.0625 0.523438 8.828125 0.183594 7.5 0.183594 C 6.835938 0.183594 6.1875 0.273438 5.554688 0.449219 C 4.921875 0.625 4.335938 0.867188 3.804688 1.179688 C 3.269531 1.492188 2.777344 1.875 2.328125 2.328125 C 1.875 2.777344 1.492188 3.269531 1.179688 3.804688 C 0.867188 4.335938 0.625 4.921875 0.449219 5.554688 C 0.273438 6.1875 0.183594 6.835938 0.183594 7.5 C 0.183594 8.164062 0.273438 8.8125 0.449219 9.445312 C 0.625 10.078125 0.867188 10.664062 1.179688 11.195312 C 1.492188 11.726562 1.875 12.222656 2.328125 12.671875 C 2.777344 13.125 3.269531 13.507812 3.804688 13.820312 C 4.335938 14.132812 4.921875 14.375 5.554688 14.550781 C 6.1875 14.726562 6.835938 14.816406 7.5 14.816406 Z M 7.5 14.816406 "/>
  </g>
</svg>