<svg xmlns="http://www.w3.org/2000/svg" xlink="http://www.w3.org/1999/xlink" width="20px" height="20px" viewBox="0 0 15 15" version="1.1">
  <g id="surface1">
    <path d="M 14.195312 3.214844 C 14.417969 3.214844 14.609375 3.292969 14.765625 3.449219 C 14.921875 3.605469 15 3.792969 15 4.019531 L 15 14.195312 C 15 14.417969 14.921875 14.609375 14.765625 14.765625 C 14.609375 14.921875 14.417969 15 14.195312 15 L 6.160156 15 C 5.9375 15 5.746094 14.921875 5.589844 14.765625 C 5.433594 14.609375 5.355469 14.417969 5.355469 14.195312 L 5.355469 11.785156 L 0.804688 11.785156 C 0.582031 11.785156 0.390625 11.707031 0.234375 11.550781 C 0.078125 11.394531 0 11.207031 0 10.980469 L 0 5.355469 C 0 5.132812 0.0546875 4.886719 0.167969 4.621094 C 0.277344 4.351562 0.414062 4.140625 0.570312 3.984375 L 3.984375 0.570312 C 4.140625 0.414062 4.351562 0.277344 4.621094 0.167969 C 4.886719 0.0546875 5.132812 0 5.355469 0 L 8.839844 0 C 9.0625 0 9.253906 0.078125 9.410156 0.234375 C 9.566406 0.390625 9.644531 0.582031 9.644531 0.804688 L 9.644531 3.550781 C 10.023438 3.324219 10.378906 3.214844 10.714844 3.214844 Z M 9.644531 4.996094 L 7.140625 7.5 L 9.644531 7.5 Z M 4.285156 1.78125 L 1.78125 4.285156 L 4.285156 4.285156 Z M 5.925781 7.199219 L 8.570312 4.554688 L 8.570312 1.070312 L 5.355469 1.070312 L 5.355469 4.554688 C 5.355469 4.777344 5.277344 4.964844 5.121094 5.121094 C 4.964844 5.277344 4.777344 5.355469 4.554688 5.355469 L 1.070312 5.355469 L 1.070312 10.714844 L 5.355469 10.714844 L 5.355469 8.570312 C 5.355469 8.347656 5.414062 8.101562 5.523438 7.835938 C 5.636719 7.566406 5.769531 7.355469 5.925781 7.199219 Z M 13.929688 13.929688 L 13.929688 4.285156 L 10.714844 4.285156 L 10.714844 7.769531 C 10.714844 7.992188 10.636719 8.179688 10.480469 8.335938 C 10.324219 8.492188 10.132812 8.570312 9.910156 8.570312 L 6.429688 8.570312 L 6.429688 13.929688 Z M 13.929688 13.929688 " fill="#FFFFFF"/>
  </g>
</svg>