<svg xmlns="http://www.w3.org/2000/svg" xlink="http://www.w3.org/1999/xlink" width="20px" height="20px" viewBox="0 0 15 15" version="1.1">
  <g id="surface1">
    <path d="M 1.808594 9.785156 L 6.855469 13.148438 L 6.855469 10.144531 L 4.058594 8.277344 Z M 1.289062 8.578125 L 2.90625 7.5 L 1.289062 6.421875 Z M 8.144531 13.148438 L 13.191406 9.785156 L 10.941406 8.277344 L 8.144531 10.144531 Z M 7.5 9.023438 L 9.777344 7.5 L 7.5 5.976562 L 5.222656 7.5 Z M 4.058594 6.722656 L 6.855469 4.855469 L 6.855469 1.851562 L 1.808594 5.214844 Z M 12.09375 7.5 L 13.710938 8.578125 L 13.710938 6.421875 Z M 10.941406 6.722656 L 13.191406 5.214844 L 8.144531 1.851562 L 8.144531 4.855469 Z M 15 5.214844 L 15 9.785156 C 15 10.015625 14.90625 10.191406 14.714844 10.320312 L 7.859375 14.890625 C 7.742188 14.964844 7.621094 15 7.5 15 C 7.378906 15 7.257812 14.964844 7.140625 14.890625 L 0.285156 10.320312 C 0.09375 10.191406 0 10.015625 0 9.785156 L 0 5.214844 C 0 4.984375 0.09375 4.808594 0.285156 4.679688 L 7.140625 0.109375 C 7.257812 0.0351562 7.378906 0 7.5 0 C 7.621094 0 7.742188 0.0351562 7.859375 0.109375 L 14.714844 4.679688 C 14.90625 4.808594 15 4.984375 15 5.214844 Z M 15 5.214844 " fill="#FFFFFF"/>
  </g>
</svg>