<svg xmlns="http://www.w3.org/2000/svg" xlink="http://www.w3.org/1999/xlink" width="20px" height="20px" viewBox="0 0 15 15" version="1.1">
  <g id="surface1">
    <path d="M 11.785156 10.179688 C 11.785156 10.324219 11.734375 10.449219 11.625 10.554688 C 11.519531 10.660156 11.394531 10.714844 11.25 10.714844 L 3.75 10.714844 C 3.605469 10.714844 3.480469 10.660156 3.375 10.554688 C 3.265625 10.449219 3.214844 10.324219 3.214844 10.179688 C 3.214844 10.035156 3.265625 9.90625 3.375 9.800781 L 7.125 6.050781 C 7.230469 5.945312 7.355469 5.894531 7.5 5.894531 C 7.644531 5.894531 7.769531 5.945312 7.875 6.050781 L 11.625 9.800781 C 11.734375 9.90625 11.785156 10.035156 11.785156 10.179688 Z M 11.785156 10.179688 " fill="#FFFFFF"/>
  </g>
</svg>