<?xml version="1.0" encoding="UTF-8" standalone="yes"?>
<svg xmlns="http://www.w3.org/2000/svg" xmlns:xlink="http://www.w3.org/1999/xlink" width="20px" height="20px" viewBox="0 0 15 15" version="1.1">
  <g id="surface1">
    <path style=" stroke:none;fill-rule:nonzero;fill:rgb(0%,0%,0%);fill-opacity:1;" d="M 9.300781 11.59375 L 8.914062 11.976562 C 8.863281 12.027344 8.804688 12.054688 8.730469 12.054688 C 8.65625 12.054688 8.59375 12.027344 8.539062 11.976562 L 6.964844 10.394531 L 5.390625 11.976562 C 5.335938 12.027344 5.269531 12.054688 5.199219 12.054688 C 5.125 12.054688 5.0625 12.027344 5.015625 11.976562 L 4.628906 11.59375 C 4.578125 11.542969 4.554688 11.480469 4.554688 11.410156 C 4.554688 11.335938 4.578125 11.273438 4.628906 11.214844 L 6.210938 9.644531 L 4.628906 8.070312 C 4.578125 8.011719 4.554688 7.949219 4.554688 7.875 C 4.554688 7.804688 4.578125 7.742188 4.628906 7.691406 L 5.015625 7.308594 C 5.0625 7.257812 5.125 7.230469 5.199219 7.230469 C 5.269531 7.230469 5.335938 7.257812 5.390625 7.308594 L 6.964844 8.882812 L 8.539062 7.308594 C 8.59375 7.257812 8.65625 7.230469 8.730469 7.230469 C 8.804688 7.230469 8.863281 7.257812 8.914062 7.308594 L 9.300781 7.691406 C 9.351562 7.742188 9.375 7.804688 9.375 7.875 C 9.375 7.949219 9.351562 8.011719 9.300781 8.070312 L 7.726562 9.644531 L 9.300781 11.214844 C 9.351562 11.273438 9.375 11.335938 9.375 11.410156 C 9.375 11.480469 9.351562 11.542969 9.300781 11.59375 Z M 1.070312 13.929688 L 12.855469 13.929688 L 12.855469 5.355469 L 1.070312 5.355469 Z M 4.285156 3.75 L 4.285156 1.339844 C 4.285156 1.261719 4.261719 1.195312 4.210938 1.148438 C 4.160156 1.097656 4.097656 1.070312 4.019531 1.070312 L 3.480469 1.070312 C 3.402344 1.070312 3.339844 1.097656 3.289062 1.148438 C 3.238281 1.195312 3.214844 1.261719 3.214844 1.339844 L 3.214844 3.75 C 3.214844 3.828125 3.238281 3.890625 3.289062 3.941406 C 3.339844 3.992188 3.402344 4.019531 3.480469 4.019531 L 4.019531 4.019531 C 4.097656 4.019531 4.160156 3.992188 4.210938 3.941406 C 4.261719 3.890625 4.285156 3.828125 4.285156 3.75 Z M 10.714844 3.75 L 10.714844 1.339844 C 10.714844 1.261719 10.6875 1.195312 10.640625 1.148438 C 10.589844 1.097656 10.523438 1.070312 10.445312 1.070312 L 9.910156 1.070312 C 9.832031 1.070312 9.769531 1.097656 9.71875 1.148438 C 9.667969 1.195312 9.644531 1.261719 9.644531 1.339844 L 9.644531 3.75 C 9.644531 3.828125 9.667969 3.890625 9.71875 3.941406 C 9.769531 3.992188 9.832031 4.019531 9.910156 4.019531 L 10.445312 4.019531 C 10.523438 4.019531 10.589844 3.992188 10.640625 3.941406 C 10.6875 3.890625 10.714844 3.828125 10.714844 3.75 Z M 13.929688 3.214844 L 13.929688 13.929688 C 13.929688 14.21875 13.824219 14.46875 13.609375 14.683594 C 13.398438 14.894531 13.148438 15 12.855469 15 L 1.070312 15 C 0.78125 15 0.53125 14.894531 0.316406 14.683594 C 0.105469 14.46875 0 14.21875 0 13.929688 L 0 3.214844 C 0 2.925781 0.105469 2.671875 0.316406 2.460938 C 0.53125 2.25 0.78125 2.144531 1.070312 2.144531 L 2.144531 2.144531 L 2.144531 1.339844 C 2.144531 0.972656 2.273438 0.65625 2.535156 0.394531 C 2.796875 0.132812 3.113281 0 3.480469 0 L 4.019531 0 C 4.386719 0 4.703125 0.132812 4.964844 0.394531 C 5.226562 0.65625 5.355469 0.972656 5.355469 1.339844 L 5.355469 2.144531 L 8.570312 2.144531 L 8.570312 1.339844 C 8.570312 0.972656 8.703125 0.65625 8.964844 0.394531 C 9.226562 0.132812 9.542969 0 9.910156 0 L 10.445312 0 C 10.816406 0 11.128906 0.132812 11.390625 0.394531 C 11.65625 0.65625 11.785156 0.972656 11.785156 1.339844 L 11.785156 2.144531 L 12.855469 2.144531 C 13.148438 2.144531 13.398438 2.25 13.609375 2.460938 C 13.824219 2.671875 13.929688 2.925781 13.929688 3.214844 Z M 13.929688 3.214844 "/>
  </g>
</svg>