<?xml version="1.0" encoding="UTF-8" standalone="yes"?>
<svg xmlns="http://www.w3.org/2000/svg" xmlns:xlink="http://www.w3.org/1999/xlink" width="20px" height="20px" viewBox="0 0 15 15" version="1.1">
  <g id="surface1">
    <path style=" stroke:none;fill-rule:nonzero;fill:rgb(0%,0%,0%);fill-opacity:1;" d="M 12.589844 7.5 L 13.746094 8.628906 C 13.910156 8.785156 13.96875 8.980469 13.910156 9.214844 C 13.84375 9.445312 13.699219 9.585938 13.476562 9.644531 L 11.902344 10.042969 L 12.347656 11.601562 C 12.414062 11.832031 12.359375 12.027344 12.1875 12.1875 C 12.027344 12.359375 11.832031 12.414062 11.601562 12.347656 L 10.042969 11.902344 L 9.644531 13.476562 C 9.585938 13.699219 9.445312 13.84375 9.214844 13.910156 C 9.148438 13.921875 9.097656 13.929688 9.058594 13.929688 C 8.882812 13.929688 8.742188 13.867188 8.628906 13.746094 L 7.5 12.589844 L 6.371094 13.746094 C 6.214844 13.910156 6.019531 13.96875 5.785156 13.910156 C 5.554688 13.851562 5.414062 13.707031 5.355469 13.476562 L 4.957031 11.902344 L 3.398438 12.347656 C 3.167969 12.414062 2.972656 12.359375 2.8125 12.1875 C 2.640625 12.027344 2.585938 11.832031 2.652344 11.601562 L 3.097656 10.042969 L 1.523438 9.644531 C 1.300781 9.585938 1.15625 9.445312 1.089844 9.214844 C 1.03125 8.980469 1.089844 8.785156 1.253906 8.628906 L 2.410156 7.5 L 1.253906 6.371094 C 1.089844 6.214844 1.03125 6.019531 1.089844 5.785156 C 1.15625 5.554688 1.300781 5.414062 1.523438 5.355469 L 3.097656 4.957031 L 2.652344 3.398438 C 2.585938 3.167969 2.640625 2.972656 2.8125 2.8125 C 2.972656 2.640625 3.167969 2.585938 3.398438 2.652344 L 4.957031 3.097656 L 5.355469 1.523438 C 5.414062 1.292969 5.554688 1.152344 5.785156 1.097656 C 6.011719 1.03125 6.207031 1.082031 6.371094 1.253906 L 7.5 2.417969 L 8.628906 1.253906 C 8.792969 1.089844 8.988281 1.035156 9.214844 1.097656 C 9.445312 1.152344 9.585938 1.292969 9.644531 1.523438 L 10.042969 3.097656 L 11.601562 2.652344 C 11.832031 2.585938 12.027344 2.640625 12.1875 2.8125 C 12.359375 2.972656 12.414062 3.167969 12.347656 3.398438 L 11.902344 4.957031 L 13.476562 5.355469 C 13.699219 5.414062 13.84375 5.554688 13.910156 5.785156 C 13.96875 6.019531 13.910156 6.214844 13.746094 6.371094 Z M 12.589844 7.5 "/>
  </g>
</svg>