<svg version="1.1" xmlns="http://www.w3.org/2000/svg" xlink="http://www.w3.org/1999/xlink" x="0px" y="0px" width="15px" height="18.75px" viewBox="0 0 15 18.75" style="enable-background:new 0 0 15 15;" space="preserve">
    <path d="M17.009033203125,9.03369140625L12.890625,6.5625V4.6875h1.7578125c0.32373046875,0,0.5859375,-0.26220703125,0.5859375,-0.5859375V2.9296875c0,-0.32373046875,-0.26220703125,-0.5859375,-0.5859375,-0.5859375h-1.7578125V0.5859375c0,-0.32373046875,-0.26220703125,-0.5859375,-0.5859375,-0.5859375h-1.171875c-0.32373046875,0,-0.5859375,0.26220703125,-0.5859375,0.5859375v1.7578125h-1.7578125c-0.32373046875,0,-0.5859375,0.26220703125,-0.5859375,0.5859375v1.171875c0,0.32373046875,0.26220703125,0.5859375,0.5859375,0.5859375h1.7578125v1.875l-4.118408203125,2.47119140625A1.17176513671875,1.17176513671875,0,0,0,5.859375,10.03857421875V18.75h3.515625v-3.515625c0,-1.2945556640625,1.0491943359375,-2.34375,2.34375,-2.34375s2.34375,1.0491943359375,2.34375,2.34375v3.515625h3.515625V10.03857421875c0,-0.41162109375,-0.216064453125,-0.793212890625,-0.569091796875,-1.0048828125zM0,14.50048828125V18.1640625c0,0.32373046875,0.26220703125,0.5859375,0.5859375,0.5859375h4.1015625V11.71875L0.7100830078125,13.423095703125A1.17275390625,1.17275390625,0,0,0,0,14.50048828125zm22.7274169921875,-1.077392578125L18.75,11.71875v7.03125h4.1015625c0.32373046875,0,0.5859375,-0.26220703125,0.5859375,-0.5859375V14.50048828125c0,-0.46875,-0.2794189453125,-0.8924560546875,-0.7100830078125,-1.077392578125z" fill="#FFFFFF"/>
    </svg>