<?xml version="1.0" encoding="UTF-8" standalone="yes"?>
<svg xmlns="http://www.w3.org/2000/svg" xmlns:xlink="http://www.w3.org/1999/xlink" width="20px" height="20px" viewBox="0 0 15 15" version="1.1">
  <g id="surface1">
    <path style=" stroke:none;fill-rule:nonzero;fill:rgb(0%,0%,0%);fill-opacity:1;" d="M -2.144531 12.589844 L -2.144531 7.5 L 17.144531 7.5 L 17.144531 12.589844 C 17.144531 12.957031 17.011719 13.273438 16.75 13.535156 C 16.488281 13.796875 16.171875 13.929688 15.804688 13.929688 L -0.804688 13.929688 C -1.171875 13.929688 -1.488281 13.796875 -1.75 13.535156 C -2.011719 13.273438 -2.144531 12.957031 -2.144531 12.589844 Z M 3.214844 10.714844 L 3.214844 11.785156 L 6.429688 11.785156 L 6.429688 10.714844 Z M 0 10.714844 L 0 11.785156 L 2.144531 11.785156 L 2.144531 10.714844 Z M 15.804688 1.070312 C 16.171875 1.070312 16.488281 1.203125 16.75 1.464844 C 17.011719 1.726562 17.144531 2.042969 17.144531 2.410156 L 17.144531 4.285156 L -2.144531 4.285156 L -2.144531 2.410156 C -2.144531 2.042969 -2.011719 1.726562 -1.75 1.464844 C -1.488281 1.203125 -1.171875 1.070312 -0.804688 1.070312 Z M 15.804688 1.070312 "/>
  </g>
</svg>