<?xml version="1.0" encoding="UTF-8" standalone="yes"?>
<svg xmlns="http://www.w3.org/2000/svg" xmlns:xlink="http://www.w3.org/1999/xlink" width="20px" height="20px" viewBox="0 0 15 15" version="1.1">
  <g id="surface1">
    <path style=" stroke:none;fill-rule:nonzero;fill:rgb(0%,0%,0%);fill-opacity:1;" d="M 5.199219 10.714844 L 10.179688 10.714844 L 10.179688 5.734375 Z M 4.820312 10.335938 L 9.800781 5.355469 L 4.820312 5.355469 Z M 14.464844 10.980469 L 14.464844 12.589844 C 14.464844 12.667969 14.4375 12.730469 14.390625 12.78125 C 14.339844 12.832031 14.273438 12.855469 14.195312 12.855469 L 12.320312 12.855469 L 12.320312 14.730469 C 12.320312 14.808594 12.296875 14.875 12.246094 14.925781 C 12.195312 14.976562 12.132812 15 12.054688 15 L 10.445312 15 C 10.367188 15 10.304688 14.976562 10.253906 14.925781 C 10.203125 14.875 10.179688 14.808594 10.179688 14.730469 L 10.179688 12.855469 L 2.945312 12.855469 C 2.867188 12.855469 2.804688 12.832031 2.753906 12.78125 C 2.703125 12.730469 2.679688 12.667969 2.679688 12.589844 L 2.679688 5.355469 L 0.804688 5.355469 C 0.726562 5.355469 0.660156 5.332031 0.609375 5.28125 C 0.5625 5.230469 0.535156 5.167969 0.535156 5.089844 L 0.535156 3.480469 C 0.535156 3.402344 0.5625 3.339844 0.609375 3.289062 C 0.660156 3.238281 0.726562 3.214844 0.804688 3.214844 L 2.679688 3.214844 L 2.679688 1.339844 C 2.679688 1.261719 2.703125 1.195312 2.753906 1.148438 C 2.804688 1.097656 2.867188 1.070312 2.945312 1.070312 L 4.554688 1.070312 C 4.632812 1.070312 4.695312 1.097656 4.746094 1.148438 C 4.796875 1.195312 4.820312 1.261719 4.820312 1.339844 L 4.820312 3.214844 L 11.945312 3.214844 L 14.003906 1.148438 C 14.058594 1.097656 14.125 1.070312 14.195312 1.070312 C 14.269531 1.070312 14.332031 1.097656 14.390625 1.148438 C 14.4375 1.203125 14.464844 1.265625 14.464844 1.339844 C 14.464844 1.410156 14.4375 1.476562 14.390625 1.53125 L 12.320312 3.589844 L 12.320312 10.714844 L 14.195312 10.714844 C 14.273438 10.714844 14.339844 10.738281 14.390625 10.789062 C 14.4375 10.839844 14.464844 10.902344 14.464844 10.980469 Z M 14.464844 10.980469 "/>
  </g>
</svg>