<svg xmlns="http://www.w3.org/2000/svg" xlink="http://www.w3.org/1999/xlink" width="20px" height="20px" viewBox="0 0 15 15" version="1.1">
  <g id="surface1">
    <path d="M 7.5 13.636719 L 12.855469 10.714844 L 12.855469 5.390625 L 7.5 7.339844 Z M 6.964844 6.394531 L 12.808594 4.269531 L 6.964844 2.144531 L 1.121094 4.269531 Z M 13.929688 4.285156 L 13.929688 10.714844 C 13.929688 10.910156 13.878906 11.089844 13.777344 11.257812 C 13.675781 11.425781 13.539062 11.558594 13.367188 11.652344 L 7.476562 14.867188 C 7.320312 14.957031 7.148438 15 6.964844 15 C 6.78125 15 6.609375 14.957031 6.453125 14.867188 L 0.5625 11.652344 C 0.386719 11.558594 0.25 11.425781 0.152344 11.257812 C 0.0507812 11.089844 0 10.910156 0 10.714844 L 0 4.285156 C 0 4.0625 0.0625 3.859375 0.191406 3.675781 C 0.320312 3.492188 0.492188 3.359375 0.703125 3.28125 L 6.597656 1.136719 C 6.71875 1.09375 6.839844 1.070312 6.964844 1.070312 C 7.085938 1.070312 7.210938 1.09375 7.332031 1.136719 L 13.226562 3.28125 C 13.4375 3.359375 13.609375 3.492188 13.734375 3.675781 C 13.863281 3.859375 13.929688 4.0625 13.929688 4.285156 Z M 13.929688 4.285156 " fill="#FFFFFF"/>
  </g>
</svg>