<?xml version="1.0" encoding="UTF-8" standalone="yes"?>
<svg xmlns="http://www.w3.org/2000/svg" xmlns:xlink="http://www.w3.org/1999/xlink" width="20px" height="20px" viewBox="0 0 15 15" version="1.1">
  <g id="surface1">
    <path style=" stroke:none;fill-rule:nonzero;fill:rgb(0%,0%,0%);fill-opacity:1;" d="M 7.5 8.035156 L 7.5 11.785156 C 7.5 11.929688 7.445312 12.054688 7.339844 12.164062 C 7.234375 12.269531 7.109375 12.320312 6.964844 12.320312 C 6.820312 12.320312 6.695312 12.269531 6.585938 12.164062 L 5.382812 10.957031 L 2.601562 13.734375 C 2.546875 13.792969 2.484375 13.820312 2.410156 13.820312 C 2.339844 13.820312 2.273438 13.792969 2.21875 13.734375 L 1.265625 12.78125 C 1.207031 12.726562 1.179688 12.660156 1.179688 12.589844 C 1.179688 12.515625 1.207031 12.453125 1.265625 12.398438 L 4.042969 9.617188 L 2.835938 8.414062 C 2.730469 8.304688 2.679688 8.179688 2.679688 8.035156 C 2.679688 7.890625 2.730469 7.765625 2.835938 7.660156 C 2.945312 7.554688 3.070312 7.5 3.214844 7.5 L 6.964844 7.5 C 7.109375 7.5 7.234375 7.554688 7.339844 7.660156 C 7.445312 7.765625 7.5 7.890625 7.5 8.035156 Z M 13.820312 2.410156 C 13.820312 2.484375 13.792969 2.546875 13.734375 2.601562 L 10.957031 5.382812 L 12.164062 6.585938 C 12.269531 6.695312 12.320312 6.820312 12.320312 6.964844 C 12.320312 7.109375 12.269531 7.234375 12.164062 7.339844 C 12.054688 7.445312 11.929688 7.5 11.785156 7.5 L 8.035156 7.5 C 7.890625 7.5 7.765625 7.445312 7.660156 7.339844 C 7.554688 7.234375 7.5 7.109375 7.5 6.964844 L 7.5 3.214844 C 7.5 3.070312 7.554688 2.945312 7.660156 2.835938 C 7.765625 2.730469 7.890625 2.679688 8.035156 2.679688 C 8.179688 2.679688 8.304688 2.730469 8.414062 2.835938 L 9.617188 4.042969 L 12.398438 1.265625 C 12.453125 1.207031 12.515625 1.179688 12.589844 1.179688 C 12.660156 1.179688 12.726562 1.207031 12.78125 1.265625 L 13.734375 2.21875 C 13.792969 2.273438 13.820312 2.339844 13.820312 2.410156 Z M 13.820312 2.410156 "/>
  </g>
</svg>