<svg xmlns="http://www.w3.org/2000/svg" xlink="http://www.w3.org/1999/xlink" width="20px" height="20px" viewBox="0 0 15 15" version="1.1">
  <g id="surface1">
    <path d="M 10.875 6.804688 L 7.339844 10.335938 C 7.234375 10.445312 7.109375 10.496094 6.964844 10.496094 C 6.820312 10.496094 6.695312 10.445312 6.585938 10.335938 L 4.125 7.875 C 4.019531 7.769531 3.96875 7.644531 3.96875 7.5 C 3.96875 7.355469 4.019531 7.230469 4.125 7.125 L 4.980469 6.269531 C 5.085938 6.164062 5.210938 6.109375 5.355469 6.109375 C 5.503906 6.109375 5.628906 6.164062 5.734375 6.269531 L 6.964844 7.5 L 9.265625 5.199219 C 9.371094 5.09375 9.496094 5.039062 9.644531 5.039062 C 9.789062 5.039062 9.914062 5.09375 10.019531 5.199219 L 10.875 6.050781 C 10.980469 6.15625 11.03125 6.285156 11.03125 6.429688 C 11.03125 6.574219 10.980469 6.699219 10.875 6.804688 Z M 12.054688 7.5 C 12.054688 6.675781 11.851562 5.914062 11.441406 5.214844 C 11.035156 4.515625 10.484375 3.964844 9.785156 3.558594 C 9.085938 3.148438 8.324219 2.945312 7.5 2.945312 C 6.675781 2.945312 5.914062 3.148438 5.214844 3.558594 C 4.515625 3.964844 3.964844 4.515625 3.558594 5.214844 C 3.148438 5.914062 2.945312 6.675781 2.945312 7.5 C 2.945312 8.324219 3.148438 9.085938 3.558594 9.785156 C 3.964844 10.484375 4.515625 11.035156 5.214844 11.441406 C 5.914062 11.851562 6.675781 12.054688 7.5 12.054688 C 8.324219 12.054688 9.085938 11.851562 9.785156 11.441406 C 10.484375 11.035156 11.035156 10.484375 11.441406 9.785156 C 11.851562 9.085938 12.054688 8.324219 12.054688 7.5 Z M 13.929688 7.5 C 13.929688 8.667969 13.640625 9.742188 13.066406 10.726562 C 12.492188 11.710938 11.710938 12.492188 10.726562 13.066406 C 9.742188 13.640625 8.667969 13.929688 7.5 13.929688 C 6.332031 13.929688 5.257812 13.640625 4.273438 13.066406 C 3.289062 12.492188 2.507812 11.710938 1.933594 10.726562 C 1.359375 9.742188 1.070312 8.667969 1.070312 7.5 C 1.070312 6.332031 1.359375 5.257812 1.933594 4.273438 C 2.507812 3.289062 3.289062 2.507812 4.273438 1.933594 C 5.257812 1.359375 6.332031 1.070312 7.5 1.070312 C 8.667969 1.070312 9.742188 1.359375 10.726562 1.933594 C 11.710938 2.507812 12.492188 3.289062 13.066406 4.273438 C 13.640625 5.257812 13.929688 6.332031 13.929688 7.5 Z M 13.929688 7.5 " fill="#FFFFFF"/>
  </g>
</svg>