<svg version="1.1" xmlns="http://www.w3.org/2000/svg" xlink="http://www.w3.org/1999/xlink" x="0px" y="0px" width="15px" height="15px" viewBox="0 0 15 15" style="enable-background:new 0 0 15 15;" space="preserve">
    <path d="M5.854130859375,6.375966796875001a0.17578125,0.17578125,0,0,1,0.17578125,0.17578125l-0.000029296875,0.6083789062499999a0.17578125,0.17578125,0,0,1,-0.17578125,0.17578125h-0.756005859375c0,0.929150390625,-0.063076171875,2.8183886718749998,0.5097070312499999,4.489130859375001H1.8924902343749999C2.4767578125000003,10.1206640625,2.4029296875,8.181005859375,2.4029296875,7.335908203125H1.645986328125a0.17578125,0.17578125,0,0,1,-0.17578125,-0.17578125l0.00005859375,-0.6083789062499999a0.17578125,0.17578125,0,0,1,0.17578125,-0.17578125h4.2080859375zM1.2174023437500001,3.37171875l1.0130859374999999,2.785283203125h3.03908203125l1.0128515625,-2.7853125c0.08337890625,-0.22927734375,-0.08642578125,-0.471708984375,-0.33041015625000003,-0.471708984375H4.453125v-0.8853515624999999h0.63193359375a0.17578125,0.17578125,0,0,0,0.17578125,-0.17578125V1.183095703125a0.17578125,0.17578125,0,0,0,-0.17578125,-0.17578125h-0.831064453125V0.17578125a0.17578125,0.17578125,0,0,0,-0.17578125,-0.17578125H3.4224609375a0.17578125,0.17578125,0,0,0,-0.17578125,0.17578125v0.831533203125H2.414677734375a0.17578125,0.17578125,0,0,0,-0.17578125,0.17578125v0.655751953125a0.17578125,0.17578125,0,0,0,0.17578125,0.17578125H3.046875v0.885322265625H1.547783203125c-0.24398437499999998,0.000029296875,-0.4137890625,0.2424609375,-0.330380859375,0.47176757812500003zM6.52376953125,13.04208984375v-0.822275390625a0.17578125,0.17578125,0,0,0,-0.17578125,-0.17578125H1.15201171875a0.17578125,0.17578125,0,0,0,-0.17578125,0.17578125v0.822275390625l-0.6488671874999999,0.4149609375a0.17578125,0.17578125,0,0,0,-0.08106445312499999,0.14809570312499998V14.82421875a0.17578125,0.17578125,0,0,0,0.17578125,0.17578125h6.655869140625001a0.17578125,0.17578125,0,0,0,0.17578125,-0.17578125v-1.2191015625000001a0.17578125,0.17578125,0,0,0,-0.08106445312499999,-0.14809570312499998l-0.648896484375,-0.414931640625zm2.65365234375,-4.225341796875l0.72890625,0.49696289062500004c0.0026367187499999997,0.5309765624999999,-0.004892578125000001,1.8721875000000001,-0.348779296875,3.3551367187500003h4.322050781250001c-0.343154296875,-1.478759765625,-0.350654296875,-2.8219921875,-0.34810546875,-3.355576171875l0.7282910156250001,-0.496552734375a0.11296874999999999,0.11296874999999999,0,0,0,0.049335937499999996,-0.093369140625v-2.0478808593749998a0.11299804687500001,0.11299804687500001,0,0,0,-0.11299804687500001,-0.11299804687500001h-0.8102050781250001a0.11299804687500001,0.11299804687500001,0,0,0,-0.11299804687500001,0.11299804687500001v0.92326171875h-0.6661230468749999v-0.92326171875a0.11299804687500001,0.11299804687500001,0,0,0,-0.11302734375000001,-0.11299804687500001h-1.55033203125a0.11299804687500001,0.11299804687500001,0,0,0,-0.11299804687500001,0.11299804687500001v0.92326171875h-0.6661230468749999v-0.92326171875a0.11299804687500001,0.11299804687500001,0,0,0,-0.11299804687500001,-0.11299804687500001H9.24111328125a0.11299804687500001,0.11299804687500001,0,0,0,-0.11299804687500001,0.11299804687500001v2.0478808593749998a0.112939453125,0.112939453125,0,0,0,0.049306640625,0.0933984375zm2.0972167968749997,1.52068359375c0,-0.2452734375,0.19883789062499999,-0.44408203125,0.44411132812500004,-0.44408203125s0.44408203125,0.19883789062499999,0.44408203125,0.44408203125v0.8882226562500001h-0.888193359375v-0.8882226562500001zM14.7837890625,13.771259765625l-0.4003125,-0.31168945312499996v-0.455625a0.11299804687500001,0.11299804687500001,0,0,0,-0.11299804687500001,-0.11299804687500001H9.167431640625a0.11299804687500001,0.11299804687500001,0,0,0,-0.11299804687500001,0.11299804687500001v0.455625l-0.400693359375,0.31168945312499996a0.11299804687500001,0.11299804687500001,0,0,0,-0.04359375,0.08917968750000001v1.026533203125a0.11299804687500001,0.11299804687500001,0,0,0,0.11299804687500001,0.11299804687500001h5.9912109375a0.11299804687500001,0.11299804687500001,0,0,0,0.11299804687500001,-0.11299804687500001v-1.0265625a0.113056640625,0.113056640625,0,0,0,-0.043564453125,-0.089150390625z" fill="#FFFFFF"/>
    </svg>