<svg xmlns="http://www.w3.org/2000/svg" xlink="http://www.w3.org/1999/xlink" width="20px" height="20px" viewBox="0 0 15 15" version="1.1">
  <g id="surface1">
    <path d="M 7.476562 0 C 8.8125 -0.0117188 10.074219 0.324219 11.25 1.003906 C 12.542969 1.753906 13.527344 2.789062 14.195312 4.117188 L 7.984375 3.792969 C 7.09375 3.742188 6.273438 3.949219 5.523438 4.414062 C 4.777344 4.882812 4.261719 5.523438 3.976562 6.335938 L 1.664062 2.789062 C 2.378906 1.898438 3.246094 1.214844 4.269531 0.734375 C 5.289062 0.25 6.359375 0.00390625 7.476562 0 Z M 1.222656 3.390625 L 4.042969 8.941406 C 4.445312 9.738281 5.035156 10.34375 5.808594 10.757812 C 6.585938 11.167969 7.402344 11.292969 8.261719 11.132812 L 6.335938 14.90625 C 5.152344 14.722656 4.078125 14.285156 3.113281 13.589844 C 2.148438 12.894531 1.386719 12.011719 0.832031 10.945312 C 0.277344 9.875 0 8.726562 0 7.5 C 0 6.011719 0.40625 4.640625 1.222656 3.390625 Z M 14.496094 4.804688 C 14.820312 5.640625 14.988281 6.507812 14.996094 7.402344 C 15.003906 8.300781 14.867188 9.152344 14.589844 9.964844 C 14.3125 10.777344 13.882812 11.535156 13.308594 12.242188 C 12.734375 12.949219 12.046875 13.53125 11.25 13.996094 C 9.964844 14.738281 8.578125 15.070312 7.082031 14.992188 L 10.472656 9.777344 C 10.960938 9.046875 11.191406 8.234375 11.164062 7.34375 C 11.132812 6.453125 10.835938 5.679688 10.269531 5.023438 Z M 7.5 4.972656 C 8.199219 4.972656 8.792969 5.21875 9.289062 5.710938 C 9.78125 6.207031 10.027344 6.800781 10.027344 7.5 C 10.027344 8.199219 9.78125 8.792969 9.289062 9.289062 C 8.792969 9.78125 8.199219 10.027344 7.5 10.027344 C 6.800781 10.027344 6.207031 9.78125 5.710938 9.289062 C 5.21875 8.792969 4.972656 8.199219 4.972656 7.5 C 4.972656 6.800781 5.21875 6.207031 5.710938 5.710938 C 6.207031 5.21875 6.800781 4.972656 7.5 4.972656 Z M 7.5 4.972656 " fill="#FFFFFF"/>
  </g>
</svg>