<svg xmlns="http://www.w3.org/2000/svg" xlink="http://www.w3.org/1999/xlink" width="20px" height="20px" viewBox="0 0 15 15" version="1.1">
  <g id="surface1">
    <path d="M 10.179688 3.75 L 10.179688 11.25 C 10.179688 11.394531 10.125 11.519531 10.019531 11.625 C 9.914062 11.734375 9.789062 11.785156 9.644531 11.785156 C 9.496094 11.785156 9.371094 11.734375 9.265625 11.625 L 5.515625 7.875 C 5.410156 7.769531 5.355469 7.644531 5.355469 7.5 C 5.355469 7.355469 5.410156 7.230469 5.515625 7.125 L 9.265625 3.375 C 9.371094 3.265625 9.496094 3.214844 9.644531 3.214844 C 9.789062 3.214844 9.914062 3.265625 10.019531 3.375 C 10.125 3.480469 10.179688 3.605469 10.179688 3.75 Z M 10.179688 3.75 " fill="#FFFFFF"/>
  </g>
</svg>