<svg xmlns="http://www.w3.org/2000/svg" xlink="http://www.w3.org/1999/xlink" width="20px" height="20px" viewBox="0 0 15 15" version="1.1">
  <g id="surface1">
    <path d="M 5.5 8.4375 L 7.230469 8.4375 C 7.152344 9.320312 6.878906 10.011719 6.40625 10.515625 C 5.9375 11.023438 5.335938 11.273438 4.613281 11.273438 C 3.707031 11.273438 2.996094 10.953125 2.480469 10.304688 C 1.964844 9.65625 1.707031 8.773438 1.707031 7.660156 C 1.707031 6.578125 1.96875 5.707031 2.484375 5.050781 C 3.003906 4.394531 3.65625 4.066406 4.4375 4.066406 C 5.261719 4.066406 5.910156 4.3125 6.378906 4.796875 C 6.847656 5.28125 7.117188 5.972656 7.191406 6.863281 L 5.492188 6.863281 C 5.464844 6.507812 5.363281 6.230469 5.195312 6.035156 C 5.023438 5.839844 4.796875 5.742188 4.511719 5.742188 C 4.195312 5.742188 3.945312 5.910156 3.769531 6.25 C 3.59375 6.585938 3.507812 7.082031 3.507812 7.734375 C 3.507812 8.003906 3.519531 8.238281 3.550781 8.4375 C 3.578125 8.636719 3.628906 8.832031 3.699219 9.019531 C 3.773438 9.207031 3.882812 9.351562 4.035156 9.449219 C 4.183594 9.550781 4.371094 9.601562 4.585938 9.601562 C 5.117188 9.601562 5.421875 9.214844 5.5 8.4375 Z M 11.460938 8.4375 L 13.183594 8.4375 C 13.105469 9.320312 12.832031 10.011719 12.363281 10.515625 C 11.894531 11.023438 11.296875 11.273438 10.570312 11.273438 C 9.667969 11.273438 8.957031 10.953125 8.441406 10.304688 C 7.925781 9.65625 7.667969 8.773438 7.667969 7.660156 C 7.667969 6.578125 7.925781 5.707031 8.445312 5.050781 C 8.964844 4.394531 9.613281 4.066406 10.394531 4.066406 C 11.222656 4.066406 11.871094 4.3125 12.339844 4.796875 C 12.808594 5.28125 13.078125 5.972656 13.148438 6.863281 L 11.441406 6.863281 C 11.421875 6.507812 11.324219 6.230469 11.148438 6.035156 C 10.976562 5.839844 10.75 5.742188 10.472656 5.742188 C 10.152344 5.742188 9.90625 5.910156 9.730469 6.25 C 9.554688 6.585938 9.46875 7.082031 9.46875 7.734375 C 9.46875 8.003906 9.480469 8.238281 9.507812 8.4375 C 9.535156 8.636719 9.585938 8.832031 9.660156 9.019531 C 9.730469 9.207031 9.84375 9.351562 9.992188 9.449219 C 10.136719 9.550781 10.320312 9.601562 10.539062 9.601562 C 10.8125 9.601562 11.023438 9.496094 11.179688 9.28125 C 11.332031 9.070312 11.425781 8.789062 11.460938 8.4375 Z M 14.464844 7.441406 C 14.464844 6.285156 14.421875 5.429688 14.335938 4.871094 C 14.246094 4.3125 14.078125 3.863281 13.828125 3.523438 C 13.792969 3.480469 13.757812 3.441406 13.714844 3.40625 C 13.671875 3.375 13.613281 3.332031 13.535156 3.28125 C 13.457031 3.230469 13.414062 3.199219 13.402344 3.1875 C 12.921875 2.835938 10.976562 2.660156 7.566406 2.660156 C 4.078125 2.660156 2.097656 2.835938 1.625 3.1875 C 1.597656 3.210938 1.546875 3.242188 1.476562 3.285156 C 1.40625 3.328125 1.347656 3.367188 1.300781 3.402344 C 1.253906 3.4375 1.214844 3.480469 1.179688 3.523438 C 0.929688 3.859375 0.761719 4.304688 0.679688 4.859375 C 0.59375 5.414062 0.550781 6.273438 0.550781 7.441406 C 0.550781 8.601562 0.59375 9.460938 0.679688 10.015625 C 0.761719 10.570312 0.929688 11.019531 1.179688 11.359375 C 1.214844 11.402344 1.253906 11.445312 1.304688 11.484375 C 1.355469 11.523438 1.414062 11.5625 1.476562 11.601562 C 1.542969 11.640625 1.589844 11.675781 1.625 11.703125 C 1.871094 11.886719 2.539062 12.023438 3.628906 12.113281 C 4.71875 12.203125 6.03125 12.246094 7.566406 12.246094 C 10.972656 12.246094 12.914062 12.066406 13.402344 11.703125 C 13.429688 11.679688 13.476562 11.648438 13.542969 11.609375 C 13.609375 11.570312 13.667969 11.53125 13.714844 11.492188 C 13.761719 11.453125 13.800781 11.410156 13.828125 11.359375 C 14.085938 11.023438 14.253906 10.582031 14.339844 10.027344 C 14.421875 9.476562 14.464844 8.613281 14.464844 7.441406 Z M 16.070312 1.070312 L 16.070312 13.929688 L -1.070312 13.929688 L -1.070312 1.070312 Z M 16.070312 1.070312 " fill="#FFFFFF"/>
  </g>
</svg>