<svg xmlns="http://www.w3.org/2000/svg" xlink="http://www.w3.org/1999/xlink" width="20px" height="20px" viewBox="0 0 15 15" version="1.1">
  <g id="surface1">
    <path d="M 1.605469 13.929688 L 13.394531 13.929688 L 13.394531 5.355469 L 1.605469 5.355469 Z M 4.820312 3.75 L 4.820312 1.339844 C 4.820312 1.261719 4.796875 1.195312 4.746094 1.148438 C 4.695312 1.097656 4.632812 1.070312 4.554688 1.070312 L 4.019531 1.070312 C 3.941406 1.070312 3.875 1.097656 3.824219 1.148438 C 3.773438 1.195312 3.75 1.261719 3.75 1.339844 L 3.75 3.75 C 3.75 3.828125 3.773438 3.890625 3.824219 3.941406 C 3.875 3.992188 3.941406 4.019531 4.019531 4.019531 L 4.554688 4.019531 C 4.632812 4.019531 4.695312 3.992188 4.746094 3.941406 C 4.796875 3.890625 4.820312 3.828125 4.820312 3.75 Z M 11.25 3.75 L 11.25 1.339844 C 11.25 1.261719 11.226562 1.195312 11.175781 1.148438 C 11.125 1.097656 11.058594 1.070312 10.980469 1.070312 L 10.445312 1.070312 C 10.367188 1.070312 10.304688 1.097656 10.253906 1.148438 C 10.203125 1.195312 10.179688 1.261719 10.179688 1.339844 L 10.179688 3.75 C 10.179688 3.828125 10.203125 3.890625 10.253906 3.941406 C 10.304688 3.992188 10.367188 4.019531 10.445312 4.019531 L 10.980469 4.019531 C 11.058594 4.019531 11.125 3.992188 11.175781 3.941406 C 11.226562 3.890625 11.25 3.828125 11.25 3.75 Z M 14.464844 3.214844 L 14.464844 13.929688 C 14.464844 14.21875 14.359375 14.46875 14.144531 14.683594 C 13.933594 14.894531 13.683594 15 13.394531 15 L 1.605469 15 C 1.316406 15 1.066406 14.894531 0.855469 14.683594 C 0.640625 14.46875 0.535156 14.21875 0.535156 13.929688 L 0.535156 3.214844 C 0.535156 2.925781 0.640625 2.671875 0.855469 2.460938 C 1.066406 2.25 1.316406 2.144531 1.605469 2.144531 L 2.679688 2.144531 L 2.679688 1.339844 C 2.679688 0.972656 2.808594 0.65625 3.070312 0.394531 C 3.335938 0.132812 3.648438 0 4.019531 0 L 4.554688 0 C 4.921875 0 5.238281 0.132812 5.5 0.394531 C 5.761719 0.65625 5.894531 0.972656 5.894531 1.339844 L 5.894531 2.144531 L 9.105469 2.144531 L 9.105469 1.339844 C 9.105469 0.972656 9.238281 0.65625 9.5 0.394531 C 9.761719 0.132812 10.078125 0 10.445312 0 L 10.980469 0 C 11.351562 0 11.664062 0.132812 11.929688 0.394531 C 12.191406 0.65625 12.320312 0.972656 12.320312 1.339844 L 12.320312 2.144531 L 13.394531 2.144531 C 13.683594 2.144531 13.933594 2.25 14.144531 2.460938 C 14.359375 2.671875 14.464844 2.925781 14.464844 3.214844 Z M 14.464844 3.214844 " fill="#FFFFFF"/>
  </g>
</svg>