<svg xmlns="http://www.w3.org/2000/svg" xlink="http://www.w3.org/1999/xlink" width="20px" height="20px" viewBox="0 0 15 15" version="1.1">
  <g id="surface1">
    <path d="M 13.394531 5.355469 C 13.394531 4.910156 13.238281 4.53125 12.925781 4.21875 C 12.613281 3.90625 12.230469 3.75 11.785156 3.75 L 11.25 3.75 L 11.25 6.964844 L 11.785156 6.964844 C 12.230469 6.964844 12.613281 6.808594 12.925781 6.496094 C 13.238281 6.183594 13.394531 5.804688 13.394531 5.355469 Z M -0.535156 11.785156 L 14.464844 11.785156 C 14.464844 12.378906 14.253906 12.882812 13.835938 13.300781 C 13.417969 13.71875 12.914062 13.929688 12.320312 13.929688 L 1.605469 13.929688 C 1.015625 13.929688 0.511719 13.71875 0.09375 13.300781 C -0.328125 12.882812 -0.535156 12.378906 -0.535156 11.785156 Z M 15 5.355469 C 15 6.246094 14.6875 7 14.058594 7.628906 C 13.429688 8.257812 12.671875 8.570312 11.785156 8.570312 L 11.25 8.570312 L 11.25 8.839844 C 11.25 9.351562 11.066406 9.792969 10.699219 10.160156 C 10.328125 10.53125 9.886719 10.714844 9.375 10.714844 L 3.480469 10.714844 C 2.96875 10.714844 2.527344 10.53125 2.160156 10.160156 C 1.792969 9.792969 1.605469 9.351562 1.605469 8.839844 L 1.605469 2.679688 C 1.605469 2.535156 1.660156 2.40625 1.765625 2.300781 C 1.871094 2.195312 1.996094 2.144531 2.144531 2.144531 L 11.785156 2.144531 C 12.671875 2.144531 13.429688 2.457031 14.058594 3.085938 C 14.6875 3.710938 15 4.46875 15 5.355469 Z M 15 5.355469 " fill="#FFFFFF"/>
  </g>
</svg>