<svg xmlns="http://www.w3.org/2000/svg" xlink="http://www.w3.org/1999/xlink" width="20px" height="20px" viewBox="0 0 15 15" version="1.1">
  <g id="surface1">
    <path d="M 12.472656 11.066406 C 12.472656 11.289062 12.394531 11.480469 12.238281 11.636719 L 11.097656 12.773438 C 10.941406 12.929688 10.753906 13.007812 10.53125 13.007812 C 10.308594 13.007812 10.117188 12.929688 9.960938 12.773438 L 7.5 10.3125 L 5.039062 12.773438 C 4.882812 12.929688 4.691406 13.007812 4.46875 13.007812 C 4.246094 13.007812 4.058594 12.929688 3.902344 12.773438 L 2.761719 11.636719 C 2.605469 11.480469 2.527344 11.289062 2.527344 11.066406 C 2.527344 10.84375 2.605469 10.652344 2.761719 10.496094 L 5.222656 8.035156 L 2.761719 5.574219 C 2.605469 5.417969 2.527344 5.230469 2.527344 5.003906 C 2.527344 4.78125 2.605469 4.59375 2.761719 4.4375 L 3.902344 3.296875 C 4.058594 3.140625 4.246094 3.0625 4.46875 3.0625 C 4.691406 3.0625 4.882812 3.140625 5.039062 3.296875 L 7.5 5.757812 L 9.960938 3.296875 C 10.117188 3.140625 10.308594 3.0625 10.53125 3.0625 C 10.753906 3.0625 10.941406 3.140625 11.097656 3.296875 L 12.238281 4.4375 C 12.394531 4.59375 12.472656 4.78125 12.472656 5.003906 C 12.472656 5.230469 12.394531 5.417969 12.238281 5.574219 L 9.777344 8.035156 L 12.238281 10.496094 C 12.394531 10.652344 12.472656 10.84375 12.472656 11.066406 Z M 12.472656 11.066406 " fill="#FFFFFF"/>
  </g>
</svg>