<svg xmlns="http://www.w3.org/2000/svg" xlink="http://www.w3.org/1999/xlink" width="20px" height="20px" viewBox="0 0 15 15" version="1.1">
  <g id="surface1">
    <path d="M 11.785156 5.894531 C 11.785156 6.039062 11.734375 6.164062 11.625 6.269531 L 7.875 10.019531 C 7.769531 10.125 7.644531 10.179688 7.5 10.179688 C 7.355469 10.179688 7.230469 10.125 7.125 10.019531 L 3.375 6.269531 C 3.265625 6.164062 3.214844 6.039062 3.214844 5.894531 C 3.214844 5.746094 3.265625 5.621094 3.375 5.515625 C 3.480469 5.410156 3.605469 5.355469 3.75 5.355469 L 11.25 5.355469 C 11.394531 5.355469 11.519531 5.410156 11.625 5.515625 C 11.734375 5.621094 11.785156 5.746094 11.785156 5.894531 Z M 11.785156 5.894531 " fill="#FFFFFF"/>
  </g>
</svg>