<?xml version="1.0" encoding="UTF-8" standalone="yes"?>
<svg xmlns="http://www.w3.org/2000/svg" xmlns:xlink="http://www.w3.org/1999/xlink" width="20px" height="20px" viewBox="0 0 15 15" version="1.1">
  <g id="surface1">
    <path style=" stroke:none;fill-rule:nonzero;fill:rgb(0%,0%,0%);fill-opacity:1;" d="M 10.179688 7.769531 C 10.179688 7.691406 10.152344 7.625 10.101562 7.574219 C 10.054688 7.523438 9.988281 7.5 9.910156 7.5 L 8.035156 7.5 L 8.035156 4.554688 C 8.035156 4.480469 8.007812 4.417969 7.957031 4.367188 C 7.902344 4.3125 7.839844 4.285156 7.769531 4.285156 L 6.160156 4.285156 C 6.089844 4.285156 6.023438 4.3125 5.972656 4.367188 C 5.917969 4.417969 5.894531 4.480469 5.894531 4.554688 L 5.894531 7.5 L 4.019531 7.5 C 3.945312 7.5 3.882812 7.527344 3.828125 7.578125 C 3.777344 7.632812 3.75 7.695312 3.75 7.769531 C 3.75 7.847656 3.773438 7.910156 3.824219 7.960938 L 6.773438 10.90625 C 6.820312 10.957031 6.886719 10.980469 6.964844 10.980469 C 7.042969 10.980469 7.105469 10.957031 7.15625 10.90625 L 10.09375 7.96875 C 10.152344 7.902344 10.179688 7.835938 10.179688 7.769531 Z M 15.535156 9.644531 C 15.535156 10.53125 15.222656 11.289062 14.59375 11.914062 C 13.964844 12.542969 13.207031 12.855469 12.320312 12.855469 L 3.214844 12.855469 C 2.183594 12.855469 1.296875 12.488281 0.566406 11.757812 C -0.167969 11.023438 -0.535156 10.140625 -0.535156 9.105469 C -0.535156 8.382812 -0.339844 7.710938 0.0507812 7.097656 C 0.441406 6.484375 0.964844 6.023438 1.625 5.71875 C 1.613281 5.550781 1.605469 5.429688 1.605469 5.355469 C 1.605469 4.175781 2.027344 3.164062 2.863281 2.328125 C 3.699219 1.488281 4.710938 1.070312 5.894531 1.070312 C 6.761719 1.070312 7.558594 1.3125 8.28125 1.800781 C 9.003906 2.285156 9.53125 2.929688 9.859375 3.734375 C 10.257812 3.386719 10.71875 3.214844 11.25 3.214844 C 11.839844 3.214844 12.347656 3.421875 12.765625 3.84375 C 13.183594 4.261719 13.394531 4.765625 13.394531 5.355469 C 13.394531 5.78125 13.277344 6.167969 13.050781 6.511719 C 13.773438 6.683594 14.371094 7.0625 14.835938 7.648438 C 15.300781 8.230469 15.535156 8.894531 15.535156 9.644531 Z M 15.535156 9.644531 "/>
  </g>
</svg>