<svg xmlns="http://www.w3.org/2000/svg" xlink="http://www.w3.org/1999/xlink" width="20px" height="20px" viewBox="0 0 15 15" version="1.1">
  <g id="surface1">
    <path d="M 6.964844 0.535156 L 6.964844 5.894531 C 6.964844 6.234375 6.863281 6.542969 6.667969 6.820312 C 6.46875 7.101562 6.210938 7.296875 5.894531 7.40625 L 5.894531 13.929688 C 5.894531 14.21875 5.785156 14.46875 5.574219 14.683594 C 5.363281 14.894531 5.113281 15 4.820312 15 L 3.75 15 C 3.460938 15 3.207031 14.894531 2.996094 14.683594 C 2.785156 14.46875 2.679688 14.21875 2.679688 13.929688 L 2.679688 7.40625 C 2.359375 7.296875 2.101562 7.101562 1.90625 6.820312 C 1.707031 6.542969 1.605469 6.234375 1.605469 5.894531 L 1.605469 0.535156 C 1.605469 0.390625 1.660156 0.265625 1.765625 0.160156 C 1.871094 0.0546875 1.996094 0 2.144531 0 C 2.289062 0 2.414062 0.0546875 2.519531 0.160156 C 2.625 0.265625 2.679688 0.390625 2.679688 0.535156 L 2.679688 4.019531 C 2.679688 4.164062 2.730469 4.289062 2.835938 4.394531 C 2.945312 4.5 3.070312 4.554688 3.214844 4.554688 C 3.359375 4.554688 3.484375 4.5 3.589844 4.394531 C 3.695312 4.289062 3.75 4.164062 3.75 4.019531 L 3.75 0.535156 C 3.75 0.390625 3.804688 0.265625 3.910156 0.160156 C 4.015625 0.0546875 4.140625 0 4.285156 0 C 4.429688 0 4.554688 0.0546875 4.664062 0.160156 C 4.769531 0.265625 4.820312 0.390625 4.820312 0.535156 L 4.820312 4.019531 C 4.820312 4.164062 4.875 4.289062 4.980469 4.394531 C 5.085938 4.5 5.210938 4.554688 5.355469 4.554688 C 5.503906 4.554688 5.628906 4.5 5.734375 4.394531 C 5.839844 4.289062 5.894531 4.164062 5.894531 4.019531 L 5.894531 0.535156 C 5.894531 0.390625 5.945312 0.265625 6.050781 0.160156 C 6.15625 0.0546875 6.285156 0 6.429688 0 C 6.574219 0 6.699219 0.0546875 6.804688 0.160156 C 6.910156 0.265625 6.964844 0.390625 6.964844 0.535156 Z M 13.394531 0.535156 L 13.394531 13.929688 C 13.394531 14.21875 13.285156 14.46875 13.074219 14.683594 C 12.863281 14.894531 12.613281 15 12.320312 15 L 11.25 15 C 10.960938 15 10.707031 14.894531 10.496094 14.683594 C 10.285156 14.46875 10.179688 14.21875 10.179688 13.929688 L 10.179688 9.644531 L 8.304688 9.644531 C 8.230469 9.644531 8.167969 9.617188 8.117188 9.5625 C 8.0625 9.511719 8.035156 9.449219 8.035156 9.375 L 8.035156 2.679688 C 8.035156 1.941406 8.296875 1.3125 8.824219 0.785156 C 9.347656 0.261719 9.976562 0 10.714844 0 L 12.855469 0 C 13.003906 0 13.128906 0.0546875 13.234375 0.160156 C 13.339844 0.265625 13.394531 0.390625 13.394531 0.535156 Z M 13.394531 0.535156 " fill="#FFFFFF"/>
  </g>
</svg>