<svg version="1.1" xmlns="http://www.w3.org/2000/svg" xlink="http://www.w3.org/1999/xlink" x="0px" y="0px" width="15px" height="15px" viewBox="0 0 15 15" style="enable-background:new 0 0 15 15;" space="preserve">
    <path d="M3.214844,12.855469C3.214844,12.5625,3.109375,12.308594,2.898438,12.101562C2.691406,11.890625,2.4375,11.785156,2.144531,11.785156C1.847656,11.785156,1.59375,11.890625,1.386719,12.101562C1.175781,12.308594,1.070312,12.5625,1.070312,12.855469C1.070312,13.152344,1.175781,13.40625,1.386719,13.613281C1.59375,13.824219,1.847656,13.929688,2.144531,13.929688C2.4375,13.929688,2.691406,13.824219,2.898438,13.613281C3.109375,13.40625,3.214844,13.152344,3.214844,12.855469ZM6.429688,12.855469C6.429688,12.5625,6.324219,12.308594,6.113281,12.101562C5.90625,11.890625,5.652344,11.785156,5.355469,11.785156C5.0625,11.785156,4.808594,11.890625,4.601562,12.101562C4.390625,12.308594,4.285156,12.5625,4.285156,12.855469C4.285156,13.152344,4.390625,13.40625,4.601562,13.613281C4.808594,13.824219,5.0625,13.929688,5.355469,13.929688C5.652344,13.929688,5.90625,13.824219,6.113281,13.613281C6.324219,13.40625,6.429688,13.152344,6.429688,12.855469ZM3.214844,9.644531C3.214844,9.347656,3.109375,9.09375,2.898438,8.886719C2.691406,8.675781,2.4375,8.570312,2.144531,8.570312C1.847656,8.570312,1.59375,8.675781,1.386719,8.886719C1.175781,9.09375,1.070312,9.347656,1.070312,9.644531C1.070312,9.9375,1.175781,10.191406,1.386719,10.398438C1.59375,10.609375,1.847656,10.714844,2.144531,10.714844C2.4375,10.714844,2.691406,10.609375,2.898438,10.398438C3.109375,10.191406,3.214844,9.9375,3.214844,9.644531ZM9.644531,12.855469C9.644531,12.5625,9.539062,12.308594,9.328125,12.101562C9.121094,11.890625,8.867188,11.785156,8.570312,11.785156C8.277344,11.785156,8.023438,11.890625,7.8125,12.101562C7.605469,12.308594,7.5,12.5625,7.5,12.855469C7.5,13.152344,7.605469,13.40625,7.8125,13.613281C8.023438,13.824219,8.277344,13.929688,8.570312,13.929688C8.867188,13.929688,9.121094,13.824219,9.328125,13.613281C9.539062,13.40625,9.644531,13.152344,9.644531,12.855469ZM6.429688,9.644531C6.429688,9.347656,6.324219,9.09375,6.113281,8.886719C5.90625,8.675781,5.652344,8.570312,5.355469,8.570312C5.0625,8.570312,4.808594,8.675781,4.601562,8.886719C4.390625,9.09375,4.285156,9.347656,4.285156,9.644531C4.285156,9.9375,4.390625,10.191406,4.601562,10.398438C4.808594,10.609375,5.0625,10.714844,5.355469,10.714844C5.652344,10.714844,5.90625,10.609375,6.113281,10.398438C6.324219,10.191406,6.429688,9.9375,6.429688,9.644531ZM3.214844,6.429688C3.214844,6.132812,3.109375,5.878906,2.898438,5.671875C2.691406,5.460938,2.4375,5.355469,2.144531,5.355469C1.847656,5.355469,1.59375,5.460938,1.386719,5.671875C1.175781,5.878906,1.070312,6.132812,1.070312,6.429688C1.070312,6.722656,1.175781,6.976562,1.386719,7.1875C1.59375,7.394531,1.847656,7.5,2.144531,7.5C2.4375,7.5,2.691406,7.394531,2.898438,7.1875C3.109375,6.976562,3.214844,6.722656,3.214844,6.429688ZM9.644531,9.644531C9.644531,9.347656,9.539062,9.09375,9.328125,8.886719C9.121094,8.675781,8.867188,8.570312,8.570312,8.570312C8.277344,8.570312,8.023438,8.675781,7.8125,8.886719C7.605469,9.09375,7.5,9.347656,7.5,9.644531C7.5,9.9375,7.605469,10.191406,7.8125,10.398438C8.023438,10.609375,8.277344,10.714844,8.570312,10.714844C8.867188,10.714844,9.121094,10.609375,9.328125,10.398438C9.539062,10.191406,9.644531,9.9375,9.644531,9.644531ZM6.429688,6.429688C6.429688,6.132812,6.324219,5.878906,6.113281,5.671875C5.90625,5.460938,5.652344,5.355469,5.355469,5.355469C5.0625,5.355469,4.808594,5.460938,4.601562,5.671875C4.390625,5.878906,4.285156,6.132812,4.285156,6.429688C4.285156,6.722656,4.390625,6.976562,4.601562,7.1875C4.808594,7.394531,5.0625,7.5,5.355469,7.5C5.652344,7.5,5.90625,7.394531,6.113281,7.1875C6.324219,6.976562,6.429688,6.722656,6.429688,6.429688ZM12.855469,12.855469L12.855469,9.644531C12.855469,9.351562,12.75,9.101562,12.539062,8.890625C12.328125,8.675781,12.074219,8.570312,11.785156,8.570312C11.496094,8.570312,11.246094,8.675781,11.03125,8.890625C10.820312,9.101562,10.714844,9.351562,10.714844,9.644531L10.714844,12.855469C10.714844,13.148438,10.820312,13.398438,11.03125,13.609375C11.246094,13.824219,11.496094,13.929688,11.785156,13.929688C12.074219,13.929688,12.328125,13.824219,12.539062,13.609375C12.75,13.398438,12.855469,13.148438,12.855469,12.855469ZM9.644531,6.429688C9.644531,6.132812,9.539062,5.878906,9.328125,5.671875C9.121094,5.460938,8.867188,5.355469,8.570312,5.355469C8.277344,5.355469,8.023438,5.460938,7.8125,5.671875C7.605469,5.878906,7.5,6.132812,7.5,6.429688C7.5,6.722656,7.605469,6.976562,7.8125,7.1875C8.023438,7.394531,8.277344,7.5,8.570312,7.5C8.867188,7.5,9.121094,7.394531,9.328125,7.1875C9.539062,6.976562,9.644531,6.722656,9.644531,6.429688ZM12.855469,3.75L12.855469,1.605469C12.855469,1.460938,12.804688,1.335938,12.699219,1.230469C12.59375,1.125,12.464844,1.070312,12.320312,1.070312L1.605469,1.070312C1.460938,1.070312,1.335938,1.125,1.230469,1.230469C1.125,1.335938,1.070312,1.460938,1.070312,1.605469L1.070312,3.75C1.070312,3.894531,1.125,4.019531,1.230469,4.125C1.335938,4.234375,1.460938,4.285156,1.605469,4.285156L12.320312,4.285156C12.464844,4.285156,12.59375,4.234375,12.699219,4.125C12.804688,4.019531,12.855469,3.894531,12.855469,3.75ZM12.855469,6.429688C12.855469,6.132812,12.753906,5.878906,12.542969,5.671875C12.335938,5.460938,12.082031,5.355469,11.785156,5.355469C11.488281,5.355469,11.238281,5.460938,11.027344,5.671875C10.820312,5.878906,10.714844,6.132812,10.714844,6.429688C10.714844,6.722656,10.820312,6.976562,11.027344,7.1875C11.238281,7.394531,11.488281,7.5,11.785156,7.5C12.082031,7.5,12.335938,7.394531,12.542969,7.1875C12.753906,6.976562,12.855469,6.722656,12.855469,6.429688ZM13.929688,1.070312L13.929688,13.929688C13.929688,14.21875,13.824219,14.46875,13.609375,14.683594C13.398438,14.894531,13.148438,15,12.855469,15L1.070312,15C0.78125,15,0.53125,14.894531,0.316406,14.683594C0.105469,14.46875,0,14.21875,0,13.929688L0,1.070312C0,0.78125,0.105469,0.53125,0.316406,0.316406C0.53125,0.105469,0.78125,0,1.070312,0L12.855469,0C13.148438,0,13.398438,0.105469,13.609375,0.316406C13.824219,0.53125,13.929688,0.78125,13.929688,1.070312ZM13.929688,1.070312" fill="#FFFFFF"/>
    </svg>