<svg xmlns="http://www.w3.org/2000/svg" xlink="http://www.w3.org/1999/xlink" width="20px" height="20px" viewBox="0 0 15 15" version="1.1">
  <g id="surface1">
    <path d="M 12.855469 2.144531 C 13.148438 2.144531 13.398438 2.25 13.609375 2.460938 C 13.824219 2.671875 13.929688 2.925781 13.929688 3.214844 L 13.929688 13.929688 C 13.929688 14.21875 13.824219 14.46875 13.609375 14.683594 C 13.398438 14.894531 13.148438 15 12.855469 15 L 1.070312 15 C 0.78125 15 0.53125 14.894531 0.316406 14.683594 C 0.105469 14.46875 0 14.21875 0 13.929688 L 0 3.214844 C 0 2.925781 0.105469 2.671875 0.316406 2.460938 C 0.53125 2.25 0.78125 2.144531 1.070312 2.144531 L 2.144531 2.144531 L 2.144531 1.339844 C 2.144531 0.972656 2.273438 0.65625 2.535156 0.394531 C 2.796875 0.132812 3.113281 0 3.480469 0 L 4.019531 0 C 4.386719 0 4.703125 0.132812 4.964844 0.394531 C 5.226562 0.65625 5.355469 0.972656 5.355469 1.339844 L 5.355469 2.144531 L 8.570312 2.144531 L 8.570312 1.339844 C 8.570312 0.972656 8.703125 0.65625 8.964844 0.394531 C 9.226562 0.132812 9.542969 0 9.910156 0 L 10.445312 0 C 10.816406 0 11.128906 0.132812 11.390625 0.394531 C 11.65625 0.65625 11.785156 0.972656 11.785156 1.339844 L 11.785156 2.144531 Z M 9.644531 1.339844 L 9.644531 3.75 C 9.644531 3.828125 9.667969 3.890625 9.71875 3.941406 C 9.769531 3.992188 9.832031 4.019531 9.910156 4.019531 L 10.445312 4.019531 C 10.523438 4.019531 10.589844 3.992188 10.640625 3.941406 C 10.6875 3.890625 10.714844 3.828125 10.714844 3.75 L 10.714844 1.339844 C 10.714844 1.261719 10.6875 1.195312 10.640625 1.148438 C 10.589844 1.097656 10.523438 1.070312 10.445312 1.070312 L 9.910156 1.070312 C 9.832031 1.070312 9.769531 1.097656 9.71875 1.148438 C 9.667969 1.195312 9.644531 1.261719 9.644531 1.339844 Z M 3.214844 1.339844 L 3.214844 3.75 C 3.214844 3.828125 3.238281 3.890625 3.289062 3.941406 C 3.339844 3.992188 3.402344 4.019531 3.480469 4.019531 L 4.019531 4.019531 C 4.097656 4.019531 4.160156 3.992188 4.210938 3.941406 C 4.261719 3.890625 4.285156 3.828125 4.285156 3.75 L 4.285156 1.339844 C 4.285156 1.261719 4.261719 1.195312 4.210938 1.148438 C 4.160156 1.097656 4.097656 1.070312 4.019531 1.070312 L 3.480469 1.070312 C 3.402344 1.070312 3.339844 1.097656 3.289062 1.148438 C 3.238281 1.195312 3.214844 1.261719 3.214844 1.339844 Z M 12.855469 13.929688 L 12.855469 5.355469 L 1.070312 5.355469 L 1.070312 13.929688 Z M 7.5 9.105469 L 9.375 9.105469 C 9.453125 9.105469 9.515625 9.132812 9.566406 9.183594 C 9.617188 9.234375 9.644531 9.296875 9.644531 9.375 L 9.644531 9.910156 C 9.644531 9.988281 9.617188 10.054688 9.566406 10.101562 C 9.515625 10.152344 9.453125 10.179688 9.375 10.179688 L 7.5 10.179688 L 7.5 12.054688 C 7.5 12.132812 7.476562 12.195312 7.425781 12.246094 C 7.375 12.296875 7.308594 12.320312 7.230469 12.320312 L 6.695312 12.320312 C 6.617188 12.320312 6.554688 12.296875 6.503906 12.246094 C 6.453125 12.195312 6.429688 12.132812 6.429688 12.054688 L 6.429688 10.179688 L 4.554688 10.179688 C 4.476562 10.179688 4.410156 10.152344 4.359375 10.101562 C 4.3125 10.054688 4.285156 9.988281 4.285156 9.910156 L 4.285156 9.375 C 4.285156 9.296875 4.3125 9.234375 4.359375 9.183594 C 4.410156 9.132812 4.476562 9.105469 4.554688 9.105469 L 6.429688 9.105469 L 6.429688 7.230469 C 6.429688 7.152344 6.453125 7.089844 6.503906 7.039062 C 6.554688 6.988281 6.617188 6.964844 6.695312 6.964844 L 7.230469 6.964844 C 7.308594 6.964844 7.375 6.988281 7.425781 7.039062 C 7.476562 7.089844 7.5 7.152344 7.5 7.230469 Z M 7.5 9.105469 " fill="#FFFFFF"/>
  </g>
</svg>