<?xml version="1.0" encoding="UTF-8" standalone="yes"?>
<svg xmlns="http://www.w3.org/2000/svg" xmlns:xlink="http://www.w3.org/1999/xlink" width="20px" height="20px" viewBox="0 0 15 15" version="1.1">
  <g id="surface1">
    <path style=" stroke:none;fill-rule:nonzero;fill:rgb(0%,0%,0%);fill-opacity:1;" d="M 5.039062 10.386719 L 5.039062 4.585938 C 4.449219 4.816406 3.96875 5.195312 3.597656 5.722656 C 3.230469 6.25 3.046875 6.839844 3.046875 7.492188 C 3.046875 8.144531 3.230469 8.734375 3.597656 9.261719 C 3.96875 9.789062 4.449219 10.164062 5.039062 10.386719 Z M 9.257812 7.492188 C 9.257812 6.839844 9.074219 6.25 8.707031 5.722656 C 8.335938 5.195312 7.855469 4.816406 7.265625 4.585938 L 7.265625 10.394531 C 7.855469 10.167969 8.335938 9.789062 8.707031 9.261719 C 9.074219 8.734375 9.257812 8.144531 9.257812 7.492188 Z M 11.058594 7.492188 C 11.058594 8.378906 10.839844 9.199219 10.398438 9.953125 C 9.960938 10.707031 9.367188 11.300781 8.613281 11.738281 C 7.859375 12.175781 7.039062 12.398438 6.152344 12.398438 C 5.488281 12.398438 4.851562 12.265625 4.25 12.007812 C 3.640625 11.75 3.121094 11.398438 2.683594 10.960938 C 2.246094 10.523438 1.894531 10 1.636719 9.394531 C 1.375 8.789062 1.246094 8.15625 1.246094 7.492188 C 1.246094 6.605469 1.464844 5.785156 1.90625 5.03125 C 2.34375 4.277344 2.9375 3.679688 3.691406 3.242188 C 4.445312 2.804688 5.265625 2.585938 6.152344 2.585938 C 7.039062 2.585938 7.859375 2.804688 8.613281 3.242188 C 9.367188 3.679688 9.960938 4.277344 10.398438 5.03125 C 10.839844 5.785156 11.058594 6.605469 11.058594 7.492188 Z M 14.261719 7.550781 C 14.261719 6.773438 14.109375 6.042969 13.796875 5.359375 C 13.488281 4.675781 13.078125 4.105469 12.5625 3.640625 C 12.050781 3.179688 11.453125 2.8125 10.777344 2.542969 C 10.097656 2.277344 9.394531 2.144531 8.664062 2.144531 L 6.144531 2.144531 C 5.160156 2.144531 4.257812 2.367188 3.4375 2.820312 C 2.613281 3.273438 1.957031 3.914062 1.46875 4.746094 C 0.980469 5.578125 0.738281 6.511719 0.738281 7.550781 C 0.738281 8.503906 0.980469 9.390625 1.464844 10.207031 C 1.949219 11.023438 2.609375 11.671875 3.441406 12.144531 C 4.273438 12.621094 5.171875 12.855469 6.144531 12.855469 L 8.664062 12.855469 C 9.382812 12.855469 10.085938 12.714844 10.769531 12.433594 C 11.453125 12.152344 12.050781 11.777344 12.5625 11.304688 C 13.078125 10.832031 13.488281 10.269531 13.796875 9.609375 C 14.109375 8.949219 14.261719 8.265625 14.261719 7.550781 Z M 17.144531 2.144531 L 17.144531 12.855469 C 17.144531 13.148438 17.035156 13.398438 16.824219 13.609375 C 16.613281 13.824219 16.363281 13.929688 16.070312 13.929688 L -1.070312 13.929688 C -1.363281 13.929688 -1.613281 13.824219 -1.824219 13.609375 C -2.035156 13.398438 -2.144531 13.148438 -2.144531 12.855469 L -2.144531 2.144531 C -2.144531 1.851562 -2.035156 1.601562 -1.824219 1.390625 C -1.613281 1.175781 -1.363281 1.070312 -1.070312 1.070312 L 16.070312 1.070312 C 16.363281 1.070312 16.613281 1.175781 16.824219 1.390625 C 17.035156 1.601562 17.144531 1.851562 17.144531 2.144531 Z M 17.144531 2.144531 "/>
  </g>
</svg>