<?xml version="1.0" encoding="UTF-8" standalone="yes"?>
<svg xmlns="http://www.w3.org/2000/svg" xmlns:xlink="http://www.w3.org/1999/xlink" width="20px" height="20px" viewBox="0 0 15 15" version="1.1">
  <g id="surface1">
    <path style=" stroke:none;fill-rule:nonzero;fill:rgb(0%,0%,0%);fill-opacity:1;" d="M 3.472656 7.808594 L 3.363281 7.808594 C 3.101562 7.808594 2.972656 7.898438 2.972656 8.078125 C 2.972656 8.199219 3.027344 8.261719 3.140625 8.261719 C 3.234375 8.261719 3.3125 8.21875 3.375 8.136719 C 3.433594 8.050781 3.46875 7.945312 3.472656 7.808594 Z M 6.78125 7.507812 L 7.300781 7.507812 L 7.300781 7.484375 C 7.304688 7.460938 7.304688 7.441406 7.304688 7.429688 C 7.300781 7.414062 7.296875 7.394531 7.296875 7.371094 C 7.292969 7.34375 7.285156 7.324219 7.277344 7.304688 C 7.269531 7.285156 7.257812 7.265625 7.242188 7.25 C 7.222656 7.230469 7.203125 7.21875 7.179688 7.207031 C 7.152344 7.195312 7.121094 7.191406 7.082031 7.191406 C 6.925781 7.191406 6.824219 7.296875 6.78125 7.507812 Z M 11.300781 7.808594 L 11.199219 7.808594 C 10.933594 7.808594 10.796875 7.898438 10.796875 8.078125 C 10.796875 8.199219 10.855469 8.261719 10.964844 8.261719 C 11.058594 8.261719 11.136719 8.21875 11.199219 8.136719 C 11.261719 8.050781 11.292969 7.945312 11.300781 7.808594 Z M 13.96875 7.59375 C 13.96875 7.363281 13.886719 7.25 13.71875 7.25 C 13.613281 7.25 13.527344 7.304688 13.460938 7.417969 C 13.394531 7.527344 13.359375 7.671875 13.359375 7.84375 C 13.359375 8.078125 13.4375 8.195312 13.59375 8.195312 C 13.707031 8.195312 13.796875 8.140625 13.867188 8.027344 C 13.933594 7.914062 13.96875 7.769531 13.96875 7.59375 Z M 1.875 6.410156 L 2.601562 6.410156 L 2.234375 8.605469 L 1.765625 8.605469 L 2.035156 6.921875 L 1.441406 8.605469 L 1.113281 8.605469 L 1.078125 6.929688 L 0.796875 8.605469 L 0.351562 8.605469 L 0.71875 6.410156 L 1.398438 6.410156 L 1.414062 7.777344 Z M 3.992188 7.308594 C 3.992188 7.339844 3.980469 7.457031 3.960938 7.660156 C 3.871094 8.222656 3.824219 8.539062 3.816406 8.605469 L 3.421875 8.605469 L 3.433594 8.421875 C 3.320312 8.566406 3.160156 8.636719 2.945312 8.636719 C 2.816406 8.636719 2.714844 8.59375 2.632812 8.503906 C 2.550781 8.414062 2.511719 8.296875 2.511719 8.152344 C 2.511719 7.933594 2.582031 7.765625 2.730469 7.648438 C 2.875 7.527344 3.078125 7.464844 3.339844 7.464844 C 3.417969 7.464844 3.480469 7.46875 3.53125 7.476562 C 3.53125 7.457031 3.535156 7.441406 3.535156 7.429688 C 3.539062 7.414062 3.542969 7.402344 3.546875 7.390625 C 3.546875 7.378906 3.550781 7.371094 3.550781 7.367188 C 3.550781 7.253906 3.449219 7.199219 3.246094 7.199219 C 3.085938 7.199219 2.921875 7.226562 2.753906 7.28125 C 2.753906 7.261719 2.773438 7.125 2.8125 6.878906 C 3.023438 6.820312 3.210938 6.789062 3.375 6.789062 C 3.785156 6.789062 3.992188 6.960938 3.992188 7.308594 Z M 5.296875 6.820312 L 5.230469 7.230469 C 5.109375 7.214844 4.996094 7.207031 4.886719 7.207031 C 4.738281 7.207031 4.664062 7.253906 4.664062 7.347656 C 4.664062 7.394531 4.675781 7.425781 4.699219 7.449219 C 4.726562 7.472656 4.785156 7.503906 4.878906 7.542969 C 5.101562 7.648438 5.214844 7.816406 5.214844 8.042969 C 5.214844 8.445312 4.972656 8.644531 4.488281 8.636719 C 4.296875 8.636719 4.136719 8.621094 4 8.589844 C 4 8.578125 4.019531 8.441406 4.058594 8.179688 C 4.222656 8.222656 4.363281 8.246094 4.488281 8.246094 C 4.664062 8.246094 4.753906 8.191406 4.753906 8.085938 C 4.753906 8.046875 4.742188 8.015625 4.71875 7.988281 C 4.691406 7.964844 4.632812 7.929688 4.535156 7.886719 C 4.296875 7.773438 4.175781 7.609375 4.175781 7.390625 C 4.175781 6.988281 4.410156 6.789062 4.878906 6.789062 C 5.046875 6.789062 5.1875 6.800781 5.296875 6.820312 Z M 6.035156 6.820312 L 6.269531 6.820312 L 6.210938 7.257812 L 5.96875 7.257812 C 5.957031 7.351562 5.9375 7.464844 5.914062 7.597656 C 5.890625 7.726562 5.867188 7.835938 5.855469 7.917969 C 5.839844 8.003906 5.835938 8.050781 5.835938 8.070312 C 5.835938 8.160156 5.886719 8.203125 5.992188 8.203125 C 6.039062 8.203125 6.082031 8.199219 6.128906 8.1875 L 6.058594 8.578125 C 5.941406 8.617188 5.832031 8.636719 5.726562 8.636719 C 5.484375 8.636719 5.359375 8.507812 5.347656 8.246094 C 5.347656 8.179688 5.371094 8.023438 5.414062 7.777344 C 5.433594 7.664062 5.503906 7.257812 5.625 6.554688 L 6.085938 6.554688 Z M 7.734375 7.433594 C 7.734375 7.5625 7.714844 7.707031 7.675781 7.867188 L 6.746094 7.867188 C 6.730469 7.992188 6.757812 8.082031 6.832031 8.144531 C 6.902344 8.207031 7.007812 8.238281 7.148438 8.238281 C 7.316406 8.238281 7.476562 8.199219 7.632812 8.121094 L 7.558594 8.570312 C 7.390625 8.617188 7.230469 8.636719 7.082031 8.636719 C 6.550781 8.636719 6.285156 8.375 6.285156 7.84375 C 6.285156 7.535156 6.363281 7.285156 6.515625 7.085938 C 6.667969 6.886719 6.863281 6.789062 7.097656 6.789062 C 7.292969 6.789062 7.449219 6.847656 7.5625 6.964844 C 7.675781 7.082031 7.734375 7.238281 7.734375 7.433594 Z M 8.898438 6.8125 C 8.824219 6.941406 8.765625 7.113281 8.714844 7.332031 C 8.589844 7.320312 8.503906 7.386719 8.453125 7.535156 C 8.402344 7.679688 8.335938 8.035156 8.246094 8.605469 L 7.777344 8.605469 L 7.800781 8.488281 C 7.925781 7.761719 8.003906 7.207031 8.042969 6.820312 L 8.472656 6.820312 L 8.445312 7.097656 C 8.523438 6.980469 8.59375 6.898438 8.660156 6.851562 C 8.722656 6.804688 8.804688 6.792969 8.898438 6.8125 Z M 10.464844 6.46875 L 10.386719 6.949219 C 10.230469 6.871094 10.09375 6.832031 9.96875 6.832031 C 9.796875 6.832031 9.652344 6.90625 9.542969 7.0625 C 9.429688 7.214844 9.375 7.410156 9.375 7.652344 C 9.375 7.816406 9.414062 7.949219 9.488281 8.042969 C 9.5625 8.140625 9.671875 8.1875 9.808594 8.1875 C 9.925781 8.1875 10.0625 8.148438 10.210938 8.078125 L 10.128906 8.570312 C 9.972656 8.617188 9.832031 8.636719 9.710938 8.636719 C 9.457031 8.636719 9.257812 8.554688 9.109375 8.382812 C 8.964844 8.210938 8.890625 7.984375 8.890625 7.691406 C 8.890625 7.300781 8.988281 6.980469 9.1875 6.734375 C 9.382812 6.484375 9.640625 6.363281 9.953125 6.363281 C 10.097656 6.363281 10.269531 6.398438 10.464844 6.46875 Z M 11.820312 7.308594 C 11.820312 7.40625 11.808594 7.523438 11.785156 7.660156 C 11.714844 8.101562 11.664062 8.414062 11.644531 8.605469 L 11.257812 8.605469 L 11.265625 8.421875 C 11.15625 8.566406 10.992188 8.636719 10.773438 8.636719 C 10.644531 8.636719 10.542969 8.59375 10.464844 8.503906 C 10.386719 8.414062 10.347656 8.296875 10.347656 8.152344 C 10.347656 7.933594 10.417969 7.765625 10.558594 7.648438 C 10.703125 7.527344 10.902344 7.464844 11.167969 7.464844 C 11.25 7.464844 11.3125 7.46875 11.359375 7.476562 C 11.371094 7.4375 11.375 7.398438 11.375 7.367188 C 11.375 7.253906 11.273438 7.199219 11.074219 7.199219 C 10.914062 7.199219 10.746094 7.226562 10.582031 7.28125 C 10.582031 7.261719 10.601562 7.125 10.648438 6.878906 C 10.859375 6.820312 11.046875 6.789062 11.207031 6.789062 C 11.617188 6.789062 11.820312 6.960938 11.820312 7.308594 Z M 13 6.8125 C 12.921875 6.949219 12.863281 7.121094 12.824219 7.332031 C 12.695312 7.320312 12.605469 7.386719 12.558594 7.523438 C 12.511719 7.664062 12.441406 8.023438 12.347656 8.605469 L 11.878906 8.605469 L 11.902344 8.488281 C 12.007812 7.90625 12.089844 7.351562 12.144531 6.820312 L 12.582031 6.820312 C 12.582031 6.882812 12.570312 6.976562 12.546875 7.097656 C 12.632812 6.980469 12.703125 6.898438 12.769531 6.851562 C 12.832031 6.804688 12.910156 6.792969 13 6.8125 Z M 14.179688 6.410156 L 14.648438 6.410156 L 14.289062 8.605469 L 13.84375 8.605469 L 13.871094 8.445312 C 13.742188 8.574219 13.597656 8.636719 13.433594 8.636719 C 13.261719 8.636719 13.125 8.570312 13.019531 8.4375 C 12.917969 8.304688 12.867188 8.125 12.867188 7.902344 C 12.867188 7.605469 12.941406 7.347656 13.09375 7.132812 C 13.25 6.914062 13.429688 6.804688 13.636719 6.804688 C 13.808594 6.804688 13.957031 6.886719 14.078125 7.046875 Z M 15.109375 7.5 C 15.109375 6.675781 14.90625 5.914062 14.5 5.214844 C 14.097656 4.515625 13.542969 3.964844 12.84375 3.558594 C 12.144531 3.148438 11.382812 2.945312 10.554688 2.945312 C 9.546875 2.945312 8.628906 3.253906 7.808594 3.867188 C 8.519531 4.515625 8.996094 5.308594 9.242188 6.246094 L 8.824219 6.246094 C 8.578125 5.40625 8.136719 4.703125 7.5 4.125 C 6.863281 4.703125 6.421875 5.40625 6.175781 6.246094 L 5.757812 6.246094 C 6.003906 5.308594 6.480469 4.515625 7.191406 3.867188 C 6.371094 3.253906 5.453125 2.945312 4.445312 2.945312 C 3.617188 2.945312 2.855469 3.148438 2.15625 3.558594 C 1.453125 3.964844 0.902344 4.515625 0.5 5.214844 C 0.09375 5.914062 -0.109375 6.675781 -0.109375 7.5 C -0.109375 8.324219 0.09375 9.085938 0.5 9.785156 C 0.902344 10.484375 1.453125 11.035156 2.15625 11.441406 C 2.855469 11.851562 3.617188 12.054688 4.445312 12.054688 C 5.453125 12.054688 6.371094 11.746094 7.191406 11.132812 C 6.519531 10.511719 6.058594 9.777344 5.808594 8.921875 L 6.226562 8.921875 C 6.484375 9.691406 6.910156 10.34375 7.5 10.875 C 8.089844 10.34375 8.515625 9.691406 8.773438 8.921875 L 9.191406 8.921875 C 8.941406 9.777344 8.480469 10.511719 7.808594 11.132812 C 8.628906 11.746094 9.546875 12.054688 10.554688 12.054688 C 11.382812 12.054688 12.144531 11.851562 12.84375 11.441406 C 13.542969 11.035156 14.097656 10.484375 14.5 9.785156 C 14.90625 9.085938 15.109375 8.324219 15.109375 7.5 Z M 17.144531 2.144531 L 17.144531 12.855469 C 17.144531 13.148438 17.035156 13.398438 16.824219 13.609375 C 16.613281 13.824219 16.363281 13.929688 16.070312 13.929688 L -1.070312 13.929688 C -1.363281 13.929688 -1.613281 13.824219 -1.824219 13.609375 C -2.035156 13.398438 -2.144531 13.148438 -2.144531 12.855469 L -2.144531 2.144531 C -2.144531 1.851562 -2.035156 1.601562 -1.824219 1.390625 C -1.613281 1.175781 -1.363281 1.070312 -1.070312 1.070312 L 16.070312 1.070312 C 16.363281 1.070312 16.613281 1.175781 16.824219 1.390625 C 17.035156 1.601562 17.144531 1.851562 17.144531 2.144531 Z M 17.144531 2.144531 "/>
  </g>
</svg>