<?xml version="1.0" encoding="UTF-8" standalone="yes"?>
<svg xmlns="http://www.w3.org/2000/svg" xmlns:xlink="http://www.w3.org/1999/xlink" width="20px" height="20px" viewBox="0 0 15 15" version="1.1">
  <g id="surface1">
    <path style=" stroke:none;fill-rule:nonzero;fill:rgb(0%,0%,0%);fill-opacity:1;" d="M 5.894531 3.214844 C 5.039062 3.214844 4.242188 3.359375 3.5 3.648438 C 2.757812 3.941406 2.167969 4.332031 1.726562 4.828125 C 1.289062 5.328125 1.070312 5.859375 1.070312 6.429688 C 1.070312 6.886719 1.21875 7.328125 1.515625 7.75 C 1.8125 8.175781 2.226562 8.542969 2.761719 8.855469 L 3.574219 9.324219 L 3.28125 10.027344 C 3.472656 9.917969 3.644531 9.808594 3.800781 9.703125 L 4.167969 9.441406 L 4.613281 9.527344 C 5.046875 9.605469 5.472656 9.644531 5.894531 9.644531 C 6.746094 9.644531 7.542969 9.496094 8.285156 9.207031 C 9.027344 8.917969 9.617188 8.523438 10.058594 8.027344 C 10.496094 7.53125 10.714844 6.996094 10.714844 6.429688 C 10.714844 5.859375 10.496094 5.328125 10.058594 4.828125 C 9.617188 4.332031 9.027344 3.941406 8.285156 3.648438 C 7.542969 3.359375 6.746094 3.214844 5.894531 3.214844 Z M 5.894531 2.144531 C 6.957031 2.144531 7.945312 2.332031 8.851562 2.714844 C 9.757812 3.097656 10.472656 3.617188 11 4.277344 C 11.523438 4.9375 11.785156 5.652344 11.785156 6.429688 C 11.785156 7.203125 11.523438 7.921875 11 8.578125 C 10.472656 9.238281 9.757812 9.757812 8.851562 10.140625 C 7.945312 10.523438 6.957031 10.714844 5.894531 10.714844 C 5.414062 10.714844 4.921875 10.667969 4.417969 10.582031 C 3.726562 11.070312 2.953125 11.429688 2.09375 11.652344 C 1.890625 11.703125 1.652344 11.746094 1.371094 11.785156 L 1.347656 11.785156 C 1.285156 11.785156 1.230469 11.761719 1.175781 11.71875 C 1.121094 11.675781 1.089844 11.617188 1.078125 11.542969 C 1.074219 11.527344 1.070312 11.507812 1.070312 11.488281 C 1.070312 11.46875 1.074219 11.449219 1.074219 11.433594 C 1.078125 11.417969 1.085938 11.402344 1.09375 11.382812 L 1.113281 11.34375 L 1.140625 11.296875 L 1.175781 11.253906 L 1.214844 11.210938 L 1.246094 11.175781 C 1.273438 11.140625 1.339844 11.070312 1.441406 10.964844 C 1.539062 10.859375 1.613281 10.777344 1.65625 10.71875 C 1.703125 10.660156 1.765625 10.578125 1.84375 10.476562 C 1.925781 10.371094 1.996094 10.265625 2.054688 10.152344 C 2.113281 10.042969 2.171875 9.917969 2.226562 9.785156 C 1.535156 9.382812 0.992188 8.890625 0.59375 8.304688 C 0.199219 7.71875 0 7.09375 0 6.429688 C 0 5.652344 0.261719 4.9375 0.785156 4.277344 C 1.3125 3.617188 2.027344 3.097656 2.933594 2.714844 C 3.839844 2.332031 4.828125 2.144531 5.894531 2.144531 Z M 12.773438 11.929688 C 12.828125 12.0625 12.886719 12.183594 12.945312 12.296875 C 13.003906 12.40625 13.074219 12.515625 13.15625 12.617188 C 13.234375 12.722656 13.296875 12.804688 13.34375 12.859375 C 13.386719 12.921875 13.460938 13.003906 13.558594 13.109375 C 13.660156 13.214844 13.726562 13.285156 13.753906 13.316406 C 13.757812 13.324219 13.769531 13.335938 13.785156 13.355469 C 13.804688 13.375 13.816406 13.390625 13.824219 13.398438 C 13.832031 13.40625 13.84375 13.417969 13.859375 13.4375 C 13.871094 13.457031 13.882812 13.472656 13.886719 13.484375 L 13.90625 13.527344 L 13.925781 13.578125 L 13.929688 13.632812 L 13.921875 13.6875 C 13.902344 13.765625 13.867188 13.824219 13.8125 13.871094 C 13.753906 13.914062 13.695312 13.933594 13.628906 13.929688 C 13.347656 13.890625 13.109375 13.84375 12.90625 13.792969 C 12.046875 13.570312 11.273438 13.214844 10.582031 12.722656 C 10.078125 12.8125 9.585938 12.855469 9.105469 12.855469 C 7.59375 12.855469 6.277344 12.488281 5.15625 11.753906 C 5.480469 11.773438 5.726562 11.785156 5.894531 11.785156 C 6.792969 11.785156 7.652344 11.660156 8.480469 11.410156 C 9.304688 11.15625 10.042969 10.796875 10.6875 10.328125 C 11.386719 9.816406 11.921875 9.222656 12.296875 8.554688 C 12.671875 7.886719 12.855469 7.175781 12.855469 6.429688 C 12.855469 6 12.792969 5.574219 12.664062 5.15625 C 13.382812 5.550781 13.953125 6.050781 14.371094 6.644531 C 14.789062 7.242188 15 7.886719 15 8.570312 C 15 9.242188 14.800781 9.867188 14.40625 10.449219 C 14.007812 11.035156 13.464844 11.527344 12.773438 11.929688 Z M 12.773438 11.929688 "/>
  </g>
</svg>