<?xml version="1.0" encoding="UTF-8" standalone="yes"?>
<svg xmlns="http://www.w3.org/2000/svg" xmlns:xlink="http://www.w3.org/1999/xlink" width="20px" height="20px" viewBox="0 0 15 15" version="1.1">
  <g id="surface1">
    <path style=" stroke:none;fill-rule:nonzero;fill:rgb(0%,0%,0%);fill-opacity:1;" d="M 11.945312 2.519531 L 7.5 6.964844 L 11.945312 11.410156 C 12.050781 11.515625 12.105469 11.640625 12.105469 11.785156 C 12.105469 11.929688 12.050781 12.054688 11.945312 12.164062 L 10.554688 13.550781 C 10.449219 13.65625 10.324219 13.710938 10.179688 13.710938 C 10.035156 13.710938 9.90625 13.65625 9.800781 13.550781 L 3.589844 7.339844 C 3.484375 7.234375 3.433594 7.109375 3.433594 6.964844 C 3.433594 6.820312 3.484375 6.695312 3.589844 6.585938 L 9.800781 0.375 C 9.90625 0.269531 10.035156 0.21875 10.179688 0.21875 C 10.324219 0.21875 10.449219 0.269531 10.554688 0.375 L 11.945312 1.765625 C 12.050781 1.871094 12.105469 1.996094 12.105469 2.144531 C 12.105469 2.289062 12.050781 2.414062 11.945312 2.519531 Z M 11.945312 2.519531 "/>
  </g>
</svg>