<svg xmlns="http://www.w3.org/2000/svg" xlink="http://www.w3.org/1999/xlink" width="20px" height="20px" viewBox="0 0 15 15" version="1.1">
  <g id="surface1">
    <path d="M 14.730469 7.5 C 14.730469 8.480469 14.539062 9.417969 14.160156 10.3125 C 13.777344 11.207031 13.261719 11.972656 12.617188 12.617188 C 11.972656 13.261719 11.207031 13.777344 10.3125 14.160156 C 9.417969 14.539062 8.480469 14.730469 7.5 14.730469 C 6.519531 14.730469 5.582031 14.539062 4.6875 14.160156 C 3.792969 13.777344 3.027344 13.261719 2.382812 12.617188 C 1.738281 11.972656 1.222656 11.207031 0.839844 10.3125 C 0.457031 9.417969 0.269531 8.480469 0.269531 7.5 C 0.269531 6.3125 0.539062 5.199219 1.078125 4.164062 C 1.621094 3.128906 2.359375 2.277344 3.296875 1.605469 C 4.234375 0.9375 5.277344 0.515625 6.429688 0.34375 L 6.429688 2.25 C 5.195312 2.503906 4.171875 3.121094 3.359375 4.101562 C 2.546875 5.082031 2.144531 6.214844 2.144531 7.5 C 2.144531 8.226562 2.285156 8.917969 2.570312 9.578125 C 2.855469 10.242188 3.234375 10.8125 3.710938 11.289062 C 4.1875 11.765625 4.757812 12.144531 5.421875 12.429688 C 6.082031 12.714844 6.773438 12.855469 7.5 12.855469 C 8.226562 12.855469 8.917969 12.714844 9.578125 12.429688 C 10.242188 12.144531 10.8125 11.765625 11.289062 11.289062 C 11.765625 10.8125 12.144531 10.242188 12.429688 9.578125 C 12.714844 8.917969 12.855469 8.226562 12.855469 7.5 C 12.855469 6.214844 12.453125 5.082031 11.640625 4.101562 C 10.828125 3.121094 9.804688 2.503906 8.570312 2.25 L 8.570312 0.34375 C 9.722656 0.515625 10.765625 0.9375 11.703125 1.605469 C 12.640625 2.277344 13.378906 3.128906 13.921875 4.164062 C 14.460938 5.199219 14.730469 6.3125 14.730469 7.5 Z M 14.730469 7.5 " fill="#FFFFFF"/>
  </g>
</svg>