<?xml version="1.0" encoding="UTF-8" standalone="no"?>
<svg
   xmlns:dc="http://purl.org/dc/elements/1.1/"
   xmlns:cc="http://creativecommons.org/ns#"
   xmlns:rdf="http://www.w3.org/1999/02/22-rdf-syntax-ns#"
   xmlns:svg="http://www.w3.org/2000/svg"
   xmlns="http://www.w3.org/2000/svg"
   xmlns:sodipodi="http://sodipodi.sourceforge.net/DTD/sodipodi-0.dtd"
   xmlns:inkscape="http://www.inkscape.org/namespaces/inkscape"
   version="1.1"
   xlink="http://www.w3.org/1999/xlink"
   x="0px"
   y="0px"
   width="15"
   height="15"
   viewBox="0 0 15 15"
   space="preserve"
   id="svg4"
   sodipodi:docname="fa-chess-knight-solid.svg"
   inkscape:version="0.92.3 (2405546, 2018-03-11)">
  <metadata
     id="metadata10">
    <rdf:RDF>
      <cc:Work
         rdf:about="">
        <dc:format>image/svg+xml</dc:format>
        <dc:type
           rdf:resource="http://purl.org/dc/dcmitype/StillImage" />
        <dc:title></dc:title>
      </cc:Work>
    </rdf:RDF>
  </metadata>
  <defs
     id="defs8" />
  <sodipodi:namedview
     pagecolor="#ffffff"
     bordercolor="#666666"
     borderopacity="1"
     objecttolerance="10"
     gridtolerance="10"
     guidetolerance="10"
     inkscape:pageopacity="0"
     inkscape:pageshadow="2"
     inkscape:window-width="640"
     inkscape:window-height="480"
     id="namedview6"
     showgrid="false"
     inkscape:zoom="11.8"
     inkscape:cx="7.5"
     inkscape:cy="10"
     inkscape:window-x="67"
     inkscape:window-y="27"
     inkscape:window-maximized="0"
     inkscape:current-layer="svg4" />
  <path
     d="M 12.539923,6.0720338 V 12.884181 H 3.2971578 V 11.46832 c 0,-0.921526 0.494488,-1.7639524 1.2773212,-2.1760566 L 6.2278653,8.4218293 A 1.3864148,1.4597458 0 0 0 6.9942638,7.1161774 V 5.585452 L 6.3551555,5.921893 A 0.69309184,0.72975123 0 0 0 5.9926658,6.3976789 L 5.650828,7.8372923 A 0.34660368,0.36493644 0 0 1 5.4432989,8.087608 L 4.5883143,8.4476792 a 0.34654592,0.36487561 0 0 1 -0.2694844,-0.0053 L 2.5787063,7.6280926 A 0.34660368,0.36493644 0 0 1 2.3728813,7.2946014 V 2.4816979 c 0,-0.1935683 0.073047,-0.3792297 0.2030521,-0.5161114 L 2.8350196,1.6927966 2.4245542,0.82844469 A 0.48920221,0.51507737 0 0 1 2.3728814,0.59798728 c 0,-0.20153607 0.1551919,-0.36493637 0.3466038,-0.36493637 h 4.2747787 c 3.0627921,0 5.5456591,2.61419169 5.5456591,5.83898289 z m 0.577673,7.2987292 H 2.7194851 c -0.1914119,0 -0.3466038,0.163401 -0.3466038,0.364937 v 0.729873 c 0,0.201537 0.1551919,0.364936 0.3466038,0.364936 H 13.117596 c 0.191412,0 0.346604,-0.163399 0.346604,-0.364936 V 13.7357 c 0,-0.201536 -0.155192,-0.364937 -0.346604,-0.364937 z M 3.8748307,3.1525424 c -0.3190488,0 -0.5776729,0.2723034 -0.5776729,0.6082273 0,0.3359241 0.2586241,0.6082274 0.5776729,0.6082274 0.3190487,0 0.5776728,-0.2723033 0.5776728,-0.6082274 0,-0.3359239 -0.2586241,-0.6082273 -0.5776728,-0.6082273 z"
     id="path2"
     inkscape:connector-curvature="0"
     style="fill:#ffffff;stroke-width:1.08163261" />
</svg>
