<svg version="1.1" xmlns="http://www.w3.org/2000/svg" xlink="http://www.w3.org/1999/xlink" x="0px" y="0px" width="15px" height="16.875px" viewBox="0 0 15 16.875" style="enable-background:new 0 0 15 15;" space="preserve">
    <path d="M9.755859375,15.29296875h-1.845703125V11.165844726562499l5.5614990234375,-5.56116943359375c0.5115234375,-0.5115234375,0.14930419921875002,-1.38592529296875,-0.5741455078125001,-1.38592529296875H0.8134277343749999c-0.72344970703125,0,-1.0856689453125,0.87440185546875,-0.5741455078125001,1.38592529296875L5.80078125,11.165844726562499V15.29296875h-1.845703125c-0.72806396484375,0,-1.318359375,0.59029541015625,-1.318359375,1.318359375c0,0.14567871093749998,0.1179931640625,0.263671875,0.263671875,0.263671875h7.91015625c0.14567871093749998,0,0.263671875,-0.1179931640625,0.263671875,-0.263671875c0,-0.72806396484375,-0.59029541015625,-1.318359375,-1.318359375,-1.318359375zM14.23828125,0c-2.06356201171875,0,-3.80181884765625,1.324951171875,-4.4553955078125,3.1640625h1.7316650390625001c0.5487670898437499,-0.94097900390625,1.5579711914062502,-1.58203125,2.72373046875,-1.58203125c1.74451904296875,0,3.1640625,1.4192138671875,3.1640625,3.1640625s-1.41954345703125,3.1640625,-3.1640625,3.1640625c-0.46274414062499997,0,-0.8994506835937499,-0.10546875,-1.295947265625,-0.284765625l-1.1621337890624999,1.1621337890624999C12.49903564453125,9.225878906250001,13.334875488281249,9.4921875,14.23828125,9.4921875c2.6212280273437503,0,4.74609375,-2.1248657226562497,4.74609375,-4.74609375S16.85950927734375,0,14.23828125,0z" fill="#FFFFFF"/>
    </svg>