<?xml version="1.0" encoding="UTF-8" standalone="yes"?>
<svg xmlns="http://www.w3.org/2000/svg" xmlns:xlink="http://www.w3.org/1999/xlink" width="20px" height="20px" viewBox="0 0 15 15" version="1.1">
  <g id="surface1">
    <path style=" stroke:none;fill-rule:nonzero;fill:rgb(0%,0%,0%);fill-opacity:1;" d="M 7.5 3.214844 C 6.363281 3.214844 5.296875 3.40625 4.304688 3.796875 C 3.316406 4.183594 2.527344 4.707031 1.945312 5.367188 C 1.363281 6.023438 1.070312 6.734375 1.070312 7.5 C 1.070312 8.125 1.269531 8.71875 1.671875 9.289062 C 2.070312 9.851562 2.632812 10.34375 3.355469 10.757812 L 4.085938 11.175781 L 3.859375 11.976562 C 3.726562 12.484375 3.53125 12.964844 3.273438 13.417969 C 4.121094 13.066406 4.886719 12.589844 5.574219 11.988281 L 5.933594 11.667969 L 6.410156 11.71875 C 6.796875 11.761719 7.160156 11.785156 7.5 11.785156 C 8.636719 11.785156 9.703125 11.589844 10.695312 11.203125 C 11.683594 10.816406 12.46875 10.292969 13.054688 9.632812 C 13.636719 8.976562 13.929688 8.265625 13.929688 7.5 C 13.929688 6.734375 13.636719 6.023438 13.054688 5.367188 C 12.46875 4.707031 11.683594 4.183594 10.695312 3.796875 C 9.703125 3.40625 8.636719 3.214844 7.5 3.214844 Z M 15 7.5 C 15 8.472656 14.664062 9.367188 13.996094 10.191406 C 13.324219 11.015625 12.417969 11.664062 11.265625 12.140625 C 10.117188 12.617188 8.863281 12.855469 7.5 12.855469 C 7.109375 12.855469 6.703125 12.835938 6.285156 12.789062 C 5.179688 13.765625 3.898438 14.441406 2.4375 14.816406 C 2.164062 14.894531 1.84375 14.957031 1.480469 15 L 1.441406 15 C 1.355469 15 1.28125 14.96875 1.214844 14.914062 C 1.148438 14.851562 1.101562 14.777344 1.078125 14.683594 L 1.078125 14.671875 C 1.0625 14.652344 1.0625 14.617188 1.074219 14.574219 C 1.089844 14.527344 1.09375 14.5 1.09375 14.488281 C 1.089844 14.476562 1.101562 14.453125 1.128906 14.410156 L 1.179688 14.335938 L 1.238281 14.261719 L 1.304688 14.1875 C 1.34375 14.144531 1.429688 14.046875 1.566406 13.898438 C 1.699219 13.75 1.796875 13.644531 1.855469 13.582031 C 1.914062 13.515625 2 13.40625 2.113281 13.25 C 2.226562 13.09375 2.320312 12.953125 2.386719 12.824219 C 2.453125 12.695312 2.527344 12.53125 2.613281 12.328125 C 2.695312 12.128906 2.769531 11.917969 2.828125 11.695312 C 1.953125 11.195312 1.261719 10.582031 0.757812 9.851562 C 0.253906 9.121094 0 8.335938 0 7.5 C 0 6.527344 0.335938 5.632812 1.003906 4.808594 C 1.675781 3.984375 2.582031 3.335938 3.734375 2.859375 C 4.882812 2.382812 6.136719 2.144531 7.5 2.144531 C 8.863281 2.144531 10.117188 2.382812 11.265625 2.859375 C 12.417969 3.335938 13.324219 3.984375 13.996094 4.808594 C 14.664062 5.632812 15 6.527344 15 7.5 Z M 15 7.5 "/>
  </g>
</svg>