<svg xmlns="http://www.w3.org/2000/svg" xlink="http://www.w3.org/1999/xlink" width="20px" height="20px" viewBox="0 0 15 15" version="1.1">
  <g id="surface1">
    <path d="M 4.628906 11.710938 L 4.210938 12.128906 C 4.15625 12.183594 4.089844 12.210938 4.019531 12.210938 C 3.945312 12.210938 3.882812 12.183594 3.824219 12.128906 L -0.0742188 8.226562 C -0.132812 8.171875 -0.160156 8.109375 -0.160156 8.035156 C -0.160156 7.964844 -0.132812 7.898438 -0.0742188 7.84375 L 3.824219 3.941406 C 3.882812 3.886719 3.945312 3.859375 4.019531 3.859375 C 4.089844 3.859375 4.15625 3.886719 4.210938 3.941406 L 4.628906 4.359375 C 4.683594 4.417969 4.710938 4.480469 4.710938 4.554688 C 4.710938 4.625 4.683594 4.691406 4.628906 4.746094 L 1.339844 8.035156 L 4.628906 11.324219 C 4.683594 11.382812 4.710938 11.445312 4.710938 11.519531 C 4.710938 11.589844 4.683594 11.65625 4.628906 11.710938 Z M 9.574219 2.777344 L 6.453125 13.585938 C 6.429688 13.65625 6.386719 13.710938 6.324219 13.75 C 6.257812 13.785156 6.195312 13.792969 6.128906 13.769531 L 5.609375 13.628906 C 5.535156 13.605469 5.480469 13.5625 5.445312 13.496094 C 5.410156 13.433594 5.402344 13.363281 5.425781 13.292969 L 8.546875 2.484375 C 8.570312 2.414062 8.613281 2.359375 8.675781 2.324219 C 8.738281 2.285156 8.804688 2.28125 8.871094 2.300781 L 9.390625 2.445312 C 9.464844 2.464844 9.519531 2.507812 9.554688 2.574219 C 9.589844 2.636719 9.597656 2.707031 9.574219 2.777344 Z M 15.074219 8.226562 L 11.175781 12.128906 C 11.117188 12.183594 11.054688 12.210938 10.980469 12.210938 C 10.910156 12.210938 10.84375 12.183594 10.789062 12.128906 L 10.371094 11.710938 C 10.316406 11.65625 10.289062 11.589844 10.289062 11.519531 C 10.289062 11.445312 10.316406 11.382812 10.371094 11.324219 L 13.660156 8.035156 L 10.371094 4.746094 C 10.316406 4.691406 10.289062 4.625 10.289062 4.554688 C 10.289062 4.480469 10.316406 4.417969 10.371094 4.359375 L 10.789062 3.941406 C 10.84375 3.886719 10.910156 3.859375 10.980469 3.859375 C 11.054688 3.859375 11.117188 3.886719 11.175781 3.941406 L 15.074219 7.84375 C 15.132812 7.898438 15.160156 7.964844 15.160156 8.035156 C 15.160156 8.109375 15.132812 8.171875 15.074219 8.226562 Z M 15.074219 8.226562 " fill="#FFFFFF"/>
  </g>
</svg>