<svg xmlns="http://www.w3.org/2000/svg" xlink="http://www.w3.org/1999/xlink" width="20px" height="20px" viewBox="0 0 15 15" version="1.1">
  <g id="surface1">
    <path d="M 14.085938 11.140625 L 12.699219 12.523438 C 12.59375 12.628906 12.464844 12.679688 12.320312 12.679688 C 12.175781 12.679688 12.050781 12.628906 11.945312 12.523438 L 7.5 8.078125 L 3.054688 12.523438 C 2.949219 12.628906 2.824219 12.679688 2.679688 12.679688 C 2.535156 12.679688 2.40625 12.628906 2.300781 12.523438 L 0.914062 11.140625 C 0.804688 11.035156 0.753906 10.90625 0.753906 10.761719 C 0.753906 10.613281 0.804688 10.484375 0.914062 10.378906 L 7.125 4.175781 C 7.230469 4.070312 7.355469 4.019531 7.5 4.019531 C 7.644531 4.019531 7.769531 4.070312 7.875 4.175781 L 14.085938 10.378906 C 14.195312 10.484375 14.246094 10.613281 14.246094 10.761719 C 14.246094 10.90625 14.195312 11.035156 14.085938 11.140625 Z M 14.085938 11.140625 " fill="#FFFFFF"/>
  </g>
</svg>