<?xml version="1.0" encoding="UTF-8" standalone="yes"?>
<svg xmlns="http://www.w3.org/2000/svg" xmlns:xlink="http://www.w3.org/1999/xlink" width="20px" height="20px" viewBox="0 0 15 15" version="1.1">
  <g id="surface1">
    <path style=" stroke:none;fill-rule:nonzero;fill:rgb(0%,0%,0%);fill-opacity:1;" d="M 14.390625 8.285156 L 13.234375 8.285156 C 13.3125 8.082031 13.496094 7.582031 13.785156 6.789062 L 13.8125 6.714844 C 13.832031 6.65625 13.863281 6.585938 13.894531 6.496094 C 13.929688 6.40625 13.953125 6.332031 13.96875 6.277344 L 14.070312 6.738281 Z M 2.300781 7.742188 L 1.816406 5.273438 C 1.753906 4.972656 1.546875 4.820312 1.1875 4.820312 L -1.054688 4.820312 L -1.070312 4.929688 C 0.664062 5.371094 1.789062 6.308594 2.300781 7.742188 Z M 3.800781 4.820312 L 2.445312 8.488281 L 2.300781 7.742188 C 2.15625 7.351562 1.917969 6.992188 1.589844 6.660156 C 1.261719 6.328125 0.894531 6.078125 0.492188 5.917969 L 1.625 10.1875 L 3.089844 10.1875 L 5.273438 4.820312 Z M 4.964844 10.195312 L 6.351562 10.195312 L 7.222656 4.820312 L 5.835938 4.820312 Z M 11.390625 4.957031 C 11.007812 4.804688 10.589844 4.730469 10.144531 4.730469 C 9.457031 4.730469 8.898438 4.894531 8.460938 5.222656 C 8.027344 5.550781 7.808594 5.980469 7.800781 6.503906 C 7.796875 7.074219 8.199219 7.558594 9.015625 7.960938 C 9.28125 8.089844 9.46875 8.203125 9.574219 8.304688 C 9.683594 8.402344 9.734375 8.511719 9.734375 8.628906 C 9.734375 8.796875 9.652344 8.925781 9.484375 9.015625 C 9.316406 9.105469 9.125 9.148438 8.90625 9.148438 C 8.425781 9.148438 7.992188 9.058594 7.601562 8.871094 L 7.417969 8.78125 L 7.222656 9.984375 C 7.636719 10.175781 8.152344 10.269531 8.773438 10.269531 C 9.496094 10.277344 10.078125 10.113281 10.515625 9.777344 C 10.957031 9.441406 11.179688 8.996094 11.191406 8.4375 C 11.191406 7.847656 10.800781 7.359375 10.019531 6.980469 C 9.746094 6.839844 9.546875 6.722656 9.425781 6.628906 C 9.300781 6.535156 9.242188 6.429688 9.242188 6.3125 C 9.242188 6.1875 9.308594 6.082031 9.445312 5.988281 C 9.582031 5.898438 9.78125 5.851562 10.035156 5.851562 C 10.425781 5.84375 10.773438 5.914062 11.074219 6.050781 L 11.199219 6.117188 Z M 14.949219 4.820312 L 13.878906 4.820312 C 13.515625 4.820312 13.273438 4.972656 13.148438 5.273438 L 11.089844 10.195312 L 12.546875 10.195312 L 12.839844 9.390625 L 14.613281 9.390625 C 14.644531 9.515625 14.699219 9.78125 14.78125 10.195312 L 16.070312 10.195312 Z M 17.144531 2.144531 L 17.144531 12.855469 C 17.144531 13.148438 17.035156 13.398438 16.824219 13.609375 C 16.613281 13.824219 16.363281 13.929688 16.070312 13.929688 L -1.070312 13.929688 C -1.363281 13.929688 -1.613281 13.824219 -1.824219 13.609375 C -2.035156 13.398438 -2.144531 13.148438 -2.144531 12.855469 L -2.144531 2.144531 C -2.144531 1.851562 -2.035156 1.601562 -1.824219 1.390625 C -1.613281 1.175781 -1.363281 1.070312 -1.070312 1.070312 L 16.070312 1.070312 C 16.363281 1.070312 16.613281 1.175781 16.824219 1.390625 C 17.035156 1.601562 17.144531 1.851562 17.144531 2.144531 Z M 17.144531 2.144531 "/>
  </g>
</svg>