<svg xmlns="http://www.w3.org/2000/svg" xlink="http://www.w3.org/1999/xlink" width="20px" height="20px" viewBox="0 0 15 15" version="1.1">
  <g id="surface1">
    <path d="M 4.09375 7.582031 C 4.09375 7.789062 4.023438 7.960938 3.878906 8.097656 C 3.738281 8.234375 3.5625 8.304688 3.355469 8.304688 C 3.195312 8.304688 3.066406 8.257812 2.96875 8.167969 C 2.871094 8.082031 2.820312 7.957031 2.820312 7.800781 C 2.820312 7.59375 2.890625 7.421875 3.03125 7.277344 C 3.167969 7.136719 3.34375 7.066406 3.550781 7.066406 C 3.707031 7.066406 3.835938 7.109375 3.9375 7.203125 C 4.042969 7.296875 4.09375 7.421875 4.09375 7.582031 Z M 10.664062 6.335938 C 10.664062 6.570312 10.601562 6.730469 10.480469 6.8125 C 10.355469 6.898438 10.171875 6.9375 9.925781 6.9375 L 9.660156 6.949219 L 9.800781 6.050781 C 9.8125 5.992188 9.847656 5.960938 9.910156 5.960938 L 10.0625 5.960938 C 10.183594 5.960938 10.28125 5.964844 10.355469 5.976562 C 10.425781 5.988281 10.496094 6.023438 10.5625 6.082031 C 10.628906 6.140625 10.664062 6.226562 10.664062 6.335938 Z M 13.601562 7.582031 C 13.601562 7.785156 13.53125 7.953125 13.390625 8.09375 C 13.246094 8.234375 13.074219 8.304688 12.875 8.304688 C 12.710938 8.304688 12.582031 8.257812 12.480469 8.167969 C 12.378906 8.082031 12.328125 7.957031 12.328125 7.800781 C 12.328125 7.59375 12.398438 7.421875 12.539062 7.277344 C 12.679688 7.136719 12.851562 7.066406 13.058594 7.066406 C 13.214844 7.066406 13.34375 7.109375 13.445312 7.203125 C 13.550781 7.296875 13.601562 7.421875 13.601562 7.582031 Z M 2.152344 6.152344 C 2.152344 5.824219 2.042969 5.585938 1.828125 5.4375 C 1.613281 5.289062 1.332031 5.214844 0.988281 5.214844 L -0.351562 5.214844 C -0.457031 5.214844 -0.515625 5.269531 -0.527344 5.375 L -1.070312 8.789062 C -1.078125 8.824219 -1.070312 8.851562 -1.046875 8.882812 C -1.023438 8.910156 -0.996094 8.921875 -0.960938 8.921875 L -0.328125 8.921875 C -0.214844 8.921875 -0.152344 8.871094 -0.140625 8.765625 L 0.0078125 7.84375 C 0.015625 7.796875 0.0351562 7.761719 0.0664062 7.734375 C 0.101562 7.707031 0.140625 7.6875 0.191406 7.679688 C 0.242188 7.671875 0.289062 7.667969 0.335938 7.667969 C 0.378906 7.667969 0.433594 7.671875 0.492188 7.675781 C 0.554688 7.679688 0.59375 7.683594 0.609375 7.683594 C 1.089844 7.683594 1.46875 7.546875 1.742188 7.277344 C 2.015625 7.007812 2.152344 6.632812 2.152344 6.152344 Z M 4.738281 8.765625 L 5.082031 6.578125 C 5.085938 6.546875 5.078125 6.515625 5.054688 6.488281 C 5.035156 6.460938 5.003906 6.445312 4.972656 6.445312 L 4.335938 6.445312 C 4.257812 6.445312 4.210938 6.539062 4.195312 6.722656 C 4.042969 6.5 3.777344 6.386719 3.398438 6.386719 C 2.996094 6.386719 2.65625 6.539062 2.375 6.839844 C 2.089844 7.140625 1.949219 7.496094 1.949219 7.902344 C 1.949219 8.230469 2.046875 8.492188 2.238281 8.6875 C 2.429688 8.882812 2.691406 8.980469 3.011719 8.980469 C 3.167969 8.980469 3.332031 8.949219 3.5 8.882812 C 3.667969 8.8125 3.800781 8.726562 3.902344 8.613281 C 3.878906 8.679688 3.867188 8.738281 3.867188 8.789062 C 3.867188 8.878906 3.902344 8.921875 3.976562 8.921875 L 4.554688 8.921875 C 4.660156 8.921875 4.722656 8.871094 4.738281 8.765625 Z M 8.480469 6.5625 C 8.480469 6.535156 8.46875 6.507812 8.445312 6.484375 C 8.421875 6.457031 8.398438 6.445312 8.371094 6.445312 L 7.726562 6.445312 C 7.664062 6.445312 7.613281 6.472656 7.574219 6.527344 L 6.6875 7.835938 L 6.320312 6.578125 C 6.292969 6.488281 6.230469 6.445312 6.136719 6.445312 L 5.507812 6.445312 C 5.480469 6.445312 5.453125 6.457031 5.433594 6.484375 C 5.410156 6.507812 5.398438 6.535156 5.398438 6.5625 C 5.398438 6.574219 5.453125 6.738281 5.5625 7.054688 C 5.671875 7.375 5.789062 7.71875 5.914062 8.085938 C 6.039062 8.453125 6.105469 8.648438 6.109375 8.671875 C 5.652344 9.296875 5.425781 9.632812 5.425781 9.675781 C 5.425781 9.75 5.460938 9.785156 5.53125 9.785156 L 6.175781 9.785156 C 6.238281 9.785156 6.289062 9.757812 6.328125 9.703125 L 8.460938 6.621094 C 8.472656 6.609375 8.480469 6.589844 8.480469 6.5625 Z M 11.660156 6.152344 C 11.660156 5.824219 11.550781 5.585938 11.335938 5.4375 C 11.121094 5.289062 10.84375 5.214844 10.496094 5.214844 L 9.164062 5.214844 C 9.054688 5.214844 8.992188 5.269531 8.980469 5.375 L 8.4375 8.789062 C 8.433594 8.824219 8.441406 8.851562 8.460938 8.882812 C 8.484375 8.910156 8.511719 8.921875 8.546875 8.921875 L 9.234375 8.921875 C 9.300781 8.921875 9.34375 8.886719 9.367188 8.8125 L 9.515625 7.84375 C 9.523438 7.796875 9.542969 7.761719 9.574219 7.734375 C 9.609375 7.707031 9.652344 7.6875 9.703125 7.679688 C 9.75 7.671875 9.800781 7.667969 9.84375 7.667969 C 9.886719 7.667969 9.941406 7.671875 10.003906 7.675781 C 10.0625 7.679688 10.101562 7.683594 10.121094 7.683594 C 10.601562 7.683594 10.976562 7.546875 11.25 7.277344 C 11.523438 7.007812 11.660156 6.632812 11.660156 6.152344 Z M 14.246094 8.765625 L 14.589844 6.578125 C 14.59375 6.546875 14.585938 6.515625 14.566406 6.488281 C 14.542969 6.460938 14.515625 6.445312 14.480469 6.445312 L 13.84375 6.445312 C 13.765625 6.445312 13.71875 6.539062 13.703125 6.722656 C 13.558594 6.5 13.292969 6.386719 12.90625 6.386719 C 12.503906 6.386719 12.164062 6.539062 11.882812 6.839844 C 11.601562 7.140625 11.460938 7.496094 11.460938 7.902344 C 11.460938 8.230469 11.554688 8.492188 11.75 8.6875 C 11.941406 8.882812 12.199219 8.980469 12.523438 8.980469 C 12.683594 8.980469 12.847656 8.949219 13.015625 8.882812 C 13.183594 8.8125 13.316406 8.726562 13.410156 8.613281 C 13.410156 8.617188 13.402344 8.644531 13.394531 8.6875 C 13.382812 8.734375 13.375 8.765625 13.375 8.789062 C 13.375 8.878906 13.414062 8.921875 13.484375 8.921875 L 14.0625 8.921875 C 14.167969 8.921875 14.230469 8.871094 14.246094 8.765625 Z M 16.070312 5.339844 L 16.070312 5.332031 C 16.070312 5.253906 16.035156 5.214844 15.960938 5.214844 L 15.34375 5.214844 C 15.28125 5.214844 15.246094 5.246094 15.234375 5.308594 L 14.691406 8.789062 L 14.683594 8.804688 C 14.683594 8.832031 14.691406 8.859375 14.714844 8.886719 C 14.738281 8.910156 14.765625 8.921875 14.800781 8.921875 L 15.351562 8.921875 C 15.457031 8.921875 15.515625 8.871094 15.527344 8.765625 Z M 1.136719 6.460938 C 1.109375 6.65625 1.039062 6.785156 0.921875 6.847656 C 0.804688 6.910156 0.636719 6.9375 0.417969 6.9375 L 0.140625 6.949219 L 0.285156 6.050781 C 0.296875 5.992188 0.332031 5.960938 0.394531 5.960938 L 0.550781 5.960938 C 0.777344 5.960938 0.9375 5.992188 1.039062 6.054688 C 1.136719 6.121094 1.171875 6.253906 1.136719 6.460938 Z M 17.144531 2.144531 L 17.144531 12.855469 C 17.144531 13.148438 17.035156 13.398438 16.824219 13.609375 C 16.613281 13.824219 16.363281 13.929688 16.070312 13.929688 L -1.070312 13.929688 C -1.363281 13.929688 -1.613281 13.824219 -1.824219 13.609375 C -2.035156 13.398438 -2.144531 13.148438 -2.144531 12.855469 L -2.144531 2.144531 C -2.144531 1.851562 -2.035156 1.601562 -1.824219 1.390625 C -1.613281 1.175781 -1.363281 1.070312 -1.070312 1.070312 L 16.070312 1.070312 C 16.363281 1.070312 16.613281 1.175781 16.824219 1.390625 C 17.035156 1.601562 17.144531 1.851562 17.144531 2.144531 Z M 17.144531 2.144531 " fill="#FFFFFF"/>
  </g>
</svg>