<?xml version="1.0" encoding="UTF-8" standalone="yes"?>
<svg xmlns="http://www.w3.org/2000/svg" xmlns:xlink="http://www.w3.org/1999/xlink" width="20px" height="20px" viewBox="0 0 15 15" version="1.1">
  <g id="surface1">
    <path style=" stroke:none;fill-rule:nonzero;fill:rgb(0%,0%,0%);fill-opacity:1;" d="M 10.65625 9.351562 C 10.5625 9.546875 10.402344 9.644531 10.179688 9.644531 L 4.820312 9.644531 C 4.597656 9.644531 4.4375 9.546875 4.34375 9.351562 C 4.242188 9.15625 4.257812 8.96875 4.386719 8.796875 L 7.066406 5.046875 C 7.171875 4.898438 7.316406 4.820312 7.5 4.820312 C 7.683594 4.820312 7.828125 4.898438 7.933594 5.046875 L 10.613281 8.796875 C 10.742188 8.96875 10.757812 9.15625 10.65625 9.351562 Z M 11.785156 11.519531 L 11.785156 3.480469 C 11.785156 3.410156 11.757812 3.347656 11.707031 3.292969 C 11.652344 3.242188 11.589844 3.214844 11.519531 3.214844 L 3.480469 3.214844 C 3.410156 3.214844 3.347656 3.242188 3.292969 3.292969 C 3.242188 3.347656 3.214844 3.410156 3.214844 3.480469 L 3.214844 11.519531 C 3.214844 11.589844 3.242188 11.652344 3.292969 11.707031 C 3.347656 11.757812 3.410156 11.785156 3.480469 11.785156 L 11.519531 11.785156 C 11.589844 11.785156 11.652344 11.757812 11.707031 11.707031 C 11.757812 11.652344 11.785156 11.589844 11.785156 11.519531 Z M 13.929688 3.480469 L 13.929688 11.519531 C 13.929688 12.183594 13.691406 12.75 13.222656 13.222656 C 12.75 13.691406 12.183594 13.929688 11.519531 13.929688 L 3.480469 13.929688 C 2.816406 13.929688 2.25 13.691406 1.777344 13.222656 C 1.308594 12.75 1.070312 12.183594 1.070312 11.519531 L 1.070312 3.480469 C 1.070312 2.816406 1.308594 2.25 1.777344 1.777344 C 2.25 1.308594 2.816406 1.070312 3.480469 1.070312 L 11.519531 1.070312 C 12.183594 1.070312 12.75 1.308594 13.222656 1.777344 C 13.691406 2.25 13.929688 2.816406 13.929688 3.480469 Z M 13.929688 3.480469 "/>
  </g>
</svg>