<svg xmlns="http://www.w3.org/2000/svg" xlink="http://www.w3.org/1999/xlink" width="20px" height="20px" viewBox="0 0 15 15" version="1.1">
  <g id="surface1">
    <path d="M 9.644531 7.5 C 9.644531 7.644531 9.589844 7.769531 9.484375 7.875 L 5.734375 11.625 C 5.628906 11.734375 5.503906 11.785156 5.355469 11.785156 C 5.210938 11.785156 5.085938 11.734375 4.980469 11.625 C 4.875 11.519531 4.820312 11.394531 4.820312 11.25 L 4.820312 3.75 C 4.820312 3.605469 4.875 3.480469 4.980469 3.375 C 5.085938 3.265625 5.210938 3.214844 5.355469 3.214844 C 5.503906 3.214844 5.628906 3.265625 5.734375 3.375 L 9.484375 7.125 C 9.589844 7.230469 9.644531 7.355469 9.644531 7.5 Z M 9.644531 7.5 " fill="#FFFFFF"/>
  </g>
</svg>