<svg version="1.1" xmlns="http://www.w3.org/2000/svg" xlink="http://www.w3.org/1999/xlink" x="0px" y="0px" width="15px" height="18.75px" viewBox="0 0 15 18.75" style="enable-background:new 0 0 15 15;" space="preserve">
    <path d="M19.921875,1.171875h-0.59912109375C18.7880859375,0.46435546875,17.9476318359375,0,16.9921875,0c-1.617919921875,0,-2.9296875,1.311767578125,-2.9296875,2.9296875v0.768310546875L0.4427490234375,14.4129638671875A1.10654296875,1.10654296875,0,0,0,0,15.298095703125c0,0.8225097656250001,0.86572265625,1.3575439453125,1.6014404296874998,0.9898681640625001L6.0523681640625,14.0625h3.5335693359375l1.6263427734375,4.398193359375c0.0831298828125,0.2281494140625,0.3350830078125,0.345703125,0.563232421875,0.2625732421875l0.8258056640625,-0.3006591796875c0.2281494140625,-0.0831298828125,0.345703125,-0.3350830078125,0.2625732421875,-0.563232421875L11.460205078125,14.0625H12.890625c0.0699462890625,0,0.1376953125,-0.0084228515625,0.207275390625,-0.0106201171875l1.6300048828125,4.408447265625c0.0831298828125,0.2281494140625,0.3350830078125,0.345703125,0.563232421875,0.2625732421875l0.8258056640625,-0.3006591796875c0.2281494140625,-0.0831298828125,0.345703125,-0.3350830078125,0.2625732421875,-0.563232421875l-1.51025390625,-4.0843505859375C17.788330078125,12.919921875,19.921875,10.226806640625,19.921875,7.03125v-2.9296875l3.515625,-0.5859375c0,-1.2945556640625,-1.5739746093749998,-2.34375,-3.515625,-2.34375zm-2.9296875,2.63671875c-0.4852294921875,0,-0.87890625,-0.3936767578125,-0.87890625,-0.87890625c0,-0.485595703125,0.3936767578125,-0.87890625,0.87890625,-0.87890625s0.87890625,0.393310546875,0.87890625,0.87890625c0,0.4852294921875,-0.3936767578125,0.87890625,-0.87890625,0.87890625z" fill="#FFFFFF"/>
    </svg>