<?xml version="1.0" encoding="UTF-8" standalone="yes"?>
<svg xmlns="http://www.w3.org/2000/svg" xmlns:xlink="http://www.w3.org/1999/xlink" width="20px" height="20px" viewBox="0 0 15 15" version="1.1">
  <g id="surface1">
    <path style=" stroke:none;fill-rule:nonzero;fill:rgb(0%,0%,0%);fill-opacity:1;" d="M 4.210938 10.640625 L 2.066406 12.78125 C 2.011719 12.832031 1.949219 12.855469 1.875 12.855469 C 1.808594 12.855469 1.742188 12.832031 1.683594 12.78125 C 1.632812 12.726562 1.605469 12.660156 1.605469 12.589844 C 1.605469 12.515625 1.632812 12.453125 1.683594 12.398438 L 3.824219 10.253906 C 3.882812 10.203125 3.945312 10.179688 4.019531 10.179688 C 4.089844 10.179688 4.15625 10.203125 4.210938 10.253906 C 4.261719 10.308594 4.285156 10.375 4.285156 10.445312 C 4.285156 10.519531 4.261719 10.582031 4.210938 10.640625 Z M 5.625 10.980469 L 5.625 13.660156 C 5.625 13.738281 5.601562 13.804688 5.550781 13.851562 C 5.5 13.902344 5.433594 13.929688 5.355469 13.929688 C 5.277344 13.929688 5.214844 13.902344 5.164062 13.851562 C 5.113281 13.804688 5.089844 13.738281 5.089844 13.660156 L 5.089844 10.980469 C 5.089844 10.902344 5.113281 10.839844 5.164062 10.789062 C 5.214844 10.738281 5.277344 10.714844 5.355469 10.714844 C 5.433594 10.714844 5.5 10.738281 5.550781 10.789062 C 5.601562 10.839844 5.625 10.902344 5.625 10.980469 Z M 3.75 9.105469 C 3.75 9.183594 3.726562 9.25 3.675781 9.300781 C 3.625 9.351562 3.558594 9.375 3.480469 9.375 L 0.804688 9.375 C 0.726562 9.375 0.660156 9.351562 0.609375 9.300781 C 0.5625 9.25 0.535156 9.183594 0.535156 9.105469 C 0.535156 9.027344 0.5625 8.964844 0.609375 8.914062 C 0.660156 8.863281 0.726562 8.839844 0.804688 8.839844 L 3.480469 8.839844 C 3.558594 8.839844 3.625 8.863281 3.675781 8.914062 C 3.726562 8.964844 3.75 9.027344 3.75 9.105469 Z M 14.332031 10.179688 C 14.332031 10.847656 14.09375 11.414062 13.617188 11.878906 L 12.386719 13.101562 C 11.925781 13.5625 11.359375 13.792969 10.6875 13.792969 C 10.015625 13.792969 9.445312 13.558594 8.980469 13.082031 L 6.1875 10.277344 C 6.070312 10.160156 5.953125 10.003906 5.835938 9.808594 L 7.835938 9.660156 L 10.121094 11.953125 C 10.269531 12.105469 10.460938 12.179688 10.6875 12.183594 C 10.917969 12.1875 11.109375 12.113281 11.257812 11.960938 L 12.488281 10.738281 C 12.644531 10.582031 12.722656 10.394531 12.722656 10.179688 C 12.722656 9.957031 12.644531 9.765625 12.488281 9.609375 L 10.195312 7.308594 L 10.347656 5.308594 C 10.542969 5.425781 10.699219 5.542969 10.816406 5.660156 L 13.628906 8.472656 C 14.097656 8.949219 14.332031 9.519531 14.332031 10.179688 Z M 9.164062 4.117188 L 7.164062 4.269531 L 4.878906 1.976562 C 4.722656 1.820312 4.535156 1.742188 4.3125 1.742188 C 4.09375 1.742188 3.902344 1.816406 3.742188 1.96875 L 2.511719 3.1875 C 2.355469 3.34375 2.277344 3.53125 2.277344 3.75 C 2.277344 3.972656 2.355469 4.164062 2.511719 4.320312 L 4.804688 6.613281 L 4.652344 8.621094 C 4.457031 8.503906 4.300781 8.386719 4.183594 8.269531 L 1.371094 5.457031 C 0.902344 4.976562 0.667969 4.410156 0.667969 3.75 C 0.667969 3.082031 0.90625 2.515625 1.382812 2.050781 L 2.613281 0.828125 C 3.074219 0.367188 3.640625 0.132812 4.3125 0.132812 C 4.984375 0.132812 5.554688 0.371094 6.019531 0.84375 L 8.8125 3.648438 C 8.929688 3.765625 9.046875 3.921875 9.164062 4.117188 Z M 14.464844 4.820312 C 14.464844 4.898438 14.4375 4.964844 14.390625 5.015625 C 14.339844 5.0625 14.273438 5.089844 14.195312 5.089844 L 11.519531 5.089844 C 11.441406 5.089844 11.375 5.0625 11.324219 5.015625 C 11.273438 4.964844 11.25 4.898438 11.25 4.820312 C 11.25 4.742188 11.273438 4.679688 11.324219 4.628906 C 11.375 4.578125 11.441406 4.554688 11.519531 4.554688 L 14.195312 4.554688 C 14.273438 4.554688 14.339844 4.578125 14.390625 4.628906 C 14.4375 4.679688 14.464844 4.742188 14.464844 4.820312 Z M 9.910156 0.269531 L 9.910156 2.945312 C 9.910156 3.023438 9.886719 3.089844 9.835938 3.140625 C 9.785156 3.1875 9.722656 3.214844 9.644531 3.214844 C 9.566406 3.214844 9.5 3.1875 9.449219 3.140625 C 9.398438 3.089844 9.375 3.023438 9.375 2.945312 L 9.375 0.269531 C 9.375 0.191406 9.398438 0.125 9.449219 0.0742188 C 9.5 0.0234375 9.566406 0 9.644531 0 C 9.722656 0 9.785156 0.0234375 9.835938 0.0742188 C 9.886719 0.125 9.910156 0.191406 9.910156 0.269531 Z M 13.316406 1.53125 L 11.175781 3.675781 C 11.113281 3.726562 11.050781 3.75 10.980469 3.75 C 10.914062 3.75 10.851562 3.726562 10.789062 3.675781 C 10.738281 3.617188 10.714844 3.554688 10.714844 3.480469 C 10.714844 3.410156 10.738281 3.34375 10.789062 3.289062 L 12.933594 1.148438 C 12.988281 1.097656 13.050781 1.070312 13.125 1.070312 C 13.199219 1.070312 13.261719 1.097656 13.316406 1.148438 C 13.367188 1.203125 13.394531 1.265625 13.394531 1.339844 C 13.394531 1.410156 13.367188 1.476562 13.316406 1.53125 Z M 13.316406 1.53125 "/>
  </g>
</svg>