<?xml version="1.0" encoding="UTF-8" standalone="yes"?>
<svg xmlns="http://www.w3.org/2000/svg" xmlns:xlink="http://www.w3.org/1999/xlink" width="20px" height="20px" viewBox="0 0 15 15" version="1.1">
  <g id="surface1">
    <path style=" stroke:none;fill-rule:nonzero;fill:rgb(0%,0%,0%);fill-opacity:1;" d="M 3.214844 13.660156 L 6.429688 12.054688 L 6.429688 9.425781 L 3.214844 10.796875 Z M 2.679688 9.859375 L 6.058594 8.414062 L 2.679688 6.964844 L -0.703125 8.414062 Z M 11.785156 13.660156 L 15 12.054688 L 15 9.425781 L 11.785156 10.796875 Z M 11.25 9.859375 L 14.632812 8.414062 L 11.25 6.964844 L 7.867188 8.414062 Z M 7.5 7.40625 L 10.714844 6.027344 L 10.714844 3.800781 L 7.5 5.171875 Z M 6.964844 4.234375 L 10.65625 2.652344 L 6.964844 1.070312 L 3.273438 2.652344 Z M 16.070312 8.570312 L 16.070312 12.054688 C 16.070312 12.253906 16.019531 12.441406 15.914062 12.613281 C 15.804688 12.789062 15.660156 12.917969 15.476562 13.007812 L 11.726562 14.882812 C 11.585938 14.960938 11.429688 15 11.25 15 C 11.070312 15 10.914062 14.960938 10.773438 14.882812 L 7.023438 13.007812 C 6.996094 12.996094 6.976562 12.984375 6.964844 12.972656 C 6.953125 12.984375 6.933594 12.996094 6.90625 13.007812 L 3.15625 14.882812 C 3.015625 14.960938 2.855469 15 2.679688 15 C 2.5 15 2.339844 14.960938 2.203125 14.882812 L -1.546875 13.007812 C -1.734375 12.917969 -1.878906 12.789062 -1.984375 12.613281 C -2.089844 12.441406 -2.144531 12.253906 -2.144531 12.054688 L -2.144531 8.570312 C -2.144531 8.359375 -2.082031 8.164062 -1.960938 7.984375 C -1.84375 7.808594 -1.683594 7.671875 -1.488281 7.582031 L 2.144531 6.027344 L 2.144531 2.679688 C 2.144531 2.464844 2.203125 2.269531 2.324219 2.09375 C 2.441406 1.914062 2.601562 1.78125 2.796875 1.691406 L 6.546875 0.0820312 C 6.675781 0.0273438 6.8125 0 6.964844 0 C 7.113281 0 7.253906 0.0273438 7.382812 0.0820312 L 11.132812 1.691406 C 11.328125 1.78125 11.484375 1.914062 11.605469 2.09375 C 11.726562 2.269531 11.785156 2.464844 11.785156 2.679688 L 11.785156 6.027344 L 15.417969 7.582031 C 15.621094 7.671875 15.777344 7.808594 15.894531 7.984375 C 16.011719 8.164062 16.070312 8.359375 16.070312 8.570312 Z M 16.070312 8.570312 "/>
  </g>
</svg>