<svg xmlns="http://www.w3.org/2000/svg" xlink="http://www.w3.org/1999/xlink" width="20px" height="20px" viewBox="0 0 15 15" version="1.1">
  <g id="surface1">
    <path d="M -1.148438 5.707031 L -0.402344 5.707031 L -0.777344 4.804688 Z M 4.050781 10.113281 L 4.671875 9.449219 L 4.085938 8.789062 L 2.71875 8.789062 L 2.71875 9.199219 L 3.910156 9.199219 L 3.910156 9.660156 L 2.71875 9.660156 L 2.71875 10.113281 Z M 5.375 9.457031 L 6.203125 10.378906 L 6.203125 8.5625 Z M 7.785156 9.066406 C 7.785156 8.882812 7.671875 8.789062 7.449219 8.789062 L 6.746094 8.789062 L 6.746094 9.367188 L 7.441406 9.367188 C 7.671875 9.367188 7.785156 9.265625 7.785156 9.066406 Z M 10.203125 9.03125 C 10.203125 8.871094 10.085938 8.789062 9.851562 8.789062 L 9.164062 8.789062 L 9.164062 9.300781 L 9.84375 9.300781 C 10.082031 9.300781 10.203125 9.210938 10.203125 9.03125 Z M 7.875 5.132812 C 7.875 4.96875 7.757812 4.886719 7.523438 4.886719 L 6.839844 4.886719 L 6.839844 5.390625 L 7.515625 5.390625 C 7.757812 5.390625 7.875 5.304688 7.875 5.132812 Z M 11.71875 5.707031 L 12.464844 5.707031 L 12.09375 4.804688 Z M 3.707031 4.410156 L 3.707031 6.679688 L 3.15625 6.679688 L 3.15625 4.90625 L 2.367188 6.679688 L 1.890625 6.679688 L 1.105469 4.90625 L 1.105469 6.679688 L 0 6.679688 L -0.210938 6.175781 L -1.339844 6.175781 L -1.546875 6.679688 L -2.132812 6.679688 L -1.164062 4.410156 L -0.359375 4.410156 L 0.5625 6.5625 L 0.5625 4.410156 L 1.449219 4.410156 L 2.160156 5.953125 L 2.804688 4.410156 Z M 8.363281 9.066406 C 8.363281 9.175781 8.347656 9.273438 8.316406 9.359375 C 8.285156 9.441406 8.246094 9.511719 8.199219 9.566406 C 8.152344 9.625 8.089844 9.667969 8.011719 9.707031 C 7.933594 9.742188 7.859375 9.769531 7.792969 9.789062 C 7.726562 9.808594 7.636719 9.820312 7.53125 9.828125 C 7.421875 9.832031 7.332031 9.835938 7.265625 9.835938 C 7.199219 9.835938 7.109375 9.832031 6.992188 9.832031 C 6.878906 9.828125 6.796875 9.828125 6.746094 9.828125 L 6.746094 10.589844 L 5.691406 10.589844 L 5.023438 9.835938 L 4.328125 10.589844 L 2.183594 10.589844 L 2.183594 8.320312 L 4.359375 8.320312 L 5.03125 9.066406 L 5.71875 8.320312 L 7.449219 8.320312 C 8.058594 8.320312 8.363281 8.570312 8.363281 9.066406 Z M 5.925781 6.210938 L 5.925781 6.679688 L 4.109375 6.679688 L 4.109375 4.410156 L 5.925781 4.410156 L 5.925781 4.886719 L 4.652344 4.886719 L 4.652344 5.296875 L 5.894531 5.296875 L 5.894531 5.757812 L 4.652344 5.757812 L 4.652344 6.210938 Z M 17.144531 10.890625 L 17.144531 12.808594 C 17.144531 13.113281 17.035156 13.378906 16.820312 13.597656 C 16.605469 13.816406 16.34375 13.929688 16.039062 13.929688 L -1.039062 13.929688 C -1.34375 13.929688 -1.605469 13.816406 -1.820312 13.597656 C -2.035156 13.378906 -2.144531 13.113281 -2.144531 12.808594 L -2.144531 7.132812 L -1.214844 7.132812 L -1.003906 6.621094 L -0.542969 6.621094 L -0.335938 7.132812 L 1.488281 7.132812 L 1.488281 6.746094 L 1.648438 7.132812 L 2.59375 7.132812 L 2.761719 6.738281 L 2.761719 7.132812 L 7.289062 7.132812 L 7.289062 6.304688 L 7.375 6.292969 C 7.429688 6.292969 7.457031 6.332031 7.457031 6.410156 L 7.457031 7.132812 L 9.792969 7.132812 L 9.792969 6.9375 C 9.921875 7.007812 10.074219 7.054688 10.253906 7.089844 C 10.433594 7.125 10.578125 7.140625 10.695312 7.144531 C 10.808594 7.148438 10.984375 7.144531 11.21875 7.140625 C 11.457031 7.132812 11.601562 7.132812 11.652344 7.132812 L 11.859375 6.621094 L 12.328125 6.621094 L 12.539062 7.132812 L 14.4375 7.132812 L 14.4375 6.644531 L 14.722656 7.132812 L 16.246094 7.132812 L 16.246094 3.96875 L 14.742188 3.96875 L 14.742188 4.335938 L 14.53125 3.96875 L 12.984375 3.96875 L 12.984375 4.335938 L 12.789062 3.96875 L 10.707031 3.96875 C 10.320312 3.96875 10.015625 4.027344 9.792969 4.152344 L 9.792969 3.96875 L 8.355469 3.96875 L 8.355469 4.152344 C 8.21875 4.027344 8.015625 3.96875 7.742188 3.96875 L 2.484375 3.96875 L 2.125 4.78125 L 1.765625 3.96875 L 0.109375 3.96875 L 0.109375 4.335938 L -0.0742188 3.96875 L -1.488281 3.96875 L -2.144531 5.464844 L -2.144531 2.191406 C -2.144531 1.886719 -2.035156 1.621094 -1.820312 1.402344 C -1.605469 1.179688 -1.34375 1.070312 -1.039062 1.070312 L 16.039062 1.070312 C 16.34375 1.070312 16.605469 1.179688 16.820312 1.402344 C 17.035156 1.621094 17.144531 1.886719 17.144531 2.191406 L 17.144531 7.867188 L 16.136719 7.867188 C 15.855469 7.867188 15.628906 7.929688 15.460938 8.050781 L 15.460938 7.867188 L 13.980469 7.867188 C 13.671875 7.867188 13.453125 7.929688 13.324219 8.050781 L 13.324219 7.867188 L 10.679688 7.867188 L 10.679688 8.050781 C 10.507812 7.929688 10.265625 7.867188 9.953125 7.867188 L 8.203125 7.867188 L 8.203125 8.050781 C 8.074219 7.929688 7.820312 7.867188 7.441406 7.867188 L 5.484375 7.867188 L 5.03125 8.355469 L 4.613281 7.867188 L 1.691406 7.867188 L 1.691406 11.03125 L 4.5625 11.03125 L 5.023438 10.539062 L 5.457031 11.03125 L 7.222656 11.03125 L 7.222656 10.289062 L 7.398438 10.289062 C 7.730469 10.289062 7.980469 10.25 8.152344 10.179688 L 8.152344 11.03125 L 9.609375 11.03125 L 9.609375 10.203125 L 9.675781 10.203125 C 9.722656 10.203125 9.75 10.210938 9.761719 10.21875 C 9.769531 10.230469 9.777344 10.257812 9.777344 10.304688 L 9.777344 11.03125 L 14.203125 11.03125 C 14.523438 11.03125 14.769531 10.964844 14.941406 10.832031 L 14.941406 11.03125 L 16.347656 11.03125 C 16.683594 11.03125 16.949219 10.984375 17.144531 10.890625 Z M 10.796875 8.929688 C 10.796875 9.058594 10.765625 9.179688 10.699219 9.292969 C 10.628906 9.402344 10.535156 9.484375 10.414062 9.535156 C 10.550781 9.585938 10.648438 9.65625 10.699219 9.75 C 10.746094 9.847656 10.773438 9.976562 10.773438 10.136719 L 10.773438 10.589844 L 10.230469 10.589844 L 10.230469 10.210938 C 10.230469 10.027344 10.195312 9.90625 10.128906 9.847656 C 10.0625 9.789062 9.933594 9.761719 9.742188 9.761719 L 9.164062 9.761719 L 9.164062 10.589844 L 8.621094 10.589844 L 8.621094 8.320312 L 9.910156 8.320312 C 10.179688 8.320312 10.394531 8.363281 10.554688 8.445312 C 10.71875 8.53125 10.796875 8.691406 10.796875 8.929688 Z M 8.480469 5.023438 C 8.480469 5.15625 8.445312 5.277344 8.375 5.390625 C 8.304688 5.503906 8.210938 5.582031 8.09375 5.632812 C 8.238281 5.683594 8.335938 5.753906 8.382812 5.847656 C 8.429688 5.9375 8.453125 6.070312 8.453125 6.234375 L 8.453125 6.679688 L 7.910156 6.679688 C 7.910156 6.628906 7.910156 6.554688 7.914062 6.457031 C 7.917969 6.359375 7.917969 6.289062 7.914062 6.25 C 7.910156 6.207031 7.902344 6.15625 7.890625 6.09375 C 7.875 6.03125 7.851562 5.988281 7.816406 5.960938 C 7.785156 5.933594 7.734375 5.90625 7.671875 5.890625 C 7.605469 5.867188 7.523438 5.859375 7.425781 5.859375 L 6.839844 5.859375 L 6.839844 6.679688 L 6.304688 6.679688 L 6.304688 4.410156 L 7.582031 4.417969 C 7.855469 4.417969 8.074219 4.460938 8.238281 4.539062 C 8.398438 4.621094 8.480469 4.78125 8.480469 5.023438 Z M 12.90625 10.121094 L 12.90625 10.589844 L 11.097656 10.589844 L 11.097656 8.320312 L 12.90625 8.320312 L 12.90625 8.789062 L 11.644531 8.789062 L 11.644531 9.199219 L 12.882812 9.199219 L 12.882812 9.660156 L 11.644531 9.660156 L 11.644531 10.113281 Z M 9.339844 4.410156 L 9.339844 6.679688 L 8.789062 6.679688 L 8.789062 4.410156 Z M 15.140625 9.867188 C 15.140625 10.347656 14.859375 10.589844 14.289062 10.589844 L 13.234375 10.589844 L 13.234375 10.101562 L 14.289062 10.101562 C 14.476562 10.101562 14.574219 10.035156 14.574219 9.894531 C 14.574219 9.804688 14.527344 9.746094 14.429688 9.71875 C 14.335938 9.691406 14.21875 9.675781 14.082031 9.675781 C 13.945312 9.675781 13.808594 9.667969 13.667969 9.648438 C 13.53125 9.628906 13.414062 9.566406 13.316406 9.457031 C 13.222656 9.351562 13.175781 9.199219 13.175781 9 C 13.175781 8.78125 13.246094 8.613281 13.394531 8.496094 C 13.539062 8.378906 13.722656 8.320312 13.945312 8.320312 L 15.035156 8.320312 L 15.035156 8.796875 L 14.039062 8.796875 C 13.835938 8.796875 13.734375 8.867188 13.734375 9.007812 C 13.734375 9.097656 13.785156 9.152344 13.882812 9.179688 C 13.980469 9.203125 14.097656 9.214844 14.234375 9.210938 C 14.371094 9.207031 14.507812 9.214844 14.644531 9.234375 C 14.78125 9.25 14.898438 9.308594 14.996094 9.414062 C 15.09375 9.515625 15.140625 9.667969 15.140625 9.867188 Z M 17.144531 9.449219 L 17.144531 10.296875 C 17.007812 10.492188 16.761719 10.589844 16.40625 10.589844 L 15.359375 10.589844 L 15.359375 10.101562 L 16.40625 10.101562 C 16.589844 10.101562 16.683594 10.035156 16.683594 9.894531 C 16.683594 9.820312 16.648438 9.769531 16.578125 9.734375 C 16.507812 9.703125 16.421875 9.6875 16.320312 9.6875 C 16.214844 9.691406 16.101562 9.6875 15.984375 9.671875 C 15.863281 9.65625 15.75 9.636719 15.648438 9.605469 C 15.546875 9.574219 15.457031 9.507812 15.390625 9.40625 C 15.320312 9.300781 15.285156 9.164062 15.285156 9 C 15.285156 8.78125 15.359375 8.613281 15.507812 8.496094 C 15.652344 8.378906 15.839844 8.320312 16.0625 8.320312 L 17.144531 8.320312 L 17.144531 8.796875 L 16.15625 8.796875 C 15.953125 8.796875 15.855469 8.867188 15.855469 9.007812 C 15.855469 9.117188 15.933594 9.179688 16.097656 9.191406 C 16.257812 9.203125 16.449219 9.214844 16.671875 9.234375 C 16.890625 9.25 17.046875 9.320312 17.144531 9.449219 Z M 15.761719 4.417969 L 15.761719 6.679688 L 14.992188 6.679688 L 13.96875 4.980469 L 13.96875 6.679688 L 12.867188 6.679688 L 12.648438 6.175781 L 11.527344 6.175781 L 11.316406 6.679688 L 10.6875 6.679688 C 9.96875 6.679688 9.609375 6.308594 9.609375 5.566406 C 9.609375 4.796875 9.980469 4.410156 10.722656 4.410156 L 11.25 4.410156 L 11.25 4.90625 C 11.210938 4.90625 11.132812 4.902344 11.015625 4.898438 C 10.898438 4.890625 10.820312 4.890625 10.777344 4.890625 C 10.734375 4.894531 10.671875 4.902344 10.585938 4.910156 C 10.496094 4.917969 10.4375 4.9375 10.40625 4.964844 C 10.371094 4.992188 10.332031 5.027344 10.28125 5.078125 C 10.234375 5.125 10.203125 5.1875 10.1875 5.269531 C 10.171875 5.351562 10.160156 5.445312 10.160156 5.550781 C 10.160156 5.761719 10.199219 5.921875 10.273438 6.035156 C 10.351562 6.148438 10.488281 6.203125 10.6875 6.203125 L 10.933594 6.203125 L 11.703125 4.417969 L 12.515625 4.417969 L 13.425781 6.5625 L 13.425781 4.417969 L 14.253906 4.417969 L 15.210938 5.992188 L 15.210938 4.417969 Z M 15.761719 4.417969 " fill="#FFFFFF"/>
  </g>
</svg>