<?xml version="1.0" encoding="UTF-8" standalone="yes"?>
<svg xmlns="http://www.w3.org/2000/svg" xmlns:xlink="http://www.w3.org/1999/xlink" width="20px" height="20px" viewBox="0 0 15 15" version="1.1">
  <g id="surface1">
    <path style=" stroke:none;fill-rule:nonzero;fill:rgb(0%,0%,0%);fill-opacity:1;" d="M 5.355469 7.5 C 5.355469 7.203125 5.253906 6.953125 5.042969 6.742188 C 4.835938 6.53125 4.582031 6.429688 4.285156 6.429688 C 3.988281 6.429688 3.738281 6.53125 3.527344 6.742188 C 3.320312 6.953125 3.214844 7.203125 3.214844 7.5 C 3.214844 7.796875 3.320312 8.046875 3.527344 8.257812 C 3.738281 8.46875 3.988281 8.570312 4.285156 8.570312 C 4.582031 8.570312 4.835938 8.46875 5.042969 8.257812 C 5.253906 8.046875 5.355469 7.796875 5.355469 7.5 Z M 8.570312 7.5 C 8.570312 7.203125 8.46875 6.953125 8.257812 6.742188 C 8.046875 6.53125 7.796875 6.429688 7.5 6.429688 C 7.203125 6.429688 6.953125 6.53125 6.742188 6.742188 C 6.53125 6.953125 6.429688 7.203125 6.429688 7.5 C 6.429688 7.796875 6.53125 8.046875 6.742188 8.257812 C 6.953125 8.46875 7.203125 8.570312 7.5 8.570312 C 7.796875 8.570312 8.046875 8.46875 8.257812 8.257812 C 8.46875 8.046875 8.570312 7.796875 8.570312 7.5 Z M 11.785156 7.5 C 11.785156 7.203125 11.679688 6.953125 11.472656 6.742188 C 11.261719 6.53125 11.011719 6.429688 10.714844 6.429688 C 10.417969 6.429688 10.164062 6.53125 9.957031 6.742188 C 9.746094 6.953125 9.644531 7.203125 9.644531 7.5 C 9.644531 7.796875 9.746094 8.046875 9.957031 8.257812 C 10.164062 8.46875 10.417969 8.570312 10.714844 8.570312 C 11.011719 8.570312 11.261719 8.46875 11.472656 8.257812 C 11.679688 8.046875 11.785156 7.796875 11.785156 7.5 Z M 15 7.5 C 15 8.472656 14.664062 9.367188 13.996094 10.191406 C 13.324219 11.015625 12.417969 11.664062 11.265625 12.140625 C 10.117188 12.617188 8.863281 12.855469 7.5 12.855469 C 6.886719 12.855469 6.296875 12.808594 5.734375 12.707031 C 4.769531 13.671875 3.554688 14.3125 2.09375 14.625 C 1.800781 14.679688 1.5625 14.714844 1.371094 14.730469 C 1.304688 14.738281 1.246094 14.722656 1.1875 14.683594 C 1.132812 14.644531 1.097656 14.59375 1.078125 14.53125 C 1.058594 14.449219 1.113281 14.34375 1.246094 14.222656 C 1.273438 14.195312 1.339844 14.132812 1.445312 14.042969 C 1.546875 13.949219 1.617188 13.882812 1.65625 13.84375 C 1.695312 13.804688 1.761719 13.734375 1.855469 13.632812 C 1.945312 13.527344 2.011719 13.441406 2.054688 13.367188 C 2.097656 13.296875 2.152344 13.191406 2.226562 13.058594 C 2.300781 12.925781 2.355469 12.789062 2.394531 12.65625 C 2.433594 12.523438 2.472656 12.363281 2.515625 12.175781 C 2.558594 11.988281 2.59375 11.785156 2.621094 11.566406 C 1.804688 11.066406 1.164062 10.460938 0.699219 9.757812 C 0.234375 9.050781 0 8.296875 0 7.5 C 0 6.527344 0.335938 5.632812 1.003906 4.808594 C 1.675781 3.984375 2.582031 3.335938 3.734375 2.859375 C 4.882812 2.382812 6.136719 2.144531 7.5 2.144531 C 8.863281 2.144531 10.117188 2.382812 11.265625 2.859375 C 12.417969 3.335938 13.324219 3.984375 13.996094 4.808594 C 14.664062 5.632812 15 6.527344 15 7.5 Z M 15 7.5 "/>
  </g>
</svg>