<svg version="1.1" xmlns="http://www.w3.org/2000/svg" xlink="http://www.w3.org/1999/xlink" x="0px" y="0px" width="15px" height="15px" viewBox="0 0 15 15" style="enable-background:new 0 0 15 15;" space="preserve">
    <path d="M7.5,3.214844C6.363281,3.214844,5.296875,3.40625,4.304688,3.796875C3.316406,4.183594,2.527344,4.707031,1.945312,5.367188C1.363281,6.023438,1.070312,6.734375,1.070312,7.5C1.070312,8.125,1.269531,8.71875,1.671875,9.289062C2.070312,9.851562,2.632812,10.34375,3.355469,10.757812L4.085938,11.175781L3.859375,11.976562C3.726562,12.484375,3.53125,12.964844,3.273438,13.417969C4.121094,13.066406,4.886719,12.589844,5.574219,11.988281L5.933594,11.667969L6.410156,11.71875C6.796875,11.761719,7.160156,11.785156,7.5,11.785156C8.636719,11.785156,9.703125,11.589844,10.695312,11.203125C11.683594,10.816406,12.46875,10.292969,13.054688,9.632812C13.636719,8.976562,13.929688,8.265625,13.929688,7.5C13.929688,6.734375,13.636719,6.023438,13.054688,5.367188C12.46875,4.707031,11.683594,4.183594,10.695312,3.796875C9.703125,3.40625,8.636719,3.214844,7.5,3.214844ZM15,7.5C15,8.472656,14.664062,9.367188,13.996094,10.191406C13.324219,11.015625,12.417969,11.664062,11.265625,12.140625C10.117188,12.617188,8.863281,12.855469,7.5,12.855469C7.109375,12.855469,6.703125,12.835938,6.285156,12.789062C5.179688,13.765625,3.898438,14.441406,2.4375,14.816406C2.164062,14.894531,1.84375,14.957031,1.480469,15L1.441406,15C1.355469,15,1.28125,14.96875,1.214844,14.914062C1.148438,14.851562,1.101562,14.777344,1.078125,14.683594L1.078125,14.671875C1.0625,14.652344,1.0625,14.617188,1.074219,14.574219C1.089844,14.527344,1.09375,14.5,1.09375,14.488281C1.089844,14.476562,1.101562,14.453125,1.128906,14.410156L1.179688,14.335938L1.238281,14.261719L1.304688,14.1875C1.34375,14.144531,1.429688,14.046875,1.566406,13.898438C1.699219,13.75,1.796875,13.644531,1.855469,13.582031C1.914062,13.515625,2,13.40625,2.113281,13.25C2.226562,13.09375,2.320312,12.953125,2.386719,12.824219C2.453125,12.695312,2.527344,12.53125,2.613281,12.328125C2.695312,12.128906,2.769531,11.917969,2.828125,11.695312C1.953125,11.195312,1.261719,10.582031,0.757812,9.851562C0.253906,9.121094,0,8.335938,0,7.5C0,6.527344,0.335938,5.632812,1.003906,4.808594C1.675781,3.984375,2.582031,3.335938,3.734375,2.859375C4.882812,2.382812,6.136719,2.144531,7.5,2.144531C8.863281,2.144531,10.117188,2.382812,11.265625,2.859375C12.417969,3.335938,13.324219,3.984375,13.996094,4.808594C14.664062,5.632812,15,6.527344,15,7.5ZM15,7.5" fill="#FFFFFF"/>
    </svg>