<?xml version="1.0" encoding="UTF-8" standalone="yes"?>
<svg xmlns="http://www.w3.org/2000/svg" xmlns:xlink="http://www.w3.org/1999/xlink" width="20px" height="20px" viewBox="0 0 15 15" version="1.1">
  <g id="surface1">
    <path style=" stroke:none;fill-rule:nonzero;fill:rgb(0%,0%,0%);fill-opacity:1;" d="M 11.410156 7.339844 L 5.199219 13.550781 C 5.09375 13.65625 4.964844 13.710938 4.820312 13.710938 C 4.675781 13.710938 4.550781 13.65625 4.445312 13.550781 L 3.054688 12.164062 C 2.949219 12.054688 2.894531 11.929688 2.894531 11.785156 C 2.894531 11.640625 2.949219 11.515625 3.054688 11.410156 L 7.5 6.964844 L 3.054688 2.519531 C 2.949219 2.414062 2.894531 2.289062 2.894531 2.144531 C 2.894531 1.996094 2.949219 1.871094 3.054688 1.765625 L 4.445312 0.375 C 4.550781 0.269531 4.675781 0.21875 4.820312 0.21875 C 4.964844 0.21875 5.09375 0.269531 5.199219 0.375 L 11.410156 6.585938 C 11.515625 6.695312 11.566406 6.820312 11.566406 6.964844 C 11.566406 7.109375 11.515625 7.234375 11.410156 7.339844 Z M 11.410156 7.339844 "/>
  </g>
</svg>