<svg xmlns="http://www.w3.org/2000/svg" xlink="http://www.w3.org/1999/xlink" width="20px" height="20px" viewBox="0 0 15 15" version="1.1">
  <g id="surface1">
    <path d="M 14.085938 6.761719 L 7.875 12.964844 C 7.769531 13.070312 7.644531 13.125 7.5 13.125 C 7.355469 13.125 7.230469 13.070312 7.125 12.964844 L 0.914062 6.761719 C 0.804688 6.65625 0.753906 6.53125 0.753906 6.382812 C 0.753906 6.234375 0.804688 6.109375 0.914062 6 L 2.300781 4.621094 C 2.40625 4.515625 2.535156 4.460938 2.679688 4.460938 C 2.824219 4.460938 2.949219 4.515625 3.054688 4.621094 L 7.5 9.066406 L 11.945312 4.621094 C 12.050781 4.515625 12.175781 4.460938 12.320312 4.460938 C 12.464844 4.460938 12.59375 4.515625 12.699219 4.621094 L 14.085938 6 C 14.195312 6.109375 14.246094 6.234375 14.246094 6.382812 C 14.246094 6.53125 14.195312 6.65625 14.085938 6.761719 Z M 14.085938 6.761719 " fill="#FFFFFF"/>
  </g>
</svg>