<?xml version="1.0" encoding="UTF-8" standalone="yes"?>
<svg xmlns="http://www.w3.org/2000/svg" xmlns:xlink="http://www.w3.org/1999/xlink" width="20px" height="20px" viewBox="0 0 15 15" version="1.1">
  <g id="surface1">
    <path style=" stroke:none;fill-rule:nonzero;fill:rgb(0%,0%,0%);fill-opacity:1;" d="M 6.804688 10.875 L 11.945312 5.734375 C 12.050781 5.628906 12.105469 5.503906 12.105469 5.355469 C 12.105469 5.210938 12.050781 5.085938 11.945312 4.980469 L 11.089844 4.125 C 10.984375 4.019531 10.859375 3.96875 10.714844 3.96875 C 10.570312 3.96875 10.445312 4.019531 10.335938 4.125 L 6.429688 8.035156 L 4.664062 6.269531 C 4.554688 6.164062 4.429688 6.109375 4.285156 6.109375 C 4.140625 6.109375 4.015625 6.164062 3.910156 6.269531 L 3.054688 7.125 C 2.949219 7.230469 2.894531 7.355469 2.894531 7.5 C 2.894531 7.644531 2.949219 7.769531 3.054688 7.875 L 6.050781 10.875 C 6.15625 10.980469 6.285156 11.03125 6.429688 11.03125 C 6.574219 11.03125 6.699219 10.980469 6.804688 10.875 Z M 13.929688 3.480469 L 13.929688 11.519531 C 13.929688 12.183594 13.691406 12.75 13.222656 13.222656 C 12.75 13.691406 12.183594 13.929688 11.519531 13.929688 L 3.480469 13.929688 C 2.816406 13.929688 2.25 13.691406 1.777344 13.222656 C 1.308594 12.75 1.070312 12.183594 1.070312 11.519531 L 1.070312 3.480469 C 1.070312 2.816406 1.308594 2.25 1.777344 1.777344 C 2.25 1.308594 2.816406 1.070312 3.480469 1.070312 L 11.519531 1.070312 C 12.183594 1.070312 12.75 1.308594 13.222656 1.777344 C 13.691406 2.25 13.929688 2.816406 13.929688 3.480469 Z M 13.929688 3.480469 "/>
  </g>
</svg>