<?xml version="1.0" encoding="UTF-8" standalone="yes"?>
<svg xmlns="http://www.w3.org/2000/svg" xmlns:xlink="http://www.w3.org/1999/xlink" width="20px" height="20px" viewBox="0 0 15 15" version="1.1">
  <g id="surface1">
    <path style=" stroke:none;fill-rule:nonzero;fill:rgb(0%,0%,0%);fill-opacity:1;" d="M 12.085938 4.585938 L 9.644531 7.03125 L 9.644531 13.929688 C 9.644531 14.183594 9.550781 14.40625 9.367188 14.589844 C 9.183594 14.773438 8.960938 14.867188 8.707031 14.867188 C 8.449219 14.867188 8.226562 14.773438 8.042969 14.589844 C 7.859375 14.40625 7.769531 14.183594 7.769531 13.929688 L 7.769531 10.714844 L 7.230469 10.714844 L 7.230469 13.929688 C 7.230469 14.183594 7.140625 14.40625 6.957031 14.589844 C 6.773438 14.773438 6.550781 14.867188 6.292969 14.867188 C 6.039062 14.867188 5.816406 14.773438 5.632812 14.589844 C 5.449219 14.40625 5.355469 14.183594 5.355469 13.929688 L 5.355469 7.03125 L 2.914062 4.585938 C 2.757812 4.429688 2.679688 4.242188 2.679688 4.019531 C 2.679688 3.792969 2.757812 3.605469 2.914062 3.449219 C 3.070312 3.292969 3.257812 3.214844 3.480469 3.214844 C 3.707031 3.214844 3.894531 3.292969 4.050781 3.449219 L 5.960938 5.355469 L 9.039062 5.355469 L 10.949219 3.449219 C 11.105469 3.292969 11.292969 3.214844 11.519531 3.214844 C 11.742188 3.214844 11.929688 3.292969 12.085938 3.449219 C 12.242188 3.605469 12.320312 3.792969 12.320312 4.019531 C 12.320312 4.242188 12.242188 4.429688 12.085938 4.585938 Z M 9.375 3.214844 C 9.375 3.734375 9.191406 4.175781 8.828125 4.539062 C 8.460938 4.90625 8.019531 5.089844 7.5 5.089844 C 6.980469 5.089844 6.539062 4.90625 6.171875 4.539062 C 5.808594 4.175781 5.625 3.734375 5.625 3.214844 C 5.625 2.695312 5.808594 2.253906 6.171875 1.886719 C 6.539062 1.523438 6.980469 1.339844 7.5 1.339844 C 8.019531 1.339844 8.460938 1.523438 8.828125 1.886719 C 9.191406 2.253906 9.375 2.695312 9.375 3.214844 Z M 9.375 3.214844 "/>
  </g>
</svg>