<?xml version="1.0" encoding="UTF-8" standalone="yes"?>
<svg xmlns="http://www.w3.org/2000/svg" xmlns:xlink="http://www.w3.org/1999/xlink" width="20px" height="20px" viewBox="0 0 15 15" version="1.1">
  <g id="surface1">
    <path style=" stroke:none;fill-rule:nonzero;fill:rgb(0%,0%,0%);fill-opacity:1;" d="M 11.25 5.894531 C 11.25 5.746094 11.195312 5.621094 11.089844 5.515625 C 10.984375 5.410156 10.859375 5.355469 10.714844 5.355469 C 10.570312 5.355469 10.445312 5.410156 10.335938 5.515625 L 9.105469 6.738281 L 9.105469 4.285156 C 9.105469 4.140625 9.054688 4.015625 8.949219 3.910156 C 8.84375 3.804688 8.714844 3.75 8.570312 3.75 C 8.425781 3.75 8.300781 3.804688 8.195312 3.910156 C 8.089844 4.015625 8.035156 4.140625 8.035156 4.285156 L 8.035156 6.738281 L 6.804688 5.515625 C 6.699219 5.410156 6.574219 5.355469 6.429688 5.355469 C 6.285156 5.355469 6.15625 5.410156 6.050781 5.515625 C 5.945312 5.621094 5.894531 5.746094 5.894531 5.894531 C 5.894531 6.039062 5.945312 6.164062 6.050781 6.269531 L 8.195312 8.414062 C 8.300781 8.519531 8.425781 8.570312 8.570312 8.570312 C 8.714844 8.570312 8.84375 8.519531 8.949219 8.414062 L 11.089844 6.269531 C 11.195312 6.164062 11.25 6.039062 11.25 5.894531 Z M 5.894531 12.855469 C 5.894531 13.152344 5.789062 13.40625 5.578125 13.613281 C 5.371094 13.824219 5.117188 13.929688 4.820312 13.929688 C 4.527344 13.929688 4.273438 13.824219 4.0625 13.613281 C 3.855469 13.40625 3.75 13.152344 3.75 12.855469 C 3.75 12.5625 3.855469 12.308594 4.0625 12.101562 C 4.273438 11.890625 4.527344 11.785156 4.820312 11.785156 C 5.117188 11.785156 5.371094 11.890625 5.578125 12.101562 C 5.789062 12.308594 5.894531 12.5625 5.894531 12.855469 Z M 13.394531 12.855469 C 13.394531 13.152344 13.289062 13.40625 13.078125 13.613281 C 12.871094 13.824219 12.617188 13.929688 12.320312 13.929688 C 12.027344 13.929688 11.773438 13.824219 11.5625 13.613281 C 11.355469 13.40625 11.25 13.152344 11.25 12.855469 C 11.25 12.5625 11.355469 12.308594 11.5625 12.101562 C 11.773438 11.890625 12.027344 11.785156 12.320312 11.785156 C 12.617188 11.785156 12.871094 11.890625 13.078125 12.101562 C 13.289062 12.308594 13.394531 12.5625 13.394531 12.855469 Z M 14.464844 3.75 L 14.464844 8.035156 C 14.464844 8.167969 14.417969 8.289062 14.332031 8.390625 C 14.242188 8.496094 14.125 8.554688 13.988281 8.570312 L 5.25 9.59375 C 5.253906 9.632812 5.265625 9.691406 5.285156 9.773438 C 5.304688 9.851562 5.320312 9.925781 5.335938 9.996094 C 5.351562 10.0625 5.355469 10.121094 5.355469 10.179688 C 5.355469 10.269531 5.289062 10.445312 5.15625 10.714844 L 12.855469 10.714844 C 13.003906 10.714844 13.128906 10.765625 13.234375 10.875 C 13.339844 10.980469 13.394531 11.105469 13.394531 11.25 C 13.394531 11.394531 13.339844 11.519531 13.234375 11.625 C 13.128906 11.734375 13.003906 11.785156 12.855469 11.785156 L 4.285156 11.785156 C 4.140625 11.785156 4.015625 11.734375 3.910156 11.625 C 3.804688 11.519531 3.75 11.394531 3.75 11.25 C 3.75 11.171875 3.78125 11.0625 3.84375 10.917969 C 3.902344 10.777344 3.984375 10.609375 4.089844 10.421875 C 4.191406 10.230469 4.25 10.125 4.261719 10.101562 L 2.777344 3.214844 L 1.070312 3.214844 C 0.925781 3.214844 0.800781 3.160156 0.695312 3.054688 C 0.589844 2.949219 0.535156 2.824219 0.535156 2.679688 C 0.535156 2.535156 0.589844 2.40625 0.695312 2.300781 C 0.800781 2.195312 0.925781 2.144531 1.070312 2.144531 L 3.214844 2.144531 C 3.304688 2.144531 3.382812 2.160156 3.453125 2.195312 C 3.523438 2.234375 3.578125 2.277344 3.621094 2.328125 C 3.664062 2.378906 3.699219 2.445312 3.730469 2.53125 C 3.757812 2.617188 3.78125 2.691406 3.792969 2.753906 C 3.804688 2.816406 3.816406 2.898438 3.835938 3 C 3.855469 3.105469 3.871094 3.175781 3.875 3.214844 L 13.929688 3.214844 C 14.074219 3.214844 14.199219 3.265625 14.304688 3.375 C 14.410156 3.480469 14.464844 3.605469 14.464844 3.75 Z M 14.464844 3.75 "/>
  </g>
</svg>