<?xml version="1.0" encoding="UTF-8" standalone="yes"?>
<svg xmlns="http://www.w3.org/2000/svg" xmlns:xlink="http://www.w3.org/1999/xlink" width="20px" height="20px" viewBox="0 0 15 15" version="1.1">
  <g id="surface1">
    <path style=" stroke:none;fill-rule:nonzero;fill:rgb(0%,0%,0%);fill-opacity:1;" d="M 13.929688 13.660156 L 13.929688 4.554688 C 13.929688 4.480469 13.902344 4.417969 13.847656 4.367188 C 13.796875 4.3125 13.734375 4.285156 13.660156 4.285156 L 4.554688 4.285156 C 4.480469 4.285156 4.417969 4.3125 4.367188 4.367188 C 4.3125 4.417969 4.285156 4.480469 4.285156 4.554688 L 4.285156 13.660156 C 4.285156 13.734375 4.3125 13.796875 4.367188 13.847656 C 4.417969 13.902344 4.480469 13.929688 4.554688 13.929688 L 13.660156 13.929688 C 13.734375 13.929688 13.796875 13.902344 13.847656 13.847656 C 13.902344 13.796875 13.929688 13.734375 13.929688 13.660156 Z M 15 4.554688 L 15 13.660156 C 15 14.027344 14.867188 14.34375 14.605469 14.605469 C 14.34375 14.867188 14.027344 15 13.660156 15 L 4.554688 15 C 4.183594 15 3.871094 14.867188 3.609375 14.605469 C 3.34375 14.34375 3.214844 14.027344 3.214844 13.660156 L 3.214844 4.554688 C 3.214844 4.183594 3.34375 3.871094 3.609375 3.609375 C 3.871094 3.34375 4.183594 3.214844 4.554688 3.214844 L 13.660156 3.214844 C 14.027344 3.214844 14.34375 3.34375 14.605469 3.609375 C 14.867188 3.871094 15 4.183594 15 4.554688 Z M 11.785156 1.339844 L 11.785156 2.679688 L 10.714844 2.679688 L 10.714844 1.339844 C 10.714844 1.265625 10.6875 1.203125 10.632812 1.152344 C 10.582031 1.097656 10.519531 1.070312 10.445312 1.070312 L 1.339844 1.070312 C 1.265625 1.070312 1.203125 1.097656 1.152344 1.152344 C 1.097656 1.203125 1.070312 1.265625 1.070312 1.339844 L 1.070312 10.445312 C 1.070312 10.519531 1.097656 10.582031 1.152344 10.632812 C 1.203125 10.6875 1.265625 10.714844 1.339844 10.714844 L 2.679688 10.714844 L 2.679688 11.785156 L 1.339844 11.785156 C 0.972656 11.785156 0.65625 11.65625 0.394531 11.390625 C 0.132812 11.128906 0 10.816406 0 10.445312 L 0 1.339844 C 0 0.972656 0.132812 0.65625 0.394531 0.394531 C 0.65625 0.132812 0.972656 0 1.339844 0 L 10.445312 0 C 10.816406 0 11.128906 0.132812 11.390625 0.394531 C 11.65625 0.65625 11.785156 0.972656 11.785156 1.339844 Z M 11.785156 1.339844 "/>
  </g>
</svg>