<?xml version="1.0" encoding="UTF-8" standalone="yes"?>
<svg xmlns="http://www.w3.org/2000/svg" xmlns:xlink="http://www.w3.org/1999/xlink" width="20px" height="20px" viewBox="0 0 15 15" version="1.1">
  <g id="surface1">
    <path style=" stroke:none;fill-rule:nonzero;fill:rgb(0%,0%,0%);fill-opacity:1;" d="M 5.0625 10.320312 C 5.917969 10.320312 6.636719 10.03125 7.214844 9.449219 C 7.292969 9.351562 7.300781 9.25 7.242188 9.148438 L 6.863281 8.460938 C 6.832031 8.390625 6.761719 8.34375 6.664062 8.320312 C 6.574219 8.308594 6.5 8.339844 6.4375 8.414062 L 6.402344 8.4375 C 6.382812 8.460938 6.347656 8.488281 6.308594 8.519531 C 6.265625 8.554688 6.214844 8.589844 6.160156 8.628906 C 6.105469 8.667969 6.039062 8.710938 5.964844 8.75 C 5.890625 8.792969 5.808594 8.832031 5.726562 8.863281 C 5.640625 8.898438 5.546875 8.925781 5.445312 8.945312 C 5.339844 8.964844 5.238281 8.972656 5.132812 8.972656 C 4.707031 8.972656 4.359375 8.832031 4.085938 8.554688 C 3.8125 8.277344 3.675781 7.921875 3.675781 7.492188 C 3.675781 7.066406 3.808594 6.71875 4.078125 6.441406 C 4.34375 6.164062 4.683594 6.027344 5.097656 6.027344 C 5.304688 6.027344 5.503906 6.066406 5.695312 6.144531 C 5.890625 6.222656 6.03125 6.300781 6.117188 6.378906 L 6.253906 6.496094 C 6.3125 6.558594 6.386719 6.585938 6.46875 6.578125 C 6.558594 6.566406 6.625 6.527344 6.671875 6.460938 L 7.113281 5.808594 C 7.1875 5.699219 7.183594 5.589844 7.097656 5.484375 C 7.082031 5.460938 7.050781 5.425781 7.007812 5.382812 C 6.960938 5.335938 6.878906 5.273438 6.753906 5.1875 C 6.632812 5.097656 6.496094 5.019531 6.347656 4.953125 C 6.199219 4.882812 6.011719 4.820312 5.785156 4.761719 C 5.554688 4.707031 5.316406 4.679688 5.0625 4.679688 C 4.238281 4.679688 3.550781 4.949219 3.003906 5.488281 C 2.457031 6.023438 2.183594 6.695312 2.183594 7.5 C 2.183594 8.316406 2.457031 8.988281 2.996094 9.523438 C 3.539062 10.054688 4.226562 10.320312 5.0625 10.320312 Z M 10.335938 10.320312 C 11.191406 10.320312 11.910156 10.03125 12.488281 9.449219 C 12.566406 9.351562 12.578125 9.25 12.523438 9.148438 L 12.144531 8.460938 C 12.101562 8.382812 12.03125 8.335938 11.9375 8.320312 C 11.847656 8.308594 11.773438 8.339844 11.710938 8.414062 L 11.675781 8.4375 C 11.65625 8.460938 11.621094 8.488281 11.582031 8.519531 C 11.539062 8.554688 11.488281 8.589844 11.433594 8.628906 C 11.378906 8.667969 11.3125 8.710938 11.238281 8.75 C 11.164062 8.792969 11.082031 8.832031 11 8.863281 C 10.914062 8.898438 10.820312 8.925781 10.71875 8.945312 C 10.613281 8.964844 10.511719 8.972656 10.40625 8.972656 C 9.980469 8.972656 9.632812 8.832031 9.359375 8.554688 C 9.085938 8.277344 8.949219 7.921875 8.949219 7.492188 C 8.949219 7.066406 9.082031 6.71875 9.351562 6.441406 C 9.617188 6.164062 9.957031 6.027344 10.371094 6.027344 C 10.578125 6.027344 10.777344 6.066406 10.96875 6.144531 C 11.164062 6.222656 11.304688 6.300781 11.390625 6.378906 L 11.527344 6.496094 C 11.585938 6.558594 11.660156 6.585938 11.742188 6.578125 C 11.832031 6.566406 11.898438 6.527344 11.945312 6.460938 L 12.386719 5.808594 C 12.460938 5.699219 12.457031 5.589844 12.371094 5.484375 C 12.355469 5.460938 12.324219 5.425781 12.28125 5.382812 C 12.234375 5.335938 12.152344 5.273438 12.027344 5.1875 C 11.90625 5.097656 11.769531 5.019531 11.621094 4.953125 C 11.472656 4.882812 11.285156 4.820312 11.058594 4.761719 C 10.828125 4.707031 10.589844 4.679688 10.335938 4.679688 C 9.515625 4.679688 8.832031 4.949219 8.28125 5.488281 C 7.734375 6.023438 7.457031 6.695312 7.457031 7.5 C 7.457031 8.316406 7.730469 8.988281 8.269531 9.523438 C 8.8125 10.054688 9.5 10.320312 10.335938 10.320312 Z M 7.5 1.339844 C 6.664062 1.339844 5.863281 1.503906 5.105469 1.828125 C 4.347656 2.15625 3.691406 2.59375 3.144531 3.144531 C 2.59375 3.691406 2.15625 4.347656 1.828125 5.105469 C 1.503906 5.863281 1.339844 6.664062 1.339844 7.5 C 1.339844 8.335938 1.503906 9.136719 1.828125 9.894531 C 2.15625 10.652344 2.59375 11.308594 3.144531 11.855469 C 3.691406 12.40625 4.347656 12.84375 5.105469 13.171875 C 5.863281 13.496094 6.664062 13.660156 7.5 13.660156 C 8.335938 13.660156 9.136719 13.496094 9.894531 13.171875 C 10.652344 12.84375 11.308594 12.40625 11.855469 11.855469 C 12.40625 11.308594 12.84375 10.652344 13.171875 9.894531 C 13.496094 9.136719 13.660156 8.335938 13.660156 7.5 C 13.660156 6.664062 13.496094 5.863281 13.171875 5.105469 C 12.84375 4.347656 12.40625 3.691406 11.855469 3.144531 C 11.308594 2.59375 10.652344 2.15625 9.894531 1.828125 C 9.136719 1.503906 8.335938 1.339844 7.5 1.339844 Z M 7.5 0 C 8.515625 0 9.488281 0.199219 10.414062 0.59375 C 11.339844 0.992188 12.136719 1.523438 12.808594 2.191406 C 13.476562 2.863281 14.007812 3.660156 14.40625 4.585938 C 14.800781 5.511719 15 6.484375 15 7.5 C 15 8.515625 14.800781 9.488281 14.40625 10.414062 C 14.007812 11.339844 13.476562 12.136719 12.808594 12.808594 C 12.136719 13.476562 11.339844 14.007812 10.414062 14.40625 C 9.488281 14.800781 8.515625 15 7.5 15 C 6.484375 15 5.511719 14.800781 4.585938 14.40625 C 3.660156 14.007812 2.863281 13.476562 2.191406 12.808594 C 1.523438 12.136719 0.992188 11.339844 0.59375 10.414062 C 0.199219 9.488281 0 8.515625 0 7.5 C 0 6.484375 0.199219 5.511719 0.59375 4.585938 C 0.992188 3.660156 1.523438 2.863281 2.191406 2.191406 C 2.863281 1.523438 3.660156 0.992188 4.585938 0.59375 C 5.511719 0.199219 6.484375 0 7.5 0 Z M 7.5 0 "/>
  </g>
</svg>