<svg xmlns="http://www.w3.org/2000/svg" xlink="http://www.w3.org/1999/xlink" width="20px" height="20px" viewBox="0 0 15 15" version="1.1">
  <g id="surface1">
    <path d="M 8.679688 11.675781 L 9.535156 10.824219 C 9.640625 10.71875 9.691406 10.589844 9.691406 10.445312 C 9.691406 10.300781 9.640625 10.175781 9.535156 10.070312 L 6.964844 7.5 L 9.535156 4.929688 C 9.640625 4.824219 9.691406 4.699219 9.691406 4.554688 C 9.691406 4.410156 9.640625 4.28125 9.535156 4.175781 L 8.679688 3.324219 C 8.574219 3.21875 8.449219 3.164062 8.304688 3.164062 C 8.160156 3.164062 8.03125 3.21875 7.925781 3.324219 L 4.125 7.125 C 4.019531 7.230469 3.96875 7.355469 3.96875 7.5 C 3.96875 7.644531 4.019531 7.769531 4.125 7.875 L 7.925781 11.675781 C 8.03125 11.78125 8.160156 11.835938 8.304688 11.835938 C 8.449219 11.835938 8.574219 11.78125 8.679688 11.675781 Z M 13.929688 7.5 C 13.929688 8.667969 13.640625 9.742188 13.066406 10.726562 C 12.492188 11.710938 11.710938 12.492188 10.726562 13.066406 C 9.742188 13.640625 8.667969 13.929688 7.5 13.929688 C 6.332031 13.929688 5.257812 13.640625 4.273438 13.066406 C 3.289062 12.492188 2.507812 11.710938 1.933594 10.726562 C 1.359375 9.742188 1.070312 8.667969 1.070312 7.5 C 1.070312 6.332031 1.359375 5.257812 1.933594 4.273438 C 2.507812 3.289062 3.289062 2.507812 4.273438 1.933594 C 5.257812 1.359375 6.332031 1.070312 7.5 1.070312 C 8.667969 1.070312 9.742188 1.359375 10.726562 1.933594 C 11.710938 2.507812 12.492188 3.289062 13.066406 4.273438 C 13.640625 5.257812 13.929688 6.332031 13.929688 7.5 Z M 13.929688 7.5 " fill="#FFFFFF"/>
  </g>
</svg>