<?xml version="1.0" encoding="UTF-8" standalone="yes"?>
<svg xmlns="http://www.w3.org/2000/svg" xmlns:xlink="http://www.w3.org/1999/xlink" width="20px" height="20px" viewBox="0 0 15 15" version="1.1">
  <g id="surface1">
    <path style=" stroke:none;fill-rule:nonzero;fill:rgb(0%,0%,0%);fill-opacity:1;" d="M 14.195312 7.5 C 14.714844 7.5 15.15625 7.683594 15.523438 8.046875 C 15.886719 8.414062 16.070312 8.855469 16.070312 9.375 L 16.070312 12.589844 C 16.070312 12.667969 16.046875 12.730469 15.996094 12.78125 C 15.945312 12.832031 15.882812 12.855469 15.804688 12.855469 L 15 12.855469 L 15 13.394531 C 15 13.839844 14.84375 14.21875 14.53125 14.53125 C 14.21875 14.84375 13.839844 15 13.394531 15 C 12.945312 15 12.566406 14.84375 12.253906 14.53125 C 11.941406 14.21875 11.785156 13.839844 11.785156 13.394531 L 11.785156 12.855469 L 3.214844 12.855469 L 3.214844 13.394531 C 3.214844 13.839844 3.058594 14.21875 2.746094 14.53125 C 2.433594 14.84375 2.054688 15 1.605469 15 C 1.160156 15 0.78125 14.84375 0.46875 14.53125 C 0.15625 14.21875 0 13.839844 0 13.394531 L 0 12.855469 L -0.804688 12.855469 C -0.882812 12.855469 -0.945312 12.832031 -0.996094 12.78125 C -1.046875 12.730469 -1.070312 12.667969 -1.070312 12.589844 L -1.070312 9.375 C -1.070312 8.855469 -0.886719 8.414062 -0.523438 8.046875 C -0.15625 7.683594 0.285156 7.5 0.804688 7.5 L 1.039062 7.5 L 1.917969 3.992188 C 2.046875 3.46875 2.335938 3.027344 2.789062 2.675781 C 3.238281 2.320312 3.738281 2.144531 4.285156 2.144531 L 5.355469 2.144531 L 5.355469 0.269531 C 5.355469 0.191406 5.382812 0.125 5.433594 0.0742188 C 5.484375 0.0234375 5.546875 0 5.625 0 L 9.375 0 C 9.453125 0 9.515625 0.0234375 9.566406 0.0742188 C 9.617188 0.125 9.644531 0.191406 9.644531 0.269531 L 9.644531 2.144531 L 10.714844 2.144531 C 11.261719 2.144531 11.761719 2.320312 12.210938 2.675781 C 12.664062 3.027344 12.953125 3.46875 13.082031 3.992188 L 13.960938 7.5 Z M 1.605469 11.519531 C 1.976562 11.519531 2.289062 11.386719 2.554688 11.125 C 2.816406 10.863281 2.945312 10.546875 2.945312 10.179688 C 2.945312 9.808594 2.816406 9.496094 2.554688 9.234375 C 2.289062 8.96875 1.976562 8.839844 1.605469 8.839844 C 1.238281 8.839844 0.921875 8.96875 0.660156 9.234375 C 0.398438 9.496094 0.269531 9.808594 0.269531 10.179688 C 0.269531 10.546875 0.398438 10.863281 0.660156 11.125 C 0.921875 11.386719 1.238281 11.519531 1.605469 11.519531 Z M 3.246094 7.5 L 11.753906 7.5 L 11.007812 4.511719 C 10.996094 4.46875 10.957031 4.417969 10.890625 4.367188 C 10.824219 4.3125 10.765625 4.285156 10.714844 4.285156 L 4.285156 4.285156 C 4.234375 4.285156 4.175781 4.3125 4.109375 4.367188 C 4.042969 4.417969 4.003906 4.46875 3.992188 4.511719 Z M 13.394531 11.519531 C 13.761719 11.519531 14.078125 11.386719 14.339844 11.125 C 14.601562 10.863281 14.730469 10.546875 14.730469 10.179688 C 14.730469 9.808594 14.601562 9.496094 14.339844 9.234375 C 14.078125 8.96875 13.761719 8.839844 13.394531 8.839844 C 13.023438 8.839844 12.710938 8.96875 12.445312 9.234375 C 12.183594 9.496094 12.054688 9.808594 12.054688 10.179688 C 12.054688 10.546875 12.183594 10.863281 12.445312 11.125 C 12.710938 11.386719 13.023438 11.519531 13.394531 11.519531 Z M 13.394531 11.519531 "/>
  </g>
</svg>