<svg version="1.1" xmlns="http://www.w3.org/2000/svg" xlink="http://www.w3.org/1999/xlink" x="0px" y="0px" width="15px" height="15px" viewBox="0 0 15 15" style="enable-background:new 0 0 15 15;" space="preserve">
    <path d="M13.929688,13.660156L13.929688,4.554688C13.929688,4.480469,13.902344,4.417969,13.847656,4.367188C13.796875,4.3125,13.734375,4.285156,13.660156,4.285156L4.554688,4.285156C4.480469,4.285156,4.417969,4.3125,4.367188,4.367188C4.3125,4.417969,4.285156,4.480469,4.285156,4.554688L4.285156,13.660156C4.285156,13.734375,4.3125,13.796875,4.367188,13.847656C4.417969,13.902344,4.480469,13.929688,4.554688,13.929688L13.660156,13.929688C13.734375,13.929688,13.796875,13.902344,13.847656,13.847656C13.902344,13.796875,13.929688,13.734375,13.929688,13.660156ZM15,4.554688L15,13.660156C15,14.027344,14.867188,14.34375,14.605469,14.605469C14.34375,14.867188,14.027344,15,13.660156,15L4.554688,15C4.183594,15,3.871094,14.867188,3.609375,14.605469C3.34375,14.34375,3.214844,14.027344,3.214844,13.660156L3.214844,4.554688C3.214844,4.183594,3.34375,3.871094,3.609375,3.609375C3.871094,3.34375,4.183594,3.214844,4.554688,3.214844L13.660156,3.214844C14.027344,3.214844,14.34375,3.34375,14.605469,3.609375C14.867188,3.871094,15,4.183594,15,4.554688ZM11.785156,1.339844L11.785156,2.679688L10.714844,2.679688L10.714844,1.339844C10.714844,1.265625,10.6875,1.203125,10.632812,1.152344C10.582031,1.097656,10.519531,1.070312,10.445312,1.070312L1.339844,1.070312C1.265625,1.070312,1.203125,1.097656,1.152344,1.152344C1.097656,1.203125,1.070312,1.265625,1.070312,1.339844L1.070312,10.445312C1.070312,10.519531,1.097656,10.582031,1.152344,10.632812C1.203125,10.6875,1.265625,10.714844,1.339844,10.714844L2.679688,10.714844L2.679688,11.785156L1.339844,11.785156C0.972656,11.785156,0.65625,11.65625,0.394531,11.390625C0.132812,11.128906,0,10.816406,0,10.445312L0,1.339844C0,0.972656,0.132812,0.65625,0.394531,0.394531C0.65625,0.132812,0.972656,0,1.339844,0L10.445312,0C10.816406,0,11.128906,0.132812,11.390625,0.394531C11.65625,0.65625,11.785156,0.972656,11.785156,1.339844ZM11.785156,1.339844" fill="#FFFFFF"/>
    </svg>