<svg version="1.1" xmlns="http://www.w3.org/2000/svg" xlink="http://www.w3.org/1999/xlink" x="0px" y="0px" width="15px" height="16.875px" viewBox="0 0 15 16.875" style="enable-background:new 0 0 15 15;" space="preserve">
    <path d="M9.696533203125,9.1527099609375c0.59326171875,0.164794921875,1.1436767578125,0.441650390625,1.6314697265625,0.8140869140625l5.3228759765625,-1.773193359375c0.27685546875,-0.09228515625,0.4251708984375,-0.3922119140625,0.3328857421875,-0.665771484375L14.9930419921875,1.5556640625c-0.09228515625,-0.27685546875,-0.3922119140625,-0.4251708984375,-0.665771484375,-0.3328857421875l-2.0137939453125,0.67236328125l1.0909423828125,3.276123046875L11.40380859375,5.833740234375l-1.0909423828125,-3.276123046875l-2.0302734375,0.6756591796875c-0.27685546875,0.09228515625,-0.4251708984375,0.3922119140625,-0.3328857421875,0.665771484375l1.746826171875,5.253662109375zm9.261474609375,1.6051025390625L18.621826171875,9.755859375c-0.09228515625,-0.27685546875,-0.3922119140625,-0.4251708984375,-0.665771484375,-0.3328857421875l-7.0367431640625,2.3466796875c-0.56689453125,-0.72509765625,-1.43701171875,-1.19970703125,-2.4224853515625,-1.219482421875L5.220703125,0.7218017578125C5.07568359375,0.2900390625,4.673583984375,0,4.21875,0H0.52734375C0.2373046875,0,0,0.2373046875,0,0.52734375v1.0546875c0,0.2900390625,0.2373046875,0.52734375,0.52734375,0.52734375h2.9300537109375l3.038818359375,9.1197509765625c-0.8602294921875,0.67236328125,-1.3743896484375,1.7666015625,-1.1865234375,2.9827880859375c0.2010498046875,1.298583984375,1.2491455078125,2.3829345703125,2.5477294921875,2.6103515625c1.984130859375,0.3526611328125,3.7012939453125,-1.14697265625,3.737548828125,-3.052001953125l7.0301513671875,-2.3466796875c0.27355957031250006,-0.09228515625,0.4251708984375,-0.388916015625,0.3328857421875,-0.665771484375zM8.4375,15.29296875c-0.8734130859375,0,-1.58203125,-0.7086181640625,-1.58203125,-1.58203125s0.7086181640625,-1.58203125,1.58203125,-1.58203125s1.58203125,0.7086181640625,1.58203125,1.58203125s-0.7086181640625,1.58203125,-1.58203125,1.58203125z" fill="#FFFFFF"/>
    </svg>