<svg xmlns="http://www.w3.org/2000/svg" xlink="http://www.w3.org/1999/xlink" width="20px" height="20px" viewBox="0 0 15 15" version="1.1">
  <g id="surface1">
    <path d="M 1.070312 5.691406 C 1.070312 4.960938 1.328125 4.328125 1.835938 3.796875 C 2.347656 3.261719 2.96875 2.996094 3.699219 2.996094 L 9.910156 2.996094 L 12.855469 0 L 12.855469 12.304688 C 12.855469 13.042969 12.601562 13.675781 12.089844 14.203125 C 11.582031 14.734375 10.960938 15 10.230469 15 L 3.699219 15 C 2.96875 15 2.347656 14.734375 1.835938 14.203125 C 1.328125 13.675781 1.070312 13.042969 1.070312 12.304688 Z M 11.382812 12.003906 L 9.910156 10.496094 L 9.910156 6.9375 C 9.910156 6.683594 9.820312 6.460938 9.644531 6.277344 C 9.464844 6.09375 9.246094 6 8.988281 6 L 4.9375 6 C 4.683594 6 4.464844 6.09375 4.285156 6.277344 C 4.105469 6.460938 4.019531 6.683594 4.019531 6.9375 L 4.019531 11.058594 C 4.019531 11.3125 4.109375 11.535156 4.289062 11.722656 C 4.472656 11.910156 4.6875 12.003906 4.9375 12.003906 Z M 11.382812 12.003906 " fill="#FFFFFF"/>
  </g>
</svg>