<svg version="1.1" xmlns="http://www.w3.org/2000/svg" xlink="http://www.w3.org/1999/xlink" x="0px" y="0px" width="15px" height="15px" viewBox="0 0 15 15" style="enable-background:new 0 0 15 15;" space="preserve">
    <path d="M1.070312,5.691406C1.070312,4.960938,1.328125,4.328125,1.835938,3.796875C2.347656,3.261719,2.96875,2.996094,3.699219,2.996094L9.910156,2.996094L12.855469,0L12.855469,12.304688C12.855469,13.042969,12.601562,13.675781,12.089844,14.203125C11.582031,14.734375,10.960938,15,10.230469,15L3.699219,15C2.96875,15,2.347656,14.734375,1.835938,14.203125C1.328125,13.675781,1.070312,13.042969,1.070312,12.304688ZM11.382812,12.003906L9.910156,10.496094L9.910156,6.9375C9.910156,6.683594,9.820312,6.460938,9.644531,6.277344C9.464844,6.09375,9.246094,6,8.988281,6L4.9375,6C4.683594,6,4.464844,6.09375,4.285156,6.277344C4.105469,6.460938,4.019531,6.683594,4.019531,6.9375L4.019531,11.058594C4.019531,11.3125,4.109375,11.535156,4.289062,11.722656C4.472656,11.910156,4.6875,12.003906,4.9375,12.003906ZM11.382812,12.003906" fill="#FFFFFF"/>
    </svg>