<?xml version="1.0" encoding="UTF-8" standalone="yes"?>
<svg xmlns="http://www.w3.org/2000/svg" xmlns:xlink="http://www.w3.org/1999/xlink" width="20px" height="20px" viewBox="0 0 15 15" version="1.1">
  <g id="surface1">
    <path style=" stroke:none;fill-rule:nonzero;fill:rgb(0%,0%,0%);fill-opacity:1;" d="M 7.5 6.429688 C 8.824219 6.429688 10.058594 6.308594 11.207031 6.070312 C 12.359375 5.828125 13.265625 5.472656 13.929688 5.003906 L 13.929688 6.429688 C 13.929688 6.8125 13.640625 7.171875 13.066406 7.5 C 12.492188 7.828125 11.710938 8.089844 10.722656 8.28125 C 9.734375 8.476562 8.660156 8.570312 7.5 8.570312 C 6.339844 8.570312 5.265625 8.476562 4.277344 8.28125 C 3.289062 8.089844 2.507812 7.828125 1.933594 7.5 C 1.359375 7.171875 1.070312 6.8125 1.070312 6.429688 L 1.070312 5.003906 C 1.734375 5.472656 2.640625 5.828125 3.792969 6.070312 C 4.941406 6.308594 6.175781 6.429688 7.5 6.429688 Z M 7.5 12.855469 C 8.824219 12.855469 10.058594 12.738281 11.207031 12.496094 C 12.359375 12.257812 13.265625 11.902344 13.929688 11.433594 L 13.929688 12.855469 C 13.929688 13.242188 13.640625 13.597656 13.066406 13.929688 C 12.492188 14.257812 11.710938 14.519531 10.722656 14.710938 C 9.734375 14.902344 8.660156 15 7.5 15 C 6.339844 15 5.265625 14.902344 4.277344 14.710938 C 3.289062 14.519531 2.507812 14.257812 1.933594 13.929688 C 1.359375 13.597656 1.070312 13.242188 1.070312 12.855469 L 1.070312 11.433594 C 1.734375 11.902344 2.640625 12.257812 3.792969 12.496094 C 4.941406 12.738281 6.175781 12.855469 7.5 12.855469 Z M 7.5 9.644531 C 8.824219 9.644531 10.058594 9.523438 11.207031 9.28125 C 12.359375 9.042969 13.265625 8.6875 13.929688 8.21875 L 13.929688 9.644531 C 13.929688 10.027344 13.640625 10.386719 13.066406 10.714844 C 12.492188 11.042969 11.710938 11.304688 10.722656 11.496094 C 9.734375 11.6875 8.660156 11.785156 7.5 11.785156 C 6.339844 11.785156 5.265625 11.6875 4.277344 11.496094 C 3.289062 11.304688 2.507812 11.042969 1.933594 10.714844 C 1.359375 10.386719 1.070312 10.027344 1.070312 9.644531 L 1.070312 8.21875 C 1.734375 8.6875 2.640625 9.042969 3.792969 9.28125 C 4.941406 9.523438 6.175781 9.644531 7.5 9.644531 Z M 7.5 0 C 8.660156 0 9.734375 0.0976562 10.722656 0.289062 C 11.710938 0.480469 12.492188 0.742188 13.066406 1.070312 C 13.640625 1.402344 13.929688 1.757812 13.929688 2.144531 L 13.929688 3.214844 C 13.929688 3.597656 13.640625 3.957031 13.066406 4.285156 C 12.492188 4.613281 11.710938 4.875 10.722656 5.070312 C 9.734375 5.261719 8.660156 5.355469 7.5 5.355469 C 6.339844 5.355469 5.265625 5.261719 4.277344 5.070312 C 3.289062 4.875 2.507812 4.613281 1.933594 4.285156 C 1.359375 3.957031 1.070312 3.597656 1.070312 3.214844 L 1.070312 2.144531 C 1.070312 1.757812 1.359375 1.402344 1.933594 1.070312 C 2.507812 0.742188 3.289062 0.480469 4.277344 0.289062 C 5.265625 0.0976562 6.339844 0 7.5 0 Z M 7.5 0 "/>
  </g>
</svg>