<?xml version="1.0" encoding="UTF-8" standalone="yes"?>
<svg xmlns="http://www.w3.org/2000/svg" xmlns:xlink="http://www.w3.org/1999/xlink" width="20px" height="20px" viewBox="0 0 15 15" version="1.1">
  <g id="surface1">
    <path style=" stroke:none;fill-rule:nonzero;fill:rgb(0%,0%,0%);fill-opacity:1;" d="M 3.363281 5.917969 L 7.5 8.472656 L 4.636719 10.855469 L 0.535156 8.1875 Z M 11.617188 10.5625 L 11.617188 11.46875 L 7.515625 13.921875 L 7.515625 13.929688 L 7.507812 13.921875 L 7.5 13.929688 L 7.5 13.921875 L 3.40625 11.46875 L 3.40625 10.5625 L 4.636719 11.367188 L 7.5 8.988281 L 7.5 8.972656 L 7.507812 8.980469 L 7.515625 8.972656 L 7.515625 8.988281 L 10.386719 11.367188 Z M 4.636719 0.988281 L 7.5 3.375 L 3.363281 5.917969 L 0.535156 3.65625 Z M 11.636719 5.917969 L 14.464844 8.1875 L 10.371094 10.855469 L 7.5 8.472656 Z M 10.371094 0.988281 L 14.464844 3.65625 L 11.636719 5.917969 L 7.5 3.375 Z M 10.371094 0.988281 "/>
  </g>
</svg>