<svg version="1.1" xmlns="http://www.w3.org/2000/svg" xlink="http://www.w3.org/1999/xlink" x="0px" y="0px" width="15px" height="15px" viewBox="0 0 15 15" style="enable-background:new 0 0 15 15;" space="preserve">
    <path d="M3.363281,5.917969L7.5,8.472656L4.636719,10.855469L0.535156,8.1875ZM11.617188,10.5625L11.617188,11.46875L7.515625,13.921875L7.515625,13.929688L7.507812,13.921875L7.5,13.929688L7.5,13.921875L3.40625,11.46875L3.40625,10.5625L4.636719,11.367188L7.5,8.988281L7.5,8.972656L7.507812,8.980469L7.515625,8.972656L7.515625,8.988281L10.386719,11.367188ZM4.636719,0.988281L7.5,3.375L3.363281,5.917969L0.535156,3.65625ZM11.636719,5.917969L14.464844,8.1875L10.371094,10.855469L7.5,8.472656ZM10.371094,0.988281L14.464844,3.65625L11.636719,5.917969L7.5,3.375ZM10.371094,0.988281" fill="#FFFFFF"/>
    </svg>