<svg version="1.1" xmlns="http://www.w3.org/2000/svg" xlink="http://www.w3.org/1999/xlink" x="0px" y="0px" width="15px" height="15px" viewBox="0 0 15 15" style="enable-background:new 0 0 15 15;" space="preserve">
    <path d="M14.464844,8.304688L14.464844,1.339844C14.464844,1.265625,14.4375,1.203125,14.382812,1.152344C14.332031,1.097656,14.269531,1.070312,14.195312,1.070312L0.804688,1.070312C0.730469,1.070312,0.667969,1.097656,0.617188,1.152344C0.5625,1.203125,0.535156,1.265625,0.535156,1.339844L0.535156,8.304688C0.535156,8.375,0.5625,8.4375,0.617188,8.492188C0.667969,8.546875,0.730469,8.570312,0.804688,8.570312L14.195312,8.570312C14.269531,8.570312,14.332031,8.546875,14.382812,8.492188C14.4375,8.4375,14.464844,8.375,14.464844,8.304688ZM15.535156,1.339844L15.535156,10.445312C15.535156,10.816406,15.40625,11.128906,15.140625,11.390625C14.878906,11.65625,14.566406,11.785156,14.195312,11.785156L9.644531,11.785156C9.644531,11.992188,9.6875,12.207031,9.777344,12.433594C9.867188,12.660156,9.957031,12.859375,10.042969,13.027344C10.132812,13.199219,10.179688,13.320312,10.179688,13.394531C10.179688,13.539062,10.125,13.664062,10.019531,13.769531C9.914062,13.875,9.789062,13.929688,9.644531,13.929688L5.355469,13.929688C5.210938,13.929688,5.085938,13.875,4.980469,13.769531C4.875,13.664062,4.820312,13.539062,4.820312,13.394531C4.820312,13.316406,4.867188,13.191406,4.957031,13.023438C5.042969,12.855469,5.132812,12.660156,5.222656,12.4375C5.3125,12.214844,5.355469,11.996094,5.355469,11.785156L0.804688,11.785156C0.433594,11.785156,0.121094,11.65625,-0.140625,11.390625C-0.40625,11.128906,-0.535156,10.816406,-0.535156,10.445312L-0.535156,1.339844C-0.535156,0.972656,-0.40625,0.65625,-0.140625,0.394531C0.121094,0.132812,0.433594,0,0.804688,0L14.195312,0C14.566406,0,14.878906,0.132812,15.140625,0.394531C15.40625,0.65625,15.535156,0.972656,15.535156,1.339844ZM15.535156,1.339844" fill="#FFFFFF"/>
    </svg>