<?xml version="1.0" encoding="UTF-8" standalone="yes"?>
<svg xmlns="http://www.w3.org/2000/svg" xmlns:xlink="http://www.w3.org/1999/xlink" width="20px" height="20px" viewBox="0 0 15 15" version="1.1">
  <g id="surface1">
    <path style=" stroke:none;fill-rule:nonzero;fill:rgb(0%,0%,0%);fill-opacity:1;" d="M 0.703125 6.429688 L 5.917969 11.996094 L 3.40625 6.429688 Z M 7.5 12.890625 L 10.421875 6.429688 L 4.578125 6.429688 Z M 3.433594 5.355469 L 5.140625 2.144531 L 2.945312 2.144531 L 0.535156 5.355469 Z M 9.082031 11.996094 L 14.296875 6.429688 L 11.59375 6.429688 Z M 4.644531 5.355469 L 10.355469 5.355469 L 8.648438 2.144531 L 6.351562 2.144531 Z M 11.566406 5.355469 L 14.464844 5.355469 L 12.054688 2.144531 L 9.859375 2.144531 Z M 12.75 1.289062 L 15.960938 5.574219 C 16.039062 5.675781 16.078125 5.789062 16.070312 5.921875 C 16.066406 6.054688 16.019531 6.167969 15.929688 6.261719 L 7.894531 14.832031 C 7.792969 14.945312 7.660156 15 7.5 15 C 7.339844 15 7.207031 14.945312 7.105469 14.832031 L -0.929688 6.261719 C -1.019531 6.167969 -1.066406 6.054688 -1.070312 5.921875 C -1.078125 5.789062 -1.039062 5.675781 -0.960938 5.574219 L 2.25 1.289062 C 2.351562 1.144531 2.496094 1.070312 2.679688 1.070312 L 12.320312 1.070312 C 12.503906 1.070312 12.648438 1.144531 12.75 1.289062 Z M 12.75 1.289062 "/>
  </g>
</svg>