<svg xmlns="http://www.w3.org/2000/svg" xlink="http://www.w3.org/1999/xlink" width="20px" height="20px" viewBox="0 0 15 15" version="1.1">
  <g id="surface1">
    <path d="M 1.675781 2.359375 L 3.382812 2.359375 L 3.382812 10.589844 L -1.070312 10.589844 L -1.070312 4.753906 L 1.675781 4.753906 Z M 1.675781 9.214844 L 1.675781 6.128906 L 0.644531 6.128906 L 0.644531 9.214844 Z M 4.066406 4.753906 L 4.066406 10.589844 L 5.785156 10.589844 L 5.785156 4.753906 Z M 4.066406 2.359375 L 4.066406 4.066406 L 5.785156 4.066406 L 5.785156 2.359375 Z M 6.46875 4.753906 L 10.933594 4.753906 L 10.933594 12.640625 L 6.46875 12.640625 L 6.46875 11.273438 L 9.214844 11.273438 L 9.214844 10.589844 L 6.46875 10.589844 Z M 9.214844 9.214844 L 9.214844 6.128906 L 8.1875 6.128906 L 8.1875 9.214844 Z M 11.617188 4.753906 L 16.070312 4.753906 L 16.070312 12.640625 L 11.617188 12.640625 L 11.617188 11.273438 L 14.355469 11.273438 L 14.355469 10.589844 L 11.617188 10.589844 Z M 14.355469 9.214844 L 14.355469 6.128906 L 13.324219 6.128906 L 13.324219 9.214844 Z M 14.355469 9.214844 " fill="#FFFFFF"/>
  </g>
</svg>