<svg version="1.1" xmlns="http://www.w3.org/2000/svg" xlink="http://www.w3.org/1999/xlink" x="0px" y="0px" width="15px" height="18.75px" viewBox="0 0 15 18.75" style="enable-background:new 0 0 15 15;" space="preserve">
    <path d="M21.6796875,7.03125H17.331298828125c0.4647216796875,1.0836181640625,0.2607421875,2.3876953125,-0.62255859375,3.27099609375L11.71875,15.292236328125V16.9921875c0,0.9708251953125001,0.7869873046874999,1.7578125,1.7578125,1.7578125h8.203125c0.9708251953125001,0,1.7578125,-0.7869873046874999,1.7578125,-1.7578125V8.7890625c0,-0.9708251953125001,-0.7869873046874999,-1.7578125,-1.7578125,-1.7578125zM17.578125,13.76953125c-0.4852294921875,0,-0.87890625,-0.3936767578125,-0.87890625,-0.87890625c0,-0.485595703125,0.3936767578125,-0.87890625,0.87890625,-0.87890625s0.87890625,0.393310546875,0.87890625,0.87890625c0,0.4852294921875,-0.3936767578125,0.87890625,-0.87890625,0.87890625zm-1.6981201171875,-6.837158203125L9.473876953125,0.5262451171875c-0.70166015625,-0.70166015625,-1.8394775390624998,-0.70166015625,-2.5411376953125,0L0.5262451171875,6.932373046875c-0.70166015625,0.70166015625,-0.70166015625,1.8394775390624998,0,2.5411376953125L6.932373046875,15.8800048828125c0.70166015625,0.70166015625,1.8394775390624998,0.70166015625,2.5411376953125,0L15.8800048828125,9.473876953125c0.70166015625,-0.7020263671875,0.70166015625,-1.83984375,0,-2.54150390625zM3.515625,9.08203125c-0.4852294921875,0,-0.87890625,-0.3936767578125,-0.87890625,-0.87890625c0,-0.485595703125,0.3936767578125,-0.87890625,0.87890625,-0.87890625s0.87890625,0.393310546875,0.87890625,0.87890625c0,0.4852294921875,-0.3936767578125,0.87890625,-0.87890625,0.87890625zm4.6875,4.6875c-0.4852294921875,0,-0.87890625,-0.3936767578125,-0.87890625,-0.87890625c0,-0.485595703125,0.3936767578125,-0.87890625,0.87890625,-0.87890625s0.87890625,0.393310546875,0.87890625,0.87890625c0,0.4852294921875,-0.3936767578125,0.87890625,-0.87890625,0.87890625zm0,-4.6875c-0.4852294921875,0,-0.87890625,-0.3936767578125,-0.87890625,-0.87890625c0,-0.485595703125,0.3936767578125,-0.87890625,0.87890625,-0.87890625s0.87890625,0.393310546875,0.87890625,0.87890625c0,0.4852294921875,-0.3936767578125,0.87890625,-0.87890625,0.87890625zm0,-4.6875c-0.4852294921875,0,-0.87890625,-0.3936767578125,-0.87890625,-0.87890625c0,-0.485595703125,0.3936767578125,-0.87890625,0.87890625,-0.87890625s0.87890625,0.393310546875,0.87890625,0.87890625c0,0.4852294921875,-0.3936767578125,0.87890625,-0.87890625,0.87890625zm4.6875,4.6875c-0.4852294921875,0,-0.87890625,-0.3936767578125,-0.87890625,-0.87890625c0,-0.485595703125,0.3936767578125,-0.87890625,0.87890625,-0.87890625s0.87890625,0.393310546875,0.87890625,0.87890625c0,0.4852294921875,-0.3936767578125,0.87890625,-0.87890625,0.87890625z" fill="#FFFFFF"/>
    </svg>