<?xml version="1.0" encoding="UTF-8" standalone="yes"?>
<svg xmlns="http://www.w3.org/2000/svg" xmlns:xlink="http://www.w3.org/1999/xlink" width="20px" height="20px" viewBox="0 0 15 15" version="1.1">
  <g id="surface1">
    <path style=" stroke:none;fill-rule:nonzero;fill:rgb(0%,0%,0%);fill-opacity:1;" d="M 3.214844 9.644531 C 3.214844 9.347656 3.109375 9.09375 2.898438 8.886719 C 2.691406 8.675781 2.4375 8.570312 2.144531 8.570312 C 1.847656 8.570312 1.59375 8.675781 1.386719 8.886719 C 1.175781 9.09375 1.070312 9.347656 1.070312 9.644531 C 1.070312 9.9375 1.175781 10.191406 1.386719 10.398438 C 1.59375 10.609375 1.847656 10.714844 2.144531 10.714844 C 2.4375 10.714844 2.691406 10.609375 2.898438 10.398438 C 3.109375 10.191406 3.214844 9.9375 3.214844 9.644531 Z M 4.820312 5.894531 C 4.820312 5.597656 4.71875 5.34375 4.507812 5.136719 C 4.296875 4.925781 4.046875 4.820312 3.75 4.820312 C 3.453125 4.820312 3.203125 4.925781 2.992188 5.136719 C 2.78125 5.34375 2.679688 5.597656 2.679688 5.894531 C 2.679688 6.1875 2.78125 6.441406 2.992188 6.648438 C 3.203125 6.859375 3.453125 6.964844 3.75 6.964844 C 4.046875 6.964844 4.296875 6.859375 4.507812 6.648438 C 4.71875 6.441406 4.820312 6.1875 4.820312 5.894531 Z M 8.402344 9.917969 L 9.25 6.722656 C 9.28125 6.578125 9.261719 6.441406 9.1875 6.316406 C 9.109375 6.191406 9.003906 6.109375 8.863281 6.070312 C 8.726562 6.03125 8.589844 6.046875 8.460938 6.125 C 8.335938 6.199219 8.25 6.308594 8.210938 6.453125 L 7.367188 9.652344 C 7.03125 9.679688 6.734375 9.800781 6.46875 10.015625 C 6.207031 10.230469 6.03125 10.503906 5.941406 10.839844 C 5.832031 11.269531 5.886719 11.675781 6.109375 12.0625 C 6.332031 12.445312 6.660156 12.695312 7.089844 12.808594 C 7.519531 12.917969 7.925781 12.863281 8.3125 12.640625 C 8.695312 12.417969 8.945312 12.089844 9.058594 11.660156 C 9.144531 11.324219 9.128906 11 9.007812 10.679688 C 8.882812 10.363281 8.683594 10.109375 8.402344 9.917969 Z M 13.929688 9.644531 C 13.929688 9.347656 13.824219 9.09375 13.613281 8.886719 C 13.40625 8.675781 13.152344 8.570312 12.855469 8.570312 C 12.5625 8.570312 12.308594 8.675781 12.101562 8.886719 C 11.890625 9.09375 11.785156 9.347656 11.785156 9.644531 C 11.785156 9.9375 11.890625 10.191406 12.101562 10.398438 C 12.308594 10.609375 12.5625 10.714844 12.855469 10.714844 C 13.152344 10.714844 13.40625 10.609375 13.613281 10.398438 C 13.824219 10.191406 13.929688 9.9375 13.929688 9.644531 Z M 8.570312 4.285156 C 8.570312 3.988281 8.46875 3.738281 8.257812 3.527344 C 8.046875 3.320312 7.796875 3.214844 7.5 3.214844 C 7.203125 3.214844 6.953125 3.320312 6.742188 3.527344 C 6.53125 3.738281 6.429688 3.988281 6.429688 4.285156 C 6.429688 4.582031 6.53125 4.835938 6.742188 5.042969 C 6.953125 5.253906 7.203125 5.355469 7.5 5.355469 C 7.796875 5.355469 8.046875 5.253906 8.257812 5.042969 C 8.46875 4.835938 8.570312 4.582031 8.570312 4.285156 Z M 12.320312 5.894531 C 12.320312 5.597656 12.21875 5.34375 12.007812 5.136719 C 11.796875 4.925781 11.546875 4.820312 11.25 4.820312 C 10.953125 4.820312 10.703125 4.925781 10.492188 5.136719 C 10.28125 5.34375 10.179688 5.597656 10.179688 5.894531 C 10.179688 6.1875 10.28125 6.441406 10.492188 6.648438 C 10.703125 6.859375 10.953125 6.964844 11.25 6.964844 C 11.546875 6.964844 11.796875 6.859375 12.007812 6.648438 C 12.21875 6.441406 12.320312 6.1875 12.320312 5.894531 Z M 15 9.644531 C 15 11.097656 14.605469 12.445312 13.820312 13.6875 C 13.714844 13.847656 13.5625 13.929688 13.367188 13.929688 L 1.632812 13.929688 C 1.4375 13.929688 1.285156 13.847656 1.179688 13.6875 C 0.394531 12.453125 0 11.105469 0 9.644531 C 0 8.628906 0.199219 7.65625 0.59375 6.730469 C 0.992188 5.804688 1.523438 5.003906 2.191406 4.335938 C 2.863281 3.667969 3.660156 3.132812 4.585938 2.738281 C 5.511719 2.339844 6.484375 2.144531 7.5 2.144531 C 8.515625 2.144531 9.488281 2.339844 10.414062 2.738281 C 11.339844 3.132812 12.136719 3.667969 12.808594 4.335938 C 13.476562 5.003906 14.007812 5.804688 14.40625 6.730469 C 14.800781 7.65625 15 8.628906 15 9.644531 Z M 15 9.644531 "/>
  </g>
</svg>