<?xml version="1.0" encoding="UTF-8" standalone="yes"?>
<svg xmlns="http://www.w3.org/2000/svg" xmlns:xlink="http://www.w3.org/1999/xlink" width="20px" height="20px" viewBox="0 0 15 15" version="1.1">
  <g id="surface1">
    <path style=" stroke:none;fill-rule:nonzero;fill:rgb(0%,0%,0%);fill-opacity:1;" d="M 14.464844 8.304688 L 14.464844 1.339844 C 14.464844 1.265625 14.4375 1.203125 14.382812 1.152344 C 14.332031 1.097656 14.269531 1.070312 14.195312 1.070312 L 0.804688 1.070312 C 0.730469 1.070312 0.667969 1.097656 0.617188 1.152344 C 0.5625 1.203125 0.535156 1.265625 0.535156 1.339844 L 0.535156 8.304688 C 0.535156 8.375 0.5625 8.4375 0.617188 8.492188 C 0.667969 8.546875 0.730469 8.570312 0.804688 8.570312 L 14.195312 8.570312 C 14.269531 8.570312 14.332031 8.546875 14.382812 8.492188 C 14.4375 8.4375 14.464844 8.375 14.464844 8.304688 Z M 15.535156 1.339844 L 15.535156 10.445312 C 15.535156 10.816406 15.40625 11.128906 15.140625 11.390625 C 14.878906 11.65625 14.566406 11.785156 14.195312 11.785156 L 9.644531 11.785156 C 9.644531 11.992188 9.6875 12.207031 9.777344 12.433594 C 9.867188 12.660156 9.957031 12.859375 10.042969 13.027344 C 10.132812 13.199219 10.179688 13.320312 10.179688 13.394531 C 10.179688 13.539062 10.125 13.664062 10.019531 13.769531 C 9.914062 13.875 9.789062 13.929688 9.644531 13.929688 L 5.355469 13.929688 C 5.210938 13.929688 5.085938 13.875 4.980469 13.769531 C 4.875 13.664062 4.820312 13.539062 4.820312 13.394531 C 4.820312 13.316406 4.867188 13.191406 4.957031 13.023438 C 5.042969 12.855469 5.132812 12.660156 5.222656 12.4375 C 5.3125 12.214844 5.355469 11.996094 5.355469 11.785156 L 0.804688 11.785156 C 0.433594 11.785156 0.121094 11.65625 -0.140625 11.390625 C -0.40625 11.128906 -0.535156 10.816406 -0.535156 10.445312 L -0.535156 1.339844 C -0.535156 0.972656 -0.40625 0.65625 -0.140625 0.394531 C 0.121094 0.132812 0.433594 0 0.804688 0 L 14.195312 0 C 14.566406 0 14.878906 0.132812 15.140625 0.394531 C 15.40625 0.65625 15.535156 0.972656 15.535156 1.339844 Z M 15.535156 1.339844 "/>
  </g>
</svg>