<svg xmlns="http://www.w3.org/2000/svg" xlink="http://www.w3.org/1999/xlink" width="20px" height="20px" viewBox="0 0 15 15" version="1.1">
  <g id="surface1">
    <path d="M 9.644531 7.5 C 9.644531 8.089844 9.433594 8.597656 9.015625 9.015625 C 8.597656 9.433594 8.089844 9.644531 7.5 9.644531 C 6.910156 9.644531 6.402344 9.433594 5.984375 9.015625 C 5.566406 8.597656 5.355469 8.089844 5.355469 7.5 C 5.355469 6.910156 5.566406 6.402344 5.984375 5.984375 C 6.402344 5.566406 6.910156 5.355469 7.5 5.355469 C 8.089844 5.355469 8.597656 5.566406 9.015625 5.984375 C 9.433594 6.402344 9.644531 6.910156 9.644531 7.5 Z M 7.5 2.945312 C 6.675781 2.945312 5.914062 3.148438 5.214844 3.558594 C 4.515625 3.964844 3.964844 4.515625 3.558594 5.214844 C 3.148438 5.914062 2.945312 6.675781 2.945312 7.5 C 2.945312 8.324219 3.148438 9.085938 3.558594 9.785156 C 3.964844 10.484375 4.515625 11.035156 5.214844 11.441406 C 5.914062 11.851562 6.675781 12.054688 7.5 12.054688 C 8.324219 12.054688 9.085938 11.851562 9.785156 11.441406 C 10.484375 11.035156 11.035156 10.484375 11.441406 9.785156 C 11.851562 9.085938 12.054688 8.324219 12.054688 7.5 C 12.054688 6.675781 11.851562 5.914062 11.441406 5.214844 C 11.035156 4.515625 10.484375 3.964844 9.785156 3.558594 C 9.085938 3.148438 8.324219 2.945312 7.5 2.945312 Z M 13.929688 7.5 C 13.929688 8.667969 13.640625 9.742188 13.066406 10.726562 C 12.492188 11.710938 11.710938 12.492188 10.726562 13.066406 C 9.742188 13.640625 8.667969 13.929688 7.5 13.929688 C 6.332031 13.929688 5.257812 13.640625 4.273438 13.066406 C 3.289062 12.492188 2.507812 11.710938 1.933594 10.726562 C 1.359375 9.742188 1.070312 8.667969 1.070312 7.5 C 1.070312 6.332031 1.359375 5.257812 1.933594 4.273438 C 2.507812 3.289062 3.289062 2.507812 4.273438 1.933594 C 5.257812 1.359375 6.332031 1.070312 7.5 1.070312 C 8.667969 1.070312 9.742188 1.359375 10.726562 1.933594 C 11.710938 2.507812 12.492188 3.289062 13.066406 4.273438 C 13.640625 5.257812 13.929688 6.332031 13.929688 7.5 Z M 13.929688 7.5 " fill="#FFFFFF"/>
  </g>
</svg>