<?xml version="1.0" encoding="UTF-8" standalone="yes"?>
<svg xmlns="http://www.w3.org/2000/svg" xmlns:xlink="http://www.w3.org/1999/xlink" width="20px" height="20px" viewBox="0 0 15 15" version="1.1">
  <g id="surface1">
    <path style=" stroke:none;fill-rule:nonzero;fill:rgb(0%,0%,0%);fill-opacity:1;" d="M 11.25 11.25 C 11.25 11.105469 11.195312 10.980469 11.089844 10.875 C 10.984375 10.765625 10.859375 10.714844 10.714844 10.714844 C 10.570312 10.714844 10.445312 10.765625 10.335938 10.875 C 10.230469 10.980469 10.179688 11.105469 10.179688 11.25 C 10.179688 11.394531 10.230469 11.519531 10.335938 11.625 C 10.445312 11.734375 10.570312 11.785156 10.714844 11.785156 C 10.859375 11.785156 10.984375 11.734375 11.089844 11.625 C 11.195312 11.519531 11.25 11.394531 11.25 11.25 Z M 13.394531 11.25 C 13.394531 11.105469 13.339844 10.980469 13.234375 10.875 C 13.128906 10.765625 13.003906 10.714844 12.855469 10.714844 C 12.710938 10.714844 12.585938 10.765625 12.480469 10.875 C 12.375 10.980469 12.320312 11.105469 12.320312 11.25 C 12.320312 11.394531 12.375 11.519531 12.480469 11.625 C 12.585938 11.734375 12.710938 11.785156 12.855469 11.785156 C 13.003906 11.785156 13.128906 11.734375 13.234375 11.625 C 13.339844 11.519531 13.394531 11.394531 13.394531 11.25 Z M 14.464844 9.375 L 14.464844 12.054688 C 14.464844 12.277344 14.386719 12.464844 14.230469 12.621094 C 14.074219 12.777344 13.882812 12.855469 13.660156 12.855469 L 1.339844 12.855469 C 1.117188 12.855469 0.925781 12.777344 0.769531 12.621094 C 0.613281 12.464844 0.535156 12.277344 0.535156 12.054688 L 0.535156 9.375 C 0.535156 9.152344 0.613281 8.960938 0.769531 8.804688 C 0.925781 8.648438 1.117188 8.570312 1.339844 8.570312 L 5.230469 8.570312 L 6.363281 9.710938 C 6.683594 10.023438 7.066406 10.179688 7.5 10.179688 C 7.933594 10.179688 8.316406 10.023438 8.636719 9.710938 L 9.777344 8.570312 L 13.660156 8.570312 C 13.882812 8.570312 14.074219 8.648438 14.230469 8.804688 C 14.386719 8.960938 14.464844 9.152344 14.464844 9.375 Z M 11.742188 4.613281 C 11.839844 4.839844 11.800781 5.035156 11.625 5.199219 L 7.875 8.949219 C 7.777344 9.054688 7.652344 9.105469 7.5 9.105469 C 7.347656 9.105469 7.222656 9.054688 7.125 8.949219 L 3.375 5.199219 C 3.199219 5.035156 3.160156 4.839844 3.257812 4.613281 C 3.351562 4.394531 3.515625 4.285156 3.75 4.285156 L 5.894531 4.285156 L 5.894531 0.535156 C 5.894531 0.390625 5.945312 0.265625 6.050781 0.160156 C 6.15625 0.0546875 6.285156 0 6.429688 0 L 8.570312 0 C 8.714844 0 8.84375 0.0546875 8.949219 0.160156 C 9.054688 0.265625 9.105469 0.390625 9.105469 0.535156 L 9.105469 4.285156 L 11.25 4.285156 C 11.484375 4.285156 11.648438 4.394531 11.742188 4.613281 Z M 11.742188 4.613281 "/>
  </g>
</svg>