<?xml version="1.0" encoding="UTF-8" standalone="yes"?>
<svg xmlns="http://www.w3.org/2000/svg" xmlns:xlink="http://www.w3.org/1999/xlink" width="20px" height="20px" viewBox="0 0 15 15" version="1.1">
  <g id="surface1">
    <path style=" stroke:none;fill-rule:nonzero;fill:rgb(0%,0%,0%);fill-opacity:1;" d="M 9.644531 12.554688 C 9.410156 11.210938 9.019531 9.820312 8.472656 8.386719 L 8.453125 8.386719 L 8.4375 8.394531 C 8.347656 8.429688 8.226562 8.476562 8.078125 8.535156 C 7.925781 8.59375 7.644531 8.730469 7.230469 8.945312 C 6.820312 9.160156 6.4375 9.386719 6.085938 9.628906 C 5.734375 9.875 5.367188 10.191406 4.988281 10.589844 C 4.609375 10.984375 4.320312 11.398438 4.125 11.828125 L 4 11.734375 C 5.027344 12.574219 6.195312 12.992188 7.5 12.992188 C 8.238281 12.992188 8.949219 12.847656 9.644531 12.554688 Z M 8.09375 7.476562 C 7.976562 7.203125 7.828125 6.890625 7.652344 6.546875 C 5.914062 7.066406 4.039062 7.324219 2.015625 7.324219 C 2.011719 7.363281 2.007812 7.421875 2.007812 7.5 C 2.007812 8.191406 2.132812 8.851562 2.378906 9.480469 C 2.621094 10.109375 2.96875 10.667969 3.414062 11.167969 C 3.695312 10.667969 4.039062 10.203125 4.449219 9.773438 C 4.859375 9.339844 5.257812 8.992188 5.640625 8.730469 C 6.027344 8.46875 6.390625 8.242188 6.734375 8.050781 C 7.078125 7.863281 7.355469 7.730469 7.566406 7.652344 L 7.875 7.542969 C 7.898438 7.535156 7.933594 7.527344 7.984375 7.511719 C 8.035156 7.5 8.070312 7.484375 8.09375 7.476562 Z M 7.199219 5.699219 C 6.527344 4.511719 5.847656 3.457031 5.15625 2.535156 C 4.386719 2.898438 3.734375 3.417969 3.199219 4.09375 C 2.660156 4.769531 2.304688 5.527344 2.125 6.371094 C 3.8125 6.371094 5.503906 6.148438 7.199219 5.699219 Z M 12.925781 8.371094 C 11.753906 8.035156 10.609375 7.953125 9.5 8.128906 C 9.984375 9.460938 10.34375 10.769531 10.570312 12.054688 C 11.191406 11.636719 11.707031 11.105469 12.121094 10.46875 C 12.535156 9.828125 12.800781 9.128906 12.925781 8.371094 Z M 6.1875 2.167969 C 6.179688 2.167969 6.175781 2.171875 6.167969 2.175781 C 6.175781 2.171875 6.179688 2.167969 6.1875 2.167969 Z M 11.125 3.382812 C 10.09375 2.464844 8.882812 2.007812 7.5 2.007812 C 7.074219 2.007812 6.644531 2.0625 6.203125 2.167969 C 6.933594 3.117188 7.621094 4.183594 8.261719 5.367188 C 8.648438 5.21875 9.007812 5.050781 9.351562 4.859375 C 9.691406 4.667969 9.960938 4.496094 10.15625 4.34375 C 10.355469 4.195312 10.539062 4.035156 10.707031 3.867188 C 10.875 3.699219 10.976562 3.585938 11.019531 3.527344 Z M 12.992188 7.441406 C 12.972656 6.148438 12.558594 5.003906 11.742188 4.007812 L 11.734375 4.019531 C 11.683594 4.085938 11.632812 4.152344 11.578125 4.222656 C 11.519531 4.292969 11.398438 4.417969 11.210938 4.59375 C 11.023438 4.773438 10.828125 4.941406 10.617188 5.101562 C 10.410156 5.261719 10.128906 5.441406 9.78125 5.644531 C 9.433594 5.847656 9.066406 6.03125 8.679688 6.1875 C 8.820312 6.480469 8.941406 6.746094 9.046875 6.980469 C 9.058594 7.015625 9.078125 7.0625 9.101562 7.128906 C 9.128906 7.191406 9.148438 7.238281 9.164062 7.265625 C 9.367188 7.238281 9.574219 7.21875 9.789062 7.207031 C 10.003906 7.195312 10.210938 7.191406 10.40625 7.191406 C 10.601562 7.191406 10.792969 7.195312 10.980469 7.203125 C 11.171875 7.210938 11.351562 7.222656 11.519531 7.234375 C 11.683594 7.25 11.84375 7.265625 11.992188 7.28125 C 12.136719 7.300781 12.273438 7.316406 12.390625 7.335938 C 12.511719 7.355469 12.613281 7.371094 12.699219 7.386719 C 12.78125 7.402344 12.851562 7.414062 12.90625 7.425781 Z M 13.929688 7.5 C 13.929688 8.667969 13.640625 9.742188 13.066406 10.726562 C 12.492188 11.710938 11.710938 12.492188 10.726562 13.066406 C 9.742188 13.640625 8.667969 13.929688 7.5 13.929688 C 6.332031 13.929688 5.257812 13.640625 4.273438 13.066406 C 3.289062 12.492188 2.507812 11.710938 1.933594 10.726562 C 1.359375 9.742188 1.070312 8.667969 1.070312 7.5 C 1.070312 6.332031 1.359375 5.257812 1.933594 4.273438 C 2.507812 3.289062 3.289062 2.507812 4.273438 1.933594 C 5.257812 1.359375 6.332031 1.070312 7.5 1.070312 C 8.667969 1.070312 9.742188 1.359375 10.726562 1.933594 C 11.710938 2.507812 12.492188 3.289062 13.066406 4.273438 C 13.640625 5.257812 13.929688 6.332031 13.929688 7.5 Z M 13.929688 7.5 "/>
  </g>
</svg>