<svg version="1.1" xmlns="http://www.w3.org/2000/svg" xlink="http://www.w3.org/1999/xlink" x="0px" y="0px" width="15px" height="15px" viewBox="0 0 15 15" style="enable-background:new 0 0 15 15;" space="preserve">
    <path d="M1.675781,2.359375L3.382812,2.359375L3.382812,10.589844L-1.070312,10.589844L-1.070312,4.753906L1.675781,4.753906ZM1.675781,9.214844L1.675781,6.128906L0.644531,6.128906L0.644531,9.214844ZM4.066406,4.753906L4.066406,10.589844L5.785156,10.589844L5.785156,4.753906ZM4.066406,2.359375L4.066406,4.066406L5.785156,4.066406L5.785156,2.359375ZM6.46875,4.753906L10.933594,4.753906L10.933594,12.640625L6.46875,12.640625L6.46875,11.273438L9.214844,11.273438L9.214844,10.589844L6.46875,10.589844ZM9.214844,9.214844L9.214844,6.128906L8.1875,6.128906L8.1875,9.214844ZM11.617188,4.753906L16.070312,4.753906L16.070312,12.640625L11.617188,12.640625L11.617188,11.273438L14.355469,11.273438L14.355469,10.589844L11.617188,10.589844ZM14.355469,9.214844L14.355469,6.128906L13.324219,6.128906L13.324219,9.214844ZM14.355469,9.214844" fill="#FFFFFF"/>
    </svg>