<?xml version="1.0" encoding="UTF-8" standalone="yes"?>
<svg xmlns="http://www.w3.org/2000/svg" xmlns:xlink="http://www.w3.org/1999/xlink" width="20px" height="20px" viewBox="0 0 15 15" version="1.1">
  <g id="surface1">
    <path style=" stroke:none;fill-rule:nonzero;fill:rgb(0%,0%,0%);fill-opacity:1;" d="M 13.394531 11.519531 L 13.394531 7.5 L 7.5 7.5 L 7.5 1.605469 L 3.480469 1.605469 C 2.964844 1.605469 2.519531 1.789062 2.15625 2.15625 C 1.789062 2.519531 1.605469 2.964844 1.605469 3.480469 L 1.605469 7.5 L 7.5 7.5 L 7.5 13.394531 L 11.519531 13.394531 C 12.035156 13.394531 12.480469 13.210938 12.84375 12.84375 C 13.210938 12.480469 13.394531 12.035156 13.394531 11.519531 Z M 13.929688 3.480469 L 13.929688 11.519531 C 13.929688 12.183594 13.691406 12.75 13.222656 13.222656 C 12.75 13.691406 12.183594 13.929688 11.519531 13.929688 L 3.480469 13.929688 C 2.816406 13.929688 2.25 13.691406 1.777344 13.222656 C 1.308594 12.75 1.070312 12.183594 1.070312 11.519531 L 1.070312 3.480469 C 1.070312 2.816406 1.308594 2.25 1.777344 1.777344 C 2.25 1.308594 2.816406 1.070312 3.480469 1.070312 L 11.519531 1.070312 C 12.183594 1.070312 12.75 1.308594 13.222656 1.777344 C 13.691406 2.25 13.929688 2.816406 13.929688 3.480469 Z M 13.929688 3.480469 "/>
  </g>
</svg>