<svg version="1.1" xmlns="http://www.w3.org/2000/svg" xlink="http://www.w3.org/1999/xlink" x="0px" y="0px" width="15px" height="15px" viewBox="0 0 15 15" style="enable-background:new 0 0 15 15;" space="preserve">
    <path d="M7.5,0.535156C6.558594,0.535156,5.65625,0.71875,4.796875,1.089844C3.9375,1.457031,3.195312,1.953125,2.574219,2.574219C1.953125,3.195312,1.457031,3.9375,1.089844,4.796875C0.71875,5.65625,0.535156,6.558594,0.535156,7.5C0.535156,8.441406,0.71875,9.34375,1.089844,10.203125C1.457031,11.0625,1.953125,11.804688,2.574219,12.425781C3.195312,13.046875,3.9375,13.542969,4.796875,13.910156C5.65625,14.28125,6.558594,14.464844,7.5,14.464844C8.441406,14.464844,9.34375,14.28125,10.203125,13.910156C11.0625,13.542969,11.804688,13.046875,12.425781,12.425781C13.046875,11.804688,13.542969,11.0625,13.910156,10.203125C14.28125,9.34375,14.464844,8.441406,14.464844,7.5C14.464844,6.558594,14.28125,5.65625,13.910156,4.796875C13.542969,3.9375,13.046875,3.195312,12.425781,2.574219C11.804688,1.953125,11.0625,1.457031,10.203125,1.089844C9.34375,0.71875,8.441406,0.535156,7.5,0.535156ZM7.5,0C8.515625,0,9.488281,0.199219,10.414062,0.59375C11.339844,0.992188,12.136719,1.523438,12.808594,2.191406C13.476562,2.863281,14.007812,3.660156,14.40625,4.585938C14.800781,5.511719,15,6.484375,15,7.5C15,8.515625,14.800781,9.488281,14.40625,10.414062C14.007812,11.339844,13.476562,12.136719,12.808594,12.808594C12.136719,13.476562,11.339844,14.007812,10.414062,14.40625C9.488281,14.800781,8.515625,15,7.5,15C6.484375,15,5.511719,14.800781,4.585938,14.40625C3.660156,14.007812,2.863281,13.476562,2.191406,12.808594C1.523438,12.136719,0.992188,11.339844,0.59375,10.414062C0.199219,9.488281,0,8.515625,0,7.5C0,6.484375,0.199219,5.511719,0.59375,4.585938C0.992188,3.660156,1.523438,2.863281,2.191406,2.191406C2.863281,1.523438,3.660156,0.992188,4.585938,0.59375C5.511719,0.199219,6.484375,0,7.5,0ZM4.152344,6.964844C4.242188,6.964844,4.285156,7.007812,4.285156,7.097656L4.285156,11.117188C4.285156,11.207031,4.242188,11.25,4.152344,11.25L3.882812,11.25C3.792969,11.25,3.75,11.207031,3.75,11.117188L3.75,7.097656C3.75,7.007812,3.792969,6.964844,3.882812,6.964844ZM7.5,7.5C7.796875,7.5,8.046875,7.605469,8.257812,7.8125C8.46875,8.023438,8.570312,8.277344,8.570312,8.570312C8.570312,8.765625,8.523438,8.945312,8.425781,9.105469C8.328125,9.269531,8.199219,9.398438,8.035156,9.492188L8.035156,10.445312C8.035156,10.523438,8.011719,10.589844,7.960938,10.640625C7.910156,10.6875,7.847656,10.714844,7.769531,10.714844L7.230469,10.714844C7.152344,10.714844,7.089844,10.6875,7.039062,10.640625C6.988281,10.589844,6.964844,10.523438,6.964844,10.445312L6.964844,9.492188C6.800781,9.398438,6.671875,9.269531,6.574219,9.105469C6.476562,8.945312,6.429688,8.765625,6.429688,8.570312C6.429688,8.277344,6.53125,8.023438,6.742188,7.8125C6.953125,7.605469,7.203125,7.5,7.5,7.5ZM7.5,1.070312C8.667969,1.070312,9.742188,1.359375,10.726562,1.933594C11.710938,2.507812,12.492188,3.289062,13.066406,4.273438C13.640625,5.257812,13.929688,6.332031,13.929688,7.5C13.929688,8.667969,13.640625,9.742188,13.066406,10.726562C12.492188,11.710938,11.710938,12.492188,10.726562,13.066406C9.742188,13.640625,8.667969,13.929688,7.5,13.929688C6.332031,13.929688,5.257812,13.640625,4.273438,13.066406C3.289062,12.492188,2.507812,11.710938,1.933594,10.726562C1.359375,9.742188,1.070312,8.667969,1.070312,7.5C1.070312,6.332031,1.359375,5.257812,1.933594,4.273438C2.507812,3.289062,3.289062,2.507812,4.273438,1.933594C5.257812,1.359375,6.332031,1.070312,7.5,1.070312ZM4.554688,5.089844L4.554688,5.894531C4.554688,5.972656,4.578125,6.035156,4.628906,6.085938C4.679688,6.136719,4.742188,6.160156,4.820312,6.160156L5.355469,6.160156C5.433594,6.160156,5.5,6.136719,5.550781,6.085938C5.601562,6.035156,5.625,5.972656,5.625,5.894531L5.625,5.089844C5.625,4.570312,5.808594,4.128906,6.171875,3.761719C6.539062,3.398438,6.980469,3.214844,7.5,3.214844C8.019531,3.214844,8.460938,3.398438,8.828125,3.761719C9.191406,4.128906,9.375,4.570312,9.375,5.089844L9.375,5.894531C9.375,5.972656,9.398438,6.035156,9.449219,6.085938C9.5,6.136719,9.566406,6.160156,9.644531,6.160156L10.179688,6.160156C10.257812,6.160156,10.320312,6.136719,10.371094,6.085938C10.421875,6.035156,10.445312,5.972656,10.445312,5.894531L10.445312,5.089844C10.445312,4.273438,10.160156,3.578125,9.585938,3.003906C9.007812,2.429688,8.316406,2.144531,7.5,2.144531C6.683594,2.144531,5.992188,2.429688,5.414062,3.003906C4.839844,3.578125,4.554688,4.273438,4.554688,5.089844ZM11.785156,11.25L11.785156,6.964844C11.785156,6.820312,11.734375,6.695312,11.625,6.585938C11.519531,6.480469,11.394531,6.429688,11.25,6.429688L3.75,6.429688C3.605469,6.429688,3.480469,6.480469,3.375,6.585938C3.265625,6.695312,3.214844,6.820312,3.214844,6.964844L3.214844,11.25C3.214844,11.394531,3.265625,11.519531,3.375,11.625C3.480469,11.734375,3.605469,11.785156,3.75,11.785156L11.25,11.785156C11.394531,11.785156,11.519531,11.734375,11.625,11.625C11.734375,11.519531,11.785156,11.394531,11.785156,11.25ZM11.785156,11.25" fill="#FFFFFF"/>
    </svg>