<?xml version="1.0" encoding="UTF-8" standalone="yes"?>
<svg xmlns="http://www.w3.org/2000/svg" xmlns:xlink="http://www.w3.org/1999/xlink" width="20px" height="20px" viewBox="0 0 15 15" version="1.1">
  <g id="surface1">
    <path style=" stroke:none;fill-rule:nonzero;fill:rgb(0%,0%,0%);fill-opacity:1;" d="M 13.929688 12.589844 L 13.929688 6.160156 C 13.75 6.363281 13.558594 6.546875 13.351562 6.714844 C 11.855469 7.863281 10.667969 8.804688 9.785156 9.542969 C 9.5 9.78125 9.269531 9.96875 9.089844 10.101562 C 8.910156 10.238281 8.671875 10.371094 8.367188 10.507812 C 8.0625 10.644531 7.777344 10.714844 7.507812 10.714844 L 7.492188 10.714844 C 7.222656 10.714844 6.9375 10.644531 6.632812 10.507812 C 6.328125 10.371094 6.089844 10.238281 5.910156 10.101562 C 5.730469 9.96875 5.5 9.78125 5.214844 9.542969 C 4.332031 8.804688 3.144531 7.863281 1.648438 6.714844 C 1.441406 6.546875 1.25 6.363281 1.070312 6.160156 L 1.070312 12.589844 C 1.070312 12.660156 1.097656 12.722656 1.152344 12.777344 C 1.203125 12.832031 1.265625 12.855469 1.339844 12.855469 L 13.660156 12.855469 C 13.734375 12.855469 13.796875 12.832031 13.847656 12.777344 C 13.902344 12.722656 13.929688 12.660156 13.929688 12.589844 Z M 13.929688 3.792969 L 13.929688 3.585938 L 13.925781 3.476562 L 13.898438 3.375 L 13.851562 3.296875 L 13.777344 3.234375 L 13.660156 3.214844 L 1.339844 3.214844 C 1.265625 3.214844 1.203125 3.242188 1.152344 3.292969 C 1.097656 3.347656 1.070312 3.410156 1.070312 3.480469 C 1.070312 4.417969 1.480469 5.210938 2.300781 5.859375 C 3.378906 6.707031 4.496094 7.59375 5.660156 8.511719 C 5.691406 8.539062 5.789062 8.621094 5.953125 8.757812 C 6.113281 8.894531 6.242188 9 6.335938 9.074219 C 6.429688 9.144531 6.554688 9.234375 6.710938 9.335938 C 6.863281 9.441406 7.003906 9.515625 7.132812 9.566406 C 7.261719 9.617188 7.378906 9.644531 7.492188 9.644531 L 7.507812 9.644531 C 7.621094 9.644531 7.738281 9.617188 7.867188 9.566406 C 7.996094 9.515625 8.136719 9.441406 8.289062 9.335938 C 8.445312 9.234375 8.570312 9.144531 8.664062 9.074219 C 8.757812 9 8.886719 8.894531 9.046875 8.757812 C 9.210938 8.621094 9.308594 8.539062 9.339844 8.511719 C 10.503906 7.59375 11.621094 6.707031 12.699219 5.859375 C 13 5.621094 13.28125 5.296875 13.539062 4.890625 C 13.796875 4.488281 13.929688 4.121094 13.929688 3.792969 Z M 15 3.480469 L 15 12.589844 C 15 12.957031 14.867188 13.273438 14.605469 13.535156 C 14.34375 13.796875 14.027344 13.929688 13.660156 13.929688 L 1.339844 13.929688 C 0.972656 13.929688 0.65625 13.796875 0.394531 13.535156 C 0.132812 13.273438 0 12.957031 0 12.589844 L 0 3.480469 C 0 3.113281 0.132812 2.796875 0.394531 2.535156 C 0.65625 2.273438 0.972656 2.144531 1.339844 2.144531 L 13.660156 2.144531 C 14.027344 2.144531 14.34375 2.273438 14.605469 2.535156 C 14.867188 2.796875 15 3.113281 15 3.480469 Z M 15 3.480469 "/>
  </g>
</svg>