<svg xmlns="http://www.w3.org/2000/svg" xlink="http://www.w3.org/1999/xlink" width="20px" height="20px" viewBox="0 0 15 15" version="1.1">
  <g id="surface1">
    <path d="M 15 9.910156 L 15 11.519531 C 15 11.589844 14.972656 11.652344 14.921875 11.707031 C 14.867188 11.757812 14.804688 11.785156 14.730469 11.785156 L 3.214844 11.785156 L 3.214844 13.394531 C 3.214844 13.464844 3.1875 13.527344 3.132812 13.582031 C 3.082031 13.632812 3.019531 13.660156 2.945312 13.660156 C 2.878906 13.660156 2.8125 13.632812 2.746094 13.578125 L 0.0742188 10.898438 C 0.0234375 10.847656 0 10.785156 0 10.714844 C 0 10.636719 0.0234375 10.570312 0.0742188 10.523438 L 2.753906 7.84375 C 2.804688 7.792969 2.867188 7.769531 2.945312 7.769531 C 3.019531 7.769531 3.082031 7.792969 3.132812 7.847656 C 3.1875 7.898438 3.214844 7.964844 3.214844 8.035156 L 3.214844 9.644531 L 14.730469 9.644531 C 14.804688 9.644531 14.867188 9.667969 14.921875 9.722656 C 14.972656 9.773438 15 9.839844 15 9.910156 Z M 15 5.355469 C 15 5.433594 14.976562 5.5 14.925781 5.550781 L 12.246094 8.226562 C 12.195312 8.277344 12.132812 8.304688 12.054688 8.304688 C 11.980469 8.304688 11.917969 8.277344 11.867188 8.222656 C 11.8125 8.171875 11.785156 8.109375 11.785156 8.035156 L 11.785156 6.429688 L 0.269531 6.429688 C 0.195312 6.429688 0.132812 6.402344 0.078125 6.347656 C 0.0273438 6.296875 0 6.234375 0 6.160156 L 0 4.554688 C 0 4.480469 0.0273438 4.417969 0.078125 4.367188 C 0.132812 4.3125 0.195312 4.285156 0.269531 4.285156 L 11.785156 4.285156 L 11.785156 2.679688 C 11.785156 2.601562 11.8125 2.535156 11.859375 2.484375 C 11.910156 2.4375 11.976562 2.410156 12.054688 2.410156 C 12.121094 2.410156 12.1875 2.4375 12.253906 2.496094 L 14.925781 5.164062 C 14.976562 5.214844 15 5.277344 15 5.355469 Z M 15 5.355469 " fill="#FFFFFF"/>
  </g>
</svg>