<?xml version="1.0" encoding="UTF-8" standalone="yes"?>
<svg xmlns="http://www.w3.org/2000/svg" xmlns:xlink="http://www.w3.org/1999/xlink" width="20px" height="20px" viewBox="0 0 15 15" version="1.1">
  <g id="surface1">
    <path style=" stroke:none;fill-rule:nonzero;fill:rgb(0%,0%,0%);fill-opacity:1;" d="M 11.785156 7.769531 L 11.785156 3.75 C 11.785156 3.605469 11.734375 3.480469 11.625 3.375 C 11.519531 3.265625 11.394531 3.214844 11.25 3.214844 L 7.230469 3.214844 C 6.996094 3.214844 6.832031 3.324219 6.738281 3.539062 C 6.644531 3.769531 6.683594 3.964844 6.855469 4.125 L 8.0625 5.332031 L 3.589844 9.800781 C 3.484375 9.90625 3.433594 10.035156 3.433594 10.179688 C 3.433594 10.324219 3.484375 10.449219 3.589844 10.554688 L 4.445312 11.410156 C 4.550781 11.515625 4.675781 11.566406 4.820312 11.566406 C 4.964844 11.566406 5.09375 11.515625 5.199219 11.410156 L 9.667969 6.9375 L 10.875 8.144531 C 10.972656 8.25 11.097656 8.304688 11.25 8.304688 C 11.316406 8.304688 11.386719 8.289062 11.460938 8.261719 C 11.675781 8.167969 11.785156 8.003906 11.785156 7.769531 Z M 13.929688 3.480469 L 13.929688 11.519531 C 13.929688 12.183594 13.691406 12.75 13.222656 13.222656 C 12.75 13.691406 12.183594 13.929688 11.519531 13.929688 L 3.480469 13.929688 C 2.816406 13.929688 2.25 13.691406 1.777344 13.222656 C 1.308594 12.75 1.070312 12.183594 1.070312 11.519531 L 1.070312 3.480469 C 1.070312 2.816406 1.308594 2.25 1.777344 1.777344 C 2.25 1.308594 2.816406 1.070312 3.480469 1.070312 L 11.519531 1.070312 C 12.183594 1.070312 12.75 1.308594 13.222656 1.777344 C 13.691406 2.25 13.929688 2.816406 13.929688 3.480469 Z M 13.929688 3.480469 "/>
  </g>
</svg>