<?xml version="1.0" encoding="UTF-8" standalone="yes"?>
<svg xmlns="http://www.w3.org/2000/svg" xmlns:xlink="http://www.w3.org/1999/xlink" width="20px" height="20px" viewBox="0 0 15 15" version="1.1">
  <g id="surface1">
    <path style=" stroke:none;fill-rule:nonzero;fill:rgb(0%,0%,0%);fill-opacity:1;" d="M 6.964844 11.785156 L 9.777344 8.570312 L 3.347656 8.570312 L 0.535156 11.785156 Z M 15.445312 2.769531 C 15.527344 2.960938 15.554688 3.160156 15.523438 3.367188 C 15.492188 3.578125 15.40625 3.761719 15.269531 3.917969 L 7.769531 12.488281 C 7.554688 12.734375 7.289062 12.855469 6.964844 12.855469 L 0.535156 12.855469 C 0.324219 12.855469 0.128906 12.800781 -0.046875 12.6875 C -0.222656 12.570312 -0.355469 12.417969 -0.445312 12.230469 C -0.527344 12.039062 -0.554688 11.839844 -0.523438 11.632812 C -0.492188 11.421875 -0.40625 11.238281 -0.269531 11.082031 L 7.230469 2.511719 C 7.445312 2.265625 7.710938 2.144531 8.035156 2.144531 L 14.464844 2.144531 C 14.675781 2.144531 14.871094 2.199219 15.046875 2.3125 C 15.222656 2.429688 15.355469 2.582031 15.445312 2.769531 Z M 15.445312 2.769531 "/>
  </g>
</svg>