<svg version="1.1" xmlns="http://www.w3.org/2000/svg" xlink="http://www.w3.org/1999/xlink" x="0px" y="0px" width="15px" height="15px" viewBox="0 0 15 15" style="enable-background:new 0 0 15 15;" space="preserve">
    <path d="M1.179688,8.195312L7.125,2.25C7.230469,2.144531,7.355469,2.09375,7.5,2.09375C7.644531,2.09375,7.769531,2.144531,7.875,2.25L13.820312,8.195312C13.925781,8.300781,13.960938,8.390625,13.929688,8.460938C13.894531,8.535156,13.804688,8.570312,13.660156,8.570312L1.339844,8.570312C1.195312,8.570312,1.105469,8.535156,1.070312,8.460938C1.039062,8.390625,1.074219,8.300781,1.179688,8.195312ZM13.394531,12.855469L1.605469,12.855469C1.460938,12.855469,1.335938,12.804688,1.230469,12.699219C1.125,12.59375,1.070312,12.464844,1.070312,12.320312L1.070312,10.179688C1.070312,10.035156,1.125,9.90625,1.230469,9.800781C1.335938,9.695312,1.460938,9.644531,1.605469,9.644531L13.394531,9.644531C13.539062,9.644531,13.664062,9.695312,13.769531,9.800781C13.875,9.90625,13.929688,10.035156,13.929688,10.179688L13.929688,12.320312C13.929688,12.464844,13.875,12.59375,13.769531,12.699219C13.664062,12.804688,13.539062,12.855469,13.394531,12.855469ZM13.394531,12.855469" fill="#FFFFFF"/>
    </svg>