<svg xmlns="http://www.w3.org/2000/svg" xlink="http://www.w3.org/1999/xlink" width="20px" height="20px" viewBox="0 0 15 15" version="1.1">
  <g id="surface1">
    <path d="M 7.5 0.535156 C 6.558594 0.535156 5.65625 0.71875 4.796875 1.089844 C 3.9375 1.457031 3.195312 1.953125 2.574219 2.574219 C 1.953125 3.195312 1.457031 3.9375 1.089844 4.796875 C 0.71875 5.65625 0.535156 6.558594 0.535156 7.5 C 0.535156 8.441406 0.71875 9.34375 1.089844 10.203125 C 1.457031 11.0625 1.953125 11.804688 2.574219 12.425781 C 3.195312 13.046875 3.9375 13.542969 4.796875 13.910156 C 5.65625 14.28125 6.558594 14.464844 7.5 14.464844 C 8.441406 14.464844 9.34375 14.28125 10.203125 13.910156 C 11.0625 13.542969 11.804688 13.046875 12.425781 12.425781 C 13.046875 11.804688 13.542969 11.0625 13.910156 10.203125 C 14.28125 9.34375 14.464844 8.441406 14.464844 7.5 C 14.464844 6.558594 14.28125 5.65625 13.910156 4.796875 C 13.542969 3.9375 13.046875 3.195312 12.425781 2.574219 C 11.804688 1.953125 11.0625 1.457031 10.203125 1.089844 C 9.34375 0.71875 8.441406 0.535156 7.5 0.535156 Z M 7.5 0 C 8.515625 0 9.488281 0.199219 10.414062 0.59375 C 11.339844 0.992188 12.136719 1.523438 12.808594 2.191406 C 13.476562 2.863281 14.007812 3.660156 14.40625 4.585938 C 14.800781 5.511719 15 6.484375 15 7.5 C 15 8.515625 14.800781 9.488281 14.40625 10.414062 C 14.007812 11.339844 13.476562 12.136719 12.808594 12.808594 C 12.136719 13.476562 11.339844 14.007812 10.414062 14.40625 C 9.488281 14.800781 8.515625 15 7.5 15 C 6.484375 15 5.511719 14.800781 4.585938 14.40625 C 3.660156 14.007812 2.863281 13.476562 2.191406 12.808594 C 1.523438 12.136719 0.992188 11.339844 0.59375 10.414062 C 0.199219 9.488281 0 8.515625 0 7.5 C 0 6.484375 0.199219 5.511719 0.59375 4.585938 C 0.992188 3.660156 1.523438 2.863281 2.191406 2.191406 C 2.863281 1.523438 3.660156 0.992188 4.585938 0.59375 C 5.511719 0.199219 6.484375 0 7.5 0 Z M 4.152344 6.964844 C 4.242188 6.964844 4.285156 7.007812 4.285156 7.097656 L 4.285156 11.117188 C 4.285156 11.207031 4.242188 11.25 4.152344 11.25 L 3.882812 11.25 C 3.792969 11.25 3.75 11.207031 3.75 11.117188 L 3.75 7.097656 C 3.75 7.007812 3.792969 6.964844 3.882812 6.964844 Z M 7.5 7.5 C 7.796875 7.5 8.046875 7.605469 8.257812 7.8125 C 8.46875 8.023438 8.570312 8.277344 8.570312 8.570312 C 8.570312 8.765625 8.523438 8.945312 8.425781 9.105469 C 8.328125 9.269531 8.199219 9.398438 8.035156 9.492188 L 8.035156 10.445312 C 8.035156 10.523438 8.011719 10.589844 7.960938 10.640625 C 7.910156 10.6875 7.847656 10.714844 7.769531 10.714844 L 7.230469 10.714844 C 7.152344 10.714844 7.089844 10.6875 7.039062 10.640625 C 6.988281 10.589844 6.964844 10.523438 6.964844 10.445312 L 6.964844 9.492188 C 6.800781 9.398438 6.671875 9.269531 6.574219 9.105469 C 6.476562 8.945312 6.429688 8.765625 6.429688 8.570312 C 6.429688 8.277344 6.53125 8.023438 6.742188 7.8125 C 6.953125 7.605469 7.203125 7.5 7.5 7.5 Z M 7.5 1.070312 C 8.667969 1.070312 9.742188 1.359375 10.726562 1.933594 C 11.710938 2.507812 12.492188 3.289062 13.066406 4.273438 C 13.640625 5.257812 13.929688 6.332031 13.929688 7.5 C 13.929688 8.667969 13.640625 9.742188 13.066406 10.726562 C 12.492188 11.710938 11.710938 12.492188 10.726562 13.066406 C 9.742188 13.640625 8.667969 13.929688 7.5 13.929688 C 6.332031 13.929688 5.257812 13.640625 4.273438 13.066406 C 3.289062 12.492188 2.507812 11.710938 1.933594 10.726562 C 1.359375 9.742188 1.070312 8.667969 1.070312 7.5 C 1.070312 6.332031 1.359375 5.257812 1.933594 4.273438 C 2.507812 3.289062 3.289062 2.507812 4.273438 1.933594 C 5.257812 1.359375 6.332031 1.070312 7.5 1.070312 Z M 4.554688 5.089844 L 4.554688 5.894531 C 4.554688 5.972656 4.578125 6.035156 4.628906 6.085938 C 4.679688 6.136719 4.742188 6.160156 4.820312 6.160156 L 5.355469 6.160156 C 5.433594 6.160156 5.5 6.136719 5.550781 6.085938 C 5.601562 6.035156 5.625 5.972656 5.625 5.894531 L 5.625 5.089844 C 5.625 4.570312 5.808594 4.128906 6.171875 3.761719 C 6.539062 3.398438 6.980469 3.214844 7.5 3.214844 C 8.019531 3.214844 8.460938 3.398438 8.828125 3.761719 C 9.191406 4.128906 9.375 4.570312 9.375 5.089844 L 9.375 5.894531 C 9.375 5.972656 9.398438 6.035156 9.449219 6.085938 C 9.5 6.136719 9.566406 6.160156 9.644531 6.160156 L 10.179688 6.160156 C 10.257812 6.160156 10.320312 6.136719 10.371094 6.085938 C 10.421875 6.035156 10.445312 5.972656 10.445312 5.894531 L 10.445312 5.089844 C 10.445312 4.273438 10.160156 3.578125 9.585938 3.003906 C 9.007812 2.429688 8.316406 2.144531 7.5 2.144531 C 6.683594 2.144531 5.992188 2.429688 5.414062 3.003906 C 4.839844 3.578125 4.554688 4.273438 4.554688 5.089844 Z M 11.785156 11.25 L 11.785156 6.964844 C 11.785156 6.820312 11.734375 6.695312 11.625 6.585938 C 11.519531 6.480469 11.394531 6.429688 11.25 6.429688 L 3.75 6.429688 C 3.605469 6.429688 3.480469 6.480469 3.375 6.585938 C 3.265625 6.695312 3.214844 6.820312 3.214844 6.964844 L 3.214844 11.25 C 3.214844 11.394531 3.265625 11.519531 3.375 11.625 C 3.480469 11.734375 3.605469 11.785156 3.75 11.785156 L 11.25 11.785156 C 11.394531 11.785156 11.519531 11.734375 11.625 11.625 C 11.734375 11.519531 11.785156 11.394531 11.785156 11.25 Z M 11.785156 11.25 " fill="#FFFFFF"/>
  </g>
</svg>