<?xml version="1.0" encoding="UTF-8" standalone="yes"?>
<svg xmlns="http://www.w3.org/2000/svg" xmlns:xlink="http://www.w3.org/1999/xlink" width="20px" height="20px" viewBox="0 0 15 15" version="1.1">
  <g id="surface1">
    <path style=" stroke:none;fill-rule:nonzero;fill:rgb(0%,0%,0%);fill-opacity:1;" d="M 4.644531 11.175781 L 5.296875 9.996094 C 4.8125 9.644531 4.433594 9.199219 4.160156 8.664062 C 3.886719 8.128906 3.75 7.5625 3.75 6.964844 C 3.75 6.289062 3.921875 5.660156 4.261719 5.082031 C 2.984375 5.734375 1.917969 6.71875 1.070312 8.035156 C 2.003906 9.476562 3.195312 10.523438 4.644531 11.175781 Z M 7.902344 4.820312 C 7.902344 4.710938 7.863281 4.613281 7.785156 4.535156 C 7.707031 4.457031 7.613281 4.417969 7.5 4.417969 C 6.800781 4.417969 6.203125 4.667969 5.703125 5.167969 C 5.203125 5.667969 4.957031 6.265625 4.957031 6.964844 C 4.957031 7.074219 4.996094 7.171875 5.074219 7.25 C 5.152344 7.328125 5.246094 7.367188 5.355469 7.367188 C 5.46875 7.367188 5.5625 7.328125 5.640625 7.25 C 5.71875 7.171875 5.757812 7.074219 5.757812 6.964844 C 5.757812 6.484375 5.929688 6.074219 6.269531 5.734375 C 6.609375 5.394531 7.019531 5.222656 7.5 5.222656 C 7.613281 5.222656 7.707031 5.183594 7.785156 5.105469 C 7.863281 5.027344 7.902344 4.933594 7.902344 4.820312 Z M 10.941406 3.222656 C 10.941406 3.261719 10.9375 3.285156 10.933594 3.296875 C 10.347656 4.347656 9.46875 5.925781 8.296875 8.035156 C 7.125 10.144531 6.242188 11.726562 5.648438 12.78125 L 5.238281 13.527344 C 5.183594 13.617188 5.105469 13.660156 5.003906 13.660156 C 4.9375 13.660156 4.566406 13.464844 3.882812 13.074219 C 3.792969 13.019531 3.75 12.941406 3.75 12.839844 C 3.75 12.773438 3.871094 12.53125 4.117188 12.113281 C 3.320312 11.75 2.585938 11.265625 1.914062 10.664062 C 1.238281 10.0625 0.660156 9.378906 0.167969 8.613281 C 0.0546875 8.441406 0 8.246094 0 8.035156 C 0 7.824219 0.0546875 7.632812 0.167969 7.457031 C 1.019531 6.148438 2.082031 5.113281 3.347656 4.351562 C 4.613281 3.59375 6 3.214844 7.5 3.214844 C 7.996094 3.214844 8.5 3.261719 9.007812 3.355469 L 9.457031 2.542969 C 9.515625 2.457031 9.59375 2.410156 9.691406 2.410156 C 9.722656 2.410156 9.769531 2.425781 9.84375 2.460938 C 9.917969 2.496094 10.003906 2.539062 10.101562 2.589844 C 10.203125 2.644531 10.296875 2.695312 10.378906 2.746094 C 10.464844 2.796875 10.550781 2.847656 10.644531 2.898438 C 10.734375 2.953125 10.789062 2.984375 10.804688 2.996094 C 10.894531 3.050781 10.941406 3.128906 10.941406 3.222656 Z M 11.25 6.964844 C 11.25 7.738281 11.03125 8.445312 10.589844 9.085938 C 10.148438 9.726562 9.566406 10.183594 8.839844 10.464844 L 11.183594 6.261719 C 11.226562 6.511719 11.25 6.746094 11.25 6.964844 Z M 15 8.035156 C 15 8.230469 14.945312 8.421875 14.832031 8.613281 C 14.613281 8.96875 14.3125 9.375 13.921875 9.828125 C 13.082031 10.785156 12.113281 11.53125 11.011719 12.0625 C 9.910156 12.59375 8.738281 12.855469 7.5 12.855469 L 8.121094 11.753906 C 9.300781 11.652344 10.398438 11.269531 11.40625 10.605469 C 12.410156 9.941406 13.253906 9.085938 13.929688 8.035156 C 13.285156 7.035156 12.5 6.214844 11.566406 5.574219 L 12.09375 4.636719 C 12.625 4.996094 13.132812 5.421875 13.625 5.917969 C 14.109375 6.414062 14.515625 6.929688 14.832031 7.457031 C 14.945312 7.648438 15 7.839844 15 8.035156 Z M 15 8.035156 "/>
  </g>
</svg>