<svg version="1.1" xmlns="http://www.w3.org/2000/svg" xlink="http://www.w3.org/1999/xlink" x="0px" y="0px" width="15px" height="15px" viewBox="0 0 15 15" style="enable-background:new 0 0 15 15;" space="preserve">
    <path d="M0.578125,6.65625L0.585938,6.65625C0.675781,5.953125,0.839844,5.277344,1.074219,4.632812C1.3125,3.988281,1.632812,3.382812,2.039062,2.816406C2.441406,2.25,2.910156,1.757812,3.441406,1.34375C3.96875,0.925781,4.59375,0.601562,5.3125,0.359375C6.027344,0.121094,6.800781,0,7.625,0C8.914062,0,10.070312,0.292969,11.089844,0.882812C12.113281,1.472656,12.933594,2.320312,13.550781,3.421875C14.132812,4.46875,14.421875,5.699219,14.421875,7.125L14.421875,8.695312L5.003906,8.695312C5.011719,9.316406,5.160156,9.851562,5.453125,10.308594C5.746094,10.761719,6.128906,11.105469,6.597656,11.332031C7.066406,11.5625,7.59375,11.722656,8.183594,11.8125C8.769531,11.898438,9.363281,11.910156,9.964844,11.835938C10.566406,11.761719,11.144531,11.632812,11.707031,11.445312C12.265625,11.257812,12.75,11.023438,13.160156,10.738281L13.160156,13.894531C12.644531,14.203125,12.003906,14.457031,11.238281,14.664062C10.46875,14.871094,9.597656,14.976562,8.621094,14.984375C7.644531,14.988281,6.761719,14.839844,5.976562,14.539062C4.921875,14.132812,4.054688,13.4375,3.367188,12.457031C2.683594,11.472656,2.339844,10.433594,2.328125,9.339844C2.308594,7.992188,2.621094,6.839844,3.257812,5.894531C3.890625,4.945312,4.800781,4.195312,5.976562,3.648438C5.707031,3.984375,5.492188,4.335938,5.324219,4.699219C5.15625,5.066406,5.027344,5.511719,4.9375,6.035156L10.253906,6.035156C10.296875,5.605469,10.277344,5.214844,10.1875,4.863281C10.097656,4.511719,9.964844,4.226562,9.792969,4.015625C9.621094,3.796875,9.421875,3.613281,9.203125,3.457031C8.984375,3.300781,8.757812,3.1875,8.53125,3.113281C8.300781,3.042969,8.089844,2.984375,7.902344,2.941406C7.710938,2.898438,7.554688,2.875,7.433594,2.871094L7.25,2.863281C6.496094,2.890625,5.773438,3.015625,5.078125,3.234375C4.382812,3.457031,3.757812,3.746094,3.207031,4.109375C2.652344,4.472656,2.164062,4.863281,1.734375,5.285156C1.304688,5.707031,0.917969,6.164062,0.578125,6.65625ZM0.578125,6.65625" fill="#FFFFFF"/>
    </svg>