<?xml version="1.0" encoding="UTF-8" standalone="yes"?>
<svg xmlns="http://www.w3.org/2000/svg" xmlns:xlink="http://www.w3.org/1999/xlink" width="20px" height="20px" viewBox="0 0 15 15" version="1.1">
  <g id="surface1">
    <path style=" stroke:none;fill-rule:nonzero;fill:rgb(0%,0%,0%);fill-opacity:1;" d="M 9.105469 10.445312 L 9.105469 12.320312 C 9.105469 12.464844 9.054688 12.59375 8.949219 12.699219 C 8.84375 12.804688 8.714844 12.855469 8.570312 12.855469 L 6.429688 12.855469 C 6.285156 12.855469 6.15625 12.804688 6.050781 12.699219 C 5.945312 12.59375 5.894531 12.464844 5.894531 12.320312 L 5.894531 10.445312 C 5.894531 10.300781 5.945312 10.175781 6.050781 10.070312 C 6.15625 9.964844 6.285156 9.910156 6.429688 9.910156 L 8.570312 9.910156 C 8.714844 9.910156 8.84375 9.964844 8.949219 10.070312 C 9.054688 10.175781 9.105469 10.300781 9.105469 10.445312 Z M 9.359375 1.605469 L 9.125 8.035156 C 9.117188 8.179688 9.0625 8.304688 8.953125 8.414062 C 8.84375 8.519531 8.714844 8.570312 8.570312 8.570312 L 6.429688 8.570312 C 6.285156 8.570312 6.15625 8.519531 6.046875 8.414062 C 5.9375 8.304688 5.882812 8.179688 5.875 8.035156 L 5.640625 1.605469 C 5.636719 1.460938 5.683594 1.335938 5.789062 1.230469 C 5.890625 1.125 6.015625 1.070312 6.160156 1.070312 L 8.839844 1.070312 C 8.984375 1.070312 9.109375 1.125 9.210938 1.230469 C 9.316406 1.335938 9.363281 1.460938 9.359375 1.605469 Z M 9.359375 1.605469 "/>
  </g>
</svg>