<svg xmlns="http://www.w3.org/2000/svg" xlink="http://www.w3.org/1999/xlink" width="20px" height="20px" viewBox="0 0 15 15" version="1.1">
  <g id="surface1">
    <path d="M 1.179688 8.195312 L 7.125 2.25 C 7.230469 2.144531 7.355469 2.09375 7.5 2.09375 C 7.644531 2.09375 7.769531 2.144531 7.875 2.25 L 13.820312 8.195312 C 13.925781 8.300781 13.960938 8.390625 13.929688 8.460938 C 13.894531 8.535156 13.804688 8.570312 13.660156 8.570312 L 1.339844 8.570312 C 1.195312 8.570312 1.105469 8.535156 1.070312 8.460938 C 1.039062 8.390625 1.074219 8.300781 1.179688 8.195312 Z M 13.394531 12.855469 L 1.605469 12.855469 C 1.460938 12.855469 1.335938 12.804688 1.230469 12.699219 C 1.125 12.59375 1.070312 12.464844 1.070312 12.320312 L 1.070312 10.179688 C 1.070312 10.035156 1.125 9.90625 1.230469 9.800781 C 1.335938 9.695312 1.460938 9.644531 1.605469 9.644531 L 13.394531 9.644531 C 13.539062 9.644531 13.664062 9.695312 13.769531 9.800781 C 13.875 9.90625 13.929688 10.035156 13.929688 10.179688 L 13.929688 12.320312 C 13.929688 12.464844 13.875 12.59375 13.769531 12.699219 C 13.664062 12.804688 13.539062 12.855469 13.394531 12.855469 Z M 13.394531 12.855469 " fill="#FFFFFF"/>
  </g>
</svg>