<svg xmlns="http://www.w3.org/2000/svg" xlink="http://www.w3.org/1999/xlink" width="20px" height="20px" viewBox="0 0 15 15" version="1.1">
  <g id="surface1">
    <path d="M 9.105469 10.445312 L 9.105469 12.054688 C 9.105469 12.277344 9.027344 12.464844 8.871094 12.621094 C 8.714844 12.777344 8.527344 12.855469 8.304688 12.855469 L 6.695312 12.855469 C 6.472656 12.855469 6.285156 12.777344 6.128906 12.621094 C 5.972656 12.464844 5.894531 12.277344 5.894531 12.054688 L 5.894531 10.445312 C 5.894531 10.222656 5.972656 10.035156 6.128906 9.878906 C 6.285156 9.722656 6.472656 9.644531 6.695312 9.644531 L 8.304688 9.644531 C 8.527344 9.644531 8.714844 9.722656 8.871094 9.878906 C 9.027344 10.035156 9.105469 10.222656 9.105469 10.445312 Z M 9.105469 6.160156 L 9.105469 7.769531 C 9.105469 7.992188 9.027344 8.179688 8.871094 8.335938 C 8.714844 8.492188 8.527344 8.570312 8.304688 8.570312 L 6.695312 8.570312 C 6.472656 8.570312 6.285156 8.492188 6.128906 8.335938 C 5.972656 8.179688 5.894531 7.992188 5.894531 7.769531 L 5.894531 6.160156 C 5.894531 5.9375 5.972656 5.746094 6.128906 5.589844 C 6.285156 5.433594 6.472656 5.355469 6.695312 5.355469 L 8.304688 5.355469 C 8.527344 5.355469 8.714844 5.433594 8.871094 5.589844 C 9.027344 5.746094 9.105469 5.9375 9.105469 6.160156 Z M 9.105469 1.875 L 9.105469 3.480469 C 9.105469 3.707031 9.027344 3.894531 8.871094 4.050781 C 8.714844 4.207031 8.527344 4.285156 8.304688 4.285156 L 6.695312 4.285156 C 6.472656 4.285156 6.285156 4.207031 6.128906 4.050781 C 5.972656 3.894531 5.894531 3.707031 5.894531 3.480469 L 5.894531 1.875 C 5.894531 1.652344 5.972656 1.460938 6.128906 1.304688 C 6.285156 1.148438 6.472656 1.070312 6.695312 1.070312 L 8.304688 1.070312 C 8.527344 1.070312 8.714844 1.148438 8.871094 1.304688 C 9.027344 1.460938 9.105469 1.652344 9.105469 1.875 Z M 9.105469 1.875 " fill="#FFFFFF"/>
  </g>
</svg>