<?xml version="1.0" encoding="UTF-8" standalone="yes"?>
<svg xmlns="http://www.w3.org/2000/svg" xmlns:xlink="http://www.w3.org/1999/xlink" width="20px" height="20px" viewBox="0 0 15 15" version="1.1">
  <g id="surface1">
    <path style=" stroke:none;fill-rule:nonzero;fill:rgb(0%,0%,0%);fill-opacity:1;" d="M 7.5 1.070312 C 8.667969 1.070312 9.742188 1.359375 10.726562 1.933594 C 11.710938 2.507812 12.492188 3.289062 13.066406 4.273438 C 13.640625 5.257812 13.929688 6.332031 13.929688 7.5 C 13.929688 8.667969 13.640625 9.742188 13.066406 10.726562 C 12.492188 11.710938 11.710938 12.492188 10.726562 13.066406 C 9.742188 13.640625 8.667969 13.929688 7.5 13.929688 C 6.332031 13.929688 5.257812 13.640625 4.273438 13.066406 C 3.289062 12.492188 2.507812 11.710938 1.933594 10.726562 C 1.359375 9.742188 1.070312 8.667969 1.070312 7.5 C 1.070312 6.332031 1.359375 5.257812 1.933594 4.273438 C 2.507812 3.289062 3.289062 2.507812 4.273438 1.933594 C 5.257812 1.359375 6.332031 1.070312 7.5 1.070312 Z M 8.570312 11.507812 L 8.570312 9.917969 C 8.570312 9.839844 8.546875 9.773438 8.496094 9.722656 C 8.445312 9.667969 8.382812 9.644531 8.3125 9.644531 L 6.703125 9.644531 C 6.632812 9.644531 6.566406 9.671875 6.511719 9.726562 C 6.457031 9.78125 6.429688 9.847656 6.429688 9.917969 L 6.429688 11.507812 C 6.429688 11.582031 6.457031 11.644531 6.511719 11.703125 C 6.566406 11.757812 6.632812 11.785156 6.703125 11.785156 L 8.3125 11.785156 C 8.382812 11.785156 8.445312 11.757812 8.496094 11.707031 C 8.546875 11.652344 8.570312 11.585938 8.570312 11.507812 Z M 8.554688 8.628906 L 8.707031 3.433594 C 8.707031 3.363281 8.675781 3.316406 8.621094 3.28125 C 8.566406 3.238281 8.5 3.214844 8.421875 3.214844 L 6.578125 3.214844 C 6.5 3.214844 6.433594 3.238281 6.378906 3.28125 C 6.324219 3.316406 6.292969 3.363281 6.292969 3.433594 L 6.4375 8.628906 C 6.4375 8.6875 6.464844 8.734375 6.519531 8.777344 C 6.578125 8.820312 6.644531 8.839844 6.722656 8.839844 L 8.269531 8.839844 C 8.347656 8.839844 8.414062 8.820312 8.46875 8.777344 C 8.519531 8.734375 8.550781 8.6875 8.554688 8.628906 Z M 8.554688 8.628906 "/>
  </g>
</svg>