<svg version="1.1" xmlns="http://www.w3.org/2000/svg" xlink="http://www.w3.org/1999/xlink" x="0px" y="0px" width="15px" height="15px" viewBox="0 0 15 15" style="enable-background:new 0 0 15 15;" space="preserve">
    <path d="M11.785156,7.769531L11.785156,10.445312C11.785156,11.109375,11.550781,11.679688,11.078125,12.148438C10.605469,12.621094,10.039062,12.855469,9.375,12.855469L2.410156,12.855469C1.746094,12.855469,1.179688,12.621094,0.707031,12.148438C0.234375,11.679688,0,11.109375,0,10.445312L0,3.480469C0,2.816406,0.234375,2.25,0.707031,1.777344C1.179688,1.308594,1.746094,1.070312,2.410156,1.070312L8.304688,1.070312C8.382812,1.070312,8.445312,1.097656,8.496094,1.148438C8.546875,1.195312,8.570312,1.261719,8.570312,1.339844L8.570312,1.875C8.570312,1.953125,8.546875,2.015625,8.496094,2.066406C8.445312,2.117188,8.382812,2.144531,8.304688,2.144531L2.410156,2.144531C2.042969,2.144531,1.726562,2.273438,1.464844,2.535156C1.203125,2.796875,1.070312,3.113281,1.070312,3.480469L1.070312,10.445312C1.070312,10.816406,1.203125,11.128906,1.464844,11.390625C1.726562,11.65625,2.042969,11.785156,2.410156,11.785156L9.375,11.785156C9.742188,11.785156,10.058594,11.65625,10.320312,11.390625C10.582031,11.128906,10.714844,10.816406,10.714844,10.445312L10.714844,7.769531C10.714844,7.691406,10.738281,7.625,10.789062,7.574219C10.839844,7.523438,10.902344,7.5,10.980469,7.5L11.519531,7.5C11.597656,7.5,11.660156,7.523438,11.710938,7.574219C11.761719,7.625,11.785156,7.691406,11.785156,7.769531ZM15,0.535156L15,4.820312C15,4.964844,14.945312,5.09375,14.839844,5.199219C14.734375,5.304688,14.609375,5.355469,14.464844,5.355469C14.320312,5.355469,14.195312,5.304688,14.085938,5.199219L12.613281,3.726562L7.15625,9.183594C7.101562,9.238281,7.035156,9.265625,6.964844,9.265625C6.890625,9.265625,6.828125,9.238281,6.773438,9.183594L5.816406,8.226562C5.761719,8.171875,5.734375,8.109375,5.734375,8.035156C5.734375,7.964844,5.761719,7.898438,5.816406,7.84375L11.273438,2.386719L9.800781,0.914062C9.695312,0.804688,9.644531,0.679688,9.644531,0.535156C9.644531,0.390625,9.695312,0.265625,9.800781,0.160156C9.90625,0.0546875,10.035156,0,10.179688,0L14.464844,0C14.609375,0,14.734375,0.0546875,14.839844,0.160156C14.945312,0.265625,15,0.390625,15,0.535156ZM15,0.535156" fill="#FFFFFF"/>
    </svg>