<svg version="1.1" xmlns="http://www.w3.org/2000/svg" xlink="http://www.w3.org/1999/xlink" x="0px" y="0px" width="15px" height="15px" viewBox="0 0 15 15" style="enable-background:new 0 0 15 15;" space="preserve">
    <path d="M8.570312,11.507812L8.570312,9.917969C8.570312,9.839844,8.546875,9.773438,8.492188,9.722656C8.4375,9.667969,8.375,9.644531,8.304688,9.644531L6.695312,9.644531C6.625,9.644531,6.5625,9.667969,6.507812,9.722656C6.453125,9.773438,6.429688,9.839844,6.429688,9.917969L6.429688,11.507812C6.429688,11.585938,6.453125,11.652344,6.507812,11.707031C6.5625,11.757812,6.625,11.785156,6.695312,11.785156L8.304688,11.785156C8.375,11.785156,8.4375,11.757812,8.492188,11.707031C8.546875,11.652344,8.570312,11.585938,8.570312,11.507812ZM8.554688,8.378906L8.707031,4.535156C8.707031,4.46875,8.675781,4.417969,8.621094,4.378906C8.550781,4.316406,8.480469,4.285156,8.421875,4.285156L6.578125,4.285156C6.519531,4.285156,6.449219,4.316406,6.378906,4.378906C6.324219,4.417969,6.292969,4.476562,6.292969,4.554688L6.4375,8.378906C6.4375,8.433594,6.464844,8.480469,6.519531,8.515625C6.578125,8.554688,6.644531,8.570312,6.722656,8.570312L8.269531,8.570312C8.347656,8.570312,8.414062,8.554688,8.46875,8.515625C8.519531,8.480469,8.550781,8.433594,8.554688,8.378906ZM8.4375,0.5625L14.867188,12.347656C15.0625,12.699219,15.054688,13.050781,14.847656,13.402344C14.753906,13.5625,14.625,13.691406,14.460938,13.785156C14.296875,13.882812,14.117188,13.929688,13.929688,13.929688L1.070312,13.929688C0.882812,13.929688,0.703125,13.882812,0.539062,13.785156C0.375,13.691406,0.246094,13.5625,0.152344,13.402344C-0.0546875,13.050781,-0.0625,12.699219,0.132812,12.347656L6.5625,0.5625C6.65625,0.386719,6.789062,0.25,6.957031,0.152344C7.125,0.0507812,7.304688,0,7.5,0C7.695312,0,7.875,0.0507812,8.042969,0.152344C8.210938,0.25,8.34375,0.386719,8.4375,0.5625ZM8.4375,0.5625" fill="#FFFFFF"/>
    </svg>