<svg xmlns="http://www.w3.org/2000/svg" xlink="http://www.w3.org/1999/xlink" width="20px" height="20px" viewBox="0 0 15 15" version="1.1">
  <g id="surface1">
    <path d="M 11.382812 10.941406 L 11.675781 12.269531 C 11.695312 12.339844 11.683594 12.402344 11.652344 12.460938 C 11.617188 12.519531 11.570312 12.558594 11.507812 12.582031 L 11.46875 12.589844 C 11.445312 12.601562 11.414062 12.609375 11.378906 12.617188 C 11.34375 12.625 11.296875 12.640625 11.246094 12.65625 C 11.191406 12.671875 11.132812 12.6875 11.066406 12.703125 C 11 12.714844 10.929688 12.730469 10.851562 12.742188 C 10.777344 12.757812 10.695312 12.773438 10.601562 12.785156 C 10.507812 12.800781 10.414062 12.8125 10.320312 12.824219 C 10.226562 12.835938 10.125 12.84375 10.015625 12.847656 C 9.90625 12.855469 9.800781 12.855469 9.691406 12.855469 C 8.386719 12.855469 7.246094 12.492188 6.269531 11.765625 C 5.292969 11.035156 4.628906 10.054688 4.277344 8.824219 L 3.480469 8.824219 C 3.410156 8.824219 3.347656 8.796875 3.292969 8.742188 C 3.242188 8.691406 3.214844 8.628906 3.214844 8.554688 L 3.214844 7.609375 C 3.214844 7.535156 3.242188 7.472656 3.292969 7.421875 C 3.347656 7.367188 3.410156 7.339844 3.480469 7.339844 L 4.035156 7.339844 C 4.023438 7.023438 4.027344 6.730469 4.042969 6.460938 L 3.480469 6.460938 C 3.402344 6.460938 3.339844 6.4375 3.289062 6.386719 C 3.238281 6.335938 3.214844 6.273438 3.214844 6.195312 L 3.214844 5.238281 C 3.214844 5.160156 3.238281 5.097656 3.289062 5.046875 C 3.339844 4.996094 3.402344 4.972656 3.480469 4.972656 L 4.300781 4.972656 C 4.675781 3.800781 5.355469 2.855469 6.339844 2.144531 C 7.324219 1.429688 8.441406 1.070312 9.691406 1.070312 C 10.261719 1.070312 10.804688 1.136719 11.316406 1.265625 C 11.378906 1.28125 11.433594 1.324219 11.484375 1.390625 C 11.519531 1.449219 11.527344 1.519531 11.507812 1.589844 L 11.148438 2.921875 C 11.132812 2.992188 11.09375 3.046875 11.03125 3.085938 C 10.972656 3.121094 10.902344 3.128906 10.832031 3.105469 L 10.796875 3.097656 C 10.777344 3.089844 10.742188 3.085938 10.703125 3.078125 L 10.554688 3.046875 L 10.367188 3.015625 L 10.148438 2.992188 L 9.90625 2.972656 L 9.660156 2.964844 C 8.957031 2.964844 8.324219 3.140625 7.769531 3.5 C 7.210938 3.855469 6.792969 4.347656 6.511719 4.972656 L 10.429688 4.972656 C 10.519531 4.972656 10.589844 5.003906 10.640625 5.074219 C 10.695312 5.140625 10.714844 5.210938 10.699219 5.289062 L 10.496094 6.246094 C 10.46875 6.390625 10.378906 6.460938 10.230469 6.460938 L 6.144531 6.460938 C 6.128906 6.667969 6.128906 6.960938 6.144531 7.339844 L 9.984375 7.339844 C 10.070312 7.339844 10.140625 7.375 10.195312 7.441406 C 10.246094 7.507812 10.261719 7.582031 10.246094 7.667969 L 10.042969 8.605469 C 10.035156 8.667969 10.003906 8.71875 9.953125 8.757812 C 9.902344 8.800781 9.847656 8.824219 9.785156 8.824219 L 6.546875 8.824219 C 6.8125 9.476562 7.230469 9.992188 7.796875 10.375 C 8.363281 10.757812 9 10.949219 9.710938 10.949219 C 9.808594 10.949219 9.910156 10.945312 10.011719 10.9375 C 10.113281 10.929688 10.203125 10.917969 10.292969 10.90625 C 10.378906 10.894531 10.460938 10.882812 10.539062 10.867188 C 10.617188 10.855469 10.683594 10.839844 10.742188 10.828125 C 10.800781 10.8125 10.855469 10.800781 10.898438 10.789062 L 11 10.765625 L 11.039062 10.746094 C 11.113281 10.71875 11.1875 10.726562 11.257812 10.765625 C 11.324219 10.804688 11.367188 10.863281 11.382812 10.941406 Z M 11.382812 10.941406 " fill="#FFFFFF"/>
  </g>
</svg>