<svg xmlns="http://www.w3.org/2000/svg" xlink="http://www.w3.org/1999/xlink" width="20px" height="20px" viewBox="0 0 15 15" version="1.1">
  <g id="surface1">
    <path d="M 4.820312 6.160156 L 4.820312 7.769531 C 4.820312 7.992188 4.742188 8.179688 4.585938 8.335938 C 4.429688 8.492188 4.242188 8.570312 4.019531 8.570312 L 2.410156 8.570312 C 2.1875 8.570312 1.996094 8.492188 1.839844 8.335938 C 1.683594 8.179688 1.605469 7.992188 1.605469 7.769531 L 1.605469 6.160156 C 1.605469 5.9375 1.683594 5.746094 1.839844 5.589844 C 1.996094 5.433594 2.1875 5.355469 2.410156 5.355469 L 4.019531 5.355469 C 4.242188 5.355469 4.429688 5.433594 4.585938 5.589844 C 4.742188 5.746094 4.820312 5.9375 4.820312 6.160156 Z M 9.105469 6.160156 L 9.105469 7.769531 C 9.105469 7.992188 9.027344 8.179688 8.871094 8.335938 C 8.714844 8.492188 8.527344 8.570312 8.304688 8.570312 L 6.695312 8.570312 C 6.472656 8.570312 6.285156 8.492188 6.128906 8.335938 C 5.972656 8.179688 5.894531 7.992188 5.894531 7.769531 L 5.894531 6.160156 C 5.894531 5.9375 5.972656 5.746094 6.128906 5.589844 C 6.285156 5.433594 6.472656 5.355469 6.695312 5.355469 L 8.304688 5.355469 C 8.527344 5.355469 8.714844 5.433594 8.871094 5.589844 C 9.027344 5.746094 9.105469 5.9375 9.105469 6.160156 Z M 13.394531 6.160156 L 13.394531 7.769531 C 13.394531 7.992188 13.316406 8.179688 13.160156 8.335938 C 13.003906 8.492188 12.8125 8.570312 12.589844 8.570312 L 10.980469 8.570312 C 10.757812 8.570312 10.570312 8.492188 10.414062 8.335938 C 10.257812 8.179688 10.179688 7.992188 10.179688 7.769531 L 10.179688 6.160156 C 10.179688 5.9375 10.257812 5.746094 10.414062 5.589844 C 10.570312 5.433594 10.757812 5.355469 10.980469 5.355469 L 12.589844 5.355469 C 12.8125 5.355469 13.003906 5.433594 13.160156 5.589844 C 13.316406 5.746094 13.394531 5.9375 13.394531 6.160156 Z M 13.394531 6.160156 " fill="#FFFFFF"/>
  </g>
</svg>