<svg version="1.1" xmlns="http://www.w3.org/2000/svg" xlink="http://www.w3.org/1999/xlink" x="0px" y="0px" width="15px" height="15px" viewBox="0 0 15 15" style="enable-background:new 0 0 15 15;" space="preserve">
    <path d="M7.433594,9.910156L8.402344,8.941406L7.132812,7.667969L6.160156,8.636719L6.160156,9.105469L6.964844,9.105469L6.964844,9.910156ZM11.117188,3.882812C11.027344,3.792969,10.933594,3.796875,10.839844,3.890625L7.910156,6.820312C7.816406,6.917969,7.8125,7.007812,7.902344,7.097656C7.992188,7.1875,8.082031,7.183594,8.179688,7.089844L11.109375,4.160156C11.203125,4.066406,11.207031,3.972656,11.117188,3.882812ZM11.785156,8.855469L11.785156,10.445312C11.785156,11.109375,11.550781,11.679688,11.078125,12.148438C10.605469,12.621094,10.039062,12.855469,9.375,12.855469L2.410156,12.855469C1.746094,12.855469,1.179688,12.621094,0.707031,12.148438C0.234375,11.679688,0,11.109375,0,10.445312L0,3.480469C0,2.816406,0.234375,2.25,0.707031,1.777344C1.179688,1.308594,1.746094,1.070312,2.410156,1.070312L9.375,1.070312C9.726562,1.070312,10.054688,1.140625,10.355469,1.28125C10.4375,1.320312,10.488281,1.382812,10.503906,1.472656C10.523438,1.566406,10.496094,1.648438,10.429688,1.714844L10.019531,2.125C9.941406,2.203125,9.851562,2.226562,9.75,2.191406C9.625,2.160156,9.496094,2.144531,9.375,2.144531L2.410156,2.144531C2.042969,2.144531,1.726562,2.273438,1.464844,2.535156C1.203125,2.796875,1.070312,3.113281,1.070312,3.480469L1.070312,10.445312C1.070312,10.816406,1.203125,11.128906,1.464844,11.390625C1.726562,11.65625,2.042969,11.785156,2.410156,11.785156L9.375,11.785156C9.742188,11.785156,10.058594,11.65625,10.320312,11.390625C10.582031,11.128906,10.714844,10.816406,10.714844,10.445312L10.714844,9.390625C10.714844,9.320312,10.738281,9.257812,10.789062,9.207031L11.324219,8.671875C11.410156,8.589844,11.507812,8.570312,11.617188,8.613281C11.730469,8.65625,11.785156,8.738281,11.785156,8.855469ZM10.980469,2.679688L13.394531,5.089844L7.769531,10.714844L5.355469,10.714844L5.355469,8.304688ZM14.699219,3.785156L13.929688,4.554688L11.519531,2.144531L12.289062,1.371094C12.445312,1.214844,12.632812,1.136719,12.855469,1.136719C13.082031,1.136719,13.269531,1.214844,13.425781,1.371094L14.699219,2.644531C14.855469,2.800781,14.933594,2.992188,14.933594,3.214844C14.933594,3.4375,14.855469,3.628906,14.699219,3.785156ZM14.699219,3.785156" fill="#FFFFFF"/>
    </svg>