<?xml version="1.0" encoding="UTF-8" standalone="yes"?>
<svg xmlns="http://www.w3.org/2000/svg" xmlns:xlink="http://www.w3.org/1999/xlink" width="20px" height="20px" viewBox="0 0 15 15" version="1.1">
  <g id="surface1">
    <path style=" stroke:none;fill-rule:nonzero;fill:rgb(0%,0%,0%);fill-opacity:1;" d="M 7.390625 8.839844 C 7.390625 8.910156 7.363281 8.976562 7.308594 9.03125 L 4.527344 11.8125 L 5.734375 13.015625 C 5.839844 13.121094 5.894531 13.246094 5.894531 13.394531 C 5.894531 13.539062 5.839844 13.664062 5.734375 13.769531 C 5.628906 13.875 5.503906 13.929688 5.355469 13.929688 L 1.605469 13.929688 C 1.460938 13.929688 1.335938 13.875 1.230469 13.769531 C 1.125 13.664062 1.070312 13.539062 1.070312 13.394531 L 1.070312 9.644531 C 1.070312 9.496094 1.125 9.371094 1.230469 9.265625 C 1.335938 9.160156 1.460938 9.105469 1.605469 9.105469 C 1.753906 9.105469 1.878906 9.160156 1.984375 9.265625 L 3.1875 10.472656 L 5.96875 7.691406 C 6.023438 7.636719 6.089844 7.609375 6.160156 7.609375 C 6.234375 7.609375 6.296875 7.636719 6.351562 7.691406 L 7.308594 8.648438 C 7.363281 8.703125 7.390625 8.765625 7.390625 8.839844 Z M 13.929688 1.605469 L 13.929688 5.355469 C 13.929688 5.503906 13.875 5.628906 13.769531 5.734375 C 13.664062 5.839844 13.539062 5.894531 13.394531 5.894531 C 13.246094 5.894531 13.121094 5.839844 13.015625 5.734375 L 11.8125 4.527344 L 9.03125 7.308594 C 8.976562 7.363281 8.910156 7.390625 8.839844 7.390625 C 8.765625 7.390625 8.703125 7.363281 8.648438 7.308594 L 7.691406 6.351562 C 7.636719 6.296875 7.609375 6.234375 7.609375 6.160156 C 7.609375 6.089844 7.636719 6.023438 7.691406 5.96875 L 10.472656 3.1875 L 9.265625 1.984375 C 9.160156 1.878906 9.105469 1.753906 9.105469 1.605469 C 9.105469 1.460938 9.160156 1.335938 9.265625 1.230469 C 9.371094 1.125 9.496094 1.070312 9.644531 1.070312 L 13.394531 1.070312 C 13.539062 1.070312 13.664062 1.125 13.769531 1.230469 C 13.875 1.335938 13.929688 1.460938 13.929688 1.605469 Z M 13.929688 1.605469 "/>
  </g>
</svg>