<svg xmlns="http://www.w3.org/2000/svg" xlink="http://www.w3.org/1999/xlink" width="20px" height="20px" viewBox="0 0 15 15" version="1.1">
  <g id="surface1">
    <path d="M 14.214844 0.785156 C 14.738281 1.3125 15 1.941406 15 2.683594 C 15 3.421875 14.738281 4.050781 14.214844 4.570312 L 12.328125 6.4375 L 13.199219 7.308594 C 13.257812 7.363281 13.285156 7.425781 13.285156 7.5 C 13.285156 7.574219 13.257812 7.636719 13.199219 7.691406 L 11.441406 9.449219 C 11.386719 9.507812 11.324219 9.535156 11.25 9.535156 C 11.175781 9.535156 11.113281 9.507812 11.058594 9.449219 L 10.179688 8.570312 L 5.132812 13.617188 C 4.925781 13.824219 4.671875 13.929688 4.378906 13.929688 L 2.679688 13.929688 L 0.535156 15 L 0 14.464844 L 1.070312 12.320312 L 1.070312 10.621094 C 1.070312 10.328125 1.175781 10.074219 1.382812 9.867188 L 6.429688 4.820312 L 5.550781 3.941406 C 5.492188 3.886719 5.464844 3.824219 5.464844 3.75 C 5.464844 3.675781 5.492188 3.613281 5.550781 3.558594 L 7.308594 1.800781 C 7.363281 1.742188 7.425781 1.714844 7.5 1.714844 C 7.574219 1.714844 7.636719 1.742188 7.691406 1.800781 L 8.5625 2.671875 L 10.429688 0.785156 C 10.949219 0.261719 11.578125 0 12.316406 0 C 13.054688 0 13.6875 0.261719 14.214844 0.785156 Z M 4.285156 12.320312 L 9.105469 7.5 L 7.5 5.894531 L 2.679688 10.714844 L 2.679688 12.320312 Z M 4.285156 12.320312 " fill="#FFFFFF"/>
  </g>
</svg>