<?xml version="1.0" encoding="UTF-8" standalone="yes"?>
<svg xmlns="http://www.w3.org/2000/svg" xmlns:xlink="http://www.w3.org/1999/xlink" width="20px" height="20px" viewBox="0 0 15 15" version="1.1">
  <g id="surface1">
    <path style=" stroke:none;fill-rule:nonzero;fill:rgb(0%,0%,0%);fill-opacity:1;" d="M 7.433594 9.910156 L 8.402344 8.941406 L 7.132812 7.667969 L 6.160156 8.636719 L 6.160156 9.105469 L 6.964844 9.105469 L 6.964844 9.910156 Z M 11.117188 3.882812 C 11.027344 3.792969 10.933594 3.796875 10.839844 3.890625 L 7.910156 6.820312 C 7.816406 6.917969 7.8125 7.007812 7.902344 7.097656 C 7.992188 7.1875 8.082031 7.183594 8.179688 7.089844 L 11.109375 4.160156 C 11.203125 4.066406 11.207031 3.972656 11.117188 3.882812 Z M 11.785156 8.855469 L 11.785156 10.445312 C 11.785156 11.109375 11.550781 11.679688 11.078125 12.148438 C 10.605469 12.621094 10.039062 12.855469 9.375 12.855469 L 2.410156 12.855469 C 1.746094 12.855469 1.179688 12.621094 0.707031 12.148438 C 0.234375 11.679688 0 11.109375 0 10.445312 L 0 3.480469 C 0 2.816406 0.234375 2.25 0.707031 1.777344 C 1.179688 1.308594 1.746094 1.070312 2.410156 1.070312 L 9.375 1.070312 C 9.726562 1.070312 10.054688 1.140625 10.355469 1.28125 C 10.4375 1.320312 10.488281 1.382812 10.503906 1.472656 C 10.523438 1.566406 10.496094 1.648438 10.429688 1.714844 L 10.019531 2.125 C 9.941406 2.203125 9.851562 2.226562 9.75 2.191406 C 9.625 2.160156 9.496094 2.144531 9.375 2.144531 L 2.410156 2.144531 C 2.042969 2.144531 1.726562 2.273438 1.464844 2.535156 C 1.203125 2.796875 1.070312 3.113281 1.070312 3.480469 L 1.070312 10.445312 C 1.070312 10.816406 1.203125 11.128906 1.464844 11.390625 C 1.726562 11.65625 2.042969 11.785156 2.410156 11.785156 L 9.375 11.785156 C 9.742188 11.785156 10.058594 11.65625 10.320312 11.390625 C 10.582031 11.128906 10.714844 10.816406 10.714844 10.445312 L 10.714844 9.390625 C 10.714844 9.320312 10.738281 9.257812 10.789062 9.207031 L 11.324219 8.671875 C 11.410156 8.589844 11.507812 8.570312 11.617188 8.613281 C 11.730469 8.65625 11.785156 8.738281 11.785156 8.855469 Z M 10.980469 2.679688 L 13.394531 5.089844 L 7.769531 10.714844 L 5.355469 10.714844 L 5.355469 8.304688 Z M 14.699219 3.785156 L 13.929688 4.554688 L 11.519531 2.144531 L 12.289062 1.371094 C 12.445312 1.214844 12.632812 1.136719 12.855469 1.136719 C 13.082031 1.136719 13.269531 1.214844 13.425781 1.371094 L 14.699219 2.644531 C 14.855469 2.800781 14.933594 2.992188 14.933594 3.214844 C 14.933594 3.4375 14.855469 3.628906 14.699219 3.785156 Z M 14.699219 3.785156 "/>
  </g>
</svg>