<svg version="1.1" xmlns="http://www.w3.org/2000/svg" xlink="http://www.w3.org/1999/xlink" x="0px" y="0px" width="15px" height="15px" viewBox="0 0 15 15" style="enable-background:new 0 0 15 15;" space="preserve">
    <path d="M11.519531,1.070312C12.183594,1.070312,12.75,1.308594,13.222656,1.777344C13.691406,2.25,13.929688,2.816406,13.929688,3.480469L13.929688,11.519531C13.929688,12.183594,13.691406,12.75,13.222656,13.222656C12.75,13.691406,12.183594,13.929688,11.519531,13.929688L3.480469,13.929688C2.816406,13.929688,2.25,13.691406,1.777344,13.222656C1.308594,12.75,1.070312,12.183594,1.070312,11.519531L1.070312,3.480469C1.070312,2.816406,1.308594,2.25,1.777344,1.777344C2.25,1.308594,2.816406,1.070312,3.480469,1.070312ZM11.785156,9.910156L11.785156,6.261719C11.613281,6.457031,11.433594,6.609375,11.25,6.722656C11.058594,6.84375,10.691406,7.082031,10.140625,7.433594C9.589844,7.785156,9.167969,8.0625,8.871094,8.261719C8.324219,8.648438,7.867188,8.839844,7.5,8.839844C7.132812,8.839844,6.675781,8.648438,6.128906,8.261719C5.871094,8.082031,5.476562,7.824219,4.941406,7.488281C4.410156,7.148438,4.011719,6.890625,3.75,6.714844C3.683594,6.667969,3.589844,6.59375,3.472656,6.488281C3.355469,6.382812,3.269531,6.304688,3.214844,6.261719L3.214844,9.910156C3.214844,10.132812,3.292969,10.324219,3.449219,10.480469C3.605469,10.636719,3.792969,10.714844,4.019531,10.714844L10.980469,10.714844C11.207031,10.714844,11.394531,10.636719,11.550781,10.480469C11.707031,10.324219,11.785156,10.132812,11.785156,9.910156ZM11.785156,5.113281C11.785156,4.886719,11.707031,4.691406,11.554688,4.527344C11.402344,4.367188,11.210938,4.285156,10.980469,4.285156L4.019531,4.285156C3.792969,4.285156,3.605469,4.363281,3.449219,4.519531C3.292969,4.675781,3.214844,4.867188,3.214844,5.089844C3.214844,5.296875,3.300781,5.507812,3.46875,5.730469C3.640625,5.949219,3.828125,6.128906,4.035156,6.269531C4.296875,6.449219,4.679688,6.695312,5.1875,7.015625C5.691406,7.332031,6.050781,7.5625,6.269531,7.710938C6.285156,7.71875,6.332031,7.753906,6.410156,7.804688C6.488281,7.859375,6.546875,7.898438,6.585938,7.921875C6.625,7.949219,6.683594,7.984375,6.761719,8.03125C6.839844,8.078125,6.90625,8.117188,6.960938,8.140625C7.011719,8.164062,7.074219,8.191406,7.140625,8.21875C7.207031,8.246094,7.269531,8.269531,7.328125,8.28125C7.386719,8.296875,7.445312,8.304688,7.5,8.304688C7.554688,8.304688,7.613281,8.296875,7.671875,8.28125C7.730469,8.269531,7.792969,8.246094,7.859375,8.21875C7.925781,8.191406,7.988281,8.164062,8.039062,8.140625C8.09375,8.117188,8.160156,8.078125,8.238281,8.03125C8.316406,7.984375,8.375,7.949219,8.414062,7.921875C8.453125,7.898438,8.511719,7.859375,8.589844,7.804688C8.667969,7.753906,8.714844,7.71875,8.730469,7.710938L10.964844,6.253906C11.160156,6.125,11.347656,5.949219,11.523438,5.730469C11.699219,5.507812,11.785156,5.304688,11.785156,5.113281ZM11.785156,5.113281" fill="#FFFFFF"/>
    </svg>