<svg xmlns="http://www.w3.org/2000/svg" xlink="http://www.w3.org/1999/xlink" width="20px" height="20px" viewBox="0 0 15 15" version="1.1">
  <g id="surface1">
    <path d="M 15 5.941406 L 15 12.589844 C 15 12.957031 14.867188 13.273438 14.605469 13.535156 C 14.34375 13.796875 14.027344 13.929688 13.660156 13.929688 L 1.339844 13.929688 C 0.972656 13.929688 0.65625 13.796875 0.394531 13.535156 C 0.132812 13.273438 0 12.957031 0 12.589844 L 0 5.941406 C 0.246094 6.214844 0.527344 6.460938 0.84375 6.671875 C 2.867188 8.042969 4.253906 9.007812 5.003906 9.558594 C 5.324219 9.792969 5.582031 9.976562 5.78125 10.109375 C 5.976562 10.238281 6.242188 10.371094 6.570312 10.507812 C 6.898438 10.644531 7.207031 10.714844 7.492188 10.714844 L 7.507812 10.714844 C 7.792969 10.714844 8.101562 10.644531 8.429688 10.507812 C 8.757812 10.371094 9.023438 10.238281 9.21875 10.109375 C 9.417969 9.976562 9.675781 9.792969 9.996094 9.558594 C 10.941406 8.871094 12.332031 7.910156 14.164062 6.671875 C 14.480469 6.453125 14.761719 6.210938 15 5.941406 Z M 15 3.480469 C 15 3.921875 14.863281 4.34375 14.589844 4.746094 C 14.316406 5.148438 13.976562 5.492188 13.570312 5.777344 C 11.46875 7.230469 10.164062 8.140625 9.652344 8.496094 C 9.59375 8.535156 9.476562 8.621094 9.296875 8.75 C 9.113281 8.882812 8.964844 8.988281 8.84375 9.070312 C 8.722656 9.148438 8.578125 9.242188 8.40625 9.339844 C 8.238281 9.441406 8.078125 9.515625 7.925781 9.566406 C 7.777344 9.617188 7.636719 9.644531 7.507812 9.644531 L 7.492188 9.644531 C 7.363281 9.644531 7.222656 9.617188 7.074219 9.566406 C 6.921875 9.515625 6.761719 9.441406 6.59375 9.339844 C 6.421875 9.242188 6.277344 9.148438 6.15625 9.070312 C 6.035156 8.988281 5.886719 8.882812 5.703125 8.75 C 5.523438 8.621094 5.40625 8.535156 5.347656 8.496094 C 4.839844 8.140625 4.109375 7.628906 3.15625 6.96875 C 2.203125 6.308594 1.628906 5.910156 1.441406 5.777344 C 1.09375 5.542969 0.765625 5.21875 0.460938 4.808594 C 0.152344 4.398438 0 4.019531 0 3.667969 C 0 3.230469 0.117188 2.867188 0.347656 2.578125 C 0.578125 2.289062 0.910156 2.144531 1.339844 2.144531 L 13.660156 2.144531 C 14.023438 2.144531 14.335938 2.273438 14.601562 2.535156 C 14.867188 2.796875 15 3.113281 15 3.480469 Z M 15 3.480469 " fill="#FFFFFF"/>
  </g>
</svg>