<svg version="1.1" xmlns="http://www.w3.org/2000/svg" xlink="http://www.w3.org/1999/xlink" x="0px" y="0px" width="15px" height="15px" viewBox="0 0 15 15" style="enable-background:new 0 0 15 15;" space="preserve">
    <path d="M7.5,1.070312C8.667969,1.070312,9.742188,1.359375,10.726562,1.933594C11.710938,2.507812,12.492188,3.289062,13.066406,4.273438C13.640625,5.257812,13.929688,6.332031,13.929688,7.5C13.929688,8.667969,13.640625,9.742188,13.066406,10.726562C12.492188,11.710938,11.710938,12.492188,10.726562,13.066406C9.742188,13.640625,8.667969,13.929688,7.5,13.929688C6.332031,13.929688,5.257812,13.640625,4.273438,13.066406C3.289062,12.492188,2.507812,11.710938,1.933594,10.726562C1.359375,9.742188,1.070312,8.667969,1.070312,7.5C1.070312,6.332031,1.359375,5.257812,1.933594,4.273438C2.507812,3.289062,3.289062,2.507812,4.273438,1.933594C5.257812,1.359375,6.332031,1.070312,7.5,1.070312ZM8.570312,11.507812L8.570312,9.917969C8.570312,9.839844,8.546875,9.773438,8.496094,9.722656C8.445312,9.667969,8.382812,9.644531,8.3125,9.644531L6.703125,9.644531C6.632812,9.644531,6.566406,9.671875,6.511719,9.726562C6.457031,9.78125,6.429688,9.847656,6.429688,9.917969L6.429688,11.507812C6.429688,11.582031,6.457031,11.644531,6.511719,11.703125C6.566406,11.757812,6.632812,11.785156,6.703125,11.785156L8.3125,11.785156C8.382812,11.785156,8.445312,11.757812,8.496094,11.707031C8.546875,11.652344,8.570312,11.585938,8.570312,11.507812ZM8.554688,8.628906L8.707031,3.433594C8.707031,3.363281,8.675781,3.316406,8.621094,3.28125C8.566406,3.238281,8.5,3.214844,8.421875,3.214844L6.578125,3.214844C6.5,3.214844,6.433594,3.238281,6.378906,3.28125C6.324219,3.316406,6.292969,3.363281,6.292969,3.433594L6.4375,8.628906C6.4375,8.6875,6.464844,8.734375,6.519531,8.777344C6.578125,8.820312,6.644531,8.839844,6.722656,8.839844L8.269531,8.839844C8.347656,8.839844,8.414062,8.820312,8.46875,8.777344C8.519531,8.734375,8.550781,8.6875,8.554688,8.628906ZM8.554688,8.628906" fill="#FFFFFF"/>
    </svg>