<svg version="1.1" xmlns="http://www.w3.org/2000/svg" xlink="http://www.w3.org/1999/xlink" x="0px" y="0px" width="15px" height="15px" viewBox="0 0 15 15" style="enable-background:new 0 0 15 15;" space="preserve">
    <path d="M11.785156,7.769531L11.785156,3.75C11.785156,3.605469,11.734375,3.480469,11.625,3.375C11.519531,3.265625,11.394531,3.214844,11.25,3.214844L7.230469,3.214844C6.996094,3.214844,6.832031,3.324219,6.738281,3.539062C6.644531,3.769531,6.683594,3.964844,6.855469,4.125L8.0625,5.332031L3.589844,9.800781C3.484375,9.90625,3.433594,10.035156,3.433594,10.179688C3.433594,10.324219,3.484375,10.449219,3.589844,10.554688L4.445312,11.410156C4.550781,11.515625,4.675781,11.566406,4.820312,11.566406C4.964844,11.566406,5.09375,11.515625,5.199219,11.410156L9.667969,6.9375L10.875,8.144531C10.972656,8.25,11.097656,8.304688,11.25,8.304688C11.316406,8.304688,11.386719,8.289062,11.460938,8.261719C11.675781,8.167969,11.785156,8.003906,11.785156,7.769531ZM13.929688,3.480469L13.929688,11.519531C13.929688,12.183594,13.691406,12.75,13.222656,13.222656C12.75,13.691406,12.183594,13.929688,11.519531,13.929688L3.480469,13.929688C2.816406,13.929688,2.25,13.691406,1.777344,13.222656C1.308594,12.75,1.070312,12.183594,1.070312,11.519531L1.070312,3.480469C1.070312,2.816406,1.308594,2.25,1.777344,1.777344C2.25,1.308594,2.816406,1.070312,3.480469,1.070312L11.519531,1.070312C12.183594,1.070312,12.75,1.308594,13.222656,1.777344C13.691406,2.25,13.929688,2.816406,13.929688,3.480469ZM13.929688,3.480469" fill="#FFFFFF"/>
    </svg>