<svg xmlns="http://www.w3.org/2000/svg" xlink="http://www.w3.org/1999/xlink" width="20px" height="20px" viewBox="0 0 15 15" version="1.1">
  <g id="surface1">
    <path d="M 11.519531 1.070312 C 12.183594 1.070312 12.75 1.308594 13.222656 1.777344 C 13.691406 2.25 13.929688 2.816406 13.929688 3.480469 L 13.929688 11.519531 C 13.929688 12.183594 13.691406 12.75 13.222656 13.222656 C 12.75 13.691406 12.183594 13.929688 11.519531 13.929688 L 3.480469 13.929688 C 2.816406 13.929688 2.25 13.691406 1.777344 13.222656 C 1.308594 12.75 1.070312 12.183594 1.070312 11.519531 L 1.070312 3.480469 C 1.070312 2.816406 1.308594 2.25 1.777344 1.777344 C 2.25 1.308594 2.816406 1.070312 3.480469 1.070312 Z M 11.785156 9.910156 L 11.785156 6.261719 C 11.613281 6.457031 11.433594 6.609375 11.25 6.722656 C 11.058594 6.84375 10.691406 7.082031 10.140625 7.433594 C 9.589844 7.785156 9.167969 8.0625 8.871094 8.261719 C 8.324219 8.648438 7.867188 8.839844 7.5 8.839844 C 7.132812 8.839844 6.675781 8.648438 6.128906 8.261719 C 5.871094 8.082031 5.476562 7.824219 4.941406 7.488281 C 4.410156 7.148438 4.011719 6.890625 3.75 6.714844 C 3.683594 6.667969 3.589844 6.59375 3.472656 6.488281 C 3.355469 6.382812 3.269531 6.304688 3.214844 6.261719 L 3.214844 9.910156 C 3.214844 10.132812 3.292969 10.324219 3.449219 10.480469 C 3.605469 10.636719 3.792969 10.714844 4.019531 10.714844 L 10.980469 10.714844 C 11.207031 10.714844 11.394531 10.636719 11.550781 10.480469 C 11.707031 10.324219 11.785156 10.132812 11.785156 9.910156 Z M 11.785156 5.113281 C 11.785156 4.886719 11.707031 4.691406 11.554688 4.527344 C 11.402344 4.367188 11.210938 4.285156 10.980469 4.285156 L 4.019531 4.285156 C 3.792969 4.285156 3.605469 4.363281 3.449219 4.519531 C 3.292969 4.675781 3.214844 4.867188 3.214844 5.089844 C 3.214844 5.296875 3.300781 5.507812 3.46875 5.730469 C 3.640625 5.949219 3.828125 6.128906 4.035156 6.269531 C 4.296875 6.449219 4.679688 6.695312 5.1875 7.015625 C 5.691406 7.332031 6.050781 7.5625 6.269531 7.710938 C 6.285156 7.71875 6.332031 7.753906 6.410156 7.804688 C 6.488281 7.859375 6.546875 7.898438 6.585938 7.921875 C 6.625 7.949219 6.683594 7.984375 6.761719 8.03125 C 6.839844 8.078125 6.90625 8.117188 6.960938 8.140625 C 7.011719 8.164062 7.074219 8.191406 7.140625 8.21875 C 7.207031 8.246094 7.269531 8.269531 7.328125 8.28125 C 7.386719 8.296875 7.445312 8.304688 7.5 8.304688 C 7.554688 8.304688 7.613281 8.296875 7.671875 8.28125 C 7.730469 8.269531 7.792969 8.246094 7.859375 8.21875 C 7.925781 8.191406 7.988281 8.164062 8.039062 8.140625 C 8.09375 8.117188 8.160156 8.078125 8.238281 8.03125 C 8.316406 7.984375 8.375 7.949219 8.414062 7.921875 C 8.453125 7.898438 8.511719 7.859375 8.589844 7.804688 C 8.667969 7.753906 8.714844 7.71875 8.730469 7.710938 L 10.964844 6.253906 C 11.160156 6.125 11.347656 5.949219 11.523438 5.730469 C 11.699219 5.507812 11.785156 5.304688 11.785156 5.113281 Z M 11.785156 5.113281 " fill="#FFFFFF"/>
  </g>
</svg>