<svg version="1.1" xmlns="http://www.w3.org/2000/svg" xlink="http://www.w3.org/1999/xlink" x="0px" y="0px" width="15px" height="15px" viewBox="0 0 15 15" style="enable-background:new 0 0 15 15;" space="preserve">
    <path d="M14.625,1.179688C14.730469,1.074219,14.820312,1.039062,14.890625,1.070312C14.964844,1.105469,15,1.195312,15,1.339844L15,13.660156C15,13.804688,14.964844,13.894531,14.890625,13.929688C14.820312,13.960938,14.730469,13.925781,14.625,13.820312L8.679688,7.875C8.628906,7.828125,8.59375,7.773438,8.570312,7.71875L8.570312,13.660156C8.570312,13.804688,8.535156,13.894531,8.460938,13.929688C8.390625,13.960938,8.300781,13.925781,8.195312,13.820312L2.25,7.875C2.203125,7.828125,2.164062,7.773438,2.144531,7.71875L2.144531,13.394531C2.144531,13.539062,2.089844,13.664062,1.984375,13.769531C1.878906,13.875,1.753906,13.929688,1.605469,13.929688L0.535156,13.929688C0.390625,13.929688,0.265625,13.875,0.160156,13.769531C0.0546875,13.664062,0,13.539062,0,13.394531L0,1.605469C0,1.460938,0.0546875,1.335938,0.160156,1.230469C0.265625,1.125,0.390625,1.070312,0.535156,1.070312L1.605469,1.070312C1.753906,1.070312,1.878906,1.125,1.984375,1.230469C2.089844,1.335938,2.144531,1.460938,2.144531,1.605469L2.144531,7.28125C2.164062,7.222656,2.203125,7.167969,2.25,7.125L8.195312,1.179688C8.300781,1.074219,8.390625,1.039062,8.460938,1.070312C8.535156,1.105469,8.570312,1.195312,8.570312,1.339844L8.570312,7.28125C8.59375,7.222656,8.628906,7.167969,8.679688,7.125ZM14.625,1.179688" fill="#FFFFFF"/>
    </svg>