<svg version="1.1" xmlns="http://www.w3.org/2000/svg" xlink="http://www.w3.org/1999/xlink" x="0px" y="0px" width="15px" height="15px" viewBox="0 0 15 15" style="enable-background:new 0 0 15 15;" space="preserve">
    <path d="M13.351562,2.46875C13.445312,2.699219,13.40625,2.894531,13.234375,3.054688L9.105469,7.183594L9.105469,13.394531C9.105469,13.628906,9,13.792969,8.78125,13.886719C8.707031,13.914062,8.636719,13.929688,8.570312,13.929688C8.421875,13.929688,8.296875,13.875,8.195312,13.769531L6.050781,11.625C5.945312,11.519531,5.894531,11.394531,5.894531,11.25L5.894531,7.183594L1.765625,3.054688C1.59375,2.894531,1.554688,2.699219,1.648438,2.46875C1.742188,2.25,1.910156,2.144531,2.144531,2.144531L12.855469,2.144531C13.089844,2.144531,13.257812,2.25,13.351562,2.46875ZM13.351562,2.46875" fill="#FFFFFF"/>
    </svg>