<svg version="1.1" xmlns="http://www.w3.org/2000/svg" xlink="http://www.w3.org/1999/xlink" x="0px" y="0px" width="15px" height="15px" viewBox="0 0 15 15" style="enable-background:new 0 0 15 15;" space="preserve">
    <path d="M13.359375,3.179688C13.515625,3.335938,13.648438,3.550781,13.761719,3.816406C13.871094,4.085938,13.929688,4.332031,13.929688,4.554688L13.929688,14.195312C13.929688,14.417969,13.851562,14.609375,13.695312,14.765625C13.539062,14.921875,13.347656,15,13.125,15L1.875,15C1.652344,15,1.460938,14.921875,1.304688,14.765625C1.148438,14.609375,1.070312,14.417969,1.070312,14.195312L1.070312,0.804688C1.070312,0.582031,1.148438,0.390625,1.304688,0.234375C1.460938,0.078125,1.652344,0,1.875,0L9.375,0C9.597656,0,9.84375,0.0546875,10.113281,0.167969C10.378906,0.277344,10.589844,0.414062,10.746094,0.570312ZM9.644531,1.136719L9.644531,4.285156L12.789062,4.285156C12.734375,4.125,12.671875,4.007812,12.605469,3.941406L9.984375,1.324219C9.917969,1.253906,9.804688,1.195312,9.644531,1.136719ZM12.855469,13.929688L12.855469,5.355469L9.375,5.355469C9.152344,5.355469,8.960938,5.277344,8.804688,5.121094C8.648438,4.964844,8.570312,4.777344,8.570312,4.554688L8.570312,1.070312L2.144531,1.070312L2.144531,13.929688ZM3.023438,6.429688L3.023438,7.324219L3.609375,7.324219L4.980469,12.855469L6.3125,12.855469L7.382812,8.796875C7.421875,8.6875,7.449219,8.558594,7.464844,8.414062C7.476562,8.324219,7.484375,8.257812,7.484375,8.210938L7.515625,8.210938L7.542969,8.414062C7.546875,8.429688,7.558594,8.484375,7.570312,8.578125C7.585938,8.675781,7.601562,8.746094,7.617188,8.796875L8.6875,12.855469L10.019531,12.855469L11.390625,7.324219L11.976562,7.324219L11.976562,6.429688L9.46875,6.429688L9.46875,7.324219L10.21875,7.324219L9.390625,10.992188C9.363281,11.101562,9.34375,11.230469,9.332031,11.375L9.316406,11.550781L9.28125,11.550781L9.257812,11.375C9.253906,11.347656,9.242188,11.289062,9.222656,11.199219C9.207031,11.109375,9.195312,11.039062,9.183594,10.992188L7.976562,6.429688L7.023438,6.429688L5.816406,10.992188C5.804688,11.039062,5.792969,11.109375,5.78125,11.195312C5.765625,11.28125,5.757812,11.34375,5.75,11.375L5.71875,11.550781L5.683594,11.550781L5.667969,11.375C5.65625,11.230469,5.636719,11.101562,5.609375,10.992188L4.78125,7.324219L5.53125,7.324219L5.53125,6.429688ZM3.023438,6.429688" fill="#FFFFFF"/>
    </svg>