<svg version="1.1" xmlns="http://www.w3.org/2000/svg" xlink="http://www.w3.org/1999/xlink" x="0px" y="0px" width="15px" height="15px" viewBox="0 0 15 15" style="enable-background:new 0 0 15 15;" space="preserve">
    <path d="M0.375,13.820312C0.269531,13.925781,0.179688,13.960938,0.109375,13.929688C0.0351562,13.894531,0,13.804688,0,13.660156L0,1.339844C0,1.195312,0.0351562,1.105469,0.109375,1.070312C0.179688,1.039062,0.269531,1.074219,0.375,1.179688L6.320312,7.125C6.363281,7.167969,6.402344,7.222656,6.429688,7.28125L6.429688,1.339844C6.429688,1.195312,6.464844,1.105469,6.539062,1.070312C6.609375,1.039062,6.699219,1.074219,6.804688,1.179688L12.75,7.125C12.792969,7.167969,12.828125,7.222656,12.855469,7.28125L12.855469,1.605469C12.855469,1.460938,12.910156,1.335938,13.015625,1.230469C13.121094,1.125,13.246094,1.070312,13.394531,1.070312L14.464844,1.070312C14.609375,1.070312,14.734375,1.125,14.839844,1.230469C14.945312,1.335938,15,1.460938,15,1.605469L15,13.394531C15,13.539062,14.945312,13.664062,14.839844,13.769531C14.734375,13.875,14.609375,13.929688,14.464844,13.929688L13.394531,13.929688C13.246094,13.929688,13.121094,13.875,13.015625,13.769531C12.910156,13.664062,12.855469,13.539062,12.855469,13.394531L12.855469,7.71875C12.828125,7.773438,12.792969,7.828125,12.75,7.875L6.804688,13.820312C6.699219,13.925781,6.609375,13.960938,6.539062,13.929688C6.464844,13.894531,6.429688,13.804688,6.429688,13.660156L6.429688,7.71875C6.402344,7.773438,6.363281,7.828125,6.320312,7.875ZM0.375,13.820312" fill="#FFFFFF"/>
    </svg>