<svg xmlns="http://www.w3.org/2000/svg" xlink="http://www.w3.org/1999/xlink" width="20px" height="20px" viewBox="0 0 15 15" version="1.1">
  <g id="surface1">
    <path d="M 13.359375 3.179688 C 13.515625 3.335938 13.648438 3.550781 13.761719 3.816406 C 13.871094 4.085938 13.929688 4.332031 13.929688 4.554688 L 13.929688 14.195312 C 13.929688 14.417969 13.851562 14.609375 13.695312 14.765625 C 13.539062 14.921875 13.347656 15 13.125 15 L 1.875 15 C 1.652344 15 1.460938 14.921875 1.304688 14.765625 C 1.148438 14.609375 1.070312 14.417969 1.070312 14.195312 L 1.070312 0.804688 C 1.070312 0.582031 1.148438 0.390625 1.304688 0.234375 C 1.460938 0.078125 1.652344 0 1.875 0 L 9.375 0 C 9.597656 0 9.84375 0.0546875 10.113281 0.167969 C 10.378906 0.277344 10.589844 0.414062 10.746094 0.570312 Z M 9.644531 1.136719 L 9.644531 4.285156 L 12.789062 4.285156 C 12.734375 4.125 12.671875 4.007812 12.605469 3.941406 L 9.984375 1.324219 C 9.917969 1.253906 9.804688 1.195312 9.644531 1.136719 Z M 12.855469 13.929688 L 12.855469 5.355469 L 9.375 5.355469 C 9.152344 5.355469 8.960938 5.277344 8.804688 5.121094 C 8.648438 4.964844 8.570312 4.777344 8.570312 4.554688 L 8.570312 1.070312 L 2.144531 1.070312 L 2.144531 13.929688 Z M 4.554688 11.96875 L 4.554688 12.855469 L 7.289062 12.855469 L 7.289062 11.96875 L 6.511719 11.96875 L 6.511719 10.570312 L 7.660156 10.570312 C 8.082031 10.570312 8.414062 10.53125 8.648438 10.445312 C 9.019531 10.316406 9.316406 10.074219 9.539062 9.71875 C 9.757812 9.359375 9.867188 8.953125 9.867188 8.496094 C 9.867188 8.042969 9.765625 7.652344 9.558594 7.316406 C 9.351562 6.980469 9.074219 6.738281 8.722656 6.585938 C 8.453125 6.480469 8.089844 6.429688 7.632812 6.429688 L 4.554688 6.429688 L 4.554688 7.324219 L 5.324219 7.324219 L 5.324219 11.96875 Z M 7.507812 9.625 L 6.511719 9.625 L 6.511719 7.382812 L 7.515625 7.382812 C 7.808594 7.382812 8.039062 7.433594 8.210938 7.535156 C 8.523438 7.71875 8.679688 8.039062 8.679688 8.496094 C 8.679688 8.992188 8.507812 9.328125 8.160156 9.5 C 7.988281 9.585938 7.769531 9.625 7.507812 9.625 Z M 7.507812 9.625 " fill="#FFFFFF"/>
  </g>
</svg>