<svg xmlns="http://www.w3.org/2000/svg" xlink="http://www.w3.org/1999/xlink" width="20px" height="20px" viewBox="0 0 15 15" version="1.1">
  <g id="surface1">
    <path d="M 13.359375 3.179688 C 13.515625 3.335938 13.648438 3.550781 13.761719 3.816406 C 13.871094 4.085938 13.929688 4.332031 13.929688 4.554688 L 13.929688 14.195312 C 13.929688 14.417969 13.851562 14.609375 13.695312 14.765625 C 13.539062 14.921875 13.347656 15 13.125 15 L 1.875 15 C 1.652344 15 1.460938 14.921875 1.304688 14.765625 C 1.148438 14.609375 1.070312 14.417969 1.070312 14.195312 L 1.070312 0.804688 C 1.070312 0.582031 1.148438 0.390625 1.304688 0.234375 C 1.460938 0.078125 1.652344 0 1.875 0 L 9.375 0 C 9.597656 0 9.84375 0.0546875 10.113281 0.167969 C 10.378906 0.277344 10.589844 0.414062 10.746094 0.570312 Z M 9.644531 1.136719 L 9.644531 4.285156 L 12.789062 4.285156 C 12.734375 4.125 12.671875 4.007812 12.605469 3.941406 L 9.984375 1.324219 C 9.917969 1.253906 9.804688 1.195312 9.644531 1.136719 Z M 12.855469 13.929688 L 12.855469 5.355469 L 9.375 5.355469 C 9.152344 5.355469 8.960938 5.277344 8.804688 5.121094 C 8.648438 4.964844 8.570312 4.777344 8.570312 4.554688 L 8.570312 1.070312 L 2.144531 1.070312 L 2.144531 13.929688 Z M 6.261719 7.113281 C 6.371094 7.160156 6.429688 7.242188 6.429688 7.367188 L 6.429688 11.917969 C 6.429688 12.042969 6.371094 12.125 6.261719 12.171875 C 6.214844 12.183594 6.183594 12.1875 6.160156 12.1875 C 6.09375 12.1875 6.03125 12.164062 5.96875 12.113281 L 4.578125 10.714844 L 3.480469 10.714844 C 3.402344 10.714844 3.339844 10.6875 3.289062 10.640625 C 3.238281 10.589844 3.214844 10.523438 3.214844 10.445312 L 3.214844 8.839844 C 3.214844 8.761719 3.238281 8.695312 3.289062 8.648438 C 3.339844 8.597656 3.402344 8.570312 3.480469 8.570312 L 4.578125 8.570312 L 5.96875 7.171875 C 6.058594 7.089844 6.15625 7.070312 6.261719 7.113281 Z M 9.75 12.882812 C 9.925781 12.882812 10.0625 12.816406 10.171875 12.679688 C 10.890625 11.792969 11.25 10.78125 11.25 9.644531 C 11.25 8.503906 10.890625 7.492188 10.171875 6.605469 C 10.082031 6.488281 9.960938 6.421875 9.808594 6.402344 C 9.660156 6.386719 9.527344 6.425781 9.417969 6.519531 C 9.300781 6.617188 9.234375 6.738281 9.21875 6.882812 C 9.207031 7.03125 9.246094 7.164062 9.339844 7.28125 C 9.898438 7.96875 10.179688 8.753906 10.179688 9.644531 C 10.179688 10.53125 9.898438 11.316406 9.339844 12.003906 C 9.246094 12.121094 9.207031 12.253906 9.21875 12.402344 C 9.234375 12.546875 9.300781 12.667969 9.417969 12.757812 C 9.515625 12.839844 9.628906 12.882812 9.75 12.882812 Z M 7.984375 11.644531 C 8.136719 11.644531 8.265625 11.585938 8.378906 11.476562 C 8.863281 10.957031 9.105469 10.347656 9.105469 9.644531 C 9.105469 8.941406 8.863281 8.328125 8.378906 7.808594 C 8.277344 7.703125 8.152344 7.648438 8.003906 7.640625 C 7.851562 7.636719 7.722656 7.683594 7.617188 7.785156 C 7.511719 7.886719 7.457031 8.007812 7.449219 8.15625 C 7.445312 8.304688 7.496094 8.433594 7.601562 8.546875 C 7.890625 8.863281 8.035156 9.230469 8.035156 9.644531 C 8.035156 10.054688 7.890625 10.421875 7.601562 10.738281 C 7.496094 10.851562 7.445312 10.980469 7.449219 11.128906 C 7.457031 11.277344 7.511719 11.402344 7.617188 11.5 C 7.730469 11.597656 7.851562 11.644531 7.984375 11.644531 Z M 7.984375 11.644531 " fill="#FFFFFF"/>
  </g>
</svg>