<?xml version="1.0" encoding="UTF-8" standalone="yes"?>
<svg xmlns="http://www.w3.org/2000/svg" xmlns:xlink="http://www.w3.org/1999/xlink" width="20px" height="20px" viewBox="0 0 15 15" version="1.1">
  <g id="surface1">
    <path style=" stroke:none;fill-rule:nonzero;fill:rgb(0%,0%,0%);fill-opacity:1;" d="M 6.605469 4.679688 L 5.179688 8.445312 C 5.367188 8.445312 5.746094 8.453125 6.324219 8.460938 C 6.902344 8.472656 7.347656 8.480469 7.667969 8.480469 C 7.773438 8.480469 7.933594 8.472656 8.144531 8.460938 C 7.660156 7.050781 7.144531 5.789062 6.605469 4.679688 Z M 0.535156 13.929688 L 0.550781 13.265625 C 0.679688 13.226562 0.835938 13.191406 1.019531 13.164062 C 1.207031 13.132812 1.363281 13.101562 1.5 13.074219 C 1.632812 13.046875 1.769531 13.007812 1.914062 12.953125 C 2.054688 12.898438 2.179688 12.820312 2.285156 12.710938 C 2.390625 12.601562 2.476562 12.460938 2.542969 12.289062 L 4.527344 7.132812 L 6.871094 1.070312 L 7.945312 1.070312 C 7.988281 1.148438 8.019531 1.207031 8.035156 1.246094 L 9.75 5.265625 C 9.9375 5.699219 10.230469 6.417969 10.640625 7.421875 C 11.046875 8.421875 11.363281 9.1875 11.59375 9.71875 C 11.675781 9.90625 11.839844 10.3125 12.078125 10.929688 C 12.320312 11.542969 12.519531 12.015625 12.679688 12.339844 C 12.792969 12.589844 12.890625 12.75 12.972656 12.816406 C 13.082031 12.898438 13.324219 12.980469 13.710938 13.0625 C 14.097656 13.144531 14.332031 13.199219 14.414062 13.234375 C 14.449219 13.445312 14.464844 13.605469 14.464844 13.710938 C 14.464844 13.734375 14.460938 13.769531 14.460938 13.820312 C 14.457031 13.871094 14.457031 13.90625 14.457031 13.929688 C 14.105469 13.929688 13.574219 13.90625 12.867188 13.863281 C 12.15625 13.816406 11.625 13.792969 11.265625 13.792969 C 10.84375 13.792969 10.242188 13.8125 9.46875 13.851562 C 8.691406 13.890625 8.195312 13.914062 7.976562 13.921875 C 7.976562 13.679688 7.988281 13.460938 8.011719 13.265625 L 9.105469 13.03125 C 9.113281 13.03125 9.148438 13.027344 9.210938 13.011719 C 9.277344 12.996094 9.320312 12.988281 9.339844 12.984375 C 9.363281 12.976562 9.40625 12.964844 9.460938 12.945312 C 9.523438 12.925781 9.5625 12.90625 9.589844 12.890625 C 9.613281 12.875 9.644531 12.851562 9.679688 12.824219 C 9.714844 12.796875 9.742188 12.765625 9.757812 12.730469 C 9.769531 12.699219 9.777344 12.660156 9.777344 12.613281 C 9.777344 12.523438 9.691406 12.253906 9.515625 11.804688 C 9.34375 11.355469 9.144531 10.863281 8.914062 10.320312 C 8.6875 9.78125 8.570312 9.5 8.5625 9.484375 L 4.796875 9.46875 C 4.652344 9.789062 4.4375 10.335938 4.15625 11.101562 C 3.875 11.871094 3.734375 12.324219 3.734375 12.464844 C 3.734375 12.585938 3.773438 12.691406 3.851562 12.777344 C 3.929688 12.863281 4.050781 12.933594 4.214844 12.984375 C 4.378906 13.03125 4.515625 13.070312 4.621094 13.09375 C 4.726562 13.121094 4.886719 13.144531 5.097656 13.167969 C 5.308594 13.1875 5.425781 13.199219 5.441406 13.199219 C 5.445312 13.304688 5.449219 13.46875 5.449219 13.6875 C 5.449219 13.734375 5.445312 13.8125 5.433594 13.910156 C 5.109375 13.910156 4.621094 13.882812 3.972656 13.828125 C 3.320312 13.773438 2.835938 13.746094 2.511719 13.746094 C 2.464844 13.746094 2.390625 13.753906 2.289062 13.777344 C 2.1875 13.800781 2.125 13.8125 2.109375 13.8125 C 1.664062 13.890625 1.136719 13.929688 0.535156 13.929688 Z M 0.535156 13.929688 "/>
  </g>
</svg>