<svg version="1.1" xmlns="http://www.w3.org/2000/svg" xlink="http://www.w3.org/1999/xlink" x="0px" y="0px" width="15px" height="15px" viewBox="0 0 15 15" style="enable-background:new 0 0 15 15;" space="preserve">
    <path d="M13.359375,3.179688C13.515625,3.335938,13.648438,3.550781,13.761719,3.816406C13.871094,4.085938,13.929688,4.332031,13.929688,4.554688L13.929688,14.195312C13.929688,14.417969,13.851562,14.609375,13.695312,14.765625C13.539062,14.921875,13.347656,15,13.125,15L1.875,15C1.652344,15,1.460938,14.921875,1.304688,14.765625C1.148438,14.609375,1.070312,14.417969,1.070312,14.195312L1.070312,0.804688C1.070312,0.582031,1.148438,0.390625,1.304688,0.234375C1.460938,0.078125,1.652344,0,1.875,0L9.375,0C9.597656,0,9.84375,0.0546875,10.113281,0.167969C10.378906,0.277344,10.589844,0.414062,10.746094,0.570312ZM9.644531,1.136719L9.644531,4.285156L12.789062,4.285156C12.734375,4.125,12.671875,4.007812,12.605469,3.941406L9.984375,1.324219C9.917969,1.253906,9.804688,1.195312,9.644531,1.136719ZM12.855469,13.929688L12.855469,5.355469L9.375,5.355469C9.152344,5.355469,8.960938,5.277344,8.804688,5.121094C8.648438,4.964844,8.570312,4.777344,8.570312,4.554688L8.570312,1.070312L2.144531,1.070312L2.144531,13.929688ZM4.554688,11.96875L4.554688,12.855469L7.289062,12.855469L7.289062,11.96875L6.511719,11.96875L6.511719,10.570312L7.660156,10.570312C8.082031,10.570312,8.414062,10.53125,8.648438,10.445312C9.019531,10.316406,9.316406,10.074219,9.539062,9.71875C9.757812,9.359375,9.867188,8.953125,9.867188,8.496094C9.867188,8.042969,9.765625,7.652344,9.558594,7.316406C9.351562,6.980469,9.074219,6.738281,8.722656,6.585938C8.453125,6.480469,8.089844,6.429688,7.632812,6.429688L4.554688,6.429688L4.554688,7.324219L5.324219,7.324219L5.324219,11.96875ZM7.507812,9.625L6.511719,9.625L6.511719,7.382812L7.515625,7.382812C7.808594,7.382812,8.039062,7.433594,8.210938,7.535156C8.523438,7.71875,8.679688,8.039062,8.679688,8.496094C8.679688,8.992188,8.507812,9.328125,8.160156,9.5C7.988281,9.585938,7.769531,9.625,7.507812,9.625ZM7.507812,9.625" fill="#FFFFFF"/>
    </svg>