<svg version="1.1" xmlns="http://www.w3.org/2000/svg" xlink="http://www.w3.org/1999/xlink" x="0px" y="0px" width="15px" height="15px" viewBox="0 0 15 15" style="enable-background:new 0 0 15 15;" space="preserve">
    <path d="M13.929688,8.746094L13.929688,3.589844C12.984375,4.097656,12.132812,4.351562,11.367188,4.351562C10.910156,4.351562,10.503906,4.261719,10.152344,4.085938C9.59375,3.8125,9.082031,3.597656,8.613281,3.445312C8.144531,3.289062,7.648438,3.214844,7.125,3.214844C6.15625,3.214844,5.035156,3.570312,3.75,4.277344L3.75,9.292969C5.117188,8.660156,6.324219,8.34375,7.375,8.34375C7.679688,8.34375,7.96875,8.367188,8.242188,8.40625C8.511719,8.449219,8.785156,8.523438,9.0625,8.625C9.335938,8.730469,9.550781,8.816406,9.707031,8.886719C9.859375,8.953125,10.089844,9.066406,10.394531,9.214844L10.628906,9.332031C10.875,9.457031,11.15625,9.515625,11.476562,9.515625C12.144531,9.515625,12.964844,9.261719,13.929688,8.746094ZM2.679688,2.144531C2.679688,2.339844,2.628906,2.515625,2.53125,2.679688C2.433594,2.839844,2.304688,2.96875,2.144531,3.0625L2.144531,13.660156C2.144531,13.738281,2.117188,13.804688,2.066406,13.851562C2.015625,13.902344,1.953125,13.929688,1.875,13.929688L1.339844,13.929688C1.261719,13.929688,1.195312,13.902344,1.148438,13.851562C1.097656,13.804688,1.070312,13.738281,1.070312,13.660156L1.070312,3.0625C0.910156,2.96875,0.78125,2.839844,0.683594,2.679688C0.585938,2.515625,0.535156,2.339844,0.535156,2.144531C0.535156,1.847656,0.640625,1.59375,0.851562,1.386719C1.058594,1.175781,1.3125,1.070312,1.605469,1.070312C1.902344,1.070312,2.15625,1.175781,2.363281,1.386719C2.574219,1.59375,2.679688,1.847656,2.679688,2.144531ZM15,2.679688L15,9.066406C15,9.28125,14.902344,9.441406,14.707031,9.542969C14.652344,9.570312,14.605469,9.59375,14.566406,9.617188C13.347656,10.265625,12.320312,10.589844,11.476562,10.589844C10.984375,10.589844,10.542969,10.492188,10.152344,10.296875L9.917969,10.179688C9.5625,9.996094,9.285156,9.859375,9.089844,9.777344C8.894531,9.691406,8.640625,9.613281,8.328125,9.535156C8.015625,9.457031,7.699219,9.417969,7.375,9.417969C6.804688,9.417969,6.148438,9.539062,5.402344,9.785156C4.65625,10.03125,4.019531,10.316406,3.492188,10.640625C3.40625,10.6875,3.316406,10.714844,3.214844,10.714844C3.125,10.714844,3.035156,10.691406,2.945312,10.648438C2.769531,10.542969,2.679688,10.386719,2.679688,10.179688L2.679688,3.96875C2.679688,3.773438,2.765625,3.617188,2.9375,3.507812C3.132812,3.390625,3.351562,3.269531,3.59375,3.152344C3.835938,3.03125,4.15625,2.886719,4.550781,2.714844C4.941406,2.546875,5.367188,2.40625,5.824219,2.300781C6.285156,2.195312,6.714844,2.144531,7.125,2.144531C7.75,2.144531,8.332031,2.230469,8.871094,2.402344C9.414062,2.574219,9.996094,2.816406,10.621094,3.121094C10.835938,3.226562,11.082031,3.28125,11.367188,3.28125C12.046875,3.28125,12.914062,2.96875,13.960938,2.34375C14.085938,2.277344,14.171875,2.230469,14.222656,2.203125C14.394531,2.113281,14.566406,2.117188,14.742188,2.21875C14.914062,2.328125,15,2.484375,15,2.679688ZM15,2.679688" fill="#FFFFFF"/>
    </svg>