<svg version="1.1" xmlns="http://www.w3.org/2000/svg" xlink="http://www.w3.org/1999/xlink" x="0px" y="0px" width="15px" height="15px" viewBox="0 0 15 15" style="enable-background:new 0 0 15 15;" space="preserve">
    <path d="m8.4354419,0.43101165c-2.3398678,0,-4.3832534,1.42441435,-5.5205482,2.64311165L0.64368502,1.3563479C0.3282177,1.1176018,-0.14277267,1.3719522,-0.06215036,1.7376134l0.62885407,2.8545501l-0.62911414,2.8548104c-0.08062231,0.365661,0.39036806,0.6197511,0.70583538,0.381265L2.9146337,6.1104641c1.1372948,1.218437,3.1809404,2.6428516,5.5208082,2.6428516c3.5749501,0,6.4731921,-3.3289219,6.4731921,-4.1611522c0,-0.8322304,-2.898242,-4.16115185,-6.4731921,-4.16115185zM10.709252,5.2163362c-0.344596,0,-0.624174,-0.2795774,-0.624174,-0.6241727c0,-0.3448554,0.279578,-0.6241728,0.624174,-0.6241728c0.344855,0,0.624172,0.2793174,0.624172,0.6241728c0,0.3445953,-0.279578,0.6241727,-0.624172,0.6241727z" fill="#FFFFFF"/>
    </svg>