<svg xmlns="http://www.w3.org/2000/svg" xlink="http://www.w3.org/1999/xlink" width="20px" height="20px" viewBox="0 0 15 15" version="1.1">
  <g id="surface1">
    <path d="M 13.359375 3.179688 C 13.515625 3.335938 13.648438 3.550781 13.761719 3.816406 C 13.871094 4.085938 13.929688 4.332031 13.929688 4.554688 L 13.929688 14.195312 C 13.929688 14.417969 13.851562 14.609375 13.695312 14.765625 C 13.539062 14.921875 13.347656 15 13.125 15 L 1.875 15 C 1.652344 15 1.460938 14.921875 1.304688 14.765625 C 1.148438 14.609375 1.070312 14.417969 1.070312 14.195312 L 1.070312 0.804688 C 1.070312 0.582031 1.148438 0.390625 1.304688 0.234375 C 1.460938 0.078125 1.652344 0 1.875 0 L 9.375 0 C 9.597656 0 9.84375 0.0546875 10.113281 0.167969 C 10.378906 0.277344 10.589844 0.414062 10.746094 0.570312 Z M 9.644531 1.136719 L 9.644531 4.285156 L 12.789062 4.285156 C 12.734375 4.125 12.671875 4.007812 12.605469 3.941406 L 9.984375 1.324219 C 9.917969 1.253906 9.804688 1.195312 9.644531 1.136719 Z M 12.855469 13.929688 L 12.855469 5.355469 L 9.375 5.355469 C 9.152344 5.355469 8.960938 5.277344 8.804688 5.121094 C 8.648438 4.964844 8.570312 4.777344 8.570312 4.554688 L 8.570312 1.070312 L 2.144531 1.070312 L 2.144531 13.929688 Z M 3.023438 6.429688 L 3.023438 7.324219 L 3.609375 7.324219 L 4.980469 12.855469 L 6.3125 12.855469 L 7.382812 8.796875 C 7.421875 8.6875 7.449219 8.558594 7.464844 8.414062 C 7.476562 8.324219 7.484375 8.257812 7.484375 8.210938 L 7.515625 8.210938 L 7.542969 8.414062 C 7.546875 8.429688 7.558594 8.484375 7.570312 8.578125 C 7.585938 8.675781 7.601562 8.746094 7.617188 8.796875 L 8.6875 12.855469 L 10.019531 12.855469 L 11.390625 7.324219 L 11.976562 7.324219 L 11.976562 6.429688 L 9.46875 6.429688 L 9.46875 7.324219 L 10.21875 7.324219 L 9.390625 10.992188 C 9.363281 11.101562 9.34375 11.230469 9.332031 11.375 L 9.316406 11.550781 L 9.28125 11.550781 L 9.257812 11.375 C 9.253906 11.347656 9.242188 11.289062 9.222656 11.199219 C 9.207031 11.109375 9.195312 11.039062 9.183594 10.992188 L 7.976562 6.429688 L 7.023438 6.429688 L 5.816406 10.992188 C 5.804688 11.039062 5.792969 11.109375 5.78125 11.195312 C 5.765625 11.28125 5.757812 11.34375 5.75 11.375 L 5.71875 11.550781 L 5.683594 11.550781 L 5.667969 11.375 C 5.65625 11.230469 5.636719 11.101562 5.609375 10.992188 L 4.78125 7.324219 L 5.53125 7.324219 L 5.53125 6.429688 Z M 3.023438 6.429688 " fill="#FFFFFF"/>
  </g>
</svg>