<svg version="1.1" xmlns="http://www.w3.org/2000/svg" xlink="http://www.w3.org/1999/xlink" x="0px" y="0px" width="15px" height="15px" viewBox="0 0 15 15" style="enable-background:new 0 0 15 15;" space="preserve">
    <path d="M13.359375,3.179688C13.515625,3.335938,13.648438,3.550781,13.761719,3.816406C13.871094,4.085938,13.929688,4.332031,13.929688,4.554688L13.929688,14.195312C13.929688,14.417969,13.851562,14.609375,13.695312,14.765625C13.539062,14.921875,13.347656,15,13.125,15L1.875,15C1.652344,15,1.460938,14.921875,1.304688,14.765625C1.148438,14.609375,1.070312,14.417969,1.070312,14.195312L1.070312,0.804688C1.070312,0.582031,1.148438,0.390625,1.304688,0.234375C1.460938,0.078125,1.652344,0,1.875,0L9.375,0C9.597656,0,9.84375,0.0546875,10.113281,0.167969C10.378906,0.277344,10.589844,0.414062,10.746094,0.570312ZM9.644531,1.136719L9.644531,4.285156L12.789062,4.285156C12.734375,4.125,12.671875,4.007812,12.605469,3.941406L9.984375,1.324219C9.917969,1.253906,9.804688,1.195312,9.644531,1.136719ZM12.855469,13.929688L12.855469,5.355469L9.375,5.355469C9.152344,5.355469,8.960938,5.277344,8.804688,5.121094C8.648438,4.964844,8.570312,4.777344,8.570312,4.554688L8.570312,1.070312L2.144531,1.070312L2.144531,13.929688ZM7.5,6.429688C7.789062,6.429688,8.042969,6.535156,8.253906,6.746094C8.464844,6.957031,8.570312,7.210938,8.570312,7.5L8.570312,10.714844C8.570312,11.003906,8.464844,11.253906,8.253906,11.46875C8.042969,11.679688,7.789062,11.785156,7.5,11.785156L4.285156,11.785156C3.996094,11.785156,3.746094,11.679688,3.53125,11.46875C3.320312,11.253906,3.214844,11.003906,3.214844,10.714844L3.214844,7.5C3.214844,7.210938,3.320312,6.957031,3.53125,6.746094C3.746094,6.535156,3.996094,6.429688,4.285156,6.429688ZM11.617188,6.445312C11.730469,6.488281,11.785156,6.574219,11.785156,6.695312L11.785156,11.519531C11.785156,11.640625,11.730469,11.722656,11.617188,11.769531C11.574219,11.78125,11.539062,11.785156,11.519531,11.785156C11.441406,11.785156,11.375,11.761719,11.324219,11.710938L9.105469,9.484375L9.105469,8.730469L11.324219,6.503906C11.375,6.453125,11.441406,6.429688,11.519531,6.429688C11.539062,6.429688,11.574219,6.433594,11.617188,6.445312ZM11.617188,6.445312" fill="#FFFFFF"/>
    </svg>