<?xml version="1.0" encoding="UTF-8" standalone="yes"?>
<svg xmlns="http://www.w3.org/2000/svg" xmlns:xlink="http://www.w3.org/1999/xlink" width="20px" height="20px" viewBox="0 0 15 15" version="1.1">
  <g id="surface1">
    <path style=" stroke:none;fill-rule:nonzero;fill:rgb(0%,0%,0%);fill-opacity:1;" d="M 0.375 13.820312 C 0.269531 13.925781 0.179688 13.960938 0.109375 13.929688 C 0.0351562 13.894531 0 13.804688 0 13.660156 L 0 1.339844 C 0 1.195312 0.0351562 1.105469 0.109375 1.070312 C 0.179688 1.039062 0.269531 1.074219 0.375 1.179688 L 6.320312 7.125 C 6.363281 7.167969 6.402344 7.222656 6.429688 7.28125 L 6.429688 1.339844 C 6.429688 1.195312 6.464844 1.105469 6.539062 1.070312 C 6.609375 1.039062 6.699219 1.074219 6.804688 1.179688 L 12.75 7.125 C 12.792969 7.167969 12.828125 7.222656 12.855469 7.28125 L 12.855469 1.605469 C 12.855469 1.460938 12.910156 1.335938 13.015625 1.230469 C 13.121094 1.125 13.246094 1.070312 13.394531 1.070312 L 14.464844 1.070312 C 14.609375 1.070312 14.734375 1.125 14.839844 1.230469 C 14.945312 1.335938 15 1.460938 15 1.605469 L 15 13.394531 C 15 13.539062 14.945312 13.664062 14.839844 13.769531 C 14.734375 13.875 14.609375 13.929688 14.464844 13.929688 L 13.394531 13.929688 C 13.246094 13.929688 13.121094 13.875 13.015625 13.769531 C 12.910156 13.664062 12.855469 13.539062 12.855469 13.394531 L 12.855469 7.71875 C 12.828125 7.773438 12.792969 7.828125 12.75 7.875 L 6.804688 13.820312 C 6.699219 13.925781 6.609375 13.960938 6.539062 13.929688 C 6.464844 13.894531 6.429688 13.804688 6.429688 13.660156 L 6.429688 7.71875 C 6.402344 7.773438 6.363281 7.828125 6.320312 7.875 Z M 0.375 13.820312 "/>
  </g>
</svg>