<?xml version="1.0" encoding="UTF-8" standalone="yes"?>
<svg xmlns="http://www.w3.org/2000/svg" xmlns:xlink="http://www.w3.org/1999/xlink" width="20px" height="20px" viewBox="0 0 15 15" version="1.1">
  <g id="surface1">
    <path style=" stroke:none;fill-rule:nonzero;fill:rgb(0%,0%,0%);fill-opacity:1;" d="M 15.191406 7.96875 C 15.191406 8.140625 15.105469 8.324219 14.933594 8.519531 L 12.121094 11.835938 C 11.878906 12.121094 11.542969 12.363281 11.113281 12.558594 C 10.679688 12.757812 10.277344 12.855469 9.910156 12.855469 L 0.804688 12.855469 C 0.613281 12.855469 0.445312 12.820312 0.296875 12.75 C 0.148438 12.675781 0.0742188 12.554688 0.0742188 12.386719 C 0.0742188 12.214844 0.160156 12.03125 0.335938 11.835938 L 3.148438 8.519531 C 3.386719 8.238281 3.722656 7.996094 4.15625 7.796875 C 4.589844 7.597656 4.988281 7.5 5.355469 7.5 L 14.464844 7.5 C 14.652344 7.5 14.824219 7.535156 14.96875 7.609375 C 15.117188 7.679688 15.191406 7.800781 15.191406 7.96875 Z M 12.320312 5.089844 L 12.320312 6.429688 L 5.355469 6.429688 C 4.832031 6.429688 4.28125 6.5625 3.707031 6.828125 C 3.132812 7.089844 2.675781 7.425781 2.335938 7.828125 L -0.484375 11.140625 L -0.527344 11.191406 C -0.527344 11.167969 -0.527344 11.132812 -0.53125 11.085938 C -0.535156 11.039062 -0.535156 11.003906 -0.535156 10.980469 L -0.535156 2.945312 C -0.535156 2.433594 -0.351562 1.992188 0.015625 1.625 C 0.386719 1.253906 0.824219 1.070312 1.339844 1.070312 L 4.019531 1.070312 C 4.53125 1.070312 4.972656 1.253906 5.339844 1.625 C 5.707031 1.992188 5.894531 2.433594 5.894531 2.945312 L 5.894531 3.214844 L 10.445312 3.214844 C 10.960938 3.214844 11.402344 3.398438 11.769531 3.765625 C 12.136719 4.136719 12.320312 4.574219 12.320312 5.089844 Z M 12.320312 5.089844 "/>
  </g>
</svg>