<svg xmlns="http://www.w3.org/2000/svg" xlink="http://www.w3.org/1999/xlink" width="20px" height="20px" viewBox="0 0 15 15" version="1.1">
  <g id="surface1">
    <path d="M 13.359375 3.179688 C 13.515625 3.335938 13.648438 3.550781 13.761719 3.816406 C 13.871094 4.085938 13.929688 4.332031 13.929688 4.554688 L 13.929688 14.195312 C 13.929688 14.417969 13.851562 14.609375 13.695312 14.765625 C 13.539062 14.921875 13.347656 15 13.125 15 L 1.875 15 C 1.652344 15 1.460938 14.921875 1.304688 14.765625 C 1.148438 14.609375 1.070312 14.417969 1.070312 14.195312 L 1.070312 0.804688 C 1.070312 0.582031 1.148438 0.390625 1.304688 0.234375 C 1.460938 0.078125 1.652344 0 1.875 0 L 9.375 0 C 9.597656 0 9.84375 0.0546875 10.113281 0.167969 C 10.378906 0.277344 10.589844 0.414062 10.746094 0.570312 Z M 9.644531 1.136719 L 9.644531 4.285156 L 12.789062 4.285156 C 12.734375 4.125 12.671875 4.007812 12.605469 3.941406 L 9.984375 1.324219 C 9.917969 1.253906 9.804688 1.195312 9.644531 1.136719 Z M 12.855469 13.929688 L 12.855469 5.355469 L 9.375 5.355469 C 9.152344 5.355469 8.960938 5.277344 8.804688 5.121094 C 8.648438 4.964844 8.570312 4.777344 8.570312 4.554688 L 8.570312 1.070312 L 2.144531 1.070312 L 2.144531 13.929688 Z M 5.089844 6.429688 C 5.132812 6.367188 5.191406 6.332031 5.265625 6.324219 C 5.335938 6.316406 5.40625 6.332031 5.464844 6.378906 L 5.894531 6.695312 C 5.953125 6.742188 5.988281 6.800781 5.996094 6.871094 C 6.007812 6.945312 5.988281 7.011719 5.941406 7.074219 L 4.417969 9.105469 L 5.941406 11.140625 C 5.988281 11.203125 6.007812 11.269531 5.996094 11.34375 C 5.988281 11.414062 5.953125 11.472656 5.894531 11.519531 L 5.464844 11.835938 C 5.40625 11.878906 5.335938 11.898438 5.265625 11.890625 C 5.191406 11.882812 5.132812 11.847656 5.089844 11.785156 L 3.199219 9.265625 C 3.121094 9.160156 3.121094 9.054688 3.199219 8.949219 Z M 11.800781 8.949219 C 11.878906 9.054688 11.878906 9.160156 11.800781 9.265625 L 9.910156 11.785156 C 9.867188 11.847656 9.808594 11.882812 9.734375 11.890625 C 9.664062 11.898438 9.59375 11.878906 9.535156 11.835938 L 9.105469 11.519531 C 9.046875 11.472656 9.011719 11.414062 9.003906 11.34375 C 8.992188 11.269531 9.011719 11.203125 9.058594 11.140625 L 10.582031 9.105469 L 9.058594 7.074219 C 9.011719 7.011719 8.992188 6.945312 9.003906 6.871094 C 9.011719 6.800781 9.046875 6.742188 9.105469 6.695312 L 9.535156 6.378906 C 9.59375 6.332031 9.664062 6.316406 9.734375 6.324219 C 9.808594 6.332031 9.867188 6.367188 9.910156 6.429688 Z M 6.613281 12.808594 C 6.539062 12.796875 6.484375 12.757812 6.441406 12.699219 C 6.398438 12.636719 6.382812 12.570312 6.394531 12.496094 L 7.550781 5.542969 C 7.5625 5.46875 7.597656 5.410156 7.660156 5.371094 C 7.71875 5.328125 7.789062 5.3125 7.859375 5.324219 L 8.386719 5.40625 C 8.460938 5.417969 8.515625 5.453125 8.558594 5.515625 C 8.601562 5.578125 8.617188 5.644531 8.605469 5.71875 L 7.449219 12.671875 C 7.4375 12.746094 7.402344 12.804688 7.339844 12.84375 C 7.28125 12.886719 7.210938 12.902344 7.140625 12.890625 Z M 6.613281 12.808594 " fill="#FFFFFF"/>
  </g>
</svg>