<svg xmlns="http://www.w3.org/2000/svg" xlink="http://www.w3.org/1999/xlink" width="20px" height="20px" viewBox="0 0 15 15" version="1.1">
  <g id="surface1">
    <path d="M 7.558594 15 C 5.980469 15 4.570312 14.578125 3.335938 13.742188 C 2.101562 12.898438 1.179688 11.789062 0.578125 10.40625 C 0.253906 9.671875 0.0664062 8.832031 0.015625 7.886719 C -0.0351562 6.9375 0.0390625 6.007812 0.234375 5.101562 C 0.429688 4.195312 0.738281 3.324219 1.164062 2.492188 C 1.585938 1.65625 2.085938 0.980469 2.660156 0.460938 L 2.570312 2.8125 C 2.632812 2.734375 2.820312 2.691406 3.140625 2.683594 C 3.457031 2.675781 3.652344 2.71875 3.726562 2.8125 C 3.960938 2.359375 4.40625 1.976562 5.070312 1.65625 C 5.730469 1.339844 6.382812 1.175781 7.03125 1.164062 C 6.730469 1.414062 6.394531 1.828125 6.03125 2.40625 C 5.664062 2.984375 5.503906 3.441406 5.542969 3.773438 C 5.679688 3.820312 5.855469 3.855469 6.0625 3.886719 C 6.273438 3.917969 6.449219 3.941406 6.59375 3.949219 C 6.734375 3.960938 6.921875 3.972656 7.160156 3.984375 C 7.398438 3.996094 7.539062 4.003906 7.582031 4.007812 C 7.667969 4.039062 7.695312 4.164062 7.664062 4.390625 C 7.632812 4.617188 7.546875 4.828125 7.40625 5.023438 C 7.378906 5.0625 7.332031 5.113281 7.269531 5.175781 C 7.207031 5.242188 7.046875 5.339844 6.796875 5.472656 C 6.546875 5.609375 6.265625 5.703125 5.953125 5.757812 L 6.078125 7.339844 L 4.914062 6.78125 C 4.8125 7.019531 4.792969 7.246094 4.851562 7.460938 C 4.910156 7.675781 5.007812 7.863281 5.152344 8.019531 C 5.292969 8.175781 5.476562 8.289062 5.699219 8.367188 C 5.921875 8.441406 6.148438 8.460938 6.378906 8.421875 C 6.664062 8.371094 6.9375 8.273438 7.199219 8.132812 C 7.460938 7.988281 7.695312 7.863281 7.898438 7.753906 C 8.101562 7.648438 8.304688 7.597656 8.511719 7.609375 C 8.851562 7.632812 9.101562 7.722656 9.261719 7.886719 C 9.421875 8.046875 9.476562 8.226562 9.425781 8.429688 C 9.417969 8.441406 9.414062 8.457031 9.40625 8.476562 C 9.394531 8.496094 9.371094 8.53125 9.332031 8.578125 C 9.292969 8.628906 9.242188 8.671875 9.183594 8.710938 C 9.121094 8.746094 9.03125 8.773438 8.917969 8.796875 C 8.804688 8.820312 8.675781 8.824219 8.53125 8.804688 C 8.195312 9.335938 7.792969 9.714844 7.320312 9.941406 C 6.847656 10.164062 6.265625 10.25 5.566406 10.1875 C 5.980469 10.527344 6.433594 10.757812 6.925781 10.878906 C 7.421875 10.996094 7.890625 11.015625 8.335938 10.929688 C 8.785156 10.839844 9.214844 10.695312 9.628906 10.492188 C 10.046875 10.289062 10.402344 10.042969 10.703125 9.761719 C 11 9.476562 11.226562 9.183594 11.375 8.890625 C 11.617188 8.382812 11.722656 7.84375 11.703125 7.277344 C 11.679688 6.710938 11.574219 6.1875 11.386719 5.699219 C 11.199219 5.214844 10.980469 4.867188 10.730469 4.652344 C 11.214844 4.867188 11.597656 5.085938 11.878906 5.320312 C 12.15625 5.550781 12.371094 5.863281 12.523438 6.261719 C 12.605469 5.3125 12.445312 4.355469 12.039062 3.390625 C 11.636719 2.425781 11.050781 1.632812 10.289062 1.011719 C 11.765625 1.441406 12.914062 2.222656 13.734375 3.351562 C 14.554688 4.484375 14.976562 5.925781 15 7.683594 C 15.011719 8.394531 14.898438 9.105469 14.660156 9.820312 C 14.421875 10.53125 14.078125 11.195312 13.628906 11.8125 C 13.175781 12.425781 12.648438 12.972656 12.046875 13.453125 C 11.441406 13.929688 10.75 14.308594 9.972656 14.585938 C 9.195312 14.863281 8.390625 15 7.558594 15 Z M 7.558594 15 " fill="#FFFFFF"/>
  </g>
</svg>