<?xml version="1.0" encoding="UTF-8" standalone="yes"?>
<svg xmlns="http://www.w3.org/2000/svg" xmlns:xlink="http://www.w3.org/1999/xlink" width="20px" height="20px" viewBox="0 0 15 15" version="1.1">
  <g id="surface1">
    <path style=" stroke:none;fill-rule:nonzero;fill:rgb(0%,0%,0%);fill-opacity:1;" d="M 5.097656 6.832031 L 7.5 5.089844 L 9.902344 6.832031 L 8.988281 9.644531 L 6.019531 9.644531 Z M 7.5 0 C 8.515625 0 9.488281 0.199219 10.414062 0.59375 C 11.339844 0.992188 12.136719 1.523438 12.808594 2.191406 C 13.476562 2.863281 14.007812 3.660156 14.40625 4.585938 C 14.800781 5.511719 15 6.484375 15 7.5 C 15 8.515625 14.800781 9.488281 14.40625 10.414062 C 14.007812 11.339844 13.476562 12.136719 12.808594 12.808594 C 12.136719 13.476562 11.339844 14.007812 10.414062 14.40625 C 9.488281 14.800781 8.515625 15 7.5 15 C 6.484375 15 5.511719 14.800781 4.585938 14.40625 C 3.660156 14.007812 2.863281 13.476562 2.191406 12.808594 C 1.523438 12.136719 0.992188 11.339844 0.59375 10.414062 C 0.199219 9.488281 0 8.515625 0 7.5 C 0 6.484375 0.199219 5.511719 0.59375 4.585938 C 0.992188 3.660156 1.523438 2.863281 2.191406 2.191406 C 2.863281 1.523438 3.660156 0.992188 4.585938 0.59375 C 5.511719 0.199219 6.484375 0 7.5 0 Z M 12.679688 11.300781 C 13.511719 10.167969 13.929688 8.902344 13.929688 7.5 L 13.929688 7.476562 L 13.074219 8.21875 L 11.066406 6.34375 L 11.59375 3.640625 L 12.714844 3.742188 C 11.878906 2.59375 10.792969 1.804688 9.457031 1.382812 L 9.902344 2.417969 L 7.5 3.75 L 5.097656 2.417969 L 5.542969 1.382812 C 4.207031 1.804688 3.121094 2.59375 2.285156 3.742188 L 3.414062 3.640625 L 3.933594 6.34375 L 1.925781 8.21875 L 1.070312 7.476562 L 1.070312 7.5 C 1.070312 8.902344 1.488281 10.167969 2.320312 11.300781 L 2.570312 10.195312 L 5.296875 10.53125 L 6.460938 13.023438 L 5.492188 13.601562 C 6.144531 13.820312 6.8125 13.929688 7.5 13.929688 C 8.1875 13.929688 8.855469 13.820312 9.507812 13.601562 L 8.539062 13.023438 L 9.703125 10.53125 L 12.429688 10.195312 Z M 12.679688 11.300781 "/>
  </g>
</svg>