<svg version="1.1" xmlns="http://www.w3.org/2000/svg" xlink="http://www.w3.org/1999/xlink" x="0px" y="0px" width="15px" height="17.142857142857142px" viewBox="0 0 15 17.142857142857142" style="enable-background:new 0 0 15 15;" space="preserve">
    <path d="M14.532154017857142,0.8815513392857143l-5.625,0.9375C8.527667410714287,1.8822991071428572,8.571428571428571,2.2700892857142856,8.571428571428571,2.4107142857142856h-1.9530803571428572C6.976104910714286,1.2089732142857141,6.075200892857143,0,4.821428571428571,0c-1.3203683035714286,0,-2.222142857142857,1.3284375,-1.7487053571428572,2.5514397321428572c-1.7423772321428572,0.43697544642857145,-2.5239174107142857,1.8151674107142857,-3.0150334821428575,3.0429910714285713c-0.1648325892857143,0.41206473214285716,0.03559151785714285,0.8797098214285715,0.44765625,1.0445424107142856c0.41239955357142855,0.16493303571428572,0.8798772321428571,-0.03599330357142857,1.0445089285714286,-0.44765625C2.5131026785714288,3.7831473214285714,3.5813839285714284,4.017857142857142,5.625,4.017857142857142v0.9065624999999999c-1.3909486607142856,0.36368303571428573,-2.4107142857142856,1.6484933035714284,-2.4107142857142856,3.151640625V16.339285714285715c0,0.44380580357142857,0.359765625,0.8035714285714286,0.8035714285714286,0.8035714285714286h4.821428571428571c0.44380580357142857,0,0.8035714285714286,-0.359765625,0.8035714285714286,-0.8035714285714286V8.035714285714285c0,-1.497689732142857,-1.0244196428571428,-2.7559821428571425,-2.4107142857142856,-3.1128348214285713V4.017857142857142h1.3392857142857142c0,0.09957589285714286,-0.05702008928571429,0.5262053571428571,0.3357254464285714,0.5916629464285714l5.625,0.9375C14.777075892857141,5.5878348214285705,15,5.398995535714286,15,5.1506919642857145V1.277879464285714c0,-0.24830357142857143,-0.22292410714285715,-0.4371428571428571,-0.46784598214285716,-0.396328125zM4.821428571428571,2.4107142857142856c-0.29537946428571427,0,-0.5357142857142857,-0.24033482142857143,-0.5357142857142857,-0.5357142857142857s0.24033482142857143,-0.5357142857142857,0.5357142857142857,-0.5357142857142857s0.5357142857142857,0.24033482142857143,0.5357142857142857,0.5357142857142857s-0.24033482142857143,0.5357142857142857,-0.5357142857142857,0.5357142857142857z" fill="#FFFFFF"/>
    </svg>