<svg version="1.1" xmlns="http://www.w3.org/2000/svg" xlink="http://www.w3.org/1999/xlink" x="0px" y="0px" width="15px" height="15px" viewBox="0 0 15 15" style="enable-background:new 0 0 15 15;" space="preserve">
    <path d="M13.21875,1.070312C13.414062,1.070312,13.578125,1.140625,13.71875,1.28125C13.859375,1.421875,13.929688,1.585938,13.929688,1.78125L13.929688,13.21875C13.929688,13.414062,13.859375,13.578125,13.71875,13.71875C13.578125,13.859375,13.414062,13.929688,13.21875,13.929688L9.945312,13.929688L9.945312,8.949219L11.609375,8.949219L11.859375,7.007812L9.945312,7.007812L9.945312,5.765625C9.945312,5.453125,10.007812,5.21875,10.140625,5.0625C10.273438,4.90625,10.527344,4.828125,10.90625,4.828125L11.929688,4.820312L11.929688,3.089844C11.578125,3.039062,11.078125,3.011719,10.4375,3.011719C9.679688,3.011719,9.070312,3.238281,8.617188,3.683594C8.164062,4.128906,7.933594,4.761719,7.933594,5.574219L7.933594,7.007812L6.261719,7.007812L6.261719,8.949219L7.933594,8.949219L7.933594,13.929688L1.78125,13.929688C1.585938,13.929688,1.421875,13.859375,1.28125,13.71875C1.140625,13.578125,1.070312,13.414062,1.070312,13.21875L1.070312,1.78125C1.070312,1.585938,1.140625,1.421875,1.28125,1.28125C1.421875,1.140625,1.585938,1.070312,1.78125,1.070312ZM13.21875,1.070312" fill="#FFFFFF"/>
    </svg>