<svg xmlns="http://www.w3.org/2000/svg" xlink="http://www.w3.org/1999/xlink" width="20px" height="20px" viewBox="0 0 15 15" version="1.1">
  <g id="surface1">
    <path d="M 1.070312 1.070312 L 13.929688 1.070312 L 13.929688 13.929688 L 1.070312 13.929688 Z M 8.671875 3.75 L 8.570312 4.027344 L 9.199219 4.722656 L 8.941406 5.675781 L 9.148438 5.882812 L 10.042969 5.40625 L 10.941406 5.882812 L 11.148438 5.675781 L 10.890625 4.722656 L 11.519531 4.027344 L 11.417969 3.75 L 10.621094 3.75 L 10.179688 2.945312 L 9.910156 2.945312 L 9.46875 3.75 Z M 6.4375 5.113281 C 6.617188 5.113281 6.738281 5.160156 6.808594 5.25 C 6.878906 5.335938 6.910156 5.511719 6.90625 5.777344 L 8.363281 5.601562 C 8.363281 5.292969 8.3125 5.035156 8.214844 4.824219 C 8.117188 4.617188 7.976562 4.460938 7.792969 4.355469 C 7.609375 4.253906 7.417969 4.183594 7.214844 4.144531 C 7.015625 4.105469 6.777344 4.085938 6.503906 4.085938 C 5.761719 4.085938 5.207031 4.246094 4.839844 4.566406 C 4.46875 4.886719 4.285156 5.394531 4.285156 6.09375 L 4.285156 6.695312 L 3.480469 6.695312 L 3.480469 7.769531 L 4.117188 7.769531 C 4.230469 7.769531 4.285156 7.789062 4.285156 7.835938 L 4.285156 11.03125 C 4.285156 11.109375 4.273438 11.167969 4.242188 11.199219 C 4.214844 11.234375 4.164062 11.253906 4.09375 11.257812 L 3.480469 11.316406 L 3.480469 12.054688 L 7.230469 12.054688 L 7.230469 11.332031 L 5.984375 11.214844 C 5.953125 11.210938 5.925781 11.207031 5.914062 11.203125 C 5.898438 11.199219 5.890625 11.195312 5.882812 11.183594 C 5.878906 11.171875 5.878906 11.160156 5.878906 11.148438 C 5.882812 11.136719 5.886719 11.117188 5.890625 11.089844 C 5.890625 11.0625 5.894531 11.035156 5.894531 11.007812 L 5.894531 7.769531 L 7.492188 7.769531 L 7.808594 6.695312 L 5.875 6.695312 C 5.84375 6.695312 5.835938 6.679688 5.859375 6.644531 C 5.882812 6.613281 5.894531 6.585938 5.894531 6.570312 L 5.894531 5.902344 C 5.894531 5.75 5.898438 5.636719 5.90625 5.5625 C 5.914062 5.488281 5.933594 5.410156 5.96875 5.328125 C 6 5.246094 6.054688 5.191406 6.132812 5.160156 C 6.207031 5.128906 6.308594 5.113281 6.4375 5.113281 Z M 11.519531 12.054688 L 11.519531 11.332031 L 11.066406 11.257812 C 11.027344 11.253906 11 11.246094 10.984375 11.238281 C 10.972656 11.230469 10.964844 11.21875 10.964844 11.210938 C 10.964844 11.203125 10.96875 11.183594 10.972656 11.148438 C 10.980469 11.117188 10.980469 11.082031 10.980469 11.050781 L 10.980469 6.695312 L 8.679688 6.695312 L 8.488281 7.542969 L 9.183594 7.726562 C 9.3125 7.765625 9.375 7.839844 9.375 7.953125 L 9.375 11.050781 C 9.375 11.128906 9.359375 11.179688 9.324219 11.203125 C 9.292969 11.230469 9.234375 11.246094 9.15625 11.257812 L 8.570312 11.332031 L 8.570312 12.054688 Z M 11.519531 12.054688 " fill="#FFFFFF"/>
  </g>
</svg>