<?xml version="1.0" encoding="UTF-8" standalone="yes"?>
<svg xmlns="http://www.w3.org/2000/svg" xmlns:xlink="http://www.w3.org/1999/xlink" width="20px" height="20px" viewBox="0 0 15 15" version="1.1">
  <g id="surface1">
    <path style=" stroke:none;fill-rule:nonzero;fill:rgb(0%,0%,0%);fill-opacity:1;" d="M 10.511719 3.632812 L 10.824219 2.007812 C 10.851562 1.878906 10.824219 1.769531 10.746094 1.675781 C 10.667969 1.578125 10.570312 1.53125 10.453125 1.53125 L 4.496094 1.53125 C 4.367188 1.53125 4.257812 1.578125 4.171875 1.675781 C 4.085938 1.769531 4.042969 1.871094 4.042969 1.984375 L 4.042969 11.199219 C 4.042969 11.238281 4.058594 11.242188 4.09375 11.207031 L 6.527344 8.261719 C 6.65625 8.117188 6.761719 8.023438 6.847656 7.980469 C 6.929688 7.9375 7.066406 7.917969 7.25 7.917969 L 9.25 7.917969 C 9.371094 7.917969 9.476562 7.878906 9.558594 7.796875 C 9.644531 7.714844 9.691406 7.632812 9.710938 7.550781 C 9.84375 6.824219 9.945312 6.292969 10.019531 5.953125 C 10.042969 5.835938 10.007812 5.722656 9.921875 5.617188 C 9.835938 5.511719 9.734375 5.457031 9.617188 5.457031 L 7.15625 5.457031 C 6.996094 5.457031 6.859375 5.40625 6.753906 5.296875 C 6.648438 5.191406 6.597656 5.058594 6.597656 4.898438 L 6.597656 4.546875 C 6.597656 4.382812 6.648438 4.25 6.753906 4.148438 C 6.859375 4.042969 6.996094 3.992188 7.15625 3.992188 L 10.054688 3.992188 C 10.152344 3.992188 10.25 3.953125 10.347656 3.878906 C 10.441406 3.804688 10.496094 3.722656 10.511719 3.632812 Z M 12.414062 1.773438 C 12.328125 2.183594 12.179688 2.925781 11.964844 4.003906 C 11.75 5.085938 11.558594 6.0625 11.382812 6.933594 C 11.210938 7.808594 11.113281 8.292969 11.089844 8.386719 C 11.058594 8.511719 11.03125 8.601562 11.015625 8.660156 C 11 8.71875 10.960938 8.808594 10.898438 8.929688 C 10.835938 9.054688 10.769531 9.144531 10.695312 9.207031 C 10.617188 9.269531 10.511719 9.328125 10.371094 9.382812 C 10.230469 9.4375 10.070312 9.46875 9.886719 9.46875 L 7.617188 9.46875 C 7.542969 9.46875 7.484375 9.496094 7.433594 9.550781 C 7.386719 9.601562 6.199219 10.980469 3.867188 13.6875 C 3.746094 13.824219 3.582031 13.90625 3.378906 13.925781 C 3.171875 13.945312 3.039062 13.929688 2.972656 13.878906 C 2.664062 13.753906 2.511719 13.480469 2.511719 13.058594 L 2.511719 1.253906 C 2.511719 0.949219 2.617188 0.664062 2.828125 0.398438 C 3.042969 0.132812 3.375 0 3.832031 0 L 11.265625 0 C 11.796875 0 12.152344 0.148438 12.328125 0.445312 C 12.507812 0.738281 12.535156 1.183594 12.414062 1.773438 Z M 12.414062 1.773438 L 11.089844 8.386719 C 11.113281 8.292969 11.210938 7.808594 11.382812 6.933594 C 11.558594 6.0625 11.75 5.085938 11.964844 4.003906 C 12.179688 2.925781 12.328125 2.183594 12.414062 1.773438 Z M 12.414062 1.773438 "/>
  </g>
</svg>