<?xml version="1.0" encoding="UTF-8" standalone="yes"?>
<svg xmlns="http://www.w3.org/2000/svg" xmlns:xlink="http://www.w3.org/1999/xlink" width="20px" height="20px" viewBox="0 0 15 15" version="1.1">
  <g id="surface1">
    <path style=" stroke:none;fill-rule:nonzero;fill:rgb(0%,0%,0%);fill-opacity:1;" d="M 11.519531 1.070312 C 12.183594 1.070312 12.75 1.308594 13.222656 1.777344 C 13.691406 2.25 13.929688 2.816406 13.929688 3.480469 L 13.929688 11.519531 C 13.929688 12.183594 13.691406 12.75 13.222656 13.222656 C 12.75 13.691406 12.183594 13.929688 11.519531 13.929688 L 9.945312 13.929688 L 9.945312 8.949219 L 11.609375 8.949219 L 11.859375 7.007812 L 9.945312 7.007812 L 9.945312 5.765625 C 9.945312 5.453125 10.007812 5.21875 10.140625 5.0625 C 10.273438 4.90625 10.527344 4.828125 10.90625 4.828125 L 11.929688 4.820312 L 11.929688 3.089844 C 11.578125 3.039062 11.078125 3.011719 10.4375 3.011719 C 9.679688 3.011719 9.070312 3.238281 8.617188 3.683594 C 8.164062 4.128906 7.933594 4.761719 7.933594 5.574219 L 7.933594 7.007812 L 6.261719 7.007812 L 6.261719 8.949219 L 7.933594 8.949219 L 7.933594 13.929688 L 3.480469 13.929688 C 2.816406 13.929688 2.25 13.691406 1.777344 13.222656 C 1.308594 12.75 1.070312 12.183594 1.070312 11.519531 L 1.070312 3.480469 C 1.070312 2.816406 1.308594 2.25 1.777344 1.777344 C 2.25 1.308594 2.816406 1.070312 3.480469 1.070312 Z M 11.519531 1.070312 "/>
  </g>
</svg>