<svg version="1.1" xmlns="http://www.w3.org/2000/svg" xlink="http://www.w3.org/1999/xlink" x="0px" y="0px" width="15px" height="18.75px" viewBox="0 0 15 18.75" style="enable-background:new 0 0 15 15;" space="preserve">
    <path d="M19.921875,8.203125l-4.6875,-0.5859375l-1.7578125,-0.5859375h-0.87890625L8.3187744140625,1.611328125h1.44686279296875C10.192858886718753,1.611328125,10.546875,1.51519775390625,10.546875,1.3916015625s-0.35401611328125,-0.2197265625,-0.78123779296875,-0.2197265625H5.56640625v0.439453125h0.5859375v6.005859375h-1.7578125l-2.44141845703125,-2.9296875H0.68360595703125L0.29296875,5.078137207031251V7.6171875h0.29296875v0.5859375h1.7578125v0.09763183593750001l-2.34375,0.29296875v1.56251220703125l2.34375,0.29296875V10.546875H0.5859375v0.5859375H0.29296875v2.5390502929687497L0.68360595703125,14.0625h1.26954345703125L4.39453125,11.1328125h1.7578125v6.005859375h-0.5859375v0.439453125h4.199230957031251c0.42725830078125,0,0.78123779296875,-0.09613037109375,0.78123779296875,-0.2197265625s-0.35401611328125,-0.2197265625,-0.78123779296875,-0.2197265625h-1.44686279296875L12.59765625,11.71875h0.87890625l1.7578125,-0.5859375l4.6875,-0.5859375c3.515625,-0.78123779296875,3.515625,-0.97349853515625,3.515625,-1.171875c0,-0.19837646484375,0,-0.39063720703125,-3.515625,-1.171875z" fill="#FFFFFF"/>
    </svg>