<?xml version="1.0" encoding="UTF-8" standalone="yes"?>
<svg xmlns="http://www.w3.org/2000/svg" xmlns:xlink="http://www.w3.org/1999/xlink" width="20px" height="20px" viewBox="0 0 15 15" version="1.1">
  <g id="surface1">
    <path style=" stroke:none;fill-rule:nonzero;fill:rgb(0%,0%,0%);fill-opacity:1;" d="M 13.359375 3.179688 C 13.515625 3.335938 13.648438 3.550781 13.761719 3.816406 C 13.871094 4.085938 13.929688 4.332031 13.929688 4.554688 L 13.929688 14.195312 C 13.929688 14.417969 13.851562 14.609375 13.695312 14.765625 C 13.539062 14.921875 13.347656 15 13.125 15 L 1.875 15 C 1.652344 15 1.460938 14.921875 1.304688 14.765625 C 1.148438 14.609375 1.070312 14.417969 1.070312 14.195312 L 1.070312 0.804688 C 1.070312 0.582031 1.148438 0.390625 1.304688 0.234375 C 1.460938 0.078125 1.652344 0 1.875 0 L 9.375 0 C 9.597656 0 9.84375 0.0546875 10.113281 0.167969 C 10.378906 0.277344 10.589844 0.414062 10.746094 0.570312 Z M 9.644531 1.136719 L 9.644531 4.285156 L 12.789062 4.285156 C 12.734375 4.125 12.671875 4.007812 12.605469 3.941406 L 9.984375 1.324219 C 9.917969 1.253906 9.804688 1.195312 9.644531 1.136719 Z M 12.855469 13.929688 L 12.855469 5.355469 L 9.375 5.355469 C 9.152344 5.355469 8.960938 5.277344 8.804688 5.121094 C 8.648438 4.964844 8.570312 4.777344 8.570312 4.554688 L 8.570312 1.070312 L 2.144531 1.070312 L 2.144531 13.929688 Z M 7.5 6.429688 C 7.789062 6.429688 8.042969 6.535156 8.253906 6.746094 C 8.464844 6.957031 8.570312 7.210938 8.570312 7.5 L 8.570312 10.714844 C 8.570312 11.003906 8.464844 11.253906 8.253906 11.46875 C 8.042969 11.679688 7.789062 11.785156 7.5 11.785156 L 4.285156 11.785156 C 3.996094 11.785156 3.746094 11.679688 3.53125 11.46875 C 3.320312 11.253906 3.214844 11.003906 3.214844 10.714844 L 3.214844 7.5 C 3.214844 7.210938 3.320312 6.957031 3.53125 6.746094 C 3.746094 6.535156 3.996094 6.429688 4.285156 6.429688 Z M 11.617188 6.445312 C 11.730469 6.488281 11.785156 6.574219 11.785156 6.695312 L 11.785156 11.519531 C 11.785156 11.640625 11.730469 11.722656 11.617188 11.769531 C 11.574219 11.78125 11.539062 11.785156 11.519531 11.785156 C 11.441406 11.785156 11.375 11.761719 11.324219 11.710938 L 9.105469 9.484375 L 9.105469 8.730469 L 11.324219 6.503906 C 11.375 6.453125 11.441406 6.429688 11.519531 6.429688 C 11.539062 6.429688 11.574219 6.433594 11.617188 6.445312 Z M 11.617188 6.445312 "/>
  </g>
</svg>