<svg version="1.1" xmlns="http://www.w3.org/2000/svg" xlink="http://www.w3.org/1999/xlink" x="0px" y="0px" width="15px" height="15px" viewBox="0 0 15 15" style="enable-background:new 0 0 15 15;" space="preserve">
    <path d="M11.242188,0.101562L11.242188,2.308594L9.925781,2.308594C9.449219,2.308594,9.125,2.410156,8.957031,2.613281C8.789062,2.8125,8.707031,3.113281,8.707031,3.515625L8.707031,5.097656L11.15625,5.097656L10.832031,7.574219L8.707031,7.574219L8.707031,13.929688L6.144531,13.929688L6.144531,7.574219L4.007812,7.574219L4.007812,5.097656L6.144531,5.097656L6.144531,3.273438C6.144531,2.234375,6.433594,1.429688,7.015625,0.859375C7.59375,0.285156,8.367188,0,9.332031,0C10.152344,0,10.789062,0.0351562,11.242188,0.101562ZM11.242188,0.101562" fill="#FFFFFF"/>
    </svg>