<?xml version="1.0" encoding="UTF-8" standalone="yes"?>
<svg xmlns="http://www.w3.org/2000/svg" xmlns:xlink="http://www.w3.org/1999/xlink" width="20px" height="20px" viewBox="0 0 15 15" version="1.1">
  <g id="surface1">
    <path style=" stroke:none;fill-rule:nonzero;fill:rgb(0%,0%,0%);fill-opacity:1;" d="M 13.394531 10.980469 L 13.394531 5.089844 C 13.394531 4.867188 13.316406 4.675781 13.160156 4.519531 C 13.003906 4.363281 12.8125 4.285156 12.589844 4.285156 L 6.695312 4.285156 C 6.472656 4.285156 6.285156 4.207031 6.128906 4.050781 C 5.972656 3.894531 5.894531 3.707031 5.894531 3.480469 L 5.894531 2.945312 C 5.894531 2.722656 5.816406 2.535156 5.660156 2.378906 C 5.503906 2.222656 5.3125 2.144531 5.089844 2.144531 L 2.410156 2.144531 C 2.1875 2.144531 1.996094 2.222656 1.839844 2.378906 C 1.683594 2.535156 1.605469 2.722656 1.605469 2.945312 L 1.605469 10.980469 C 1.605469 11.207031 1.683594 11.394531 1.839844 11.550781 C 1.996094 11.707031 2.1875 11.785156 2.410156 11.785156 L 12.589844 11.785156 C 12.8125 11.785156 13.003906 11.707031 13.160156 11.550781 C 13.316406 11.394531 13.394531 11.207031 13.394531 10.980469 Z M 14.464844 5.089844 L 14.464844 10.980469 C 14.464844 11.496094 14.28125 11.9375 13.910156 12.304688 C 13.542969 12.671875 13.101562 12.855469 12.589844 12.855469 L 2.410156 12.855469 C 1.898438 12.855469 1.457031 12.671875 1.089844 12.304688 C 0.71875 11.9375 0.535156 11.496094 0.535156 10.980469 L 0.535156 2.945312 C 0.535156 2.433594 0.71875 1.992188 1.089844 1.625 C 1.457031 1.253906 1.898438 1.070312 2.410156 1.070312 L 5.089844 1.070312 C 5.601562 1.070312 6.042969 1.253906 6.410156 1.625 C 6.78125 1.992188 6.964844 2.433594 6.964844 2.945312 L 6.964844 3.214844 L 12.589844 3.214844 C 13.101562 3.214844 13.542969 3.398438 13.910156 3.765625 C 14.28125 4.136719 14.464844 4.574219 14.464844 5.089844 Z M 14.464844 5.089844 "/>
  </g>
</svg>