<svg version="1.1" xmlns="http://www.w3.org/2000/svg" xlink="http://www.w3.org/1999/xlink" x="0px" y="0px" width="15px" height="16.875px" viewBox="0 0 15 16.875" style="enable-background:new 0 0 15 15;" space="preserve">
    <path d="M0,2.63671875v11.6015625c0,0.8734130859375,0.7086181640625,1.58203125,1.58203125,1.58203125h1.58203125V1.0546875H1.58203125C0.7086181640625,1.0546875,0,1.7633056640625,0,2.63671875zm4.21875,13.18359375h10.546875V1.0546875H4.21875v14.765625zm2.109375,-8.173828125c0,-0.14501953125,0.11865234375,-0.263671875,0.263671875,-0.263671875h1.845703125v-1.845703125c0,-0.14501953125,0.11865234375,-0.263671875,0.263671875,-0.263671875h1.58203125c0.14501953125,0,0.263671875,0.11865234375,0.263671875,0.263671875v1.845703125h1.845703125c0.14501953125,0,0.263671875,0.11865234375,0.263671875,0.263671875v1.58203125c0,0.14501953125,-0.11865234375,0.263671875,-0.263671875,0.263671875h-1.845703125v1.845703125c0,0.14501953125,-0.11865234375,0.263671875,-0.263671875,0.263671875h-1.58203125c-0.14501953125,0,-0.263671875,-0.11865234375,-0.263671875,-0.263671875v-1.845703125h-1.845703125c-0.14501953125,0,-0.263671875,-0.11865234375,-0.263671875,-0.263671875v-1.58203125zM17.40234375,1.0546875h-1.58203125v14.765625h1.58203125c0.8734130859375,0,1.58203125,-0.7086181640625,1.58203125,-1.58203125V2.63671875c0,-0.8734130859375,-0.7086181640625,-1.58203125,-1.58203125,-1.58203125z" fill="#FFFFFF"/>
    </svg>