<?xml version="1.0" encoding="UTF-8" standalone="yes"?>
<svg xmlns="http://www.w3.org/2000/svg" xmlns:xlink="http://www.w3.org/1999/xlink" width="20px" height="20px" viewBox="0 0 15 15" version="1.1">
  <g id="surface1">
    <path style=" stroke:none;fill-rule:nonzero;fill:rgb(0%,0%,0%);fill-opacity:1;" d="M 11.242188 0.101562 L 11.242188 2.308594 L 9.925781 2.308594 C 9.449219 2.308594 9.125 2.410156 8.957031 2.613281 C 8.789062 2.8125 8.707031 3.113281 8.707031 3.515625 L 8.707031 5.097656 L 11.15625 5.097656 L 10.832031 7.574219 L 8.707031 7.574219 L 8.707031 13.929688 L 6.144531 13.929688 L 6.144531 7.574219 L 4.007812 7.574219 L 4.007812 5.097656 L 6.144531 5.097656 L 6.144531 3.273438 C 6.144531 2.234375 6.433594 1.429688 7.015625 0.859375 C 7.59375 0.285156 8.367188 0 9.332031 0 C 10.152344 0 10.789062 0.0351562 11.242188 0.101562 Z M 11.242188 0.101562 "/>
  </g>
</svg>