<svg xmlns="http://www.w3.org/2000/svg" xlink="http://www.w3.org/1999/xlink" width="20px" height="20px" viewBox="0 0 15 15" version="1.1">
  <g id="surface1">
    <path d="M 10.5625 10.289062 C 10.609375 10.425781 10.597656 10.5625 10.53125 10.695312 C 10.464844 10.824219 10.359375 10.914062 10.21875 10.957031 C 10.082031 11 9.945312 10.992188 9.808594 10.921875 C 9.675781 10.855469 9.585938 10.75 9.542969 10.605469 C 9.402344 10.160156 9.144531 9.796875 8.769531 9.523438 C 8.390625 9.246094 7.96875 9.105469 7.5 9.105469 C 7.03125 9.105469 6.609375 9.246094 6.230469 9.523438 C 5.855469 9.796875 5.597656 10.160156 5.457031 10.605469 C 5.414062 10.75 5.324219 10.855469 5.195312 10.921875 C 5.0625 10.992188 4.925781 11 4.789062 10.957031 C 4.644531 10.914062 4.535156 10.824219 4.46875 10.695312 C 4.402344 10.5625 4.390625 10.425781 4.4375 10.289062 C 4.644531 9.613281 5.027344 9.066406 5.589844 8.65625 C 6.15625 8.242188 6.792969 8.035156 7.5 8.035156 C 8.207031 8.035156 8.84375 8.242188 9.410156 8.65625 C 9.972656 9.066406 10.355469 9.613281 10.5625 10.289062 Z M 6.429688 5.355469 C 6.429688 5.652344 6.324219 5.90625 6.113281 6.113281 C 5.90625 6.324219 5.652344 6.429688 5.355469 6.429688 C 5.0625 6.429688 4.808594 6.324219 4.601562 6.113281 C 4.390625 5.90625 4.285156 5.652344 4.285156 5.355469 C 4.285156 5.0625 4.390625 4.808594 4.601562 4.601562 C 4.808594 4.390625 5.0625 4.285156 5.355469 4.285156 C 5.652344 4.285156 5.90625 4.390625 6.113281 4.601562 C 6.324219 4.808594 6.429688 5.0625 6.429688 5.355469 Z M 10.714844 5.355469 C 10.714844 5.652344 10.609375 5.90625 10.398438 6.113281 C 10.191406 6.324219 9.9375 6.429688 9.644531 6.429688 C 9.347656 6.429688 9.09375 6.324219 8.886719 6.113281 C 8.675781 5.90625 8.570312 5.652344 8.570312 5.355469 C 8.570312 5.0625 8.675781 4.808594 8.886719 4.601562 C 9.09375 4.390625 9.347656 4.285156 9.644531 4.285156 C 9.9375 4.285156 10.191406 4.390625 10.398438 4.601562 C 10.609375 4.808594 10.714844 5.0625 10.714844 5.355469 Z M 12.855469 7.5 C 12.855469 6.773438 12.714844 6.082031 12.429688 5.421875 C 12.144531 4.757812 11.765625 4.1875 11.289062 3.710938 C 10.8125 3.234375 10.242188 2.855469 9.578125 2.570312 C 8.917969 2.285156 8.226562 2.144531 7.5 2.144531 C 6.773438 2.144531 6.082031 2.285156 5.421875 2.570312 C 4.757812 2.855469 4.1875 3.234375 3.710938 3.710938 C 3.234375 4.1875 2.855469 4.757812 2.570312 5.421875 C 2.285156 6.082031 2.144531 6.773438 2.144531 7.5 C 2.144531 8.226562 2.285156 8.917969 2.570312 9.578125 C 2.855469 10.242188 3.234375 10.8125 3.710938 11.289062 C 4.1875 11.765625 4.757812 12.144531 5.421875 12.429688 C 6.082031 12.714844 6.773438 12.855469 7.5 12.855469 C 8.226562 12.855469 8.917969 12.714844 9.578125 12.429688 C 10.242188 12.144531 10.8125 11.765625 11.289062 11.289062 C 11.765625 10.8125 12.144531 10.242188 12.429688 9.578125 C 12.714844 8.917969 12.855469 8.226562 12.855469 7.5 Z M 13.929688 7.5 C 13.929688 8.667969 13.640625 9.742188 13.066406 10.726562 C 12.492188 11.710938 11.710938 12.492188 10.726562 13.066406 C 9.742188 13.640625 8.667969 13.929688 7.5 13.929688 C 6.332031 13.929688 5.257812 13.640625 4.273438 13.066406 C 3.289062 12.492188 2.507812 11.710938 1.933594 10.726562 C 1.359375 9.742188 1.070312 8.667969 1.070312 7.5 C 1.070312 6.332031 1.359375 5.257812 1.933594 4.273438 C 2.507812 3.289062 3.289062 2.507812 4.273438 1.933594 C 5.257812 1.359375 6.332031 1.070312 7.5 1.070312 C 8.667969 1.070312 9.742188 1.359375 10.726562 1.933594 C 11.710938 2.507812 12.492188 3.289062 13.066406 4.273438 C 13.640625 5.257812 13.929688 6.332031 13.929688 7.5 Z M 13.929688 7.5 " fill="#FFFFFF"/>
  </g>
</svg>