<svg xmlns="http://www.w3.org/2000/svg" xlink="http://www.w3.org/1999/xlink" width="20px" height="20px" viewBox="0 0 15 15" version="1.1">
  <g id="surface1">
    <path d="M 14.371094 7.792969 C 14.371094 7.597656 14.222656 7.5 13.929688 7.5 L 4.820312 7.5 C 4.597656 7.5 4.359375 7.558594 4.105469 7.679688 C 3.851562 7.800781 3.652344 7.945312 3.507812 8.121094 L 1.046875 11.15625 C 0.945312 11.292969 0.894531 11.402344 0.894531 11.492188 C 0.894531 11.6875 1.042969 11.785156 1.339844 11.785156 L 10.445312 11.785156 C 10.667969 11.785156 10.910156 11.722656 11.167969 11.601562 C 11.421875 11.480469 11.621094 11.332031 11.761719 11.15625 L 14.222656 8.121094 C 14.320312 7.996094 14.371094 7.886719 14.371094 7.792969 Z M 4.820312 6.429688 L 11.25 6.429688 L 11.25 5.089844 C 11.25 4.867188 11.171875 4.675781 11.015625 4.519531 C 10.859375 4.363281 10.667969 4.285156 10.445312 4.285156 L 5.625 4.285156 C 5.402344 4.285156 5.210938 4.207031 5.054688 4.050781 C 4.898438 3.894531 4.820312 3.707031 4.820312 3.480469 L 4.820312 2.945312 C 4.820312 2.722656 4.742188 2.535156 4.585938 2.378906 C 4.429688 2.222656 4.242188 2.144531 4.019531 2.144531 L 1.339844 2.144531 C 1.117188 2.144531 0.925781 2.222656 0.769531 2.378906 C 0.613281 2.535156 0.535156 2.722656 0.535156 2.945312 L 0.535156 10.085938 L 2.679688 7.449219 C 2.925781 7.152344 3.246094 6.910156 3.648438 6.71875 C 4.050781 6.523438 4.441406 6.429688 4.820312 6.429688 Z M 15.445312 7.792969 C 15.445312 8.140625 15.316406 8.472656 15.058594 8.796875 L 12.589844 11.835938 C 12.347656 12.132812 12.027344 12.375 11.617188 12.570312 C 11.210938 12.761719 10.820312 12.855469 10.445312 12.855469 L 1.339844 12.855469 C 0.824219 12.855469 0.386719 12.671875 0.015625 12.304688 C -0.351562 11.9375 -0.535156 11.496094 -0.535156 10.980469 L -0.535156 2.945312 C -0.535156 2.433594 -0.351562 1.992188 0.015625 1.625 C 0.386719 1.253906 0.824219 1.070312 1.339844 1.070312 L 4.019531 1.070312 C 4.53125 1.070312 4.972656 1.253906 5.339844 1.625 C 5.707031 1.992188 5.894531 2.433594 5.894531 2.945312 L 5.894531 3.214844 L 10.445312 3.214844 C 10.960938 3.214844 11.402344 3.398438 11.769531 3.765625 C 12.136719 4.136719 12.320312 4.574219 12.320312 5.089844 L 12.320312 6.429688 L 13.929688 6.429688 C 14.230469 6.429688 14.507812 6.496094 14.757812 6.632812 C 15.007812 6.769531 15.195312 6.96875 15.316406 7.222656 C 15.402344 7.402344 15.445312 7.59375 15.445312 7.792969 Z M 15.445312 7.792969 " fill="#FFFFFF"/>
  </g>
</svg>