<svg version="1.1" xmlns="http://www.w3.org/2000/svg" xlink="http://www.w3.org/1999/xlink" x="0px" y="0px" width="15px" height="15px" viewBox="0 0 15 15" style="enable-background:new 0 0 15 15;" space="preserve">
    <path d="M0.914062,13.820312C0.804688,13.925781,0.71875,13.960938,0.644531,13.929688C0.570312,13.894531,0.535156,13.804688,0.535156,13.660156L0.535156,1.339844C0.535156,1.195312,0.570312,1.105469,0.644531,1.070312C0.71875,1.039062,0.804688,1.074219,0.914062,1.179688L6.855469,7.125C6.898438,7.167969,6.9375,7.222656,6.964844,7.28125L6.964844,1.339844C6.964844,1.195312,7,1.105469,7.074219,1.070312C7.144531,1.039062,7.234375,1.074219,7.339844,1.179688L13.285156,7.125C13.390625,7.230469,13.441406,7.355469,13.441406,7.5C13.441406,7.644531,13.390625,7.769531,13.285156,7.875L7.339844,13.820312C7.234375,13.925781,7.144531,13.960938,7.074219,13.929688C7,13.894531,6.964844,13.804688,6.964844,13.660156L6.964844,7.71875C6.9375,7.773438,6.898438,7.828125,6.855469,7.875ZM0.914062,13.820312" fill="#FFFFFF"/>
    </svg>