<svg version="1.1" xmlns="http://www.w3.org/2000/svg" xlink="http://www.w3.org/1999/xlink" x="0px" y="0px" width="15px" height="15px" viewBox="0 0 15 15" style="enable-background:new 0 0 15 15;" space="preserve">
    <path d="M6.429688,3.214844L6.429688,2.144531L5.355469,2.144531L5.355469,3.214844ZM7.5,4.285156L7.5,3.214844L6.429688,3.214844L6.429688,4.285156ZM6.429688,5.355469L6.429688,4.285156L5.355469,4.285156L5.355469,5.355469ZM7.5,6.429688L7.5,5.355469L6.429688,5.355469L6.429688,6.429688ZM13.359375,3.179688C13.515625,3.335938,13.648438,3.550781,13.761719,3.816406C13.871094,4.085938,13.929688,4.332031,13.929688,4.554688L13.929688,14.195312C13.929688,14.417969,13.851562,14.609375,13.695312,14.765625C13.539062,14.921875,13.347656,15,13.125,15L1.875,15C1.652344,15,1.460938,14.921875,1.304688,14.765625C1.148438,14.609375,1.070312,14.417969,1.070312,14.195312L1.070312,0.804688C1.070312,0.582031,1.148438,0.390625,1.304688,0.234375C1.460938,0.078125,1.652344,0,1.875,0L9.375,0C9.597656,0,9.84375,0.0546875,10.113281,0.167969C10.378906,0.277344,10.589844,0.414062,10.746094,0.570312ZM9.644531,1.136719L9.644531,4.285156L12.789062,4.285156C12.734375,4.125,12.671875,4.007812,12.605469,3.941406L9.984375,1.324219C9.917969,1.253906,9.804688,1.195312,9.644531,1.136719ZM12.855469,13.929688L12.855469,5.355469L9.375,5.355469C9.152344,5.355469,8.960938,5.277344,8.804688,5.121094C8.648438,4.964844,8.570312,4.777344,8.570312,4.554688L8.570312,1.070312L7.5,1.070312L7.5,2.144531L6.429688,2.144531L6.429688,1.070312L2.144531,1.070312L2.144531,13.929688ZM7.609375,7.894531L8.503906,10.816406C8.550781,10.964844,8.570312,11.109375,8.570312,11.25C8.570312,11.714844,8.367188,12.097656,7.964844,12.402344C7.558594,12.703125,7.046875,12.855469,6.429688,12.855469C5.808594,12.855469,5.296875,12.703125,4.890625,12.402344C4.488281,12.097656,4.285156,11.714844,4.285156,11.25C4.285156,11.109375,4.308594,10.964844,4.351562,10.816406C4.46875,10.464844,4.804688,9.359375,5.355469,7.5L5.355469,6.429688L6.429688,6.429688L6.429688,7.5L7.089844,7.5C7.210938,7.5,7.320312,7.535156,7.417969,7.609375C7.511719,7.679688,7.574219,7.777344,7.609375,7.894531ZM6.429688,11.785156C6.722656,11.785156,6.976562,11.734375,7.1875,11.625C7.394531,11.519531,7.5,11.394531,7.5,11.25C7.5,11.105469,7.394531,10.980469,7.1875,10.875C6.976562,10.765625,6.722656,10.714844,6.429688,10.714844C6.132812,10.714844,5.878906,10.765625,5.671875,10.875C5.460938,10.980469,5.355469,11.105469,5.355469,11.25C5.355469,11.394531,5.460938,11.519531,5.671875,11.625C5.878906,11.734375,6.132812,11.785156,6.429688,11.785156ZM6.429688,11.785156" fill="#FFFFFF"/>
    </svg>