<svg xmlns="http://www.w3.org/2000/svg" xlink="http://www.w3.org/1999/xlink" width="20px" height="20px" viewBox="0 0 15 15" version="1.1">
  <g id="surface1">
    <path d="M 14.625 1.179688 C 14.730469 1.074219 14.820312 1.039062 14.890625 1.070312 C 14.964844 1.105469 15 1.195312 15 1.339844 L 15 13.660156 C 15 13.804688 14.964844 13.894531 14.890625 13.929688 C 14.820312 13.960938 14.730469 13.925781 14.625 13.820312 L 8.679688 7.875 C 8.628906 7.828125 8.59375 7.773438 8.570312 7.71875 L 8.570312 13.660156 C 8.570312 13.804688 8.535156 13.894531 8.460938 13.929688 C 8.390625 13.960938 8.300781 13.925781 8.195312 13.820312 L 2.25 7.875 C 2.203125 7.828125 2.164062 7.773438 2.144531 7.71875 L 2.144531 13.394531 C 2.144531 13.539062 2.089844 13.664062 1.984375 13.769531 C 1.878906 13.875 1.753906 13.929688 1.605469 13.929688 L 0.535156 13.929688 C 0.390625 13.929688 0.265625 13.875 0.160156 13.769531 C 0.0546875 13.664062 0 13.539062 0 13.394531 L 0 1.605469 C 0 1.460938 0.0546875 1.335938 0.160156 1.230469 C 0.265625 1.125 0.390625 1.070312 0.535156 1.070312 L 1.605469 1.070312 C 1.753906 1.070312 1.878906 1.125 1.984375 1.230469 C 2.089844 1.335938 2.144531 1.460938 2.144531 1.605469 L 2.144531 7.28125 C 2.164062 7.222656 2.203125 7.167969 2.25 7.125 L 8.195312 1.179688 C 8.300781 1.074219 8.390625 1.039062 8.460938 1.070312 C 8.535156 1.105469 8.570312 1.195312 8.570312 1.339844 L 8.570312 7.28125 C 8.59375 7.222656 8.628906 7.167969 8.679688 7.125 Z M 14.625 1.179688 " fill="#FFFFFF"/>
  </g>
</svg>