<?xml version="1.0" encoding="UTF-8" standalone="yes"?>
<svg xmlns="http://www.w3.org/2000/svg" xmlns:xlink="http://www.w3.org/1999/xlink" width="20px" height="20px" viewBox="0 0 15 15" version="1.1">
  <g id="surface1">
    <path style=" stroke:none;fill-rule:nonzero;fill:rgb(0%,0%,0%);fill-opacity:1;" d="M 14.464844 5.089844 L 14.464844 10.980469 C 14.464844 11.496094 14.28125 11.9375 13.910156 12.304688 C 13.542969 12.671875 13.101562 12.855469 12.589844 12.855469 L 2.410156 12.855469 C 1.898438 12.855469 1.457031 12.671875 1.089844 12.304688 C 0.71875 11.9375 0.535156 11.496094 0.535156 10.980469 L 0.535156 2.945312 C 0.535156 2.433594 0.71875 1.992188 1.089844 1.625 C 1.457031 1.253906 1.898438 1.070312 2.410156 1.070312 L 5.089844 1.070312 C 5.601562 1.070312 6.042969 1.253906 6.410156 1.625 C 6.78125 1.992188 6.964844 2.433594 6.964844 2.945312 L 6.964844 3.214844 L 12.589844 3.214844 C 13.101562 3.214844 13.542969 3.398438 13.910156 3.765625 C 14.28125 4.136719 14.464844 4.574219 14.464844 5.089844 Z M 14.464844 5.089844 "/>
  </g>
</svg>