<?xml version="1.0" encoding="UTF-8" standalone="yes"?>
<svg xmlns="http://www.w3.org/2000/svg" xmlns:xlink="http://www.w3.org/1999/xlink" width="20px" height="20px" viewBox="0 0 15 15" version="1.1">
  <g id="surface1">
    <path style=" stroke:none;fill-rule:nonzero;fill:rgb(0%,0%,0%);fill-opacity:1;" d="M 6.964844 8.371094 L 6.964844 6.761719 C 5.953125 6.851562 4.882812 7.179688 3.75 7.742188 L 3.75 9.292969 C 4.894531 8.753906 5.964844 8.449219 6.964844 8.371094 Z M 6.964844 4.871094 L 6.964844 3.222656 C 6.003906 3.265625 4.933594 3.617188 3.75 4.277344 L 3.75 5.859375 C 4.949219 5.238281 6.019531 4.910156 6.964844 4.871094 Z M 13.929688 8.746094 L 13.929688 7.207031 C 12.617188 7.855469 11.546875 8.050781 10.714844 7.800781 L 10.714844 5.925781 C 10.601562 5.894531 10.492188 5.851562 10.386719 5.800781 C 10.359375 5.785156 10.269531 5.738281 10.113281 5.660156 C 9.957031 5.582031 9.859375 5.53125 9.824219 5.515625 C 9.785156 5.5 9.699219 5.457031 9.558594 5.390625 C 9.417969 5.324219 9.324219 5.28125 9.269531 5.261719 C 9.21875 5.242188 9.125 5.203125 9 5.152344 C 8.871094 5.097656 8.769531 5.0625 8.695312 5.046875 C 8.625 5.03125 8.527344 5.007812 8.402344 4.976562 C 8.28125 4.945312 8.171875 4.925781 8.074219 4.914062 C 7.976562 4.902344 7.867188 4.890625 7.742188 4.878906 C 7.621094 4.867188 7.496094 4.863281 7.375 4.863281 C 7.246094 4.863281 7.109375 4.871094 6.964844 4.886719 L 6.964844 6.746094 L 7.125 6.746094 C 7.691406 6.746094 8.230469 6.828125 8.734375 6.988281 C 9.238281 7.152344 9.789062 7.378906 10.386719 7.675781 C 10.492188 7.726562 10.601562 7.769531 10.714844 7.800781 L 10.714844 9.375 C 10.949219 9.46875 11.203125 9.515625 11.476562 9.515625 C 12.144531 9.515625 12.964844 9.261719 13.929688 8.746094 Z M 13.929688 5.171875 L 13.929688 3.589844 C 12.984375 4.097656 12.132812 4.351562 11.367188 4.351562 C 11.117188 4.351562 10.898438 4.332031 10.714844 4.285156 L 10.714844 5.925781 C 11.539062 6.160156 12.613281 5.910156 13.929688 5.171875 Z M 2.679688 2.144531 C 2.679688 2.339844 2.628906 2.515625 2.53125 2.679688 C 2.433594 2.839844 2.304688 2.96875 2.144531 3.0625 L 2.144531 13.660156 C 2.144531 13.738281 2.117188 13.804688 2.066406 13.851562 C 2.015625 13.902344 1.953125 13.929688 1.875 13.929688 L 1.339844 13.929688 C 1.261719 13.929688 1.195312 13.902344 1.148438 13.851562 C 1.097656 13.804688 1.070312 13.738281 1.070312 13.660156 L 1.070312 3.0625 C 0.910156 2.96875 0.78125 2.839844 0.683594 2.679688 C 0.585938 2.515625 0.535156 2.339844 0.535156 2.144531 C 0.535156 1.847656 0.640625 1.59375 0.851562 1.386719 C 1.058594 1.175781 1.3125 1.070312 1.605469 1.070312 C 1.902344 1.070312 2.15625 1.175781 2.363281 1.386719 C 2.574219 1.59375 2.679688 1.847656 2.679688 2.144531 Z M 15 2.679688 L 15 9.066406 C 15 9.28125 14.902344 9.441406 14.707031 9.542969 C 14.652344 9.570312 14.605469 9.59375 14.566406 9.617188 C 13.347656 10.265625 12.320312 10.589844 11.476562 10.589844 C 10.984375 10.589844 10.542969 10.492188 10.152344 10.296875 L 9.917969 10.179688 C 9.5625 9.996094 9.285156 9.859375 9.089844 9.777344 C 8.894531 9.691406 8.640625 9.613281 8.328125 9.535156 C 8.015625 9.457031 7.699219 9.417969 7.375 9.417969 C 6.804688 9.417969 6.148438 9.539062 5.402344 9.785156 C 4.65625 10.03125 4.019531 10.316406 3.492188 10.640625 C 3.40625 10.6875 3.316406 10.714844 3.214844 10.714844 C 3.125 10.714844 3.035156 10.691406 2.945312 10.648438 C 2.769531 10.542969 2.679688 10.386719 2.679688 10.179688 L 2.679688 3.96875 C 2.679688 3.773438 2.765625 3.617188 2.9375 3.507812 C 3.132812 3.390625 3.351562 3.269531 3.59375 3.152344 C 3.835938 3.03125 4.15625 2.886719 4.550781 2.714844 C 4.941406 2.546875 5.367188 2.40625 5.824219 2.300781 C 6.285156 2.195312 6.714844 2.144531 7.125 2.144531 C 7.75 2.144531 8.332031 2.230469 8.871094 2.402344 C 9.414062 2.574219 9.996094 2.816406 10.621094 3.121094 C 10.835938 3.226562 11.082031 3.28125 11.367188 3.28125 C 12.046875 3.28125 12.914062 2.96875 13.960938 2.34375 C 14.085938 2.277344 14.171875 2.230469 14.222656 2.203125 C 14.394531 2.113281 14.566406 2.117188 14.742188 2.21875 C 14.914062 2.328125 15 2.484375 15 2.679688 Z M 15 2.679688 "/>
  </g>
</svg>