<svg xmlns="http://www.w3.org/2000/svg" xlink="http://www.w3.org/1999/xlink" width="20px" height="20px" viewBox="0 0 15 15" version="1.1">
  <g id="surface1">
    <path d="M 4.820312 11.25 C 4.820312 11.695312 4.664062 12.074219 4.351562 12.386719 C 4.039062 12.699219 3.660156 12.855469 3.214844 12.855469 C 2.769531 12.855469 2.386719 12.699219 2.074219 12.386719 C 1.761719 12.074219 1.605469 11.695312 1.605469 11.25 C 1.605469 10.804688 1.761719 10.425781 2.074219 10.113281 C 2.386719 9.800781 2.769531 9.644531 3.214844 9.644531 C 3.660156 9.644531 4.039062 9.800781 4.351562 10.113281 C 4.664062 10.425781 4.820312 10.804688 4.820312 11.25 Z M 9.105469 12.28125 C 9.117188 12.4375 9.070312 12.570312 8.964844 12.679688 C 8.863281 12.796875 8.734375 12.855469 8.570312 12.855469 L 7.441406 12.855469 C 7.300781 12.855469 7.183594 12.8125 7.082031 12.71875 C 6.980469 12.625 6.925781 12.511719 6.914062 12.371094 C 6.792969 11.09375 6.277344 10 5.371094 9.09375 C 4.460938 8.1875 3.371094 7.671875 2.09375 7.550781 C 1.953125 7.539062 1.835938 7.484375 1.746094 7.382812 C 1.652344 7.28125 1.605469 7.164062 1.605469 7.023438 L 1.605469 5.894531 C 1.605469 5.730469 1.664062 5.601562 1.78125 5.5 C 1.878906 5.40625 1.996094 5.355469 2.144531 5.355469 L 2.183594 5.355469 C 3.078125 5.429688 3.929688 5.65625 4.746094 6.03125 C 5.5625 6.40625 6.285156 6.914062 6.914062 7.550781 C 7.550781 8.179688 8.054688 8.902344 8.433594 9.71875 C 8.808594 10.53125 9.035156 11.386719 9.105469 12.28125 Z M 13.394531 12.296875 C 13.402344 12.445312 13.355469 12.578125 13.242188 12.691406 C 13.140625 12.800781 13.011719 12.855469 12.855469 12.855469 L 11.660156 12.855469 C 11.515625 12.855469 11.390625 12.808594 11.289062 12.710938 C 11.183594 12.613281 11.128906 12.496094 11.125 12.355469 C 11.058594 11.15625 10.777344 10.015625 10.277344 8.9375 C 9.78125 7.855469 9.136719 6.917969 8.339844 6.125 C 7.546875 5.328125 6.609375 4.683594 5.527344 4.183594 C 4.449219 3.6875 3.308594 3.402344 2.109375 3.332031 C 1.96875 3.324219 1.851562 3.269531 1.753906 3.167969 C 1.65625 3.066406 1.605469 2.945312 1.605469 2.804688 L 1.605469 1.605469 C 1.605469 1.449219 1.664062 1.324219 1.773438 1.222656 C 1.875 1.121094 1.996094 1.070312 2.144531 1.070312 L 2.167969 1.070312 C 3.628906 1.144531 5.027344 1.480469 6.367188 2.074219 C 7.703125 2.671875 8.890625 3.492188 9.925781 4.535156 C 10.972656 5.574219 11.792969 6.761719 12.386719 8.097656 C 12.984375 9.433594 13.320312 10.835938 13.394531 12.296875 Z M 13.394531 12.296875 " fill="#FFFFFF"/>
  </g>
</svg>