<?xml version="1.0" encoding="UTF-8" standalone="yes"?>
<svg xmlns="http://www.w3.org/2000/svg" xmlns:xlink="http://www.w3.org/1999/xlink" width="20px" height="20px" viewBox="0 0 15 15" version="1.1">
  <g id="surface1">
    <path style=" stroke:none;fill-rule:nonzero;fill:rgb(0%,0%,0%);fill-opacity:1;" d="M 12.855469 8.839844 C 12.855469 9.0625 12.777344 9.253906 12.621094 9.410156 C 12.464844 9.566406 12.277344 9.644531 12.054688 9.644531 C 11.769531 9.644531 11.546875 9.523438 11.382812 9.28125 L 9.484375 6.429688 L 9.105469 6.429688 L 9.105469 7.535156 L 11.175781 10.972656 C 11.226562 11.058594 11.25 11.148438 11.25 11.25 C 11.25 11.394531 11.195312 11.519531 11.089844 11.625 C 10.984375 11.734375 10.859375 11.785156 10.714844 11.785156 L 9.105469 11.785156 L 9.105469 14.0625 C 9.105469 14.320312 9.015625 14.539062 8.832031 14.722656 C 8.648438 14.90625 8.425781 15 8.167969 15 L 6.832031 15 C 6.574219 15 6.351562 14.90625 6.167969 14.722656 C 5.984375 14.539062 5.894531 14.320312 5.894531 14.0625 L 5.894531 11.785156 L 4.285156 11.785156 C 4.140625 11.785156 4.015625 11.734375 3.910156 11.625 C 3.804688 11.519531 3.75 11.394531 3.75 11.25 C 3.75 11.148438 3.773438 11.058594 3.824219 10.972656 L 5.894531 7.535156 L 5.894531 6.429688 L 5.515625 6.429688 L 3.617188 9.28125 C 3.453125 9.523438 3.230469 9.644531 2.945312 9.644531 C 2.722656 9.644531 2.535156 9.566406 2.378906 9.410156 C 2.222656 9.253906 2.144531 9.0625 2.144531 8.839844 C 2.144531 8.675781 2.1875 8.53125 2.277344 8.394531 L 4.417969 5.179688 C 4.828125 4.585938 5.316406 4.285156 5.894531 4.285156 L 9.105469 4.285156 C 9.683594 4.285156 10.171875 4.585938 10.582031 5.179688 L 12.722656 8.394531 C 12.8125 8.53125 12.855469 8.675781 12.855469 8.839844 Z M 9.375 2.144531 C 9.375 2.660156 9.191406 3.105469 8.828125 3.46875 C 8.460938 3.835938 8.019531 4.019531 7.5 4.019531 C 6.980469 4.019531 6.539062 3.835938 6.171875 3.46875 C 5.808594 3.105469 5.625 2.660156 5.625 2.144531 C 5.625 1.625 5.808594 1.179688 6.171875 0.816406 C 6.539062 0.449219 6.980469 0.269531 7.5 0.269531 C 8.019531 0.269531 8.460938 0.449219 8.828125 0.816406 C 9.191406 1.179688 9.375 1.625 9.375 2.144531 Z M 9.375 2.144531 "/>
  </g>
</svg>