<svg version="1.1" xmlns="http://www.w3.org/2000/svg" xlink="http://www.w3.org/1999/xlink" x="0px" y="0px" width="15px" height="15px" viewBox="0 0 15 15" style="enable-background:new 0 0 15 15;" space="preserve">
    <path d="M13.359375,3.179688C13.515625,3.335938,13.648438,3.550781,13.761719,3.816406C13.871094,4.085938,13.929688,4.332031,13.929688,4.554688L13.929688,14.195312C13.929688,14.417969,13.851562,14.609375,13.695312,14.765625C13.539062,14.921875,13.347656,15,13.125,15L1.875,15C1.652344,15,1.460938,14.921875,1.304688,14.765625C1.148438,14.609375,1.070312,14.417969,1.070312,14.195312L1.070312,0.804688C1.070312,0.582031,1.148438,0.390625,1.304688,0.234375C1.460938,0.078125,1.652344,0,1.875,0L9.375,0C9.597656,0,9.84375,0.0546875,10.113281,0.167969C10.378906,0.277344,10.589844,0.414062,10.746094,0.570312ZM9.644531,1.136719L9.644531,4.285156L12.789062,4.285156C12.734375,4.125,12.671875,4.007812,12.605469,3.941406L9.984375,1.324219C9.917969,1.253906,9.804688,1.195312,9.644531,1.136719ZM12.855469,13.929688L12.855469,5.355469L9.375,5.355469C9.152344,5.355469,8.960938,5.277344,8.804688,5.121094C8.648438,4.964844,8.570312,4.777344,8.570312,4.554688L8.570312,1.070312L2.144531,1.070312L2.144531,13.929688ZM5.089844,6.429688C5.132812,6.367188,5.191406,6.332031,5.265625,6.324219C5.335938,6.316406,5.40625,6.332031,5.464844,6.378906L5.894531,6.695312C5.953125,6.742188,5.988281,6.800781,5.996094,6.871094C6.007812,6.945312,5.988281,7.011719,5.941406,7.074219L4.417969,9.105469L5.941406,11.140625C5.988281,11.203125,6.007812,11.269531,5.996094,11.34375C5.988281,11.414062,5.953125,11.472656,5.894531,11.519531L5.464844,11.835938C5.40625,11.878906,5.335938,11.898438,5.265625,11.890625C5.191406,11.882812,5.132812,11.847656,5.089844,11.785156L3.199219,9.265625C3.121094,9.160156,3.121094,9.054688,3.199219,8.949219ZM11.800781,8.949219C11.878906,9.054688,11.878906,9.160156,11.800781,9.265625L9.910156,11.785156C9.867188,11.847656,9.808594,11.882812,9.734375,11.890625C9.664062,11.898438,9.59375,11.878906,9.535156,11.835938L9.105469,11.519531C9.046875,11.472656,9.011719,11.414062,9.003906,11.34375C8.992188,11.269531,9.011719,11.203125,9.058594,11.140625L10.582031,9.105469L9.058594,7.074219C9.011719,7.011719,8.992188,6.945312,9.003906,6.871094C9.011719,6.800781,9.046875,6.742188,9.105469,6.695312L9.535156,6.378906C9.59375,6.332031,9.664062,6.316406,9.734375,6.324219C9.808594,6.332031,9.867188,6.367188,9.910156,6.429688ZM6.613281,12.808594C6.539062,12.796875,6.484375,12.757812,6.441406,12.699219C6.398438,12.636719,6.382812,12.570312,6.394531,12.496094L7.550781,5.542969C7.5625,5.46875,7.597656,5.410156,7.660156,5.371094C7.71875,5.328125,7.789062,5.3125,7.859375,5.324219L8.386719,5.40625C8.460938,5.417969,8.515625,5.453125,8.558594,5.515625C8.601562,5.578125,8.617188,5.644531,8.605469,5.71875L7.449219,12.671875C7.4375,12.746094,7.402344,12.804688,7.339844,12.84375C7.28125,12.886719,7.210938,12.902344,7.140625,12.890625ZM6.613281,12.808594" fill="#FFFFFF"/>
    </svg>