<svg version="1.1" xmlns="http://www.w3.org/2000/svg" xlink="http://www.w3.org/1999/xlink" x="0px" y="0px" width="15px" height="15px" viewBox="0 0 15 15" style="enable-background:new 0 0 15 15;" space="preserve">
    <path d="M11.519531,1.070312C12.183594,1.070312,12.75,1.308594,13.222656,1.777344C13.691406,2.25,13.929688,2.816406,13.929688,3.480469L13.929688,11.519531C13.929688,12.183594,13.691406,12.75,13.222656,13.222656C12.75,13.691406,12.183594,13.929688,11.519531,13.929688L3.480469,13.929688C2.816406,13.929688,2.25,13.691406,1.777344,13.222656C1.308594,12.75,1.070312,12.183594,1.070312,11.519531L1.070312,3.480469C1.070312,2.816406,1.308594,2.25,1.777344,1.777344C2.25,1.308594,2.816406,1.070312,3.480469,1.070312ZM6.914062,7.5C6.914062,7.007812,6.742188,6.589844,6.394531,6.246094C6.050781,5.898438,5.628906,5.726562,5.140625,5.726562C4.648438,5.726562,4.230469,5.898438,3.882812,6.246094C3.539062,6.589844,3.363281,7.007812,3.363281,7.5C3.363281,7.992188,3.539062,8.410156,3.882812,8.753906C4.230469,9.101562,4.648438,9.273438,5.140625,9.273438C5.628906,9.273438,6.050781,9.101562,6.394531,8.753906C6.742188,8.410156,6.914062,7.992188,6.914062,7.5ZM11.636719,7.5C11.636719,7.007812,11.460938,6.589844,11.117188,6.246094C10.769531,5.898438,10.351562,5.726562,9.859375,5.726562C9.371094,5.726562,8.949219,5.898438,8.605469,6.246094C8.257812,6.589844,8.085938,7.007812,8.085938,7.5C8.085938,7.992188,8.257812,8.410156,8.605469,8.753906C8.949219,9.101562,9.371094,9.273438,9.859375,9.273438C10.351562,9.273438,10.769531,9.101562,11.117188,8.753906C11.460938,8.410156,11.636719,7.992188,11.636719,7.5ZM11.636719,7.5" fill="#FFFFFF"/>
    </svg>