<svg xmlns="http://www.w3.org/2000/svg" xlink="http://www.w3.org/1999/xlink" width="20px" height="20px" viewBox="0 0 15 15" version="1.1">
  <g id="surface1">
    <path d="M 13.351562 2.46875 C 13.445312 2.699219 13.40625 2.894531 13.234375 3.054688 L 9.105469 7.183594 L 9.105469 13.394531 C 9.105469 13.628906 9 13.792969 8.78125 13.886719 C 8.707031 13.914062 8.636719 13.929688 8.570312 13.929688 C 8.421875 13.929688 8.296875 13.875 8.195312 13.769531 L 6.050781 11.625 C 5.945312 11.519531 5.894531 11.394531 5.894531 11.25 L 5.894531 7.183594 L 1.765625 3.054688 C 1.59375 2.894531 1.554688 2.699219 1.648438 2.46875 C 1.742188 2.25 1.910156 2.144531 2.144531 2.144531 L 12.855469 2.144531 C 13.089844 2.144531 13.257812 2.25 13.351562 2.46875 Z M 13.351562 2.46875 " fill="#FFFFFF"/>
  </g>
</svg>