<svg version="1.1" xmlns="http://www.w3.org/2000/svg" xlink="http://www.w3.org/1999/xlink" x="0px" y="0px" width="15px" height="15px" viewBox="0 0 15 15" style="enable-background:new 0 0 15 15;" space="preserve">
    <path d="M11.15625,4.738281C11.257812,4.847656,11.277344,4.972656,11.214844,5.105469L6.695312,14.789062C6.625,14.929688,6.507812,15,6.34375,15C6.324219,15,6.285156,14.996094,6.226562,14.984375C6.132812,14.957031,6.0625,14.902344,6.015625,14.824219C5.964844,14.746094,5.953125,14.664062,5.976562,14.574219L7.625,7.808594L4.226562,8.65625C4.203125,8.660156,4.171875,8.664062,4.125,8.664062C4.027344,8.664062,3.941406,8.632812,3.867188,8.570312C3.765625,8.488281,3.730469,8.378906,3.757812,8.246094L5.441406,1.339844C5.464844,1.261719,5.507812,1.195312,5.574219,1.148438C5.640625,1.097656,5.71875,1.070312,5.808594,1.070312L8.554688,1.070312C8.660156,1.070312,8.75,1.105469,8.824219,1.175781C8.894531,1.246094,8.929688,1.328125,8.929688,1.421875C8.929688,1.46875,8.917969,1.519531,8.890625,1.574219L7.457031,5.449219L10.773438,4.628906C10.816406,4.617188,10.851562,4.613281,10.875,4.613281C10.980469,4.613281,11.074219,4.652344,11.15625,4.738281ZM11.15625,4.738281" fill="#FFFFFF"/>
    </svg>