<svg xmlns="http://www.w3.org/2000/svg" xlink="http://www.w3.org/1999/xlink" width="20px" height="20px" viewBox="0 0 15 15" version="1.1">
  <g id="surface1">
    <path d="M 2.410156 3.214844 C 2.777344 3.214844 3.09375 3.34375 3.355469 3.609375 C 3.617188 3.871094 3.75 4.183594 3.75 4.554688 L 3.75 13.660156 C 3.75 14.027344 3.617188 14.34375 3.355469 14.605469 C 3.09375 14.867188 2.777344 15 2.410156 15 L 1.339844 15 C 0.972656 15 0.65625 14.867188 0.394531 14.605469 C 0.132812 14.34375 0 14.027344 0 13.660156 L 0 4.554688 C 0 4.183594 0.132812 3.871094 0.394531 3.609375 C 0.65625 3.34375 0.972656 3.214844 1.339844 3.214844 Z M 13.929688 4.578125 C 14.253906 4.769531 14.511719 5.027344 14.707031 5.355469 C 14.902344 5.6875 15 6.042969 15 6.429688 L 15 12.855469 C 15 13.449219 14.789062 13.953125 14.371094 14.371094 C 13.953125 14.789062 13.449219 15 12.855469 15 L 5.625 15 C 5.257812 15 4.941406 14.867188 4.679688 14.605469 C 4.417969 14.34375 4.285156 14.027344 4.285156 13.660156 L 4.285156 0.804688 C 4.285156 0.582031 4.363281 0.390625 4.519531 0.234375 C 4.675781 0.078125 4.867188 0 5.089844 0 L 10.714844 0 C 10.9375 0 11.183594 0.0546875 11.449219 0.167969 C 11.71875 0.277344 11.929688 0.414062 12.085938 0.570312 L 13.359375 1.839844 C 13.515625 1.996094 13.648438 2.210938 13.761719 2.476562 C 13.871094 2.746094 13.929688 2.992188 13.929688 3.214844 Z M 7.769531 12.855469 L 7.769531 11.785156 C 7.769531 11.707031 7.742188 11.644531 7.691406 11.59375 C 7.640625 11.542969 7.578125 11.519531 7.5 11.519531 L 6.429688 11.519531 C 6.351562 11.519531 6.285156 11.542969 6.234375 11.59375 C 6.1875 11.644531 6.160156 11.707031 6.160156 11.785156 L 6.160156 12.855469 C 6.160156 12.933594 6.1875 13 6.234375 13.050781 C 6.285156 13.101562 6.351562 13.125 6.429688 13.125 L 7.5 13.125 C 7.578125 13.125 7.640625 13.101562 7.691406 13.050781 C 7.742188 13 7.769531 12.933594 7.769531 12.855469 Z M 7.769531 10.714844 L 7.769531 9.644531 C 7.769531 9.566406 7.742188 9.5 7.691406 9.449219 C 7.640625 9.398438 7.578125 9.375 7.5 9.375 L 6.429688 9.375 C 6.351562 9.375 6.285156 9.398438 6.234375 9.449219 C 6.1875 9.5 6.160156 9.566406 6.160156 9.644531 L 6.160156 10.714844 C 6.160156 10.792969 6.1875 10.855469 6.234375 10.90625 C 6.285156 10.957031 6.351562 10.980469 6.429688 10.980469 L 7.5 10.980469 C 7.578125 10.980469 7.640625 10.957031 7.691406 10.90625 C 7.742188 10.855469 7.769531 10.792969 7.769531 10.714844 Z M 7.769531 8.570312 L 7.769531 7.5 C 7.769531 7.421875 7.742188 7.359375 7.691406 7.308594 C 7.640625 7.257812 7.578125 7.230469 7.5 7.230469 L 6.429688 7.230469 C 6.351562 7.230469 6.285156 7.257812 6.234375 7.308594 C 6.1875 7.359375 6.160156 7.421875 6.160156 7.5 L 6.160156 8.570312 C 6.160156 8.648438 6.1875 8.714844 6.234375 8.765625 C 6.285156 8.8125 6.351562 8.839844 6.429688 8.839844 L 7.5 8.839844 C 7.578125 8.839844 7.640625 8.8125 7.691406 8.765625 C 7.742188 8.714844 7.769531 8.648438 7.769531 8.570312 Z M 9.910156 12.855469 L 9.910156 11.785156 C 9.910156 11.707031 9.886719 11.644531 9.835938 11.59375 C 9.785156 11.542969 9.722656 11.519531 9.644531 11.519531 L 8.570312 11.519531 C 8.492188 11.519531 8.429688 11.542969 8.378906 11.59375 C 8.328125 11.644531 8.304688 11.707031 8.304688 11.785156 L 8.304688 12.855469 C 8.304688 12.933594 8.328125 13 8.378906 13.050781 C 8.429688 13.101562 8.492188 13.125 8.570312 13.125 L 9.644531 13.125 C 9.722656 13.125 9.785156 13.101562 9.835938 13.050781 C 9.886719 13 9.910156 12.933594 9.910156 12.855469 Z M 9.910156 10.714844 L 9.910156 9.644531 C 9.910156 9.566406 9.886719 9.5 9.835938 9.449219 C 9.785156 9.398438 9.722656 9.375 9.644531 9.375 L 8.570312 9.375 C 8.492188 9.375 8.429688 9.398438 8.378906 9.449219 C 8.328125 9.5 8.304688 9.566406 8.304688 9.644531 L 8.304688 10.714844 C 8.304688 10.792969 8.328125 10.855469 8.378906 10.90625 C 8.429688 10.957031 8.492188 10.980469 8.570312 10.980469 L 9.644531 10.980469 C 9.722656 10.980469 9.785156 10.957031 9.835938 10.90625 C 9.886719 10.855469 9.910156 10.792969 9.910156 10.714844 Z M 9.910156 8.570312 L 9.910156 7.5 C 9.910156 7.421875 9.886719 7.359375 9.835938 7.308594 C 9.785156 7.257812 9.722656 7.230469 9.644531 7.230469 L 8.570312 7.230469 C 8.492188 7.230469 8.429688 7.257812 8.378906 7.308594 C 8.328125 7.359375 8.304688 7.421875 8.304688 7.5 L 8.304688 8.570312 C 8.304688 8.648438 8.328125 8.714844 8.378906 8.765625 C 8.429688 8.8125 8.492188 8.839844 8.570312 8.839844 L 9.644531 8.839844 C 9.722656 8.839844 9.785156 8.8125 9.835938 8.765625 C 9.886719 8.714844 9.910156 8.648438 9.910156 8.570312 Z M 12.054688 12.855469 L 12.054688 11.785156 C 12.054688 11.707031 12.027344 11.644531 11.976562 11.59375 C 11.929688 11.542969 11.863281 11.519531 11.785156 11.519531 L 10.714844 11.519531 C 10.636719 11.519531 10.570312 11.542969 10.523438 11.59375 C 10.472656 11.644531 10.445312 11.707031 10.445312 11.785156 L 10.445312 12.855469 C 10.445312 12.933594 10.472656 13 10.523438 13.050781 C 10.570312 13.101562 10.636719 13.125 10.714844 13.125 L 11.785156 13.125 C 11.863281 13.125 11.929688 13.101562 11.976562 13.050781 C 12.027344 13 12.054688 12.933594 12.054688 12.855469 Z M 12.054688 10.714844 L 12.054688 9.644531 C 12.054688 9.566406 12.027344 9.5 11.976562 9.449219 C 11.929688 9.398438 11.863281 9.375 11.785156 9.375 L 10.714844 9.375 C 10.636719 9.375 10.570312 9.398438 10.523438 9.449219 C 10.472656 9.5 10.445312 9.566406 10.445312 9.644531 L 10.445312 10.714844 C 10.445312 10.792969 10.472656 10.855469 10.523438 10.90625 C 10.570312 10.957031 10.636719 10.980469 10.714844 10.980469 L 11.785156 10.980469 C 11.863281 10.980469 11.929688 10.957031 11.976562 10.90625 C 12.027344 10.855469 12.054688 10.792969 12.054688 10.714844 Z M 12.054688 8.570312 L 12.054688 7.5 C 12.054688 7.421875 12.027344 7.359375 11.976562 7.308594 C 11.929688 7.257812 11.863281 7.230469 11.785156 7.230469 L 10.714844 7.230469 C 10.636719 7.230469 10.570312 7.257812 10.523438 7.308594 C 10.472656 7.359375 10.445312 7.421875 10.445312 7.5 L 10.445312 8.570312 C 10.445312 8.648438 10.472656 8.714844 10.523438 8.765625 C 10.570312 8.8125 10.636719 8.839844 10.714844 8.839844 L 11.785156 8.839844 C 11.863281 8.839844 11.929688 8.8125 11.976562 8.765625 C 12.027344 8.714844 12.054688 8.648438 12.054688 8.570312 Z M 12.855469 5.355469 L 12.855469 3.214844 L 11.519531 3.214844 C 11.292969 3.214844 11.105469 3.136719 10.949219 2.980469 C 10.792969 2.824219 10.714844 2.632812 10.714844 2.410156 L 10.714844 1.070312 L 5.355469 1.070312 L 5.355469 5.355469 Z M 12.855469 5.355469 " fill="#FFFFFF"/>
  </g>
</svg>