<svg xmlns="http://www.w3.org/2000/svg" xlink="http://www.w3.org/1999/xlink" width="20px" height="20px" viewBox="0 0 15 15" version="1.1">
  <g id="surface1">
    <path d="M 9.644531 4.285156 L 9.644531 0.335938 C 9.765625 0.414062 9.867188 0.492188 9.945312 0.570312 L 13.359375 3.984375 C 13.4375 4.0625 13.515625 4.164062 13.59375 4.285156 Z M 8.570312 4.554688 C 8.570312 4.777344 8.648438 4.964844 8.804688 5.121094 C 8.960938 5.277344 9.152344 5.355469 9.375 5.355469 L 13.929688 5.355469 L 13.929688 14.195312 C 13.929688 14.417969 13.851562 14.609375 13.695312 14.765625 C 13.539062 14.921875 13.347656 15 13.125 15 L 1.875 15 C 1.652344 15 1.460938 14.921875 1.304688 14.765625 C 1.148438 14.609375 1.070312 14.417969 1.070312 14.195312 L 1.070312 0.804688 C 1.070312 0.582031 1.148438 0.390625 1.304688 0.234375 C 1.460938 0.078125 1.652344 0 1.875 0 L 8.570312 0 Z M 8.570312 4.554688 " fill="#FFFFFF"/>
  </g>
</svg>