<?xml version="1.0" encoding="UTF-8" standalone="yes"?>
<svg xmlns="http://www.w3.org/2000/svg" xmlns:xlink="http://www.w3.org/1999/xlink" width="20px" height="20px" viewBox="0 0 15 15" version="1.1">
  <g id="surface1">
    <path style=" stroke:none;fill-rule:nonzero;fill:rgb(0%,0%,0%);fill-opacity:1;" d="M 13.359375 3.179688 C 13.515625 3.335938 13.648438 3.550781 13.761719 3.816406 C 13.871094 4.085938 13.929688 4.332031 13.929688 4.554688 L 13.929688 14.195312 C 13.929688 14.417969 13.851562 14.609375 13.695312 14.765625 C 13.539062 14.921875 13.347656 15 13.125 15 L 1.875 15 C 1.652344 15 1.460938 14.921875 1.304688 14.765625 C 1.148438 14.609375 1.070312 14.417969 1.070312 14.195312 L 1.070312 0.804688 C 1.070312 0.582031 1.148438 0.390625 1.304688 0.234375 C 1.460938 0.078125 1.652344 0 1.875 0 L 9.375 0 C 9.597656 0 9.84375 0.0546875 10.113281 0.167969 C 10.378906 0.277344 10.589844 0.414062 10.746094 0.570312 Z M 9.644531 1.136719 L 9.644531 4.285156 L 12.789062 4.285156 C 12.734375 4.125 12.671875 4.007812 12.605469 3.941406 L 9.984375 1.324219 C 9.917969 1.253906 9.804688 1.195312 9.644531 1.136719 Z M 12.855469 13.929688 L 12.855469 5.355469 L 9.375 5.355469 C 9.152344 5.355469 8.960938 5.277344 8.804688 5.121094 C 8.648438 4.964844 8.570312 4.777344 8.570312 4.554688 L 8.570312 1.070312 L 2.144531 1.070312 L 2.144531 13.929688 Z M 4.285156 6.695312 C 4.285156 6.617188 4.3125 6.554688 4.359375 6.503906 C 4.410156 6.453125 4.476562 6.429688 4.554688 6.429688 L 10.445312 6.429688 C 10.523438 6.429688 10.589844 6.453125 10.640625 6.503906 C 10.6875 6.554688 10.714844 6.617188 10.714844 6.695312 L 10.714844 7.230469 C 10.714844 7.308594 10.6875 7.375 10.640625 7.425781 C 10.589844 7.476562 10.523438 7.5 10.445312 7.5 L 4.554688 7.5 C 4.476562 7.5 4.410156 7.476562 4.359375 7.425781 C 4.3125 7.375 4.285156 7.308594 4.285156 7.230469 Z M 10.445312 8.570312 C 10.523438 8.570312 10.589844 8.597656 10.640625 8.648438 C 10.6875 8.695312 10.714844 8.761719 10.714844 8.839844 L 10.714844 9.375 C 10.714844 9.453125 10.6875 9.515625 10.640625 9.566406 C 10.589844 9.617188 10.523438 9.644531 10.445312 9.644531 L 4.554688 9.644531 C 4.476562 9.644531 4.410156 9.617188 4.359375 9.566406 C 4.3125 9.515625 4.285156 9.453125 4.285156 9.375 L 4.285156 8.839844 C 4.285156 8.761719 4.3125 8.695312 4.359375 8.648438 C 4.410156 8.597656 4.476562 8.570312 4.554688 8.570312 Z M 10.445312 10.714844 C 10.523438 10.714844 10.589844 10.738281 10.640625 10.789062 C 10.6875 10.839844 10.714844 10.902344 10.714844 10.980469 L 10.714844 11.519531 C 10.714844 11.597656 10.6875 11.660156 10.640625 11.710938 C 10.589844 11.761719 10.523438 11.785156 10.445312 11.785156 L 4.554688 11.785156 C 4.476562 11.785156 4.410156 11.761719 4.359375 11.710938 C 4.3125 11.660156 4.285156 11.597656 4.285156 11.519531 L 4.285156 10.980469 C 4.285156 10.902344 4.3125 10.839844 4.359375 10.789062 C 4.410156 10.738281 4.476562 10.714844 4.554688 10.714844 Z M 10.445312 10.714844 "/>
  </g>
</svg>