<svg xmlns="http://www.w3.org/2000/svg" xlink="http://www.w3.org/1999/xlink" width="20px" height="20px" viewBox="0 0 15 15" version="1.1">
  <g id="surface1">
    <path d="M 4.285156 12.855469 L 10.714844 12.855469 L 10.714844 9.644531 L 4.285156 9.644531 Z M 11.785156 12.855469 L 12.855469 12.855469 L 12.855469 5.355469 C 12.855469 5.277344 12.828125 5.171875 12.773438 5.035156 C 12.71875 4.898438 12.660156 4.800781 12.605469 4.746094 L 10.253906 2.394531 C 10.199219 2.339844 10.101562 2.28125 9.96875 2.226562 C 9.835938 2.171875 9.726562 2.144531 9.644531 2.144531 L 9.644531 5.625 C 9.644531 5.847656 9.566406 6.039062 9.410156 6.195312 C 9.253906 6.351562 9.0625 6.429688 8.839844 6.429688 L 4.019531 6.429688 C 3.792969 6.429688 3.605469 6.351562 3.449219 6.195312 C 3.292969 6.039062 3.214844 5.847656 3.214844 5.625 L 3.214844 2.144531 L 2.144531 2.144531 L 2.144531 12.855469 L 3.214844 12.855469 L 3.214844 9.375 C 3.214844 9.152344 3.292969 8.960938 3.449219 8.804688 C 3.605469 8.648438 3.792969 8.570312 4.019531 8.570312 L 10.980469 8.570312 C 11.207031 8.570312 11.394531 8.648438 11.550781 8.804688 C 11.707031 8.960938 11.785156 9.152344 11.785156 9.375 Z M 8.570312 5.089844 L 8.570312 2.410156 C 8.570312 2.339844 8.546875 2.273438 8.492188 2.222656 C 8.4375 2.167969 8.375 2.144531 8.304688 2.144531 L 6.695312 2.144531 C 6.625 2.144531 6.5625 2.167969 6.507812 2.222656 C 6.453125 2.273438 6.429688 2.339844 6.429688 2.410156 L 6.429688 5.089844 C 6.429688 5.160156 6.453125 5.222656 6.507812 5.277344 C 6.5625 5.332031 6.625 5.355469 6.695312 5.355469 L 8.304688 5.355469 C 8.375 5.355469 8.4375 5.332031 8.492188 5.277344 C 8.546875 5.222656 8.570312 5.160156 8.570312 5.089844 Z M 13.929688 5.355469 L 13.929688 13.125 C 13.929688 13.347656 13.851562 13.539062 13.695312 13.695312 C 13.539062 13.851562 13.347656 13.929688 13.125 13.929688 L 1.875 13.929688 C 1.652344 13.929688 1.460938 13.851562 1.304688 13.695312 C 1.148438 13.539062 1.070312 13.347656 1.070312 13.125 L 1.070312 1.875 C 1.070312 1.652344 1.148438 1.460938 1.304688 1.304688 C 1.460938 1.148438 1.652344 1.070312 1.875 1.070312 L 9.644531 1.070312 C 9.867188 1.070312 10.113281 1.128906 10.378906 1.238281 C 10.648438 1.351562 10.859375 1.484375 11.015625 1.640625 L 13.359375 3.984375 C 13.515625 4.140625 13.648438 4.351562 13.761719 4.621094 C 13.871094 4.886719 13.929688 5.132812 13.929688 5.355469 Z M 13.929688 5.355469 " fill="#FFFFFF"/>
  </g>
</svg>