<?xml version="1.0" encoding="UTF-8" standalone="yes"?>
<svg xmlns="http://www.w3.org/2000/svg" xmlns:xlink="http://www.w3.org/1999/xlink" width="20px" height="20px" viewBox="0 0 15 15" version="1.1">
  <g id="surface1">
    <path style=" stroke:none;fill-rule:nonzero;fill:rgb(0%,0%,0%);fill-opacity:1;" d="M 6.429688 3.214844 L 6.429688 2.144531 L 5.355469 2.144531 L 5.355469 3.214844 Z M 7.5 4.285156 L 7.5 3.214844 L 6.429688 3.214844 L 6.429688 4.285156 Z M 6.429688 5.355469 L 6.429688 4.285156 L 5.355469 4.285156 L 5.355469 5.355469 Z M 7.5 6.429688 L 7.5 5.355469 L 6.429688 5.355469 L 6.429688 6.429688 Z M 13.359375 3.179688 C 13.515625 3.335938 13.648438 3.550781 13.761719 3.816406 C 13.871094 4.085938 13.929688 4.332031 13.929688 4.554688 L 13.929688 14.195312 C 13.929688 14.417969 13.851562 14.609375 13.695312 14.765625 C 13.539062 14.921875 13.347656 15 13.125 15 L 1.875 15 C 1.652344 15 1.460938 14.921875 1.304688 14.765625 C 1.148438 14.609375 1.070312 14.417969 1.070312 14.195312 L 1.070312 0.804688 C 1.070312 0.582031 1.148438 0.390625 1.304688 0.234375 C 1.460938 0.078125 1.652344 0 1.875 0 L 9.375 0 C 9.597656 0 9.84375 0.0546875 10.113281 0.167969 C 10.378906 0.277344 10.589844 0.414062 10.746094 0.570312 Z M 9.644531 1.136719 L 9.644531 4.285156 L 12.789062 4.285156 C 12.734375 4.125 12.671875 4.007812 12.605469 3.941406 L 9.984375 1.324219 C 9.917969 1.253906 9.804688 1.195312 9.644531 1.136719 Z M 12.855469 13.929688 L 12.855469 5.355469 L 9.375 5.355469 C 9.152344 5.355469 8.960938 5.277344 8.804688 5.121094 C 8.648438 4.964844 8.570312 4.777344 8.570312 4.554688 L 8.570312 1.070312 L 7.5 1.070312 L 7.5 2.144531 L 6.429688 2.144531 L 6.429688 1.070312 L 2.144531 1.070312 L 2.144531 13.929688 Z M 7.609375 7.894531 L 8.503906 10.816406 C 8.550781 10.964844 8.570312 11.109375 8.570312 11.25 C 8.570312 11.714844 8.367188 12.097656 7.964844 12.402344 C 7.558594 12.703125 7.046875 12.855469 6.429688 12.855469 C 5.808594 12.855469 5.296875 12.703125 4.890625 12.402344 C 4.488281 12.097656 4.285156 11.714844 4.285156 11.25 C 4.285156 11.109375 4.308594 10.964844 4.351562 10.816406 C 4.46875 10.464844 4.804688 9.359375 5.355469 7.5 L 5.355469 6.429688 L 6.429688 6.429688 L 6.429688 7.5 L 7.089844 7.5 C 7.210938 7.5 7.320312 7.535156 7.417969 7.609375 C 7.511719 7.679688 7.574219 7.777344 7.609375 7.894531 Z M 6.429688 11.785156 C 6.722656 11.785156 6.976562 11.734375 7.1875 11.625 C 7.394531 11.519531 7.5 11.394531 7.5 11.25 C 7.5 11.105469 7.394531 10.980469 7.1875 10.875 C 6.976562 10.765625 6.722656 10.714844 6.429688 10.714844 C 6.132812 10.714844 5.878906 10.765625 5.671875 10.875 C 5.460938 10.980469 5.355469 11.105469 5.355469 11.25 C 5.355469 11.394531 5.460938 11.519531 5.671875 11.625 C 5.878906 11.734375 6.132812 11.785156 6.429688 11.785156 Z M 6.429688 11.785156 "/>
  </g>
</svg>