<svg version="1.1" xmlns="http://www.w3.org/2000/svg" xlink="http://www.w3.org/1999/xlink" x="0px" y="0px" width="15px" height="15px" viewBox="0 0 15 15" style="enable-background:new 0 0 15 15;" space="preserve">
    <path d="M11.519531,1.070312C12.183594,1.070312,12.75,1.308594,13.222656,1.777344C13.691406,2.25,13.929688,2.816406,13.929688,3.480469L13.929688,11.519531C13.929688,12.183594,13.691406,12.75,13.222656,13.222656C12.75,13.691406,12.183594,13.929688,11.519531,13.929688L9.945312,13.929688L9.945312,8.949219L11.609375,8.949219L11.859375,7.007812L9.945312,7.007812L9.945312,5.765625C9.945312,5.453125,10.007812,5.21875,10.140625,5.0625C10.273438,4.90625,10.527344,4.828125,10.90625,4.828125L11.929688,4.820312L11.929688,3.089844C11.578125,3.039062,11.078125,3.011719,10.4375,3.011719C9.679688,3.011719,9.070312,3.238281,8.617188,3.683594C8.164062,4.128906,7.933594,4.761719,7.933594,5.574219L7.933594,7.007812L6.261719,7.007812L6.261719,8.949219L7.933594,8.949219L7.933594,13.929688L3.480469,13.929688C2.816406,13.929688,2.25,13.691406,1.777344,13.222656C1.308594,12.75,1.070312,12.183594,1.070312,11.519531L1.070312,3.480469C1.070312,2.816406,1.308594,2.25,1.777344,1.777344C2.25,1.308594,2.816406,1.070312,3.480469,1.070312ZM11.519531,1.070312" fill="#FFFFFF"/>
    </svg>