<svg xmlns="http://www.w3.org/2000/svg" xlink="http://www.w3.org/1999/xlink" width="20px" height="20px" viewBox="0 0 15 15" version="1.1">
  <g id="surface1">
    <path d="M 13.359375 3.179688 C 13.515625 3.335938 13.648438 3.550781 13.761719 3.816406 C 13.871094 4.085938 13.929688 4.332031 13.929688 4.554688 L 13.929688 14.195312 C 13.929688 14.417969 13.851562 14.609375 13.695312 14.765625 C 13.539062 14.921875 13.347656 15 13.125 15 L 1.875 15 C 1.652344 15 1.460938 14.921875 1.304688 14.765625 C 1.148438 14.609375 1.070312 14.417969 1.070312 14.195312 L 1.070312 0.804688 C 1.070312 0.582031 1.148438 0.390625 1.304688 0.234375 C 1.460938 0.078125 1.652344 0 1.875 0 L 9.375 0 C 9.597656 0 9.84375 0.0546875 10.113281 0.167969 C 10.378906 0.277344 10.589844 0.414062 10.746094 0.570312 Z M 9.644531 1.136719 L 9.644531 4.285156 L 12.789062 4.285156 C 12.734375 4.125 12.671875 4.007812 12.605469 3.941406 L 9.984375 1.324219 C 9.917969 1.253906 9.804688 1.195312 9.644531 1.136719 Z M 12.855469 13.929688 L 12.855469 5.355469 L 9.375 5.355469 C 9.152344 5.355469 8.960938 5.277344 8.804688 5.121094 C 8.648438 4.964844 8.570312 4.777344 8.570312 4.554688 L 8.570312 1.070312 L 2.144531 1.070312 L 2.144531 13.929688 Z M 8.554688 8.964844 C 8.738281 9.109375 8.972656 9.265625 9.257812 9.433594 C 9.585938 9.394531 9.914062 9.375 10.238281 9.375 C 11.058594 9.375 11.550781 9.511719 11.71875 9.785156 C 11.808594 9.90625 11.8125 10.054688 11.734375 10.21875 C 11.734375 10.226562 11.734375 10.230469 11.726562 10.238281 L 11.710938 10.253906 L 11.710938 10.261719 C 11.675781 10.472656 11.480469 10.582031 11.117188 10.582031 C 10.847656 10.582031 10.527344 10.523438 10.152344 10.414062 C 9.78125 10.300781 9.417969 10.152344 9.066406 9.96875 C 7.832031 10.101562 6.738281 10.335938 5.785156 10.664062 C 4.929688 12.125 4.253906 12.855469 3.757812 12.855469 C 3.675781 12.855469 3.597656 12.835938 3.523438 12.796875 L 3.324219 12.699219 C 3.316406 12.691406 3.300781 12.679688 3.273438 12.65625 C 3.21875 12.601562 3.199219 12.5 3.222656 12.355469 C 3.273438 12.132812 3.429688 11.875 3.691406 11.589844 C 3.953125 11.300781 4.320312 11.03125 4.796875 10.78125 C 4.875 10.730469 4.9375 10.746094 4.988281 10.832031 C 5 10.84375 5.003906 10.855469 5.003906 10.863281 C 5.296875 10.390625 5.59375 9.839844 5.902344 9.214844 C 6.28125 8.457031 6.570312 7.726562 6.773438 7.023438 C 6.636719 6.566406 6.550781 6.121094 6.515625 5.6875 C 6.480469 5.253906 6.5 4.898438 6.570312 4.621094 C 6.632812 4.398438 6.75 4.285156 6.921875 4.285156 L 7.105469 4.285156 C 7.234375 4.285156 7.332031 4.328125 7.398438 4.410156 C 7.5 4.527344 7.523438 4.71875 7.476562 4.980469 C 7.464844 5.015625 7.453125 5.035156 7.441406 5.046875 C 7.445312 5.0625 7.449219 5.085938 7.449219 5.113281 L 7.449219 5.367188 C 7.4375 6.050781 7.398438 6.585938 7.332031 6.972656 C 7.640625 7.886719 8.046875 8.550781 8.554688 8.964844 Z M 3.734375 12.40625 C 4.023438 12.269531 4.40625 11.832031 4.878906 11.082031 C 4.59375 11.304688 4.351562 11.539062 4.148438 11.785156 C 3.945312 12.03125 3.804688 12.238281 3.734375 12.40625 Z M 7.066406 4.703125 C 6.980469 4.9375 6.976562 5.308594 7.046875 5.808594 C 7.054688 5.769531 7.074219 5.648438 7.105469 5.441406 C 7.105469 5.425781 7.125 5.304688 7.164062 5.082031 C 7.171875 5.058594 7.183594 5.035156 7.199219 5.015625 C 7.191406 5.007812 7.191406 5.003906 7.191406 4.996094 C 7.191406 4.992188 7.1875 4.988281 7.1875 4.984375 C 7.183594 4.980469 7.183594 4.976562 7.183594 4.972656 C 7.175781 4.847656 7.140625 4.75 7.074219 4.671875 C 7.074219 4.675781 7.070312 4.683594 7.066406 4.6875 Z M 6.027344 10.238281 C 6.78125 9.9375 7.574219 9.710938 8.402344 9.558594 C 8.394531 9.554688 8.355469 9.527344 8.296875 9.480469 C 8.234375 9.433594 8.1875 9.394531 8.160156 9.367188 C 7.738281 8.992188 7.382812 8.5 7.097656 7.894531 C 6.949219 8.375 6.714844 8.921875 6.402344 9.542969 C 6.234375 9.855469 6.109375 10.085938 6.027344 10.238281 Z M 11.433594 10.101562 C 11.300781 9.96875 10.910156 9.902344 10.261719 9.902344 C 10.6875 10.058594 11.03125 10.136719 11.300781 10.136719 C 11.378906 10.136719 11.429688 10.132812 11.449219 10.128906 C 11.449219 10.121094 11.445312 10.113281 11.433594 10.101562 Z M 11.433594 10.101562 " fill="#FFFFFF"/>
  </g>
</svg>