<?xml version="1.0" encoding="UTF-8" standalone="yes"?>
<svg xmlns="http://www.w3.org/2000/svg" xmlns:xlink="http://www.w3.org/1999/xlink" width="20px" height="20px" viewBox="0 0 15 15" version="1.1">
  <g id="surface1">
    <path style=" stroke:none;fill-rule:nonzero;fill:rgb(0%,0%,0%);fill-opacity:1;" d="M 15.535156 8.035156 C 15.53125 8.214844 14.726562 8.480469 13.125 8.839844 L 10.179688 9.105469 L 8.304688 9.644531 L 7.769531 9.644531 L 5.316406 12.589844 L 5.894531 12.589844 C 6.039062 12.589844 6.164062 12.601562 6.269531 12.625 C 6.375 12.652344 6.429688 12.683594 6.429688 12.722656 C 6.429688 12.761719 6.375 12.792969 6.269531 12.820312 C 6.164062 12.84375 6.039062 12.855469 5.894531 12.855469 L 3.214844 12.855469 L 3.214844 12.589844 L 3.75 12.589844 L 3.75 9.105469 L 2.410156 9.105469 L 0.804688 10.980469 L 0 10.980469 L -0.269531 10.714844 L -0.269531 9.105469 L 0 9.105469 L 0 8.839844 L 1.070312 8.839844 L 1.070312 8.773438 L -0.535156 8.570312 L -0.535156 7.5 L 1.070312 7.300781 L 1.070312 7.230469 L 0 7.230469 L 0 6.964844 L -0.269531 6.964844 L -0.269531 5.355469 L 0 5.089844 L 0.804688 5.089844 L 2.410156 6.964844 L 3.75 6.964844 L 3.75 3.480469 L 3.214844 3.480469 L 3.214844 3.214844 L 5.894531 3.214844 C 6.039062 3.214844 6.164062 3.226562 6.269531 3.25 C 6.375 3.277344 6.429688 3.308594 6.429688 3.347656 C 6.429688 3.386719 6.375 3.417969 6.269531 3.445312 C 6.164062 3.46875 6.039062 3.480469 5.894531 3.480469 L 5.316406 3.480469 L 7.769531 6.429688 L 8.304688 6.429688 L 10.179688 6.964844 L 13.125 7.230469 C 14.582031 7.554688 15.382812 7.816406 15.527344 8.011719 Z M 15.535156 8.035156 "/>
  </g>
</svg>