<?xml version="1.0" encoding="UTF-8" standalone="yes"?>
<svg xmlns="http://www.w3.org/2000/svg" xmlns:xlink="http://www.w3.org/1999/xlink" width="20px" height="20px" viewBox="0 0 15 15" version="1.1">
  <g id="surface1">
    <path style=" stroke:none;fill-rule:nonzero;fill:rgb(0%,0%,0%);fill-opacity:1;" d="M 5.355469 8.4375 L 5.355469 6.5625 C 5.355469 6.472656 5.3125 6.429688 5.222656 6.429688 L 4.417969 6.429688 C 4.332031 6.429688 4.285156 6.472656 4.285156 6.5625 L 4.285156 8.4375 C 4.285156 8.527344 4.332031 8.570312 4.417969 8.570312 L 5.222656 8.570312 C 5.3125 8.570312 5.355469 8.527344 5.355469 8.4375 Z M 9.644531 8.4375 L 9.644531 6.5625 C 9.644531 6.472656 9.597656 6.429688 9.507812 6.429688 L 8.707031 6.429688 C 8.617188 6.429688 8.570312 6.472656 8.570312 6.5625 L 8.570312 8.4375 C 8.570312 8.527344 8.617188 8.570312 8.707031 8.570312 L 9.507812 8.570312 C 9.597656 8.570312 9.644531 8.527344 9.644531 8.4375 Z M 13.929688 8.707031 L 13.929688 15 L 8.570312 15 L 8.570312 12.320312 C 8.570312 11.875 8.414062 11.496094 8.101562 11.183594 C 7.789062 10.871094 7.410156 10.714844 6.964844 10.714844 C 6.519531 10.714844 6.136719 10.871094 5.824219 11.183594 C 5.511719 11.496094 5.355469 11.875 5.355469 12.320312 L 5.355469 15 L 0 15 L 0 8.707031 C 0 8.617188 0.0429688 8.570312 0.132812 8.570312 L 0.9375 8.570312 C 1.027344 8.570312 1.070312 8.617188 1.070312 8.707031 L 1.070312 9.644531 L 2.144531 9.644531 L 2.144531 4.417969 C 2.144531 4.332031 2.1875 4.285156 2.277344 4.285156 L 3.082031 4.285156 C 3.167969 4.285156 3.214844 4.332031 3.214844 4.417969 L 3.214844 5.355469 L 4.285156 5.355469 L 4.285156 4.417969 C 4.285156 4.332031 4.332031 4.285156 4.417969 4.285156 L 5.222656 4.285156 C 5.3125 4.285156 5.355469 4.332031 5.355469 4.417969 L 5.355469 5.355469 L 6.429688 5.355469 L 6.429688 4.417969 C 6.429688 4.332031 6.472656 4.285156 6.5625 4.285156 L 6.695312 4.285156 L 6.695312 0.996094 C 6.519531 0.890625 6.429688 0.738281 6.429688 0.535156 C 6.429688 0.390625 6.480469 0.265625 6.585938 0.160156 C 6.695312 0.0546875 6.820312 0 6.964844 0 C 7.109375 0 7.234375 0.0546875 7.339844 0.160156 C 7.445312 0.265625 7.5 0.390625 7.5 0.535156 C 7.5 0.738281 7.410156 0.890625 7.230469 0.996094 L 7.230469 1.070312 L 9.507812 1.070312 C 9.597656 1.070312 9.644531 1.117188 9.644531 1.207031 L 9.644531 3.082031 C 9.644531 3.167969 9.597656 3.214844 9.507812 3.214844 L 7.230469 3.214844 L 7.230469 4.285156 L 7.367188 4.285156 C 7.457031 4.285156 7.5 4.332031 7.5 4.417969 L 7.5 5.355469 L 8.570312 5.355469 L 8.570312 4.417969 C 8.570312 4.332031 8.617188 4.285156 8.707031 4.285156 L 9.507812 4.285156 C 9.597656 4.285156 9.644531 4.332031 9.644531 4.417969 L 9.644531 5.355469 L 10.714844 5.355469 L 10.714844 4.417969 C 10.714844 4.332031 10.757812 4.285156 10.847656 4.285156 L 11.652344 4.285156 C 11.742188 4.285156 11.785156 4.332031 11.785156 4.417969 L 11.785156 9.644531 L 12.855469 9.644531 L 12.855469 8.707031 C 12.855469 8.617188 12.902344 8.570312 12.992188 8.570312 L 13.792969 8.570312 C 13.882812 8.570312 13.929688 8.617188 13.929688 8.707031 Z M 13.929688 8.707031 "/>
  </g>
</svg>