<?xml version="1.0" encoding="UTF-8" standalone="yes"?>
<svg xmlns="http://www.w3.org/2000/svg" xmlns:xlink="http://www.w3.org/1999/xlink" width="20px" height="20px" viewBox="0 0 15 15" version="1.1">
  <g id="surface1">
    <path style=" stroke:none;fill-rule:nonzero;fill:rgb(0%,0%,0%);fill-opacity:1;" d="M 5.894531 1.605469 C 5.894531 1.460938 5.839844 1.335938 5.734375 1.230469 C 5.628906 1.125 5.503906 1.070312 5.355469 1.070312 C 5.210938 1.070312 5.085938 1.125 4.980469 1.230469 C 4.875 1.335938 4.820312 1.460938 4.820312 1.605469 C 4.820312 1.753906 4.875 1.878906 4.980469 1.984375 C 5.085938 2.089844 5.210938 2.144531 5.355469 2.144531 C 5.503906 2.144531 5.628906 2.089844 5.734375 1.984375 C 5.839844 1.878906 5.894531 1.753906 5.894531 1.605469 Z M 13.394531 1.339844 L 13.394531 4.019531 C 13.394531 4.105469 13.359375 4.175781 13.292969 4.226562 C 13.246094 4.265625 13.191406 4.285156 13.125 4.285156 C 13.101562 4.285156 13.082031 4.28125 13.066406 4.277344 L 9.316406 3.472656 C 9.253906 3.460938 9.203125 3.433594 9.164062 3.382812 C 9.125 3.332031 9.105469 3.277344 9.105469 3.214844 L 6.964844 3.214844 L 6.964844 4.066406 C 7.582031 4.195312 8.09375 4.507812 8.5 4.996094 C 8.90625 5.488281 9.105469 6.054688 9.105469 6.695312 L 9.105469 13.394531 C 9.105469 13.539062 9.054688 13.664062 8.949219 13.769531 C 8.84375 13.875 8.714844 13.929688 8.570312 13.929688 L 4.285156 13.929688 C 4.140625 13.929688 4.015625 13.875 3.910156 13.769531 C 3.804688 13.664062 3.75 13.539062 3.75 13.394531 L 3.75 6.695312 C 3.75 6.105469 3.925781 5.574219 4.273438 5.101562 C 4.621094 4.628906 5.074219 4.3125 5.625 4.144531 L 5.625 3.214844 L 5.355469 3.214844 C 5.027344 3.214844 4.707031 3.28125 4.394531 3.410156 C 4.082031 3.542969 3.828125 3.691406 3.628906 3.855469 C 3.429688 4.019531 3.246094 4.203125 3.078125 4.410156 C 2.90625 4.617188 2.792969 4.765625 2.738281 4.859375 C 2.679688 4.953125 2.640625 5.019531 2.621094 5.0625 C 2.523438 5.257812 2.367188 5.355469 2.144531 5.355469 C 2.054688 5.355469 1.972656 5.335938 1.898438 5.296875 C 1.773438 5.230469 1.683594 5.128906 1.636719 4.988281 C 1.589844 4.847656 1.597656 4.710938 1.664062 4.578125 C 1.695312 4.523438 1.734375 4.449219 1.789062 4.359375 C 1.839844 4.273438 1.945312 4.121094 2.101562 3.914062 C 2.257812 3.703125 2.425781 3.507812 2.609375 3.328125 C 2.789062 3.144531 3.027344 2.960938 3.320312 2.765625 C 3.613281 2.574219 3.914062 2.425781 4.226562 2.328125 C 4.085938 2.09375 4.019531 1.851562 4.019531 1.605469 C 4.019531 1.238281 4.148438 0.921875 4.410156 0.660156 C 4.671875 0.398438 4.988281 0.269531 5.355469 0.269531 C 5.726562 0.269531 6.039062 0.398438 6.304688 0.660156 C 6.566406 0.921875 6.695312 1.238281 6.695312 1.605469 C 6.695312 1.792969 6.65625 1.96875 6.578125 2.144531 L 9.105469 2.144531 C 9.105469 2.082031 9.125 2.027344 9.164062 1.976562 C 9.203125 1.925781 9.253906 1.894531 9.316406 1.882812 L 13.066406 1.078125 C 13.082031 1.074219 13.101562 1.070312 13.125 1.070312 C 13.191406 1.070312 13.246094 1.089844 13.292969 1.128906 C 13.359375 1.179688 13.394531 1.25 13.394531 1.339844 Z M 13.394531 1.339844 "/>
  </g>
</svg>