<svg xmlns="http://www.w3.org/2000/svg" xlink="http://www.w3.org/1999/xlink" width="20px" height="20px" viewBox="0 0 15 15" version="1.1">
  <g id="surface1">
    <path d="M 13.359375 3.179688 C 13.515625 3.335938 13.648438 3.550781 13.761719 3.816406 C 13.871094 4.085938 13.929688 4.332031 13.929688 4.554688 L 13.929688 14.195312 C 13.929688 14.417969 13.851562 14.609375 13.695312 14.765625 C 13.539062 14.921875 13.347656 15 13.125 15 L 1.875 15 C 1.652344 15 1.460938 14.921875 1.304688 14.765625 C 1.148438 14.609375 1.070312 14.417969 1.070312 14.195312 L 1.070312 0.804688 C 1.070312 0.582031 1.148438 0.390625 1.304688 0.234375 C 1.460938 0.078125 1.652344 0 1.875 0 L 9.375 0 C 9.597656 0 9.84375 0.0546875 10.113281 0.167969 C 10.378906 0.277344 10.589844 0.414062 10.746094 0.570312 Z M 9.644531 1.136719 L 9.644531 4.285156 L 12.789062 4.285156 C 12.734375 4.125 12.671875 4.007812 12.605469 3.941406 L 9.984375 1.324219 C 9.917969 1.253906 9.804688 1.195312 9.644531 1.136719 Z M 12.855469 13.929688 L 12.855469 5.355469 L 9.375 5.355469 C 9.152344 5.355469 8.960938 5.277344 8.804688 5.121094 C 8.648438 4.964844 8.570312 4.777344 8.570312 4.554688 L 8.570312 1.070312 L 2.144531 1.070312 L 2.144531 13.929688 Z M 4.664062 11.96875 L 4.664062 12.855469 L 7.015625 12.855469 L 7.015625 11.96875 L 6.386719 11.96875 L 7.25 10.621094 C 7.277344 10.582031 7.304688 10.535156 7.332031 10.484375 C 7.359375 10.429688 7.382812 10.394531 7.394531 10.371094 C 7.410156 10.347656 7.417969 10.335938 7.425781 10.335938 L 7.441406 10.335938 C 7.445312 10.359375 7.460938 10.386719 7.484375 10.421875 C 7.496094 10.445312 7.507812 10.464844 7.519531 10.484375 C 7.535156 10.503906 7.550781 10.527344 7.570312 10.550781 C 7.589844 10.578125 7.609375 10.601562 7.625 10.621094 L 8.519531 11.96875 L 7.886719 11.96875 L 7.886719 12.855469 L 10.320312 12.855469 L 10.320312 11.96875 L 9.75 11.96875 L 8.144531 9.683594 L 9.777344 7.324219 L 10.335938 7.324219 L 10.335938 6.429688 L 8.003906 6.429688 L 8.003906 7.324219 L 8.621094 7.324219 L 7.757812 8.65625 C 7.738281 8.695312 7.710938 8.738281 7.675781 8.792969 C 7.640625 8.847656 7.617188 8.882812 7.601562 8.90625 L 7.582031 8.929688 L 7.566406 8.929688 C 7.5625 8.910156 7.546875 8.882812 7.523438 8.847656 C 7.492188 8.785156 7.445312 8.722656 7.382812 8.65625 L 6.496094 7.324219 L 7.132812 7.324219 L 7.132812 6.429688 L 4.703125 6.429688 L 4.703125 7.324219 L 5.273438 7.324219 L 6.855469 9.601562 L 5.230469 11.96875 Z M 4.664062 11.96875 " fill="#FFFFFF"/>
  </g>
</svg>