<svg xmlns="http://www.w3.org/2000/svg" xlink="http://www.w3.org/1999/xlink" width="20px" height="20px" viewBox="0 0 15 15" version="1.1">
  <g id="surface1">
    <path d="M 0.914062 13.820312 C 0.804688 13.925781 0.71875 13.960938 0.644531 13.929688 C 0.570312 13.894531 0.535156 13.804688 0.535156 13.660156 L 0.535156 1.339844 C 0.535156 1.195312 0.570312 1.105469 0.644531 1.070312 C 0.71875 1.039062 0.804688 1.074219 0.914062 1.179688 L 6.855469 7.125 C 6.898438 7.167969 6.9375 7.222656 6.964844 7.28125 L 6.964844 1.339844 C 6.964844 1.195312 7 1.105469 7.074219 1.070312 C 7.144531 1.039062 7.234375 1.074219 7.339844 1.179688 L 13.285156 7.125 C 13.390625 7.230469 13.441406 7.355469 13.441406 7.5 C 13.441406 7.644531 13.390625 7.769531 13.285156 7.875 L 7.339844 13.820312 C 7.234375 13.925781 7.144531 13.960938 7.074219 13.929688 C 7 13.894531 6.964844 13.804688 6.964844 13.660156 L 6.964844 7.71875 C 6.9375 7.773438 6.898438 7.828125 6.855469 7.875 Z M 0.914062 13.820312 " fill="#FFFFFF"/>
  </g>
</svg>