<svg xmlns="http://www.w3.org/2000/svg" xlink="http://www.w3.org/1999/xlink" width="20px" height="20px" viewBox="0 0 15 15" version="1.1">
  <g id="surface1">
    <path d="M 13.929688 7.5 C 13.929688 8.902344 13.519531 10.160156 12.703125 11.28125 C 11.882812 12.398438 10.828125 13.171875 9.535156 13.601562 C 9.382812 13.628906 9.273438 13.609375 9.203125 13.542969 C 9.132812 13.476562 9.097656 13.394531 9.097656 13.292969 L 9.097656 11.527344 C 9.097656 10.984375 8.953125 10.589844 8.664062 10.335938 C 8.980469 10.304688 9.265625 10.253906 9.523438 10.1875 C 9.773438 10.121094 10.039062 10.011719 10.308594 9.859375 C 10.578125 9.710938 10.804688 9.523438 10.984375 9.304688 C 11.167969 9.082031 11.316406 8.789062 11.429688 8.425781 C 11.542969 8.058594 11.601562 7.640625 11.601562 7.164062 C 11.601562 6.488281 11.382812 5.914062 10.941406 5.441406 C 11.148438 4.933594 11.125 4.363281 10.875 3.734375 C 10.71875 3.683594 10.492188 3.714844 10.195312 3.824219 C 9.898438 3.9375 9.644531 4.058594 9.425781 4.195312 L 9.105469 4.394531 C 8.589844 4.25 8.050781 4.175781 7.5 4.175781 C 6.949219 4.175781 6.410156 4.25 5.894531 4.394531 C 5.804688 4.332031 5.683594 4.257812 5.539062 4.167969 C 5.390625 4.078125 5.15625 3.972656 4.839844 3.847656 C 4.519531 3.71875 4.28125 3.683594 4.117188 3.734375 C 3.871094 4.363281 3.851562 4.933594 4.058594 5.441406 C 3.617188 5.914062 3.398438 6.488281 3.398438 7.164062 C 3.398438 7.640625 3.457031 8.058594 3.570312 8.421875 C 3.683594 8.785156 3.832031 9.078125 4.007812 9.300781 C 4.1875 9.523438 4.414062 9.710938 4.683594 9.859375 C 4.953125 10.011719 5.214844 10.121094 5.46875 10.1875 C 5.722656 10.253906 6.011719 10.304688 6.328125 10.335938 C 6.105469 10.539062 5.96875 10.824219 5.917969 11.199219 C 5.800781 11.253906 5.675781 11.296875 5.542969 11.324219 C 5.40625 11.351562 5.25 11.367188 5.0625 11.367188 C 4.878906 11.367188 4.695312 11.308594 4.515625 11.1875 C 4.335938 11.066406 4.179688 10.894531 4.050781 10.664062 C 3.945312 10.484375 3.808594 10.339844 3.644531 10.230469 C 3.480469 10.117188 3.34375 10.050781 3.230469 10.027344 L 3.0625 10.003906 C 2.945312 10.003906 2.867188 10.015625 2.820312 10.039062 C 2.777344 10.066406 2.761719 10.097656 2.777344 10.136719 C 2.796875 10.175781 2.820312 10.214844 2.855469 10.253906 C 2.886719 10.292969 2.925781 10.328125 2.964844 10.355469 L 3.023438 10.394531 C 3.144531 10.453125 3.265625 10.558594 3.386719 10.714844 C 3.503906 10.871094 3.59375 11.011719 3.648438 11.140625 L 3.734375 11.332031 C 3.804688 11.546875 3.929688 11.71875 4.101562 11.847656 C 4.273438 11.980469 4.460938 12.0625 4.664062 12.101562 C 4.863281 12.136719 5.058594 12.15625 5.242188 12.15625 C 5.429688 12.160156 5.585938 12.152344 5.707031 12.128906 L 5.902344 12.09375 C 5.902344 12.308594 5.902344 12.554688 5.90625 12.839844 C 5.90625 13.125 5.910156 13.277344 5.910156 13.292969 C 5.910156 13.394531 5.875 13.476562 5.800781 13.542969 C 5.726562 13.609375 5.617188 13.628906 5.464844 13.601562 C 4.171875 13.171875 3.113281 12.398438 2.296875 11.28125 C 1.480469 10.160156 1.070312 8.902344 1.070312 7.5 C 1.070312 6.332031 1.359375 5.257812 1.933594 4.273438 C 2.507812 3.289062 3.289062 2.507812 4.273438 1.933594 C 5.257812 1.359375 6.332031 1.070312 7.5 1.070312 C 8.667969 1.070312 9.742188 1.359375 10.726562 1.933594 C 11.710938 2.507812 12.492188 3.289062 13.066406 4.273438 C 13.640625 5.257812 13.929688 6.332031 13.929688 7.5 Z M 13.929688 7.5 " fill="#FFFFFF"/>
  </g>
</svg>