<svg version="1.1" xmlns="http://www.w3.org/2000/svg" xlink="http://www.w3.org/1999/xlink" x="0px" y="0px" width="15px" height="18.75px" viewBox="0 0 15 18.75" style="enable-background:new 0 0 15 15;" space="preserve">
    <path d="M17.578125,3.515625H5.859375C2.6220703125,3.515625,0,6.1376953125,0,9.375s2.6220703125,5.859375,5.859375,5.859375c1.640625,0,3.1201171875,-0.673828125,4.18212890625,-1.7578125h3.350830078125c1.06201171875,1.083984375,2.545166015625,1.7578125,4.18212890625,1.7578125c3.2373046875,0,5.859375,-2.6220703125,5.859375,-5.859375S20.8154296875,3.515625,17.578125,3.515625zM9.375,10.107421875c0,0.24169921875,-0.19775390625,0.439453125,-0.439453125,0.439453125h-1.904296875v1.904296875c0,0.24169921875,-0.19775390625,0.439453125,-0.439453125,0.439453125h-1.46484375c-0.24169921875,0,-0.439453125,-0.19775390625,-0.439453125,-0.439453125v-1.904296875H2.783203125c-0.24169921875,0,-0.439453125,-0.19775390625,-0.439453125,-0.439453125v-1.46484375c0,-0.24169921875,0.19775390625,-0.439453125,0.439453125,-0.439453125h1.904296875v-1.904296875c0,-0.24169921875,0.19775390625,-0.439453125,0.439453125,-0.439453125h1.46484375c0.24169921875,0,0.439453125,0.19775390625,0.439453125,0.439453125v1.904296875h1.904296875c0.24169921875,0,0.439453125,0.19775390625,0.439453125,0.439453125v1.46484375zm6.73828125,2.490234375c-0.970458984375,0,-1.7578125,-0.787353515625,-1.7578125,-1.7578125s0.787353515625,-1.7578125,1.7578125,-1.7578125s1.7578125,0.787353515625,1.7578125,1.7578125s-0.787353515625,1.7578125,-1.7578125,1.7578125zm2.9296875,-2.9296875c-0.970458984375,0,-1.7578125,-0.787353515625,-1.7578125,-1.7578125s0.787353515625,-1.7578125,1.7578125,-1.7578125s1.7578125,0.787353515625,1.7578125,1.7578125s-0.787353515625,1.7578125,-1.7578125,1.7578125z" fill="#FFFFFF"/>
    </svg>