<svg xmlns="http://www.w3.org/2000/svg" xlink="http://www.w3.org/1999/xlink" width="20px" height="20px" viewBox="0 0 15 15" version="1.1">
  <g id="surface1">
    <path d="M 6.429688 9.105469 L 6.429688 8.035156 C 6.429688 7.957031 6.402344 7.894531 6.351562 7.84375 C 6.304688 7.792969 6.238281 7.769531 6.160156 7.769531 L 4.554688 7.769531 L 4.554688 6.160156 C 4.554688 6.082031 4.527344 6.019531 4.476562 5.96875 C 4.429688 5.917969 4.363281 5.894531 4.285156 5.894531 L 3.214844 5.894531 C 3.136719 5.894531 3.070312 5.917969 3.023438 5.96875 C 2.972656 6.019531 2.945312 6.082031 2.945312 6.160156 L 2.945312 7.769531 L 1.339844 7.769531 C 1.261719 7.769531 1.195312 7.792969 1.148438 7.84375 C 1.097656 7.894531 1.070312 7.957031 1.070312 8.035156 L 1.070312 9.105469 C 1.070312 9.183594 1.097656 9.25 1.148438 9.300781 C 1.195312 9.351562 1.261719 9.375 1.339844 9.375 L 2.945312 9.375 L 2.945312 10.980469 C 2.945312 11.058594 2.972656 11.125 3.023438 11.175781 C 3.070312 11.226562 3.136719 11.25 3.214844 11.25 L 4.285156 11.25 C 4.363281 11.25 4.429688 11.226562 4.476562 11.175781 C 4.527344 11.125 4.554688 11.058594 4.554688 10.980469 L 4.554688 9.375 L 6.160156 9.375 C 6.238281 9.375 6.304688 9.351562 6.351562 9.300781 C 6.402344 9.25 6.429688 9.183594 6.429688 9.105469 Z M 11.25 9.644531 C 11.25 9.347656 11.144531 9.09375 10.9375 8.886719 C 10.726562 8.675781 10.472656 8.570312 10.179688 8.570312 C 9.882812 8.570312 9.628906 8.675781 9.421875 8.886719 C 9.210938 9.09375 9.105469 9.347656 9.105469 9.644531 C 9.105469 9.9375 9.210938 10.191406 9.421875 10.398438 C 9.628906 10.609375 9.882812 10.714844 10.179688 10.714844 C 10.472656 10.714844 10.726562 10.609375 10.9375 10.398438 C 11.144531 10.191406 11.25 9.9375 11.25 9.644531 Z M 13.394531 7.5 C 13.394531 7.203125 13.289062 6.953125 13.078125 6.742188 C 12.871094 6.53125 12.617188 6.429688 12.320312 6.429688 C 12.027344 6.429688 11.773438 6.53125 11.5625 6.742188 C 11.355469 6.953125 11.25 7.203125 11.25 7.5 C 11.25 7.796875 11.355469 8.046875 11.5625 8.257812 C 11.773438 8.46875 12.027344 8.570312 12.320312 8.570312 C 12.617188 8.570312 12.871094 8.46875 13.078125 8.257812 C 13.289062 8.046875 13.394531 7.796875 13.394531 7.5 Z M 15.535156 8.570312 C 15.535156 9.753906 15.117188 10.765625 14.28125 11.601562 C 13.441406 12.4375 12.433594 12.855469 11.25 12.855469 C 10.179688 12.855469 9.234375 12.5 8.421875 11.785156 L 6.578125 11.785156 C 5.765625 12.5 4.820312 12.855469 3.75 12.855469 C 2.566406 12.855469 1.558594 12.4375 0.71875 11.601562 C -0.117188 10.765625 -0.535156 9.753906 -0.535156 8.570312 C -0.535156 7.386719 -0.117188 6.378906 0.71875 5.542969 C 1.558594 4.703125 2.566406 4.285156 3.75 4.285156 L 11.25 4.285156 C 12.433594 4.285156 13.441406 4.703125 14.28125 5.542969 C 15.117188 6.378906 15.535156 7.386719 15.535156 8.570312 Z M 15.535156 8.570312 " fill="#FFFFFF"/>
  </g>
</svg>