<?xml version="1.0" encoding="UTF-8" standalone="yes"?>
<svg xmlns="http://www.w3.org/2000/svg" xmlns:xlink="http://www.w3.org/1999/xlink" width="20px" height="20px" viewBox="0 0 15 15" version="1.1">
  <g id="surface1">
    <path style=" stroke:none;fill-rule:nonzero;fill:rgb(0%,0%,0%);fill-opacity:1;" d="M 8.746094 7.574219 C 8.746094 7.429688 8.730469 7.25 8.695312 7.039062 L 5.667969 7.039062 L 5.667969 8.144531 L 7.484375 8.144531 C 7.464844 8.277344 7.421875 8.417969 7.34375 8.5625 C 7.269531 8.707031 7.164062 8.855469 7.03125 9.007812 C 6.898438 9.15625 6.710938 9.28125 6.476562 9.378906 C 6.238281 9.476562 5.96875 9.527344 5.667969 9.527344 C 5.113281 9.527344 4.644531 9.328125 4.253906 8.929688 C 3.863281 8.535156 3.667969 8.058594 3.667969 7.5 C 3.667969 6.941406 3.863281 6.464844 4.253906 6.070312 C 4.644531 5.671875 5.113281 5.472656 5.667969 5.472656 C 6.179688 5.472656 6.605469 5.640625 6.949219 5.96875 L 7.816406 5.121094 C 7.214844 4.566406 6.5 4.285156 5.667969 4.285156 C 4.773438 4.285156 4.015625 4.601562 3.390625 5.226562 C 2.765625 5.855469 2.453125 6.613281 2.453125 7.5 C 2.453125 8.386719 2.765625 9.144531 3.390625 9.773438 C 4.015625 10.398438 4.773438 10.714844 5.667969 10.714844 C 6.585938 10.714844 7.332031 10.421875 7.898438 9.835938 C 8.464844 9.25 8.746094 8.496094 8.746094 7.574219 Z M 11.636719 7.960938 L 12.546875 7.960938 L 12.546875 7.039062 L 11.636719 7.039062 L 11.636719 6.117188 L 10.714844 6.117188 L 10.714844 7.039062 L 9.792969 7.039062 L 9.792969 7.960938 L 10.714844 7.960938 L 10.714844 8.882812 L 11.636719 8.882812 Z M 13.929688 3.480469 L 13.929688 11.519531 C 13.929688 12.183594 13.691406 12.75 13.222656 13.222656 C 12.75 13.691406 12.183594 13.929688 11.519531 13.929688 L 3.480469 13.929688 C 2.816406 13.929688 2.25 13.691406 1.777344 13.222656 C 1.308594 12.75 1.070312 12.183594 1.070312 11.519531 L 1.070312 3.480469 C 1.070312 2.816406 1.308594 2.25 1.777344 1.777344 C 2.25 1.308594 2.816406 1.070312 3.480469 1.070312 L 11.519531 1.070312 C 12.183594 1.070312 12.75 1.308594 13.222656 1.777344 C 13.691406 2.25 13.929688 2.816406 13.929688 3.480469 Z M 13.929688 3.480469 "/>
  </g>
</svg>