<svg version="1.1" xmlns="http://www.w3.org/2000/svg" xlink="http://www.w3.org/1999/xlink" x="0px" y="0px" width="15px" height="16.875px" viewBox="0 0 15 16.875" style="enable-background:new 0 0 15 15;" space="preserve">
    <path d="M16.0015869140625,0L18.984375,5.2734375H15.6522216796875L13.3714599609375,0h2.630126953125zm-4.21875,0l2.28076171875,5.2734375H4.9207763671875L7.2015380859375,0h4.581298828125zm-8.800048828125,0h2.630126953125l-2.28076171875,5.2734375H0L2.9827880859375,0zM0,6.328125h3.3189697265625l4.053955078125,8.2957763671875c0.0494384765625,0.1021728515625,-0.0889892578125,0.1944580078125,-0.164794921875,0.1087646484375L0,6.328125zm4.884521484375,0h9.21533203125l-4.515380859375,10.487548828125c-0.032958984375,0.0791015625,-0.1483154296875,0.0791015625,-0.1812744140625,0L4.884521484375,6.328125zm6.7269287109375,8.2957763671875l4.053955078125,-8.2957763671875H18.984375L11.7762451171875,14.7293701171875c-0.0758056640625,0.0889892578125,-0.2142333984375,-0.0032958984375,-0.164794921875,-0.10546875z" fill="#FFFFFF"/>
    </svg>