<svg version="1.1" xmlns="http://www.w3.org/2000/svg" xlink="http://www.w3.org/1999/xlink" x="0px" y="0px" width="15px" height="15px" viewBox="0 0 15 15" style="enable-background:new 0 0 15 15;" space="preserve">
    <path d="M14.222656,1.558594C14.222656,1.753906,14.101562,1.96875,13.863281,2.210938L8.570312,7.5L8.570312,13.929688L11.25,13.929688C11.394531,13.929688,11.519531,13.980469,11.625,14.085938C11.734375,14.195312,11.785156,14.320312,11.785156,14.464844C11.785156,14.609375,11.734375,14.734375,11.625,14.839844C11.519531,14.945312,11.394531,15,11.25,15L3.75,15C3.605469,15,3.480469,14.945312,3.375,14.839844C3.265625,14.734375,3.214844,14.609375,3.214844,14.464844C3.214844,14.320312,3.265625,14.195312,3.375,14.085938C3.480469,13.980469,3.605469,13.929688,3.75,13.929688L6.429688,13.929688L6.429688,7.5L1.136719,2.210938C0.898438,1.96875,0.777344,1.753906,0.777344,1.558594C0.777344,1.429688,0.828125,1.328125,0.929688,1.25C1.03125,1.175781,1.136719,1.128906,1.246094,1.105469C1.359375,1.082031,1.480469,1.070312,1.605469,1.070312L13.394531,1.070312C13.519531,1.070312,13.640625,1.082031,13.753906,1.105469C13.863281,1.128906,13.96875,1.175781,14.070312,1.25C14.171875,1.328125,14.222656,1.429688,14.222656,1.558594ZM14.222656,1.558594" fill="#FFFFFF"/>
    </svg>