<svg version="1.1" xmlns="http://www.w3.org/2000/svg" xlink="http://www.w3.org/1999/xlink" x="0px" y="0px" width="15px" height="18.75px" viewBox="0 0 15 18.75" style="enable-background:new 0 0 15 15;" space="preserve">
    <path d="M22.790771484375,5.6103515625L12.57568359375,2.471923828125c-0.556640625,-0.1710205078125,-1.1572265625,-0.1710205078125,-1.7135009765625,0L0.646728515625,5.6103515625c-0.8620605468749999,0.2647705078125,-0.8620605468749999,1.40478515625,0,1.6695556640625l1.7808837890625,0.547119140625c-0.3907470703125,0.4830322265625,-0.6309814453125,1.072265625,-0.65478515625,1.717529296875C1.420166015625,9.746704101562498,1.171875,10.111450195312502,1.171875,10.546875c0,0.394775390625,0.20800781249999997,0.7269287109375,0.507568359375,0.9393310546875L0.7445068359375,15.6932373046875C0.6632080078125,16.05908203125,0.9415283203125001,16.40625,1.3161621093749998,16.40625h2.0548095703125c0.375,0,0.6533203125,-0.34716796875000006,0.572021484375,-0.7130126953124999L3.008056640625,11.4862060546875C3.3076171875,11.2738037109375,3.515625,10.941650390625,3.515625,10.546875c0,-0.4237060546875,-0.2369384765625,-0.7781982421875,-0.573486328125,-0.9840087890625c0.02783203125,-0.550048828125,0.30908203125,-1.036376953125,0.7576904296875,-1.3447265625L10.86181640625,10.418701171875c0.331787109375,0.10180664062499999,0.96826171875,0.2288818359375,1.7135009765625,0l10.2154541015625,-3.138427734375c0.8624267578125,-0.26513671875,0.8624267578125,-1.40478515625,0,-1.669921875zM12.9195556640625,11.538940429687498c-1.0447998046875,0.32080078125,-1.93505859375,0.1435546875,-2.4019775390625,0l-5.310791015625,-1.6314697265625L4.6875,14.0625c0,1.2945556640625,3.1479492187499996,2.34375,7.03125,2.34375s7.03125,-1.0491943359375,7.03125,-2.34375l-0.519287109375,-4.1553955078125l-5.3111572265625,1.6318359375000002z" fill="#FFFFFF"/>
    </svg>