<svg version="1.1" xmlns="http://www.w3.org/2000/svg" xlink="http://www.w3.org/1999/xlink" x="0px" y="0px" width="15px" height="15px" viewBox="0 0 15 15" style="enable-background:new 0 0 15 15;" space="preserve">
    <path d="M9.644531,7.5C9.644531,6.910156,9.433594,6.402344,9.015625,5.984375C8.597656,5.566406,8.089844,5.355469,7.5,5.355469C6.910156,5.355469,6.402344,5.566406,5.984375,5.984375C5.566406,6.402344,5.355469,6.910156,5.355469,7.5C5.355469,8.089844,5.566406,8.597656,5.984375,9.015625C6.402344,9.433594,6.910156,9.644531,7.5,9.644531C8.089844,9.644531,8.597656,9.433594,9.015625,9.015625C9.433594,8.597656,9.644531,8.089844,9.644531,7.5ZM13.929688,6.585938L13.929688,8.445312C13.929688,8.511719,13.90625,8.578125,13.863281,8.636719C13.816406,8.699219,13.761719,8.734375,13.695312,8.746094L12.144531,8.980469C12.039062,9.28125,11.929688,9.535156,11.820312,9.742188C12.015625,10.023438,12.3125,10.40625,12.714844,10.898438C12.769531,10.964844,12.796875,11.035156,12.796875,11.109375C12.796875,11.179688,12.773438,11.246094,12.722656,11.300781C12.574219,11.507812,12.296875,11.808594,11.894531,12.203125C11.492188,12.601562,11.230469,12.796875,11.109375,12.796875C11.039062,12.796875,10.96875,12.773438,10.890625,12.722656L9.734375,11.820312C9.488281,11.949219,9.234375,12.054688,8.972656,12.136719C8.882812,12.894531,8.804688,13.414062,8.730469,13.695312C8.691406,13.851562,8.589844,13.929688,8.429688,13.929688L6.570312,13.929688C6.492188,13.929688,6.425781,13.90625,6.367188,13.859375C6.308594,13.808594,6.273438,13.75,6.269531,13.675781L6.035156,12.136719C5.761719,12.046875,5.511719,11.945312,5.28125,11.828125L4.101562,12.722656C4.046875,12.773438,3.976562,12.796875,3.890625,12.796875C3.8125,12.796875,3.746094,12.769531,3.683594,12.707031C2.980469,12.070312,2.519531,11.601562,2.300781,11.300781C2.261719,11.246094,2.242188,11.179688,2.242188,11.109375C2.242188,11.039062,2.265625,10.976562,2.308594,10.914062C2.394531,10.796875,2.535156,10.613281,2.738281,10.359375C2.9375,10.105469,3.089844,9.90625,3.1875,9.769531C3.039062,9.488281,2.925781,9.214844,2.847656,8.941406L1.3125,8.714844C1.242188,8.703125,1.183594,8.667969,1.136719,8.609375C1.09375,8.550781,1.070312,8.484375,1.070312,8.414062L1.070312,6.554688C1.070312,6.488281,1.09375,6.421875,1.136719,6.363281C1.183594,6.300781,1.234375,6.265625,1.296875,6.253906L2.855469,6.019531C2.933594,5.761719,3.042969,5.503906,3.179688,5.25C2.957031,4.929688,2.660156,4.546875,2.285156,4.09375C2.230469,4.027344,2.203125,3.960938,2.203125,3.890625C2.203125,3.835938,2.226562,3.773438,2.277344,3.699219C2.421875,3.5,2.695312,3.199219,3.101562,2.800781C3.503906,2.402344,3.769531,2.203125,3.890625,2.203125C3.964844,2.203125,4.039062,2.230469,4.109375,2.285156L5.265625,3.179688C5.511719,3.050781,5.765625,2.945312,6.027344,2.863281C6.117188,2.105469,6.195312,1.585938,6.269531,1.304688C6.308594,1.148438,6.410156,1.070312,6.570312,1.070312L8.429688,1.070312C8.507812,1.070312,8.574219,1.09375,8.632812,1.140625C8.691406,1.191406,8.726562,1.25,8.730469,1.324219L8.964844,2.863281C9.238281,2.953125,9.488281,3.054688,9.71875,3.171875L10.90625,2.277344C10.957031,2.226562,11.023438,2.203125,11.109375,2.203125C11.179688,2.203125,11.25,2.230469,11.316406,2.285156C12.035156,2.949219,12.496094,3.421875,12.699219,3.707031C12.738281,3.753906,12.757812,3.8125,12.757812,3.890625C12.757812,3.960938,12.734375,4.023438,12.691406,4.085938C12.605469,4.203125,12.464844,4.386719,12.261719,4.640625C12.0625,4.894531,11.910156,5.09375,11.8125,5.230469C11.957031,5.511719,12.070312,5.785156,12.152344,6.050781L13.6875,6.285156C13.757812,6.296875,13.816406,6.332031,13.863281,6.390625C13.90625,6.449219,13.929688,6.515625,13.929688,6.585938ZM13.929688,6.585938" fill="#FFFFFF"/>
    </svg>