<svg xmlns="http://www.w3.org/2000/svg" xlink="http://www.w3.org/1999/xlink" width="20px" height="20px" viewBox="0 0 15 15" version="1.1">
  <g id="surface1">
    <path d="M 9.886719 7.640625 C 9.886719 8.804688 9.644531 9.835938 9.15625 10.742188 C 8.671875 11.648438 7.980469 12.359375 7.082031 12.871094 C 6.183594 13.378906 5.152344 13.636719 3.992188 13.636719 C 3.160156 13.636719 2.367188 13.472656 1.605469 13.148438 C 0.847656 12.828125 0.195312 12.390625 -0.351562 11.84375 C -0.898438 11.296875 -1.332031 10.644531 -1.65625 9.886719 C -1.980469 9.125 -2.144531 8.332031 -2.144531 7.5 C -2.144531 6.667969 -1.980469 5.875 -1.65625 5.113281 C -1.332031 4.355469 -0.898438 3.703125 -0.351562 3.15625 C 0.195312 2.609375 0.847656 2.171875 1.605469 1.851562 C 2.367188 1.527344 3.160156 1.363281 3.992188 1.363281 C 5.589844 1.363281 6.957031 1.898438 8.101562 2.972656 L 6.4375 4.570312 C 5.785156 3.941406 4.96875 3.625 3.992188 3.625 C 3.304688 3.625 2.671875 3.796875 2.089844 4.144531 C 1.503906 4.488281 1.042969 4.960938 0.703125 5.554688 C 0.363281 6.148438 0.191406 6.796875 0.191406 7.5 C 0.191406 8.203125 0.363281 8.851562 0.703125 9.445312 C 1.042969 10.039062 1.503906 10.511719 2.089844 10.855469 C 2.671875 11.203125 3.304688 11.375 3.992188 11.375 C 4.457031 11.375 4.882812 11.3125 5.269531 11.183594 C 5.65625 11.054688 5.976562 10.894531 6.226562 10.703125 C 6.480469 10.507812 6.699219 10.289062 6.882812 10.042969 C 7.070312 9.800781 7.207031 9.566406 7.296875 9.351562 C 7.382812 9.132812 7.441406 8.925781 7.476562 8.730469 L 3.992188 8.730469 L 3.992188 6.621094 L 9.785156 6.621094 C 9.851562 6.972656 9.886719 7.3125 9.886719 7.640625 Z M 17.144531 6.621094 L 17.144531 8.378906 L 15.394531 8.378906 L 15.394531 10.128906 L 13.636719 10.128906 L 13.636719 8.378906 L 11.886719 8.378906 L 11.886719 6.621094 L 13.636719 6.621094 L 13.636719 4.871094 L 15.394531 4.871094 L 15.394531 6.621094 Z M 17.144531 6.621094 " fill="#FFFFFF"/>
  </g>
</svg>