<svg xmlns="http://www.w3.org/2000/svg" xlink="http://www.w3.org/1999/xlink" width="20px" height="20px" viewBox="0 0 15 15" version="1.1">
  <g id="surface1">
    <path d="M 12.707031 6.996094 L 12.855469 9.644531 C 12.878906 10.027344 12.652344 10.386719 12.171875 10.714844 C 11.691406 11.042969 11.035156 11.304688 10.203125 11.496094 C 9.371094 11.6875 8.472656 11.785156 7.5 11.785156 C 6.527344 11.785156 5.628906 11.6875 4.796875 11.496094 C 3.964844 11.304688 3.308594 11.042969 2.828125 10.714844 C 2.347656 10.386719 2.121094 10.027344 2.144531 9.644531 L 2.292969 6.996094 L 7.097656 8.511719 C 7.222656 8.550781 7.355469 8.570312 7.5 8.570312 C 7.644531 8.570312 7.777344 8.550781 7.902344 8.511719 Z M 17.144531 4.285156 C 17.144531 4.414062 17.082031 4.5 16.957031 4.546875 L 7.582031 7.492188 C 7.5625 7.496094 7.535156 7.5 7.5 7.5 C 7.464844 7.5 7.4375 7.496094 7.417969 7.492188 L 1.957031 5.765625 C 1.71875 5.957031 1.519531 6.269531 1.363281 6.699219 C 1.207031 7.132812 1.113281 7.632812 1.078125 8.195312 C 1.429688 8.394531 1.605469 8.699219 1.605469 9.105469 C 1.605469 9.492188 1.445312 9.789062 1.121094 10.003906 L 1.605469 13.628906 C 1.617188 13.707031 1.597656 13.773438 1.539062 13.835938 C 1.488281 13.898438 1.421875 13.929688 1.339844 13.929688 L -0.269531 13.929688 C -0.351562 13.929688 -0.417969 13.898438 -0.46875 13.835938 C -0.523438 13.773438 -0.546875 13.707031 -0.535156 13.628906 L -0.0507812 10.003906 C -0.375 9.789062 -0.535156 9.492188 -0.535156 9.105469 C -0.535156 8.699219 -0.355469 8.390625 0.0078125 8.179688 C 0.0703125 7.023438 0.34375 6.101562 0.828125 5.414062 L -1.957031 4.546875 C -2.082031 4.5 -2.144531 4.414062 -2.144531 4.285156 C -2.144531 4.15625 -2.082031 4.070312 -1.957031 4.027344 L 7.417969 1.078125 C 7.4375 1.074219 7.464844 1.070312 7.5 1.070312 C 7.535156 1.070312 7.5625 1.074219 7.582031 1.078125 L 16.957031 4.027344 C 17.082031 4.070312 17.144531 4.15625 17.144531 4.285156 Z M 17.144531 4.285156 " fill="#FFFFFF"/>
  </g>
</svg>