<?xml version="1.0" encoding="UTF-8" standalone="yes"?>
<svg xmlns="http://www.w3.org/2000/svg" xmlns:xlink="http://www.w3.org/1999/xlink" width="20px" height="20px" viewBox="0 0 15 15" version="1.1">
  <g id="surface1">
    <path style=" stroke:none;fill-rule:nonzero;fill:rgb(0%,0%,0%);fill-opacity:1;" d="M 4.429688 7.5 C 3.523438 7.527344 2.785156 7.886719 2.210938 8.570312 L 1.089844 8.570312 C 0.628906 8.570312 0.246094 8.457031 -0.0664062 8.234375 C -0.378906 8.007812 -0.535156 7.675781 -0.535156 7.242188 C -0.535156 5.269531 -0.191406 4.285156 0.503906 4.285156 C 0.535156 4.285156 0.65625 4.34375 0.867188 4.460938 C 1.074219 4.578125 1.347656 4.695312 1.683594 4.816406 C 2.015625 4.9375 2.347656 4.996094 2.679688 4.996094 C 3.050781 4.996094 3.421875 4.933594 3.792969 4.804688 C 3.765625 5.011719 3.75 5.195312 3.75 5.355469 C 3.75 6.132812 3.976562 6.847656 4.429688 7.5 Z M 13.394531 12.832031 C 13.394531 13.5 13.1875 14.03125 12.78125 14.417969 C 12.375 14.804688 11.832031 15 11.15625 15 L 3.84375 15 C 3.167969 15 2.625 14.804688 2.21875 14.417969 C 1.8125 14.03125 1.605469 13.5 1.605469 12.832031 C 1.605469 12.535156 1.617188 12.246094 1.636719 11.964844 C 1.65625 11.683594 1.695312 11.378906 1.753906 11.054688 C 1.8125 10.726562 1.886719 10.425781 1.976562 10.144531 C 2.066406 9.867188 2.183594 9.59375 2.335938 9.328125 C 2.484375 9.0625 2.660156 8.835938 2.855469 8.652344 C 3.050781 8.464844 3.289062 8.316406 3.570312 8.203125 C 3.851562 8.089844 4.164062 8.035156 4.503906 8.035156 C 4.558594 8.035156 4.679688 8.09375 4.863281 8.214844 C 5.046875 8.335938 5.25 8.46875 5.472656 8.617188 C 5.699219 8.765625 5.996094 8.898438 6.371094 9.019531 C 6.742188 9.140625 7.121094 9.199219 7.5 9.199219 C 7.878906 9.199219 8.257812 9.140625 8.628906 9.019531 C 9.003906 8.898438 9.300781 8.765625 9.527344 8.617188 C 9.75 8.46875 9.953125 8.335938 10.136719 8.214844 C 10.320312 8.09375 10.441406 8.035156 10.496094 8.035156 C 10.835938 8.035156 11.148438 8.089844 11.429688 8.203125 C 11.710938 8.316406 11.949219 8.464844 12.144531 8.652344 C 12.339844 8.835938 12.515625 9.0625 12.664062 9.328125 C 12.816406 9.59375 12.933594 9.867188 13.023438 10.144531 C 13.113281 10.425781 13.1875 10.726562 13.246094 11.054688 C 13.304688 11.378906 13.34375 11.683594 13.363281 11.964844 C 13.382812 12.246094 13.394531 12.535156 13.394531 12.832031 Z M 4.820312 2.144531 C 4.820312 2.734375 4.613281 3.238281 4.195312 3.65625 C 3.773438 4.078125 3.269531 4.285156 2.679688 4.285156 C 2.085938 4.285156 1.582031 4.078125 1.164062 3.65625 C 0.746094 3.238281 0.535156 2.734375 0.535156 2.144531 C 0.535156 1.550781 0.746094 1.046875 1.164062 0.628906 C 1.582031 0.210938 2.085938 0 2.679688 0 C 3.269531 0 3.773438 0.210938 4.195312 0.628906 C 4.613281 1.046875 4.820312 1.550781 4.820312 2.144531 Z M 10.714844 5.355469 C 10.714844 6.246094 10.398438 7 9.773438 7.628906 C 9.144531 8.257812 8.386719 8.570312 7.5 8.570312 C 6.613281 8.570312 5.855469 8.257812 5.226562 7.628906 C 4.601562 7 4.285156 6.246094 4.285156 5.355469 C 4.285156 4.46875 4.601562 3.710938 5.226562 3.085938 C 5.855469 2.457031 6.613281 2.144531 7.5 2.144531 C 8.386719 2.144531 9.144531 2.457031 9.773438 3.085938 C 10.398438 3.710938 10.714844 4.46875 10.714844 5.355469 Z M 15.535156 7.242188 C 15.535156 7.675781 15.378906 8.007812 15.066406 8.234375 C 14.753906 8.457031 14.371094 8.570312 13.910156 8.570312 L 12.789062 8.570312 C 12.214844 7.886719 11.476562 7.527344 10.570312 7.5 C 11.023438 6.847656 11.25 6.132812 11.25 5.355469 C 11.25 5.195312 11.234375 5.011719 11.207031 4.804688 C 11.578125 4.933594 11.949219 4.996094 12.320312 4.996094 C 12.652344 4.996094 12.984375 4.9375 13.316406 4.816406 C 13.652344 4.695312 13.925781 4.578125 14.132812 4.460938 C 14.34375 4.34375 14.464844 4.285156 14.496094 4.285156 C 15.191406 4.285156 15.535156 5.269531 15.535156 7.242188 Z M 14.464844 2.144531 C 14.464844 2.734375 14.253906 3.238281 13.835938 3.65625 C 13.417969 4.078125 12.914062 4.285156 12.320312 4.285156 C 11.730469 4.285156 11.226562 4.078125 10.804688 3.65625 C 10.386719 3.238281 10.179688 2.734375 10.179688 2.144531 C 10.179688 1.550781 10.386719 1.046875 10.804688 0.628906 C 11.226562 0.210938 11.730469 0 12.320312 0 C 12.914062 0 13.417969 0.210938 13.835938 0.628906 C 14.253906 1.046875 14.464844 1.550781 14.464844 2.144531 Z M 14.464844 2.144531 "/>
  </g>
</svg>