<?xml version="1.0" encoding="UTF-8" standalone="yes"?>
<svg xmlns="http://www.w3.org/2000/svg" xmlns:xlink="http://www.w3.org/1999/xlink" width="20px" height="20px" viewBox="0 0 15 15" version="1.1">
  <g id="surface1">
    <path style=" stroke:none;fill-rule:nonzero;fill:rgb(0%,0%,0%);fill-opacity:1;" d="M 13.402344 1.070312 C 13.765625 1.070312 14.070312 1.199219 14.320312 1.453125 C 14.574219 1.707031 14.699219 2.015625 14.699219 2.378906 L 14.699219 6.722656 C 14.699219 7.703125 14.507812 8.640625 14.128906 9.535156 C 13.75 10.425781 13.242188 11.195312 12.601562 11.835938 C 11.960938 12.476562 11.199219 12.988281 10.308594 13.363281 C 9.417969 13.742188 8.484375 13.929688 7.507812 13.929688 C 6.527344 13.929688 5.589844 13.742188 4.699219 13.363281 C 3.808594 12.988281 3.042969 12.476562 2.402344 11.835938 C 1.761719 11.195312 1.25 10.425781 0.871094 9.535156 C 0.492188 8.640625 0.300781 7.703125 0.300781 6.722656 L 0.300781 2.378906 C 0.300781 2.019531 0.429688 1.714844 0.6875 1.457031 C 0.941406 1.199219 1.25 1.070312 1.605469 1.070312 Z M 7.507812 9.976562 C 7.769531 9.976562 8 9.886719 8.195312 9.703125 L 11.578125 6.453125 C 11.78125 6.257812 11.886719 6.019531 11.886719 5.742188 C 11.886719 5.46875 11.789062 5.234375 11.597656 5.042969 C 11.40625 4.851562 11.171875 4.753906 10.898438 4.753906 C 10.636719 4.753906 10.40625 4.847656 10.210938 5.03125 L 7.507812 7.625 L 4.804688 5.03125 C 4.609375 4.847656 4.382812 4.753906 4.125 4.753906 C 3.851562 4.753906 3.621094 4.851562 3.429688 5.042969 C 3.234375 5.234375 3.140625 5.46875 3.140625 5.742188 C 3.140625 6.027344 3.238281 6.265625 3.441406 6.453125 L 6.832031 9.703125 C 7.015625 9.886719 7.242188 9.976562 7.507812 9.976562 Z M 7.507812 9.976562 "/>
  </g>
</svg>