<?xml version="1.0" encoding="UTF-8" standalone="yes"?>
<svg xmlns="http://www.w3.org/2000/svg" xmlns:xlink="http://www.w3.org/1999/xlink" width="20px" height="20px" viewBox="0 0 15 15" version="1.1">
  <g id="surface1">
    <path style=" stroke:none;fill-rule:nonzero;fill:rgb(0%,0%,0%);fill-opacity:1;" d="M 4.371094 11.316406 C 4.324219 11.367188 4.269531 11.359375 4.203125 11.292969 C 4.128906 11.230469 4.117188 11.175781 4.167969 11.132812 C 4.214844 11.082031 4.269531 11.089844 4.335938 11.15625 C 4.402344 11.21875 4.414062 11.273438 4.371094 11.316406 Z M 4.019531 10.804688 C 4.066406 10.875 4.066406 10.925781 4.019531 10.964844 C 3.972656 11 3.925781 10.980469 3.875 10.90625 C 3.824219 10.835938 3.824219 10.785156 3.875 10.757812 C 3.925781 10.71875 3.972656 10.734375 4.019531 10.804688 Z M 3.507812 10.304688 C 3.480469 10.34375 3.441406 10.347656 3.398438 10.320312 C 3.34375 10.292969 3.324219 10.257812 3.339844 10.21875 C 3.355469 10.191406 3.394531 10.1875 3.449219 10.203125 C 3.503906 10.230469 3.523438 10.265625 3.507812 10.304688 Z M 3.765625 10.589844 C 3.734375 10.628906 3.6875 10.621094 3.632812 10.5625 C 3.582031 10.503906 3.578125 10.457031 3.617188 10.429688 C 3.648438 10.394531 3.695312 10.40625 3.75 10.453125 C 3.800781 10.515625 3.804688 10.5625 3.765625 10.589844 Z M 4.847656 11.527344 C 4.824219 11.59375 4.769531 11.609375 4.6875 11.578125 C 4.59375 11.554688 4.554688 11.511719 4.578125 11.449219 C 4.601562 11.390625 4.652344 11.371094 4.738281 11.390625 C 4.828125 11.421875 4.863281 11.464844 4.847656 11.527344 Z M 5.375 11.566406 C 5.375 11.628906 5.328125 11.660156 5.238281 11.660156 C 5.144531 11.671875 5.097656 11.640625 5.097656 11.566406 C 5.097656 11.507812 5.140625 11.476562 5.230469 11.476562 C 5.328125 11.464844 5.375 11.496094 5.375 11.566406 Z M 5.859375 11.484375 C 5.871094 11.539062 5.832031 11.578125 5.742188 11.601562 C 5.652344 11.625 5.601562 11.601562 5.589844 11.535156 C 5.582031 11.46875 5.621094 11.425781 5.707031 11.410156 C 5.796875 11.398438 5.847656 11.421875 5.859375 11.484375 Z M 13.929688 3.480469 L 13.929688 11.519531 C 13.929688 12.183594 13.691406 12.75 13.222656 13.222656 C 12.75 13.691406 12.183594 13.929688 11.519531 13.929688 L 9.644531 13.929688 C 9.554688 13.929688 9.484375 13.925781 9.4375 13.921875 C 9.390625 13.914062 9.335938 13.902344 9.273438 13.878906 C 9.214844 13.855469 9.167969 13.816406 9.140625 13.757812 C 9.113281 13.699219 9.097656 13.621094 9.097656 13.527344 L 9.097656 11.527344 C 9.097656 10.984375 8.953125 10.589844 8.664062 10.335938 C 8.980469 10.304688 9.265625 10.253906 9.523438 10.1875 C 9.773438 10.121094 10.039062 10.011719 10.308594 9.859375 C 10.578125 9.710938 10.804688 9.523438 10.984375 9.304688 C 11.167969 9.082031 11.316406 8.789062 11.429688 8.425781 C 11.542969 8.058594 11.601562 7.640625 11.601562 7.164062 C 11.601562 6.488281 11.382812 5.914062 10.941406 5.441406 C 11.148438 4.933594 11.125 4.363281 10.875 3.734375 C 10.71875 3.683594 10.492188 3.714844 10.195312 3.824219 C 9.898438 3.9375 9.644531 4.058594 9.425781 4.195312 L 9.105469 4.394531 C 8.589844 4.25 8.050781 4.175781 7.5 4.175781 C 6.949219 4.175781 6.410156 4.25 5.894531 4.394531 C 5.804688 4.332031 5.683594 4.257812 5.539062 4.167969 C 5.390625 4.078125 5.15625 3.972656 4.839844 3.847656 C 4.519531 3.71875 4.28125 3.683594 4.117188 3.734375 C 3.871094 4.363281 3.851562 4.933594 4.058594 5.441406 C 3.617188 5.914062 3.398438 6.488281 3.398438 7.164062 C 3.398438 7.640625 3.457031 8.058594 3.570312 8.421875 C 3.683594 8.785156 3.832031 9.078125 4.007812 9.300781 C 4.1875 9.523438 4.414062 9.710938 4.683594 9.859375 C 4.953125 10.011719 5.214844 10.121094 5.46875 10.1875 C 5.722656 10.253906 6.011719 10.304688 6.328125 10.335938 C 6.105469 10.539062 5.96875 10.824219 5.917969 11.199219 C 5.800781 11.253906 5.675781 11.296875 5.542969 11.324219 C 5.40625 11.351562 5.25 11.367188 5.0625 11.367188 C 4.878906 11.367188 4.695312 11.308594 4.515625 11.1875 C 4.335938 11.066406 4.179688 10.894531 4.050781 10.664062 C 3.945312 10.484375 3.808594 10.339844 3.644531 10.230469 C 3.480469 10.117188 3.34375 10.050781 3.230469 10.027344 L 3.0625 10.003906 C 2.945312 10.003906 2.867188 10.015625 2.820312 10.039062 C 2.777344 10.066406 2.761719 10.097656 2.777344 10.136719 C 2.796875 10.175781 2.820312 10.214844 2.855469 10.253906 C 2.886719 10.292969 2.925781 10.328125 2.964844 10.355469 L 3.023438 10.394531 C 3.144531 10.453125 3.265625 10.558594 3.386719 10.714844 C 3.503906 10.871094 3.59375 11.011719 3.648438 11.140625 L 3.734375 11.332031 C 3.804688 11.546875 3.929688 11.71875 4.101562 11.847656 C 4.273438 11.980469 4.460938 12.0625 4.664062 12.101562 C 4.863281 12.136719 5.058594 12.15625 5.242188 12.15625 C 5.429688 12.160156 5.585938 12.152344 5.707031 12.128906 L 5.902344 12.09375 C 5.902344 12.308594 5.902344 12.59375 5.90625 12.957031 C 5.90625 13.320312 5.910156 13.511719 5.910156 13.527344 C 5.910156 13.648438 5.878906 13.742188 5.816406 13.808594 C 5.757812 13.871094 5.695312 13.90625 5.632812 13.914062 C 5.570312 13.925781 5.480469 13.929688 5.355469 13.929688 L 3.480469 13.929688 C 2.816406 13.929688 2.25 13.691406 1.777344 13.222656 C 1.308594 12.75 1.070312 12.183594 1.070312 11.519531 L 1.070312 3.480469 C 1.070312 2.816406 1.308594 2.25 1.777344 1.777344 C 2.25 1.308594 2.816406 1.070312 3.480469 1.070312 L 11.519531 1.070312 C 12.183594 1.070312 12.75 1.308594 13.222656 1.777344 C 13.691406 2.25 13.929688 2.816406 13.929688 3.480469 Z M 13.929688 3.480469 "/>
  </g>
</svg>