<svg xmlns="http://www.w3.org/2000/svg" xlink="http://www.w3.org/1999/xlink" width="20px" height="20px" viewBox="0 0 15 15" version="1.1">
  <g id="surface1">
    <path d="M 5.039062 4.914062 C 5.144531 5.253906 5.230469 5.597656 5.296875 5.945312 C 5.367188 6.296875 5.414062 6.691406 5.441406 7.132812 C 5.46875 7.574219 5.429688 8.015625 5.324219 8.460938 C 5.21875 8.910156 5.042969 9.3125 4.804688 9.675781 C 4.6875 9.222656 4.5 8.785156 4.242188 8.363281 C 3.988281 7.9375 3.71875 7.582031 3.445312 7.300781 C 3.167969 7.015625 2.890625 6.761719 2.617188 6.542969 C 2.339844 6.320312 2.121094 6.160156 1.957031 6.058594 C 1.796875 5.960938 1.703125 5.90625 1.683594 5.902344 C 1.335938 5.710938 1.109375 5.433594 1 5.0625 C 0.890625 4.695312 0.933594 4.339844 1.121094 3.992188 C 1.3125 3.648438 1.59375 3.417969 1.96875 3.3125 C 2.339844 3.203125 2.699219 3.242188 3.046875 3.433594 C 3.816406 3.894531 4.480469 4.390625 5.039062 4.914062 Z M 7.757812 2.511719 C 7.820312 2.652344 7.878906 2.777344 7.929688 2.894531 C 7.984375 3.011719 8.085938 3.292969 8.238281 3.738281 C 8.386719 4.179688 8.507812 4.601562 8.59375 4.996094 C 8.679688 5.394531 8.75 5.894531 8.804688 6.5 C 8.863281 7.105469 8.863281 7.679688 8.804688 8.21875 C 8.75 8.761719 8.617188 9.34375 8.40625 9.972656 C 8.199219 10.601562 7.90625 11.183594 7.523438 11.71875 C 7.242188 12.121094 6.855469 12.320312 6.371094 12.320312 C 6.070312 12.320312 5.796875 12.234375 5.550781 12.0625 C 5.230469 11.839844 5.039062 11.535156 4.972656 11.148438 C 4.90625 10.765625 4.984375 10.410156 5.207031 10.085938 C 5.542969 9.613281 5.765625 9.066406 5.882812 8.453125 C 6 7.839844 6.039062 7.285156 5.992188 6.785156 C 5.949219 6.285156 5.859375 5.78125 5.726562 5.273438 C 5.589844 4.765625 5.484375 4.410156 5.398438 4.203125 C 5.316406 3.996094 5.253906 3.851562 5.214844 3.765625 C 5.042969 3.414062 5.019531 3.054688 5.144531 2.683594 C 5.269531 2.3125 5.507812 2.039062 5.859375 1.867188 C 6.050781 1.773438 6.257812 1.722656 6.488281 1.722656 C 6.75 1.722656 6.996094 1.792969 7.226562 1.933594 C 7.460938 2.074219 7.636719 2.265625 7.757812 2.511719 Z M 10.445312 8.109375 C 10.351562 9.003906 10.152344 9.871094 9.84375 10.714844 C 9.75 9.984375 9.574219 9.296875 9.316406 8.65625 C 9.457031 7.683594 9.441406 6.675781 9.273438 5.632812 C 9.125 4.640625 8.863281 3.6875 8.488281 2.769531 C 9.125 3.273438 9.714844 3.863281 10.261719 4.535156 C 10.3125 4.742188 10.355469 4.964844 10.386719 5.207031 C 10.53125 6.207031 10.550781 7.171875 10.445312 8.109375 Z M 12.722656 0.804688 C 12.773438 0.898438 12.839844 1.035156 12.921875 1.21875 C 13 1.398438 13.121094 1.726562 13.285156 2.203125 C 13.445312 2.675781 13.585938 3.171875 13.707031 3.691406 C 13.828125 4.210938 13.921875 4.84375 13.992188 5.59375 C 14.0625 6.347656 14.074219 7.097656 14.03125 7.847656 C 13.992188 8.597656 13.859375 9.433594 13.640625 10.359375 C 13.417969 11.28125 13.105469 12.183594 12.699219 13.066406 C 12.574219 13.335938 12.390625 13.542969 12.144531 13.699219 C 11.898438 13.851562 11.636719 13.929688 11.351562 13.929688 C 11.132812 13.929688 10.925781 13.882812 10.730469 13.792969 C 10.355469 13.621094 10.097656 13.34375 9.957031 12.957031 C 9.8125 12.574219 9.828125 12.191406 9.996094 11.820312 C 10.316406 11.117188 10.570312 10.398438 10.746094 9.664062 C 10.925781 8.929688 11.03125 8.261719 11.0625 7.660156 C 11.09375 7.054688 11.082031 6.460938 11.03125 5.871094 C 10.980469 5.28125 10.90625 4.78125 10.8125 4.359375 C 10.710938 3.941406 10.605469 3.554688 10.488281 3.203125 C 10.371094 2.847656 10.28125 2.597656 10.214844 2.449219 C 10.152344 2.300781 10.109375 2.210938 10.085938 2.175781 C 9.898438 1.8125 9.863281 1.4375 9.992188 1.042969 C 10.117188 0.648438 10.359375 0.355469 10.722656 0.167969 C 10.929688 0.0546875 11.15625 0 11.402344 0 C 11.675781 0 11.929688 0.0703125 12.167969 0.214844 C 12.402344 0.355469 12.589844 0.550781 12.722656 0.804688 Z M 12.722656 0.804688 " fill="#FFFFFF"/>
  </g>
</svg>