<svg xmlns="http://www.w3.org/2000/svg" xlink="http://www.w3.org/1999/xlink" width="20px" height="20px" viewBox="0 0 15 15" version="1.1">
  <g id="surface1">
    <path d="M 7.5 1.070312 C 8.667969 1.070312 9.742188 1.359375 10.726562 1.933594 C 11.710938 2.507812 12.492188 3.289062 13.066406 4.273438 C 13.640625 5.257812 13.929688 6.332031 13.929688 7.5 C 13.929688 8.667969 13.640625 9.742188 13.066406 10.726562 C 12.492188 11.710938 11.710938 12.492188 10.726562 13.066406 C 9.742188 13.640625 8.667969 13.929688 7.5 13.929688 C 6.332031 13.929688 5.257812 13.640625 4.273438 13.066406 C 3.289062 12.492188 2.507812 11.710938 1.933594 10.726562 C 1.359375 9.742188 1.070312 8.667969 1.070312 7.5 C 1.070312 6.332031 1.359375 5.257812 1.933594 4.273438 C 2.507812 3.289062 3.289062 2.507812 4.273438 1.933594 C 5.257812 1.359375 6.332031 1.070312 7.5 1.070312 Z M 9.792969 5.433594 C 9.78125 5.4375 9.757812 5.464844 9.714844 5.511719 C 9.671875 5.558594 9.632812 5.585938 9.601562 5.589844 C 9.613281 5.589844 9.625 5.578125 9.640625 5.550781 C 9.652344 5.523438 9.667969 5.492188 9.679688 5.457031 C 9.695312 5.425781 9.703125 5.40625 9.710938 5.398438 C 9.742188 5.359375 9.804688 5.316406 9.894531 5.273438 C 9.972656 5.238281 10.117188 5.207031 10.328125 5.171875 C 10.519531 5.128906 10.660156 5.160156 10.757812 5.265625 C 10.746094 5.253906 10.769531 5.21875 10.835938 5.15625 C 10.898438 5.09375 10.941406 5.0625 10.957031 5.054688 C 10.972656 5.042969 11.015625 5.03125 11.082031 5.019531 C 11.148438 5.003906 11.191406 4.984375 11.207031 4.957031 L 11.226562 4.769531 C 11.15625 4.777344 11.109375 4.757812 11.078125 4.710938 C 11.046875 4.667969 11.03125 4.609375 11.023438 4.535156 C 11.023438 4.546875 11.007812 4.570312 10.972656 4.605469 C 10.972656 4.566406 10.960938 4.542969 10.9375 4.535156 C 10.910156 4.53125 10.878906 4.535156 10.839844 4.546875 C 10.800781 4.554688 10.777344 4.558594 10.765625 4.554688 C 10.707031 4.535156 10.667969 4.515625 10.640625 4.492188 C 10.609375 4.464844 10.589844 4.417969 10.570312 4.351562 C 10.554688 4.285156 10.542969 4.242188 10.539062 4.226562 C 10.527344 4.199219 10.5 4.171875 10.460938 4.140625 C 10.417969 4.109375 10.390625 4.078125 10.378906 4.050781 C 10.375 4.039062 10.367188 4.023438 10.359375 4.003906 C 10.351562 3.984375 10.34375 3.96875 10.332031 3.949219 C 10.324219 3.933594 10.3125 3.917969 10.300781 3.90625 C 10.285156 3.890625 10.269531 3.882812 10.253906 3.882812 C 10.238281 3.882812 10.21875 3.898438 10.195312 3.925781 C 10.171875 3.953125 10.152344 3.980469 10.132812 4.007812 C 10.113281 4.039062 10.101562 4.050781 10.09375 4.050781 C 10.078125 4.039062 10.0625 4.035156 10.042969 4.039062 C 10.027344 4.042969 10.015625 4.042969 10.007812 4.046875 C 10 4.050781 9.984375 4.058594 9.96875 4.070312 C 9.953125 4.085938 9.9375 4.097656 9.925781 4.101562 C 9.910156 4.113281 9.886719 4.121094 9.855469 4.125 C 9.824219 4.132812 9.800781 4.136719 9.785156 4.144531 C 9.867188 4.117188 9.867188 4.085938 9.777344 4.050781 C 9.722656 4.027344 9.675781 4.019531 9.644531 4.027344 C 9.691406 4.003906 9.714844 3.96875 9.707031 3.925781 C 9.695312 3.882812 9.671875 3.84375 9.632812 3.808594 L 9.675781 3.808594 C 9.671875 3.785156 9.648438 3.761719 9.605469 3.738281 C 9.5625 3.710938 9.515625 3.6875 9.457031 3.667969 C 9.402344 3.644531 9.367188 3.628906 9.351562 3.617188 C 9.304688 3.589844 9.210938 3.5625 9.066406 3.535156 C 8.921875 3.511719 8.828125 3.511719 8.789062 3.53125 C 8.761719 3.566406 8.75 3.59375 8.75 3.621094 C 8.753906 3.644531 8.765625 3.683594 8.785156 3.738281 C 8.804688 3.789062 8.8125 3.824219 8.8125 3.84375 C 8.820312 3.875 8.804688 3.910156 8.769531 3.949219 C 8.730469 3.988281 8.714844 4.023438 8.714844 4.050781 C 8.714844 4.089844 8.753906 4.132812 8.832031 4.179688 C 8.910156 4.226562 8.9375 4.289062 8.914062 4.359375 C 8.898438 4.40625 8.851562 4.449219 8.78125 4.496094 C 8.707031 4.539062 8.664062 4.574219 8.648438 4.59375 C 8.617188 4.640625 8.613281 4.691406 8.632812 4.75 C 8.652344 4.808594 8.683594 4.855469 8.722656 4.886719 C 8.734375 4.898438 8.738281 4.910156 8.734375 4.921875 C 8.730469 4.933594 8.722656 4.945312 8.707031 4.960938 C 8.6875 4.972656 8.671875 4.984375 8.660156 4.992188 C 8.644531 5 8.628906 5.011719 8.605469 5.023438 L 8.578125 5.039062 C 8.519531 5.066406 8.460938 5.050781 8.40625 4.988281 C 8.355469 4.925781 8.316406 4.855469 8.296875 4.769531 C 8.257812 4.632812 8.210938 4.546875 8.160156 4.519531 C 8.03125 4.476562 7.953125 4.476562 7.917969 4.527344 C 7.890625 4.457031 7.777344 4.382812 7.574219 4.3125 C 7.4375 4.261719 7.273438 4.25 7.089844 4.277344 C 7.125 4.273438 7.125 4.230469 7.089844 4.152344 C 7.050781 4.066406 6.996094 4.035156 6.929688 4.050781 C 6.949219 4.019531 6.957031 3.96875 6.964844 3.90625 C 6.96875 3.839844 6.972656 3.804688 6.972656 3.792969 C 6.988281 3.71875 7.023438 3.65625 7.074219 3.597656 C 7.078125 3.59375 7.097656 3.570312 7.132812 3.527344 C 7.164062 3.484375 7.191406 3.449219 7.210938 3.414062 C 7.230469 3.382812 7.230469 3.363281 7.214844 3.363281 C 7.410156 3.386719 7.550781 3.355469 7.632812 3.273438 C 7.660156 3.246094 7.695312 3.199219 7.730469 3.128906 C 7.765625 3.0625 7.796875 3.015625 7.816406 2.988281 C 7.867188 2.953125 7.90625 2.9375 7.933594 2.941406 C 7.964844 2.945312 8.003906 2.960938 8.054688 2.988281 C 8.109375 3.015625 8.148438 3.03125 8.179688 3.03125 C 8.257812 3.035156 8.300781 3.003906 8.308594 2.9375 C 8.316406 2.871094 8.296875 2.816406 8.246094 2.769531 C 8.3125 2.777344 8.320312 2.730469 8.269531 2.628906 C 8.242188 2.589844 8.21875 2.5625 8.203125 2.554688 C 8.136719 2.53125 8.0625 2.542969 7.976562 2.59375 C 7.933594 2.617188 7.9375 2.640625 7.992188 2.660156 C 7.988281 2.65625 7.960938 2.683594 7.914062 2.75 C 7.867188 2.8125 7.820312 2.863281 7.777344 2.894531 C 7.730469 2.929688 7.6875 2.914062 7.640625 2.855469 C 7.636719 2.847656 7.621094 2.8125 7.597656 2.742188 C 7.570312 2.671875 7.542969 2.632812 7.515625 2.628906 C 7.472656 2.628906 7.425781 2.671875 7.382812 2.753906 C 7.398438 2.710938 7.367188 2.667969 7.289062 2.628906 C 7.210938 2.589844 7.144531 2.566406 7.089844 2.5625 C 7.195312 2.496094 7.171875 2.417969 7.023438 2.335938 C 6.984375 2.3125 6.925781 2.300781 6.851562 2.292969 C 6.777344 2.289062 6.722656 2.300781 6.6875 2.328125 C 6.660156 2.367188 6.644531 2.398438 6.640625 2.421875 C 6.640625 2.449219 6.652344 2.46875 6.683594 2.492188 C 6.714844 2.507812 6.742188 2.523438 6.773438 2.535156 C 6.800781 2.546875 6.832031 2.558594 6.867188 2.570312 C 6.902344 2.582031 6.929688 2.589844 6.9375 2.59375 C 7.015625 2.652344 7.039062 2.691406 7.007812 2.710938 C 6.996094 2.71875 6.972656 2.726562 6.933594 2.742188 C 6.898438 2.753906 6.867188 2.769531 6.839844 2.777344 C 6.8125 2.789062 6.792969 2.800781 6.789062 2.8125 C 6.773438 2.835938 6.773438 2.875 6.789062 2.929688 C 6.804688 2.984375 6.800781 3.023438 6.773438 3.046875 C 6.742188 3.019531 6.71875 2.96875 6.695312 2.898438 C 6.675781 2.832031 6.65625 2.785156 6.636719 2.761719 C 6.675781 2.8125 6.605469 2.828125 6.429688 2.8125 L 6.34375 2.804688 C 6.324219 2.804688 6.277344 2.808594 6.210938 2.820312 C 6.144531 2.832031 6.085938 2.835938 6.039062 2.828125 C 5.992188 2.824219 5.953125 2.800781 5.925781 2.761719 C 5.902344 2.71875 5.902344 2.660156 5.925781 2.59375 C 5.933594 2.574219 5.941406 2.566406 5.960938 2.578125 C 5.9375 2.5625 5.90625 2.535156 5.867188 2.5 C 5.828125 2.460938 5.800781 2.4375 5.785156 2.425781 C 5.527344 2.511719 5.265625 2.625 4.996094 2.769531 C 5.03125 2.777344 5.0625 2.773438 5.097656 2.761719 C 5.125 2.75 5.160156 2.734375 5.207031 2.707031 C 5.25 2.683594 5.277344 2.667969 5.289062 2.660156 C 5.480469 2.582031 5.597656 2.5625 5.640625 2.601562 L 5.683594 2.5625 C 5.761719 2.652344 5.816406 2.71875 5.851562 2.769531 C 5.8125 2.75 5.726562 2.746094 5.601562 2.761719 C 5.488281 2.796875 5.425781 2.828125 5.414062 2.863281 C 5.453125 2.929688 5.46875 2.980469 5.457031 3.011719 C 5.433594 2.996094 5.402344 2.96875 5.359375 2.929688 C 5.320312 2.890625 5.277344 2.859375 5.238281 2.835938 C 5.199219 2.816406 5.160156 2.800781 5.113281 2.796875 C 5.023438 2.796875 4.964844 2.796875 4.929688 2.804688 C 4.117188 3.25 3.460938 3.871094 2.964844 4.664062 C 3.003906 4.703125 3.035156 4.722656 3.0625 4.730469 C 3.085938 4.734375 3.101562 4.761719 3.105469 4.804688 C 3.109375 4.847656 3.117188 4.878906 3.125 4.898438 C 3.132812 4.914062 3.167969 4.90625 3.222656 4.871094 C 3.273438 4.917969 3.28125 4.96875 3.246094 5.03125 C 3.253906 5.023438 3.375 5.101562 3.617188 5.257812 C 3.722656 5.351562 3.78125 5.410156 3.792969 5.433594 C 3.808594 5.492188 3.78125 5.542969 3.707031 5.582031 C 3.703125 5.570312 3.675781 5.546875 3.632812 5.507812 C 3.589844 5.46875 3.5625 5.457031 3.558594 5.472656 C 3.539062 5.503906 3.542969 5.554688 3.5625 5.628906 C 3.582031 5.703125 3.609375 5.738281 3.648438 5.734375 C 3.609375 5.734375 3.582031 5.777344 3.570312 5.867188 C 3.554688 5.957031 3.550781 6.054688 3.550781 6.164062 C 3.550781 6.273438 3.546875 6.339844 3.539062 6.363281 L 3.558594 6.371094 C 3.539062 6.4375 3.554688 6.53125 3.601562 6.660156 C 3.652344 6.785156 3.710938 6.839844 3.785156 6.820312 C 3.710938 6.839844 3.765625 6.957031 3.949219 7.183594 C 3.984375 7.226562 4.007812 7.25 4.019531 7.257812 C 4.035156 7.269531 4.066406 7.289062 4.117188 7.320312 C 4.167969 7.351562 4.210938 7.378906 4.242188 7.402344 C 4.277344 7.429688 4.304688 7.457031 4.328125 7.492188 C 4.351562 7.519531 4.378906 7.582031 4.410156 7.679688 C 4.445312 7.777344 4.484375 7.84375 4.527344 7.875 C 4.515625 7.910156 4.542969 7.964844 4.609375 8.042969 C 4.671875 8.121094 4.703125 8.1875 4.695312 8.238281 C 4.691406 8.238281 4.683594 8.238281 4.675781 8.246094 C 4.667969 8.25 4.660156 8.253906 4.652344 8.253906 C 4.671875 8.292969 4.714844 8.332031 4.785156 8.371094 C 4.851562 8.410156 4.898438 8.445312 4.914062 8.480469 C 4.917969 8.496094 4.925781 8.523438 4.929688 8.5625 C 4.9375 8.601562 4.945312 8.632812 4.957031 8.65625 C 4.964844 8.675781 4.988281 8.683594 5.023438 8.671875 C 5.035156 8.558594 4.964844 8.386719 4.820312 8.152344 C 4.738281 8.011719 4.691406 7.933594 4.679688 7.910156 C 4.664062 7.882812 4.648438 7.839844 4.632812 7.78125 C 4.617188 7.722656 4.605469 7.679688 4.59375 7.660156 C 4.605469 7.660156 4.625 7.664062 4.644531 7.671875 C 4.667969 7.679688 4.691406 7.691406 4.71875 7.699219 C 4.742188 7.710938 4.761719 7.722656 4.78125 7.734375 C 4.796875 7.746094 4.800781 7.753906 4.796875 7.757812 C 4.78125 7.796875 4.785156 7.847656 4.8125 7.90625 C 4.839844 7.964844 4.875 8.015625 4.914062 8.0625 C 4.953125 8.105469 5 8.160156 5.054688 8.21875 C 5.113281 8.28125 5.144531 8.316406 5.15625 8.328125 C 5.191406 8.363281 5.230469 8.417969 5.273438 8.492188 C 5.316406 8.566406 5.316406 8.605469 5.273438 8.605469 C 5.324219 8.605469 5.378906 8.632812 5.441406 8.6875 C 5.503906 8.746094 5.550781 8.800781 5.582031 8.855469 C 5.609375 8.902344 5.632812 8.972656 5.648438 9.074219 C 5.667969 9.175781 5.679688 9.242188 5.691406 9.273438 C 5.703125 9.3125 5.726562 9.351562 5.761719 9.386719 C 5.800781 9.421875 5.835938 9.449219 5.867188 9.46875 L 6 9.535156 L 6.109375 9.59375 C 6.136719 9.605469 6.191406 9.632812 6.265625 9.679688 C 6.339844 9.726562 6.402344 9.761719 6.445312 9.777344 C 6.5 9.800781 6.546875 9.808594 6.578125 9.808594 C 6.613281 9.808594 6.652344 9.804688 6.699219 9.789062 C 6.746094 9.773438 6.785156 9.765625 6.8125 9.761719 C 6.898438 9.75 6.976562 9.789062 7.054688 9.886719 C 7.132812 9.980469 7.191406 10.039062 7.230469 10.0625 C 7.433594 10.167969 7.585938 10.199219 7.691406 10.152344 C 7.679688 10.160156 7.683594 10.179688 7.695312 10.214844 C 7.710938 10.253906 7.734375 10.296875 7.765625 10.347656 C 7.792969 10.394531 7.820312 10.4375 7.839844 10.46875 C 7.859375 10.496094 7.875 10.523438 7.886719 10.539062 C 7.914062 10.570312 7.964844 10.613281 8.035156 10.664062 C 8.109375 10.714844 8.160156 10.757812 8.1875 10.789062 C 8.21875 10.765625 8.238281 10.742188 8.246094 10.714844 C 8.226562 10.757812 8.246094 10.816406 8.304688 10.882812 C 8.359375 10.949219 8.410156 10.976562 8.453125 10.964844 C 8.53125 10.949219 8.570312 10.859375 8.570312 10.699219 C 8.398438 10.78125 8.261719 10.730469 8.160156 10.546875 C 8.160156 10.542969 8.15625 10.527344 8.140625 10.5 C 8.125 10.476562 8.117188 10.453125 8.105469 10.429688 C 8.097656 10.40625 8.089844 10.382812 8.085938 10.359375 C 8.082031 10.332031 8.082031 10.3125 8.085938 10.296875 C 8.089844 10.277344 8.105469 10.269531 8.128906 10.269531 C 8.179688 10.269531 8.207031 10.261719 8.210938 10.242188 C 8.21875 10.222656 8.210938 10.1875 8.195312 10.136719 C 8.179688 10.085938 8.167969 10.050781 8.160156 10.027344 C 8.15625 9.984375 8.125 9.925781 8.070312 9.859375 C 8.011719 9.792969 7.980469 9.75 7.96875 9.734375 C 7.941406 9.785156 7.894531 9.808594 7.835938 9.800781 C 7.773438 9.796875 7.730469 9.769531 7.699219 9.726562 C 7.699219 9.730469 7.695312 9.746094 7.6875 9.773438 C 7.679688 9.796875 7.675781 9.816406 7.675781 9.828125 C 7.601562 9.828125 7.5625 9.824219 7.550781 9.820312 C 7.554688 9.800781 7.5625 9.753906 7.570312 9.671875 C 7.578125 9.589844 7.589844 9.527344 7.601562 9.484375 C 7.605469 9.460938 7.621094 9.429688 7.648438 9.382812 C 7.671875 9.339844 7.691406 9.296875 7.710938 9.261719 C 7.726562 9.226562 7.738281 9.191406 7.742188 9.15625 C 7.75 9.125 7.734375 9.097656 7.703125 9.078125 C 7.675781 9.058594 7.625 9.050781 7.558594 9.058594 C 7.453125 9.0625 7.378906 9.117188 7.339844 9.222656 C 7.335938 9.242188 7.328125 9.269531 7.316406 9.3125 C 7.304688 9.355469 7.289062 9.386719 7.273438 9.410156 C 7.257812 9.429688 7.230469 9.449219 7.199219 9.46875 C 7.160156 9.484375 7.09375 9.488281 6.996094 9.484375 C 6.902344 9.476562 6.835938 9.464844 6.796875 9.441406 C 6.722656 9.398438 6.660156 9.316406 6.609375 9.199219 C 6.554688 9.082031 6.527344 8.980469 6.527344 8.890625 C 6.527344 8.832031 6.535156 8.757812 6.550781 8.667969 C 6.5625 8.574219 6.570312 8.507812 6.574219 8.457031 C 6.578125 8.410156 6.5625 8.34375 6.527344 8.253906 C 6.546875 8.242188 6.570312 8.214844 6.605469 8.171875 C 6.636719 8.132812 6.664062 8.101562 6.6875 8.085938 C 6.699219 8.082031 6.710938 8.078125 6.726562 8.074219 C 6.738281 8.070312 6.753906 8.070312 6.761719 8.074219 C 6.773438 8.078125 6.785156 8.070312 6.796875 8.0625 C 6.808594 8.050781 6.816406 8.03125 6.820312 8.011719 C 6.816406 8.003906 6.804688 7.996094 6.789062 7.984375 C 6.773438 7.96875 6.761719 7.960938 6.753906 7.960938 C 6.792969 7.976562 6.875 7.972656 6.992188 7.949219 C 7.113281 7.921875 7.191406 7.925781 7.222656 7.960938 C 7.308594 8.023438 7.367188 8.015625 7.40625 7.945312 C 7.40625 7.9375 7.402344 7.910156 7.386719 7.863281 C 7.371094 7.816406 7.371094 7.777344 7.382812 7.75 C 7.410156 7.902344 7.492188 7.925781 7.625 7.828125 C 7.640625 7.84375 7.683594 7.855469 7.753906 7.867188 C 7.824219 7.878906 7.875 7.894531 7.902344 7.910156 C 7.917969 7.921875 7.9375 7.9375 7.960938 7.957031 C 7.984375 7.976562 8 7.988281 8.007812 7.992188 C 8.015625 8 8.027344 8 8.046875 7.988281 C 8.066406 7.980469 8.089844 7.964844 8.121094 7.933594 C 8.175781 8.011719 8.207031 8.082031 8.21875 8.136719 C 8.28125 8.359375 8.335938 8.480469 8.378906 8.503906 C 8.417969 8.519531 8.449219 8.527344 8.472656 8.519531 C 8.492188 8.515625 8.507812 8.488281 8.507812 8.441406 C 8.511719 8.394531 8.511719 8.355469 8.507812 8.324219 C 8.507812 8.292969 8.5 8.257812 8.496094 8.21875 L 8.488281 8.152344 L 8.488281 8.003906 L 8.480469 7.933594 C 8.394531 7.917969 8.34375 7.886719 8.324219 7.835938 C 8.304688 7.785156 8.308594 7.734375 8.335938 7.679688 C 8.363281 7.625 8.40625 7.574219 8.460938 7.523438 C 8.46875 7.519531 8.492188 7.507812 8.53125 7.496094 C 8.570312 7.480469 8.613281 7.464844 8.660156 7.441406 C 8.707031 7.417969 8.742188 7.398438 8.765625 7.375 C 8.882812 7.269531 8.921875 7.171875 8.890625 7.082031 C 8.929688 7.082031 8.960938 7.054688 8.980469 7.007812 C 8.976562 7.007812 8.960938 6.996094 8.941406 6.980469 C 8.917969 6.964844 8.894531 6.949219 8.875 6.9375 C 8.855469 6.929688 8.84375 6.921875 8.839844 6.921875 C 8.890625 6.894531 8.894531 6.851562 8.855469 6.789062 C 8.882812 6.773438 8.90625 6.742188 8.917969 6.695312 C 8.933594 6.652344 8.953125 6.625 8.980469 6.613281 C 9.03125 6.679688 9.089844 6.683594 9.15625 6.628906 C 9.195312 6.585938 9.199219 6.539062 9.164062 6.496094 C 9.195312 6.457031 9.25 6.425781 9.335938 6.40625 C 9.421875 6.386719 9.476562 6.363281 9.492188 6.328125 C 9.53125 6.339844 9.554688 6.332031 9.558594 6.3125 C 9.566406 6.289062 9.566406 6.253906 9.566406 6.210938 C 9.566406 6.167969 9.574219 6.132812 9.59375 6.109375 C 9.613281 6.082031 9.65625 6.058594 9.71875 6.035156 C 9.78125 6.011719 9.816406 6 9.828125 5.992188 L 9.96875 5.902344 C 9.984375 5.878906 9.984375 5.867188 9.96875 5.867188 C 10.070312 5.878906 10.15625 5.847656 10.230469 5.777344 C 10.285156 5.714844 10.269531 5.660156 10.179688 5.609375 C 10.195312 5.574219 10.1875 5.546875 10.152344 5.527344 C 10.121094 5.507812 10.078125 5.492188 10.027344 5.484375 C 10.042969 5.476562 10.078125 5.476562 10.125 5.476562 C 10.171875 5.480469 10.199219 5.476562 10.210938 5.464844 C 10.296875 5.410156 10.277344 5.367188 10.152344 5.332031 C 10.058594 5.304688 9.9375 5.335938 9.792969 5.433594 Z M 8.429688 12.773438 C 9.578125 12.574219 10.558594 12.046875 11.367188 11.191406 C 11.351562 11.175781 11.316406 11.164062 11.261719 11.152344 C 11.210938 11.144531 11.175781 11.136719 11.15625 11.125 C 11.058594 11.085938 10.992188 11.0625 10.957031 11.058594 C 10.960938 11.019531 10.957031 10.980469 10.9375 10.949219 C 10.917969 10.914062 10.894531 10.890625 10.867188 10.875 C 10.84375 10.855469 10.808594 10.835938 10.765625 10.804688 C 10.71875 10.777344 10.6875 10.757812 10.671875 10.746094 C 10.660156 10.738281 10.640625 10.71875 10.613281 10.699219 C 10.585938 10.675781 10.566406 10.660156 10.554688 10.652344 C 10.542969 10.644531 10.523438 10.628906 10.492188 10.613281 C 10.460938 10.597656 10.4375 10.589844 10.421875 10.597656 C 10.40625 10.601562 10.375 10.605469 10.335938 10.605469 L 10.3125 10.613281 C 10.296875 10.621094 10.28125 10.625 10.265625 10.632812 C 10.253906 10.644531 10.238281 10.652344 10.21875 10.660156 C 10.203125 10.667969 10.191406 10.675781 10.1875 10.683594 C 10.179688 10.695312 10.179688 10.699219 10.1875 10.707031 C 10.070312 10.609375 9.96875 10.550781 9.886719 10.523438 C 9.859375 10.515625 9.828125 10.5 9.792969 10.476562 C 9.761719 10.449219 9.730469 10.429688 9.707031 10.417969 C 9.679688 10.402344 9.652344 10.398438 9.621094 10.40625 C 9.589844 10.410156 9.558594 10.429688 9.527344 10.464844 C 9.496094 10.492188 9.480469 10.53125 9.476562 10.589844 C 9.46875 10.644531 9.464844 10.679688 9.457031 10.699219 C 9.417969 10.667969 9.417969 10.621094 9.457031 10.550781 C 9.496094 10.480469 9.503906 10.429688 9.476562 10.394531 C 9.457031 10.363281 9.429688 10.351562 9.386719 10.359375 C 9.34375 10.367188 9.3125 10.378906 9.289062 10.394531 C 9.261719 10.414062 9.230469 10.4375 9.191406 10.46875 C 9.152344 10.496094 9.125 10.515625 9.117188 10.523438 C 9.105469 10.527344 9.082031 10.542969 9.042969 10.566406 C 9.007812 10.59375 8.984375 10.613281 8.972656 10.628906 C 8.957031 10.652344 8.941406 10.6875 8.921875 10.730469 C 8.90625 10.777344 8.890625 10.804688 8.882812 10.824219 C 8.871094 10.800781 8.835938 10.78125 8.785156 10.769531 C 8.730469 10.753906 8.707031 10.738281 8.707031 10.722656 C 8.714844 10.777344 8.726562 10.875 8.738281 11.015625 C 8.75 11.15625 8.765625 11.261719 8.78125 11.332031 C 8.820312 11.507812 8.785156 11.640625 8.679688 11.734375 C 8.53125 11.875 8.449219 11.988281 8.4375 12.070312 C 8.414062 12.191406 8.449219 12.265625 8.539062 12.289062 C 8.539062 12.328125 8.515625 12.382812 8.472656 12.460938 C 8.425781 12.535156 8.40625 12.59375 8.414062 12.640625 C 8.414062 12.671875 8.417969 12.71875 8.429688 12.773438 Z M 8.429688 12.773438 " fill="#FFFFFF"/>
  </g>
</svg>