<svg xmlns="http://www.w3.org/2000/svg" xlink="http://www.w3.org/1999/xlink" width="20px" height="20px" viewBox="0 0 15 15" version="1.1">
  <g id="surface1">
    <path d="M 8.839844 11.351562 L 8.839844 5.355469 L 6.160156 5.355469 L 6.160156 11.351562 C 6.160156 11.488281 6.210938 11.597656 6.3125 11.671875 C 6.410156 11.75 6.539062 11.785156 6.695312 11.785156 L 8.304688 11.785156 C 8.460938 11.785156 8.589844 11.75 8.6875 11.671875 C 8.789062 11.597656 8.839844 11.488281 8.839844 11.351562 Z M 5.023438 4.285156 L 6.65625 4.285156 L 5.601562 2.9375 C 5.453125 2.765625 5.261719 2.679688 5.023438 2.679688 C 4.800781 2.679688 4.609375 2.757812 4.453125 2.914062 C 4.296875 3.070312 4.21875 3.257812 4.21875 3.480469 C 4.21875 3.707031 4.296875 3.894531 4.453125 4.050781 C 4.609375 4.207031 4.800781 4.285156 5.023438 4.285156 Z M 10.78125 3.480469 C 10.78125 3.257812 10.703125 3.070312 10.546875 2.914062 C 10.390625 2.757812 10.199219 2.679688 9.976562 2.679688 C 9.738281 2.679688 9.546875 2.765625 9.398438 2.9375 L 8.355469 4.285156 L 9.976562 4.285156 C 10.199219 4.285156 10.390625 4.207031 10.546875 4.050781 C 10.703125 3.894531 10.78125 3.707031 10.78125 3.480469 Z M 13.929688 5.625 L 13.929688 8.304688 C 13.929688 8.382812 13.902344 8.445312 13.851562 8.496094 C 13.804688 8.546875 13.738281 8.570312 13.660156 8.570312 L 12.855469 8.570312 L 12.855469 12.054688 C 12.855469 12.277344 12.777344 12.464844 12.621094 12.621094 C 12.464844 12.777344 12.277344 12.855469 12.054688 12.855469 L 2.945312 12.855469 C 2.722656 12.855469 2.535156 12.777344 2.378906 12.621094 C 2.222656 12.464844 2.144531 12.277344 2.144531 12.054688 L 2.144531 8.570312 L 1.339844 8.570312 C 1.261719 8.570312 1.195312 8.546875 1.148438 8.496094 C 1.097656 8.445312 1.070312 8.382812 1.070312 8.304688 L 1.070312 5.625 C 1.070312 5.546875 1.097656 5.484375 1.148438 5.433594 C 1.195312 5.382812 1.261719 5.355469 1.339844 5.355469 L 5.023438 5.355469 C 4.503906 5.355469 4.0625 5.175781 3.695312 4.808594 C 3.328125 4.441406 3.148438 4 3.148438 3.480469 C 3.148438 2.964844 3.328125 2.519531 3.695312 2.15625 C 4.0625 1.789062 4.503906 1.605469 5.023438 1.605469 C 5.621094 1.605469 6.089844 1.820312 6.429688 2.25 L 7.5 3.632812 L 8.570312 2.25 C 8.910156 1.820312 9.378906 1.605469 9.976562 1.605469 C 10.496094 1.605469 10.9375 1.789062 11.304688 2.15625 C 11.667969 2.519531 11.851562 2.964844 11.851562 3.480469 C 11.851562 4 11.667969 4.441406 11.304688 4.808594 C 10.9375 5.175781 10.496094 5.355469 9.976562 5.355469 L 13.660156 5.355469 C 13.738281 5.355469 13.804688 5.382812 13.851562 5.433594 C 13.902344 5.484375 13.929688 5.546875 13.929688 5.625 Z M 13.929688 5.625 " fill="#FFFFFF"/>
  </g>
</svg>