<svg xmlns="http://www.w3.org/2000/svg" xlink="http://www.w3.org/1999/xlink" width="20px" height="20px" viewBox="0 0 15 15" version="1.1">
  <g id="surface1">
    <path d="M 10.714844 8.035156 C 10.714844 7.003906 10.347656 6.121094 9.613281 5.386719 C 8.878906 4.652344 7.996094 4.285156 6.964844 4.285156 C 5.933594 4.285156 5.046875 4.652344 4.316406 5.386719 C 3.582031 6.121094 3.214844 7.003906 3.214844 8.035156 C 3.214844 9.066406 3.582031 9.949219 4.316406 10.683594 C 5.046875 11.417969 5.933594 11.785156 6.964844 11.785156 C 7.996094 11.785156 8.878906 11.417969 9.613281 10.683594 C 10.347656 9.949219 10.714844 9.066406 10.714844 8.035156 Z M 11.785156 8.035156 C 11.785156 8.6875 11.660156 9.3125 11.40625 9.90625 C 11.152344 10.5 10.808594 11.015625 10.375 11.445312 C 9.941406 11.878906 9.429688 12.222656 8.835938 12.476562 C 8.242188 12.730469 7.617188 12.855469 6.964844 12.855469 C 6.3125 12.855469 5.6875 12.730469 5.09375 12.476562 C 4.5 12.222656 3.984375 11.878906 3.554688 11.445312 C 3.121094 11.015625 2.777344 10.5 2.523438 9.90625 C 2.269531 9.3125 2.144531 8.6875 2.144531 8.035156 C 2.144531 7.382812 2.269531 6.757812 2.523438 6.164062 C 2.777344 5.570312 3.121094 5.058594 3.554688 4.625 C 3.984375 4.191406 4.5 3.847656 5.09375 3.59375 C 5.6875 3.339844 6.3125 3.214844 6.964844 3.214844 C 7.617188 3.214844 8.242188 3.339844 8.835938 3.59375 C 9.429688 3.847656 9.941406 4.191406 10.375 4.625 C 10.808594 5.058594 11.152344 5.570312 11.40625 6.164062 C 11.660156 6.757812 11.785156 7.382812 11.785156 8.035156 Z M 11.785156 8.035156 " fill="#FFFFFF"/>
  </g>
</svg>