<svg version="1.1" xmlns="http://www.w3.org/2000/svg" xlink="http://www.w3.org/1999/xlink" x="0px" y="0px" width="15px" height="15.483870967741936px" viewBox="0 0 15 15.483870967741936" style="enable-background:new 0 0 15 15;" space="preserve">
    <path d="M7.5,0.24193548387096775C3.3598790322580645,0.24193548387096775,0,3.601814516129032,0,7.741935483870968s3.3598790322580645,7.5,7.5,7.5s7.5,-3.3598790322580645,7.5,-7.5S11.640120967741936,0.24193548387096775,7.5,0.24193548387096775zm3.465725806451613,6.846774193548388l-3.4173387096774195,4.617943548387097l-3.4082661290322585,-4.617943548387097c-0.2631048387096774,-0.35987903225806456,-0.5776209677419355,-1.5241935483870968,0.4112903225806452,-2.17741935483871c0.8497983870967742,-0.5473790322580646,1.651209677419355,-0.12701612903225806,2.0715725806451615,0.35987903225806456c0.48084677419354843,0.5413306451612903,1.4092741935483872,0.5110887096774194,1.8659274193548387,0c0.4203629032258065,-0.4868951612903226,1.221774193548387,-0.907258064516129,2.059475806451613,-0.35987903225806456c0.9949596774193549,0.653225806451613,0.683467741935484,1.814516129032258,0.4173387096774194,2.17741935483871z" fill="#FFFFFF"/>
    </svg>