<?xml version="1.0" encoding="UTF-8" standalone="yes"?>
<svg xmlns="http://www.w3.org/2000/svg" xmlns:xlink="http://www.w3.org/1999/xlink" width="20px" height="20px" viewBox="0 0 15 15" version="1.1">
  <g id="surface1">
    <path style=" stroke:none;fill-rule:nonzero;fill:rgb(0%,0%,0%);fill-opacity:1;" d="M 5.941406 10.949219 C 5.941406 11.316406 5.683594 11.5 5.164062 11.5 C 4.566406 11.5 4.269531 11.324219 4.269531 10.972656 C 4.269531 10.617188 4.542969 10.4375 5.089844 10.4375 C 5.660156 10.4375 5.941406 10.609375 5.941406 10.949219 Z M 5.640625 7.046875 C 5.640625 7.523438 5.433594 7.757812 5.023438 7.757812 C 4.59375 7.757812 4.378906 7.523438 4.378906 7.054688 C 4.378906 6.554688 4.59375 6.304688 5.023438 6.304688 C 5.222656 6.304688 5.375 6.375 5.484375 6.515625 C 5.589844 6.660156 5.640625 6.835938 5.640625 7.046875 Z M 7.03125 6.421875 L 7.03125 5.375 C 6.597656 5.535156 6.21875 5.617188 5.902344 5.617188 C 5.621094 5.453125 5.316406 5.375 4.980469 5.375 C 4.5 5.375 4.097656 5.53125 3.765625 5.851562 C 3.4375 6.167969 3.273438 6.566406 3.273438 7.046875 C 3.273438 7.328125 3.355469 7.613281 3.519531 7.902344 C 3.683594 8.191406 3.890625 8.378906 4.136719 8.460938 L 4.136719 8.488281 C 3.921875 8.582031 3.816406 8.820312 3.816406 9.199219 C 3.816406 9.496094 3.929688 9.710938 4.160156 9.84375 L 4.160156 9.867188 C 3.53125 10.074219 3.214844 10.464844 3.214844 11.03125 C 3.214844 11.285156 3.269531 11.503906 3.382812 11.6875 C 3.492188 11.875 3.644531 12.019531 3.832031 12.117188 C 4.023438 12.214844 4.222656 12.285156 4.4375 12.328125 C 4.648438 12.375 4.875 12.398438 5.113281 12.398438 C 6.363281 12.398438 6.988281 11.871094 6.988281 10.824219 C 6.988281 10.449219 6.855469 10.171875 6.585938 9.996094 C 6.320312 9.816406 5.96875 9.6875 5.53125 9.609375 C 5.382812 9.582031 5.238281 9.523438 5.101562 9.4375 C 4.964844 9.351562 4.898438 9.242188 4.898438 9.105469 C 4.898438 8.863281 5.035156 8.714844 5.308594 8.671875 C 5.738281 8.589844 6.078125 8.394531 6.328125 8.085938 C 6.578125 7.777344 6.703125 7.40625 6.703125 6.964844 C 6.703125 6.832031 6.675781 6.683594 6.621094 6.527344 C 6.828125 6.480469 6.964844 6.441406 7.03125 6.421875 Z M 7.523438 9.925781 L 8.671875 9.925781 C 8.660156 9.777344 8.65625 9.546875 8.65625 9.242188 L 8.65625 6 C 8.65625 5.746094 8.660156 5.550781 8.671875 5.425781 L 7.523438 5.425781 C 7.542969 5.550781 7.550781 5.75 7.550781 6.019531 L 7.550781 9.300781 C 7.550781 9.578125 7.542969 9.789062 7.523438 9.925781 Z M 11.785156 9.792969 L 11.785156 8.78125 C 11.617188 8.898438 11.429688 8.957031 11.214844 8.957031 C 10.921875 8.957031 10.773438 8.726562 10.773438 8.269531 L 10.773438 6.386719 L 11.207031 6.386719 C 11.257812 6.386719 11.332031 6.390625 11.429688 6.394531 C 11.527344 6.402344 11.601562 6.402344 11.652344 6.402344 L 11.652344 5.425781 L 10.773438 5.425781 C 10.773438 4.964844 10.78125 4.683594 10.796875 4.570312 L 9.625 4.570312 C 9.648438 4.703125 9.660156 4.859375 9.660156 5.03125 L 9.660156 5.425781 L 9.15625 5.425781 L 9.15625 6.402344 C 9.359375 6.386719 9.460938 6.378906 9.46875 6.378906 C 9.484375 6.378906 9.515625 6.378906 9.558594 6.382812 C 9.605469 6.386719 9.636719 6.386719 9.660156 6.386719 L 9.660156 6.402344 L 9.644531 6.402344 L 9.644531 8.21875 C 9.644531 8.425781 9.648438 8.605469 9.664062 8.753906 C 9.675781 8.90625 9.710938 9.0625 9.761719 9.226562 C 9.808594 9.394531 9.878906 9.527344 9.964844 9.632812 C 10.050781 9.742188 10.171875 9.828125 10.328125 9.894531 C 10.484375 9.960938 10.667969 9.996094 10.882812 9.996094 C 11.238281 9.996094 11.539062 9.925781 11.785156 9.792969 Z M 8.804688 3.882812 C 8.804688 3.683594 8.738281 3.503906 8.605469 3.351562 C 8.472656 3.199219 8.304688 3.121094 8.101562 3.121094 C 7.902344 3.121094 7.734375 3.199219 7.597656 3.347656 C 7.460938 3.5 7.390625 3.675781 7.390625 3.882812 C 7.390625 4.085938 7.460938 4.257812 7.601562 4.40625 C 7.738281 4.554688 7.90625 4.628906 8.101562 4.628906 C 8.296875 4.628906 8.464844 4.554688 8.601562 4.402344 C 8.738281 4.253906 8.804688 4.078125 8.804688 3.882812 Z M 13.929688 3.480469 L 13.929688 11.519531 C 13.929688 12.183594 13.691406 12.75 13.222656 13.222656 C 12.75 13.691406 12.183594 13.929688 11.519531 13.929688 L 3.480469 13.929688 C 2.816406 13.929688 2.25 13.691406 1.777344 13.222656 C 1.308594 12.75 1.070312 12.183594 1.070312 11.519531 L 1.070312 3.480469 C 1.070312 2.816406 1.308594 2.25 1.777344 1.777344 C 2.25 1.308594 2.816406 1.070312 3.480469 1.070312 L 11.519531 1.070312 C 12.183594 1.070312 12.75 1.308594 13.222656 1.777344 C 13.691406 2.25 13.929688 2.816406 13.929688 3.480469 Z M 13.929688 3.480469 "/>
  </g>
</svg>