<svg xmlns="http://www.w3.org/2000/svg" xlink="http://www.w3.org/1999/xlink" width="20px" height="20px" viewBox="0 0 15 15" version="1.1">
  <g id="surface1">
    <path d="M 6 11.332031 L 8.269531 9.066406 L 5.933594 6.730469 L 5.199219 7.464844 L 6.804688 9.066406 L 6 9.867188 L 3.667969 7.535156 L 6 5.199219 L 6.335938 5.53125 L 7.066406 4.804688 L 6 3.734375 L 2.203125 7.535156 Z M 9 11.265625 L 12.796875 7.464844 L 9 3.667969 L 6.730469 5.933594 L 9.066406 8.269531 L 9.800781 7.535156 L 8.195312 5.933594 L 9 5.132812 L 11.332031 7.464844 L 9 9.800781 L 8.664062 9.46875 L 7.933594 10.203125 Z M 15 7.5 C 15 8.515625 14.800781 9.488281 14.40625 10.414062 C 14.007812 11.339844 13.476562 12.136719 12.808594 12.808594 C 12.136719 13.476562 11.339844 14.007812 10.414062 14.40625 C 9.488281 14.800781 8.515625 15 7.5 15 C 6.484375 15 5.511719 14.800781 4.585938 14.40625 C 3.660156 14.007812 2.863281 13.476562 2.191406 12.808594 C 1.523438 12.136719 0.992188 11.339844 0.59375 10.414062 C 0.199219 9.488281 0 8.515625 0 7.5 C 0 6.484375 0.199219 5.511719 0.59375 4.585938 C 0.992188 3.660156 1.523438 2.863281 2.191406 2.191406 C 2.863281 1.523438 3.660156 0.992188 4.585938 0.59375 C 5.511719 0.199219 6.484375 0 7.5 0 C 8.515625 0 9.488281 0.199219 10.414062 0.59375 C 11.339844 0.992188 12.136719 1.523438 12.808594 2.191406 C 13.476562 2.863281 14.007812 3.660156 14.40625 4.585938 C 14.800781 5.511719 15 6.484375 15 7.5 Z M 15 7.5 " fill="#FFFFFF"/>
  </g>
</svg>