<?xml version="1.0" encoding="UTF-8" standalone="yes"?>
<svg xmlns="http://www.w3.org/2000/svg" xmlns:xlink="http://www.w3.org/1999/xlink" width="20px" height="20px" viewBox="0 0 15 15" version="1.1">
  <g id="surface1">
    <path style=" stroke:none;fill-rule:nonzero;fill:rgb(0%,0%,0%);fill-opacity:1;" d="M 7.5 6.578125 L 13.570312 6.578125 C 13.636719 6.953125 13.667969 7.308594 13.667969 7.652344 C 13.667969 8.863281 13.414062 9.941406 12.90625 10.894531 C 12.398438 11.84375 11.675781 12.589844 10.734375 13.125 C 9.792969 13.660156 8.714844 13.929688 7.5 13.929688 C 6.625 13.929688 5.789062 13.757812 4.996094 13.421875 C 4.203125 13.085938 3.519531 12.628906 2.945312 12.054688 C 2.371094 11.480469 1.914062 10.796875 1.578125 10.003906 C 1.238281 9.210938 1.070312 8.375 1.070312 7.5 C 1.070312 6.625 1.238281 5.789062 1.578125 4.996094 C 1.914062 4.203125 2.371094 3.519531 2.945312 2.945312 C 3.519531 2.371094 4.203125 1.914062 4.996094 1.578125 C 5.789062 1.238281 6.625 1.070312 7.5 1.070312 C 9.175781 1.070312 10.609375 1.632812 11.8125 2.753906 L 10.0625 4.4375 C 9.375 3.773438 8.519531 3.441406 7.5 3.441406 C 6.78125 3.441406 6.113281 3.621094 5.503906 3.984375 C 4.890625 4.347656 4.410156 4.839844 4.050781 5.460938 C 3.695312 6.082031 3.515625 6.761719 3.515625 7.5 C 3.515625 8.238281 3.695312 8.914062 4.050781 9.539062 C 4.410156 10.160156 4.890625 10.652344 5.503906 11.015625 C 6.113281 11.378906 6.78125 11.558594 7.5 11.558594 C 7.984375 11.558594 8.433594 11.492188 8.839844 11.359375 C 9.246094 11.226562 9.582031 11.058594 9.84375 10.855469 C 10.105469 10.65625 10.335938 10.425781 10.53125 10.171875 C 10.726562 9.914062 10.867188 9.671875 10.960938 9.441406 C 11.054688 9.214844 11.117188 8.996094 11.148438 8.789062 L 7.5 8.789062 Z M 7.5 6.578125 "/>
  </g>
</svg>