<svg xmlns="http://www.w3.org/2000/svg" xlink="http://www.w3.org/1999/xlink" width="20px" height="20px" viewBox="0 0 15 15" version="1.1">
  <g id="surface1">
    <path d="M 14.222656 1.558594 C 14.222656 1.753906 14.101562 1.96875 13.863281 2.210938 L 8.570312 7.5 L 8.570312 13.929688 L 11.25 13.929688 C 11.394531 13.929688 11.519531 13.980469 11.625 14.085938 C 11.734375 14.195312 11.785156 14.320312 11.785156 14.464844 C 11.785156 14.609375 11.734375 14.734375 11.625 14.839844 C 11.519531 14.945312 11.394531 15 11.25 15 L 3.75 15 C 3.605469 15 3.480469 14.945312 3.375 14.839844 C 3.265625 14.734375 3.214844 14.609375 3.214844 14.464844 C 3.214844 14.320312 3.265625 14.195312 3.375 14.085938 C 3.480469 13.980469 3.605469 13.929688 3.75 13.929688 L 6.429688 13.929688 L 6.429688 7.5 L 1.136719 2.210938 C 0.898438 1.96875 0.777344 1.753906 0.777344 1.558594 C 0.777344 1.429688 0.828125 1.328125 0.929688 1.25 C 1.03125 1.175781 1.136719 1.128906 1.246094 1.105469 C 1.359375 1.082031 1.480469 1.070312 1.605469 1.070312 L 13.394531 1.070312 C 13.519531 1.070312 13.640625 1.082031 13.753906 1.105469 C 13.863281 1.128906 13.96875 1.175781 14.070312 1.25 C 14.171875 1.328125 14.222656 1.429688 14.222656 1.558594 Z M 14.222656 1.558594 " fill="#FFFFFF"/>
  </g>
</svg>