<svg xmlns="http://www.w3.org/2000/svg" xlink="http://www.w3.org/1999/xlink" width="20px" height="20px" viewBox="0 0 15 15" version="1.1">
  <g id="surface1">
    <path d="M 11.851562 5.414062 C 12.1875 5.414062 12.484375 5.480469 12.75 5.609375 C 13.535156 5.960938 13.929688 6.589844 13.929688 7.5 L 13.929688 8.980469 C 13.929688 9.507812 13.863281 10.023438 13.734375 10.539062 L 13.023438 13.375 C 12.90625 13.855469 12.65625 14.246094 12.265625 14.546875 C 11.878906 14.847656 11.441406 15 10.949219 15 L 5.355469 15 C 4.765625 15 4.261719 14.789062 3.84375 14.371094 C 3.421875 13.953125 3.214844 13.449219 3.214844 12.855469 L 3.214844 9.5 L 1.214844 4.242188 C 1.117188 3.992188 1.070312 3.738281 1.070312 3.480469 C 1.070312 2.890625 1.28125 2.386719 1.699219 1.96875 C 2.117188 1.546875 2.621094 1.339844 3.214844 1.339844 C 3.660156 1.339844 4.066406 1.464844 4.433594 1.71875 C 4.796875 1.972656 5.058594 2.308594 5.214844 2.71875 L 5.355469 3.089844 L 5.355469 2.144531 C 5.355469 1.550781 5.566406 1.046875 5.984375 0.628906 C 6.402344 0.210938 6.910156 0 7.5 0 C 8.089844 0 8.597656 0.210938 9.015625 0.628906 C 9.433594 1.046875 9.644531 1.550781 9.644531 2.144531 L 9.644531 4.328125 C 9.792969 4.300781 9.925781 4.285156 10.042969 4.285156 C 10.429688 4.285156 10.785156 4.386719 11.113281 4.589844 C 11.4375 4.792969 11.683594 5.070312 11.851562 5.414062 Z M 10.042969 5.355469 C 9.859375 5.355469 9.691406 5.40625 9.539062 5.507812 C 9.382812 5.609375 9.269531 5.742188 9.191406 5.910156 L 8.570312 7.273438 L 7.976562 8.570312 L 8.4375 8.570312 C 8.714844 8.570312 8.96875 8.660156 9.191406 8.835938 C 9.414062 9.011719 9.554688 9.234375 9.609375 9.507812 L 10.898438 6.679688 C 10.953125 6.566406 10.980469 6.441406 10.980469 6.292969 C 10.980469 6.039062 10.890625 5.816406 10.707031 5.632812 C 10.523438 5.449219 10.300781 5.355469 10.042969 5.355469 Z M 11.894531 6.488281 C 11.773438 6.488281 11.660156 6.507812 11.554688 6.554688 C 11.453125 6.597656 11.371094 6.644531 11.3125 6.6875 C 11.253906 6.734375 11.1875 6.816406 11.117188 6.933594 C 11.042969 7.054688 10.996094 7.140625 10.972656 7.191406 C 10.953125 7.242188 10.902344 7.34375 10.832031 7.5 L 9.726562 9.925781 C 9.671875 10.039062 9.644531 10.167969 9.644531 10.3125 C 9.644531 10.570312 9.734375 10.789062 9.917969 10.972656 C 10.101562 11.15625 10.324219 11.25 10.582031 11.25 C 10.765625 11.25 10.933594 11.199219 11.085938 11.097656 C 11.238281 11 11.355469 10.863281 11.433594 10.699219 L 12.773438 7.75 C 12.824219 7.652344 12.847656 7.542969 12.847656 7.433594 C 12.847656 7.152344 12.757812 6.925781 12.582031 6.75 C 12.402344 6.574219 12.171875 6.488281 11.894531 6.488281 Z M 2.144531 3.480469 C 2.144531 3.605469 2.164062 3.734375 2.210938 3.867188 L 4.285156 9.308594 L 4.285156 9.886719 L 5.140625 8.957031 C 5.378906 8.699219 5.675781 8.570312 6.027344 8.570312 L 7.683594 8.570312 L 8.570312 6.621094 L 8.570312 2.144531 C 8.570312 1.847656 8.46875 1.59375 8.257812 1.386719 C 8.046875 1.175781 7.796875 1.070312 7.5 1.070312 C 7.203125 1.070312 6.953125 1.175781 6.742188 1.386719 C 6.53125 1.59375 6.429688 1.847656 6.429688 2.144531 L 6.429688 7.5 L 5.894531 7.5 L 4.21875 3.097656 C 4.140625 2.890625 4.007812 2.726562 3.824219 2.597656 C 3.640625 2.472656 3.4375 2.410156 3.214844 2.410156 C 2.917969 2.410156 2.664062 2.515625 2.457031 2.726562 C 2.246094 2.933594 2.144531 3.1875 2.144531 3.480469 Z M 10.949219 13.929688 C 11.195312 13.929688 11.414062 13.851562 11.605469 13.703125 C 11.796875 13.550781 11.925781 13.355469 11.988281 13.117188 L 12.699219 10.277344 C 12.804688 9.871094 12.855469 9.4375 12.855469 8.980469 L 12.855469 8.21875 L 11.675781 10.816406 C 11.582031 11.027344 11.433594 11.195312 11.234375 11.324219 C 11.03125 11.453125 10.816406 11.519531 10.582031 11.519531 C 10.285156 11.519531 10.023438 11.421875 9.796875 11.230469 C 9.570312 11.035156 9.4375 10.796875 9.390625 10.503906 C 9.144531 10.824219 8.828125 10.980469 8.4375 10.980469 L 6.695312 10.980469 L 6.695312 10.714844 L 8.4375 10.714844 C 8.695312 10.714844 8.921875 10.621094 9.117188 10.4375 C 9.3125 10.253906 9.410156 10.035156 9.410156 9.777344 C 9.410156 9.519531 9.320312 9.300781 9.148438 9.117188 C 8.976562 8.929688 8.761719 8.839844 8.503906 8.839844 L 6.027344 8.839844 C 5.753906 8.839844 5.523438 8.941406 5.339844 9.140625 L 4.285156 10.277344 L 4.285156 12.855469 C 4.285156 13.152344 4.390625 13.40625 4.601562 13.613281 C 4.808594 13.824219 5.0625 13.929688 5.355469 13.929688 Z M 10.949219 13.929688 " fill="#FFFFFF"/>
  </g>
</svg>