<svg xmlns="http://www.w3.org/2000/svg" xlink="http://www.w3.org/1999/xlink" width="20px" height="20px" viewBox="0 0 15 15" version="1.1">
  <g id="surface1">
    <path d="M 12.855469 1.070312 C 12.855469 2.527344 12.558594 3.816406 11.964844 4.933594 C 11.371094 6.054688 10.628906 6.910156 9.734375 7.5 C 10.628906 8.089844 11.371094 8.945312 11.964844 10.066406 C 12.558594 11.183594 12.855469 12.472656 12.855469 13.929688 L 13.660156 13.929688 C 13.738281 13.929688 13.804688 13.953125 13.851562 14.003906 C 13.902344 14.054688 13.929688 14.117188 13.929688 14.195312 L 13.929688 14.730469 C 13.929688 14.808594 13.902344 14.875 13.851562 14.925781 C 13.804688 14.976562 13.738281 15 13.660156 15 L 1.339844 15 C 1.261719 15 1.195312 14.976562 1.148438 14.925781 C 1.097656 14.875 1.070312 14.808594 1.070312 14.730469 L 1.070312 14.195312 C 1.070312 14.117188 1.097656 14.054688 1.148438 14.003906 C 1.195312 13.953125 1.261719 13.929688 1.339844 13.929688 L 2.144531 13.929688 C 2.144531 12.472656 2.441406 11.183594 3.035156 10.066406 C 3.628906 8.945312 4.371094 8.089844 5.265625 7.5 C 4.371094 6.910156 3.628906 6.054688 3.035156 4.933594 C 2.441406 3.816406 2.144531 2.527344 2.144531 1.070312 L 1.339844 1.070312 C 1.261719 1.070312 1.195312 1.046875 1.148438 0.996094 C 1.097656 0.945312 1.070312 0.882812 1.070312 0.804688 L 1.070312 0.269531 C 1.070312 0.191406 1.097656 0.125 1.148438 0.0742188 C 1.195312 0.0234375 1.261719 0 1.339844 0 L 13.660156 0 C 13.738281 0 13.804688 0.0234375 13.851562 0.0742188 C 13.902344 0.125 13.929688 0.191406 13.929688 0.269531 L 13.929688 0.804688 C 13.929688 0.882812 13.902344 0.945312 13.851562 0.996094 C 13.804688 1.046875 13.738281 1.070312 13.660156 1.070312 Z M 11.785156 1.070312 L 3.214844 1.070312 C 3.214844 1.441406 3.238281 1.796875 3.289062 2.144531 L 11.710938 2.144531 C 11.761719 1.800781 11.785156 1.445312 11.785156 1.070312 Z M 11.785156 13.929688 C 11.785156 13.203125 11.691406 12.507812 11.5 11.839844 C 11.3125 11.171875 11.058594 10.59375 10.742188 10.097656 C 10.429688 9.605469 10.074219 9.179688 9.683594 8.828125 C 9.292969 8.472656 8.886719 8.207031 8.460938 8.035156 L 6.539062 8.035156 C 6.113281 8.207031 5.707031 8.472656 5.316406 8.828125 C 4.925781 9.179688 4.570312 9.605469 4.257812 10.097656 C 3.941406 10.59375 3.6875 11.171875 3.5 11.839844 C 3.308594 12.507812 3.214844 13.203125 3.214844 13.929688 Z M 11.785156 13.929688 " fill="#FFFFFF"/>
  </g>
</svg>