<svg xmlns="http://www.w3.org/2000/svg" xlink="http://www.w3.org/1999/xlink" width="20px" height="20px" viewBox="0 0 15 15" version="1.1">
  <g id="surface1">
    <path d="M 11.785156 11.25 L 11.785156 3.75 C 11.785156 3.605469 11.734375 3.480469 11.625 3.375 C 11.519531 3.265625 11.394531 3.214844 11.25 3.214844 L 10.179688 3.214844 C 10.035156 3.214844 9.90625 3.265625 9.800781 3.375 C 9.695312 3.480469 9.644531 3.605469 9.644531 3.75 L 9.644531 6.429688 L 5.355469 6.429688 L 5.355469 3.75 C 5.355469 3.605469 5.304688 3.480469 5.199219 3.375 C 5.09375 3.265625 4.964844 3.214844 4.820312 3.214844 L 3.75 3.214844 C 3.605469 3.214844 3.480469 3.265625 3.375 3.375 C 3.265625 3.480469 3.214844 3.605469 3.214844 3.75 L 3.214844 11.25 C 3.214844 11.394531 3.265625 11.519531 3.375 11.625 C 3.480469 11.734375 3.605469 11.785156 3.75 11.785156 L 4.820312 11.785156 C 4.964844 11.785156 5.09375 11.734375 5.199219 11.625 C 5.304688 11.519531 5.355469 11.394531 5.355469 11.25 L 5.355469 8.570312 L 9.644531 8.570312 L 9.644531 11.25 C 9.644531 11.394531 9.695312 11.519531 9.800781 11.625 C 9.90625 11.734375 10.035156 11.785156 10.179688 11.785156 L 11.25 11.785156 C 11.394531 11.785156 11.519531 11.734375 11.625 11.625 C 11.734375 11.519531 11.785156 11.394531 11.785156 11.25 Z M 13.929688 3.480469 L 13.929688 11.519531 C 13.929688 12.183594 13.691406 12.75 13.222656 13.222656 C 12.75 13.691406 12.183594 13.929688 11.519531 13.929688 L 3.480469 13.929688 C 2.816406 13.929688 2.25 13.691406 1.777344 13.222656 C 1.308594 12.75 1.070312 12.183594 1.070312 11.519531 L 1.070312 3.480469 C 1.070312 2.816406 1.308594 2.25 1.777344 1.777344 C 2.25 1.308594 2.816406 1.070312 3.480469 1.070312 L 11.519531 1.070312 C 12.183594 1.070312 12.75 1.308594 13.222656 1.777344 C 13.691406 2.25 13.929688 2.816406 13.929688 3.480469 Z M 13.929688 3.480469 " fill="#FFFFFF"/>
  </g>
</svg>