<svg version="1.1" xmlns="http://www.w3.org/2000/svg" xlink="http://www.w3.org/1999/xlink" x="0px" y="0px" width="15px" height="15px" viewBox="0 0 15 15" style="enable-background:new 0 0 15 15;" space="preserve">
    <path d="M5.757812,1.070312C5.492188,1.070312,5.269531,1.167969,5.09375,1.355469C4.917969,1.546875,4.828125,1.773438,4.828125,2.042969C4.828125,2.121094,4.839844,2.199219,4.855469,2.277344L6.109375,7.5L5.894531,7.5L4.921875,3.464844C4.871094,3.253906,4.761719,3.082031,4.589844,2.945312C4.421875,2.8125,4.226562,2.746094,4.007812,2.746094C3.746094,2.746094,3.527344,2.839844,3.347656,3.03125C3.167969,3.21875,3.082031,3.445312,3.082031,3.707031C3.082031,3.769531,3.089844,3.851562,3.113281,3.949219C3.128906,4.023438,3.238281,4.472656,3.441406,5.296875C3.640625,6.125,3.832031,6.910156,4.007812,7.660156C4.1875,8.40625,4.277344,8.792969,4.277344,8.8125L4.277344,10.714844L1.707031,8.789062C1.519531,8.644531,1.304688,8.570312,1.0625,8.570312C0.773438,8.570312,0.523438,8.671875,0.3125,8.875C0.105469,9.082031,0,9.328125,0,9.617188C0,9.992188,0.15625,10.296875,0.46875,10.539062L4.710938,13.710938C4.902344,13.855469,5.113281,13.929688,5.347656,13.929688L11.15625,13.929688C11.34375,13.929688,11.507812,13.871094,11.652344,13.757812C11.796875,13.640625,11.890625,13.496094,11.9375,13.316406L12.773438,9.960938C12.816406,9.792969,12.847656,9.546875,12.855469,9.222656C12.867188,8.902344,12.894531,8.660156,12.933594,8.503906L13.902344,4.503906C13.921875,4.4375,13.929688,4.363281,13.929688,4.285156C13.929688,4.027344,13.835938,3.808594,13.652344,3.625C13.46875,3.441406,13.246094,3.347656,12.984375,3.347656C12.769531,3.347656,12.578125,3.417969,12.40625,3.5625C12.230469,3.703125,12.121094,3.878906,12.070312,4.085938L11.242188,7.5L11.023438,7.5L12.128906,2.921875C12.144531,2.84375,12.152344,2.765625,12.152344,2.6875C12.152344,2.425781,12.066406,2.203125,11.886719,2.015625C11.707031,1.832031,11.484375,1.742188,11.214844,1.742188C11.003906,1.742188,10.8125,1.808594,10.644531,1.941406C10.472656,2.074219,10.363281,2.25,10.3125,2.460938L9.097656,7.5L8.035156,7.5L6.664062,1.792969C6.613281,1.578125,6.503906,1.40625,6.332031,1.273438C6.160156,1.136719,5.972656,1.070312,5.757812,1.070312ZM11.15625,15L5.347656,15C4.875,15,4.449219,14.859375,4.066406,14.574219L-0.175781,11.390625C-0.453125,11.179688,-0.671875,10.917969,-0.832031,10.605469C-0.992188,10.292969,-1.070312,9.964844,-1.070312,9.617188C-1.070312,9.03125,-0.863281,8.53125,-0.445312,8.121094C-0.0234375,7.707031,0.476562,7.5,1.0625,7.5C1.203125,7.5,1.339844,7.515625,1.476562,7.546875C1.613281,7.578125,1.730469,7.605469,1.824219,7.636719C1.917969,7.667969,2.035156,7.726562,2.167969,7.808594C2.300781,7.894531,2.398438,7.957031,2.460938,8.003906C2.523438,8.046875,2.628906,8.128906,2.78125,8.25C2.9375,8.367188,3.042969,8.449219,3.097656,8.488281L2.066406,4.203125C2.027344,4.007812,2.007812,3.84375,2.007812,3.707031C2.007812,3.1875,2.175781,2.738281,2.511719,2.351562C2.847656,1.96875,3.269531,1.746094,3.785156,1.691406C3.863281,1.207031,4.085938,0.800781,4.457031,0.480469C4.828125,0.160156,5.261719,0,5.757812,0C6.222656,0,6.636719,0.144531,6.996094,0.429688C7.359375,0.71875,7.597656,1.089844,7.710938,1.539062L8.570312,5.121094L9.265625,2.210938C9.378906,1.757812,9.613281,1.386719,9.976562,1.101562C10.339844,0.8125,10.753906,0.667969,11.214844,0.667969C11.703125,0.667969,12.128906,0.820312,12.492188,1.121094C12.859375,1.421875,13.089844,1.8125,13.183594,2.285156C13.703125,2.339844,14.136719,2.558594,14.480469,2.9375C14.828125,3.316406,15,3.765625,15,4.285156C15,4.453125,14.980469,4.613281,14.941406,4.761719L13.96875,8.753906C13.941406,8.878906,13.929688,9.066406,13.929688,9.316406C13.929688,9.601562,13.890625,9.902344,13.820312,10.21875L12.972656,13.578125C12.867188,13.996094,12.644531,14.335938,12.308594,14.601562C11.972656,14.867188,11.585938,15,11.15625,15ZM11.15625,15" fill="#FFFFFF"/>
    </svg>