<svg version="1.1" xmlns="http://www.w3.org/2000/svg" xlink="http://www.w3.org/1999/xlink" x="0px" y="0px" width="15px" height="15px" viewBox="0 0 15 15" style="enable-background:new 0 0 15 15;" space="preserve">
    <path d="M13.929688,7.5C13.929688,8.371094,13.757812,9.203125,13.417969,9.996094C13.078125,10.785156,12.621094,11.46875,12.046875,12.046875C11.46875,12.621094,10.785156,13.078125,9.996094,13.417969C9.203125,13.757812,8.371094,13.929688,7.5,13.929688C6.539062,13.929688,5.628906,13.726562,4.761719,13.320312C3.898438,12.917969,3.160156,12.347656,2.554688,11.609375C2.515625,11.554688,2.496094,11.492188,2.5,11.421875C2.5,11.351562,2.523438,11.292969,2.570312,11.25L3.714844,10.09375C3.773438,10.042969,3.84375,10.019531,3.925781,10.019531C4.015625,10.03125,4.078125,10.0625,4.117188,10.121094C4.527344,10.648438,5.023438,11.058594,5.617188,11.351562C6.207031,11.640625,6.835938,11.785156,7.5,11.785156C8.082031,11.785156,8.632812,11.671875,9.160156,11.445312C9.6875,11.21875,10.144531,10.914062,10.53125,10.53125C10.914062,10.144531,11.21875,9.6875,11.445312,9.160156C11.671875,8.632812,11.785156,8.082031,11.785156,7.5C11.785156,6.917969,11.671875,6.367188,11.445312,5.839844C11.21875,5.3125,10.914062,4.855469,10.53125,4.46875C10.144531,4.085938,9.6875,3.78125,9.160156,3.554688C8.632812,3.328125,8.082031,3.214844,7.5,3.214844C6.953125,3.214844,6.429688,3.3125,5.925781,3.511719C5.425781,3.710938,4.976562,3.992188,4.585938,4.359375L5.734375,5.515625C5.90625,5.683594,5.945312,5.875,5.851562,6.09375C5.757812,6.316406,5.589844,6.429688,5.355469,6.429688L1.605469,6.429688C1.460938,6.429688,1.335938,6.375,1.230469,6.269531C1.125,6.164062,1.070312,6.039062,1.070312,5.894531L1.070312,2.144531C1.070312,1.910156,1.183594,1.742188,1.40625,1.648438C1.625,1.554688,1.816406,1.59375,1.984375,1.765625L3.070312,2.847656C3.667969,2.28125,4.351562,1.84375,5.117188,1.535156C5.886719,1.226562,6.679688,1.070312,7.5,1.070312C8.371094,1.070312,9.203125,1.242188,9.996094,1.582031C10.785156,1.921875,11.46875,2.378906,12.046875,2.953125C12.621094,3.53125,13.078125,4.214844,13.417969,5.003906C13.757812,5.796875,13.929688,6.628906,13.929688,7.5ZM8.570312,5.089844L8.570312,8.839844C8.570312,8.917969,8.546875,8.980469,8.496094,9.03125C8.445312,9.082031,8.382812,9.105469,8.304688,9.105469L5.625,9.105469C5.546875,9.105469,5.484375,9.082031,5.433594,9.03125C5.382812,8.980469,5.355469,8.917969,5.355469,8.839844L5.355469,8.304688C5.355469,8.226562,5.382812,8.160156,5.433594,8.109375C5.484375,8.0625,5.546875,8.035156,5.625,8.035156L7.5,8.035156L7.5,5.089844C7.5,5.011719,7.523438,4.945312,7.574219,4.898438C7.625,4.847656,7.691406,4.820312,7.769531,4.820312L8.304688,4.820312C8.382812,4.820312,8.445312,4.847656,8.496094,4.898438C8.546875,4.945312,8.570312,5.011719,8.570312,5.089844ZM8.570312,5.089844" fill="#FFFFFF"/>
    </svg>