<svg version="1.1" xmlns="http://www.w3.org/2000/svg" xlink="http://www.w3.org/1999/xlink" x="0px" y="0px" width="15px" height="15px" viewBox="0 0 15 15" style="enable-background:new 0 0 15 15;" space="preserve">
    <path d="M9.380859375,7.142578125l-1.4560546875,2.912109375c-0.17578125,0.3544921875,-0.685546875,0.3427734375,-0.8466796875,-0.017578125l-1.6669921875,-3.7001953125l-0.87890625,2.1005859375H1.775390625l5.3466796875,5.4638671875c0.2080078125,0.2138671875,0.544921875,0.2138671875,0.7529296875,0L13.224609375,8.4375H10.0283203125l-0.6474609375,-1.294921875zM13.8779296875,2.1650390625l-0.0703125,-0.0732421875c-1.5087890625,-1.541015625,-3.9785156250000004,-1.541015625,-5.490234375,0L7.5,2.9296875l-0.8173828125,-0.8349609375c-1.5087890625,-1.5439453125,-3.9814453125,-1.5439453125,-5.490234375,0l-0.0703125,0.0703125C-0.3046875,3.6240234375,-0.3662109375,5.947265625,0.908203125,7.5h3l1.0517578125,-2.525390625c0.158203125,-0.3779296875,0.69140625,-0.38671875,0.861328125,-0.01171875l1.705078125,3.7880859375000004l1.435546875,-2.8681640625c0.1728515625,-0.345703125,0.6650390625,-0.345703125,0.837890625,0l0.80859375,1.6171875H14.091796875c1.2744140625,-1.552734375,1.212890625,-3.8759765625000004,-0.2138671875,-5.3349609375z" fill="#FFFFFF"/>
    </svg>