<svg version="1.1" xmlns="http://www.w3.org/2000/svg" xlink="http://www.w3.org/1999/xlink" x="0px" y="0px" width="15px" height="18.75px" viewBox="0 0 15 18.75" style="enable-background:new 0 0 15 15;" space="preserve">
    <path d="M7.5,8.4375c-0.38818359375,-0.516357421875,-1.124267578125,-0.62255859375,-1.640625,-0.234375c-0.516357421875,0.38818359375,-0.62255859375,1.124267578125,-0.234375,1.640625l1.395263671875,1.8603515625c0.17578125,0.234375,0.15014648437499997,0.560302734375,-0.054931640625,0.765380859375l-0.46875,0.46875c-0.245361328125,0.245361328125,-0.64453125,0.22705078125,-0.8642578125,-0.040283203125L2.34375,8.9501953125V3.515625c0,-0.648193359375,-0.523681640625,-1.171875,-1.171875,-1.171875S0,2.867431640625,0,3.515625v7.998046875c0,0.399169921875,0.135498046875,0.787353515625,0.384521484375,1.0986328125l3.812255859375,4.918212890625001c0.18310546875,0.238037109375,0.3076171875,0.509033203125,0.380859375,0.794677734375c0.06591796875,0.252685546875,0.296630859375,0.4248046875,0.560302734375,0.4248046875H9.9609375c0.322265625,0,0.5859375,-0.263671875,0.5859375,-0.5859375V14.0625c0,-1.014404296875,-0.32958984375,-1.99951171875,-0.9375,-2.8125l-2.109375,-2.8125zM22.265625,2.34375c-0.648193359375,0,-1.171875,0.523681640625,-1.171875,1.171875v5.4345703125l-3.28857421875,3.94775390625c-0.2197265625,0.263671875,-0.62255859375,0.281982421875,-0.8642578125,0.040283203125l-0.46875,-0.46875c-0.205078125,-0.205078125,-0.230712890625,-0.531005859375,-0.054931640625,-0.765380859375l1.395263671875,-1.8603515625c0.38818359375,-0.516357421875,0.281982421875,-1.25244140625,-0.234375,-1.640625c-0.516357421875,-0.38818359375,-1.25244140625,-0.281982421875,-1.640625,0.234375l-2.109375,2.8125C13.22021484375,12.06298828125,12.890625,13.048095703125,12.890625,14.0625v4.1015625c0,0.322265625,0.263671875,0.5859375,0.5859375,0.5859375h4.822998046874999c0.260009765625,0,0.494384765625,-0.172119140625,0.560302734375,-0.4248046875c0.0732421875,-0.28564453125,0.19775390625,-0.556640625,0.380859375,-0.794677734375l3.812255859375,-4.918212890625001c0.2490234375,-0.311279296875,0.384521484375,-0.699462890625,0.384521484375,-1.0986328125V3.515625c0,-0.648193359375,-0.523681640625,-1.171875,-1.171875,-1.171875z" fill="#FFFFFF"/>
    </svg>