<svg xmlns="http://www.w3.org/2000/svg" xlink="http://www.w3.org/1999/xlink" width="20px" height="20px" viewBox="0 0 15 15" version="1.1">
  <g id="surface1">
    <path d="M 7.5 3.214844 C 7.203125 3.214844 6.953125 3.320312 6.742188 3.527344 C 6.53125 3.738281 6.429688 3.988281 6.429688 4.285156 L 6.429688 5.355469 L 6.160156 5.355469 L 6.160156 4.578125 C 6.160156 4.3125 6.070312 4.082031 5.894531 3.898438 C 5.714844 3.710938 5.492188 3.617188 5.222656 3.617188 C 4.964844 3.617188 4.746094 3.707031 4.5625 3.890625 C 4.378906 4.078125 4.285156 4.296875 4.285156 4.554688 L 4.285156 8.144531 L 4.019531 7.894531 L 4.019531 6.453125 C 4.019531 6.1875 3.929688 5.957031 3.75 5.773438 C 3.570312 5.585938 3.347656 5.492188 3.082031 5.492188 C 2.824219 5.492188 2.601562 5.582031 2.417969 5.765625 C 2.234375 5.953125 2.144531 6.171875 2.144531 6.429688 L 2.144531 8.304688 C 2.144531 8.566406 2.242188 8.792969 2.4375 8.988281 L 5.03125 11.46875 C 5.25 11.683594 5.355469 11.96875 5.355469 12.320312 C 5.355469 12.464844 5.410156 12.59375 5.515625 12.699219 C 5.621094 12.804688 5.746094 12.855469 5.894531 12.855469 L 11.25 12.855469 C 11.394531 12.855469 11.519531 12.804688 11.625 12.699219 C 11.734375 12.59375 11.785156 12.464844 11.785156 12.320312 L 11.785156 12.113281 C 11.785156 11.882812 11.8125 11.667969 11.871094 11.46875 L 12.773438 7.816406 C 12.828125 7.617188 12.855469 7.402344 12.855469 7.171875 L 12.855469 5.113281 C 12.855469 4.847656 12.769531 4.617188 12.589844 4.433594 C 12.410156 4.246094 12.1875 4.152344 11.917969 4.152344 C 11.664062 4.152344 11.441406 4.242188 11.257812 4.429688 C 11.074219 4.613281 10.980469 4.832031 10.980469 5.089844 L 10.980469 5.355469 L 10.714844 5.355469 L 10.714844 4.3125 C 10.714844 4.085938 10.644531 3.886719 10.503906 3.703125 C 10.367188 3.523438 10.1875 3.410156 9.96875 3.363281 C 9.890625 3.355469 9.828125 3.347656 9.777344 3.347656 C 9.519531 3.347656 9.300781 3.441406 9.117188 3.625 C 8.929688 3.808594 8.839844 4.027344 8.839844 4.285156 L 8.839844 5.355469 L 8.570312 5.355469 L 8.570312 4.335938 C 8.570312 4.050781 8.480469 3.800781 8.300781 3.585938 C 8.117188 3.371094 7.886719 3.25 7.609375 3.222656 C 7.582031 3.21875 7.542969 3.214844 7.5 3.214844 Z M 7.5 2.144531 C 7.96875 2.144531 8.382812 2.28125 8.746094 2.5625 C 9.066406 2.371094 9.410156 2.277344 9.777344 2.277344 C 10.105469 2.277344 10.414062 2.351562 10.707031 2.503906 C 10.996094 2.652344 11.234375 2.867188 11.425781 3.140625 C 11.578125 3.101562 11.742188 3.082031 11.917969 3.082031 C 12.476562 3.082031 12.953125 3.28125 13.34375 3.679688 C 13.734375 4.078125 13.929688 4.554688 13.929688 5.113281 L 13.929688 7.171875 C 13.929688 7.457031 13.890625 7.757812 13.820312 8.078125 L 12.90625 11.726562 C 12.875 11.859375 12.855469 12.058594 12.855469 12.320312 C 12.855469 12.769531 12.699219 13.148438 12.386719 13.460938 C 12.074219 13.773438 11.695312 13.929688 11.25 13.929688 L 5.894531 13.929688 C 5.425781 13.929688 5.039062 13.765625 4.738281 13.4375 C 4.4375 13.113281 4.285156 12.714844 4.285156 12.246094 L 1.707031 9.769531 C 1.285156 9.359375 1.070312 8.871094 1.070312 8.304688 L 1.070312 6.429688 C 1.070312 5.875 1.269531 5.402344 1.660156 5.007812 C 2.054688 4.617188 2.527344 4.417969 3.082031 4.417969 C 3.140625 4.417969 3.1875 4.421875 3.214844 4.429688 C 3.246094 3.898438 3.457031 3.453125 3.847656 3.089844 C 4.234375 2.726562 4.691406 2.542969 5.222656 2.542969 C 5.511719 2.542969 5.785156 2.601562 6.042969 2.71875 C 6.445312 2.335938 6.929688 2.144531 7.5 2.144531 Z M 7.5 2.144531 " fill="#FFFFFF"/>
  </g>
</svg>