<?xml version="1.0" encoding="UTF-8" standalone="yes"?>
<svg xmlns="http://www.w3.org/2000/svg" xmlns:xlink="http://www.w3.org/1999/xlink" width="20px" height="20px" viewBox="0 0 15 15" version="1.1">
  <g id="surface1">
    <path style=" stroke:none;fill-rule:nonzero;fill:rgb(0%,0%,0%);fill-opacity:1;" d="M 1.070312 8.570312 L 15.535156 8.570312 C 15.679688 8.570312 15.804688 8.625 15.914062 8.730469 C 16.019531 8.835938 16.070312 8.960938 16.070312 9.105469 L 16.070312 12.855469 L 13.929688 12.855469 L 13.929688 10.714844 L 1.070312 10.714844 L 1.070312 12.855469 L -1.070312 12.855469 L -1.070312 2.679688 C -1.070312 2.535156 -1.019531 2.40625 -0.914062 2.300781 C -0.804688 2.195312 -0.679688 2.144531 -0.535156 2.144531 L 0.535156 2.144531 C 0.679688 2.144531 0.804688 2.195312 0.914062 2.300781 C 1.019531 2.40625 1.070312 2.535156 1.070312 2.679688 Z M 5.894531 5.894531 C 5.894531 5.300781 5.683594 4.796875 5.265625 4.378906 C 4.847656 3.960938 4.339844 3.75 3.75 3.75 C 3.160156 3.75 2.652344 3.960938 2.234375 4.378906 C 1.816406 4.796875 1.605469 5.300781 1.605469 5.894531 C 1.605469 6.484375 1.816406 6.988281 2.234375 7.40625 C 2.652344 7.828125 3.160156 8.035156 3.75 8.035156 C 4.339844 8.035156 4.847656 7.828125 5.265625 7.40625 C 5.683594 6.988281 5.894531 6.484375 5.894531 5.894531 Z M 16.070312 8.035156 L 16.070312 7.5 C 16.070312 6.613281 15.757812 5.855469 15.128906 5.226562 C 14.5 4.601562 13.746094 4.285156 12.855469 4.285156 L 6.964844 4.285156 C 6.820312 4.285156 6.695312 4.339844 6.585938 4.445312 C 6.480469 4.550781 6.429688 4.675781 6.429688 4.820312 L 6.429688 8.035156 Z M 16.070312 8.035156 "/>
  </g>
</svg>