<?xml version="1.0" encoding="UTF-8" standalone="yes"?>
<svg xmlns="http://www.w3.org/2000/svg" xmlns:xlink="http://www.w3.org/1999/xlink" width="20px" height="20px" viewBox="0 0 15 15" version="1.1">
  <g id="surface1">
    <path style=" stroke:none;fill-rule:nonzero;fill:rgb(0%,0%,0%);fill-opacity:1;" d="M 13.660156 13.394531 C 13.738281 13.394531 13.804688 13.417969 13.851562 13.46875 C 13.902344 13.519531 13.929688 13.582031 13.929688 13.660156 L 13.929688 14.730469 C 13.929688 14.808594 13.902344 14.875 13.851562 14.925781 C 13.804688 14.976562 13.738281 15 13.660156 15 L 1.339844 15 C 1.261719 15 1.195312 14.976562 1.148438 14.925781 C 1.097656 14.875 1.070312 14.808594 1.070312 14.730469 L 1.070312 13.660156 C 1.070312 13.582031 1.097656 13.519531 1.148438 13.46875 C 1.195312 13.417969 1.261719 13.394531 1.339844 13.394531 Z M 2.160156 12.855469 C 2.175781 12.550781 2.222656 12.25 2.292969 11.960938 C 2.367188 11.671875 2.449219 11.40625 2.542969 11.167969 C 2.640625 10.925781 2.769531 10.683594 2.929688 10.4375 C 3.089844 10.191406 3.242188 9.980469 3.378906 9.800781 C 3.515625 9.625 3.695312 9.429688 3.917969 9.21875 C 4.140625 9.011719 4.324219 8.84375 4.46875 8.71875 C 4.613281 8.59375 4.8125 8.4375 5.058594 8.257812 C 5.308594 8.078125 5.492188 7.945312 5.617188 7.859375 C 5.738281 7.777344 5.921875 7.65625 6.160156 7.5 C 5.921875 7.34375 5.738281 7.222656 5.617188 7.140625 C 5.492188 7.054688 5.308594 6.921875 5.058594 6.742188 C 4.8125 6.5625 4.613281 6.40625 4.46875 6.28125 C 4.324219 6.15625 4.140625 5.988281 3.917969 5.78125 C 3.695312 5.570312 3.515625 5.375 3.378906 5.199219 C 3.242188 5.019531 3.089844 4.808594 2.929688 4.5625 C 2.769531 4.316406 2.640625 4.074219 2.542969 3.832031 C 2.449219 3.59375 2.367188 3.328125 2.292969 3.039062 C 2.222656 2.75 2.175781 2.449219 2.160156 2.144531 L 12.839844 2.144531 C 12.824219 2.449219 12.777344 2.75 12.707031 3.039062 C 12.632812 3.328125 12.550781 3.59375 12.457031 3.832031 C 12.359375 4.074219 12.230469 4.316406 12.070312 4.5625 C 11.910156 4.808594 11.757812 5.019531 11.621094 5.199219 C 11.484375 5.375 11.304688 5.570312 11.082031 5.78125 C 10.859375 5.988281 10.675781 6.15625 10.53125 6.28125 C 10.386719 6.40625 10.1875 6.5625 9.941406 6.742188 C 9.691406 6.921875 9.507812 7.054688 9.382812 7.140625 C 9.261719 7.222656 9.078125 7.34375 8.839844 7.5 C 9.078125 7.65625 9.261719 7.777344 9.382812 7.859375 C 9.507812 7.945312 9.691406 8.078125 9.941406 8.257812 C 10.1875 8.4375 10.386719 8.59375 10.53125 8.71875 C 10.675781 8.84375 10.859375 9.011719 11.082031 9.21875 C 11.304688 9.429688 11.484375 9.625 11.621094 9.800781 C 11.757812 9.980469 11.910156 10.191406 12.070312 10.4375 C 12.230469 10.683594 12.359375 10.925781 12.457031 11.167969 C 12.550781 11.40625 12.632812 11.671875 12.707031 11.960938 C 12.777344 12.25 12.824219 12.550781 12.839844 12.855469 Z M 13.660156 0 C 13.738281 0 13.804688 0.0234375 13.851562 0.0742188 C 13.902344 0.125 13.929688 0.191406 13.929688 0.269531 L 13.929688 1.339844 C 13.929688 1.417969 13.902344 1.480469 13.851562 1.53125 C 13.804688 1.582031 13.738281 1.605469 13.660156 1.605469 L 1.339844 1.605469 C 1.261719 1.605469 1.195312 1.582031 1.148438 1.53125 C 1.097656 1.480469 1.070312 1.417969 1.070312 1.339844 L 1.070312 0.269531 C 1.070312 0.191406 1.097656 0.125 1.148438 0.0742188 C 1.195312 0.0234375 1.261719 0 1.339844 0 Z M 13.660156 0 "/>
  </g>
</svg>