<svg xmlns="http://www.w3.org/2000/svg" xlink="http://www.w3.org/1999/xlink" width="20px" height="20px" viewBox="0 0 15 15" version="1.1">
  <g id="surface1">
    <path d="M 12.855469 1.070312 C 12.855469 2.527344 12.558594 3.816406 11.964844 4.933594 C 11.371094 6.054688 10.628906 6.910156 9.734375 7.5 C 10.628906 8.089844 11.371094 8.945312 11.964844 10.066406 C 12.558594 11.183594 12.855469 12.472656 12.855469 13.929688 L 13.660156 13.929688 C 13.738281 13.929688 13.804688 13.953125 13.851562 14.003906 C 13.902344 14.054688 13.929688 14.117188 13.929688 14.195312 L 13.929688 14.730469 C 13.929688 14.808594 13.902344 14.875 13.851562 14.925781 C 13.804688 14.976562 13.738281 15 13.660156 15 L 1.339844 15 C 1.261719 15 1.195312 14.976562 1.148438 14.925781 C 1.097656 14.875 1.070312 14.808594 1.070312 14.730469 L 1.070312 14.195312 C 1.070312 14.117188 1.097656 14.054688 1.148438 14.003906 C 1.195312 13.953125 1.261719 13.929688 1.339844 13.929688 L 2.144531 13.929688 C 2.144531 12.472656 2.441406 11.183594 3.035156 10.066406 C 3.628906 8.945312 4.371094 8.089844 5.265625 7.5 C 4.371094 6.910156 3.628906 6.054688 3.035156 4.933594 C 2.441406 3.816406 2.144531 2.527344 2.144531 1.070312 L 1.339844 1.070312 C 1.261719 1.070312 1.195312 1.046875 1.148438 0.996094 C 1.097656 0.945312 1.070312 0.882812 1.070312 0.804688 L 1.070312 0.269531 C 1.070312 0.191406 1.097656 0.125 1.148438 0.0742188 C 1.195312 0.0234375 1.261719 0 1.339844 0 L 13.660156 0 C 13.738281 0 13.804688 0.0234375 13.851562 0.0742188 C 13.902344 0.125 13.929688 0.191406 13.929688 0.269531 L 13.929688 0.804688 C 13.929688 0.882812 13.902344 0.945312 13.851562 0.996094 C 13.804688 1.046875 13.738281 1.070312 13.660156 1.070312 Z M 11.785156 1.070312 L 3.214844 1.070312 C 3.214844 2.222656 3.453125 3.292969 3.925781 4.285156 L 11.074219 4.285156 C 11.546875 3.292969 11.785156 2.222656 11.785156 1.070312 Z M 11.308594 11.25 C 11.007812 10.464844 10.601562 9.789062 10.089844 9.226562 C 9.578125 8.667969 9.039062 8.269531 8.460938 8.035156 L 6.539062 8.035156 C 5.960938 8.269531 5.421875 8.667969 4.910156 9.226562 C 4.398438 9.789062 3.992188 10.464844 3.691406 11.25 Z M 11.308594 11.25 " fill="#FFFFFF"/>
  </g>
</svg>