<svg version="1.1" xmlns="http://www.w3.org/2000/svg" xlink="http://www.w3.org/1999/xlink" x="0px" y="0px" width="15px" height="15px" viewBox="0 0 15 15" style="enable-background:new 0 0 15 15;" space="preserve">
    <path d="M7.5,3.214844C7.203125,3.214844,6.953125,3.320312,6.742188,3.527344C6.53125,3.738281,6.429688,3.988281,6.429688,4.285156L6.429688,5.355469L6.160156,5.355469L6.160156,4.578125C6.160156,4.3125,6.070312,4.082031,5.894531,3.898438C5.714844,3.710938,5.492188,3.617188,5.222656,3.617188C4.964844,3.617188,4.746094,3.707031,4.5625,3.890625C4.378906,4.078125,4.285156,4.296875,4.285156,4.554688L4.285156,8.144531L4.019531,7.894531L4.019531,6.453125C4.019531,6.1875,3.929688,5.957031,3.75,5.773438C3.570312,5.585938,3.347656,5.492188,3.082031,5.492188C2.824219,5.492188,2.601562,5.582031,2.417969,5.765625C2.234375,5.953125,2.144531,6.171875,2.144531,6.429688L2.144531,8.304688C2.144531,8.566406,2.242188,8.792969,2.4375,8.988281L5.03125,11.46875C5.25,11.683594,5.355469,11.96875,5.355469,12.320312C5.355469,12.464844,5.410156,12.59375,5.515625,12.699219C5.621094,12.804688,5.746094,12.855469,5.894531,12.855469L11.25,12.855469C11.394531,12.855469,11.519531,12.804688,11.625,12.699219C11.734375,12.59375,11.785156,12.464844,11.785156,12.320312L11.785156,12.113281C11.785156,11.882812,11.8125,11.667969,11.871094,11.46875L12.773438,7.816406C12.828125,7.617188,12.855469,7.402344,12.855469,7.171875L12.855469,5.113281C12.855469,4.847656,12.769531,4.617188,12.589844,4.433594C12.410156,4.246094,12.1875,4.152344,11.917969,4.152344C11.664062,4.152344,11.441406,4.242188,11.257812,4.429688C11.074219,4.613281,10.980469,4.832031,10.980469,5.089844L10.980469,5.355469L10.714844,5.355469L10.714844,4.3125C10.714844,4.085938,10.644531,3.886719,10.503906,3.703125C10.367188,3.523438,10.1875,3.410156,9.96875,3.363281C9.890625,3.355469,9.828125,3.347656,9.777344,3.347656C9.519531,3.347656,9.300781,3.441406,9.117188,3.625C8.929688,3.808594,8.839844,4.027344,8.839844,4.285156L8.839844,5.355469L8.570312,5.355469L8.570312,4.335938C8.570312,4.050781,8.480469,3.800781,8.300781,3.585938C8.117188,3.371094,7.886719,3.25,7.609375,3.222656C7.582031,3.21875,7.542969,3.214844,7.5,3.214844ZM7.5,2.144531C7.96875,2.144531,8.382812,2.28125,8.746094,2.5625C9.066406,2.371094,9.410156,2.277344,9.777344,2.277344C10.105469,2.277344,10.414062,2.351562,10.707031,2.503906C10.996094,2.652344,11.234375,2.867188,11.425781,3.140625C11.578125,3.101562,11.742188,3.082031,11.917969,3.082031C12.476562,3.082031,12.953125,3.28125,13.34375,3.679688C13.734375,4.078125,13.929688,4.554688,13.929688,5.113281L13.929688,7.171875C13.929688,7.457031,13.890625,7.757812,13.820312,8.078125L12.90625,11.726562C12.875,11.859375,12.855469,12.058594,12.855469,12.320312C12.855469,12.769531,12.699219,13.148438,12.386719,13.460938C12.074219,13.773438,11.695312,13.929688,11.25,13.929688L5.894531,13.929688C5.425781,13.929688,5.039062,13.765625,4.738281,13.4375C4.4375,13.113281,4.285156,12.714844,4.285156,12.246094L1.707031,9.769531C1.285156,9.359375,1.070312,8.871094,1.070312,8.304688L1.070312,6.429688C1.070312,5.875,1.269531,5.402344,1.660156,5.007812C2.054688,4.617188,2.527344,4.417969,3.082031,4.417969C3.140625,4.417969,3.1875,4.421875,3.214844,4.429688C3.246094,3.898438,3.457031,3.453125,3.847656,3.089844C4.234375,2.726562,4.691406,2.542969,5.222656,2.542969C5.511719,2.542969,5.785156,2.601562,6.042969,2.71875C6.445312,2.335938,6.929688,2.144531,7.5,2.144531ZM7.5,2.144531" fill="#FFFFFF"/>
    </svg>