<svg xmlns="http://www.w3.org/2000/svg" xlink="http://www.w3.org/1999/xlink" width="20px" height="20px" viewBox="0 0 15 15" version="1.1">
  <g id="surface1">
    <path d="M 11.785156 13.394531 C 11.785156 13.246094 11.734375 13.121094 11.625 13.015625 C 11.519531 12.910156 11.394531 12.855469 11.25 12.855469 C 11.105469 12.855469 10.980469 12.910156 10.875 13.015625 C 10.765625 13.121094 10.714844 13.246094 10.714844 13.394531 C 10.714844 13.539062 10.765625 13.664062 10.875 13.769531 C 10.980469 13.875 11.105469 13.929688 11.25 13.929688 C 11.394531 13.929688 11.519531 13.875 11.625 13.769531 C 11.734375 13.664062 11.785156 13.539062 11.785156 13.394531 Z M 12.855469 6.996094 C 12.855469 5.941406 12.390625 5.414062 11.460938 5.414062 C 11.3125 5.414062 11.15625 5.429688 10.992188 5.457031 C 10.902344 5.289062 10.753906 5.15625 10.550781 5.058594 C 10.347656 4.960938 10.140625 4.914062 9.9375 4.914062 C 9.730469 4.914062 9.535156 4.964844 9.359375 5.0625 C 9.078125 4.769531 8.746094 4.621094 8.363281 4.621094 C 8.222656 4.621094 8.066406 4.648438 7.898438 4.703125 C 7.726562 4.761719 7.59375 4.828125 7.5 4.914062 L 7.5 2.144531 C 7.5 1.851562 7.394531 1.601562 7.183594 1.390625 C 6.96875 1.175781 6.71875 1.070312 6.429688 1.070312 C 6.144531 1.070312 5.894531 1.179688 5.679688 1.398438 C 5.464844 1.617188 5.355469 1.863281 5.355469 2.144531 L 5.355469 6.964844 C 5.246094 6.964844 5.109375 6.921875 4.953125 6.839844 C 4.792969 6.753906 4.636719 6.664062 4.492188 6.5625 C 4.34375 6.460938 4.152344 6.371094 3.921875 6.285156 C 3.691406 6.203125 3.453125 6.160156 3.214844 6.160156 C 2.839844 6.160156 2.566406 6.285156 2.398438 6.53125 C 2.226562 6.78125 2.144531 7.105469 2.144531 7.5 C 2.144531 7.632812 2.53125 7.886719 3.304688 8.253906 C 3.550781 8.386719 3.734375 8.492188 3.851562 8.5625 C 4.207031 8.785156 4.613281 9.097656 5.0625 9.5 C 5.515625 9.898438 5.8125 10.179688 5.953125 10.347656 C 6.269531 10.730469 6.429688 11.121094 6.429688 11.519531 L 6.429688 11.785156 L 11.785156 11.785156 L 11.785156 11.519531 C 11.785156 11.117188 11.875 10.648438 12.054688 10.121094 C 12.230469 9.589844 12.410156 9.050781 12.589844 8.5 C 12.769531 7.949219 12.855469 7.449219 12.855469 6.996094 Z M 13.929688 6.957031 C 13.929688 7.699219 13.734375 8.597656 13.351562 9.652344 C 13.023438 10.566406 12.855469 11.1875 12.855469 11.519531 L 12.855469 13.929688 C 12.855469 14.222656 12.753906 14.476562 12.542969 14.6875 C 12.335938 14.894531 12.082031 15 11.785156 15 L 6.429688 15 C 6.132812 15 5.878906 14.894531 5.671875 14.6875 C 5.460938 14.476562 5.355469 14.222656 5.355469 13.929688 L 5.355469 11.519531 C 5.355469 11.460938 5.34375 11.402344 5.320312 11.335938 C 5.292969 11.273438 5.253906 11.207031 5.203125 11.140625 C 5.148438 11.074219 5.097656 11.011719 5.050781 10.953125 C 5.003906 10.894531 4.941406 10.828125 4.863281 10.75 C 4.785156 10.675781 4.726562 10.621094 4.683594 10.582031 C 4.640625 10.542969 4.582031 10.488281 4.503906 10.421875 C 4.425781 10.355469 4.378906 10.316406 4.359375 10.304688 C 3.949219 9.941406 3.589844 9.664062 3.28125 9.46875 C 3.164062 9.394531 2.992188 9.300781 2.761719 9.191406 C 2.535156 9.078125 2.332031 8.976562 2.160156 8.882812 C 1.988281 8.785156 1.8125 8.671875 1.632812 8.542969 C 1.453125 8.410156 1.316406 8.257812 1.21875 8.082031 C 1.121094 7.90625 1.070312 7.710938 1.070312 7.5 C 1.070312 6.800781 1.257812 6.226562 1.632812 5.773438 C 2.007812 5.316406 2.535156 5.089844 3.214844 5.089844 C 3.59375 5.089844 3.949219 5.152344 4.285156 5.273438 L 4.285156 2.144531 C 4.285156 1.5625 4.496094 1.058594 4.921875 0.636719 C 5.347656 0.210938 5.84375 0 6.421875 0 C 7.007812 0 7.511719 0.210938 7.933594 0.632812 C 8.359375 1.054688 8.570312 1.558594 8.570312 2.144531 L 8.570312 3.558594 C 8.917969 3.578125 9.25 3.683594 9.566406 3.867188 C 9.683594 3.851562 9.804688 3.84375 9.925781 3.84375 C 10.492188 3.84375 10.988281 4.007812 11.417969 4.34375 C 12.191406 4.339844 12.804688 4.574219 13.253906 5.054688 C 13.703125 5.535156 13.929688 6.167969 13.929688 6.957031 Z M 13.929688 6.957031 " fill="#FFFFFF"/>
  </g>
</svg>