<?xml version="1.0" encoding="UTF-8" standalone="yes"?>
<svg xmlns="http://www.w3.org/2000/svg" xmlns:xlink="http://www.w3.org/1999/xlink" width="20px" height="20px" viewBox="0 0 15 15" version="1.1">
  <g id="surface1">
    <path style=" stroke:none;fill-rule:nonzero;fill:rgb(0%,0%,0%);fill-opacity:1;" d="M 9.777344 10.179688 C 9.777344 10.363281 9.710938 10.519531 9.578125 10.652344 C 9.449219 10.78125 9.292969 10.847656 9.105469 10.847656 C 8.921875 10.847656 8.765625 10.78125 8.632812 10.652344 C 8.503906 10.519531 8.4375 10.363281 8.4375 10.179688 C 8.4375 9.996094 8.503906 9.835938 8.632812 9.707031 C 8.765625 9.574219 8.921875 9.507812 9.105469 9.507812 C 9.292969 9.507812 9.449219 9.574219 9.578125 9.707031 C 9.710938 9.835938 9.777344 9.996094 9.777344 10.179688 Z M 11.917969 10.179688 C 11.917969 10.363281 11.855469 10.519531 11.722656 10.652344 C 11.589844 10.78125 11.433594 10.847656 11.25 10.847656 C 11.066406 10.847656 10.90625 10.78125 10.777344 10.652344 C 10.644531 10.519531 10.582031 10.363281 10.582031 10.179688 C 10.582031 9.996094 10.644531 9.835938 10.777344 9.707031 C 10.90625 9.574219 11.066406 9.507812 11.25 9.507812 C 11.433594 9.507812 11.589844 9.574219 11.722656 9.707031 C 11.855469 9.835938 11.917969 9.996094 11.917969 10.179688 Z M 12.855469 11.519531 L 12.855469 8.839844 C 12.855469 8.765625 12.832031 8.703125 12.777344 8.652344 C 12.722656 8.597656 12.660156 8.570312 12.589844 8.570312 L 2.410156 8.570312 C 2.339844 8.570312 2.273438 8.597656 2.222656 8.652344 C 2.167969 8.703125 2.144531 8.765625 2.144531 8.839844 L 2.144531 11.519531 C 2.144531 11.589844 2.167969 11.652344 2.222656 11.707031 C 2.273438 11.757812 2.339844 11.785156 2.410156 11.785156 L 12.589844 11.785156 C 12.660156 11.785156 12.722656 11.757812 12.777344 11.707031 C 12.832031 11.652344 12.855469 11.589844 12.855469 11.519531 Z M 2.5625 7.5 L 12.4375 7.5 L 11.125 3.464844 C 11.101562 3.394531 11.058594 3.332031 10.992188 3.285156 C 10.921875 3.238281 10.851562 3.214844 10.773438 3.214844 L 4.226562 3.214844 C 4.148438 3.214844 4.078125 3.238281 4.007812 3.285156 C 3.941406 3.332031 3.898438 3.394531 3.875 3.464844 Z M 13.929688 8.839844 L 13.929688 11.519531 C 13.929688 11.886719 13.796875 12.203125 13.535156 12.464844 C 13.273438 12.726562 12.957031 12.855469 12.589844 12.855469 L 2.410156 12.855469 C 2.042969 12.855469 1.726562 12.726562 1.464844 12.464844 C 1.203125 12.203125 1.070312 11.886719 1.070312 11.519531 L 1.070312 8.839844 C 1.070312 8.699219 1.117188 8.492188 1.207031 8.210938 L 2.855469 3.140625 C 2.949219 2.84375 3.125 2.601562 3.382812 2.417969 C 3.636719 2.234375 3.921875 2.144531 4.226562 2.144531 L 10.773438 2.144531 C 11.078125 2.144531 11.363281 2.234375 11.617188 2.417969 C 11.875 2.601562 12.050781 2.84375 12.144531 3.140625 L 13.792969 8.210938 C 13.882812 8.492188 13.929688 8.699219 13.929688 8.839844 Z M 13.929688 8.839844 "/>
  </g>
</svg>