<svg xmlns="http://www.w3.org/2000/svg" xlink="http://www.w3.org/1999/xlink" width="20px" height="20px" viewBox="0 0 15 15" version="1.1">
  <g id="surface1">
    <path d="M 13.929688 7.5 C 13.929688 8.371094 13.757812 9.203125 13.417969 9.996094 C 13.078125 10.785156 12.621094 11.46875 12.046875 12.046875 C 11.46875 12.621094 10.785156 13.078125 9.996094 13.417969 C 9.203125 13.757812 8.371094 13.929688 7.5 13.929688 C 6.539062 13.929688 5.628906 13.726562 4.761719 13.320312 C 3.898438 12.917969 3.160156 12.347656 2.554688 11.609375 C 2.515625 11.554688 2.496094 11.492188 2.5 11.421875 C 2.5 11.351562 2.523438 11.292969 2.570312 11.25 L 3.714844 10.09375 C 3.773438 10.042969 3.84375 10.019531 3.925781 10.019531 C 4.015625 10.03125 4.078125 10.0625 4.117188 10.121094 C 4.527344 10.648438 5.023438 11.058594 5.617188 11.351562 C 6.207031 11.640625 6.835938 11.785156 7.5 11.785156 C 8.082031 11.785156 8.632812 11.671875 9.160156 11.445312 C 9.6875 11.21875 10.144531 10.914062 10.53125 10.53125 C 10.914062 10.144531 11.21875 9.6875 11.445312 9.160156 C 11.671875 8.632812 11.785156 8.082031 11.785156 7.5 C 11.785156 6.917969 11.671875 6.367188 11.445312 5.839844 C 11.21875 5.3125 10.914062 4.855469 10.53125 4.46875 C 10.144531 4.085938 9.6875 3.78125 9.160156 3.554688 C 8.632812 3.328125 8.082031 3.214844 7.5 3.214844 C 6.953125 3.214844 6.429688 3.3125 5.925781 3.511719 C 5.425781 3.710938 4.976562 3.992188 4.585938 4.359375 L 5.734375 5.515625 C 5.90625 5.683594 5.945312 5.875 5.851562 6.09375 C 5.757812 6.316406 5.589844 6.429688 5.355469 6.429688 L 1.605469 6.429688 C 1.460938 6.429688 1.335938 6.375 1.230469 6.269531 C 1.125 6.164062 1.070312 6.039062 1.070312 5.894531 L 1.070312 2.144531 C 1.070312 1.910156 1.183594 1.742188 1.40625 1.648438 C 1.625 1.554688 1.816406 1.59375 1.984375 1.765625 L 3.070312 2.847656 C 3.667969 2.28125 4.351562 1.84375 5.117188 1.535156 C 5.886719 1.226562 6.679688 1.070312 7.5 1.070312 C 8.371094 1.070312 9.203125 1.242188 9.996094 1.582031 C 10.785156 1.921875 11.46875 2.378906 12.046875 2.953125 C 12.621094 3.53125 13.078125 4.214844 13.417969 5.003906 C 13.757812 5.796875 13.929688 6.628906 13.929688 7.5 Z M 8.570312 5.089844 L 8.570312 8.839844 C 8.570312 8.917969 8.546875 8.980469 8.496094 9.03125 C 8.445312 9.082031 8.382812 9.105469 8.304688 9.105469 L 5.625 9.105469 C 5.546875 9.105469 5.484375 9.082031 5.433594 9.03125 C 5.382812 8.980469 5.355469 8.917969 5.355469 8.839844 L 5.355469 8.304688 C 5.355469 8.226562 5.382812 8.160156 5.433594 8.109375 C 5.484375 8.0625 5.546875 8.035156 5.625 8.035156 L 7.5 8.035156 L 7.5 5.089844 C 7.5 5.011719 7.523438 4.945312 7.574219 4.898438 C 7.625 4.847656 7.691406 4.820312 7.769531 4.820312 L 8.304688 4.820312 C 8.382812 4.820312 8.445312 4.847656 8.496094 4.898438 C 8.546875 4.945312 8.570312 5.011719 8.570312 5.089844 Z M 8.570312 5.089844 " fill="#FFFFFF"/>
  </g>
</svg>