<svg version="1.1" xmlns="http://www.w3.org/2000/svg" xlink="http://www.w3.org/1999/xlink" x="0px" y="0px" width="15px" height="16.875px" viewBox="0 0 15 16.875" style="enable-background:new 0 0 15 15;" space="preserve">
    <path d="M18.98173828125,2.524658203125c-0.00032958984374999997,-0.26795654296875004,-0.0995361328125,-0.52305908203125,-0.2827880859375,-0.718505859375c-0.12458496093749999,-0.13282470703125002,-0.2827880859375,-0.30058593749999996,-0.45120849609374997,-0.4779052734375c0.36452636718750003,-0.225439453125,0.6427001953125,-0.5764526367187499,0.7310302734374999,-1.0105224609374999C19.01239013671875,0.154248046875,18.8841796875,0,18.7174072265625,0H14.762988281250001c-2.32987060546875,0,-4.21875,1.88887939453125,-4.21875,4.21875H5.2734375c-0.950537109375,0,-1.79296875,0.42780761718750004,-2.373046875,1.0912719726562499V5.2734375c-1.59949951171875,0,-2.900390625,1.30089111328125,-2.900390625,2.900390625v1.845703125c0,0.29135742187499997,0.235986328125,0.52734375,0.52734375,0.52734375h0.52734375c0.29135742187499997,0,0.52734375,-0.235986328125,0.52734375,-0.52734375v-1.845703125c0,-0.4357177734375,0.22642822265624998,-0.80386962890625,0.5530517578125,-1.044140625c-0.0069213867187499995,0.0850341796875,-0.025708007812500003,0.16644287109375,-0.025708007812500003,0.253125c0,0.910986328125,0.39023437499999997,1.7257324218749999,1.0065673828125,2.303173828125l-0.847705078125,2.260986328125a2.1075622558593747,2.1075622558593747,0,0,0,-0.07119140625,1.2521118164062501l0.81903076171875,3.2764526367187496A0.5267504882812499,0.5267504882812499,0,0,0,3.5272705078124997,16.875h2.1739746093749996c0.34310302734375003,0,0.59490966796875,-0.3223388671875,0.5115234375,-0.6552246093749999l-0.86715087890625,-3.4692626953125l0.7857421875,-2.09586181640625L10.546875,11.390625V16.34765625c0,0.29135742187499997,0.235986328125,0.52734375,0.52734375,0.52734375h2.109375c0.29135742187499997,0,0.52734375,-0.235986328125,0.52734375,-0.52734375V10.488208007812501c0.6506103515624999,-0.66544189453125,1.0546875,-1.57379150390625,1.0546875,-2.5780517578124997c0,-0.0072509765625,-0.0023071289062500003,-0.013842773437499999,-0.0026367187499999997,-0.021093749999999998V4.5117553710937495l0.52734375,0.23433837890625l0.6229248046875,1.2425537109375c0.24554443359375,0.49010009765624996,0.82562255859375,0.71026611328125,1.3345092773437501,0.50657958984375l1.0728149414062498,-0.42912597656249996a1.054588623046875,1.054588623046875,0,0,0,0.6631347656250001,-0.9802001953124999l-0.0019775390625,-2.5612426757812496zm-2.109375,0.639404296875c-0.29135742187499997,0,-0.52734375,-0.235986328125,-0.52734375,-0.52734375s0.235986328125,-0.52734375,0.52734375,-0.52734375s0.52734375,0.235986328125,0.52734375,0.52734375s-0.235986328125,0.52734375,-0.52734375,0.52734375z" fill="#FFFFFF"/>
    </svg>