<?xml version="1.0" encoding="UTF-8" standalone="yes"?>
<svg xmlns="http://www.w3.org/2000/svg" xmlns:xlink="http://www.w3.org/1999/xlink" width="20px" height="20px" viewBox="0 0 15 15" version="1.1">
  <g id="surface1">
    <path style=" stroke:none;fill-rule:nonzero;fill:rgb(0%,0%,0%);fill-opacity:1;" d="M 12.855469 8.035156 C 12.855469 7.566406 12.769531 7.054688 12.589844 6.503906 C 12.410156 5.953125 12.230469 5.410156 12.054688 4.878906 C 11.875 4.351562 11.785156 3.882812 11.785156 3.480469 L 11.785156 3.214844 L 6.429688 3.214844 L 6.429688 3.480469 C 6.429688 3.675781 6.394531 3.867188 6.328125 4.046875 C 6.261719 4.226562 6.15625 4.402344 6.019531 4.570312 C 5.878906 4.738281 5.75 4.878906 5.632812 4.988281 C 5.515625 5.101562 5.367188 5.238281 5.179688 5.398438 C 5.132812 5.445312 5.09375 5.476562 5.0625 5.5 C 4.613281 5.902344 4.207031 6.214844 3.851562 6.4375 C 3.726562 6.515625 3.539062 6.621094 3.28125 6.753906 C 3.265625 6.761719 3.203125 6.789062 3.09375 6.84375 C 2.984375 6.894531 2.882812 6.949219 2.792969 6.996094 C 2.699219 7.046875 2.601562 7.105469 2.496094 7.164062 C 2.386719 7.226562 2.304688 7.285156 2.238281 7.34375 C 2.175781 7.402344 2.144531 7.457031 2.144531 7.5 C 2.144531 7.894531 2.226562 8.21875 2.398438 8.46875 C 2.566406 8.714844 2.839844 8.839844 3.214844 8.839844 C 3.453125 8.839844 3.691406 8.796875 3.921875 8.714844 C 4.152344 8.628906 4.34375 8.539062 4.492188 8.4375 C 4.636719 8.335938 4.792969 8.246094 4.953125 8.160156 C 5.109375 8.078125 5.246094 8.035156 5.355469 8.035156 L 5.355469 12.855469 C 5.355469 13.136719 5.464844 13.382812 5.679688 13.601562 C 5.894531 13.820312 6.144531 13.929688 6.429688 13.929688 C 6.71875 13.929688 6.96875 13.824219 7.183594 13.609375 C 7.394531 13.398438 7.5 13.148438 7.5 12.855469 L 7.5 10.085938 C 7.757812 10.28125 8.042969 10.378906 8.363281 10.378906 C 8.746094 10.378906 9.078125 10.230469 9.359375 9.9375 C 9.535156 10.035156 9.730469 10.085938 9.9375 10.085938 C 10.140625 10.085938 10.347656 10.039062 10.550781 9.941406 C 10.753906 9.84375 10.902344 9.710938 10.992188 9.542969 C 11.125 9.566406 11.28125 9.574219 11.460938 9.574219 C 11.933594 9.574219 12.285156 9.441406 12.515625 9.171875 C 12.742188 8.898438 12.855469 8.519531 12.855469 8.035156 Z M 11.785156 1.605469 C 11.785156 1.460938 11.734375 1.335938 11.625 1.230469 C 11.519531 1.125 11.394531 1.070312 11.25 1.070312 C 11.105469 1.070312 10.980469 1.125 10.875 1.230469 C 10.765625 1.335938 10.714844 1.460938 10.714844 1.605469 C 10.714844 1.753906 10.765625 1.878906 10.875 1.984375 C 10.980469 2.089844 11.105469 2.144531 11.25 2.144531 C 11.394531 2.144531 11.519531 2.089844 11.625 1.984375 C 11.734375 1.878906 11.785156 1.753906 11.785156 1.605469 Z M 13.929688 8.003906 C 13.929688 8.792969 13.710938 9.4375 13.28125 9.925781 C 12.847656 10.417969 12.242188 10.660156 11.460938 10.65625 L 11.417969 10.648438 C 10.992188 10.988281 10.496094 11.15625 9.925781 11.15625 C 9.804688 11.15625 9.683594 11.148438 9.566406 11.132812 C 9.265625 11.300781 8.933594 11.402344 8.570312 11.441406 L 8.570312 12.855469 C 8.570312 13.441406 8.359375 13.945312 7.933594 14.367188 C 7.511719 14.789062 7.007812 15 6.421875 15 C 5.84375 15 5.347656 14.789062 4.921875 14.363281 C 4.496094 13.941406 4.285156 13.4375 4.285156 12.855469 L 4.285156 9.726562 C 3.984375 9.847656 3.628906 9.910156 3.214844 9.910156 C 2.539062 9.910156 2.011719 9.683594 1.636719 9.226562 C 1.257812 8.773438 1.070312 8.199219 1.070312 7.5 C 1.070312 7.289062 1.121094 7.09375 1.21875 6.917969 C 1.316406 6.742188 1.453125 6.589844 1.632812 6.457031 C 1.8125 6.328125 1.988281 6.214844 2.160156 6.117188 C 2.332031 6.023438 2.535156 5.921875 2.761719 5.808594 C 2.992188 5.699219 3.164062 5.605469 3.28125 5.53125 C 3.589844 5.335938 3.949219 5.058594 4.359375 4.695312 C 4.378906 4.683594 4.425781 4.644531 4.503906 4.578125 C 4.582031 4.511719 4.640625 4.457031 4.683594 4.417969 C 4.726562 4.378906 4.785156 4.324219 4.863281 4.25 C 4.941406 4.171875 5.003906 4.105469 5.050781 4.046875 C 5.097656 3.988281 5.148438 3.925781 5.203125 3.859375 C 5.253906 3.792969 5.292969 3.726562 5.320312 3.664062 C 5.34375 3.597656 5.355469 3.539062 5.355469 3.480469 L 5.355469 1.070312 C 5.355469 0.777344 5.460938 0.523438 5.671875 0.3125 C 5.878906 0.105469 6.132812 0 6.429688 0 L 11.785156 0 C 12.082031 0 12.335938 0.105469 12.542969 0.3125 C 12.753906 0.523438 12.855469 0.777344 12.855469 1.070312 L 12.855469 3.480469 C 12.855469 3.8125 13.023438 4.433594 13.351562 5.347656 C 13.734375 6.410156 13.929688 7.292969 13.929688 8.003906 Z M 13.929688 8.003906 "/>
  </g>
</svg>