<svg version="1.1" xmlns="http://www.w3.org/2000/svg" xlink="http://www.w3.org/1999/xlink" x="0px" y="0px" width="15px" height="15px" viewBox="0 0 15 15" style="enable-background:new 0 0 15 15;" space="preserve">
    <path d="m7.2066847,6.4241269c0.1759705,0.1860259,0.462551,0.1860259,0.6410353,0L10.585318,3.5532941C11.379699,2.7186912,11.33445,1.3360659,10.444542,0.56682356C9.6702716,-0.10437824,8.5164075,0.01628736,7.8074982,0.76039106L7.5259454,1.0545132L7.2469065,0.76290496C6.5379968,0.01628736,5.3841332,-0.10437824,4.6098631,0.56682356C3.7224691,1.3360659,3.6747057,2.7186912,4.4690867,3.5532941Zm7.2902063,1.9507585c-0.296636,-0.268983,-0.759187,-0.251386,-1.070907,0l-2.32281,1.8577456c-0.284067,0.228761,-0.638521,0.351941,-1.005545,0.351941H7.1237272c-0.2212201,0,-0.4022183,-0.180999,-0.4022183,-0.402219c0,-0.2212196,0.1809982,-0.4022176,0.4022183,-0.4022176h1.9683554c0.3997045,0,0.7717564,-0.274011,0.8371166,-0.668688c0.082958,-0.502773,-0.304177,-0.940185,-0.7943804,-0.940185H5.1126359c-0.6787433,0,-1.3348618,0.23379,-1.8627732,0.661146L2.0809159,9.7801354H0.6882352c-0.22122004,0,-0.40221825,0.180998,-0.40221825,0.4022176v2.41331c0,0.22122,0.18099821,0.402218,0.40221825,0.402218h8.9694667c0.3645111,0,0.7189651,-0.123179,1.0055461,-0.351941L14.46421,9.6041644c0.382108,-0.304177,0.412274,-0.887393,0.03268,-1.229279z" fill="#FFFFFF"/>
    </svg>