<?xml version="1.0" encoding="UTF-8" standalone="yes"?>
<svg xmlns="http://www.w3.org/2000/svg" xmlns:xlink="http://www.w3.org/1999/xlink" width="20px" height="20px" viewBox="0 0 15 15" version="1.1">
  <g id="surface1">
    <path style=" stroke:none;fill-rule:nonzero;fill:rgb(0%,0%,0%);fill-opacity:1;" d="M 12.855469 1.070312 C 12.855469 2.527344 12.558594 3.816406 11.964844 4.933594 C 11.371094 6.054688 10.628906 6.910156 9.734375 7.5 C 10.628906 8.089844 11.371094 8.945312 11.964844 10.066406 C 12.558594 11.183594 12.855469 12.472656 12.855469 13.929688 L 13.660156 13.929688 C 13.738281 13.929688 13.804688 13.953125 13.851562 14.003906 C 13.902344 14.054688 13.929688 14.117188 13.929688 14.195312 L 13.929688 14.730469 C 13.929688 14.808594 13.902344 14.875 13.851562 14.925781 C 13.804688 14.976562 13.738281 15 13.660156 15 L 1.339844 15 C 1.261719 15 1.195312 14.976562 1.148438 14.925781 C 1.097656 14.875 1.070312 14.808594 1.070312 14.730469 L 1.070312 14.195312 C 1.070312 14.117188 1.097656 14.054688 1.148438 14.003906 C 1.195312 13.953125 1.261719 13.929688 1.339844 13.929688 L 2.144531 13.929688 C 2.144531 12.472656 2.441406 11.183594 3.035156 10.066406 C 3.628906 8.945312 4.371094 8.089844 5.265625 7.5 C 4.371094 6.910156 3.628906 6.054688 3.035156 4.933594 C 2.441406 3.816406 2.144531 2.527344 2.144531 1.070312 L 1.339844 1.070312 C 1.261719 1.070312 1.195312 1.046875 1.148438 0.996094 C 1.097656 0.945312 1.070312 0.882812 1.070312 0.804688 L 1.070312 0.269531 C 1.070312 0.191406 1.097656 0.125 1.148438 0.0742188 C 1.195312 0.0234375 1.261719 0 1.339844 0 L 13.660156 0 C 13.738281 0 13.804688 0.0234375 13.851562 0.0742188 C 13.902344 0.125 13.929688 0.191406 13.929688 0.269531 L 13.929688 0.804688 C 13.929688 0.882812 13.902344 0.945312 13.851562 0.996094 C 13.804688 1.046875 13.738281 1.070312 13.660156 1.070312 Z M 8.386719 6.996094 C 8.816406 6.835938 9.234375 6.578125 9.632812 6.222656 C 10.035156 5.867188 10.398438 5.445312 10.71875 4.945312 C 11.039062 4.449219 11.296875 3.863281 11.492188 3.1875 C 11.6875 2.515625 11.785156 1.808594 11.785156 1.070312 L 3.214844 1.070312 C 3.214844 1.808594 3.3125 2.515625 3.507812 3.1875 C 3.703125 3.863281 3.960938 4.449219 4.28125 4.945312 C 4.601562 5.445312 4.964844 5.867188 5.367188 6.222656 C 5.765625 6.578125 6.183594 6.835938 6.613281 6.996094 C 6.71875 7.035156 6.804688 7.101562 6.867188 7.195312 C 6.933594 7.285156 6.964844 7.386719 6.964844 7.5 C 6.964844 7.613281 6.933594 7.714844 6.867188 7.804688 C 6.804688 7.898438 6.71875 7.964844 6.613281 8.003906 C 6.183594 8.164062 5.765625 8.421875 5.367188 8.777344 C 4.964844 9.128906 4.601562 9.554688 4.28125 10.054688 C 3.960938 10.550781 3.703125 11.136719 3.507812 11.8125 C 3.3125 12.484375 3.214844 13.191406 3.214844 13.929688 L 11.785156 13.929688 C 11.785156 13.191406 11.6875 12.484375 11.492188 11.8125 C 11.296875 11.136719 11.039062 10.550781 10.71875 10.054688 C 10.398438 9.554688 10.035156 9.128906 9.632812 8.777344 C 9.234375 8.421875 8.816406 8.164062 8.386719 8.003906 C 8.28125 7.964844 8.195312 7.898438 8.132812 7.804688 C 8.066406 7.714844 8.035156 7.613281 8.035156 7.5 C 8.035156 7.386719 8.066406 7.285156 8.132812 7.195312 C 8.195312 7.101562 8.28125 7.035156 8.386719 6.996094 Z M 8.386719 6.996094 "/>
  </g>
</svg>