<?xml version="1.0" encoding="UTF-8" standalone="yes"?>
<svg xmlns="http://www.w3.org/2000/svg" xmlns:xlink="http://www.w3.org/1999/xlink" width="20px" height="20px" viewBox="0 0 15 15" version="1.1">
  <g id="surface1">
    <path style=" stroke:none;fill-rule:nonzero;fill:rgb(0%,0%,0%);fill-opacity:1;" d="M 5.355469 1.070312 C 5.0625 1.070312 4.808594 1.175781 4.601562 1.386719 C 4.390625 1.59375 4.285156 1.847656 4.285156 2.144531 L 4.285156 9.644531 L 3.023438 7.953125 C 2.792969 7.652344 2.496094 7.5 2.125 7.5 C 1.835938 7.5 1.585938 7.605469 1.382812 7.816406 C 1.175781 8.03125 1.070312 8.28125 1.070312 8.570312 C 1.070312 8.8125 1.144531 9.027344 1.289062 9.214844 L 4.503906 13.5 C 4.714844 13.785156 5 13.929688 5.355469 13.929688 L 11.367188 13.929688 C 11.488281 13.929688 11.601562 13.890625 11.699219 13.816406 C 11.796875 13.742188 11.859375 13.644531 11.886719 13.527344 L 12.65625 10.445312 C 12.789062 9.910156 12.855469 9.371094 12.855469 8.824219 L 12.855469 7.007812 C 12.855469 6.777344 12.777344 6.578125 12.621094 6.410156 C 12.464844 6.246094 12.277344 6.160156 12.054688 6.160156 C 11.832031 6.160156 11.640625 6.238281 11.484375 6.394531 C 11.328125 6.550781 11.25 6.742188 11.25 6.964844 L 10.980469 6.964844 L 10.980469 6.453125 C 10.980469 6.1875 10.894531 5.957031 10.714844 5.773438 C 10.535156 5.585938 10.3125 5.492188 10.042969 5.492188 C 9.789062 5.492188 9.566406 5.582031 9.382812 5.765625 C 9.199219 5.953125 9.105469 6.171875 9.105469 6.429688 L 9.105469 6.964844 L 8.839844 6.964844 L 8.839844 6.210938 C 8.839844 5.902344 8.734375 5.640625 8.53125 5.421875 C 8.324219 5.199219 8.070312 5.089844 7.769531 5.089844 C 7.472656 5.089844 7.21875 5.195312 7.011719 5.402344 C 6.800781 5.613281 6.695312 5.863281 6.695312 6.160156 L 6.695312 6.964844 L 6.429688 6.964844 L 6.429688 2.191406 C 6.429688 1.886719 6.324219 1.621094 6.117188 1.402344 C 5.914062 1.179688 5.660156 1.070312 5.355469 1.070312 Z M 5.355469 0 C 5.953125 0 6.460938 0.214844 6.875 0.648438 C 7.292969 1.082031 7.5 1.597656 7.5 2.191406 L 7.5 4.035156 C 7.621094 4.023438 7.710938 4.019531 7.769531 4.019531 C 8.320312 4.019531 8.804688 4.210938 9.214844 4.59375 C 9.476562 4.476562 9.753906 4.417969 10.042969 4.417969 C 10.675781 4.417969 11.1875 4.664062 11.585938 5.148438 C 11.734375 5.109375 11.890625 5.089844 12.054688 5.089844 C 12.578125 5.089844 13.023438 5.277344 13.382812 5.65625 C 13.746094 6.03125 13.929688 6.480469 13.929688 7.007812 L 13.929688 8.824219 C 13.929688 9.46875 13.851562 10.097656 13.695312 10.707031 L 12.925781 13.785156 C 12.835938 14.144531 12.644531 14.433594 12.355469 14.660156 C 12.066406 14.886719 11.734375 15 11.367188 15 L 5.355469 15 C 5.023438 15 4.703125 14.921875 4.398438 14.769531 C 4.09375 14.617188 3.84375 14.410156 3.640625 14.144531 L 0.425781 9.859375 C 0.140625 9.480469 0 9.050781 0 8.570312 C 0 7.984375 0.207031 7.480469 0.625 7.0625 C 1.039062 6.640625 1.539062 6.429688 2.125 6.429688 C 2.523438 6.429688 2.886719 6.527344 3.214844 6.722656 L 3.214844 2.144531 C 3.214844 1.550781 3.421875 1.046875 3.84375 0.628906 C 4.261719 0.210938 4.765625 0 5.355469 0 Z M 6.429688 11.785156 L 6.429688 8.570312 L 6.160156 8.570312 L 6.160156 11.785156 Z M 8.570312 11.785156 L 8.570312 8.570312 L 8.304688 8.570312 L 8.304688 11.785156 Z M 10.714844 11.785156 L 10.714844 8.570312 L 10.445312 8.570312 L 10.445312 11.785156 Z M 10.714844 11.785156 "/>
  </g>
</svg>