<svg xmlns="http://www.w3.org/2000/svg" xlink="http://www.w3.org/1999/xlink" width="20px" height="20px" viewBox="0 0 15 15" version="1.1">
  <g id="surface1">
    <path d="M 8.296875 8.570312 L 8.832031 6.429688 L 6.703125 6.429688 L 6.167969 8.570312 Z M 14.722656 4.351562 L 14.253906 6.226562 C 14.214844 6.363281 14.128906 6.429688 13.996094 6.429688 L 11.257812 6.429688 L 10.722656 8.570312 L 13.324219 8.570312 C 13.410156 8.570312 13.480469 8.605469 13.535156 8.671875 C 13.589844 8.75 13.609375 8.828125 13.585938 8.90625 L 13.117188 10.78125 C 13.089844 10.914062 13.003906 10.980469 12.855469 10.980469 L 10.121094 10.980469 L 9.441406 13.726562 C 9.402344 13.863281 9.316406 13.929688 9.183594 13.929688 L 7.308594 13.929688 C 7.21875 13.929688 7.144531 13.894531 7.089844 13.828125 C 7.039062 13.761719 7.023438 13.683594 7.039062 13.59375 L 7.691406 10.980469 L 5.566406 10.980469 L 4.886719 13.726562 C 4.847656 13.863281 4.761719 13.929688 4.628906 13.929688 L 2.746094 13.929688 C 2.660156 13.929688 2.59375 13.894531 2.535156 13.828125 C 2.484375 13.761719 2.46875 13.683594 2.484375 13.59375 L 3.140625 10.980469 L 0.535156 10.980469 C 0.453125 10.980469 0.382812 10.949219 0.328125 10.882812 C 0.277344 10.816406 0.257812 10.738281 0.277344 10.648438 L 0.746094 8.773438 C 0.785156 8.636719 0.871094 8.570312 1.003906 8.570312 L 3.742188 8.570312 L 4.277344 6.429688 L 1.675781 6.429688 C 1.589844 6.429688 1.519531 6.394531 1.464844 6.328125 C 1.410156 6.25 1.390625 6.171875 1.414062 6.09375 L 1.882812 4.21875 C 1.910156 4.085938 1.996094 4.019531 2.144531 4.019531 L 4.878906 4.019531 L 5.558594 1.273438 C 5.597656 1.136719 5.6875 1.070312 5.824219 1.070312 L 7.699219 1.070312 C 7.785156 1.070312 7.855469 1.105469 7.910156 1.171875 C 7.960938 1.238281 7.976562 1.316406 7.960938 1.40625 L 7.308594 4.019531 L 9.433594 4.019531 L 10.113281 1.273438 C 10.152344 1.136719 10.238281 1.070312 10.378906 1.070312 L 12.253906 1.070312 C 12.339844 1.070312 12.40625 1.105469 12.464844 1.171875 C 12.515625 1.238281 12.53125 1.316406 12.515625 1.40625 L 11.859375 4.019531 L 14.464844 4.019531 C 14.546875 4.019531 14.617188 4.050781 14.671875 4.117188 C 14.722656 4.183594 14.742188 4.261719 14.722656 4.351562 Z M 14.722656 4.351562 " fill="#FFFFFF"/>
  </g>
</svg>