<?xml version="1.0" encoding="UTF-8" standalone="yes"?>
<svg xmlns="http://www.w3.org/2000/svg" xmlns:xlink="http://www.w3.org/1999/xlink" width="20px" height="20px" viewBox="0 0 15 15" version="1.1">
  <g id="surface1">
    <path style=" stroke:none;fill-rule:nonzero;fill:rgb(0%,0%,0%);fill-opacity:1;" d="M 7.84375 8.402344 L 10.070312 4.226562 L 9.132812 4.226562 L 7.816406 6.839844 C 7.683594 7.105469 7.5625 7.363281 7.449219 7.609375 L 7.097656 6.839844 L 5.800781 4.226562 L 4.796875 4.226562 L 6.996094 8.355469 L 6.996094 11.066406 L 7.84375 11.066406 Z M 13.929688 3.480469 L 13.929688 11.519531 C 13.929688 12.183594 13.691406 12.75 13.222656 13.222656 C 12.75 13.691406 12.183594 13.929688 11.519531 13.929688 L 3.480469 13.929688 C 2.816406 13.929688 2.25 13.691406 1.777344 13.222656 C 1.308594 12.75 1.070312 12.183594 1.070312 11.519531 L 1.070312 3.480469 C 1.070312 2.816406 1.308594 2.25 1.777344 1.777344 C 2.25 1.308594 2.816406 1.070312 3.480469 1.070312 L 11.519531 1.070312 C 12.183594 1.070312 12.75 1.308594 13.222656 1.777344 C 13.691406 2.25 13.929688 2.816406 13.929688 3.480469 Z M 13.929688 3.480469 "/>
  </g>
</svg>