<svg version="1.1" xmlns="http://www.w3.org/2000/svg" xlink="http://www.w3.org/1999/xlink" x="0px" y="0px" width="15px" height="15px" viewBox="0 0 15 15" style="enable-background:new 0 0 15 15;" space="preserve">
    <path d="M8.980469,13.929688L7.5,13.929688C6.589844,13.929688,5.960938,13.535156,5.609375,12.75C5.480469,12.476562,5.414062,12.191406,5.414062,11.894531L5.414062,11.851562C5.070312,11.683594,4.792969,11.4375,4.589844,11.113281C4.386719,10.785156,4.285156,10.429688,4.285156,10.042969C4.285156,9.832031,4.300781,9.699219,4.328125,9.644531L2.144531,9.644531C1.550781,9.644531,1.046875,9.433594,0.628906,9.015625C0.210938,8.597656,0,8.089844,0,7.5C0,6.910156,0.210938,6.402344,0.628906,5.984375C1.046875,5.566406,1.550781,5.355469,2.144531,5.355469L3.089844,5.355469L2.71875,5.214844C2.308594,5.058594,1.972656,4.796875,1.71875,4.433594C1.464844,4.066406,1.339844,3.660156,1.339844,3.214844C1.339844,2.621094,1.546875,2.117188,1.96875,1.699219C2.386719,1.28125,2.890625,1.070312,3.480469,1.070312C3.738281,1.070312,3.992188,1.117188,4.242188,1.214844L9.5,3.214844L12.855469,3.214844C13.449219,3.214844,13.953125,3.421875,14.371094,3.84375C14.789062,4.261719,15,4.765625,15,5.355469L15,10.949219C15,11.441406,14.847656,11.878906,14.546875,12.265625C14.246094,12.65625,13.855469,12.90625,13.375,13.023438L10.539062,13.734375C10.023438,13.863281,9.507812,13.929688,8.980469,13.929688ZM8.570312,7.976562L7.273438,8.570312L5.910156,9.191406C5.742188,9.269531,5.609375,9.382812,5.507812,9.539062C5.40625,9.691406,5.355469,9.859375,5.355469,10.042969C5.355469,10.300781,5.449219,10.523438,5.632812,10.707031C5.816406,10.890625,6.039062,10.980469,6.292969,10.980469C6.441406,10.980469,6.566406,10.953125,6.679688,10.898438L9.507812,9.609375C9.234375,9.554688,9.011719,9.414062,8.835938,9.191406C8.660156,8.96875,8.570312,8.714844,8.570312,8.4375ZM11.25,10.582031C11.25,10.324219,11.15625,10.101562,10.972656,9.917969C10.789062,9.734375,10.570312,9.644531,10.3125,9.644531C10.167969,9.644531,10.039062,9.671875,9.925781,9.726562L7.5,10.832031C7.34375,10.902344,7.242188,10.953125,7.191406,10.972656C7.140625,10.996094,7.054688,11.042969,6.933594,11.117188C6.816406,11.1875,6.734375,11.253906,6.6875,11.3125C6.644531,11.371094,6.597656,11.453125,6.554688,11.554688C6.507812,11.660156,6.488281,11.773438,6.488281,11.894531C6.488281,12.171875,6.574219,12.402344,6.75,12.582031C6.925781,12.757812,7.152344,12.847656,7.433594,12.847656C7.542969,12.847656,7.652344,12.824219,7.75,12.773438L10.699219,11.433594C10.863281,11.355469,11,11.238281,11.097656,11.085938C11.199219,10.933594,11.25,10.765625,11.25,10.582031ZM9.308594,4.285156L3.867188,2.210938C3.734375,2.164062,3.605469,2.144531,3.480469,2.144531C3.1875,2.144531,2.933594,2.246094,2.726562,2.457031C2.515625,2.664062,2.410156,2.917969,2.410156,3.214844C2.410156,3.4375,2.472656,3.640625,2.597656,3.824219C2.726562,4.007812,2.890625,4.140625,3.097656,4.21875L7.5,5.894531L7.5,6.429688L2.144531,6.429688C1.847656,6.429688,1.59375,6.53125,1.386719,6.742188C1.175781,6.953125,1.070312,7.203125,1.070312,7.5C1.070312,7.796875,1.175781,8.046875,1.386719,8.257812C1.59375,8.46875,1.847656,8.570312,2.144531,8.570312L6.621094,8.570312L8.570312,7.683594L8.570312,6.027344C8.570312,5.675781,8.699219,5.378906,8.957031,5.140625L9.886719,4.285156ZM8.980469,12.855469C9.4375,12.855469,9.871094,12.804688,10.277344,12.699219L13.117188,11.988281C13.355469,11.925781,13.550781,11.796875,13.703125,11.605469C13.851562,11.414062,13.929688,11.195312,13.929688,10.949219L13.929688,5.355469C13.929688,5.0625,13.824219,4.808594,13.613281,4.601562C13.40625,4.390625,13.152344,4.285156,12.855469,4.285156L10.277344,4.285156L9.140625,5.339844C8.941406,5.523438,8.839844,5.753906,8.839844,6.027344L8.839844,8.503906C8.839844,8.761719,8.929688,8.976562,9.117188,9.148438C9.300781,9.320312,9.519531,9.410156,9.777344,9.410156C10.035156,9.410156,10.253906,9.3125,10.4375,9.117188C10.621094,8.921875,10.714844,8.695312,10.714844,8.4375L10.714844,6.695312L10.980469,6.695312L10.980469,8.4375C10.980469,8.828125,10.824219,9.144531,10.503906,9.390625C10.796875,9.4375,11.035156,9.570312,11.230469,9.796875C11.421875,10.023438,11.519531,10.285156,11.519531,10.582031C11.519531,10.816406,11.453125,11.03125,11.324219,11.234375C11.195312,11.433594,11.027344,11.582031,10.816406,11.675781L8.21875,12.855469ZM8.980469,12.855469" fill="#FFFFFF"/>
    </svg>