<?xml version="1.0" encoding="UTF-8" standalone="yes"?>
<svg xmlns="http://www.w3.org/2000/svg" xmlns:xlink="http://www.w3.org/1999/xlink" width="20px" height="20px" viewBox="0 0 15 15" version="1.1">
  <g id="surface1">
    <path style=" stroke:none;fill-rule:nonzero;fill:rgb(0%,0%,0%);fill-opacity:1;" d="M 12.320312 8.304688 L 12.320312 12.320312 C 12.320312 12.464844 12.269531 12.59375 12.164062 12.699219 C 12.054688 12.804688 11.929688 12.855469 11.785156 12.855469 L 8.570312 12.855469 L 8.570312 9.644531 L 6.429688 9.644531 L 6.429688 12.855469 L 3.214844 12.855469 C 3.070312 12.855469 2.945312 12.804688 2.835938 12.699219 C 2.730469 12.59375 2.679688 12.464844 2.679688 12.320312 L 2.679688 8.304688 C 2.679688 8.296875 2.679688 8.289062 2.683594 8.277344 C 2.683594 8.265625 2.6875 8.257812 2.6875 8.253906 L 7.5 4.285156 L 12.3125 8.253906 C 12.320312 8.265625 12.320312 8.28125 12.320312 8.304688 Z M 14.1875 7.726562 L 13.667969 8.34375 C 13.625 8.394531 13.566406 8.425781 13.492188 8.4375 L 13.46875 8.4375 C 13.394531 8.4375 13.335938 8.417969 13.292969 8.378906 L 7.5 3.550781 L 1.707031 8.378906 C 1.640625 8.421875 1.574219 8.441406 1.507812 8.4375 C 1.433594 8.425781 1.375 8.394531 1.332031 8.34375 L 0.8125 7.726562 C 0.765625 7.671875 0.746094 7.605469 0.753906 7.53125 C 0.757812 7.453125 0.789062 7.394531 0.84375 7.347656 L 6.863281 2.335938 C 7.042969 2.191406 7.253906 2.117188 7.5 2.117188 C 7.746094 2.117188 7.957031 2.191406 8.136719 2.335938 L 10.179688 4.042969 L 10.179688 2.410156 C 10.179688 2.332031 10.203125 2.269531 10.253906 2.21875 C 10.304688 2.167969 10.367188 2.144531 10.445312 2.144531 L 12.054688 2.144531 C 12.132812 2.144531 12.195312 2.167969 12.246094 2.21875 C 12.296875 2.269531 12.320312 2.332031 12.320312 2.410156 L 12.320312 5.824219 L 14.15625 7.347656 C 14.210938 7.394531 14.242188 7.453125 14.246094 7.53125 C 14.253906 7.605469 14.234375 7.671875 14.1875 7.726562 Z M 14.1875 7.726562 "/>
  </g>
</svg>