<svg xmlns="http://www.w3.org/2000/svg" xlink="http://www.w3.org/1999/xlink" width="20px" height="20px" viewBox="0 0 15 15" version="1.1">
  <g id="surface1">
    <path d="M 7.5 13.929688 C 7.355469 13.929688 7.230469 13.878906 7.132812 13.777344 L 1.910156 8.738281 C 1.851562 8.695312 1.777344 8.621094 1.679688 8.519531 C 1.582031 8.421875 1.425781 8.238281 1.214844 7.972656 C 1 7.707031 0.8125 7.4375 0.644531 7.15625 C 0.476562 6.878906 0.328125 6.539062 0.195312 6.144531 C 0.0664062 5.746094 0 5.363281 0 4.988281 C 0 3.761719 0.355469 2.800781 1.0625 2.109375 C 1.773438 1.417969 2.75 1.070312 4 1.070312 C 4.347656 1.070312 4.699219 1.132812 5.058594 1.25 C 5.421875 1.371094 5.753906 1.53125 6.0625 1.738281 C 6.375 1.941406 6.640625 2.132812 6.863281 2.308594 C 7.085938 2.488281 7.300781 2.679688 7.5 2.878906 C 7.699219 2.679688 7.914062 2.488281 8.136719 2.308594 C 8.359375 2.132812 8.625 1.941406 8.9375 1.738281 C 9.246094 1.53125 9.578125 1.371094 9.941406 1.25 C 10.300781 1.132812 10.652344 1.070312 11 1.070312 C 12.25 1.070312 13.226562 1.417969 13.9375 2.109375 C 14.644531 2.800781 15 3.761719 15 4.988281 C 15 6.222656 14.359375 7.476562 13.082031 8.753906 L 7.867188 13.777344 C 7.769531 13.878906 7.644531 13.929688 7.5 13.929688 Z M 7.5 13.929688 " fill="#FFFFFF"/>
  </g>
</svg>