<svg xmlns="http://www.w3.org/2000/svg" xlink="http://www.w3.org/1999/xlink" width="20px" height="20px" viewBox="0 0 15 15" version="1.1">
  <g id="surface1">
    <path d="M 7.367188 1.070312 C 7.109375 1.070312 6.890625 1.164062 6.703125 1.347656 C 6.519531 1.53125 6.429688 1.753906 6.429688 2.007812 L 6.429688 7.5 L 6.160156 7.5 L 6.160156 3.082031 C 6.160156 2.824219 6.070312 2.601562 5.882812 2.417969 C 5.699219 2.234375 5.480469 2.144531 5.222656 2.144531 C 4.964844 2.144531 4.746094 2.234375 4.5625 2.417969 C 4.378906 2.601562 4.285156 2.824219 4.285156 3.082031 L 4.285156 9.644531 L 2.996094 7.925781 C 2.785156 7.640625 2.5 7.5 2.144531 7.5 C 1.847656 7.5 1.59375 7.605469 1.386719 7.8125 C 1.175781 8.023438 1.070312 8.277344 1.070312 8.570312 C 1.070312 8.8125 1.144531 9.027344 1.289062 9.214844 L 4.503906 13.5 C 4.714844 13.785156 5 13.929688 5.355469 13.929688 L 11.117188 13.929688 C 11.304688 13.929688 11.476562 13.867188 11.625 13.746094 C 11.777344 13.621094 11.871094 13.464844 11.910156 13.277344 L 12.546875 9.886719 C 12.574219 9.707031 12.589844 9.542969 12.589844 9.390625 L 12.589844 5.222656 C 12.589844 4.964844 12.496094 4.746094 12.3125 4.5625 C 12.128906 4.378906 11.910156 4.285156 11.652344 4.285156 C 11.394531 4.285156 11.175781 4.378906 10.992188 4.5625 C 10.804688 4.746094 10.714844 4.964844 10.714844 5.222656 L 10.714844 7.5 L 10.445312 7.5 L 10.445312 3.082031 C 10.445312 2.824219 10.355469 2.601562 10.171875 2.417969 C 9.984375 2.234375 9.765625 2.144531 9.507812 2.144531 C 9.253906 2.144531 9.03125 2.234375 8.847656 2.417969 C 8.664062 2.601562 8.570312 2.824219 8.570312 3.082031 L 8.570312 7.5 L 8.304688 7.5 L 8.304688 2.007812 C 8.304688 1.753906 8.210938 1.53125 8.027344 1.347656 C 7.84375 1.164062 7.621094 1.070312 7.367188 1.070312 Z M 7.367188 0 C 7.746094 0 8.09375 0.0976562 8.417969 0.296875 C 8.738281 0.496094 8.984375 0.765625 9.15625 1.105469 C 9.261719 1.082031 9.378906 1.070312 9.507812 1.070312 C 10.0625 1.070312 10.535156 1.269531 10.929688 1.660156 C 11.320312 2.054688 11.519531 2.527344 11.519531 3.082031 L 11.519531 3.222656 C 12.105469 3.1875 12.605469 3.367188 13.027344 3.757812 C 13.449219 4.148438 13.660156 4.636719 13.660156 5.222656 L 13.660156 9.390625 C 13.660156 9.613281 13.636719 9.847656 13.59375 10.085938 L 12.957031 13.46875 C 12.878906 13.910156 12.664062 14.273438 12.316406 14.566406 C 11.96875 14.855469 11.566406 15 11.117188 15 L 5.355469 15 C 5.023438 15 4.703125 14.921875 4.398438 14.769531 C 4.09375 14.617188 3.84375 14.410156 3.640625 14.144531 L 0.425781 9.859375 C 0.140625 9.480469 0 9.050781 0 8.570312 C 0 7.980469 0.210938 7.476562 0.628906 7.054688 C 1.046875 6.636719 1.550781 6.429688 2.144531 6.429688 C 2.578125 6.429688 2.933594 6.523438 3.214844 6.714844 L 3.214844 3.082031 C 3.214844 2.527344 3.410156 2.054688 3.804688 1.660156 C 4.199219 1.269531 4.671875 1.070312 5.222656 1.070312 C 5.351562 1.070312 5.46875 1.082031 5.574219 1.105469 C 5.746094 0.765625 5.996094 0.496094 6.316406 0.296875 C 6.636719 0.0976562 6.988281 0 7.367188 0 Z M 7.367188 0 " fill="#FFFFFF"/>
  </g>
</svg>