<svg xmlns="http://www.w3.org/2000/svg" xlink="http://www.w3.org/1999/xlink" width="20px" height="20px" viewBox="0 0 15 15" version="1.1">
  <g id="surface1">
    <path d="M 2.144531 11.25 C 2.144531 11.105469 2.089844 10.980469 1.984375 10.875 C 1.878906 10.765625 1.753906 10.714844 1.605469 10.714844 C 1.460938 10.714844 1.335938 10.765625 1.230469 10.875 C 1.125 10.980469 1.070312 11.105469 1.070312 11.25 C 1.070312 11.394531 1.125 11.519531 1.230469 11.625 C 1.335938 11.734375 1.460938 11.785156 1.605469 11.785156 C 1.753906 11.785156 1.878906 11.734375 1.984375 11.625 C 2.089844 11.519531 2.144531 11.394531 2.144531 11.25 Z M 13.929688 6.429688 C 13.929688 6.144531 13.820312 5.894531 13.601562 5.679688 C 13.382812 5.464844 13.136719 5.355469 12.855469 5.355469 L 8.035156 5.355469 C 8.035156 5.246094 8.078125 5.109375 8.160156 4.953125 C 8.246094 4.792969 8.335938 4.636719 8.4375 4.492188 C 8.539062 4.34375 8.628906 4.152344 8.714844 3.921875 C 8.796875 3.691406 8.839844 3.453125 8.839844 3.214844 C 8.839844 2.839844 8.714844 2.566406 8.46875 2.398438 C 8.21875 2.226562 7.894531 2.144531 7.5 2.144531 C 7.367188 2.144531 7.113281 2.53125 6.746094 3.304688 C 6.613281 3.550781 6.507812 3.734375 6.4375 3.851562 C 6.214844 4.207031 5.902344 4.613281 5.5 5.0625 C 5.101562 5.515625 4.820312 5.8125 4.652344 5.953125 C 4.269531 6.269531 3.878906 6.429688 3.480469 6.429688 L 3.214844 6.429688 L 3.214844 11.785156 L 3.480469 11.785156 C 3.882812 11.785156 4.351562 11.875 4.878906 12.054688 C 5.410156 12.230469 5.949219 12.410156 6.5 12.589844 C 7.050781 12.769531 7.550781 12.855469 8.003906 12.855469 C 9.058594 12.855469 9.585938 12.390625 9.585938 11.460938 C 9.585938 11.3125 9.570312 11.15625 9.542969 10.992188 C 9.710938 10.902344 9.84375 10.753906 9.941406 10.550781 C 10.039062 10.347656 10.085938 10.140625 10.085938 9.9375 C 10.085938 9.730469 10.035156 9.535156 9.9375 9.359375 C 10.230469 9.078125 10.378906 8.746094 10.378906 8.363281 C 10.378906 8.222656 10.351562 8.066406 10.296875 7.898438 C 10.238281 7.726562 10.171875 7.59375 10.085938 7.5 L 12.855469 7.5 C 13.148438 7.5 13.398438 7.394531 13.609375 7.183594 C 13.824219 6.96875 13.929688 6.71875 13.929688 6.429688 Z M 15 6.421875 C 15 7.007812 14.789062 7.511719 14.367188 7.933594 C 13.945312 8.359375 13.441406 8.570312 12.855469 8.570312 L 11.441406 8.570312 C 11.421875 8.917969 11.316406 9.25 11.132812 9.566406 C 11.148438 9.683594 11.15625 9.804688 11.15625 9.925781 C 11.15625 10.492188 10.992188 10.988281 10.65625 11.417969 C 10.660156 12.191406 10.425781 12.804688 9.945312 13.253906 C 9.464844 13.703125 8.832031 13.929688 8.042969 13.929688 C 7.300781 13.929688 6.402344 13.734375 5.347656 13.351562 C 4.433594 13.023438 3.8125 12.855469 3.480469 12.855469 L 1.070312 12.855469 C 0.777344 12.855469 0.523438 12.753906 0.3125 12.542969 C 0.105469 12.335938 0 12.082031 0 11.785156 L 0 6.429688 C 0 6.132812 0.105469 5.878906 0.3125 5.671875 C 0.523438 5.460938 0.777344 5.355469 1.070312 5.355469 L 3.480469 5.355469 C 3.539062 5.355469 3.597656 5.34375 3.664062 5.320312 C 3.726562 5.292969 3.792969 5.253906 3.859375 5.203125 C 3.925781 5.148438 3.988281 5.097656 4.046875 5.050781 C 4.105469 5.003906 4.171875 4.941406 4.25 4.863281 C 4.324219 4.785156 4.378906 4.726562 4.417969 4.683594 C 4.457031 4.640625 4.511719 4.582031 4.578125 4.503906 C 4.644531 4.425781 4.683594 4.378906 4.695312 4.359375 C 5.058594 3.949219 5.335938 3.589844 5.53125 3.28125 C 5.605469 3.164062 5.699219 2.992188 5.808594 2.761719 C 5.921875 2.535156 6.023438 2.332031 6.117188 2.160156 C 6.214844 1.988281 6.328125 1.8125 6.457031 1.632812 C 6.589844 1.453125 6.742188 1.316406 6.917969 1.21875 C 7.09375 1.121094 7.289062 1.070312 7.5 1.070312 C 8.199219 1.070312 8.773438 1.257812 9.226562 1.632812 C 9.683594 2.007812 9.910156 2.535156 9.910156 3.214844 C 9.910156 3.59375 9.847656 3.949219 9.726562 4.285156 L 12.855469 4.285156 C 13.4375 4.285156 13.941406 4.496094 14.363281 4.921875 C 14.789062 5.347656 15 5.84375 15 6.421875 Z M 15 6.421875 " fill="#FFFFFF"/>
  </g>
</svg>