<?xml version="1.0" encoding="UTF-8" standalone="yes"?>
<svg xmlns="http://www.w3.org/2000/svg" xmlns:xlink="http://www.w3.org/1999/xlink" width="20px" height="20px" viewBox="0 0 15 15" version="1.1">
  <g id="surface1">
    <path style=" stroke:none;fill-rule:nonzero;fill:rgb(0%,0%,0%);fill-opacity:1;" d="M 8.5625 0 C 8.902344 0 9.226562 0.078125 9.535156 0.234375 C 9.839844 0.390625 10.09375 0.605469 10.296875 0.878906 L 15.082031 7.417969 C 15.742188 8.304688 16.070312 9.304688 16.070312 10.421875 L 16.070312 13.394531 C 16.070312 13.839844 15.914062 14.21875 15.601562 14.53125 C 15.289062 14.84375 14.910156 15 14.464844 15 L 11.25 15 C 10.804688 15 10.425781 14.84375 10.113281 14.53125 C 9.800781 14.21875 9.644531 13.839844 9.644531 13.394531 L 9.644531 11.910156 L 7.25 10.714844 L 2.679688 10.714844 C 2.230469 10.714844 1.851562 10.558594 1.539062 10.246094 C 1.226562 9.933594 1.070312 9.554688 1.070312 9.105469 L 1.070312 8.839844 C 1.070312 8.175781 1.308594 7.605469 1.777344 7.136719 C 2.25 6.664062 2.816406 6.429688 3.480469 6.429688 L 6.996094 6.429688 L 7.347656 5.355469 L 1.605469 5.355469 C 1.050781 5.355469 0.566406 5.167969 0.15625 4.792969 C -0.253906 4.414062 -0.484375 3.949219 -0.527344 3.398438 C -0.890625 2.957031 -1.070312 2.449219 -1.070312 1.875 L -1.070312 1.605469 C -1.070312 1.160156 -0.914062 0.78125 -0.601562 0.46875 C -0.289062 0.15625 0.0898438 0 0.535156 0 Z M 15 13.394531 L 15 10.421875 C 15 9.546875 14.742188 8.753906 14.222656 8.042969 L 9.425781 1.507812 C 9.207031 1.214844 8.921875 1.070312 8.5625 1.070312 L 0.535156 1.070312 C 0.390625 1.070312 0.265625 1.125 0.160156 1.230469 C 0.0546875 1.335938 0 1.460938 0 1.605469 C 0 1.785156 0.00390625 1.921875 0.0117188 2.023438 C 0.0195312 2.117188 0.046875 2.230469 0.09375 2.359375 C 0.136719 2.488281 0.207031 2.609375 0.300781 2.71875 C 0.355469 2.546875 0.457031 2.40625 0.597656 2.300781 C 0.742188 2.195312 0.898438 2.144531 1.070312 2.144531 L 8.035156 2.144531 L 8.035156 2.410156 L 1.070312 2.410156 C 0.925781 2.410156 0.800781 2.464844 0.695312 2.570312 C 0.589844 2.675781 0.535156 2.800781 0.535156 2.945312 C 0.535156 3.191406 0.542969 3.355469 0.5625 3.433594 C 0.605469 3.675781 0.726562 3.882812 0.929688 4.042969 C 1.128906 4.203125 1.355469 4.285156 1.605469 4.285156 L 7.726562 4.285156 C 7.949219 4.285156 8.140625 4.363281 8.296875 4.519531 C 8.453125 4.675781 8.53125 4.867188 8.53125 5.089844 C 8.53125 5.171875 8.515625 5.257812 8.488281 5.339844 L 7.953125 6.949219 C 7.894531 7.109375 7.796875 7.242188 7.660156 7.34375 C 7.519531 7.449219 7.363281 7.5 7.191406 7.5 L 3.480469 7.5 C 3.113281 7.5 2.796875 7.632812 2.535156 7.894531 C 2.273438 8.15625 2.144531 8.472656 2.144531 8.839844 L 2.144531 9.105469 C 2.144531 9.253906 2.195312 9.378906 2.300781 9.484375 C 2.40625 9.589844 2.535156 9.644531 2.679688 9.644531 L 7.375 9.644531 C 7.464844 9.644531 7.542969 9.664062 7.617188 9.703125 L 10.269531 11.023438 C 10.40625 11.097656 10.511719 11.195312 10.59375 11.324219 C 10.671875 11.453125 10.714844 11.59375 10.714844 11.742188 L 10.714844 13.394531 C 10.714844 13.539062 10.765625 13.664062 10.875 13.769531 C 10.980469 13.875 11.105469 13.929688 11.25 13.929688 L 14.464844 13.929688 C 14.609375 13.929688 14.734375 13.875 14.839844 13.769531 C 14.945312 13.664062 15 13.539062 15 13.394531 Z M 15 13.394531 "/>
  </g>
</svg>