<svg version="1.1" xmlns="http://www.w3.org/2000/svg" xlink="http://www.w3.org/1999/xlink" x="0px" y="0px" width="15px" height="15px" viewBox="0 0 15 15" style="enable-background:new 0 0 15 15;" space="preserve">
    <path d="M3.75,0C3.894531,0,4.019531,0.0546875,4.125,0.160156C4.234375,0.265625,4.285156,0.390625,4.285156,0.535156L4.285156,7.992188L8.773438,4.402344C8.867188,4.324219,8.980469,4.285156,9.105469,4.285156C9.253906,4.285156,9.378906,4.339844,9.484375,4.445312C9.589844,4.550781,9.644531,4.675781,9.644531,4.820312L9.644531,7.992188L14.128906,4.402344C14.222656,4.324219,14.335938,4.285156,14.464844,4.285156C14.609375,4.285156,14.734375,4.339844,14.839844,4.445312C14.945312,4.550781,15,4.675781,15,4.820312L15,14.464844C15,14.609375,14.945312,14.734375,14.839844,14.839844C14.734375,14.945312,14.609375,15,14.464844,15L0.535156,15C0.390625,15,0.265625,14.945312,0.160156,14.839844C0.0546875,14.734375,0,14.609375,0,14.464844L0,0.535156C0,0.390625,0.0546875,0.265625,0.160156,0.160156C0.265625,0.0546875,0.390625,0,0.535156,0ZM3.75,0" fill="#FFFFFF"/>
    </svg>