<svg xmlns="http://www.w3.org/2000/svg" xlink="http://www.w3.org/1999/xlink" width="20px" height="20px" viewBox="0 0 15 15" version="1.1">
  <g id="surface1">
    <path d="M 9.632812 8.035156 L 12.28125 8.035156 C 12.273438 8.019531 12.265625 7.996094 12.257812 7.96875 C 12.25 7.941406 12.242188 7.917969 12.238281 7.902344 L 10.464844 3.75 L 4.535156 3.75 L 2.761719 7.902344 C 2.757812 7.914062 2.75 7.933594 2.742188 7.96875 C 2.734375 8.003906 2.726562 8.023438 2.71875 8.035156 L 5.367188 8.035156 L 6.160156 9.644531 L 8.839844 9.644531 Z M 13.929688 8.285156 L 13.929688 12.320312 C 13.929688 12.464844 13.875 12.59375 13.769531 12.699219 C 13.664062 12.804688 13.539062 12.855469 13.394531 12.855469 L 1.605469 12.855469 C 1.460938 12.855469 1.335938 12.804688 1.230469 12.699219 C 1.125 12.59375 1.070312 12.464844 1.070312 12.320312 L 1.070312 8.285156 C 1.070312 7.941406 1.140625 7.597656 1.28125 7.257812 L 3.273438 2.636719 C 3.328125 2.496094 3.429688 2.378906 3.578125 2.285156 C 3.726562 2.191406 3.871094 2.144531 4.019531 2.144531 L 10.980469 2.144531 C 11.128906 2.144531 11.273438 2.191406 11.421875 2.285156 C 11.570312 2.378906 11.671875 2.496094 11.726562 2.636719 L 13.71875 7.257812 C 13.859375 7.597656 13.929688 7.941406 13.929688 8.285156 Z M 13.929688 8.285156 " fill="#FFFFFF"/>
  </g>
</svg>