<?xml version="1.0" encoding="UTF-8" standalone="yes"?>
<svg xmlns="http://www.w3.org/2000/svg" xmlns:xlink="http://www.w3.org/1999/xlink" width="20px" height="20px" viewBox="0 0 15 15" version="1.1">
  <g id="surface1">
    <path style=" stroke:none;fill-rule:nonzero;fill:rgb(0%,0%,0%);fill-opacity:1;" d="M 9.644531 11.519531 L 9.644531 10.179688 C 9.644531 10.101562 9.617188 10.035156 9.566406 9.984375 C 9.515625 9.9375 9.453125 9.910156 9.375 9.910156 L 8.570312 9.910156 L 8.570312 5.625 C 8.570312 5.546875 8.546875 5.484375 8.496094 5.433594 C 8.445312 5.382812 8.382812 5.355469 8.304688 5.355469 L 5.625 5.355469 C 5.546875 5.355469 5.484375 5.382812 5.433594 5.433594 C 5.382812 5.484375 5.355469 5.546875 5.355469 5.625 L 5.355469 6.964844 C 5.355469 7.042969 5.382812 7.105469 5.433594 7.15625 C 5.484375 7.207031 5.546875 7.230469 5.625 7.230469 L 6.429688 7.230469 L 6.429688 9.910156 L 5.625 9.910156 C 5.546875 9.910156 5.484375 9.9375 5.433594 9.984375 C 5.382812 10.035156 5.355469 10.101562 5.355469 10.179688 L 5.355469 11.519531 C 5.355469 11.597656 5.382812 11.660156 5.433594 11.710938 C 5.484375 11.761719 5.546875 11.785156 5.625 11.785156 L 9.375 11.785156 C 9.453125 11.785156 9.515625 11.761719 9.566406 11.710938 C 9.617188 11.660156 9.644531 11.597656 9.644531 11.519531 Z M 8.570312 4.019531 L 8.570312 2.679688 C 8.570312 2.601562 8.546875 2.535156 8.496094 2.484375 C 8.445312 2.4375 8.382812 2.410156 8.304688 2.410156 L 6.695312 2.410156 C 6.617188 2.410156 6.554688 2.4375 6.503906 2.484375 C 6.453125 2.535156 6.429688 2.601562 6.429688 2.679688 L 6.429688 4.019531 C 6.429688 4.097656 6.453125 4.160156 6.503906 4.210938 C 6.554688 4.261719 6.617188 4.285156 6.695312 4.285156 L 8.304688 4.285156 C 8.382812 4.285156 8.445312 4.261719 8.496094 4.210938 C 8.546875 4.160156 8.570312 4.097656 8.570312 4.019531 Z M 13.929688 7.5 C 13.929688 8.667969 13.640625 9.742188 13.066406 10.726562 C 12.492188 11.710938 11.710938 12.492188 10.726562 13.066406 C 9.742188 13.640625 8.667969 13.929688 7.5 13.929688 C 6.332031 13.929688 5.257812 13.640625 4.273438 13.066406 C 3.289062 12.492188 2.507812 11.710938 1.933594 10.726562 C 1.359375 9.742188 1.070312 8.667969 1.070312 7.5 C 1.070312 6.332031 1.359375 5.257812 1.933594 4.273438 C 2.507812 3.289062 3.289062 2.507812 4.273438 1.933594 C 5.257812 1.359375 6.332031 1.070312 7.5 1.070312 C 8.667969 1.070312 9.742188 1.359375 10.726562 1.933594 C 11.710938 2.507812 12.492188 3.289062 13.066406 4.273438 C 13.640625 5.257812 13.929688 6.332031 13.929688 7.5 Z M 13.929688 7.5 "/>
  </g>
</svg>