<svg xmlns="http://www.w3.org/2000/svg" xlink="http://www.w3.org/1999/xlink" width="20px" height="20px" viewBox="0 0 15 15" version="1.1">
  <g id="surface1">
    <path d="M 11.257812 3.933594 L 11.257812 4.789062 C 11.257812 4.867188 11.234375 4.929688 11.183594 4.980469 C 11.132812 5.03125 11.070312 5.054688 10.992188 5.054688 L 9.585938 5.054688 C 9.457031 5.859375 9.097656 6.511719 8.503906 7.015625 C 7.914062 7.515625 7.144531 7.824219 6.195312 7.933594 C 7.125 8.929688 8.40625 10.425781 10.035156 12.421875 C 10.113281 12.511719 10.125 12.605469 10.070312 12.707031 C 10.023438 12.808594 9.945312 12.855469 9.828125 12.855469 L 8.195312 12.855469 C 8.105469 12.855469 8.035156 12.824219 7.984375 12.757812 C 6.277344 10.707031 4.886719 9.117188 3.816406 7.976562 C 3.765625 7.925781 3.742188 7.867188 3.742188 7.792969 L 3.742188 6.730469 C 3.742188 6.65625 3.769531 6.59375 3.820312 6.542969 C 3.875 6.488281 3.9375 6.460938 4.007812 6.460938 L 4.945312 6.460938 C 5.683594 6.460938 6.277344 6.34375 6.726562 6.101562 C 7.175781 5.863281 7.460938 5.511719 7.582031 5.054688 L 4.007812 5.054688 C 3.929688 5.054688 3.867188 5.03125 3.816406 4.980469 C 3.765625 4.929688 3.742188 4.867188 3.742188 4.789062 L 3.742188 3.933594 C 3.742188 3.855469 3.765625 3.792969 3.816406 3.742188 C 3.867188 3.691406 3.929688 3.667969 4.007812 3.667969 L 7.464844 3.667969 C 7.148438 3.035156 6.402344 2.71875 5.222656 2.71875 L 4.007812 2.71875 C 3.9375 2.71875 3.875 2.695312 3.820312 2.640625 C 3.769531 2.585938 3.742188 2.523438 3.742188 2.453125 L 3.742188 1.339844 C 3.742188 1.261719 3.765625 1.195312 3.816406 1.148438 C 3.867188 1.097656 3.929688 1.070312 4.007812 1.070312 L 10.972656 1.070312 C 11.050781 1.070312 11.117188 1.097656 11.167969 1.148438 C 11.214844 1.195312 11.242188 1.261719 11.242188 1.339844 L 11.242188 2.191406 C 11.242188 2.269531 11.214844 2.335938 11.167969 2.386719 C 11.117188 2.4375 11.050781 2.460938 10.972656 2.460938 L 9.023438 2.460938 C 9.285156 2.800781 9.464844 3.203125 9.558594 3.667969 L 10.992188 3.667969 C 11.070312 3.667969 11.132812 3.691406 11.183594 3.742188 C 11.234375 3.792969 11.257812 3.855469 11.257812 3.933594 Z M 11.257812 3.933594 " fill="#FFFFFF"/>
  </g>
</svg>