<svg xmlns="http://www.w3.org/2000/svg" xlink="http://www.w3.org/1999/xlink" width="20px" height="20px" viewBox="0 0 15 15" version="1.1">
  <g id="surface1">
    <path d="M 12.472656 11.9375 L 12.472656 6.511719 L 11.34375 6.511719 C 11.453125 6.863281 11.507812 7.230469 11.507812 7.609375 C 11.507812 8.3125 11.332031 8.960938 10.972656 9.554688 C 10.617188 10.148438 10.132812 10.621094 9.515625 10.964844 C 8.902344 11.3125 8.234375 11.484375 7.507812 11.484375 C 6.410156 11.484375 5.46875 11.105469 4.6875 10.351562 C 3.90625 9.59375 3.515625 8.679688 3.515625 7.609375 C 3.515625 7.230469 3.570312 6.863281 3.683594 6.511719 L 2.503906 6.511719 L 2.503906 11.9375 C 2.503906 12.082031 2.550781 12.203125 2.648438 12.300781 C 2.746094 12.398438 2.867188 12.445312 3.011719 12.445312 L 11.960938 12.445312 C 12.101562 12.445312 12.222656 12.398438 12.320312 12.300781 C 12.421875 12.203125 12.472656 12.082031 12.472656 11.9375 Z M 10.09375 7.476562 C 10.09375 6.78125 9.84375 6.191406 9.335938 5.703125 C 8.832031 5.214844 8.222656 4.972656 7.507812 4.972656 C 6.800781 4.972656 6.191406 5.214844 5.6875 5.703125 C 5.183594 6.191406 4.929688 6.78125 4.929688 7.476562 C 4.929688 8.167969 5.183594 8.757812 5.6875 9.246094 C 6.191406 9.734375 6.800781 9.976562 7.507812 9.976562 C 8.222656 9.976562 8.832031 9.734375 9.335938 9.246094 C 9.84375 8.757812 10.09375 8.167969 10.09375 7.476562 Z M 12.472656 4.460938 L 12.472656 3.082031 C 12.472656 2.925781 12.417969 2.789062 12.304688 2.675781 C 12.191406 2.558594 12.054688 2.503906 11.894531 2.503906 L 10.4375 2.503906 C 10.277344 2.503906 10.140625 2.558594 10.027344 2.675781 C 9.917969 2.789062 9.859375 2.925781 9.859375 3.082031 L 9.859375 4.460938 C 9.859375 4.625 9.917969 4.761719 10.027344 4.871094 C 10.140625 4.984375 10.277344 5.039062 10.4375 5.039062 L 11.894531 5.039062 C 12.054688 5.039062 12.191406 4.984375 12.304688 4.871094 C 12.417969 4.761719 12.472656 4.625 12.472656 4.460938 Z M 13.929688 2.71875 L 13.929688 12.28125 C 13.929688 12.730469 13.765625 13.121094 13.441406 13.441406 C 13.121094 13.765625 12.730469 13.929688 12.28125 13.929688 L 2.71875 13.929688 C 2.269531 13.929688 1.878906 13.765625 1.558594 13.441406 C 1.234375 13.121094 1.070312 12.730469 1.070312 12.28125 L 1.070312 2.71875 C 1.070312 2.269531 1.234375 1.878906 1.558594 1.558594 C 1.878906 1.234375 2.269531 1.070312 2.71875 1.070312 L 12.28125 1.070312 C 12.730469 1.070312 13.121094 1.234375 13.441406 1.558594 C 13.765625 1.878906 13.929688 2.269531 13.929688 2.71875 Z M 13.929688 2.71875 " fill="#FFFFFF"/>
  </g>
</svg>