<?xml version="1.0" encoding="UTF-8" standalone="yes"?>
<svg xmlns="http://www.w3.org/2000/svg" xmlns:xlink="http://www.w3.org/1999/xlink" width="20px" height="20px" viewBox="0 0 15 15" version="1.1">
  <g id="surface1">
    <path style=" stroke:none;fill-rule:nonzero;fill:rgb(0%,0%,0%);fill-opacity:1;" d="M 3.214844 13.910156 L 3.355469 13.199219 C 3.390625 13.1875 3.617188 13.128906 4.039062 13.019531 C 4.460938 12.910156 4.769531 12.808594 4.972656 12.707031 C 5.128906 12.511719 5.242188 12.230469 5.316406 11.859375 C 5.320312 11.820312 5.492188 11.015625 5.835938 9.441406 C 6.175781 7.867188 6.492188 6.351562 6.789062 4.890625 C 7.085938 3.433594 7.230469 2.605469 7.222656 2.410156 L 7.222656 2.203125 C 7.089844 2.128906 6.9375 2.078125 6.765625 2.046875 C 6.597656 2.015625 6.402344 1.992188 6.1875 1.980469 C 5.96875 1.964844 5.804688 1.949219 5.699219 1.933594 L 5.859375 1.070312 C 6.042969 1.082031 6.378906 1.101562 6.863281 1.125 C 7.347656 1.152344 7.765625 1.171875 8.117188 1.183594 C 8.464844 1.199219 8.800781 1.207031 9.125 1.207031 C 9.390625 1.207031 9.667969 1.199219 9.949219 1.183594 C 10.230469 1.171875 10.566406 1.152344 10.960938 1.125 C 11.355469 1.101562 11.628906 1.082031 11.785156 1.070312 C 11.757812 1.289062 11.703125 1.539062 11.625 1.816406 C 11.460938 1.871094 11.175781 1.953125 10.777344 2.054688 C 10.378906 2.15625 10.074219 2.25 9.867188 2.335938 C 9.824219 2.441406 9.785156 2.558594 9.75 2.691406 C 9.71875 2.820312 9.691406 2.933594 9.675781 3.027344 C 9.660156 3.117188 9.640625 3.246094 9.613281 3.40625 C 9.589844 3.570312 9.570312 3.6875 9.558594 3.757812 C 9.410156 4.585938 9.164062 5.753906 8.828125 7.269531 C 8.488281 8.785156 8.273438 9.777344 8.179688 10.246094 C 8.167969 10.296875 8.128906 10.457031 8.070312 10.730469 C 8.007812 11.003906 7.953125 11.253906 7.902344 11.484375 C 7.851562 11.714844 7.808594 11.945312 7.769531 12.183594 C 7.730469 12.421875 7.710938 12.582031 7.71875 12.664062 L 7.726562 12.816406 C 7.820312 12.835938 8.335938 12.925781 9.273438 13.074219 C 9.257812 13.320312 9.214844 13.597656 9.140625 13.902344 C 9.078125 13.902344 8.988281 13.90625 8.867188 13.914062 C 8.75 13.925781 8.65625 13.929688 8.597656 13.929688 C 8.433594 13.929688 8.191406 13.902344 7.867188 13.84375 C 7.542969 13.789062 7.304688 13.761719 7.148438 13.761719 C 6.378906 13.75 5.804688 13.746094 5.425781 13.746094 C 5.140625 13.746094 4.742188 13.769531 4.226562 13.820312 C 3.714844 13.871094 3.375 13.902344 3.214844 13.910156 Z M 3.214844 13.910156 "/>
  </g>
</svg>