<svg xmlns="http://www.w3.org/2000/svg" xlink="http://www.w3.org/1999/xlink" width="20px" height="20px" viewBox="0 0 15 15" version="1.1">
  <g id="surface1">
    <path d="M 10.179688 11.25 L 10.179688 12.320312 C 10.179688 12.464844 10.125 12.59375 10.019531 12.699219 C 9.914062 12.804688 9.789062 12.855469 9.644531 12.855469 L 5.355469 12.855469 C 5.210938 12.855469 5.085938 12.804688 4.980469 12.699219 C 4.875 12.59375 4.820312 12.464844 4.820312 12.320312 L 4.820312 11.25 C 4.820312 11.105469 4.875 10.980469 4.980469 10.875 C 5.085938 10.765625 5.210938 10.714844 5.355469 10.714844 L 5.894531 10.714844 L 5.894531 7.5 L 5.355469 7.5 C 5.210938 7.5 5.085938 7.445312 4.980469 7.339844 C 4.875 7.234375 4.820312 7.109375 4.820312 6.964844 L 4.820312 5.894531 C 4.820312 5.746094 4.875 5.621094 4.980469 5.515625 C 5.085938 5.410156 5.210938 5.355469 5.355469 5.355469 L 8.570312 5.355469 C 8.714844 5.355469 8.84375 5.410156 8.949219 5.515625 C 9.054688 5.621094 9.105469 5.746094 9.105469 5.894531 L 9.105469 10.714844 L 9.644531 10.714844 C 9.789062 10.714844 9.914062 10.765625 10.019531 10.875 C 10.125 10.980469 10.179688 11.105469 10.179688 11.25 Z M 9.105469 1.605469 L 9.105469 3.214844 C 9.105469 3.359375 9.054688 3.484375 8.949219 3.589844 C 8.84375 3.695312 8.714844 3.75 8.570312 3.75 L 6.429688 3.75 C 6.285156 3.75 6.15625 3.695312 6.050781 3.589844 C 5.945312 3.484375 5.894531 3.359375 5.894531 3.214844 L 5.894531 1.605469 C 5.894531 1.460938 5.945312 1.335938 6.050781 1.230469 C 6.15625 1.125 6.285156 1.070312 6.429688 1.070312 L 8.570312 1.070312 C 8.714844 1.070312 8.84375 1.125 8.949219 1.230469 C 9.054688 1.335938 9.105469 1.460938 9.105469 1.605469 Z M 9.105469 1.605469 " fill="#FFFFFF"/>
  </g>
</svg>