<?xml version="1.0" encoding="UTF-8" standalone="yes"?>
<svg xmlns="http://www.w3.org/2000/svg" xmlns:xlink="http://www.w3.org/1999/xlink" width="20px" height="20px" viewBox="0 0 15 15" version="1.1">
  <g id="surface1">
    <path style=" stroke:none;fill-rule:nonzero;fill:rgb(0%,0%,0%);fill-opacity:1;" d="M 11.175781 6.964844 C 11.175781 7.160156 11.105469 7.328125 10.964844 7.46875 C 10.824219 7.613281 10.65625 7.683594 10.453125 7.683594 L 4.578125 7.683594 C 4.378906 7.683594 4.207031 7.613281 4.066406 7.46875 C 3.929688 7.328125 3.859375 7.160156 3.859375 6.964844 C 3.859375 6.769531 3.929688 6.601562 4.066406 6.457031 C 4.207031 6.316406 4.378906 6.246094 4.578125 6.246094 L 10.453125 6.246094 C 10.65625 6.246094 10.824219 6.316406 10.964844 6.457031 C 11.105469 6.601562 11.175781 6.769531 11.175781 6.964844 Z M 12.964844 6.964844 C 12.964844 6.484375 12.902344 6.011719 12.773438 5.542969 L 4.554688 5.542969 C 4.351562 5.542969 4.183594 5.472656 4.042969 5.332031 C 3.902344 5.191406 3.832031 5.023438 3.832031 4.828125 C 3.832031 4.628906 3.902344 4.457031 4.042969 4.320312 C 4.183594 4.179688 4.351562 4.109375 4.554688 4.109375 L 12.152344 4.109375 C 11.664062 3.3125 11.007812 2.679688 10.1875 2.210938 C 9.367188 1.742188 8.472656 1.507812 7.507812 1.507812 C 6.519531 1.507812 5.605469 1.75 4.765625 2.238281 C 3.925781 2.726562 3.261719 3.390625 2.773438 4.226562 C 2.285156 5.0625 2.042969 5.976562 2.042969 6.964844 C 2.042969 7.445312 2.105469 7.917969 2.234375 8.386719 L 10.453125 8.386719 C 10.65625 8.386719 10.824219 8.457031 10.964844 8.597656 C 11.105469 8.734375 11.175781 8.902344 11.175781 9.097656 C 11.175781 9.300781 11.105469 9.46875 10.964844 9.609375 C 10.824219 9.75 10.65625 9.820312 10.453125 9.820312 L 2.855469 9.820312 C 3.34375 10.617188 4.003906 11.25 4.824219 11.71875 C 5.648438 12.1875 6.542969 12.421875 7.507812 12.421875 C 8.246094 12.421875 8.949219 12.277344 9.625 11.992188 C 10.300781 11.703125 10.882812 11.316406 11.367188 10.828125 C 11.851562 10.339844 12.242188 9.757812 12.53125 9.085938 C 12.820312 8.414062 12.964844 7.707031 12.964844 6.964844 Z M 16.070312 4.828125 C 16.070312 5.023438 16 5.191406 15.863281 5.332031 C 15.722656 5.472656 15.550781 5.542969 15.351562 5.542969 L 14.253906 5.542969 C 14.351562 6.015625 14.398438 6.488281 14.398438 6.964844 C 14.398438 7.894531 14.214844 8.789062 13.847656 9.640625 C 13.484375 10.488281 12.992188 11.222656 12.378906 11.839844 C 11.765625 12.457031 11.035156 12.949219 10.183594 13.3125 C 9.332031 13.679688 8.441406 13.863281 7.507812 13.863281 C 6.136719 13.863281 4.882812 13.492188 3.753906 12.75 C 2.625 12.007812 1.78125 11.03125 1.230469 9.820312 L -0.351562 9.820312 C -0.550781 9.820312 -0.722656 9.75 -0.863281 9.609375 C -1 9.46875 -1.070312 9.300781 -1.070312 9.097656 C -1.070312 8.902344 -1 8.734375 -0.863281 8.597656 C -0.722656 8.457031 -0.550781 8.386719 -0.351562 8.386719 L 0.753906 8.386719 C 0.660156 7.914062 0.609375 7.4375 0.609375 6.964844 C 0.609375 6.03125 0.792969 5.140625 1.160156 4.289062 C 1.523438 3.4375 2.015625 2.703125 2.628906 2.089844 C 3.242188 1.472656 3.972656 0.980469 4.824219 0.617188 C 5.675781 0.25 6.570312 0.0664062 7.507812 0.0664062 C 8.875 0.0664062 10.125 0.4375 11.253906 1.179688 C 12.382812 1.921875 13.226562 2.898438 13.777344 4.109375 L 15.351562 4.109375 C 15.550781 4.109375 15.722656 4.179688 15.863281 4.320312 C 16 4.457031 16.070312 4.628906 16.070312 4.828125 Z M 16.070312 4.828125 "/>
  </g>
</svg>