<svg xmlns="http://www.w3.org/2000/svg" xlink="http://www.w3.org/1999/xlink" width="20px" height="20px" viewBox="0 0 15 15" version="1.1">
  <g id="surface1">
    <path d="M 9.375 5.222656 L 9.375 9.375 C 9.375 9.453125 9.351562 9.515625 9.300781 9.566406 C 9.25 9.617188 9.183594 9.644531 9.105469 9.644531 L 7.769531 9.644531 C 7.691406 9.644531 7.625 9.617188 7.574219 9.566406 C 7.523438 9.515625 7.5 9.453125 7.5 9.375 L 7.5 5.222656 C 7.5 4.597656 7.277344 4.0625 6.832031 3.617188 C 6.382812 3.167969 5.847656 2.945312 5.222656 2.945312 L 2.945312 2.945312 L 2.945312 12.589844 C 2.945312 12.667969 2.921875 12.730469 2.871094 12.78125 C 2.820312 12.832031 2.757812 12.855469 2.679688 12.855469 L 1.339844 12.855469 C 1.261719 12.855469 1.195312 12.832031 1.148438 12.78125 C 1.097656 12.730469 1.070312 12.667969 1.070312 12.589844 L 1.070312 1.339844 C 1.070312 1.261719 1.097656 1.195312 1.148438 1.148438 C 1.195312 1.097656 1.261719 1.070312 1.339844 1.070312 L 5.222656 1.070312 C 5.976562 1.070312 6.671875 1.257812 7.308594 1.628906 C 7.945312 2 8.445312 2.503906 8.820312 3.140625 C 9.1875 3.773438 9.375 4.46875 9.375 5.222656 Z M 12.589844 1.339844 L 12.589844 8.707031 C 12.589844 9.457031 12.402344 10.152344 12.03125 10.789062 C 11.660156 11.425781 11.15625 11.929688 10.523438 12.300781 C 9.886719 12.671875 9.191406 12.855469 8.4375 12.855469 L 4.554688 12.855469 C 4.476562 12.855469 4.410156 12.832031 4.359375 12.78125 C 4.3125 12.730469 4.285156 12.667969 4.285156 12.589844 L 4.285156 4.554688 C 4.285156 4.476562 4.3125 4.410156 4.359375 4.359375 C 4.410156 4.3125 4.476562 4.285156 4.554688 4.285156 L 5.894531 4.285156 C 5.972656 4.285156 6.035156 4.3125 6.085938 4.359375 C 6.136719 4.410156 6.160156 4.476562 6.160156 4.554688 L 6.160156 10.980469 L 8.4375 10.980469 C 9.0625 10.980469 9.597656 10.757812 10.042969 10.3125 C 10.492188 9.867188 10.714844 9.332031 10.714844 8.707031 L 10.714844 1.339844 C 10.714844 1.261719 10.738281 1.195312 10.789062 1.148438 C 10.839844 1.097656 10.902344 1.070312 10.980469 1.070312 L 12.320312 1.070312 C 12.398438 1.070312 12.464844 1.097656 12.515625 1.148438 C 12.5625 1.195312 12.589844 1.261719 12.589844 1.339844 Z M 12.589844 1.339844 " fill="#FFFFFF"/>
  </g>
</svg>