<?xml version="1.0" encoding="UTF-8" standalone="yes"?>
<svg xmlns="http://www.w3.org/2000/svg" xmlns:xlink="http://www.w3.org/1999/xlink" width="20px" height="20px" viewBox="0 0 15 15" version="1.1">
  <g id="surface1">
    <path style=" stroke:none;fill-rule:nonzero;fill:rgb(0%,0%,0%);fill-opacity:1;" d="M 4.820312 4.820312 C 4.820312 5.269531 4.664062 5.648438 4.351562 5.960938 C 4.039062 6.273438 3.660156 6.429688 3.214844 6.429688 C 2.769531 6.429688 2.386719 6.273438 2.074219 5.960938 C 1.761719 5.648438 1.605469 5.269531 1.605469 4.820312 C 1.605469 4.375 1.761719 3.996094 2.074219 3.683594 C 2.386719 3.371094 2.769531 3.214844 3.214844 3.214844 C 3.660156 3.214844 4.039062 3.371094 4.351562 3.683594 C 4.664062 3.996094 4.820312 4.375 4.820312 4.820312 Z M 13.394531 8.035156 L 13.394531 11.785156 L 1.605469 11.785156 L 1.605469 10.179688 L 4.285156 7.5 L 5.625 8.839844 L 9.910156 4.554688 Z M 14.195312 2.144531 L 0.804688 2.144531 C 0.730469 2.144531 0.667969 2.167969 0.617188 2.222656 C 0.5625 2.273438 0.535156 2.339844 0.535156 2.410156 L 0.535156 12.589844 C 0.535156 12.660156 0.5625 12.722656 0.617188 12.777344 C 0.667969 12.832031 0.730469 12.855469 0.804688 12.855469 L 14.195312 12.855469 C 14.269531 12.855469 14.332031 12.832031 14.382812 12.777344 C 14.4375 12.722656 14.464844 12.660156 14.464844 12.589844 L 14.464844 2.410156 C 14.464844 2.339844 14.4375 2.273438 14.382812 2.222656 C 14.332031 2.167969 14.269531 2.144531 14.195312 2.144531 Z M 15.535156 2.410156 L 15.535156 12.589844 C 15.535156 12.957031 15.40625 13.273438 15.140625 13.535156 C 14.878906 13.796875 14.566406 13.929688 14.195312 13.929688 L 0.804688 13.929688 C 0.433594 13.929688 0.121094 13.796875 -0.140625 13.535156 C -0.40625 13.273438 -0.535156 12.957031 -0.535156 12.589844 L -0.535156 2.410156 C -0.535156 2.042969 -0.40625 1.726562 -0.140625 1.464844 C 0.121094 1.203125 0.433594 1.070312 0.804688 1.070312 L 14.195312 1.070312 C 14.566406 1.070312 14.878906 1.203125 15.140625 1.464844 C 15.40625 1.726562 15.535156 2.042969 15.535156 2.410156 Z M 15.535156 2.410156 "/>
  </g>
</svg>