<?xml version="1.0" encoding="UTF-8" standalone="yes"?>
<svg xmlns="http://www.w3.org/2000/svg" xmlns:xlink="http://www.w3.org/1999/xlink" width="20px" height="20px" viewBox="0 0 15 15" version="1.1">
  <g id="surface1">
    <path style=" stroke:none;fill-rule:nonzero;fill:rgb(0%,0%,0%);fill-opacity:1;" d="M 3.75 0 C 3.894531 0 4.019531 0.0546875 4.125 0.160156 C 4.234375 0.265625 4.285156 0.390625 4.285156 0.535156 L 4.285156 7.992188 L 8.773438 4.402344 C 8.867188 4.324219 8.980469 4.285156 9.105469 4.285156 C 9.253906 4.285156 9.378906 4.339844 9.484375 4.445312 C 9.589844 4.550781 9.644531 4.675781 9.644531 4.820312 L 9.644531 7.992188 L 14.128906 4.402344 C 14.222656 4.324219 14.335938 4.285156 14.464844 4.285156 C 14.609375 4.285156 14.734375 4.339844 14.839844 4.445312 C 14.945312 4.550781 15 4.675781 15 4.820312 L 15 14.464844 C 15 14.609375 14.945312 14.734375 14.839844 14.839844 C 14.734375 14.945312 14.609375 15 14.464844 15 L 0.535156 15 C 0.390625 15 0.265625 14.945312 0.160156 14.839844 C 0.0546875 14.734375 0 14.609375 0 14.464844 L 0 0.535156 C 0 0.390625 0.0546875 0.265625 0.160156 0.160156 C 0.265625 0.0546875 0.390625 0 0.535156 0 Z M 3.75 0 "/>
  </g>
</svg>