<svg xmlns="http://www.w3.org/2000/svg" xlink="http://www.w3.org/1999/xlink" width="20px" height="20px" viewBox="0 0 15 15" version="1.1">
  <g id="surface1">
    <path d="M 13.996094 6.460938 C 14.613281 6.71875 15.117188 7.125 15.5 7.679688 C 15.878906 8.234375 16.070312 8.851562 16.070312 9.535156 C 16.070312 10.449219 15.742188 11.230469 15.082031 11.882812 C 14.425781 12.53125 13.628906 12.855469 12.699219 12.855469 C 12.675781 12.855469 12.644531 12.855469 12.601562 12.851562 C 12.558594 12.851562 12.53125 12.847656 12.515625 12.847656 L 2.328125 12.847656 C 1.378906 12.792969 0.574219 12.441406 -0.0820312 11.796875 C -0.742188 11.152344 -1.070312 10.371094 -1.070312 9.449219 C -1.070312 8.835938 -0.917969 8.269531 -0.609375 7.75 C -0.304688 7.230469 0.105469 6.820312 0.621094 6.519531 C 0.550781 6.304688 0.519531 6.074219 0.519531 5.835938 C 0.519531 5.191406 0.746094 4.644531 1.207031 4.195312 C 1.664062 3.742188 2.21875 3.515625 2.871094 3.515625 C 3.402344 3.515625 3.882812 3.675781 4.3125 4 C 4.730469 3.140625 5.351562 2.449219 6.171875 1.925781 C 6.996094 1.402344 7.90625 1.136719 8.90625 1.136719 C 9.832031 1.136719 10.6875 1.363281 11.46875 1.8125 C 12.25 2.261719 12.867188 2.871094 13.320312 3.640625 C 13.777344 4.410156 14.003906 5.25 14.003906 6.160156 C 14.003906 6.195312 14.003906 6.246094 14 6.3125 C 13.996094 6.378906 13.996094 6.429688 13.996094 6.460938 Z M 2.847656 8.6875 C 2.847656 9.371094 3.082031 9.90625 3.550781 10.304688 C 4.019531 10.699219 4.597656 10.898438 5.289062 10.898438 C 6.054688 10.898438 6.722656 10.621094 7.300781 10.070312 C 7.210938 9.957031 7.078125 9.800781 6.902344 9.597656 C 6.726562 9.394531 6.605469 9.253906 6.539062 9.175781 C 6.164062 9.535156 5.761719 9.71875 5.332031 9.71875 C 5.023438 9.71875 4.765625 9.625 4.550781 9.4375 C 4.335938 9.25 4.226562 9.007812 4.226562 8.707031 C 4.226562 8.410156 4.335938 8.167969 4.550781 7.976562 C 4.765625 7.789062 5.019531 7.691406 5.316406 7.691406 C 5.5625 7.691406 5.796875 7.75 6.023438 7.867188 C 6.25 7.984375 6.453125 8.140625 6.632812 8.328125 C 6.816406 8.519531 6.996094 8.726562 7.179688 8.957031 C 7.359375 9.183594 7.550781 9.414062 7.753906 9.644531 C 7.957031 9.871094 8.171875 10.082031 8.398438 10.269531 C 8.625 10.460938 8.894531 10.613281 9.210938 10.730469 C 9.527344 10.847656 9.867188 10.90625 10.230469 10.90625 C 10.902344 10.90625 11.472656 10.707031 11.941406 10.308594 C 12.40625 9.910156 12.640625 9.378906 12.640625 8.714844 C 12.640625 8.039062 12.40625 7.503906 11.9375 7.105469 C 11.46875 6.710938 10.890625 6.511719 10.203125 6.511719 C 9.40625 6.511719 8.734375 6.78125 8.1875 7.324219 C 8.265625 7.414062 8.347656 7.507812 8.433594 7.609375 C 8.519531 7.710938 8.617188 7.820312 8.722656 7.945312 C 8.828125 8.066406 8.910156 8.160156 8.964844 8.226562 C 9.332031 7.871094 9.730469 7.691406 10.152344 7.691406 C 10.445312 7.691406 10.699219 7.785156 10.921875 7.96875 C 11.148438 8.152344 11.257812 8.386719 11.257812 8.671875 C 11.257812 8.988281 11.15625 9.246094 10.949219 9.4375 C 10.742188 9.628906 10.480469 9.726562 10.160156 9.726562 C 9.921875 9.726562 9.691406 9.667969 9.472656 9.550781 C 9.25 9.433594 9.050781 9.28125 8.867188 9.089844 C 8.6875 8.902344 8.503906 8.691406 8.320312 8.460938 C 8.136719 8.234375 7.941406 8.003906 7.738281 7.777344 C 7.535156 7.546875 7.320312 7.339844 7.089844 7.148438 C 6.859375 6.957031 6.59375 6.804688 6.28125 6.6875 C 5.972656 6.570312 5.640625 6.511719 5.289062 6.511719 C 4.609375 6.511719 4.03125 6.710938 3.558594 7.101562 C 3.082031 7.496094 2.847656 8.023438 2.847656 8.6875 Z M 2.847656 8.6875 " fill="#FFFFFF"/>
  </g>
</svg>