<svg xmlns="http://www.w3.org/2000/svg" xlink="http://www.w3.org/1999/xlink" width="20px" height="20px" viewBox="0 0 15 15" version="1.1">
  <g id="surface1">
    <path d="M 10.027344 8.980469 L 8.6875 10.320312 L 7.425781 11.59375 L 7.171875 11.84375 C 6.8125 12.203125 6.386719 12.445312 5.90625 12.574219 C 5.421875 12.699219 4.945312 12.707031 4.46875 12.589844 C 4.378906 12.980469 4.179688 13.300781 3.867188 13.550781 C 3.554688 13.804688 3.195312 13.929688 2.789062 13.929688 C 2.3125 13.929688 1.910156 13.757812 1.574219 13.421875 C 1.238281 13.085938 1.070312 12.679688 1.070312 12.203125 C 1.070312 11.800781 1.195312 11.445312 1.445312 11.132812 C 1.691406 10.820312 2.007812 10.621094 2.394531 10.53125 C 2.269531 10.050781 2.273438 9.566406 2.402344 9.082031 C 2.53125 8.597656 2.777344 8.171875 3.140625 7.808594 L 3.238281 7.710938 L 4.503906 8.980469 L 4.410156 9.074219 C 4.203125 9.28125 4.101562 9.527344 4.101562 9.820312 C 4.101562 10.109375 4.203125 10.359375 4.410156 10.570312 C 4.617188 10.777344 4.867188 10.882812 5.15625 10.882812 C 5.445312 10.882812 5.695312 10.777344 5.902344 10.570312 L 6.152344 10.320312 L 7.417969 9.046875 L 8.765625 7.710938 Z M 7.171875 3.273438 L 7.273438 3.375 L 6 4.644531 L 5.902344 4.546875 C 5.695312 4.339844 5.445312 4.234375 5.15625 4.234375 C 4.867188 4.234375 4.617188 4.339844 4.410156 4.546875 C 4.203125 4.75 4.101562 5 4.101562 5.292969 C 4.101562 5.585938 4.203125 5.835938 4.410156 6.042969 L 7.265625 8.898438 L 6 10.171875 L 4.652344 8.832031 L 3.390625 7.558594 L 3.140625 7.308594 C 2.757812 6.933594 2.507812 6.488281 2.386719 5.972656 C 2.261719 5.457031 2.277344 4.957031 2.425781 4.46875 C 2.035156 4.386719 1.714844 4.1875 1.464844 3.875 C 1.214844 3.5625 1.089844 3.203125 1.089844 2.796875 C 1.089844 2.320312 1.253906 1.914062 1.589844 1.578125 C 1.925781 1.238281 2.328125 1.070312 2.804688 1.070312 C 3.226562 1.070312 3.601562 1.207031 3.921875 1.480469 C 4.242188 1.753906 4.4375 2.097656 4.503906 2.511719 C 4.972656 2.398438 5.445312 2.410156 5.921875 2.539062 C 6.398438 2.671875 6.816406 2.914062 7.171875 3.273438 Z M 13.929688 12.203125 C 13.929688 12.679688 13.761719 13.085938 13.425781 13.421875 C 13.089844 13.757812 12.6875 13.929688 12.210938 13.929688 C 11.800781 13.929688 11.433594 13.796875 11.117188 13.535156 C 10.796875 13.273438 10.601562 12.945312 10.523438 12.546875 C 10.042969 12.703125 9.539062 12.71875 9.019531 12.597656 C 8.496094 12.476562 8.046875 12.222656 7.667969 11.84375 L 7.574219 11.742188 L 8.839844 10.472656 L 8.941406 10.570312 C 9.144531 10.777344 9.394531 10.882812 9.683594 10.882812 C 9.976562 10.882812 10.222656 10.777344 10.429688 10.570312 C 10.636719 10.367188 10.738281 10.117188 10.738281 9.828125 C 10.738281 9.535156 10.636719 9.289062 10.429688 9.082031 L 7.566406 6.21875 L 8.839844 4.945312 L 10.179688 6.285156 L 11.449219 7.558594 L 11.695312 7.808594 C 12.050781 8.167969 12.292969 8.585938 12.425781 9.070312 C 12.558594 9.550781 12.5625 10.03125 12.445312 10.503906 C 12.871094 10.566406 13.222656 10.757812 13.507812 11.078125 C 13.789062 11.398438 13.929688 11.773438 13.929688 12.203125 Z M 13.910156 2.796875 C 13.910156 3.226562 13.769531 3.601562 13.484375 3.925781 C 13.199219 4.25 12.847656 4.441406 12.421875 4.503906 C 12.566406 4.976562 12.574219 5.46875 12.445312 5.980469 C 12.320312 6.492188 12.066406 6.933594 11.695312 7.308594 L 11.59375 7.40625 L 10.328125 6.136719 L 10.429688 6.035156 C 10.636719 5.828125 10.738281 5.582031 10.738281 5.289062 C 10.738281 5 10.636719 4.75 10.429688 4.546875 C 10.222656 4.339844 9.976562 4.234375 9.683594 4.234375 C 9.394531 4.234375 9.144531 4.339844 8.941406 4.546875 L 8.6875 4.796875 L 7.417969 6.070312 L 6.078125 7.40625 L 4.804688 6.136719 L 6.152344 4.796875 L 7.425781 3.523438 L 7.667969 3.273438 C 8.042969 2.898438 8.484375 2.648438 9 2.523438 C 9.511719 2.398438 10.007812 2.40625 10.488281 2.554688 C 10.550781 2.132812 10.742188 1.78125 11.0625 1.5 C 11.382812 1.214844 11.761719 1.070312 12.195312 1.070312 C 12.671875 1.070312 13.074219 1.238281 13.410156 1.578125 C 13.746094 1.914062 13.910156 2.320312 13.910156 2.796875 Z M 13.910156 2.796875 " fill="#FFFFFF"/>
  </g>
</svg>