<?xml version="1.0" encoding="UTF-8" standalone="yes"?>
<svg xmlns="http://www.w3.org/2000/svg" xmlns:xlink="http://www.w3.org/1999/xlink" width="20px" height="20px" viewBox="0 0 15 15" version="1.1">
  <g id="surface1">
    <path style=" stroke:none;fill-rule:nonzero;fill:rgb(0%,0%,0%);fill-opacity:1;" d="M 8.25 12.855469 L 6.808594 12.855469 C 6.738281 12.855469 6.675781 12.832031 6.621094 12.78125 C 6.566406 12.730469 6.542969 12.667969 6.542969 12.589844 L 6.542969 9.828125 L 4.132812 9.828125 C 4.058594 9.828125 3.996094 9.800781 3.941406 9.75 C 3.890625 9.703125 3.863281 9.636719 3.863281 9.558594 L 3.863281 8.695312 C 3.863281 8.625 3.890625 8.5625 3.941406 8.507812 C 3.996094 8.457031 4.058594 8.429688 4.132812 8.429688 L 6.542969 8.429688 L 6.542969 7.71875 L 4.132812 7.71875 C 4.058594 7.71875 3.996094 7.691406 3.941406 7.640625 C 3.890625 7.59375 3.863281 7.527344 3.863281 7.449219 L 3.863281 6.578125 C 3.863281 6.507812 3.890625 6.445312 3.941406 6.390625 C 3.996094 6.335938 4.058594 6.3125 4.132812 6.3125 L 5.921875 6.3125 L 3.234375 1.472656 C 3.191406 1.382812 3.191406 1.292969 3.234375 1.207031 C 3.289062 1.117188 3.367188 1.070312 3.46875 1.070312 L 5.09375 1.070312 C 5.199219 1.070312 5.28125 1.121094 5.335938 1.222656 L 7.136719 4.78125 C 7.242188 4.992188 7.398438 5.339844 7.605469 5.824219 C 7.660156 5.691406 7.746094 5.503906 7.859375 5.257812 C 7.972656 5.011719 8.050781 4.839844 8.089844 4.746094 L 9.6875 1.230469 C 9.734375 1.125 9.8125 1.070312 9.929688 1.070312 L 11.53125 1.070312 C 11.625 1.070312 11.699219 1.117188 11.757812 1.207031 C 11.804688 1.285156 11.808594 1.371094 11.765625 1.464844 L 9.144531 6.3125 L 10.945312 6.3125 C 11.015625 6.3125 11.078125 6.335938 11.132812 6.390625 C 11.1875 6.445312 11.210938 6.507812 11.210938 6.578125 L 11.210938 7.449219 C 11.210938 7.527344 11.1875 7.59375 11.132812 7.640625 C 11.078125 7.691406 11.015625 7.71875 10.945312 7.71875 L 8.515625 7.71875 L 8.515625 8.429688 L 10.945312 8.429688 C 11.015625 8.429688 11.078125 8.457031 11.132812 8.507812 C 11.1875 8.5625 11.210938 8.625 11.210938 8.695312 L 11.210938 9.558594 C 11.210938 9.636719 11.1875 9.703125 11.132812 9.75 C 11.078125 9.800781 11.015625 9.828125 10.945312 9.828125 L 8.515625 9.828125 L 8.515625 12.589844 C 8.515625 12.660156 8.492188 12.722656 8.4375 12.777344 C 8.382812 12.832031 8.320312 12.855469 8.25 12.855469 Z M 8.25 12.855469 "/>
  </g>
</svg>