<svg xmlns="http://www.w3.org/2000/svg" xlink="http://www.w3.org/1999/xlink" width="20px" height="20px" viewBox="0 0 15 15" version="1.1">
  <g id="surface1">
    <path d="M 6.964844 4.285156 C 6.964844 3.839844 6.808594 3.460938 6.496094 3.148438 C 6.183594 2.835938 5.804688 2.679688 5.355469 2.679688 C 4.910156 2.679688 4.53125 2.835938 4.21875 3.148438 C 3.90625 3.460938 3.75 3.839844 3.75 4.285156 C 3.75 4.519531 3.804688 4.75 3.910156 4.980469 C 3.679688 4.875 3.449219 4.820312 3.214844 4.820312 C 2.769531 4.820312 2.386719 4.976562 2.074219 5.289062 C 1.761719 5.601562 1.605469 5.980469 1.605469 6.429688 C 1.605469 6.875 1.761719 7.253906 2.074219 7.566406 C 2.386719 7.878906 2.769531 8.035156 3.214844 8.035156 C 3.660156 8.035156 4.039062 7.878906 4.351562 7.566406 C 4.664062 7.253906 4.820312 6.875 4.820312 6.429688 C 4.820312 6.195312 4.769531 5.960938 4.664062 5.734375 C 4.890625 5.839844 5.121094 5.894531 5.355469 5.894531 C 5.804688 5.894531 6.183594 5.738281 6.496094 5.425781 C 6.808594 5.113281 6.964844 4.730469 6.964844 4.285156 Z M 14.085938 10.179688 C 14.085938 10.273438 13.949219 10.457031 13.675781 10.730469 C 13.402344 11.003906 13.21875 11.140625 13.125 11.140625 C 13.074219 11.140625 12.996094 11.097656 12.886719 11.007812 C 12.777344 10.917969 12.675781 10.824219 12.582031 10.730469 C 12.484375 10.636719 12.378906 10.523438 12.257812 10.394531 C 12.136719 10.269531 12.070312 10.195312 12.054688 10.179688 L 11.25 10.980469 L 13.089844 12.824219 C 13.246094 12.980469 13.324219 13.167969 13.324219 13.394531 C 13.324219 13.628906 13.21875 13.851562 13 14.070312 C 12.78125 14.289062 12.554688 14.398438 12.320312 14.398438 C 12.097656 14.398438 11.910156 14.320312 11.753906 14.164062 L 6.136719 8.546875 C 5.152344 9.277344 4.136719 9.644531 3.082031 9.644531 C 2.171875 9.644531 1.429688 9.355469 0.859375 8.785156 C 0.285156 8.210938 0 7.472656 0 6.5625 C 0 5.667969 0.265625 4.796875 0.796875 3.941406 C 1.324219 3.089844 2.015625 2.398438 2.871094 1.867188 C 3.726562 1.335938 4.597656 1.070312 5.492188 1.070312 C 6.402344 1.070312 7.140625 1.355469 7.714844 1.929688 C 8.285156 2.5 8.570312 3.242188 8.570312 4.152344 C 8.570312 5.207031 8.207031 6.226562 7.476562 7.207031 L 10.445312 10.179688 L 11.25 9.375 C 11.234375 9.359375 11.160156 9.289062 11.03125 9.171875 C 10.902344 9.050781 10.792969 8.941406 10.699219 8.847656 C 10.601562 8.753906 10.511719 8.652344 10.421875 8.542969 C 10.332031 8.433594 10.289062 8.355469 10.289062 8.304688 C 10.289062 8.207031 10.425781 8.023438 10.699219 7.75 C 10.972656 7.476562 11.15625 7.339844 11.25 7.339844 C 11.324219 7.339844 11.386719 7.367188 11.441406 7.425781 C 11.476562 7.457031 11.605469 7.582031 11.828125 7.796875 C 12.050781 8.011719 12.28125 8.234375 12.515625 8.460938 C 12.75 8.691406 12.988281 8.929688 13.238281 9.183594 C 13.484375 9.433594 13.691406 9.652344 13.847656 9.835938 C 14.007812 10.019531 14.085938 10.132812 14.085938 10.179688 Z M 14.085938 10.179688 " fill="#FFFFFF"/>
  </g>
</svg>