<?xml version="1.0" encoding="UTF-8" standalone="yes"?>
<svg xmlns="http://www.w3.org/2000/svg" xmlns:xlink="http://www.w3.org/1999/xlink" width="20px" height="20px" viewBox="0 0 15 15" version="1.1">
  <g id="surface1">
    <path style=" stroke:none;fill-rule:nonzero;fill:rgb(0%,0%,0%);fill-opacity:1;" d="M 14.824219 12.855469 C 14.824219 13.152344 14.722656 13.402344 14.515625 13.609375 L 13.617188 14.515625 C 13.402344 14.722656 13.148438 14.824219 12.855469 14.824219 C 12.5625 14.824219 12.308594 14.722656 12.105469 14.515625 L 9.066406 11.46875 C 8.851562 11.265625 8.746094 11.015625 8.746094 10.714844 C 8.746094 10.417969 8.867188 10.152344 9.105469 9.910156 L 6.964844 7.769531 L 5.910156 8.824219 C 5.832031 8.902344 5.738281 8.941406 5.625 8.941406 C 5.511719 8.941406 5.417969 8.902344 5.339844 8.824219 C 5.351562 8.832031 5.386719 8.867188 5.445312 8.921875 C 5.503906 8.980469 5.539062 9.015625 5.550781 9.03125 C 5.5625 9.046875 5.589844 9.082031 5.632812 9.128906 C 5.679688 9.175781 5.707031 9.214844 5.71875 9.242188 C 5.726562 9.269531 5.746094 9.304688 5.765625 9.355469 C 5.789062 9.402344 5.804688 9.449219 5.8125 9.492188 C 5.820312 9.535156 5.824219 9.585938 5.824219 9.644531 C 5.824219 9.855469 5.746094 10.042969 5.589844 10.210938 C 5.574219 10.230469 5.527344 10.277344 5.453125 10.363281 C 5.378906 10.445312 5.324219 10.503906 5.292969 10.535156 C 5.261719 10.566406 5.210938 10.609375 5.140625 10.671875 C 5.066406 10.734375 5.003906 10.777344 4.957031 10.800781 C 4.90625 10.828125 4.84375 10.851562 4.769531 10.878906 C 4.699219 10.902344 4.625 10.914062 4.554688 10.914062 C 4.332031 10.914062 4.140625 10.835938 3.984375 10.679688 L 0.570312 7.265625 C 0.414062 7.109375 0.335938 6.917969 0.335938 6.695312 C 0.335938 6.625 0.347656 6.550781 0.371094 6.480469 C 0.398438 6.40625 0.421875 6.34375 0.449219 6.292969 C 0.472656 6.246094 0.515625 6.183594 0.578125 6.109375 C 0.640625 6.039062 0.683594 5.984375 0.714844 5.957031 C 0.746094 5.925781 0.804688 5.871094 0.886719 5.796875 C 0.972656 5.722656 1.019531 5.675781 1.039062 5.660156 C 1.207031 5.503906 1.394531 5.425781 1.605469 5.425781 C 1.664062 5.425781 1.714844 5.429688 1.757812 5.4375 C 1.800781 5.445312 1.847656 5.460938 1.894531 5.484375 C 1.941406 5.503906 1.980469 5.523438 2.007812 5.53125 C 2.035156 5.542969 2.074219 5.570312 2.121094 5.617188 C 2.167969 5.660156 2.203125 5.6875 2.21875 5.699219 C 2.234375 5.710938 2.269531 5.746094 2.328125 5.804688 C 2.382812 5.863281 2.417969 5.898438 2.425781 5.910156 C 2.347656 5.832031 2.308594 5.738281 2.308594 5.625 C 2.308594 5.511719 2.347656 5.417969 2.425781 5.339844 L 5.339844 2.425781 C 5.417969 2.347656 5.511719 2.308594 5.625 2.308594 C 5.738281 2.308594 5.832031 2.347656 5.910156 2.425781 C 5.898438 2.417969 5.863281 2.382812 5.804688 2.328125 C 5.746094 2.269531 5.710938 2.234375 5.699219 2.21875 C 5.6875 2.203125 5.660156 2.167969 5.617188 2.121094 C 5.570312 2.074219 5.542969 2.035156 5.53125 2.007812 C 5.523438 1.980469 5.503906 1.941406 5.484375 1.894531 C 5.460938 1.847656 5.445312 1.800781 5.4375 1.757812 C 5.429688 1.714844 5.425781 1.664062 5.425781 1.605469 C 5.425781 1.394531 5.503906 1.207031 5.660156 1.039062 C 5.675781 1.019531 5.722656 0.972656 5.796875 0.886719 C 5.871094 0.804688 5.925781 0.746094 5.957031 0.714844 C 5.984375 0.683594 6.039062 0.640625 6.109375 0.578125 C 6.183594 0.515625 6.246094 0.472656 6.292969 0.449219 C 6.34375 0.421875 6.40625 0.398438 6.480469 0.371094 C 6.550781 0.347656 6.625 0.335938 6.695312 0.335938 C 6.917969 0.335938 7.109375 0.414062 7.265625 0.570312 L 10.679688 3.984375 C 10.835938 4.140625 10.914062 4.332031 10.914062 4.554688 C 10.914062 4.625 10.902344 4.699219 10.878906 4.769531 C 10.851562 4.84375 10.828125 4.90625 10.800781 4.957031 C 10.777344 5.003906 10.734375 5.066406 10.671875 5.140625 C 10.609375 5.210938 10.566406 5.261719 10.535156 5.292969 C 10.503906 5.324219 10.445312 5.378906 10.363281 5.453125 C 10.277344 5.527344 10.230469 5.574219 10.210938 5.589844 C 10.042969 5.746094 9.855469 5.824219 9.644531 5.824219 C 9.585938 5.824219 9.535156 5.820312 9.492188 5.8125 C 9.449219 5.804688 9.402344 5.789062 9.355469 5.765625 C 9.304688 5.746094 9.269531 5.726562 9.242188 5.71875 C 9.214844 5.707031 9.175781 5.679688 9.128906 5.632812 C 9.082031 5.589844 9.046875 5.5625 9.03125 5.550781 C 9.015625 5.539062 8.980469 5.503906 8.921875 5.445312 C 8.867188 5.386719 8.832031 5.351562 8.824219 5.339844 C 8.902344 5.417969 8.941406 5.511719 8.941406 5.625 C 8.941406 5.738281 8.902344 5.832031 8.824219 5.910156 L 7.769531 6.964844 L 9.910156 9.105469 C 10.152344 8.867188 10.417969 8.746094 10.714844 8.746094 C 11.003906 8.746094 11.257812 8.851562 11.476562 9.058594 L 14.515625 12.09375 C 14.722656 12.3125 14.824219 12.566406 14.824219 12.855469 Z M 14.824219 12.855469 "/>
  </g>
</svg>