<?xml version="1.0" encoding="UTF-8" standalone="yes"?>
<svg xmlns="http://www.w3.org/2000/svg" xmlns:xlink="http://www.w3.org/1999/xlink" width="20px" height="20px" viewBox="0 0 15 15" version="1.1">
  <g id="surface1">
    <path style=" stroke:none;fill-rule:nonzero;fill:rgb(0%,0%,0%);fill-opacity:1;" d="M 3.214844 9.910156 L 3.214844 10.445312 C 3.214844 10.519531 3.1875 10.582031 3.132812 10.632812 C 3.082031 10.6875 3.019531 10.714844 2.945312 10.714844 L 2.410156 10.714844 C 2.339844 10.714844 2.273438 10.6875 2.222656 10.632812 C 2.167969 10.582031 2.144531 10.519531 2.144531 10.445312 L 2.144531 9.910156 C 2.144531 9.839844 2.167969 9.773438 2.222656 9.722656 C 2.273438 9.667969 2.339844 9.644531 2.410156 9.644531 L 2.945312 9.644531 C 3.019531 9.644531 3.082031 9.667969 3.132812 9.722656 C 3.1875 9.773438 3.214844 9.839844 3.214844 9.910156 Z M 3.214844 7.769531 L 3.214844 8.304688 C 3.214844 8.375 3.1875 8.4375 3.132812 8.492188 C 3.082031 8.546875 3.019531 8.570312 2.945312 8.570312 L 2.410156 8.570312 C 2.339844 8.570312 2.273438 8.546875 2.222656 8.492188 C 2.167969 8.4375 2.144531 8.375 2.144531 8.304688 L 2.144531 7.769531 C 2.144531 7.695312 2.167969 7.632812 2.222656 7.578125 C 2.273438 7.527344 2.339844 7.5 2.410156 7.5 L 2.945312 7.5 C 3.019531 7.5 3.082031 7.527344 3.132812 7.578125 C 3.1875 7.632812 3.214844 7.695312 3.214844 7.769531 Z M 3.214844 5.625 L 3.214844 6.160156 C 3.214844 6.234375 3.1875 6.296875 3.132812 6.347656 C 3.082031 6.402344 3.019531 6.429688 2.945312 6.429688 L 2.410156 6.429688 C 2.339844 6.429688 2.273438 6.402344 2.222656 6.347656 C 2.167969 6.296875 2.144531 6.234375 2.144531 6.160156 L 2.144531 5.625 C 2.144531 5.550781 2.167969 5.488281 2.222656 5.4375 C 2.273438 5.382812 2.339844 5.355469 2.410156 5.355469 L 2.945312 5.355469 C 3.019531 5.355469 3.082031 5.382812 3.132812 5.4375 C 3.1875 5.488281 3.214844 5.550781 3.214844 5.625 Z M 12.855469 9.910156 L 12.855469 10.445312 C 12.855469 10.519531 12.832031 10.582031 12.777344 10.632812 C 12.722656 10.6875 12.660156 10.714844 12.589844 10.714844 L 4.554688 10.714844 C 4.480469 10.714844 4.417969 10.6875 4.367188 10.632812 C 4.3125 10.582031 4.285156 10.519531 4.285156 10.445312 L 4.285156 9.910156 C 4.285156 9.839844 4.3125 9.773438 4.367188 9.722656 C 4.417969 9.667969 4.480469 9.644531 4.554688 9.644531 L 12.589844 9.644531 C 12.660156 9.644531 12.722656 9.667969 12.777344 9.722656 C 12.832031 9.773438 12.855469 9.839844 12.855469 9.910156 Z M 12.855469 7.769531 L 12.855469 8.304688 C 12.855469 8.375 12.832031 8.4375 12.777344 8.492188 C 12.722656 8.546875 12.660156 8.570312 12.589844 8.570312 L 4.554688 8.570312 C 4.480469 8.570312 4.417969 8.546875 4.367188 8.492188 C 4.3125 8.4375 4.285156 8.375 4.285156 8.304688 L 4.285156 7.769531 C 4.285156 7.695312 4.3125 7.632812 4.367188 7.578125 C 4.417969 7.527344 4.480469 7.5 4.554688 7.5 L 12.589844 7.5 C 12.660156 7.5 12.722656 7.527344 12.777344 7.578125 C 12.832031 7.632812 12.855469 7.695312 12.855469 7.769531 Z M 12.855469 5.625 L 12.855469 6.160156 C 12.855469 6.234375 12.832031 6.296875 12.777344 6.347656 C 12.722656 6.402344 12.660156 6.429688 12.589844 6.429688 L 4.554688 6.429688 C 4.480469 6.429688 4.417969 6.402344 4.367188 6.347656 C 4.3125 6.296875 4.285156 6.234375 4.285156 6.160156 L 4.285156 5.625 C 4.285156 5.550781 4.3125 5.488281 4.367188 5.4375 C 4.417969 5.382812 4.480469 5.355469 4.554688 5.355469 L 12.589844 5.355469 C 12.660156 5.355469 12.722656 5.382812 12.777344 5.4375 C 12.832031 5.488281 12.855469 5.550781 12.855469 5.625 Z M 13.929688 11.519531 L 13.929688 4.554688 C 13.929688 4.480469 13.902344 4.417969 13.847656 4.367188 C 13.796875 4.3125 13.734375 4.285156 13.660156 4.285156 L 1.339844 4.285156 C 1.265625 4.285156 1.203125 4.3125 1.152344 4.367188 C 1.097656 4.417969 1.070312 4.480469 1.070312 4.554688 L 1.070312 11.519531 C 1.070312 11.589844 1.097656 11.652344 1.152344 11.707031 C 1.203125 11.757812 1.265625 11.785156 1.339844 11.785156 L 13.660156 11.785156 C 13.734375 11.785156 13.796875 11.757812 13.847656 11.707031 C 13.902344 11.652344 13.929688 11.589844 13.929688 11.519531 Z M 15 2.410156 L 15 11.519531 C 15 11.886719 14.867188 12.203125 14.605469 12.464844 C 14.34375 12.726562 14.027344 12.855469 13.660156 12.855469 L 1.339844 12.855469 C 0.972656 12.855469 0.65625 12.726562 0.394531 12.464844 C 0.132812 12.203125 0 11.886719 0 11.519531 L 0 2.410156 C 0 2.042969 0.132812 1.726562 0.394531 1.464844 C 0.65625 1.203125 0.972656 1.070312 1.339844 1.070312 L 13.660156 1.070312 C 14.027344 1.070312 14.34375 1.203125 14.605469 1.464844 C 14.867188 1.726562 15 2.042969 15 2.410156 Z M 15 2.410156 "/>
  </g>
</svg>