<svg version="1.1" xmlns="http://www.w3.org/2000/svg" xlink="http://www.w3.org/1999/xlink" x="0px" y="0px" width="15px" height="15px" viewBox="0 0 15 15" style="enable-background:new 0 0 15 15;" space="preserve">
    <path d="M10.6875,4.125C10.640625,4.234375,10.558594,4.285156,10.445312,4.285156L8.570312,4.285156L8.570312,14.730469C8.570312,14.808594,8.546875,14.875,8.496094,14.925781C8.445312,14.976562,8.382812,15,8.304688,15L6.695312,15C6.617188,15,6.554688,14.976562,6.503906,14.925781C6.453125,14.875,6.429688,14.808594,6.429688,14.730469L6.429688,4.285156L4.554688,4.285156C4.4375,4.285156,4.355469,4.234375,4.3125,4.125C4.265625,4.019531,4.28125,3.921875,4.351562,3.832031L7.28125,0.621094C7.339844,0.5625,7.402344,0.535156,7.476562,0.535156C7.554688,0.535156,7.621094,0.5625,7.675781,0.621094L10.648438,3.832031C10.71875,3.921875,10.734375,4.019531,10.6875,4.125ZM10.6875,4.125" fill="#FFFFFF"/>
    </svg>