<svg xmlns="http://www.w3.org/2000/svg" xlink="http://www.w3.org/1999/xlink" width="20px" height="20px" viewBox="0 0 15 15" version="1.1">
  <g id="surface1">
    <path d="M 10.6875 10.875 C 10.734375 10.980469 10.71875 11.078125 10.648438 11.167969 L 7.71875 14.378906 C 7.660156 14.4375 7.597656 14.464844 7.523438 14.464844 C 7.445312 14.464844 7.378906 14.4375 7.324219 14.378906 L 4.351562 11.167969 C 4.28125 11.078125 4.265625 10.980469 4.3125 10.875 C 4.359375 10.765625 4.441406 10.714844 4.554688 10.714844 L 6.429688 10.714844 L 6.429688 0.269531 C 6.429688 0.191406 6.453125 0.125 6.503906 0.0742188 C 6.554688 0.0234375 6.617188 0 6.695312 0 L 8.304688 0 C 8.382812 0 8.445312 0.0234375 8.496094 0.0742188 C 8.546875 0.125 8.570312 0.191406 8.570312 0.269531 L 8.570312 10.714844 L 10.445312 10.714844 C 10.5625 10.714844 10.644531 10.765625 10.6875 10.875 Z M 10.6875 10.875 " fill="#FFFFFF"/>
  </g>
</svg>