<svg version="1.1" xmlns="http://www.w3.org/2000/svg" xlink="http://www.w3.org/1999/xlink" x="0px" y="0px" width="15px" height="15px" viewBox="0 0 15 15" style="enable-background:new 0 0 15 15;" space="preserve">
    <path d="M3.480469,2.144531L9.375,2.144531C9.449219,2.144531,9.511719,2.167969,9.5625,2.222656C9.617188,2.273438,9.644531,2.339844,9.644531,2.417969L9.644531,9.644531L11.25,9.644531C11.472656,9.644531,11.636719,9.746094,11.734375,9.953125C11.835938,10.160156,11.8125,10.351562,11.660156,10.53125L8.980469,13.746094C8.882812,13.867188,8.746094,13.929688,8.570312,13.929688C8.398438,13.929688,8.261719,13.867188,8.160156,13.746094L5.484375,10.53125C5.335938,10.355469,5.3125,10.164062,5.40625,9.953125C5.507812,9.746094,5.667969,9.644531,5.894531,9.644531L7.5,9.644531L7.5,4.285156L4.820312,4.285156C4.742188,4.285156,4.671875,4.253906,4.613281,4.195312L3.273438,2.585938C3.199219,2.507812,3.1875,2.414062,3.238281,2.300781C3.289062,2.195312,3.371094,2.144531,3.480469,2.144531ZM3.480469,2.144531" fill="#FFFFFF"/>
    </svg>