<svg xmlns="http://www.w3.org/2000/svg" xlink="http://www.w3.org/1999/xlink" width="20px" height="20px" viewBox="0 0 15 15" version="1.1">
  <g id="surface1">
    <path d="M 16.070312 12.855469 L 16.070312 13.929688 L -1.070312 13.929688 L -1.070312 1.070312 L 0 1.070312 L 0 12.855469 Z M 15 2.410156 L 15 6.050781 C 15 6.167969 14.945312 6.25 14.835938 6.296875 C 14.726562 6.347656 14.628906 6.324219 14.539062 6.234375 L 13.527344 5.222656 L 8.226562 10.523438 C 8.171875 10.578125 8.109375 10.605469 8.035156 10.605469 C 7.964844 10.605469 7.898438 10.578125 7.84375 10.523438 L 5.894531 8.570312 L 2.410156 12.054688 L 0.804688 10.445312 L 5.699219 5.550781 C 5.757812 5.492188 5.820312 5.464844 5.894531 5.464844 C 5.964844 5.464844 6.03125 5.492188 6.085938 5.550781 L 8.035156 7.5 L 11.917969 3.617188 L 10.90625 2.601562 C 10.816406 2.515625 10.796875 2.414062 10.84375 2.304688 C 10.890625 2.195312 10.972656 2.144531 11.089844 2.144531 L 14.730469 2.144531 C 14.808594 2.144531 14.875 2.167969 14.925781 2.21875 C 14.976562 2.269531 15 2.332031 15 2.410156 Z M 15 2.410156 " fill="#FFFFFF"/>
  </g>
</svg>