<svg xmlns="http://www.w3.org/2000/svg" xlink="http://www.w3.org/1999/xlink" width="20px" height="20px" viewBox="0 0 15 15" version="1.1">
  <g id="surface1">
    <path d="M 14.773438 3.28125 L 16.070312 13.929688 C 15.339844 13.929688 14.625 13.769531 13.921875 13.453125 C 12.804688 12.945312 11.707031 12.691406 10.628906 12.691406 C 9.371094 12.691406 8.324219 13.101562 7.5 13.929688 C 6.675781 13.101562 5.628906 12.691406 4.371094 12.691406 C 3.292969 12.691406 2.195312 12.945312 1.078125 13.453125 C 0.367188 13.769531 -0.335938 13.929688 -1.03125 13.929688 L -1.070312 13.929688 L 0.226562 3.28125 C 1.476562 2.574219 2.820312 2.21875 4.261719 2.21875 C 5.5625 2.21875 6.640625 2.515625 7.5 3.105469 C 8.359375 2.515625 9.4375 2.21875 10.738281 2.21875 C 12.179688 2.21875 13.523438 2.574219 14.773438 3.28125 Z M 10.628906 11.542969 C 11.351562 11.542969 11.996094 11.621094 12.574219 11.78125 C 13.148438 11.941406 13.871094 12.203125 14.75 12.5625 L 13.710938 4.019531 C 12.757812 3.582031 11.730469 3.363281 10.628906 3.363281 C 9.378906 3.363281 8.335938 3.757812 7.5 4.546875 C 6.664062 3.757812 5.621094 3.363281 4.371094 3.363281 C 3.269531 3.363281 2.242188 3.582031 1.289062 4.019531 L 0.25 12.5625 C 0.835938 12.324219 1.296875 12.144531 1.636719 12.019531 C 1.972656 11.898438 2.386719 11.785156 2.878906 11.6875 C 3.371094 11.589844 3.867188 11.542969 4.371094 11.542969 C 5.496094 11.542969 6.539062 11.84375 7.5 12.445312 C 8.460938 11.84375 9.503906 11.542969 10.628906 11.542969 Z M 10.964844 11.257812 L 10.503906 3.667969 C 9.328125 3.6875 8.324219 4.121094 7.5 4.964844 C 6.652344 4.097656 5.609375 3.667969 4.371094 3.667969 C 3.386719 3.667969 2.449219 3.851562 1.558594 4.21875 L 0.601562 12.09375 C 1.292969 11.8125 1.933594 11.597656 2.515625 11.460938 C 3.097656 11.320312 3.714844 11.25 4.371094 11.25 C 5.535156 11.25 6.578125 11.535156 7.5 12.105469 C 8.460938 11.507812 9.503906 11.222656 10.628906 11.25 Z M 10.964844 11.257812 " fill="#FFFFFF"/>
  </g>
</svg>