<svg version="1.1" xmlns="http://www.w3.org/2000/svg" xlink="http://www.w3.org/1999/xlink" x="0px" y="0px" width="15px" height="15px" viewBox="0 0 15 15" style="enable-background:new 0 0 15 15;" space="preserve">
    <path d="M13.335938,2.921875L7.976562,13.636719C7.882812,13.832031,7.722656,13.929688,7.5,13.929688C7.472656,13.929688,7.429688,13.921875,7.375,13.910156C7.25,13.882812,7.152344,13.820312,7.078125,13.722656C7,13.625,6.964844,13.515625,6.964844,13.394531L6.964844,8.570312L2.144531,8.570312C2.019531,8.570312,1.910156,8.535156,1.8125,8.457031C1.714844,8.382812,1.652344,8.285156,1.625,8.160156C1.597656,8.039062,1.605469,7.921875,1.65625,7.808594C1.707031,7.699219,1.789062,7.613281,1.898438,7.558594L12.613281,2.203125C12.6875,2.164062,12.769531,2.144531,12.855469,2.144531C13.007812,2.144531,13.132812,2.195312,13.234375,2.300781C13.316406,2.378906,13.367188,2.476562,13.390625,2.589844C13.40625,2.703125,13.390625,2.816406,13.335938,2.921875ZM13.335938,2.921875" fill="#FFFFFF"/>
    </svg>