<svg xmlns="http://www.w3.org/2000/svg" xlink="http://www.w3.org/1999/xlink" width="20px" height="20px" viewBox="0 0 15 15" version="1.1">
  <g id="surface1">
    <path d="M 14.464844 7.476562 C 14.464844 7.554688 14.4375 7.621094 14.378906 7.675781 L 11.167969 10.640625 C 11.078125 10.71875 10.980469 10.734375 10.875 10.6875 C 10.765625 10.640625 10.714844 10.558594 10.714844 10.445312 L 10.714844 8.570312 L 0.269531 8.570312 C 0.191406 8.570312 0.125 8.546875 0.0742188 8.496094 C 0.0234375 8.445312 0 8.382812 0 8.304688 L 0 6.695312 C 0 6.617188 0.0234375 6.554688 0.0742188 6.503906 C 0.125 6.453125 0.191406 6.429688 0.269531 6.429688 L 10.714844 6.429688 L 10.714844 4.554688 C 10.714844 4.4375 10.765625 4.355469 10.875 4.3125 C 10.980469 4.265625 11.078125 4.28125 11.167969 4.351562 L 14.378906 7.28125 C 14.4375 7.339844 14.464844 7.402344 14.464844 7.476562 Z M 14.464844 7.476562 " fill="#FFFFFF"/>
  </g>
</svg>