<svg xmlns="http://www.w3.org/2000/svg" xlink="http://www.w3.org/1999/xlink" width="20px" height="20px" viewBox="0 0 15 15" version="1.1">
  <g id="surface1">
    <path d="M 2.945312 10.714844 C 2.578125 10.714844 2.261719 10.582031 2 10.320312 C 1.738281 10.058594 1.605469 9.742188 1.605469 9.375 L 1.605469 3.480469 C 1.605469 3.113281 1.738281 2.796875 2 2.535156 C 2.261719 2.273438 2.578125 2.144531 2.945312 2.144531 L 12.054688 2.144531 C 12.421875 2.144531 12.738281 2.273438 13 2.535156 C 13.261719 2.796875 13.394531 3.113281 13.394531 3.480469 L 13.394531 9.375 C 13.394531 9.742188 13.261719 10.058594 13 10.320312 C 12.738281 10.582031 12.421875 10.714844 12.054688 10.714844 Z M 2.679688 3.480469 L 2.679688 9.375 C 2.679688 9.449219 2.703125 9.511719 2.757812 9.5625 C 2.8125 9.617188 2.875 9.644531 2.945312 9.644531 L 12.054688 9.644531 C 12.125 9.644531 12.1875 9.617188 12.242188 9.5625 C 12.292969 9.511719 12.320312 9.449219 12.320312 9.375 L 12.320312 3.480469 C 12.320312 3.410156 12.292969 3.347656 12.242188 3.292969 C 12.1875 3.242188 12.125 3.214844 12.054688 3.214844 L 2.945312 3.214844 C 2.875 3.214844 2.8125 3.242188 2.757812 3.292969 C 2.703125 3.347656 2.679688 3.410156 2.679688 3.480469 Z M 14.195312 11.25 L 15.535156 11.25 L 15.535156 12.054688 C 15.535156 12.277344 15.40625 12.464844 15.140625 12.621094 C 14.878906 12.777344 14.566406 12.855469 14.195312 12.855469 L 0.804688 12.855469 C 0.433594 12.855469 0.121094 12.777344 -0.140625 12.621094 C -0.40625 12.464844 -0.535156 12.277344 -0.535156 12.054688 L -0.535156 11.25 Z M 8.167969 12.054688 C 8.257812 12.054688 8.304688 12.007812 8.304688 11.917969 C 8.304688 11.832031 8.257812 11.785156 8.167969 11.785156 L 6.832031 11.785156 C 6.742188 11.785156 6.695312 11.832031 6.695312 11.917969 C 6.695312 12.007812 6.742188 12.054688 6.832031 12.054688 Z M 8.167969 12.054688 " fill="#FFFFFF"/>
  </g>
</svg>