<?xml version="1.0" encoding="UTF-8" standalone="yes"?>
<svg xmlns="http://www.w3.org/2000/svg" xmlns:xlink="http://www.w3.org/1999/xlink" width="20px" height="20px" viewBox="0 0 15 15" version="1.1">
  <g id="surface1">
    <path style=" stroke:none;fill-rule:nonzero;fill:rgb(0%,0%,0%);fill-opacity:1;" d="M 3.992188 5.230469 L 3.992188 13.527344 L 1.230469 13.527344 L 1.230469 5.230469 Z M 4.167969 2.671875 C 4.175781 3.078125 4.03125 3.417969 3.746094 3.691406 C 3.457031 3.964844 3.082031 4.101562 2.613281 4.101562 L 2.59375 4.101562 C 2.136719 4.101562 1.769531 3.964844 1.488281 3.691406 C 1.210938 3.417969 1.070312 3.078125 1.070312 2.671875 C 1.070312 2.257812 1.214844 1.914062 1.503906 1.644531 C 1.789062 1.375 2.164062 1.238281 2.628906 1.238281 C 3.089844 1.238281 3.460938 1.375 3.742188 1.644531 C 4.019531 1.914062 4.164062 2.257812 4.167969 2.671875 Z M 13.929688 8.773438 L 13.929688 13.527344 L 11.175781 13.527344 L 11.175781 9.089844 C 11.175781 8.503906 11.0625 8.046875 10.835938 7.714844 C 10.609375 7.382812 10.257812 7.214844 9.777344 7.214844 C 9.425781 7.214844 9.128906 7.3125 8.894531 7.503906 C 8.65625 7.695312 8.480469 7.933594 8.363281 8.21875 C 8.300781 8.386719 8.269531 8.613281 8.269531 8.898438 L 8.269531 13.527344 L 5.515625 13.527344 C 5.527344 11.300781 5.53125 9.496094 5.53125 8.109375 C 5.53125 6.726562 5.53125 5.902344 5.523438 5.632812 L 5.515625 5.230469 L 8.269531 5.230469 L 8.269531 6.4375 L 8.253906 6.4375 C 8.363281 6.257812 8.480469 6.101562 8.597656 5.96875 C 8.714844 5.835938 8.871094 5.6875 9.070312 5.53125 C 9.265625 5.375 9.511719 5.253906 9.796875 5.167969 C 10.085938 5.082031 10.40625 5.039062 10.757812 5.039062 C 11.710938 5.039062 12.476562 5.355469 13.058594 5.988281 C 13.636719 6.621094 13.929688 7.550781 13.929688 8.773438 Z M 13.929688 8.773438 "/>
  </g>
</svg>