<?xml version="1.0" encoding="UTF-8" standalone="yes"?>
<svg xmlns="http://www.w3.org/2000/svg" xmlns:xlink="http://www.w3.org/1999/xlink" width="20px" height="20px" viewBox="0 0 15 15" version="1.1">
  <g id="surface1">
    <path style=" stroke:none;fill-rule:nonzero;fill:rgb(0%,0%,0%);fill-opacity:1;" d="M 3.214844 11.785156 C 3.214844 12.230469 3.058594 12.613281 2.746094 12.925781 C 2.433594 13.238281 2.054688 13.394531 1.605469 13.394531 C 1.160156 13.394531 0.78125 13.238281 0.46875 12.925781 C 0.15625 12.613281 0 12.230469 0 11.785156 C 0 11.339844 0.15625 10.960938 0.46875 10.648438 C 0.78125 10.335938 1.160156 10.179688 1.605469 10.179688 C 2.054688 10.179688 2.433594 10.335938 2.746094 10.648438 C 3.058594 10.960938 3.214844 11.339844 3.214844 11.785156 Z M 3.214844 7.5 C 3.214844 7.945312 3.058594 8.324219 2.746094 8.636719 C 2.433594 8.949219 2.054688 9.105469 1.605469 9.105469 C 1.160156 9.105469 0.78125 8.949219 0.46875 8.636719 C 0.15625 8.324219 0 7.945312 0 7.5 C 0 7.054688 0.15625 6.675781 0.46875 6.363281 C 0.78125 6.050781 1.160156 5.894531 1.605469 5.894531 C 2.054688 5.894531 2.433594 6.050781 2.746094 6.363281 C 3.058594 6.675781 3.214844 7.054688 3.214844 7.5 Z M 15 10.980469 L 15 12.589844 C 15 12.660156 14.972656 12.722656 14.921875 12.777344 C 14.867188 12.832031 14.804688 12.855469 14.730469 12.855469 L 4.554688 12.855469 C 4.480469 12.855469 4.417969 12.832031 4.367188 12.777344 C 4.3125 12.722656 4.285156 12.660156 4.285156 12.589844 L 4.285156 10.980469 C 4.285156 10.910156 4.3125 10.847656 4.367188 10.792969 C 4.417969 10.742188 4.480469 10.714844 4.554688 10.714844 L 14.730469 10.714844 C 14.804688 10.714844 14.867188 10.742188 14.921875 10.792969 C 14.972656 10.847656 15 10.910156 15 10.980469 Z M 3.214844 3.214844 C 3.214844 3.660156 3.058594 4.039062 2.746094 4.351562 C 2.433594 4.664062 2.054688 4.820312 1.605469 4.820312 C 1.160156 4.820312 0.78125 4.664062 0.46875 4.351562 C 0.15625 4.039062 0 3.660156 0 3.214844 C 0 2.769531 0.15625 2.386719 0.46875 2.074219 C 0.78125 1.761719 1.160156 1.605469 1.605469 1.605469 C 2.054688 1.605469 2.433594 1.761719 2.746094 2.074219 C 3.058594 2.386719 3.214844 2.769531 3.214844 3.214844 Z M 15 6.695312 L 15 8.304688 C 15 8.375 14.972656 8.4375 14.921875 8.492188 C 14.867188 8.546875 14.804688 8.570312 14.730469 8.570312 L 4.554688 8.570312 C 4.480469 8.570312 4.417969 8.546875 4.367188 8.492188 C 4.3125 8.4375 4.285156 8.375 4.285156 8.304688 L 4.285156 6.695312 C 4.285156 6.625 4.3125 6.5625 4.367188 6.507812 C 4.417969 6.453125 4.480469 6.429688 4.554688 6.429688 L 14.730469 6.429688 C 14.804688 6.429688 14.867188 6.453125 14.921875 6.507812 C 14.972656 6.5625 15 6.625 15 6.695312 Z M 15 2.410156 L 15 4.019531 C 15 4.089844 14.972656 4.152344 14.921875 4.207031 C 14.867188 4.257812 14.804688 4.285156 14.730469 4.285156 L 4.554688 4.285156 C 4.480469 4.285156 4.417969 4.257812 4.367188 4.207031 C 4.3125 4.152344 4.285156 4.089844 4.285156 4.019531 L 4.285156 2.410156 C 4.285156 2.339844 4.3125 2.273438 4.367188 2.222656 C 4.417969 2.167969 4.480469 2.144531 4.554688 2.144531 L 14.730469 2.144531 C 14.804688 2.144531 14.867188 2.167969 14.921875 2.222656 C 14.972656 2.273438 15 2.339844 15 2.410156 Z M 15 2.410156 "/>
  </g>
</svg>