<svg xmlns="http://www.w3.org/2000/svg" xlink="http://www.w3.org/1999/xlink" width="20px" height="20px" viewBox="0 0 15 15" version="1.1">
  <g id="surface1">
    <path d="M 10.714844 5.894531 C 10.714844 5.746094 10.660156 5.621094 10.554688 5.515625 C 10.449219 5.410156 10.324219 5.355469 10.179688 5.355469 C 9.21875 5.355469 8.332031 5.496094 7.515625 5.773438 C 6.703125 6.046875 5.976562 6.421875 5.34375 6.894531 C 4.710938 7.363281 4.054688 7.976562 3.375 8.730469 C 3.265625 8.847656 3.214844 8.972656 3.214844 9.105469 C 3.214844 9.253906 3.265625 9.378906 3.375 9.484375 C 3.480469 9.589844 3.605469 9.644531 3.75 9.644531 C 3.882812 9.644531 4.007812 9.589844 4.125 9.484375 C 4.277344 9.351562 4.484375 9.152344 4.746094 8.890625 C 5.007812 8.628906 5.195312 8.441406 5.308594 8.335938 C 6.070312 7.644531 6.820312 7.152344 7.554688 6.863281 C 8.289062 6.574219 9.164062 6.429688 10.179688 6.429688 C 10.324219 6.429688 10.449219 6.375 10.554688 6.269531 C 10.660156 6.164062 10.714844 6.039062 10.714844 5.894531 Z M 15 4.234375 C 15 4.765625 14.945312 5.304688 14.832031 5.851562 C 14.574219 7.101562 14.0625 8.167969 13.289062 9.058594 C 12.515625 9.945312 11.519531 10.691406 10.296875 11.300781 C 9.101562 11.902344 7.878906 12.203125 6.628906 12.203125 C 5.804688 12.203125 5.003906 12.074219 4.234375 11.8125 C 4.152344 11.78125 3.90625 11.664062 3.5 11.460938 C 3.089844 11.253906 2.824219 11.148438 2.695312 11.148438 C 2.605469 11.148438 2.496094 11.238281 2.363281 11.417969 C 2.234375 11.597656 2.109375 11.792969 1.988281 12.003906 C 1.867188 12.214844 1.722656 12.410156 1.546875 12.589844 C 1.375 12.769531 1.207031 12.855469 1.046875 12.855469 C 0.878906 12.855469 0.738281 12.828125 0.621094 12.765625 C 0.503906 12.703125 0.414062 12.636719 0.359375 12.5625 C 0.304688 12.492188 0.230469 12.375 0.132812 12.210938 C 0.121094 12.191406 0.105469 12.160156 0.0820312 12.121094 C 0.0625 12.082031 0.046875 12.054688 0.0390625 12.035156 C 0.03125 12.019531 0.0195312 11.992188 0.0117188 11.957031 C 0.00390625 11.921875 0 11.882812 0 11.84375 C 0 11.648438 0.0859375 11.445312 0.257812 11.230469 C 0.433594 11.015625 0.621094 10.832031 0.828125 10.679688 C 1.035156 10.53125 1.226562 10.375 1.398438 10.210938 C 1.570312 10.050781 1.65625 9.917969 1.65625 9.808594 C 1.65625 9.789062 1.617188 9.683594 1.539062 9.492188 C 1.460938 9.300781 1.417969 9.179688 1.40625 9.125 C 1.355469 8.839844 1.332031 8.550781 1.332031 8.253906 C 1.332031 7.613281 1.453125 6.996094 1.695312 6.410156 C 1.9375 5.824219 2.269531 5.3125 2.691406 4.867188 C 3.113281 4.421875 3.589844 4.035156 4.117188 3.703125 C 4.648438 3.371094 5.21875 3.105469 5.824219 2.90625 C 6.132812 2.804688 6.539062 2.734375 7.039062 2.691406 C 7.542969 2.648438 8.042969 2.625 8.542969 2.617188 C 9.042969 2.609375 9.539062 2.589844 10.035156 2.566406 C 10.53125 2.539062 10.988281 2.472656 11.40625 2.363281 C 11.820312 2.257812 12.136719 2.097656 12.355469 1.890625 L 12.601562 1.644531 L 12.847656 1.410156 L 13.074219 1.242188 L 13.378906 1.109375 L 13.746094 1.070312 C 13.960938 1.070312 14.160156 1.199219 14.335938 1.457031 C 14.511719 1.714844 14.644531 2.027344 14.730469 2.394531 C 14.820312 2.761719 14.886719 3.109375 14.933594 3.433594 C 14.976562 3.753906 15 4.023438 15 4.234375 Z M 15 4.234375 " fill="#FFFFFF"/>
  </g>
</svg>