<?xml version="1.0" encoding="UTF-8" standalone="yes"?>
<svg xmlns="http://www.w3.org/2000/svg" xmlns:xlink="http://www.w3.org/1999/xlink" width="20px" height="20px" viewBox="0 0 15 15" version="1.1">
  <g id="surface1">
    <path style=" stroke:none;fill-rule:nonzero;fill:rgb(0%,0%,0%);fill-opacity:1;" d="M 2.144531 10.980469 L 2.144531 12.589844 C 2.144531 12.660156 2.117188 12.722656 2.0625 12.777344 C 2.011719 12.832031 1.949219 12.855469 1.875 12.855469 L 0.269531 12.855469 C 0.195312 12.855469 0.132812 12.832031 0.078125 12.777344 C 0.0273438 12.722656 0 12.660156 0 12.589844 L 0 10.980469 C 0 10.910156 0.0273438 10.847656 0.078125 10.792969 C 0.132812 10.742188 0.195312 10.714844 0.269531 10.714844 L 1.875 10.714844 C 1.949219 10.714844 2.011719 10.742188 2.0625 10.792969 C 2.117188 10.847656 2.144531 10.910156 2.144531 10.980469 Z M 2.144531 7.769531 L 2.144531 9.375 C 2.144531 9.449219 2.117188 9.511719 2.0625 9.5625 C 2.011719 9.617188 1.949219 9.644531 1.875 9.644531 L 0.269531 9.644531 C 0.195312 9.644531 0.132812 9.617188 0.078125 9.5625 C 0.0273438 9.511719 0 9.449219 0 9.375 L 0 7.769531 C 0 7.695312 0.0273438 7.632812 0.078125 7.578125 C 0.132812 7.527344 0.195312 7.5 0.269531 7.5 L 1.875 7.5 C 1.949219 7.5 2.011719 7.527344 2.0625 7.578125 C 2.117188 7.632812 2.144531 7.695312 2.144531 7.769531 Z M 2.144531 4.554688 L 2.144531 6.160156 C 2.144531 6.234375 2.117188 6.296875 2.0625 6.347656 C 2.011719 6.402344 1.949219 6.429688 1.875 6.429688 L 0.269531 6.429688 C 0.195312 6.429688 0.132812 6.402344 0.078125 6.347656 C 0.0273438 6.296875 0 6.234375 0 6.160156 L 0 4.554688 C 0 4.480469 0.0273438 4.417969 0.078125 4.367188 C 0.132812 4.3125 0.195312 4.285156 0.269531 4.285156 L 1.875 4.285156 C 1.949219 4.285156 2.011719 4.3125 2.0625 4.367188 C 2.117188 4.417969 2.144531 4.480469 2.144531 4.554688 Z M 15 10.980469 L 15 12.589844 C 15 12.660156 14.972656 12.722656 14.921875 12.777344 C 14.867188 12.832031 14.804688 12.855469 14.730469 12.855469 L 3.480469 12.855469 C 3.410156 12.855469 3.347656 12.832031 3.292969 12.777344 C 3.242188 12.722656 3.214844 12.660156 3.214844 12.589844 L 3.214844 10.980469 C 3.214844 10.910156 3.242188 10.847656 3.292969 10.792969 C 3.347656 10.742188 3.410156 10.714844 3.480469 10.714844 L 14.730469 10.714844 C 14.804688 10.714844 14.867188 10.742188 14.921875 10.792969 C 14.972656 10.847656 15 10.910156 15 10.980469 Z M 2.144531 1.339844 L 2.144531 2.945312 C 2.144531 3.019531 2.117188 3.082031 2.0625 3.132812 C 2.011719 3.1875 1.949219 3.214844 1.875 3.214844 L 0.269531 3.214844 C 0.195312 3.214844 0.132812 3.1875 0.078125 3.132812 C 0.0273438 3.082031 0 3.019531 0 2.945312 L 0 1.339844 C 0 1.265625 0.0273438 1.203125 0.078125 1.152344 C 0.132812 1.097656 0.195312 1.070312 0.269531 1.070312 L 1.875 1.070312 C 1.949219 1.070312 2.011719 1.097656 2.0625 1.152344 C 2.117188 1.203125 2.144531 1.265625 2.144531 1.339844 Z M 15 7.769531 L 15 9.375 C 15 9.449219 14.972656 9.511719 14.921875 9.5625 C 14.867188 9.617188 14.804688 9.644531 14.730469 9.644531 L 3.480469 9.644531 C 3.410156 9.644531 3.347656 9.617188 3.292969 9.5625 C 3.242188 9.511719 3.214844 9.449219 3.214844 9.375 L 3.214844 7.769531 C 3.214844 7.695312 3.242188 7.632812 3.292969 7.578125 C 3.347656 7.527344 3.410156 7.5 3.480469 7.5 L 14.730469 7.5 C 14.804688 7.5 14.867188 7.527344 14.921875 7.578125 C 14.972656 7.632812 15 7.695312 15 7.769531 Z M 15 4.554688 L 15 6.160156 C 15 6.234375 14.972656 6.296875 14.921875 6.347656 C 14.867188 6.402344 14.804688 6.429688 14.730469 6.429688 L 3.480469 6.429688 C 3.410156 6.429688 3.347656 6.402344 3.292969 6.347656 C 3.242188 6.296875 3.214844 6.234375 3.214844 6.160156 L 3.214844 4.554688 C 3.214844 4.480469 3.242188 4.417969 3.292969 4.367188 C 3.347656 4.3125 3.410156 4.285156 3.480469 4.285156 L 14.730469 4.285156 C 14.804688 4.285156 14.867188 4.3125 14.921875 4.367188 C 14.972656 4.417969 15 4.480469 15 4.554688 Z M 15 1.339844 L 15 2.945312 C 15 3.019531 14.972656 3.082031 14.921875 3.132812 C 14.867188 3.1875 14.804688 3.214844 14.730469 3.214844 L 3.480469 3.214844 C 3.410156 3.214844 3.347656 3.1875 3.292969 3.132812 C 3.242188 3.082031 3.214844 3.019531 3.214844 2.945312 L 3.214844 1.339844 C 3.214844 1.265625 3.242188 1.203125 3.292969 1.152344 C 3.347656 1.097656 3.410156 1.070312 3.480469 1.070312 L 14.730469 1.070312 C 14.804688 1.070312 14.867188 1.097656 14.921875 1.152344 C 14.972656 1.203125 15 1.265625 15 1.339844 Z M 15 1.339844 "/>
  </g>
</svg>