<?xml version="1.0" encoding="UTF-8" standalone="yes"?>
<svg xmlns="http://www.w3.org/2000/svg" xmlns:xlink="http://www.w3.org/1999/xlink" width="20px" height="20px" viewBox="0 0 15 15" version="1.1">
  <g id="surface1">
    <path style=" stroke:none;fill-rule:nonzero;fill:rgb(0%,0%,0%);fill-opacity:1;" d="M 11.734375 5.046875 C 11.636719 5.253906 11.472656 5.355469 11.25 5.355469 L 9.644531 5.355469 L 9.644531 12.589844 C 9.644531 12.667969 9.617188 12.730469 9.566406 12.78125 C 9.515625 12.832031 9.453125 12.855469 9.375 12.855469 L 3.480469 12.855469 C 3.363281 12.855469 3.285156 12.808594 3.238281 12.707031 C 3.195312 12.59375 3.207031 12.496094 3.273438 12.414062 L 4.613281 10.804688 C 4.664062 10.746094 4.730469 10.714844 4.820312 10.714844 L 7.5 10.714844 L 7.5 5.355469 L 5.894531 5.355469 C 5.667969 5.355469 5.507812 5.253906 5.40625 5.046875 C 5.3125 4.839844 5.335938 4.652344 5.484375 4.476562 L 8.160156 1.265625 C 8.261719 1.140625 8.398438 1.078125 8.570312 1.078125 C 8.746094 1.078125 8.882812 1.140625 8.980469 1.265625 L 11.660156 4.476562 C 11.8125 4.65625 11.835938 4.847656 11.734375 5.046875 Z M 11.734375 5.046875 "/>
  </g>
</svg>