<?xml version="1.0" encoding="UTF-8" standalone="yes"?>
<svg xmlns="http://www.w3.org/2000/svg" xmlns:xlink="http://www.w3.org/1999/xlink" width="20px" height="20px" viewBox="0 0 15 15" version="1.1">
  <g id="surface1">
    <path style=" stroke:none;fill-rule:nonzero;fill:rgb(0%,0%,0%);fill-opacity:1;" d="M 3.480469 2.144531 L 9.375 2.144531 C 9.449219 2.144531 9.511719 2.167969 9.5625 2.222656 C 9.617188 2.273438 9.644531 2.339844 9.644531 2.417969 L 9.644531 9.644531 L 11.25 9.644531 C 11.472656 9.644531 11.636719 9.746094 11.734375 9.953125 C 11.835938 10.160156 11.8125 10.351562 11.660156 10.53125 L 8.980469 13.746094 C 8.882812 13.867188 8.746094 13.929688 8.570312 13.929688 C 8.398438 13.929688 8.261719 13.867188 8.160156 13.746094 L 5.484375 10.53125 C 5.335938 10.355469 5.3125 10.164062 5.40625 9.953125 C 5.507812 9.746094 5.667969 9.644531 5.894531 9.644531 L 7.5 9.644531 L 7.5 4.285156 L 4.820312 4.285156 C 4.742188 4.285156 4.671875 4.253906 4.613281 4.195312 L 3.273438 2.585938 C 3.199219 2.507812 3.1875 2.414062 3.238281 2.300781 C 3.289062 2.195312 3.371094 2.144531 3.480469 2.144531 Z M 3.480469 2.144531 "/>
  </g>
</svg>