<?xml version="1.0" encoding="UTF-8" standalone="yes"?>
<svg xmlns="http://www.w3.org/2000/svg" xmlns:xlink="http://www.w3.org/1999/xlink" width="20px" height="20px" viewBox="0 0 15 15" version="1.1">
  <g id="surface1">
    <path style=" stroke:none;fill-rule:nonzero;fill:rgb(0%,0%,0%);fill-opacity:1;" d="M 3.1875 13.558594 C 3.1875 14.007812 3.035156 14.359375 2.734375 14.613281 C 2.429688 14.871094 2.050781 15 1.597656 15 C 1.007812 15 0.527344 14.816406 0.160156 14.449219 L 0.636719 13.710938 C 0.910156 13.960938 1.207031 14.085938 1.523438 14.085938 C 1.683594 14.085938 1.824219 14.046875 1.945312 13.964844 C 2.066406 13.886719 2.125 13.765625 2.125 13.609375 C 2.125 13.253906 1.832031 13.097656 1.246094 13.140625 L 1.03125 12.671875 C 1.074219 12.617188 1.164062 12.496094 1.300781 12.308594 C 1.4375 12.121094 1.558594 11.972656 1.65625 11.855469 C 1.757812 11.742188 1.859375 11.636719 1.96875 11.535156 L 1.96875 11.527344 C 1.878906 11.527344 1.742188 11.527344 1.5625 11.535156 C 1.378906 11.539062 1.246094 11.542969 1.15625 11.542969 L 1.15625 11.988281 L 0.269531 11.988281 L 0.269531 10.714844 L 3.054688 10.714844 L 3.054688 11.449219 L 2.261719 12.414062 C 2.542969 12.480469 2.769531 12.617188 2.9375 12.824219 C 3.105469 13.03125 3.1875 13.277344 3.1875 13.558594 Z M 3.207031 8.3125 L 3.207031 9.644531 L 0.175781 9.644531 C 0.140625 9.441406 0.125 9.292969 0.125 9.191406 C 0.125 8.90625 0.191406 8.648438 0.320312 8.414062 C 0.453125 8.179688 0.609375 7.988281 0.796875 7.84375 C 0.980469 7.699219 1.164062 7.566406 1.347656 7.445312 C 1.53125 7.324219 1.6875 7.203125 1.820312 7.082031 C 1.953125 6.957031 2.015625 6.832031 2.015625 6.703125 C 2.015625 6.566406 1.976562 6.457031 1.894531 6.382812 C 1.816406 6.308594 1.703125 6.269531 1.566406 6.269531 C 1.308594 6.269531 1.082031 6.429688 0.886719 6.753906 L 0.175781 6.261719 C 0.308594 5.976562 0.507812 5.753906 0.773438 5.59375 C 1.039062 5.4375 1.332031 5.355469 1.65625 5.355469 C 2.066406 5.355469 2.40625 5.472656 2.6875 5.703125 C 2.964844 5.9375 3.105469 6.25 3.105469 6.644531 C 3.105469 6.925781 3.011719 7.179688 2.820312 7.414062 C 2.632812 7.644531 2.421875 7.824219 2.191406 7.953125 C 1.964844 8.082031 1.753906 8.222656 1.5625 8.375 C 1.367188 8.527344 1.269531 8.675781 1.265625 8.8125 L 2.328125 8.8125 L 2.328125 8.3125 Z M 15 10.980469 L 15 12.589844 C 15 12.660156 14.972656 12.722656 14.921875 12.777344 C 14.867188 12.832031 14.804688 12.855469 14.730469 12.855469 L 4.554688 12.855469 C 4.480469 12.855469 4.417969 12.832031 4.367188 12.777344 C 4.3125 12.722656 4.285156 12.660156 4.285156 12.589844 L 4.285156 10.980469 C 4.285156 10.902344 4.3125 10.839844 4.359375 10.789062 C 4.410156 10.738281 4.476562 10.714844 4.554688 10.714844 L 14.730469 10.714844 C 14.804688 10.714844 14.867188 10.742188 14.921875 10.792969 C 14.972656 10.847656 15 10.910156 15 10.980469 Z M 3.214844 3.457031 L 3.214844 4.285156 L 0.410156 4.285156 L 0.410156 3.457031 L 1.304688 3.457031 C 1.304688 3.226562 1.308594 2.886719 1.308594 2.4375 C 1.3125 1.984375 1.3125 1.644531 1.3125 1.421875 L 1.3125 1.324219 L 1.296875 1.324219 C 1.253906 1.417969 1.113281 1.566406 0.878906 1.773438 L 0.285156 1.136719 L 1.421875 0.0742188 L 2.308594 0.0742188 L 2.308594 3.457031 Z M 15 6.695312 L 15 8.304688 C 15 8.375 14.972656 8.4375 14.921875 8.492188 C 14.867188 8.546875 14.804688 8.570312 14.730469 8.570312 L 4.554688 8.570312 C 4.480469 8.570312 4.417969 8.546875 4.367188 8.492188 C 4.3125 8.4375 4.285156 8.375 4.285156 8.304688 L 4.285156 6.695312 C 4.285156 6.617188 4.3125 6.554688 4.359375 6.503906 C 4.410156 6.453125 4.476562 6.429688 4.554688 6.429688 L 14.730469 6.429688 C 14.804688 6.429688 14.867188 6.453125 14.921875 6.507812 C 14.972656 6.5625 15 6.625 15 6.695312 Z M 15 2.410156 L 15 4.019531 C 15 4.089844 14.972656 4.152344 14.921875 4.207031 C 14.867188 4.257812 14.804688 4.285156 14.730469 4.285156 L 4.554688 4.285156 C 4.480469 4.285156 4.417969 4.257812 4.367188 4.207031 C 4.3125 4.152344 4.285156 4.089844 4.285156 4.019531 L 4.285156 2.410156 C 4.285156 2.339844 4.3125 2.273438 4.367188 2.222656 C 4.417969 2.167969 4.480469 2.144531 4.554688 2.144531 L 14.730469 2.144531 C 14.804688 2.144531 14.867188 2.167969 14.921875 2.222656 C 14.972656 2.273438 15 2.339844 15 2.410156 Z M 15 2.410156 "/>
  </g>
</svg>