<?xml version="1.0" encoding="UTF-8" standalone="yes"?>
<svg xmlns="http://www.w3.org/2000/svg" xmlns:xlink="http://www.w3.org/1999/xlink" width="20px" height="20px" viewBox="0 0 15 15" version="1.1">
  <g id="surface1">
    <path style=" stroke:none;fill-rule:nonzero;fill:rgb(0%,0%,0%);fill-opacity:1;" d="M 5.355469 6.429688 L 9.644531 6.429688 L 9.644531 4.820312 C 9.644531 4.230469 9.433594 3.726562 9.015625 3.304688 C 8.597656 2.886719 8.089844 2.679688 7.5 2.679688 C 6.910156 2.679688 6.402344 2.886719 5.984375 3.304688 C 5.566406 3.726562 5.355469 4.230469 5.355469 4.820312 Z M 12.320312 7.230469 L 12.320312 12.054688 C 12.320312 12.277344 12.242188 12.464844 12.085938 12.621094 C 11.929688 12.777344 11.742188 12.855469 11.519531 12.855469 L 3.480469 12.855469 C 3.257812 12.855469 3.070312 12.777344 2.914062 12.621094 C 2.757812 12.464844 2.679688 12.277344 2.679688 12.054688 L 2.679688 7.230469 C 2.679688 7.007812 2.757812 6.820312 2.914062 6.664062 C 3.070312 6.507812 3.257812 6.429688 3.480469 6.429688 L 3.75 6.429688 L 3.75 4.820312 C 3.75 3.792969 4.117188 2.914062 4.855469 2.175781 C 5.589844 1.441406 6.472656 1.070312 7.5 1.070312 C 8.527344 1.070312 9.410156 1.441406 10.144531 2.175781 C 10.882812 2.914062 11.25 3.792969 11.25 4.820312 L 11.25 6.429688 L 11.519531 6.429688 C 11.742188 6.429688 11.929688 6.507812 12.085938 6.664062 C 12.242188 6.820312 12.320312 7.007812 12.320312 7.230469 Z M 12.320312 7.230469 "/>
  </g>
</svg>