<?xml version="1.0" encoding="UTF-8" standalone="yes"?>
<svg xmlns="http://www.w3.org/2000/svg" xmlns:xlink="http://www.w3.org/1999/xlink" width="20px" height="20px" viewBox="0 0 15 15" version="1.1">
  <g id="surface1">
    <path style=" stroke:none;fill-rule:nonzero;fill:rgb(0%,0%,0%);fill-opacity:1;" d="M 7.5 0 C 8.515625 0 9.488281 0.199219 10.414062 0.59375 C 11.339844 0.992188 12.136719 1.523438 12.808594 2.191406 C 13.476562 2.863281 14.007812 3.660156 14.40625 4.585938 C 14.800781 5.511719 15 6.484375 15 7.5 C 15 8.515625 14.800781 9.488281 14.40625 10.414062 C 14.007812 11.339844 13.476562 12.136719 12.808594 12.808594 C 12.136719 13.476562 11.339844 14.007812 10.414062 14.40625 C 9.488281 14.800781 8.515625 15 7.5 15 C 6.484375 15 5.511719 14.800781 4.585938 14.40625 C 3.660156 14.007812 2.863281 13.476562 2.191406 12.808594 C 1.523438 12.136719 0.992188 11.339844 0.59375 10.414062 C 0.199219 9.488281 0 8.515625 0 7.5 C 0 6.484375 0.199219 5.511719 0.59375 4.585938 C 0.992188 3.660156 1.523438 2.863281 2.191406 2.191406 C 2.863281 1.523438 3.660156 0.992188 4.585938 0.59375 C 5.511719 0.199219 6.484375 0 7.5 0 Z M 7.5 1.070312 C 6.441406 1.070312 5.433594 1.324219 4.476562 1.824219 L 6.101562 3.449219 C 6.558594 3.292969 7.027344 3.214844 7.5 3.214844 C 7.972656 3.214844 8.441406 3.292969 8.898438 3.449219 L 10.523438 1.824219 C 9.566406 1.324219 8.558594 1.070312 7.5 1.070312 Z M 1.824219 10.523438 L 3.449219 8.898438 C 3.292969 8.441406 3.214844 7.972656 3.214844 7.5 C 3.214844 7.027344 3.292969 6.558594 3.449219 6.101562 L 1.824219 4.476562 C 1.324219 5.433594 1.070312 6.441406 1.070312 7.5 C 1.070312 8.558594 1.324219 9.566406 1.824219 10.523438 Z M 7.5 13.929688 C 8.558594 13.929688 9.566406 13.675781 10.523438 13.175781 L 8.898438 11.550781 C 8.441406 11.707031 7.972656 11.785156 7.5 11.785156 C 7.027344 11.785156 6.558594 11.707031 6.101562 11.550781 L 4.476562 13.175781 C 5.433594 13.675781 6.441406 13.929688 7.5 13.929688 Z M 7.5 10.714844 C 8.386719 10.714844 9.144531 10.398438 9.773438 9.773438 C 10.398438 9.144531 10.714844 8.386719 10.714844 7.5 C 10.714844 6.613281 10.398438 5.855469 9.773438 5.226562 C 9.144531 4.601562 8.386719 4.285156 7.5 4.285156 C 6.613281 4.285156 5.855469 4.601562 5.226562 5.226562 C 4.601562 5.855469 4.285156 6.613281 4.285156 7.5 C 4.285156 8.386719 4.601562 9.144531 5.226562 9.773438 C 5.855469 10.398438 6.613281 10.714844 7.5 10.714844 Z M 11.550781 8.898438 L 13.175781 10.523438 C 13.675781 9.566406 13.929688 8.558594 13.929688 7.5 C 13.929688 6.441406 13.675781 5.433594 13.175781 4.476562 L 11.550781 6.101562 C 11.707031 6.558594 11.785156 7.027344 11.785156 7.5 C 11.785156 7.972656 11.707031 8.441406 11.550781 8.898438 Z M 11.550781 8.898438 "/>
  </g>
</svg>