<svg xmlns="http://www.w3.org/2000/svg" xlink="http://www.w3.org/1999/xlink" width="20px" height="20px" viewBox="0 0 15 15" version="1.1">
  <g id="surface1">
    <path d="M 6.621094 3.441406 C 6.558594 3.445312 6.515625 3.476562 6.492188 3.527344 C 6.464844 3.582031 6.441406 3.609375 6.421875 3.609375 C 6.390625 3.613281 6.378906 3.597656 6.378906 3.566406 C 6.378906 3.5 6.429688 3.457031 6.539062 3.441406 Z M 7.347656 3.558594 C 7.328125 3.5625 7.296875 3.546875 7.253906 3.503906 C 7.210938 3.460938 7.164062 3.449219 7.105469 3.464844 C 7.242188 3.402344 7.328125 3.410156 7.375 3.480469 C 7.390625 3.515625 7.382812 3.539062 7.347656 3.558594 Z M 4.410156 7.132812 C 4.390625 7.125 4.371094 7.132812 4.359375 7.15625 C 4.351562 7.179688 4.335938 7.214844 4.324219 7.261719 C 4.308594 7.308594 4.292969 7.347656 4.277344 7.375 C 4.261719 7.402344 4.234375 7.4375 4.195312 7.484375 C 4.15625 7.539062 4.152344 7.574219 4.183594 7.582031 C 4.207031 7.589844 4.242188 7.570312 4.289062 7.523438 C 4.335938 7.480469 4.371094 7.429688 4.394531 7.375 C 4.398438 7.359375 4.40625 7.339844 4.410156 7.316406 C 4.417969 7.292969 4.421875 7.277344 4.429688 7.265625 C 4.433594 7.253906 4.4375 7.242188 4.441406 7.226562 C 4.441406 7.214844 4.445312 7.203125 4.445312 7.195312 L 4.445312 7.167969 L 4.4375 7.148438 Z M 11.566406 10.136719 C 11.566406 10.035156 11.414062 9.917969 11.109375 9.785156 C 11.128906 9.703125 11.152344 9.625 11.171875 9.554688 C 11.191406 9.484375 11.203125 9.414062 11.210938 9.335938 C 11.21875 9.261719 11.230469 9.203125 11.238281 9.15625 C 11.246094 9.113281 11.246094 9.050781 11.242188 8.96875 C 11.234375 8.886719 11.234375 8.832031 11.234375 8.804688 C 11.234375 8.777344 11.222656 8.714844 11.203125 8.621094 C 11.183594 8.527344 11.171875 8.46875 11.171875 8.449219 C 11.167969 8.429688 11.152344 8.359375 11.128906 8.242188 C 11.101562 8.121094 11.089844 8.046875 11.082031 8.019531 C 11.027344 7.75 10.894531 7.464844 10.6875 7.15625 C 10.484375 6.851562 10.28125 6.640625 10.085938 6.527344 C 10.21875 6.640625 10.378906 6.871094 10.5625 7.222656 C 11.050781 8.128906 11.199219 8.902344 11.015625 9.550781 C 10.953125 9.773438 10.816406 9.890625 10.597656 9.902344 C 10.425781 9.925781 10.316406 9.875 10.273438 9.746094 C 10.234375 9.621094 10.210938 9.390625 10.207031 9.046875 C 10.203125 8.707031 10.171875 8.410156 10.113281 8.152344 C 10.0625 7.933594 10.007812 7.742188 9.949219 7.574219 C 9.890625 7.40625 9.835938 7.28125 9.785156 7.195312 C 9.734375 7.109375 9.691406 7.039062 9.65625 6.988281 C 9.617188 6.9375 9.582031 6.898438 9.546875 6.863281 C 9.511719 6.832031 9.488281 6.8125 9.484375 6.804688 C 9.40625 6.460938 9.320312 6.171875 9.222656 5.941406 C 9.128906 5.714844 9.046875 5.558594 8.976562 5.472656 C 8.90625 5.390625 8.84375 5.296875 8.78125 5.199219 C 8.71875 5.097656 8.675781 4.984375 8.65625 4.863281 C 8.632812 4.746094 8.648438 4.597656 8.707031 4.414062 C 8.761719 4.234375 8.773438 4.097656 8.742188 4 C 8.710938 3.90625 8.589844 3.835938 8.371094 3.792969 C 8.285156 3.773438 8.164062 3.726562 8 3.640625 C 7.832031 3.558594 7.734375 3.511719 7.699219 3.507812 C 7.65625 3.5 7.625 3.429688 7.609375 3.289062 C 7.59375 3.148438 7.613281 3.007812 7.675781 2.863281 C 7.738281 2.71875 7.835938 2.640625 7.976562 2.636719 C 8.183594 2.621094 8.324219 2.703125 8.402344 2.886719 C 8.480469 3.070312 8.492188 3.234375 8.4375 3.375 C 8.375 3.480469 8.371094 3.554688 8.421875 3.59375 C 8.472656 3.636719 8.554688 3.636719 8.671875 3.597656 C 8.746094 3.578125 8.78125 3.476562 8.78125 3.296875 L 8.78125 2.988281 C 8.753906 2.820312 8.714844 2.679688 8.667969 2.570312 C 8.621094 2.457031 8.5625 2.375 8.492188 2.3125 C 8.421875 2.257812 8.355469 2.214844 8.296875 2.1875 C 8.234375 2.164062 8.160156 2.144531 8.070312 2.125 C 7.472656 2.171875 7.222656 2.542969 7.324219 3.246094 C 7.324219 3.332031 7.320312 3.375 7.316406 3.375 C 7.265625 3.324219 7.183594 3.292969 7.070312 3.285156 C 6.953125 3.277344 6.863281 3.277344 6.792969 3.289062 C 6.722656 3.300781 6.679688 3.285156 6.664062 3.246094 C 6.667969 2.929688 6.625 2.679688 6.527344 2.496094 C 6.433594 2.308594 6.308594 2.214844 6.152344 2.210938 C 6 2.203125 5.886719 2.28125 5.804688 2.441406 C 5.722656 2.597656 5.679688 2.765625 5.667969 2.9375 C 5.660156 3.023438 5.671875 3.125 5.695312 3.246094 C 5.722656 3.371094 5.757812 3.476562 5.804688 3.5625 C 5.851562 3.648438 5.894531 3.6875 5.933594 3.675781 C 5.992188 3.65625 6.035156 3.617188 6.070312 3.558594 C 6.089844 3.507812 6.070312 3.484375 6.011719 3.492188 C 5.972656 3.492188 5.925781 3.449219 5.878906 3.367188 C 5.832031 3.289062 5.804688 3.195312 5.800781 3.089844 C 5.796875 2.964844 5.820312 2.863281 5.875 2.777344 C 5.933594 2.695312 6.027344 2.65625 6.160156 2.660156 C 6.253906 2.660156 6.332031 2.71875 6.386719 2.835938 C 6.441406 2.953125 6.46875 3.0625 6.464844 3.164062 C 6.464844 3.265625 6.460938 3.324219 6.453125 3.347656 C 6.332031 3.433594 6.246094 3.511719 6.195312 3.589844 C 6.148438 3.65625 6.074219 3.722656 5.964844 3.789062 C 5.855469 3.851562 5.796875 3.886719 5.792969 3.890625 C 5.71875 3.96875 5.675781 4.046875 5.664062 4.117188 C 5.648438 4.191406 5.667969 4.242188 5.726562 4.269531 C 5.804688 4.3125 5.875 4.367188 5.933594 4.433594 C 5.996094 4.496094 6.039062 4.550781 6.070312 4.589844 C 6.097656 4.632812 6.148438 4.667969 6.222656 4.699219 C 6.296875 4.730469 6.398438 4.75 6.519531 4.753906 C 6.78125 4.765625 7.066406 4.722656 7.375 4.628906 C 7.386719 4.625 7.449219 4.605469 7.566406 4.570312 C 7.683594 4.535156 7.78125 4.507812 7.855469 4.484375 C 7.929688 4.457031 8.011719 4.421875 8.101562 4.375 C 8.191406 4.324219 8.25 4.277344 8.277344 4.226562 C 8.328125 4.148438 8.382812 4.125 8.445312 4.160156 C 8.472656 4.175781 8.492188 4.199219 8.5 4.230469 C 8.507812 4.261719 8.5 4.296875 8.476562 4.332031 C 8.449219 4.367188 8.402344 4.394531 8.335938 4.410156 C 8.226562 4.445312 8.066406 4.503906 7.863281 4.589844 C 7.660156 4.675781 7.535156 4.730469 7.484375 4.753906 C 7.238281 4.859375 7.042969 4.925781 6.898438 4.945312 C 6.757812 4.976562 6.539062 4.96875 6.234375 4.929688 C 6.179688 4.917969 6.15625 4.925781 6.160156 4.945312 C 6.167969 4.96875 6.214844 5.023438 6.304688 5.105469 C 6.441406 5.234375 6.628906 5.296875 6.863281 5.289062 C 6.957031 5.285156 7.058594 5.265625 7.164062 5.230469 C 7.269531 5.199219 7.371094 5.160156 7.464844 5.113281 C 7.5625 5.070312 7.65625 5.019531 7.746094 4.96875 C 7.839844 4.914062 7.921875 4.867188 8 4.824219 C 8.074219 4.785156 8.140625 4.75 8.203125 4.726562 C 8.265625 4.699219 8.3125 4.691406 8.351562 4.703125 C 8.386719 4.714844 8.410156 4.746094 8.421875 4.796875 C 8.421875 4.808594 8.417969 4.820312 8.414062 4.835938 C 8.40625 4.847656 8.394531 4.863281 8.378906 4.875 C 8.363281 4.890625 8.34375 4.902344 8.328125 4.914062 C 8.3125 4.925781 8.289062 4.9375 8.257812 4.957031 C 8.226562 4.972656 8.203125 4.984375 8.183594 4.992188 C 8.164062 5 8.132812 5.015625 8.097656 5.035156 C 8.0625 5.054688 8.035156 5.066406 8.019531 5.074219 C 7.863281 5.152344 7.675781 5.273438 7.453125 5.441406 C 7.234375 5.609375 7.046875 5.726562 6.898438 5.800781 C 6.746094 5.875 6.609375 5.875 6.488281 5.808594 C 6.371094 5.746094 6.195312 5.542969 5.960938 5.199219 C 5.835938 5.023438 5.765625 4.964844 5.75 5.015625 C 5.746094 5.03125 5.742188 5.058594 5.742188 5.097656 C 5.742188 5.238281 5.699219 5.394531 5.617188 5.570312 C 5.53125 5.746094 5.449219 5.902344 5.371094 6.035156 C 5.289062 6.167969 5.230469 6.332031 5.195312 6.519531 C 5.15625 6.710938 5.191406 6.886719 5.289062 7.046875 C 5.160156 7.082031 4.988281 7.332031 4.765625 7.800781 C 4.546875 8.269531 4.414062 8.664062 4.371094 8.980469 C 4.359375 9.082031 4.355469 9.273438 4.355469 9.558594 C 4.359375 9.84375 4.34375 10.007812 4.3125 10.054688 C 4.265625 10.1875 4.183594 10.195312 4.066406 10.078125 C 3.890625 9.90625 3.789062 9.644531 3.765625 9.292969 C 3.753906 9.136719 3.765625 8.980469 3.800781 8.824219 C 3.824219 8.714844 3.820312 8.667969 3.792969 8.671875 L 3.757812 8.714844 C 3.558594 9.078125 3.585938 9.539062 3.84375 10.101562 C 3.871094 10.171875 3.941406 10.25 4.050781 10.335938 C 4.164062 10.425781 4.230469 10.484375 4.253906 10.503906 C 4.363281 10.632812 4.652344 10.886719 5.121094 11.261719 C 5.589844 11.640625 5.851562 11.851562 5.902344 11.902344 C 5.992188 11.988281 6.039062 12.09375 6.046875 12.222656 C 6.054688 12.347656 6.015625 12.46875 5.929688 12.582031 C 5.84375 12.691406 5.71875 12.757812 5.550781 12.773438 C 5.59375 12.855469 5.675781 12.980469 5.792969 13.144531 C 5.910156 13.308594 5.988281 13.460938 6.027344 13.597656 C 6.066406 13.734375 6.085938 13.929688 6.085938 14.1875 C 6.34375 14.054688 6.363281 13.796875 6.144531 13.417969 C 6.121094 13.375 6.09375 13.328125 6.054688 13.285156 C 6.019531 13.238281 5.992188 13.207031 5.976562 13.183594 C 5.960938 13.160156 5.953125 13.144531 5.960938 13.132812 C 5.976562 13.105469 6.011719 13.078125 6.070312 13.054688 C 6.125 13.027344 6.179688 13.035156 6.234375 13.074219 C 6.492188 13.363281 6.957031 13.464844 7.625 13.375 C 8.367188 13.292969 8.863281 13.050781 9.105469 12.648438 C 9.234375 12.4375 9.332031 12.351562 9.390625 12.398438 C 9.457031 12.429688 9.488281 12.574219 9.476562 12.832031 C 9.46875 12.972656 9.40625 13.226562 9.28125 13.601562 C 9.234375 13.730469 9.214844 13.835938 9.234375 13.914062 C 9.25 13.996094 9.316406 14.039062 9.433594 14.046875 C 9.449219 13.941406 9.492188 13.726562 9.554688 13.402344 C 9.617188 13.078125 9.65625 12.828125 9.667969 12.648438 C 9.679688 12.53125 9.660156 12.324219 9.613281 12.03125 C 9.566406 11.738281 9.546875 11.46875 9.550781 11.21875 C 9.554688 10.972656 9.621094 10.777344 9.742188 10.628906 C 9.828125 10.53125 9.96875 10.480469 10.171875 10.480469 C 10.175781 10.273438 10.273438 10.125 10.460938 10.035156 C 10.644531 9.945312 10.847656 9.917969 11.066406 9.949219 C 11.285156 9.980469 11.449219 10.042969 11.566406 10.136719 Z M 6.3125 3.214844 C 6.328125 3.121094 6.320312 3.035156 6.289062 2.964844 C 6.257812 2.890625 6.226562 2.847656 6.195312 2.835938 C 6.144531 2.828125 6.117188 2.847656 6.117188 2.894531 C 6.128906 2.925781 6.144531 2.941406 6.160156 2.945312 C 6.214844 2.945312 6.234375 2.988281 6.21875 3.070312 C 6.203125 3.183594 6.226562 3.238281 6.285156 3.238281 C 6.304688 3.238281 6.3125 3.230469 6.3125 3.214844 Z M 9.820312 4.863281 C 9.808594 4.820312 9.789062 4.785156 9.765625 4.765625 C 9.738281 4.746094 9.703125 4.734375 9.65625 4.726562 C 9.609375 4.71875 9.566406 4.703125 9.535156 4.679688 C 9.507812 4.664062 9.480469 4.640625 9.453125 4.613281 C 9.429688 4.585938 9.410156 4.5625 9.394531 4.546875 C 9.382812 4.527344 9.367188 4.511719 9.351562 4.492188 C 9.332031 4.472656 9.320312 4.460938 9.316406 4.457031 C 9.3125 4.453125 9.300781 4.457031 9.28125 4.46875 C 9.203125 4.558594 9.222656 4.679688 9.339844 4.835938 C 9.457031 4.988281 9.566406 5.074219 9.667969 5.097656 C 9.71875 5.101562 9.757812 5.082031 9.789062 5.03125 C 9.820312 4.980469 9.828125 4.925781 9.820312 4.863281 Z M 8.328125 3.082031 C 8.328125 3.019531 8.316406 2.964844 8.285156 2.917969 C 8.257812 2.871094 8.226562 2.835938 8.195312 2.8125 C 8.160156 2.789062 8.136719 2.78125 8.121094 2.789062 C 8.042969 2.792969 8.023438 2.8125 8.0625 2.847656 L 8.09375 2.863281 C 8.171875 2.886719 8.222656 2.972656 8.246094 3.121094 C 8.246094 3.140625 8.265625 3.132812 8.3125 3.105469 Z M 8.78125 1.128906 C 8.78125 1.117188 8.773438 1.105469 8.757812 1.089844 C 8.746094 1.070312 8.71875 1.050781 8.683594 1.03125 C 8.648438 1.007812 8.621094 0.992188 8.605469 0.980469 C 8.519531 0.894531 8.453125 0.855469 8.402344 0.855469 C 8.355469 0.859375 8.320312 0.878906 8.308594 0.917969 C 8.292969 0.953125 8.289062 0.988281 8.300781 1.023438 C 8.308594 1.0625 8.304688 1.097656 8.296875 1.128906 C 8.289062 1.152344 8.273438 1.179688 8.246094 1.21875 C 8.21875 1.253906 8.199219 1.277344 8.195312 1.292969 C 8.1875 1.308594 8.199219 1.332031 8.21875 1.363281 C 8.242188 1.382812 8.265625 1.382812 8.285156 1.363281 C 8.308594 1.347656 8.339844 1.324219 8.378906 1.289062 C 8.417969 1.253906 8.460938 1.230469 8.503906 1.214844 C 8.511719 1.207031 8.535156 1.207031 8.578125 1.207031 C 8.625 1.207031 8.667969 1.199219 8.707031 1.1875 C 8.746094 1.175781 8.769531 1.15625 8.78125 1.128906 Z M 13.511719 12.355469 C 13.621094 12.421875 13.707031 12.488281 13.769531 12.558594 C 13.832031 12.628906 13.863281 12.695312 13.871094 12.761719 C 13.875 12.824219 13.867188 12.886719 13.847656 12.949219 C 13.828125 13.011719 13.785156 13.070312 13.71875 13.132812 C 13.652344 13.195312 13.585938 13.25 13.523438 13.296875 C 13.457031 13.34375 13.375 13.394531 13.273438 13.453125 C 13.167969 13.507812 13.082031 13.554688 13.007812 13.589844 C 12.933594 13.625 12.847656 13.667969 12.738281 13.71875 C 12.632812 13.769531 12.558594 13.804688 12.515625 13.828125 C 12.300781 13.933594 12.0625 14.089844 11.796875 14.296875 C 11.53125 14.503906 11.324219 14.683594 11.167969 14.832031 C 11.070312 14.921875 10.882812 14.976562 10.597656 14.996094 C 10.3125 15.015625 10.0625 14.976562 9.851562 14.875 C 9.75 14.824219 9.667969 14.757812 9.605469 14.679688 C 9.539062 14.597656 9.496094 14.527344 9.46875 14.464844 C 9.4375 14.402344 9.378906 14.347656 9.28125 14.300781 C 9.1875 14.253906 9.058594 14.226562 8.890625 14.222656 C 8.644531 14.214844 8.28125 14.214844 7.800781 14.214844 C 7.695312 14.214844 7.535156 14.21875 7.324219 14.226562 C 7.113281 14.234375 6.949219 14.242188 6.839844 14.246094 C 6.59375 14.253906 6.371094 14.292969 6.171875 14.371094 C 5.976562 14.449219 5.824219 14.535156 5.726562 14.625 C 5.625 14.710938 5.503906 14.792969 5.359375 14.863281 C 5.21875 14.929688 5.070312 14.964844 4.914062 14.957031 C 4.75 14.953125 4.441406 14.867188 3.984375 14.699219 C 3.527344 14.53125 3.121094 14.410156 2.761719 14.339844 C 2.65625 14.316406 2.515625 14.289062 2.335938 14.257812 C 2.15625 14.226562 2.015625 14.203125 1.917969 14.183594 C 1.816406 14.164062 1.707031 14.136719 1.585938 14.105469 C 1.464844 14.070312 1.371094 14.03125 1.304688 13.984375 C 1.238281 13.933594 1.191406 13.882812 1.164062 13.820312 C 1.109375 13.691406 1.128906 13.507812 1.222656 13.261719 C 1.316406 13.019531 1.367188 12.867188 1.371094 12.808594 C 1.378906 12.71875 1.367188 12.605469 1.339844 12.472656 C 1.3125 12.339844 1.285156 12.21875 1.253906 12.117188 C 1.226562 12.011719 1.214844 11.910156 1.21875 11.8125 C 1.21875 11.710938 1.25 11.636719 1.304688 11.585938 C 1.382812 11.519531 1.542969 11.480469 1.78125 11.46875 C 2.023438 11.457031 2.191406 11.421875 2.285156 11.367188 C 2.453125 11.265625 2.570312 11.167969 2.636719 11.074219 C 2.703125 10.980469 2.738281 10.835938 2.738281 10.648438 C 2.855469 11.054688 2.765625 11.351562 2.46875 11.535156 C 2.289062 11.644531 2.058594 11.6875 1.773438 11.660156 C 1.585938 11.644531 1.464844 11.671875 1.414062 11.742188 C 1.34375 11.828125 1.355469 11.988281 1.457031 12.222656 C 1.46875 12.253906 1.488281 12.304688 1.523438 12.371094 C 1.558594 12.4375 1.582031 12.488281 1.59375 12.523438 C 1.609375 12.554688 1.621094 12.601562 1.632812 12.664062 C 1.644531 12.726562 1.644531 12.789062 1.640625 12.847656 C 1.640625 12.933594 1.59375 13.070312 1.5 13.257812 C 1.402344 13.449219 1.363281 13.582031 1.382812 13.660156 C 1.398438 13.753906 1.5 13.828125 1.691406 13.878906 C 1.800781 13.910156 2.039062 13.964844 2.398438 14.03125 C 2.757812 14.101562 3.035156 14.160156 3.230469 14.203125 C 3.363281 14.238281 3.570312 14.300781 3.851562 14.390625 C 4.128906 14.476562 4.359375 14.542969 4.539062 14.582031 C 4.722656 14.621094 4.878906 14.632812 5.003906 14.613281 C 5.246094 14.582031 5.425781 14.503906 5.546875 14.378906 C 5.664062 14.257812 5.730469 14.125 5.738281 13.980469 C 5.746094 13.832031 5.726562 13.671875 5.675781 13.488281 C 5.625 13.308594 5.570312 13.164062 5.515625 13.054688 C 5.460938 12.945312 5.40625 12.84375 5.347656 12.75 C 4.671875 11.6875 4.203125 11.011719 3.933594 10.722656 C 3.554688 10.308594 3.238281 10.199219 2.988281 10.386719 C 2.925781 10.4375 2.886719 10.394531 2.863281 10.261719 C 2.847656 10.171875 2.839844 10.066406 2.847656 9.945312 C 2.851562 9.78125 2.878906 9.636719 2.929688 9.507812 C 2.980469 9.378906 3.046875 9.25 3.128906 9.117188 C 3.214844 8.980469 3.277344 8.863281 3.316406 8.765625 C 3.359375 8.648438 3.433594 8.445312 3.535156 8.160156 C 3.640625 7.875 3.722656 7.660156 3.785156 7.507812 C 3.84375 7.359375 3.929688 7.1875 4.035156 6.996094 C 4.140625 6.808594 4.25 6.65625 4.359375 6.546875 C 4.976562 5.746094 5.320312 5.203125 5.398438 4.914062 C 5.332031 4.289062 5.289062 3.421875 5.265625 2.320312 C 5.253906 1.816406 5.320312 1.394531 5.464844 1.050781 C 5.609375 0.707031 5.90625 0.414062 6.351562 0.175781 C 6.570312 0.0585938 6.859375 0 7.222656 0 C 7.519531 -0.00390625 7.816406 0.03125 8.109375 0.113281 C 8.40625 0.195312 8.65625 0.308594 8.855469 0.460938 C 9.175781 0.695312 9.429688 1.035156 9.621094 1.476562 C 9.8125 1.921875 9.898438 2.332031 9.867188 2.710938 C 9.839844 3.242188 9.925781 3.839844 10.121094 4.503906 C 10.308594 5.132812 10.679688 5.742188 11.234375 6.328125 C 11.539062 6.65625 11.816406 7.113281 12.066406 7.691406 C 12.3125 8.273438 12.480469 8.804688 12.5625 9.292969 C 12.609375 9.566406 12.621094 9.800781 12.605469 10 C 12.589844 10.195312 12.554688 10.351562 12.503906 10.464844 C 12.457031 10.574219 12.398438 10.636719 12.339844 10.648438 C 12.28125 10.660156 12.21875 10.710938 12.140625 10.804688 C 12.066406 10.902344 11.992188 11 11.914062 11.101562 C 11.839844 11.207031 11.726562 11.300781 11.578125 11.382812 C 11.425781 11.46875 11.253906 11.507812 11.066406 11.5 C 10.964844 11.496094 10.878906 11.480469 10.800781 11.460938 C 10.726562 11.4375 10.664062 11.398438 10.613281 11.347656 C 10.5625 11.292969 10.527344 11.25 10.5 11.214844 C 10.476562 11.183594 10.445312 11.125 10.40625 11.046875 C 10.367188 10.964844 10.339844 10.910156 10.328125 10.882812 C 10.207031 10.675781 10.09375 10.589844 9.984375 10.628906 C 9.878906 10.667969 9.800781 10.804688 9.75 11.039062 C 9.703125 11.273438 9.722656 11.546875 9.808594 11.851562 C 9.921875 12.242188 9.925781 12.789062 9.820312 13.484375 C 9.761719 13.847656 9.8125 14.128906 9.96875 14.328125 C 10.125 14.523438 10.328125 14.617188 10.582031 14.601562 C 10.832031 14.589844 11.070312 14.488281 11.292969 14.304688 C 11.621094 14.03125 11.871094 13.847656 12.039062 13.75 C 12.210938 13.652344 12.5 13.53125 12.90625 13.394531 C 13.203125 13.292969 13.417969 13.191406 13.550781 13.085938 C 13.6875 12.984375 13.738281 12.886719 13.707031 12.796875 C 13.675781 12.710938 13.605469 12.628906 13.496094 12.558594 C 13.390625 12.488281 13.246094 12.425781 13.066406 12.363281 C 12.882812 12.300781 12.742188 12.167969 12.652344 11.960938 C 12.558594 11.753906 12.519531 11.550781 12.527344 11.355469 C 12.535156 11.15625 12.578125 11.023438 12.65625 10.957031 C 12.660156 11.128906 12.683594 11.289062 12.722656 11.429688 C 12.761719 11.570312 12.804688 11.683594 12.84375 11.769531 C 12.886719 11.851562 12.945312 11.933594 13.015625 12.007812 C 13.089844 12.082031 13.148438 12.136719 13.191406 12.167969 C 13.238281 12.195312 13.296875 12.234375 13.371094 12.273438 C 13.445312 12.316406 13.492188 12.34375 13.511719 12.355469 Z M 13.511719 12.355469 " fill="#FFFFFF"/>
  </g>
</svg>