<svg version="1.1" xmlns="http://www.w3.org/2000/svg" xlink="http://www.w3.org/1999/xlink" x="0px" y="0px" width="15px" height="15px" viewBox="0 0 15 15" style="enable-background:new 0 0 15 15;" space="preserve">
    <path d="M12.722656,10.179688C12.722656,9.957031,12.644531,9.765625,12.488281,9.609375L10.746094,7.867188C10.589844,7.710938,10.402344,7.632812,10.179688,7.632812C9.945312,7.632812,9.742188,7.722656,9.574219,7.902344C9.59375,7.917969,9.644531,7.96875,9.734375,8.054688C9.824219,8.144531,9.882812,8.203125,9.914062,8.238281C9.945312,8.269531,9.988281,8.324219,10.039062,8.394531C10.09375,8.46875,10.128906,8.539062,10.148438,8.609375C10.167969,8.679688,10.179688,8.753906,10.179688,8.839844C10.179688,9.0625,10.101562,9.253906,9.945312,9.410156C9.789062,9.566406,9.597656,9.644531,9.375,9.644531C9.292969,9.644531,9.214844,9.632812,9.144531,9.613281C9.074219,9.59375,9.003906,9.558594,8.929688,9.503906C8.859375,9.453125,8.804688,9.410156,8.773438,9.378906C8.738281,9.347656,8.679688,9.289062,8.59375,9.199219C8.507812,9.109375,8.453125,9.058594,8.4375,9.039062C8.253906,9.214844,8.160156,9.417969,8.160156,9.652344C8.160156,9.875,8.238281,10.0625,8.394531,10.21875L10.121094,11.953125C10.269531,12.105469,10.460938,12.179688,10.6875,12.179688C10.914062,12.179688,11.101562,12.105469,11.257812,11.960938L12.488281,10.738281C12.644531,10.582031,12.722656,10.394531,12.722656,10.179688ZM6.839844,4.277344C6.839844,4.054688,6.761719,3.863281,6.605469,3.707031L4.878906,1.976562C4.722656,1.820312,4.535156,1.742188,4.3125,1.742188C4.09375,1.742188,3.902344,1.816406,3.742188,1.96875L2.511719,3.1875C2.355469,3.34375,2.277344,3.53125,2.277344,3.75C2.277344,3.972656,2.355469,4.164062,2.511719,4.320312L4.253906,6.058594C4.402344,6.210938,4.59375,6.285156,4.820312,6.285156C5.054688,6.285156,5.257812,6.199219,5.425781,6.027344C5.40625,6.011719,5.355469,5.957031,5.265625,5.871094C5.175781,5.785156,5.117188,5.726562,5.085938,5.691406C5.054688,5.660156,5.011719,5.605469,4.960938,5.53125C4.90625,5.460938,4.871094,5.390625,4.851562,5.320312C4.832031,5.25,4.820312,5.171875,4.820312,5.089844C4.820312,4.867188,4.898438,4.675781,5.054688,4.519531C5.210938,4.363281,5.402344,4.285156,5.625,4.285156C5.707031,4.285156,5.785156,4.296875,5.855469,4.316406C5.925781,4.335938,5.996094,4.371094,6.070312,4.421875C6.140625,4.476562,6.195312,4.519531,6.226562,4.550781C6.261719,4.578125,6.320312,4.640625,6.40625,4.730469C6.492188,4.820312,6.546875,4.871094,6.5625,4.886719C6.746094,4.714844,6.839844,4.511719,6.839844,4.277344ZM14.332031,10.179688C14.332031,10.847656,14.09375,11.414062,13.617188,11.878906L12.386719,13.101562C11.925781,13.5625,11.359375,13.792969,10.6875,13.792969C10.015625,13.792969,9.445312,13.558594,8.980469,13.082031L7.257812,11.351562C6.792969,10.886719,6.5625,10.320312,6.5625,9.652344C6.5625,8.964844,6.808594,8.382812,7.300781,7.902344L6.5625,7.164062C6.082031,7.65625,5.503906,7.902344,4.820312,7.902344C4.152344,7.902344,3.582031,7.667969,3.113281,7.199219L1.371094,5.457031C0.902344,4.988281,0.667969,4.417969,0.667969,3.75C0.667969,3.082031,0.90625,2.515625,1.382812,2.050781L2.613281,0.828125C3.074219,0.367188,3.640625,0.132812,4.3125,0.132812C4.984375,0.132812,5.554688,0.371094,6.019531,0.84375L7.742188,2.578125C8.207031,3.042969,8.4375,3.609375,8.4375,4.277344C8.4375,4.964844,8.191406,5.546875,7.699219,6.027344L8.4375,6.761719C8.917969,6.273438,9.496094,6.027344,10.179688,6.027344C10.847656,6.027344,11.417969,6.261719,11.886719,6.730469L13.628906,8.472656C14.097656,8.941406,14.332031,9.507812,14.332031,10.179688ZM14.332031,10.179688" fill="#FFFFFF"/>
    </svg>