<svg version="1.1" xmlns="http://www.w3.org/2000/svg" xlink="http://www.w3.org/1999/xlink" x="0px" y="0px" width="15px" height="15px" viewBox="0 0 15 15" style="enable-background:new 0 0 15 15;" space="preserve">
    <path d="M11.734375,5.046875C11.636719,5.253906,11.472656,5.355469,11.25,5.355469L9.644531,5.355469L9.644531,12.589844C9.644531,12.667969,9.617188,12.730469,9.566406,12.78125C9.515625,12.832031,9.453125,12.855469,9.375,12.855469L3.480469,12.855469C3.363281,12.855469,3.285156,12.808594,3.238281,12.707031C3.195312,12.59375,3.207031,12.496094,3.273438,12.414062L4.613281,10.804688C4.664062,10.746094,4.730469,10.714844,4.820312,10.714844L7.5,10.714844L7.5,5.355469L5.894531,5.355469C5.667969,5.355469,5.507812,5.253906,5.40625,5.046875C5.3125,4.839844,5.335938,4.652344,5.484375,4.476562L8.160156,1.265625C8.261719,1.140625,8.398438,1.078125,8.570312,1.078125C8.746094,1.078125,8.882812,1.140625,8.980469,1.265625L11.660156,4.476562C11.8125,4.65625,11.835938,4.847656,11.734375,5.046875ZM11.734375,5.046875" fill="#FFFFFF"/>
    </svg>