<?xml version="1.0" encoding="UTF-8" standalone="yes"?>
<svg xmlns="http://www.w3.org/2000/svg" xmlns:xlink="http://www.w3.org/1999/xlink" width="20px" height="20px" viewBox="0 0 15 15" version="1.1">
  <g id="surface1">
    <path style=" stroke:none;fill-rule:nonzero;fill:rgb(0%,0%,0%);fill-opacity:1;" d="M 7.5 5.390625 C 8.710938 5.523438 9.726562 6.046875 10.550781 6.960938 C 11.375 7.871094 11.785156 8.945312 11.785156 10.179688 C 11.785156 11.109375 11.542969 11.964844 11.058594 12.738281 C 10.570312 13.515625 9.914062 14.105469 9.082031 14.515625 C 8.25 14.921875 7.359375 15.074219 6.410156 14.964844 C 5.667969 14.882812 4.984375 14.636719 4.355469 14.230469 C 3.730469 13.824219 3.222656 13.296875 2.832031 12.65625 C 2.445312 12.015625 2.222656 11.320312 2.160156 10.570312 C 2.09375 9.707031 2.238281 8.890625 2.597656 8.128906 C 2.960938 7.363281 3.476562 6.738281 4.15625 6.253906 C 4.835938 5.765625 5.589844 5.480469 6.429688 5.390625 L 6.429688 4.285156 L 5.089844 4.285156 C 5.011719 4.285156 4.945312 4.261719 4.898438 4.210938 C 4.847656 4.160156 4.820312 4.097656 4.820312 4.019531 L 4.820312 3.480469 C 4.820312 3.402344 4.847656 3.339844 4.898438 3.289062 C 4.945312 3.238281 5.011719 3.214844 5.089844 3.214844 L 6.429688 3.214844 L 6.429688 1.832031 L 5.660156 2.601562 C 5.601562 2.652344 5.539062 2.679688 5.464844 2.679688 C 5.394531 2.679688 5.332031 2.652344 5.28125 2.601562 L 4.898438 2.21875 C 4.847656 2.167969 4.820312 2.105469 4.820312 2.035156 C 4.820312 1.960938 4.847656 1.898438 4.898438 1.839844 L 6.585938 0.160156 C 6.695312 0.0546875 6.820312 0 6.964844 0 C 7.109375 0 7.234375 0.0546875 7.339844 0.160156 L 9.03125 1.839844 C 9.082031 1.898438 9.105469 1.960938 9.105469 2.035156 C 9.105469 2.105469 9.082031 2.167969 9.03125 2.21875 L 8.648438 2.601562 C 8.597656 2.652344 8.535156 2.679688 8.460938 2.679688 C 8.390625 2.679688 8.324219 2.652344 8.269531 2.601562 L 7.5 1.832031 L 7.5 3.214844 L 8.839844 3.214844 C 8.917969 3.214844 8.980469 3.238281 9.03125 3.289062 C 9.082031 3.339844 9.105469 3.402344 9.105469 3.480469 L 9.105469 4.019531 C 9.105469 4.097656 9.082031 4.160156 9.03125 4.210938 C 8.980469 4.261719 8.917969 4.285156 8.839844 4.285156 L 7.5 4.285156 Z M 6.964844 13.929688 C 7.996094 13.929688 8.878906 13.5625 9.613281 12.828125 C 10.347656 12.09375 10.714844 11.210938 10.714844 10.179688 C 10.714844 9.144531 10.347656 8.261719 9.613281 7.53125 C 8.878906 6.796875 7.996094 6.429688 6.964844 6.429688 C 5.933594 6.429688 5.046875 6.796875 4.316406 7.53125 C 3.582031 8.261719 3.214844 9.144531 3.214844 10.179688 C 3.214844 11.210938 3.582031 12.09375 4.316406 12.828125 C 5.046875 13.5625 5.933594 13.929688 6.964844 13.929688 Z M 6.964844 13.929688 "/>
  </g>
</svg>