<?xml version="1.0" encoding="UTF-8" standalone="yes"?>
<svg xmlns="http://www.w3.org/2000/svg" xmlns:xlink="http://www.w3.org/1999/xlink" width="20px" height="20px" viewBox="0 0 15 15" version="1.1">
  <g id="surface1">
    <path style=" stroke:none;fill-rule:nonzero;fill:rgb(0%,0%,0%);fill-opacity:1;" d="M 13.929688 6.964844 L 13.929688 8.035156 C 13.929688 9.15625 13.652344 10.167969 13.105469 11.066406 C 12.554688 11.964844 11.789062 12.664062 10.8125 13.171875 C 9.832031 13.675781 8.726562 13.929688 7.5 13.929688 C 6.273438 13.929688 5.167969 13.675781 4.1875 13.171875 C 3.210938 12.664062 2.445312 11.964844 1.894531 11.066406 C 1.347656 10.167969 1.070312 9.15625 1.070312 8.035156 L 1.070312 6.964844 C 1.070312 6.820312 1.125 6.695312 1.230469 6.585938 C 1.335938 6.480469 1.460938 6.429688 1.605469 6.429688 L 4.820312 6.429688 C 4.964844 6.429688 5.09375 6.480469 5.199219 6.585938 C 5.304688 6.695312 5.355469 6.820312 5.355469 6.964844 L 5.355469 8.035156 C 5.355469 8.324219 5.421875 8.578125 5.554688 8.789062 C 5.683594 9 5.835938 9.160156 6 9.265625 C 6.167969 9.371094 6.367188 9.457031 6.597656 9.515625 C 6.824219 9.578125 7.003906 9.613281 7.132812 9.625 C 7.261719 9.636719 7.382812 9.644531 7.5 9.644531 C 7.617188 9.644531 7.738281 9.636719 7.867188 9.625 C 7.996094 9.613281 8.175781 9.578125 8.402344 9.515625 C 8.632812 9.457031 8.832031 9.371094 9 9.265625 C 9.164062 9.160156 9.316406 9 9.445312 8.789062 C 9.578125 8.578125 9.644531 8.324219 9.644531 8.035156 L 9.644531 6.964844 C 9.644531 6.820312 9.695312 6.695312 9.800781 6.585938 C 9.90625 6.480469 10.035156 6.429688 10.179688 6.429688 L 13.394531 6.429688 C 13.539062 6.429688 13.664062 6.480469 13.769531 6.585938 C 13.875 6.695312 13.929688 6.820312 13.929688 6.964844 Z M 5.355469 1.605469 L 5.355469 4.820312 C 5.355469 4.964844 5.304688 5.09375 5.199219 5.199219 C 5.09375 5.304688 4.964844 5.355469 4.820312 5.355469 L 1.605469 5.355469 C 1.460938 5.355469 1.335938 5.304688 1.230469 5.199219 C 1.125 5.09375 1.070312 4.964844 1.070312 4.820312 L 1.070312 1.605469 C 1.070312 1.460938 1.125 1.335938 1.230469 1.230469 C 1.335938 1.125 1.460938 1.070312 1.605469 1.070312 L 4.820312 1.070312 C 4.964844 1.070312 5.09375 1.125 5.199219 1.230469 C 5.304688 1.335938 5.355469 1.460938 5.355469 1.605469 Z M 13.929688 1.605469 L 13.929688 4.820312 C 13.929688 4.964844 13.875 5.09375 13.769531 5.199219 C 13.664062 5.304688 13.539062 5.355469 13.394531 5.355469 L 10.179688 5.355469 C 10.035156 5.355469 9.90625 5.304688 9.800781 5.199219 C 9.695312 5.09375 9.644531 4.964844 9.644531 4.820312 L 9.644531 1.605469 C 9.644531 1.460938 9.695312 1.335938 9.800781 1.230469 C 9.90625 1.125 10.035156 1.070312 10.179688 1.070312 L 13.394531 1.070312 C 13.539062 1.070312 13.664062 1.125 13.769531 1.230469 C 13.875 1.335938 13.929688 1.460938 13.929688 1.605469 Z M 13.929688 1.605469 "/>
  </g>
</svg>