<svg xmlns="http://www.w3.org/2000/svg" xlink="http://www.w3.org/1999/xlink" width="20px" height="20px" viewBox="0 0 15 15" version="1.1">
  <g id="surface1">
    <path d="M 3.875 7.910156 L 3.03125 8.753906 C 2.796875 8.179688 2.679688 7.582031 2.679688 6.964844 L 2.679688 5.894531 C 2.679688 5.746094 2.730469 5.621094 2.835938 5.515625 C 2.945312 5.410156 3.070312 5.355469 3.214844 5.355469 C 3.359375 5.355469 3.484375 5.410156 3.589844 5.515625 C 3.695312 5.621094 3.75 5.746094 3.75 5.894531 L 3.75 6.964844 C 3.75 7.261719 3.792969 7.574219 3.875 7.910156 Z M 13.199219 2.871094 L 10.179688 5.894531 L 10.179688 6.964844 C 10.179688 7.699219 9.917969 8.332031 9.390625 8.855469 C 8.867188 9.378906 8.238281 9.644531 7.5 9.644531 C 7.191406 9.644531 6.890625 9.589844 6.585938 9.484375 L 5.785156 10.289062 C 6.324219 10.570312 6.898438 10.714844 7.5 10.714844 C 8.53125 10.714844 9.414062 10.347656 10.148438 9.613281 C 10.882812 8.878906 11.25 7.996094 11.25 6.964844 L 11.25 5.894531 C 11.25 5.746094 11.304688 5.621094 11.410156 5.515625 C 11.515625 5.410156 11.640625 5.355469 11.785156 5.355469 C 11.929688 5.355469 12.054688 5.410156 12.164062 5.515625 C 12.269531 5.621094 12.320312 5.746094 12.320312 5.894531 L 12.320312 6.964844 C 12.320312 8.199219 11.910156 9.269531 11.085938 10.183594 C 10.261719 11.09375 9.246094 11.617188 8.035156 11.753906 L 8.035156 12.855469 L 10.179688 12.855469 C 10.324219 12.855469 10.449219 12.910156 10.554688 13.015625 C 10.660156 13.121094 10.714844 13.246094 10.714844 13.394531 C 10.714844 13.539062 10.660156 13.664062 10.554688 13.769531 C 10.449219 13.875 10.324219 13.929688 10.179688 13.929688 L 4.820312 13.929688 C 4.675781 13.929688 4.550781 13.875 4.445312 13.769531 C 4.339844 13.664062 4.285156 13.539062 4.285156 13.394531 C 4.285156 13.246094 4.339844 13.121094 4.445312 13.015625 C 4.550781 12.910156 4.675781 12.855469 4.820312 12.855469 L 6.964844 12.855469 L 6.964844 11.753906 C 6.265625 11.679688 5.609375 11.453125 4.996094 11.074219 L 2.871094 13.199219 C 2.816406 13.257812 2.75 13.285156 2.679688 13.285156 C 2.605469 13.285156 2.542969 13.257812 2.484375 13.199219 L 1.800781 12.515625 C 1.742188 12.457031 1.714844 12.394531 1.714844 12.320312 C 1.714844 12.25 1.742188 12.183594 1.800781 12.128906 L 12.128906 1.800781 C 12.183594 1.742188 12.25 1.714844 12.320312 1.714844 C 12.394531 1.714844 12.457031 1.742188 12.515625 1.800781 L 13.199219 2.484375 C 13.257812 2.542969 13.285156 2.605469 13.285156 2.679688 C 13.285156 2.75 13.257812 2.816406 13.199219 2.871094 Z M 10.019531 1.765625 L 4.820312 6.964844 L 4.820312 2.679688 C 4.820312 1.941406 5.082031 1.3125 5.609375 0.785156 C 6.132812 0.261719 6.761719 0 7.5 0 C 8.070312 0 8.585938 0.164062 9.042969 0.492188 C 9.503906 0.824219 9.828125 1.246094 10.019531 1.765625 Z M 10.019531 1.765625 " fill="#FFFFFF"/>
  </g>
</svg>