<?xml version="1.0" encoding="UTF-8" standalone="yes"?>
<svg xmlns="http://www.w3.org/2000/svg" xmlns:xlink="http://www.w3.org/1999/xlink" width="20px" height="20px" viewBox="0 0 15 15" version="1.1">
  <g id="surface1">
    <path style=" stroke:none;fill-rule:nonzero;fill:rgb(0%,0%,0%);fill-opacity:1;" d="M 14.839844 7.660156 C 14.945312 7.765625 15 7.890625 15 8.035156 C 15 8.179688 14.945312 8.304688 14.839844 8.414062 L 12.378906 10.875 C 12.328125 10.929688 12.265625 10.957031 12.191406 10.957031 C 12.117188 10.957031 12.054688 10.929688 12.003906 10.875 L 11.625 10.496094 C 11.570312 10.445312 11.542969 10.382812 11.542969 10.308594 C 11.542969 10.234375 11.570312 10.171875 11.625 10.121094 L 13.175781 8.570312 L 10.714844 8.570312 L 10.714844 10.445312 C 10.714844 10.523438 10.6875 10.589844 10.640625 10.640625 C 10.589844 10.6875 10.523438 10.714844 10.445312 10.714844 L 9.910156 10.714844 C 9.832031 10.714844 9.769531 10.6875 9.71875 10.640625 C 9.667969 10.589844 9.644531 10.523438 9.644531 10.445312 L 9.644531 8.570312 L 8.539062 8.570312 C 8.402344 9.78125 7.882812 10.800781 6.96875 11.621094 C 6.054688 12.445312 4.984375 12.855469 3.75 12.855469 C 2.816406 12.855469 1.964844 12.613281 1.1875 12.128906 C 0.414062 11.644531 -0.179688 10.984375 -0.585938 10.152344 C -0.992188 9.320312 -1.144531 8.433594 -1.039062 7.484375 C -0.953125 6.742188 -0.707031 6.054688 -0.300781 5.429688 C 0.105469 4.800781 0.628906 4.292969 1.273438 3.90625 C 1.914062 3.515625 2.609375 3.292969 3.355469 3.230469 C 4.222656 3.164062 5.035156 3.3125 5.800781 3.671875 C 6.566406 4.03125 7.191406 4.550781 7.675781 5.226562 C 8.160156 5.90625 8.449219 6.664062 8.539062 7.5 L 9.644531 7.5 L 9.644531 5.625 C 9.644531 5.546875 9.667969 5.484375 9.71875 5.433594 C 9.769531 5.382812 9.832031 5.355469 9.910156 5.355469 L 10.445312 5.355469 C 10.523438 5.355469 10.589844 5.382812 10.640625 5.433594 C 10.6875 5.484375 10.714844 5.546875 10.714844 5.625 L 10.714844 7.5 L 13.175781 7.5 L 11.625 5.953125 C 11.570312 5.902344 11.542969 5.839844 11.542969 5.761719 C 11.542969 5.6875 11.570312 5.625 11.625 5.574219 L 12.003906 5.199219 C 12.054688 5.140625 12.117188 5.113281 12.191406 5.113281 C 12.265625 5.113281 12.328125 5.140625 12.378906 5.199219 Z M 3.75 11.785156 C 4.78125 11.785156 5.664062 11.417969 6.398438 10.683594 C 7.132812 9.949219 7.5 9.066406 7.5 8.035156 C 7.5 7.003906 7.132812 6.121094 6.398438 5.386719 C 5.664062 4.652344 4.78125 4.285156 3.75 4.285156 C 2.71875 4.285156 1.835938 4.652344 1.101562 5.386719 C 0.367188 6.121094 0 7.003906 0 8.035156 C 0 9.066406 0.367188 9.949219 1.101562 10.683594 C 1.835938 11.417969 2.71875 11.785156 3.75 11.785156 Z M 3.75 11.785156 "/>
  </g>
</svg>