<?xml version="1.0" encoding="UTF-8" standalone="yes"?>
<svg xmlns="http://www.w3.org/2000/svg" xmlns:xlink="http://www.w3.org/1999/xlink" width="20px" height="20px" viewBox="0 0 15 15" version="1.1">
  <g id="surface1">
    <path style=" stroke:none;fill-rule:nonzero;fill:rgb(0%,0%,0%);fill-opacity:1;" d="M 5.894531 9.644531 L 9.105469 9.644531 L 9.105469 8.839844 L 8.035156 8.839844 L 8.035156 5.089844 L 7.082031 5.089844 L 5.84375 6.234375 L 6.488281 6.90625 C 6.722656 6.699219 6.875 6.539062 6.949219 6.429688 L 6.964844 6.429688 L 6.964844 8.839844 L 5.894531 8.839844 Z M 10.179688 7.5 C 10.179688 7.890625 10.121094 8.285156 10.003906 8.6875 C 9.886719 9.089844 9.71875 9.464844 9.503906 9.808594 C 9.289062 10.15625 9.007812 10.4375 8.65625 10.65625 C 8.304688 10.875 7.917969 10.980469 7.5 10.980469 C 7.082031 10.980469 6.695312 10.875 6.34375 10.65625 C 5.992188 10.4375 5.710938 10.15625 5.496094 9.808594 C 5.28125 9.464844 5.113281 9.089844 4.996094 8.6875 C 4.878906 8.285156 4.820312 7.890625 4.820312 7.5 C 4.820312 7.109375 4.878906 6.714844 4.996094 6.3125 C 5.113281 5.910156 5.28125 5.535156 5.496094 5.191406 C 5.710938 4.84375 5.992188 4.5625 6.34375 4.34375 C 6.695312 4.125 7.082031 4.019531 7.5 4.019531 C 7.917969 4.019531 8.304688 4.125 8.65625 4.34375 C 9.007812 4.5625 9.289062 4.84375 9.503906 5.191406 C 9.71875 5.535156 9.886719 5.910156 10.003906 6.3125 C 10.121094 6.714844 10.179688 7.109375 10.179688 7.5 Z M 14.464844 9.644531 L 14.464844 5.355469 C 13.871094 5.355469 13.367188 5.148438 12.949219 4.730469 C 12.53125 4.3125 12.320312 3.804688 12.320312 3.214844 L 2.679688 3.214844 C 2.679688 3.804688 2.46875 4.3125 2.050781 4.730469 C 1.632812 5.148438 1.128906 5.355469 0.535156 5.355469 L 0.535156 9.644531 C 1.128906 9.644531 1.632812 9.851562 2.050781 10.269531 C 2.46875 10.6875 2.679688 11.195312 2.679688 11.785156 L 12.320312 11.785156 C 12.320312 11.195312 12.53125 10.6875 12.949219 10.269531 C 13.367188 9.851562 13.871094 9.644531 14.464844 9.644531 Z M 15.535156 2.679688 L 15.535156 12.320312 C 15.535156 12.464844 15.484375 12.59375 15.375 12.699219 C 15.269531 12.804688 15.144531 12.855469 15 12.855469 L 0 12.855469 C -0.144531 12.855469 -0.269531 12.804688 -0.375 12.699219 C -0.484375 12.59375 -0.535156 12.464844 -0.535156 12.320312 L -0.535156 2.679688 C -0.535156 2.535156 -0.484375 2.40625 -0.375 2.300781 C -0.269531 2.195312 -0.144531 2.144531 0 2.144531 L 15 2.144531 C 15.144531 2.144531 15.269531 2.195312 15.375 2.300781 C 15.484375 2.40625 15.535156 2.535156 15.535156 2.679688 Z M 15.535156 2.679688 "/>
  </g>
</svg>