<svg version="1.1" xmlns="http://www.w3.org/2000/svg" xlink="http://www.w3.org/1999/xlink" x="0px" y="0px" width="15px" height="15px" viewBox="0 0 15 15" style="enable-background:new 0 0 15 15;" space="preserve">
    <path d="M14.605469,6.46875L13.234375,12.855469L10.4375,12.855469L11.929688,5.894531C12,5.582031,11.957031,5.335938,11.800781,5.15625C11.652344,4.972656,11.421875,4.878906,11.109375,4.878906L9.691406,4.878906L7.984375,12.855469L5.191406,12.855469L6.898438,4.878906L4.503906,4.878906L2.796875,12.855469L0,12.855469L1.707031,4.878906L0.425781,2.144531L11.109375,2.144531C11.671875,2.144531,12.199219,2.257812,12.695312,2.480469C13.1875,2.707031,13.597656,3.023438,13.929688,3.433594C14.261719,3.839844,14.488281,4.308594,14.605469,4.84375C14.722656,5.375,14.722656,5.917969,14.605469,6.46875ZM14.605469,6.46875" fill="#FFFFFF"/>
    </svg>