<svg xmlns="http://www.w3.org/2000/svg" xlink="http://www.w3.org/1999/xlink" width="20px" height="20px" viewBox="0 0 15 15" version="1.1">
  <g id="surface1">
    <path d="M 11.785156 5.894531 L 11.785156 9.375 C 11.785156 9.597656 11.707031 9.789062 11.550781 9.945312 C 11.394531 10.101562 11.207031 10.179688 10.980469 10.179688 C 10.757812 10.179688 10.570312 10.101562 10.414062 9.945312 C 10.257812 9.789062 10.179688 9.597656 10.179688 9.375 L 10.179688 6.429688 L 9.644531 6.429688 L 9.644531 14.0625 C 9.644531 14.320312 9.550781 14.539062 9.367188 14.722656 C 9.183594 14.90625 8.960938 15 8.707031 15 C 8.449219 15 8.226562 14.90625 8.042969 14.722656 C 7.859375 14.539062 7.769531 14.320312 7.769531 14.0625 L 7.769531 10.179688 L 7.230469 10.179688 L 7.230469 14.0625 C 7.230469 14.320312 7.140625 14.539062 6.957031 14.722656 C 6.773438 14.90625 6.550781 15 6.292969 15 C 6.039062 15 5.816406 14.90625 5.632812 14.722656 C 5.449219 14.539062 5.355469 14.320312 5.355469 14.0625 L 5.355469 6.429688 L 4.820312 6.429688 L 4.820312 9.375 C 4.820312 9.597656 4.742188 9.789062 4.585938 9.945312 C 4.429688 10.101562 4.242188 10.179688 4.019531 10.179688 C 3.792969 10.179688 3.605469 10.101562 3.449219 9.945312 C 3.292969 9.789062 3.214844 9.597656 3.214844 9.375 L 3.214844 5.894531 C 3.214844 5.445312 3.371094 5.066406 3.683594 4.753906 C 3.996094 4.441406 4.375 4.285156 4.820312 4.285156 L 10.179688 4.285156 C 10.625 4.285156 11.003906 4.441406 11.316406 4.753906 C 11.628906 5.066406 11.785156 5.445312 11.785156 5.894531 Z M 9.375 2.144531 C 9.375 2.660156 9.191406 3.105469 8.828125 3.46875 C 8.460938 3.835938 8.019531 4.019531 7.5 4.019531 C 6.980469 4.019531 6.539062 3.835938 6.171875 3.46875 C 5.808594 3.105469 5.625 2.660156 5.625 2.144531 C 5.625 1.625 5.808594 1.179688 6.171875 0.816406 C 6.539062 0.449219 6.980469 0.269531 7.5 0.269531 C 8.019531 0.269531 8.460938 0.449219 8.828125 0.816406 C 9.191406 1.179688 9.375 1.625 9.375 2.144531 Z M 9.375 2.144531 " fill="#FFFFFF"/>
  </g>
</svg>