<svg version="1.1" xmlns="http://www.w3.org/2000/svg" xlink="http://www.w3.org/1999/xlink" x="0px" y="0px" width="15px" height="15px" viewBox="0 0 15 15" style="enable-background:new 0 0 15 15;" space="preserve">
    <path d="M13.394531,1.070312C13.539062,1.070312,13.664062,1.125,13.769531,1.230469C13.875,1.335938,13.929688,1.460938,13.929688,1.605469L13.929688,5.089844C13.929688,5.167969,13.902344,5.230469,13.851562,5.28125C13.804688,5.332031,13.738281,5.355469,13.660156,5.355469L13.125,5.355469C13.046875,5.355469,12.984375,5.332031,12.933594,5.28125C12.882812,5.230469,12.855469,5.167969,12.855469,5.089844L12.855469,2.894531L11.074219,4.6875L12.246094,5.859375C12.296875,5.914062,12.320312,5.980469,12.320312,6.050781C12.320312,6.125,12.296875,6.1875,12.246094,6.234375L11.859375,6.621094C11.8125,6.671875,11.75,6.695312,11.675781,6.695312C11.605469,6.695312,11.539062,6.671875,11.484375,6.621094L10.3125,5.441406L9.660156,6.101562C10.363281,6.972656,10.714844,7.972656,10.714844,9.105469C10.714844,9.761719,10.585938,10.382812,10.332031,10.976562C10.078125,11.570312,9.734375,12.085938,9.304688,12.519531C8.871094,12.949219,8.359375,13.292969,7.765625,13.546875C7.167969,13.800781,6.546875,13.929688,5.894531,13.929688C5.238281,13.929688,4.617188,13.800781,4.023438,13.546875C3.429688,13.292969,2.914062,12.949219,2.480469,12.519531C2.050781,12.085938,1.707031,11.570312,1.453125,10.976562C1.199219,10.382812,1.070312,9.761719,1.070312,9.105469C1.070312,8.453125,1.199219,7.832031,1.453125,7.234375C1.707031,6.640625,2.050781,6.128906,2.480469,5.695312C2.914062,5.261719,3.429688,4.921875,4.023438,4.667969C4.617188,4.414062,5.238281,4.285156,5.894531,4.285156C7.027344,4.285156,8.027344,4.636719,8.898438,5.339844L9.550781,4.6875L8.109375,3.246094C8.0625,3.191406,8.035156,3.128906,8.035156,3.054688C8.035156,2.984375,8.0625,2.921875,8.109375,2.871094L8.496094,2.484375C8.546875,2.4375,8.609375,2.410156,8.679688,2.410156C8.753906,2.410156,8.816406,2.4375,8.871094,2.484375L10.3125,3.925781L12.09375,2.144531L9.910156,2.144531C9.832031,2.144531,9.769531,2.117188,9.71875,2.066406C9.667969,2.015625,9.644531,1.953125,9.644531,1.875L9.644531,1.339844C9.644531,1.261719,9.667969,1.195312,9.71875,1.148438C9.769531,1.097656,9.832031,1.070312,9.910156,1.070312ZM5.894531,12.855469C6.925781,12.855469,7.808594,12.488281,8.542969,11.757812C9.277344,11.023438,9.644531,10.140625,9.644531,9.105469C9.644531,8.074219,9.277344,7.191406,8.542969,6.457031C7.808594,5.722656,6.925781,5.355469,5.894531,5.355469C4.859375,5.355469,3.976562,5.722656,3.242188,6.457031C2.507812,7.191406,2.144531,8.074219,2.144531,9.105469C2.144531,10.140625,2.507812,11.023438,3.242188,11.757812C3.976562,12.488281,4.859375,12.855469,5.894531,12.855469ZM5.894531,12.855469" fill="#FFFFFF"/>
    </svg>