<svg version="1.1" xmlns="http://www.w3.org/2000/svg" xlink="http://www.w3.org/1999/xlink" x="0px" y="0px" width="15px" height="18.75px" viewBox="0 0 15 18.75" style="enable-background:new 0 0 15 15;" space="preserve">
    <path d="M18.784753417968748,7.031359863281249c-0.5442626953125,-0.003955078125,-1.067138671875,0.08503417968749999,-1.5539794921875,0.2517333984375L16.02498779296875,5.2734375H19.04296875c0.48541259765625006,0,0.87890625,-0.39349365234374994,0.87890625,-0.87890625V3.22265625c0,-0.48541259765625006,-0.39349365234374994,-0.87890625,-0.87890625,-0.87890625h-1.65933837890625a0.87890625,0.87890625,0,0,0,-0.65328369140625,0.29095458984375l-1.3731445312500001,1.5257446289062497l-0.8340087890625001,-1.3899902343750001A0.87890625,0.87890625,0,0,0,13.76953125,2.34375h-2.9296875c-0.32362060546875004,0,-0.5859375,0.26231689453125,-0.5859375,0.5859375v0.5859375c0,0.32362060546875004,0.26231689453125,0.5859375,0.5859375,0.5859375h2.43204345703125l0.703125,1.171875H8.34609375c-0.64918212890625,-0.8449584960937501,-1.645166015625,-1.46484375,-3.6585937499999996,-1.46484375H2.6564941406250004c-0.49273681640625,0,-0.90787353515625,0.40323486328124997,-0.89853515625,0.8958984375C1.7670410156250003,5.18206787109375,2.156982421875,5.56640625,2.63671875,5.56640625h2.05078125c0.89736328125,0,1.4167236328125,0.39986572265625,1.7500122070312498,0.9070678710937499l-0.41348876953125,0.75179443359375c-0.4762939453125,-0.14154052734375,-0.98404541015625,-0.21005859374999997,-1.51065673828125,-0.1907958984375C2.04554443359375,7.1245971679687505,0.05731201171874999,9.14080810546875,0.0012451171875,11.609655761718752C-0.05870361328125,14.248388671875,2.06239013671875,16.40625,4.6875,16.40625c2.1841552734375,0,4.0189453125000005,-1.4939208984374999,4.53929443359375,-3.515625h3.084814453125c0.50072021484375,0,0.90047607421875,-0.41824951171875,0.8780273437499999,-0.91834716796875c-0.0775634765625,-1.7255859375,0.6416748046874999,-3.4301147460937504,2.05755615234375,-4.5785888671874995l0.45721435546874994,0.76201171875c-1.0124267578125,0.8662353515625,-1.65150146484375,2.15625,-1.6417602539062501,3.5954223632812496c0.0172119140625,2.547216796875,2.09483642578125,4.630810546875,4.642016601562499,4.6549072265625c2.6231323242187505,0.0248291015625,4.75484619140625,-2.1052368164062503,4.7326904296875005,-4.72774658203125c-0.021533203125,-2.54849853515625,-2.10406494140625,-4.6283935546875,-4.65260009765625,-4.646923828125zM4.6875,14.6484375c-1.6154296875000003,0,-2.9296875,-1.3142578124999997,-2.9296875,-2.9296875s1.3142578124999997,-2.9296875,2.9296875,-2.9296875c0.15534667968750002,0,0.30780029296875,0.012487792968750001,0.45662841796875,0.0359619140625L3.6243896484375,11.588159179687501C3.3027465820312503,12.173107910156249,3.7266357421875003,12.890625,4.39453125,12.890625h2.97718505859375c-0.45300292968749994,1.03363037109375,-1.4853515625000002,1.7578125,-2.68421630859375,1.7578125zm14.22183837890625,-0.004248046875C17.221875,14.73402099609375,15.8203125,13.386987304687498,15.8203125,11.71875c0,-0.78233642578125,0.3088623046875,-1.4934448242187501,0.81024169921875,-2.01943359375l1.8095214843749998,3.0158203125c0.1664794921875,0.27747802734375,0.52642822265625,0.36745605468750003,0.80390625,0.2009765625l0.50244140625,-0.30146484375c0.27747802734375,-0.1664794921875,0.36745605468750003,-0.52642822265625,0.2009765625,-0.80390625l-1.778173828125,-2.9636352539062507A2.9298706054687496,2.9298706054687496,0,0,1,18.75,8.7890625c1.6682373046875,0,3.0153076171874997,1.4015991210937502,2.925439453125,3.0890625c-0.07910156250000001,1.4852783203125,-1.2807861328124996,2.686962890625,-2.76610107421875,2.766064453125z" fill="#FFFFFF"/>
    </svg>