<?xml version="1.0" encoding="UTF-8" standalone="yes"?>
<svg xmlns="http://www.w3.org/2000/svg" xmlns:xlink="http://www.w3.org/1999/xlink" width="20px" height="20px" viewBox="0 0 15 15" version="1.1">
  <g id="surface1">
    <path style=" stroke:none;fill-rule:nonzero;fill:rgb(0%,0%,0%);fill-opacity:1;" d="M 11.785156 8.035156 L 11.785156 6.964844 C 11.785156 6.820312 11.734375 6.695312 11.625 6.585938 C 11.519531 6.480469 11.394531 6.429688 11.25 6.429688 L 3.75 6.429688 C 3.605469 6.429688 3.480469 6.480469 3.375 6.585938 C 3.265625 6.695312 3.214844 6.820312 3.214844 6.964844 L 3.214844 8.035156 C 3.214844 8.179688 3.265625 8.304688 3.375 8.414062 C 3.480469 8.519531 3.605469 8.570312 3.75 8.570312 L 11.25 8.570312 C 11.394531 8.570312 11.519531 8.519531 11.625 8.414062 C 11.734375 8.304688 11.785156 8.179688 11.785156 8.035156 Z M 13.929688 3.480469 L 13.929688 11.519531 C 13.929688 12.183594 13.691406 12.75 13.222656 13.222656 C 12.75 13.691406 12.183594 13.929688 11.519531 13.929688 L 3.480469 13.929688 C 2.816406 13.929688 2.25 13.691406 1.777344 13.222656 C 1.308594 12.75 1.070312 12.183594 1.070312 11.519531 L 1.070312 3.480469 C 1.070312 2.816406 1.308594 2.25 1.777344 1.777344 C 2.25 1.308594 2.816406 1.070312 3.480469 1.070312 L 11.519531 1.070312 C 12.183594 1.070312 12.75 1.308594 13.222656 1.777344 C 13.691406 2.25 13.929688 2.816406 13.929688 3.480469 Z M 13.929688 3.480469 "/>
  </g>
</svg>