<?xml version="1.0" encoding="UTF-8" standalone="yes"?>
<svg xmlns="http://www.w3.org/2000/svg" xmlns:xlink="http://www.w3.org/1999/xlink" width="20px" height="20px" viewBox="0 0 15 15" version="1.1">
  <g id="surface1">
    <path style=" stroke:none;fill-rule:nonzero;fill:rgb(0%,0%,0%);fill-opacity:1;" d="M 15 9.375 C 15 10.300781 14.644531 11.558594 13.9375 13.148438 C 13.921875 13.1875 13.890625 13.257812 13.847656 13.351562 C 13.808594 13.445312 13.769531 13.53125 13.734375 13.601562 C 13.703125 13.675781 13.667969 13.734375 13.628906 13.785156 C 13.558594 13.882812 13.480469 13.929688 13.394531 13.929688 C 13.308594 13.929688 13.242188 13.902344 13.195312 13.84375 C 13.148438 13.789062 13.125 13.71875 13.125 13.636719 C 13.125 13.585938 13.132812 13.511719 13.144531 13.414062 C 13.160156 13.316406 13.167969 13.25 13.167969 13.21875 C 13.195312 12.835938 13.207031 12.496094 13.207031 12.1875 C 13.207031 11.625 13.160156 11.117188 13.0625 10.671875 C 12.964844 10.226562 12.828125 9.839844 12.65625 9.511719 C 12.484375 9.1875 12.261719 8.90625 11.988281 8.667969 C 11.714844 8.429688 11.417969 8.238281 11.101562 8.085938 C 10.789062 7.933594 10.417969 7.816406 9.992188 7.730469 C 9.5625 7.644531 9.132812 7.582031 8.703125 7.550781 C 8.269531 7.515625 7.777344 7.5 7.230469 7.5 L 5.355469 7.5 L 5.355469 9.644531 C 5.355469 9.789062 5.304688 9.914062 5.199219 10.019531 C 5.09375 10.125 4.964844 10.179688 4.820312 10.179688 C 4.675781 10.179688 4.550781 10.125 4.445312 10.019531 L 0.160156 5.734375 C 0.0546875 5.628906 0 5.503906 0 5.355469 C 0 5.210938 0.0546875 5.085938 0.160156 4.980469 L 4.445312 0.695312 C 4.550781 0.589844 4.675781 0.535156 4.820312 0.535156 C 4.964844 0.535156 5.09375 0.589844 5.199219 0.695312 C 5.304688 0.800781 5.355469 0.925781 5.355469 1.070312 L 5.355469 3.214844 L 7.230469 3.214844 C 11.210938 3.214844 13.652344 4.339844 14.554688 6.585938 C 14.851562 7.335938 15 8.265625 15 9.375 Z M 15 9.375 "/>
  </g>
</svg>