<?xml version="1.0" encoding="UTF-8" standalone="yes"?>
<svg xmlns="http://www.w3.org/2000/svg" xmlns:xlink="http://www.w3.org/1999/xlink" width="20px" height="20px" viewBox="0 0 15 15" version="1.1">
  <g id="surface1">
    <path style=" stroke:none;fill-rule:nonzero;fill:rgb(0%,0%,0%);fill-opacity:1;" d="M 7.5 9.105469 C 7.867188 9.105469 8.226562 9.066406 8.570312 8.980469 L 8.570312 14.464844 C 8.570312 14.609375 8.519531 14.734375 8.414062 14.839844 C 8.304688 14.945312 8.179688 15 8.035156 15 L 6.964844 15 C 6.820312 15 6.695312 14.945312 6.585938 14.839844 C 6.480469 14.734375 6.429688 14.609375 6.429688 14.464844 L 6.429688 8.980469 C 6.769531 9.066406 7.125 9.105469 7.5 9.105469 Z M 7.5 0 C 8.683594 0 9.691406 0.417969 10.53125 1.253906 C 11.367188 2.09375 11.785156 3.101562 11.785156 4.285156 C 11.785156 5.46875 11.367188 6.480469 10.53125 7.316406 C 9.691406 8.152344 8.683594 8.570312 7.5 8.570312 C 6.316406 8.570312 5.308594 8.152344 4.46875 7.316406 C 3.632812 6.480469 3.214844 5.46875 3.214844 4.285156 C 3.214844 3.101562 3.632812 2.09375 4.46875 1.253906 C 5.308594 0.417969 6.316406 0 7.5 0 Z M 7.5 1.875 C 7.578125 1.875 7.640625 1.851562 7.691406 1.800781 C 7.742188 1.75 7.769531 1.683594 7.769531 1.605469 C 7.769531 1.527344 7.742188 1.464844 7.691406 1.414062 C 7.640625 1.363281 7.578125 1.339844 7.5 1.339844 C 6.683594 1.339844 5.992188 1.625 5.414062 2.203125 C 4.839844 2.777344 4.554688 3.472656 4.554688 4.285156 C 4.554688 4.363281 4.578125 4.429688 4.628906 4.476562 C 4.679688 4.527344 4.742188 4.554688 4.820312 4.554688 C 4.898438 4.554688 4.964844 4.527344 5.015625 4.476562 C 5.0625 4.429688 5.089844 4.363281 5.089844 4.285156 C 5.089844 3.621094 5.324219 3.054688 5.796875 2.582031 C 6.269531 2.109375 6.835938 1.875 7.5 1.875 Z M 7.5 1.875 "/>
  </g>
</svg>