<?xml version="1.0" encoding="UTF-8" standalone="yes"?>
<svg xmlns="http://www.w3.org/2000/svg" xmlns:xlink="http://www.w3.org/1999/xlink" width="20px" height="20px" viewBox="0 0 15 15" version="1.1">
  <g id="surface1">
    <path style=" stroke:none;fill-rule:nonzero;fill:rgb(0%,0%,0%);fill-opacity:1;" d="M 12.046875 7.046875 L 12.046875 8.003906 C 12.046875 8.136719 12.007812 8.242188 11.933594 8.320312 C 11.855469 8.398438 11.753906 8.4375 11.617188 8.4375 L 9.925781 8.4375 C 9.792969 8.4375 9.6875 8.398438 9.609375 8.320312 C 9.53125 8.242188 9.492188 8.136719 9.492188 8.003906 L 9.492188 7.046875 C 9.492188 6.914062 9.53125 6.808594 9.609375 6.730469 C 9.6875 6.652344 9.792969 6.613281 9.925781 6.613281 L 11.617188 6.613281 C 11.753906 6.613281 11.855469 6.652344 11.933594 6.730469 C 12.007812 6.808594 12.046875 6.914062 12.046875 7.046875 Z M 7.945312 8.972656 L 7.945312 6.878906 C 7.945312 6.585938 7.851562 6.347656 7.671875 6.164062 C 7.488281 5.984375 7.25 5.894531 6.957031 5.894531 L 5.84375 5.894531 C 5.464844 5.894531 5.195312 6.039062 5.039062 6.328125 C 4.882812 6.039062 4.613281 5.894531 4.234375 5.894531 L 3.148438 5.894531 C 2.851562 5.894531 2.613281 5.984375 2.429688 6.164062 C 2.25 6.347656 2.160156 6.585938 2.160156 6.878906 L 2.160156 8.972656 C 2.160156 9.097656 2.21875 9.15625 2.335938 9.15625 L 2.796875 9.15625 C 2.917969 9.15625 2.980469 9.097656 2.980469 8.972656 L 2.980469 7.046875 C 2.980469 6.914062 3.015625 6.808594 3.09375 6.730469 C 3.167969 6.652344 3.277344 6.613281 3.414062 6.613281 L 4.203125 6.613281 C 4.335938 6.613281 4.441406 6.652344 4.519531 6.730469 C 4.597656 6.808594 4.636719 6.914062 4.636719 7.046875 L 4.636719 8.972656 C 4.636719 9.097656 4.695312 9.15625 4.8125 9.15625 L 5.265625 9.15625 C 5.386719 9.15625 5.449219 9.097656 5.449219 8.972656 L 5.449219 7.046875 C 5.449219 6.914062 5.488281 6.808594 5.566406 6.730469 C 5.644531 6.652344 5.75 6.613281 5.882812 6.613281 L 6.695312 6.613281 C 6.832031 6.613281 6.933594 6.652344 7.011719 6.730469 C 7.085938 6.808594 7.125 6.914062 7.125 7.046875 L 7.125 8.972656 C 7.125 9.097656 7.183594 9.15625 7.308594 9.15625 L 7.769531 9.15625 C 7.886719 9.15625 7.945312 9.097656 7.945312 8.972656 Z M 12.875 8.167969 L 12.875 6.878906 C 12.875 6.585938 12.78125 6.347656 12.597656 6.164062 C 12.414062 5.984375 12.171875 5.894531 11.878906 5.894531 L 9.667969 5.894531 C 9.371094 5.894531 9.132812 5.984375 8.949219 6.164062 C 8.765625 6.347656 8.671875 6.585938 8.671875 6.878906 L 8.671875 10.3125 C 8.671875 10.429688 8.734375 10.488281 8.855469 10.488281 L 9.316406 10.488281 C 9.433594 10.488281 9.492188 10.429688 9.492188 10.3125 L 9.492188 8.804688 C 9.664062 9.039062 9.925781 9.15625 10.277344 9.15625 L 11.878906 9.15625 C 12.171875 9.15625 12.414062 9.066406 12.597656 8.886719 C 12.78125 8.703125 12.875 8.464844 12.875 8.167969 Z M 13.929688 3.011719 L 13.929688 11.988281 C 13.929688 12.523438 13.738281 12.980469 13.359375 13.359375 C 12.980469 13.738281 12.523438 13.929688 11.988281 13.929688 L 3.011719 13.929688 C 2.476562 13.929688 2.019531 13.738281 1.640625 13.359375 C 1.261719 12.980469 1.070312 12.523438 1.070312 11.988281 L 1.070312 3.011719 C 1.070312 2.476562 1.261719 2.019531 1.640625 1.640625 C 2.019531 1.261719 2.476562 1.070312 3.011719 1.070312 L 11.988281 1.070312 C 12.523438 1.070312 12.980469 1.261719 13.359375 1.640625 C 13.738281 2.019531 13.929688 2.476562 13.929688 3.011719 Z M 13.929688 3.011719 "/>
  </g>
</svg>