<svg version="1.1" xmlns="http://www.w3.org/2000/svg" xlink="http://www.w3.org/1999/xlink" x="0px" y="0px" width="15px" height="15px" viewBox="0 0 15 15" style="enable-background:new 0 0 15 15;" space="preserve">
    <path d="M4.285156,0C4.359375,0,4.421875,0.0273438,4.472656,0.078125C4.527344,0.132812,4.554688,0.195312,4.554688,0.269531L4.554688,12.589844C4.554688,12.699219,4.507812,12.777344,4.410156,12.824219L0.394531,14.964844C0.355469,14.988281,0.3125,15,0.269531,15C0.195312,15,0.132812,14.972656,0.078125,14.921875C0.0273438,14.867188,0,14.804688,0,14.730469L0,2.410156C0,2.300781,0.046875,2.222656,0.140625,2.175781L4.160156,0.0351562C4.199219,0.0117188,4.242188,0,4.285156,0ZM14.730469,0C14.804688,0,14.867188,0.0273438,14.921875,0.078125C14.972656,0.132812,15,0.195312,15,0.269531L15,12.589844C15,12.699219,14.953125,12.777344,14.859375,12.824219L10.839844,14.964844C10.800781,14.988281,10.757812,15,10.714844,15C10.640625,15,10.578125,14.972656,10.527344,14.921875C10.472656,14.867188,10.445312,14.804688,10.445312,14.730469L10.445312,2.410156C10.445312,2.300781,10.492188,2.222656,10.589844,2.175781L14.605469,0.0351562C14.644531,0.0117188,14.6875,0,14.730469,0ZM5.355469,0C5.402344,0,5.441406,0.0078125,5.472656,0.0234375L9.761719,2.167969C9.859375,2.222656,9.910156,2.304688,9.910156,2.410156L9.910156,14.730469C9.910156,14.804688,9.882812,14.867188,9.832031,14.921875C9.777344,14.972656,9.714844,15,9.644531,15C9.597656,15,9.558594,14.992188,9.527344,14.976562L5.238281,12.832031C5.140625,12.777344,5.089844,12.695312,5.089844,12.589844L5.089844,0.269531C5.089844,0.195312,5.117188,0.132812,5.167969,0.078125C5.222656,0.0273438,5.285156,0,5.355469,0ZM5.355469,0" fill="#FFFFFF"/>
    </svg>