<svg version="1.1" xmlns="http://www.w3.org/2000/svg" xlink="http://www.w3.org/1999/xlink" x="0px" y="0px" width="15px" height="15px" viewBox="0 0 15 15" style="enable-background:new 0 0 15 15;" space="preserve">
    <path d="M11.785156,8.035156L11.785156,6.964844C11.785156,6.820312,11.734375,6.695312,11.625,6.585938C11.519531,6.480469,11.394531,6.429688,11.25,6.429688L3.75,6.429688C3.605469,6.429688,3.480469,6.480469,3.375,6.585938C3.265625,6.695312,3.214844,6.820312,3.214844,6.964844L3.214844,8.035156C3.214844,8.179688,3.265625,8.304688,3.375,8.414062C3.480469,8.519531,3.605469,8.570312,3.75,8.570312L11.25,8.570312C11.394531,8.570312,11.519531,8.519531,11.625,8.414062C11.734375,8.304688,11.785156,8.179688,11.785156,8.035156ZM13.929688,3.480469L13.929688,11.519531C13.929688,12.183594,13.691406,12.75,13.222656,13.222656C12.75,13.691406,12.183594,13.929688,11.519531,13.929688L3.480469,13.929688C2.816406,13.929688,2.25,13.691406,1.777344,13.222656C1.308594,12.75,1.070312,12.183594,1.070312,11.519531L1.070312,3.480469C1.070312,2.816406,1.308594,2.25,1.777344,1.777344C2.25,1.308594,2.816406,1.070312,3.480469,1.070312L11.519531,1.070312C12.183594,1.070312,12.75,1.308594,13.222656,1.777344C13.691406,2.25,13.929688,2.816406,13.929688,3.480469ZM13.929688,3.480469" fill="#FFFFFF"/>
    </svg>