<svg version="1.1" xmlns="http://www.w3.org/2000/svg" xlink="http://www.w3.org/1999/xlink" x="0px" y="0px" width="15px" height="15px" viewBox="0 0 15 15" style="enable-background:new 0 0 15 15;" space="preserve">
    <path d="M15.835938,0.09375C15.992188,0.203125,16.070312,0.351562,16.070312,0.535156L16.070312,12.320312C16.070312,12.433594,16.039062,12.535156,15.980469,12.621094C15.917969,12.710938,15.835938,12.777344,15.738281,12.816406L10.378906,14.957031C10.246094,15.019531,10.113281,15.019531,9.976562,14.957031L4.820312,12.898438L-0.335938,14.957031C-0.390625,14.984375,-0.457031,15,-0.535156,15C-0.640625,15,-0.742188,14.96875,-0.835938,14.90625C-0.992188,14.796875,-1.070312,14.648438,-1.070312,14.464844L-1.070312,2.679688C-1.070312,2.566406,-1.039062,2.464844,-0.980469,2.378906C-0.917969,2.289062,-0.835938,2.222656,-0.738281,2.183594L4.621094,0.0429688C4.753906,-0.0195312,4.886719,-0.0195312,5.023438,0.0429688L10.179688,2.101562L15.335938,0.0429688C15.511719,-0.03125,15.679688,-0.015625,15.835938,0.09375ZM5.089844,1.222656L5.089844,11.851562L9.910156,13.777344L9.910156,3.148438ZM0,3.039062L0,13.667969L4.554688,11.851562L4.554688,1.222656ZM15,11.960938L15,1.332031L10.445312,3.148438L10.445312,13.777344ZM15,11.960938" fill="#FFFFFF"/>
    </svg>