<?xml version="1.0" encoding="UTF-8" standalone="yes"?>
<svg xmlns="http://www.w3.org/2000/svg" xmlns:xlink="http://www.w3.org/1999/xlink" width="20px" height="20px" viewBox="0 0 15 15" version="1.1">
  <g id="surface1">
    <path style=" stroke:none;fill-rule:nonzero;fill:rgb(0%,0%,0%);fill-opacity:1;" d="M 13.394531 1.070312 C 13.539062 1.070312 13.664062 1.125 13.769531 1.230469 C 13.875 1.335938 13.929688 1.460938 13.929688 1.605469 L 13.929688 5.089844 C 13.929688 5.167969 13.902344 5.230469 13.851562 5.28125 C 13.804688 5.332031 13.738281 5.355469 13.660156 5.355469 L 13.125 5.355469 C 13.046875 5.355469 12.984375 5.332031 12.933594 5.28125 C 12.882812 5.230469 12.855469 5.167969 12.855469 5.089844 L 12.855469 2.894531 L 9.660156 6.101562 C 10.363281 6.972656 10.714844 7.972656 10.714844 9.105469 C 10.714844 9.761719 10.585938 10.382812 10.332031 10.976562 C 10.078125 11.570312 9.734375 12.085938 9.304688 12.519531 C 8.871094 12.949219 8.359375 13.292969 7.765625 13.546875 C 7.167969 13.800781 6.546875 13.929688 5.894531 13.929688 C 5.238281 13.929688 4.617188 13.800781 4.023438 13.546875 C 3.429688 13.292969 2.914062 12.949219 2.480469 12.519531 C 2.050781 12.085938 1.707031 11.570312 1.453125 10.976562 C 1.199219 10.382812 1.070312 9.761719 1.070312 9.105469 C 1.070312 8.453125 1.199219 7.832031 1.453125 7.234375 C 1.707031 6.640625 2.050781 6.128906 2.480469 5.695312 C 2.914062 5.261719 3.429688 4.921875 4.023438 4.667969 C 4.617188 4.414062 5.238281 4.285156 5.894531 4.285156 C 7.027344 4.285156 8.027344 4.636719 8.898438 5.339844 L 12.09375 2.144531 L 9.910156 2.144531 C 9.832031 2.144531 9.769531 2.117188 9.71875 2.066406 C 9.667969 2.015625 9.644531 1.953125 9.644531 1.875 L 9.644531 1.339844 C 9.644531 1.261719 9.667969 1.195312 9.71875 1.148438 C 9.769531 1.097656 9.832031 1.070312 9.910156 1.070312 Z M 5.894531 12.855469 C 6.925781 12.855469 7.808594 12.488281 8.542969 11.757812 C 9.277344 11.023438 9.644531 10.140625 9.644531 9.105469 C 9.644531 8.074219 9.277344 7.191406 8.542969 6.457031 C 7.808594 5.722656 6.925781 5.355469 5.894531 5.355469 C 4.859375 5.355469 3.976562 5.722656 3.242188 6.457031 C 2.507812 7.191406 2.144531 8.074219 2.144531 9.105469 C 2.144531 10.140625 2.507812 11.023438 3.242188 11.757812 C 3.976562 12.488281 4.859375 12.855469 5.894531 12.855469 Z M 5.894531 12.855469 "/>
  </g>
</svg>