<svg version="1.1" xmlns="http://www.w3.org/2000/svg" xlink="http://www.w3.org/1999/xlink" x="0px" y="0px" width="15px" height="15px" viewBox="0 0 15 15" style="enable-background:new 0 0 15 15;" space="preserve">
    <path d="M14.839844,7.660156C14.945312,7.765625,15,7.890625,15,8.035156C15,8.179688,14.945312,8.304688,14.839844,8.414062L12.378906,10.875C12.328125,10.929688,12.265625,10.957031,12.191406,10.957031C12.117188,10.957031,12.054688,10.929688,12.003906,10.875L11.625,10.496094C11.570312,10.445312,11.542969,10.382812,11.542969,10.308594C11.542969,10.234375,11.570312,10.171875,11.625,10.121094L13.175781,8.570312L10.714844,8.570312L10.714844,10.445312C10.714844,10.523438,10.6875,10.589844,10.640625,10.640625C10.589844,10.6875,10.523438,10.714844,10.445312,10.714844L9.910156,10.714844C9.832031,10.714844,9.769531,10.6875,9.71875,10.640625C9.667969,10.589844,9.644531,10.523438,9.644531,10.445312L9.644531,8.570312L8.539062,8.570312C8.402344,9.78125,7.882812,10.800781,6.96875,11.621094C6.054688,12.445312,4.984375,12.855469,3.75,12.855469C2.816406,12.855469,1.964844,12.613281,1.1875,12.128906C0.414062,11.644531,-0.179688,10.984375,-0.585938,10.152344C-0.992188,9.320312,-1.144531,8.433594,-1.039062,7.484375C-0.953125,6.742188,-0.707031,6.054688,-0.300781,5.429688C0.105469,4.800781,0.628906,4.292969,1.273438,3.90625C1.914062,3.515625,2.609375,3.292969,3.355469,3.230469C4.222656,3.164062,5.035156,3.3125,5.800781,3.671875C6.566406,4.03125,7.191406,4.550781,7.675781,5.226562C8.160156,5.90625,8.449219,6.664062,8.539062,7.5L9.644531,7.5L9.644531,5.625C9.644531,5.546875,9.667969,5.484375,9.71875,5.433594C9.769531,5.382812,9.832031,5.355469,9.910156,5.355469L10.445312,5.355469C10.523438,5.355469,10.589844,5.382812,10.640625,5.433594C10.6875,5.484375,10.714844,5.546875,10.714844,5.625L10.714844,7.5L13.175781,7.5L11.625,5.953125C11.570312,5.902344,11.542969,5.839844,11.542969,5.761719C11.542969,5.6875,11.570312,5.625,11.625,5.574219L12.003906,5.199219C12.054688,5.140625,12.117188,5.113281,12.191406,5.113281C12.265625,5.113281,12.328125,5.140625,12.378906,5.199219ZM3.75,11.785156C4.78125,11.785156,5.664062,11.417969,6.398438,10.683594C7.132812,9.949219,7.5,9.066406,7.5,8.035156C7.5,7.003906,7.132812,6.121094,6.398438,5.386719C5.664062,4.652344,4.78125,4.285156,3.75,4.285156C2.71875,4.285156,1.835938,4.652344,1.101562,5.386719C0.367188,6.121094,0,7.003906,0,8.035156C0,9.066406,0.367188,9.949219,1.101562,10.683594C1.835938,11.417969,2.71875,11.785156,3.75,11.785156ZM3.75,11.785156" fill="#FFFFFF"/>
    </svg>