<svg version="1.1" xmlns="http://www.w3.org/2000/svg" xlink="http://www.w3.org/1999/xlink" x="0px" y="0px" width="15px" height="15px" viewBox="0 0 15 15" style="enable-background:new 0 0 15 15;" space="preserve">
    <path d="M12.046875,7.046875L12.046875,8.003906C12.046875,8.136719,12.007812,8.242188,11.933594,8.320312C11.855469,8.398438,11.753906,8.4375,11.617188,8.4375L9.925781,8.4375C9.792969,8.4375,9.6875,8.398438,9.609375,8.320312C9.53125,8.242188,9.492188,8.136719,9.492188,8.003906L9.492188,7.046875C9.492188,6.914062,9.53125,6.808594,9.609375,6.730469C9.6875,6.652344,9.792969,6.613281,9.925781,6.613281L11.617188,6.613281C11.753906,6.613281,11.855469,6.652344,11.933594,6.730469C12.007812,6.808594,12.046875,6.914062,12.046875,7.046875ZM7.945312,8.972656L7.945312,6.878906C7.945312,6.585938,7.851562,6.347656,7.671875,6.164062C7.488281,5.984375,7.25,5.894531,6.957031,5.894531L5.84375,5.894531C5.464844,5.894531,5.195312,6.039062,5.039062,6.328125C4.882812,6.039062,4.613281,5.894531,4.234375,5.894531L3.148438,5.894531C2.851562,5.894531,2.613281,5.984375,2.429688,6.164062C2.25,6.347656,2.160156,6.585938,2.160156,6.878906L2.160156,8.972656C2.160156,9.097656,2.21875,9.15625,2.335938,9.15625L2.796875,9.15625C2.917969,9.15625,2.980469,9.097656,2.980469,8.972656L2.980469,7.046875C2.980469,6.914062,3.015625,6.808594,3.09375,6.730469C3.167969,6.652344,3.277344,6.613281,3.414062,6.613281L4.203125,6.613281C4.335938,6.613281,4.441406,6.652344,4.519531,6.730469C4.597656,6.808594,4.636719,6.914062,4.636719,7.046875L4.636719,8.972656C4.636719,9.097656,4.695312,9.15625,4.8125,9.15625L5.265625,9.15625C5.386719,9.15625,5.449219,9.097656,5.449219,8.972656L5.449219,7.046875C5.449219,6.914062,5.488281,6.808594,5.566406,6.730469C5.644531,6.652344,5.75,6.613281,5.882812,6.613281L6.695312,6.613281C6.832031,6.613281,6.933594,6.652344,7.011719,6.730469C7.085938,6.808594,7.125,6.914062,7.125,7.046875L7.125,8.972656C7.125,9.097656,7.183594,9.15625,7.308594,9.15625L7.769531,9.15625C7.886719,9.15625,7.945312,9.097656,7.945312,8.972656ZM12.875,8.167969L12.875,6.878906C12.875,6.585938,12.78125,6.347656,12.597656,6.164062C12.414062,5.984375,12.171875,5.894531,11.878906,5.894531L9.667969,5.894531C9.371094,5.894531,9.132812,5.984375,8.949219,6.164062C8.765625,6.347656,8.671875,6.585938,8.671875,6.878906L8.671875,10.3125C8.671875,10.429688,8.734375,10.488281,8.855469,10.488281L9.316406,10.488281C9.433594,10.488281,9.492188,10.429688,9.492188,10.3125L9.492188,8.804688C9.664062,9.039062,9.925781,9.15625,10.277344,9.15625L11.878906,9.15625C12.171875,9.15625,12.414062,9.066406,12.597656,8.886719C12.78125,8.703125,12.875,8.464844,12.875,8.167969ZM13.929688,3.011719L13.929688,11.988281C13.929688,12.523438,13.738281,12.980469,13.359375,13.359375C12.980469,13.738281,12.523438,13.929688,11.988281,13.929688L3.011719,13.929688C2.476562,13.929688,2.019531,13.738281,1.640625,13.359375C1.261719,12.980469,1.070312,12.523438,1.070312,11.988281L1.070312,3.011719C1.070312,2.476562,1.261719,2.019531,1.640625,1.640625C2.019531,1.261719,2.476562,1.070312,3.011719,1.070312L11.988281,1.070312C12.523438,1.070312,12.980469,1.261719,13.359375,1.640625C13.738281,2.019531,13.929688,2.476562,13.929688,3.011719ZM13.929688,3.011719" fill="#FFFFFF"/>
    </svg>