<svg version="1.1" xmlns="http://www.w3.org/2000/svg" xlink="http://www.w3.org/1999/xlink" x="0px" y="0px" width="15px" height="40px" viewBox="0 0 15 40" style="enable-background:new 0 0 15 15;" space="preserve">
    <path d="M7.5,0c2.76140625,0,5,2.23859375,5,5s-2.23859375,5,-5,5s-5,-2.23859375,-5,-5S4.738593750000001,0,7.5,0m3.75,11.25h-0.8875c-1.7742968749999999,0.8158593749999999,-3.8742187500000003,0.85109375,-5.725,0H3.75c-2.07109375,0,-3.75,1.6789062499999998,-3.75,3.75v10.625c0,1.035546875,0.8394531249999999,1.875,1.875,1.875h1.25v10.625c0,1.035546875,0.8394531249999999,1.875,1.875,1.875h5c1.035546875,0,1.875,-0.8394531249999999,1.875,-1.875V27.5h1.25c1.035546875,0,1.875,-0.8394531249999999,1.875,-1.875V15c0,-2.07109375,-1.6789062499999998,-3.75,-3.75,-3.75z" fill="#FFFFFF"/>
    </svg>