<?xml version="1.0" encoding="UTF-8" standalone="yes"?>
<svg xmlns="http://www.w3.org/2000/svg" xmlns:xlink="http://www.w3.org/1999/xlink" width="20px" height="20px" viewBox="0 0 15 15" version="1.1">
  <g id="surface1">
    <path style=" stroke:none;fill-rule:nonzero;fill:rgb(0%,0%,0%);fill-opacity:1;" d="M 14.605469 2.484375 C 14.664062 2.542969 14.691406 2.605469 14.691406 2.679688 C 14.691406 2.75 14.664062 2.816406 14.605469 2.871094 L 13.425781 4.050781 C 13.269531 4.207031 13.082031 4.285156 12.855469 4.285156 L 1.605469 4.285156 C 1.460938 4.285156 1.335938 4.234375 1.230469 4.125 C 1.125 4.019531 1.070312 3.894531 1.070312 3.75 L 1.070312 1.605469 C 1.070312 1.460938 1.125 1.335938 1.230469 1.230469 C 1.335938 1.125 1.460938 1.070312 1.605469 1.070312 L 6.429688 1.070312 L 6.429688 0.535156 C 6.429688 0.390625 6.480469 0.265625 6.585938 0.160156 C 6.695312 0.0546875 6.820312 0 6.964844 0 L 8.035156 0 C 8.179688 0 8.304688 0.0546875 8.414062 0.160156 C 8.519531 0.265625 8.570312 0.390625 8.570312 0.535156 L 8.570312 1.070312 L 12.855469 1.070312 C 13.082031 1.070312 13.269531 1.148438 13.425781 1.304688 Z M 6.429688 10.179688 L 8.570312 10.179688 L 8.570312 14.464844 C 8.570312 14.609375 8.519531 14.734375 8.414062 14.839844 C 8.304688 14.945312 8.179688 15 8.035156 15 L 6.964844 15 C 6.820312 15 6.695312 14.945312 6.585938 14.839844 C 6.480469 14.734375 6.429688 14.609375 6.429688 14.464844 Z M 13.394531 6.429688 C 13.539062 6.429688 13.664062 6.480469 13.769531 6.585938 C 13.875 6.695312 13.929688 6.820312 13.929688 6.964844 L 13.929688 9.105469 C 13.929688 9.253906 13.875 9.378906 13.769531 9.484375 C 13.664062 9.589844 13.539062 9.644531 13.394531 9.644531 L 2.144531 9.644531 C 1.917969 9.644531 1.730469 9.566406 1.574219 9.410156 L 0.394531 8.226562 C 0.335938 8.171875 0.308594 8.109375 0.308594 8.035156 C 0.308594 7.964844 0.335938 7.898438 0.394531 7.84375 L 1.574219 6.664062 C 1.730469 6.507812 1.917969 6.429688 2.144531 6.429688 L 6.429688 6.429688 L 6.429688 4.820312 L 8.570312 4.820312 L 8.570312 6.429688 Z M 13.394531 6.429688 "/>
  </g>
</svg>