<?xml version="1.0" encoding="UTF-8" standalone="yes"?>
<svg xmlns="http://www.w3.org/2000/svg" xmlns:xlink="http://www.w3.org/1999/xlink" width="20px" height="20px" viewBox="0 0 15 15" version="1.1">
  <g id="surface1">
    <path style=" stroke:none;fill-rule:nonzero;fill:rgb(0%,0%,0%);fill-opacity:1;" d="M 5.355469 9.058594 L 5.355469 9.644531 C 5.355469 9.878906 5.25 10.042969 5.03125 10.136719 C 4.957031 10.164062 4.886719 10.179688 4.820312 10.179688 C 4.671875 10.179688 4.546875 10.125 4.445312 10.019531 L 0.160156 5.734375 C 0.0546875 5.628906 0 5.503906 0 5.355469 C 0 5.210938 0.0546875 5.085938 0.160156 4.980469 L 4.445312 0.695312 C 4.605469 0.523438 4.800781 0.484375 5.03125 0.578125 C 5.25 0.671875 5.355469 0.835938 5.355469 1.070312 L 5.355469 1.648438 L 2.035156 4.980469 C 1.929688 5.085938 1.875 5.210938 1.875 5.355469 C 1.875 5.503906 1.929688 5.628906 2.035156 5.734375 Z M 15 9.375 C 15 9.699219 14.953125 10.070312 14.859375 10.492188 C 14.761719 10.914062 14.65625 11.296875 14.535156 11.648438 C 14.414062 11.996094 14.28125 12.34375 14.132812 12.695312 C 13.984375 13.042969 13.871094 13.296875 13.792969 13.453125 L 13.628906 13.785156 C 13.582031 13.882812 13.503906 13.929688 13.394531 13.929688 C 13.359375 13.929688 13.335938 13.925781 13.316406 13.921875 C 13.179688 13.875 13.113281 13.78125 13.125 13.636719 C 13.363281 11.402344 13.070312 9.828125 12.238281 8.90625 C 11.878906 8.511719 11.40625 8.203125 10.8125 7.980469 C 10.214844 7.761719 9.46875 7.613281 8.570312 7.542969 L 8.570312 9.644531 C 8.570312 9.878906 8.460938 10.042969 8.246094 10.136719 C 8.171875 10.164062 8.101562 10.179688 8.035156 10.179688 C 7.886719 10.179688 7.757812 10.125 7.660156 10.019531 L 3.375 5.734375 C 3.265625 5.628906 3.214844 5.503906 3.214844 5.355469 C 3.214844 5.210938 3.265625 5.085938 3.375 4.980469 L 7.660156 0.695312 C 7.820312 0.523438 8.015625 0.484375 8.246094 0.578125 C 8.460938 0.671875 8.570312 0.835938 8.570312 1.070312 L 8.570312 3.265625 C 10.863281 3.421875 12.535156 4.039062 13.585938 5.113281 C 14.527344 6.078125 15 7.5 15 9.375 Z M 15 9.375 "/>
  </g>
</svg>