<svg xmlns="http://www.w3.org/2000/svg" xlink="http://www.w3.org/1999/xlink" width="20px" height="20px" viewBox="0 0 15 15" version="1.1">
  <g id="surface1">
    <path d="M 4.285156 0 C 4.359375 0 4.421875 0.0273438 4.472656 0.078125 C 4.527344 0.132812 4.554688 0.195312 4.554688 0.269531 L 4.554688 12.589844 C 4.554688 12.699219 4.507812 12.777344 4.410156 12.824219 L 0.394531 14.964844 C 0.355469 14.988281 0.3125 15 0.269531 15 C 0.195312 15 0.132812 14.972656 0.078125 14.921875 C 0.0273438 14.867188 0 14.804688 0 14.730469 L 0 2.410156 C 0 2.300781 0.046875 2.222656 0.140625 2.175781 L 4.160156 0.0351562 C 4.199219 0.0117188 4.242188 0 4.285156 0 Z M 14.730469 0 C 14.804688 0 14.867188 0.0273438 14.921875 0.078125 C 14.972656 0.132812 15 0.195312 15 0.269531 L 15 12.589844 C 15 12.699219 14.953125 12.777344 14.859375 12.824219 L 10.839844 14.964844 C 10.800781 14.988281 10.757812 15 10.714844 15 C 10.640625 15 10.578125 14.972656 10.527344 14.921875 C 10.472656 14.867188 10.445312 14.804688 10.445312 14.730469 L 10.445312 2.410156 C 10.445312 2.300781 10.492188 2.222656 10.589844 2.175781 L 14.605469 0.0351562 C 14.644531 0.0117188 14.6875 0 14.730469 0 Z M 5.355469 0 C 5.402344 0 5.441406 0.0078125 5.472656 0.0234375 L 9.761719 2.167969 C 9.859375 2.222656 9.910156 2.304688 9.910156 2.410156 L 9.910156 14.730469 C 9.910156 14.804688 9.882812 14.867188 9.832031 14.921875 C 9.777344 14.972656 9.714844 15 9.644531 15 C 9.597656 15 9.558594 14.992188 9.527344 14.976562 L 5.238281 12.832031 C 5.140625 12.777344 5.089844 12.695312 5.089844 12.589844 L 5.089844 0.269531 C 5.089844 0.195312 5.117188 0.132812 5.167969 0.078125 C 5.222656 0.0273438 5.285156 0 5.355469 0 Z M 5.355469 0 " fill="#FFFFFF"/>
  </g>
</svg>