<?xml version="1.0" encoding="UTF-8" standalone="yes"?>
<svg xmlns="http://www.w3.org/2000/svg" xmlns:xlink="http://www.w3.org/1999/xlink" width="20px" height="20px" viewBox="0 0 15 15" version="1.1">
  <g id="surface1">
    <path style=" stroke:none;fill-rule:nonzero;fill:rgb(0%,0%,0%);fill-opacity:1;" d="M 10.714844 9.375 L 10.714844 7.769531 C 10.714844 7.691406 10.6875 7.625 10.640625 7.574219 C 10.589844 7.523438 10.523438 7.5 10.445312 7.5 L 8.570312 7.5 L 8.570312 5.625 C 8.570312 5.546875 8.546875 5.484375 8.496094 5.433594 C 8.445312 5.382812 8.382812 5.355469 8.304688 5.355469 L 6.695312 5.355469 C 6.617188 5.355469 6.554688 5.382812 6.503906 5.433594 C 6.453125 5.484375 6.429688 5.546875 6.429688 5.625 L 6.429688 7.5 L 4.554688 7.5 C 4.476562 7.5 4.410156 7.523438 4.359375 7.574219 C 4.3125 7.625 4.285156 7.691406 4.285156 7.769531 L 4.285156 9.375 C 4.285156 9.453125 4.3125 9.515625 4.359375 9.566406 C 4.410156 9.617188 4.476562 9.644531 4.554688 9.644531 L 6.429688 9.644531 L 6.429688 11.519531 C 6.429688 11.597656 6.453125 11.660156 6.503906 11.710938 C 6.554688 11.761719 6.617188 11.785156 6.695312 11.785156 L 8.304688 11.785156 C 8.382812 11.785156 8.445312 11.761719 8.496094 11.710938 C 8.546875 11.660156 8.570312 11.597656 8.570312 11.519531 L 8.570312 9.644531 L 10.445312 9.644531 C 10.523438 9.644531 10.589844 9.617188 10.640625 9.566406 C 10.6875 9.515625 10.714844 9.453125 10.714844 9.375 Z M 5.355469 3.214844 L 9.644531 3.214844 L 9.644531 2.144531 L 5.355469 2.144531 Z M 2.144531 3.214844 L 2.144531 13.929688 L 1.875 13.929688 C 1.363281 13.929688 0.921875 13.746094 0.550781 13.375 C 0.183594 13.007812 0 12.566406 0 12.054688 L 0 5.089844 C 0 4.574219 0.183594 4.136719 0.550781 3.765625 C 0.921875 3.398438 1.363281 3.214844 1.875 3.214844 Z M 12.054688 3.214844 L 12.054688 13.929688 L 2.945312 13.929688 L 2.945312 3.214844 L 4.285156 3.214844 L 4.285156 1.875 C 4.285156 1.652344 4.363281 1.460938 4.519531 1.304688 C 4.675781 1.148438 4.867188 1.070312 5.089844 1.070312 L 9.910156 1.070312 C 10.132812 1.070312 10.324219 1.148438 10.480469 1.304688 C 10.636719 1.460938 10.714844 1.652344 10.714844 1.875 L 10.714844 3.214844 Z M 15 5.089844 L 15 12.054688 C 15 12.566406 14.816406 13.007812 14.449219 13.375 C 14.078125 13.746094 13.636719 13.929688 13.125 13.929688 L 12.855469 13.929688 L 12.855469 3.214844 L 13.125 3.214844 C 13.636719 3.214844 14.078125 3.398438 14.449219 3.765625 C 14.816406 4.136719 15 4.574219 15 5.089844 Z M 15 5.089844 "/>
  </g>
</svg>