<svg xmlns="http://www.w3.org/2000/svg" xlink="http://www.w3.org/1999/xlink" width="20px" height="20px" viewBox="0 0 15 15" version="1.1">
  <g id="surface1">
    <path d="M 12.320312 3.480469 C 12.320312 3.402344 12.347656 3.339844 12.398438 3.289062 C 12.445312 3.238281 12.511719 3.214844 12.589844 3.214844 L 15 3.214844 C 15.144531 3.214844 15.269531 3.265625 15.375 3.375 C 15.484375 3.480469 15.535156 3.605469 15.535156 3.75 L 15.535156 6.160156 C 15.535156 6.238281 15.511719 6.304688 15.460938 6.351562 C 15.410156 6.402344 15.347656 6.429688 15.269531 6.429688 L 14.730469 6.429688 C 14.652344 6.429688 14.589844 6.402344 14.539062 6.351562 C 14.488281 6.304688 14.464844 6.238281 14.464844 6.160156 L 14.464844 5.039062 L 12.339844 7.171875 C 12.761719 7.703125 13.0625 8.300781 13.238281 8.964844 C 13.414062 9.628906 13.441406 10.316406 13.316406 11.03125 C 13.144531 12.046875 12.679688 12.917969 11.929688 13.644531 C 11.175781 14.371094 10.289062 14.804688 9.265625 14.949219 C 8.09375 15.113281 7.019531 14.886719 6.046875 14.28125 C 5.074219 13.671875 4.398438 12.835938 4.027344 11.769531 C 3.375 11.734375 2.757812 11.574219 2.175781 11.289062 C 1.597656 11 1.101562 10.628906 0.691406 10.175781 C 0.28125 9.71875 -0.0351562 9.183594 -0.257812 8.5625 C -0.484375 7.945312 -0.570312 7.300781 -0.527344 6.636719 C -0.476562 5.882812 -0.257812 5.179688 0.125 4.527344 C 0.511719 3.875 1.019531 3.339844 1.648438 2.925781 C 2.28125 2.507812 2.972656 2.261719 3.726562 2.175781 C 4.382812 2.097656 5.019531 2.152344 5.628906 2.335938 C 6.242188 2.519531 6.792969 2.808594 7.289062 3.199219 L 9.425781 1.070312 L 8.304688 1.070312 C 8.226562 1.070312 8.160156 1.046875 8.109375 0.996094 C 8.0625 0.945312 8.035156 0.882812 8.035156 0.804688 L 8.035156 0.269531 C 8.035156 0.191406 8.0625 0.125 8.109375 0.0742188 C 8.160156 0.0234375 8.226562 0 8.304688 0 L 10.714844 0 C 10.859375 0 10.984375 0.0546875 11.089844 0.160156 C 11.195312 0.265625 11.25 0.390625 11.25 0.535156 L 11.25 2.945312 C 11.25 3.023438 11.226562 3.089844 11.175781 3.140625 C 11.125 3.1875 11.058594 3.214844 10.980469 3.214844 L 10.445312 3.214844 C 10.367188 3.214844 10.304688 3.1875 10.253906 3.140625 C 10.203125 3.089844 10.179688 3.023438 10.179688 2.945312 L 10.179688 1.824219 L 8.050781 3.960938 C 8.382812 4.371094 8.640625 4.84375 8.832031 5.375 C 9.847656 5.425781 10.761719 5.769531 11.578125 6.410156 L 13.710938 4.285156 L 12.589844 4.285156 C 12.511719 4.285156 12.445312 4.261719 12.398438 4.210938 C 12.347656 4.160156 12.320312 4.097656 12.320312 4.019531 Z M 8.035156 6.964844 C 8.035156 6.851562 8.023438 6.691406 8.003906 6.480469 C 7.097656 6.617188 6.34375 7.035156 5.734375 7.734375 C 5.125 8.433594 4.820312 9.246094 4.820312 10.179688 C 4.820312 10.289062 4.832031 10.453125 4.855469 10.664062 C 5.757812 10.523438 6.515625 10.105469 7.125 9.410156 C 7.730469 8.710938 8.035156 7.894531 8.035156 6.964844 Z M 0.535156 6.964844 C 0.535156 7.902344 0.84375 8.722656 1.464844 9.425781 C 2.085938 10.128906 2.855469 10.542969 3.773438 10.671875 C 3.757812 10.511719 3.75 10.347656 3.75 10.179688 C 3.75 9.007812 4.125 7.976562 4.878906 7.085938 C 5.632812 6.195312 6.578125 5.648438 7.710938 5.441406 C 7.414062 4.769531 6.957031 4.234375 6.339844 3.824219 C 5.722656 3.417969 5.039062 3.214844 4.285156 3.214844 C 3.253906 3.214844 2.371094 3.582031 1.636719 4.316406 C 0.902344 5.046875 0.535156 5.933594 0.535156 6.964844 Z M 8.570312 13.929688 C 9.605469 13.929688 10.488281 13.5625 11.21875 12.828125 C 11.953125 12.09375 12.320312 11.210938 12.320312 10.179688 C 12.320312 9.242188 12.011719 8.421875 11.390625 7.71875 C 10.773438 7.015625 10.003906 6.597656 9.082031 6.46875 C 9.097656 6.632812 9.105469 6.796875 9.105469 6.964844 C 9.105469 8.136719 8.730469 9.167969 7.976562 10.058594 C 7.222656 10.945312 6.28125 11.496094 5.148438 11.703125 C 5.445312 12.371094 5.898438 12.910156 6.515625 13.316406 C 7.132812 13.726562 7.816406 13.929688 8.570312 13.929688 Z M 8.570312 13.929688 " fill="#FFFFFF"/>
  </g>
</svg>