<svg version="1.1" xmlns="http://www.w3.org/2000/svg" xlink="http://www.w3.org/1999/xlink" x="0px" y="0px" width="15px" height="15px" viewBox="0 0 15 15" style="enable-background:new 0 0 15 15;" space="preserve">
    <path d="M4.996094,3.523438L4.996094,13.34375C4.996094,13.480469,4.960938,13.601562,4.890625,13.699219C4.824219,13.796875,4.722656,13.84375,4.585938,13.84375C4.492188,13.84375,4.398438,13.824219,4.3125,13.777344L0.417969,11.828125C0.300781,11.773438,0.203125,11.679688,0.121094,11.546875C0.0390625,11.414062,0,11.285156,0,11.15625L0,1.617188C0,1.503906,0.0273438,1.410156,0.0820312,1.332031C0.140625,1.253906,0.21875,1.214844,0.328125,1.214844C0.40625,1.214844,0.527344,1.253906,0.695312,1.339844L4.972656,3.480469C4.988281,3.5,4.996094,3.511719,4.996094,3.523438ZM5.53125,4.371094L10.003906,11.617188L5.53125,9.390625ZM15,4.519531L15,13.34375C15,13.480469,14.960938,13.59375,14.882812,13.679688C14.804688,13.769531,14.699219,13.8125,14.566406,13.8125C14.429688,13.8125,14.300781,13.773438,14.171875,13.703125L10.480469,11.859375ZM14.976562,3.515625C14.976562,3.53125,14.257812,4.703125,12.828125,7.027344C11.398438,9.351562,10.558594,10.710938,10.3125,11.109375L7.046875,5.800781L9.761719,1.390625C9.855469,1.234375,10,1.15625,10.195312,1.15625C10.273438,1.15625,10.347656,1.171875,10.414062,1.207031L14.941406,3.464844C14.964844,3.476562,14.976562,3.492188,14.976562,3.515625ZM14.976562,3.515625" fill="#FFFFFF"/>
    </svg>