<svg xmlns="http://www.w3.org/2000/svg" xlink="http://www.w3.org/1999/xlink" width="20px" height="20px" viewBox="0 0 15 15" version="1.1">
  <g id="surface1">
    <path d="M 14.605469 6.46875 L 13.234375 12.855469 L 10.4375 12.855469 L 11.929688 5.894531 C 12 5.582031 11.957031 5.335938 11.800781 5.15625 C 11.652344 4.972656 11.421875 4.878906 11.109375 4.878906 L 9.691406 4.878906 L 7.984375 12.855469 L 5.191406 12.855469 L 6.898438 4.878906 L 4.503906 4.878906 L 2.796875 12.855469 L 0 12.855469 L 1.707031 4.878906 L 0.425781 2.144531 L 11.109375 2.144531 C 11.671875 2.144531 12.199219 2.257812 12.695312 2.480469 C 13.1875 2.707031 13.597656 3.023438 13.929688 3.433594 C 14.261719 3.839844 14.488281 4.308594 14.605469 4.84375 C 14.722656 5.375 14.722656 5.917969 14.605469 6.46875 Z M 14.605469 6.46875 " fill="#FFFFFF"/>
  </g>
</svg>