<svg version="1.1" xmlns="http://www.w3.org/2000/svg" xlink="http://www.w3.org/1999/xlink" x="0px" y="0px" width="15px" height="15px" viewBox="0 0 15 15" style="enable-background:new 0 0 15 15;" space="preserve">
    <path d="M12.320312,3.480469C12.320312,3.402344,12.347656,3.339844,12.398438,3.289062C12.445312,3.238281,12.511719,3.214844,12.589844,3.214844L15,3.214844C15.144531,3.214844,15.269531,3.265625,15.375,3.375C15.484375,3.480469,15.535156,3.605469,15.535156,3.75L15.535156,6.160156C15.535156,6.238281,15.511719,6.304688,15.460938,6.351562C15.410156,6.402344,15.347656,6.429688,15.269531,6.429688L14.730469,6.429688C14.652344,6.429688,14.589844,6.402344,14.539062,6.351562C14.488281,6.304688,14.464844,6.238281,14.464844,6.160156L14.464844,5.039062L12.339844,7.171875C12.761719,7.703125,13.0625,8.300781,13.238281,8.964844C13.414062,9.628906,13.441406,10.316406,13.316406,11.03125C13.144531,12.046875,12.679688,12.917969,11.929688,13.644531C11.175781,14.371094,10.289062,14.804688,9.265625,14.949219C8.09375,15.113281,7.019531,14.886719,6.046875,14.28125C5.074219,13.671875,4.398438,12.835938,4.027344,11.769531C3.375,11.734375,2.757812,11.574219,2.175781,11.289062C1.597656,11,1.101562,10.628906,0.691406,10.175781C0.28125,9.71875,-0.0351562,9.183594,-0.257812,8.5625C-0.484375,7.945312,-0.570312,7.300781,-0.527344,6.636719C-0.476562,5.882812,-0.257812,5.179688,0.125,4.527344C0.511719,3.875,1.019531,3.339844,1.648438,2.925781C2.28125,2.507812,2.972656,2.261719,3.726562,2.175781C4.382812,2.097656,5.019531,2.152344,5.628906,2.335938C6.242188,2.519531,6.792969,2.808594,7.289062,3.199219L9.425781,1.070312L8.304688,1.070312C8.226562,1.070312,8.160156,1.046875,8.109375,0.996094C8.0625,0.945312,8.035156,0.882812,8.035156,0.804688L8.035156,0.269531C8.035156,0.191406,8.0625,0.125,8.109375,0.0742188C8.160156,0.0234375,8.226562,0,8.304688,0L10.714844,0C10.859375,0,10.984375,0.0546875,11.089844,0.160156C11.195312,0.265625,11.25,0.390625,11.25,0.535156L11.25,2.945312C11.25,3.023438,11.226562,3.089844,11.175781,3.140625C11.125,3.1875,11.058594,3.214844,10.980469,3.214844L10.445312,3.214844C10.367188,3.214844,10.304688,3.1875,10.253906,3.140625C10.203125,3.089844,10.179688,3.023438,10.179688,2.945312L10.179688,1.824219L8.050781,3.960938C8.382812,4.371094,8.640625,4.84375,8.832031,5.375C9.847656,5.425781,10.761719,5.769531,11.578125,6.410156L13.710938,4.285156L12.589844,4.285156C12.511719,4.285156,12.445312,4.261719,12.398438,4.210938C12.347656,4.160156,12.320312,4.097656,12.320312,4.019531ZM8.035156,6.964844C8.035156,6.851562,8.023438,6.691406,8.003906,6.480469C7.097656,6.617188,6.34375,7.035156,5.734375,7.734375C5.125,8.433594,4.820312,9.246094,4.820312,10.179688C4.820312,10.289062,4.832031,10.453125,4.855469,10.664062C5.757812,10.523438,6.515625,10.105469,7.125,9.410156C7.730469,8.710938,8.035156,7.894531,8.035156,6.964844ZM0.535156,6.964844C0.535156,7.902344,0.84375,8.722656,1.464844,9.425781C2.085938,10.128906,2.855469,10.542969,3.773438,10.671875C3.757812,10.511719,3.75,10.347656,3.75,10.179688C3.75,9.007812,4.125,7.976562,4.878906,7.085938C5.632812,6.195312,6.578125,5.648438,7.710938,5.441406C7.414062,4.769531,6.957031,4.234375,6.339844,3.824219C5.722656,3.417969,5.039062,3.214844,4.285156,3.214844C3.253906,3.214844,2.371094,3.582031,1.636719,4.316406C0.902344,5.046875,0.535156,5.933594,0.535156,6.964844ZM8.570312,13.929688C9.605469,13.929688,10.488281,13.5625,11.21875,12.828125C11.953125,12.09375,12.320312,11.210938,12.320312,10.179688C12.320312,9.242188,12.011719,8.421875,11.390625,7.71875C10.773438,7.015625,10.003906,6.597656,9.082031,6.46875C9.097656,6.632812,9.105469,6.796875,9.105469,6.964844C9.105469,8.136719,8.730469,9.167969,7.976562,10.058594C7.222656,10.945312,6.28125,11.496094,5.148438,11.703125C5.445312,12.371094,5.898438,12.910156,6.515625,13.316406C7.132812,13.726562,7.816406,13.929688,8.570312,13.929688ZM8.570312,13.929688" fill="#FFFFFF"/>
    </svg>