<?xml version="1.0" encoding="UTF-8" standalone="yes"?>
<svg xmlns="http://www.w3.org/2000/svg" xmlns:xlink="http://www.w3.org/1999/xlink" width="20px" height="20px" viewBox="0 0 15 15" version="1.1">
  <g id="surface1">
    <path style=" stroke:none;fill-rule:nonzero;fill:rgb(0%,0%,0%);fill-opacity:1;" d="M 11.625 9.191406 C 11.625 8.863281 11.53125 8.5625 11.34375 8.300781 C 11.152344 8.035156 10.910156 7.84375 10.613281 7.726562 C 10.574219 7.976562 10.511719 8.234375 10.421875 8.496094 C 10.382812 8.628906 10.304688 8.734375 10.191406 8.8125 C 10.078125 8.890625 9.953125 8.929688 9.820312 8.929688 C 9.75 8.929688 9.683594 8.921875 9.617188 8.90625 C 9.445312 8.851562 9.320312 8.742188 9.242188 8.585938 C 9.164062 8.425781 9.152344 8.261719 9.207031 8.09375 C 9.335938 7.699219 9.398438 7.300781 9.398438 6.898438 C 9.398438 6.210938 9.230469 5.574219 8.890625 4.992188 C 8.550781 4.410156 8.085938 3.949219 7.5 3.609375 C 6.914062 3.265625 6.277344 3.097656 5.589844 3.097656 C 4.84375 3.097656 4.15625 3.300781 3.523438 3.707031 C 2.894531 4.117188 2.425781 4.65625 2.125 5.332031 C 2.730469 5.488281 3.253906 5.785156 3.699219 6.21875 C 3.824219 6.347656 3.882812 6.5 3.882812 6.679688 C 3.882812 6.859375 3.824219 7.007812 3.699219 7.132812 C 3.578125 7.253906 3.425781 7.316406 3.246094 7.316406 C 3.070312 7.316406 2.914062 7.253906 2.789062 7.132812 C 2.367188 6.714844 1.867188 6.503906 1.28125 6.503906 C 0.6875 6.503906 0.183594 6.710938 -0.234375 7.128906 C -0.652344 7.542969 -0.863281 8.046875 -0.863281 8.636719 C -0.863281 9.230469 -0.652344 9.734375 -0.234375 10.148438 C 0.183594 10.566406 0.6875 10.773438 1.28125 10.773438 L 10.035156 10.773438 C 10.476562 10.773438 10.851562 10.617188 11.164062 10.308594 C 11.472656 10 11.625 9.625 11.625 9.191406 Z M 12.90625 9.191406 C 12.90625 9.984375 12.625 10.660156 12.066406 11.214844 C 11.503906 11.773438 10.828125 12.054688 10.035156 12.054688 L 1.28125 12.054688 C 0.335938 12.054688 -0.46875 11.71875 -1.136719 11.054688 C -1.808594 10.386719 -2.144531 9.582031 -2.144531 8.636719 C -2.144531 7.785156 -1.863281 7.039062 -1.304688 6.402344 C -0.746094 5.765625 -0.0546875 5.386719 0.777344 5.265625 C 1.125 4.238281 1.742188 3.40625 2.628906 2.769531 C 3.515625 2.132812 4.503906 1.816406 5.589844 1.816406 C 6.902344 1.816406 8.042969 2.257812 9.011719 3.144531 C 9.980469 4.027344 10.527344 5.113281 10.65625 6.402344 C 11.304688 6.542969 11.839844 6.875 12.265625 7.394531 C 12.695312 7.917969 12.90625 8.515625 12.90625 9.191406 Z M 15 9.191406 C 15 10.167969 14.730469 11.058594 14.1875 11.859375 C 14.058594 12.046875 13.882812 12.136719 13.652344 12.136719 C 13.519531 12.136719 13.398438 12.101562 13.292969 12.027344 C 13.148438 11.933594 13.058594 11.796875 13.023438 11.621094 C 12.992188 11.445312 13.023438 11.285156 13.125 11.140625 C 13.519531 10.5625 13.71875 9.910156 13.71875 9.191406 C 13.71875 8.472656 13.519531 7.820312 13.125 7.242188 C 13.023438 7.09375 12.992188 6.9375 13.023438 6.761719 C 13.058594 6.589844 13.148438 6.453125 13.292969 6.351562 C 13.4375 6.253906 13.597656 6.21875 13.773438 6.257812 C 13.949219 6.292969 14.085938 6.382812 14.1875 6.527344 C 14.730469 7.320312 15 8.207031 15 9.191406 Z M 17.144531 9.191406 C 17.144531 10.550781 16.769531 11.789062 16.019531 12.898438 C 15.894531 13.089844 15.714844 13.183594 15.484375 13.183594 C 15.355469 13.183594 15.238281 13.148438 15.132812 13.074219 C 14.988281 12.972656 14.898438 12.835938 14.863281 12.664062 C 14.824219 12.492188 14.859375 12.332031 14.957031 12.1875 C 15.5625 11.273438 15.863281 10.273438 15.863281 9.191406 C 15.863281 8.101562 15.5625 7.105469 14.957031 6.203125 C 14.859375 6.058594 14.824219 5.898438 14.863281 5.722656 C 14.898438 5.546875 14.988281 5.410156 15.132812 5.316406 C 15.277344 5.214844 15.4375 5.179688 15.609375 5.214844 C 15.785156 5.25 15.921875 5.339844 16.019531 5.492188 C 16.769531 6.597656 17.144531 7.828125 17.144531 9.191406 Z M 17.144531 9.191406 "/>
  </g>
</svg>