<svg xmlns="http://www.w3.org/2000/svg" xlink="http://www.w3.org/1999/xlink" width="20px" height="20px" viewBox="0 0 15 15" version="1.1">
  <g id="surface1">
    <path d="M 15.835938 0.09375 C 15.992188 0.203125 16.070312 0.351562 16.070312 0.535156 L 16.070312 12.320312 C 16.070312 12.433594 16.039062 12.535156 15.980469 12.621094 C 15.917969 12.710938 15.835938 12.777344 15.738281 12.816406 L 10.378906 14.957031 C 10.246094 15.019531 10.113281 15.019531 9.976562 14.957031 L 4.820312 12.898438 L -0.335938 14.957031 C -0.390625 14.984375 -0.457031 15 -0.535156 15 C -0.640625 15 -0.742188 14.96875 -0.835938 14.90625 C -0.992188 14.796875 -1.070312 14.648438 -1.070312 14.464844 L -1.070312 2.679688 C -1.070312 2.566406 -1.039062 2.464844 -0.980469 2.378906 C -0.917969 2.289062 -0.835938 2.222656 -0.738281 2.183594 L 4.621094 0.0429688 C 4.753906 -0.0195312 4.886719 -0.0195312 5.023438 0.0429688 L 10.179688 2.101562 L 15.335938 0.0429688 C 15.511719 -0.03125 15.679688 -0.015625 15.835938 0.09375 Z M 5.089844 1.222656 L 5.089844 11.851562 L 9.910156 13.777344 L 9.910156 3.148438 Z M 0 3.039062 L 0 13.667969 L 4.554688 11.851562 L 4.554688 1.222656 Z M 15 11.960938 L 15 1.332031 L 10.445312 3.148438 L 10.445312 13.777344 Z M 15 11.960938 " fill="#FFFFFF"/>
  </g>
</svg>