<?xml version="1.0" encoding="UTF-8" standalone="yes"?>
<svg xmlns="http://www.w3.org/2000/svg" xmlns:xlink="http://www.w3.org/1999/xlink" width="20px" height="20px" viewBox="0 0 15 15" version="1.1">
  <g id="surface1">
    <path style=" stroke:none;fill-rule:nonzero;fill:rgb(0%,0%,0%);fill-opacity:1;" d="M 11.25 6.695312 L 11.25 7.230469 C 11.25 7.308594 11.226562 7.375 11.175781 7.425781 C 11.125 7.476562 11.058594 7.5 10.980469 7.5 L 4.019531 7.5 C 3.941406 7.5 3.875 7.476562 3.824219 7.425781 C 3.773438 7.375 3.75 7.308594 3.75 7.230469 L 3.75 6.695312 C 3.75 6.617188 3.773438 6.554688 3.824219 6.503906 C 3.875 6.453125 3.941406 6.429688 4.019531 6.429688 L 10.980469 6.429688 C 11.058594 6.429688 11.125 6.453125 11.175781 6.503906 C 11.226562 6.554688 11.25 6.617188 11.25 6.695312 Z M 12.320312 10.445312 L 12.320312 3.480469 C 12.320312 3.113281 12.191406 2.796875 11.929688 2.535156 C 11.664062 2.273438 11.351562 2.144531 10.980469 2.144531 L 4.019531 2.144531 C 3.648438 2.144531 3.335938 2.273438 3.070312 2.535156 C 2.808594 2.796875 2.679688 3.113281 2.679688 3.480469 L 2.679688 10.445312 C 2.679688 10.816406 2.808594 11.128906 3.070312 11.390625 C 3.335938 11.65625 3.648438 11.785156 4.019531 11.785156 L 10.980469 11.785156 C 11.351562 11.785156 11.664062 11.65625 11.929688 11.390625 C 12.191406 11.128906 12.320312 10.816406 12.320312 10.445312 Z M 13.394531 3.480469 L 13.394531 10.445312 C 13.394531 11.109375 13.15625 11.679688 12.6875 12.148438 C 12.214844 12.621094 11.644531 12.855469 10.980469 12.855469 L 4.019531 12.855469 C 3.355469 12.855469 2.785156 12.621094 2.3125 12.148438 C 1.84375 11.679688 1.605469 11.109375 1.605469 10.445312 L 1.605469 3.480469 C 1.605469 2.816406 1.84375 2.25 2.3125 1.777344 C 2.785156 1.308594 3.355469 1.070312 4.019531 1.070312 L 10.980469 1.070312 C 11.644531 1.070312 12.214844 1.308594 12.6875 1.777344 C 13.15625 2.25 13.394531 2.816406 13.394531 3.480469 Z M 13.394531 3.480469 "/>
  </g>
</svg>