<svg xmlns="http://www.w3.org/2000/svg" xlink="http://www.w3.org/1999/xlink" width="20px" height="20px" viewBox="0 0 15 15" version="1.1">
  <g id="surface1">
    <path d="M 13.394531 6.160156 L 13.394531 7.769531 C 13.394531 7.992188 13.316406 8.179688 13.160156 8.335938 C 13.003906 8.492188 12.8125 8.570312 12.589844 8.570312 L 2.410156 8.570312 C 2.1875 8.570312 1.996094 8.492188 1.839844 8.335938 C 1.683594 8.179688 1.605469 7.992188 1.605469 7.769531 L 1.605469 6.160156 C 1.605469 5.9375 1.683594 5.746094 1.839844 5.589844 C 1.996094 5.433594 2.1875 5.355469 2.410156 5.355469 L 12.589844 5.355469 C 12.8125 5.355469 13.003906 5.433594 13.160156 5.589844 C 13.316406 5.746094 13.394531 5.9375 13.394531 6.160156 Z M 13.394531 6.160156 " fill="#FFFFFF"/>
  </g>
</svg>