<svg xmlns="http://www.w3.org/2000/svg" xlink="http://www.w3.org/1999/xlink" width="20px" height="20px" viewBox="0 0 15 15" version="1.1">
  <g id="surface1">
    <path d="M 13.929688 11.25 L 13.929688 12.320312 C 13.929688 12.464844 13.875 12.59375 13.769531 12.699219 C 13.664062 12.804688 13.539062 12.855469 13.394531 12.855469 L 1.605469 12.855469 C 1.460938 12.855469 1.335938 12.804688 1.230469 12.699219 C 1.125 12.59375 1.070312 12.464844 1.070312 12.320312 L 1.070312 11.25 C 1.070312 11.105469 1.125 10.980469 1.230469 10.875 C 1.335938 10.765625 1.460938 10.714844 1.605469 10.714844 L 13.394531 10.714844 C 13.539062 10.714844 13.664062 10.765625 13.769531 10.875 C 13.875 10.980469 13.929688 11.105469 13.929688 11.25 Z M 13.929688 6.964844 L 13.929688 8.035156 C 13.929688 8.179688 13.875 8.304688 13.769531 8.414062 C 13.664062 8.519531 13.539062 8.570312 13.394531 8.570312 L 1.605469 8.570312 C 1.460938 8.570312 1.335938 8.519531 1.230469 8.414062 C 1.125 8.304688 1.070312 8.179688 1.070312 8.035156 L 1.070312 6.964844 C 1.070312 6.820312 1.125 6.695312 1.230469 6.585938 C 1.335938 6.480469 1.460938 6.429688 1.605469 6.429688 L 13.394531 6.429688 C 13.539062 6.429688 13.664062 6.480469 13.769531 6.585938 C 13.875 6.695312 13.929688 6.820312 13.929688 6.964844 Z M 13.929688 2.679688 L 13.929688 3.75 C 13.929688 3.894531 13.875 4.019531 13.769531 4.125 C 13.664062 4.234375 13.539062 4.285156 13.394531 4.285156 L 1.605469 4.285156 C 1.460938 4.285156 1.335938 4.234375 1.230469 4.125 C 1.125 4.019531 1.070312 3.894531 1.070312 3.75 L 1.070312 2.679688 C 1.070312 2.535156 1.125 2.40625 1.230469 2.300781 C 1.335938 2.195312 1.460938 2.144531 1.605469 2.144531 L 13.394531 2.144531 C 13.539062 2.144531 13.664062 2.195312 13.769531 2.300781 C 13.875 2.40625 13.929688 2.535156 13.929688 2.679688 Z M 13.929688 2.679688 " fill="#FFFFFF"/>
  </g>
</svg>