<svg xmlns="http://www.w3.org/2000/svg" xlink="http://www.w3.org/1999/xlink" width="20px" height="20px" viewBox="0 0 15 15" version="1.1">
  <g id="surface1">
    <path d="M 7.5 4.285156 L 4.285156 4.285156 L 4.285156 7.5 L 7.5 7.5 Z M 8.570312 9.644531 L 8.570312 10.714844 L 3.214844 10.714844 L 3.214844 9.644531 Z M 8.570312 3.214844 L 8.570312 8.570312 L 3.214844 8.570312 L 3.214844 3.214844 Z M 13.929688 9.644531 L 13.929688 10.714844 L 9.644531 10.714844 L 9.644531 9.644531 Z M 13.929688 7.5 L 13.929688 8.570312 L 9.644531 8.570312 L 9.644531 7.5 Z M 13.929688 5.355469 L 13.929688 6.429688 L 9.644531 6.429688 L 9.644531 5.355469 Z M 13.929688 3.214844 L 13.929688 4.285156 L 9.644531 4.285156 L 9.644531 3.214844 Z M 1.070312 11.25 L 1.070312 3.214844 L 0 3.214844 L 0 11.25 C 0 11.394531 0.0546875 11.519531 0.160156 11.625 C 0.265625 11.734375 0.390625 11.785156 0.535156 11.785156 C 0.679688 11.785156 0.804688 11.734375 0.914062 11.625 C 1.019531 11.519531 1.070312 11.394531 1.070312 11.25 Z M 15 11.25 L 15 2.144531 L 2.144531 2.144531 L 2.144531 11.25 C 2.144531 11.433594 2.113281 11.613281 2.050781 11.785156 L 14.464844 11.785156 C 14.609375 11.785156 14.734375 11.734375 14.839844 11.625 C 14.945312 11.519531 15 11.394531 15 11.25 Z M 16.070312 1.070312 L 16.070312 11.25 C 16.070312 11.695312 15.914062 12.074219 15.601562 12.386719 C 15.289062 12.699219 14.910156 12.855469 14.464844 12.855469 L 0.535156 12.855469 C 0.0898438 12.855469 -0.289062 12.699219 -0.601562 12.386719 C -0.914062 12.074219 -1.070312 11.695312 -1.070312 11.25 L -1.070312 2.144531 L 1.070312 2.144531 L 1.070312 1.070312 Z M 16.070312 1.070312 " fill="#FFFFFF"/>
  </g>
</svg>