<svg xmlns="http://www.w3.org/2000/svg" xlink="http://www.w3.org/1999/xlink" width="20px" height="20px" viewBox="0 0 15 15" version="1.1">
  <g id="surface1">
    <path d="M 11.785156 4.820312 C 11.785156 6.054688 11.375 7.128906 10.550781 8.039062 C 9.726562 8.953125 8.710938 9.476562 7.5 9.609375 L 7.5 14.730469 C 7.5 14.808594 7.476562 14.875 7.425781 14.925781 C 7.375 14.976562 7.308594 15 7.230469 15 L 6.695312 15 C 6.617188 15 6.554688 14.976562 6.503906 14.925781 C 6.453125 14.875 6.429688 14.808594 6.429688 14.730469 L 6.429688 9.609375 C 5.21875 9.476562 4.199219 8.953125 3.378906 8.039062 C 2.554688 7.128906 2.144531 6.054688 2.144531 4.820312 C 2.144531 4.167969 2.269531 3.546875 2.523438 2.949219 C 2.777344 2.355469 3.121094 1.84375 3.554688 1.410156 C 3.984375 0.976562 4.5 0.632812 5.09375 0.382812 C 5.6875 0.125 6.3125 0 6.964844 0 C 7.617188 0 8.242188 0.125 8.835938 0.382812 C 9.429688 0.632812 9.941406 0.976562 10.375 1.410156 C 10.808594 1.84375 11.152344 2.355469 11.40625 2.949219 C 11.660156 3.546875 11.785156 4.167969 11.785156 4.820312 Z M 6.964844 8.570312 C 7.996094 8.570312 8.878906 8.203125 9.613281 7.46875 C 10.347656 6.738281 10.714844 5.855469 10.714844 4.820312 C 10.714844 3.789062 10.347656 2.90625 9.613281 2.171875 C 8.878906 1.4375 7.996094 1.070312 6.964844 1.070312 C 5.933594 1.070312 5.046875 1.4375 4.316406 2.171875 C 3.582031 2.90625 3.214844 3.789062 3.214844 4.820312 C 3.214844 5.855469 3.582031 6.738281 4.316406 7.46875 C 5.046875 8.203125 5.933594 8.570312 6.964844 8.570312 Z M 6.964844 8.570312 " fill="#FFFFFF"/>
  </g>
</svg>