<svg version="1.1" xmlns="http://www.w3.org/2000/svg" xlink="http://www.w3.org/1999/xlink" x="0px" y="0px" width="15px" height="15px" viewBox="0 0 15 15" style="enable-background:new 0 0 15 15;" space="preserve">
    <path d="M7.5,7.59375C6.449219,7.59375,5.554688,7.222656,4.8125,6.480469C4.070312,5.738281,3.699219,4.84375,3.699219,3.800781C3.699219,2.75,4.070312,1.855469,4.8125,1.113281C5.554688,0.371094,6.449219,0,7.5,0C8.550781,0,9.445312,0.371094,10.1875,1.113281C10.929688,1.855469,11.300781,2.75,11.300781,3.800781C11.300781,4.84375,10.929688,5.738281,10.1875,6.480469C9.445312,7.222656,8.550781,7.59375,7.5,7.59375ZM7.5,1.925781C6.988281,1.925781,6.546875,2.109375,6.179688,2.472656C5.816406,2.839844,5.632812,3.28125,5.632812,3.800781C5.632812,4.3125,5.816406,4.753906,6.179688,5.117188C6.546875,5.484375,6.988281,5.667969,7.5,5.667969C8.011719,5.667969,8.453125,5.484375,8.820312,5.117188C9.183594,4.753906,9.367188,4.3125,9.367188,3.800781C9.367188,3.28125,9.183594,2.839844,8.820312,2.472656C8.453125,2.109375,8.011719,1.925781,7.5,1.925781ZM11.878906,8.050781C11.949219,8.203125,11.992188,8.339844,12.003906,8.46875C12.015625,8.59375,12,8.707031,11.964844,8.804688C11.929688,8.90625,11.855469,9.011719,11.742188,9.128906C11.632812,9.242188,11.515625,9.34375,11.386719,9.4375C11.261719,9.53125,11.089844,9.644531,10.875,9.785156C10.230469,10.191406,9.351562,10.453125,8.238281,10.570312L8.847656,11.175781L11.082031,13.410156C11.25,13.582031,11.332031,13.789062,11.332031,14.027344C11.332031,14.269531,11.25,14.472656,11.082031,14.640625L10.980469,14.75C10.808594,14.917969,10.601562,15,10.363281,15C10.121094,15,9.917969,14.917969,9.742188,14.75C9.371094,14.371094,8.625,13.621094,7.507812,12.503906L5.273438,14.75C5.101562,14.917969,4.894531,15,4.652344,15C4.414062,15,4.210938,14.917969,4.042969,14.75L3.941406,14.640625C3.769531,14.472656,3.683594,14.269531,3.683594,14.027344C3.683594,13.789062,3.769531,13.582031,3.941406,13.410156L6.78125,10.570312C5.648438,10.453125,4.761719,10.191406,4.125,9.785156C3.910156,9.644531,3.738281,9.53125,3.613281,9.4375C3.484375,9.34375,3.367188,9.242188,3.257812,9.128906C3.144531,9.011719,3.070312,8.90625,3.035156,8.804688C2.996094,8.707031,2.984375,8.59375,2.996094,8.46875C3.007812,8.339844,3.050781,8.203125,3.121094,8.050781C3.179688,7.941406,3.257812,7.84375,3.355469,7.757812C3.457031,7.675781,3.574219,7.613281,3.707031,7.574219C3.84375,7.535156,4,7.542969,4.175781,7.59375C4.355469,7.640625,4.535156,7.738281,4.722656,7.886719C4.75,7.90625,4.789062,7.9375,4.847656,7.976562C4.902344,8.015625,5.023438,8.085938,5.207031,8.183594C5.390625,8.28125,5.582031,8.363281,5.785156,8.4375C5.984375,8.511719,6.242188,8.578125,6.554688,8.636719C6.867188,8.699219,7.183594,8.730469,7.5,8.730469C8.007812,8.730469,8.492188,8.660156,8.957031,8.515625C9.417969,8.375,9.753906,8.234375,9.960938,8.09375L10.277344,7.886719C10.464844,7.738281,10.644531,7.640625,10.824219,7.59375C11,7.542969,11.15625,7.535156,11.292969,7.574219C11.425781,7.613281,11.542969,7.675781,11.644531,7.757812C11.742188,7.84375,11.820312,7.941406,11.878906,8.050781ZM11.878906,8.050781" fill="#FFFFFF"/>
    </svg>