<svg xmlns="http://www.w3.org/2000/svg" xlink="http://www.w3.org/1999/xlink" width="20px" height="20px" viewBox="0 0 15 15" version="1.1">
  <g id="surface1">
    <path d="M 10.613281 13.066406 C 10.613281 13.445312 10.480469 13.769531 10.210938 14.039062 C 9.945312 14.304688 9.621094 14.4375 9.242188 14.4375 C 8.863281 14.4375 8.535156 14.304688 8.265625 14.039062 C 7.996094 13.769531 7.859375 13.445312 7.859375 13.066406 C 7.859375 12.6875 7.996094 12.363281 8.265625 12.089844 C 8.535156 11.820312 8.863281 11.683594 9.242188 11.683594 C 9.621094 11.683594 9.945312 11.820312 10.210938 12.089844 C 10.480469 12.363281 10.613281 12.6875 10.613281 13.066406 Z M 4.34375 13.066406 C 4.34375 13.445312 4.210938 13.769531 3.9375 14.039062 C 3.667969 14.304688 3.34375 14.4375 2.964844 14.4375 C 2.582031 14.4375 2.261719 14.304688 1.992188 14.039062 C 1.722656 13.769531 1.589844 13.445312 1.589844 13.066406 C 1.589844 12.6875 1.722656 12.363281 1.992188 12.089844 C 2.261719 11.820312 2.582031 11.683594 2.964844 11.683594 C 3.34375 11.683594 3.667969 11.820312 3.9375 12.089844 C 4.210938 12.363281 4.34375 12.6875 4.34375 13.066406 Z M -2.144531 0.5625 C -1.824219 0.894531 -1.515625 1.1875 -1.21875 1.4375 C -0.917969 1.683594 -0.582031 1.914062 -0.203125 2.121094 C 0.171875 2.332031 0.550781 2.507812 0.933594 2.648438 C 1.316406 2.792969 1.777344 2.917969 2.324219 3.03125 C 2.867188 3.140625 3.425781 3.230469 3.996094 3.292969 C 4.570312 3.359375 5.265625 3.410156 6.089844 3.449219 C 6.914062 3.488281 7.761719 3.515625 8.632812 3.527344 C 9.507812 3.542969 10.546875 3.550781 11.753906 3.550781 C 12.527344 3.550781 13.210938 3.5625 13.796875 3.589844 C 14.386719 3.617188 14.890625 3.664062 15.3125 3.730469 C 15.734375 3.792969 16.082031 3.871094 16.351562 3.960938 C 16.621094 4.046875 16.820312 4.160156 16.945312 4.289062 C 17.070312 4.421875 17.140625 4.566406 17.148438 4.722656 C 17.15625 4.878906 17.101562 5.054688 16.984375 5.257812 C 16.867188 5.457031 16.710938 5.671875 16.511719 5.898438 C 16.3125 6.125 16.0625 6.375 15.761719 6.660156 C 15.460938 6.941406 15.136719 7.230469 14.789062 7.535156 C 14.445312 7.835938 14.058594 8.167969 13.628906 8.53125 C 12.59375 9.40625 11.796875 10.09375 11.234375 10.597656 C 11.394531 10.3125 11.609375 10.007812 11.875 9.683594 C 12.136719 9.359375 12.402344 9.066406 12.660156 8.800781 C 12.921875 8.535156 13.183594 8.261719 13.453125 7.976562 C 13.71875 7.691406 13.949219 7.4375 14.144531 7.210938 C 14.339844 6.984375 14.492188 6.761719 14.597656 6.539062 C 14.703125 6.3125 14.742188 6.117188 14.707031 5.953125 C 14.671875 5.785156 14.546875 5.628906 14.328125 5.488281 C 14.105469 5.34375 13.78125 5.230469 13.351562 5.144531 C 12.921875 5.058594 12.351562 4.992188 11.644531 4.945312 C 10.933594 4.902344 10.085938 4.886719 9.097656 4.90625 C 8.160156 4.917969 7.285156 4.898438 6.46875 4.855469 C 5.65625 4.808594 4.941406 4.746094 4.328125 4.664062 C 3.714844 4.578125 3.144531 4.464844 2.617188 4.320312 C 2.089844 4.175781 1.644531 4.03125 1.28125 3.886719 C 0.917969 3.746094 0.574219 3.570312 0.253906 3.363281 C -0.0664062 3.160156 -0.320312 2.972656 -0.511719 2.808594 C -0.699219 2.644531 -0.890625 2.445312 -1.078125 2.210938 C -1.269531 1.976562 -1.410156 1.78125 -1.503906 1.628906 C -1.59375 1.472656 -1.707031 1.285156 -1.835938 1.058594 C -1.96875 0.832031 -2.070312 0.667969 -2.144531 0.5625 Z M -2.144531 0.5625 " fill="#FFFFFF"/>
  </g>
</svg>