<?xml version="1.0" encoding="UTF-8" standalone="yes"?>
<svg xmlns="http://www.w3.org/2000/svg" xmlns:xlink="http://www.w3.org/1999/xlink" width="20px" height="20px" viewBox="0 0 15 15" version="1.1">
  <g id="surface1">
    <path style=" stroke:none;fill-rule:nonzero;fill:rgb(0%,0%,0%);fill-opacity:1;" d="M 16.070312 3.214844 L 15 3.214844 L 15 11.785156 L 16.070312 11.785156 L 16.070312 15 L 12.855469 15 L 12.855469 13.929688 L 2.144531 13.929688 L 2.144531 15 L -1.070312 15 L -1.070312 11.785156 L 0 11.785156 L 0 3.214844 L -1.070312 3.214844 L -1.070312 0 L 2.144531 0 L 2.144531 1.070312 L 12.855469 1.070312 L 12.855469 0 L 16.070312 0 Z M 13.929688 1.070312 L 13.929688 2.144531 L 15 2.144531 L 15 1.070312 Z M 0 1.070312 L 0 2.144531 L 1.070312 2.144531 L 1.070312 1.070312 Z M 1.070312 13.929688 L 1.070312 12.855469 L 0 12.855469 L 0 13.929688 Z M 12.855469 12.855469 L 12.855469 11.785156 L 13.929688 11.785156 L 13.929688 3.214844 L 12.855469 3.214844 L 12.855469 2.144531 L 2.144531 2.144531 L 2.144531 3.214844 L 1.070312 3.214844 L 1.070312 11.785156 L 2.144531 11.785156 L 2.144531 12.855469 Z M 15 13.929688 L 15 12.855469 L 13.929688 12.855469 L 13.929688 13.929688 Z M 9.644531 5.355469 L 12.855469 5.355469 L 12.855469 11.785156 L 5.355469 11.785156 L 5.355469 9.644531 L 2.144531 9.644531 L 2.144531 3.214844 L 9.644531 3.214844 Z M 3.214844 8.570312 L 8.570312 8.570312 L 8.570312 4.285156 L 3.214844 4.285156 Z M 11.785156 10.714844 L 11.785156 6.429688 L 9.644531 6.429688 L 9.644531 9.644531 L 6.429688 9.644531 L 6.429688 10.714844 Z M 11.785156 10.714844 "/>
  </g>
</svg>