<svg xmlns="http://www.w3.org/2000/svg" xlink="http://www.w3.org/1999/xlink" width="20px" height="20px" viewBox="0 0 15 15" version="1.1">
  <g id="surface1">
    <path d="M 17.144531 6.429688 L 16.070312 6.429688 L 16.070312 11.785156 L 17.144531 11.785156 L 17.144531 15 L 13.929688 15 L 13.929688 13.929688 L 6.429688 13.929688 L 6.429688 15 L 3.214844 15 L 3.214844 11.785156 L 4.285156 11.785156 L 4.285156 10.714844 L 1.070312 10.714844 L 1.070312 11.785156 L -2.144531 11.785156 L -2.144531 8.570312 L -1.070312 8.570312 L -1.070312 3.214844 L -2.144531 3.214844 L -2.144531 0 L 1.070312 0 L 1.070312 1.070312 L 8.570312 1.070312 L 8.570312 0 L 11.785156 0 L 11.785156 3.214844 L 10.714844 3.214844 L 10.714844 4.285156 L 13.929688 4.285156 L 13.929688 3.214844 L 17.144531 3.214844 Z M 15 4.285156 L 15 5.355469 L 16.070312 5.355469 L 16.070312 4.285156 Z M 9.644531 1.070312 L 9.644531 2.144531 L 10.714844 2.144531 L 10.714844 1.070312 Z M -1.070312 1.070312 L -1.070312 2.144531 L 0 2.144531 L 0 1.070312 Z M 0 10.714844 L 0 9.644531 L -1.070312 9.644531 L -1.070312 10.714844 Z M 10.714844 9.644531 L 9.644531 9.644531 L 9.644531 10.714844 L 10.714844 10.714844 Z M 1.070312 9.644531 L 8.570312 9.644531 L 8.570312 8.570312 L 9.644531 8.570312 L 9.644531 3.214844 L 8.570312 3.214844 L 8.570312 2.144531 L 1.070312 2.144531 L 1.070312 3.214844 L 0 3.214844 L 0 8.570312 L 1.070312 8.570312 Z M 5.355469 13.929688 L 5.355469 12.855469 L 4.285156 12.855469 L 4.285156 13.929688 Z M 16.070312 13.929688 L 16.070312 12.855469 L 15 12.855469 L 15 13.929688 Z M 15 11.785156 L 15 6.429688 L 13.929688 6.429688 L 13.929688 5.355469 L 10.714844 5.355469 L 10.714844 8.570312 L 11.785156 8.570312 L 11.785156 11.785156 L 8.570312 11.785156 L 8.570312 10.714844 L 5.355469 10.714844 L 5.355469 11.785156 L 6.429688 11.785156 L 6.429688 12.855469 L 13.929688 12.855469 L 13.929688 11.785156 Z M 15 11.785156 " fill="#FFFFFF"/>
  </g>
</svg>