<svg version="1.1" xmlns="http://www.w3.org/2000/svg" xlink="http://www.w3.org/1999/xlink" x="0px" y="0px" width="15px" height="18.75px" viewBox="0 0 15 18.75" style="enable-background:new 0 0 15 15;" space="preserve">
    <path d="M22.265625,1.171875h-1.171875l-0.4852294921875,-0.4852294921875A2.3426513671875,2.3426513671875,0,0,0,18.9510498046875,0H18.20068359375c-0.40795898437500006,0,-0.80859375,0.10656738281250001,-1.1627197265625,0.3087158203125L11.42578125,3.515625h-2.05078125C5.49169921875,3.515625,2.34375,6.66357421875,2.34375,10.546875v0.05895996093750001c0,1.1993408203125,-0.5859375,2.275634765625,-1.4487304687500002,3.1087646484375c-0.6661376953125,0.643798828125,-1.029052734375,1.599609375,-0.8492431640625,2.62939453125c0.24755859374999997,1.4208984375,1.571044921875,2.406005859375,3.01318359375,2.406005859375H7.03125c0.6470947265625,0,1.171875,-0.5247802734375,1.171875,-1.171875s-0.5247802734375,-1.171875,-1.171875,-1.171875H2.9296875c-0.3233642578125,0,-0.5859375,-0.2625732421875,-0.5859375,-0.5859375s0.2625732421875,-0.5859375,0.5859375,-0.5859375h8.203125c0.32373046875,0,0.5859375,-0.26220703125,0.5859375,-0.5859375v-0.5859375c0,-0.6470947265625,-0.5247802734375,-1.171875,-1.171875,-1.171875h-2.34375l5.474487304687501,-2.947998046875L16.40625,15.234375h2.9296875c0.32373046875,0,0.5859375,-0.26220703125,0.5859375,-0.5859375v-0.5859375c0,-0.6470947265625,-0.5247802734375,-1.171875,-1.171875,-1.171875h-1.033447265625l-2.0181884765625,-4.0360107421875L19.084716796875,7.03125H19.921875c1.9416503906250002,0,3.515625,-1.5739746093749998,3.515625,-3.515625V2.34375c0,-0.6470947265625,-0.5247802734375,-1.171875,-1.171875,-1.171875zm-3.515625,0.5859375c0.32373046875,0,0.5859375,0.26220703125,0.5859375,0.5859375s-0.26220703125,0.5859375,-0.5859375,0.5859375s-0.5859375,-0.26220703125,-0.5859375,-0.5859375s0.26220703125,-0.5859375,0.5859375,-0.5859375zm1.171875,3.515625h-1.2802734375L14.912109375,7.28173828125l-0.5042724609375,-1.0089111328125L18.75,4.1015625h2.8216552734375c-0.242431640625,0.680419921875,-0.8869628906249999,1.171875,-1.6497802734375,1.171875z" fill="#FFFFFF"/>
    </svg>