<svg version="1.1" xmlns="http://www.w3.org/2000/svg" xlink="http://www.w3.org/1999/xlink" x="0px" y="0px" width="15px" height="15px" viewBox="0 0 15 15" style="enable-background:new 0 0 15 15;" space="preserve">
    <path d="M10.613281,13.066406C10.613281,13.445312,10.480469,13.769531,10.210938,14.039062C9.945312,14.304688,9.621094,14.4375,9.242188,14.4375C8.863281,14.4375,8.535156,14.304688,8.265625,14.039062C7.996094,13.769531,7.859375,13.445312,7.859375,13.066406C7.859375,12.6875,7.996094,12.363281,8.265625,12.089844C8.535156,11.820312,8.863281,11.683594,9.242188,11.683594C9.621094,11.683594,9.945312,11.820312,10.210938,12.089844C10.480469,12.363281,10.613281,12.6875,10.613281,13.066406ZM4.34375,13.066406C4.34375,13.445312,4.210938,13.769531,3.9375,14.039062C3.667969,14.304688,3.34375,14.4375,2.964844,14.4375C2.582031,14.4375,2.261719,14.304688,1.992188,14.039062C1.722656,13.769531,1.589844,13.445312,1.589844,13.066406C1.589844,12.6875,1.722656,12.363281,1.992188,12.089844C2.261719,11.820312,2.582031,11.683594,2.964844,11.683594C3.34375,11.683594,3.667969,11.820312,3.9375,12.089844C4.210938,12.363281,4.34375,12.6875,4.34375,13.066406ZM-2.144531,0.5625C-1.824219,0.894531,-1.515625,1.1875,-1.21875,1.4375C-0.917969,1.683594,-0.582031,1.914062,-0.203125,2.121094C0.171875,2.332031,0.550781,2.507812,0.933594,2.648438C1.316406,2.792969,1.777344,2.917969,2.324219,3.03125C2.867188,3.140625,3.425781,3.230469,3.996094,3.292969C4.570312,3.359375,5.265625,3.410156,6.089844,3.449219C6.914062,3.488281,7.761719,3.515625,8.632812,3.527344C9.507812,3.542969,10.546875,3.550781,11.753906,3.550781C12.527344,3.550781,13.210938,3.5625,13.796875,3.589844C14.386719,3.617188,14.890625,3.664062,15.3125,3.730469C15.734375,3.792969,16.082031,3.871094,16.351562,3.960938C16.621094,4.046875,16.820312,4.160156,16.945312,4.289062C17.070312,4.421875,17.140625,4.566406,17.148438,4.722656C17.15625,4.878906,17.101562,5.054688,16.984375,5.257812C16.867188,5.457031,16.710938,5.671875,16.511719,5.898438C16.3125,6.125,16.0625,6.375,15.761719,6.660156C15.460938,6.941406,15.136719,7.230469,14.789062,7.535156C14.445312,7.835938,14.058594,8.167969,13.628906,8.53125C12.59375,9.40625,11.796875,10.09375,11.234375,10.597656C11.394531,10.3125,11.609375,10.007812,11.875,9.683594C12.136719,9.359375,12.402344,9.066406,12.660156,8.800781C12.921875,8.535156,13.183594,8.261719,13.453125,7.976562C13.71875,7.691406,13.949219,7.4375,14.144531,7.210938C14.339844,6.984375,14.492188,6.761719,14.597656,6.539062C14.703125,6.3125,14.742188,6.117188,14.707031,5.953125C14.671875,5.785156,14.546875,5.628906,14.328125,5.488281C14.105469,5.34375,13.78125,5.230469,13.351562,5.144531C12.921875,5.058594,12.351562,4.992188,11.644531,4.945312C10.933594,4.902344,10.085938,4.886719,9.097656,4.90625C8.160156,4.917969,7.285156,4.898438,6.46875,4.855469C5.65625,4.808594,4.941406,4.746094,4.328125,4.664062C3.714844,4.578125,3.144531,4.464844,2.617188,4.320312C2.089844,4.175781,1.644531,4.03125,1.28125,3.886719C0.917969,3.746094,0.574219,3.570312,0.253906,3.363281C-0.0664062,3.160156,-0.320312,2.972656,-0.511719,2.808594C-0.699219,2.644531,-0.890625,2.445312,-1.078125,2.210938C-1.269531,1.976562,-1.410156,1.78125,-1.503906,1.628906C-1.59375,1.472656,-1.707031,1.285156,-1.835938,1.058594C-1.96875,0.832031,-2.070312,0.667969,-2.144531,0.5625ZM-2.144531,0.5625" fill="#FFFFFF"/>
    </svg>