<?xml version="1.0" encoding="UTF-8" standalone="yes"?>
<svg xmlns="http://www.w3.org/2000/svg" xmlns:xlink="http://www.w3.org/1999/xlink" width="20px" height="20px" viewBox="0 0 15 15" version="1.1">
  <g id="surface1">
    <path style=" stroke:none;fill-rule:nonzero;fill:rgb(0%,0%,0%);fill-opacity:1;" d="M 8.832031 4.855469 C 8.832031 5.222656 8.703125 5.539062 8.441406 5.796875 C 8.183594 6.054688 7.867188 6.1875 7.5 6.1875 C 7.132812 6.1875 6.816406 6.054688 6.558594 5.796875 C 6.296875 5.539062 6.167969 5.222656 6.167969 4.855469 C 6.167969 4.488281 6.296875 4.171875 6.558594 3.914062 C 6.816406 3.652344 7.132812 3.523438 7.5 3.523438 C 7.867188 3.523438 8.183594 3.652344 8.441406 3.914062 C 8.703125 4.171875 8.832031 4.488281 8.832031 4.855469 Z M 10.621094 7.894531 C 10.566406 7.78125 10.488281 7.691406 10.386719 7.625 C 10.289062 7.558594 10.15625 7.53125 9.992188 7.546875 C 9.824219 7.558594 9.65625 7.636719 9.484375 7.777344 C 9.429688 7.820312 9.347656 7.875 9.242188 7.945312 C 9.136719 8.011719 8.910156 8.101562 8.5625 8.210938 C 8.21875 8.324219 7.863281 8.378906 7.5 8.378906 C 7.136719 8.378906 6.792969 8.328125 6.460938 8.226562 C 6.132812 8.128906 5.894531 8.027344 5.742188 7.925781 L 5.515625 7.777344 C 5.34375 7.636719 5.175781 7.558594 5.007812 7.546875 C 4.84375 7.53125 4.710938 7.558594 4.613281 7.625 C 4.511719 7.691406 4.433594 7.78125 4.378906 7.894531 C 4.253906 8.144531 4.25 8.351562 4.359375 8.515625 C 4.472656 8.679688 4.714844 8.886719 5.089844 9.132812 C 5.550781 9.429688 6.183594 9.613281 6.980469 9.691406 L 6.554688 10.128906 C 5.761719 10.921875 5.230469 11.449219 4.957031 11.71875 C 4.832031 11.839844 4.769531 11.988281 4.769531 12.15625 C 4.769531 12.328125 4.832031 12.476562 4.957031 12.597656 L 5.03125 12.671875 C 5.152344 12.796875 5.300781 12.855469 5.46875 12.855469 C 5.640625 12.855469 5.785156 12.796875 5.910156 12.671875 L 7.507812 11.074219 C 8.144531 11.714844 8.675781 12.25 9.105469 12.671875 C 9.230469 12.796875 9.375 12.855469 9.546875 12.855469 C 9.714844 12.855469 9.863281 12.796875 9.984375 12.671875 L 10.0625 12.597656 C 10.183594 12.476562 10.246094 12.328125 10.246094 12.15625 C 10.246094 11.988281 10.183594 11.839844 10.0625 11.71875 L 8.460938 10.128906 L 8.027344 9.691406 C 8.8125 9.613281 9.441406 9.429688 9.910156 9.132812 C 10.285156 8.886719 10.527344 8.679688 10.640625 8.515625 C 10.75 8.351562 10.746094 8.144531 10.621094 7.894531 Z M 10.210938 4.855469 C 10.210938 4.105469 9.945312 3.46875 9.417969 2.9375 C 8.886719 2.40625 8.246094 2.144531 7.5 2.144531 C 6.753906 2.144531 6.113281 2.40625 5.582031 2.9375 C 5.054688 3.46875 4.789062 4.105469 4.789062 4.855469 C 4.789062 5.601562 5.054688 6.242188 5.582031 6.773438 C 6.113281 7.300781 6.753906 7.566406 7.5 7.566406 C 8.246094 7.566406 8.886719 7.300781 9.417969 6.773438 C 9.945312 6.242188 10.210938 5.601562 10.210938 4.855469 Z M 13.929688 3.480469 L 13.929688 11.519531 C 13.929688 12.183594 13.691406 12.75 13.222656 13.222656 C 12.75 13.691406 12.183594 13.929688 11.519531 13.929688 L 3.480469 13.929688 C 2.816406 13.929688 2.25 13.691406 1.777344 13.222656 C 1.308594 12.75 1.070312 12.183594 1.070312 11.519531 L 1.070312 3.480469 C 1.070312 2.816406 1.308594 2.25 1.777344 1.777344 C 2.25 1.308594 2.816406 1.070312 3.480469 1.070312 L 11.519531 1.070312 C 12.183594 1.070312 12.75 1.308594 13.222656 1.777344 C 13.691406 2.25 13.929688 2.816406 13.929688 3.480469 Z M 13.929688 3.480469 "/>
  </g>
</svg>