<?xml version="1.0" encoding="UTF-8" standalone="yes"?>
<svg xmlns="http://www.w3.org/2000/svg" xmlns:xlink="http://www.w3.org/1999/xlink" width="20px" height="20px" viewBox="0 0 15 15" version="1.1">
  <g id="surface1">
    <path style=" stroke:none;fill-rule:nonzero;fill:rgb(0%,0%,0%);fill-opacity:1;" d="M 7.5 7.59375 C 6.449219 7.59375 5.554688 7.222656 4.8125 6.480469 C 4.070312 5.738281 3.699219 4.84375 3.699219 3.800781 C 3.699219 2.75 4.070312 1.855469 4.8125 1.113281 C 5.554688 0.371094 6.449219 0 7.5 0 C 8.550781 0 9.445312 0.371094 10.1875 1.113281 C 10.929688 1.855469 11.300781 2.75 11.300781 3.800781 C 11.300781 4.84375 10.929688 5.738281 10.1875 6.480469 C 9.445312 7.222656 8.550781 7.59375 7.5 7.59375 Z M 7.5 1.925781 C 6.988281 1.925781 6.546875 2.109375 6.179688 2.472656 C 5.816406 2.839844 5.632812 3.28125 5.632812 3.800781 C 5.632812 4.3125 5.816406 4.753906 6.179688 5.117188 C 6.546875 5.484375 6.988281 5.667969 7.5 5.667969 C 8.011719 5.667969 8.453125 5.484375 8.820312 5.117188 C 9.183594 4.753906 9.367188 4.3125 9.367188 3.800781 C 9.367188 3.28125 9.183594 2.839844 8.820312 2.472656 C 8.453125 2.109375 8.011719 1.925781 7.5 1.925781 Z M 11.878906 8.050781 C 11.949219 8.203125 11.992188 8.339844 12.003906 8.46875 C 12.015625 8.59375 12 8.707031 11.964844 8.804688 C 11.929688 8.90625 11.855469 9.011719 11.742188 9.128906 C 11.632812 9.242188 11.515625 9.34375 11.386719 9.4375 C 11.261719 9.53125 11.089844 9.644531 10.875 9.785156 C 10.230469 10.191406 9.351562 10.453125 8.238281 10.570312 L 8.847656 11.175781 L 11.082031 13.410156 C 11.25 13.582031 11.332031 13.789062 11.332031 14.027344 C 11.332031 14.269531 11.25 14.472656 11.082031 14.640625 L 10.980469 14.75 C 10.808594 14.917969 10.601562 15 10.363281 15 C 10.121094 15 9.917969 14.917969 9.742188 14.75 C 9.371094 14.371094 8.625 13.621094 7.507812 12.503906 L 5.273438 14.75 C 5.101562 14.917969 4.894531 15 4.652344 15 C 4.414062 15 4.210938 14.917969 4.042969 14.75 L 3.941406 14.640625 C 3.769531 14.472656 3.683594 14.269531 3.683594 14.027344 C 3.683594 13.789062 3.769531 13.582031 3.941406 13.410156 L 6.78125 10.570312 C 5.648438 10.453125 4.761719 10.191406 4.125 9.785156 C 3.910156 9.644531 3.738281 9.53125 3.613281 9.4375 C 3.484375 9.34375 3.367188 9.242188 3.257812 9.128906 C 3.144531 9.011719 3.070312 8.90625 3.035156 8.804688 C 2.996094 8.707031 2.984375 8.59375 2.996094 8.46875 C 3.007812 8.339844 3.050781 8.203125 3.121094 8.050781 C 3.179688 7.941406 3.257812 7.84375 3.355469 7.757812 C 3.457031 7.675781 3.574219 7.613281 3.707031 7.574219 C 3.84375 7.535156 4 7.542969 4.175781 7.59375 C 4.355469 7.640625 4.535156 7.738281 4.722656 7.886719 C 4.75 7.90625 4.789062 7.9375 4.847656 7.976562 C 4.902344 8.015625 5.023438 8.085938 5.207031 8.183594 C 5.390625 8.28125 5.582031 8.363281 5.785156 8.4375 C 5.984375 8.511719 6.242188 8.578125 6.554688 8.636719 C 6.867188 8.699219 7.183594 8.730469 7.5 8.730469 C 8.007812 8.730469 8.492188 8.660156 8.957031 8.515625 C 9.417969 8.375 9.753906 8.234375 9.960938 8.09375 L 10.277344 7.886719 C 10.464844 7.738281 10.644531 7.640625 10.824219 7.59375 C 11 7.542969 11.15625 7.535156 11.292969 7.574219 C 11.425781 7.613281 11.542969 7.675781 11.644531 7.757812 C 11.742188 7.84375 11.820312 7.941406 11.878906 8.050781 Z M 11.878906 8.050781 "/>
  </g>
</svg>