<svg version="1.1" xmlns="http://www.w3.org/2000/svg" xlink="http://www.w3.org/1999/xlink" x="0px" y="0px" width="15px" height="18.75px" viewBox="0 0 15 18.75" style="enable-background:new 0 0 15 15;" space="preserve">
    <path d="M23.06396484375,5.8707275390625L15.234375,8.203125l-1.8489990234375,-0.9243164062499999a2.3463134765625,2.3463134765625,0,0,0,-1.048095703125,-0.24755859374999997H10.25390625v-1.7578125h2.05078125c0.32373046875,0,0.5859375,-0.26220703125,0.5859375,-0.5859375v-0.5859375c0,-0.32373046875,-0.26220703125,-0.5859375,-0.5859375,-0.5859375H6.4453125c-0.32373046875,0,-0.5859375,0.26220703125,-0.5859375,0.5859375v0.5859375c0,0.32373046875,0.26220703125,0.5859375,0.5859375,0.5859375h2.05078125v1.7578125h-2.05078125L1.38134765625,6.110595703125a1.168212890625,1.168212890625,0,0,0,-0.2120361328125,-0.0194091796875C0.5372314453125,6.091186523437501,0,6.60498046875,0,7.263427734375v3.4771728515625c0,0.566162109375,0.405029296875,1.0517578125,0.9624023437500001,1.15283203125L3.515625,12.358154296875V14.0625c0,0.6470947265625,0.5247802734375,1.171875,1.171875,1.171875h10.0572509765625c0.3131103515625,0,0.6134033203125,-0.125244140625,0.8334960937500001,-0.3482666015625l7.773193359374999,-7.8643798828125c0.054931640625,-0.054931640625,0.08569335937499999,-0.129638671875,0.08569335937499999,-0.207275390625V6.15234375c0.0003662109375,-0.19445800781249997,-0.18603515625,-0.3350830078125,-0.3731689453125,-0.2816162109375zM3.515625,10.5714111328125l-1.7578125,-0.31970214843750006v-2.2862548828125l1.7578125,0.31970214843750006v2.2862548828125zm16.6014404296875,3.1003417968749996c0,0.86279296875,0.699462890625,1.5626220703125002,1.5626220703125002,1.5626220703125002s1.5626220703125002,-0.699462890625,1.5626220703125002,-1.5626220703125002S21.6796875,10.546875,21.6796875,10.546875s-1.5626220703125002,2.2620849609375,-1.5626220703125002,3.1248779296875z" fill="#FFFFFF"/>
    </svg>