<svg version="1.1" xmlns="http://www.w3.org/2000/svg" xlink="http://www.w3.org/1999/xlink" x="0px" y="0px" width="15px" height="15px" viewBox="0 0 15 15" style="enable-background:new 0 0 15 15;" space="preserve">
    <path d="M1.890625,14.019531C1.847656,14.109375,1.773438,14.207031,1.664062,14.308594C1.558594,14.414062,1.457031,14.484375,1.355469,14.523438C1.214844,14.574219,1.074219,14.5625,0.925781,14.492188C0.777344,14.421875,0.699219,14.335938,0.6875,14.230469C0.679688,14.105469,0.792969,13.953125,1.019531,13.769531C1.25,13.585938,1.441406,13.480469,1.589844,13.453125C1.71875,13.429688,1.8125,13.488281,1.875,13.632812C1.9375,13.773438,1.941406,13.902344,1.890625,14.019531ZM13.117188,14.019531C13.15625,14.109375,13.226562,14.207031,13.335938,14.308594C13.441406,14.414062,13.546875,14.484375,13.652344,14.523438C13.792969,14.574219,13.933594,14.5625,14.082031,14.492188C14.230469,14.421875,14.308594,14.335938,14.3125,14.230469C14.324219,14.105469,14.214844,13.953125,13.984375,13.769531C13.75,13.585938,13.558594,13.480469,13.410156,13.453125C13.285156,13.429688,13.195312,13.488281,13.132812,13.632812C13.070312,13.773438,13.066406,13.902344,13.117188,14.019531ZM13.519531,13.109375C13.589844,13.257812,13.75,13.425781,13.992188,13.605469C14.234375,13.789062,14.449219,13.902344,14.640625,13.953125C14.890625,14.027344,15.121094,14.011719,15.328125,13.914062C15.53125,13.816406,15.636719,13.675781,15.636719,13.492188C15.636719,13.238281,15.449219,12.957031,15.070312,12.652344C14.695312,12.347656,14.371094,12.183594,14.105469,12.152344C13.882812,12.125,13.703125,12.230469,13.574219,12.46875C13.441406,12.703125,13.421875,12.917969,13.519531,13.109375ZM1.472656,13.109375C1.402344,13.257812,1.246094,13.425781,1.003906,13.605469C0.765625,13.789062,0.550781,13.902344,0.359375,13.953125C0.109375,14.027344,-0.121094,14.011719,-0.328125,13.914062C-0.53125,13.816406,-0.636719,13.675781,-0.636719,13.492188C-0.636719,13.238281,-0.449219,12.957031,-0.0703125,12.652344C0.304688,12.347656,0.628906,12.183594,0.894531,12.152344C1.117188,12.125,1.292969,12.230469,1.421875,12.46875C1.550781,12.703125,1.566406,12.917969,1.472656,13.109375ZM7.582031,3.699219L7.59375,3.699219C7.363281,3.699219,7.152344,3.742188,6.957031,3.824219C7.105469,3.871094,7.230469,3.953125,7.324219,4.082031C7.417969,4.207031,7.464844,4.34375,7.464844,4.496094C7.464844,4.691406,7.390625,4.859375,7.242188,4.996094C7.089844,5.136719,6.910156,5.207031,6.695312,5.207031C6.40625,5.207031,6.183594,5.085938,6.027344,4.847656C6,4.976562,5.984375,5.09375,5.984375,5.199219C5.984375,5.609375,6.140625,5.964844,6.453125,6.257812C6.765625,6.550781,7.144531,6.695312,7.582031,6.695312C8.03125,6.695312,8.410156,6.550781,8.722656,6.257812C9.035156,5.964844,9.191406,5.609375,9.191406,5.199219C9.191406,4.785156,9.035156,4.433594,8.722656,4.140625C8.410156,3.847656,8.03125,3.699219,7.582031,3.699219ZM10.128906,1.875C9.574219,1.265625,8.960938,0.898438,8.28125,0.773438C7.605469,0.648438,6.917969,0.773438,6.226562,1.148438C6.378906,0.8125,6.609375,0.542969,6.917969,0.339844C7.226562,0.136719,7.558594,0.0234375,7.90625,0.0078125C8.253906,-0.0078125,8.59375,0.0390625,8.921875,0.152344C9.253906,0.261719,9.53125,0.46875,9.757812,0.773438C9.980469,1.078125,10.105469,1.445312,10.128906,1.875ZM16.40625,12.246094C16.449219,12.308594,16.421875,12.425781,16.3125,12.597656C16.351562,12.726562,16.371094,12.835938,16.371094,12.933594C16.378906,13.246094,16.253906,13.558594,16,13.875C15.746094,14.1875,15.441406,14.445312,15.082031,14.640625C14.726562,14.835938,14.398438,14.9375,14.097656,14.949219C13.828125,14.960938,13.570312,14.902344,13.324219,14.769531C13.082031,14.636719,12.894531,14.457031,12.773438,14.222656C8.941406,14.359375,5.425781,14.359375,2.234375,14.222656C2.105469,14.449219,1.921875,14.632812,1.679688,14.765625C1.4375,14.898438,1.175781,14.960938,0.902344,14.949219C0.425781,14.933594,-0.078125,14.707031,-0.597656,14.277344C-1.121094,13.84375,-1.378906,13.394531,-1.371094,12.933594C-1.363281,12.808594,-1.34375,12.699219,-1.3125,12.597656C-1.421875,12.425781,-1.449219,12.308594,-1.40625,12.246094C-1.371094,12.191406,-1.285156,12.1875,-1.148438,12.238281C-1.070312,12.113281,-0.953125,11.972656,-0.804688,11.8125C-0.84375,11.648438,-0.835938,11.542969,-0.785156,11.492188C-0.726562,11.4375,-0.617188,11.449219,-0.460938,11.527344C-0.296875,11.414062,-0.132812,11.320312,0.0351562,11.242188C0.0351562,11.078125,0.0703125,10.976562,0.140625,10.933594C0.269531,10.863281,0.414062,10.910156,0.570312,11.066406C0.765625,11.039062,0.933594,11.042969,1.078125,11.082031C1.179688,11.105469,1.285156,11.15625,1.398438,11.242188L1.398438,10.628906C1.335938,10.628906,1.285156,10.625,1.246094,10.613281C0.953125,10.558594,0.679688,10.433594,0.433594,10.242188C0.191406,10.046875,0.0351562,9.804688,-0.0234375,9.507812C-0.0742188,9.296875,-0.0742188,9.070312,-0.0234375,8.832031C0.0585938,8.484375,0.316406,8.21875,0.753906,8.035156C0.765625,7.941406,0.816406,7.839844,0.914062,7.738281C1.007812,7.636719,1.109375,7.570312,1.214844,7.542969C1.320312,7.515625,1.410156,7.535156,1.488281,7.605469C1.566406,7.675781,1.621094,7.757812,1.648438,7.859375L1.757812,7.859375C2.015625,7.886719,2.183594,7.953125,2.261719,8.050781C2.277344,8.070312,2.289062,8.089844,2.300781,8.109375C2.359375,8.105469,2.441406,8.09375,2.558594,8.082031C2.671875,8.066406,2.757812,8.058594,2.8125,8.050781C2.730469,7.992188,2.644531,7.945312,2.5625,7.910156C2.433594,7.6875,2.179688,7.566406,1.800781,7.550781C1.800781,7.515625,1.800781,7.488281,1.808594,7.464844C1.460938,7.457031,1.132812,7.402344,0.816406,7.3125C0.5,7.21875,0.265625,7.085938,0.109375,6.914062C-0.0703125,6.714844,-0.1875,6.457031,-0.246094,6.144531C-0.304688,5.832031,-0.3125,5.519531,-0.269531,5.207031C-0.179688,4.503906,0.0742188,4.003906,0.484375,3.707031C0.613281,3.617188,0.757812,3.605469,0.921875,3.671875C1.082031,3.734375,1.171875,3.847656,1.1875,4.007812C1.1875,4.015625,1.191406,4.054688,1.203125,4.125C1.210938,4.199219,1.214844,4.257812,1.222656,4.300781C1.226562,4.347656,1.234375,4.402344,1.246094,4.46875C1.257812,4.535156,1.273438,4.589844,1.292969,4.628906C1.3125,4.667969,1.335938,4.695312,1.363281,4.710938C1.515625,4.789062,1.726562,4.824219,2,4.8125C2.269531,4.554688,2.542969,4.351562,2.820312,4.195312C2.597656,4.171875,2.144531,4.210938,1.464844,4.3125L1.859375,3.925781C2.199219,3.601562,2.652344,3.292969,3.222656,2.996094C4.03125,2.589844,4.820312,2.347656,5.582031,2.277344C5.472656,2.230469,5.355469,2.1875,5.238281,2.148438C5.121094,2.105469,4.992188,2.066406,4.847656,2.03125C4.703125,1.992188,4.582031,1.964844,4.492188,1.941406C4.398438,1.917969,4.265625,1.890625,4.09375,1.851562C3.921875,1.8125,3.800781,1.78125,3.734375,1.765625C7.054688,1.0625,9.574219,1.449219,11.300781,2.929688C11.847656,3.398438,12.289062,4.019531,12.621094,4.789062C13.097656,4.84375,13.433594,4.820312,13.636719,4.710938L13.644531,4.710938C13.671875,4.695312,13.695312,4.667969,13.714844,4.628906C13.734375,4.589844,13.75,4.535156,13.761719,4.46875C13.773438,4.402344,13.78125,4.347656,13.785156,4.304688C13.792969,4.265625,13.800781,4.203125,13.8125,4.125L13.820312,4.007812C13.835938,3.851562,13.925781,3.742188,14.085938,3.675781C14.25,3.609375,14.394531,3.621094,14.523438,3.714844C14.929688,4.007812,15.183594,4.503906,15.285156,5.207031C15.324219,5.523438,15.3125,5.839844,15.253906,6.152344C15.195312,6.464844,15.078125,6.71875,14.898438,6.914062C14.742188,7.09375,14.511719,7.226562,14.199219,7.320312C13.890625,7.414062,13.570312,7.464844,13.234375,7.476562L13.234375,7.558594C12.835938,7.570312,12.574219,7.691406,12.4375,7.917969C12.359375,7.945312,12.273438,7.992188,12.179688,8.0625C12.242188,8.066406,12.328125,8.078125,12.445312,8.089844C12.5625,8.105469,12.648438,8.113281,12.699219,8.121094C12.703125,8.097656,12.71875,8.074219,12.738281,8.050781C12.828125,7.953125,12.996094,7.886719,13.242188,7.859375L13.351562,7.859375C13.378906,7.757812,13.433594,7.675781,13.511719,7.609375C13.589844,7.542969,13.679688,7.519531,13.785156,7.542969C13.890625,7.5625,13.992188,7.628906,14.085938,7.734375C14.183594,7.839844,14.234375,7.941406,14.246094,8.035156C14.6875,8.214844,14.945312,8.480469,15.023438,8.832031C15.074219,9.054688,15.078125,9.28125,15.035156,9.507812C14.964844,9.804688,14.808594,10.050781,14.566406,10.246094C14.320312,10.441406,14.046875,10.5625,13.753906,10.613281C13.695312,10.625,13.648438,10.628906,13.609375,10.628906C13.609375,10.902344,13.609375,11.109375,13.601562,11.242188C13.714844,11.15625,13.820312,11.105469,13.921875,11.082031C14.066406,11.042969,14.234375,11.039062,14.429688,11.066406C14.585938,10.910156,14.730469,10.863281,14.859375,10.933594C14.9375,10.980469,14.976562,11.085938,14.976562,11.242188C15.160156,11.332031,15.324219,11.425781,15.46875,11.527344C15.621094,11.453125,15.726562,11.441406,15.785156,11.492188C15.84375,11.546875,15.847656,11.65625,15.804688,11.8125C15.960938,11.976562,16.074219,12.121094,16.148438,12.238281C16.273438,12.191406,16.363281,12.195312,16.40625,12.246094ZM14.105469,4.277344C14.105469,4.4375,14.078125,4.589844,14.027344,4.730469C14.488281,4.90625,14.800781,5.277344,14.964844,5.835938C14.988281,5.628906,14.960938,5.351562,14.886719,5.007812C14.8125,4.667969,14.695312,4.414062,14.539062,4.253906C14.429688,4.144531,14.328125,4.097656,14.238281,4.109375C14.148438,4.121094,14.105469,4.175781,14.105469,4.277344ZM13.453125,5.113281C13.648438,5.347656,13.777344,5.652344,13.847656,6.023438C13.917969,6.394531,13.917969,6.742188,13.84375,7.066406C14.21875,6.992188,14.488281,6.867188,14.65625,6.6875C14.730469,6.609375,14.78125,6.53125,14.808594,6.453125C14.789062,6.097656,14.703125,5.777344,14.546875,5.496094C14.390625,5.214844,14.171875,5.027344,13.886719,4.9375C13.804688,5.023438,13.65625,5.082031,13.453125,5.113281ZM13.140625,5.148438C12.972656,5.148438,12.851562,5.144531,12.773438,5.140625C13.007812,5.78125,13.15625,6.449219,13.21875,7.140625C13.335938,7.140625,13.453125,7.132812,13.578125,7.113281C13.667969,6.734375,13.667969,6.359375,13.585938,5.984375C13.5,5.609375,13.355469,5.332031,13.140625,5.148438ZM0.0507812,5.835938C0.21875,5.277344,0.53125,4.90625,0.988281,4.730469C0.9375,4.589844,0.914062,4.4375,0.914062,4.277344C0.914062,4.175781,0.867188,4.121094,0.773438,4.109375C0.683594,4.097656,0.582031,4.144531,0.476562,4.253906C0.320312,4.414062,0.203125,4.667969,0.128906,5.007812C0.0546875,5.351562,0.0273438,5.628906,0.0507812,5.835938ZM0.351562,6.6875C0.511719,6.859375,0.785156,6.988281,1.164062,7.066406C1.089844,6.742188,1.089844,6.394531,1.160156,6.023438C1.230469,5.652344,1.363281,5.347656,1.558594,5.113281C1.351562,5.082031,1.207031,5.023438,1.121094,4.9375C0.835938,5.027344,0.617188,5.210938,0.464844,5.492188C0.3125,5.769531,0.222656,6.089844,0.199219,6.453125C0.25,6.546875,0.300781,6.625,0.351562,6.6875ZM1.832031,7.140625C1.910156,6.449219,2.113281,5.792969,2.445312,5.171875C2.339844,5.195312,2.183594,5.246094,1.984375,5.324219L1.605469,5.484375L1.605469,5.472656C1.351562,5.972656,1.292969,6.519531,1.441406,7.113281C1.578125,7.132812,1.710938,7.140625,1.832031,7.140625ZM9.894531,7.464844C9.9375,7.679688,9.984375,7.980469,10.03125,8.375C10.078125,8.769531,10.113281,9.019531,10.128906,9.125C10.144531,9.222656,10.171875,9.285156,10.207031,9.304688C10.242188,9.324219,10.308594,9.3125,10.40625,9.265625C10.628906,9.15625,10.800781,8.914062,10.921875,8.550781C11.046875,8.183594,11.109375,7.835938,11.117188,7.5C10.980469,7.488281,10.574219,7.476562,9.894531,7.464844ZM7.535156,2.101562C6.886719,2.101562,6.332031,2.332031,5.867188,2.792969C5.40625,3.25,5.171875,3.804688,5.171875,4.453125C5.171875,5.105469,5.40625,5.664062,5.867188,6.125C6.332031,6.582031,6.886719,6.8125,7.535156,6.8125C8.179688,6.8125,8.734375,6.582031,9.199219,6.125C9.664062,5.664062,9.894531,5.105469,9.894531,4.453125C9.894531,3.804688,9.664062,3.25,9.199219,2.792969C8.734375,2.332031,8.179688,2.101562,7.535156,2.101562ZM9.441406,7.449219C8.851562,7.4375,8.261719,7.4375,7.675781,7.449219L7.675781,7.441406C7.671875,7.59375,7.675781,7.832031,7.695312,8.160156C7.714844,8.492188,7.753906,8.675781,7.808594,8.714844C7.972656,8.792969,8.234375,8.832031,8.59375,8.835938C8.953125,8.835938,9.21875,8.808594,9.390625,8.746094C9.441406,8.730469,9.472656,8.621094,9.484375,8.421875C9.496094,8.21875,9.492188,8.027344,9.480469,7.839844C9.464844,7.652344,9.453125,7.523438,9.441406,7.449219ZM7.199219,9.117188C7.242188,9.09375,7.269531,8.960938,7.277344,8.714844C7.285156,8.46875,7.285156,8.222656,7.273438,7.976562C7.261719,7.730469,7.25,7.554688,7.242188,7.449219L7.242188,7.441406C6.058594,7.457031,5.460938,7.464844,5.449219,7.464844C5.425781,7.578125,5.40625,7.75,5.390625,7.984375C5.375,8.21875,5.375,8.453125,5.390625,8.679688C5.40625,8.910156,5.445312,9.039062,5.507812,9.066406C5.699219,9.148438,5.980469,9.195312,6.351562,9.199219C6.726562,9.203125,7.007812,9.175781,7.199219,9.117188ZM3.902344,7.535156C3.8125,7.863281,3.824219,8.195312,3.9375,8.523438C4.054688,8.855469,4.269531,9.09375,4.585938,9.234375C4.671875,9.277344,4.738281,9.292969,4.789062,9.273438C4.839844,9.257812,4.871094,9.199219,4.886719,9.097656C4.90625,9.007812,4.925781,8.757812,4.957031,8.34375C4.984375,7.933594,5.011719,7.644531,5.039062,7.484375C4.652344,7.496094,4.273438,7.511719,3.902344,7.535156ZM2.835938,8.589844C2.855469,8.714844,2.757812,8.816406,2.554688,8.890625C3.289062,9.675781,4.046875,10.347656,4.824219,10.898438C5.605469,11.449219,6.457031,11.878906,7.382812,12.1875C8.34375,11.914062,9.207031,11.507812,9.980469,10.964844C10.753906,10.425781,11.574219,9.726562,12.4375,8.871094C12.253906,8.800781,12.171875,8.707031,12.1875,8.589844L12.210938,8.511719L12.210938,8.503906L12.210938,8.511719C12.117188,8.5,11.976562,8.484375,11.792969,8.46875C11.609375,8.445312,11.476562,8.433594,11.390625,8.429688C11.246094,8.929688,11.019531,9.300781,10.707031,9.535156C10.421875,9.746094,10.191406,9.742188,10.019531,9.527344C9.992188,9.492188,9.964844,9.453125,9.945312,9.410156C9.90625,9.335938,9.859375,9.164062,9.800781,8.890625C9.789062,8.917969,9.777344,8.941406,9.761719,8.964844C9.742188,8.988281,9.722656,9.007812,9.695312,9.023438C9.671875,9.039062,9.648438,9.054688,9.628906,9.070312C9.609375,9.082031,9.585938,9.09375,9.550781,9.101562L9.46875,9.125L9.367188,9.140625L9.265625,9.152344L9.152344,9.160156L9.039062,9.164062C8.449219,9.214844,7.992188,9.183594,7.675781,9.074219C7.652344,9.167969,7.625,9.242188,7.59375,9.296875C7.558594,9.347656,7.5,9.390625,7.417969,9.421875C7.332031,9.453125,7.269531,9.472656,7.222656,9.480469C7.179688,9.488281,7.078125,9.496094,6.921875,9.507812C6.910156,9.507812,6.902344,9.511719,6.898438,9.511719C6.890625,9.515625,6.882812,9.515625,6.871094,9.515625L6.847656,9.515625C5.847656,9.613281,5.28125,9.5,5.148438,9.183594C5.136719,9.535156,4.980469,9.683594,4.679688,9.632812C4.417969,9.589844,4.164062,9.4375,3.917969,9.183594C3.851562,9.109375,3.792969,9.039062,3.75,8.964844C3.65625,8.804688,3.582031,8.621094,3.53125,8.421875C3.207031,8.453125,2.964844,8.480469,2.804688,8.503906C2.808594,8.515625,2.820312,8.542969,2.835938,8.589844ZM2.132812,13.84375C2.152344,13.765625,2.160156,13.683594,2.160156,13.59375C2.066406,13.199219,1.921875,12.835938,1.734375,12.503906C1.542969,12.175781,1.339844,11.980469,1.121094,11.917969C0.894531,11.851562,0.609375,11.894531,0.273438,12.039062C-0.0664062,12.1875,-0.355469,12.410156,-0.601562,12.710938C-0.847656,13.007812,-0.957031,13.308594,-0.929688,13.609375C-0.734375,13.90625,-0.453125,14.164062,-0.09375,14.390625C0.269531,14.613281,0.601562,14.730469,0.902344,14.742188C1.1875,14.75,1.449219,14.671875,1.691406,14.507812C1.929688,14.339844,2.078125,14.117188,2.132812,13.84375ZM2.160156,12.414062C2.289062,12.765625,2.363281,13.097656,2.386719,13.410156C3.472656,12.777344,4.566406,12.292969,5.667969,11.953125C5.121094,11.664062,4.617188,11.328125,4.15625,10.949219C3.695312,10.570312,3.195312,10.109375,2.652344,9.566406C2.621094,9.589844,2.539062,9.625,2.410156,9.675781C2.410156,9.6875,2.40625,9.703125,2.402344,9.71875C2.398438,9.734375,2.394531,9.746094,2.394531,9.75C2.566406,9.851562,2.628906,9.957031,2.578125,10.0625C2.511719,10.191406,2.355469,10.285156,2.109375,10.347656C2.054688,10.417969,1.972656,10.484375,1.867188,10.546875L1.859375,10.546875C1.847656,11.011719,1.851562,11.429688,1.867188,11.800781C1.972656,11.992188,2.070312,12.195312,2.160156,12.414062ZM2.738281,13.804688C5.707031,13.921875,8.902344,13.921875,12.320312,13.804688C10.902344,12.984375,9.710938,12.4375,8.738281,12.164062C8.316406,12.359375,7.878906,12.515625,7.433594,12.640625C7.386719,12.65625,7.34375,12.65625,7.300781,12.640625C6.9375,12.523438,6.578125,12.386719,6.21875,12.230469C5.058594,12.5625,3.898438,13.089844,2.738281,13.804688L2.730469,13.804688L2.730469,13.8125C2.734375,13.8125,2.738281,13.808594,2.738281,13.804688ZM12.648438,13.417969C12.671875,13.117188,12.75,12.78125,12.882812,12.414062C12.960938,12.203125,13.050781,12.003906,13.160156,11.820312L13.148438,11.828125C13.167969,11.398438,13.175781,10.972656,13.175781,10.546875C13.089844,10.503906,13.007812,10.433594,12.925781,10.335938C12.691406,10.289062,12.535156,10.195312,12.457031,10.0625C12.40625,9.949219,12.464844,9.84375,12.640625,9.742188C12.628906,9.722656,12.621094,9.695312,12.621094,9.667969C12.535156,9.644531,12.457031,9.613281,12.386719,9.566406C11.25,10.628906,10.179688,11.421875,9.183594,11.945312C10.289062,12.273438,11.441406,12.765625,12.648438,13.417969ZM15.929688,13.609375C15.957031,13.308594,15.847656,13.007812,15.601562,12.710938C15.355469,12.410156,15.066406,12.1875,14.730469,12.039062C14.398438,11.894531,14.113281,11.851562,13.878906,11.917969C13.667969,11.980469,13.464844,12.175781,13.273438,12.507812C13.078125,12.839844,12.933594,13.203125,12.839844,13.59375C12.839844,13.683594,12.847656,13.765625,12.867188,13.84375C12.921875,14.117188,13.070312,14.339844,13.308594,14.507812C13.550781,14.671875,13.8125,14.75,14.097656,14.742188C14.398438,14.730469,14.730469,14.613281,15.09375,14.390625C15.453125,14.164062,15.734375,13.90625,15.929688,13.609375ZM15.929688,13.609375" fill="#FFFFFF"/>
    </svg>