<svg xmlns="http://www.w3.org/2000/svg" xlink="http://www.w3.org/1999/xlink" width="20px" height="20px" viewBox="0 0 15 15" version="1.1">
  <g id="surface1">
    <path d="M 12.496094 1.910156 C 11.578125 1.292969 10.574219 0.988281 9.492188 0.988281 C 8.628906 0.988281 7.808594 1.191406 7.039062 1.597656 C 6.269531 2.007812 5.601562 2.5625 5.03125 3.273438 C 4.613281 3.792969 4.277344 4.398438 4.03125 5.097656 C 3.78125 5.796875 3.648438 6.539062 3.625 7.324219 L 3.625 7.675781 C 3.648438 8.460938 3.78125 9.203125 4.03125 9.902344 C 4.277344 10.601562 4.613281 11.207031 5.03125 11.726562 C 5.601562 12.4375 6.269531 12.992188 7.039062 13.402344 C 7.808594 13.808594 8.628906 14.011719 9.492188 14.011719 C 10.574219 14.011719 11.578125 13.707031 12.496094 13.089844 C 11.820312 13.695312 11.054688 14.164062 10.199219 14.496094 C 9.34375 14.832031 8.441406 15 7.5 15 C 7.339844 15 7.21875 14.996094 7.140625 14.992188 C 6.164062 14.945312 5.234375 14.71875 4.351562 14.304688 C 3.472656 13.890625 2.710938 13.355469 2.074219 12.691406 C 1.441406 12.027344 0.933594 11.242188 0.5625 10.335938 C 0.1875 9.433594 0 8.488281 0 7.5 C 0 6.484375 0.199219 5.511719 0.59375 4.585938 C 0.992188 3.660156 1.523438 2.863281 2.191406 2.191406 C 2.863281 1.523438 3.660156 0.992188 4.585938 0.59375 C 5.511719 0.199219 6.484375 0 7.5 0 L 7.523438 0 C 8.460938 0.00390625 9.355469 0.175781 10.207031 0.507812 C 11.058594 0.839844 11.820312 1.304688 12.496094 1.910156 Z M 15 7.5 C 15 8.570312 14.785156 9.582031 14.355469 10.535156 C 13.925781 11.484375 13.332031 12.3125 12.574219 13.015625 C 11.992188 13.367188 11.371094 13.542969 10.714844 13.542969 C 9.949219 13.542969 9.238281 13.308594 8.578125 12.839844 C 9.4375 12.527344 10.144531 11.878906 10.703125 10.890625 C 11.257812 9.902344 11.535156 8.773438 11.535156 7.5 C 11.535156 6.234375 11.257812 5.105469 10.707031 4.117188 C 10.152344 3.128906 9.449219 2.476562 8.589844 2.160156 C 9.253906 1.695312 9.960938 1.464844 10.714844 1.464844 C 11.378906 1.464844 12.007812 1.644531 12.605469 2.007812 C 13.359375 2.707031 13.945312 3.53125 14.367188 4.476562 C 14.789062 5.425781 15 6.433594 15 7.5 Z M 15 7.5 " fill="#FFFFFF"/>
  </g>
</svg>