<?xml version="1.0" encoding="UTF-8" standalone="yes"?>
<svg xmlns="http://www.w3.org/2000/svg" xmlns:xlink="http://www.w3.org/1999/xlink" width="20px" height="20px" viewBox="0 0 15 15" version="1.1">
  <g id="surface1">
    <path style=" stroke:none;fill-rule:nonzero;fill:rgb(0%,0%,0%);fill-opacity:1;" d="M 9.089844 0 L 9.089844 12.855469 L 6.8125 13.929688 C 5.542969 13.816406 4.386719 13.53125 3.347656 13.074219 C 2.308594 12.617188 1.492188 12.035156 0.894531 11.328125 C 0.296875 10.625 0 9.863281 0 9.046875 C 0 8.265625 0.28125 7.53125 0.839844 6.84375 C 1.402344 6.152344 2.167969 5.582031 3.144531 5.121094 C 4.117188 4.664062 5.210938 4.363281 6.421875 4.21875 L 6.421875 5.660156 C 5.210938 5.871094 4.214844 6.289062 3.4375 6.914062 C 2.65625 7.539062 2.269531 8.25 2.269531 9.046875 C 2.269531 9.898438 2.699219 10.640625 3.5625 11.285156 C 4.421875 11.925781 5.507812 12.328125 6.8125 12.496094 L 6.8125 1.113281 Z M 14.691406 4.871094 L 15 8.136719 L 10.605469 7.183594 L 11.835938 6.488281 C 11.171875 6.097656 10.390625 5.820312 9.492188 5.660156 L 9.492188 4.21875 C 11.039062 4.402344 12.378906 4.839844 13.519531 5.53125 Z M 14.691406 4.871094 "/>
  </g>
</svg>