<svg version="1.1" xmlns="http://www.w3.org/2000/svg" xlink="http://www.w3.org/1999/xlink" x="0px" y="0px" width="15px" height="15px" viewBox="0 0 15 15" style="enable-background:new 0 0 15 15;" space="preserve">
    <path d="M6.429688,13.929688L13.929688,13.929688L13.929688,8.570312L10.445312,8.570312C10.222656,8.570312,10.035156,8.492188,9.878906,8.335938C9.722656,8.179688,9.644531,7.992188,9.644531,7.769531L9.644531,4.285156L6.429688,4.285156ZM8.570312,1.875L8.570312,1.339844C8.570312,1.265625,8.546875,1.203125,8.492188,1.152344C8.4375,1.097656,8.375,1.070312,8.304688,1.070312L2.410156,1.070312C2.339844,1.070312,2.273438,1.097656,2.222656,1.152344C2.167969,1.203125,2.144531,1.265625,2.144531,1.339844L2.144531,1.875C2.144531,1.949219,2.167969,2.011719,2.222656,2.0625C2.273438,2.117188,2.339844,2.144531,2.410156,2.144531L8.304688,2.144531C8.375,2.144531,8.4375,2.117188,8.492188,2.0625C8.546875,2.011719,8.570312,1.949219,8.570312,1.875ZM10.714844,7.5L13.21875,7.5L10.714844,4.996094ZM15,8.570312L15,14.195312C15,14.417969,14.921875,14.609375,14.765625,14.765625C14.609375,14.921875,14.417969,15,14.195312,15L6.160156,15C5.9375,15,5.746094,14.921875,5.589844,14.765625C5.433594,14.609375,5.355469,14.417969,5.355469,14.195312L5.355469,12.855469L0.804688,12.855469C0.582031,12.855469,0.390625,12.777344,0.234375,12.621094C0.078125,12.464844,0,12.277344,0,12.054688L0,0.804688C0,0.582031,0.078125,0.390625,0.234375,0.234375C0.390625,0.078125,0.582031,0,0.804688,0L9.910156,0C10.132812,0,10.324219,0.078125,10.480469,0.234375C10.636719,0.390625,10.714844,0.582031,10.714844,0.804688L10.714844,3.550781C10.832031,3.621094,10.933594,3.699219,11.015625,3.785156L14.429688,7.199219C14.585938,7.355469,14.722656,7.566406,14.832031,7.835938C14.945312,8.101562,15,8.347656,15,8.570312ZM15,8.570312" fill="#FFFFFF"/>
    </svg>