<?xml version="1.0" encoding="UTF-8" standalone="yes"?>
<svg xmlns="http://www.w3.org/2000/svg" xmlns:xlink="http://www.w3.org/1999/xlink" width="20px" height="20px" viewBox="0 0 15 15" version="1.1">
  <g id="surface1">
    <path style=" stroke:none;fill-rule:nonzero;fill:rgb(0%,0%,0%);fill-opacity:1;" d="M 6.429688 13.929688 L 13.929688 13.929688 L 13.929688 8.570312 L 10.445312 8.570312 C 10.222656 8.570312 10.035156 8.492188 9.878906 8.335938 C 9.722656 8.179688 9.644531 7.992188 9.644531 7.769531 L 9.644531 4.285156 L 6.429688 4.285156 Z M 8.570312 1.875 L 8.570312 1.339844 C 8.570312 1.265625 8.546875 1.203125 8.492188 1.152344 C 8.4375 1.097656 8.375 1.070312 8.304688 1.070312 L 2.410156 1.070312 C 2.339844 1.070312 2.273438 1.097656 2.222656 1.152344 C 2.167969 1.203125 2.144531 1.265625 2.144531 1.339844 L 2.144531 1.875 C 2.144531 1.949219 2.167969 2.011719 2.222656 2.0625 C 2.273438 2.117188 2.339844 2.144531 2.410156 2.144531 L 8.304688 2.144531 C 8.375 2.144531 8.4375 2.117188 8.492188 2.0625 C 8.546875 2.011719 8.570312 1.949219 8.570312 1.875 Z M 10.714844 7.5 L 13.21875 7.5 L 10.714844 4.996094 Z M 15 8.570312 L 15 14.195312 C 15 14.417969 14.921875 14.609375 14.765625 14.765625 C 14.609375 14.921875 14.417969 15 14.195312 15 L 6.160156 15 C 5.9375 15 5.746094 14.921875 5.589844 14.765625 C 5.433594 14.609375 5.355469 14.417969 5.355469 14.195312 L 5.355469 12.855469 L 0.804688 12.855469 C 0.582031 12.855469 0.390625 12.777344 0.234375 12.621094 C 0.078125 12.464844 0 12.277344 0 12.054688 L 0 0.804688 C 0 0.582031 0.078125 0.390625 0.234375 0.234375 C 0.390625 0.078125 0.582031 0 0.804688 0 L 9.910156 0 C 10.132812 0 10.324219 0.078125 10.480469 0.234375 C 10.636719 0.390625 10.714844 0.582031 10.714844 0.804688 L 10.714844 3.550781 C 10.832031 3.621094 10.933594 3.699219 11.015625 3.785156 L 14.429688 7.199219 C 14.585938 7.355469 14.722656 7.566406 14.832031 7.835938 C 14.945312 8.101562 15 8.347656 15 8.570312 Z M 15 8.570312 "/>
  </g>
</svg>