<?xml version="1.0" encoding="UTF-8" standalone="yes"?>
<svg xmlns="http://www.w3.org/2000/svg" xmlns:xlink="http://www.w3.org/1999/xlink" width="20px" height="20px" viewBox="0 0 15 15" version="1.1">
  <g id="surface1">
    <path style=" stroke:none;fill-rule:nonzero;fill:rgb(0%,0%,0%);fill-opacity:1;" d="M 13.519531 0 C 13.910156 0 14.25 0.128906 14.542969 0.390625 C 14.835938 0.648438 14.984375 0.972656 14.984375 1.363281 C 14.984375 1.714844 14.859375 2.136719 14.605469 2.628906 C 12.753906 6.136719 11.457031 8.238281 10.714844 8.921875 C 10.171875 9.429688 9.566406 9.683594 8.890625 9.683594 C 8.1875 9.683594 7.582031 9.425781 7.078125 8.910156 C 6.570312 8.394531 6.320312 7.78125 6.320312 7.074219 C 6.320312 6.359375 6.578125 5.765625 7.089844 5.296875 L 12.429688 0.453125 C 12.757812 0.152344 13.121094 0 13.519531 0 Z M 5.910156 8.65625 C 6.128906 9.078125 6.425781 9.441406 6.800781 9.742188 C 7.179688 10.042969 7.597656 10.257812 8.0625 10.378906 L 8.070312 10.972656 C 8.089844 12.164062 7.730469 13.128906 6.984375 13.878906 C 6.242188 14.625 5.269531 15 4.066406 15 C 3.382812 15 2.773438 14.871094 2.242188 14.609375 C 1.714844 14.351562 1.289062 13.996094 0.96875 13.542969 C 0.644531 13.089844 0.40625 12.582031 0.242188 12.011719 C 0.0820312 11.441406 0 10.828125 0 10.171875 C 0.0390625 10.199219 0.152344 10.28125 0.34375 10.421875 C 0.53125 10.5625 0.707031 10.683594 0.863281 10.792969 C 1.019531 10.902344 1.183594 11.003906 1.355469 11.097656 C 1.527344 11.195312 1.65625 11.242188 1.742188 11.242188 C 1.96875 11.242188 2.125 11.136719 2.203125 10.933594 C 2.339844 10.5625 2.5 10.25 2.683594 9.992188 C 2.863281 9.730469 3.058594 9.519531 3.265625 9.355469 C 3.472656 9.1875 3.714844 9.058594 4 8.957031 C 4.285156 8.855469 4.574219 8.785156 4.863281 8.742188 C 5.152344 8.703125 5.503906 8.671875 5.910156 8.65625 Z M 5.910156 8.65625 "/>
  </g>
</svg>