<svg xmlns="http://www.w3.org/2000/svg" xlink="http://www.w3.org/1999/xlink" width="20px" height="20px" viewBox="0 0 15 15" version="1.1">
  <g id="surface1">
    <path d="M 12.839844 1.582031 L 12.839844 2.191406 C 12.839844 2.355469 12.789062 2.523438 12.6875 2.703125 C 12.582031 2.882812 12.464844 2.972656 12.328125 2.972656 C 12.050781 2.972656 11.898438 2.972656 11.878906 2.980469 C 11.734375 3.011719 11.644531 3.101562 11.609375 3.238281 C 11.59375 3.300781 11.585938 3.480469 11.585938 3.773438 L 11.585938 13.417969 C 11.585938 13.558594 11.535156 13.675781 11.433594 13.777344 C 11.332031 13.878906 11.214844 13.929688 11.074219 13.929688 L 10.171875 13.929688 C 10.03125 13.929688 9.910156 13.878906 9.808594 13.777344 C 9.710938 13.675781 9.660156 13.558594 9.660156 13.417969 L 9.660156 3.222656 L 8.460938 3.222656 L 8.460938 13.417969 C 8.460938 13.558594 8.414062 13.675781 8.316406 13.777344 C 8.21875 13.878906 8.097656 13.929688 7.953125 13.929688 L 7.046875 13.929688 C 6.902344 13.929688 6.78125 13.878906 6.683594 13.777344 C 6.585938 13.675781 6.539062 13.558594 6.539062 13.417969 L 6.539062 9.265625 C 5.71875 9.199219 5.035156 9.035156 4.488281 8.773438 C 3.785156 8.449219 3.246094 7.949219 2.878906 7.273438 C 2.523438 6.621094 2.34375 5.898438 2.34375 5.105469 C 2.34375 4.179688 2.589844 3.382812 3.082031 2.710938 C 3.570312 2.054688 4.15625 1.609375 4.828125 1.382812 C 5.449219 1.175781 6.613281 1.070312 8.320312 1.070312 L 12.328125 1.070312 C 12.46875 1.070312 12.589844 1.121094 12.691406 1.222656 C 12.789062 1.324219 12.839844 1.441406 12.839844 1.582031 Z M 12.839844 1.582031 " fill="#FFFFFF"/>
  </g>
</svg>