<?xml version="1.0" encoding="UTF-8" standalone="yes"?>
<svg xmlns="http://www.w3.org/2000/svg" xmlns:xlink="http://www.w3.org/1999/xlink" width="20px" height="20px" viewBox="0 0 15 15" version="1.1">
  <g id="surface1">
    <path style=" stroke:none;fill-rule:nonzero;fill:rgb(0%,0%,0%);fill-opacity:1;" d="M 14.765625 0.09375 C 14.949219 0.226562 15.023438 0.40625 14.992188 0.628906 L 12.847656 13.484375 C 12.820312 13.648438 12.730469 13.773438 12.582031 13.863281 C 12.503906 13.90625 12.417969 13.929688 12.320312 13.929688 C 12.261719 13.929688 12.191406 13.914062 12.121094 13.886719 L 8.328125 12.339844 L 6.304688 14.808594 C 6.203125 14.9375 6.066406 15 5.894531 15 C 5.820312 15 5.757812 14.988281 5.707031 14.964844 C 5.601562 14.925781 5.515625 14.863281 5.453125 14.769531 C 5.390625 14.679688 5.355469 14.574219 5.355469 14.464844 L 5.355469 11.542969 L 12.589844 2.679688 L 3.640625 10.421875 L 0.335938 9.066406 C 0.128906 8.988281 0.015625 8.832031 0 8.605469 C -0.0117188 8.382812 0.078125 8.21875 0.269531 8.109375 L 14.195312 0.0742188 C 14.28125 0.0234375 14.371094 0 14.464844 0 C 14.574219 0 14.675781 0.03125 14.765625 0.09375 Z M 14.765625 0.09375 "/>
  </g>
</svg>