<svg version="1.1" xmlns="http://www.w3.org/2000/svg" xlink="http://www.w3.org/1999/xlink" x="0px" y="0px" width="15px" height="15px" viewBox="0 0 15 15" style="enable-background:new 0 0 15 15;" space="preserve">
    <path d="M13.519531,0C13.910156,0,14.25,0.128906,14.542969,0.390625C14.835938,0.648438,14.984375,0.972656,14.984375,1.363281C14.984375,1.714844,14.859375,2.136719,14.605469,2.628906C12.753906,6.136719,11.457031,8.238281,10.714844,8.921875C10.171875,9.429688,9.566406,9.683594,8.890625,9.683594C8.1875,9.683594,7.582031,9.425781,7.078125,8.910156C6.570312,8.394531,6.320312,7.78125,6.320312,7.074219C6.320312,6.359375,6.578125,5.765625,7.089844,5.296875L12.429688,0.453125C12.757812,0.152344,13.121094,0,13.519531,0ZM5.910156,8.65625C6.128906,9.078125,6.425781,9.441406,6.800781,9.742188C7.179688,10.042969,7.597656,10.257812,8.0625,10.378906L8.070312,10.972656C8.089844,12.164062,7.730469,13.128906,6.984375,13.878906C6.242188,14.625,5.269531,15,4.066406,15C3.382812,15,2.773438,14.871094,2.242188,14.609375C1.714844,14.351562,1.289062,13.996094,0.96875,13.542969C0.644531,13.089844,0.40625,12.582031,0.242188,12.011719C0.0820312,11.441406,0,10.828125,0,10.171875C0.0390625,10.199219,0.152344,10.28125,0.34375,10.421875C0.53125,10.5625,0.707031,10.683594,0.863281,10.792969C1.019531,10.902344,1.183594,11.003906,1.355469,11.097656C1.527344,11.195312,1.65625,11.242188,1.742188,11.242188C1.96875,11.242188,2.125,11.136719,2.203125,10.933594C2.339844,10.5625,2.5,10.25,2.683594,9.992188C2.863281,9.730469,3.058594,9.519531,3.265625,9.355469C3.472656,9.1875,3.714844,9.058594,4,8.957031C4.285156,8.855469,4.574219,8.785156,4.863281,8.742188C5.152344,8.703125,5.503906,8.671875,5.910156,8.65625ZM5.910156,8.65625" fill="#FFFFFF"/>
    </svg>