<svg version="1.1" xmlns="http://www.w3.org/2000/svg" xlink="http://www.w3.org/1999/xlink" x="0px" y="0px" width="15px" height="18.75px" viewBox="0 0 15 18.75" style="enable-background:new 0 0 15 15;" space="preserve">
    <path d="M19.3359375,8.203125H9.9609375c-0.322265625,0,-0.5859375,0.263671875,-0.5859375,0.5859375v5.2734375H2.34375V5.2734375c0,-0.322265625,-0.263671875,-0.5859375,-0.5859375,-0.5859375H0.5859375c-0.322265625,0,-0.5859375,0.263671875,-0.5859375,0.5859375v12.890625c0,0.322265625,0.263671875,0.5859375,0.5859375,0.5859375h1.171875c0.322265625,0,0.5859375,-0.263671875,0.5859375,-0.5859375v-1.7578125h18.75v1.7578125c0,0.322265625,0.263671875,0.5859375,0.5859375,0.5859375h1.171875c0.322265625,0,0.5859375,-0.263671875,0.5859375,-0.5859375V12.3046875c0,-2.266845703125,-1.834716796875,-4.1015625,-4.1015625,-4.1015625zM4.98046875,3.515625h4.617919921875l1.0107421875,2.021484375c0.216064453125,0.43212890625,0.831298828125,0.43212890625,1.04736328125,0L13.4765625,1.89697265625L14.285888671875,3.515625H18.75c0.322265625,0,0.5859375,-0.263671875,0.5859375,-0.5859375s-0.263671875,-0.5859375,-0.5859375,-0.5859375H15.010986328125L14.000244140625,0.322265625C13.7841796875,-0.10986328125,13.1689453125,-0.10986328125,12.952880859375,0.322265625L11.1328125,3.96240234375l-0.728759765625,-1.45751953125c-0.05126953125,-0.098876953125,-0.15014648437499997,-0.1611328125,-0.263671875,-0.1611328125H4.98046875c-0.1611328125,0,-0.29296875,0.1318359375,-0.29296875,0.29296875v0.5859375c0,0.1611328125,0.1318359375,0.29296875,0.29296875,0.29296875zm0.87890625,9.375c1.292724609375,0,2.34375,-1.051025390625,2.34375,-2.34375s-1.051025390625,-2.34375,-2.34375,-2.34375s-2.34375,1.051025390625,-2.34375,2.34375s1.051025390625,2.34375,2.34375,2.34375z" fill="#FFFFFF"/>
    </svg>