<svg xmlns="http://www.w3.org/2000/svg" xlink="http://www.w3.org/1999/xlink" width="20px" height="20px" viewBox="0 0 15 15" version="1.1">
  <g id="surface1">
    <path d="M 14.765625 0.09375 C 14.949219 0.226562 15.023438 0.40625 14.992188 0.628906 L 12.847656 13.484375 C 12.820312 13.648438 12.730469 13.773438 12.582031 13.863281 C 12.503906 13.90625 12.417969 13.929688 12.320312 13.929688 C 12.261719 13.929688 12.191406 13.914062 12.121094 13.886719 L 7.710938 12.085938 L 5.214844 14.824219 C 5.113281 14.941406 4.984375 15 4.820312 15 C 4.742188 15 4.679688 14.988281 4.628906 14.964844 C 4.523438 14.925781 4.4375 14.863281 4.378906 14.769531 C 4.316406 14.679688 4.285156 14.574219 4.285156 14.464844 L 4.285156 10.679688 L 0.335938 9.066406 C 0.128906 8.988281 0.015625 8.832031 0 8.605469 C -0.015625 8.386719 0.0742188 8.222656 0.269531 8.109375 L 14.195312 0.0742188 C 14.390625 -0.0429688 14.582031 -0.0351562 14.765625 0.09375 Z M 11.902344 12.640625 L 13.753906 1.566406 L 1.75 8.488281 L 4.5625 9.632812 L 11.785156 4.285156 L 7.785156 10.957031 Z M 11.902344 12.640625 " fill="#FFFFFF"/>
  </g>
</svg>