<?xml version="1.0" encoding="UTF-8" standalone="yes"?>
<svg xmlns="http://www.w3.org/2000/svg" xmlns:xlink="http://www.w3.org/1999/xlink" width="20px" height="20px" viewBox="0 0 15 15" version="1.1">
  <g id="surface1">
    <path style=" stroke:none;fill-rule:nonzero;fill:rgb(0%,0%,0%);fill-opacity:1;" d="M 13.359375 11.59375 C 13.359375 12.246094 13.140625 12.792969 12.699219 13.234375 C 12.257812 13.675781 11.710938 13.894531 11.058594 13.894531 C 10.304688 13.894531 9.648438 13.617188 9.089844 13.058594 L 2.585938 6.5625 C 1.957031 5.921875 1.640625 5.164062 1.640625 4.292969 C 1.640625 3.40625 1.949219 2.652344 2.5625 2.035156 C 3.175781 1.414062 3.925781 1.105469 4.8125 1.105469 C 5.695312 1.105469 6.457031 1.421875 7.097656 2.050781 L 12.164062 7.125 C 12.21875 7.179688 12.246094 7.242188 12.246094 7.308594 C 12.246094 7.398438 12.160156 7.527344 11.992188 7.695312 C 11.820312 7.867188 11.691406 7.953125 11.601562 7.953125 C 11.527344 7.953125 11.464844 7.925781 11.410156 7.867188 L 6.335938 2.789062 C 5.894531 2.359375 5.390625 2.144531 4.820312 2.144531 C 4.230469 2.144531 3.730469 2.351562 3.324219 2.769531 C 2.914062 3.1875 2.710938 3.695312 2.710938 4.285156 C 2.710938 4.871094 2.925781 5.375 3.347656 5.800781 L 9.84375 12.304688 C 10.195312 12.65625 10.601562 12.832031 11.058594 12.832031 C 11.414062 12.832031 11.710938 12.714844 11.945312 12.480469 C 12.179688 12.246094 12.296875 11.949219 12.296875 11.59375 C 12.296875 11.136719 12.121094 10.730469 11.769531 10.378906 L 6.90625 5.515625 C 6.761719 5.382812 6.59375 5.316406 6.402344 5.316406 C 6.242188 5.316406 6.109375 5.367188 6 5.472656 C 5.894531 5.582031 5.84375 5.714844 5.84375 5.875 C 5.84375 6.054688 5.914062 6.21875 6.050781 6.371094 L 9.484375 9.800781 C 9.539062 9.859375 9.566406 9.917969 9.566406 9.984375 C 9.566406 10.074219 9.480469 10.207031 9.308594 10.378906 C 9.136719 10.550781 9.003906 10.640625 8.914062 10.640625 C 8.847656 10.640625 8.785156 10.609375 8.730469 10.554688 L 5.296875 7.125 C 4.945312 6.78125 4.769531 6.367188 4.769531 5.875 C 4.769531 5.417969 4.929688 5.03125 5.25 4.710938 C 5.566406 4.394531 5.953125 4.234375 6.410156 4.234375 C 6.902344 4.234375 7.320312 4.410156 7.660156 4.761719 L 12.523438 9.625 C 13.082031 10.171875 13.359375 10.828125 13.359375 11.59375 Z M 13.359375 11.59375 "/>
  </g>
</svg>