<svg xmlns="http://www.w3.org/2000/svg" xlink="http://www.w3.org/1999/xlink" width="20px" height="20px" viewBox="0 0 15 15" version="1.1">
    <path fill="#FFFFFF" d="M895.49,898.778l-0.128,3.236l-0.017,0.193l-3.58-0.256c-0.205-0.018-0.395-0.109-0.571-0.277  c-0.176-0.166-0.31-0.358-0.4-0.575c-0.063-0.158-0.104-0.319-0.124-0.483c-0.02-0.164-0.009-0.355,0.034-0.572  c0.043-0.217,0.077-0.378,0.103-0.483s0.086-0.293,0.183-0.563s0.151-0.425,0.162-0.466  C891.594,898.602,893.04,898.684,895.49,898.778z M892.191,893.625l1.534,3.333l-1.253-0.809c-0.358,0.422-0.675,0.846-0.951,1.27  c-0.275,0.426-0.481,0.792-0.618,1.1c-0.137,0.309-0.249,0.585-0.337,0.831s-0.141,0.431-0.158,0.554l-0.034,0.186l-1.619-3.14  c-0.097-0.152-0.148-0.316-0.154-0.493c-0.005-0.176,0.012-0.313,0.051-0.412l0.068-0.159c0.199-0.369,0.522-0.92,0.972-1.653  l-1.193-0.756L892.191,893.625z M902.684,898.171l-1.603,3.157c-0.068,0.17-0.172,0.306-0.312,0.409  c-0.139,0.103-0.263,0.162-0.37,0.18l-0.153,0.035c-0.404,0.041-1.026,0.076-1.867,0.105l0.068,1.442l-1.96-3.228l1.798-3.183  l0.06,1.521c0.966,0.094,1.771,0.108,2.412,0.044c0.643-0.064,1.125-0.162,1.449-0.291L902.684,898.171z M895.992,890.047  c-0.267,0.369-1.02,1.644-2.259,3.825l-2.702-1.644l-0.162-0.106l1.918-3.13c0.113-0.182,0.284-0.314,0.511-0.396  c0.227-0.082,0.455-0.111,0.682-0.088c0.136,0.012,0.274,0.047,0.413,0.105s0.259,0.12,0.358,0.185  c0.1,0.064,0.217,0.161,0.354,0.291c0.136,0.129,0.239,0.23,0.307,0.303c0.068,0.073,0.17,0.189,0.307,0.347  C895.856,889.897,895.947,889.999,895.992,890.047z M901.575,892.746l1.808,3.192c0.102,0.217,0.138,0.44,0.106,0.668  s-0.109,0.445-0.234,0.65c-0.074,0.117-0.168,0.226-0.281,0.326c-0.114,0.1-0.222,0.182-0.324,0.246s-0.24,0.129-0.413,0.193  c-0.174,0.064-0.308,0.111-0.401,0.141s-0.239,0.07-0.438,0.123s-0.33,0.088-0.393,0.105c-0.192-0.422-0.945-1.7-2.259-3.834  l2.668-1.715L901.575,892.746z M900.357,890.759l1.21-0.73l-1.875,3.28l-3.571-0.176l1.287-0.756  c-0.193-0.522-0.406-1.008-0.64-1.46c-0.232-0.451-0.447-0.813-0.643-1.086c-0.196-0.272-0.379-0.507-0.55-0.703  c-0.17-0.197-0.304-0.333-0.401-0.409l-0.145-0.114l3.452,0.009c0.176-0.018,0.341,0.013,0.494,0.092s0.265,0.163,0.332,0.25  l0.094,0.132C899.623,889.446,899.942,890.002,900.357,890.759z"/></svg>