<?xml version="1.0" encoding="UTF-8" standalone="no"?>
<svg
   xmlns:dc="http://purl.org/dc/elements/1.1/"
   xmlns:cc="http://creativecommons.org/ns#"
   xmlns:rdf="http://www.w3.org/1999/02/22-rdf-syntax-ns#"
   xmlns:svg="http://www.w3.org/2000/svg"
   xmlns="http://www.w3.org/2000/svg"
   xmlns:sodipodi="http://sodipodi.sourceforge.net/DTD/sodipodi-0.dtd"
   xmlns:inkscape="http://www.inkscape.org/namespaces/inkscape"
   version="1.1"
   xlink="http://www.w3.org/1999/xlink"
   x="0px"
   y="0px"
   width="15px"
   height="15px"
   viewBox="0 0 15 15"
   style="enable-background:new 0 0 15 15;"
   space="preserve"
   id="svg4"
   sodipodi:docname="fa-tractor-solid.svg"
   inkscape:version="0.92.3 (2405546, 2018-03-11)">
  <metadata
     id="metadata10">
    <rdf:RDF>
      <cc:Work
         rdf:about="">
        <dc:format>image/svg+xml</dc:format>
        <dc:type
           rdf:resource="http://purl.org/dc/dcmitype/StillImage" />
        <dc:title></dc:title>
      </cc:Work>
    </rdf:RDF>
  </metadata>
  <defs
     id="defs8" />
  <sodipodi:namedview
     pagecolor="#ffffff"
     bordercolor="#666666"
     borderopacity="1"
     objecttolerance="10"
     gridtolerance="10"
     guidetolerance="10"
     inkscape:pageopacity="0"
     inkscape:pageshadow="2"
     inkscape:window-width="640"
     inkscape:window-height="480"
     id="namedview6"
     showgrid="false"
     inkscape:zoom="15.733333"
     inkscape:cx="7.5"
     inkscape:cy="7.5"
     inkscape:window-x="67"
     inkscape:window-y="27"
     inkscape:window-maximized="0"
     inkscape:current-layer="svg4" />
  <path
     d="m 12.344723,9.3638211 c -1.124575,0 -2.036267,0.9116919 -2.036267,2.0362679 0,1.124575 0.911692,2.036266 2.036267,2.036266 1.124575,0 2.036266,-0.911691 2.036266,-2.036266 0,-1.124576 -0.911691,-2.0362679 -2.036266,-2.0362679 z m 0,2.5916119 c -0.306134,0 -0.555346,-0.24921 -0.555346,-0.555344 0,-0.306136 0.249212,-0.555344 0.555346,-0.555344 0.306133,0 0.555346,0.249208 0.555346,0.555344 0,0.306134 -0.249213,0.555344 -0.555346,0.555344 z M 14.195875,5.2912868 H 12.714953 V 4.3610831 c 0,-0.3267284 0.108751,-0.6423498 0.304285,-0.8987344 0.102271,-0.1342086 0.08214,-0.3253399 -0.03054,-0.4509869 L 12.488187,2.4520826 C 12.334079,2.2796939 12.064274,2.2919578 11.916644,2.4701313 11.478847,2.9981724 11.234032,3.6671324 11.234032,4.3610831 V 5.2912868 H 8.8661756 L 7.5682868,2.263265 A 1.1087012,1.1087012 0 0 0 6.5471451,1.5889828 H 3.4591923 c -0.6125,0 -1.1106912,0.4981913 -1.1106912,1.1106913 V 6.0900589 C 2.1488081,5.9343307 1.8634993,5.9405784 1.6800038,6.1240738 L 0.96013708,6.8439405 c -0.19876749,0.1987674 -0.19876749,0.5210993 0,0.7198667 L 1.0772223,7.6808927 C 0.96175678,7.8951635 0.86989342,8.1163761 0.80163214,8.3454562 H 0.63618543 c -0.2811437,0 -0.50906678,0.227923 -0.50906678,0.5090668 v 1.0181334 c 0,0.2811446 0.22792308,0.5090676 0.50906678,0.5090676 h 0.16521532 c 0.0684926,0.229311 0.16012463,0.450294 0.27559025,0.664795 l -0.11708522,0.117083 c -0.19876752,0.198767 -0.19876752,0.521098 0,0.719866 l 0.71986662,0.719866 c 0.1987674,0.198768 0.5210993,0.198768 0.7198667,0 l 0.1170855,-0.117083 c 0.2142703,0.115464 0.435483,0.20733 0.6645631,0.27559 v 0.165447 c 0,0.281144 0.2279229,0.509067 0.5090667,0.509067 h 1.0181335 c 0.2811437,0 0.5090668,-0.227923 0.5090668,-0.509067 v -0.165215 c 0.2290806,-0.06827 0.4502931,-0.160125 0.6645641,-0.27559 l 0.1170853,0.117083 c 0.1987675,0.198768 0.5210995,0.198768 0.7198669,0 L 7.4389371,11.8837 c 0.1987674,-0.198769 0.1987674,-0.521102 0,-0.719867 L 7.3218517,11.04675 c 0.1154661,-0.21427 0.2073295,-0.435483 0.2755908,-0.664565 h 0.165678 c 0.2811437,0 0.5090668,-0.227922 0.5090668,-0.5090651 v -0.138837 h 1.8636477 c 0.506985,-0.6708111 1.303212,-1.1106912 2.208888,-1.1106912 0.431319,0 0.834639,0.1066729 1.198619,0.2823008 L 14.719288,7.7299482 C 14.858125,7.5911118 14.936105,7.4027571 14.936105,7.2063036 V 6.0317477 C 14.936336,5.6228744 14.604748,5.2912868 14.195875,5.2912868 Z M 4.1996531,11.214974 c -1.0222988,0 -1.851152,-0.828855 -1.851152,-1.8511529 0,-1.0222985 0.8288532,-1.8511519 1.851152,-1.8511519 1.0222986,0 1.8511518,0.8288534 1.8511518,1.8511519 0,1.0222979 -0.8288532,1.8511529 -1.8511518,1.8511529 z M 4.7087198,5.2912868 H 3.8294225 V 3.0699047 H 6.302793 l 0.9521863,2.2213821 z"
     id="path2"
     inkscape:connector-curvature="0"
     style="fill:#ffffff;stroke-width:1.03555644" />
</svg>
