<svg version="1.1" xmlns="http://www.w3.org/2000/svg" xlink="http://www.w3.org/1999/xlink" x="0px" y="0px" width="15px" height="18.75px" viewBox="0 0 15 18.75" style="enable-background:new 0 0 15 15;" space="preserve">
    <path d="M11.1328125,14.0625h9.9609375c0.6470947265625,0,1.171875,-0.5247802734375,1.171875,-1.171875c0,-4.5303955078125,-3.6727294921875004,-8.203125,-8.203125,-8.203125V2.34375h6.4453125c0.32373046875,0,0.5859375,-0.26220703125,0.5859375,-0.5859375V0.5859375c0,-0.32373046875,-0.26220703125,-0.5859375,-0.5859375,-0.5859375H5.2734375c-0.32373046875,0,-0.5859375,0.26220703125,-0.5859375,0.5859375v1.171875c0,0.32373046875,0.26220703125,0.5859375,0.5859375,0.5859375h6.4453125v2.34375H4.1015625L2.51953125,2.578125C2.408935546875,2.4305419921875,2.2349853515625,2.34375,2.05078125,2.34375H0.5863037109375001C0.205078125,2.34375,-0.07470703125,2.701904296875,0.0179443359375,3.0717773437499996L1.171875,7.03125l5.859375,2.34375l3.1640625,4.21875A1.17158203125,1.17158203125,0,0,0,11.1328125,14.0625zm4.1015625,-6.902709960937501C17.5250244140625,7.628173828125,19.3370361328125,9.427734375,19.8043212890625,11.71875H15.234375V7.159790039062499zm8.0335693359375,9.642333984375l-0.8111572265625,-0.81298828125c-0.2288818359375,-0.22924804687499997,-0.5947265624999999,-0.223388671875,-0.8291015625,0.0003662109375c-0.2596435546875,0.2479248046875,-0.5068359375,0.4119873046875,-0.90234375,0.4119873046875H8.7890625c-0.32373046875,0,-0.5859375,0.262939453125,-0.5859375,0.5870361328125v1.174072265625c0,0.3240966796875,0.26220703125,0.5870361328125,0.5859375,0.5870361328125h11.936279296875c0.544921875,0,1.292724609375,-0.0172119140625,2.5067138671875,-1.0810546875c0.257080078125,-0.224853515625,0.2772216796875,-0.6243896484375,0.035888671875,-0.866455078125z" fill="#FFFFFF"/>
    </svg>