<svg version="1.1" xmlns="http://www.w3.org/2000/svg" xlink="http://www.w3.org/1999/xlink" x="0px" y="0px" width="15px" height="15.9375px" viewBox="0 0 15 15.9375" style="enable-background:new 0 0 15 15;" space="preserve">
    <path d="M14.941094970703126,10.95703125l1.8328125000000002,-1.8325012207031248c0.102410888671875,-0.52294921875,0.159686279296875,-1.0620849609374998,0.159686279296875,-1.61429443359375c0,-0.180853271484375,-0.0211669921875,-0.358282470703125,-0.032684326171875,-0.537579345703125H15.439453125l1.284027099609375,-1.2837158203125c-0.45135498046875,-2.016778564453125,-1.6320373535156252,-3.830291748046875,-3.359014892578125,-5.051129150390626c-0.08622436523437499,-0.061010742187499994,-0.185833740234375,-0.093072509765625,-0.287933349609375,-0.093072509765625c-0.167156982421875,0,-0.324041748046875,0.084356689453125,-0.419915771484375,0.2253662109375c-0.094940185546875,0.139764404296875,-0.1133056640625,0.310968017578125,-0.050115966796875,0.469720458984375c0.203887939453125,0.51236572265625,0.30692138671874997,1.049945068359375,0.30692138671874997,1.5971740722656251c0,1.4044921874999998,-0.6546203613281251,2.694744873046875,-1.7957702636718749,3.540179443359375c-0.12513427734375,0.09276123046875001,-0.20108642578125002,0.23345947265625,-0.20855712890625,0.385986328125c-0.0074707031249999995,0.1531494140625,0.054785156249999994,0.30069580078125,0.170892333984375,0.40559692382812496c1.025042724609375,0.926055908203125,1.473907470703125,2.2882141113281254,1.2006042480468748,3.644146728515625c-0.30318603515625,1.505035400390625,-1.5202880859375,2.71124267578125,-3.0290588378906254,3.00384521484375l-0.07781982421875,-2.03389892578125L10.0194580078125,12.3577880859375c0.09276123046875001,0.06412353515625001,0.23003540039062498,0.052606201171875,0.31190185546875,-0.02490234375a0.24908569335937503,0.24908569335937503,0,0,0,0.041711425781250006,-0.30878906250000004l-0.6259826660156249,-1.049945068359375l1.3095520019531248,-0.27143554687500004c0.11517333984375,-0.023345947265625,0.19859619140625,-0.126068115234375,0.19859619140625,-0.243731689453125c0,-0.11735229492187499,-0.083734130859375,-0.21976318359375,-0.19859619140625,-0.243731689453125l-1.3095520019531248,-0.271746826171875l0.626605224609375,-1.051190185546875c0.059765624999999996,-0.10054321289062501,0.041711425781250006,-0.227545166015625,-0.04295654296875,-0.308477783203125c-0.08404541015625,-0.079376220703125,-0.216961669921875,-0.089959716796875,-0.311279296875,-0.02490234375l-0.9459777832031251,0.643414306640625L8.714575195312499,0.23968505859375a0.24790283203125002,0.24790283203125002,0,0,0,-0.2490234375,-0.23968505859375c-0.134783935546875,0,-0.24404296874999998,0.10521240234375,-0.2490234375,0.238751220703125l-0.35859375,8.963909912109376l-0.9459777832031251,-0.6431030273437499c-0.09774169921875,-0.0659912109375,-0.226300048828125,-0.056964111328125004,-0.311279296875,0.02427978515625c-0.08466796875,0.08062133789062499,-0.10272216796875,0.207623291015625,-0.042333984375,0.30941162109375l0.6259826660156249,1.049945068359375l-1.3095520019531248,0.271746826171875c-0.11517333984375,0.023345947265625,-0.19859619140625,0.126068115234375,-0.19859619140625,0.243731689453125s0.08311157226562499,0.2203857421875,0.19859619140625,0.243731689453125l1.3095520019531248,0.27143554687500004l-0.626605224609375,1.051190185546875c-0.059765624999999996,0.10054321289062501,-0.041711425781250006,0.228167724609375,0.043267822265625,0.30941162109375c0.08062133789062499,0.076263427734375,0.218829345703125,0.085601806640625,0.311279296875,0.023345947265625l0.8454345703124999,-0.575244140625l-0.07781982421875,2.0314086914062504c-1.7724243164062499,-0.36232910156250003,-3.1093688964843746,-1.926507568359375,-3.1093688964843746,-3.7951171875c0,-1.0919677734375,0.45509033203125,-2.1042480468749996,1.281536865234375,-2.85069580078125c0.1157958984375,-0.10458984375,0.1780517578125,-0.25244750976562497,0.1705810546875,-0.404974365234375c-0.0074707031249999995,-0.15252685546875,-0.08342285156250001,-0.292913818359375,-0.208245849609375,-0.38536376953125c-1.141461181640625,-0.8454345703124999,-1.796392822265625,-2.1359985351562503,-1.796392822265625,-3.5404907226562496c0,-0.5466064453124999,0.103033447265625,-1.0835632324218751,0.306298828125,-1.59561767578125c0.06287841796875,-0.15844116210937498,0.044512939453125,-0.329644775390625,-0.05042724609375,-0.469720458984375c-0.09587402343750001,-0.14132080078124998,-0.253070068359375,-0.225677490234375,-0.420538330078125,-0.225677490234375c-0.10272216796875,0,-0.20233154296875,0.032373046875000006,-0.288555908203125,0.0933837890625c-1.7391174316406248,1.23017578125,-2.91357421875,3.0309265136718753,-3.360882568359375,5.044903564453125L1.4919616699218752,6.97265625H0.022412109375c-0.019610595703124997,0.30878906250000004,-0.030194091796875,0.6197570800781249,-0.01556396484375,0.933526611328125c0.019299316406250003,0.41804809570312496,0.07906494140625,0.8258239746093751,0.15906372070312502,1.226751708984375l1.8240966796875,1.8240966796875H0.74769287109375c1.284027099609375,2.808673095703125,4.081805419921874,4.82296142578125,7.31817626953125,4.971441650390625c0.13385009765625,0.0062255859375,0.267388916015625,0.009027099609374999,0.399993896484375,0.009027099609374999c3.43465576171875,0,6.392120361328125,-2.0491516113281247,7.719104003906249,-4.98046875h-1.2438720703125z" fill="#FFFFFF"/>
    </svg>