<svg version="1.1" xmlns="http://www.w3.org/2000/svg" xlink="http://www.w3.org/1999/xlink" x="0px" y="0px" width="15px" height="18.75px" viewBox="0 0 15 18.75" style="enable-background:new 0 0 15 15;" space="preserve">
    <path d="M16.272216796875,6.632080078125c0.819580078125,0.57421875,1.305908203125,1.50732421875,1.305908203125,2.5118408203125004V10.25390625c0,0.161865234375,0.131103515625,0.29296875,0.29296875,0.29296875h1.7578125c0.161865234375,0,0.29296875,-0.131103515625,0.29296875,-0.29296875v-1.1099853515625c0,-1.58349609375,-0.7694091796875001,-3.0545654296874996,-2.063232421875,-3.957275390625C16.9866943359375,4.578369140625,16.40625,3.6379394531250004,16.40625,2.5748291015625V0.29296875c0,-0.161865234375,-0.131103515625,-0.29296875,-0.29296875,-0.29296875h-1.7578125c-0.161865234375,0,-0.29296875,0.131103515625,-0.29296875,0.29296875v2.4316406250000004c0,1.5999755859374998,0.8994140625,2.9893798828124996,2.209716796875,3.907470703125zM7.1400146484375,13.146240234375002C4.6153564453125,13.5523681640625,2.1859130859375,14.4539794921875,0,15.8203125c3.0633544921875,1.91455078125,6.602783203125,2.9296875,10.215087890625,2.9296875h3.2435302734375L9.3306884765625,13.9339599609375c-0.539794921875,-0.6298828125,-1.3714599609375,-0.9195556640625,-2.190673828125,-0.7877197265625001zM20.261718749999996,3.1893310546875004c-0.2076416015625,-0.13916015625,-0.33984375,-0.36474609375,-0.33984375,-0.614501953125V0.29296875c0,-0.161865234375,-0.131103515625,-0.29296875,-0.29296875,-0.29296875h-1.7578125c-0.161865234375,0,-0.29296875,0.131103515625,-0.29296875,0.29296875v2.2818603515625c0,0.806396484375,0.3724365234375,1.5897216796875,1.048828125,2.0284423828125C20.170532226562496,5.6044921875,21.09375,7.307373046875,21.09375,9.1439208984375V10.25390625c0,0.161865234375,0.131103515625,0.29296875,0.29296875,0.29296875h1.7578125c0.161865234375,0,0.29296875,-0.131103515625,0.29296875,-0.29296875v-1.1099853515625c0,-2.396484375,-1.1868896484375,-4.6212158203125,-3.17578125,-5.95458984375zM13.216186523437498,12.8924560546875c-1.259765625,0.002197265625,-3.1790771484375,0.0054931640625,-3.2303466796874996,0.006225585937500001l4.31396484375,5.032836914062501A2.3432739257812503,2.3432739257812503,0,0,0,16.0792236328125,18.75h3.2391357421875L14.9989013671875,13.7109375a2.34210205078125,2.34210205078125,0,0,0,-1.78271484375,-0.8184814453125zM22.55859375,12.890625H15.8203125l4.3209228515625,5.0408935546875A2.3432739257812503,2.3432739257812503,0,0,0,21.920654296875,18.75H22.55859375c0.4852294921875,0,0.87890625,-0.3936767578125,0.87890625,-0.87890625V13.76953125c0,-0.485595703125,-0.3936767578125,-0.87890625,-0.87890625,-0.87890625z" fill="#FFFFFF"/>
    </svg>