<svg version="1.1" xmlns="http://www.w3.org/2000/svg" xlink="http://www.w3.org/1999/xlink" x="0px" y="0px" width="15px" height="16.875px" viewBox="0 0 15 16.875" style="enable-background:new 0 0 15 15;" space="preserve">
    <path d="M18.978112792968748,7.1843994140625C18.873632812500002,5.1880737304687505,17.081982421875,3.69140625,15.083020019531249,3.69140625h-0.30882568359374996c-1.7408935546875,0,-3.43597412109375,-0.53558349609375,-4.8693603515625,-1.5240234375000001c-1.3839477539062501,-0.9544921875000001,-3.1653808593750004,-1.3717529296875,-5.0496459960937505,-0.9459228515625C4.261596679687501,1.3552734375,-0.0026367187499999997,2.5787109375,0,7.3828125c0.0013183593749999999,2.33843994140625,1.274853515625,4.376953125000001,3.16373291015625,5.47152099609375V15.29296875c0,0.29135742187499997,0.235986328125,0.52734375,0.52734375,0.52734375h0.52734375c0.29135742187499997,0,0.52734375,-0.235986328125,0.52734375,-0.52734375v-1.7883544921874999c0.50625,0.130517578125,1.034912109375,0.20632324218749998,1.58203125,0.20632324218749998c0.17929687500000002,0,0.352001953125,-0.02406005859375,0.52734375,-0.038891601562499996V15.29296875c0,0.29135742187499997,0.235986328125,0.52734375,0.52734375,0.52734375h0.52734375c0.29135742187499997,0,0.52734375,-0.235986328125,0.52734375,-0.52734375v-1.95875244140625c0.46933593749999997,-0.16677246093749998,0.9188964843749999,-0.37540283203125,1.3295654296875001,-0.6430297851562501C11.274279785156251,11.70867919921875,12.981225585937501,11.07421875,14.7807861328125,11.07421875c0.8397949218749999,0,0.5276733398437501,-0.01021728515625,0.75970458984375,-0.025708007812500003l2.4524780273437496,4.4969238281249995c0.09426269531249999,0.17237548828125002,0.27355957031250006,0.27487792968749997,0.46307373046875,0.27487792968749997c0.043176269531250006,0,0.08701171875000001,-0.0052734374999999995,0.13018798828125,-0.0164794921875c0.23367919921875,-0.059326171875,0.39715576171875,-0.26993408203124997,0.39715576171875,-0.5108642578125c0,0,0.0046142578125000005,-7.91806640625,-0.0052734374999999995,-8.108569335937501zM15.291979980468751,8.173828125c-0.43670654296875,0,-0.791015625,-0.35430908203125,-0.791015625,-0.791015625c0,-0.43703613281250003,0.35430908203125,-0.791015625,0.791015625,-0.791015625s0.791015625,0.35397949218749997,0.791015625,0.791015625c0,0.43670654296875,-0.35430908203125,0.791015625,-0.791015625,0.791015625zm2.63671875,5.05096435546875l-1.3137451171874999,-2.4086425781250003c0.49833984374999996,-0.19215087890625002,0.9469116210937499,-0.481201171875,1.3137451171874999,-0.8562744140624999v3.2649169921875z" fill="#FFFFFF"/>
    </svg>