<svg version="1.1" xmlns="http://www.w3.org/2000/svg" xlink="http://www.w3.org/1999/xlink" x="0px" y="0px" width="15px" height="18.75px" viewBox="0 0 15 18.75" style="enable-background:new 0 0 15 15;" space="preserve">
    <path d="M11.1328125,15.234375H0.87890625c-0.48541259765625006,0,-0.87890625,-0.39349365234374994,-0.87890625,-0.87890625V4.39453125c0,-0.48541259765625006,0.39349365234374994,-0.87890625,0.87890625,-0.87890625h10.25390625v11.71875zm-4.419287109375,-2.6594970703125A0.439453125,0.439453125,0,0,0,7.13521728515625,12.890625h0.83726806640625c0.301025390625,0,0.5129516601562499,-0.29582519531249996,0.41608886718750004,-0.58084716796875L6.2845458984375,6.11883544921875a0.439453125,0.439453125,0,0,0,-0.41608886718750004,-0.29805908203125h-1.1897827148437499a0.43948974609374997,0.43948974609374997,0,0,0,-0.41608886718750004,0.29805908203125L2.1585205078125,12.30977783203125C2.06165771484375,12.5947998046875,2.273583984375,12.890625,2.5746093749999996,12.890625h0.83514404296875a0.439453125,0.439453125,0,0,0,0.42242431640625,-0.31834716796874996l0.3339111328125,-1.1648071289062498h2.20499267578125l0.34244384765625,1.1674072265625zm-1.43009033203125,-5.142333984374999s0.15820312500000003,0.77127685546875,0.2867431640625,1.2161865234375l0.3955078125,1.3744262695312501h-1.3941650390625l0.4053955078125,-1.3744262695312501c0.1285400390625,-0.4449462890625,0.2867431640625,-1.2161865234375,0.2867431640625,-1.2161865234375h0.019775390625000003zM22.55859375,15.234375H12.3046875V3.515625h10.25390625c0.48541259765625006,0,0.87890625,0.39349365234374994,0.87890625,0.87890625v9.9609375c0,0.48541259765625006,-0.39349365234374994,0.87890625,-0.87890625,0.87890625zm-1.318359375,-8.349609375h-2.34375v-0.5859375c0,-0.24268798828125,-0.19676513671875,-0.439453125,-0.439453125,-0.439453125h-0.5859375c-0.24268798828125,0,-0.439453125,0.19676513671875,-0.439453125,0.439453125v0.5859375h-2.34375c-0.24268798828125,0,-0.439453125,0.19676513671875,-0.439453125,0.439453125v0.5859375c0,0.24268798828125,0.19676513671875,0.439453125,0.439453125,0.439453125h4.1786865234374995c-0.22935791015624998,0.52364501953125,-0.6049072265625001,1.060986328125,-1.09947509765625,1.5822509765625001c-0.24023437499999997,-0.2526123046875,-0.45399169921875004,-0.5093994140625,-0.6359252929687499,-0.76658935546875c-0.13326416015624998,-0.18837890624999998,-0.38763427734375,-0.24444580078125,-0.58575439453125,-0.12619628906250002l-0.2666015625,0.1591552734375l-0.2379638671875,0.14205322265625c-0.21811523437500002,0.13022460937500002,-0.28172607421875,0.41824951171875,-0.13677978515625,0.62684326171875c0.22210693359375003,0.31966552734375,0.4796630859375,0.6348632812499999,0.7684570312500001,0.9421142578124999c-0.2974365234375,0.2280029296875,-0.61673583984375,0.448388671875,-0.9559204101562501,0.657861328125c-0.20218505859375,0.12487792968750001,-0.27030029296875,0.3865722656249999,-0.1524169921875,0.5928955078125l0.29080810546874997,0.50888671875c0.1231201171875,0.21544189453125,0.40045166015625,0.2865966796875,0.6117919921875,0.156591796875c0.466259765625,-0.28677978515625,0.89981689453125,-0.59234619140625,1.29796142578125,-0.9115356445312499c0.39979248046875,0.32083740234374997,0.8337158203124999,0.6262939453125,1.2962402343750001,0.9111694335937501c0.2114501953125,0.13022460937500002,0.48900146484374996,0.05925292968750001,0.61219482421875,-0.1563720703125l0.29091796875,-0.5091430664062501c0.11766357421875,-0.20592041015625,0.0501708984375,-0.46728515625,-0.15142822265625,-0.59219970703125a11.45277099609375,11.45277099609375,0,0,1,-0.954345703125,-0.6598754882812499c0.7699218750000001,-0.82122802734375,1.30986328125,-1.69515380859375,1.5641967773437502,-2.5579833984375H21.240234375c0.24268798828125,0,0.439453125,-0.19676513671875,0.439453125,-0.439453125v-0.5859375c0,-0.24261474609375,-0.19676513671875,-0.4393798828125,-0.439453125,-0.4393798828125z" fill="#FFFFFF"/>
    </svg>