<svg version="1.1" xmlns="http://www.w3.org/2000/svg" xlink="http://www.w3.org/1999/xlink" x="0px" y="0px" width="15px" height="18.75px" viewBox="0 0 15 18.75" style="enable-background:new 0 0 15 15;" space="preserve">
    <path d="M22.8515625,15.234375H13.972412109375c-0.027099609375,0.7254638671875,-0.5386962890625,1.171875,-1.198974609375,1.171875H10.546875c-0.6844482421875,0,-1.2092285156250002,-0.6397705078124999,-1.2000732421875002,-1.171875H0.5859375c-0.322265625,0,-0.5859375,0.263671875,-0.5859375,0.5859375v0.5859375c0,1.2890625,1.0546875,2.34375,2.34375,2.34375h18.75c1.2890625,0,2.34375,-1.0546875,2.34375,-2.34375v-0.5859375c0,-0.322265625,-0.263671875,-0.5859375,-0.5859375,-0.5859375zM21.09375,1.7578125c0,-0.966796875,-0.791015625,-1.7578125,-1.7578125,-1.7578125H4.1015625C3.134765625,0,2.34375,0.791015625,2.34375,1.7578125v12.3046875h18.75V1.7578125zm-2.34375,9.9609375H4.6875V2.34375h14.0625v9.375z" fill="#FFFFFF"/>
    </svg>