<svg version="1.1" xmlns="http://www.w3.org/2000/svg" xlink="http://www.w3.org/1999/xlink" x="0px" y="0px" width="15px" height="16.875px" viewBox="0 0 15 16.875" style="enable-background:new 0 0 15 15;" space="preserve">
    <path d="M18.002197265625,0.3197021484375c-0.1845703125,-0.4119873046875,-0.7119140625,-0.428466796875,-0.9327392578125,-0.03955078125C16.0477294921875,2.056640625,14.218505859375,3.1640625,12.12890625,3.1640625h-2.63671875C5.99853515625,3.1640625,3.1640625,5.99853515625,3.1640625,9.4921875c0,0.230712890625,0.0263671875,0.4515380859375,0.0494384765625,0.6756591796875C5.3162841796875,8.66162109375,8.351806640625,7.3828125,12.65625,7.3828125c0.2900390625,0,0.52734375,0.2373046875,0.52734375,0.52734375s-0.2373046875,0.52734375,-0.52734375,0.52734375C4.370361328125,8.4375,0.85693359375,13.5164794921875,0.0791015625,15.4248046875c-0.217529296875,0.5372314453125,0.03955078125,1.1502685546875,0.5767822265625,1.37109375c0.5405273437499999,0.22412109375,1.153564453125,-0.0362548828125,1.377685546875,-0.5701904296875c0.0494384765625,-0.11865234375,0.6888427734375,-1.5787353515625,2.3697509765625,-2.986083984375c1.06787109375,1.4468994140625,3.09814453125,2.827880859375,5.7645263671875,2.54443359375C15.3424072265625,15.4083251953125,18.984375,10.7677001953125,18.984375,5.0855712890625c0,-1.654541015625,-0.35595703125,-3.368408203125,-0.982177734375,-4.765869140625z" fill="#FFFFFF"/>
    </svg>