<svg version="1.1" xmlns="http://www.w3.org/2000/svg" xlink="http://www.w3.org/1999/xlink" x="0px" y="0px" width="15px" height="21.81818181818182px" viewBox="0 0 15 21.81818181818182" style="enable-background:new 0 0 15 15;" space="preserve">
    <path d="M4.0934659090909085,19.36150568181818c0.0004261363636363636,0.2680397727272727,0.0796875,0.5305397727272727,0.2284090909090909,0.7538352272727272l0.7282670454545453,1.0947443181818182a1.3632102272727271,1.3632102272727271,0,0,0,1.1352272727272728,0.6085227272727272h2.6296874999999997a1.3632102272727271,1.3632102272727271,0,0,0,1.1352272727272728,-0.6085227272727272l0.7282670454545453,-1.0947443181818182a1.3631676136363635,1.3631676136363635,0,0,0,0.2284090909090909,-0.7538352272727272l0.0017045454545454545,-1.6342329545454546H4.091335227272727l0.002130681818181818,1.6342329545454546zM0,7.499999999999999c0,1.890767045454545,0.7009943181818181,3.615767045454545,1.85625,4.933806818181818c0.7039772727272726,0.8032670454545454,1.8051136363636362,2.481392045454545,2.2248579545454543,3.8970170454545454c0.0017045454545454545,0.011079545454545455,0.0029829545454545456,0.02215909090909091,0.0046875,0.03323863636363636h6.828409090909091c0.0017045454545454545,-0.011079545454545455,0.0029829545454545456,-0.021732954545454545,0.0046875,-0.03323863636363636c0.4197443181818181,-1.415625,1.5208806818181817,-3.0937499999999996,2.2248579545454543,-3.8970170454545454C14.299005681818182,11.115767045454545,14.999999999999998,9.390767045454545,14.999999999999998,7.499999999999999C14.999999999999998,3.3498579545454543,11.629687500000001,-0.012784090909090908,7.476562499999999,0C3.1295454545454544,0.013210227272727271,0,3.5356534090909086,0,7.499999999999999zm7.499999999999999,-3.4090909090909087c-1.8796874999999997,0,-3.4090909090909087,1.529403409090909,-3.4090909090909087,3.4090909090909087c0,0.3767045454545454,-0.30511363636363636,0.6818181818181818,-0.6818181818181818,0.6818181818181818s-0.6818181818181818,-0.30511363636363636,-0.6818181818181818,-0.6818181818181818c0,-2.6318181818181814,2.1409090909090907,-4.7727272727272725,4.7727272727272725,-4.7727272727272725c0.3767045454545454,0,0.6818181818181818,0.30511363636363636,0.6818181818181818,0.6818181818181818s-0.30511363636363636,0.6818181818181818,-0.6818181818181818,0.6818181818181818z" fill="#FFFFFF"/>
    </svg>