<svg version="1.1" xmlns="http://www.w3.org/2000/svg" xlink="http://www.w3.org/1999/xlink" x="0px" y="0px" width="15px" height="18.75px" viewBox="0 0 15 18.75" style="enable-background:new 0 0 15 15;" space="preserve">
    <path d="M8.203125,11.71875h1.171875V3.515625h-1.171875c-0.6470947265625,0,-1.171875,0.5247802734375,-1.171875,1.171875v5.859375c0,0.6470947265625,0.5247802734375,1.171875,1.171875,1.171875zm12.890625,-1.171875V4.6875c0,-0.6470947265625,-0.5247802734375,-1.171875,-1.171875,-1.171875h-1.171875v8.203125h1.171875c0.6470947265625,0,1.171875,-0.5247802734375,1.171875,-1.171875zm1.7578125,3.515625H4.6875V0.5859375c0,-0.32373046875,-0.26220703125,-0.5859375,-0.5859375,-0.5859375H0.5859375C0.26220703125,0,0,0.26220703125,0,0.5859375v1.171875c0,0.32373046875,0.26220703125,0.5859375,0.5859375,0.5859375h1.7578125v13.4765625c0,0.32373046875,0.26220703125,0.5859375,0.5859375,0.5859375h3.037353515625c-0.0655517578125,0.1842041015625,-0.107666015625,0.37939453124999994,-0.107666015625,0.5859375c0,0.9708251953125001,0.7869873046874999,1.7578125,1.7578125,1.7578125s1.7578125,-0.7869873046874999,1.7578125,-1.7578125c0,-0.20654296875,-0.0421142578125,-0.4017333984375,-0.107666015625,-0.5859375h7.24658203125c-0.0655517578125,0.1842041015625,-0.107666015625,0.37939453124999994,-0.107666015625,0.5859375c0,0.9708251953125001,0.7869873046874999,1.7578125,1.7578125,1.7578125s1.7578125,-0.7869873046874999,1.7578125,-1.7578125c0,-0.20654296875,-0.0421142578125,-0.4017333984375,-0.107666015625,-0.5859375H22.8515625c0.32373046875,0,0.5859375,-0.26220703125,0.5859375,-0.5859375v-1.171875c0,-0.32373046875,-0.26220703125,-0.5859375,-0.5859375,-0.5859375zM17.578125,3.515625V1.7578125c0,-0.9708251953125001,-0.7869873046874999,-1.7578125,-1.7578125,-1.7578125h-3.515625c-0.9708251953125001,0,-1.7578125,0.7869873046874999,-1.7578125,1.7578125v9.9609375h7.03125V3.515625zm-1.7578125,0h-3.515625V1.7578125h3.515625v1.7578125z" fill="#FFFFFF"/>
    </svg>