<svg version="1.1" xmlns="http://www.w3.org/2000/svg" xlink="http://www.w3.org/1999/xlink" x="0px" y="0px" width="15px" height="15px" viewBox="0 0 15 15" style="enable-background:new 0 0 15 15;" space="preserve">
    <path d="M5.2754237,8.7235169H6.0063559V3.6069915H5.2754237c-0.4036116,0,-0.7309322,0.3273206,-0.7309322,0.7309322v3.654661c0,0.4036118,0.3273206,0.7309322,0.7309322,0.7309322zM13.315678,7.9925847v-3.654661c0,-0.4036116,-0.327321,-0.7309322,-0.730933,-0.7309322h-0.730932v5.1165254h0.730932c0.403612,0,0.730933,-0.3273204,0.730933,-0.7309322zm1.096398,2.1927963H3.0826271v-8.40572c0,-0.20192,-0.1635461,-0.3654661,-0.3654661,-0.3654661H0.52436441c-0.20192002,0,-0.3654661,0.1635461,-0.3654661,0.3654661v0.7309322c0,0.20192,0.16354608,0.3654661,0.3654661,0.3654661H1.6207627v8.4057197c0,0.201921,0.163546,0.365466,0.3654661,0.365466h1.8944849c-0.040887,0.114893,-0.067154,0.23664,-0.067154,0.365466c0,0.605533,0.4908666,1.096399,1.0963983,1.096399c0.6055316,0,1.0963983,-0.490866,1.0963983,-1.096399c0,-0.128826,-0.026268,-0.250573,-0.067154,-0.365466h4.5199027c-0.04089,0.114893,-0.06716,0.23664,-0.06716,0.365466c0,0.605533,0.490867,1.096399,1.096398,1.096399c0.605532,0,1.096398,-0.490866,1.096398,-1.096399c0,-0.128826,-0.02627,-0.250573,-0.06715,-0.365466h1.894485c0.20192,0,0.365466,-0.163545,0.365466,-0.365466v-0.730932c0,-0.20192,-0.163546,-0.365466,-0.365466,-0.365466zM11.122881,3.6069915V2.5105932c0,-0.6055317,-0.490866,-1.0963983,-1.096397,-1.0963983H7.8336867c-0.6055322,0,-1.0963986,0.4908666,-1.0963986,1.0963983v6.2129237h4.3855929zm-1.096397,0H7.8336867V2.5105932h2.1927973z" fill="#FFFFFF"/>
    </svg>