<svg version="1.1" id="svg4764" inkscape:version="0.91 r13725" sodipodi:docname="religious-muslim-11.svg" xmlns:cc="http://creativecommons.org/ns#" xmlns:dc="http://purl.org/dc/elements/1.1/" xmlns:inkscape="http://www.inkscape.org/namespaces/inkscape" xmlns:rdf="http://www.w3.org/1999/02/22-rdf-syntax-ns#" xmlns:sodipodi="http://sodipodi.sourceforge.net/DTD/sodipodi-0.dtd" xmlns:svg="http://www.w3.org/2000/svg" xmlns="http://www.w3.org/2000/svg" xlink="http://www.w3.org/1999/xlink" x="0px" y="0px" width="11px" height="11px" viewBox="0 0 11 11" style="enable-background:new 0 0 11 11;" space="preserve">
<path id="path16908" inkscape:connector-curvature="0" sodipodi:nodetypes="ssscssscsccccccccccc" d="M4.9,0C2.2,0,0,2.2,0,4.9
	s2.2,4.9,4.9,4.9c0.9,0,1.7-0.2,2.4-0.6H6.7c-2.4,0-4.3-1.9-4.3-4.3s1.9-4.3,4.3-4.3h0.6C6.5,0.2,5.8,0,4.9,0z M8.5,2L7.6845,3.7
	L6,4l1,1.5L6.5,7l2-1l2,1L10,5.5L11,4L9.5,3.7L8.5,2z" fill="#FFFFFF"/>
</svg>