<svg xmlns="http://www.w3.org/2000/svg" xlink="http://www.w3.org/1999/xlink" width="20px" height="20px" viewBox="0 0 15 15" version="1.1">
  <g id="surface1">
    <path d="M 11.976562 8.425781 C 12.117188 8.496094 12.285156 8.492188 12.351562 8.421875 C 12.421875 8.351562 12.363281 8.242188 12.222656 8.175781 L 9.769531 7.042969 C 9.628906 6.976562 9.390625 6.960938 9.242188 7.003906 L 8.367188 7.265625 C 8.214844 7.3125 8.023438 7.347656 7.933594 7.347656 C 7.84375 7.347656 7.773438 7.222656 7.773438 7.070312 L 7.773438 4.394531 C 7.773438 4.242188 7.898438 4.117188 8.054688 4.117188 L 14.417969 4.117188 C 14.574219 4.117188 14.699219 3.996094 14.699219 3.84375 L 14.699219 2.945312 C 14.699219 2.792969 14.578125 2.632812 14.429688 2.585938 L 7.730469 0.632812 C 7.582031 0.589844 7.335938 0.589844 7.1875 0.632812 L 0.570312 2.585938 C 0.421875 2.628906 0.300781 2.792969 0.300781 2.945312 L 0.300781 3.84375 C 0.300781 3.996094 0.425781 4.117188 0.582031 4.117188 L 6.859375 4.117188 C 7.015625 4.117188 7.144531 4.242188 7.144531 4.394531 L 7.144531 7.074219 C 7.144531 7.226562 7.015625 7.351562 6.859375 7.351562 L 6.746094 7.351562 C 6.589844 7.351562 6.375 7.261719 6.261719 7.15625 L 4.75 5.710938 C 4.636719 5.605469 4.417969 5.519531 4.261719 5.519531 L 3.5625 5.519531 C 3.410156 5.519531 3.222656 5.425781 3.148438 5.316406 C 3.078125 5.203125 2.90625 5.113281 2.773438 5.113281 C 2.640625 5.113281 2.597656 5.21875 2.683594 5.347656 L 2.695312 5.367188 C 2.78125 5.496094 2.78125 5.707031 2.699219 5.832031 L 1.941406 7.011719 C 1.859375 7.140625 1.882812 7.328125 2 7.429688 L 2.054688 7.480469 C 2.167969 7.582031 2.375 7.609375 2.511719 7.539062 L 3.324219 7.113281 C 3.460938 7.042969 3.640625 7.089844 3.726562 7.21875 L 4.617188 8.582031 C 4.699219 8.710938 4.671875 8.894531 4.554688 8.992188 L 4.148438 9.332031 C 4.027344 9.433594 3.960938 9.632812 3.992188 9.78125 L 4.519531 12.078125 C 4.554688 12.226562 4.707031 12.320312 4.855469 12.28125 L 5.222656 12.191406 C 5.375 12.152344 5.46875 12 5.4375 11.851562 L 5.078125 10.300781 C 5.046875 10.152344 5.140625 9.996094 5.289062 9.957031 L 6.191406 9.714844 C 6.339844 9.671875 6.589844 9.640625 6.746094 9.640625 L 6.859375 9.640625 C 7.015625 9.640625 7.144531 9.765625 7.144531 9.917969 L 7.144531 12.671875 C 7.144531 12.824219 7.015625 12.945312 6.859375 12.945312 L 0.582031 12.945312 C 0.425781 12.945312 0.300781 13.070312 0.300781 13.222656 L 0.300781 14.121094 C 0.300781 14.277344 0.425781 14.398438 0.582031 14.398438 L 14.300781 14.398438 C 14.457031 14.398438 14.582031 14.277344 14.582031 14.121094 L 14.582031 13.226562 C 14.582031 13.070312 14.457031 12.949219 14.300781 12.949219 L 8.054688 12.949219 C 7.898438 12.949219 7.773438 12.824219 7.773438 12.671875 L 7.773438 9.917969 C 7.773438 9.765625 7.898438 9.640625 8.054688 9.640625 L 8.378906 9.640625 C 8.535156 9.640625 8.785156 9.675781 8.933594 9.714844 L 9.835938 9.957031 C 9.988281 9.996094 10.082031 10.152344 10.046875 10.300781 L 9.691406 11.851562 C 9.65625 12 9.75 12.152344 9.902344 12.191406 L 10.269531 12.28125 C 10.421875 12.320312 10.570312 12.226562 10.605469 12.078125 L 11.132812 9.785156 C 11.167969 9.632812 11.101562 9.4375 10.988281 9.339844 C 10.871094 9.242188 10.773438 9.039062 10.761719 8.886719 L 10.71875 8.078125 C 10.707031 7.925781 10.816406 7.855469 10.953125 7.925781 Z M 11.976562 8.425781 " fill="#FFFFFF"/>
  </g>
</svg>