<?xml version="1.0" encoding="UTF-8" standalone="yes"?>
<svg xmlns="http://www.w3.org/2000/svg" xmlns:xlink="http://www.w3.org/1999/xlink" width="20px" height="20px" viewBox="0 0 15 15" version="1.1">
  <g id="surface1">
    <path style=" stroke:none;fill-rule:nonzero;fill:rgb(0%,0%,0%);fill-opacity:1;" d="M 0.300781 1.914062 C 0.300781 1.914062 0.976562 3.113281 0.976562 3.882812 L 0.304688 5.789062 C 0.304688 5.964844 0.425781 6.027344 0.566406 5.925781 L 2.78125 4.335938 C 3.230469 4.664062 4.105469 5.105469 4.742188 5.464844 L 4.742188 6.75 L 6.160156 5.941406 C 6.617188 6.042969 7.082031 6.109375 7.574219 6.109375 C 10.5625 6.109375 12.984375 4.175781 12.984375 3.851562 C 12.984375 3.570312 11.160156 2.070312 8.722656 1.683594 L 6.011719 0.300781 L 6.011719 1.796875 C 4.742188 2.148438 3.441406 2.878906 2.78125 3.367188 L 0.558594 1.777344 C 0.417969 1.675781 0.300781 1.734375 0.300781 1.914062 M 10.574219 4.242188 C 10.222656 4.242188 9.9375 3.957031 9.9375 3.597656 C 9.9375 3.242188 10.222656 2.953125 10.574219 2.953125 C 10.925781 2.953125 11.210938 3.242188 11.210938 3.597656 C 11.210938 3.957031 10.925781 4.242188 10.574219 4.242188 M 14.699219 9.863281 C 14.699219 9.683594 14.582031 9.625 14.441406 9.726562 L 12.230469 11.316406 C 11.570312 10.828125 10.28125 10.097656 9.007812 9.746094 L 9.007812 8.25 L 6.289062 9.632812 C 3.847656 10.019531 2.023438 11.519531 2.023438 11.800781 C 2.023438 12.125 4.441406 14.0625 7.425781 14.0625 C 7.921875 14.0625 8.394531 13.992188 8.851562 13.890625 L 10.28125 14.699219 L 10.28125 13.414062 C 10.917969 13.054688 11.785156 12.617188 12.230469 12.285156 L 14.4375 13.875 C 14.582031 13.976562 14.699219 13.914062 14.699219 13.738281 C 14.699219 13.738281 14.023438 12.597656 14.023438 11.832031 C 14.023438 11.0625 14.699219 9.863281 14.699219 9.863281 M 4.863281 11.78125 C 4.511719 11.78125 4.230469 11.492188 4.230469 11.132812 C 4.230469 10.777344 4.511719 10.488281 4.863281 10.488281 C 5.214844 10.488281 5.5 10.777344 5.5 11.132812 C 5.5 11.492188 5.214844 11.78125 4.863281 11.78125 "/>
  </g>
</svg>