<svg xmlns="http://www.w3.org/2000/svg" xlink="http://www.w3.org/1999/xlink" width="20px" height="20px" viewBox="0 0 15 15" version="1.1">
  <g id="surface1">
    <path d="M 12.300781 0.300781 L 2.699219 0.300781 C 2.039062 0.300781 1.5 0.839844 1.5 1.5 L 1.5 13.5 C 1.5 14.160156 2.039062 14.699219 2.699219 14.699219 L 12.300781 14.699219 C 12.960938 14.699219 13.5 14.160156 13.5 13.5 L 13.5 1.5 C 13.5 0.839844 12.960938 0.300781 12.300781 0.300781 Z M 5.101562 12.300781 C 5.101562 12.628906 4.828125 12.898438 4.5 12.898438 L 3.300781 12.898438 C 2.96875 12.898438 2.699219 12.628906 2.699219 12.300781 L 2.699219 12 C 2.699219 11.671875 2.96875 11.398438 3.300781 11.398438 L 4.5 11.398438 C 4.828125 11.398438 5.101562 11.671875 5.101562 12 Z M 5.101562 9.898438 C 5.101562 10.230469 4.828125 10.5 4.5 10.5 L 3.300781 10.5 C 2.96875 10.5 2.699219 10.230469 2.699219 9.898438 L 2.699219 9.601562 C 2.699219 9.269531 2.96875 9 3.300781 9 L 4.5 9 C 4.828125 9 5.101562 9.269531 5.101562 9.601562 Z M 5.101562 7.5 C 5.101562 7.828125 4.828125 8.101562 4.5 8.101562 L 3.300781 8.101562 C 2.96875 8.101562 2.699219 7.828125 2.699219 7.5 L 2.699219 7.199219 C 2.699219 6.871094 2.96875 6.601562 3.300781 6.601562 L 4.5 6.601562 C 4.828125 6.601562 5.101562 6.871094 5.101562 7.199219 Z M 8.699219 12.300781 C 8.699219 12.628906 8.429688 12.898438 8.101562 12.898438 L 6.898438 12.898438 C 6.570312 12.898438 6.300781 12.628906 6.300781 12.300781 L 6.300781 12 C 6.300781 11.671875 6.570312 11.398438 6.898438 11.398438 L 8.101562 11.398438 C 8.429688 11.398438 8.699219 11.671875 8.699219 12 Z M 8.699219 9.898438 C 8.699219 10.230469 8.429688 10.5 8.101562 10.5 L 6.898438 10.5 C 6.570312 10.5 6.300781 10.230469 6.300781 9.898438 L 6.300781 9.601562 C 6.300781 9.269531 6.570312 9 6.898438 9 L 8.101562 9 C 8.429688 9 8.699219 9.269531 8.699219 9.601562 Z M 8.699219 7.5 C 8.699219 7.828125 8.429688 8.101562 8.101562 8.101562 L 6.898438 8.101562 C 6.570312 8.101562 6.300781 7.828125 6.300781 7.5 L 6.300781 7.199219 C 6.300781 6.871094 6.570312 6.601562 6.898438 6.601562 L 8.101562 6.601562 C 8.429688 6.601562 8.699219 6.871094 8.699219 7.199219 Z M 12.300781 12.300781 C 12.300781 12.628906 12.03125 12.898438 11.699219 12.898438 L 10.5 12.898438 C 10.171875 12.898438 9.898438 12.628906 9.898438 12.300781 L 9.898438 12 C 9.898438 11.671875 10.171875 11.398438 10.5 11.398438 L 11.699219 11.398438 C 12.03125 11.398438 12.300781 11.671875 12.300781 12 Z M 12.300781 9.898438 C 12.300781 10.230469 12.03125 10.5 11.699219 10.5 L 10.5 10.5 C 10.171875 10.5 9.898438 10.230469 9.898438 9.898438 L 9.898438 9.601562 C 9.898438 9.269531 10.171875 9 10.5 9 L 11.699219 9 C 12.03125 9 12.300781 9.269531 12.300781 9.601562 Z M 12.300781 7.5 C 12.300781 7.828125 12.03125 8.101562 11.699219 8.101562 L 10.5 8.101562 C 10.171875 8.101562 9.898438 7.828125 9.898438 7.5 L 9.898438 7.199219 C 9.898438 6.871094 10.171875 6.601562 10.5 6.601562 L 11.699219 6.601562 C 12.03125 6.601562 12.300781 6.871094 12.300781 7.199219 Z M 12.300781 4.800781 C 12.300781 5.128906 12.03125 5.398438 11.699219 5.398438 L 3.300781 5.398438 C 2.96875 5.398438 2.699219 5.128906 2.699219 4.800781 L 2.699219 2.398438 C 2.699219 2.070312 2.96875 1.800781 3.300781 1.800781 L 11.699219 1.800781 C 12.03125 1.800781 12.300781 2.070312 12.300781 2.398438 Z M 12.300781 4.800781 " fill="#FFFFFF"/>
  </g>
</svg>