<svg xmlns="http://www.w3.org/2000/svg" xlink="http://www.w3.org/1999/xlink" width="20px" height="20px" viewBox="0 0 15 15" version="1.1">
  <g id="surface1">
    <path d="M 7.734375 6 L 7.5 6 L 7.5 8.699219 L 7.734375 8.699219 C 8.449219 8.699219 9.023438 8.0625 9.023438 7.347656 C 9.023438 6.636719 8.449219 6 7.734375 6 Z M 12 2.101562 L 3 2.101562 C 1.351562 2.101562 0 3.449219 0 5.101562 L 0 9.300781 C 0 10.949219 1.351562 12.300781 3 12.300781 L 12 12.300781 C 13.648438 12.300781 15 10.949219 15 9.300781 L 15 5.101562 C 15 3.449219 13.648438 2.101562 12 2.101562 Z M 6 9.601562 L 4.800781 9.601562 L 4.800781 9 L 3.03125 9 L 2.621094 9.601562 L 1.0625 9.601562 L 4.546875 4.800781 L 6 4.800781 Z M 8.101562 9.601562 L 6.300781 9.601562 L 6.300781 4.800781 L 7.875 4.800781 C 9.214844 4.800781 10.277344 5.886719 10.277344 7.230469 C 10.277344 8.566406 9.4375 9.601562 8.101562 9.601562 Z M 10.726562 9.601562 L 10.3125 9.601562 C 10.847656 9 11.152344 8.167969 11.152344 7.320312 C 11.152344 6.367188 10.769531 5.398438 10.09375 4.800781 L 10.691406 4.800781 C 11.292969 5.699219 11.628906 6.386719 11.628906 7.320312 C 11.628906 8.152344 11.367188 9 10.882812 9.601562 Z M 11.953125 9.601562 L 11.535156 9.601562 C 12.074219 9 12.378906 8.167969 12.378906 7.320312 C 12.378906 6.367188 11.988281 5.398438 11.316406 4.800781 L 11.910156 4.800781 C 12.511719 5.699219 12.855469 6.386719 12.855469 7.320312 C 12.855469 8.152344 12.585938 9 12.101562 9.601562 Z M 13.328125 9.601562 L 12.753906 9.601562 C 13.292969 9 13.597656 8.167969 13.597656 7.320312 C 13.597656 6.367188 13.210938 5.398438 12.535156 4.800781 L 13.132812 4.800781 C 13.734375 5.699219 14.074219 6.386719 14.074219 7.320312 C 14.074219 8.152344 13.808594 9 13.328125 9.601562 Z M 4.800781 8.101562 L 4.800781 6.328125 L 3.699219 8.101562 Z M 4.800781 8.101562 " fill="#FFFFFF"/>
  </g>
</svg>