<?xml version="1.0" encoding="UTF-8" standalone="yes"?>
<svg xmlns="http://www.w3.org/2000/svg" xmlns:xlink="http://www.w3.org/1999/xlink" width="20px" height="20px" viewBox="0 0 15 15" version="1.1">
  <g id="surface1">
    <path style=" stroke:none;fill-rule:nonzero;fill:rgb(0%,0%,0%);fill-opacity:1;" d="M 6.363281 1.800781 C 2.574219 1.800781 0.300781 4.839844 0.300781 6.359375 C 0.300781 7.878906 1.058594 9.019531 2.574219 9.019531 C 4.089844 9.019531 4.847656 9.398438 4.847656 10.539062 C 4.847656 12.058594 5.984375 13.199219 7.5 13.199219 C 12.425781 13.199219 14.699219 10.539062 14.699219 7.878906 C 14.699219 3.320312 10.910156 1.800781 6.363281 1.800781 Z M 5.414062 3.320312 C 5.9375 3.320312 6.363281 3.746094 6.363281 4.269531 C 6.363281 4.792969 5.9375 5.21875 5.414062 5.21875 C 4.894531 5.21875 4.46875 4.792969 4.46875 4.269531 C 4.46875 3.746094 4.894531 3.320312 5.414062 3.320312 Z M 8.445312 3.320312 C 8.96875 3.320312 9.394531 3.746094 9.394531 4.269531 C 9.394531 4.792969 8.96875 5.21875 8.445312 5.21875 C 7.925781 5.21875 7.5 4.792969 7.5 4.269531 C 7.5 3.746094 7.925781 3.320312 8.445312 3.320312 Z M 11.480469 4.839844 C 12.003906 4.839844 12.425781 5.265625 12.425781 5.789062 C 12.425781 6.316406 12.003906 6.738281 11.480469 6.738281 C 10.957031 6.738281 10.53125 6.316406 10.53125 5.789062 C 10.53125 5.265625 10.957031 4.839844 11.480469 4.839844 Z M 2.761719 5.601562 C 3.285156 5.601562 3.710938 6.023438 3.710938 6.550781 C 3.710938 7.074219 3.285156 7.5 2.761719 7.5 C 2.242188 7.5 1.816406 7.074219 1.816406 6.550781 C 1.816406 6.023438 2.238281 5.601562 2.761719 5.601562 Z M 7.5 9.398438 C 8.128906 9.398438 8.636719 9.910156 8.636719 10.539062 C 8.636719 11.167969 8.128906 11.679688 7.5 11.679688 C 6.871094 11.679688 6.363281 11.167969 6.363281 10.539062 C 6.363281 9.910156 6.871094 9.398438 7.5 9.398438 Z M 7.5 9.398438 "/>
  </g>
</svg>