<svg xmlns="http://www.w3.org/2000/svg" xlink="http://www.w3.org/1999/xlink" width="20px" height="20px" viewBox="0 0 15 15" version="1.1">
  <g id="surface1">
    <path d="M 14.414062 10.894531 C 14.570312 10.945312 14.699219 10.851562 14.699219 10.683594 L 14.699219 9.636719 C 14.699219 9.472656 14.582031 9.269531 14.441406 9.183594 L 8.957031 5.914062 C 8.816406 5.832031 8.699219 5.625 8.699219 5.460938 L 8.699219 1.800781 C 8.699219 1.636719 8.648438 1.375 8.585938 1.222656 C 8.585938 1.222656 8.261719 0.410156 7.6875 0.320312 C 7.625 0.308594 7.566406 0.300781 7.503906 0.300781 L 7.5 0.300781 C 7.425781 0.300781 7.355469 0.308594 7.285156 0.320312 L 7.21875 0.335938 L 7.121094 0.367188 C 6.644531 0.527344 6.398438 1.21875 6.398438 1.21875 C 6.34375 1.371094 6.300781 1.636719 6.300781 1.800781 L 6.300781 5.460938 C 6.300781 5.625 6.183594 5.832031 6.042969 5.914062 L 0.558594 9.183594 C 0.417969 9.269531 0.300781 9.472656 0.300781 9.636719 L 0.300781 10.683594 C 0.300781 10.851562 0.429688 10.945312 0.585938 10.894531 L 6.015625 9.128906 C 6.171875 9.078125 6.300781 9.171875 6.300781 9.335938 L 6.300781 12.199219 C 6.300781 12.363281 6.191406 12.578125 6.058594 12.679688 L 5.339844 13.21875 C 5.207031 13.316406 5.101562 13.535156 5.101562 13.699219 L 5.101562 14.398438 C 5.101562 14.566406 5.230469 14.664062 5.386719 14.617188 L 7.210938 14.09375 C 7.371094 14.046875 7.628906 14.046875 7.789062 14.09375 L 9.613281 14.617188 C 9.769531 14.664062 9.898438 14.566406 9.898438 14.398438 L 9.898438 13.699219 C 9.898438 13.535156 9.792969 13.316406 9.660156 13.21875 L 8.941406 12.675781 C 8.808594 12.578125 8.699219 12.363281 8.699219 12.199219 L 8.699219 9.335938 C 8.699219 9.171875 8.828125 9.078125 8.984375 9.128906 Z M 14.414062 10.894531 " fill="#FFFFFF"/>
  </g>
</svg>