<?xml version="1.0" encoding="UTF-8" standalone="yes"?>
<svg xmlns="http://www.w3.org/2000/svg" xmlns:xlink="http://www.w3.org/1999/xlink" width="20px" height="20px" viewBox="0 0 15 15" version="1.1">
  <g id="surface1">
    <path style=" stroke:none;fill-rule:nonzero;fill:rgb(0%,0%,0%);fill-opacity:1;" d="M 10.503906 7.664062 C 10.40625 7.273438 9.910156 6.96875 9.539062 7.148438 L 8.101562 7.800781 L 8.101562 5.226562 L 10.628906 1.25 C 10.8125 0.960938 10.742188 0.578125 10.445312 0.390625 C 10.15625 0.207031 9.773438 0.292969 9.609375 0.578125 L 7.492188 3.953125 L 6.210938 3.957031 C 6.128906 3.957031 6.050781 3.96875 5.96875 4.003906 L 3.757812 4.863281 L 2.617188 3.148438 C 2.433594 2.863281 2.042969 2.777344 1.753906 2.960938 C 1.460938 3.148438 1.375 3.535156 1.5625 3.828125 L 2.984375 5.964844 C 3.144531 6.210938 3.480469 6.324219 3.769531 6.207031 L 5.398438 5.578125 L 5.398438 8.398438 L 3.179688 13.316406 C 3.011719 13.691406 3.195312 14.105469 3.585938 14.324219 C 3.976562 14.539062 4.429688 14.414062 4.589844 14.039062 L 6.375 9.964844 C 6.53125 10.011719 6.703125 10.03125 6.878906 10.03125 C 7.039062 10.03125 7.195312 10 7.335938 9.949219 L 9.339844 9.015625 L 9.78125 10.773438 C 9.878906 11.164062 10.277344 11.402344 10.671875 11.304688 C 11.066406 11.207031 11.300781 10.8125 11.203125 10.421875 Z M 8.699219 6.625 L 8.699219 7.09375 C 11.699219 5.585938 12.863281 0.429688 12.863281 0 L 12.445312 0 C 12.285156 1.074219 11.101562 5.378906 8.699219 6.625 Z M 6.574219 3.730469 C 7.1875 3.730469 7.683594 3.238281 7.683594 2.628906 C 7.683594 2.019531 7.1875 1.523438 6.574219 1.523438 C 5.957031 1.523438 5.460938 2.019531 5.460938 2.628906 C 5.460938 3.238281 5.957031 3.730469 6.574219 3.730469 Z M 7.5 15 L 8.101562 15 L 8.101562 10.03125 L 7.5 10.5 Z M 7.5 15 "/>
  </g>
</svg>