<?xml version="1.0" encoding="UTF-8" standalone="yes"?>
<svg xmlns="http://www.w3.org/2000/svg" xmlns:xlink="http://www.w3.org/1999/xlink" width="20px" height="20px" viewBox="0 0 15 15" version="1.1">
  <g id="surface1">
    <path style=" stroke:none;fill-rule:nonzero;fill:rgb(0%,0%,0%);fill-opacity:1;" d="M 5.65625 3.179688 C 6.328125 3.179688 6.867188 2.621094 6.867188 1.9375 C 6.867188 1.253906 6.328125 0.695312 5.65625 0.695312 C 4.988281 0.695312 4.445312 1.253906 4.445312 1.9375 C 4.445312 2.621094 4.988281 3.179688 5.65625 3.179688 Z M 6 3.601562 L 2.398438 3.601562 C 1.800781 3.601562 1.800781 4.5 2.398438 4.5 L 6 4.5 C 6.601562 4.5 6.601562 3.601562 6 3.601562 Z M 11.699219 3.976562 C 11.699219 2.601562 11.21875 1.285156 10.339844 0.25 C 10.34375 0.246094 10.121094 0 10.121094 0 L 6.707031 3.496094 L 6.648438 3.550781 L 6.679688 3.597656 C 6.730469 3.691406 6.761719 3.796875 6.773438 3.902344 C 6.777344 3.949219 6.773438 3.992188 6.769531 4.039062 C 6.761719 4.132812 6.746094 4.222656 6.707031 4.308594 L 6.703125 4.316406 L 6.679688 4.367188 L 6.65625 4.410156 C 6.507812 4.648438 6.25 4.800781 5.9375 4.800781 L 3.898438 4.800781 L 3.898438 9.601562 L 3.242188 14.167969 C 3.171875 14.546875 3.460938 14.914062 3.828125 14.984375 C 4.195312 15.0625 4.726562 14.78125 4.800781 14.398438 L 5.398438 9.300781 L 5.699219 9.300781 L 6.71875 14.4375 C 6.792969 14.820312 7.316406 15.0625 7.6875 14.984375 C 8.054688 14.914062 8.257812 14.546875 8.183594 14.167969 L 7.199219 9.289062 L 7.199219 5.207031 L 9.996094 7.949219 C 9.996094 7.949219 10.285156 7.699219 10.285156 7.695312 C 11.15625 6.660156 11.699219 5.347656 11.699219 3.976562 Z M 11.082031 4.5 C 10.980469 5.398438 10.457031 6.488281 9.800781 7.285156 C 9.191406 6.664062 7.800781 5.496094 7.199219 4.730469 L 7.199219 4.5 Z M 11.082031 3.601562 L 7.171875 3.601562 C 7.890625 2.699219 9.234375 1.488281 9.921875 0.789062 C 10.582031 1.582031 10.984375 2.398438 11.082031 3.601562 Z M 11.082031 3.601562 "/>
  </g>
</svg>