<svg xmlns="http://www.w3.org/2000/svg" xlink="http://www.w3.org/1999/xlink" width="20px" height="20px" viewBox="0 0 15 15" version="1.1">
  <g id="surface1">
    <path d="M 10.433594 2 L 8.347656 2 C 7.972656 2 7.984375 2.5625 8.347656 2.558594 L 10.433594 2.558594 L 10.433594 2.847656 L 8.347656 2.847656 C 7.972656 2.84375 7.988281 3.402344 8.347656 3.40625 L 10.433594 3.40625 L 10.433594 3.699219 L 8.347656 3.699219 C 7.972656 3.699219 7.988281 4.257812 8.347656 4.257812 L 10.433594 4.257812 L 10.433594 4.539062 L 8.347656 4.539062 C 7.980469 4.539062 7.988281 5.101562 8.347656 5.105469 L 10.433594 5.105469 L 10.433594 5.382812 L 8.347656 5.382812 C 7.980469 5.382812 7.980469 5.945312 8.347656 5.945312 L 10.433594 5.945312 L 10.433594 6.222656 L 8.347656 6.222656 C 7.980469 6.222656 7.980469 6.785156 8.347656 6.78125 L 10.433594 6.78125 L 10.433594 7.070312 L 8.347656 7.070312 C 7.980469 7.066406 7.980469 7.625 8.347656 7.628906 L 10.433594 7.628906 L 10.433594 7.90625 L 8.347656 7.90625 C 7.980469 7.90625 7.988281 8.46875 8.347656 8.46875 L 10.433594 8.46875 L 10.433594 13.914062 C 10.433594 14.746094 11.695312 14.730469 11.699219 13.914062 L 11.699219 1.167969 C 11.695312 0.789062 11.386719 0.308594 10.871094 0.308594 L 8.347656 0.308594 C 7.972656 0.308594 7.984375 0.867188 8.347656 0.867188 L 10.433594 0.875 L 10.433594 1.152344 L 8.347656 1.152344 C 7.972656 1.152344 7.988281 1.710938 8.347656 1.710938 L 10.433594 1.710938 Z M 8.207031 11.65625 C 8.203125 10.6875 7.199219 9.644531 6 10.320312 L 6 6.613281 L 5.222656 0.503906 C 5.207031 0.339844 5.070312 0.300781 4.976562 0.300781 C 4.882812 0.300781 4.691406 0.339844 4.671875 0.503906 L 3.898438 6.613281 L 3.898438 10.320312 C 2.699219 9.644531 1.726562 10.695312 1.726562 11.648438 C 1.726562 12.5 2.382812 13.199219 3.265625 13.195312 C 4.160156 13.199219 4.800781 12.414062 4.800781 11.648438 L 4.800781 7.800781 L 5.101562 7.800781 L 5.101562 11.648438 C 5.101562 12.507812 5.761719 13.140625 6.5 13.179688 C 6.488281 13.652344 6.640625 14.320312 6.929688 14.585938 C 7.269531 14.898438 7.671875 14.5 7.507812 14.175781 C 7.347656 13.871094 7.191406 13.695312 7.316406 13.03125 C 7.847656 12.789062 8.203125 12.269531 8.207031 11.65625 Z M 3.300781 12.417969 C 2.882812 12.417969 2.542969 12.078125 2.542969 11.65625 C 2.542969 11.238281 2.882812 10.898438 3.300781 10.894531 C 3.71875 10.898438 4.054688 11.238281 4.058594 11.65625 C 4.054688 12.078125 3.71875 12.417969 3.300781 12.417969 Z M 5.871094 11.65625 C 5.875 11.238281 6.214844 10.898438 6.628906 10.894531 C 7.046875 10.898438 7.386719 11.238281 7.386719 11.65625 C 7.386719 12.078125 7.046875 12.417969 6.628906 12.417969 C 6.214844 12.417969 5.875 12.078125 5.871094 11.65625 Z M 5.871094 11.65625 " fill="#FFFFFF"/>
  </g>
</svg>