<svg xmlns="http://www.w3.org/2000/svg" xlink="http://www.w3.org/1999/xlink" width="20px" height="20px" viewBox="0 0 15 15" version="1.1">
  <g id="surface1">
    <path d="M 14.398438 12.300781 C 14.101562 12.300781 13.84375 12.230469 13.578125 12.117188 C 13.304688 11.992188 13.023438 11.917969 12.703125 11.917969 C 12.382812 11.917969 12.085938 11.992188 11.816406 12.117188 C 11.550781 12.230469 11.257812 12.300781 10.949219 12.300781 C 10.636719 12.300781 10.34375 12.230469 10.074219 12.117188 C 9.800781 11.992188 9.496094 11.917969 9.179688 11.917969 C 8.855469 11.917969 8.550781 11.992188 8.277344 12.117188 C 8.011719 12.234375 7.710938 12.300781 7.402344 12.300781 C 7.09375 12.300781 6.792969 12.230469 6.527344 12.117188 C 6.253906 11.992188 5.949219 11.917969 5.628906 11.917969 C 5.308594 11.917969 5 11.992188 4.726562 12.117188 C 4.460938 12.230469 4.164062 12.300781 3.855469 12.300781 C 3.542969 12.300781 3.246094 12.230469 2.976562 12.117188 C 2.707031 11.992188 2.398438 11.917969 2.078125 11.917969 C 1.757812 11.917969 1.449219 11.992188 1.175781 12.117188 C 0.910156 12.230469 0.601562 12.300781 0.300781 12.300781 L 0.300781 11.019531 C 0.601562 11.019531 0.910156 10.949219 1.175781 10.832031 C 1.449219 10.710938 1.757812 10.636719 2.078125 10.636719 C 2.398438 10.636719 2.707031 10.710938 2.976562 10.832031 C 3.246094 10.949219 3.542969 11.019531 3.855469 11.019531 C 4.164062 11.019531 4.460938 10.949219 4.726562 10.832031 C 5 10.710938 5.308594 10.636719 5.628906 10.636719 C 5.949219 10.636719 6.253906 10.710938 6.527344 10.832031 C 6.792969 10.949219 7.09375 11.019531 7.402344 11.019531 C 7.714844 11.019531 8.011719 10.949219 8.277344 10.832031 C 8.550781 10.710938 8.859375 10.636719 9.179688 10.636719 C 9.5 10.636719 9.804688 10.710938 10.078125 10.832031 C 10.347656 10.949219 10.644531 11.019531 10.953125 11.019531 C 11.265625 11.019531 11.5625 10.949219 11.828125 10.832031 C 12.101562 10.710938 12.410156 10.636719 12.730469 10.636719 C 13.050781 10.636719 13.304688 10.710938 13.578125 10.832031 C 13.84375 10.949219 14.101562 11.019531 14.398438 11.019531 Z M 0.308594 6.898438 L 0.304688 9.871094 C 0.613281 9.871094 0.910156 9.78125 1.175781 9.664062 C 1.449219 9.539062 1.757812 9.453125 2.078125 9.453125 C 2.398438 9.453125 2.707031 9.519531 2.976562 9.644531 C 3.246094 9.761719 3.542969 9.824219 3.855469 9.824219 C 4.164062 9.824219 4.460938 9.753906 4.726562 9.636719 C 5 9.515625 5.308594 9.441406 5.628906 9.441406 C 5.949219 9.441406 6.253906 9.511719 6.527344 9.636719 C 6.792969 9.753906 7.09375 9.820312 7.402344 9.820312 C 7.710938 9.820312 8.011719 9.753906 8.277344 9.636719 C 8.550781 9.511719 8.859375 9.441406 9.179688 9.441406 C 9.5 9.441406 9.804688 9.511719 10.078125 9.636719 C 10.347656 9.753906 10.644531 9.820312 10.953125 9.820312 C 11.042969 9.820312 11.125 9.800781 11.210938 9.792969 C 11.367188 9.761719 11.527344 9.746094 11.679688 9.6875 L 11.6875 9.679688 C 12.816406 9.234375 13.789062 8.175781 14.394531 7.351562 L 14.699219 6.898438 Z M 8.339844 3.601562 L 10.453125 3.601562 C 10.476562 3.601562 11.023438 3.515625 11.207031 3.914062 L 12.003906 5.699219 L 9.296875 5.699219 Z M 2.699219 5.515625 C 2.699219 5.65625 2.585938 5.699219 2.445312 5.699219 L 1.28125 5.699219 C 1.140625 5.699219 0.898438 5.65625 0.898438 5.515625 L 0.898438 3.796875 C 0.898438 3.65625 1.140625 3.601562 1.28125 3.601562 L 2.441406 3.601562 C 2.585938 3.601562 2.699219 3.65625 2.699219 3.796875 Z M 7.5 5.515625 C 7.5 5.65625 7.375 5.699219 7.230469 5.699219 L 6.070312 5.699219 C 5.929688 5.699219 5.699219 5.65625 5.699219 5.515625 L 5.699219 3.796875 C 5.699219 3.65625 5.929688 3.601562 6.070312 3.601562 L 7.230469 3.601562 C 7.375 3.601562 7.5 3.65625 7.5 3.796875 Z M 5.101562 5.515625 C 5.101562 5.65625 4.976562 5.699219 4.832031 5.699219 L 3.679688 5.699219 C 3.535156 5.699219 3.300781 5.65625 3.300781 5.515625 L 3.300781 3.796875 C 3.300781 3.65625 3.535156 3.601562 3.679688 3.601562 L 4.832031 3.601562 C 4.976562 3.601562 5.101562 3.65625 5.101562 3.796875 Z M 11.5625 3.390625 C 11.21875 2.640625 10.285156 2.699219 10.285156 2.699219 L 0.300781 2.699219 L 0.300781 6.300781 L 12.816406 6.300781 Z M 11.5625 3.390625 " fill="#FFFFFF"/>
  </g>
</svg>