<svg version="1.1" xmlns="http://www.w3.org/2000/svg" xlink="http://www.w3.org/1999/xlink" x="0px" y="0px" width="15px" height="15px" viewBox="0 0 15 15" style="enable-background:new 0 0 15 15;" space="preserve">
    <path d="M10.433594,2L8.347656,2C7.972656,2,7.984375,2.5625,8.347656,2.558594L10.433594,2.558594L10.433594,2.847656L8.347656,2.847656C7.972656,2.84375,7.988281,3.402344,8.347656,3.40625L10.433594,3.40625L10.433594,3.699219L8.347656,3.699219C7.972656,3.699219,7.988281,4.257812,8.347656,4.257812L10.433594,4.257812L10.433594,4.539062L8.347656,4.539062C7.980469,4.539062,7.988281,5.101562,8.347656,5.105469L10.433594,5.105469L10.433594,5.382812L8.347656,5.382812C7.980469,5.382812,7.980469,5.945312,8.347656,5.945312L10.433594,5.945312L10.433594,6.222656L8.347656,6.222656C7.980469,6.222656,7.980469,6.785156,8.347656,6.78125L10.433594,6.78125L10.433594,7.070312L8.347656,7.070312C7.980469,7.066406,7.980469,7.625,8.347656,7.628906L10.433594,7.628906L10.433594,7.90625L8.347656,7.90625C7.980469,7.90625,7.988281,8.46875,8.347656,8.46875L10.433594,8.46875L10.433594,13.914062C10.433594,14.746094,11.695312,14.730469,11.699219,13.914062L11.699219,1.167969C11.695312,0.789062,11.386719,0.308594,10.871094,0.308594L8.347656,0.308594C7.972656,0.308594,7.984375,0.867188,8.347656,0.867188L10.433594,0.875L10.433594,1.152344L8.347656,1.152344C7.972656,1.152344,7.988281,1.710938,8.347656,1.710938L10.433594,1.710938ZM8.207031,11.65625C8.203125,10.6875,7.199219,9.644531,6,10.320312L6,6.613281L5.222656,0.503906C5.207031,0.339844,5.070312,0.300781,4.976562,0.300781C4.882812,0.300781,4.691406,0.339844,4.671875,0.503906L3.898438,6.613281L3.898438,10.320312C2.699219,9.644531,1.726562,10.695312,1.726562,11.648438C1.726562,12.5,2.382812,13.199219,3.265625,13.195312C4.160156,13.199219,4.800781,12.414062,4.800781,11.648438L4.800781,7.800781L5.101562,7.800781L5.101562,11.648438C5.101562,12.507812,5.761719,13.140625,6.5,13.179688C6.488281,13.652344,6.640625,14.320312,6.929688,14.585938C7.269531,14.898438,7.671875,14.5,7.507812,14.175781C7.347656,13.871094,7.191406,13.695312,7.316406,13.03125C7.847656,12.789062,8.203125,12.269531,8.207031,11.65625ZM3.300781,12.417969C2.882812,12.417969,2.542969,12.078125,2.542969,11.65625C2.542969,11.238281,2.882812,10.898438,3.300781,10.894531C3.71875,10.898438,4.054688,11.238281,4.058594,11.65625C4.054688,12.078125,3.71875,12.417969,3.300781,12.417969ZM5.871094,11.65625C5.875,11.238281,6.214844,10.898438,6.628906,10.894531C7.046875,10.898438,7.386719,11.238281,7.386719,11.65625C7.386719,12.078125,7.046875,12.417969,6.628906,12.417969C6.214844,12.417969,5.875,12.078125,5.871094,11.65625ZM5.871094,11.65625" fill="#FFFFFF"/>
    </svg>