<svg xmlns="http://www.w3.org/2000/svg" xlink="http://www.w3.org/1999/xlink" width="20px" height="20px" viewBox="0 0 15 15" version="1.1">
  <g id="surface1">
    <path d="M 8.800781 4.082031 C 9.371094 4.082031 9.832031 3.578125 9.832031 2.953125 C 9.832031 2.332031 9.371094 1.824219 8.800781 1.824219 C 8.230469 1.824219 7.765625 2.332031 7.765625 2.953125 C 7.765625 3.578125 8.230469 4.082031 8.800781 4.082031 Z M 11.664062 13.945312 L 10.199219 9 L 10.199219 5.101562 C 10.199219 4.570312 9.597656 4.5 9.597656 4.5 L 7.628906 4.5 C 7.628906 4.5 7.371094 4.648438 7.199219 4.800781 L 6.230469 5.242188 L 5.035156 3.914062 C 4.839844 3.660156 4.496094 3.613281 4.265625 3.828125 C 4.03125 4.039062 4.019531 4.421875 4.210938 4.675781 L 5.738281 6.34375 C 5.839844 6.464844 5.984375 6.542969 6.144531 6.542969 C 6.265625 6.542969 6.089844 6.5 6.179688 6.433594 L 7.199219 6 L 7.199219 9 L 5.648438 13.933594 C 5.535156 14.382812 5.921875 14.839844 6.332031 14.960938 C 6.738281 15.082031 7.230469 14.816406 7.34375 14.367188 L 8.722656 9.933594 L 10.109375 14.378906 C 10.21875 14.828125 10.675781 15.089844 11.085938 14.972656 C 11.492188 14.851562 11.777344 14.390625 11.664062 13.945312 Z M 3.941406 5.242188 C 3.992188 5.300781 4.082031 5.300781 4.136719 5.242188 L 4.15625 5.226562 C 4.207031 5.164062 4.210938 5.070312 4.15625 5.011719 L 3.855469 4.675781 C 3.800781 4.617188 3.710938 4.617188 3.65625 4.675781 L 3.640625 4.691406 C 3.585938 4.753906 3.585938 4.847656 3.640625 4.90625 Z M 6.796875 1.449219 L 5.035156 3.535156 L 5.25 3.773438 L 7.214844 1.917969 L 8.523438 0.601562 C 8.574219 0.539062 8.609375 0.457031 8.609375 0.363281 C 8.609375 0.164062 8.460938 0 8.28125 0 C 8.195312 0 8.117188 0.0351562 8.058594 0.09375 Z M 6.796875 1.449219 " fill="#FFFFFF"/>
  </g>
</svg>