<svg version="1.1" xmlns="http://www.w3.org/2000/svg" xlink="http://www.w3.org/1999/xlink" x="0px" y="0px" width="15px" height="15px" viewBox="0 0 15 15" style="enable-background:new 0 0 15 15;" space="preserve">
    <path d="M12.300781,12L12.300781,1.800781C12.300781,1.140625,11.761719,0.601562,11.101562,0.601562L3.898438,0.601562C3.238281,0.601562,2.699219,1.140625,2.699219,1.800781L2.699219,13.199219C2.699219,13.859375,3.238281,14.398438,3.898438,14.398438L11.101562,14.398438C11.65625,14.398438,12.300781,14.398438,12.300781,13.800781L12.300781,13.5L4.199219,13.5C3.871094,13.5,3.601562,13.230469,3.601562,12.898438L3.601562,12ZM4.199219,3C4.199219,2.835938,4.335938,2.699219,4.5,2.699219L10.5,2.699219C10.664062,2.699219,10.800781,2.835938,10.800781,3L10.800781,3.601562C10.800781,3.765625,10.664062,3.898438,10.5,3.898438L4.5,3.898438C4.335938,3.898438,4.199219,3.765625,4.199219,3.601562ZM4.199219,5.398438C4.199219,5.234375,4.335938,5.101562,4.5,5.101562L10.5,5.101562C10.664062,5.101562,10.800781,5.234375,10.800781,5.398438L10.800781,6C10.800781,6.164062,10.664062,6.300781,10.5,6.300781L4.5,6.300781C4.335938,6.300781,4.199219,6.164062,4.199219,6ZM4.199219,5.398438" fill="#FFFFFF"/>
    </svg>