<svg xmlns="http://www.w3.org/2000/svg" xlink="http://www.w3.org/1999/xlink" width="20px" height="20px" viewBox="0 0 15 15" version="1.1">
  <g id="surface1">
    <path d="M 1.199219 12 L 2.667969 12 C 3.21875 12 3.59375 12.195312 3.59375 12.738281 C 3.59375 13.023438 3.453125 13.230469 3.203125 13.355469 C 3.554688 13.453125 3.734375 13.761719 3.734375 14.125 C 3.734375 14.714844 3.234375 15 2.707031 15 L 1.199219 15 Z M 1.800781 13.199219 L 2.585938 13.199219 C 2.808594 13.199219 2.976562 13.136719 2.976562 12.894531 C 2.976562 12.617188 2.761719 12.601562 2.539062 12.601562 L 1.800781 12.601562 Z M 1.800781 14.398438 L 2.621094 14.398438 C 2.875 14.398438 3.097656 14.269531 3.097656 13.964844 C 3.097656 13.667969 2.910156 13.5 2.636719 13.5 L 1.800781 13.5 Z M 4.199219 12.898438 L 4.800781 12.898438 L 4.800781 13.199219 L 4.804688 13.199219 C 4.914062 12.898438 5.246094 12.765625 5.527344 12.765625 C 5.566406 12.765625 5.699219 12.789062 5.699219 12.800781 L 5.699219 13.339844 C 5.398438 13.324219 5.5 13.320312 5.433594 13.320312 C 5.007812 13.320312 4.800781 13.625 4.800781 13.996094 L 4.800781 15 L 4.199219 15 Z M 5.949219 13.5 C 5.980469 12.898438 6.4375 12.789062 6.90625 12.789062 C 7.328125 12.789062 7.800781 12.875 7.800781 13.378906 L 7.800781 14.476562 C 7.800781 14.664062 7.882812 15 7.933594 15 L 7.351562 15 C 7.332031 15 7.3125 14.835938 7.308594 14.769531 C 7.125 14.960938 6.855469 15.015625 6.601562 15.015625 C 6.203125 15.015625 5.886719 14.808594 5.886719 14.375 C 5.886719 13.898438 6.242188 13.785156 6.601562 13.734375 C 6.957031 13.683594 7.285156 13.691406 7.285156 13.453125 C 7.285156 13.207031 7.117188 13.175781 6.910156 13.175781 C 6.691406 13.175781 6.550781 13.199219 6.527344 13.5 Z M 7.199219 13.914062 C 7.199219 13.996094 6.941406 14 6.761719 14.035156 C 6.582031 14.070312 6.441406 14.132812 6.441406 14.34375 C 6.441406 14.558594 6.578125 14.613281 6.765625 14.613281 C 7.21875 14.613281 7.199219 14.253906 7.199219 14.128906 Z M 9.050781 12.511719 L 8.46875 12.511719 L 8.46875 12.035156 L 9.050781 12.035156 Z M 8.398438 12.898438 L 9 12.898438 L 9 15 L 8.398438 15 Z M 9.601562 12 L 10.199219 12 L 10.199219 15 L 9.601562 15 Z M 10.800781 12 L 11.398438 12 L 11.398438 15 L 10.800781 15 Z M 12.507812 14.101562 C 12.527344 14.398438 12.703125 14.652344 13.027344 14.652344 C 13.257812 14.652344 13.445312 14.398438 13.480469 14.398438 L 13.992188 14.398438 C 13.828125 14.699219 13.480469 15.054688 13.007812 15.054688 C 12.34375 15.054688 11.933594 14.570312 11.933594 13.917969 C 11.933594 13.289062 12.367188 12.828125 13.007812 12.828125 C 13.722656 12.828125 14.070312 13.5 14.03125 14.101562 Z M 13.449219 13.800781 C 13.398438 13.5 13.273438 13.351562 12.992188 13.351562 C 12.621094 13.351562 12.515625 13.5 12.507812 13.800781 Z M 13.449219 13.800781 " fill="#FFFFFF"/>
    <path d="M 5.398438 9.75 C 5.398438 10.328125 4.929688 10.800781 4.351562 10.800781 C 3.769531 10.800781 3.300781 10.328125 3.300781 9.75 C 3.300781 9.171875 3.769531 8.699219 4.351562 8.699219 C 4.929688 8.699219 5.398438 9.171875 5.398438 9.75 Z M 5.398438 9.75 " fill="#FFFFFF"/>
    <path d="M 5.398438 5.550781 C 5.398438 6.128906 4.929688 6.601562 4.351562 6.601562 C 3.769531 6.601562 3.300781 6.128906 3.300781 5.550781 C 3.300781 4.96875 3.769531 4.5 4.351562 4.5 C 4.929688 4.5 5.398438 4.96875 5.398438 5.550781 Z M 5.398438 5.550781 " fill="#FFFFFF"/>
    <path d="M 5.398438 1.351562 C 5.398438 1.929688 4.929688 2.398438 4.351562 2.398438 C 3.769531 2.398438 3.300781 1.929688 3.300781 1.351562 C 3.300781 0.769531 3.769531 0.300781 4.351562 0.300781 C 4.929688 0.300781 5.398438 0.769531 5.398438 1.351562 Z M 5.398438 1.351562 " fill="#FFFFFF"/>
    <path d="M 11.699219 9.75 C 11.699219 10.328125 11.230469 10.800781 10.648438 10.800781 C 10.070312 10.800781 9.601562 10.328125 9.601562 9.75 C 9.601562 9.171875 10.070312 8.699219 10.648438 8.699219 C 11.230469 8.699219 11.699219 9.171875 11.699219 9.75 Z M 11.699219 9.75 " fill="#FFFFFF"/>
    <path d="M 11.699219 5.550781 C 11.699219 6.128906 11.230469 6.601562 10.648438 6.601562 C 10.070312 6.601562 9.601562 6.128906 9.601562 5.550781 C 9.601562 4.96875 10.070312 4.5 10.648438 4.5 C 11.230469 4.5 11.699219 4.96875 11.699219 5.550781 Z M 11.699219 5.550781 " fill="#FFFFFF"/>
    <path d="M 11.699219 1.351562 C 11.699219 1.929688 11.230469 2.398438 10.648438 2.398438 C 10.070312 2.398438 9.601562 1.929688 9.601562 1.351562 C 9.601562 0.769531 10.070312 0.300781 10.648438 0.300781 C 11.230469 0.300781 11.699219 0.769531 11.699219 1.351562 Z M 11.699219 1.351562 " fill="#FFFFFF"/>
  </g>
</svg>