<svg xmlns="http://www.w3.org/2000/svg" xlink="http://www.w3.org/1999/xlink" width="20px" height="20px" viewBox="0 0 15 15" version="1.1">
  <g id="surface1">
    <path d="M 10.40625 7.742188 C 9.972656 7.398438 9.324219 7.128906 8.460938 6.925781 L 7.800781 6.769531 L 7.800781 3.941406 L 7.890625 3.976562 C 8.453125 4.261719 8.753906 4.800781 8.796875 5.398438 L 11.050781 5.398438 C 11.007812 4.199219 10.566406 3.3125 9.71875 2.6875 C 9.15625 2.269531 8.515625 2 7.800781 1.867188 L 7.800781 0.300781 L 5.699219 0.300781 L 5.699219 1.816406 C 4.730469 1.9375 3.957031 2.25 3.394531 2.757812 C 2.652344 3.425781 2.28125 4.257812 2.28125 5.265625 C 2.28125 6.367188 2.660156 7.175781 3.417969 7.695312 C 3.839844 7.988281 4.605469 8.261719 5.699219 8.515625 L 5.699219 11.578125 C 5.300781 11.46875 4.988281 11.289062 4.765625 11.027344 C 4.554688 10.769531 4.410156 10.5 4.339844 9.898438 L 2.101562 9.898438 C 2.101562 11.101562 2.523438 11.960938 3.371094 12.628906 C 3.980469 13.109375 4.761719 13.402344 5.699219 13.53125 L 5.699219 14.699219 L 7.800781 14.699219 L 7.800781 13.550781 C 8.800781 13.429688 9.605469 13.109375 10.21875 12.589844 C 11.011719 11.910156 11.40625 11.058594 11.40625 10.03125 C 11.40625 9.03125 11.074219 8.269531 10.40625 7.742188 Z M 5 5.996094 C 4.636719 5.796875 4.453125 5.496094 4.453125 5.09375 C 4.453125 4.660156 4.636719 4.316406 5.007812 4.074219 C 5.203125 3.945312 5.433594 3.851562 5.699219 3.789062 L 5.699219 6.253906 C 5.375 6.160156 5.140625 6.074219 5 5.996094 Z M 8.144531 11.515625 C 8.039062 11.554688 7.921875 11.582031 7.800781 11.609375 L 7.800781 9 C 8.160156 9.105469 8.445312 9.222656 8.65625 9.347656 C 8.980469 9.550781 9.144531 9.839844 9.144531 10.210938 C 9.144531 10.847656 8.8125 11.285156 8.144531 11.515625 Z M 8.144531 11.515625 " fill="#FFFFFF"/>
  </g>
</svg>