<svg xmlns="http://www.w3.org/2000/svg" xlink="http://www.w3.org/1999/xlink" width="20px" height="20px" viewBox="0 0 15 15" version="1.1">
  <g id="surface1">
    <path d="M 2.550781 2.128906 L 5.417969 2.917969 L 7.011719 1.800781 L 7.566406 1.9375 L 5.988281 3.058594 L 14.683594 5.476562 L 14.046875 7.839844 L 5.320312 5.429688 C 1.9375 4.410156 2.554688 2.128906 2.554688 2.128906 " fill="#FFFFFF"/>
    <path d="M 10.1875 8.175781 C 10.175781 7.980469 10.140625 7.792969 10.074219 7.613281 L 14.058594 8.722656 L 13.929688 9.214844 Z M 6.566406 7.179688 C 6.675781 7.023438 6.800781 6.878906 6.945312 6.757812 L 0.300781 4.921875 L 0.300781 5.453125 Z M 8.214844 8.929688 C 8.570312 8.929688 8.859375 8.636719 8.859375 8.28125 C 8.859375 7.921875 8.570312 7.632812 8.214844 7.632812 C 7.855469 7.632812 7.566406 7.921875 7.566406 8.28125 C 7.566406 8.636719 7.855469 8.929688 8.214844 8.929688 Z M 14.699219 12.898438 C 14.382812 12.898438 14.085938 12.828125 13.816406 12.707031 C 13.539062 12.578125 13.226562 12.503906 12.902344 12.503906 C 12.578125 12.503906 12.265625 12.578125 11.992188 12.707031 C 11.722656 12.828125 11.421875 12.898438 11.105469 12.898438 C 10.789062 12.898438 10.488281 12.828125 10.21875 12.707031 C 9.945312 12.578125 9.632812 12.503906 9.308594 12.503906 C 8.984375 12.503906 8.671875 12.578125 8.394531 12.707031 C 8.128906 12.828125 7.824219 12.898438 7.511719 12.898438 C 7.195312 12.898438 6.894531 12.828125 6.625 12.707031 C 6.347656 12.578125 6.035156 12.503906 5.710938 12.503906 C 5.386719 12.503906 5.074219 12.578125 4.800781 12.707031 C 4.53125 12.828125 4.226562 12.898438 3.914062 12.898438 C 3.601562 12.898438 3.300781 12.828125 3.027344 12.707031 C 2.753906 12.578125 2.441406 12.503906 2.117188 12.503906 C 1.792969 12.503906 1.480469 12.578125 1.207031 12.707031 C 0.9375 12.828125 0.632812 12.898438 0.320312 12.898438 L 0.300781 7.617188 L 7.566406 9.625 C 7.066406 9.382812 6.71875 8.875 6.71875 8.28125 C 6.71875 7.453125 7.386719 6.785156 8.210938 6.785156 C 9.035156 6.785156 9.707031 7.453125 9.707031 8.28125 C 9.707031 9.105469 9.035156 9.773438 8.210938 9.773438 L 8.066406 9.761719 L 14.6875 11.585938 Z M 14.699219 12.898438 " fill="#FFFFFF"/>
  </g>
</svg>