<?xml version="1.0" encoding="UTF-8" standalone="yes"?>
<svg xmlns="http://www.w3.org/2000/svg" xmlns:xlink="http://www.w3.org/1999/xlink" width="20px" height="20px" viewBox="0 0 15 15" version="1.1">
  <g id="surface1">
    <path style=" stroke:none;fill-rule:nonzero;fill:rgb(0%,0%,0%);fill-opacity:1;" d="M 12.300781 12 L 12.300781 1.800781 C 12.300781 1.140625 11.761719 0.601562 11.101562 0.601562 L 3.898438 0.601562 C 3.238281 0.601562 2.699219 1.140625 2.699219 1.800781 L 2.699219 13.199219 C 2.699219 13.859375 3.238281 14.398438 3.898438 14.398438 L 11.101562 14.398438 C 11.65625 14.398438 12.300781 14.398438 12.300781 13.800781 L 12.300781 13.5 L 4.199219 13.5 C 3.871094 13.5 3.601562 13.230469 3.601562 12.898438 L 3.601562 12 Z M 4.199219 3 C 4.199219 2.835938 4.335938 2.699219 4.5 2.699219 L 10.5 2.699219 C 10.664062 2.699219 10.800781 2.835938 10.800781 3 L 10.800781 3.601562 C 10.800781 3.765625 10.664062 3.898438 10.5 3.898438 L 4.5 3.898438 C 4.335938 3.898438 4.199219 3.765625 4.199219 3.601562 Z M 4.199219 5.398438 C 4.199219 5.234375 4.335938 5.101562 4.5 5.101562 L 10.5 5.101562 C 10.664062 5.101562 10.800781 5.234375 10.800781 5.398438 L 10.800781 6 C 10.800781 6.164062 10.664062 6.300781 10.5 6.300781 L 4.5 6.300781 C 4.335938 6.300781 4.199219 6.164062 4.199219 6 Z M 4.199219 5.398438 "/>
  </g>
</svg>