<svg xmlns="http://www.w3.org/2000/svg" xlink="http://www.w3.org/1999/xlink" width="20px" height="20px" viewBox="0 0 15 15" version="1.1">
  <g id="surface1">
    <path d="M 12.300781 5.699219 L 12.21875 5.699219 C 12.195312 5.660156 12.171875 5.625 12.136719 5.589844 L 8.675781 1.878906 C 8.691406 1.804688 8.699219 1.730469 8.699219 1.648438 C 8.699219 1.070312 8.273438 0.601562 7.746094 0.601562 L 6.65625 0.601562 C 6.128906 0.601562 5.699219 1.070312 5.699219 1.648438 C 5.699219 1.730469 5.710938 1.804688 5.722656 1.878906 L 2.261719 5.589844 C 2.230469 5.625 2.203125 5.660156 2.179688 5.699219 L 0.601562 5.699219 L 0.601562 7.800781 L 1.199219 7.800781 L 1.199219 12.300781 C 1.199219 13.128906 1.871094 13.800781 2.699219 13.800781 L 12.300781 13.800781 C 13.128906 13.800781 13.800781 13.128906 13.800781 12.300781 L 13.800781 7.800781 L 14.398438 7.800781 L 14.398438 5.699219 Z M 6.65625 2.699219 L 7.746094 2.699219 L 7.792969 2.695312 L 10.597656 5.699219 L 3.800781 5.699219 L 6.605469 2.695312 Z M 3.898438 12 C 3.898438 12.328125 3.628906 12.601562 3.300781 12.601562 C 2.96875 12.601562 2.699219 12.328125 2.699219 12 L 2.699219 8.398438 C 2.699219 8.070312 2.96875 7.800781 3.300781 7.800781 C 3.628906 7.800781 3.898438 8.070312 3.898438 8.398438 Z M 6.601562 12 C 6.601562 12.328125 6.328125 12.601562 6 12.601562 C 5.671875 12.601562 5.398438 12.328125 5.398438 12 L 5.398438 8.398438 C 5.398438 8.070312 5.671875 7.800781 6 7.800781 C 6.328125 7.800781 6.601562 8.070312 6.601562 8.398438 Z M 9.601562 12 C 9.601562 12.328125 9.328125 12.601562 9 12.601562 C 8.671875 12.601562 8.398438 12.328125 8.398438 12 L 8.398438 8.398438 C 8.398438 8.070312 8.671875 7.800781 9 7.800781 C 9.328125 7.800781 9.601562 8.070312 9.601562 8.398438 Z M 12.300781 12 C 12.300781 12.328125 12.03125 12.601562 11.699219 12.601562 C 11.371094 12.601562 11.101562 12.328125 11.101562 12 L 11.101562 8.398438 C 11.101562 8.070312 11.371094 7.800781 11.699219 7.800781 C 12.03125 7.800781 12.300781 8.070312 12.300781 8.398438 Z M 12.300781 12 " fill="#FFFFFF"/>
  </g>
</svg>