<?xml version="1.0" encoding="UTF-8" standalone="yes"?>
<svg xmlns="http://www.w3.org/2000/svg" xmlns:xlink="http://www.w3.org/1999/xlink" width="20px" height="20px" viewBox="0 0 15 15" version="1.1">
  <g id="surface1">
    <path style=" stroke:none;fill-rule:nonzero;fill:rgb(13.72549%,12.156863%,12.54902%);fill-opacity:1;" d="M 5.230469 3.867188 C 5.96875 3.867188 6.566406 3.269531 6.566406 2.53125 C 6.566406 1.796875 5.96875 1.199219 5.230469 1.199219 C 4.492188 1.199219 3.894531 1.796875 3.894531 2.53125 C 3.894531 3.269531 4.492188 3.867188 5.230469 3.867188 Z M 0.300781 11.148438 C 0.601562 11.148438 0.914062 11.078125 1.183594 10.957031 C 1.460938 10.828125 1.773438 10.753906 2.097656 10.753906 C 2.421875 10.753906 2.734375 10.828125 3.011719 10.957031 C 3.28125 11.078125 3.585938 11.148438 3.902344 11.148438 C 4.214844 11.148438 4.515625 11.078125 4.785156 10.957031 C 5.0625 10.828125 5.375 10.753906 5.699219 10.753906 C 6.023438 10.753906 6.335938 10.828125 6.613281 10.957031 C 6.882812 11.078125 7.1875 11.148438 7.5 11.148438 C 7.8125 11.148438 8.117188 11.078125 8.386719 10.957031 C 8.664062 10.828125 8.976562 10.753906 9.300781 10.753906 C 9.625 10.753906 9.9375 10.828125 10.214844 10.957031 C 10.484375 11.078125 10.785156 11.148438 11.101562 11.148438 C 11.417969 11.148438 11.71875 11.078125 11.988281 10.957031 C 12.265625 10.828125 12.574219 10.753906 12.898438 10.753906 C 13.179688 10.753906 13.449219 10.808594 13.691406 10.902344 C 14.089844 10.46875 14.335938 9.894531 14.335938 9.265625 C 14.335938 7.921875 13.246094 6.835938 11.902344 6.835938 L 11.628906 6.863281 C 11.332031 8.074219 10.117188 8.125 10.117188 8.125 L 4.558594 8.125 L 4.09375 7.851562 L 5.214844 5.976562 L 6.441406 6.683594 C 7.175781 7.160156 7.558594 6.492188 7.558594 6.492188 L 8.789062 4.492188 C 9.320312 3.625 8.1875 2.929688 7.65625 3.800781 L 6.796875 5.203125 L 4.75 4.074219 C 3.332031 3.285156 2.734375 4.589844 2.734375 4.589844 L 1.125 7.335938 C 0.851562 7.90625 1.09375 8.152344 1.09375 8.152344 L 0.300781 8.152344 Z M 14.699219 13.800781 C 14.386719 13.800781 14.082031 13.730469 13.816406 13.609375 C 13.539062 13.480469 13.226562 13.40625 12.898438 13.40625 C 12.574219 13.40625 12.265625 13.480469 11.988281 13.609375 C 11.71875 13.730469 11.417969 13.800781 11.101562 13.800781 C 10.785156 13.800781 10.484375 13.730469 10.214844 13.609375 C 9.9375 13.480469 9.625 13.40625 9.300781 13.40625 C 8.976562 13.40625 8.664062 13.480469 8.386719 13.609375 C 8.117188 13.730469 7.8125 13.800781 7.5 13.800781 C 7.1875 13.800781 6.882812 13.730469 6.613281 13.609375 C 6.335938 13.480469 6.023438 13.40625 5.699219 13.40625 C 5.375 13.40625 5.0625 13.480469 4.785156 13.609375 C 4.515625 13.730469 4.214844 13.800781 3.902344 13.800781 C 3.585938 13.800781 3.28125 13.730469 3.011719 13.609375 C 2.734375 13.480469 2.425781 13.40625 2.097656 13.40625 C 1.773438 13.40625 1.460938 13.480469 1.1875 13.609375 C 0.917969 13.730469 0.613281 13.800781 0.300781 13.800781 L 0.300781 12.476562 C 0.613281 12.476562 0.917969 12.402344 1.1875 12.28125 C 1.460938 12.15625 1.773438 12.078125 2.097656 12.078125 C 2.425781 12.078125 2.738281 12.15625 3.011719 12.28125 C 3.28125 12.402344 3.585938 12.476562 3.902344 12.476562 C 4.214844 12.476562 4.515625 12.402344 4.785156 12.28125 C 5.0625 12.15625 5.375 12.078125 5.699219 12.078125 C 6.023438 12.078125 6.335938 12.15625 6.613281 12.28125 C 6.882812 12.402344 7.1875 12.476562 7.5 12.476562 C 7.8125 12.476562 8.117188 12.402344 8.386719 12.28125 C 8.664062 12.15625 8.976562 12.078125 9.300781 12.078125 C 9.625 12.078125 9.9375 12.15625 10.214844 12.28125 C 10.484375 12.402344 10.785156 12.476562 11.101562 12.476562 C 11.417969 12.476562 11.71875 12.402344 11.988281 12.28125 C 12.265625 12.15625 12.574219 12.078125 12.898438 12.078125 C 13.226562 12.078125 13.539062 12.15625 13.816406 12.28125 C 14.082031 12.402344 14.386719 12.476562 14.699219 12.476562 Z M 14.699219 13.800781 "/>
  </g>
</svg>