<svg version="1.1" xmlns="http://www.w3.org/2000/svg" xlink="http://www.w3.org/1999/xlink" x="0px" y="0px" width="15px" height="15px" viewBox="0 0 15 15" style="enable-background:new 0 0 15 15;" space="preserve">
    <path d="M7.5,1.800781C7.121094,1.800781,6.949219,1.984375,6.835938,2.1875L2.125,11.058594L1.105469,11.058594C0.660156,11.058594,0.300781,11.402344,0.300781,11.828125C0.300781,12.253906,0.660156,12.601562,1.105469,12.601562L13.894531,12.601562C14.339844,12.601562,14.699219,12.253906,14.699219,11.828125C14.699219,11.402344,14.339844,11.058594,13.894531,11.058594L12.875,11.058594L8.164062,2.183594C8.050781,1.984375,7.878906,1.800781,7.5,1.800781ZM7.5,5.65625L10.152344,11.058594L4.847656,11.058594ZM7.5,5.65625" fill="#FFFFFF"/>
    </svg>