<?xml version="1.0" encoding="UTF-8" standalone="yes"?>
<svg xmlns="http://www.w3.org/2000/svg" xmlns:xlink="http://www.w3.org/1999/xlink" width="20px" height="20px" viewBox="0 0 15 15" version="1.1">
  <g id="surface1">
    <path style=" stroke:none;fill-rule:nonzero;fill:rgb(0%,0%,0%);fill-opacity:1;" d="M 2.324219 6.539062 L 3.367188 6.539062 L 3.367188 13.261719 L 4.9375 13.261719 L 4.9375 7.5 L 6.503906 7.5 L 6.503906 13.261719 L 8.074219 13.261719 L 8.074219 7.5 L 9.644531 7.5 L 9.644531 13.261719 L 11.210938 13.261719 L 11.210938 6.539062 L 12.257812 6.539062 C 12.546875 6.539062 12.78125 6.324219 12.78125 6.058594 C 12.78125 5.898438 12.695312 5.757812 12.5625 5.671875 L 12.554688 5.667969 L 12.542969 5.660156 L 7.550781 3.074219 L 7.550781 2.320312 C 8.472656 2.742188 9.230469 2.011719 10.425781 2.453125 L 10.425781 0.78125 C 9.230469 0.339844 8.472656 1.070312 7.550781 0.648438 L 7.550781 0.539062 C 7.550781 0.40625 7.433594 0.300781 7.289062 0.300781 C 7.144531 0.300781 7.027344 0.40625 7.027344 0.539062 L 7.027344 3.074219 L 2.039062 5.65625 L 2.023438 5.664062 L 2.015625 5.671875 C 1.886719 5.757812 1.800781 5.898438 1.800781 6.058594 C 1.800781 6.324219 2.035156 6.539062 2.324219 6.539062 Z M 2.84375 13.742188 L 1.800781 14.699219 L 12.78125 14.699219 L 11.734375 13.742188 Z M 2.84375 13.742188 "/>
  </g>
</svg>