<?xml version="1.0" encoding="UTF-8" standalone="yes"?>
<svg xmlns="http://www.w3.org/2000/svg" xmlns:xlink="http://www.w3.org/1999/xlink" width="20px" height="20px" viewBox="0 0 15 15" version="1.1">
  <g id="surface1">
    <path style=" stroke:none;fill-rule:nonzero;fill:rgb(0%,0%,0%);fill-opacity:1;" d="M 12.898438 1.800781 L 12.898438 0.601562 L 2.101562 0.601562 L 2.101562 1.800781 L 0 1.800781 L 0 14.699219 L 1.199219 14.699219 L 1.199219 3 L 2.101562 3 L 2.101562 4.199219 L 12.898438 4.199219 L 12.898438 3 L 13.800781 3 L 13.800781 14.699219 L 15 14.699219 L 15 1.800781 Z M 12.617188 8.699219 L 10.65625 5.363281 C 10.582031 5.21875 10.386719 5.101562 10.222656 5.101562 L 4.777344 5.101562 C 4.613281 5.101562 4.417969 5.21875 4.34375 5.363281 L 2.382812 8.699219 C 2.0625 8.699219 1.800781 8.96875 1.800781 9.300781 L 1.800781 12.300781 C 1.800781 12.628906 2.0625 12.898438 2.382812 12.898438 L 3 12.898438 L 3 13.800781 C 3 14.296875 3.363281 14.699219 3.847656 14.699219 L 4.136719 14.699219 C 4.621094 14.699219 5.101562 14.296875 5.101562 13.800781 L 5.101562 12.898438 L 9.898438 12.898438 L 9.898438 13.800781 C 9.898438 14.296875 10.378906 14.699219 10.863281 14.699219 L 11.152344 14.699219 C 11.636719 14.699219 12 14.296875 12 13.800781 L 12 12.898438 L 12.617188 12.898438 C 12.9375 12.898438 13.199219 12.628906 13.199219 12.300781 L 13.199219 9.300781 C 13.199219 8.96875 12.9375 8.699219 12.617188 8.699219 Z M 3.40625 11.101562 C 3.003906 11.101562 2.675781 10.765625 2.675781 10.351562 C 2.675781 9.9375 3.003906 9.601562 3.40625 9.601562 C 3.8125 9.601562 4.136719 9.9375 4.136719 10.351562 C 4.136719 10.765625 3.8125 11.101562 3.40625 11.101562 Z M 3.847656 8.699219 L 5.175781 6.269531 C 5.25 6.121094 5.4375 6 5.601562 6 L 9.398438 6 C 9.5625 6 9.75 6.121094 9.824219 6.269531 L 11.152344 8.699219 Z M 11.59375 11.101562 C 11.1875 11.101562 10.863281 10.765625 10.863281 10.351562 C 10.863281 9.9375 11.1875 9.601562 11.59375 9.601562 C 11.996094 9.601562 12.324219 9.9375 12.324219 10.351562 C 12.324219 10.765625 11.996094 11.101562 11.59375 11.101562 Z M 11.59375 11.101562 "/>
  </g>
</svg>