<svg xmlns="http://www.w3.org/2000/svg" xlink="http://www.w3.org/1999/xlink" width="20px" height="20px" viewBox="0 0 15 15" version="1.1">
  <g id="surface1">
    <path d="M 5.429688 7.363281 L 2.667969 5.804688 L 3.628906 4.121094 L 6.390625 5.679688 Z M 10.941406 8.800781 L 6.277344 6.171875 L 5.796875 7.015625 L 10.460938 9.640625 Z M 11.507812 9.117188 L 11.027344 9.960938 L 13.433594 11.316406 L 13.914062 10.472656 Z M 10.859375 9.960938 C 10.824219 10.027344 10.722656 10.042969 10.632812 9.992188 C 10.546875 9.945312 10.507812 9.851562 10.546875 9.785156 L 11.109375 8.800781 C 11.148438 8.730469 11.246094 8.714844 11.335938 8.765625 C 11.421875 8.816406 11.460938 8.910156 11.421875 8.976562 Z M 14.410156 10.5 C 14.3125 10.449219 14.207031 10.421875 14.105469 10.425781 L 13.492188 11.503906 C 13.539062 11.59375 13.613281 11.671875 13.710938 11.726562 C 13.980469 11.878906 14.324219 11.789062 14.472656 11.53125 L 14.628906 11.25 C 14.78125 10.988281 14.679688 10.652344 14.410156 10.5 Z M 6.65625 5.355469 C 6.585938 5.484375 6.421875 5.53125 6.289062 5.457031 L 3.871094 4.09375 C 3.742188 4.023438 3.699219 3.859375 3.769531 3.726562 C 3.84375 3.597656 4.011719 3.554688 4.140625 3.628906 L 6.554688 4.988281 C 6.6875 5.0625 6.730469 5.226562 6.65625 5.355469 Z M 6.996094 4.761719 C 6.921875 4.894531 6.757812 4.9375 6.628906 4.863281 L 4.210938 3.503906 C 4.082031 3.429688 4.035156 3.265625 4.109375 3.136719 C 4.183594 3.007812 4.347656 2.960938 4.476562 3.035156 L 6.894531 4.398438 C 7.027344 4.46875 7.070312 4.632812 6.996094 4.761719 Z M 4.953125 8.347656 C 4.878906 8.476562 4.714844 8.519531 4.585938 8.445312 L 2.167969 7.082031 C 2.035156 7.011719 1.992188 6.847656 2.066406 6.71875 C 2.136719 6.589844 2.304688 6.542969 2.433594 6.617188 L 4.851562 7.980469 C 4.980469 8.050781 5.027344 8.214844 4.953125 8.347656 Z M 5.292969 7.753906 C 5.21875 7.882812 5.054688 7.925781 4.921875 7.851562 L 2.503906 6.492188 C 2.375 6.417969 2.328125 6.253906 2.402344 6.125 C 2.476562 5.996094 2.640625 5.949219 2.773438 6.023438 L 5.1875 7.386719 C 5.316406 7.460938 5.363281 7.625 5.292969 7.753906 Z M 1.234375 10.175781 L 5.496094 10.175781 L 5.496094 10.667969 L 1.234375 10.667969 Z M 6.425781 11.199219 C 6.398438 11.035156 6.257812 10.910156 6.085938 10.910156 L 0.648438 10.910156 C 0.476562 10.910156 0.332031 11.035156 0.304688 11.199219 L 0.300781 11.199219 L 0.300781 12 L 6.433594 12 L 6.433594 11.199219 Z M 6.425781 11.199219 " fill="#FFFFFF"/>
  </g>
</svg>