<svg version="1.1" xmlns="http://www.w3.org/2000/svg" xlink="http://www.w3.org/1999/xlink" x="0px" y="0px" width="15px" height="15px" viewBox="0 0 15 15" style="enable-background:new 0 0 15 15;" space="preserve">
    <path d="M1.929688,6.464844C1.863281,6.597656,1.816406,6.746094,1.792969,6.90625C1.78125,6.984375,1.773438,7.0625,1.773438,7.144531L1.832031,10.78125L0.570312,13.488281C0.527344,13.566406,0.496094,13.660156,0.480469,13.757812C0.410156,14.207031,0.71875,14.621094,1.167969,14.691406C1.515625,14.742188,1.851562,14.566406,2.007812,14.273438L3.398438,11.316406C3.425781,11.246094,3.453125,11.175781,3.460938,11.09375L3.46875,10.984375L3.460938,8.734375L5.589844,9.660156L5.9375,11.859375C6.003906,12.179688,6.269531,12.4375,6.613281,12.492188C7.0625,12.554688,7.480469,12.25,7.550781,11.804688C7.558594,11.730469,7.558594,11.65625,7.550781,11.582031L7.132812,8.929688C7.082031,8.671875,6.910156,8.453125,6.671875,8.339844L4.765625,7.496094L5.980469,5.394531L6.582031,6.15625C6.644531,6.222656,6.722656,6.28125,6.8125,6.316406L9.109375,6.984375C9.414062,7.050781,9.722656,6.890625,9.84375,6.597656C9.976562,6.265625,9.820312,5.890625,9.488281,5.757812L9.457031,5.746094L7.460938,5.160156L5.960938,3.367188C5.738281,3.128906,5.4375,2.960938,5.089844,2.90625C4.480469,2.816406,3.902344,3.105469,3.597656,3.59375ZM8.511719,11.679688L8.367188,12.769531L4.417969,13.726562L4.457031,14.398438L14.082031,14.398438C14.425781,14.398438,14.699219,14.125,14.699219,13.785156L14.6875,0.867188L13.371094,0.558594L12.613281,3.957031L11.34375,4.488281L10.222656,7.621094L11.289062,10.015625L10.988281,10.9375ZM5.832031,2.746094C6.507812,2.746094,7.058594,2.199219,7.058594,1.523438C7.058594,0.847656,6.507812,0.300781,5.832031,0.300781C5.152344,0.300781,4.601562,0.847656,4.601562,1.523438C4.601562,2.199219,5.152344,2.746094,5.832031,2.746094ZM3.386719,2.9375C3.480469,2.773438,3.425781,2.554688,3.257812,2.460938L2.660156,2.117188C2.492188,2.023438,2.277344,2.074219,2.179688,2.246094L0.347656,5.398438C0.25,5.5625,0.304688,5.777344,0.476562,5.875L1.074219,6.214844C1.242188,6.3125,1.453125,6.257812,1.550781,6.089844ZM3.386719,2.9375" fill="#FFFFFF"/>
    </svg>