<svg xmlns="http://www.w3.org/2000/svg" xlink="http://www.w3.org/1999/xlink" width="20px" height="20px" viewBox="0 0 15 15" version="1.1">
  <g id="surface1">
    <path d="M 12.300781 1.199219 L 6.625 1.199219 C 6.171875 0.601562 5.433594 0.0742188 4.597656 0.0742188 C 3.222656 0.0742188 2.113281 1.148438 2.113281 2.519531 C 2.113281 3.894531 3.222656 4.929688 4.597656 4.929688 C 5.640625 4.929688 6.535156 4.199219 6.902344 3.300781 L 7.730469 3.300781 L 8.328125 2.699219 L 8.929688 3.300781 L 9.300781 3.300781 L 9.902344 2.699219 L 10.5 3.300781 L 10.871094 3.300781 L 11.472656 2.699219 L 12.070312 3.300781 L 12.300781 3.300781 L 12.300781 3.382812 L 12.246094 3.398438 L 13.429688 2.238281 Z M 3.792969 3.183594 C 3.394531 3.183594 3.074219 2.859375 3.074219 2.460938 C 3.074219 2.066406 3.394531 1.742188 3.792969 1.742188 C 4.191406 1.742188 4.511719 2.066406 4.511719 2.460938 C 4.511719 2.859375 4.191406 3.183594 3.792969 3.183594 Z M 12.898438 9 L 12.734375 9 L 10.890625 5.664062 C 10.8125 5.519531 10.609375 5.398438 10.445312 5.398438 L 4.855469 5.398438 C 4.6875 5.398438 4.488281 5.519531 4.410156 5.664062 L 2.566406 9 L 2.398438 9 C 2.070312 9 1.800781 9.269531 1.800781 9.601562 L 1.800781 12.601562 C 1.800781 12.929688 2.070312 13.199219 2.398438 13.199219 L 3 13.199219 L 3 14.101562 C 3 14.59375 3.40625 15 3.898438 15 L 4.199219 15 C 4.695312 15 5.101562 14.59375 5.101562 14.101562 L 5.101562 13.199219 L 10.199219 13.199219 L 10.199219 14.101562 C 10.199219 14.59375 10.605469 15 11.101562 15 L 11.398438 15 C 11.894531 15 12.300781 14.59375 12.300781 14.101562 L 12.300781 13.199219 L 12.898438 13.199219 C 13.230469 13.199219 13.5 12.929688 13.5 12.601562 L 13.5 9.601562 C 13.5 9.269531 13.230469 9 12.898438 9 Z M 3.449219 11.398438 C 3.035156 11.398438 2.699219 11.0625 2.699219 10.648438 C 2.699219 10.234375 3.035156 9.898438 3.449219 9.898438 C 3.863281 9.898438 4.199219 10.234375 4.199219 10.648438 C 4.199219 11.0625 3.863281 11.398438 3.449219 11.398438 Z M 4.050781 9 L 5.265625 6.570312 C 5.339844 6.421875 5.535156 6.300781 5.699219 6.300781 L 9.601562 6.300781 C 9.765625 6.300781 9.960938 6.421875 10.035156 6.570312 L 11.25 9 Z M 11.851562 11.398438 C 11.4375 11.398438 11.101562 11.0625 11.101562 10.648438 C 11.101562 10.234375 11.4375 9.898438 11.851562 9.898438 C 12.265625 9.898438 12.601562 10.234375 12.601562 10.648438 C 12.601562 11.0625 12.265625 11.398438 11.851562 11.398438 Z M 11.851562 11.398438 " fill="#FFFFFF"/>
  </g>
</svg>