<svg version="1.1" xmlns="http://www.w3.org/2000/svg" xlink="http://www.w3.org/1999/xlink" x="0px" y="0px" width="15px" height="15px" viewBox="0 0 15 15" style="enable-background:new 0 0 15 15;" space="preserve">
    <path d="M7.5,14.699219C3.53125,14.699219,0.300781,11.46875,0.300781,7.5C0.300781,3.53125,3.53125,0.300781,7.5,0.300781C11.46875,0.300781,14.699219,3.53125,14.699219,7.5C14.699219,11.46875,11.46875,14.699219,7.5,14.699219ZM7.5,1.5C4.191406,1.5,1.5,4.191406,1.5,7.5C1.5,10.808594,4.191406,13.5,7.5,13.5C10.808594,13.5,13.5,10.808594,13.5,7.5C13.5,4.191406,10.808594,1.5,7.5,1.5ZM7.511719,2.476562C7.511719,2.476562,5.398438,6.097656,5.398438,7.199219L5.398438,7.800781C5.398438,8.902344,7.519531,12.601562,7.519531,12.601562C7.519531,12.601562,9.601562,8.980469,9.601562,7.875L9.601562,7.199219C9.601562,6.09375,7.511719,2.476562,7.511719,2.476562ZM7.5,8.699219C6.835938,8.699219,6.300781,8.164062,6.300781,7.5C6.300781,6.835938,6.835938,6.300781,7.5,6.300781C8.164062,6.300781,8.699219,6.835938,8.699219,7.5C8.699219,8.164062,8.164062,8.699219,7.5,8.699219ZM7.5,8.699219" fill="#FFFFFF"/>
    </svg>