<?xml version="1.0" encoding="UTF-8" standalone="yes"?>
<svg xmlns="http://www.w3.org/2000/svg" xmlns:xlink="http://www.w3.org/1999/xlink" width="20px" height="20px" viewBox="0 0 15 15" version="1.1">
  <g id="surface1">
    <path style=" stroke:none;fill-rule:nonzero;fill:rgb(0%,0%,0%);fill-opacity:1;" d="M 14.335938 3.566406 C 14.128906 3.402344 13.574219 3.273438 13.160156 3.175781 L 12.601562 3.097656 L 12.601562 1.746094 L 12.886719 1.738281 C 13.15625 1.875 13.542969 2.101562 13.5625 2.398438 L 14.644531 2.398438 C 14.625 1.800781 14.167969 1.421875 13.765625 1.121094 C 13.496094 0.921875 13.199219 0.816406 12.601562 0.75 L 12.601562 0 L 12 0 L 12 0.726562 C 11.398438 0.785156 11.207031 0.933594 10.933594 1.179688 C 10.582031 1.496094 10.421875 1.898438 10.421875 2.378906 C 10.421875 2.90625 10.574219 3.292969 10.9375 3.542969 C 11.140625 3.683594 11.398438 3.816406 12 3.9375 L 12 5.40625 C 11.699219 5.351562 11.699219 5.363281 11.59375 5.238281 C 11.492188 5.117188 11.464844 4.800781 11.429688 4.800781 L 10.355469 4.800781 C 10.355469 5.398438 10.519531 5.6875 10.925781 6.007812 C 11.21875 6.238281 11.398438 6.277344 12 6.339844 L 12 6.898438 L 12.601562 6.898438 L 12.601562 6.347656 C 13.199219 6.292969 13.710938 6.136719 14.003906 5.886719 C 14.382812 5.5625 14.695312 5.15625 14.695312 4.664062 C 14.695312 4.183594 14.65625 3.820312 14.335938 3.566406 Z M 11.707031 2.730469 C 11.53125 2.632812 11.464844 2.488281 11.464844 2.296875 C 11.464844 2.089844 11.523438 1.925781 11.699219 1.808594 C 11.792969 1.746094 11.699219 1.703125 12 1.671875 L 12 2.855469 C 11.699219 2.808594 11.769531 2.765625 11.707031 2.730469 Z M 13.007812 5.375 C 12.957031 5.390625 12.601562 5.40625 12.601562 5.417969 L 12.601562 4.167969 C 13.199219 4.21875 13.152344 4.277344 13.253906 4.335938 C 13.410156 4.433594 13.488281 4.570312 13.488281 4.75 C 13.488281 5.054688 13.328125 5.261719 13.007812 5.375 Z M 11.554688 9 L 11.390625 9 L 9.546875 5.664062 C 9.46875 5.519531 9.265625 5.398438 9.101562 5.398438 L 3.507812 5.398438 C 3.34375 5.398438 3.144531 5.519531 3.066406 5.664062 L 1.222656 9 L 1.054688 9 C 0.726562 9 0.300781 9.269531 0.300781 9.601562 L 0.300781 12.601562 C 0.300781 12.929688 0.726562 13.199219 1.054688 13.199219 L 1.5 13.199219 L 1.5 14.101562 C 1.5 14.59375 2.0625 15 2.554688 15 L 2.855469 15 C 3.351562 15 3.601562 14.59375 3.601562 14.101562 L 3.601562 13.199219 L 8.699219 13.199219 L 8.699219 14.101562 C 8.699219 14.59375 9.261719 15 9.757812 15 L 10.054688 15 C 10.550781 15 10.800781 14.59375 10.800781 14.101562 L 10.800781 13.199219 L 11.554688 13.199219 C 11.886719 13.199219 12 12.929688 12 12.601562 L 12 9.601562 C 12 9.269531 11.886719 9 11.554688 9 Z M 2.105469 11.398438 C 1.691406 11.398438 1.355469 11.0625 1.355469 10.648438 C 1.355469 10.234375 1.691406 9.898438 2.105469 9.898438 C 2.519531 9.898438 2.855469 10.234375 2.855469 10.648438 C 2.855469 11.0625 2.519531 11.398438 2.105469 11.398438 Z M 2.707031 9 L 3.921875 6.570312 C 3.996094 6.421875 4.191406 6.300781 4.355469 6.300781 L 8.257812 6.300781 C 8.421875 6.300781 8.617188 6.421875 8.691406 6.570312 L 9.90625 9 Z M 10.507812 11.398438 C 10.089844 11.398438 9.757812 11.0625 9.757812 10.648438 C 9.757812 10.234375 10.089844 9.898438 10.507812 9.898438 C 10.921875 9.898438 11.257812 10.234375 11.257812 10.648438 C 11.257812 11.0625 10.921875 11.398438 10.507812 11.398438 Z M 10.507812 11.398438 "/>
  </g>
</svg>