<svg xmlns="http://www.w3.org/2000/svg" xlink="http://www.w3.org/1999/xlink" width="20px" height="20px" viewBox="0 0 15 15" version="1.1">
  <g id="surface1">
    <path d="M 7.5 14.699219 C 3.53125 14.699219 0.300781 11.46875 0.300781 7.5 C 0.300781 3.53125 3.53125 0.300781 7.5 0.300781 C 11.46875 0.300781 14.699219 3.53125 14.699219 7.5 C 14.699219 11.46875 11.46875 14.699219 7.5 14.699219 Z M 7.5 1.5 C 4.191406 1.5 1.5 4.191406 1.5 7.5 C 1.5 10.808594 4.191406 13.5 7.5 13.5 C 10.808594 13.5 13.5 10.808594 13.5 7.5 C 13.5 4.191406 10.808594 1.5 7.5 1.5 Z M 7.511719 2.476562 C 7.511719 2.476562 5.398438 6.097656 5.398438 7.199219 L 5.398438 7.800781 C 5.398438 8.902344 7.519531 12.601562 7.519531 12.601562 C 7.519531 12.601562 9.601562 8.980469 9.601562 7.875 L 9.601562 7.199219 C 9.601562 6.09375 7.511719 2.476562 7.511719 2.476562 Z M 7.5 8.699219 C 6.835938 8.699219 6.300781 8.164062 6.300781 7.5 C 6.300781 6.835938 6.835938 6.300781 7.5 6.300781 C 8.164062 6.300781 8.699219 6.835938 8.699219 7.5 C 8.699219 8.164062 8.164062 8.699219 7.5 8.699219 Z M 7.5 8.699219 " fill="#FFFFFF"/>
  </g>
</svg>