<?xml version="1.0" encoding="UTF-8" standalone="yes"?>
<svg xmlns="http://www.w3.org/2000/svg" xmlns:xlink="http://www.w3.org/1999/xlink" width="20px" height="20px" viewBox="0 0 15 15" version="1.1">
  <g id="surface1">
    <path style=" stroke:none;fill-rule:nonzero;fill:rgb(0%,0%,0%);fill-opacity:1;" d="M 12.78125 11.152344 C 13.332031 10.96875 13.628906 10.382812 13.445312 9.835938 L 13.046875 9.964844 C 13.15625 10.292969 12.972656 10.644531 12.648438 10.753906 L 2.136719 14.308594 L 2.273438 14.699219 Z M 3.101562 5.011719 C 3.679688 4.84375 4.007812 4.242188 3.839844 3.667969 C 3.671875 3.09375 3.066406 2.765625 2.488281 2.933594 C 1.910156 3.101562 1.578125 3.703125 1.75 4.277344 C 1.917969 4.851562 2.523438 5.179688 3.101562 5.011719 Z M 2.65625 6.511719 C 2.082031 5.425781 3.730469 4.542969 4.339844 5.597656 L 5.523438 7.835938 L 7.78125 7.199219 C 8.15625 7.09375 8.671875 7.496094 8.671875 7.972656 L 8.683594 11.15625 C 8.6875 11.945312 7.503906 11.949219 7.503906 11.152344 C 7.5 10.410156 7.480469 8.832031 7.480469 8.832031 L 5.125 9.53125 C 4.609375 9.679688 4.183594 9.425781 3.984375 9.046875 Z M 6.300781 7.019531 L 6.300781 0.300781 L 5.699219 0.300781 L 5.699219 7.144531 Z M 1.574219 7.964844 C 1.25 7.332031 2.085938 6.914062 2.410156 7.546875 L 3.429688 9.523438 C 3.648438 9.933594 4.082031 10.214844 4.582031 10.214844 C 4.738281 10.214844 4.882812 10.175781 5.023438 10.144531 L 6.308594 9.773438 C 6.988281 9.566406 7.253906 10.460938 6.566406 10.660156 L 5.214844 11.050781 C 5.015625 11.113281 4.796875 11.144531 4.570312 11.144531 C 3.703125 11.144531 2.949219 10.65625 2.582031 9.941406 Z M 1.574219 7.964844 "/>
  </g>
</svg>