<svg xmlns="http://www.w3.org/2000/svg" xlink="http://www.w3.org/1999/xlink" width="20px" height="20px" viewBox="0 0 15 15" version="1.1">
  <g id="surface1">
    <path d="M 12.089844 2.007812 C 12.089844 1.394531 11.59375 0.898438 10.984375 0.898438 C 10.375 0.898438 9.878906 1.394531 9.878906 2.007812 C 9.878906 2.621094 10.375 3.117188 10.984375 3.117188 C 11.59375 3.117188 12.089844 2.621094 12.089844 2.007812 Z M 12.089844 2.007812 " fill="#FFFFFF"/>
    <path d="M 3.976562 12.660156 L 0.300781 8.960938 L 0.300781 9.605469 L 3.726562 13.054688 C 4.117188 13.480469 4.792969 12.984375 4.792969 12.984375 L 4.46875 12.640625 C 4.46875 12.640625 4.152344 12.847656 3.984375 12.671875 Z M 0.300781 5.699219 L 4.199219 5.699219 L 4.199219 6 L 0.300781 6 Z M 14.269531 4.648438 L 14.699219 4.851562 L 10.425781 13.5 L 9.953125 13.5 Z M 7.179688 3.941406 L 5.460938 5.929688 C 5.359375 6.058594 5.203125 6.136719 5.03125 6.136719 C 4.722656 6.136719 4.472656 5.886719 4.472656 5.578125 C 4.472656 5.410156 4.546875 5.261719 4.660156 5.160156 L 6.515625 3.019531 C 6.617188 2.894531 6.769531 2.816406 6.945312 2.816406 L 9.628906 2.816406 C 9.824219 2.816406 10.003906 2.898438 10.132812 3.019531 L 11.84375 4.738281 L 13.261719 3.320312 C 13.363281 3.234375 13.492188 3.183594 13.632812 3.183594 C 13.949219 3.183594 14.207031 3.441406 14.207031 3.757812 C 14.207031 3.898438 14.15625 4.023438 14.078125 4.125 L 12.367188 5.851562 C 11.847656 6.371094 11.429688 5.929688 11.429688 5.929688 L 10.382812 4.875 L 8.742188 6.773438 L 10.242188 8.28125 C 10.242188 8.28125 10.558594 8.574219 10.378906 9.164062 L 9.535156 12.925781 C 9.46875 13.253906 9.179688 13.5 8.835938 13.5 C 8.441406 13.5 8.121094 13.179688 8.121094 12.785156 C 8.121094 12.722656 8.128906 12.660156 8.144531 12.601562 L 8.835938 9.515625 L 7.128906 7.851562 L 5.660156 9.492188 C 5.660156 9.492188 5.421875 9.785156 4.792969 9.765625 L 1.816406 9.769531 C 1.484375 9.777344 1.179688 9.546875 1.105469 9.210938 C 1.019531 8.824219 1.257812 8.445312 1.640625 8.359375 C 1.703125 8.34375 1.761719 8.339844 1.820312 8.34375 L 4.382812 8.347656 L 8.171875 3.945312 Z M 7.179688 3.941406 " fill="#FFFFFF"/>
    <path d="M 13.746094 13.550781 C 13.746094 13.839844 13.507812 14.101562 13.21875 14.101562 L 4.5 14.101562 L 4.5 14.398438 L 13.21875 14.398438 C 13.703125 14.402344 14.097656 14.027344 14.101562 13.539062 Z M 13.746094 13.550781 " fill="#FFFFFF"/>
  </g>
</svg>