<svg xmlns="http://www.w3.org/2000/svg" xlink="http://www.w3.org/1999/xlink" width="20px" height="20px" viewBox="0 0 15 15" version="1.1">
  <g id="surface1">
    <path d="M 7.5 0.300781 C 3.53125 0.300781 0.300781 3.53125 0.300781 7.5 C 0.300781 11.46875 3.53125 14.699219 7.5 14.699219 C 11.46875 14.699219 14.699219 11.46875 14.699219 7.5 C 14.699219 3.53125 11.46875 0.300781 7.5 0.300781 Z M 8.398438 13.425781 L 8.398438 10.800781 L 6.601562 10.800781 L 6.601562 13.425781 C 4.011719 13.03125 1.96875 10.988281 1.574219 8.398438 L 4.199219 8.398438 L 4.199219 6.601562 L 1.574219 6.601562 C 1.96875 4.011719 4.011719 1.96875 6.601562 1.574219 L 6.601562 4.199219 L 8.398438 4.199219 L 8.398438 1.574219 C 10.988281 1.96875 13.03125 4.011719 13.425781 6.601562 L 10.800781 6.601562 L 10.800781 8.398438 L 13.425781 8.398438 C 13.03125 10.988281 10.988281 13.03125 8.398438 13.425781 Z M 8.398438 13.425781 " fill="#FFFFFF"/>
  </g>
</svg>