<svg xmlns="http://www.w3.org/2000/svg" xlink="http://www.w3.org/1999/xlink" width="20px" height="20px" viewBox="0 0 15 15" version="1.1">
  <g id="surface1">
    <path d="M 6.429688 2.308594 L 5.699219 3.300781 L 3.996094 3.300781 C 4.207031 3.898438 4.894531 4.464844 5.855469 4.277344 C 6.140625 4.257812 7.101562 4.105469 7.5 4.199219 C 8.03125 4.328125 7.808594 4.328125 8.761719 5.089844 L 13.5 9 C 13.789062 9.257812 14.160156 9.152344 14.417969 8.863281 C 14.675781 8.570312 14.691406 8.054688 14.398438 7.800781 L 8.398438 3 C 8.023438 2.699219 7.929688 2.28125 7.800781 1.800781 C 7.546875 0.972656 6.621094 0.308594 5.710938 0.308594 C 4.980469 0.308594 4.191406 0.945312 3.898438 1.5 L 5.699219 1.5 Z M 10.546875 9.601562 L 8.691406 6.382812 C 8.617188 6.246094 8.433594 6 8.28125 6 L 3.117188 6 C 2.964844 6 2.78125 6.246094 2.707031 6.382812 L 0.898438 9.601562 L 0.855469 9.601562 C 0.550781 9.601562 0.300781 9.710938 0.300781 10.015625 L 0.300781 12.785156 C 0.300781 13.089844 0.550781 13.199219 0.855469 13.199219 L 1.5 13.199219 L 1.5 14.167969 C 1.5 14.625 1.78125 15 2.238281 15 L 2.515625 15 C 2.972656 15 3.300781 14.625 3.300781 14.167969 L 3.300781 13.199219 L 8.101562 13.199219 L 8.101562 14.167969 C 8.101562 14.625 8.425781 15 8.882812 15 L 9.160156 15 C 9.617188 15 9.898438 14.625 9.898438 14.167969 L 9.898438 13.199219 L 10.546875 13.199219 C 10.851562 13.199219 11.101562 13.089844 11.101562 12.785156 L 11.101562 10.015625 C 11.101562 9.710938 10.851562 9.601562 10.546875 9.601562 Z M 1.824219 11.675781 C 1.441406 11.675781 1.128906 11.367188 1.128906 10.984375 C 1.128906 10.601562 1.441406 10.292969 1.824219 10.292969 C 2.207031 10.292969 2.515625 10.601562 2.515625 10.984375 C 2.515625 11.367188 2.207031 11.675781 1.824219 11.675781 Z M 2.375 9.601562 L 3.5 7.25 C 3.566406 7.117188 3.746094 6.898438 3.898438 6.898438 L 7.5 6.898438 C 7.652344 6.898438 7.832031 7.117188 7.902344 7.25 L 9.023438 9.601562 Z M 9.578125 11.675781 C 9.195312 11.675781 8.882812 11.367188 8.882812 10.984375 C 8.882812 10.601562 9.195312 10.292969 9.578125 10.292969 C 9.960938 10.292969 10.269531 10.601562 10.269531 10.984375 C 10.269531 11.367188 9.960938 11.675781 9.578125 11.675781 Z M 9.578125 11.675781 " fill="#FFFFFF"/>
  </g>
</svg>