<svg xmlns="http://www.w3.org/2000/svg" xlink="http://www.w3.org/1999/xlink" width="20px" height="20px" viewBox="0 0 15 15" version="1.1">
  <g id="surface1">
    <path d="M 7.453125 8.179688 C 8.519531 8.179688 9.011719 8.988281 9.113281 10.132812 C 9.140625 10.40625 9.113281 10.808594 9.078125 11.269531 C 8.960938 12.808594 8.820312 14.699219 9.847656 14.699219 C 10.714844 14.699219 11.15625 13.039062 11.414062 11.144531 C 11.664062 9.269531 11.398438 8.335938 11.53125 7.5 C 11.777344 5.921875 13.152344 4.507812 12.726562 2.496094 C 12.492188 1.378906 11.875 0.855469 11.269531 0.632812 C 9.867188 0.125 8.960938 1.105469 7.453125 1.105469 C 5.949219 1.105469 5.042969 0.125 3.640625 0.632812 C 3.03125 0.855469 2.417969 1.378906 2.179688 2.496094 C 1.757812 4.507812 3.132812 5.921875 3.378906 7.5 C 3.507812 8.335938 3.246094 9.269531 3.496094 11.144531 C 3.75 13.039062 4.195312 14.699219 5.0625 14.699219 C 6.085938 14.699219 5.949219 12.808594 5.832031 11.269531 C 5.796875 10.808594 5.769531 10.40625 5.792969 10.132812 C 5.898438 8.988281 6.398438 8.179688 7.453125 8.179688 Z M 7.453125 8.179688 " fill="#FFFFFF"/>
  </g>
</svg>