<svg xmlns="http://www.w3.org/2000/svg" xlink="http://www.w3.org/1999/xlink" width="20px" height="20px" viewBox="0 0 15 15" version="1.1">
  <g id="surface1">
    <path d="M 12.300781 4.199219 L 10.800781 4.199219 L 10.800781 0.875 C 10.800781 0.558594 10.53125 0.300781 10.199219 0.300781 C 9.867188 0.300781 9.601562 0.558594 9.601562 0.875 L 9.601562 4.199219 L 4.800781 4.199219 L 4.800781 0.875 C 4.800781 0.558594 4.53125 0.300781 4.199219 0.300781 C 3.867188 0.300781 3.601562 0.558594 3.601562 0.875 L 3.601562 4.199219 L 2.101562 4.199219 C 1.933594 4.199219 1.800781 4.460938 1.800781 4.621094 L 1.800781 6.058594 C 1.800781 7.789062 4.800781 9.792969 4.800781 12.570312 L 4.800781 13.5 L 6 13.5 L 6 14.699219 L 8.398438 14.699219 L 8.398438 13.5 L 9.601562 13.5 L 9.601562 12.570312 C 9.601562 9.792969 12.601562 7.789062 12.601562 6.058594 L 12.601562 4.621094 C 12.601562 4.460938 12.464844 4.199219 12.300781 4.199219 M 6.871094 9.117188 C 6.890625 9.054688 6.851562 9 6.785156 9 L 5.617188 9 C 5.546875 9 5.53125 8.960938 5.574219 8.910156 C 5.574219 8.910156 7.972656 5.863281 8.019531 5.804688 C 8.058594 5.746094 8.097656 5.765625 8.082031 5.832031 C 8.066406 5.914062 7.550781 7.992188 7.550781 7.992188 C 7.527344 8.054688 7.5625 8.101562 7.632812 8.101562 L 8.796875 8.101562 C 8.867188 8.101562 8.886719 8.144531 8.847656 8.199219 C 8.847656 8.199219 6.441406 11.320312 6.398438 11.371094 C 6.355469 11.421875 6.3125 11.40625 6.335938 11.320312 C 6.359375 11.230469 6.871094 9.117188 6.871094 9.117188 " fill="#FFFFFF"/>
  </g>
</svg>