<?xml version="1.0" encoding="UTF-8" standalone="yes"?>
<svg xmlns="http://www.w3.org/2000/svg" xmlns:xlink="http://www.w3.org/1999/xlink" width="20px" height="20px" viewBox="0 0 15 15" version="1.1">
  <g id="surface1">
    <path style=" stroke:none;fill-rule:nonzero;fill:rgb(0%,0%,0%);fill-opacity:1;" d="M 7.414062 14.699219 C 3.953125 14.699219 1.136719 11.882812 1.136719 8.421875 C 1.136719 6.207031 2.269531 4.195312 4.167969 3.046875 C 4.574219 2.800781 5.101562 2.929688 5.347656 3.335938 C 5.59375 3.742188 5.464844 4.273438 5.058594 4.519531 C 3.679688 5.351562 2.855469 6.8125 2.855469 8.421875 C 2.855469 10.933594 4.902344 12.980469 7.414062 12.980469 C 9.929688 12.980469 11.972656 10.933594 11.972656 8.421875 C 11.972656 6.785156 11.089844 5.265625 9.667969 4.457031 C 9.253906 4.222656 9.109375 3.695312 9.347656 3.285156 C 9.582031 2.871094 10.105469 2.726562 10.519531 2.960938 C 12.476562 4.078125 13.695312 6.167969 13.695312 8.421875 C 13.695312 11.882812 10.878906 14.699219 7.414062 14.699219 Z M 7.351562 8.335938 C 6.875 8.335938 6.300781 7.949219 6.300781 7.476562 L 6.300781 1.28125 C 6.300781 0.808594 6.875 0.421875 7.351562 0.421875 C 7.824219 0.421875 8.398438 0.808594 8.398438 1.28125 L 8.398438 7.476562 C 8.398438 7.949219 7.824219 8.335938 7.351562 8.335938 Z M 7.351562 8.335938 "/>
  </g>
</svg>