<svg version="1.1" xmlns="http://www.w3.org/2000/svg" xlink="http://www.w3.org/1999/xlink" x="0px" y="0px" width="15px" height="15px" viewBox="0 0 15 15" style="enable-background:new 0 0 15 15;" space="preserve">
    <path d="M0.601562,4.726562L0.601562,0.601562L4.890625,0.601562L6.46875,1.800781L3.835938,1.800781L6.601562,4.726562L4.890625,6.300781L2.101562,3.675781L2.101562,6.304688ZM10.125,0.601562L14.398438,0.601562L14.398438,4.742188L13.199219,6.320312L13.199219,3.691406L10.199219,6.453125L8.589844,4.816406L11.175781,2.101562L8.546875,2.101562ZM14.398438,10.125L14.398438,14.398438L10.109375,14.398438L8.53125,13.199219L11.164062,13.199219L8.398438,10.199219L10.109375,8.589844L12.898438,11.175781L12.898438,8.546875ZM4.875,14.398438L0.601562,14.398438L0.601562,10.109375L1.800781,8.53125L1.800781,11.164062L4.800781,8.398438L6.410156,10.109375L3.824219,12.898438L6.453125,12.898438ZM4.875,14.398438" fill="#FFFFFF"/>
    </svg>