<svg xmlns="http://www.w3.org/2000/svg" xlink="http://www.w3.org/1999/xlink" width="20px" height="20px" viewBox="0 0 15 15" version="1.1">
  <g id="surface1">
    <path d="M 8.101562 1.386719 C 8.101562 2.070312 7.546875 2.625 6.863281 2.625 C 6.179688 2.625 5.625 2.070312 5.625 1.386719 C 5.625 0.703125 6.179688 0.148438 6.863281 0.148438 C 7.546875 0.148438 8.101562 0.703125 8.101562 1.386719 Z M 8.101562 1.386719 " fill="#FFFFFF"/>
    <path d="M 9.875 9.601562 L 8.101562 4.730469 L 8.089844 4.679688 C 8.089844 4.609375 8.152344 4.550781 8.226562 4.550781 C 8.289062 4.550781 8.339844 4.59375 8.355469 4.648438 L 9.5625 7.800781 C 9.640625 7.980469 9.96875 8.101562 10.1875 8.101562 C 10.476562 8.101562 10.507812 7.53125 10.5 7.5 L 9.292969 4.394531 C 9.191406 3.695312 8.488281 3 7.683594 3 L 6.113281 3 C 5.3125 3 4.554688 3.695312 4.453125 4.394531 L 3.300781 7.5 C 3.273438 7.558594 3.300781 8.101562 3.613281 8.101562 C 3.855469 8.101562 4.179688 8.015625 4.238281 7.800781 L 5.402344 4.636719 C 5.421875 4.585938 5.46875 4.550781 5.527344 4.550781 C 5.601562 4.550781 5.660156 4.609375 5.660156 4.679688 L 5.652344 4.722656 L 3.925781 9.601562 C 3.921875 9.613281 3.925781 9.886719 3.925781 9.898438 C 3.925781 10.003906 4.175781 10.199219 4.285156 10.199219 L 5.398438 10.199219 L 5.398438 14.128906 C 5.398438 14.441406 5.675781 14.699219 6 14.699219 C 6.324219 14.699219 6.601562 14.441406 6.601562 14.128906 L 6.601562 10.199219 C 6.601562 10.113281 7.199219 10.113281 7.199219 10.199219 L 7.199219 14.101562 C 7.199219 14.410156 7.476562 14.699219 7.800781 14.699219 C 8.125 14.699219 8.398438 14.410156 8.398438 14.101562 L 8.398438 10.199219 L 9.5625 10.199219 C 9.667969 10.199219 9.875 10.003906 9.875 9.898438 C 9.875 9.875 9.882812 9.621094 9.875 9.601562 Z M 9.875 9.601562 " fill="#FFFFFF"/>
  </g>
</svg>