<svg version="1.1" xmlns="http://www.w3.org/2000/svg" xlink="http://www.w3.org/1999/xlink" x="0px" y="0px" width="15px" height="15px" viewBox="0 0 15 15" style="enable-background:new 0 0 15 15;" space="preserve">
    <path d="M13.949219,3.300781L1.054688,3.300781C0.640625,3.300781,0.300781,3.675781,0.300781,4.050781C0.300781,4.421875,0.640625,4.800781,1.054688,4.800781L1.238281,4.800781L1.238281,6.300781L13.785156,6.300781L13.785156,4.800781L13.949219,4.800781C14.363281,4.800781,14.703125,4.421875,14.703125,4.050781C14.703125,3.675781,14.363281,3.300781,13.949219,3.300781ZM7.503906,5.554688C7.292969,5.554688,7.125,5.382812,7.125,5.167969C7.125,4.953125,7.292969,4.78125,7.503906,4.78125C7.710938,4.78125,7.878906,4.953125,7.878906,5.167969C7.878906,5.382812,7.710938,5.554688,7.503906,5.554688ZM1.238281,9.300781L13.785156,9.300781L13.785156,6.898438L1.238281,6.898438ZM7.503906,7.6875C7.710938,7.6875,7.878906,7.859375,7.878906,8.074219C7.878906,8.289062,7.710938,8.460938,7.503906,8.460938C7.292969,8.460938,7.125,8.289062,7.125,8.074219C7.125,7.859375,7.292969,7.6875,7.503906,7.6875ZM1.238281,11.367188L1.238281,13.113281C1.238281,13.324219,1.265625,13.5,1.472656,13.5L2.980469,13.5C3.1875,13.5,3.28125,13.324219,3.28125,13.113281L3.28125,12L11.742188,12L11.742188,13.113281C11.742188,13.324219,11.816406,13.5,12.023438,13.5L13.53125,13.5C13.738281,13.5,13.785156,13.324219,13.785156,13.113281L13.785156,9.898438L1.238281,9.898438ZM7.503906,10.59375C7.710938,10.59375,7.878906,10.765625,7.878906,10.980469C7.878906,11.195312,7.710938,11.367188,7.503906,11.367188C7.292969,11.367188,7.125,11.195312,7.125,10.980469C7.125,10.769531,7.292969,10.59375,7.503906,10.59375ZM7.503906,10.59375" fill="#FFFFFF"/>
    </svg>