<svg version="1.1" xmlns="http://www.w3.org/2000/svg" xlink="http://www.w3.org/1999/xlink" x="0px" y="0px" width="15px" height="15px" viewBox="0 0 15 15" style="enable-background:new 0 0 15 15;" space="preserve">
    <path d="M7.667969,10.851562C8.746094,15.894531,14.84375,11.765625,8.789062,8.253906C15.460938,12.125,15.476562,2.878906,8.800781,6.746094C15.476562,2.878906,7.507812,-1.746094,7.503906,5.996094C7.507812,-1.746094,-0.464844,2.875,6.207031,6.746094C-0.464844,2.875,-0.472656,12.121094,6.203125,8.253906C0.144531,11.765625,6.226562,15.898438,7.304688,10.84375ZM6.703125,7.5C6.703125,7.054688,7.0625,6.695312,7.503906,6.695312C7.949219,6.695312,8.304688,7.054688,8.304688,7.5C8.304688,7.945312,7.949219,8.308594,7.503906,8.308594C7.0625,8.308594,6.703125,7.945312,6.703125,7.5ZM6.703125,7.5" fill="#FFFFFF"/>
    </svg>