<svg xmlns="http://www.w3.org/2000/svg" xlink="http://www.w3.org/1999/xlink" width="20px" height="20px" viewBox="0 0 15 15" version="1.1">
  <g id="surface1">
    <path d="M 0.601562 4.726562 L 0.601562 0.601562 L 4.890625 0.601562 L 6.46875 1.800781 L 3.835938 1.800781 L 6.601562 4.726562 L 4.890625 6.300781 L 2.101562 3.675781 L 2.101562 6.304688 Z M 10.125 0.601562 L 14.398438 0.601562 L 14.398438 4.742188 L 13.199219 6.320312 L 13.199219 3.691406 L 10.199219 6.453125 L 8.589844 4.816406 L 11.175781 2.101562 L 8.546875 2.101562 Z M 14.398438 10.125 L 14.398438 14.398438 L 10.109375 14.398438 L 8.53125 13.199219 L 11.164062 13.199219 L 8.398438 10.199219 L 10.109375 8.589844 L 12.898438 11.175781 L 12.898438 8.546875 Z M 4.875 14.398438 L 0.601562 14.398438 L 0.601562 10.109375 L 1.800781 8.53125 L 1.800781 11.164062 L 4.800781 8.398438 L 6.410156 10.109375 L 3.824219 12.898438 L 6.453125 12.898438 Z M 4.875 14.398438 " fill="#FFFFFF"/>
  </g>
</svg>