<svg version="1.1" xmlns="http://www.w3.org/2000/svg" xlink="http://www.w3.org/1999/xlink" x="0px" y="0px" width="15px" height="15px" viewBox="0 0 15 15" style="enable-background:new 0 0 15 15;" space="preserve">
    <path d="M14.667969,4.546875L13.488281,13.800781L9.5,13.800781L8.324219,4.5L13.191406,4.5L14.15625,1.175781L14.699219,1.339844L13.777344,4.539062ZM7.761719,9.898438C7.761719,9.898438,7.910156,8.699219,5.84375,8.699219L2.550781,8.699219C0.484375,8.699219,0.632812,9.898438,0.632812,9.898438ZM0.632812,12.601562C0.632812,12.601562,0.484375,13.800781,2.550781,13.800781L5.84375,13.800781C7.910156,13.800781,7.761719,12.601562,7.761719,12.601562ZM7.453125,12C7.789062,12,8.0625,11.664062,8.0625,11.25C8.0625,10.832031,7.789062,10.5,7.453125,10.5L0.910156,10.5C0.574219,10.5,0.300781,10.832031,0.300781,11.25C0.300781,11.664062,0.574219,12,0.910156,12ZM7.453125,12" fill="#FFFFFF"/>
    </svg>