<?xml version="1.0" encoding="UTF-8" standalone="yes"?>
<svg xmlns="http://www.w3.org/2000/svg" xmlns:xlink="http://www.w3.org/1999/xlink" width="20px" height="20px" viewBox="0 0 15 15" version="1.1">
  <g id="surface1">
    <path style=" stroke:none;fill-rule:nonzero;fill:rgb(0%,0%,0%);fill-opacity:1;" d="M 13.53125 3.023438 C 13.695312 2.859375 13.925781 2.679688 14.164062 2.464844 L 14.382812 2.28125 L 13.785156 1.613281 L 13.59375 1.792969 C 12.769531 2.542969 12.273438 2.996094 12.03125 3.921875 C 11.789062 4.84375 11.78125 5.777344 11.804688 6.648438 C 11.832031 7.550781 11.867188 8.144531 12.117188 8.804688 L 12.210938 9.046875 C 12.453125 9.65625 12.820312 10.570312 12.820312 11.75 C 12.820312 13.175781 12.242188 13.898438 11.101562 13.898438 C 10.066406 13.898438 9.507812 13.207031 9.445312 11.84375 C 9.414062 11.238281 9.582031 10.488281 9.761719 9.699219 C 9.914062 9.035156 10.066406 8.34375 10.144531 7.613281 C 10.230469 6.804688 10.125 6.230469 9.8125 5.882812 C 9.414062 5.4375 8.804688 5.398438 8.265625 5.398438 L 8.101562 5.398438 L 8.101562 1.242188 C 8.101562 0.882812 7.839844 0.601562 7.480469 0.601562 L 1.289062 0.601562 C 0.929688 0.601562 0.601562 0.882812 0.601562 1.242188 L 0.601562 14.398438 L 8.101562 14.398438 L 8.101562 6.300781 L 8.265625 6.300781 C 8.632812 6.300781 9.015625 6.339844 9.144531 6.484375 C 9.214844 6.5625 9.320312 6.816406 9.25 7.5 C 9.179688 8.175781 9.03125 8.847656 8.882812 9.488281 C 8.691406 10.339844 8.511719 11.152344 8.546875 11.882812 C 8.632812 13.734375 9.566406 14.800781 11.101562 14.800781 C 12.738281 14.800781 13.71875 13.660156 13.71875 11.75 C 13.71875 10.398438 13.300781 9.34375 13.046875 8.710938 L 12.957031 8.480469 C 12.777344 8.003906 12.734375 7.5625 12.710938 6.792969 C 13 6.785156 13.351562 6.777344 13.507812 6.777344 C 13.867188 6.777344 14.046875 6.566406 14.125 6.203125 C 14.167969 5.988281 14.101562 5.710938 14.101562 5.203125 L 14.101562 5.066406 C 14.101562 3.726562 13.894531 3.34375 13.53125 3.023438 Z M 7.199219 5.699219 L 1.5 5.699219 L 1.5 1.800781 L 7.199219 1.800781 Z M 13.199219 5.203125 C 13.199219 5.464844 13.269531 5.714844 13.261719 5.875 C 13.082031 5.878906 12.875 5.882812 12.664062 5.886719 C 12.671875 5.308594 12.738281 4.71875 12.882812 4.152344 C 12.925781 4 12.914062 3.867188 12.972656 3.742188 C 13.132812 3.898438 13.199219 4.128906 13.199219 5.070312 Z M 13.199219 5.203125 "/>
  </g>
</svg>