<?xml version="1.0" encoding="UTF-8" standalone="yes"?>
<svg xmlns="http://www.w3.org/2000/svg" xmlns:xlink="http://www.w3.org/1999/xlink" width="20px" height="20px" viewBox="0 0 15 15" version="1.1">
  <g id="surface1">
    <path style=" stroke:none;fill-rule:nonzero;fill:rgb(0%,0%,0%);fill-opacity:1;" d="M 10.644531 4.511719 C 10.570312 4.511719 10.5 4.460938 10.5 4.386719 L 10.5 2.53125 C 10.5 2.460938 10.460938 2.398438 10.386719 2.398438 L 4.613281 2.398438 C 4.539062 2.398438 4.5 2.460938 4.5 2.53125 L 4.5 4.386719 C 4.5 4.460938 4.417969 4.5 4.34375 4.5 L 0.433594 4.5 C 0.359375 4.5 0.300781 4.582031 0.300781 4.652344 L 0.300781 6.714844 C 0.300781 6.785156 0.359375 6.898438 0.433594 6.898438 L 6.730469 6.898438 C 6.804688 6.898438 6.898438 6.785156 6.898438 6.714844 L 6.898438 6.273438 C 6.898438 6.199219 6.925781 6 7.003906 6 L 8 6 C 8.074219 6 8.101562 6.199219 8.101562 6.273438 L 8.101562 6.714844 C 8.101562 6.785156 8.195312 6.898438 8.269531 6.898438 L 14.5625 6.898438 C 14.640625 6.898438 14.699219 6.785156 14.699219 6.714844 L 14.699219 4.652344 C 14.699219 4.578125 14.640625 4.5 14.566406 4.5 L 10.65625 4.5 Z M 5.429688 4.5 C 5.351562 4.5 5.398438 4.460938 5.398438 4.386719 L 5.398438 3.332031 C 5.398438 3.261719 5.351562 3.300781 5.429688 3.300781 L 9.570312 3.300781 C 9.648438 3.300781 9.601562 3.261719 9.601562 3.332031 L 9.601562 4.386719 C 9.601562 4.460938 9.648438 4.5 9.570312 4.5 Z M 8.117188 8.914062 C 8.117188 8.984375 8.074219 9 8 9 L 7.003906 9 C 6.925781 9 6.898438 9.03125 6.898438 8.960938 L 6.898438 7.476562 C 6.898438 7.40625 6.804688 7.199219 6.730469 7.199219 L 0.433594 7.199219 C 0.359375 7.199219 0.300781 7.40625 0.300781 7.476562 L 0.300781 11.867188 C 0.300781 11.941406 0.359375 12 0.433594 12 L 14.566406 12 C 14.640625 12 14.699219 11.941406 14.699219 11.867188 L 14.699219 7.476562 C 14.699219 7.40625 14.640625 7.199219 14.566406 7.199219 L 8.269531 7.199219 C 8.195312 7.199219 8.101562 7.40625 8.101562 7.476562 L 8.101562 8.960938 Z M 8.117188 8.914062 "/>
  </g>
</svg>