<svg version="1.1" xmlns="http://www.w3.org/2000/svg" xlink="http://www.w3.org/1999/xlink" x="0px" y="0px" width="15px" height="15px" viewBox="0 0 15 15" style="enable-background:new 0 0 15 15;" space="preserve">
    <path d="M8.65625,8.621094C9.046875,8.75,9.46875,8.554688,9.605469,8.171875C9.738281,7.792969,9.53125,7.382812,9.144531,7.25C8.753906,7.117188,8.332031,7.320312,8.195312,7.699219C8.0625,8.078125,8.265625,8.492188,8.65625,8.621094ZM14.761719,3.894531C14.761719,3.894531,12.242188,3.597656,7.011719,3.597656C3.152344,3.597656,0,3.894531,0,3.894531C0,3.894531,1.308594,4.453125,1.082031,6.191406C1.082031,6.191406,2.957031,5.972656,3.742188,7.539062L7.265625,6.5L7.035156,8.789062L5.542969,9.144531C5.410156,9.171875,5.300781,9.238281,5.210938,9.316406L1.941406,12.390625C1.746094,12.566406,1.742188,12.867188,1.929688,13.050781C2.113281,13.238281,2.421875,13.246094,2.609375,13.070312L5.070312,10.761719L8.082031,10.042969L8.0625,10.046875L8.5625,9.921875L9.023438,10.433594C9.097656,10.507812,9.199219,10.554688,9.304688,10.554688L10.929688,10.5625C11.132812,10.5625,11.300781,10.402344,11.300781,10.199219C11.300781,10.023438,11.175781,9.890625,11.007812,9.847656L9.800781,5.75L14.835938,4.265625C15.074219,4.164062,15.054688,3.925781,14.761719,3.894531ZM10.648438,9.832031C10.277344,9.832031,9.660156,9.828125,9.476562,9.828125L8.601562,8.867188L8.5625,8.839844C8.386719,8.640625,8.109375,8.535156,7.828125,8.597656L7.390625,8.707031L7.625,6.394531L9.46875,5.847656ZM10.648438,9.832031" fill="#FFFFFF"/>
    </svg>