<svg version="1.1" xmlns="http://www.w3.org/2000/svg" xlink="http://www.w3.org/1999/xlink" x="0px" y="0px" width="15px" height="15px" viewBox="0 0 15 15" style="enable-background:new 0 0 15 15;" space="preserve">
    <path d="M11.101562,0.300781C10.933594,0.300781,10.800781,0.433594,10.800781,0.601562L10.800781,4.800781C10.800781,4.964844,10.664062,5.101562,10.5,5.101562L4.5,5.101562C4.335938,5.101562,4.199219,4.964844,4.199219,4.800781L4.199219,0.601562C4.199219,0.433594,4.066406,0.300781,3.898438,0.300781L1.199219,0.300781C1.035156,0.300781,0.898438,0.433594,0.898438,0.601562L0.898438,14.398438C0.898438,14.566406,1.035156,14.699219,1.199219,14.699219L3.898438,14.699219C4.066406,14.699219,4.199219,14.566406,4.199219,14.398438L4.199219,9.601562C4.199219,9.433594,4.335938,9.300781,4.5,9.300781L10.5,9.300781C10.664062,9.300781,10.800781,9.433594,10.800781,9.601562L10.800781,14.398438C10.800781,14.566406,10.933594,14.699219,11.101562,14.699219L13.800781,14.699219C13.964844,14.699219,14.101562,14.566406,14.101562,14.398438L14.101562,0.601562C14.101562,0.433594,13.964844,0.300781,13.800781,0.300781ZM11.101562,0.300781" fill="#FFFFFF"/>
    </svg>