<svg xmlns="http://www.w3.org/2000/svg" xlink="http://www.w3.org/1999/xlink" width="20px" height="20px" viewBox="0 0 15 15" version="1.1">
  <g id="surface1">
    <path d="M 14.699219 14.21875 C 11.398438 14.265625 7.828125 13.621094 5.101562 11.445312 L 5.125 11.378906 C 5.125 11.332031 5.1875 11.289062 5.242188 11.289062 L 7.9375 11.292969 C 8.070312 11.292969 8.179688 11.191406 8.179688 11.058594 C 8.179688 10.960938 8.136719 10.894531 8.035156 10.84375 L 5.609375 9.691406 C 5.558594 9.660156 5.535156 9.613281 5.535156 9.554688 C 5.535156 9.507812 5.457031 9.472656 5.484375 9.441406 C 5.484375 9.441406 8.398438 6.84375 14.699219 6.902344 Z M 9.191406 10.097656 C 9.511719 10.097656 9.769531 9.84375 9.769531 9.527344 C 9.769531 9.210938 9.511719 8.957031 9.191406 8.957031 C 8.878906 8.957031 8.617188 9.210938 8.617188 9.527344 C 8.617188 9.84375 8.878906 10.097656 9.191406 10.097656 Z M 0.300781 0.601562 L 3 0.601562 L 3 2.699219 L 0.300781 2.699219 Z M 5.699219 0.601562 L 14.699219 0.601562 L 14.699219 2.699219 L 5.699219 2.699219 Z M 4.199219 3.75 C 3.898438 3.824219 3.808594 4.039062 3.808594 4.289062 C 3.808594 4.539062 3.898438 4.753906 4.199219 4.832031 L 4.199219 8.359375 C 4.199219 8.8125 3.765625 9.175781 3.308594 9.175781 C 2.855469 9.175781 2.453125 8.8125 2.453125 8.359375 C 2.453125 8.246094 2.457031 8.140625 2.5 8.042969 L 2.527344 8.070312 L 2.8125 8.335938 L 2.628906 6.726562 L 2.15625 7.808594 C 2.011719 8.144531 2.046875 8.359375 2.046875 8.359375 C 2.046875 9.015625 2.613281 9.550781 3.273438 9.550781 C 3.9375 9.550781 4.5 9.015625 4.5 8.359375 L 4.5 4.828125 C 4.800781 4.746094 4.882812 4.535156 4.882812 4.289062 C 4.882812 4.039062 4.800781 3.824219 4.5 3.742188 L 4.5 0.601562 L 4.199219 0.601562 Z M 4.199219 3.75 " fill="#FFFFFF"/>
  </g>
</svg>