<?xml version="1.0" encoding="UTF-8" standalone="yes"?>
<svg xmlns="http://www.w3.org/2000/svg" xmlns:xlink="http://www.w3.org/1999/xlink" width="20px" height="20px" viewBox="0 0 15 15" version="1.1">
  <g id="surface1">
    <path style=" stroke:none;fill-rule:nonzero;fill:rgb(0%,0%,0%);fill-opacity:1;" d="M 10.554688 0.300781 C 9.875 0.300781 9.328125 0.859375 9.328125 1.542969 C 9.328125 2.226562 9.875 2.78125 10.554688 2.78125 C 11.234375 2.78125 11.785156 2.226562 11.785156 1.542969 C 11.785156 0.859375 11.234375 0.300781 10.554688 0.300781 Z M 1.269531 8.863281 C 1.164062 8.6875 0.941406 8.636719 0.773438 8.742188 C 0.601562 8.851562 0.550781 9.078125 0.65625 9.25 C 0.761719 9.417969 0.984375 9.472656 1.160156 9.367188 C 1.324219 9.257812 1.378906 9.03125 1.269531 8.863281 Z M 1.523438 9.875 C 1.417969 9.707031 1.195312 9.652344 1.019531 9.761719 C 0.851562 9.867188 0.800781 10.09375 0.90625 10.261719 C 1.015625 10.4375 1.238281 10.488281 1.40625 10.378906 C 1.578125 10.273438 1.628906 10.046875 1.523438 9.875 Z M 1.773438 10.890625 C 1.671875 10.714844 1.441406 10.664062 1.273438 10.773438 C 1.101562 10.878906 1.050781 11.105469 1.15625 11.28125 C 1.261719 11.449219 1.488281 11.5 1.660156 11.394531 C 1.828125 11.285156 1.882812 11.058594 1.773438 10.890625 Z M 2.023438 11.902344 C 1.917969 11.734375 1.695312 11.683594 1.527344 11.785156 C 1.355469 11.894531 1.304688 12.121094 1.410156 12.292969 C 1.515625 12.464844 1.738281 12.515625 1.910156 12.410156 C 2.078125 12.300781 2.132812 12.078125 2.023438 11.902344 Z M 7.925781 13.96875 C 7.730469 14.03125 7.625 14.238281 7.6875 14.433594 C 7.75 14.625 7.957031 14.730469 8.144531 14.671875 C 8.335938 14.609375 8.441406 14.402344 8.382812 14.210938 C 8.320312 14.015625 8.117188 13.910156 7.925781 13.96875 Z M 8.957031 13.976562 C 8.765625 14.035156 8.664062 14.246094 8.722656 14.433594 C 8.785156 14.628906 8.992188 14.738281 9.179688 14.675781 C 9.371094 14.613281 9.476562 14.40625 9.414062 14.214844 C 9.351562 14.023438 9.152344 13.914062 8.957031 13.976562 Z M 9.996094 13.980469 C 9.804688 14.042969 9.695312 14.246094 9.761719 14.441406 C 9.820312 14.632812 10.027344 14.742188 10.21875 14.679688 C 10.40625 14.621094 10.511719 14.414062 10.449219 14.21875 C 10.390625 14.027344 10.1875 13.917969 9.996094 13.980469 Z M 11.03125 13.984375 C 10.839844 14.046875 10.734375 14.253906 10.792969 14.445312 C 10.859375 14.636719 11.0625 14.742188 11.253906 14.683594 C 11.441406 14.621094 11.546875 14.417969 11.488281 14.222656 C 11.425781 14.027344 11.21875 13.925781 11.03125 13.984375 Z M 13.5 5.101562 L 11.351562 5.101562 L 10.289062 3.363281 C 10.109375 2.972656 9.722656 2.703125 9.269531 2.683594 C 9.179688 2.679688 9.101562 2.691406 9.019531 2.710938 L 3.625 3.992188 C 3.296875 4.070312 3.09375 4.398438 3.171875 4.730469 C 3.242188 5.058594 3.566406 5.261719 3.890625 5.1875 L 7.496094 4.53125 L 4.757812 9.300781 L 1.828125 9.300781 L 2.476562 11.667969 C 2.496094 11.746094 2.496094 11.660156 2.523438 11.699219 C 2.613281 11.851562 2.808594 11.847656 2.953125 11.757812 C 3.035156 11.710938 3.085938 11.601562 3.101562 11.515625 L 3.488281 10.308594 L 3.503906 10.253906 L 5.308594 10.242188 C 5.667969 10.242188 5.976562 10.144531 6.15625 9.839844 L 6.988281 8.449219 L 8.835938 10.34375 L 8.054688 13.5 L 10.765625 13.5 C 10.941406 13.5 11.085938 13.316406 11.085938 13.144531 C 11.085938 13.003906 11 12.890625 10.894531 12.832031 L 9.722656 12.167969 L 10.285156 9.925781 C 10.285156 9.925781 10.425781 9.449219 9.984375 9.011719 L 8.472656 7.480469 C 8.472656 7.480469 9.28125 6.140625 9.796875 5.277344 L 10.5 6.300781 L 13.488281 6.300781 C 13.824219 6.300781 14.097656 6.039062 14.101562 5.703125 C 14.101562 5.363281 13.832031 5.101562 13.5 5.101562 Z M 13.5 5.101562 "/>
  </g>
</svg>