<svg xmlns="http://www.w3.org/2000/svg" xlink="http://www.w3.org/1999/xlink" width="20px" height="20px" viewBox="0 0 15 15" version="1.1">
  <g id="surface1">
    <path d="M 13.089844 2.941406 C 13.816406 2.941406 14.398438 2.347656 14.398438 1.621094 C 14.398438 0.890625 13.816406 0.300781 13.089844 0.300781 C 12.367188 0.300781 11.785156 0.890625 11.785156 1.621094 C 11.785156 2.347656 12.367188 2.941406 13.089844 2.941406 Z M 9.300781 14.398438 L 12.898438 14.398438 C 12.898438 14.398438 13.199219 14.367188 13.199219 14.101562 L 13.199219 13.800781 L 13.5 13.800781 C 13.5 13.800781 13.625 14.613281 12.941406 14.699219 L 9.300781 14.699219 Z M 0.898438 11.699219 L 3.300781 14.101562 C 3.300781 14.101562 3.496094 14.175781 3.6875 13.984375 L 3.875 13.792969 L 4.199219 14.101562 C 4.199219 14.101562 3.660156 14.886719 3.117188 14.460938 L 0.601562 11.917969 Z M 10.171875 10.726562 L 10.175781 13.117188 C 10.175781 13.566406 10.492188 13.929688 10.9375 13.929688 C 11.347656 13.929688 11.699219 13.453125 11.699219 13.117188 L 11.699219 9.789062 C 11.699219 9.558594 11.648438 9.347656 11.492188 9.199219 L 9.578125 7.253906 L 12.15625 4.664062 C 12.636719 4.058594 12.390625 3.328125 12.390625 3.328125 C 12.125 2.519531 11.21875 2.492188 11.21875 2.492188 L 4.609375 2.492188 C 4.257812 2.492188 3.972656 2.777344 3.972656 3.136719 C 3.972656 3.492188 4.257812 3.78125 4.609375 3.78125 L 9.175781 3.789062 L 7.253906 5.71875 C 6.976562 6.003906 6.839844 6.320312 6.839844 6.738281 C 6.839844 7.140625 6.996094 7.5 7.261719 7.761719 Z M 6.851562 8.125 C 6.789062 8.066406 6.734375 8 6.683594 7.933594 L 2.871094 11.789062 C 2.582031 12.023438 2.488281 12.4375 2.660156 12.78125 C 2.859375 13.171875 3.339844 13.328125 3.730469 13.128906 C 3.78125 13.097656 3.832031 13.066406 3.875 13.027344 L 7.789062 9.070312 Z M 6.851562 8.125 " fill="#FFFFFF"/>
  </g>
</svg>