<?xml version="1.0" encoding="UTF-8" standalone="yes"?>
<svg xmlns="http://www.w3.org/2000/svg" xmlns:xlink="http://www.w3.org/1999/xlink" width="20px" height="20px" viewBox="0 0 15 15" version="1.1">
  <g id="surface1">
    <path style=" stroke:none;fill-rule:nonzero;fill:rgb(0%,0%,0%);fill-opacity:1;" d="M 4.945312 3.566406 C 5.582031 3.488281 6.039062 2.898438 5.960938 2.246094 C 5.886719 1.59375 5.304688 1.132812 4.664062 1.207031 C 4.027344 1.289062 3.574219 1.878906 3.648438 2.527344 C 3.730469 3.179688 4.304688 3.644531 4.945312 3.566406 Z M 14.527344 9.164062 C 14.464844 9.132812 9.710938 6.675781 9.710938 6.675781 L 8.507812 5.089844 L 8.429688 5.074219 C 8.265625 4.917969 8.101562 4.933594 7.800781 5.101562 L 7.800781 5.105469 C 7.800781 5.230469 7.734375 5.417969 7.816406 5.566406 L 8.742188 6.742188 L 8.757812 6.753906 L 8.023438 8.488281 L 6.058594 7.988281 L 5.972656 7.269531 L 7.59375 7.070312 C 7.667969 7.066406 7.742188 7.046875 7.8125 7.007812 C 8.078125 6.863281 8.183594 6.523438 8.042969 6.25 C 7.929688 6.039062 7.710938 5.925781 7.496094 5.953125 L 5.84375 6.15625 L 5.699219 4.910156 C 5.617188 4.261719 5.035156 3.792969 4.402344 3.871094 C 3.761719 3.953125 3.304688 4.542969 3.382812 5.195312 L 3.726562 8.078125 C 3.765625 8.445312 3.980469 8.765625 4.265625 8.953125 L 1.675781 9.265625 L 0.867188 11.304688 L 0.960938 11.273438 C 1.292969 11.117188 1.664062 11.03125 2.03125 11.03125 C 2.394531 11.03125 2.761719 11.117188 3.09375 11.269531 C 3.300781 11.367188 3.53125 11.417969 3.757812 11.417969 C 3.980469 11.417969 4.207031 11.367188 4.414062 11.273438 C 4.75 11.117188 5.117188 11.03125 5.484375 11.03125 C 5.847656 11.03125 6.214844 11.117188 6.542969 11.269531 C 6.753906 11.367188 6.984375 11.417969 7.210938 11.417969 C 7.4375 11.417969 7.660156 11.367188 7.871094 11.273438 C 8.203125 11.117188 8.574219 11.03125 8.9375 11.03125 C 9.304688 11.03125 9.671875 11.117188 10 11.269531 C 10.078125 11.304688 10.164062 11.328125 10.25 11.355469 C 11.574219 11 13.917969 10.316406 14.550781 9.738281 C 14.734375 9.570312 14.769531 9.289062 14.527344 9.164062 Z M 0.300781 13.800781 C 0.601562 13.800781 0.894531 13.730469 1.152344 13.609375 C 1.417969 13.484375 1.71875 13.410156 2.03125 13.410156 C 2.34375 13.410156 2.636719 13.484375 2.90625 13.609375 C 3.164062 13.730469 3.453125 13.800781 3.757812 13.800781 C 4.058594 13.800781 4.347656 13.730469 4.605469 13.609375 C 4.871094 13.484375 5.171875 13.410156 5.484375 13.410156 C 5.792969 13.410156 6.09375 13.484375 6.359375 13.609375 C 6.617188 13.730469 6.90625 13.800781 7.210938 13.800781 C 7.511719 13.800781 7.800781 13.730469 8.0625 13.609375 C 8.328125 13.484375 8.625 13.410156 8.9375 13.410156 C 9.25 13.410156 9.546875 13.484375 9.8125 13.609375 C 10.074219 13.730469 10.363281 13.800781 10.664062 13.800781 C 10.96875 13.800781 11.257812 13.730469 11.515625 13.609375 C 11.78125 13.484375 12.082031 13.410156 12.390625 13.410156 C 12.703125 13.410156 12.992188 13.484375 13.257812 13.609375 C 13.515625 13.730469 13.800781 13.800781 14.101562 13.800781 L 14.101562 12.5 C 13.800781 12.5 13.515625 12.429688 13.257812 12.3125 C 12.992188 12.183594 12.699219 12.113281 12.386719 12.113281 C 12.078125 12.113281 11.78125 12.183594 11.511719 12.3125 C 11.253906 12.429688 10.964844 12.5 10.664062 12.5 C 10.359375 12.5 10.074219 12.429688 9.8125 12.3125 C 9.546875 12.183594 9.25 12.113281 8.9375 12.113281 C 8.625 12.113281 8.328125 12.183594 8.0625 12.3125 C 7.800781 12.429688 7.511719 12.5 7.210938 12.5 C 6.90625 12.5 6.617188 12.429688 6.359375 12.3125 C 6.09375 12.183594 5.792969 12.113281 5.484375 12.113281 C 5.171875 12.113281 4.871094 12.183594 4.605469 12.3125 C 4.347656 12.429688 4.058594 12.5 3.757812 12.5 C 3.453125 12.5 3.164062 12.429688 2.90625 12.3125 C 2.636719 12.183594 2.34375 12.113281 2.03125 12.113281 C 1.71875 12.113281 1.417969 12.183594 1.152344 12.3125 C 0.894531 12.429688 0.601562 12.5 0.300781 12.5 Z M 0.300781 13.800781 "/>
  </g>
</svg>