<svg xmlns="http://www.w3.org/2000/svg" xlink="http://www.w3.org/1999/xlink" width="20px" height="20px" viewBox="0 0 15 15" version="1.1">
  <g id="surface1">
    <path d="M 12.949219 6.300781 L 12.300781 6.300781 L 12.300781 3.710938 C 12.300781 2.007812 10.589844 0.300781 8.886719 0.300781 L 6.042969 0.300781 C 4.339844 0.300781 2.699219 2.007812 2.699219 3.710938 L 2.699219 6.300781 L 1.984375 6.300781 C 1.78125 6.300781 1.5 6.617188 1.5 6.796875 L 1.5 14.433594 C 1.5 14.613281 1.78125 14.699219 1.984375 14.699219 L 12.949219 14.699219 C 13.152344 14.699219 13.5 14.613281 13.5 14.433594 L 13.5 6.796875 C 13.5 6.617188 13.152344 6.300781 12.949219 6.300781 Z M 8.914062 13.5 L 6.019531 13.5 L 6.625 10.511719 C 6.257812 10.25 6.019531 9.757812 6.019531 9.277344 C 6.019531 8.484375 6.667969 7.808594 7.464844 7.808594 C 8.265625 7.808594 8.914062 8.4375 8.914062 9.230469 C 8.914062 9.710938 8.671875 10.257812 8.308594 10.519531 Z M 10.199219 6.300781 L 4.800781 6.300781 L 4.800781 3.710938 C 4.800781 2.9375 5.308594 2.398438 6.074219 2.398438 L 8.859375 2.398438 C 9.625 2.398438 10.199219 2.9375 10.199219 3.710938 Z M 10.199219 6.300781 " fill="#FFFFFF"/>
  </g>
</svg>