<?xml version="1.0" encoding="UTF-8" standalone="yes"?>
<svg xmlns="http://www.w3.org/2000/svg" xmlns:xlink="http://www.w3.org/1999/xlink" width="20px" height="20px" viewBox="0 0 15 15" version="1.1">
  <g id="surface1">
    <path style=" stroke:none;fill-rule:nonzero;fill:rgb(0%,0%,0%);fill-opacity:1;" d="M 1.800781 3.300781 L 1.800781 13.421875 C 1.800781 13.863281 2.171875 14.398438 2.628906 14.398438 L 12.59375 14.398438 C 13.050781 14.398438 13.5 13.863281 13.5 13.421875 L 13.5 3.300781 Z M 7.636719 11.332031 C 5.878906 11.332031 4.453125 9.953125 4.453125 8.253906 C 4.453125 6.554688 5.878906 5.175781 7.636719 5.175781 C 9.394531 5.175781 10.820312 6.554688 10.820312 8.253906 C 10.820312 9.953125 9.394531 11.332031 7.636719 11.332031 Z M 12.59375 0.300781 L 2.628906 0.300781 C 2.171875 0.300781 1.800781 0.609375 1.800781 1.050781 L 1.800781 2.699219 L 13.5 2.699219 L 13.5 1.050781 C 13.5 0.609375 13.050781 0.300781 12.59375 0.300781 Z M 5.699219 2.101562 L 2.398438 2.101562 L 2.398438 0.898438 L 5.699219 0.898438 Z M 11.445312 2.015625 C 11.070312 2.015625 10.765625 1.722656 10.765625 1.359375 C 10.765625 0.996094 11.070312 0.703125 11.445312 0.703125 C 11.820312 0.703125 12.121094 0.996094 12.121094 1.359375 C 12.121094 1.722656 11.820312 2.015625 11.445312 2.015625 Z M 11.445312 2.015625 "/>
  </g>
</svg>