<svg xmlns="http://www.w3.org/2000/svg" xlink="http://www.w3.org/1999/xlink" width="20px" height="20px" viewBox="0 0 15 15" version="1.1">
  <g id="surface1">
    <path d="M 0.0898438 8.273438 C 0.210938 9.226562 1.023438 9.960938 2.011719 9.960938 C 2.996094 9.960938 3.808594 9.226562 3.929688 8.273438 Z M 10.554688 12.175781 C 10.554688 12.339844 10.421875 12.476562 10.253906 12.476562 L 4.660156 12.476562 C 4.492188 12.476562 4.359375 12.339844 4.359375 12.175781 C 4.359375 12.007812 4.492188 11.875 4.660156 11.875 L 10.253906 11.875 C 10.421875 11.875 10.554688 12.007812 10.554688 12.175781 Z M 4.390625 12.628906 L 10.523438 12.628906 L 10.523438 13.496094 L 4.390625 13.496094 Z M 11.070312 8.273438 C 11.191406 9.226562 12.003906 9.960938 12.992188 9.960938 C 13.976562 9.960938 14.789062 9.226562 14.910156 8.273438 Z M 14.804688 7.671875 L 13.230469 5.503906 L 14.074219 5.503906 C 14.277344 5.503906 14.441406 5.335938 14.441406 5.128906 C 14.441406 4.925781 14.277344 4.757812 14.074219 4.757812 L 9.617188 4.757812 C 9.351562 4.027344 8.710938 3.476562 7.929688 3.339844 L 7.929688 2.167969 C 7.929688 1.960938 7.761719 1.796875 7.554688 1.796875 L 7.519531 1.800781 L 7.484375 1.796875 C 7.277344 1.796875 7.113281 1.960938 7.113281 2.167969 L 7.113281 3.339844 C 6.328125 3.476562 5.6875 4.027344 5.421875 4.757812 L 0.96875 4.757812 C 0.765625 4.757812 0.597656 4.925781 0.597656 5.128906 C 0.597656 5.335938 0.765625 5.503906 0.96875 5.503906 L 1.769531 5.503906 L 0.195312 7.671875 L 0 7.671875 L 0 8.070312 L 4.019531 8.070312 L 4.019531 7.671875 L 3.820312 7.671875 L 2.25 5.503906 L 5.898438 5.503906 C 5.898438 5.421875 5.910156 5.335938 5.921875 5.257812 C 5.933594 5.21875 5.945312 5.183594 5.945312 5.144531 C 6.082031 4.5625 6.535156 4.105469 7.113281 3.964844 L 7.113281 8.070312 L 7.097656 8.070312 C 7.0625 9.617188 6.328125 10.964844 5.238281 11.722656 L 9.800781 11.722656 C 8.710938 10.964844 7.976562 9.617188 7.941406 8.070312 L 7.929688 8.070312 L 7.929688 3.964844 C 8.507812 4.105469 8.960938 4.5625 9.097656 5.144531 C 9.097656 5.183594 9.105469 5.21875 9.117188 5.257812 C 9.132812 5.335938 9.136719 5.421875 9.136719 5.503906 L 12.75 5.503906 L 11.179688 7.671875 L 10.980469 7.671875 L 10.980469 8.070312 L 15 8.070312 L 15 7.671875 Z M 1.847656 7.671875 L 0.59375 7.671875 L 1.847656 5.941406 Z M 2.171875 7.671875 L 2.171875 5.941406 L 3.425781 7.671875 Z M 12.832031 7.671875 L 11.574219 7.671875 L 12.832031 5.941406 Z M 13.148438 7.671875 L 13.148438 5.941406 L 14.40625 7.671875 Z M 2.382812 4.238281 C 2.382812 4.441406 2.214844 4.609375 2.011719 4.609375 C 1.804688 4.609375 1.636719 4.441406 1.636719 4.238281 C 1.636719 4.03125 1.804688 3.863281 2.011719 3.863281 C 2.214844 3.863281 2.382812 4.03125 2.382812 4.238281 Z M 13.363281 4.21875 C 13.363281 4.425781 13.195312 4.589844 12.992188 4.589844 C 12.785156 4.589844 12.617188 4.425781 12.617188 4.21875 C 12.617188 4.011719 12.785156 3.84375 12.992188 3.84375 C 13.195312 3.84375 13.363281 4.011719 13.363281 4.21875 Z M 13.363281 4.21875 " fill="#FFFFFF"/>
  </g>
</svg>