<?xml version="1.0" encoding="UTF-8" standalone="yes"?>
<svg xmlns="http://www.w3.org/2000/svg" xmlns:xlink="http://www.w3.org/1999/xlink" width="20px" height="20px" viewBox="0 0 15 15" version="1.1">
  <g id="surface1">
    <path style=" stroke:none;fill-rule:nonzero;fill:rgb(0%,0%,0%);fill-opacity:1;" d="M 6.640625 1.277344 C 6.644531 0.660156 6.140625 0.152344 5.519531 0.15625 C 4.890625 0.152344 4.378906 0.660156 4.382812 1.277344 C 4.378906 1.910156 4.890625 2.414062 5.519531 2.417969 C 6.140625 2.414062 6.644531 1.910156 6.640625 1.277344 Z M 9.890625 7.46875 L 6.273438 3.078125 C 6.085938 2.796875 5.035156 2.679688 4.59375 3.039062 L 2.832031 6.242188 L 3.265625 8.949219 C 3.707031 9.65625 4.582031 8.941406 4.335938 8.554688 L 4.039062 6.636719 L 4.800781 5.101562 L 4.800781 8.699219 L 3 13.5 C 2.6875 14.546875 4.191406 15.109375 4.5 14.101562 L 6.601562 8.699219 L 6.601562 6 L 5.71875 4.78125 C 5.675781 4.730469 5.683594 4.648438 5.734375 4.605469 C 5.789062 4.5625 5.867188 4.566406 5.910156 4.621094 L 8.921875 8.179688 C 9.40625 8.84375 10.375 8.136719 9.890625 7.46875 Z M 8.507812 13.558594 L 6.730469 9.132812 L 6 11.101562 L 7.042969 14.152344 C 7.460938 15.132812 8.9375 14.558594 8.507812 13.558594 Z M 13.222656 14.570312 L 13.226562 14.582031 C 13.296875 14.667969 13.421875 14.675781 13.507812 14.605469 C 13.582031 14.542969 13.59375 14.429688 13.542969 14.347656 L 10.195312 8.53125 L 10.183594 8.519531 C 10.117188 8.441406 9.992188 8.429688 9.910156 8.5 C 9.835938 8.5625 9.828125 8.671875 9.875 8.753906 Z M 13.222656 14.570312 "/>
  </g>
</svg>