<svg xmlns="http://www.w3.org/2000/svg" xlink="http://www.w3.org/1999/xlink" width="20px" height="20px" viewBox="0 0 15 15" version="1.1">
  <g id="surface1">
    <path d="M 14.40625 7.996094 C 13.988281 9.953125 12.550781 11.558594 10.652344 12.1875 C 10.070312 12.382812 9.46875 12.480469 8.859375 12.480469 C 6.414062 12.480469 4.253906 10.921875 3.480469 8.605469 C 3 7.171875 3.113281 5.636719 3.789062 4.285156 C 4.46875 2.933594 5.632812 1.925781 7.066406 1.445312 C 8.417969 1 9.886719 1.074219 11.179688 1.652344 L 11.460938 1.125 C 9.582031 -0.0351562 7.242188 -0.3125 5.136719 0.386719 C 3.234375 1.019531 1.691406 2.355469 0.796875 4.144531 C -0.101562 5.933594 -0.246094 7.96875 0.386719 9.867188 C 1.410156 12.9375 4.273438 15 7.511719 15 C 8.316406 15 9.113281 14.871094 9.882812 14.613281 C 12.753906 13.660156 14.761719 11.09375 15 8.082031 Z M 10.710938 4.382812 L 9.203125 1.566406 L 8.441406 4.707031 L 5.3125 5.324219 L 8.175781 6.949219 L 7.683594 10.1875 L 10.113281 7.976562 L 13.128906 9.421875 L 11.589844 6.414062 L 14.027344 4.0625 Z M 10.710938 4.382812 " fill="#FFFFFF"/>
  </g>
</svg>