<svg xmlns="http://www.w3.org/2000/svg" xlink="http://www.w3.org/1999/xlink" width="20px" height="20px" viewBox="0 0 15 15" version="1.1">
  <g id="surface1">
    <path d="M 2.558594 9.238281 C 1.964844 9.238281 1.480469 9.722656 1.480469 10.320312 C 1.480469 10.917969 1.964844 11.398438 2.558594 11.398438 C 3.152344 11.398438 3.632812 10.917969 3.632812 10.320312 C 3.632812 9.722656 3.152344 9.238281 2.558594 9.238281 Z M 2.558594 10.875 C 2.261719 10.875 2.019531 10.632812 2.019531 10.335938 C 2.019531 10.039062 2.261719 9.796875 2.558594 9.796875 C 2.855469 9.796875 3.097656 10.039062 3.097656 10.335938 C 3.097656 10.632812 2.855469 10.875 2.558594 10.875 Z M 12.019531 9.238281 C 11.425781 9.238281 10.945312 9.722656 10.945312 10.320312 C 10.945312 10.917969 11.425781 11.398438 12.019531 11.398438 C 12.613281 11.398438 13.097656 10.917969 13.097656 10.320312 C 13.097656 9.722656 12.613281 9.238281 12.019531 9.238281 Z M 12.019531 10.875 C 11.722656 10.875 11.480469 10.632812 11.480469 10.335938 C 11.480469 10.039062 11.722656 9.796875 12.019531 9.796875 C 12.316406 9.796875 12.558594 10.039062 12.558594 10.335938 C 12.558594 10.632812 12.316406 10.875 12.019531 10.875 Z M 14.402344 4.199219 L 4.9375 4.199219 C 4.773438 4.199219 4.640625 4.332031 4.640625 4.5 L 4.640625 7.210938 L 4.042969 7.210938 L 4.042969 5.546875 C 4.042969 5.378906 3.910156 5.246094 3.746094 5.246094 L 1.714844 5.246094 C 1.363281 5.246094 1.046875 5.507812 0.988281 5.882812 L 0.988281 5.863281 L 0.671875 7.660156 L 0.671875 7.667969 C 0.457031 7.703125 0.300781 7.890625 0.300781 8.109375 L 0.308594 8.203125 L 0.300781 8.203125 L 0.746094 10.222656 L 1.210938 10.222656 L 1.210938 10.203125 C 1.210938 9.480469 1.804688 8.894531 2.535156 8.894531 C 3.265625 8.894531 3.859375 9.480469 3.859375 10.203125 L 3.859375 10.222656 L 10.675781 10.222656 L 10.675781 10.203125 C 10.675781 9.480469 11.269531 8.894531 12 8.894531 C 12.730469 8.894531 13.320312 9.480469 13.320312 10.203125 L 13.320312 10.222656 L 14.699219 10.222656 L 14.699219 4.5 C 14.699219 4.335938 14.566406 4.199219 14.402344 4.199219 Z M 3 5.734375 L 3 7.210938 L 1.214844 7.210938 L 1.4375 5.957031 C 1.453125 5.808594 1.585938 5.695312 1.714844 5.695312 L 3 5.695312 Z M 3 5.734375 " fill="#FFFFFF"/>
  </g>
</svg>