<svg version="1.1" xmlns="http://www.w3.org/2000/svg" xlink="http://www.w3.org/1999/xlink" x="0px" y="0px" width="15px" height="15px" viewBox="0 0 15 15" style="enable-background:new 0 0 15 15;" space="preserve">
    <path d="M7.652344,6.773438C7.199219,6.773438,6.828125,7.140625,6.828125,7.59375C6.828125,8.046875,7.199219,8.414062,7.652344,8.414062C8.105469,8.414062,8.472656,8.046875,8.472656,7.59375C8.472656,7.140625,8.105469,6.773438,7.652344,6.773438ZM12.546875,1.222656C12.546875,0.878906,12.269531,0.601562,11.925781,0.601562L3.023438,0.601562C2.679688,0.601562,2.398438,0.878906,2.398438,1.222656L2.398438,13.777344C2.398438,14.121094,2.679688,14.398438,3.023438,14.398438L11.925781,14.398438C12.269531,14.398438,12.546875,14.121094,12.546875,13.777344ZM7.652344,11.523438C5.484375,11.523438,3.722656,9.761719,3.722656,7.59375C3.722656,5.425781,5.484375,3.664062,7.652344,3.664062C9.820312,3.664062,11.582031,5.425781,11.582031,7.59375C11.582031,9.761719,9.820312,11.523438,7.652344,11.523438ZM7.652344,11.523438" fill="#FFFFFF"/>
    </svg>