<svg xmlns="http://www.w3.org/2000/svg" xlink="http://www.w3.org/1999/xlink" width="20px" height="20px" viewBox="0 0 15 15" version="1.1">
  <g id="surface1">
    <path d="M 5.398438 14.101562 C 5.398438 14.46875 5.628906 14.699219 6 14.699219 C 6.371094 14.699219 6.601562 14.46875 6.601562 14.101562 L 6.601562 8.398438 L 7.199219 8.398438 L 7.199219 14.101562 C 7.199219 14.46875 7.429688 14.699219 7.800781 14.699219 C 8.167969 14.699219 8.398438 14.46875 8.398438 14.101562 L 8.398438 4.5 L 8.699219 4.5 L 8.699219 8.042969 C 8.699219 8.761719 9.601562 8.761719 9.601562 8.042969 L 9.601562 4.398438 C 9.601562 3.605469 9.027344 3 8.101562 3 L 5.699219 3 C 4.855469 3 4.199219 3.515625 4.199219 4.375 L 4.199219 8.101562 C 4.199219 8.699219 5.101562 8.699219 5.101562 8.101562 L 5.101562 4.5 L 5.398438 4.5 Z M 5.398438 14.101562 " fill="#FFFFFF"/>
    <path d="M 8.101562 1.386719 C 8.101562 2.070312 7.546875 2.625 6.863281 2.625 C 6.179688 2.625 5.625 2.070312 5.625 1.386719 C 5.625 0.703125 6.179688 0.148438 6.863281 0.148438 C 7.546875 0.148438 8.101562 0.703125 8.101562 1.386719 Z M 8.101562 1.386719 " fill="#FFFFFF"/>
  </g>
</svg>