<?xml version="1.0" encoding="UTF-8" standalone="yes"?>
<svg xmlns="http://www.w3.org/2000/svg" xmlns:xlink="http://www.w3.org/1999/xlink" width="20px" height="20px" viewBox="0 0 15 15" version="1.1">
  <g id="surface1">
    <path style=" stroke:none;fill-rule:nonzero;fill:rgb(13.72549%,12.156863%,12.54902%);fill-opacity:1;" d="M 7.535156 3.101562 C 7.09375 3.101562 6.726562 2.734375 6.726562 2.285156 C 6.726562 1.832031 7.09375 1.46875 7.535156 1.46875 C 7.984375 1.46875 8.347656 1.832031 8.347656 2.285156 C 8.347656 2.734375 7.984375 3.101562 7.535156 3.101562 Z M 14.085938 10.242188 L 13.652344 7.535156 C 13.605469 7.28125 13.382812 7.089844 13.121094 7.089844 C 12.964844 7.089844 12.820312 7.15625 12.71875 7.265625 L 10.726562 9.144531 C 10.695312 9.171875 10.664062 9.207031 10.632812 9.246094 C 10.445312 9.5 10.5 9.863281 10.753906 10.058594 C 10.804688 10.09375 10.859375 10.117188 10.910156 10.140625 L 11.410156 10.308594 C 10.929688 11.675781 9.546875 12.910156 8.101562 13.199219 L 8.101562 4.199219 C 8.808594 3.898438 9.507812 3.105469 9.507812 2.285156 C 9.507812 1.1875 8.625 0.300781 7.535156 0.300781 C 6.449219 0.300781 5.5625 1.1875 5.5625 2.285156 C 5.5625 3.105469 6.195312 3.898438 6.898438 4.199219 L 6.898438 13.199219 C 5.421875 12.933594 4.078125 11.699219 3.585938 10.304688 L 4.089844 10.140625 C 4.140625 10.117188 4.195312 10.09375 4.246094 10.058594 C 4.5 9.863281 4.554688 9.5 4.363281 9.246094 C 4.335938 9.203125 4.308594 9.171875 4.273438 9.144531 L 2.28125 7.265625 C 2.183594 7.15625 2.035156 7.089844 1.878906 7.089844 C 1.613281 7.089844 1.390625 7.28125 1.347656 7.535156 L 0.914062 10.242188 C 0.902344 10.285156 0.898438 10.332031 0.898438 10.378906 C 0.898438 10.699219 1.160156 10.957031 1.476562 10.957031 C 1.539062 10.957031 1.59375 10.953125 1.648438 10.933594 L 2.117188 10.78125 C 2.859375 13.054688 4.988281 14.699219 7.5 14.699219 C 10.011719 14.699219 12.140625 13.054688 12.886719 10.777344 L 13.351562 10.933594 C 13.40625 10.949219 13.464844 10.957031 13.523438 10.957031 C 13.839844 10.957031 14.101562 10.699219 14.101562 10.378906 C 14.101562 10.332031 14.097656 10.285156 14.085938 10.242188 Z M 14.085938 10.242188 "/>
  </g>
</svg>