<svg xmlns="http://www.w3.org/2000/svg" xlink="http://www.w3.org/1999/xlink" width="20px" height="20px" viewBox="0 0 15 15" version="1.1">
  <g id="surface1">
    <path d="M 12.664062 3.898438 L 10.960938 3.898438 L 12.675781 2.257812 L 10.980469 0.601562 L 8.582031 0.601562 L 10.300781 2.242188 L 8.539062 3.898438 L 6.503906 3.898438 L 8.253906 2.257812 L 6.523438 0.601562 L 4.085938 0.601562 L 5.800781 2.242188 L 4.039062 3.898438 L 2.3125 3.898438 L 4.066406 2.257812 L 2.332031 0.601562 L 0.601562 0.601562 L 0.601562 14.398438 L 14.398438 14.398438 L 14.398438 0.601562 L 12.707031 0.601562 L 14.398438 2.25 Z M 12.601562 12.601562 L 2.398438 12.601562 L 2.398438 10.800781 L 12.601562 10.800781 Z M 12.601562 9.300781 L 2.398438 9.300781 L 2.398438 7.5 L 12.601562 7.5 Z M 12.601562 9.300781 " fill="#FFFFFF"/>
  </g>
</svg>