<svg xmlns="http://www.w3.org/2000/svg" xlink="http://www.w3.org/1999/xlink" width="20px" height="20px" viewBox="0 0 15 15" version="1.1">
  <g id="surface1">
    <path d="M 7.652344 6.773438 C 7.199219 6.773438 6.828125 7.140625 6.828125 7.59375 C 6.828125 8.046875 7.199219 8.414062 7.652344 8.414062 C 8.105469 8.414062 8.472656 8.046875 8.472656 7.59375 C 8.472656 7.140625 8.105469 6.773438 7.652344 6.773438 Z M 12.546875 1.222656 C 12.546875 0.878906 12.269531 0.601562 11.925781 0.601562 L 3.023438 0.601562 C 2.679688 0.601562 2.398438 0.878906 2.398438 1.222656 L 2.398438 13.777344 C 2.398438 14.121094 2.679688 14.398438 3.023438 14.398438 L 11.925781 14.398438 C 12.269531 14.398438 12.546875 14.121094 12.546875 13.777344 Z M 7.652344 11.523438 C 5.484375 11.523438 3.722656 9.761719 3.722656 7.59375 C 3.722656 5.425781 5.484375 3.664062 7.652344 3.664062 C 9.820312 3.664062 11.582031 5.425781 11.582031 7.59375 C 11.582031 9.761719 9.820312 11.523438 7.652344 11.523438 Z M 7.652344 11.523438 " fill="#FFFFFF"/>
  </g>
</svg>