<?xml version="1.0" encoding="UTF-8" standalone="yes"?>
<svg xmlns="http://www.w3.org/2000/svg" xmlns:xlink="http://www.w3.org/1999/xlink" width="20px" height="20px" viewBox="0 0 15 15" version="1.1">
  <g id="surface1">
    <path style=" stroke:none;fill-rule:nonzero;fill:rgb(0%,0%,0%);fill-opacity:1;" d="M 14.101562 2.699219 L 9.601562 2.699219 C 9.601562 2.699219 9.300781 5.101562 9.898438 7.5 C 10.140625 7.902344 10.738281 8.117188 11.398438 8.171875 L 11.398438 11.101562 L 11.300781 11.101562 L 10.199219 12 L 13.5 12 L 12.425781 11.101562 L 12.300781 11.101562 L 12.300781 8.152344 C 12.9375 8.070312 13.519531 7.847656 13.800781 7.5 C 14.398438 5.398438 14.101562 2.699219 14.101562 2.699219 Z M 13.800781 4.5 L 9.898438 4.5 L 9.898438 3 L 13.800781 3 Z M 6.449219 11.101562 L 4.800781 11.101562 L 4.800781 8.550781 L 8.101562 3.601562 L 0.300781 3.601562 L 3.601562 8.550781 L 3.601562 11.101562 L 1.949219 11.101562 C 1.703125 11.101562 1.5 11.300781 1.5 11.550781 C 1.5 11.796875 1.703125 12 1.949219 12 L 6.449219 12 C 6.699219 12 6.898438 11.796875 6.898438 11.550781 C 6.898438 11.300781 6.699219 11.101562 6.449219 11.101562 Z M 6.449219 11.101562 "/>
  </g>
</svg>