<?xml version="1.0" encoding="UTF-8" standalone="yes"?>
<svg xmlns="http://www.w3.org/2000/svg" xmlns:xlink="http://www.w3.org/1999/xlink" width="20px" height="20px" viewBox="0 0 15 15" version="1.1">
  <g id="surface1">
    <path style=" stroke:none;fill-rule:nonzero;fill:rgb(0%,0%,0%);fill-opacity:1;" d="M 3.601562 0.300781 L 6.300781 0.300781 L 6.300781 2.398438 L 3.601562 2.398438 Z M 9.21875 8.945312 C 8.953125 8.945312 8.699219 8.679688 8.699219 8.414062 L 8.699219 3 L 12.957031 3 L 14.703125 10.464844 L 14.699219 10.90625 L 14.699219 14.222656 C 14.699219 14.476562 14.488281 14.699219 14.234375 14.699219 L 10.210938 14.699219 C 9.960938 14.699219 9.898438 14.476562 9.898438 14.222656 L 9.898438 9 L 9.300781 9 M 5.785156 8.953125 C 6.042969 8.953125 6.300781 8.695312 6.300781 8.429688 L 6.300781 3 L 2.046875 3 L 0.296875 10.46875 L 0.300781 10.921875 L 0.300781 14.234375 C 0.300781 14.492188 0.511719 14.699219 0.765625 14.699219 L 4.785156 14.699219 C 5.042969 14.699219 5.101562 14.492188 5.101562 14.234375 L 5.101562 9 L 5.699219 9 "/>
    <path style=" stroke:none;fill-rule:nonzero;fill:rgb(0%,0%,0%);fill-opacity:1;" d="M 6.898438 3 L 8.101562 3 L 8.101562 8.101562 L 6.898438 8.101562 Z M 8.699219 0.300781 L 11.699219 0.300781 L 11.699219 2.398438 L 8.699219 2.398438 Z M 8.699219 0.300781 "/>
  </g>
</svg>