<?xml version="1.0" encoding="UTF-8" standalone="yes"?>
<svg xmlns="http://www.w3.org/2000/svg" xmlns:xlink="http://www.w3.org/1999/xlink" width="20px" height="20px" viewBox="0 0 15 15" version="1.1">
  <g id="surface1">
    <path style=" stroke:none;fill-rule:nonzero;fill:rgb(0%,0%,0%);fill-opacity:1;" d="M 3.835938 10.410156 C 1.976562 10.410156 0.539062 9.363281 0.539062 7.414062 C 0.539062 5.445312 1.929688 4.308594 3.835938 4.308594 C 5.742188 4.308594 7.132812 5.445312 7.132812 7.414062 C 7.132812 9.363281 5.699219 10.410156 3.835938 10.410156 Z M 3.835938 8.871094 C 4.507812 8.871094 4.839844 8.296875 4.839844 7.425781 C 4.839844 6.742188 4.699219 5.851562 3.835938 5.851562 C 2.976562 5.851562 2.832031 6.742188 2.832031 7.425781 C 2.832031 8.296875 3.164062 8.871094 3.835938 8.871094 Z M 12.019531 6.601562 C 12.011719 6.300781 11.921875 6.1875 11.777344 6.042969 C 11.636719 5.890625 11.4375 5.832031 11.179688 5.832031 C 10.324219 5.832031 10.183594 6.734375 10.183594 7.417969 C 10.183594 8.289062 10.511719 8.910156 11.179688 8.910156 C 11.777344 8.910156 12.011719 8.398438 12.074219 8.101562 L 14.390625 8.101562 C 14.191406 9.898438 12.78125 10.457031 11.179688 10.457031 C 9.320312 10.457031 7.890625 9.386719 7.890625 7.4375 C 7.890625 5.464844 9.277344 4.28125 11.179688 4.28125 C 12.726562 4.28125 14.179688 5.101562 14.34375 6.601562 Z M 12.019531 6.601562 "/>
  </g>
</svg>