<svg xmlns="http://www.w3.org/2000/svg" xlink="http://www.w3.org/1999/xlink" width="20px" height="20px" viewBox="0 0 15 15" version="1.1">
  <g id="surface1">
    <path d="M 13.792969 13.320312 C 13.792969 12.71875 12.699219 11.046875 12.699219 11.046875 C 12.699219 11.046875 11.59375 12.71875 11.59375 13.320312 C 11.59375 13.914062 12.085938 14.398438 12.691406 14.398438 C 13.296875 14.398438 13.792969 13.914062 13.792969 13.320312 Z M 5.898438 3.953125 L 3.699219 3.953125 L 3.699219 1.78125 L 4.300781 1.78125 L 4.300781 0.601562 L 0.300781 0.601562 L 0.300781 1.78125 L 0.898438 1.78125 L 0.898438 5.132812 C 0.898438 6.003906 1.617188 6.710938 2.5 6.710938 L 5.898438 6.710938 L 5.898438 7.304688 L 7.101562 7.304688 L 7.101562 3.359375 L 5.898438 3.359375 Z M 14.097656 8.878906 L 14.097656 5.527344 C 14.097656 4.65625 13.382812 3.953125 12.5 3.953125 L 9.101562 3.953125 L 9.101562 3.359375 L 7.898438 3.359375 L 7.898438 7.304688 L 9.101562 7.304688 L 9.101562 6.710938 L 11.300781 6.710938 L 11.300781 8.878906 L 10.699219 8.878906 L 10.699219 10.0625 L 14.699219 10.0625 L 14.699219 8.878906 Z M 14.097656 8.878906 " fill="#FFFFFF"/>
  </g>
</svg>