<svg xmlns="http://www.w3.org/2000/svg" xlink="http://www.w3.org/1999/xlink" width="20px" height="20px" viewBox="0 0 15 15" version="1.1">
  <g id="surface1">
    <path d="M 3.699219 6.601562 L 4.5 6.601562 L 4.5 11.398438 L 5.699219 11.398438 L 5.699219 7.199219 L 6.898438 7.199219 L 6.898438 11.398438 L 8.101562 11.398438 L 8.101562 7.199219 L 9.300781 7.199219 L 9.300781 11.398438 L 10.5 11.398438 L 10.5 6.601562 L 11.300781 6.601562 C 11.519531 6.601562 11.699219 6.378906 11.699219 6.179688 C 11.699219 6.058594 11.632812 5.925781 11.535156 5.859375 L 11.535156 5.84375 L 11.527344 5.832031 L 11.566406 5.824219 L 7.800781 3.882812 L 7.800781 3.3125 C 8.398438 3.632812 8.984375 3.085938 9.898438 3.414062 L 9.898438 2.160156 C 8.984375 1.832031 8.398438 2.378906 7.800781 2.058594 L 7.800781 1.980469 C 7.800781 1.878906 7.609375 1.800781 7.5 1.800781 C 7.390625 1.800781 7.199219 1.878906 7.199219 1.980469 L 7.199219 3.882812 L 3.433594 5.820312 L 3.511719 5.824219 L 3.601562 5.828125 C 3.300781 5.894531 3.367188 6.058594 3.367188 6.179688 C 3.367188 6.378906 3.480469 6.601562 3.699219 6.601562 Z M 4.199219 11.699219 L 3.300781 12.601562 L 11.699219 12.601562 L 10.800781 11.699219 Z M 10.800781 6.898438 L 10.800781 11.398438 L 11.066406 11.398438 L 11.183594 11.566406 L 11.984375 12.316406 L 12.265625 12.601562 L 14.699219 12.601562 L 14.699219 6.898438 Z M 12.601562 10.5 L 11.699219 10.5 L 11.699219 9.601562 L 12.601562 9.601562 Z M 12.601562 8.699219 L 11.699219 8.699219 L 11.699219 7.800781 L 12.601562 7.800781 Z M 13.800781 10.5 L 13.199219 10.5 L 13.199219 9.601562 L 13.800781 9.601562 Z M 13.800781 8.699219 L 13.199219 8.699219 L 13.199219 7.800781 L 13.800781 7.800781 Z M 3.933594 11.398438 L 4.199219 11.398438 L 4.199219 6.898438 L 0.300781 6.898438 L 0.300781 12.601562 L 2.734375 12.601562 L 3.015625 12.34375 L 3.816406 11.566406 Z M 1.800781 10.5 L 1.199219 10.5 L 1.199219 9.601562 L 1.800781 9.601562 Z M 1.800781 8.699219 L 1.199219 8.699219 L 1.199219 7.800781 L 1.800781 7.800781 Z M 3.300781 10.5 L 2.398438 10.5 L 2.398438 9.601562 L 3.300781 9.601562 Z M 3.300781 8.699219 L 2.398438 8.699219 L 2.398438 7.800781 L 3.300781 7.800781 Z M 3.300781 8.699219 " fill="#FFFFFF"/>
  </g>
</svg>