<svg version="1.1" xmlns="http://www.w3.org/2000/svg" xlink="http://www.w3.org/1999/xlink" x="0px" y="0px" width="15px" height="15px" viewBox="0 0 15 15" style="enable-background:new 0 0 15 15;" space="preserve">
    <path d="M2.160156,9.34375C3.027344,9.34375,3.726562,8.621094,3.726562,7.730469C3.726562,6.847656,3.027344,6.125,2.160156,6.125C1.300781,6.125,0.601562,6.847656,0.601562,7.730469C0.601562,8.621094,1.300781,9.34375,2.160156,9.34375ZM10.929688,12.105469C11.003906,12.054688,11.101562,12.070312,11.152344,12.140625L11.441406,12.554688C11.492188,12.625,11.476562,12.726562,11.40625,12.785156L9.285156,14.371094C9.214844,14.421875,9.113281,14.40625,9.0625,14.335938L8.773438,13.921875C8.722656,13.851562,8.738281,13.75,8.808594,13.695312ZM8.53125,10.0625L7.6875,8.542969L7.246094,8.875L8.085938,10.402344ZM6.566406,6.515625L3.289062,0.601562L2.660156,0.605469L6.117188,6.851562ZM9.648438,9.644531C9.835938,9.503906,10.257812,9.300781,10.5,9.300781L13.5,9.300781C14.09375,9.300781,14.398438,9.894531,14.398438,10.5C14.398438,11.109375,14.09375,11.398438,13.5,11.398438L10.800781,11.398438L7.550781,13.949219C6.40625,14.796875,5.714844,13.867188,5.714844,13.867188L3.167969,11.25C2.742188,10.722656,2.835938,9.722656,3.347656,9.277344L6.867188,6.699219C7.21875,6.398438,7.738281,6.445312,8.035156,6.800781C8.328125,7.164062,8.28125,7.699219,7.929688,8L5.675781,9.699219L7.296875,11.34375ZM9.648438,9.644531" fill="#FFFFFF"/>
    </svg>