<svg xmlns="http://www.w3.org/2000/svg" xlink="http://www.w3.org/1999/xlink" width="20px" height="20px" viewBox="0 0 15 15" version="1.1">
  <g id="surface1">
    <path d="M 2.160156 9.34375 C 3.027344 9.34375 3.726562 8.621094 3.726562 7.730469 C 3.726562 6.847656 3.027344 6.125 2.160156 6.125 C 1.300781 6.125 0.601562 6.847656 0.601562 7.730469 C 0.601562 8.621094 1.300781 9.34375 2.160156 9.34375 Z M 10.929688 12.105469 C 11.003906 12.054688 11.101562 12.070312 11.152344 12.140625 L 11.441406 12.554688 C 11.492188 12.625 11.476562 12.726562 11.40625 12.785156 L 9.285156 14.371094 C 9.214844 14.421875 9.113281 14.40625 9.0625 14.335938 L 8.773438 13.921875 C 8.722656 13.851562 8.738281 13.75 8.808594 13.695312 Z M 8.53125 10.0625 L 7.6875 8.542969 L 7.246094 8.875 L 8.085938 10.402344 Z M 6.566406 6.515625 L 3.289062 0.601562 L 2.660156 0.605469 L 6.117188 6.851562 Z M 9.648438 9.644531 C 9.835938 9.503906 10.257812 9.300781 10.5 9.300781 L 13.5 9.300781 C 14.09375 9.300781 14.398438 9.894531 14.398438 10.5 C 14.398438 11.109375 14.09375 11.398438 13.5 11.398438 L 10.800781 11.398438 L 7.550781 13.949219 C 6.40625 14.796875 5.714844 13.867188 5.714844 13.867188 L 3.167969 11.25 C 2.742188 10.722656 2.835938 9.722656 3.347656 9.277344 L 6.867188 6.699219 C 7.21875 6.398438 7.738281 6.445312 8.035156 6.800781 C 8.328125 7.164062 8.28125 7.699219 7.929688 8 L 5.675781 9.699219 L 7.296875 11.34375 Z M 9.648438 9.644531 " fill="#FFFFFF"/>
  </g>
</svg>