<?xml version="1.0" encoding="UTF-8" standalone="yes"?>
<svg xmlns="http://www.w3.org/2000/svg" xmlns:xlink="http://www.w3.org/1999/xlink" width="20px" height="20px" viewBox="0 0 15 15" version="1.1">
  <g id="surface1">
    <path style=" stroke:none;fill-rule:nonzero;fill:rgb(0%,0%,0%);fill-opacity:1;" d="M 6.601562 0.578125 L 6.601562 3.898438 L 6 3.898438 L 6 0.601562 C 6 0.433594 5.867188 0.300781 5.699219 0.300781 C 5.535156 0.300781 5.398438 0.433594 5.398438 0.601562 L 5.398438 3.898438 L 4.800781 3.898438 L 4.800781 0.589844 C 4.800781 0.203125 4.199219 0.214844 4.199219 0.578125 L 4.199219 3.898438 L 3.601562 3.898438 L 3.601562 0.601562 C 3.601562 0.195312 3 0.210938 3 0.585938 L 3 4.929688 C 3 5.554688 3.601562 5.96875 4.199219 5.96875 L 4.199219 13.800781 C 4.199219 15 6 15 6 13.800781 L 6 5.96875 C 6.601562 5.96875 7.199219 5.46875 7.199219 5 L 7.199219 0.589844 C 7.199219 0.207031 6.601562 0.222656 6.601562 0.578125 Z M 9.300781 1.5 L 9.300781 9 L 9.898438 9 L 9.898438 13.800781 C 9.898438 15 12 15 12 13.800781 L 12 1.5 C 12 0 9.300781 0 9.300781 1.5 Z M 9.300781 1.5 "/>
  </g>
</svg>