<svg xmlns="http://www.w3.org/2000/svg" xlink="http://www.w3.org/1999/xlink" width="20px" height="20px" viewBox="0 0 15 15" version="1.1">
  <g id="surface1">
    <path d="M 6.449219 2.398438 L 6.285156 2.691406 C 6.179688 2.90625 5.960938 3 5.707031 3 L 5.328125 3 C 5.546875 3.300781 5.898438 3.546875 6.304688 3.546875 C 6.96875 3.546875 7.5 3.042969 7.5 2.378906 L 7.5 2.398438 L 6.503906 2.398438 C 6.480469 2.398438 6.453125 2.375 6.449219 2.398438 Z M 5.707031 2.699219 C 5.839844 2.699219 5.957031 2.65625 6.007812 2.542969 L 6.167969 2.257812 C 6.230469 2.125 6.355469 2.101562 6.503906 2.101562 L 7.75 2.101562 C 7.585938 1.5 7.003906 0.945312 6.3125 0.945312 C 5.496094 0.945312 4.832031 1.550781 4.832031 2.371094 C 4.832031 2.5 4.847656 2.699219 4.882812 2.699219 Z M 9.804688 9.300781 C 10.914062 9.300781 13.8125 8.960938 14.613281 8.195312 C 14.253906 7.09375 12.835938 7.007812 11.539062 7.566406 C 11.316406 7.664062 11.015625 7.734375 10.675781 7.800781 L 10.410156 6.773438 C 10.625 6.660156 10.765625 6.4375 10.75 6.183594 C 10.738281 5.839844 10.449219 5.570312 10.105469 5.585938 L 9.910156 4.832031 C 10.101562 4.6875 10.203125 4.445312 10.144531 4.195312 C 10.066406 3.859375 9.734375 3.644531 9.394531 3.722656 C 9.394531 3.722656 6.644531 3.746094 5.785156 3.976562 C 4.925781 4.207031 4.632812 5.652344 4.632812 5.652344 L 3.878906 8.101562 L 0.300781 8.101562 L 0.300781 9.300781 Z M 7.335938 5.042969 L 9.46875 4.953125 L 9.636719 5.605469 C 9.058594 5.632812 8.035156 5.6875 7.121094 5.738281 Z M 6.738281 6.988281 L 9.957031 6.84375 L 10.222656 7.871094 C 8.910156 8.058594 7.210938 8.085938 6.402344 8.089844 Z M 12.75 10.683594 C 12.75 10.683594 14.699219 10.65625 14.699219 8.757812 C 14.699219 8.679688 14.691406 8.625 14.6875 8.550781 C 13.46875 9.429688 10.222656 9.601562 9.808594 9.601562 L 0.300781 9.601562 L 0.300781 11.070312 C 0.53125 11.070312 0.765625 11.019531 0.976562 10.925781 C 1.320312 10.769531 1.703125 10.683594 2.078125 10.683594 C 2.453125 10.683594 2.832031 10.769531 3.167969 10.921875 C 3.390625 11.023438 3.621094 11.070312 3.851562 11.070312 C 4.089844 11.070312 4.320312 11.023438 4.53125 10.925781 C 4.878906 10.769531 5.257812 10.683594 5.632812 10.683594 C 6.011719 10.683594 6.382812 10.765625 6.726562 10.921875 C 6.941406 11.023438 7.179688 11.070312 7.414062 11.070312 C 7.648438 11.070312 7.878906 11.023438 8.09375 10.925781 C 8.4375 10.769531 8.820312 10.683594 9.191406 10.683594 C 9.574219 10.683594 9.941406 10.765625 10.285156 10.925781 C 10.503906 11.023438 10.742188 11.070312 10.972656 11.070312 L 11.054688 11.070312 L 11.335938 12.15625 C 11.214844 12.175781 11.09375 12.191406 10.96875 12.191406 C 10.65625 12.191406 10.355469 12.125 10.089844 12.003906 C 9.816406 11.875 9.507812 11.800781 9.1875 11.800781 C 8.867188 11.800781 8.558594 11.875 8.285156 12.003906 C 8.019531 12.125 7.722656 12.191406 7.410156 12.191406 C 7.097656 12.191406 6.796875 12.125 6.53125 12.003906 C 6.261719 11.875 5.953125 11.800781 5.628906 11.800781 C 5.308594 11.800781 5 11.875 4.726562 12.003906 C 4.460938 12.125 4.164062 12.191406 3.851562 12.191406 C 3.546875 12.191406 3.246094 12.125 2.980469 12.003906 C 2.707031 11.875 2.398438 11.800781 2.078125 11.800781 C 1.757812 11.800781 1.449219 11.875 1.179688 12.003906 C 0.910156 12.121094 0.613281 12.191406 0.300781 12.191406 L 0.300781 13.5 C 0.613281 13.5 0.910156 13.433594 1.179688 13.3125 C 1.449219 13.1875 1.757812 13.113281 2.078125 13.113281 C 2.398438 13.113281 2.707031 13.1875 2.980469 13.3125 C 3.246094 13.433594 3.546875 13.5 3.851562 13.5 C 4.164062 13.5 4.460938 13.433594 4.726562 13.3125 C 5 13.1875 5.308594 13.113281 5.628906 13.113281 C 5.953125 13.113281 6.261719 13.1875 6.53125 13.3125 C 6.796875 13.433594 7.097656 13.5 7.410156 13.5 C 7.722656 13.5 8.019531 13.433594 8.285156 13.3125 C 8.558594 13.1875 8.867188 13.113281 9.1875 13.113281 C 9.507812 13.113281 9.816406 13.1875 10.089844 13.3125 C 10.355469 13.433594 10.65625 13.5 10.96875 13.5 C 11.273438 13.5 11.578125 13.433594 11.839844 13.3125 C 12.113281 13.1875 12.421875 13.113281 12.746094 13.113281 C 13.066406 13.113281 13.3125 13.1875 13.585938 13.3125 C 13.851562 13.433594 14.101562 13.5 14.398438 13.5 L 14.398438 12.191406 C 14.101562 12.191406 13.851562 12.121094 13.585938 12.003906 C 13.3125 11.875 13.035156 11.800781 12.714844 11.800781 C 12.390625 11.800781 12.097656 11.875 11.828125 12.003906 L 11.769531 12.027344 L 11.5 10.984375 L 11.648438 10.925781 C 11.992188 10.769531 12.375 10.683594 12.75 10.683594 Z M 12.75 10.683594 " fill="#FFFFFF"/>
  </g>
</svg>