<svg xmlns="http://www.w3.org/2000/svg" xlink="http://www.w3.org/1999/xlink" width="20px" height="20px" viewBox="0 0 15 15" version="1.1">
  <g id="surface1">
    <path d="M 14.25 6.472656 C 14.179688 2.824219 12.066406 1.375 11.976562 1.320312 L 11.652344 1.09375 L 11.320312 1.316406 C 10.773438 1.691406 10.207031 1.878906 9.632812 1.878906 C 8.6875 1.878906 8.042969 1.367188 8.015625 1.347656 L 7.648438 1.050781 L 7.28125 1.347656 C 7.253906 1.367188 6.609375 1.878906 5.664062 1.878906 C 5.089844 1.878906 4.523438 1.691406 3.976562 1.316406 L 3.648438 1.09375 L 3.316406 1.320312 C 3.09375 1.472656 1.121094 2.929688 1.050781 6.453125 C 1.023438 6.761719 1.871094 12.566406 7.648438 14.25 C 13.933594 12.414062 14.28125 6.855469 14.25 6.472656 Z M 14.25 6.472656 " fill="#FFFFFF"/>
  </g>
</svg>