<?xml version="1.0" encoding="UTF-8" standalone="yes"?>
<svg xmlns="http://www.w3.org/2000/svg" xmlns:xlink="http://www.w3.org/1999/xlink" width="20px" height="20px" viewBox="0 0 15 15" version="1.1">
  <g id="surface1">
    <path style=" stroke:none;fill-rule:nonzero;fill:rgb(0%,0%,0%);fill-opacity:1;" d="M 14.25 6.167969 C 14.183594 2.375 11.992188 0.867188 11.902344 0.808594 L 11.566406 0.574219 L 11.222656 0.808594 C 10.65625 1.195312 10.070312 1.390625 9.480469 1.390625 C 8.5 1.390625 7.832031 0.859375 7.804688 0.835938 L 7.421875 0.527344 L 7.042969 0.835938 C 7.015625 0.859375 6.351562 1.390625 5.371094 1.390625 C 4.78125 1.390625 4.195312 1.195312 3.625 0.808594 L 3.285156 0.578125 L 2.945312 0.808594 C 2.710938 0.96875 0.675781 2.480469 0.601562 6.148438 C 0.570312 6.464844 1.449219 12.5 7.425781 14.25 C 13.925781 12.339844 14.285156 6.566406 14.25 6.167969 Z M 1.804688 6.238281 L 1.804688 6.324219 C 1.816406 5.632812 1.914062 4.800781 2.101562 4.5 L 12.75 4.5 C 12.9375 4.800781 13.035156 5.632812 13.042969 6.332031 L 13.046875 6.328125 C 13.074219 6.519531 12.835938 11.953125 7.425781 13.042969 C 2.585938 11.976562 1.785156 6.417969 1.804688 6.238281 Z M 1.804688 6.238281 "/>
  </g>
</svg>