<svg xmlns="http://www.w3.org/2000/svg" xlink="http://www.w3.org/1999/xlink" width="20px" height="20px" viewBox="0 0 15 15" version="1.1">
  <g id="surface1">
    <path d="M 2.824219 10.640625 C 6.851562 12.339844 9.90625 13.332031 14.214844 14.699219 C 14.304688 14.710938 14.382812 14.652344 14.398438 14.558594 C 14.410156 14.46875 14.351562 14.382812 14.261719 14.367188 C 7.476562 12.222656 2.152344 9.84375 0.9375 9.292969 C 0.8125 9.242188 0.667969 9.300781 0.621094 9.421875 C 0.566406 9.546875 0.621094 9.683594 0.746094 9.734375 C 1.046875 9.867188 1.34375 10 1.632812 10.128906 L 0.675781 10.859375 C 0.566406 11.019531 0.617188 11.226562 0.773438 11.335938 C 0.894531 11.417969 1.0625 11.40625 1.179688 11.332031 Z M 13.9375 6.34375 L 10.800781 3.453125 L 10.871094 3.457031 C 11.507812 3.457031 12.019531 2.941406 12.019531 2.300781 C 12.019531 1.664062 11.507812 1.144531 10.871094 1.144531 C 10.234375 1.144531 9.722656 1.664062 9.722656 2.300781 C 9.722656 2.546875 9.796875 2.769531 9.925781 2.957031 L 7.800781 2.195312 L 6.652344 0.527344 C 6.566406 0.40625 6.429688 0.324219 6.269531 0.304688 C 5.972656 0.269531 5.699219 0.488281 5.664062 0.792969 C 5.648438 0.917969 5.679688 1.039062 5.742188 1.144531 L 6.910156 2.847656 C 6.964844 2.914062 7.035156 2.972656 7.113281 3.011719 L 8.472656 3.546875 L 6.242188 4.691406 C 5.933594 4.871094 5.710938 5.183594 5.648438 5.550781 L 5.660156 7.597656 L 3.597656 8.535156 C 3.367188 8.644531 3.203125 8.878906 3.191406 9.15625 C 3.175781 9.550781 3.480469 9.878906 3.875 9.898438 C 3.996094 9.90625 4.113281 9.878906 4.21875 9.828125 L 6.738281 8.679688 C 6.917969 8.585938 7.054688 8.410156 7.097656 8.199219 L 7.09375 6.925781 L 8.847656 8.5 L 8.523438 11.183594 L 8.519531 11.234375 C 8.503906 11.628906 8.808594 11.964844 9.203125 11.980469 C 9.574219 11.996094 9.886719 11.726562 9.9375 11.359375 L 10.316406 8.296875 L 10.320312 8.257812 C 10.324219 8.042969 10.242188 7.847656 10.097656 7.710938 L 8.476562 6.261719 L 10.921875 5.054688 L 13.1875 7.152344 C 13.289062 7.25 13.429688 7.3125 13.578125 7.3125 C 13.882812 7.308594 14.128906 7.058594 14.125 6.757812 C 14.125 6.59375 14.046875 6.445312 13.9375 6.34375 Z M 13.9375 6.34375 " fill="#FFFFFF"/>
  </g>
</svg>