<?xml version="1.0" encoding="UTF-8" standalone="yes"?>
<svg xmlns="http://www.w3.org/2000/svg" xmlns:xlink="http://www.w3.org/1999/xlink" width="20px" height="20px" viewBox="0 0 15 15" version="1.1">
  <g id="surface1">
    <path style=" stroke:none;fill-rule:nonzero;fill:rgb(0%,0%,0%);fill-opacity:1;" d="M 14.699219 12 C 14.382812 12 14.085938 11.929688 13.8125 11.808594 C 13.539062 11.683594 13.226562 11.609375 12.902344 11.609375 C 12.574219 11.609375 12.261719 11.683594 11.988281 11.808594 C 11.71875 11.929688 11.417969 12 11.101562 12 C 10.785156 12 10.484375 11.929688 10.214844 11.808594 C 9.9375 11.683594 9.625 11.609375 9.300781 11.609375 C 8.976562 11.609375 8.664062 11.683594 8.386719 11.808594 C 8.117188 11.929688 7.8125 12 7.5 12 C 7.1875 12 6.886719 11.929688 6.613281 11.808594 C 6.335938 11.683594 6.027344 11.609375 5.703125 11.609375 C 5.375 11.609375 5.0625 11.683594 4.789062 11.808594 C 4.519531 11.929688 4.214844 12 3.898438 12 C 3.589844 12 3.28125 11.929688 3.015625 11.808594 C 2.738281 11.683594 2.425781 11.609375 2.101562 11.609375 C 1.777344 11.609375 1.464844 11.683594 1.1875 11.808594 C 0.917969 11.929688 0.617188 12 0.300781 12 L 0.300781 10.679688 C 0.617188 10.679688 0.914062 10.609375 1.1875 10.492188 C 1.464844 10.363281 1.777344 10.289062 2.101562 10.289062 C 2.425781 10.289062 2.738281 10.363281 3.015625 10.492188 C 3.28125 10.609375 3.589844 10.679688 3.898438 10.679688 C 4.214844 10.679688 4.519531 10.609375 4.789062 10.492188 C 5.0625 10.363281 5.375 10.289062 5.703125 10.289062 C 6.027344 10.289062 6.335938 10.363281 6.613281 10.492188 C 6.886719 10.609375 7.1875 10.679688 7.5 10.679688 C 7.8125 10.679688 8.117188 10.609375 8.386719 10.492188 C 8.664062 10.363281 8.976562 10.289062 9.300781 10.289062 C 9.625 10.289062 9.9375 10.363281 10.214844 10.492188 C 10.484375 10.609375 10.785156 10.679688 11.101562 10.679688 C 11.417969 10.679688 11.71875 10.609375 11.988281 10.492188 C 12.261719 10.363281 12.574219 10.289062 12.902344 10.289062 C 13.226562 10.289062 13.539062 10.363281 13.8125 10.492188 C 14.085938 10.609375 14.382812 10.679688 14.699219 10.679688 Z M 12.613281 8.269531 C 13.558594 8.269531 14.328125 7.503906 14.328125 6.566406 C 14.328125 5.625 13.558594 4.867188 12.613281 4.867188 C 11.667969 4.867188 10.902344 5.625 10.902344 6.566406 C 10.902344 7.503906 11.597656 8.269531 12.613281 8.269531 Z M 2.636719 9.226562 C 2.769531 9.257812 2.894531 9.304688 3.015625 9.359375 C 3.28125 9.476562 3.589844 9.550781 3.898438 9.550781 C 4.214844 9.550781 4.519531 9.476562 4.789062 9.359375 C 5.066406 9.234375 5.375 9.15625 5.703125 9.15625 C 6.027344 9.15625 6.335938 9.234375 6.613281 9.359375 C 6.886719 9.476562 7.1875 9.550781 7.5 9.550781 C 7.8125 9.550781 8.117188 9.476562 8.386719 9.359375 C 8.664062 9.234375 8.976562 9.15625 9.300781 9.15625 C 9.625 9.15625 9.9375 9.234375 10.214844 9.359375 C 10.484375 9.476562 10.785156 9.550781 11.101562 9.550781 C 11.332031 9.550781 11.550781 9.511719 11.761719 9.445312 L 8.902344 4.328125 L 12.226562 3.726562 C 12.714844 3.636719 13.070312 3.253906 13.070312 2.765625 C 13.070312 2.230469 12.628906 1.800781 12.089844 1.800781 L 11.980469 1.804688 L 6.84375 2.730469 C 6.484375 2.8125 6.007812 3.335938 6.28125 3.980469 L 6.324219 4.082031 L 7.664062 6.484375 Z M 2.636719 9.226562 "/>
  </g>
</svg>