<svg version="1.1" xmlns="http://www.w3.org/2000/svg" xlink="http://www.w3.org/1999/xlink" x="0px" y="0px" width="15px" height="15px" viewBox="0 0 15 15" style="enable-background:new 0 0 15 15;" space="preserve">
    <path d="M13.25,5.59375C13.886719,5.59375,14.398438,5.074219,14.398438,4.433594C14.398438,3.792969,13.886719,3.277344,13.25,3.277344C12.617188,3.277344,12.105469,3.792969,12.105469,4.433594C12.105469,5.074219,12.617188,5.59375,13.25,5.59375ZM12.925781,13.523438L0.835938,6.363281L0.601562,6.773438L12.683594,13.933594C13.238281,14.265625,13.953125,14.085938,14.285156,13.523438L13.882812,13.28125C13.6875,13.617188,13.257812,13.722656,12.925781,13.523438ZM14.089844,8.148438L12.035156,6.941406L11.796875,3.839844C11.761719,3.46875,11.5625,3.132812,11.269531,2.929688L8.308594,1.160156C7.609375,0.6875,6.664062,0.875,6.195312,1.582031C5.933594,1.96875,5.863281,2.457031,5.992188,2.855469L6.792969,5.507812L4.371094,6.285156C4.066406,6.410156,3.832031,6.695312,3.792969,7.050781C3.730469,7.566406,4.113281,7.90625,4.625,7.96875C4.742188,7.980469,4.820312,7.949219,4.929688,7.921875L8.238281,6.816406C8.480469,6.726562,8.746094,6.484375,8.769531,6.273438C8.789062,6.117188,8.839844,5.988281,8.804688,5.898438L8.304688,4.082031L10.292969,5.273438L10.53125,7.015625C10.554688,7.320312,10.691406,7.539062,10.921875,7.667969L13.523438,9.199219C13.808594,9.355469,14.167969,9.25,14.324219,8.960938C14.480469,8.671875,14.375,8.308594,14.089844,8.148438ZM14.089844,8.148438" fill="#FFFFFF"/>
    </svg>