<?xml version="1.0" encoding="UTF-8" standalone="yes"?>
<svg xmlns="http://www.w3.org/2000/svg" xmlns:xlink="http://www.w3.org/1999/xlink" width="20px" height="20px" viewBox="0 0 15 15" version="1.1">
  <g id="surface1">
    <path style=" stroke:none;fill-rule:nonzero;fill:rgb(0%,0%,0%);fill-opacity:1;" d="M 12.769531 5.132812 C 12.851562 4.140625 13.152344 3.230469 13.675781 2.394531 L 11.65625 0.449219 C 11.019531 0.980469 10.292969 1.273438 9.46875 1.324219 C 8.714844 1.390625 8 1.25 7.324219 0.910156 C 6.632812 1.238281 5.921875 1.378906 5.179688 1.324219 C 4.410156 1.257812 3.714844 0.996094 3.09375 0.53125 L 1.070312 2.476562 C 1.570312 3.320312 1.847656 4.207031 1.898438 5.132812 C 1.925781 5.558594 1.800781 6.144531 1.515625 6.902344 C 1.367188 7.324219 1.257812 7.6875 1.179688 7.992188 C 1.109375 8.292969 1.066406 8.539062 1.050781 8.722656 C 1.039062 9.53125 1.273438 10.261719 1.757812 10.910156 C 2.132812 11.382812 2.757812 11.90625 3.621094 12.476562 C 4.5625 12.9375 5.296875 13.238281 5.808594 13.367188 L 6.230469 13.558594 C 6.367188 13.617188 6.507812 13.679688 6.65625 13.746094 C 6.980469 13.929688 7.207031 14.132812 7.324219 14.339844 C 7.472656 14.113281 7.703125 13.917969 8.011719 13.746094 C 8.226562 13.652344 8.410156 13.574219 8.558594 13.503906 L 8.878906 13.367188 C 8.988281 13.316406 9.132812 13.253906 9.304688 13.1875 C 9.480469 13.121094 9.695312 13.042969 9.953125 12.953125 C 10.453125 12.78125 10.816406 12.621094 11.046875 12.476562 C 11.886719 11.90625 12.496094 11.390625 12.886719 10.929688 C 13.386719 10.28125 13.628906 9.546875 13.617188 8.722656 C 13.589844 8.355469 13.425781 7.765625 13.132812 6.960938 C 12.851562 6.179688 12.726562 5.570312 12.769531 5.132812 Z M 12.769531 5.132812 "/>
  </g>
</svg>