<?xml version="1.0" encoding="UTF-8" standalone="yes"?>
<svg xmlns="http://www.w3.org/2000/svg" xmlns:xlink="http://www.w3.org/1999/xlink" width="20px" height="20px" viewBox="0 0 15 15" version="1.1">
  <g id="surface1">
    <path style=" stroke:none;fill-rule:nonzero;fill:rgb(13.72549%,12.156863%,12.54902%);fill-opacity:1;" d="M 0.300781 1.5 L 2.585938 3.867188 L 3.464844 3.070312 L 2.667969 1.507812 Z M 10.601562 8.132812 C 11.03125 8.253906 11.496094 8.003906 11.621094 7.558594 C 11.738281 7.121094 11.484375 6.664062 11.050781 6.539062 L 10.710938 6.445312 L 10.273438 8.035156 Z M 10.335938 6.339844 L 7.601562 5.558594 C 7.421875 5.511719 7.238281 5.621094 7.1875 5.804688 L 6.933594 6.730469 C 6.882812 6.914062 6.980469 7.101562 7.164062 7.15625 L 9.898438 7.929688 Z M 10.765625 8.976562 C 10.558594 8.773438 10.296875 8.613281 9.996094 8.53125 L 6.679688 7.589844 L 4.644531 3.925781 C 4.535156 3.738281 4.363281 3.585938 4.140625 3.523438 C 3.695312 3.398438 3.230469 3.664062 3.105469 4.117188 C 3.046875 4.332031 3.074219 4.550781 3.171875 4.734375 L 5.71875 9.265625 C 5.71875 9.265625 5.929688 9.605469 6.453125 9.78125 L 11.085938 11.097656 L 13.234375 13.308594 C 13.308594 13.386719 13.402344 13.445312 13.511719 13.476562 C 13.835938 13.570312 14.175781 13.371094 14.269531 13.046875 C 14.332031 12.816406 14.257812 12.578125 14.097656 12.425781 Z M 13.238281 9.890625 L 13.722656 10.53125 L 14.699219 9.445312 L 13.871094 8.980469 C 13.953125 8.390625 13.589844 7.824219 13.015625 7.660156 C 12.382812 7.480469 11.722656 7.851562 11.546875 8.492188 C 11.367188 9.140625 11.738281 9.804688 12.371094 9.984375 C 12.671875 10.070312 12.980469 10.023438 13.238281 9.890625 Z M 13.238281 9.890625 "/>
  </g>
</svg>