<svg xmlns="http://www.w3.org/2000/svg" xlink="http://www.w3.org/1999/xlink" width="20px" height="20px" viewBox="0 0 15 15" version="1.1">
  <g id="surface1">
    <path d="M 10.15625 2.574219 C 10.78125 2.574219 11.28125 2.066406 11.28125 1.4375 C 11.28125 0.8125 10.78125 0.300781 10.15625 0.300781 C 9.535156 0.300781 9.035156 0.8125 9.035156 1.4375 C 9.035156 2.066406 9.535156 2.574219 10.15625 2.574219 Z M 5.386719 7.1875 L 9.429688 4.542969 C 9.957031 4.203125 10.117188 3.496094 9.78125 2.964844 C 9.449219 2.429688 8.75 2.269531 8.222656 2.609375 L 5.238281 4.554688 C 5.070312 4.667969 4.9375 4.8125 4.851562 4.980469 L 1.75 11.167969 C 1.566406 11.53125 1.710938 11.976562 2.066406 12.160156 C 2.425781 12.34375 2.867188 12.199219 3.050781 11.839844 Z M 13.261719 6.753906 C 13.796875 6.414062 13.960938 5.703125 13.625 5.160156 L 13.234375 5.402344 C 13.4375 5.726562 13.335938 6.15625 13.015625 6.355469 L 0.601562 14.308594 L 0.84375 14.699219 Z M 13.261719 6.753906 " fill="#FFFFFF"/>
  </g>
</svg>