<svg xmlns="http://www.w3.org/2000/svg" xlink="http://www.w3.org/1999/xlink" width="20px" height="20px" viewBox="0 0 15 15" version="1.1">
  <g id="surface1">
    <path d="M 15 15 L 14.996094 7.480469 C 14.996094 3.347656 11.640625 0 7.503906 0 C 3.371094 0 0.015625 3.351562 0.015625 7.484375 L 0.0742188 15.011719 L 1.800781 15.007812 L 1.800781 7.484375 C 1.800781 4.261719 4.277344 1.652344 7.5 1.652344 C 10.722656 1.652344 13.199219 4.261719 13.199219 7.484375 L 13.199219 15 Z M 9.960938 12.277344 L 9.929688 12.226562 L 9.945312 12.207031 L 9.960938 12.191406 C 10.21875 12.082031 10.453125 11.953125 10.660156 11.796875 C 10.871094 11.640625 10.992188 11.410156 11.066406 11.109375 C 11.074219 11.074219 11.101562 10.992188 11.101562 10.867188 L 11.101562 4.609375 C 11.101562 4.460938 11.074219 4.304688 10.984375 4.144531 C 10.894531 3.984375 10.792969 3.835938 10.65625 3.707031 C 10.523438 3.582031 10.378906 3.492188 10.214844 3.40625 C 10.050781 3.324219 9.894531 3.300781 9.742188 3.300781 L 5.265625 3.300781 C 5.125 3.300781 4.972656 3.320312 4.804688 3.402344 C 4.640625 3.480469 4.488281 3.574219 4.351562 3.699219 C 4.214844 3.824219 4.109375 3.957031 4.023438 4.113281 C 3.933594 4.273438 3.898438 4.417969 3.898438 4.570312 L 3.898438 10.921875 C 3.898438 11.027344 3.917969 11.140625 3.96875 11.253906 C 4.023438 11.371094 4.082031 11.480469 4.164062 11.582031 C 4.242188 11.683594 4.328125 11.777344 4.421875 11.863281 C 4.515625 11.949219 4.605469 12.015625 4.695312 12.070312 C 4.738281 12.085938 4.816406 12.117188 4.925781 12.152344 C 5.039062 12.1875 5.089844 12.207031 5.082031 12.222656 L 3.25 15 L 4.316406 15 L 5.65625 13.199219 L 9.34375 13.199219 L 10.679688 15 L 11.761719 15 Z M 6 3.898438 C 6 3.734375 6.136719 3.601562 6.300781 3.601562 L 8.699219 3.601562 C 8.863281 3.601562 9 3.734375 9 3.898438 L 9 4.199219 C 9 4.363281 8.863281 4.5 8.699219 4.5 L 6.300781 4.5 C 6.136719 4.5 6 4.363281 6 4.199219 Z M 4.820312 5.367188 C 4.859375 5.28125 4.890625 5.203125 4.953125 5.132812 C 5.015625 5.058594 5.078125 4.957031 5.164062 4.914062 C 5.246094 4.867188 5.324219 4.800781 5.414062 4.800781 L 9.570312 4.800781 C 9.652344 4.800781 9.730469 4.863281 9.8125 4.898438 C 9.890625 4.933594 9.964844 5.007812 10.03125 5.070312 C 10.097656 5.132812 10.125 5.210938 10.167969 5.28125 C 10.207031 5.351562 10.199219 5.441406 10.199219 5.519531 L 10.199219 6.9375 C 10.199219 7.019531 10.203125 7.09375 10.160156 7.167969 C 10.117188 7.246094 10.070312 7.316406 10 7.371094 C 9.925781 7.429688 9.859375 7.445312 9.777344 7.476562 C 9.699219 7.515625 9.625 7.5 9.546875 7.5 L 5.441406 7.5 C 5.429688 7.5 5.410156 7.527344 5.375 7.519531 L 5.292969 7.507812 C 5.140625 7.484375 5.050781 7.410156 4.933594 7.277344 C 4.816406 7.140625 4.800781 7.003906 4.800781 6.84375 L 4.800781 5.628906 C 4.800781 5.539062 4.78125 5.449219 4.820312 5.367188 Z M 5.957031 11.148438 C 5.816406 11.289062 5.644531 11.363281 5.441406 11.363281 C 5.234375 11.363281 5.070312 11.289062 4.9375 11.148438 C 4.808594 11.003906 4.746094 10.832031 4.746094 10.625 C 4.746094 10.4375 4.8125 10.277344 4.945312 10.140625 C 5.078125 10 5.246094 9.929688 5.441406 9.929688 C 5.644531 9.929688 5.816406 9.996094 5.957031 10.125 C 6.09375 10.253906 6.164062 10.425781 6.164062 10.640625 C 6.164062 10.835938 6.09375 11.007812 5.957031 11.148438 Z M 9.015625 11.148438 C 8.878906 11.003906 8.808594 10.832031 8.808594 10.625 C 8.808594 10.421875 8.882812 10.253906 9.03125 10.125 C 9.175781 9.996094 9.347656 9.929688 9.546875 9.929688 C 9.75 9.929688 9.917969 10 10.046875 10.140625 C 10.175781 10.277344 10.238281 10.4375 10.238281 10.625 C 10.238281 10.832031 10.175781 11.003906 10.039062 11.148438 C 9.90625 11.289062 9.734375 11.359375 9.53125 11.359375 C 9.324219 11.363281 9.15625 11.289062 9.015625 11.148438 Z M 9.015625 11.148438 " fill="#FFFFFF"/>
  </g>
</svg>