<svg xmlns="http://www.w3.org/2000/svg" xlink="http://www.w3.org/1999/xlink" width="20px" height="20px" viewBox="0 0 15 15" version="1.1">
  <g id="surface1">
    <path d="M 7.667969 0.890625 L 0 6.300781 L 1.800781 6.300781 L 1.800781 12.898438 L 3 12.898438 L 3 8.398438 L 5.398438 8.398438 L 5.398438 12.898438 L 13.5 12.898438 L 13.5 6.300781 L 15 6.300781 Z M 12.601562 11.101562 L 6.898438 11.101562 L 6.898438 8.398438 L 12.601562 8.398438 Z M 12.601562 7.5 L 2.699219 7.5 L 2.699219 5.101562 L 12.601562 5.101562 Z M 12 5.699219 L 12 6.898438 L 3.300781 6.898438 L 3.300781 5.699219 L 12 5.699219 M 12.300781 5.398438 L 3 5.398438 L 3 7.199219 L 12.300781 7.199219 Z M 12.300781 5.398438 " fill="#FFFFFF"/>
  </g>
</svg>