<svg xmlns="http://www.w3.org/2000/svg" xlink="http://www.w3.org/1999/xlink" width="20px" height="20px" viewBox="0 0 15 15" version="1.1">
  <g id="surface1">
    <path d="M 7.5 0.300781 L 9.625 3.933594 L 13.800781 3.933594 L 11.710938 7.5 L 13.800781 11.066406 L 9.625 11.070312 L 7.5 14.699219 L 5.375 11.070312 L 1.199219 11.066406 L 3.289062 7.5 L 1.199219 3.933594 L 5.375 3.933594 Z M 4.777344 7.503906 L 6.125 9.898438 L 8.871094 9.898438 L 10.222656 7.503906 L 8.875 5.101562 L 6.128906 5.101562 Z M 10.363281 9.898438 L 11.574219 9.898438 L 10.96875 8.863281 Z M 3.425781 9.898438 L 4.636719 9.898438 L 4.03125 8.863281 Z M 6.898438 3.898438 L 8.109375 3.898438 L 7.503906 2.863281 Z M 10.96875 6.136719 L 11.574219 5.101562 L 10.363281 5.101562 Z M 4.03125 6.136719 L 4.636719 5.101562 L 3.425781 5.101562 Z M 7.503906 12.136719 L 8.109375 11.101562 L 6.898438 11.101562 Z M 7.503906 12.136719 " fill="#FFFFFF"/>
  </g>
</svg>