<svg version="1.1" xmlns="http://www.w3.org/2000/svg" xlink="http://www.w3.org/1999/xlink" x="0px" y="0px" width="15px" height="15px" viewBox="0 0 15 15" style="enable-background:new 0 0 15 15;" space="preserve">
    <path d="M10.15625,2.574219C10.78125,2.574219,11.28125,2.066406,11.28125,1.4375C11.28125,0.8125,10.78125,0.300781,10.15625,0.300781C9.535156,0.300781,9.035156,0.8125,9.035156,1.4375C9.035156,2.066406,9.535156,2.574219,10.15625,2.574219ZM5.386719,7.1875L9.429688,4.542969C9.957031,4.203125,10.117188,3.496094,9.78125,2.964844C9.449219,2.429688,8.75,2.269531,8.222656,2.609375L5.238281,4.554688C5.070312,4.667969,4.9375,4.8125,4.851562,4.980469L1.75,11.167969C1.566406,11.53125,1.710938,11.976562,2.066406,12.160156C2.425781,12.34375,2.867188,12.199219,3.050781,11.839844ZM13.261719,6.753906C13.796875,6.414062,13.960938,5.703125,13.625,5.160156L13.234375,5.402344C13.4375,5.726562,13.335938,6.15625,13.015625,6.355469L0.601562,14.308594L0.84375,14.699219ZM13.261719,6.753906" fill="#FFFFFF"/>
    </svg>