<svg xmlns="http://www.w3.org/2000/svg" xlink="http://www.w3.org/1999/xlink" width="20px" height="20px" viewBox="0 0 15 15" version="1.1">
  <g id="surface1">
    <path d="M 6.207031 3.71875 C 6.800781 3.71875 7.28125 3.222656 7.28125 2.605469 C 7.28125 1.996094 6.800781 1.5 6.207031 1.5 C 5.613281 1.5 5.128906 1.996094 5.128906 2.605469 C 5.128906 3.222656 5.613281 3.71875 6.207031 3.71875 Z M 7.472656 12.601562 L 12.589844 12.601562 C 12.589844 12.601562 12.921875 12.660156 13.578125 12.117188 L 14.699219 11.273438 L 14.699219 12.269531 L 13.554688 13.148438 C 13.554688 13.148438 13.214844 13.433594 12.644531 13.5 L 7.042969 13.5 Z M 0.34375 13.5 L 5.464844 13.5 L 5.890625 12.601562 L 0.726562 12.601562 L 0.300781 13.5 Z M 6.746094 5.105469 C 6.746094 4.472656 6.21875 3.957031 5.625 3.957031 C 5.03125 3.957031 4.5 4.472656 4.5 5.105469 L 4.5 7.914062 C 4.5 8.269531 4.761719 8.699219 5 8.699219 L 2.59375 8.699219 L 1.292969 11.273438 C 1.265625 11.332031 1.253906 11.453125 1.253906 11.523438 C 1.25 11.753906 1.585938 12 1.800781 12 L 10.5 12 C 10.5 12 10.894531 12.035156 11.464844 11.554688 L 13.769531 9.730469 L 12.898438 8.101562 C 12.898438 8.101562 12.703125 7.703125 11.96875 7.585938 L 10.230469 7.269531 L 9.296875 5.605469 L 9.257812 5.589844 C 9.121094 5.425781 9 5.40625 8.699219 5.546875 L 8.699219 5.550781 C 8.699219 5.660156 8.546875 5.835938 8.605469 5.992188 L 9.300781 7.226562 L 9.300781 7.234375 L 8.390625 8.8125 L 6.601562 8.097656 L 6.601562 7.5 L 8.125 7.5 C 8.195312 7.5 8.261719 7.445312 8.328125 7.414062 C 8.59375 7.308594 8.722656 6.96875 8.621094 6.691406 C 8.546875 6.472656 8.355469 6.332031 8.15625 6.328125 L 6.746094 6.320312 L 6.746094 5.105469 " fill="#FFFFFF"/>
  </g>
</svg>