<?xml version="1.0" encoding="UTF-8" standalone="yes"?>
<svg xmlns="http://www.w3.org/2000/svg" xmlns:xlink="http://www.w3.org/1999/xlink" width="20px" height="20px" viewBox="0 0 15 15" version="1.1">
  <g id="surface1">
    <path style=" stroke:none;fill-rule:nonzero;fill:rgb(0%,0%,0%);fill-opacity:1;" d="M 6.164062 14.28125 C 6.164062 14.050781 5.980469 13.863281 5.757812 13.863281 C 5.53125 13.863281 5.347656 14.050781 5.347656 14.28125 C 5.347656 14.511719 5.53125 14.699219 5.757812 14.699219 C 5.980469 14.699219 6.164062 14.511719 6.164062 14.28125 Z M 6.164062 14.28125 "/>
    <path style=" stroke:none;fill-rule:nonzero;fill:rgb(0%,0%,0%);fill-opacity:1;" d="M 9.042969 14.691406 C 9.269531 14.691406 9.449219 14.503906 9.449219 14.269531 C 9.449219 14.039062 9.269531 13.847656 9.042969 13.847656 C 8.820312 13.847656 8.636719 14.039062 8.636719 14.269531 C 8.636719 14.503906 8.820312 14.691406 9.042969 14.691406 Z M 8.34375 2.519531 C 8.9375 2.519531 9.425781 2.023438 9.425781 1.410156 C 9.421875 0.796875 8.9375 0.300781 8.34375 0.300781 C 7.746094 0.300781 7.261719 0.796875 7.261719 1.410156 C 7.261719 2.023438 7.746094 2.519531 8.34375 2.519531 Z M 2.480469 12.238281 C 2.429688 12.335938 2.398438 12.449219 2.398438 12.570312 C 2.398438 12.960938 2.710938 13.28125 3.09375 13.28125 C 3.367188 13.28125 3.601562 13.117188 3.714844 12.878906 L 6.074219 8.710938 L 5.09375 7.703125 Z M 7.589844 12.050781 C 7.476562 12.289062 7.242188 12.453125 6.96875 12.453125 C 6.589844 12.453125 6.28125 12.132812 6.28125 11.742188 C 6.28125 11.621094 6.308594 11.511719 6.359375 11.414062 L 7.386719 9.554688 L 5.382812 7.507812 C 4.613281 6.714844 5.164062 5.855469 5.164062 5.855469 L 6.242188 3.894531 L 3.382812 3.898438 C 3.066406 3.898438 2.816406 3.621094 2.816406 3.296875 C 2.816406 2.980469 3.066406 2.699219 3.382812 2.699219 L 12.035156 2.699219 C 12.347656 2.699219 12.601562 2.980469 12.601562 3.300781 C 12.601562 3.625 12.347656 3.898438 12.035156 3.898438 L 8.734375 3.898438 L 7.160156 6.738281 L 8.761719 8.367188 C 9.324219 8.921875 8.960938 9.546875 8.960938 9.546875 Z M 10.199219 13.199219 C 10.199219 13.367188 10.066406 13.5 9.898438 13.5 L 4.800781 13.5 C 4.632812 13.5 4.5 13.367188 4.5 13.199219 C 4.5 13.035156 4.632812 12.898438 4.800781 12.898438 L 9.898438 12.898438 C 10.066406 12.898438 10.199219 13.035156 10.199219 13.199219 Z M 10.199219 13.199219 "/>
  </g>
</svg>