<?xml version="1.0" encoding="UTF-8" standalone="yes"?>
<svg xmlns="http://www.w3.org/2000/svg" xmlns:xlink="http://www.w3.org/1999/xlink" width="20px" height="20px" viewBox="0 0 15 15" version="1.1">
  <g id="surface1">
    <path style=" stroke:none;fill-rule:nonzero;fill:rgb(0%,0%,0%);fill-opacity:1;" d="M 10.332031 5.265625 C 11.378906 5.265625 12.234375 4.425781 12.234375 3.382812 C 12.234375 2.34375 11.382812 1.5 10.332031 1.5 C 9.277344 1.5 8.421875 2.34375 8.421875 3.382812 C 8.421875 4.425781 9.277344 5.265625 10.332031 5.265625 Z M 14.699219 9.855469 L 14.699219 7.476562 L 12.128906 6.03125 C 11.695312 5.8125 11.210938 5.738281 10.726562 5.839844 C 10.53125 5.878906 10.34375 5.957031 10.132812 6.070312 C 10.109375 6.078125 9.347656 6.410156 8.90625 7.433594 L 7.136719 10.953125 C 7.136719 10.953125 5.390625 11.285156 4.664062 11.425781 L 4.484375 11.53125 L 4.03125 9.917969 C 3.84375 9.261719 4.542969 8.308594 4.570312 8.269531 C 5.03125 7.601562 5.15625 6.722656 4.914062 5.851562 C 4.695312 5.066406 4.191406 4.402344 3.535156 4.027344 C 3.023438 3.738281 2.449219 3.660156 1.925781 3.804688 C 1.519531 3.914062 1.15625 4.148438 0.878906 4.488281 L 0.660156 4.804688 C 0.285156 5.457031 0.199219 6.28125 0.417969 7.070312 C 0.636719 7.867188 1.132812 8.527344 1.792969 8.894531 L 1.949219 8.976562 C 1.972656 8.980469 3.054688 9.417969 3.242188 10.042969 C 3.242188 10.046875 3.527344 11.070312 3.761719 11.90625 L 3.582031 11.988281 L 3.617188 12.011719 C 3.566406 12.089844 3.472656 12.269531 3.480469 12.453125 C 3.480469 12.511719 3.484375 12.570312 3.496094 12.625 C 3.59375 13.144531 4.109375 13.488281 4.632812 13.382812 L 7.976562 12.742188 C 7.976562 12.742188 8.257812 12.65625 8.382812 12.570312 C 8.539062 12.460938 8.65625 12.226562 8.65625 12.226562 L 9.535156 10.480469 C 9.535156 10.480469 10.140625 13.304688 10.152344 13.355469 L 10.011719 13.5 L 14.574219 13.5 L 14.460938 12.839844 C 14.460938 12.832031 14.316406 12.207031 14.316406 12.207031 C 14.320312 12.210938 13.925781 10.445312 13.621094 9.066406 C 14.105469 9.34375 14.542969 9.589844 14.566406 9.601562 Z M 3.207031 8.410156 C 2.867188 8.5 2.503906 8.445312 2.160156 8.253906 C 1.675781 7.984375 1.300781 7.480469 1.144531 6.875 C 0.972656 6.269531 1.035156 5.652344 1.308594 5.175781 L 1.464844 4.953125 C 1.644531 4.734375 1.863281 4.585938 2.128906 4.511719 C 2.96875 4.289062 3.894531 4.976562 4.195312 6.050781 C 4.488281 7.121094 4.046875 8.183594 3.207031 8.410156 Z M 3.207031 8.410156 "/>
  </g>
</svg>