<svg xmlns="http://www.w3.org/2000/svg" xlink="http://www.w3.org/1999/xlink" width="20px" height="20px" viewBox="0 0 15 15" version="1.1">
  <g id="surface1">
    <path d="M 10.765625 12.769531 C 10.667969 12.902344 10.621094 12.929688 10.5 13.097656 C 10.296875 13.359375 10.554688 13.757812 10.683594 13.695312 C 10.832031 13.636719 10.929688 13.339844 11.09375 13.242188 C 11.175781 13.195312 11.398438 12.871094 11.609375 12.648438 C 11.761719 12.472656 11.875 12.398438 12.019531 12.214844 C 12.265625 11.910156 12.316406 11.675781 12.535156 11.351562 C 12.667969 11.179688 12.761719 11.128906 12.882812 10.917969 C 13.527344 9.699219 13.335938 9.15625 13.953125 8.285156 C 14.140625 8.027344 14.351562 7.964844 14.652344 7.8125 C 14.929688 5.785156 14.007812 4.652344 14.015625 4.648438 C 13.238281 5.101562 12.824219 5.285156 12.019531 5.242188 C 11.71875 5.238281 11.554688 5.109375 11.257812 5.136719 C 10.980469 5.148438 10.835938 5.253906 10.558594 5.347656 C 10.132812 5.480469 9.898438 5.597656 9.449219 5.734375 C 9.164062 5.816406 8.984375 5.820312 8.6875 5.921875 C 8.433594 6.027344 8.554688 5.941406 8.378906 6.148438 C 8.148438 6.402344 8.203125 6.597656 7.988281 7.035156 C 7.71875 7.605469 7.753906 7.679688 7.90625 7.75 C 7.804688 8.042969 7.78125 8.238281 7.804688 8.554688 C 7.832031 8.792969 7.730469 8.960938 7.988281 9.152344 C 8.339844 9.414062 9.078125 10.023438 9.265625 10.035156 C 9.546875 10.023438 10.367188 10.054688 10.785156 9.765625 C 10.878906 9.707031 10.90625 9.648438 10.828125 9.871094 C 10.808594 9.898438 9.785156 10.695312 9.675781 10.691406 C 8.375 10.734375 8.808594 10.808594 8.730469 10.777344 C 8.664062 10.777344 8.035156 10.011719 7.65625 10.28125 C 7.515625 10.367188 7.449219 10.453125 7.394531 10.609375 C 7.441406 10.710938 7.671875 10.871094 7.882812 11.003906 C 8.191406 11.195312 8.21875 11.402344 8.523438 11.476562 C 8.898438 11.558594 9.292969 11.503906 9.53125 11.535156 C 9.621094 11.558594 10.441406 11.320312 10.953125 11.042969 C 11.425781 10.800781 10.300781 11.511719 10.027344 11.863281 C 9.199219 12.125 9.433594 12.136719 9.039062 12.214844 C 8.675781 12.300781 8.691406 12.277344 8.441406 12.359375 C 8.183594 12.421875 7.972656 12.773438 8.214844 12.957031 C 8.359375 13.078125 8.816406 12.90625 9.265625 12.894531 C 9.464844 12.890625 10.273438 12.519531 10.457031 12.421875 C 10.917969 12.175781 11.253906 11.832031 11.527344 11.636719 C 11.902344 11.378906 11.101562 12.359375 10.765625 12.769531 Z M 8.257812 7.769531 C 8.53125 7.988281 8.671875 8.644531 8.667969 8.636719 C 9.171875 8.796875 9.492188 9.128906 9.492188 9.128906 C 10.265625 8.699219 10.285156 8.894531 10.621094 8.636719 C 10.898438 8.445312 10.886719 8.386719 11.03125 7.875 C 11.167969 7.460938 10.6875 7.5 10.289062 6.746094 C 9.601562 7.003906 9.230469 6.886719 8.996094 6.867188 C 8.894531 6.851562 8.910156 7.273438 8.257812 7.769531 Z M 4.226562 2.40625 C 4.324219 2.265625 4.367188 2.238281 4.492188 2.074219 C 4.6875 1.804688 4.433594 1.410156 4.308594 1.457031 C 4.15625 1.527344 4.058594 1.828125 3.875 1.929688 C 3.808594 1.96875 3.585938 2.296875 3.378906 2.527344 C 3.226562 2.695312 3.117188 2.769531 2.96875 2.960938 C 2.71875 3.257812 2.671875 3.488281 2.453125 3.804688 C 2.324219 3.992188 2.226562 4.039062 2.105469 4.253906 C 1.464844 5.464844 1.648438 6.011719 1.035156 6.867188 C 0.847656 7.140625 0.636719 7.199219 0.335938 7.359375 C 0.0585938 9.386719 0.976562 10.515625 0.972656 10.507812 C 1.75 10.066406 2.164062 9.882812 2.96875 9.910156 C 3.273438 9.929688 3.433594 10.054688 3.730469 10.035156 C 4.011719 10.019531 4.152344 9.914062 4.429688 9.832031 C 4.859375 9.6875 5.089844 9.570312 5.519531 9.4375 C 5.824219 9.351562 6.007812 9.347656 6.300781 9.230469 C 6.554688 9.136719 6.433594 9.226562 6.609375 9.027344 C 6.835938 8.765625 6.785156 8.566406 6.980469 8.144531 C 7.269531 7.5625 7.238281 7.484375 7.085938 7.421875 C 7.183594 7.125 7.210938 6.933594 7.183594 6.621094 C 7.152344 6.375 7.257812 6.207031 7 6.023438 C 6.648438 5.753906 5.910156 5.140625 5.726562 5.136719 C 5.441406 5.140625 4.621094 5.109375 4.203125 5.386719 C 4.109375 5.457031 4.082031 5.515625 4.164062 5.304688 C 4.179688 5.265625 5.203125 4.46875 5.3125 4.460938 C 6.613281 4.433594 6.179688 4.359375 6.261719 4.398438 C 6.324219 4.390625 6.953125 5.15625 7.332031 4.890625 C 7.46875 4.796875 7.539062 4.714844 7.597656 4.566406 C 7.546875 4.457031 7.316406 4.296875 7.105469 4.175781 C 6.800781 3.96875 6.769531 3.765625 6.464844 3.699219 C 6.09375 3.609375 5.695312 3.664062 5.460938 3.617188 C 5.371094 3.609375 4.550781 3.847656 4.042969 4.113281 C 3.5625 4.367188 4.6875 3.652344 4.964844 3.289062 C 5.789062 3.039062 5.554688 3.03125 5.953125 2.941406 C 6.316406 2.867188 6.296875 2.886719 6.550781 2.816406 C 6.804688 2.746094 7.019531 2.398438 6.773438 2.199219 C 6.625 2.089844 6.171875 2.257812 5.726562 2.261719 C 5.527344 2.277344 4.714844 2.648438 4.53125 2.753906 C 4.074219 2.992188 3.734375 3.332031 3.464844 3.515625 C 3.085938 3.789062 3.886719 2.8125 4.226562 2.40625 Z M 6.734375 7.402344 C 6.457031 7.175781 6.320312 6.523438 6.324219 6.519531 C 5.816406 6.371094 5.5 6.035156 5.5 6.046875 C 4.722656 6.46875 4.703125 6.273438 4.367188 6.519531 C 4.085938 6.722656 4.101562 6.785156 3.957031 7.277344 C 3.820312 7.707031 4.296875 7.667969 4.699219 8.410156 C 5.386719 8.160156 5.757812 8.277344 5.992188 8.304688 C 6.097656 8.3125 6.078125 7.894531 6.734375 7.402344 Z M 6.734375 7.402344 " fill="#FFFFFF"/>
  </g>
</svg>