<svg xmlns="http://www.w3.org/2000/svg" xlink="http://www.w3.org/1999/xlink" width="20px" height="20px" viewBox="0 0 15 15" version="1.1">
  <g id="surface1">
    <path d="M 10.386719 2.621094 C 11.019531 2.621094 11.53125 2.101562 11.53125 1.460938 C 11.53125 0.820312 11.019531 0.300781 10.386719 0.300781 C 9.75 0.300781 9.234375 0.820312 9.234375 1.460938 C 9.234375 2.101562 9.75 2.621094 10.386719 2.621094 Z M 13.46875 7.046875 C 13.269531 7.511719 12.84375 7.371094 12.84375 7.371094 L 11.042969 6.6875 C 10.863281 6.621094 10.722656 6.472656 10.675781 6.285156 L 10.269531 5.089844 L 9.632812 6.851562 L 11.5 8.828125 C 11.734375 9.242188 11.699219 9.546875 11.699219 9.546875 L 11.699219 12.269531 C 11.699219 12.269531 12.917969 12.8125 12.917969 13.484375 C 12.917969 14.15625 12.386719 14.699219 11.722656 14.699219 C 11.625 14.699219 11.539062 14.691406 11.445312 14.664062 L 7.5 13.78125 L 7.5 13.191406 L 10.5 12.527344 L 10.5 10.046875 L 8.484375 8.035156 L 8.167969 10.140625 C 8.117188 10.410156 7.921875 10.65625 7.8125 10.78125 L 6.425781 12.398438 C 6.40625 12.382812 6.378906 12.382812 6.351562 12.386719 L 6.425781 12.398438 C 6.785156 12.683594 6.972656 13.160156 6.859375 13.636719 C 6.707031 14.289062 6.054688 14.695312 5.410156 14.539062 C 5.316406 14.515625 5.226562 14.484375 5.144531 14.445312 L 1.5 12.65625 L 1.636719 12.085938 L 4.976562 12.132812 L 6.566406 10.28125 L 7.054688 6.640625 L 8.085938 3.882812 L 6.660156 4.710938 L 5.808594 6.394531 C 5.550781 6.929688 5.085938 6.648438 5.085938 6.648438 C 4.664062 6.40625 4.828125 5.996094 4.828125 5.996094 L 5.699219 4.214844 C 5.933594 3.765625 6.121094 3.695312 6.121094 3.695312 L 8.160156 2.570312 C 8.601562 2.261719 9.117188 2.5 9.117188 2.5 L 10.292969 2.949219 C 10.878906 3.160156 10.902344 3.492188 10.902344 3.492188 L 11.628906 5.839844 L 13.195312 6.394531 C 13.195312 6.394531 13.613281 6.578125 13.46875 7.046875 Z M 11.636719 14.148438 L 11.730469 14.15625 C 12.09375 14.15625 12.378906 13.855469 12.378906 13.484375 C 12.378906 13.117188 12 12.8125 11.699219 12.8125 L 11.699219 12.953125 C 11.699219 13.308594 11.429688 13.59375 11.078125 13.59375 C 10.769531 13.59375 10.535156 13.367188 10.476562 13.074219 L 8.632812 13.484375 Z M 5.449219 13.980469 L 5.53125 14.007812 C 5.894531 14.09375 6.25 13.871094 6.332031 13.511719 C 6.398438 13.238281 6.285156 12.964844 6.074219 12.8125 L 5.800781 13.128906 C 5.570312 13.394531 5.167969 13.425781 4.90625 13.195312 C 4.75 13.058594 4.6875 12.863281 4.699219 12.671875 L 2.675781 12.636719 Z M 5.449219 13.980469 " fill="#FFFFFF"/>
  </g>
</svg>