<?xml version="1.0" encoding="UTF-8" standalone="yes"?>
<svg xmlns="http://www.w3.org/2000/svg" xmlns:xlink="http://www.w3.org/1999/xlink" width="20px" height="20px" viewBox="0 0 15 15" version="1.1">
  <g id="surface1">
    <path style=" stroke:none;fill-rule:nonzero;fill:rgb(13.72549%,12.156863%,12.54902%);fill-opacity:1;" d="M 12.890625 10.046875 C 13.648438 10.046875 14.261719 9.410156 14.261719 8.625 C 14.261719 7.84375 13.648438 7.210938 12.890625 7.210938 C 12.132812 7.210938 11.523438 7.84375 11.523438 8.625 C 11.523438 9.410156 12.132812 10.046875 12.890625 10.046875 Z M 13.941406 13.214844 C 14.003906 13.238281 14.03125 13.246094 14.101562 13.246094 C 14.453125 13.246094 14.71875 12.953125 14.71875 12.589844 C 14.71875 12.316406 14.546875 12.078125 14.316406 11.984375 L 12.414062 11.21875 L 11.035156 8.679688 C 11.035156 8.679688 10.917969 8.402344 10.519531 8.246094 L 5.996094 6.371094 L 3.308594 1.65625 C 3.152344 1.386719 2.867188 1.199219 2.535156 1.199219 C 2.039062 1.199219 1.636719 1.617188 1.636719 2.132812 C 1.636719 2.296875 1.679688 2.449219 1.75 2.585938 L 5.085938 8.445312 L 2.972656 7.570312 L 2.441406 7.929688 L 10.894531 11.398438 L 10.890625 11.398438 L 11.238281 11.941406 C 11.238281 11.941406 11.375 12.234375 11.78125 12.402344 L 12.832031 12.816406 C 12.148438 13.523438 11.191406 13.214844 11.191406 13.214844 L 0.871094 8.921875 L 0.300781 9.273438 L 11.152344 13.683594 C 12.40625 14.15625 13.5 13.023438 13.5 13.023438 L 13.5 13.027344 Z M 13.941406 13.214844 "/>
  </g>
</svg>