<?xml version="1.0" encoding="UTF-8" standalone="yes"?>
<svg xmlns="http://www.w3.org/2000/svg" xmlns:xlink="http://www.w3.org/1999/xlink" width="20px" height="20px" viewBox="0 0 15 15" version="1.1">
  <g id="surface1">
    <path style=" stroke:none;fill-rule:nonzero;fill:rgb(0%,0%,0%);fill-opacity:1;" d="M 1.800781 14.25 C 1.800781 14.621094 2.03125 14.851562 2.398438 14.851562 C 2.769531 14.851562 3 14.621094 3 14.25 L 3 8.699219 L 3.601562 8.699219 L 3.601562 14.25 C 3.601562 14.621094 3.832031 14.851562 4.199219 14.851562 C 4.570312 14.851562 4.800781 14.621094 4.800781 14.25 L 4.800781 4.800781 L 5.101562 4.800781 L 5.101562 8.195312 C 5.101562 8.914062 6 8.914062 6 8.195312 L 6 4.546875 C 6 3.753906 5.429688 3.300781 4.5 3.300781 L 2.101562 3.300781 C 1.253906 3.300781 0.601562 3.664062 0.601562 4.527344 L 0.601562 8.398438 C 0.601562 9 1.5 9 1.5 8.398438 L 1.5 4.800781 L 1.800781 4.800781 Z M 1.800781 14.25 "/>
    <path style=" stroke:none;fill-rule:nonzero;fill:rgb(0%,0%,0%);fill-opacity:1;" d="M 4.5 1.539062 C 4.5 2.222656 3.945312 2.773438 3.261719 2.773438 C 2.578125 2.773438 2.023438 2.222656 2.023438 1.539062 C 2.023438 0.855469 2.578125 0.300781 3.261719 0.300781 C 3.945312 0.300781 4.5 0.855469 4.5 1.539062 Z M 4.5 1.539062 "/>
    <path style=" stroke:none;fill-rule:nonzero;fill:rgb(0%,0%,0%);fill-opacity:1;" d="M 12 1.539062 C 12 2.222656 11.445312 2.773438 10.761719 2.773438 C 10.078125 2.773438 9.523438 2.222656 9.523438 1.539062 C 9.523438 0.855469 10.078125 0.300781 10.761719 0.300781 C 11.445312 0.300781 12 0.855469 12 1.539062 Z M 12 1.539062 "/>
    <path style=" stroke:none;fill-rule:nonzero;fill:rgb(0%,0%,0%);fill-opacity:1;" d="M 13.773438 9.75 L 12 4.878906 L 11.992188 4.828125 C 11.992188 4.757812 12.050781 4.699219 12.125 4.699219 C 12.1875 4.699219 12.242188 4.742188 12.253906 4.796875 L 13.460938 7.949219 C 13.539062 8.128906 13.871094 8.25 14.085938 8.25 C 14.375 8.25 14.40625 7.679688 14.398438 7.648438 L 13.195312 4.617188 C 13.089844 3.921875 12.386719 3.300781 11.585938 3.300781 L 10.015625 3.300781 C 9.210938 3.300781 8.457031 3.921875 8.351562 4.617188 L 7.199219 7.6875 C 7.175781 7.746094 7.199219 8.269531 7.511719 8.269531 C 7.757812 8.269531 8.082031 8.175781 8.140625 7.960938 L 9.300781 4.789062 C 9.320312 4.742188 9.371094 4.703125 9.429688 4.703125 C 9.503906 4.703125 9.5625 4.757812 9.5625 4.828125 L 9.554688 4.875 L 7.828125 9.75 C 7.824219 9.765625 7.828125 10.109375 7.828125 10.125 C 7.828125 10.230469 8.078125 10.5 8.1875 10.5 L 9.300781 10.5 L 9.300781 14.277344 C 9.300781 14.589844 9.574219 14.851562 9.898438 14.851562 C 10.226562 14.851562 10.5 14.589844 10.5 14.277344 L 10.5 10.347656 C 10.5 10.261719 11.101562 10.265625 11.101562 10.351562 L 11.101562 14.25 C 11.101562 14.5625 11.375 14.851562 11.699219 14.851562 C 12.027344 14.851562 12.300781 14.5625 12.300781 14.25 L 12.300781 10.5 L 13.460938 10.5 C 13.570312 10.5 13.773438 10.230469 13.773438 10.125 C 13.773438 10.101562 13.78125 9.769531 13.773438 9.75 Z M 13.773438 9.75 "/>
  </g>
</svg>