<svg version="1.1" xmlns="http://www.w3.org/2000/svg" xlink="http://www.w3.org/1999/xlink" x="0px" y="0px" width="15px" height="15px" viewBox="0 0 15 15" style="enable-background:new 0 0 15 15;" space="preserve">
    <path d="M6.214844,7.199219L0.949219,7.199219C0.792969,7.199219,0.667969,7.105469,0.667969,6.957031L0.675781,6.898438L0.957031,5.097656C0.980469,4.96875,1.09375,5.101562,1.234375,5.101562L5.929688,5.101562C6.066406,5.101562,6.179688,4.976562,6.203125,5.105469L6.484375,7.023438L6.496094,7.011719C6.496094,7.160156,6.367188,7.199219,6.214844,7.199219ZM6.003906,9.46875C5.707031,9.46875,5.464844,9.238281,5.464844,8.945312C5.464844,8.65625,5.707031,8.421875,6.003906,8.421875C6.296875,8.421875,6.539062,8.65625,6.539062,8.945312C6.539062,9.238281,6.296875,9.46875,6.003906,9.46875ZM1.152344,9.46875C0.855469,9.46875,0.617188,9.238281,0.617188,8.945312C0.617188,8.65625,0.855469,8.421875,1.152344,8.421875C1.449219,8.421875,1.6875,8.65625,1.6875,8.945312C1.6875,9.238281,1.449219,9.46875,1.152344,9.46875ZM1.800781,3.601562L5.101562,3.601562L5.101562,4.5L1.800781,4.5C1.5,4.5,1.5,3.601562,1.800781,3.601562ZM6.808594,4.410156C6.714844,3.949219,6.386719,3.761719,5.925781,3.574219C5.46875,3.390625,4.386719,3.167969,3.589844,3.167969C2.792969,3.167969,1.714844,3.390625,1.257812,3.574219C0.800781,3.761719,0.46875,3.949219,0.371094,4.410156L0,6.988281L0,10.5L0.535156,10.5C0.535156,12,1.542969,12,1.542969,10.5L5.574219,10.5C5.574219,12,6.585938,12,6.585938,10.5L7.199219,10.5L7.199219,6.988281ZM13.425781,10.527344L13.402344,10.484375L13.425781,10.453125C13.652344,10.359375,13.855469,10.246094,14.039062,10.109375C14.222656,9.972656,14.316406,9.773438,14.378906,9.507812C14.386719,9.480469,14.398438,9.40625,14.398438,9.296875L14.398438,3.847656C14.398438,3.714844,14.386719,3.578125,14.308594,3.441406C14.230469,3.296875,14.148438,3.171875,14.03125,3.058594C13.914062,2.949219,13.746094,2.855469,13.601562,2.78125C13.476562,2.714844,13.199219,2.679688,13.199219,2.671875L13.199219,2.699219L13.242188,2.699219L9.300781,2.699219L9.300781,2.679688C9,2.691406,9.074219,2.722656,8.96875,2.773438C8.824219,2.84375,8.675781,2.933594,8.554688,3.042969C8.4375,3.148438,8.316406,3.273438,8.238281,3.410156C8.160156,3.546875,8.101562,3.679688,8.101562,3.8125L8.101562,9.347656C8.101562,9.4375,8.136719,9.535156,8.183594,9.636719C8.230469,9.738281,8.292969,9.832031,8.363281,9.921875C8.433594,10.011719,8.511719,10.09375,8.59375,10.167969C8.675781,10.242188,8.757812,10.300781,8.835938,10.347656C8.871094,10.363281,8.941406,10.386719,9.039062,10.417969C9.136719,10.449219,9.179688,10.464844,9.175781,10.480469L7.578125,12.898438L8.507812,12.898438L9.675781,11.101562L12.890625,11.101562L14.054688,12.898438L15,12.898438ZM10.726562,3L11.796875,3C12.03125,3,12.222656,3.066406,12.222656,3.300781C12.222656,3.535156,12.03125,3.601562,11.796875,3.601562L10.726562,3.601562C10.492188,3.601562,10.300781,3.535156,10.300781,3.300781C10.300781,3.066406,10.492188,3,10.726562,3ZM13.5,5.746094C13.5,6.21875,13.117188,6.601562,12.644531,6.601562L9.554688,6.601562C9.082031,6.601562,8.699219,6.21875,8.699219,5.746094L8.699219,5.054688C8.699219,4.582031,9.082031,4.199219,9.554688,4.199219L12.644531,4.199219C13.117188,4.199219,13.5,4.582031,13.5,5.054688ZM9.9375,9.542969C9.816406,9.667969,9.667969,9.730469,9.488281,9.730469C9.308594,9.730469,9.164062,9.667969,9.050781,9.542969C8.9375,9.421875,8.882812,9.269531,8.882812,9.089844C8.882812,8.925781,8.941406,8.785156,9.058594,8.664062C9.175781,8.542969,9.316406,8.484375,9.488281,8.484375C9.667969,8.484375,9.816406,8.539062,9.9375,8.652344C10.058594,8.765625,10.117188,8.914062,10.117188,9.101562C10.117188,9.273438,10.058594,9.421875,9.9375,9.542969ZM12.605469,9.542969C12.484375,9.421875,12.425781,9.269531,12.425781,9.089844C12.425781,8.910156,12.488281,8.765625,12.617188,8.652344C12.746094,8.539062,12.894531,8.484375,13.066406,8.484375C13.246094,8.484375,13.390625,8.542969,13.503906,8.664062C13.617188,8.785156,13.671875,8.925781,13.671875,9.089844C13.671875,9.265625,13.613281,9.417969,13.496094,9.542969C13.378906,9.667969,13.234375,9.730469,13.054688,9.730469C12.875,9.730469,12.726562,9.667969,12.605469,9.542969ZM12.605469,9.542969" fill="#FFFFFF"/>
    </svg>