<?xml version="1.0" encoding="UTF-8" standalone="yes"?>
<svg xmlns="http://www.w3.org/2000/svg" xmlns:xlink="http://www.w3.org/1999/xlink" width="20px" height="20px" viewBox="0 0 15 15" version="1.1">
  <g id="surface1">
    <path style=" stroke:none;fill-rule:nonzero;fill:rgb(0%,0%,0%);fill-opacity:1;" d="M 7.5 8.214844 C 5.878906 8.214844 4.5 8.6875 3.601562 9.425781 L 3.601562 10.800781 L 11.398438 10.800781 L 11.398438 9.425781 C 10.5 8.6875 9.121094 8.214844 7.5 8.214844 Z M 14.660156 7.507812 L 7.480469 4.199219 L 0.304688 7.507812 L 1.5 8.054688 L 1.5 8.898438 C 1.199219 8.960938 1.199219 9.117188 1.199219 9.304688 C 1.199219 9.414062 1.234375 9.542969 1.304688 9.621094 L 0.894531 10.5 L 2.359375 10.5 L 1.953125 9.621094 C 2.019531 9.542969 2.078125 9.429688 2.078125 9.320312 C 2.078125 9.132812 1.800781 8.960938 1.800781 8.898438 L 1.800781 8.195312 L 3.300781 8.871094 L 3.300781 8.8125 C 4.199219 8.027344 5.78125 7.53125 7.5 7.53125 C 9.21875 7.53125 10.800781 8.027344 11.699219 8.8125 L 11.699219 8.871094 Z M 14.660156 7.507812 "/>
  </g>
</svg>