<?xml version="1.0" encoding="UTF-8" standalone="yes"?>
<svg xmlns="http://www.w3.org/2000/svg" xmlns:xlink="http://www.w3.org/1999/xlink" width="20px" height="20px" viewBox="0 0 15 15" version="1.1">
  <g id="surface1">
    <path style=" stroke:none;fill-rule:nonzero;fill:rgb(0%,0%,0%);fill-opacity:1;" d="M 5.101562 6.300781 L 5.90625 6.300781 C 6.144531 6.300781 6.300781 5.945312 6.300781 5.707031 L 6.300781 3.171875 C 6.300781 2.933594 6.144531 3 5.90625 3 L 5.101562 3 Z M 5.101562 11.101562 L 5.90625 11.101562 C 6.144531 11.101562 6.300781 11.378906 6.300781 11.617188 L 6.300781 14.152344 C 6.300781 14.390625 6.144531 14.699219 5.90625 14.699219 L 5.101562 14.699219 Z M 4.039062 8.699219 C 4.03125 6.386719 4.464844 6.300781 4.714844 6.300781 L 4.800781 6.300781 L 4.800781 3 L 4.699219 3 C 4.253906 3 2.101562 3.726562 2.101562 8.851562 C 2.101562 13.972656 4.253906 14.699219 4.699219 14.699219 L 4.800781 14.699219 L 4.800781 11.101562 L 4.714844 11.101562 C 4.464844 11.101562 4.042969 11.015625 4.039062 8.699219 Z M 6.957031 3.714844 C 7.105469 3.886719 7.183594 4.109375 7.183594 4.335938 C 7.183594 4.566406 7.105469 4.785156 6.957031 4.960938 L 7.4375 5.355469 C 7.671875 5.070312 7.800781 4.707031 7.800781 4.335938 C 7.800781 3.96875 7.671875 3.605469 7.4375 3.320312 Z M 8.5 6.492188 C 9.023438 5.917969 9.3125 5.175781 9.3125 4.398438 C 9.3125 3.625 9.027344 2.882812 8.503906 2.3125 L 8.035156 2.71875 C 8.457031 3.179688 8.691406 3.773438 8.691406 4.398438 C 8.691406 5.027344 8.457031 5.625 8.03125 6.085938 Z M 9.558594 7.628906 C 10.371094 6.773438 10.820312 5.648438 10.820312 4.464844 C 10.820312 3.285156 10.375 2.164062 9.570312 1.304688 L 9.109375 1.726562 C 9.8125 2.46875 10.199219 3.441406 10.199219 4.464844 C 10.199219 5.492188 9.8125 6.46875 9.105469 7.210938 Z M 10.625 8.769531 C 11.722656 7.621094 12.328125 6.117188 12.328125 4.527344 C 12.328125 2.945312 11.726562 1.445312 10.632812 0.300781 L 10.183594 0.726562 C 11.167969 1.757812 11.707031 3.105469 11.707031 4.527344 C 11.707031 5.957031 11.164062 7.308594 10.175781 8.335938 Z M 10.625 8.769531 "/>
  </g>
</svg>