<svg version="1.1" xmlns="http://www.w3.org/2000/svg" xlink="http://www.w3.org/1999/xlink" x="0px" y="0px" width="15px" height="15px" viewBox="0 0 15 15" style="enable-background:new 0 0 15 15;" space="preserve">
    <path d="M5.101562,6.300781L5.90625,6.300781C6.144531,6.300781,6.300781,5.945312,6.300781,5.707031L6.300781,3.171875C6.300781,2.933594,6.144531,3,5.90625,3L5.101562,3ZM5.101562,11.101562L5.90625,11.101562C6.144531,11.101562,6.300781,11.378906,6.300781,11.617188L6.300781,14.152344C6.300781,14.390625,6.144531,14.699219,5.90625,14.699219L5.101562,14.699219ZM4.039062,8.699219C4.03125,6.386719,4.464844,6.300781,4.714844,6.300781L4.800781,6.300781L4.800781,3L4.699219,3C4.253906,3,2.101562,3.726562,2.101562,8.851562C2.101562,13.972656,4.253906,14.699219,4.699219,14.699219L4.800781,14.699219L4.800781,11.101562L4.714844,11.101562C4.464844,11.101562,4.042969,11.015625,4.039062,8.699219ZM6.957031,3.714844C7.105469,3.886719,7.183594,4.109375,7.183594,4.335938C7.183594,4.566406,7.105469,4.785156,6.957031,4.960938L7.4375,5.355469C7.671875,5.070312,7.800781,4.707031,7.800781,4.335938C7.800781,3.96875,7.671875,3.605469,7.4375,3.320312ZM8.5,6.492188C9.023438,5.917969,9.3125,5.175781,9.3125,4.398438C9.3125,3.625,9.027344,2.882812,8.503906,2.3125L8.035156,2.71875C8.457031,3.179688,8.691406,3.773438,8.691406,4.398438C8.691406,5.027344,8.457031,5.625,8.03125,6.085938ZM9.558594,7.628906C10.371094,6.773438,10.820312,5.648438,10.820312,4.464844C10.820312,3.285156,10.375,2.164062,9.570312,1.304688L9.109375,1.726562C9.8125,2.46875,10.199219,3.441406,10.199219,4.464844C10.199219,5.492188,9.8125,6.46875,9.105469,7.210938ZM10.625,8.769531C11.722656,7.621094,12.328125,6.117188,12.328125,4.527344C12.328125,2.945312,11.726562,1.445312,10.632812,0.300781L10.183594,0.726562C11.167969,1.757812,11.707031,3.105469,11.707031,4.527344C11.707031,5.957031,11.164062,7.308594,10.175781,8.335938ZM10.625,8.769531" fill="#FFFFFF"/>
    </svg>