<?xml version="1.0" encoding="UTF-8" standalone="yes"?>
<svg xmlns="http://www.w3.org/2000/svg" xmlns:xlink="http://www.w3.org/1999/xlink" width="20px" height="20px" viewBox="0 0 15 15" version="1.1">
  <g id="surface1">
    <path style=" stroke:none;fill-rule:nonzero;fill:rgb(0%,0%,0%);fill-opacity:1;" d="M 8.882812 13.03125 C 8.984375 13.015625 9.089844 13.007812 9.195312 13.007812 C 9.515625 13.007812 9.824219 13.082031 10.097656 13.207031 C 10.367188 13.324219 10.664062 13.394531 10.972656 13.394531 C 11.285156 13.394531 11.589844 13.324219 11.855469 13.207031 C 12.125 13.082031 12.433594 13.007812 12.753906 13.007812 C 13.078125 13.007812 13.320312 13.082031 13.59375 13.207031 C 13.859375 13.324219 14.101562 13.394531 14.398438 13.394531 L 14.398438 14.699219 C 14.101562 14.699219 13.859375 14.628906 13.59375 14.507812 C 13.320312 14.386719 13.042969 14.3125 12.722656 14.3125 C 12.402344 14.3125 12.109375 14.386719 11.835938 14.507812 C 11.570312 14.628906 11.277344 14.699219 10.964844 14.699219 C 10.65625 14.699219 10.359375 14.628906 10.09375 14.507812 C 9.820312 14.386719 9.515625 14.3125 9.195312 14.3125 C 8.875 14.3125 8.566406 14.386719 8.289062 14.507812 C 8.023438 14.628906 7.726562 14.699219 7.414062 14.699219 C 7.101562 14.699219 6.804688 14.628906 6.539062 14.507812 C 6.265625 14.386719 5.960938 14.3125 5.636719 14.3125 C 5.3125 14.3125 5.003906 14.386719 4.734375 14.507812 C 4.46875 14.628906 4.167969 14.699219 3.859375 14.699219 C 3.546875 14.699219 3.25 14.628906 2.984375 14.507812 C 2.707031 14.386719 2.398438 14.3125 2.078125 14.3125 C 1.757812 14.3125 1.449219 14.386719 1.175781 14.507812 C 0.910156 14.628906 0.613281 14.699219 0.300781 14.699219 L 0.300781 13.394531 C 0.613281 13.394531 0.910156 13.324219 1.175781 13.207031 C 1.449219 13.082031 1.757812 13.007812 2.078125 13.007812 C 2.398438 13.007812 2.707031 13.082031 2.984375 13.207031 C 3.25 13.324219 3.546875 13.394531 3.859375 13.394531 C 4.167969 13.394531 4.46875 13.324219 4.734375 13.207031 C 4.890625 13.136719 5.050781 13.082031 5.222656 13.050781 L 13.515625 11.582031 C 13.785156 11.519531 14.152344 11.332031 14.277344 11.011719 C 14.304688 10.953125 14.390625 10.933594 14.464844 10.9375 C 14.601562 10.945312 14.699219 11.0625 14.699219 11.195312 C 14.699219 11.40625 14.535156 11.996094 13.628906 12.179688 Z M 1.6875 2.683594 C 2.347656 2.683594 2.886719 2.148438 2.886719 1.488281 C 2.886719 0.832031 2.347656 0.300781 1.6875 0.300781 C 1.023438 0.300781 0.488281 0.832031 0.488281 1.488281 C 0.488281 2.148438 1.023438 2.683594 1.6875 2.683594 Z M 5.175781 12.308594 C 5.234375 12.574219 5.558594 12.828125 5.894531 12.828125 L 5.890625 12.832031 C 6.3125 12.832031 6.65625 12.492188 6.65625 12.070312 L 6.644531 11.949219 L 5.730469 8.054688 C 5.652344 7.804688 5.414062 7.566406 5.167969 7.46875 L 3.824219 6.664062 L 3.210938 4.039062 L 6.988281 4.035156 C 7.296875 4.035156 7.546875 3.824219 7.546875 3.519531 C 7.546875 3.214844 7.296875 3 6.988281 3 L 1.535156 3 C 0.988281 3 0.734375 3.351562 0.800781 3.6875 L 1.574219 7.148438 C 1.632812 7.476562 1.847656 7.742188 2.140625 7.886719 L 2.15625 7.890625 L 4.40625 9.199219 Z M 7.800781 3.601562 L 14.699219 3.601562 L 14.699219 3.898438 L 7.800781 3.898438 Z M 7.800781 3.601562 "/>
  </g>
</svg>