<svg xmlns="http://www.w3.org/2000/svg" xlink="http://www.w3.org/1999/xlink" width="20px" height="20px" viewBox="0 0 15 15" version="1.1">
  <g id="surface1">
    <path d="M 5.035156 2.699219 C 5.699219 2.699219 6.234375 2.160156 6.234375 1.5 C 6.234375 0.835938 5.699219 0.300781 5.035156 0.300781 C 4.375 0.300781 3.835938 0.835938 3.835938 1.5 C 3.835938 2.160156 4.375 2.699219 5.035156 2.699219 Z M 5.882812 13.703125 C 3.839844 13.703125 2.179688 12.023438 2.179688 9.941406 C 2.179688 8.800781 2.6875 7.785156 3.476562 7.09375 L 3.414062 5.917969 C 2.089844 6.757812 1.199219 8.238281 1.199219 9.941406 C 1.199219 12.566406 3.292969 14.699219 5.882812 14.699219 C 7.785156 14.699219 9.46875 13.359375 10.199219 11.699219 L 9.488281 10.71875 C 9.136719 12.417969 7.660156 13.703125 5.882812 13.703125 Z M 13.199219 11.398438 L 12.601562 11.398438 L 10.199219 8.101562 C 10.070312 7.871094 9.601562 7.199219 9 7.199219 L 6.300781 7.199219 L 6.300781 6 L 8.699219 6 C 9.011719 6 9.347656 5.867188 9.347656 5.546875 C 9.347656 5.230469 9.019531 5.101562 8.699219 5.101562 L 6.300781 5.101562 L 6.300781 3.898438 C 6.257812 3.234375 5.699219 3 5.101562 3.015625 C 4.5 3.027344 4.199219 3.300781 4.199219 3.898438 L 4.199219 8.101562 C 4.257812 8.773438 4.742188 9 5.398438 9 L 9 9 L 11.101562 11.699219 C 11.234375 11.921875 11.699219 12.601562 11.699219 12.601562 L 13.199219 12.601562 C 13.507812 12.601562 13.800781 12.320312 13.800781 12 C 13.800781 11.683594 13.519531 11.398438 13.199219 11.398438 Z M 13.199219 11.398438 " fill="#FFFFFF"/>
  </g>
</svg>