<?xml version="1.0" encoding="UTF-8" standalone="yes"?>
<svg xmlns="http://www.w3.org/2000/svg" xmlns:xlink="http://www.w3.org/1999/xlink" width="20px" height="20px" viewBox="0 0 15 15" version="1.1">
  <g id="surface1">
    <path style=" stroke:none;fill-rule:nonzero;fill:rgb(0%,0%,0%);fill-opacity:1;" d="M 10.699219 8.863281 C 11.195312 8.039062 11.488281 7.078125 11.488281 6.046875 C 11.488281 3.039062 9.054688 0.601562 6.042969 0.601562 C 3.039062 0.601562 0.601562 3.039062 0.601562 6.046875 C 0.601562 9.050781 3.039062 11.488281 6.046875 11.488281 C 7.078125 11.488281 8.039062 11.195312 8.859375 10.699219 L 12.5625 14.398438 L 14.398438 12.5625 Z M 6.046875 9.414062 C 4.183594 9.410156 2.679688 7.90625 2.675781 6.050781 C 2.679688 4.1875 4.183594 2.683594 6.046875 2.679688 C 7.90625 2.683594 9.410156 4.1875 9.414062 6.050781 C 9.410156 7.902344 7.902344 9.410156 6.046875 9.414062 Z M 8.398438 5.398438 L 6.601562 5.398438 L 6.601562 3.601562 L 5.398438 3.601562 L 5.398438 5.398438 L 3.601562 5.398438 L 3.601562 6.601562 L 5.398438 6.601562 L 5.398438 8.398438 L 6.601562 8.398438 L 6.601562 6.601562 L 8.398438 6.601562 Z M 8.398438 5.398438 "/>
  </g>
</svg>