<?xml version="1.0" encoding="UTF-8" standalone="yes"?>
<svg xmlns="http://www.w3.org/2000/svg" xmlns:xlink="http://www.w3.org/1999/xlink" width="20px" height="20px" viewBox="0 0 15 15" version="1.1">
  <g id="surface1">
    <path style=" stroke:none;fill-rule:nonzero;fill:rgb(0%,0%,0%);fill-opacity:1;" d="M 13.777344 8.683594 L 13.746094 8.597656 C 13.644531 8.320312 13.515625 7.976562 13.191406 7.78125 C 12.964844 7.644531 12.699219 7.597656 12.46875 7.558594 C 12.347656 7.535156 12.238281 7.515625 12.140625 7.484375 L 12.054688 7.457031 L 12.039062 7.453125 C 11.109375 6.703125 9.21875 6.683594 8.042969 5.625 C 6.359375 4.105469 5.007812 2.582031 3.484375 0.300781 L 1.585938 1.820312 C 1.453125 1.925781 1.199219 2.011719 1.199219 2.390625 C 1.199219 2.582031 1.394531 2.609375 1.621094 2.539062 L 2.695312 2.199219 L 5.699219 6.382812 L 5.699219 8.667969 C 5.699219 9.195312 5.691406 9.675781 6.140625 9.949219 L 5.011719 14.699219 L 5.769531 14.699219 L 6.484375 12.445312 L 7.199219 11.328125 L 7.199219 14.699219 L 8.101562 14.699219 L 8.101562 10.949219 C 8.101562 10.949219 8.089844 10.1875 8.851562 10.1875 L 9.601562 10.949219 L 9.601562 14.699219 L 10.199219 14.699219 L 10.199219 11.699219 L 11.855469 14.699219 L 12.617188 14.699219 C 12.234375 13.5 11.699219 13.609375 11.699219 12.46875 L 11.699219 11.707031 C 11.699219 10.910156 12.601562 10.1875 12.601562 9.425781 L 12.601562 8.667969 C 12.601562 8.484375 12.578125 8.324219 12.535156 8.179688 C 12.667969 8.207031 12.789062 8.242188 12.882812 8.296875 C 13.027344 8.382812 13.105469 8.597656 13.183594 8.804688 L 13.21875 8.898438 C 13.277344 9.054688 13.449219 9.132812 13.605469 9.074219 L 13.605469 9.070312 C 13.761719 9.011719 13.835938 8.839844 13.777344 8.683594 Z M 13.777344 8.683594 "/>
  </g>
</svg>