<svg version="1.1" xmlns="http://www.w3.org/2000/svg" xlink="http://www.w3.org/1999/xlink" x="0px" y="0px" width="15px" height="18.75px" viewBox="0 0 15 18.75" style="enable-background:new 0 0 15 15;" space="preserve">
    <path d="M0,17.578125c0,0.6470947265625,0.5247802734375,1.171875,1.171875,1.171875h2.34375c0.6470947265625,0,1.171875,-0.5247802734375,1.171875,-1.171875V5.859375H0v11.71875zm21.20947265625,-7.03125c0.654052734375,-0.6368408203125,1.05615234375,-1.367431640625,1.05615234375,-2.1573486328125c0,-1.935791015625,-1.5303955078125,-3.4346923828125004,-3.2197265625,-4.500732421875c-1.5358886718749998,-0.9693603515624999,-2.9527587890624996,-2.1156005859375,-4.10009765625,-3.523681640625L14.6484375,0l-0.29736328124999994,0.3651123046875c-1.1473388671875,1.4080810546875,-2.5638427734375,2.5546875,-4.10009765625,3.523681640625C8.5616455078125,4.954833984375001,7.03125,6.4537353515625,7.03125,8.3895263671875c0,0.7899169921875,0.40209960937500006,1.5205078125000002,1.05615234375,2.1573486328125h13.1220703125zM22.265625,11.71875H7.03125c-0.6470947265625,0,-1.171875,0.5247802734375,-1.171875,1.171875v4.6875c0,0.6470947265625,0.5247802734375,1.171875,1.171875,1.171875h1.171875v-2.34375c0,-0.6470947265625,0.5247802734375,-1.171875,1.171875,-1.171875s1.171875,0.5247802734375,1.171875,1.171875v2.34375h2.34375v-2.63671875c0,-1.7578125,1.7578125,-2.63671875,1.7578125,-2.63671875s1.7578125,0.87890625,1.7578125,2.63671875v2.63671875h2.34375v-2.34375c0,-0.6470947265625,0.5247802734375,-1.171875,1.171875,-1.171875s1.171875,0.5247802734375,1.171875,1.171875v2.34375h1.171875c0.6470947265625,0,1.171875,-0.5247802734375,1.171875,-1.171875V12.890625c0,-0.6470947265625,-0.5247802734375,-1.171875,-1.171875,-1.171875zM2.34375,0S0,1.171875,0,3.515625v1.171875h4.6875V3.515625c0,-2.34375,-2.34375,-3.515625,-2.34375,-3.515625z" fill="#FFFFFF"/>
    </svg>