<svg xmlns:dc="http://purl.org/dc/elements/1.1/" xmlns:cc="http://creativecommons.org/ns#" xmlns:rdf="http://www.w3.org/1999/02/22-rdf-syntax-ns#" xmlns:svg="http://www.w3.org/2000/svg" xmlns="http://www.w3.org/2000/svg" xmlns:sodipodi="http://sodipodi.sourceforge.net/DTD/sodipodi-0.dtd" xmlns:inkscape="http://www.inkscape.org/namespaces/inkscape" width="15" height="15" viewBox="0 0 15.000001 15" id="svg2" version="1.1" inkscape:version="0.91 r13725" sodipodi:docname="osm-beauty.svg">
  <defs id="defs4"/>
  <sodipodi:namedview id="base" pagecolor="#ffffff" bordercolor="#666666" borderopacity="1.0" inkscape:pageopacity="0.0" inkscape:pageshadow="2" inkscape:zoom="11.2" inkscape:cx="9.8424319" inkscape:cy="-0.86352118" inkscape:document-units="px" inkscape:current-layer="layer1" showgrid="false" units="px" inkscape:window-width="1920" inkscape:window-height="1021" inkscape:window-x="0" inkscape:window-y="0" inkscape:window-maximized="1"/>
  <metadata id="metadata7">
    <rdf:rdf>
      <cc:work rdf:about="">
        <dc:format>image/svg+xml</dc:format>
        <dc:type rdf:resource="http://purl.org/dc/dcmitype/StillImage"/>
        <dc:title/>
      </cc:work>
    </rdf:rdf>
  </metadata>
  <g inkscape:label="Calque 1" inkscape:groupmode="layer" id="layer1" transform="translate(0,-1037.3623)">
    <g id="g4143" transform="matrix(1.0714286,0,0,1.0714103,0.1748444,1037.5639)">
      <rect style="visibility:hidden;fill:none;stroke:none" id="canvas" y="0" x="0" height="14" width="14"/>
      <path id="path3003" d="M 5,0 C 4,0 3,0.46875 2,1.46875 c -1,1 -2,2 -2,3 0.66666667,0 1.3333333,0.375 2,0.375 1.5237901,0 1.9342025,-1.3092025 3,-2.375 C 5.5389586,2.1175528 5.9898446,1.7619014 7.46875,1.9375 9.0284017,2.2709486 12,3.4600154 14,4.875 12.391103,3.2253627 10.510265,1.4108539 8,0.46875 7,-0.0261194 6,0 5,0 Z m 7.34375,5.15625 -4.03125,1.75 C 4.9738455,7.4535704 1.1352801,6.1709309 1.25,6.3125 1.294552,6.367479 1.331618,6.4143303 1.375,6.46875 L 1.375,6.5 0,10 2.59375,8 3,12 4.96875,8.8125 c 0.1817584,0.031017 0.3580292,0.072019 0.5625,0.09375 L 7,12 8.09375,8.90625 C 8.430848,8.847145 8.7302067,8.734821 9.03125,8.625 L 11,11 11.03125,7.34375 C 11.08839,7.285104 11.133409,7.2170497 11.1875,7.15625 L 14,9 12.125,5.71875 c 0.07989,-0.1809565 0.15928,-0.3770034 0.21875,-0.5625 z" inkscape:connector-curvature="0" fill="#FFFFFF"/>
    </g>
  </g>
</svg>