<?xml version="1.0" encoding="UTF-8" standalone="no"?>
<svg
   xmlns:dc="http://purl.org/dc/elements/1.1/"
   xmlns:cc="http://creativecommons.org/ns#"
   xmlns:rdf="http://www.w3.org/1999/02/22-rdf-syntax-ns#"
   xmlns:svg="http://www.w3.org/2000/svg"
   xmlns="http://www.w3.org/2000/svg"
   xmlns:sodipodi="http://sodipodi.sourceforge.net/DTD/sodipodi-0.dtd"
   xmlns:inkscape="http://www.inkscape.org/namespaces/inkscape"
   version="1.1"
   xlink="http://www.w3.org/1999/xlink"
   x="0px"
   y="0px"
   width="15px"
   height="15px"
   viewBox="0 0 15 15"
   style="enable-background:new 0 0 15 15;"
   space="preserve"
   id="svg4"
   sodipodi:docname="osm-shoes.svg"
   inkscape:version="0.92.3 (2405546, 2018-03-11)">
  <metadata
     id="metadata10">
    <rdf:RDF>
      <cc:Work
         rdf:about="">
        <dc:format>image/svg+xml</dc:format>
        <dc:type
           rdf:resource="http://purl.org/dc/dcmitype/StillImage" />
        <dc:title></dc:title>
      </cc:Work>
    </rdf:RDF>
  </metadata>
  <defs
     id="defs8" />
  <sodipodi:namedview
     pagecolor="#ffffff"
     bordercolor="#666666"
     borderopacity="1"
     objecttolerance="10"
     gridtolerance="10"
     guidetolerance="10"
     inkscape:pageopacity="0"
     inkscape:pageshadow="2"
     inkscape:window-width="640"
     inkscape:window-height="480"
     id="namedview6"
     showgrid="false"
     inkscape:zoom="15.733333"
     inkscape:cx="7.5"
     inkscape:cy="7.5"
     inkscape:window-x="67"
     inkscape:window-y="27"
     inkscape:window-maximized="0"
     inkscape:current-layer="svg4" />
  <path
     d="M 0.80527391,2.9396186 C 0.80527391,2.9396186 0,5.3554403 0,8.576536 h 5.905342 c 0.5368493,0 1.402668,1.0736985 1.3958081,1.0736985 H 15.03178 c 0,-3.2210956 -3.221096,-3.4895203 -4.294795,-3.4895203 H 8.5895884 C 7.5158898,4.0133171 5.3684927,2.9396186 5.3684927,2.9396186 H 5.1000681 c -0.8052739,1.6195798 -2.934985,1.6195798 -4.0263696,0 z M 5.905342,4.0133171 c 0.2964933,0 0.5368493,0.2403557 0.5368493,0.5368493 0,0.2964936 -0.240356,0.5368493 -0.5368493,0.5368493 -0.2964933,0 -0.5368493,-0.2403557 -0.5368493,-0.5368493 0,-0.2964936 0.240356,-0.5368493 0.5368493,-0.5368493 z m 1.0736986,1.0736986 c 0.2964932,0 0.5368492,0.2403557 0.5368492,0.5368493 0,0.2964936 -0.240356,0.5368492 -0.5368492,0.5368492 -0.2964933,0 -0.5368493,-0.2403556 -0.5368493,-0.5368492 0,-0.2964936 0.240356,-0.5368493 0.5368493,-0.5368493 z M 0,9.3818099 V 11.529207 H 5.6369174 V 9.3818099 Z m 7.8379994,1.0736991 c 0,0 0.751589,1.073698 1.2884383,1.073698 H 15.03178 v -1.073698 z"
     id="path2"
     inkscape:connector-curvature="0"
     style="fill:#ffffff" />
</svg>
