<?xml version="1.0" encoding="UTF-8" standalone="no"?>
<!-- Created with Inkscape (http://www.inkscape.org/) -->

<svg
   xmlns:dc="http://purl.org/dc/elements/1.1/"
   xmlns:cc="http://creativecommons.org/ns#"
   xmlns:rdf="http://www.w3.org/1999/02/22-rdf-syntax-ns#"
   xmlns:svg="http://www.w3.org/2000/svg"
   xmlns="http://www.w3.org/2000/svg"
   xmlns:sodipodi="http://sodipodi.sourceforge.net/DTD/sodipodi-0.dtd"
   xmlns:inkscape="http://www.inkscape.org/namespaces/inkscape"
   width="15"
   height="15"
   viewBox="0 0 15 15"
   id="svg4162"
   version="1.1"
   inkscape:version="0.91 r13725"
   sodipodi:docname="osm-chemist.svg">
  <defs
     id="defs4164" />
  <sodipodi:namedview
     id="base"
     pagecolor="#ffffff"
     bordercolor="#666666"
     borderopacity="1.0"
     inkscape:pageopacity="0.0"
     inkscape:pageshadow="2"
     inkscape:zoom="7.9195959"
     inkscape:cx="7.8146887"
     inkscape:cy="11.526753"
     inkscape:document-units="px"
     inkscape:current-layer="layer1"
     showgrid="false"
     units="px"
     inkscape:window-width="1920"
     inkscape:window-height="1021"
     inkscape:window-x="0"
     inkscape:window-y="0"
     inkscape:window-maximized="1" />
  <metadata
     id="metadata4167">
    <rdf:RDF>
      <cc:Work
         rdf:about="">
        <dc:format>image/svg+xml</dc:format>
        <dc:type
           rdf:resource="http://purl.org/dc/dcmitype/StillImage" />
        <dc:title></dc:title>
      </cc:Work>
    </rdf:RDF>
  </metadata>
  <g
     inkscape:label="Calque 1"
     inkscape:groupmode="layer"
     id="layer1"
     transform="translate(0,-1037.3622)">
    <g
       id="g4717"
       transform="matrix(1.0714286,0,0,1.0714286,-0.16416503,1037.353)">
      <rect
         style="visibility:hidden;fill:none;stroke:none"
         id="canvas"
         y="0"
         x="0"
         height="14"
         width="14" />
      <path
         style="fill:#ac39ac;fill-opacity:1;stroke:none"
         id="path2988"
         d="m 13.515914,13 c 0,-12 0.02345,-10.0477231 0.02345,-12 0,-1 -0.0469,-1 -1.539364,-1 l 0,13.038526 C 12.048052,14.003111 12.000001,14 12.718594,14 c 0.765494,0 0.79732,0 0.79732,-1 z M 2.5075377,11.624791 c 1.9893914,0.633166 3.1278615,0.633166 5.0938024,-0.07035 L 7,4 C 5,4.281407 5,4.3048576 3,4 Z M 4.319933,0 5.718593,0 6.2730319,3 c -1,0.3048576 -1.5544389,0.3048576 -2.5544389,0 z m -2.2964824,14 0.2345058,-1 5.4991626,0 0.2579562,1 z m 7.4606365,-14 1.9597989,0 0,0.6097152 -1.9597989,0 z m 0,1 1.9597989,0 0,0.6097152 -1.9597989,0 z m 0,1 1.9597989,0 0,0.6097152 -1.9597989,0 z m 0,1 1.9597989,0 0,0.6097152 -1.9597989,0 z m 0,1 1.9597989,0 0,0.6097152 -1.9597989,0 z"
         inkscape:connector-curvature="0" />
    </g>
  </g>
</svg>
