<?xml version="1.0" encoding="UTF-8" standalone="no"?>
<svg
   xmlns:dc="http://purl.org/dc/elements/1.1/"
   xmlns:cc="http://creativecommons.org/ns#"
   xmlns:rdf="http://www.w3.org/1999/02/22-rdf-syntax-ns#"
   xmlns:svg="http://www.w3.org/2000/svg"
   xmlns="http://www.w3.org/2000/svg"
   xmlns:sodipodi="http://sodipodi.sourceforge.net/DTD/sodipodi-0.dtd"
   xmlns:inkscape="http://www.inkscape.org/namespaces/inkscape"
   version="1.1"
   xlink="http://www.w3.org/1999/xlink"
   x="0px"
   y="0px"
   width="15px"
   height="15px"
   viewBox="0 0 15 15"
   style="enable-background:new 0 0 15 15;"
   space="preserve"
   id="svg4"
   sodipodi:docname="osm-optician.svg"
   inkscape:version="0.92.3 (2405546, 2018-03-11)">
  <metadata
     id="metadata10">
    <rdf:RDF>
      <cc:Work
         rdf:about="">
        <dc:format>image/svg+xml</dc:format>
        <dc:type
           rdf:resource="http://purl.org/dc/dcmitype/StillImage" />
        <dc:title></dc:title>
      </cc:Work>
    </rdf:RDF>
  </metadata>
  <defs
     id="defs8" />
  <sodipodi:namedview
     pagecolor="#ffffff"
     bordercolor="#666666"
     borderopacity="1"
     objecttolerance="10"
     gridtolerance="10"
     guidetolerance="10"
     inkscape:pageopacity="0"
     inkscape:pageshadow="2"
     inkscape:window-width="640"
     inkscape:window-height="480"
     id="namedview6"
     showgrid="false"
     inkscape:zoom="15.733333"
     inkscape:cx="7.5"
     inkscape:cy="7.5"
     inkscape:window-x="67"
     inkscape:window-y="27"
     inkscape:window-maximized="0"
     inkscape:current-layer="svg4" />
  <path
     d="M 5.4161622,2.7823087 0.12711864,5.9557391 c 0,2.1156174 0.26445218,5.2890439 1.32226086,5.2890439 h 3.9667827 c 1.0578087,0 1.3222609,-3.7023309 1.3222609,-3.7023309 0.5469082,-0.2644521 1.0398048,-0.2644521 1.5867131,0 0,0 0.2644521,3.7023309 1.3222609,3.7023309 h 3.9667819 c 1.057809,0 1.322261,-3.1734265 1.322261,-5.2890439 L 9.6473971,2.7823087 c -0.5062567,-0.2922873 -0.923192,0.7892554 0,1.3222651 L 12.820823,5.9557391 H 2.242736 L 5.4161622,4.1045738 c 0.9758285,-0.5634005 0.3860684,-1.5451602 0,-1.3222651 z M 1.4493795,7.278 H 5.4161622 L 4.8872578,9.9225218 H 1.9782839 Z m 8.1980176,0 h 3.9667819 l -0.528904,2.6445218 h -2.908974 z"
     id="path2"
     inkscape:connector-curvature="0"
     style="fill:#ffffff" />
</svg>
