<svg xmlns="http://www.w3.org/2000/svg" xlink="http://www.w3.org/1999/xlink" width="11.2pt" height="11.2pt">
<defs/>
<g id="layer0">
  <rect id="canvas" transform="" fill="none" width="11.20000000000pt" height="11.20000000000pt"/>
  <path id="optician" transform="translate(-0.0128197, 2.8655)" fill="#FFFFFF" d="M5 0.046566L0 3.04657C0 5.04657 0.25 8.04657 1.25 8.04657L5 8.04657C6 8.04657 6.25 4.54657 6.25 4.54657C6.76702 4.29657 7.23298 4.29657 7.75 4.54657C7.75 4.54657 8 8.04657 9 8.04657L12.75 8.04657C13.75 8.04657 14 5.04657 14 3.04657L9 0.046566C8.52141 -0.229748 8.12726 0.792689 9 1.29657L12 3.04657L2 3.04657L5 1.29657C5.9225 0.763959 5.36497 -0.164148 5 0.046566ZM1.25 4.29657L5 4.29657L4.5 6.79657L1.75 6.79657ZM9 4.29657L12.75 4.29657L12.25 6.79657L9.5 6.79657Z"/>
 </g>
</svg>