<svg version="1.1" xmlns="http://www.w3.org/2000/svg" xlink="http://www.w3.org/1999/xlink" x="0px" y="0px" width="15px" height="15px" viewBox="0 0 15 15" style="enable-background:new 0 0 15 15;" space="preserve">
    <path d="M2.142857142857143,1.3392857142857142C2.837115,2.142857142857143,2.4615411428571425,2.6990012142857145,2.142857142857143,3.2142857142857144C1.8783558214285714,3.6419614285714283,1.0714285714285714,5.074232464285714,1.0714285714285714,5.357142857142857C1.20485025,5.855079535714285,1.668309214285714,6.194196428571429,2.142857142857143,6.194196428571429C2.549214535714286,5.959585928571428,2.871823928571428,5.4317475,3.2142857142857144,5.089285714285714C3.2142857142857144,5.089285714285714,4.285714285714286,6.428571428571429,4.285714285714286,7.5C4.285714285714286,8.151773678571429,3.2142857142857144,10.580357142857142,3.2142857142857144,10.580357142857142c0.12267503571428572,0.12267503571428572,0.7951573928571429,0.46168714285714285,1.0714285714285714,0.5357142857142857c0,0,1.0942557857142856,-2.263671,2.142857142857143,-2.544642857142857c0.6685133571428571,-0.17912764285714286,1.5146803928571428,-0.16831939285714284,2.142857142857143,0c1.0539792857142856,0.2824129285714286,2.142857142857143,2.544642857142857,2.142857142857143,2.544642857142857c0.27154071428571425,-0.07276071428571428,0.8854082142857143,-0.4283153571428571,1.0714285714285714,-0.5357142857142857c0,0,-0.9307425,-2.0195965714285715,-1.0714285714285714,-2.544642857142857c0,0,-0.4505022857142857,-1.3625643214285714,0,-2.142857142857143c1.3825082142857141,-0.7981915714285714,2.6785714285714284,-0.104865,2.6785714285714284,2.142857142857143c0.5659007142857143,-0.3267230357142857,1.0882328571428572,-1.6071428571428572,1.0714285714285714,-2.142857142857143C13.954385357142858,3.989883857142857,11.785714285714285,3.2142857142857144,10.178571428571429,4.821428571428571C9.144122357142857,4.224189107142857,7.355433964285714,4.161675107142857,5.892857142857142,4.553571428571429C5.892857142857142,2.142857142857143,3.7068705,1.3392857142857142,2.142857142857143,1.3392857142857142zM2.8125,3.2142857142857144C3.0344001428571428,3.2142857142857144,3.2142857142857144,3.3941712857142856,3.2142857142857144,3.6160714285714284C3.2142857142857144,3.837971571428571,3.0344001428571428,4.017857142857142,2.8125,4.017857142857142C2.5905998571428572,4.017857142857142,2.4107142857142856,3.837971571428571,2.4107142857142856,3.6160714285714284C2.4107142857142856,3.3941712857142856,2.5905998571428572,3.2142857142857144,2.8125,3.2142857142857144zM1.875,10.714285714285714L1.0714285714285714,11.785714285714285c0,0,2.142857142857143,2.4107142857142856,6.428571428571429,2.4107142857142856c4.285714285714286,0,6.428571428571429,-2.4107142857142856,6.428571428571429,-2.4107142857142856L13.125,10.714285714285714C13.125,10.714285714285714,10.714285714285714,12.857142857142858,7.5,12.857142857142858C4.285714285714286,12.857142857142858,1.875,10.714285714285714,1.875,10.714285714285714z" fill="#FFFFFF"/>
    </svg>