<svg version="1.1" xmlns="http://www.w3.org/2000/svg" xlink="http://www.w3.org/1999/xlink" x="0px" y="0px" width="15px" height="17.142857142857142px" viewBox="0 0 15 17.142857142857142" style="enable-background:new 0 0 15 15;" space="preserve">
    <path d="M13.392857142857142,1.0714285714285714H1.6071428571428572C0.7198660714285714,1.0714285714285714,0,1.7912946428571428,0,2.6785714285714284v11.785714285714285c0,0.8872767857142857,0.7198660714285714,1.6071428571428572,1.6071428571428572,1.6071428571428572h11.785714285714285c0.8872767857142857,0,1.6071428571428572,-0.7198660714285714,1.6071428571428572,-1.6071428571428572V2.6785714285714284c0,-0.8872767857142857,-0.7198660714285714,-1.6071428571428572,-1.6071428571428572,-1.6071428571428572zM8.035714285714285,10.714285714285714h-1.6071428571428572v1.6071428571428572c0,0.29464285714285715,-0.24107142857142858,0.5357142857142857,-0.5357142857142857,0.5357142857142857h-1.0714285714285714c-0.29464285714285715,0,-0.5357142857142857,-0.24107142857142858,-0.5357142857142857,-0.5357142857142857V4.821428571428571c0,-0.29464285714285715,0.24107142857142858,-0.5357142857142857,0.5357142857142857,-0.5357142857142857h3.2142857142857144c1.771205357142857,0,3.2142857142857144,1.4430803571428572,3.2142857142857144,3.2142857142857144s-1.4430803571428572,3.2142857142857144,-3.2142857142857144,3.2142857142857144zm0,-4.285714285714286h-1.6071428571428572v2.142857142857143h1.6071428571428572c0.5892857142857143,0,1.0714285714285714,-0.48214285714285715,1.0714285714285714,-1.0714285714285714s-0.48214285714285715,-1.0714285714285714,-1.0714285714285714,-1.0714285714285714z" fill="#FFFFFF"/>
    </svg>