<svg version="1.1" xmlns="http://www.w3.org/2000/svg" xlink="http://www.w3.org/1999/xlink" x="0px" y="0px" width="15px" height="18.75px" viewBox="0 0 15 18.75" style="enable-background:new 0 0 15 15;" space="preserve">
    <path d="M22.871337890624996,12.7320556640625c-1.1975097656250002,-0.45849609374999994,-2.1005859375,0.1556396484375,-2.7601318359375004,0.6024169921875c-0.624755859375,0.4222412109375,-0.8514404296875,0.528076171875,-1.1502685546875,0.41601562499999994c-0.29736328124999994,-0.11315917968749999,-0.3966064453125,-0.34350585937500006,-0.5819091796875,-1.075927734375c-0.1219482421875,-0.4815673828125,-0.2724609375,-1.07373046875,-0.6573486328125,-1.5618896484375c0.08203125,-0.10656738281250001,0.16223144531249997,-0.2120361328125,0.233642578125,-0.3138427734375C18.3277587890625,11.1492919921875,18.8126220703125,11.42578125,19.482421875,11.42578125c1.2432861328125002,0,1.8629150390625,-0.9440917968750001,2.272705078125,-1.5684814453124998c0.3878173828125,-0.591064453125,0.54931640625,-0.7752685546875,0.803466796875,-0.7752685546875c0.4852294921875,0,0.87890625,-0.3936767578125,0.87890625,-0.87890625s-0.3936767578125,-0.87890625,-0.87890625,-0.87890625c-1.2432861328125002,0,-1.8629150390625,0.9440917968750001,-2.272705078125,1.5684814453124998c-0.38818359375,0.591064453125,-0.54931640625,0.7752685546875,-0.803466796875,0.7752685546875c-0.6339111328125,0,-1.3725585937499998,-2.2496337890625,-3.561767578125,-3.7320556640624996l0.6317138671875,-1.263427734375C17.7769775390625,4.595947265625,18.75,3.588134765625,18.75,2.34375c0,-1.2945556640625,-1.0491943359375,-2.34375,-2.34375,-2.34375s-2.34375,1.0491943359375,-2.34375,2.34375c0,0.47680664062499994,0.144287109375,0.919189453125,0.38891601562499994,1.2894287109375l-0.6646728515625,1.329345703125c-0.621826171875,-0.16845703125,-1.3037109375,-0.2750244140625,-2.067626953125,-0.2750244140625s-1.4461669921875,0.10656738281250001,-2.067626953125,0.2750244140625l-0.6646728515625,-1.329345703125C9.230712890625,3.262939453125,9.375,2.820556640625,9.375,2.34375c0,-1.2945556640625,-1.0491943359375,-2.34375,-2.34375,-2.34375s-2.34375,1.0491943359375,-2.34375,2.34375c0,1.2443847656249998,0.97265625,2.252197265625,2.197998046875,2.3291015625l0.6317138671875,1.263427734375C5.334960937500001,7.41357421875,4.5831298828125,9.66796875,3.955078125,9.66796875c-0.254150390625,0,-0.415283203125,-0.1842041015625,-0.803466796875,-0.7752685546875C2.7421874999999996,8.268310546875,2.12255859375,7.32421875,0.87890625,7.32421875c-0.4852294921875,0,-0.87890625,0.3936767578125,-0.87890625,0.87890625s0.3936767578125,0.87890625,0.87890625,0.87890625c0.254150390625,0,0.415283203125,0.1842041015625,0.803466796875,0.7752685546875C2.0921630859375,10.481689453125,2.7117919921875,11.42578125,3.955078125,11.42578125c0.6697998046874999,0,1.1546630859375,-0.2764892578125,1.527099609375,-0.6265869140625c0.0714111328125,0.1021728515625,0.151611328125,0.207275390625,0.233642578125,0.3138427734375c-0.3848876953125,0.4881591796875,-0.535400390625,1.080322265625,-0.6573486328125,1.5618896484375c-0.18530273437499997,0.732421875,-0.2845458984375,0.9624023437500001,-0.5819091796875,1.075927734375c-0.2969970703125,0.112060546875,-0.5247802734375,0.006225585937500001,-1.1502685546875,-0.41601562499999994c-0.6602783203125001,-0.44677734375,-1.564453125,-1.05908203125,-2.7601318359375004,-0.6024169921875c-0.45373535156250006,0.1728515625,-0.6807861328125,0.680419921875,-0.5079345703125,1.1341552734375c0.1728515625,0.4544677734375,0.6815185546875,0.6815185546875,1.1341552734375,0.50830078125c0.298828125,-0.11315917968749999,0.525146484375,-0.0069580078125,1.1495361328125,0.41601562499999994c0.4962158203125,0.33544921875,1.1290283203125,0.763916015625,1.9196777343750002,0.76318359375c0.2625732421875,0,0.5430908203125,-0.046875,0.8411865234374999,-0.1607666015625c1.196044921875,-0.45556640625,1.4641113281249998,-1.5135498046874998,1.6600341796874998,-2.28662109375c0.0809326171875,-0.3193359375,0.1461181640625,-0.5306396484375,0.2178955078125,-0.6910400390625c0.608642578125,0.49841308593749994,1.3531494140625,0.94775390625,2.25732421875,1.2513427734375002c-0.36474609375,1.35498046875,-1.178466796875,3.3251953125,-2.206787109375,3.3251953125c-0.4852294921875,0,-0.87890625,0.3936767578125,-0.87890625,0.87890625s0.3936767578125,0.87890625,0.87890625,0.87890625c2.444091796875,0,3.5540771484375,-3.2457275390624996,3.933837890625,-4.729248046875c0.24499511718750003,0.02197265625,0.491455078125,0.04174804687499999,0.753662109375,0.04174804687499999s0.5086669921875,-0.019775390625000003,0.753662109375,-0.04174804687499999C12.8521728515625,15.5042724609375,13.962158203125,18.75,16.40625,18.75c0.4852294921875,0,0.87890625,-0.3936767578125,0.87890625,-0.87890625s-0.3936767578125,-0.87890625,-0.87890625,-0.87890625c-1.023193359375,0,-1.8387451171875,-1.9705810546875002,-2.205322265625,-3.3255615234375c0.9041748046875,-0.3035888671875,1.64794921875,-0.7529296875,2.256591796875,-1.2509765625c0.07177734375,0.160400390625,0.136962890625,0.3717041015625,0.2178955078125,0.6910400390625c0.195556640625,0.7730712890625,0.4639892578125,1.8310546875,1.6600341796874998,2.28662109375c0.298095703125,0.1138916015625,0.57861328125,0.1607666015625,0.8411865234374999,0.1607666015625c0.7906494140625,0,1.4234619140625,-0.4281005859375,1.9196777343750002,-0.76318359375c0.6243896484375,-0.4229736328125,0.8525390625000001,-0.5291748046875,1.1495361328125,-0.41601562499999994c0.45373535156250006,0.1739501953125,0.9620361328125,-0.0538330078125,1.1341552734375,-0.50830078125c0.1724853515625,-0.4541015625,-0.0545654296875,-0.9616699218750001,-0.5086669921875,-1.134521484375zM16.40625,1.7578125c0.322998046875,0,0.5859375,0.262939453125,0.5859375,0.5859375s-0.262939453125,0.5859375,-0.5859375,0.5859375s-0.5859375,-0.262939453125,-0.5859375,-0.5859375s0.262939453125,-0.5859375,0.5859375,-0.5859375zm-9.375,0c0.322998046875,0,0.5859375,0.262939453125,0.5859375,0.5859375s-0.262939453125,0.5859375,-0.5859375,0.5859375s-0.5859375,-0.262939453125,-0.5859375,-0.5859375s0.262939453125,-0.5859375,0.5859375,-0.5859375z" fill="#FFFFFF"/>
    </svg>