<svg version="1.1" xmlns="http://www.w3.org/2000/svg" xlink="http://www.w3.org/1999/xlink" x="0px" y="0px" width="15px" height="15px" viewBox="0 0 15 15" style="enable-background:new 0 0 15 15;" space="preserve">
    <path d="m3.0983999,3.5991052c0.6250575,0,1.1321797,-0.5071221,1.1321797,-1.1321797c0,-0.6250575,-0.5071222,-1.1321797,-1.1321797,-1.1321797c-0.6250576,0,-1.1321797,0.5071222,-1.1321797,1.1321797c0,0.6250576,0.5071221,1.1321797,1.1321797,1.1321797zm9.0574371,0c0.625058,0,1.13218,-0.5071221,1.13218,-1.1321797c0,-0.6250575,-0.507122,-1.1321797,-1.13218,-1.1321797c-0.625057,0,-1.132179,0.5071222,-1.132179,1.1321797c0,0.6250576,0.507122,1.1321797,1.132179,1.1321797zm2.964896,8.7767518l-1.037831,-2.5945789l-0.969429,1.0944399l-0.04718,0.429285l0.653363,1.632226c0.117935,0.294839,0.40098,0.474101,0.700536,0.474101c0.09435,0,0.188696,-0.01651,0.280686,-0.05425c0.386828,-0.155674,0.575525,-0.594394,0.41985,-0.981222zM14.314055,7.4272878L13.877694,5.5356042C13.769193,5.0638627,13.438974,4.6675998,12.993179,4.4765445C12.556818,4.2878479,12.073283,4.3185111,11.669944,4.5543818C11.134517,4.8704487,10.733537,5.368136,10.535405,5.9554542L10.268871,6.7550561L9.8914781,6.9956443V4.7312849c0,-0.2075663,-0.169827,-0.3773932,-0.3773932,-0.3773932H5.7401525c-0.2075663,0,-0.3773932,0.1698269,-0.3773932,0.3773932V6.9956443L4.9830073,6.7550561L4.7164734,5.9554542C4.5207006,5.3657773,4.1173616,4.8704487,3.581935,4.5543818C3.1762372,4.3185111,2.6950609,4.2878479,2.2586999,4.4765445C1.8129042,4.6675998,1.4826851,5.0638627,1.3741845,5.5356042L0.94018226,7.4272878C0.8316817,7.8990294,0.95669321,8.3990754,1.2798362,8.7646751l1.5850516,1.7902589l0.2382295,2.184164c0.042457,0.384469,0.3679584,0.672232,0.750069,0.672232c0.028304,0,0.05425,-0.0024,0.082555,-0.0047c0.4151326,-0.04481,0.7123297,-0.417491,0.6675143,-0.832624L4.3650259,10.385107C4.3296453,10.078475,4.2022751,9.7930717,3.9970675,9.5595596L2.9757471,8.4037928L3.3908796,6.7456213L3.5512718,7.2267977c0.096707,0.2948384,0.2806862,0.5519376,0.5778833,0.7689387l1.2052997,0.76658C5.4429553,8.8307184,5.6198584,8.870817,5.7401525,8.8802518H9.5140849C9.634379,8.8708218,9.811282,8.8307188,9.9197826,8.7623164l1.2052994,-0.76658c0.297197,-0.2170011,0.481176,-0.4717415,0.577883,-0.7689387l0.160393,-0.4811764l0.415132,1.6581715l-1.02132,1.1557668c-0.205208,0.2335121,-0.332578,0.5189154,-0.367959,0.8255474l-0.238229,2.188881c-0.04482,0.415133,0.25474,0.787809,0.667514,0.832624c0.02831,0.0024,0.05425,0.0047,0.08256,0.0047c0.379752,0,0.707612,-0.285404,0.750069,-0.672232l0.238224,-2.184146l1.585052,-1.7902589C14.295185,8.3990754,14.422555,7.8990294,14.314055,7.4272878ZM1.1713357,9.7812781L0.13350422,12.375857c-0.15567471,0.386828,0.0330219,0.825548,0.41984997,0.981222c0.3962629,0.155675,0.82790651,-0.0401,0.98122251,-0.41985l0.653362,-1.632226l-0.047174,-0.429285z" fill="#FFFFFF"/>
    </svg>