<svg version="1.1" xmlns="http://www.w3.org/2000/svg" xlink="http://www.w3.org/1999/xlink" x="0px" y="0px" width="15px" height="18.75px" viewBox="0 0 15 18.75" style="enable-background:new 0 0 15 15;" space="preserve">
    <path d="M4.6875,3.515625c0.970458984375,0,1.7578125,-0.787353515625,1.7578125,-1.7578125S5.657958984375,0,4.6875,0S2.9296875,0.787353515625,2.9296875,1.7578125s0.787353515625,1.7578125,1.7578125,1.7578125zm14.0625,0c0.970458984375,0,1.7578125,-0.787353515625,1.7578125,-1.7578125S19.720458984375,0,18.75,0s-1.7578125,0.787353515625,-1.7578125,1.7578125s0.787353515625,1.7578125,1.7578125,1.7578125zm4.603271484375,13.626708984375l-1.611328125,-4.0283203125l-1.505126953125,1.69921875l-0.0732421875,0.66650390625l1.014404296875,2.5341796875c0.18310546875,0.457763671875,0.62255859375,0.736083984375,1.087646484375,0.736083984375c0.146484375,0,0.29296875,-0.025634765625,0.435791015625,-0.084228515625c0.6005859374999999,-0.24169921875,0.8935546875,-0.9228515625,0.65185546875,-1.5234375zm-1.25244140625,-7.68310546875L21.42333984375,6.522216796875c-0.16845703125,-0.732421875,-0.68115234375,-1.34765625,-1.373291015625,-1.644287109375c-0.677490234375,-0.29296875,-1.42822265625,-0.245361328125,-2.054443359375,0.120849609375c-0.831298828125,0.49072265625,-1.453857421875,1.263427734375,-1.761474609375,2.17529296875L15.8203125,8.41552734375L15.234375,8.7890625v-3.515625c0,-0.322265625,-0.263671875,-0.5859375,-0.5859375,-0.5859375H8.7890625c-0.322265625,0,-0.5859375,0.263671875,-0.5859375,0.5859375v3.515625l-0.5895996093750001,-0.37353515625l-0.413818359375,-1.241455078125c-0.30395507812500006,-0.91552734375,-0.93017578125,-1.6845703125,-1.761474609375,-2.17529296875c-0.6298828125,-0.3662109375,-1.376953125,-0.413818359375,-2.054443359375,-0.120849609375c-0.692138671875,0.296630859375,-1.204833984375,0.911865234375,-1.373291015625,1.644287109375l-0.673828125,2.93701171875c-0.16845703125,0.732421875,0.025634765625,1.5087890625,0.52734375,2.076416015625l2.4609375,2.779541015625l0.369873046875,3.39111328125C4.7607421875,18.30322265625,5.26611328125,18.75,5.859375,18.75c0.0439453125,0,0.084228515625,-0.003662109375,0.128173828125,-0.00732421875c0.64453125,-0.069580078125,1.10595703125,-0.648193359375,1.036376953125,-1.292724609375l-0.369873046875,-3.3984375c-0.054931640625,-0.47607421875,-0.252685546875,-0.919189453125,-0.5712890625,-1.28173828125l-1.585693359375,-1.79443359375l0.64453125,-2.574462890625l0.2490234375,0.7470703125c0.15014648437499997,0.457763671875,0.435791015625,0.85693359375,0.897216796875,1.19384765625l1.871337890625,1.190185546875c0.16845703125,0.106201171875,0.443115234375,0.16845703125,0.6298828125,0.18310546875h5.859375c0.186767578125,-0.0146484375,0.46142578125,-0.076904296875,0.6298828125,-0.18310546875l1.871337890625,-1.190185546875c0.46142578125,-0.3369140625,0.7470703125,-0.732421875,0.897216796875,-1.19384765625l0.2490234375,-0.7470703125l0.64453125,2.574462890625l-1.585693359375,1.79443359375c-0.318603515625,0.362548828125,-0.516357421875,0.8056640625,-0.5712890625,1.28173828125l-0.369873046875,3.3984375c-0.069580078125,0.64453125,0.3955078125,1.22314453125,1.036376953125,1.292724609375c0.0439453125,0.003662109375,0.084228515625,0.00732421875,0.128173828125,0.00732421875c0.5895996093750001,0,1.0986328125,-0.443115234375,1.16455078125,-1.043701171875l0.369873046875,-3.39111328125l2.4609375,-2.779541015625c0.498046875,-0.567626953125,0.69580078125,-1.343994140625,0.52734375,-2.076416015625zM1.695556640625,13.114013671875l-1.611328125,4.0283203125c-0.24169921875,0.6005859374999999,0.05126953125,1.28173828125,0.65185546875,1.5234375c0.615234375,0.24169921875,1.285400390625,-0.062255859375,1.5234375,-0.65185546875l1.014404296875,-2.5341796875l-0.0732421875,-0.66650390625l-1.505126953125,-1.69921875z" fill="#FFFFFF"/>
    </svg>