<svg version="1.1" xmlns="http://www.w3.org/2000/svg" xlink="http://www.w3.org/1999/xlink" x="0px" y="0px" width="15px" height="15px" viewBox="0 0 15 15" style="enable-background:new 0 0 15 15;" space="preserve">
    <path d="M14.562041,6.838526H13.791175C13.561222,6.3159048,13.226744,5.8533852,12.813873,5.4666455L13.30775,3.4937508h-0.836193c-0.768253,0,-1.447661,0.3527693,-1.907567,0.8962952C10.365394,4.361302,10.169411,4.329945,9.9629748,4.329945H6.6182c-2.0225437,0,-3.7079968,1.4372081,-4.0973496,3.3447751H1.3919888C1.0052492,7.6747197,0.69951583,7.3219505,0.77790899,6.9221453C0.83539732,6.6242513,1.1149996,6.4204291,1.4181199,6.4204291h0.026131c0.086232,0,0.1567863,-0.070554,0.1567863,-0.1567864V5.7410216c0,-0.086233,-0.070554,-0.1567863,-0.1567863,-0.1567863c-0.74473517,0,-1.40846399,0.5330735,-1.50253579,1.2699693c-0.11497654,0.8936821,0.58010954,1.6567089,1.45027369,1.6567089h1.0452423c0,1.3640411,0.6637288,2.5634565,1.6723875,3.3264825v2.108777c0,0.229953,0.1881436,0.418096,0.4180969,0.418096h1.6723876c0.2299533,0,0.4180969,-0.188143,0.4180969,-0.418096v-1.254291h3.3447748v1.254291c0,0.229953,0.1881442,0.418096,0.4180972,0.418096h1.672388c0.229953,0,0.418097,-0.188143,0.418097,-0.418096v-2.108777c0.308346,-0.232566,0.582722,-0.506942,0.817902,-0.817902h1.272582c0.229953,0,0.418097,-0.188143,0.418097,-0.418096V7.2566228c0,-0.2299532,-0.188144,-0.4180968,-0.418097,-0.4180968zm-3.344775,1.6723875c-0.229953,0,-0.418097,-0.1881436,-0.418097,-0.4180969c0,-0.2299533,0.188144,-0.4180969,0.418097,-0.4180969c0.229953,0,0.418097,0.1881436,0.418097,0.4180969c0,0.2299533,-0.188144,0.4180969,-0.418097,0.4180969zM6.6182,3.4937508h3.3447748c0.1411082,0,0.2796032,0.010452,0.4154842,0.020905c0,-0.00784,0.0026,-0.013066,0.0026,-0.020905c0.000013,-1.3849459,-1.1236224,-2.50858131,-2.5085684,-2.50858131c-1.3849459,0,-2.5085813,1.12363541,-2.5085813,2.50858131c0,0.054875,0.013065,0.1071374,0.015679,0.1620126C5.77678,3.5538523,6.1896506,3.4937508,6.6182,3.4937508Z" fill="#FFFFFF"/>
    </svg>