<svg version="1.1" xmlns="http://www.w3.org/2000/svg" xlink="http://www.w3.org/1999/xlink" x="0px" y="0px" width="15px" height="16.875px" viewBox="0 0 15 16.875" style="enable-background:new 0 0 15 15;" space="preserve">
    <path d="M18.45703125,7.3828125h-0.9722900390625c-0.2900390625,-0.6591796875,-0.7119140625,-1.2425537109375,-1.232666015625,-1.7303466796875L16.875,3.1640625h-1.0546875c-0.968994140625,0,-1.825927734375,0.4449462890625,-2.406005859375,1.1304931640625c-0.25048828125,-0.0362548828125,-0.4976806640625,-0.0758056640625,-0.758056640625,-0.0758056640625H8.4375c-2.551025390625,0,-4.6768798828125,1.812744140625,-5.16796875,4.21875H1.845703125c-0.48779296875,0,-0.8734130859375,-0.4449462890625,-0.7745361328125,-0.94921875C1.1436767578125,7.112548828125,1.496337890625,6.85546875,1.878662109375,6.85546875h0.032958984375c0.1087646484375,0,0.19775390625,-0.0889892578125,0.19775390625,-0.19775390625v-0.6591796875c0,-0.1087646484375,-0.0889892578125,-0.19775390625,-0.19775390625,-0.19775390625c-0.9393310546875,0,-1.7764892578125,0.67236328125,-1.8951416015625,1.601806640625C-0.1285400390625,8.52978515625,0.7481689453125,9.4921875,1.845703125,9.4921875h1.318359375c0,1.720458984375,0.837158203125,3.2332763671875,2.109375,4.1956787109375V16.34765625c0,0.2900390625,0.2373046875,0.52734375,0.52734375,0.52734375h2.109375c0.2900390625,0,0.52734375,-0.2373046875,0.52734375,-0.52734375v-1.58203125h4.21875v1.58203125c0,0.2900390625,0.2373046875,0.52734375,0.52734375,0.52734375h2.109375c0.2900390625,0,0.52734375,-0.2373046875,0.52734375,-0.52734375v-2.6597900390625c0.388916015625,-0.2933349609375,0.7349853515625,-0.639404296875,1.0316162109375,-1.0316162109375H18.45703125c0.2900390625,0,0.52734375,-0.2373046875,0.52734375,-0.52734375V7.91015625c0,-0.2900390625,-0.2373046875,-0.52734375,-0.52734375,-0.52734375zm-4.21875,2.109375c-0.2900390625,0,-0.52734375,-0.2373046875,-0.52734375,-0.52734375s0.2373046875,-0.52734375,0.52734375,-0.52734375s0.52734375,0.2373046875,0.52734375,0.52734375s-0.2373046875,0.52734375,-0.52734375,0.52734375zM8.4375,3.1640625h4.21875c0.177978515625,0,0.3526611328125,0.01318359375,0.5240478515625,0.0263671875c0,-0.0098876953125,0.0032958984375,-0.0164794921875,0.0032958984375,-0.0263671875c0,-1.746826171875,-1.417236328125,-3.1640625,-3.1640625,-3.1640625s-3.1640625,1.417236328125,-3.1640625,3.1640625c0,0.0692138671875,0.0164794921875,0.13513183593749997,0.019775390625,0.204345703125c0.5009765625,-0.1285400390625,1.021728515625,-0.204345703125,1.562255859375,-0.204345703125z" fill="#FFFFFF"/>
    </svg>