<svg version="1.1" xmlns="http://www.w3.org/2000/svg" xlink="http://www.w3.org/1999/xlink" x="0px" y="0px" width="15px" height="18.75px" viewBox="0 0 15 18.75" style="enable-background:new 0 0 15 15;" space="preserve">
    <path d="M9.393310546875,7.939453125L12.568359375,11.9384765625s-0.6079101562500001,3.75,-2.80517578125,5.496826171875C7.569580078125,19.182128906249996,0,18.68408203125,0,18.68408203125s0.13916015625,-0.845947265625,0.40283203125,-2.02880859375l3.46435546875,-4.10888671875c0.146484375,-0.172119140625,-0.032958984375,-0.4248046875,-0.24169921875,-0.347900390625l-2.2119140625,0.809326171875c0.52734375,-1.527099609375,1.1975097656250002,-2.9296875,1.99951171875,-3.570556640625c2.193603515625,-1.75048828125,5.980224609375,-1.497802734375,5.980224609375,-1.497802734375zm8.7158203125,4.94384765625c-1.611328125,0,-2.92236328125,1.31103515625,-2.92236328125,2.926025390625c0,1.614990234375,1.307373046875,2.926025390625,2.92236328125,2.926025390625c1.614990234375,0,2.92236328125,-1.31103515625,2.92236328125,-2.926025390625c0,-1.61865234375,-1.31103515625,-2.926025390625,-2.92236328125,-2.926025390625zM23.309326171875,1.13525390625L22.584228515625,0.2197265625c-0.201416015625,-0.252685546875,-0.567626953125,-0.29296875,-0.8203125,-0.09521484375L13.24951171875,6.639404296875l-1.248779296875,-1.57470703125c-0.186767578125,-0.234375,-0.552978515625,-0.1904296875,-0.68115234375,0.08056640625l-0.926513671875,1.99951171875l3.175048828125,3.9990234375l2.1533203125,-0.4541015625c0.29296875,-0.062255859375,0.41748046875,-0.41015625,0.230712890625,-0.64453125l-1.248779296875,-1.571044921875L23.2177734375,1.959228515625c0.252685546875,-0.201416015625,0.29296875,-0.5712890625,0.091552734375,-0.823974609375z" fill="#FFFFFF"/>
    </svg>