<svg xmlns:dc="http://purl.org/dc/elements/1.1/" xmlns:cc="http://creativecommons.org/ns#" xmlns:rdf="http://www.w3.org/1999/02/22-rdf-syntax-ns#" xmlns:svg="http://www.w3.org/2000/svg" xmlns="http://www.w3.org/2000/svg" xmlns:sodipodi="http://sodipodi.sourceforge.net/DTD/sodipodi-0.dtd" xmlns:inkscape="http://www.inkscape.org/namespaces/inkscape" version="1.1" id="Capa_1" x="0px" y="0px" width="15" height="15" viewBox="0 0 14.999999 15" enable-background="new 0 0 628.254 613.516" space="preserve" inkscape:version="0.91 r13725" sodipodi:docname="Recycling_symbol.svg"><metadata id="metadata17"><rdf:rdf><cc:work rdf:about=""><dc:format>image/svg+xml</dc:format><dc:type rdf:resource="http://purl.org/dc/dcmitype/StillImage"/><dc:title/></cc:work></rdf:rdf></metadata><defs id="defs15"/><sodipodi:namedview pagecolor="#ffffff" bordercolor="#666666" borderopacity="1" objecttolerance="10" gridtolerance="10" guidetolerance="10" inkscape:pageopacity="0" inkscape:pageshadow="2" inkscape:window-width="1920" inkscape:window-height="1051" id="namedview13" showgrid="false" inkscape:zoom="8.7040447" inkscape:cx="35.987962" inkscape:cy="-9.0900787" inkscape:window-x="1920" inkscape:window-y="0" inkscape:window-maximized="1" inkscape:current-layer="Capa_1"/><path d="m 2.6044846,10.904168 c -0.1585494,0.284742 -0.2847427,0.713169 -0.2847427,0.983119 0,0.06268 0,0.142381 0.01553,0.252957 L 0.35370092,8.7323083 C 0.29027026,8.6217337 0.24303125,8.4630929 0.24303125,8.3201658 c 0,-0.1431172 0.0472401,-0.3170978 0.11066967,-0.4278592 L 1.3050097,6.2278268 0.24303125,5.6259656 3.6988454,5.5619928 5.3788492,8.5893812 4.3013444,7.9712608 2.6044909,10.904168 Z M 4.1266044,1.2985565 C 4.4275346,0.77491413 4.9193639,0.48960515 5.5212249,0.48960515 c 0.650381,0 1.1577613,0.30156795 1.5220949,0.91895605 L 7.582394,2.3119905 5.7114646,5.546469 2.6840765,3.7867515 4.1266044,1.2985565 Z m 0.221311,12.3476875 c -0.9034291,0 -1.6483131,-0.744978 -1.6483131,-1.648385 0,-0.253689 0.1113072,-0.682093 0.2698566,-0.951309 l 0.5067186,-0.903429 3.7573821,0 0,3.503148 -2.8856442,0 z M 7.3604391,1.2027734 C 7.1229145,0.7911731 6.8058198,0.50513198 6.4252946,0.34648812 l 3.8991054,0 c 0.348807,0 0.618026,0.14311703 0.777236,0.41287779 L 12.068493,2.407749 13.114378,1.789062 11.433618,4.8014661 7.9946316,4.7530201 9.0566097,4.1511587 7.3604391,1.2027735 Z M 13.36871,10.174904 c 0.475003,0 0.871714,-0.126831 1.204359,-0.3799772 l -1.966047,3.4234342 c -0.158549,0.269218 -0.443291,0.427859 -0.776029,0.427859 l -1.8554026,0 0,1.220527 -1.7751464,-2.963958 1.7751464,-2.9647174 0,1.2368104 3.3931196,0 z m 1.520817,-2.8533838 c 0.143022,0.2536917 0.222614,0.5229071 0.222614,0.8083814 0,0.5707864 -0.364999,1.1731931 -0.871717,1.4579597 -0.23814,0.1275903 -0.571449,0.2070869 -0.903429,0.2070869 l -1.047093,0 -1.869722,-3.2344754 3.027484,-1.7279072 1.441863,2.4889546 z" inkscape:connector-curvature="0" fill="#FFFFFF"/></svg>