<svg version="1.1" xmlns="http://www.w3.org/2000/svg" xlink="http://www.w3.org/1999/xlink" x="0px" y="0px" width="15px" height="18.75px" viewBox="0 0 15 18.75" style="enable-background:new 0 0 15 15;" space="preserve">
    <path d="M0,8.203125v9.9609375c0,0.32373046875,0.26220703125,0.5859375,0.5859375,0.5859375h2.9296875V7.03125H1.171875c-0.6470947265625,0,-1.171875,0.5247802734375,-1.171875,1.171875zm13.18359375,-1.7578125h-0.87890625v-1.46484375c0,-0.161865234375,-0.131103515625,-0.29296875,-0.29296875,-0.29296875h-0.5859375c-0.161865234375,0,-0.29296875,0.131103515625,-0.29296875,0.29296875v2.34375c0,0.161865234375,0.131103515625,0.29296875,0.29296875,0.29296875h1.7578125c0.161865234375,0,0.29296875,-0.131103515625,0.29296875,-0.29296875v-0.5859375c0,-0.161865234375,-0.131103515625,-0.29296875,-0.29296875,-0.29296875zm5.0445556640625,-2.34228515625l-5.859375,-3.9063720703125a1.1726074218750002,1.1726074218750002,0,0,0,-1.300048828125,0l-5.859375,3.9063720703125A1.1719482421875,1.1719482421875,0,0,0,4.6875,5.077880859375V18.75h4.6875V13.4765625c0,-0.32373046875,0.26220703125,-0.5859375,0.5859375,-0.5859375h3.515625c0.32373046875,0,0.5859375,0.26220703125,0.5859375,0.5859375v5.2734375h4.6875V5.078247070312499c0,-0.391845703125,-0.1959228515625,-0.758056640625,-0.5218505859375,-0.9752197265625zM11.71875,9.375c-1.617919921875,0,-2.9296875,-1.311767578125,-2.9296875,-2.9296875s1.311767578125,-2.9296875,2.9296875,-2.9296875s2.9296875,1.311767578125,2.9296875,2.9296875s-1.311767578125,2.9296875,-2.9296875,2.9296875zm10.546875,-2.34375h-2.34375v11.71875h2.9296875c0.32373046875,0,0.5859375,-0.26220703125,0.5859375,-0.5859375V8.203125c0,-0.6470947265625,-0.5247802734375,-1.171875,-1.171875,-1.171875z" fill="#FFFFFF"/>
    </svg>