<svg version="1.1" xmlns="http://www.w3.org/2000/svg" xlink="http://www.w3.org/1999/xlink" x="0px" y="0px" width="15px" height="15px" viewBox="0 0 15 15" style="enable-background:new 0 0 15 15;" space="preserve">
    <path d="m0.15889831,6.0301892v6.2804548c0,0.204115,0.16532375,0.369439,0.36943856,0.369439H2.3755297V5.2913121H0.89777543c-0.40799871,0,-0.73887712,0.3308784,-0.73887712,0.7388771zM8.471266,4.9218735H7.9171084V3.9982771c0,-0.1020574,-0.082662,-0.1847192,-0.1847195,-0.1847192H7.36295c-0.1020572,0,-0.1847188,0.082662,-0.1847188,0.1847192v1.4777542c0,0.1020575,0.082662,0.1847193,0.1847188,0.1847193h1.108316c0.1020573,0,0.1847195,-0.082662,0.1847195,-0.1847193V5.1065928c0,-0.1020574,-0.082662,-0.1847193,-0.1847195,-0.1847193zM11.6519,3.4450428L7.9575151,0.98204225a0.7393389,0.7393389,0,0,0,-0.8196913,0L3.443438,3.4450428A0.73892327,0.73892327,0,0,0,3.1144068,4.0596963V12.680083H6.0699152V9.3551362c0,-0.2041151,0.1653238,-0.3694389,0.3694386,-0.3694389h2.2166317c0.2041145,0,0.3694382,0.1653238,0.3694382,0.3694389V12.680083H11.980932V4.0599272c0,-0.247062,-0.123531,-0.4779612,-0.329032,-0.6148844zM7.5476695,6.7690663c-1.0201123,0,-1.8471928,-0.8270806,-1.8471928,-1.8471928c0,-1.0201122,0.8270805,-1.8471928,1.8471928,-1.8471928c1.0201123,0,1.8471931,0.8270806,1.8471931,1.8471928c0,1.0201122,-0.8270808,1.8471928,-1.8471931,1.8471928zM14.197563,5.2913121h-1.477754v7.3887709h1.847192c0.204116,0,0.369439,-0.165324,0.369439,-0.369439V6.0301892c0,-0.4079987,-0.330878,-0.7388771,-0.738877,-0.7388771z" fill="#FFFFFF"/>
    </svg>