<svg version="1.1" xmlns="http://www.w3.org/2000/svg" xlink="http://www.w3.org/1999/xlink" x="0px" y="0px" width="15px" height="18.75px" viewBox="0 0 15 18.75" style="enable-background:new 0 0 15 15;" space="preserve">
    <path d="M18.18662109375,13.64644775390625l2.5639160156250003,-2.5639160156250003c0.6188598632812501,-0.6188964843749999,0.3640869140625,-1.6761840820312501,-0.47006835937499997,-1.944287109375L18.75,8.6463134765625V3.515625c0,-0.64720458984375,-0.52467041015625,-1.171875,-1.171875,-1.171875h-2.34375V0.87890625c0,-0.48541259765625006,-0.39349365234374994,-0.87890625,-0.87890625,-0.87890625H9.08203125c-0.48541259765625006,0,-0.87890625,0.39349365234374994,-0.87890625,0.87890625v1.46484375h-2.34375c-0.64720458984375,0,-1.171875,0.52467041015625,-1.171875,1.171875v5.130688476562501l-1.53046875,0.49193115234375c-0.8332397460937501,0.26781005859374996,-1.0896240234375,1.3246948242187502,-0.47006835937499997,1.944287109375l2.5639160156250003,2.5639160156250003C4.607958984375,15.244885253906249,3.1342895507812503,16.40625,0.87890625,16.40625c-0.48541259765625006,0,-0.87890625,0.39349365234374994,-0.87890625,0.87890625v0.5859375c0,0.48541259765625006,0.39349365234374994,0.87890625,0.87890625,0.87890625c2.23472900390625,0,3.9367309570312496,-0.7547607421875,5.246264648437501,-2.1751464843750004C6.653210449218749,17.85029296875,7.910925292968749,18.75,9.375,18.75h4.6875c1.4640747070312499,0,2.7217895507812493,-0.8997070312500001,3.2498291015625003,-2.1751464843750004C18.62164306640625,17.99501953125,20.323535156249996,18.75,22.55859375,18.75c0.48541259765625006,0,0.87890625,-0.39349365234374994,0.87890625,-0.87890625v-0.5859375c0,-0.48541259765625006,-0.39349365234374994,-0.87890625,-0.87890625,-0.87890625c-2.22718505859375,0,-3.7185791015625003,-1.1352905273437501,-4.37197265625,-2.75980224609375zM7.03125,4.6875h9.375v3.2054809570312504l-4.328906249999999,-1.39141845703125a1.17169189453125,1.17169189453125,0,0,0,-0.7171875,0L7.03125,7.89298095703125V4.6875z" fill="#FFFFFF"/>
    </svg>