<svg version="1.1" xmlns="http://www.w3.org/2000/svg" xlink="http://www.w3.org/1999/xlink" x="0px" y="0px" width="15px" height="17.142857142857142px" viewBox="0 0 15 17.142857142857142" style="enable-background:new 0 0 15 15;" space="preserve">
    <path d="M14.893392857142857,10.099520089285715a0.8075892857142857,0.8075892857142857,0,0,0,0.08909598214285715,-0.5684598214285714c-0.09123883928571429,-0.43412946428571425,-0.5135825892857143,-0.711328125,-0.9433258928571429,-0.6191517857142858l-2.9265736607142854,0.8385937499999999L8.839285714285714,8.571428571428571l2.2733035714285714,-1.1790736607142858l2.9265736607142854,0.8385937499999999c0.4297433035714286,0.09217633928571428,0.8520870535714286,-0.18502232142857142,0.9433258928571429,-0.6191517857142858c0.09123883928571429,-0.43412946428571425,-0.18318080357142857,-0.8607589285714284,-0.612890625,-0.9529352678571428l-1.5896316964285713,-0.23896205357142855l1.7771316964285713,-1.0364732142857143c0.38045758928571427,-0.2218861607142857,0.5108370535714285,-0.7133705357142858,0.2911607142857143,-1.0977120535714284c-0.21967633928571428,-0.3843415178571428,-0.706171875,-0.5160267857142857,-1.0866294642857142,-0.294140625l-1.7771316964285713,1.0364732142857143l0.5899888392857142,-1.5101785714285714c0.13583705357142858,-0.42207589285714286,-0.09267857142857142,-0.8754241071428571,-0.5105022321428572,-1.0126674107142857c-0.4177901785714285,-0.13724330357142858,-0.8666183035714285,0.09364955357142857,-1.0024553571428572,0.5156919642857143l-0.744375,2.9795758928571425l-2.021651785714286,1.1790736607142858V4.821428571428571l2.1821986607142856,-2.141015625c0.29390625,-0.32986607142857144,0.267421875,-0.8379575892857143,-0.059129464285714285,-1.13484375c-0.3265513392857143,-0.29688616071428575,-0.8295200892857142,-0.27013392857142854,-1.123392857142857,0.05973214285714286l-0.9996763392857142,1.2712165178571428V0.8035714285714286c0,-0.44380580357142857,-0.3561495535714286,-0.8035714285714286,-0.79546875,-0.8035714285714286s-0.79546875,0.359765625,-0.79546875,0.8035714285714286v2.0729464285714285l-0.9996763392857142,-1.2712165178571428c-0.2939397321428571,-0.32986607142857144,-0.7968415178571429,-0.3566517857142857,-1.123392857142857,-0.05973214285714286c-0.3265513392857143,0.29688616071428575,-0.3530022321428571,0.8049776785714285,-0.059129464285714285,1.13484375L6.70453125,4.821428571428571v2.3581808035714285l-2.021651785714286,-1.1790736607142858l-0.744375,-2.9795758928571425c-0.13583705357142858,-0.4220424107142857,-0.5846651785714285,-0.6529352678571428,-1.0024553571428572,-0.5156919642857143c-0.4177901785714285,0.13724330357142858,-0.6463392857142857,0.590625,-0.5105022321428572,1.0126674107142857l0.5899553571428572,1.5101785714285714l-1.7771316964285713,-1.0364732142857143c-0.38045758928571427,-0.2218861607142857,-0.866953125,-0.09020089285714285,-1.0866294642857142,0.294140625s-0.089296875,0.8757924107142857,0.2911607142857143,1.0977120535714284l1.7771316964285713,1.0364732142857143l-1.5896316964285713,0.23896205357142855C0.20065848214285714,6.7511383928571425,-0.0737611607142857,7.177734375,0.017511160714285715,7.611863839285714c0.09123883928571429,0.4340959821428571,0.5135825892857143,0.711328125,0.9433258928571429,0.6191517857142858l2.9265736607142854,-0.8385937499999999L6.160714285714286,8.571428571428571l-2.2733035714285714,1.1790736607142858l-2.926540178571429,-0.8385602678571429c-0.4297433035714286,-0.09217633928571428,-0.8520870535714286,0.18502232142857142,-0.9433258928571429,0.6191517857142858c-0.09123883928571429,0.43416294642857145,0.1831473214285714,0.8607589285714284,0.612890625,0.9529352678571428l1.5896316964285713,0.23896205357142855l-1.7771316964285713,1.0364732142857143C0.06247767857142857,11.981350446428571,-0.06786830357142858,12.472801339285715,0.15177455357142858,12.857142857142858s0.706171875,0.5160267857142857,1.0866294642857142,0.294140625l1.7771316964285713,-1.0364732142857143l-0.5899553571428572,1.5101785714285714a0.808828125,0.808828125,0,0,0,0.06770089285714284,0.6504910714285714c0.09478794642857143,0.16583705357142858,0.24830357142857143,0.29829241071428575,0.44276785714285716,0.36214285714285716c0.4177901785714285,0.13724330357142858,0.8666183035714285,-0.09364955357142857,1.0024553571428572,-0.5156919642857143l0.744375,-2.9795758928571425l2.021651785714286,-1.1790736607142858V12.321428571428571l-2.1821986607142856,2.141015625c-0.29390625,0.32986607142857144,-0.267421875,0.8379575892857143,0.059129464285714285,1.13484375c0.3265848214285714,0.29691964285714284,0.8294866071428572,0.27013392857142854,1.123392857142857,-0.05973214285714286l0.9996763392857142,-1.2712165178571428V16.339285714285715c0,0.44380580357142857,0.3561495535714286,0.8035714285714286,0.79546875,0.8035714285714286s0.79546875,-0.359765625,0.79546875,-0.8035714285714286v-2.0729464285714285l0.9996763392857142,1.2712165178571428A0.78984375,0.78984375,0,0,0,9.886674107142856,15.803571428571429a0.78796875,0.78796875,0,0,0,0.5318638392857142,-0.20628348214285713c0.3265513392857143,-0.29688616071428575,0.3530357142857143,-0.8049776785714285,0.059129464285714285,-1.13484375L8.29546875,12.321428571428571v-2.3581808035714285l2.021651785714286,1.1790736607142858l0.744375,2.9795758928571425c0.13583705357142858,0.4220424107142857,0.5846651785714285,0.6529352678571428,1.0024553571428572,0.5156919642857143c0.41782366071428567,-0.13724330357142858,0.6463392857142857,-0.590625,0.5105022321428572,-1.0126674107142857l-0.5899888392857142,-1.5101785714285714l1.7771316964285713,1.0364732142857143c0.38045758928571427,0.2218861607142857,0.866953125,0.09020089285714285,1.0866294642857142,-0.294140625s0.089296875,-0.8757924107142857,-0.2911607142857143,-1.0977120535714284l-1.7771316964285713,-1.0364732142857143l1.5896316964285713,-0.23896205357142855c0.22968750000000002,-0.04918526785714286,0.4149776785714286,-0.19396205357142857,0.523828125,-0.3844084821428571z" fill="#FFFFFF"/>
    </svg>