<svg version="1.1" xmlns="http://www.w3.org/2000/svg" xlink="http://www.w3.org/1999/xlink" x="0px" y="0px" width="15px" height="20px" viewBox="0 0 15 20" style="enable-background:new 0 0 15 15;" space="preserve">
    <path d="M13.125,6.25H1.875c-1.035546875,0,-1.875,0.8394531249999999,-1.875,1.875v8.75c0,1.035546875,0.8394531249999999,1.875,1.875,1.875h0.625v0.625c0,0.3453125,0.2796875,0.625,0.625,0.625h1.25c0.3453125,0,0.625,-0.2796875,0.625,-0.625v-0.625h5v0.625c0,0.3453125,0.2796875,0.625,0.625,0.625h1.25c0.3453125,0,0.625,-0.2796875,0.625,-0.625v-0.625h0.625c1.035546875,0,1.875,-0.8394531249999999,1.875,-1.875V8.125c0,-1.035546875,-0.8394531249999999,-1.875,-1.875,-1.875zm-0.625,8.4375c0,0.17265625,-0.13984375,0.3125,-0.3125,0.3125H2.8125c-0.17265625,0,-0.3125,-0.13984375,-0.3125,-0.3125v-0.625c0,-0.17265625,0.13984375,-0.3125,0.3125,-0.3125h9.375c0.17265625,0,0.3125,0.13984375,0.3125,0.3125v0.625zm0,-3.75c0,0.17265625,-0.13984375,0.3125,-0.3125,0.3125H2.8125c-0.17265625,0,-0.3125,-0.13984375,-0.3125,-0.3125v-0.625c0,-0.17265625,0.13984375,-0.3125,0.3125,-0.3125h9.375c0.17265625,0,0.3125,0.13984375,0.3125,0.3125v0.625zM5.625,1.875h3.75v3.125h1.875V1.875c0,-1.035546875,-0.8394531249999999,-1.875,-1.875,-1.875h-3.75c-1.035546875,0,-1.875,0.8394531249999999,-1.875,1.875v3.125h1.875V1.875z" fill="#FFFFFF"/>
    </svg>