<svg version="1.1" xmlns="http://www.w3.org/2000/svg" xlink="http://www.w3.org/1999/xlink" x="0px" y="0px" width="15px" height="18.75px" viewBox="0 0 15 18.75" style="enable-background:new 0 0 15 15;" space="preserve">
    <path d="M7.575439453125,8.9776611328125c-1.31396484375,0.3826904296875,-2.1954345703125,1.5087890625,-2.1068115234375,2.713623046875c0.41748046875,-0.4658203125,1.0550537109375,-0.867919921875,1.827392578125,-1.13232421875l0.2794189453125,-1.581298828125zM3.5086669921875,10.80322265625L2.3466796875,4.2293701171875c-0.0106201171875,-0.059326171875,0.01025390625,-0.09594726562500001,0.0087890625,-0.0970458984375c2.115234375,-1.174072265625,4.5087890625,-1.7947998046875,6.921752929687499,-1.7947998046875c0.05895996093750001,0,0.1182861328125,0.006225585937500001,0.1776123046875,0.0069580078125c0.5108642578125,-0.4932861328125,1.1619873046875,-0.8360595703125,1.8892822265625,-0.9521484375c0.6917724609375,-0.110595703125,1.3934326171875,-0.1666259765625,2.093994140625,-0.19482421875000003c-0.3658447265625,-0.5108642578125,-0.896484375,-0.8873291015625,-1.5296630859375002,-0.98876953125C11.032836914062498,0.0692138671875,10.15283203125,0,9.27685546875,0C6.469482421875,0,3.699462890625,0.711181640625,1.2158203125000002,2.089599609375C0.3306884765625,2.5810546875,-0.1435546875,3.6064453125,0.0384521484375,4.635498046875l1.1619873046875,6.573852539062499c0.5211181640625,2.94873046875,4.992553710937501,5.203125000000001,7.4871826171875,5.203125000000001c0.1314697265625,0,0.2471923828125,-0.016845703125,0.3665771484375,-0.029296875c-0.49511718749999994,-0.62548828125,-1.059814453125,-1.4824218749999998,-1.446533203125,-2.474853515625c-1.7435302734375,-0.47534179687500006,-3.884033203125,-1.890380859375,-4.0989990234375,-3.1051025390625004zm3.5723876953125,-5.033935546875c-0.0267333984375,-0.15087890625,-0.0816650390625,-0.2882080078125,-0.1490478515625,-0.41748046875c-0.3021240234375,0.3262939453125,-0.7569580078125,0.5767822265625,-1.29345703125,0.6708984375c-0.5364990234375,0.094482421875,-1.0499267578125,0.0146484375,-1.4458007812499998,-0.1893310546875c-0.01904296875,0.144287109375,-0.0234375,0.292236328125,0.0032958984374999996,0.443115234375c0.140625,0.794677734375,0.900146484375,1.3253173828124998,1.697021484375,1.1854248046875c0.7965087890625,-0.139892578125,1.32861328125,-0.89794921875,1.18798828125,-1.692626953125zM22.2216796875,4.427490234375c-3.258544921875,-1.808349609375,-7.010375976562501,-2.4686279296875,-10.692626953125002,-1.8804931640625c-1.0001220703125,0.15966796875,-1.7973632812499998,0.9616699218750001,-1.97900390625,1.99072265625l-1.1619873046875,6.573852539062499c-0.5635986328125,3.1878662109375,3.4892578125,7.1876220703125,5.7974853515625,7.5933837890625c2.3082275390625,0.4061279296875,7.4879150390625,-1.9698486328125,8.051513671875,-5.15771484375l1.1619873046875,-6.573852539062499c0.1820068359375,-1.0294189453125,-0.292236328125,-2.0548095703125,-1.1773681640625,-2.5458984375zm-10.00634765625,3.544921875c0.140625,-0.794677734375,0.900146484375,-1.3253173828124998,1.697021484375,-1.18505859375c0.7968750000000001,0.1402587890625,1.32861328125,0.89794921875,1.1883544921875002,1.692626953125c-0.0267333984375,0.15087890625,-0.0816650390625,0.2882080078125,-0.1490478515625,0.41748046875c-0.3021240234375,-0.3262939453125,-0.7569580078125,-0.5767822265625,-1.29345703125,-0.6708984375c-0.5364990234375,-0.094482421875,-1.0499267578125,-0.0146484375,-1.4458007812499998,0.1893310546875c-0.0194091796875,-0.1446533203125,-0.0238037109375,-0.2926025390625,0.0029296875,-0.44348144531249994zm2.5806884765625,7.278808593749999c-2.0390625,-0.3585205078125,-3.4248046875,-2.1705322265625,-3.2607421875000004,-4.134521484375c0.75439453125,0.9353027343749999,2.0584716796875,1.6907958984375002,3.6434326171875,1.969482421875c1.5849609375,0.2786865234375,3.069580078125,0.0135498046875,4.0989990234375,-0.6079101562500001c-0.519287109375,1.9020996093749998,-2.4429931640624996,3.1314697265625,-4.481689453125,2.77294921875zm4.771728515625001,-5.542236328125c-0.3021240234375,-0.3262939453125,-0.75732421875,-0.5767822265625,-1.2938232421874998,-0.6708984375c-0.5364990234375,-0.094482421875,-1.0499267578125,-0.0146484375,-1.4458007812499998,0.1893310546875c-0.01904296875,-0.144287109375,-0.0234375,-0.292236328125,0.0032958984374999996,-0.443115234375c0.140625,-0.794677734375,0.900146484375,-1.3253173828124998,1.697021484375,-1.1854248046875c0.7965087890625,0.1402587890625,1.32861328125,0.89794921875,1.1883544921875002,1.692626953125c-0.0267333984375,0.1512451171875,-0.0816650390625,0.28857421875,-0.1490478515625,0.41748046875z" fill="#FFFFFF"/>
    </svg>