<svg version="1.1" xmlns="http://www.w3.org/2000/svg" xlink="http://www.w3.org/1999/xlink" x="0px" y="0px" width="15px" height="21.81818181818182px" viewBox="0 0 15 21.81818181818182" style="enable-background:new 0 0 15 15;" space="preserve">
    <path d="M8.745170454545454,0.9413352272727272c-0.3383522727272727,-1.2264204545454545,-2.1068181818181815,-1.2835227272727272,-2.490340909090909,0C4.261789772727273,7.664062499999999,0,9.49090909090909,0,14.229119318181818C0,18.42400568181818,3.354545454545454,21.818181818181817,7.499999999999999,21.818181818181817s7.499999999999999,-3.3941761363636362,7.499999999999999,-7.5890625c0,-4.762073863636363,-4.252414772727272,-6.534375,-6.254829545454545,-13.28778409090909zM7.499999999999999,19.09090909090909c-2.6313920454545454,0,-4.7727272727272725,-2.141335227272727,-4.7727272727272725,-4.7727272727272725c0,-0.3767045454545454,0.30511363636363636,-0.6818181818181818,0.6818181818181818,-0.6818181818181818s0.6818181818181818,0.30511363636363636,0.6818181818181818,0.6818181818181818c0,1.8796874999999997,1.529403409090909,3.4090909090909087,3.4090909090909087,3.4090909090909087c0.3767045454545454,0,0.6818181818181818,0.30511363636363636,0.6818181818181818,0.6818181818181818s-0.30511363636363636,0.6818181818181818,-0.6818181818181818,0.6818181818181818z" fill="#FFFFFF"/>
    </svg>