<svg version="1.1" xmlns="http://www.w3.org/2000/svg" xlink="http://www.w3.org/1999/xlink" x="0px" y="0px" width="15px" height="17.142857142857142px" viewBox="0 0 15 17.142857142857142" style="enable-background:new 0 0 15 15;" space="preserve">
    <path d="M14.865401785714285,3.22265625c-0.36863839285714284,-1.5140624999999999,-1.57734375,-2.747544642857143,-3.0806919642857142,-3.1379464285714285c-1.0777901785714286,-0.27991071428571423,-2.109375,0.17075892857142855,-2.984598214285714,0.8146205357142856c-0.10881696428571429,0.08002232142857144,-0.2330357142857143,0.12488839285714286,-0.3515625,0.18348214285714287l0.9482142857142857,0.6097098214285714c0.24843749999999998,0.1597098214285714,0.32075892857142857,0.4911830357142857,0.1607142857142857,0.7402901785714285c-0.14933035714285714,0.23270089285714285,-0.4777901785714285,0.33013392857142854,-0.7402901785714285,0.1607142857142857L5.4518973214285715,0.42991071428571426c-0.6930803571428571,-0.36328125,-1.4524553571428571,-0.5491071428571428,-2.2369419642857142,-0.34520089285714284c-1.5033482142857142,0.39073660714285713,-2.712053571428571,1.6238839285714286,-3.0806919642857142,3.1379464285714285c-0.3391741071428572,1.3935267857142857,-0.014062499999999999,2.7056919642857142,0.7198660714285714,3.697433035714286c0.7821428571428571,1.05703125,1.0941964285714285,2.298883928571428,1.2150669642857141,3.5943080357142856c0.14732142857142858,1.579017857142857,0.3458705357142857,3.1526785714285714,0.7011160714285715,4.698214285714285l0.26116071428571425,1.13671875c0.10680803571428571,0.4643973214285714,0.5186383928571429,0.7935267857142857,0.9934151785714286,0.7935267857142857c0.46774553571428573,0,0.8755580357142856,-0.3197544642857143,0.9890625,-0.7754464285714285l1.1541294642857143,-4.634598214285714c0.1526785714285714,-0.6133928571428572,0.7017857142857143,-1.0433035714285714,1.3312499999999998,-1.0433035714285714s1.1785714285714286,0.4302455357142857,1.3312499999999998,1.0433035714285714l1.1541294642857143,4.634598214285714c0.11350446428571428,0.45569196428571423,0.5213169642857143,0.7754464285714285,0.9890625,0.7754464285714285c0.47477678571428567,0,0.8866071428571428,-0.32912946428571427,0.9934151785714286,-0.7935267857142857l0.26116071428571425,-1.13671875c0.3552455357142857,-1.5452008928571428,0.5534598214285714,-3.119196428571428,0.7011160714285715,-4.698214285714285c0.1208705357142857,-1.2957589285714286,0.4329241071428571,-2.5372767857142855,1.2150669642857141,-3.5943080357142856c0.7349330357142857,-0.9914062499999999,1.0600446428571428,-2.3035714285714284,0.7208705357142857,-3.697433035714286z" fill="#FFFFFF"/>
    </svg>