<svg version="1.1" xmlns="http://www.w3.org/2000/svg" xlink="http://www.w3.org/1999/xlink" x="0px" y="0px" width="15px" height="18.75px" viewBox="0 0 15 18.75" style="enable-background:new 0 0 15 15;" space="preserve">
    <path d="M4.225341796875,5.013427734375l3.7393798828125,1.361572265625c1.2886962890624998,-2.9860839843750004,3.1571044921874996,-5.2840576171875,5.09033203125,-6.361083984375c-3.5112304687499996,-0.1790771484375,-6.913330078125,1.353515625,-9.1014404296875,4.09423828125c-0.24499511718750003,0.3076171875,-0.09741210937500001,0.7708740234375,0.271728515625,0.9052734374999999zm4.8431396484375,1.763671875l8.7333984375,3.1798095703125c1.3095703125,-4.445068359375,0.684814453125,-8.483642578125,-1.5611572265625,-9.301025390625c-0.27099609375,-0.098876953125,-0.5540771484375,-0.146484375,-0.8455810546875,-0.146484375c-2.124755859375,0.0003662109375,-4.6973876953125,2.5330810546875,-6.326660156249999,6.2677001953125zM19.09716796875,2.215576171875c0.227783203125,0.596923828125,0.3966064453125,1.26708984375,0.4833984375,2.0211181640625c0.21020507812500003,1.8270263671875,-0.05200195312499999,3.9635009765625,-0.6939697265625,6.114990234375l3.7580566406250004,1.3681640625c0.3695068359375,0.1343994140625,0.7803955078125,-0.1256103515625,0.7899169921875,-0.5189208984375c0.0849609375,-3.5042724609375,-1.5347900390625,-6.8642578125,-4.33740234375,-8.9853515625zM20.5078125,16.405517578125H11.757568359375L14.1357421875,9.869384765625l-2.202392578125,-0.802001953125l-2.669677734375,7.3377685546875H0.5859375c-0.32373046875,0,-0.5859375,0.26220703125,-0.5859375,0.5863037109375001v1.1722412109375C0,18.4874267578125,0.26220703125,18.75,0.5859375,18.75h19.921875c0.32373046875,0,0.5859375,-0.2625732421875,0.5859375,-0.5863037109375001v-1.1722412109375c0,-0.32373046875,-0.26220703125,-0.5859375,-0.5859375,-0.5859375z" fill="#FFFFFF"/>
    </svg>