<svg version="1.1" xmlns="http://www.w3.org/2000/svg" xlink="http://www.w3.org/1999/xlink" x="0px" y="0px" width="15px" height="16.875px" viewBox="0 0 15 16.875" style="enable-background:new 0 0 15 15;" space="preserve">
    <path d="M18.35851684570312,8.820845947265624c-1.695146484375,-1.490306396484375,-3.5454638671875,-1.4402416992187501,-5.2262072753906255,1.012862548828125c-0.17461669921875,0.259090576171875,-0.49128662109375,0.236151123046875,-0.650478515625,0c-0.08183715820312501,-0.119443359375,-1.06187255859375,-2.004169921875,-2.9896435546874995,-2.004169921875c-1.50840087890625,0,-2.3249926757812505,1.03418701171875,-2.989676513671875,2.004169921875c-0.159158935546875,0.236151123046875,-0.4757958984375,0.259090576171875,-0.6504125976562501,0c-1.6777441406250002,-2.4483581542968746,-3.513856201171875,-2.5182641601562503,-5.2262072753906255,-1.012862548828125c-0.33651123046875003,0.27237304687499997,-0.68923828125,-0.036551513671874994,-0.616201171875,-0.312484130859375C1.05949951171875,4.435389404296875,5.224526367187499,2.1295458984374998,9.492220458984374,2.1295458984374998c4.244886474609375,0,8.45549560546875,2.305843505859375,9.48249755859375,6.37881591796875c0.07270751953124999,0.27428466796874995,-0.27771240234375,0.586439208984375,-0.616201171875,0.312484130859375zM8.4375,8.602327880859374V13.7109375c0,0.5815612792968751,-0.47312622070312504,1.0546875,-1.0546875,1.0546875s-1.0546875,-0.47312622070312504,-1.0546875,-1.0546875c0,-0.5824841308593749,-0.472203369140625,-1.0546875,-1.0546875,-1.0546875s-1.0546875,0.472203369140625,-1.0546875,1.0546875c0,1.744683837890625,1.419378662109375,3.1640625,3.1640625,3.1640625s3.1640625,-1.419378662109375,3.1640625,-3.1640625V8.611787109375001c-0.7196923828124999,-0.35615478515624993,-1.497161865234375,-0.32092163085937503,-2.109375,-0.009459228515625zm2.109375,-6.954576416015625V1.0546875c0,-0.5824841308593749,-0.472203369140625,-1.0546875,-1.0546875,-1.0546875s-1.0546875,0.472203369140625,-1.0546875,1.0546875v0.5928332519531249a12.264202880859376,12.264202880859376,0,0,1,2.109375,0.000230712890625z" fill="#FFFFFF"/>
    </svg>