<svg version="1.1" xmlns="http://www.w3.org/2000/svg" xlink="http://www.w3.org/1999/xlink" x="0px" y="0px" width="15px" height="18.75px" viewBox="0 0 15 18.75" style="enable-background:new 0 0 15 15;" space="preserve">
    <path d="M23.2510986328125,5.671875C16.762939453125,-0.3292236328125,6.6719970703125,-0.3270263671875,0.1864013671875,5.671875c-0.243896484375,0.2255859375,-0.2486572265625,0.6075439453125,-0.0128173828125,0.841552734375l1.25390625,1.2440185546875c0.224853515625,0.223388671875,0.586669921875,0.2281494140625,0.8203125,0.013916015625c5.343749999999999,-4.8955078125,13.597412109375,-4.8966064453125,18.9422607421875,0c0.233642578125,0.2142333984375,0.5954589843750001,0.2091064453125,0.8203125,-0.013916015625l1.25390625,-1.2440185546875c0.23547363281249997,-0.2340087890625,0.230712890625,-0.615966796875,-0.013183593749999998,-0.841552734375zM11.71875,12.890625c-1.2945556640625,0,-2.34375,1.0491943359375,-2.34375,2.34375s1.0491943359375,2.34375,2.34375,2.34375s2.34375,-1.0491943359375,2.34375,-2.34375s-1.0491943359375,-2.34375,-2.34375,-2.34375zm7.421997070312499,-3.0611572265625004c-4.220947265625,-3.7327880859375,-10.6278076171875,-3.728759765625,-14.843994140624998,0c-0.252685546875,0.223388671875,-0.2607421875,0.6112060546875,-0.020874023437499997,0.8477783203125l1.2612304687499998,1.2447509765625c0.2197265625,0.216796875,0.573486328125,0.23144531250000003,0.8074951171875,0.029296875c3.0743408203125,-2.6575927734375,7.680908203125001,-2.6517333984374996,10.7479248046875,0c0.2340087890625,0.2021484375,0.5877685546875,0.1878662109375,0.8074951171875,-0.029296875l1.2612304687499998,-1.2447509765625c0.24023437499999997,-0.236572265625,0.2318115234375,-0.624755859375,-0.0205078125,-0.8477783203125z" fill="#FFFFFF"/>
    </svg>