<?xml version="1.0" encoding="utf-8"?> <!DOCTYPE svg PUBLIC "-//W3C//DTD SVG 1.1//EN" "http://www.w3.org/Graphics/SVG/1.1/DTD/svg11.dtd"><svg version="1.1" id="marker-circle-blue" xmlns="http://www.w3.org/2000/svg" xmlns:xlink="http://www.w3.org/1999/xlink" x="0px"  y="0px" width="24px" height="36px" viewBox="0 0 24 36" enable-background="new 0 0 24 36" xml:space="preserve"><path fill="#A23337" d="M12,0C5.371,0,0,5.903,0,13.187c0,0.829,0.079,1.643,0.212,2.424c0.302,1.785,0.924,3.448,1.81,4.901
	l0.107,0.163L11.965,36l9.952-15.393l0.045-0.064c0.949-1.555,1.595-3.343,1.875-5.269C23.934,14.589,24,13.899,24,13.187
	C24,5.905,18.629,0,12,0z"></path><path fill="#ffffff" transform="translate(4.5 4.5)" d="M 13.34375 9.234375 C 13.164062 9.679688 12.953125 10.0625 12.707031 10.386719 C 12.460938 10.710938 12.207031 10.957031 11.945312 11.128906 C 11.683594 11.296875 11.40625 11.429688 11.117188 11.519531 C 10.824219 11.605469 10.542969 11.648438 10.265625 11.640625 C 9.992188 11.632812 9.722656 11.605469 9.457031 11.566406 C 9.195312 11.527344 8.953125 11.46875 8.734375 11.382812 C 8.515625 11.300781 8.320312 11.222656 8.152344 11.152344 C 7.984375 11.082031 7.855469 11.019531 7.769531 10.964844 L 7.625 10.882812 C 6.996094 12.152344 6.1875 13.15625 5.203125 13.890625 C 4.21875 14.625 3.144531 14.996094 1.984375 15 C 1.878906 15 1.789062 14.964844 1.714844 14.890625 C 1.644531 14.820312 1.605469 14.730469 1.605469 14.625 C 1.605469 14.515625 1.644531 14.429688 1.714844 14.359375 C 1.789062 14.289062 1.878906 14.253906 1.984375 14.253906 C 2.949219 14.25 3.847656 13.949219 4.683594 13.355469 C 5.515625 12.761719 6.21875 11.9375 6.789062 10.890625 C 6.585938 10.96875 6.386719 11.03125 6.1875 11.082031 C 5.984375 11.132812 5.753906 11.167969 5.492188 11.191406 C 5.230469 11.214844 4.976562 11.207031 4.730469 11.171875 C 4.484375 11.132812 4.222656 11.054688 3.949219 10.933594 C 3.675781 10.808594 3.421875 10.644531 3.179688 10.4375 C 2.941406 10.230469 2.703125 9.953125 2.472656 9.601562 C 2.242188 9.25 2.035156 8.84375 1.851562 8.378906 C 2.484375 8.117188 3.082031 7.957031 3.640625 7.902344 C 4.199219 7.847656 4.667969 7.867188 5.042969 7.964844 C 5.421875 8.0625 5.765625 8.21875 6.085938 8.4375 C 6.402344 8.65625 6.648438 8.871094 6.828125 9.082031 C 7 9.292969 7.160156 9.523438 7.300781 9.769531 C 7.59375 9.039062 7.816406 8.226562 7.960938 7.332031 C 7.921875 7.339844 7.871094 7.34375 7.808594 7.351562 C 7.75 7.363281 7.617188 7.367188 7.421875 7.375 C 7.222656 7.378906 7.027344 7.378906 6.839844 7.371094 C 6.648438 7.363281 6.421875 7.332031 6.15625 7.285156 C 5.890625 7.238281 5.644531 7.175781 5.414062 7.09375 C 5.1875 7.011719 4.953125 6.894531 4.710938 6.738281 C 4.472656 6.582031 4.261719 6.402344 4.085938 6.195312 C 3.90625 5.988281 3.753906 5.722656 3.628906 5.402344 C 3.503906 5.082031 3.421875 4.726562 3.390625 4.335938 C 3.78125 4.179688 4.152344 4.078125 4.507812 4.03125 C 4.863281 3.984375 5.175781 3.984375 5.449219 4.039062 C 5.722656 4.09375 5.980469 4.175781 6.21875 4.289062 C 6.460938 4.402344 6.664062 4.542969 6.835938 4.707031 C 7.003906 4.871094 7.160156 5.042969 7.304688 5.21875 C 7.445312 5.394531 7.5625 5.570312 7.65625 5.746094 C 7.746094 5.921875 7.824219 6.078125 7.886719 6.214844 C 7.945312 6.351562 7.992188 6.460938 8.019531 6.546875 L 8.050781 6.679688 C 8.121094 6 8.152344 5.453125 8.152344 5.046875 C 8.109375 5.015625 8.046875 4.96875 7.972656 4.914062 C 7.898438 4.859375 7.761719 4.734375 7.5625 4.539062 C 7.363281 4.347656 7.1875 4.148438 7.03125 3.941406 C 6.875 3.734375 6.722656 3.476562 6.578125 3.164062 C 6.433594 2.851562 6.34375 2.539062 6.304688 2.222656 C 6.265625 1.90625 6.296875 1.554688 6.402344 1.160156 C 6.507812 0.765625 6.703125 0.378906 6.988281 0 C 7.398438 0.140625 7.753906 0.3125 8.054688 0.515625 C 8.359375 0.71875 8.597656 0.933594 8.765625 1.15625 C 8.929688 1.378906 9.066406 1.617188 9.164062 1.867188 C 9.265625 2.117188 9.324219 2.367188 9.335938 2.613281 C 9.351562 2.855469 9.351562 3.09375 9.332031 3.328125 C 9.316406 3.558594 9.28125 3.773438 9.222656 3.96875 C 9.167969 4.164062 9.117188 4.335938 9.066406 4.488281 C 9.015625 4.636719 8.96875 4.753906 8.921875 4.839844 L 8.863281 4.964844 C 8.871094 4.992188 8.871094 5.132812 8.871094 5.386719 C 8.871094 5.640625 8.871094 5.839844 8.863281 5.984375 C 8.882812 5.945312 8.910156 5.894531 8.949219 5.828125 C 8.988281 5.765625 9.070312 5.644531 9.203125 5.46875 C 9.335938 5.292969 9.476562 5.132812 9.625 4.984375 C 9.777344 4.835938 9.976562 4.683594 10.21875 4.519531 C 10.464844 4.359375 10.722656 4.234375 10.984375 4.148438 C 11.25 4.0625 11.5625 4.019531 11.921875 4.027344 C 12.285156 4.03125 12.652344 4.097656 13.03125 4.226562 C 13.023438 4.664062 12.960938 5.058594 12.851562 5.410156 C 12.742188 5.765625 12.605469 6.058594 12.433594 6.285156 C 12.265625 6.515625 12.070312 6.714844 11.851562 6.882812 C 11.636719 7.054688 11.40625 7.183594 11.171875 7.265625 C 10.933594 7.347656 10.699219 7.417969 10.464844 7.464844 C 10.230469 7.515625 10.003906 7.542969 9.792969 7.546875 C 9.582031 7.546875 9.394531 7.546875 9.226562 7.539062 C 9.0625 7.53125 8.933594 7.515625 8.839844 7.5 L 8.695312 7.476562 C 8.570312 8.296875 8.363281 9.085938 8.085938 9.84375 C 8.121094 9.804688 8.167969 9.753906 8.238281 9.6875 C 8.304688 9.625 8.441406 9.511719 8.652344 9.34375 C 8.859375 9.179688 9.078125 9.035156 9.300781 8.90625 C 9.523438 8.777344 9.800781 8.660156 10.132812 8.554688 C 10.464844 8.449219 10.792969 8.394531 11.117188 8.386719 C 11.441406 8.382812 11.800781 8.445312 12.195312 8.585938 C 12.59375 8.71875 12.972656 8.9375 13.34375 9.234375 Z M 13.34375 9.234375 "></path> </svg>