<?xml version="1.0" encoding="utf-8"?> <!DOCTYPE svg PUBLIC "-//W3C//DTD SVG 1.1//EN" "http://www.w3.org/Graphics/SVG/1.1/DTD/svg11.dtd"><svg version="1.1" id="marker-circle-blue" xmlns="http://www.w3.org/2000/svg" xmlns:xlink="http://www.w3.org/1999/xlink" x="0px"  y="0px" width="24px" height="36px" viewBox="0 0 24 36" enable-background="new 0 0 24 36" xml:space="preserve"><path fill="#A23337" d="M12,0C5.371,0,0,5.903,0,13.187c0,0.829,0.079,1.643,0.212,2.424c0.302,1.785,0.924,3.448,1.81,4.901
	l0.107,0.163L11.965,36l9.952-15.393l0.045-0.064c0.949-1.555,1.595-3.343,1.875-5.269C23.934,14.589,24,13.899,24,13.187
	C24,5.905,18.629,0,12,0z"></path><path fill="#ffffff" transform="translate(4.5 4.5)" d="M5.4161622,2.7823087L0.12711864,5.9557391c0,2.1156174,0.26445218,5.2890439,1.32226086,5.2890439h3.9667827c1.0578087,0,1.3222609,-3.7023309,1.3222609,-3.7023309c0.5469082,-0.2644521,1.0398048,-0.2644521,1.5867131,0c0,0,0.2644521,3.7023309,1.3222609,3.7023309h3.9667819c1.057809,0,1.322261,-3.1734265,1.322261,-5.2890439L9.6473971,2.7823087c-0.5062567,-0.2922873,-0.923192,0.7892554,0,1.3222651L12.820823,5.9557391H2.242736L5.4161622,4.1045738c0.9758285,-0.5634005,0.3860684,-1.5451602,0,-1.3222651zM1.4493795,7.278H5.4161622L4.8872578,9.9225218H1.9782839Zm8.1980176,0h3.9667819l-0.528904,2.6445218h-2.908974z"></path> </svg>