<?xml version="1.0" encoding="utf-8"?> <!DOCTYPE svg PUBLIC "-//W3C//DTD SVG 1.1//EN" "http://www.w3.org/Graphics/SVG/1.1/DTD/svg11.dtd"><svg version="1.1" id="marker-circle-blue" xmlns="http://www.w3.org/2000/svg" xmlns:xlink="http://www.w3.org/1999/xlink" x="0px"  y="0px" width="24px" height="36px" viewBox="0 0 24 36" enable-background="new 0 0 24 36" xml:space="preserve"><path fill="#9D7178" d="M12,0C5.371,0,0,5.903,0,13.187c0,0.829,0.079,1.643,0.212,2.424c0.302,1.785,0.924,3.448,1.81,4.901
	l0.107,0.163L11.965,36l9.952-15.393l0.045-0.064c0.949-1.555,1.595-3.343,1.875-5.269C23.934,14.589,24,13.899,24,13.187
	C24,5.905,18.629,0,12,0z"></path><path fill="#ffffff" transform="translate(4.5 4.5)" d="M11.976562,8.425781C12.117188,8.496094,12.285156,8.492188,12.351562,8.421875C12.421875,8.351562,12.363281,8.242188,12.222656,8.175781L9.769531,7.042969C9.628906,6.976562,9.390625,6.960938,9.242188,7.003906L8.367188,7.265625C8.214844,7.3125,8.023438,7.347656,7.933594,7.347656C7.84375,7.347656,7.773438,7.222656,7.773438,7.070312L7.773438,4.394531C7.773438,4.242188,7.898438,4.117188,8.054688,4.117188L14.417969,4.117188C14.574219,4.117188,14.699219,3.996094,14.699219,3.84375L14.699219,2.945312C14.699219,2.792969,14.578125,2.632812,14.429688,2.585938L7.730469,0.632812C7.582031,0.589844,7.335938,0.589844,7.1875,0.632812L0.570312,2.585938C0.421875,2.628906,0.300781,2.792969,0.300781,2.945312L0.300781,3.84375C0.300781,3.996094,0.425781,4.117188,0.582031,4.117188L6.859375,4.117188C7.015625,4.117188,7.144531,4.242188,7.144531,4.394531L7.144531,7.074219C7.144531,7.226562,7.015625,7.351562,6.859375,7.351562L6.746094,7.351562C6.589844,7.351562,6.375,7.261719,6.261719,7.15625L4.75,5.710938C4.636719,5.605469,4.417969,5.519531,4.261719,5.519531L3.5625,5.519531C3.410156,5.519531,3.222656,5.425781,3.148438,5.316406C3.078125,5.203125,2.90625,5.113281,2.773438,5.113281C2.640625,5.113281,2.597656,5.21875,2.683594,5.347656L2.695312,5.367188C2.78125,5.496094,2.78125,5.707031,2.699219,5.832031L1.941406,7.011719C1.859375,7.140625,1.882812,7.328125,2,7.429688L2.054688,7.480469C2.167969,7.582031,2.375,7.609375,2.511719,7.539062L3.324219,7.113281C3.460938,7.042969,3.640625,7.089844,3.726562,7.21875L4.617188,8.582031C4.699219,8.710938,4.671875,8.894531,4.554688,8.992188L4.148438,9.332031C4.027344,9.433594,3.960938,9.632812,3.992188,9.78125L4.519531,12.078125C4.554688,12.226562,4.707031,12.320312,4.855469,12.28125L5.222656,12.191406C5.375,12.152344,5.46875,12,5.4375,11.851562L5.078125,10.300781C5.046875,10.152344,5.140625,9.996094,5.289062,9.957031L6.191406,9.714844C6.339844,9.671875,6.589844,9.640625,6.746094,9.640625L6.859375,9.640625C7.015625,9.640625,7.144531,9.765625,7.144531,9.917969L7.144531,12.671875C7.144531,12.824219,7.015625,12.945312,6.859375,12.945312L0.582031,12.945312C0.425781,12.945312,0.300781,13.070312,0.300781,13.222656L0.300781,14.121094C0.300781,14.277344,0.425781,14.398438,0.582031,14.398438L14.300781,14.398438C14.457031,14.398438,14.582031,14.277344,14.582031,14.121094L14.582031,13.226562C14.582031,13.070312,14.457031,12.949219,14.300781,12.949219L8.054688,12.949219C7.898438,12.949219,7.773438,12.824219,7.773438,12.671875L7.773438,9.917969C7.773438,9.765625,7.898438,9.640625,8.054688,9.640625L8.378906,9.640625C8.535156,9.640625,8.785156,9.675781,8.933594,9.714844L9.835938,9.957031C9.988281,9.996094,10.082031,10.152344,10.046875,10.300781L9.691406,11.851562C9.65625,12,9.75,12.152344,9.902344,12.191406L10.269531,12.28125C10.421875,12.320312,10.570312,12.226562,10.605469,12.078125L11.132812,9.785156C11.167969,9.632812,11.101562,9.4375,10.988281,9.339844C10.871094,9.242188,10.773438,9.039062,10.761719,8.886719L10.71875,8.078125C10.707031,7.925781,10.816406,7.855469,10.953125,7.925781ZM11.976562,8.425781"></path> </svg>