<?xml version="1.0" encoding="utf-8"?> <!DOCTYPE svg PUBLIC "-//W3C//DTD SVG 1.1//EN" "http://www.w3.org/Graphics/SVG/1.1/DTD/svg11.dtd"><svg version="1.1" id="marker-circle-blue" xmlns="http://www.w3.org/2000/svg" xmlns:xlink="http://www.w3.org/1999/xlink" x="0px"  y="0px" width="24px" height="36px" viewBox="0 0 24 36" enable-background="new 0 0 24 36" xml:space="preserve"><path fill="#EF9228" d="M12,0C5.371,0,0,5.903,0,13.187c0,0.829,0.079,1.643,0.212,2.424c0.302,1.785,0.924,3.448,1.81,4.901
	l0.107,0.163L11.965,36l9.952-15.393l0.045-0.064c0.949-1.555,1.595-3.343,1.875-5.269C23.934,14.589,24,13.899,24,13.187
	C24,5.905,18.629,0,12,0z"></path><path fill="#ffffff" transform="translate(4.5 4.5)" d="M 12.273438 6.796875 C 11.894531 6.796875 11.53125 6.875 11.203125 7.011719 L 10.28125 5.433594 L 10.976562 4.238281 C 11.070312 4.078125 11.015625 3.867188 10.855469 3.773438 C 10.78125 3.730469 10.703125 3.65625 10.628906 3.667969 L 10.570312 3.601562 L 9.203125 3.601562 C 9.015625 3.601562 8.863281 3.863281 8.863281 4.050781 C 8.863281 4.238281 9.015625 4.5 9.203125 4.5 L 10.089844 4.5 L 9.691406 5.101562 L 5.707031 5.101562 L 6.503906 3.601562 L 6.816406 3.601562 C 7.007812 3.601562 7.160156 3.488281 7.160156 3.300781 C 7.160156 3.113281 7.007812 3 6.816406 3 L 5.113281 3 C 4.925781 3 4.773438 3.113281 4.773438 3.300781 C 4.773438 3.488281 4.925781 3.601562 5.113281 3.601562 L 5.714844 3.601562 L 3.796875 6.949219 C 3.46875 6.808594 3.105469 6.761719 2.726562 6.761719 C 1.222656 6.761719 0 8 0 9.507812 C 0 11.011719 1.222656 12.242188 2.726562 12.242188 C 4.234375 12.242188 5.453125 11.023438 5.453125 9.519531 C 5.453125 8.636719 5.035156 7.855469 4.382812 7.355469 L 5.113281 6.105469 L 7.207031 9.695312 L 7.230469 9.730469 L 7.257812 9.761719 L 7.277344 9.78125 L 7.304688 9.800781 L 7.316406 9.808594 L 7.324219 9.816406 L 7.328125 9.816406 L 7.359375 9.832031 L 7.363281 9.832031 L 7.367188 9.835938 L 7.371094 9.835938 L 7.394531 9.84375 L 7.414062 9.851562 L 7.417969 9.851562 L 7.425781 9.855469 L 7.4375 9.855469 L 7.5 9.863281 L 7.5 9.898438 L 9.570312 9.898438 C 9.738281 11.101562 10.882812 12.269531 12.273438 12.269531 C 13.777344 12.269531 15 11.039062 15 9.53125 C 15 8.027344 13.777344 6.796875 12.273438 6.796875 Z M 4.773438 9.523438 C 4.773438 10.652344 3.855469 11.566406 2.726562 11.566406 C 1.597656 11.566406 0.683594 10.652344 0.683594 9.523438 C 0.683594 8.394531 1.597656 7.476562 2.726562 7.476562 C 2.980469 7.476562 3.222656 7.527344 3.449219 7.609375 L 2.433594 9.351562 C 2.339844 9.511719 2.394531 9.722656 2.554688 9.816406 C 2.609375 9.847656 2.667969 9.863281 2.726562 9.863281 C 2.84375 9.863281 2.957031 9.804688 3.023438 9.695312 L 4.039062 7.953125 C 4.488281 8.328125 4.773438 8.890625 4.773438 9.523438 Z M 7.5 8.773438 L 5.707031 5.699219 L 9.292969 5.699219 Z M 9.886719 6.167969 L 10.617188 7.449219 C 10.050781 7.882812 9.660156 8.398438 9.570312 9.300781 L 8.09375 9.300781 Z M 10.960938 8.070312 L 11.679688 9.300781 L 10.257812 9.300781 C 10.339844 8.699219 10.597656 8.378906 10.960938 8.070312 Z M 12.273438 11.585938 C 11.257812 11.585938 10.421875 10.800781 10.257812 9.898438 L 12.273438 9.898438 L 12.273438 9.882812 L 12.335938 9.867188 L 12.347656 9.859375 L 12.40625 9.839844 L 12.410156 9.835938 L 12.445312 9.816406 L 12.453125 9.8125 L 12.484375 9.789062 L 12.507812 9.769531 L 12.53125 9.746094 L 12.550781 9.71875 L 12.582031 9.664062 L 12.605469 9.601562 L 12.609375 9.570312 L 12.613281 9.53125 L 12.613281 9.503906 L 12.609375 9.464844 L 12.601562 9.433594 L 12.589844 9.402344 L 12.574219 9.367188 L 12.566406 9.351562 L 11.550781 7.609375 C 11.777344 7.527344 12.019531 7.476562 12.273438 7.476562 C 13.402344 7.476562 14.320312 8.402344 14.320312 9.53125 C 14.320312 10.660156 13.402344 11.585938 12.273438 11.585938 Z M 12.273438 11.585938 "></path> </svg>