<?xml version="1.0" encoding="utf-8"?> <!DOCTYPE svg PUBLIC "-//W3C//DTD SVG 1.1//EN" "http://www.w3.org/Graphics/SVG/1.1/DTD/svg11.dtd"><svg version="1.1" id="marker-circle-blue" xmlns="http://www.w3.org/2000/svg" xmlns:xlink="http://www.w3.org/1999/xlink" x="0px"  y="0px" width="24px" height="36px" viewBox="0 0 24 36" enable-background="new 0 0 24 36" xml:space="preserve"><path fill="#0E5F71" d="M12,0C5.371,0,0,5.903,0,13.187c0,0.829,0.079,1.643,0.212,2.424c0.302,1.785,0.924,3.448,1.81,4.901
	l0.107,0.163L11.965,36l9.952-15.393l0.045-0.064c0.949-1.555,1.595-3.343,1.875-5.269C23.934,14.589,24,13.899,24,13.187
	C24,5.905,18.629,0,12,0z"></path><path fill="#ffffff" transform="translate(4.5 4.5)" d="M4.6875,2.8125L4.6875,12.1875C4.6875,15.9375,10.3125,15.9375,10.3125,12.1875L10.3125,2.8125C10.3125,-0.9375,4.6875,-0.9375,4.6875,2.8125zM7.5,0.9375C8.53125,0.9375,9.375,1.78125,9.375,2.8125C9.375,3.8437499999999996,8.53125,4.6875,7.5,4.6875C6.46875,4.6875,5.625,3.8437499999999996,5.625,2.8125C5.625,1.78125,6.46875,0.9375,7.5,0.9375zM7.5,5.625C8.53125,5.625,9.375,6.46875,9.375,7.5C9.375,8.53125,8.53125,9.375,7.5,9.375C6.46875,9.375,5.625,8.53125,5.625,7.5C5.625,6.46875,6.46875,5.625,7.5,5.625zM7.5,10.3125C8.53125,10.3125,9.375,11.15625,9.375,12.1875C9.375,13.21875,8.53125,14.0625,7.5,14.0625C6.46875,14.0625,5.625,13.21875,5.625,12.1875C5.625,11.15625,6.46875,10.3125,7.5,10.3125z"></path> </svg>