<?xml version="1.0" encoding="utf-8"?> <!DOCTYPE svg PUBLIC "-//W3C//DTD SVG 1.1//EN" "http://www.w3.org/Graphics/SVG/1.1/DTD/svg11.dtd"><svg version="1.1" id="marker-circle-blue" xmlns="http://www.w3.org/2000/svg" xmlns:xlink="http://www.w3.org/1999/xlink" x="0px"  y="0px" width="24px" height="36px" viewBox="0 0 24 36" enable-background="new 0 0 24 36" xml:space="preserve"><path fill="#D3D3D3" d="M12,0C5.371,0,0,5.903,0,13.187c0,0.829,0.079,1.643,0.212,2.424c0.302,1.785,0.924,3.448,1.81,4.901
	l0.107,0.163L11.965,36l9.952-15.393l0.045-0.064c0.949-1.555,1.595-3.343,1.875-5.269C23.934,14.589,24,13.899,24,13.187
	C24,5.905,18.629,0,12,0z"></path><path fill="#ffffff" transform="translate(4.5 4.5)" d="M 2,0 2,3.5 C 2,4.9469172 2.7905512,5.9802716 3.90625,6.625 L 3,14 4.5,14 4.6875,12.53125 7,11 9.3125,12.5625 9.5,14 11,14 10.09375,6.65625 C 11.21821,6.0132746 12,4.9628112 12,3.5 l 0,-3.5 -1.5,0 0,1.5 -0.5,0 C 8.8728814,2 8,2 7,1.5 6,1 5.0381356,1 4,1.5 l -0.5,0 0,-1.5 z m 3.34375,7.1875 c 1.069224,0.2671613 2.2426846,0.2935662 3.3125,0.03125 L 8.84375,8.78125 7,10 5.15625,8.78125 z m -0.3125,2.5 L 6.25,10.5 4.8125,11.46875 z m 3.9375,0 L 9.1875,11.46875 7.75,10.5 z"></path> </svg>