<?xml version="1.0" encoding="utf-8"?> <!DOCTYPE svg PUBLIC "-//W3C//DTD SVG 1.1//EN" "http://www.w3.org/Graphics/SVG/1.1/DTD/svg11.dtd"><svg version="1.1" id="marker-circle-blue" xmlns="http://www.w3.org/2000/svg" xmlns:xlink="http://www.w3.org/1999/xlink" x="0px"  y="0px" width="24px" height="36px" viewBox="0 0 24 36" enable-background="new 0 0 24 36" xml:space="preserve"><path fill="#A23337" d="M12,0C5.371,0,0,5.903,0,13.187c0,0.829,0.079,1.643,0.212,2.424c0.302,1.785,0.924,3.448,1.81,4.901
	l0.107,0.163L11.965,36l9.952-15.393l0.045-0.064c0.949-1.555,1.595-3.343,1.875-5.269C23.934,14.589,24,13.899,24,13.187
	C24,5.905,18.629,0,12,0z"></path><path fill="#ffffff" transform="translate(4.5 4.5)" d="M 12.667969 7.59375 C 12.773438 7.464844 12.988281 7.316406 13.144531 7.265625 L 14.433594 6.738281 C 14.578125 6.664062 14.699219 6.46875 14.699219 6.304688 L 14.699219 2.632812 C 14.699219 2.464844 14.574219 2.28125 14.417969 2.222656 C 14.417969 2.222656 11.722656 1.199219 9.917969 1.199219 C 8.238281 1.199219 5.917969 2.085938 5.917969 2.085938 C 5.761719 2.144531 5.503906 2.210938 5.339844 2.230469 L 0.597656 2.738281 C 0.433594 2.757812 0.300781 2.910156 0.300781 3.074219 L 0.300781 5.570312 C 0.300781 5.734375 0.433594 5.894531 0.59375 5.925781 L 5.332031 6.691406 C 5.496094 6.714844 5.753906 6.789062 5.90625 6.847656 L 9.152344 7.679688 C 9.316406 7.703125 9.492188 7.851562 9.546875 8.007812 L 11.457031 13.515625 C 11.507812 13.671875 11.683594 13.757812 11.839844 13.703125 L 13.855469 13.027344 C 14.011719 12.972656 14.09375 12.804688 14.042969 12.648438 L 12.71875 8.828125 C 12.664062 8.671875 12.617188 8.535156 12.617188 8.523438 L 12.613281 8.511719 C 12.453125 7.859375 12.667969 7.59375 12.667969 7.59375 Z M 10.367188 5.609375 C 9.613281 5.609375 9.007812 5.011719 9.007812 4.269531 C 9.007812 3.53125 9.613281 2.929688 10.367188 2.929688 C 11.117188 2.929688 11.726562 3.53125 11.726562 4.269531 C 11.726562 5.011719 11.117188 5.609375 10.367188 5.609375 Z M 10.367188 5.609375 "></path> </svg>