<?xml version="1.0" encoding="utf-8"?> <!DOCTYPE svg PUBLIC "-//W3C//DTD SVG 1.1//EN" "http://www.w3.org/Graphics/SVG/1.1/DTD/svg11.dtd"><svg version="1.1" id="marker-circle-blue" xmlns="http://www.w3.org/2000/svg" xmlns:xlink="http://www.w3.org/1999/xlink" x="0px"  y="0px" width="24px" height="36px" viewBox="0 0 24 36" enable-background="new 0 0 24 36" xml:space="preserve"><path fill="#EF9228" d="M12,0C5.371,0,0,5.903,0,13.187c0,0.829,0.079,1.643,0.212,2.424c0.302,1.785,0.924,3.448,1.81,4.901
	l0.107,0.163L11.965,36l9.952-15.393l0.045-0.064c0.949-1.555,1.595-3.343,1.875-5.269C23.934,14.589,24,13.899,24,13.187
	C24,5.905,18.629,0,12,0z"></path><path fill="#ffffff" transform="translate(4.5 4.5)" d="M2.8125,1.875C1.71981778125,1.875,0.9375,2.62080140625,0.9375,3.75L0.9375,14.0625L7.5,14.0625L7.5,6.6796875C7.5,6.6796875,8.3203125,6.5625,8.3203125,7.5l0,3.75c0,1.875,1.748154375,1.9921875,1.9921875,1.9921875c0.25842375,0,1.9921875,-0.1171640625,1.9921875,-1.9921875l0,-3.75c0,0,1.3008356250000002,0.0162909375,1.2890625,-2.783203125l-0.703125,0l0,-1.875C12.890625,2.31008596875,12.1875,2.31328865625,12.1875,2.8125l0,1.875l-0.9375,0l0,-1.875C11.25,2.30045221875,10.546875,2.301387,10.546875,2.8125l0,1.875l-0.703125,0c0.0117375,2.799741,1.2890625,2.8125,1.2890625,2.8125l0,3.75c0,0.8195240625,-0.71919,0.8203125,-0.8203125,0.8203125c-0.1011225,0,-0.8203125,-0.040115625,-0.8203125,-0.8203125l0,-3.75C9.4921875,6.299148375,8.4375,5.5078125,7.5,5.5078125L7.5,3.75C7.5,2.6039476875,6.7345355625,1.875,5.625,1.875Zm0.908203125,1.875l2.578125,0L4.6875,6.25000003125l1.93359375,0L3.076171875,11.25L2.431640625,11.25L3.720703125,7.5L2.109375,7.5Z"></path> </svg>