<?xml version="1.0" encoding="utf-8"?> <!DOCTYPE svg PUBLIC "-//W3C//DTD SVG 1.1//EN" "http://www.w3.org/Graphics/SVG/1.1/DTD/svg11.dtd"><svg version="1.1" id="marker-circle-blue" xmlns="http://www.w3.org/2000/svg" xmlns:xlink="http://www.w3.org/1999/xlink" x="0px"  y="0px" width="24px" height="36px" viewBox="0 0 24 36" enable-background="new 0 0 24 36" xml:space="preserve"><path fill="#9D7178" d="M12,0C5.371,0,0,5.903,0,13.187c0,0.829,0.079,1.643,0.212,2.424c0.302,1.785,0.924,3.448,1.81,4.901
	l0.107,0.163L11.965,36l9.952-15.393l0.045-0.064c0.949-1.555,1.595-3.343,1.875-5.269C23.934,14.589,24,13.899,24,13.187
	C24,5.905,18.629,0,12,0z"></path><path fill="#ffffff" transform="translate(4.5 4.5)" d="M2.78125,5.699219L3.957031,5.699219L4.136719,11.101562L2.625,11.101562ZM1.800781,11.398438L13.199219,11.398438L13.199219,12L14.101562,12L14.101562,12.898438L14.699219,12.898438L14.699219,13.5L0.300781,13.5L0.300781,12.898438L0.898438,12.898438L0.898438,12L1.800781,12ZM13.800781,4.144531L7.5,1.5L1.199219,4.144531L1.199219,4.5L13.800781,4.5ZM2.398438,4.800781L12.601562,4.800781L12.601562,5.398438L2.398438,5.398438ZM11.019531,5.699219L12.195312,5.699219L12.378906,11.101562L10.863281,11.101562ZM8.273438,5.699219L9.449219,5.699219L9.628906,11.101562L8.117188,11.101562ZM5.527344,5.699219L6.703125,5.699219L6.882812,11.101562L5.371094,11.101562ZM5.527344,5.699219"></path> </svg>