<?xml version="1.0" encoding="utf-8"?> <!DOCTYPE svg PUBLIC "-//W3C//DTD SVG 1.1//EN" "http://www.w3.org/Graphics/SVG/1.1/DTD/svg11.dtd"><svg version="1.1" id="marker-circle-blue" xmlns="http://www.w3.org/2000/svg" xmlns:xlink="http://www.w3.org/1999/xlink" x="0px"  y="0px" width="24px" height="36px" viewBox="0 0 24 36" enable-background="new 0 0 24 36" xml:space="preserve"><path fill="#EF9228" d="M12,0C5.371,0,0,5.903,0,13.187c0,0.829,0.079,1.643,0.212,2.424c0.302,1.785,0.924,3.448,1.81,4.901
	l0.107,0.163L11.965,36l9.952-15.393l0.045-0.064c0.949-1.555,1.595-3.343,1.875-5.269C23.934,14.589,24,13.899,24,13.187
	C24,5.905,18.629,0,12,0z"></path><path fill="#ffffff" transform="translate(4.5 4.5)" d="M14,6.5V12c0,0.5523,-0.4477,1,-1,1H2c-0.5523,0,-1,-0.4477,-1,-1V6.5C1,6.2239,1.2239,6,1.5,6c0.0692,-0.0152,0.1408,-0.0152,0.21,0l0,0l5.79,4l5.8,-4l0,0c0.066,-0.0138,0.134,-0.0138,0.2,0C13.7761,6,14,6.2239,14,6.5zM1.25,3.92L1.25,3.92L1.33,4L7.5,8l6.19,-4l0,0h0.06l0,0c0.1796,-0.0981,0.2792,-0.2975,0.25,-0.5C14,3.2239,13.7761,3,13.5,3h-12C1.2239,3,1,3.2239,1,3.5C1.0026,3.6745,1.0978,3.8345,1.25,3.92z"></path> </svg>