<?xml version="1.0" encoding="utf-8"?> <!DOCTYPE svg PUBLIC "-//W3C//DTD SVG 1.1//EN" "http://www.w3.org/Graphics/SVG/1.1/DTD/svg11.dtd"><svg version="1.1" id="marker-circle-blue" xmlns="http://www.w3.org/2000/svg" xmlns:xlink="http://www.w3.org/1999/xlink" x="0px"  y="0px" width="24px" height="36px" viewBox="0 0 24 36" enable-background="new 0 0 24 36" xml:space="preserve"><path fill="#EF9228" d="M12,0C5.371,0,0,5.903,0,13.187c0,0.829,0.079,1.643,0.212,2.424c0.302,1.785,0.924,3.448,1.81,4.901
	l0.107,0.163L11.965,36l9.952-15.393l0.045-0.064c0.949-1.555,1.595-3.343,1.875-5.269C23.934,14.589,24,13.899,24,13.187
	C24,5.905,18.629,0,12,0z"></path><path fill="#ffffff" transform="translate(4.5 4.5)" d="M 14.699219 5.101562 C 14.699219 4.933594 14.566406 4.800781 14.398438 4.800781 L 10.5 4.800781 C 10.335938 4.800781 10.199219 4.664062 10.199219 4.5 L 10.199219 0.601562 C 10.199219 0.433594 10.066406 0.300781 9.898438 0.300781 L 5.101562 0.300781 C 4.933594 0.300781 4.800781 0.433594 4.800781 0.601562 L 4.800781 4.5 C 4.800781 4.664062 4.664062 4.800781 4.5 4.800781 L 0.601562 4.800781 C 0.433594 4.800781 0.300781 4.933594 0.300781 5.101562 L 0.300781 9.898438 C 0.300781 10.066406 0.433594 10.199219 0.601562 10.199219 L 4.5 10.199219 C 4.664062 10.199219 4.800781 10.335938 4.800781 10.5 L 4.800781 14.398438 C 4.800781 14.566406 4.933594 14.699219 5.101562 14.699219 L 9.898438 14.699219 C 10.066406 14.699219 10.199219 14.566406 10.199219 14.398438 L 10.199219 10.5 C 10.199219 10.335938 10.335938 10.199219 10.5 10.199219 L 14.398438 10.199219 C 14.566406 10.199219 14.699219 10.066406 14.699219 9.898438 Z M 14.699219 5.101562 "></path> </svg>