<?xml version="1.0" encoding="utf-8"?> <!DOCTYPE svg PUBLIC "-//W3C//DTD SVG 1.1//EN" "http://www.w3.org/Graphics/SVG/1.1/DTD/svg11.dtd"><svg version="1.1" id="marker-circle-blue" xmlns="http://www.w3.org/2000/svg" xmlns:xlink="http://www.w3.org/1999/xlink" x="0px"  y="0px" width="24px" height="36px" viewBox="0 0 24 36" enable-background="new 0 0 24 36" xml:space="preserve"><path fill="#5B396C" d="M12,0C5.371,0,0,5.903,0,13.187c0,0.829,0.079,1.643,0.212,2.424c0.302,1.785,0.924,3.448,1.81,4.901
	l0.107,0.163L11.965,36l9.952-15.393l0.045-0.064c0.949-1.555,1.595-3.343,1.875-5.269C23.934,14.589,24,13.899,24,13.187
	C24,5.905,18.629,0,12,0z"></path><path fill="#ffffff" transform="translate(4.5 4.5)" d="M14.699219,3.148438C14.882812,3.007812,15,2.792969,15,2.550781C15,2.136719,14.664062,1.800781,14.25,1.800781C13.835938,1.800781,13.5,2.136719,13.5,2.550781C13.5,2.792969,13.617188,3.007812,13.800781,3.148438L13.800781,7.800781L11.101562,7.800781L11.101562,10.199219L14.101562,10.199219L14.101562,10.109375C14.539062,9.933594,14.851562,9.503906,14.851562,9C14.851562,8.792969,14.792969,8.601562,14.699219,8.429688ZM1.800781,5.101562C2.105469,5.101562,2.320312,5.152344,2.699219,5.101562C2.699219,5.101562,1.496094,5.898438,1.496094,6.898438L3,6.898438C3,6.898438,3,5.234375,3.898438,4.199219L3.601562,3.898438C3.601562,3.898438,3,4.199219,2.398438,3.898438C2.398438,3.898438,1.800781,3.898438,1.199219,4.199219L1.199219,3.898438L0.898438,3.898438L0.898438,5.699219L1.199219,5.699219C1.199219,5.699219,1.199219,5.101562,1.800781,5.101562ZM6,5.101562C6.304688,5.101562,6.519531,5.152344,6.898438,5.101562C6.898438,5.101562,5.695312,5.898438,5.695312,6.898438L7.199219,6.898438C7.199219,6.898438,7.203125,5.234375,8.101562,4.199219L7.800781,3.898438C7.800781,3.898438,7.199219,4.199219,6.601562,3.898438C6.601562,3.898438,6,3.898438,5.398438,4.199219L5.398438,3.898438L5.101562,3.898438L5.101562,5.699219L5.398438,5.699219C5.398438,5.699219,5.398438,5.101562,6,5.101562ZM11.398438,2.101562L11.398438,1.5L7.765625,1.5C7.628906,0.898438,7.09375,0.449219,6.449219,0.449219C5.808594,0.449219,5.273438,0.898438,5.136719,1.5L1.5,1.5L1.5,2.101562L0,2.101562L0,14.398438L13.199219,14.398438L13.199219,2.101562ZM4.800781,3.300781L8.398438,3.300781L8.398438,7.5L4.800781,7.5ZM0.601562,3.300781L4.199219,3.300781L4.199219,7.5L0.601562,7.5ZM11.398438,12.898438L1.5,12.898438L1.5,10.800781L11.398438,10.800781ZM12.601562,7.5L9,7.5L9,3.300781L12.601562,3.300781ZM10.199219,5.101562C10.507812,5.101562,10.71875,5.152344,11.101562,5.101562C11.101562,5.101562,9.894531,5.898438,9.894531,6.898438L11.398438,6.898438C11.398438,6.898438,11.402344,5.234375,12.300781,4.199219L12,3.898438C12,3.898438,11.398438,4.199219,10.800781,3.898438C10.800781,3.898438,10.199219,3.898438,9.601562,4.199219L9.601562,3.898438L9.300781,3.898438L9.300781,5.699219L9.601562,5.699219C9.601562,5.699219,9.601562,5.101562,10.199219,5.101562ZM10.199219,5.101562"></path> </svg>