<?xml version="1.0" encoding="utf-8"?> <!DOCTYPE svg PUBLIC "-//W3C//DTD SVG 1.1//EN" "http://www.w3.org/Graphics/SVG/1.1/DTD/svg11.dtd"><svg version="1.1" id="marker-circle-blue" xmlns="http://www.w3.org/2000/svg" xmlns:xlink="http://www.w3.org/1999/xlink" x="0px"  y="0px" width="24px" height="36px" viewBox="0 0 24 36" enable-background="new 0 0 24 36" xml:space="preserve"><path fill="#A23337" d="M12,0C5.371,0,0,5.903,0,13.187c0,0.829,0.079,1.643,0.212,2.424c0.302,1.785,0.924,3.448,1.81,4.901
	l0.107,0.163L11.965,36l9.952-15.393l0.045-0.064c0.949-1.555,1.595-3.343,1.875-5.269C23.934,14.589,24,13.899,24,13.187
	C24,5.905,18.629,0,12,0z"></path><path fill="#ffffff" transform="translate(4.5 4.5)" d="M13.394531,5.355469C13.394531,4.910156,13.238281,4.53125,12.925781,4.21875C12.613281,3.90625,12.230469,3.75,11.785156,3.75L11.25,3.75L11.25,6.964844L11.785156,6.964844C12.230469,6.964844,12.613281,6.808594,12.925781,6.496094C13.238281,6.183594,13.394531,5.804688,13.394531,5.355469ZM-0.535156,11.785156L14.464844,11.785156C14.464844,12.378906,14.253906,12.882812,13.835938,13.300781C13.417969,13.71875,12.914062,13.929688,12.320312,13.929688L1.605469,13.929688C1.015625,13.929688,0.511719,13.71875,0.09375,13.300781C-0.328125,12.882812,-0.535156,12.378906,-0.535156,11.785156ZM15,5.355469C15,6.246094,14.6875,7,14.058594,7.628906C13.429688,8.257812,12.671875,8.570312,11.785156,8.570312L11.25,8.570312L11.25,8.839844C11.25,9.351562,11.066406,9.792969,10.699219,10.160156C10.328125,10.53125,9.886719,10.714844,9.375,10.714844L3.480469,10.714844C2.96875,10.714844,2.527344,10.53125,2.160156,10.160156C1.792969,9.792969,1.605469,9.351562,1.605469,8.839844L1.605469,2.679688C1.605469,2.535156,1.660156,2.40625,1.765625,2.300781C1.871094,2.195312,1.996094,2.144531,2.144531,2.144531L11.785156,2.144531C12.671875,2.144531,13.429688,2.457031,14.058594,3.085938C14.6875,3.710938,15,4.46875,15,5.355469ZM15,5.355469"></path> </svg>