<?xml version="1.0" encoding="utf-8"?> <!DOCTYPE svg PUBLIC "-//W3C//DTD SVG 1.1//EN" "http://www.w3.org/Graphics/SVG/1.1/DTD/svg11.dtd"><svg version="1.1" id="marker-circle-blue" xmlns="http://www.w3.org/2000/svg" xmlns:xlink="http://www.w3.org/1999/xlink" x="0px"  y="0px" width="24px" height="36px" viewBox="0 0 24 36" enable-background="new 0 0 24 36" xml:space="preserve"><path fill="#A23337" d="M12,0C5.371,0,0,5.903,0,13.187c0,0.829,0.079,1.643,0.212,2.424c0.302,1.785,0.924,3.448,1.81,4.901
	l0.107,0.163L11.965,36l9.952-15.393l0.045-0.064c0.949-1.555,1.595-3.343,1.875-5.269C23.934,14.589,24,13.899,24,13.187
	C24,5.905,18.629,0,12,0z"></path><path fill="#ffffff" transform="translate(4.5 4.5)" d="M7.320033428571429,2.0340401785714284A1.2916584642857143,1.0165113,0,0,0,6.028878321428571,3.051060214285714A1.2916584642857143,1.0165113,0,0,0,6.928710964285714,4.01994975C5.4525087857142855,4.138883142857143,4.1776425,4.897670678571428,3.4298270357142853,6.018415178571429C3.4147869642857143,6.011680821428571,3.400956857142857,5.997345857142857,3.3858816428571425,5.991210964285714C2.6907419999999997,5.7083109642857135,1.6480115357142857,5.566313142857142,0.9730747714285715,6.003766714285714C0.3158712107142857,6.429745285714286,0.039678348214285716,7.1918457857142855,0.0020926339285714285,8.142438642857144C-0.07424665178571428,10.0741815,1.3736585357142856,10.461281249999999,2.816685214285714,10.655691964285714C2.933581285714286,10.671440142857142,3.0488641071428573,10.662899357142857,3.1640625,10.657784571428571C3.4809835714285717,11.572558928571429,3.9538841785714287,12.431698928571429,4.564034571428571,12.861327857142857L10.078125,12.861327857142857C10.734867857142856,12.398145,11.231321785714284,11.437023214285714,11.545061785714287,10.444335964285715C11.795703214285714,10.49454675,12.067104642857144,10.446287571428572,12.442801071428573,10.147181892857143C13.095467142857142,9.627592607142857,13.777479642857143,8.597590178571428,13.999720714285715,8.094308035714285C14.400713571428572,7.224983035714286,15,4.103655107142857,15,4.103655107142857C15,4.103655107142857,14.055663214285715,4.359934178571429,13.302874285714287,4.099469892857143C13.137034285714284,4.664348464285714,12.93111964285714,5.730748607142857,12.618582857142856,6.240234428571428C12.349516071428571,6.678877178571429,12.169024285714286,7.059796178571428,11.7250275,7.129603821428572C11.2094475,5.431736571428571,9.634666499999998,4.1747865,7.709263392857142,4.01994975A1.2916584642857143,1.0165113,0,0,0,8.611188642857142,3.051060214285714A1.2916584642857143,1.0165113,0,0,0,7.320033428571429,2.0340401785714284zM2.1198381428571427,6.587611607142857C2.4657798214285713,6.5768507142857136,2.754134357142857,6.686505535714286,3.013392857142857,6.834542357142857C2.833057607142857,7.299072214285714,2.718248357142857,7.794840107142857,2.7183314999999997,8.318219892857144C2.7190232142857145,8.737674214285715,2.789320392857143,9.252996857142858,2.9129464285714284,9.787248857142856C2.0835874285714286,9.773149285714286,1.1062573928571429,9.66770239285714,1.1635044642857142,8.219866071428571C1.1954330357142857,7.4124375,1.4127582857142855,6.710639785714285,1.814313642857143,6.6252790714285705C1.9206505714285713,6.6026738571428565,2.0218876071428573,6.590658428571428,2.1198381428571427,6.587611607142857z"></path> </svg>