<?xml version="1.0" encoding="utf-8"?> <!DOCTYPE svg PUBLIC "-//W3C//DTD SVG 1.1//EN" "http://www.w3.org/Graphics/SVG/1.1/DTD/svg11.dtd"><svg version="1.1" id="marker-circle-blue" xmlns="http://www.w3.org/2000/svg" xmlns:xlink="http://www.w3.org/1999/xlink" x="0px"  y="0px" width="24px" height="36px" viewBox="0 0 24 36" enable-background="new 0 0 24 36" xml:space="preserve"><path fill="#EF9228" d="M12,0C5.371,0,0,5.903,0,13.187c0,0.829,0.079,1.643,0.212,2.424c0.302,1.785,0.924,3.448,1.81,4.901
	l0.107,0.163L11.965,36l9.952-15.393l0.045-0.064c0.949-1.555,1.595-3.343,1.875-5.269C23.934,14.589,24,13.899,24,13.187
	C24,5.905,18.629,0,12,0z"></path><path fill="#ffffff" transform="translate(4.5 4.5)" d="m0,11.785714285714285l15,0C13.928571428571429,13.928571428571429,9.642857142857142,15,7.5,15C5.357142857142857,15,1.39444575,13.928571428571429,0,11.785714285714285ZM9.642857142857142,0.06528841071428572c-1.0714285714285714,0,-1.79480775,1.1090318035714286,-2.1554130000000002,1.9432348392857142C7.125765749999999,1.1335853571428571,6.428571428571429,0.016322142857142855,5.357142857142857,0.016322142857142855c-1.607535,0,-2.142857142857143,2.0612466428571428,-2.142857142857143,3.132675214285714c0,1.0714285714285714,1.0714285714285714,0.7228354285714286,1.0714285714285714,0.03264428571428571c1.0714285714285714,-2.142857142857143,2.142857142857143,-1.7292895714285714,2.40234375,1.6582154999999998l0,0.3745815C6.277703678571428,5.011713964285714,5.818066285714286,4.883802321428571,5.357142857142857,4.883802321428571c-1.5718467857142857,0,-2.946428571428571,1.1062258928571427,-2.946428571428571,3.2142857142857144l0,1.0714285714285714c0,1.0714285714285714,1.6071428571428572,1.0714285714285714,1.6071428571428572,0l0,-1.0714285714285714c0,-1.034956607142857,0.7318028571428571,-1.6071428571428572,1.3392857142857142,-1.6071428571428572c0.5887204285714285,0,1.2878985,0.5744770714285714,1.3309151785714286,1.5192522857142856l0,0.04394571428571428l0,2.660142535714286C7.5,10.09480767857143,7.5,10.077651107142858,8.278859678571429,10.714285714285714L8.303571428571429,8.098082678571428l0,-0.13392857142857142C8.347551428571428,7.020651535714285,9.046209000000001,6.4469945357142855,9.634486607142858,6.4469945357142855c0.6074828571428572,0,1.33928625,0.57218625,1.33928625,1.6071428571428572l0,1.0714285714285714c0,1.0714285714285714,1.6071428571428572,1.0714285714285714,1.6071428571428572,0l0,-1.0714285714285714c0,-2.1080598214285713,-1.3745817857142857,-3.2142857142857144,-2.946429107142857,-3.2142857142857144C9.173321249999999,4.839857035714285,8.714089285714286,4.9696764642857145,8.303571428571429,5.17258575C8.303571428571429,5.076324642857143,8.285672892857143,4.978384928571429,8.303571428571429,4.883802321428571C8.571428571428571,1.943579357142857,9.642857142857142,1.0714285714285714,10.714285714285714,3.2142857142857144c0,0.565443857142857,1.0714285714285714,0.9898181785714285,1.0714285714285714,-0.08161071428571429c0,-1.0714285714285714,-0.5353221428571429,-3.0673869107142857,-2.142857142857143,-3.067386589285714z"></path> </svg>