<?xml version="1.0" encoding="utf-8"?> <!DOCTYPE svg PUBLIC "-//W3C//DTD SVG 1.1//EN" "http://www.w3.org/Graphics/SVG/1.1/DTD/svg11.dtd"><svg version="1.1" id="marker-circle-blue" xmlns="http://www.w3.org/2000/svg" xmlns:xlink="http://www.w3.org/1999/xlink" x="0px"  y="0px" width="24px" height="36px" viewBox="0 0 24 36" enable-background="new 0 0 24 36" xml:space="preserve"><path fill="#A23337" d="M12,0C5.371,0,0,5.903,0,13.187c0,0.829,0.079,1.643,0.212,2.424c0.302,1.785,0.924,3.448,1.81,4.901
	l0.107,0.163L11.965,36l9.952-15.393l0.045-0.064c0.949-1.555,1.595-3.343,1.875-5.269C23.934,14.589,24,13.899,24,13.187
	C24,5.905,18.629,0,12,0z"></path><path fill="#ffffff" transform="translate(4.5 4.5)" d="M8.570312,4.554688L8.570312,8.304688C8.570312,8.382812,8.546875,8.445312,8.496094,8.496094C8.445312,8.546875,8.382812,8.570312,8.304688,8.570312L5.625,8.570312C5.546875,8.570312,5.484375,8.546875,5.433594,8.496094C5.382812,8.445312,5.355469,8.382812,5.355469,8.304688L5.355469,7.769531C5.355469,7.691406,5.382812,7.625,5.433594,7.574219C5.484375,7.523438,5.546875,7.5,5.625,7.5L7.5,7.5L7.5,4.554688C7.5,4.476562,7.523438,4.410156,7.574219,4.359375C7.625,4.3125,7.691406,4.285156,7.769531,4.285156L8.304688,4.285156C8.382812,4.285156,8.445312,4.3125,8.496094,4.359375C8.546875,4.410156,8.570312,4.476562,8.570312,4.554688ZM12.054688,7.5C12.054688,6.675781,11.851562,5.914062,11.441406,5.214844C11.035156,4.515625,10.484375,3.964844,9.785156,3.558594C9.085938,3.148438,8.324219,2.945312,7.5,2.945312C6.675781,2.945312,5.914062,3.148438,5.214844,3.558594C4.515625,3.964844,3.964844,4.515625,3.558594,5.214844C3.148438,5.914062,2.945312,6.675781,2.945312,7.5C2.945312,8.324219,3.148438,9.085938,3.558594,9.785156C3.964844,10.484375,4.515625,11.035156,5.214844,11.441406C5.914062,11.851562,6.675781,12.054688,7.5,12.054688C8.324219,12.054688,9.085938,11.851562,9.785156,11.441406C10.484375,11.035156,11.035156,10.484375,11.441406,9.785156C11.851562,9.085938,12.054688,8.324219,12.054688,7.5ZM13.929688,7.5C13.929688,8.667969,13.640625,9.742188,13.066406,10.726562C12.492188,11.710938,11.710938,12.492188,10.726562,13.066406C9.742188,13.640625,8.667969,13.929688,7.5,13.929688C6.332031,13.929688,5.257812,13.640625,4.273438,13.066406C3.289062,12.492188,2.507812,11.710938,1.933594,10.726562C1.359375,9.742188,1.070312,8.667969,1.070312,7.5C1.070312,6.332031,1.359375,5.257812,1.933594,4.273438C2.507812,3.289062,3.289062,2.507812,4.273438,1.933594C5.257812,1.359375,6.332031,1.070312,7.5,1.070312C8.667969,1.070312,9.742188,1.359375,10.726562,1.933594C11.710938,2.507812,12.492188,3.289062,13.066406,4.273438C13.640625,5.257812,13.929688,6.332031,13.929688,7.5ZM13.929688,7.5"></path> </svg>