<?xml version="1.0" encoding="utf-8"?> <!DOCTYPE svg PUBLIC "-//W3C//DTD SVG 1.1//EN" "http://www.w3.org/Graphics/SVG/1.1/DTD/svg11.dtd"><svg version="1.1" id="marker-circle-blue" xmlns="http://www.w3.org/2000/svg" xmlns:xlink="http://www.w3.org/1999/xlink" x="0px"  y="0px" width="24px" height="36px" viewBox="0 0 24 36" enable-background="new 0 0 24 36" xml:space="preserve"><path fill="#A23337" d="M12,0C5.371,0,0,5.903,0,13.187c0,0.829,0.079,1.643,0.212,2.424c0.302,1.785,0.924,3.448,1.81,4.901
	l0.107,0.163L11.965,36l9.952-15.393l0.045-0.064c0.949-1.555,1.595-3.343,1.875-5.269C23.934,14.589,24,13.899,24,13.187
	C24,5.905,18.629,0,12,0z"></path><path fill="#ffffff" transform="translate(4.5 4.5)" d="M 9.300781 7.5 C 8.308594 7.5 7.5 8.304688 7.5 9.300781 C 7.5 10.292969 8.308594 11.101562 9.300781 11.101562 C 10.292969 11.101562 11.097656 10.292969 11.097656 9.300781 C 11.097656 8.304688 10.292969 7.5 9.300781 7.5 Z M 12.898438 3.898438 L 11.417969 0.910156 C 11.296875 0.554688 10.960938 0.300781 10.566406 0.300781 L 8.09375 0.300781 C 7.691406 0.300781 7.355469 0.5625 7.238281 0.921875 L 5.703125 3.898438 L 2.101562 3.898438 C 1.105469 3.898438 0.300781 4.707031 0.300781 5.699219 L 0.300781 14.699219 L 14.699219 14.699219 L 14.699219 5.699219 C 14.699219 4.707031 13.894531 3.898438 12.898438 3.898438 Z M 3 7.5 C 2.503906 7.5 2.101562 7.097656 2.101562 6.601562 C 2.101562 6.101562 2.503906 5.699219 3 5.699219 C 3.496094 5.699219 3.898438 6.101562 3.898438 6.601562 C 3.898438 7.097656 3.496094 7.5 3 7.5 Z M 9.300781 12.902344 C 7.3125 12.902344 5.699219 11.289062 5.699219 9.300781 C 5.699219 7.3125 7.3125 5.699219 9.300781 5.699219 C 11.289062 5.699219 12.898438 7.3125 12.898438 9.300781 C 12.898438 11.289062 11.289062 12.902344 9.300781 12.902344 Z M 9.300781 12.902344 "></path> </svg>