<?xml version="1.0" encoding="utf-8"?> <!DOCTYPE svg PUBLIC "-//W3C//DTD SVG 1.1//EN" "http://www.w3.org/Graphics/SVG/1.1/DTD/svg11.dtd"><svg version="1.1" id="marker-circle-blue" xmlns="http://www.w3.org/2000/svg" xmlns:xlink="http://www.w3.org/1999/xlink" x="0px"  y="0px" width="24px" height="36px" viewBox="0 0 24 36" enable-background="new 0 0 24 36" xml:space="preserve"><path fill="#EF9228" d="M12,0C5.371,0,0,5.903,0,13.187c0,0.829,0.079,1.643,0.212,2.424c0.302,1.785,0.924,3.448,1.81,4.901
	l0.107,0.163L11.965,36l9.952-15.393l0.045-0.064c0.949-1.555,1.595-3.343,1.875-5.269C23.934,14.589,24,13.899,24,13.187
	C24,5.905,18.629,0,12,0z"></path><path fill="#ffffff" transform="translate(4.5 4.5)" d="M5.894531,7.5L5.894531,4.285156L3.75,4.285156L3.75,6.429688C3.75,6.722656,3.855469,6.976562,4.0625,7.1875C4.273438,7.394531,4.527344,7.5,4.820312,7.5ZM14.464844,11.25L14.464844,12.855469L4.820312,12.855469L4.820312,11.25L5.894531,9.644531L4.820312,9.644531C3.933594,9.644531,3.175781,9.328125,2.546875,8.703125C1.921875,8.074219,1.605469,7.316406,1.605469,6.429688L1.605469,3.75L1.070312,3.214844L1.339844,2.144531L5.355469,2.144531L5.625,1.070312L13.660156,1.070312L13.929688,2.679688L13.394531,2.945312L13.394531,9.644531ZM14.464844,11.25"></path> </svg>