<?xml version="1.0" encoding="utf-8"?> <!DOCTYPE svg PUBLIC "-//W3C//DTD SVG 1.1//EN" "http://www.w3.org/Graphics/SVG/1.1/DTD/svg11.dtd"><svg version="1.1" id="marker-circle-blue" xmlns="http://www.w3.org/2000/svg" xmlns:xlink="http://www.w3.org/1999/xlink" x="0px"  y="0px" width="24px" height="36px" viewBox="0 0 24 36" enable-background="new 0 0 24 36" xml:space="preserve"><path fill="#EF9228" d="M12,0C5.371,0,0,5.903,0,13.187c0,0.829,0.079,1.643,0.212,2.424c0.302,1.785,0.924,3.448,1.81,4.901
	l0.107,0.163L11.965,36l9.952-15.393l0.045-0.064c0.949-1.555,1.595-3.343,1.875-5.269C23.934,14.589,24,13.899,24,13.187
	C24,5.905,18.629,0,12,0z"></path><path fill="#ffffff" transform="translate(4.5 4.5)" d="M11.46,12h-0.68L12,3.55c0.0175,-0.2867,-0.2008,-0.5332,-0.4874,-0.5507C11.4884,2.9979,11.4641,2.9981,11.44,3h-1.18c0,-0.92,-1.23,-2,-2.75,-2S4.77,2.08,4.77,3H3.54C3.253,2.9885,3.0111,3.2117,2.9995,3.4987C2.9988,3.5158,2.999,3.5329,3,3.55L4.2,12H3.55C3.2609,11.9886,3.0162,12.2112,3,12.5V14h9v-1.51C11.9839,12.2067,11.7435,11.9886,11.46,12zM4.5,5h6v1h-6V5z"></path> </svg>