<?xml version="1.0" encoding="utf-8"?> <!DOCTYPE svg PUBLIC "-//W3C//DTD SVG 1.1//EN" "http://www.w3.org/Graphics/SVG/1.1/DTD/svg11.dtd"><svg version="1.1" id="marker-circle-blue" xmlns="http://www.w3.org/2000/svg" xmlns:xlink="http://www.w3.org/1999/xlink" x="0px"  y="0px" width="24px" height="36px" viewBox="0 0 24 36" enable-background="new 0 0 24 36" xml:space="preserve"><path fill="#75030B" d="M12,0C5.371,0,0,5.903,0,13.187c0,0.829,0.079,1.643,0.212,2.424c0.302,1.785,0.924,3.448,1.81,4.901
	l0.107,0.163L11.965,36l9.952-15.393l0.045-0.064c0.949-1.555,1.595-3.343,1.875-5.269C23.934,14.589,24,13.899,24,13.187
	C24,5.905,18.629,0,12,0z"></path><path fill="#ffffff" transform="translate(4.5 4.5)" d="M7.5,0.234375C3.4872949218750002,0.234375,0.234375,3.4872949218750002,0.234375,7.5s3.2529199218750002,7.265625,7.265625,7.265625s7.265625,-3.2529199218750002,7.265625,-7.265625S11.512705078125,0.234375,7.5,0.234375zm5.08875,3.502705078125l-1.857392578125,1.857392578125c-0.321884765625,-0.543720703125,-0.78134765625,-1.0034765625000002,-1.325830078125,-1.325830078125l1.857392578125,-1.857392578125a6.398320312499999,6.398320312499999,0,0,1,1.325830078125,1.325830078125zM7.5,10.3125c-1.553291015625,0,-2.8125,-1.259208984375,-2.8125,-2.8125s1.259208984375,-2.8125,2.8125,-2.8125s2.8125,1.259208984375,2.8125,2.8125s-1.259208984375,2.8125,-2.8125,2.8125zM3.737080078125,2.41125l1.857392578125,1.857392578125c-0.543720703125,0.321884765625,-1.0034765625000002,0.78134765625,-1.325830078125,1.325830078125l-1.857392578125,-1.857392578125a6.397617187500001,6.397617187500001,0,0,1,1.325830078125,-1.325830078125zM2.41125,11.262919921875l1.857392578125,-1.857392578125c0.321884765625,0.543720703125,0.78134765625,1.0034765625000002,1.325830078125,1.325830078125l-1.857392578125,1.857392578125a6.398320312499999,6.398320312499999,0,0,1,-1.325830078125,-1.325830078125zm8.851669921875,1.325830078125l-1.857392578125,-1.857392578125c0.543720703125,-0.321884765625,1.0034765625000002,-0.78134765625,1.325830078125,-1.325830078125l1.857392578125,1.857392578125a6.398525390625,6.398525390625,0,0,1,-1.325830078125,1.325830078125z"></path> </svg>