<?xml version="1.0" encoding="utf-8"?> <!DOCTYPE svg PUBLIC "-//W3C//DTD SVG 1.1//EN" "http://www.w3.org/Graphics/SVG/1.1/DTD/svg11.dtd"><svg version="1.1" id="marker-circle-blue" xmlns="http://www.w3.org/2000/svg" xmlns:xlink="http://www.w3.org/1999/xlink" x="0px"  y="0px" width="24px" height="36px" viewBox="0 0 24 36" enable-background="new 0 0 24 36" xml:space="preserve"><path fill="#EF9228" d="M12,0C5.371,0,0,5.903,0,13.187c0,0.829,0.079,1.643,0.212,2.424c0.302,1.785,0.924,3.448,1.81,4.901
	l0.107,0.163L11.965,36l9.952-15.393l0.045-0.064c0.949-1.555,1.595-3.343,1.875-5.269C23.934,14.589,24,13.899,24,13.187
	C24,5.905,18.629,0,12,0z"></path><path fill="#ffffff" transform="translate(4.5 4.5)" d="M5.44,8.17c0.7156,0.0006,1.414,-0.2194,2,-0.63C7.9037,7.8634,8.4391,8.0693,9,8.14h0.44L8,13.7c-0.1082,0.2541,-0.4019,0.3723,-0.656,0.264C7.2252,13.9134,7.1306,13.8188,7.08,13.7L5.44,8.17z"></path> <path fill="#ffffff" transform="translate(4.5 4.5)" d="M11.44,4.67c0,1.1046,-0.8954,2,-2,2s-2,-0.8954,-2,-2l0,0l0,0l0,0c0,1.1046,-0.8954,2,-2,2s-2,-0.8954,-2,-2s0.8954,-2,2,-2h0.12C5.1756,1.6345,5.7035,0.4834,6.739,0.099s2.1866,0.1435,2.571,1.179c0.1667,0.449,0.1667,0.9429,0,1.3919h0.13C10.5446,2.67,11.44,3.5654,11.44,4.67z"></path> </svg>