<?xml version="1.0" encoding="utf-8"?> <!DOCTYPE svg PUBLIC "-//W3C//DTD SVG 1.1//EN" "http://www.w3.org/Graphics/SVG/1.1/DTD/svg11.dtd"><svg version="1.1" id="marker-circle-blue" xmlns="http://www.w3.org/2000/svg" xmlns:xlink="http://www.w3.org/1999/xlink" x="0px"  y="0px" width="24px" height="36px" viewBox="0 0 24 36" enable-background="new 0 0 24 36" xml:space="preserve"><path fill="#EF9228" d="M12,0C5.371,0,0,5.903,0,13.187c0,0.829,0.079,1.643,0.212,2.424c0.302,1.785,0.924,3.448,1.81,4.901
	l0.107,0.163L11.965,36l9.952-15.393l0.045-0.064c0.949-1.555,1.595-3.343,1.875-5.269C23.934,14.589,24,13.899,24,13.187
	C24,5.905,18.629,0,12,0z"></path><path fill="#ffffff" transform="translate(4.5 4.5)" d="M 7.546875 5.203125 C 8.730469 5.203125 9.6875 4.238281 9.6875 3.050781 C 9.6875 1.863281 8.730469 0.898438 7.546875 0.898438 C 6.363281 0.898438 5.398438 1.863281 5.398438 3.050781 C 5.398438 4.238281 6.363281 5.203125 7.546875 5.203125 Z M 9.632812 5.699219 C 10.613281 5.699219 11.023438 6.539062 11.023438 6.539062 L 14.191406 10.902344 C 14.324219 11.097656 14.398438 11.335938 14.398438 11.589844 C 14.398438 12.269531 13.851562 12.820312 13.175781 12.820312 C 13.015625 12.820312 12.855469 12.785156 12.71875 12.730469 L 10.800781 12.199219 L 10.800781 14.101562 L 4.199219 14.101562 L 4.199219 12.199219 L 2.28125 12.734375 C 2.144531 12.785156 1.988281 12.820312 1.828125 12.820312 C 1.152344 12.820312 0.601562 12.273438 0.601562 11.59375 C 0.601562 11.339844 0.675781 11.105469 0.8125 10.910156 L 3.976562 6.539062 C 3.976562 6.539062 4.390625 5.699219 5.367188 5.699219 Z M 7.5 12.777344 L 9.976562 11.953125 L 9.921875 11.9375 C 8.210938 11.4375 8.867188 9.171875 10.574219 9.679688 L 10.800781 9.757812 L 10.800781 7.203125 L 7.503906 8.289062 L 4.199219 7.203125 L 4.199219 9.757812 L 4.425781 9.679688 C 6.132812 9.171875 6.796875 11.4375 5.085938 11.9375 L 5.023438 11.953125 Z M 7.5 12.777344 "></path> </svg>