<?xml version="1.0" encoding="utf-8"?> <!DOCTYPE svg PUBLIC "-//W3C//DTD SVG 1.1//EN" "http://www.w3.org/Graphics/SVG/1.1/DTD/svg11.dtd"><svg version="1.1" id="marker-circle-blue" xmlns="http://www.w3.org/2000/svg" xmlns:xlink="http://www.w3.org/1999/xlink" x="0px"  y="0px" width="24px" height="36px" viewBox="0 0 24 36" enable-background="new 0 0 24 36" xml:space="preserve"><path fill="#A23337" d="M12,0C5.371,0,0,5.903,0,13.187c0,0.829,0.079,1.643,0.212,2.424c0.302,1.785,0.924,3.448,1.81,4.901
	l0.107,0.163L11.965,36l9.952-15.393l0.045-0.064c0.949-1.555,1.595-3.343,1.875-5.269C23.934,14.589,24,13.899,24,13.187
	C24,5.905,18.629,0,12,0z"></path><path fill="#ffffff" transform="translate(4.5 4.5)" d="M7.667969,10.851562C8.746094,15.894531,14.84375,11.765625,8.789062,8.253906C15.460938,12.125,15.476562,2.878906,8.800781,6.746094C15.476562,2.878906,7.507812,-1.746094,7.503906,5.996094C7.507812,-1.746094,-0.464844,2.875,6.207031,6.746094C-0.464844,2.875,-0.472656,12.121094,6.203125,8.253906C0.144531,11.765625,6.226562,15.898438,7.304688,10.84375ZM6.703125,7.5C6.703125,7.054688,7.0625,6.695312,7.503906,6.695312C7.949219,6.695312,8.304688,7.054688,8.304688,7.5C8.304688,7.945312,7.949219,8.308594,7.503906,8.308594C7.0625,8.308594,6.703125,7.945312,6.703125,7.5ZM6.703125,7.5"></path> </svg>