<?xml version="1.0" encoding="utf-8"?> <!DOCTYPE svg PUBLIC "-//W3C//DTD SVG 1.1//EN" "http://www.w3.org/Graphics/SVG/1.1/DTD/svg11.dtd"><svg version="1.1" id="marker-circle-blue" xmlns="http://www.w3.org/2000/svg" xmlns:xlink="http://www.w3.org/1999/xlink" x="0px"  y="0px" width="24px" height="36px" viewBox="0 0 24 36" enable-background="new 0 0 24 36" xml:space="preserve"><path fill="#EF9228" d="M12,0C5.371,0,0,5.903,0,13.187c0,0.829,0.079,1.643,0.212,2.424c0.302,1.785,0.924,3.448,1.81,4.901
	l0.107,0.163L11.965,36l9.952-15.393l0.045-0.064c0.949-1.555,1.595-3.343,1.875-5.269C23.934,14.589,24,13.899,24,13.187
	C24,5.905,18.629,0,12,0z"></path><path fill="#ffffff" transform="translate(4.5 4.5)" d="M1.800781,14.25C1.800781,14.621094,2.03125,14.851562,2.398438,14.851562C2.769531,14.851562,3,14.621094,3,14.25L3,8.699219L3.601562,8.699219L3.601562,14.25C3.601562,14.621094,3.832031,14.851562,4.199219,14.851562C4.570312,14.851562,4.800781,14.621094,4.800781,14.25L4.800781,4.800781L5.101562,4.800781L5.101562,8.195312C5.101562,8.914062,6,8.914062,6,8.195312L6,4.546875C6,3.753906,5.429688,3.300781,4.5,3.300781L2.101562,3.300781C1.253906,3.300781,0.601562,3.664062,0.601562,4.527344L0.601562,8.398438C0.601562,9,1.5,9,1.5,8.398438L1.5,4.800781L1.800781,4.800781ZM1.800781,14.25"></path> <path fill="#ffffff" transform="translate(4.5 4.5)" d="M4.5,1.539062C4.5,2.222656,3.945312,2.773438,3.261719,2.773438C2.578125,2.773438,2.023438,2.222656,2.023438,1.539062C2.023438,0.855469,2.578125,0.300781,3.261719,0.300781C3.945312,0.300781,4.5,0.855469,4.5,1.539062ZM4.5,1.539062"></path> <path fill="#ffffff" transform="translate(4.5 4.5)" d="M12,1.539062C12,2.222656,11.445312,2.773438,10.761719,2.773438C10.078125,2.773438,9.523438,2.222656,9.523438,1.539062C9.523438,0.855469,10.078125,0.300781,10.761719,0.300781C11.445312,0.300781,12,0.855469,12,1.539062ZM12,1.539062"></path> <path fill="#ffffff" transform="translate(4.5 4.5)" d="M13.773438,9.75L12,4.878906L11.992188,4.828125C11.992188,4.757812,12.050781,4.699219,12.125,4.699219C12.1875,4.699219,12.242188,4.742188,12.253906,4.796875L13.460938,7.949219C13.539062,8.128906,13.871094,8.25,14.085938,8.25C14.375,8.25,14.40625,7.679688,14.398438,7.648438L13.195312,4.617188C13.089844,3.921875,12.386719,3.300781,11.585938,3.300781L10.015625,3.300781C9.210938,3.300781,8.457031,3.921875,8.351562,4.617188L7.199219,7.6875C7.175781,7.746094,7.199219,8.269531,7.511719,8.269531C7.757812,8.269531,8.082031,8.175781,8.140625,7.960938L9.300781,4.789062C9.320312,4.742188,9.371094,4.703125,9.429688,4.703125C9.503906,4.703125,9.5625,4.757812,9.5625,4.828125L9.554688,4.875L7.828125,9.75C7.824219,9.765625,7.828125,10.109375,7.828125,10.125C7.828125,10.230469,8.078125,10.5,8.1875,10.5L9.300781,10.5L9.300781,14.277344C9.300781,14.589844,9.574219,14.851562,9.898438,14.851562C10.226562,14.851562,10.5,14.589844,10.5,14.277344L10.5,10.347656C10.5,10.261719,11.101562,10.265625,11.101562,10.351562L11.101562,14.25C11.101562,14.5625,11.375,14.851562,11.699219,14.851562C12.027344,14.851562,12.300781,14.5625,12.300781,14.25L12.300781,10.5L13.460938,10.5C13.570312,10.5,13.773438,10.230469,13.773438,10.125C13.773438,10.101562,13.78125,9.769531,13.773438,9.75ZM13.773438,9.75"></path> </svg>