<?xml version="1.0" encoding="utf-8"?> <!DOCTYPE svg PUBLIC "-//W3C//DTD SVG 1.1//EN" "http://www.w3.org/Graphics/SVG/1.1/DTD/svg11.dtd"><svg version="1.1" id="marker-circle-blue" xmlns="http://www.w3.org/2000/svg" xmlns:xlink="http://www.w3.org/1999/xlink" x="0px"  y="0px" width="24px" height="36px" viewBox="0 0 24 36" enable-background="new 0 0 24 36" xml:space="preserve"><path fill="#EF9228" d="M12,0C5.371,0,0,5.903,0,13.187c0,0.829,0.079,1.643,0.212,2.424c0.302,1.785,0.924,3.448,1.81,4.901
	l0.107,0.163L11.965,36l9.952-15.393l0.045-0.064c0.949-1.555,1.595-3.343,1.875-5.269C23.934,14.589,24,13.899,24,13.187
	C24,5.905,18.629,0,12,0z"></path><path fill="#ffffff" transform="translate(4.5 4.5)" d="M8.886719,0L2.101562,0L2.101562,15L5.398438,15L5.398438,10.199219L8.886719,10.199219C12.625,10.199219,14.074219,7.238281,14.074219,4.792969C14.074219,2.363281,12.625,0,8.886719,0ZM7.980469,7.199219L5.398438,7.199219L5.398438,2.699219L7.980469,2.699219C9.515625,2.699219,10.882812,3.039062,10.882812,4.945312C10.882812,6.867188,9.515625,7.199219,7.980469,7.199219ZM7.980469,7.199219"></path> </svg>