<?xml version="1.0" encoding="utf-8"?> <!DOCTYPE svg PUBLIC "-//W3C//DTD SVG 1.1//EN" "http://www.w3.org/Graphics/SVG/1.1/DTD/svg11.dtd"><svg version="1.1" id="marker-circle-blue" xmlns="http://www.w3.org/2000/svg" xmlns:xlink="http://www.w3.org/1999/xlink" x="0px"  y="0px" width="24px" height="36px" viewBox="0 0 24 36" enable-background="new 0 0 24 36" xml:space="preserve"><path fill="#A23337" d="M12,0C5.371,0,0,5.903,0,13.187c0,0.829,0.079,1.643,0.212,2.424c0.302,1.785,0.924,3.448,1.81,4.901
	l0.107,0.163L11.965,36l9.952-15.393l0.045-0.064c0.949-1.555,1.595-3.343,1.875-5.269C23.934,14.589,24,13.899,24,13.187
	C24,5.905,18.629,0,12,0z"></path><path fill="#ffffff" transform="translate(4.5 4.5)" d="M14.195312,8.035156C14.195312,8.179688,14.144531,8.304688,14.039062,8.414062C13.929688,8.519531,13.804688,8.570312,13.660156,8.570312L11.785156,8.570312C11.785156,9.527344,11.597656,10.335938,11.226562,11L12.964844,12.75C13.070312,12.855469,13.125,12.980469,13.125,13.125C13.125,13.269531,13.070312,13.394531,12.964844,13.5C12.867188,13.609375,12.738281,13.660156,12.589844,13.660156C12.4375,13.660156,12.3125,13.609375,12.210938,13.5L10.554688,11.851562C10.527344,11.878906,10.484375,11.917969,10.429688,11.960938C10.375,12.007812,10.257812,12.085938,10.078125,12.199219C9.898438,12.3125,9.71875,12.417969,9.535156,12.503906C9.351562,12.59375,9.121094,12.675781,8.847656,12.75C8.574219,12.820312,8.304688,12.855469,8.035156,12.855469L8.035156,5.355469L6.964844,5.355469L6.964844,12.855469C6.679688,12.855469,6.394531,12.820312,6.113281,12.742188C5.832031,12.667969,5.589844,12.578125,5.386719,12.46875C5.183594,12.359375,5,12.25,4.835938,12.140625C4.667969,12.03125,4.546875,11.941406,4.46875,11.871094L4.34375,11.753906L2.8125,13.484375C2.699219,13.601562,2.566406,13.660156,2.410156,13.660156C2.277344,13.660156,2.15625,13.617188,2.050781,13.527344C1.945312,13.425781,1.886719,13.300781,1.878906,13.15625C1.871094,13.007812,1.914062,12.875,2.007812,12.765625L3.699219,10.863281C3.375,10.230469,3.214844,9.464844,3.214844,8.570312L1.339844,8.570312C1.195312,8.570312,1.070312,8.519531,0.960938,8.414062C0.855469,8.304688,0.804688,8.179688,0.804688,8.035156C0.804688,7.890625,0.855469,7.765625,0.960938,7.660156C1.070312,7.554688,1.195312,7.5,1.339844,7.5L3.214844,7.5L3.214844,5.039062L1.765625,3.589844C1.660156,3.484375,1.605469,3.359375,1.605469,3.214844C1.605469,3.070312,1.660156,2.945312,1.765625,2.835938C1.871094,2.730469,1.996094,2.679688,2.144531,2.679688C2.289062,2.679688,2.414062,2.730469,2.519531,2.835938L3.96875,4.285156L11.03125,4.285156L12.480469,2.835938C12.585938,2.730469,12.710938,2.679688,12.855469,2.679688C13.003906,2.679688,13.128906,2.730469,13.234375,2.835938C13.339844,2.945312,13.394531,3.070312,13.394531,3.214844C13.394531,3.359375,13.339844,3.484375,13.234375,3.589844L11.785156,5.039062L11.785156,7.5L13.660156,7.5C13.804688,7.5,13.929688,7.554688,14.039062,7.660156C14.144531,7.765625,14.195312,7.890625,14.195312,8.035156ZM10.179688,3.214844L4.820312,3.214844C4.820312,2.472656,5.082031,1.839844,5.605469,1.320312C6.125,0.796875,6.757812,0.535156,7.5,0.535156C8.242188,0.535156,8.875,0.796875,9.394531,1.320312C9.917969,1.839844,10.179688,2.472656,10.179688,3.214844ZM10.179688,3.214844"></path> </svg>