<?xml version="1.0" encoding="utf-8"?> <!DOCTYPE svg PUBLIC "-//W3C//DTD SVG 1.1//EN" "http://www.w3.org/Graphics/SVG/1.1/DTD/svg11.dtd"><svg version="1.1" id="marker-circle-blue" xmlns="http://www.w3.org/2000/svg" xmlns:xlink="http://www.w3.org/1999/xlink" x="0px"  y="0px" width="24px" height="36px" viewBox="0 0 24 36" enable-background="new 0 0 24 36" xml:space="preserve"><path fill="#EF9228" d="M12,0C5.371,0,0,5.903,0,13.187c0,0.829,0.079,1.643,0.212,2.424c0.302,1.785,0.924,3.448,1.81,4.901
	l0.107,0.163L11.965,36l9.952-15.393l0.045-0.064c0.949-1.555,1.595-3.343,1.875-5.269C23.934,14.589,24,13.899,24,13.187
	C24,5.905,18.629,0,12,0z"></path><path fill="#ffffff" transform="translate(4.5 4.5)" d="M13.929688,1.875L13.929688,11.25C13.929688,11.527344,13.832031,11.777344,13.644531,11.996094C13.453125,12.210938,13.214844,12.382812,12.925781,12.5C12.632812,12.621094,12.34375,12.710938,12.058594,12.769531C11.769531,12.828125,11.5,12.855469,11.25,12.855469C11,12.855469,10.730469,12.828125,10.441406,12.769531C10.15625,12.710938,9.867188,12.621094,9.574219,12.5C9.285156,12.382812,9.046875,12.210938,8.855469,11.996094C8.667969,11.777344,8.570312,11.527344,8.570312,11.25C8.570312,10.972656,8.667969,10.722656,8.855469,10.503906C9.046875,10.289062,9.285156,10.117188,9.574219,10C9.867188,9.878906,10.15625,9.789062,10.441406,9.730469C10.730469,9.671875,11,9.644531,11.25,9.644531C11.835938,9.644531,12.371094,9.75,12.855469,9.96875L12.855469,5.472656L6.429688,7.457031L6.429688,13.394531C6.429688,13.671875,6.332031,13.921875,6.144531,14.136719C5.953125,14.355469,5.714844,14.523438,5.425781,14.644531C5.132812,14.765625,4.84375,14.851562,4.558594,14.914062C4.269531,14.96875,4,15,3.75,15C3.5,15,3.230469,14.96875,2.941406,14.914062C2.65625,14.851562,2.367188,14.765625,2.074219,14.644531C1.785156,14.523438,1.546875,14.355469,1.355469,14.136719C1.167969,13.921875,1.070312,13.671875,1.070312,13.394531C1.070312,13.113281,1.167969,12.867188,1.355469,12.648438C1.546875,12.429688,1.785156,12.261719,2.074219,12.140625C2.367188,12.019531,2.65625,11.933594,2.941406,11.875C3.230469,11.816406,3.5,11.785156,3.75,11.785156C4.335938,11.785156,4.871094,11.894531,5.355469,12.113281L5.355469,4.019531C5.355469,3.84375,5.410156,3.6875,5.515625,3.546875C5.621094,3.402344,5.757812,3.304688,5.925781,3.246094L12.890625,1.105469C12.957031,1.082031,13.035156,1.070312,13.125,1.070312C13.347656,1.070312,13.539062,1.148438,13.695312,1.304688C13.851562,1.460938,13.929688,1.652344,13.929688,1.875ZM13.929688,1.875"></path> </svg>