<?xml version="1.0" encoding="utf-8"?> <!DOCTYPE svg PUBLIC "-//W3C//DTD SVG 1.1//EN" "http://www.w3.org/Graphics/SVG/1.1/DTD/svg11.dtd"><svg version="1.1" id="marker-circle-blue" xmlns="http://www.w3.org/2000/svg" xmlns:xlink="http://www.w3.org/1999/xlink" x="0px"  y="0px" width="24px" height="36px" viewBox="0 0 24 36" enable-background="new 0 0 24 36" xml:space="preserve"><path fill="#A23337" d="M12,0C5.371,0,0,5.903,0,13.187c0,0.829,0.079,1.643,0.212,2.424c0.302,1.785,0.924,3.448,1.81,4.901
	l0.107,0.163L11.965,36l9.952-15.393l0.045-0.064c0.949-1.555,1.595-3.343,1.875-5.269C23.934,14.589,24,13.899,24,13.187
	C24,5.905,18.629,0,12,0z"></path><path fill="#ffffff" transform="translate(4.5 4.5)" d="M14,4h-4v3.44l0,0c0,0,0,0,0,0.06c0.003,0.9096,0.6193,1.7026,1.5,1.93V13H11c-0.2761,0-0.5,0.2239-0.5,0.5
	S10.7239,14,11,14h2c0.2761,0,0.5-0.2239,0.5-0.5S13.2761,13,13,13h-0.5V9.43c0.8807-0.2274,1.497-1.0204,1.5-1.93c0,0,0,0,0-0.06
	l0,0V4z M13,7.5c0,0.5523-0.4477,1-1,1s-1-0.4477-1-1V5h2V7.5z M5.5,2.5V2C5.7761,2,6,1.7761,6,1.5S5.7761,1,5.5,1V0.5
	C5.5,0.2239,5.2761,0,5,0H4C3.7239,0,3.5,0.2239,3.5,0.5V1C3.2239,1,3,1.2239,3,1.5S3.2239,2,3.5,2v0.5C3.5,3.93,1,5.57,1,7v6
	c0,0.5523,0.4477,1,1,1h5c0.5318-0.0465,0.9535-0.4682,1-1V7C8,5.65,5.5,3.85,5.5,2.5z M4.5,12C3.1193,12,2,10.8807,2,9.5
	S3.1193,7,4.5,7S7,8.1193,7,9.5S5.8807,12,4.5,12z"></path> </svg>