<?xml version="1.0" encoding="utf-8"?> <!DOCTYPE svg PUBLIC "-//W3C//DTD SVG 1.1//EN" "http://www.w3.org/Graphics/SVG/1.1/DTD/svg11.dtd"><svg version="1.1" id="marker-circle-blue" xmlns="http://www.w3.org/2000/svg" xmlns:xlink="http://www.w3.org/1999/xlink" x="0px"  y="0px" width="24px" height="36px" viewBox="0 0 24 36" enable-background="new 0 0 24 36" xml:space="preserve"><path fill="#F5BB3A" d="M12,0C5.371,0,0,5.903,0,13.187c0,0.829,0.079,1.643,0.212,2.424c0.302,1.785,0.924,3.448,1.81,4.901
	l0.107,0.163L11.965,36l9.952-15.393l0.045-0.064c0.949-1.555,1.595-3.343,1.875-5.269C23.934,14.589,24,13.899,24,13.187
	C24,5.905,18.629,0,12,0z"></path><path fill="#ffffff" transform="translate(4.5 4.5)" d="M 4.269531 11.851562 L 13.414062 11.851562 L 13.414062 4.027344 L 4.269531 4.027344 Z M 8.917969 4.804688 L 12.214844 7.683594 L 11.382812 7.683594 L 11.382812 11.140625 L 9.453125 11.140625 L 9.453125 8.699219 L 8.234375 8.699219 L 8.234375 11.140625 L 6.40625 11.140625 L 6.40625 7.683594 L 5.554688 7.683594 Z M 3.253906 2.09375 L 3.253906 0.304688 L 1.222656 0.304688 L 1.222656 15 L 3.253906 15 L 3.253906 3.011719 L 13.824219 3.011719 L 13.824219 2.09375 Z M 3.253906 2.09375 "></path> </svg>