<?xml version="1.0" encoding="utf-8"?> <!DOCTYPE svg PUBLIC "-//W3C//DTD SVG 1.1//EN" "http://www.w3.org/Graphics/SVG/1.1/DTD/svg11.dtd"><svg version="1.1" id="marker-circle-blue" xmlns="http://www.w3.org/2000/svg" xmlns:xlink="http://www.w3.org/1999/xlink" x="0px"  y="0px" width="24px" height="36px" viewBox="0 0 24 36" enable-background="new 0 0 24 36" xml:space="preserve"><path fill="#A23337" d="M12,0C5.371,0,0,5.903,0,13.187c0,0.829,0.079,1.643,0.212,2.424c0.302,1.785,0.924,3.448,1.81,4.901
	l0.107,0.163L11.965,36l9.952-15.393l0.045-0.064c0.949-1.555,1.595-3.343,1.875-5.269C23.934,14.589,24,13.899,24,13.187
	C24,5.905,18.629,0,12,0z"></path><path fill="#ffffff" transform="translate(4.5 4.5)" d="M10,1C9.4477,1,9,1.4477,9,2c0,0.5523,0.4477,1,1,1s1,-0.4477,1,-1C11,1.4477,10.5523,1,10,1zM8.1445,2.9941c-0.13,0.0005,-0.2547,0.0517,-0.3477,0.1426l-2.6406,2.5c-0.2256,0.2128,-0.2051,0.5775,0.043,0.7637L7,7.75v2.75c-0.01,0.6762,1.0096,0.6762,1,0v-3c0.0003,-0.1574,-0.0735,-0.3057,-0.1992,-0.4004L7.0332,6.5234l1.818,-1.7212l0.7484,0.9985C9.6943,5.9265,9.8426,6.0003,10,6h1.5c0.6761,0.01,0.6761,-1.0096,0,-1h-1.25L9.5,4L8.9004,3.1992C8.8103,3.0756,8.6685,3,8.5156,2.9941H8.1445zM3,7c-1.6569,0,-3,1.3432,-3,3s1.3431,3,3,3s3,-1.3432,3,-3S4.6569,7,3,7zM12,7c-1.6569,0,-3,1.3432,-3,3s1.3431,3,3,3s3,-1.3432,3,-3S13.6569,7,12,7zM3,8c1.1046,0,2,0.8954,2,2s-0.8954,2,-2,2s-2,-0.8954,-2,-2S1.8954,8,3,8zM12,8c1.1046,0,2,0.8954,2,2s-0.8954,2,-2,2s-2,-0.8954,-2,-2S10.8954,8,12,8z"></path> </svg>