<?xml version="1.0" encoding="utf-8"?> <!DOCTYPE svg PUBLIC "-//W3C//DTD SVG 1.1//EN" "http://www.w3.org/Graphics/SVG/1.1/DTD/svg11.dtd"><svg version="1.1" id="marker-circle-blue" xmlns="http://www.w3.org/2000/svg" xmlns:xlink="http://www.w3.org/1999/xlink" x="0px"  y="0px" width="24px" height="36px" viewBox="0 0 24 36" enable-background="new 0 0 24 36" xml:space="preserve"><path fill="#000000" d="M12,0C5.371,0,0,5.903,0,13.187c0,0.829,0.079,1.643,0.212,2.424c0.302,1.785,0.924,3.448,1.81,4.901
	l0.107,0.163L11.965,36l9.952-15.393l0.045-0.064c0.949-1.555,1.595-3.343,1.875-5.269C23.934,14.589,24,13.899,24,13.187
	C24,5.905,18.629,0,12,0z"></path><path fill="#ffffff" transform="translate(4.5 4.5)" d="m7.4469797,0.70012754c-2.6523295,0,-4.9157495,2.03036806,-4.9157495,4.60359296h2.8675205c0,-0.9641607,0.8544596,-1.8014059,2.048229,-1.8014059c1.1937692,0,2.0482288,0.8372452,2.0482288,1.8014059c0,0.6004687,-0.095277,0.7818931,-0.8456944,1.1485528C7.3647662,7.0800112,6.3075482,7.93128,6.0412224,9.232568C5.8912756,9.9652196,5.8145199,10.585345,5.8540015,11.188001h2.8627199v-0.126662l-0.0032,-0.04613C8.7002774,10.82109,8.7306074,10.378165,8.8527371,9.7814337C8.8595071,9.7483477,9.031228,9.3986785,9.9312576,8.9589165C11.365613,8.2580767,12.362725,6.838251,12.362725,5.3037201c0,-2.5732248,-2.26342,-4.60359291,-4.9157501,-4.60359291zM5.8492009,11.108251v0.07975h0.00242zm0,1.280687v2.802187h2.8675205v-2.802187z"></path> </svg>