<?xml version="1.0" encoding="utf-8"?> <!DOCTYPE svg PUBLIC "-//W3C//DTD SVG 1.1//EN" "http://www.w3.org/Graphics/SVG/1.1/DTD/svg11.dtd"><svg version="1.1" id="marker-circle-blue" xmlns="http://www.w3.org/2000/svg" xmlns:xlink="http://www.w3.org/1999/xlink" x="0px"  y="0px" width="24px" height="36px" viewBox="0 0 24 36" enable-background="new 0 0 24 36" xml:space="preserve"><path fill="#EF9228" d="M12,0C5.371,0,0,5.903,0,13.187c0,0.829,0.079,1.643,0.212,2.424c0.302,1.785,0.924,3.448,1.81,4.901
	l0.107,0.163L11.965,36l9.952-15.393l0.045-0.064c0.949-1.555,1.595-3.343,1.875-5.269C23.934,14.589,24,13.899,24,13.187
	C24,5.905,18.629,0,12,0z"></path><path fill="#ffffff" transform="translate(4.5 4.5)" d="M 11.804688 5.101562 L 3.121094 5.101562 C 1.570312 5.101562 0.300781 6.191406 0.300781 7.648438 C 0.300781 9.109375 1.570312 10.199219 3.121094 10.199219 L 11.804688 10.199219 C 13.355469 10.199219 14.625 9.109375 14.625 7.648438 C 14.625 6.191406 13.355469 5.101562 11.804688 5.101562 Z M 11.804688 9.601562 L 7.5 9.601562 L 7.5 5.699219 L 11.804688 5.699219 C 12.949219 5.699219 13.886719 6.574219 13.886719 7.648438 C 13.886719 8.726562 12.949219 9.601562 11.804688 9.601562 Z M 11.804688 9.601562 "></path> </svg>