<?xml version="1.0" encoding="utf-8"?> <!DOCTYPE svg PUBLIC "-//W3C//DTD SVG 1.1//EN" "http://www.w3.org/Graphics/SVG/1.1/DTD/svg11.dtd"><svg version="1.1" id="marker-circle-blue" xmlns="http://www.w3.org/2000/svg" xmlns:xlink="http://www.w3.org/1999/xlink" x="0px"  y="0px" width="24px" height="36px" viewBox="0 0 24 36" enable-background="new 0 0 24 36" xml:space="preserve"><path fill="#A23337" d="M12,0C5.371,0,0,5.903,0,13.187c0,0.829,0.079,1.643,0.212,2.424c0.302,1.785,0.924,3.448,1.81,4.901
	l0.107,0.163L11.965,36l9.952-15.393l0.045-0.064c0.949-1.555,1.595-3.343,1.875-5.269C23.934,14.589,24,13.899,24,13.187
	C24,5.905,18.629,0,12,0z"></path><path fill="#ffffff" transform="translate(4.5 4.5)" d="M14.335938,3.566406C14.128906,3.402344,13.574219,3.273438,13.160156,3.175781L12.601562,3.097656L12.601562,1.746094L12.886719,1.738281C13.15625,1.875,13.542969,2.101562,13.5625,2.398438L14.644531,2.398438C14.625,1.800781,14.167969,1.421875,13.765625,1.121094C13.496094,0.921875,13.199219,0.816406,12.601562,0.75L12.601562,0L12,0L12,0.726562C11.398438,0.785156,11.207031,0.933594,10.933594,1.179688C10.582031,1.496094,10.421875,1.898438,10.421875,2.378906C10.421875,2.90625,10.574219,3.292969,10.9375,3.542969C11.140625,3.683594,11.398438,3.816406,12,3.9375L12,5.40625C11.699219,5.351562,11.699219,5.363281,11.59375,5.238281C11.492188,5.117188,11.464844,4.800781,11.429688,4.800781L10.355469,4.800781C10.355469,5.398438,10.519531,5.6875,10.925781,6.007812C11.21875,6.238281,11.398438,6.277344,12,6.339844L12,6.898438L12.601562,6.898438L12.601562,6.347656C13.199219,6.292969,13.710938,6.136719,14.003906,5.886719C14.382812,5.5625,14.695312,5.15625,14.695312,4.664062C14.695312,4.183594,14.65625,3.820312,14.335938,3.566406ZM11.707031,2.730469C11.53125,2.632812,11.464844,2.488281,11.464844,2.296875C11.464844,2.089844,11.523438,1.925781,11.699219,1.808594C11.792969,1.746094,11.699219,1.703125,12,1.671875L12,2.855469C11.699219,2.808594,11.769531,2.765625,11.707031,2.730469ZM13.007812,5.375C12.957031,5.390625,12.601562,5.40625,12.601562,5.417969L12.601562,4.167969C13.199219,4.21875,13.152344,4.277344,13.253906,4.335938C13.410156,4.433594,13.488281,4.570312,13.488281,4.75C13.488281,5.054688,13.328125,5.261719,13.007812,5.375ZM11.554688,9L11.390625,9L9.546875,5.664062C9.46875,5.519531,9.265625,5.398438,9.101562,5.398438L3.507812,5.398438C3.34375,5.398438,3.144531,5.519531,3.066406,5.664062L1.222656,9L1.054688,9C0.726562,9,0.300781,9.269531,0.300781,9.601562L0.300781,12.601562C0.300781,12.929688,0.726562,13.199219,1.054688,13.199219L1.5,13.199219L1.5,14.101562C1.5,14.59375,2.0625,15,2.554688,15L2.855469,15C3.351562,15,3.601562,14.59375,3.601562,14.101562L3.601562,13.199219L8.699219,13.199219L8.699219,14.101562C8.699219,14.59375,9.261719,15,9.757812,15L10.054688,15C10.550781,15,10.800781,14.59375,10.800781,14.101562L10.800781,13.199219L11.554688,13.199219C11.886719,13.199219,12,12.929688,12,12.601562L12,9.601562C12,9.269531,11.886719,9,11.554688,9ZM2.105469,11.398438C1.691406,11.398438,1.355469,11.0625,1.355469,10.648438C1.355469,10.234375,1.691406,9.898438,2.105469,9.898438C2.519531,9.898438,2.855469,10.234375,2.855469,10.648438C2.855469,11.0625,2.519531,11.398438,2.105469,11.398438ZM2.707031,9L3.921875,6.570312C3.996094,6.421875,4.191406,6.300781,4.355469,6.300781L8.257812,6.300781C8.421875,6.300781,8.617188,6.421875,8.691406,6.570312L9.90625,9ZM10.507812,11.398438C10.089844,11.398438,9.757812,11.0625,9.757812,10.648438C9.757812,10.234375,10.089844,9.898438,10.507812,9.898438C10.921875,9.898438,11.257812,10.234375,11.257812,10.648438C11.257812,11.0625,10.921875,11.398438,10.507812,11.398438ZM10.507812,11.398438"></path> </svg>