<?xml version="1.0" encoding="utf-8"?> <!DOCTYPE svg PUBLIC "-//W3C//DTD SVG 1.1//EN" "http://www.w3.org/Graphics/SVG/1.1/DTD/svg11.dtd"><svg version="1.1" id="marker-circle-blue" xmlns="http://www.w3.org/2000/svg" xmlns:xlink="http://www.w3.org/1999/xlink" x="0px"  y="0px" width="24px" height="36px" viewBox="0 0 24 36" enable-background="new 0 0 24 36" xml:space="preserve"><path fill="#EF9228" d="M12,0C5.371,0,0,5.903,0,13.187c0,0.829,0.079,1.643,0.212,2.424c0.302,1.785,0.924,3.448,1.81,4.901
	l0.107,0.163L11.965,36l9.952-15.393l0.045-0.064c0.949-1.555,1.595-3.343,1.875-5.269C23.934,14.589,24,13.899,24,13.187
	C24,5.905,18.629,0,12,0z"></path><path fill="#ffffff" transform="translate(4.5 4.5)" d="M 7.601562 7.289062 C 7.601562 7.289062 6.148438 8.457031 6.148438 9.402344 C 6.148438 9.824219 6.769531 10.246094 7.601562 10.246094 C 8.429688 10.246094 9.050781 9.824219 9.050781 9.402344 C 9.050781 8.421875 7.601562 7.289062 7.601562 7.289062 Z M 12.894531 5.15625 C 12.976562 4.125 13.273438 3.183594 13.800781 2.316406 L 11.785156 0.300781 C 11.148438 0.847656 10.421875 1.152344 9.601562 1.207031 C 8.847656 1.273438 8.132812 1.128906 7.460938 0.773438 C 6.773438 1.117188 6.0625 1.261719 5.320312 1.207031 C 4.554688 1.136719 3.859375 0.863281 3.242188 0.382812 L 1.21875 2.398438 C 1.71875 3.277344 1.992188 4.195312 2.046875 5.15625 C 2.074219 5.597656 1.949219 6.203125 1.664062 6.988281 C 1.519531 7.425781 1.40625 7.800781 1.328125 8.117188 C 1.257812 8.433594 1.214844 8.6875 1.199219 8.878906 C 1.191406 9.714844 1.425781 10.472656 1.90625 11.144531 C 2.28125 11.632812 2.902344 12.175781 3.765625 12.765625 C 4.707031 13.246094 5.4375 13.558594 5.949219 13.691406 L 6.371094 13.890625 C 6.503906 13.953125 6.648438 14.015625 6.796875 14.082031 C 7.117188 14.273438 7.34375 14.484375 7.460938 14.699219 C 7.609375 14.464844 7.839844 14.261719 8.144531 14.082031 C 8.363281 13.988281 8.546875 13.90625 8.691406 13.835938 L 9.011719 13.691406 C 9.121094 13.636719 9.265625 13.574219 9.4375 13.507812 C 9.613281 13.4375 9.828125 13.355469 10.085938 13.261719 C 10.582031 13.085938 10.945312 12.917969 11.175781 12.765625 C 12.011719 12.175781 12.625 11.640625 13.011719 11.164062 C 13.511719 10.492188 13.753906 9.730469 13.742188 8.878906 C 13.710938 8.496094 13.550781 7.882812 13.257812 7.050781 C 12.976562 6.238281 12.851562 5.609375 12.894531 5.15625 Z M 7.601562 11.089844 C 5.769531 11.089844 4.074219 9.578125 4.074219 7.710938 C 4.074219 6.445312 5.042969 5.246094 5.320312 4.753906 L 6.148438 6.023438 L 7.601562 3.910156 L 9.050781 6.023438 L 9.882812 4.753906 C 10.15625 5.246094 11.125 6.445312 11.125 7.710938 C 11.125 9.578125 9.433594 11.089844 7.601562 11.089844 Z M 7.601562 11.089844 "></path> </svg>