<?xml version="1.0" encoding="utf-8"?> <!DOCTYPE svg PUBLIC "-//W3C//DTD SVG 1.1//EN" "http://www.w3.org/Graphics/SVG/1.1/DTD/svg11.dtd"><svg version="1.1" id="marker-circle-blue" xmlns="http://www.w3.org/2000/svg" xmlns:xlink="http://www.w3.org/1999/xlink" x="0px"  y="0px" width="24px" height="36px" viewBox="0 0 24 36" enable-background="new 0 0 24 36" xml:space="preserve"><path fill="#EF9228" d="M12,0C5.371,0,0,5.903,0,13.187c0,0.829,0.079,1.643,0.212,2.424c0.302,1.785,0.924,3.448,1.81,4.901
	l0.107,0.163L11.965,36l9.952-15.393l0.045-0.064c0.949-1.555,1.595-3.343,1.875-5.269C23.934,14.589,24,13.899,24,13.187
	C24,5.905,18.629,0,12,0z"></path><path fill="#ffffff" transform="translate(4.5 4.5)" d="M5.5,1L6,2h5l0.5,-1H5.5zM6,2.5v1.25c0,0,0,2.75,2.5,2.75S11,3.75,11,3.75V2.5H6zM1.9844,3.9863C1.4329,3.9949,0.9924,4.4485,1,5v4c-0.0001,0.6398,0.5922,1.1152,1.2168,0.9766L5,9.3574V14l5.8789,-6.9297C10.7391,7.0294,10.5947,7,10.4414,7H6.5L3,7.7539V5C3.0077,4.4362,2.5481,3.9775,1.9844,3.9863zM11.748,7.7109L6.4121,14H12V8.5586C12,8.2451,11.9061,7.9548,11.748,7.7109z"></path> </svg>