<?xml version="1.0" encoding="utf-8"?> <!DOCTYPE svg PUBLIC "-//W3C//DTD SVG 1.1//EN" "http://www.w3.org/Graphics/SVG/1.1/DTD/svg11.dtd"><svg version="1.1" id="marker-circle-blue" xmlns="http://www.w3.org/2000/svg" xmlns:xlink="http://www.w3.org/1999/xlink" x="0px"  y="0px" width="24px" height="36px" viewBox="0 0 24 36" enable-background="new 0 0 24 36" xml:space="preserve"><path fill="#A23337" d="M12,0C5.371,0,0,5.903,0,13.187c0,0.829,0.079,1.643,0.212,2.424c0.302,1.785,0.924,3.448,1.81,4.901
	l0.107,0.163L11.965,36l9.952-15.393l0.045-0.064c0.949-1.555,1.595-3.343,1.875-5.269C23.934,14.589,24,13.899,24,13.187
	C24,5.905,18.629,0,12,0z"></path><path fill="#ffffff" transform="translate(4.5 4.5)" d="M13.941406,6.199219L13.9375,6.167969C13.929688,6.125,13.914062,6.082031,13.902344,6.058594L12,3C12,3,11.757812,2.699219,11.699219,2.699219L3.601562,2.699219L1.164062,5.957031L1.136719,5.984375L1.132812,6C1.113281,6.03125,1.09375,6.066406,1.082031,6.105469L1.070312,6.132812C1.054688,6.183594,1.050781,6.226562,1.050781,6.292969C1.054688,6.332031,1.0625,6.375,1.074219,6.417969L1.085938,6.453125C1.101562,6.492188,1.121094,6.527344,1.144531,6.558594L7.03125,14.015625L7.042969,14.035156C7.074219,14.074219,7.109375,14.109375,7.15625,14.140625L7.191406,14.160156C7.222656,14.183594,7.257812,14.199219,7.308594,14.21875L7.34375,14.226562C7.402344,14.242188,7.449219,14.25,7.5,14.25C7.550781,14.25,7.597656,14.242188,7.664062,14.226562L7.703125,14.210938C7.742188,14.199219,7.777344,14.179688,7.820312,14.15625L7.84375,14.140625C7.890625,14.105469,7.925781,14.070312,7.949219,14.042969L13.84375,6.578125C13.871094,6.542969,13.894531,6.503906,13.917969,6.4375C13.933594,6.398438,13.941406,6.363281,13.941406,6.339844L13.949219,6.300781L13.949219,6.269531ZM10.78125,6L11.621094,4.480469L12.460938,6ZM10.277344,6.898438L12.269531,6.898438L8.949219,11.105469ZM9.785156,5.542969L8.574219,3.898438L10.695312,3.898438ZM5.902344,6.898438L9.097656,6.898438L7.5,11.964844ZM6.21875,6L7.5,4.261719L8.78125,6ZM5.316406,5.410156L4.761719,3.898438L6.429688,3.898438ZM6.050781,11.105469L2.730469,6.898438L4.722656,6.898438ZM3.800781,4.492188L4.355469,6L2.6875,6ZM3.800781,4.492188"></path> </svg>