<?xml version="1.0" encoding="utf-8"?> <!DOCTYPE svg PUBLIC "-//W3C//DTD SVG 1.1//EN" "http://www.w3.org/Graphics/SVG/1.1/DTD/svg11.dtd"><svg version="1.1" id="marker-circle-blue" xmlns="http://www.w3.org/2000/svg" xmlns:xlink="http://www.w3.org/1999/xlink" x="0px"  y="0px" width="24px" height="36px" viewBox="0 0 24 36" enable-background="new 0 0 24 36" xml:space="preserve"><path fill="#EF9228" d="M12,0C5.371,0,0,5.903,0,13.187c0,0.829,0.079,1.643,0.212,2.424c0.302,1.785,0.924,3.448,1.81,4.901
	l0.107,0.163L11.965,36l9.952-15.393l0.045-0.064c0.949-1.555,1.595-3.343,1.875-5.269C23.934,14.589,24,13.899,24,13.187
	C24,5.905,18.629,0,12,0z"></path><path fill="#ffffff" transform="translate(4.5 4.5)" d="M 14.699219 3.148438 C 14.882812 3.007812 15 2.792969 15 2.550781 C 15 2.136719 14.664062 1.800781 14.25 1.800781 C 13.835938 1.800781 13.5 2.136719 13.5 2.550781 C 13.5 2.792969 13.617188 3.007812 13.800781 3.148438 L 13.800781 7.800781 L 11.101562 7.800781 L 11.101562 10.199219 L 14.101562 10.199219 L 14.101562 10.109375 C 14.539062 9.933594 14.851562 9.503906 14.851562 9 C 14.851562 8.792969 14.792969 8.601562 14.699219 8.429688 Z M 1.800781 5.101562 C 2.105469 5.101562 2.320312 5.152344 2.699219 5.101562 C 2.699219 5.101562 1.496094 5.898438 1.496094 6.898438 L 3 6.898438 C 3 6.898438 3 5.234375 3.898438 4.199219 L 3.601562 3.898438 C 3.601562 3.898438 3 4.199219 2.398438 3.898438 C 2.398438 3.898438 1.800781 3.898438 1.199219 4.199219 L 1.199219 3.898438 L 0.898438 3.898438 L 0.898438 5.699219 L 1.199219 5.699219 C 1.199219 5.699219 1.199219 5.101562 1.800781 5.101562 Z M 6 5.101562 C 6.304688 5.101562 6.519531 5.152344 6.898438 5.101562 C 6.898438 5.101562 5.695312 5.898438 5.695312 6.898438 L 7.199219 6.898438 C 7.199219 6.898438 7.203125 5.234375 8.101562 4.199219 L 7.800781 3.898438 C 7.800781 3.898438 7.199219 4.199219 6.601562 3.898438 C 6.601562 3.898438 6 3.898438 5.398438 4.199219 L 5.398438 3.898438 L 5.101562 3.898438 L 5.101562 5.699219 L 5.398438 5.699219 C 5.398438 5.699219 5.398438 5.101562 6 5.101562 Z M 11.398438 2.101562 L 11.398438 1.5 L 7.765625 1.5 C 7.628906 0.898438 7.09375 0.449219 6.449219 0.449219 C 5.808594 0.449219 5.273438 0.898438 5.136719 1.5 L 1.5 1.5 L 1.5 2.101562 L 0 2.101562 L 0 14.398438 L 13.199219 14.398438 L 13.199219 2.101562 Z M 4.800781 3.300781 L 8.398438 3.300781 L 8.398438 7.5 L 4.800781 7.5 Z M 0.601562 3.300781 L 4.199219 3.300781 L 4.199219 7.5 L 0.601562 7.5 Z M 11.398438 12.898438 L 1.5 12.898438 L 1.5 10.800781 L 11.398438 10.800781 Z M 12.601562 7.5 L 9 7.5 L 9 3.300781 L 12.601562 3.300781 Z M 10.199219 5.101562 C 10.507812 5.101562 10.71875 5.152344 11.101562 5.101562 C 11.101562 5.101562 9.894531 5.898438 9.894531 6.898438 L 11.398438 6.898438 C 11.398438 6.898438 11.402344 5.234375 12.300781 4.199219 L 12 3.898438 C 12 3.898438 11.398438 4.199219 10.800781 3.898438 C 10.800781 3.898438 10.199219 3.898438 9.601562 4.199219 L 9.601562 3.898438 L 9.300781 3.898438 L 9.300781 5.699219 L 9.601562 5.699219 C 9.601562 5.699219 9.601562 5.101562 10.199219 5.101562 Z M 10.199219 5.101562 "></path> </svg>