<?xml version="1.0" encoding="utf-8"?> <!DOCTYPE svg PUBLIC "-//W3C//DTD SVG 1.1//EN" "http://www.w3.org/Graphics/SVG/1.1/DTD/svg11.dtd"><svg version="1.1" id="marker-circle-blue" xmlns="http://www.w3.org/2000/svg" xmlns:xlink="http://www.w3.org/1999/xlink" x="0px"  y="0px" width="24px" height="36px" viewBox="0 0 24 36" enable-background="new 0 0 24 36" xml:space="preserve"><path fill="#FFBA0C" d="M12,0C5.371,0,0,5.903,0,13.187c0,0.829,0.079,1.643,0.212,2.424c0.302,1.785,0.924,3.448,1.81,4.901
	l0.107,0.163L11.965,36l9.952-15.393l0.045-0.064c0.949-1.555,1.595-3.343,1.875-5.269C23.934,14.589,24,13.899,24,13.187
	C24,5.905,18.629,0,12,0z"></path><path fill="#ffffff" transform="translate(4.5 4.5)" d="M14.639499,12.02463H14.227356V2.9574947H1.0387977V12.02463H0.62717037c-0.22770872,0,-0.41214248,0.184433,-0.41214248,0.412142v0.824285c0,0.227709,0.18443376,0.412142,0.41214248,0.412142H4.7480799c0.2277088,0,0.4121425,-0.184433,0.4121425,-0.412142V8.7274894c0,-1.3657372,1.1071177,-2.4728549,2.4728549,-2.4728549c1.3657373,0,2.4728547,1.1071177,2.4728547,2.4728549l0.000515,4.1214256v0.412142c0,0.227709,0.184434,0.412142,0.412142,0.412142h4.12091c0.227709,0,0.412142,-0.184433,0.412142,-0.412142v-0.824285c0,-0.227709,-0.184433,-0.412142,-0.412142,-0.412142zm0,-11.53999017H0.62665519c-0.22770872,0,-0.41214248,0.1844337,-0.41214248,0.4121425V1.7210672c0,0.2277088,0.18443376,0.4121425,0.41214248,0.4121425H14.639499c0.227709,0,0.412142,-0.1844337,0.412142,-0.4121425V0.89678233c0,-0.2277088,-0.184433,-0.4121425,-0.412142,-0.4121425z"></path> </svg>