<?xml version="1.0" encoding="utf-8"?> <!DOCTYPE svg PUBLIC "-//W3C//DTD SVG 1.1//EN" "http://www.w3.org/Graphics/SVG/1.1/DTD/svg11.dtd"><svg version="1.1" id="marker-circle-blue" xmlns="http://www.w3.org/2000/svg" xmlns:xlink="http://www.w3.org/1999/xlink" x="0px"  y="0px" width="24px" height="36px" viewBox="0 0 24 36" enable-background="new 0 0 24 36" xml:space="preserve"><path fill="#A23337" d="M12,0C5.371,0,0,5.903,0,13.187c0,0.829,0.079,1.643,0.212,2.424c0.302,1.785,0.924,3.448,1.81,4.901
	l0.107,0.163L11.965,36l9.952-15.393l0.045-0.064c0.949-1.555,1.595-3.343,1.875-5.269C23.934,14.589,24,13.899,24,13.187
	C24,5.905,18.629,0,12,0z"></path><path fill="#ffffff" transform="translate(4.5 4.5)" d="m13.515914,13c0,-12,0.02345,-10.0477231,0.02345,-12c0,-1,-0.0469,-1,-1.539364,-1l0,13.038526C12.048052,14.003111,12.000001,14,12.718594,14c0.765494,0,0.79732,0,0.79732,-1zM2.5075377,11.624791c1.9893914,0.633166,3.1278615,0.633166,5.0938024,-0.07035L7,4C5,4.281407,5,4.3048576,3,4ZM4.319933,0L5.718593,0L6.2730319,3c-1,0.3048576,-1.5544389,0.3048576,-2.5544389,0zm-2.2964824,14l0.2345058,-1l5.4991626,0l0.2579562,1zm7.4606365,-14l1.9597989,0l0,0.6097152l-1.9597989,0zm0,1l1.9597989,0l0,0.6097152l-1.9597989,0zm0,1l1.9597989,0l0,0.6097152l-1.9597989,0zm0,1l1.9597989,0l0,0.6097152l-1.9597989,0zm0,1l1.9597989,0l0,0.6097152l-1.9597989,0z"></path> </svg>