<?xml version="1.0" encoding="utf-8"?> <!DOCTYPE svg PUBLIC "-//W3C//DTD SVG 1.1//EN" "http://www.w3.org/Graphics/SVG/1.1/DTD/svg11.dtd"><svg version="1.1" id="marker-circle-blue" xmlns="http://www.w3.org/2000/svg" xmlns:xlink="http://www.w3.org/1999/xlink" x="0px"  y="0px" width="24px" height="36px" viewBox="0 0 24 36" enable-background="new 0 0 24 36" xml:space="preserve"><path fill="#A23337" d="M12,0C5.371,0,0,5.903,0,13.187c0,0.829,0.079,1.643,0.212,2.424c0.302,1.785,0.924,3.448,1.81,4.901
	l0.107,0.163L11.965,36l9.952-15.393l0.045-0.064c0.949-1.555,1.595-3.343,1.875-5.269C23.934,14.589,24,13.899,24,13.187
	C24,5.905,18.629,0,12,0z"></path><path fill="#ffffff" transform="translate(4.5 4.5)" d="M 10.496094 4.863281 L 12.949219 2.410156 L 12.054688 1.515625 L 9.601562 3.96875 Z M 14.238281 2.410156 C 14.238281 2.5625 14.1875 2.6875 14.085938 2.789062 L 3.324219 13.550781 C 3.222656 13.652344 3.097656 13.703125 2.945312 13.703125 C 2.796875 13.703125 2.671875 13.652344 2.570312 13.550781 L 0.914062 11.894531 C 0.8125 11.792969 0.761719 11.667969 0.761719 11.519531 C 0.761719 11.367188 0.8125 11.242188 0.914062 11.140625 L 11.675781 0.375 C 11.777344 0.277344 11.902344 0.226562 12.054688 0.226562 C 12.203125 0.226562 12.328125 0.277344 12.429688 0.375 L 14.085938 2.035156 C 14.1875 2.132812 14.238281 2.261719 14.238281 2.410156 Z M 2.929688 0.820312 L 3.75 1.070312 L 2.929688 1.324219 L 2.679688 2.144531 L 2.425781 1.324219 L 1.605469 1.070312 L 2.425781 0.820312 L 2.679688 0 Z M 5.859375 2.175781 L 7.5 2.679688 L 5.859375 3.179688 L 5.355469 4.820312 L 4.855469 3.179688 L 3.214844 2.679688 L 4.855469 2.175781 L 5.355469 0.535156 Z M 13.644531 6.175781 L 14.464844 6.429688 L 13.644531 6.679688 L 13.394531 7.5 L 13.140625 6.679688 L 12.320312 6.429688 L 13.140625 6.175781 L 13.394531 5.355469 Z M 8.285156 0.820312 L 9.105469 1.070312 L 8.285156 1.324219 L 8.035156 2.144531 L 7.785156 1.324219 L 6.964844 1.070312 L 7.785156 0.820312 L 8.035156 0 Z M 8.285156 0.820312 "></path> </svg>