<?xml version="1.0" encoding="utf-8"?> <!DOCTYPE svg PUBLIC "-//W3C//DTD SVG 1.1//EN" "http://www.w3.org/Graphics/SVG/1.1/DTD/svg11.dtd"><svg version="1.1" id="marker-circle-blue" xmlns="http://www.w3.org/2000/svg" xmlns:xlink="http://www.w3.org/1999/xlink" x="0px"  y="0px" width="24px" height="36px" viewBox="0 0 24 36" enable-background="new 0 0 24 36" xml:space="preserve"><path fill="#5B396C" d="M12,0C5.371,0,0,5.903,0,13.187c0,0.829,0.079,1.643,0.212,2.424c0.302,1.785,0.924,3.448,1.81,4.901
	l0.107,0.163L11.965,36l9.952-15.393l0.045-0.064c0.949-1.555,1.595-3.343,1.875-5.269C23.934,14.589,24,13.899,24,13.187
	C24,5.905,18.629,0,12,0z"></path><path fill="#ffffff" transform="translate(4.5 4.5)" d="M8.167969,11.785156C8.167969,11.601562,8.105469,11.445312,7.972656,11.3125C7.839844,11.179688,7.683594,11.117188,7.5,11.117188C7.316406,11.117188,7.15625,11.179688,7.027344,11.3125C6.894531,11.445312,6.832031,11.601562,6.832031,11.785156C6.832031,11.96875,6.894531,12.128906,7.027344,12.257812C7.15625,12.390625,7.316406,12.457031,7.5,12.457031C7.683594,12.457031,7.839844,12.390625,7.972656,12.257812C8.105469,12.128906,8.167969,11.96875,8.167969,11.785156ZM9.910156,10.445312L9.910156,4.554688C9.910156,4.480469,9.882812,4.417969,9.832031,4.367188C9.777344,4.3125,9.714844,4.285156,9.644531,4.285156L5.355469,4.285156C5.285156,4.285156,5.222656,4.3125,5.167969,4.367188C5.117188,4.417969,5.089844,4.480469,5.089844,4.554688L5.089844,10.445312C5.089844,10.519531,5.117188,10.582031,5.167969,10.632812C5.222656,10.6875,5.285156,10.714844,5.355469,10.714844L9.644531,10.714844C9.714844,10.714844,9.777344,10.6875,9.832031,10.632812C9.882812,10.582031,9.910156,10.519531,9.910156,10.445312ZM8.304688,3.347656C8.304688,3.257812,8.257812,3.214844,8.167969,3.214844L6.832031,3.214844C6.742188,3.214844,6.695312,3.257812,6.695312,3.347656C6.695312,3.4375,6.742188,3.480469,6.832031,3.480469L8.167969,3.480469C8.257812,3.480469,8.304688,3.4375,8.304688,3.347656ZM10.714844,3.214844L10.714844,11.785156C10.714844,12.074219,10.609375,12.328125,10.394531,12.539062C10.183594,12.75,9.933594,12.855469,9.644531,12.855469L5.355469,12.855469C5.066406,12.855469,4.816406,12.75,4.605469,12.539062C4.390625,12.328125,4.285156,12.074219,4.285156,11.785156L4.285156,3.214844C4.285156,2.925781,4.390625,2.671875,4.605469,2.460938C4.816406,2.25,5.066406,2.144531,5.355469,2.144531L9.644531,2.144531C9.933594,2.144531,10.183594,2.25,10.394531,2.460938C10.609375,2.671875,10.714844,2.925781,10.714844,3.214844ZM10.714844,3.214844"></path> </svg>