<?xml version="1.0" encoding="utf-8"?> <!DOCTYPE svg PUBLIC "-//W3C//DTD SVG 1.1//EN" "http://www.w3.org/Graphics/SVG/1.1/DTD/svg11.dtd"><svg version="1.1" id="marker-circle-blue" xmlns="http://www.w3.org/2000/svg" xmlns:xlink="http://www.w3.org/1999/xlink" x="0px"  y="0px" width="24px" height="36px" viewBox="0 0 24 36" enable-background="new 0 0 24 36" xml:space="preserve"><path fill="#EF9228" d="M12,0C5.371,0,0,5.903,0,13.187c0,0.829,0.079,1.643,0.212,2.424c0.302,1.785,0.924,3.448,1.81,4.901
	l0.107,0.163L11.965,36l9.952-15.393l0.045-0.064c0.949-1.555,1.595-3.343,1.875-5.269C23.934,14.589,24,13.899,24,13.187
	C24,5.905,18.629,0,12,0z"></path><path fill="#ffffff" transform="translate(4.5 4.5)" d="M12.421875,6.566406L11.683594,3.488281C11.554688,2.949219,11.011719,2.613281,10.46875,2.746094C9.996094,2.859375,9.761719,3.191406,9.667969,3.421875C9.558594,3.695312,9.066406,4.933594,8.949219,5.1875C8.910156,5.277344,8.824219,5.324219,8.804688,5.332031C8.707031,5.375,7.726562,5.789062,7.726562,5.789062L7.726562,5.792969C7.53125,5.882812,7.398438,6.078125,7.398438,6.300781C7.398438,6.617188,7.652344,6.871094,7.96875,6.871094C8.039062,6.871094,8.101562,6.855469,8.164062,6.832031L8.164062,6.835938L9.46875,6.292969C9.644531,6.210938,9.734375,6.105469,9.824219,5.949219C9.859375,5.886719,9.972656,5.613281,10.066406,5.390625L10.851562,8.683594L10.851562,13.777344C10.847656,14.285156,11.199219,14.699219,11.710938,14.699219C12.222656,14.703125,12.589844,14.292969,12.59375,13.785156C12.59375,13.785156,12.601562,8.054688,12.601562,7.769531C12.597656,7.488281,12.488281,6.816406,12.421875,6.566406ZM12.421875,6.566406"></path> <path fill="#ffffff" transform="translate(4.5 4.5)" d="M10.726562,1.445312C10.726562,0.8125,10.207031,0.300781,9.570312,0.300781C8.929688,0.300781,8.414062,0.8125,8.414062,1.445312C8.414062,2.078125,8.929688,2.59375,9.570312,2.59375C10.207031,2.59375,10.726562,2.078125,10.726562,1.445312ZM10.726562,1.445312"></path> <path fill="#ffffff" transform="translate(4.5 4.5)" d="M5.140625,11.128906L5.140625,12.414062C5.304688,12.382812,5.441406,12.308594,5.546875,12.1875C5.648438,12.0625,5.699219,11.921875,5.699219,11.757812C5.699219,11.609375,5.65625,11.484375,5.570312,11.375C5.480469,11.269531,5.339844,11.1875,5.140625,11.128906ZM4.347656,9.136719C4.269531,9.242188,4.230469,9.359375,4.230469,9.484375C4.230469,9.601562,4.265625,9.710938,4.335938,9.808594C4.40625,9.910156,4.515625,9.992188,4.65625,10.050781L4.65625,8.914062C4.527344,8.957031,4.421875,9.03125,4.347656,9.136719ZM7.398438,7.609375L5.605469,4.015625L5.605469,4.019531C5.472656,3.746094,5.195312,3.558594,4.867188,3.558594L3.21875,3.558594C2.765625,3.558594,2.398438,3.921875,2.398438,4.367188L2.398438,14.699219L7.488281,14.699219L7.488281,8.015625C7.488281,7.871094,7.457031,7.734375,7.398438,7.609375ZM6.152344,12.640625C5.910156,12.914062,5.570312,13.082031,5.140625,13.140625L5.140625,13.757812L4.65625,13.757812L4.65625,13.160156C4.273438,13.113281,3.964844,12.972656,3.722656,12.734375C3.484375,12.496094,3.332031,12.164062,3.265625,11.730469L4.132812,11.636719C4.167969,11.8125,4.234375,11.964844,4.332031,12.09375C4.429688,12.21875,4.539062,12.3125,4.65625,12.367188L4.65625,10.988281C4.222656,10.867188,3.90625,10.679688,3.703125,10.433594C3.5,10.183594,3.398438,9.878906,3.398438,9.523438C3.398438,9.164062,3.511719,8.863281,3.742188,8.617188C3.972656,8.371094,4.277344,8.230469,4.65625,8.195312L4.65625,7.867188L5.140625,7.867188L5.140625,8.195312C5.492188,8.234375,5.773438,8.355469,5.980469,8.550781C6.1875,8.746094,6.320312,9.011719,6.378906,9.339844L5.539062,9.449219C5.488281,9.191406,5.355469,9.015625,5.140625,8.921875L5.140625,10.210938C5.671875,10.351562,6.035156,10.535156,6.226562,10.765625C6.417969,10.992188,6.515625,11.28125,6.515625,11.636719C6.515625,12.035156,6.394531,12.371094,6.152344,12.640625ZM6.152344,12.640625"></path> </svg>