<?xml version="1.0" encoding="utf-8"?> <!DOCTYPE svg PUBLIC "-//W3C//DTD SVG 1.1//EN" "http://www.w3.org/Graphics/SVG/1.1/DTD/svg11.dtd"><svg version="1.1" id="marker-circle-blue" xmlns="http://www.w3.org/2000/svg" xmlns:xlink="http://www.w3.org/1999/xlink" x="0px"  y="0px" width="24px" height="36px" viewBox="0 0 24 36" enable-background="new 0 0 24 36" xml:space="preserve"><path fill="#F5BB3A" d="M12,0C5.371,0,0,5.903,0,13.187c0,0.829,0.079,1.643,0.212,2.424c0.302,1.785,0.924,3.448,1.81,4.901
	l0.107,0.163L11.965,36l9.952-15.393l0.045-0.064c0.949-1.555,1.595-3.343,1.875-5.269C23.934,14.589,24,13.899,24,13.187
	C24,5.905,18.629,0,12,0z"></path><path fill="#ffffff" transform="translate(4.5 4.5)" d="M 7.652344 0.867188 L 0.378906 6.898438 L 2.101562 6.898438 L 2.101562 14.101562 L 12.898438 14.101562 L 12.898438 6.898438 L 14.78125 6.898438 Z M 9.28125 12 L 5.878906 12 L 6.59375 8.785156 C 6.160156 8.488281 5.878906 8.035156 5.878906 7.480469 C 5.878906 6.570312 6.640625 5.851562 7.582031 5.851562 C 8.519531 5.851562 9.28125 6.597656 9.28125 7.507812 C 9.28125 8.0625 9 8.484375 8.570312 8.78125 Z M 9.28125 12 "></path> </svg>