<?xml version="1.0" encoding="utf-8"?> <!DOCTYPE svg PUBLIC "-//W3C//DTD SVG 1.1//EN" "http://www.w3.org/Graphics/SVG/1.1/DTD/svg11.dtd"><svg version="1.1" id="marker-circle-blue" xmlns="http://www.w3.org/2000/svg" xmlns:xlink="http://www.w3.org/1999/xlink" x="0px"  y="0px" width="24px" height="36px" viewBox="0 0 24 36" enable-background="new 0 0 24 36" xml:space="preserve"><path fill="#9D7178" d="M12,0C5.371,0,0,5.903,0,13.187c0,0.829,0.079,1.643,0.212,2.424c0.302,1.785,0.924,3.448,1.81,4.901
	l0.107,0.163L11.965,36l9.952-15.393l0.045-0.064c0.949-1.555,1.595-3.343,1.875-5.269C23.934,14.589,24,13.899,24,13.187
	C24,5.905,18.629,0,12,0z"></path><path fill="#ffffff" transform="translate(4.5 4.5)" d="M12.320312,8.304688L12.320312,12.320312C12.320312,12.464844,12.269531,12.59375,12.164062,12.699219C12.054688,12.804688,11.929688,12.855469,11.785156,12.855469L8.570312,12.855469L8.570312,9.644531L6.429688,9.644531L6.429688,12.855469L3.214844,12.855469C3.070312,12.855469,2.945312,12.804688,2.835938,12.699219C2.730469,12.59375,2.679688,12.464844,2.679688,12.320312L2.679688,8.304688C2.679688,8.296875,2.679688,8.289062,2.683594,8.277344C2.683594,8.265625,2.6875,8.257812,2.6875,8.253906L7.5,4.285156L12.3125,8.253906C12.320312,8.265625,12.320312,8.28125,12.320312,8.304688ZM14.1875,7.726562L13.667969,8.34375C13.625,8.394531,13.566406,8.425781,13.492188,8.4375L13.46875,8.4375C13.394531,8.4375,13.335938,8.417969,13.292969,8.378906L7.5,3.550781L1.707031,8.378906C1.640625,8.421875,1.574219,8.441406,1.507812,8.4375C1.433594,8.425781,1.375,8.394531,1.332031,8.34375L0.8125,7.726562C0.765625,7.671875,0.746094,7.605469,0.753906,7.53125C0.757812,7.453125,0.789062,7.394531,0.84375,7.347656L6.863281,2.335938C7.042969,2.191406,7.253906,2.117188,7.5,2.117188C7.746094,2.117188,7.957031,2.191406,8.136719,2.335938L10.179688,4.042969L10.179688,2.410156C10.179688,2.332031,10.203125,2.269531,10.253906,2.21875C10.304688,2.167969,10.367188,2.144531,10.445312,2.144531L12.054688,2.144531C12.132812,2.144531,12.195312,2.167969,12.246094,2.21875C12.296875,2.269531,12.320312,2.332031,12.320312,2.410156L12.320312,5.824219L14.15625,7.347656C14.210938,7.394531,14.242188,7.453125,14.246094,7.53125C14.253906,7.605469,14.234375,7.671875,14.1875,7.726562ZM14.1875,7.726562"></path> </svg>