<?xml version="1.0" encoding="utf-8"?> <!DOCTYPE svg PUBLIC "-//W3C//DTD SVG 1.1//EN" "http://www.w3.org/Graphics/SVG/1.1/DTD/svg11.dtd"><svg version="1.1" id="marker-circle-blue" xmlns="http://www.w3.org/2000/svg" xmlns:xlink="http://www.w3.org/1999/xlink" x="0px"  y="0px" width="24px" height="36px" viewBox="0 0 24 36" enable-background="new 0 0 24 36" xml:space="preserve"><path fill="#A23337" d="M12,0C5.371,0,0,5.903,0,13.187c0,0.829,0.079,1.643,0.212,2.424c0.302,1.785,0.924,3.448,1.81,4.901
	l0.107,0.163L11.965,36l9.952-15.393l0.045-0.064c0.949-1.555,1.595-3.343,1.875-5.269C23.934,14.589,24,13.899,24,13.187
	C24,5.905,18.629,0,12,0z"></path><path fill="#ffffff" transform="translate(4.5 4.5)" d="m 14.859211,7.9370939 c 0.05117,0.4424826 0.006,0.8699141 -0.141474,1.2792856 -0.147494,0.4123821 -0.358199,0.7645618 -0.638137,1.0565395 -0.279938,0.291979 -0.620078,0.520745 -1.023429,0.68329 -0.400342,0.162544 -0.824764,0.228766 -1.267246,0.198665 C 11.096606,11.109722 10.494589,10.838816 9.9858852,10.348171 9.4771801,9.8605379 9.188212,9.2705614 9.1189807,8.5812516 9.0678087,8.1056587 9.1250005,7.6511357 9.2965758,7.2237041 9.4651406,6.7962717 9.7209976,6.4290418 10.061137,6.1250228 L 9.603604,5.4357137 C 9.1912227,5.7788637 8.8661336,6.1942549 8.6283368,6.6848988 8.3935498,7.1755427 8.2731464,7.6992971 8.2731464,8.2591731 c 0,0.1173935 -0.039131,0.216726 -0.1173926,0.3010085 -0.081272,0.084283 -0.1775953,0.1264231 -0.2949887,0.1264231 H 5.7657464 c -0.099333,0.7043601 -0.4214117,1.2943366 -0.9632269,1.7669203 -0.5418152,0.472583 -1.1739325,0.70737 -1.8963527,0.70737 -0.7946622,0 -1.4749416,-0.282948 -2.04083749,-0.845835 C 0.29943351,9.749165 0.01648595,9.0688856 0.01648595,8.2712134 c 0,-0.7946622 0.28294756,-1.4749417 0.84884336,-2.0408375 C 1.4312252,5.6644801 2.1115046,5.3815326 2.9061668,5.3815326 c 0.328099,0 0.656198,0.060202 0.981287,0.1745844 L 4.0439783,5.267149 C 3.5142035,4.794566 2.8610153,4.5567691 2.0814034,4.5567691 H 1.6690221 c -0.111373,0 -0.2076957,-0.039131 -0.2889682,-0.1234133 -0.084283,-0.081272 -0.1234133,-0.1775952 -0.1234133,-0.2889681 0,-0.1113729 0.039131,-0.2076956 0.1234133,-0.2889681 0.081272,-0.084283 0.1775952,-0.1234132 0.2889682,-0.1234132 h 0.8247627 c 0.3371293,0 0.6471682,0.02709 0.9361362,0.087292 0.2889681,0.057192 0.5388054,0.1414741 0.7525215,0.2468274 0.2107056,0.1083622 0.36422,0.1926453 0.4605427,0.2558569 0.093313,0.063212 0.2046858,0.1414734 0.328099,0.2347862 H 9.0166375 L 8.4688026,3.7320064 H 7.0360024 c -0.1294338,0 -0.2347869,-0.048161 -0.3160587,-0.144484 C 6.6386713,3.4881897 6.60857,3.376816 6.6296408,3.247383 6.6477018,3.14805 6.6958628,3.0667771 6.7771348,3.0035656 6.8584068,2.9373436 6.9517201,2.9072426 7.0540625,2.9072426 h 1.6314661 c 0.144484,0 0.255857,0.060202 0.3431492,0.180605 l 0.451513,0.6772688 0.7344602,-0.7374705 c 0.08127,-0.081272 0.180605,-0.1204033 0.297998,-0.1204033 h 0.650178 c 0.111374,0 0.210707,0.039131 0.291979,0.1204033 0.08127,0.081272 0.120404,0.1806052 0.120404,0.2919788 v 0.8247627 c 0,0.1113729 -0.03913,0.2076957 -0.120404,0.2889681 -0.08127,0.084283 -0.180605,0.1234133 -0.291979,0.1234133 H 10.009965 L 10.750446,5.66749 c 0.562886,-0.2709072 1.155872,-0.349169 1.772941,-0.2317763 0.617066,0.1113729 1.140821,0.400341 1.574273,0.8669042 0.436462,0.4665633 0.68931,1.0113884 0.761551,1.634476 z M 2.9061668,10.336131 c 0.4966637,0 0.9331257,-0.156524 1.3093868,-0.4665626 0.3792703,-0.3130488 0.6170671,-0.70737 0.7163997,-1.1829637 H 2.9061668 c -0.1505046,0 -0.267898,-0.069232 -0.3521796,-0.2016758 C 2.4757245,8.3464653 2.4727147,8.2110118 2.5449568,8.078568 L 3.4931334,6.2935875 C 3.2914576,6.2363965 3.0958016,6.2093059 2.9061668,6.2093059 c -0.5658958,0 -1.0535298,0.2016751 -1.4568807,0.6050267 -0.4033517,0.4033509 -0.60502678,0.890985 -0.60502678,1.4568808 0,0.5689057 0.20167508,1.0535292 0.60502678,1.4598908 0.4033509,0.4033518 0.8909849,0.6050268 1.4568807,0.6050268 z m 9.0844342,0 c 0.565896,0 1.05353,-0.201675 1.45688,-0.6050268 0.403353,-0.4063616 0.605027,-0.8909851 0.605027,-1.4598908 0,-0.5658958 -0.201674,-1.0535299 -0.605027,-1.4568808 -0.40335,-0.4033516 -0.890984,-0.6050267 -1.45688,-0.6050267 -0.258867,0 -0.520745,0.051171 -0.782622,0.1535137 l 1.122762,1.6766175 c 0.06622,0.099333 0.08729,0.204685 0.06622,0.3160587 -0.02408,0.1113729 -0.08127,0.1986652 -0.174585,0.2588669 -0.06622,0.048161 -0.141473,0.072242 -0.231776,0.072242 -0.150504,0 -0.264888,-0.063212 -0.343149,-0.1896348 L 10.52469,6.8203525 c -0.400341,0.4093713 -0.5990064,0.8939948 -0.5990064,1.4508609 0,0.5689057 0.2016744,1.0535292 0.6050264,1.4598908 0.406361,0.4033518 0.890985,0.6050268 1.459891,0.6050268 z m 0,0"></path> </svg>