<?xml version="1.0" encoding="utf-8"?> <!DOCTYPE svg PUBLIC "-//W3C//DTD SVG 1.1//EN" "http://www.w3.org/Graphics/SVG/1.1/DTD/svg11.dtd"><svg version="1.1" id="marker-circle-blue" xmlns="http://www.w3.org/2000/svg" xmlns:xlink="http://www.w3.org/1999/xlink" x="0px"  y="0px" width="24px" height="36px" viewBox="0 0 24 36" enable-background="new 0 0 24 36" xml:space="preserve"><path fill="#A23337" d="M12,0C5.371,0,0,5.903,0,13.187c0,0.829,0.079,1.643,0.212,2.424c0.302,1.785,0.924,3.448,1.81,4.901
	l0.107,0.163L11.965,36l9.952-15.393l0.045-0.064c0.949-1.555,1.595-3.343,1.875-5.269C23.934,14.589,24,13.899,24,13.187
	C24,5.905,18.629,0,12,0z"></path><path fill="#ffffff" transform="translate(4.5 4.5)" d="M14.068004,6.9062232L10.814233,2.2576257C10.26077,1.4683817,9.3796959,1.0464589,8.4862122,1.0464589c-0.5609093,0,-1.1292642,0.1662872,-1.625644,0.5137532C6.371634,1.9027141,6.0241681,2.374275,5.83058,2.8954739C5.7586045,1.4237076,4.5548837,0.25225104,3.0657441,0.25225104c-1.5362956,0,-2.77972715,1.24343166,-2.77972715,2.77972726v5.5594544c0,1.5362963,1.24343155,2.7797283,2.77972715,2.7797283c1.5362957,0,2.7797272,-1.243432,2.7797272,-2.7797283V4.8909209C5.9273743,5.1043642,6.02665,5.3153257,6.1631544,5.5113957l3.2562519,4.6485973c0.550982,0.789245,1.4320557,1.211168,2.3280217,1.211168c0.563391,0,1.129264,-0.166287,1.625644,-0.513754c1.283142,-0.8984472,1.593379,-2.668042,0.694932,-3.9511838zM4.2570558,5.8117055H1.8744325V3.0319783c0,-0.6577033,0.5336083,-1.1913116,1.1913116,-1.1913116c0.6577034,0,1.1913117,0.5336083,1.1913117,1.1913116zM9.0917956,6.9260783L7.4636697,4.6005387C7.2725634,4.3275298,7.1981065,3.9949552,7.257672,3.6673446C7.3147557,3.3397338,7.4984163,3.0518335,7.7714252,2.8607272C7.9823866,2.7118133,8.2305766,2.6348744,8.4862122,2.6348744c0.4095134,0,0.7917258,0.198552,1.0250241,0.5336084l1.6281267,2.3255396z"></path> </svg>