<?xml version="1.0" encoding="utf-8"?> <!DOCTYPE svg PUBLIC "-//W3C//DTD SVG 1.1//EN" "http://www.w3.org/Graphics/SVG/1.1/DTD/svg11.dtd"><svg version="1.1" id="marker-circle-blue" xmlns="http://www.w3.org/2000/svg" xmlns:xlink="http://www.w3.org/1999/xlink" x="0px"  y="0px" width="24px" height="36px" viewBox="0 0 24 36" enable-background="new 0 0 24 36" xml:space="preserve"><path fill="#EF9228" d="M12,0C5.371,0,0,5.903,0,13.187c0,0.829,0.079,1.643,0.212,2.424c0.302,1.785,0.924,3.448,1.81,4.901
	l0.107,0.163L11.965,36l9.952-15.393l0.045-0.064c0.949-1.555,1.595-3.343,1.875-5.269C23.934,14.589,24,13.899,24,13.187
	C24,5.905,18.629,0,12,0z"></path><path fill="#ffffff" transform="translate(4.5 4.5)" d="M 14.667969 4.546875 L 13.488281 13.800781 L 9.5 13.800781 L 8.324219 4.5 L 13.191406 4.5 L 14.15625 1.175781 L 14.699219 1.339844 L 13.777344 4.539062 Z M 7.761719 9.898438 C 7.761719 9.898438 7.910156 8.699219 5.84375 8.699219 L 2.550781 8.699219 C 0.484375 8.699219 0.632812 9.898438 0.632812 9.898438 Z M 0.632812 12.601562 C 0.632812 12.601562 0.484375 13.800781 2.550781 13.800781 L 5.84375 13.800781 C 7.910156 13.800781 7.761719 12.601562 7.761719 12.601562 Z M 7.453125 12 C 7.789062 12 8.0625 11.664062 8.0625 11.25 C 8.0625 10.832031 7.789062 10.5 7.453125 10.5 L 0.910156 10.5 C 0.574219 10.5 0.300781 10.832031 0.300781 11.25 C 0.300781 11.664062 0.574219 12 0.910156 12 Z M 7.453125 12 "></path> </svg>