<?xml version="1.0" encoding="utf-8"?> <!DOCTYPE svg PUBLIC "-//W3C//DTD SVG 1.1//EN" "http://www.w3.org/Graphics/SVG/1.1/DTD/svg11.dtd"><svg version="1.1" id="marker-circle-blue" xmlns="http://www.w3.org/2000/svg" xmlns:xlink="http://www.w3.org/1999/xlink" x="0px"  y="0px" width="24px" height="36px" viewBox="0 0 24 36" enable-background="new 0 0 24 36" xml:space="preserve"><path fill="#A23337" d="M12,0C5.371,0,0,5.903,0,13.187c0,0.829,0.079,1.643,0.212,2.424c0.302,1.785,0.924,3.448,1.81,4.901
	l0.107,0.163L11.965,36l9.952-15.393l0.045-0.064c0.949-1.555,1.595-3.343,1.875-5.269C23.934,14.589,24,13.899,24,13.187
	C24,5.905,18.629,0,12,0z"></path><path fill="#ffffff" transform="translate(4.5 4.5)" d="m 13.515914,13 c 0,-12 0.02345,-10.0477231 0.02345,-12 0,-1 -0.0469,-1 -1.539364,-1 l 0,13.038526 C 12.048052,14.003111 12.000001,14 12.718594,14 c 0.765494,0 0.79732,0 0.79732,-1 z M 2.5075377,11.624791 c 1.9893914,0.633166 3.1278615,0.633166 5.0938024,-0.07035 L 7,4 C 5,4.281407 5,4.3048576 3,4 Z M 4.319933,0 5.718593,0 6.2730319,3 c -1,0.3048576 -1.5544389,0.3048576 -2.5544389,0 z m -2.2964824,14 0.2345058,-1 5.4991626,0 0.2579562,1 z m 7.4606365,-14 1.9597989,0 0,0.6097152 -1.9597989,0 z m 0,1 1.9597989,0 0,0.6097152 -1.9597989,0 z m 0,1 1.9597989,0 0,0.6097152 -1.9597989,0 z m 0,1 1.9597989,0 0,0.6097152 -1.9597989,0 z m 0,1 1.9597989,0 0,0.6097152 -1.9597989,0 z"></path> </svg>