<?xml version="1.0" encoding="utf-8"?> <!DOCTYPE svg PUBLIC "-//W3C//DTD SVG 1.1//EN" "http://www.w3.org/Graphics/SVG/1.1/DTD/svg11.dtd"><svg version="1.1" id="marker-circle-blue" xmlns="http://www.w3.org/2000/svg" xmlns:xlink="http://www.w3.org/1999/xlink" x="0px"  y="0px" width="24px" height="36px" viewBox="0 0 24 36" enable-background="new 0 0 24 36" xml:space="preserve"><path fill="#A23337" d="M12,0C5.371,0,0,5.903,0,13.187c0,0.829,0.079,1.643,0.212,2.424c0.302,1.785,0.924,3.448,1.81,4.901
	l0.107,0.163L11.965,36l9.952-15.393l0.045-0.064c0.949-1.555,1.595-3.343,1.875-5.269C23.934,14.589,24,13.899,24,13.187
	C24,5.905,18.629,0,12,0z"></path><path fill="#ffffff" transform="translate(4.5 4.5)" d="M 7.671875 2.679688 C 8.363281 2.730469 8.964844 2.242188 9.019531 1.585938 C 9.074219 0.929688 8.558594 0.355469 7.871094 0.304688 C 7.179688 0.253906 6.578125 0.742188 6.523438 1.398438 C 6.472656 2.054688 6.984375 2.628906 7.671875 2.679688 Z M 12.835938 12.300781 L 12.417969 8.699219 L 11.742188 8.699219 C 11.75 8.398438 11.75 8.367188 11.726562 8.183594 C 11.707031 8 11.648438 7.863281 11.550781 7.820312 C 11.632812 7.734375 11.683594 7.628906 11.695312 7.507812 C 11.710938 7.320312 11.621094 7.140625 11.472656 7.035156 L 9.753906 5.90625 L 8.484375 3.519531 C 8.277344 3.210938 7.921875 2.957031 7.492188 2.921875 C 7.164062 2.898438 6.859375 3.007812 6.613281 3.167969 L 4.101562 5.113281 C 4.019531 5.179688 3.957031 5.269531 3.929688 5.375 L 3.34375 7.730469 L 3.300781 7.800781 L 3.296875 7.800781 C 3.195312 7.800781 3.109375 7.894531 3.074219 8.015625 C 3.039062 8.140625 3 8.300781 3 8.429688 L 3 8.699219 L 2.347656 8.699219 L 1.929688 12.300781 L 3.613281 12.300781 L 2.875 13.480469 C 2.828125 13.570312 2.773438 13.703125 2.761719 13.824219 C 2.726562 14.273438 3.074219 14.660156 3.539062 14.699219 C 3.875 14.71875 4.160156 14.558594 4.335938 14.300781 L 5.578125 12.300781 L 5.742188 12.300781 L 5.71875 12.078125 L 6.0625 11.523438 C 6.101562 11.449219 6.21875 11.265625 6.230469 11.179688 L 6.652344 9.347656 L 8.453125 11.230469 L 9.019531 14.058594 C 9.109375 14.394531 9.398438 14.667969 9.78125 14.699219 C 10.25 14.734375 10.660156 14.402344 10.695312 13.957031 L 10.691406 13.792969 L 10.394531 12.300781 Z M 3.285156 8.398438 C 3.304688 8.253906 3.355469 8.175781 3.449219 8.175781 L 3.484375 8.171875 C 3.582031 8.289062 3.71875 8.367188 3.882812 8.378906 C 4.066406 8.394531 4.234375 8.3125 4.347656 8.191406 C 4.375 8.210938 4.394531 8.242188 4.40625 8.289062 C 4.433594 8.375 4.445312 8.472656 4.445312 8.554688 C 4.445312 8.601562 4.445312 8.699219 4.441406 8.699219 L 3.277344 8.699219 C 3.273438 8.699219 3.277344 8.507812 3.285156 8.398438 Z M 5.007812 8.699219 L 4.652344 8.699219 C 4.660156 8.398438 4.65625 8.367188 4.636719 8.183594 C 4.621094 8.027344 4.574219 7.90625 4.507812 7.847656 L 4.949219 5.914062 L 5.824219 5.238281 Z M 11.535156 8.699219 L 10.371094 8.699219 C 10.367188 8.699219 10.367188 8.507812 10.378906 8.398438 C 10.394531 8.253906 10.449219 8.175781 10.542969 8.175781 C 10.675781 8.175781 10.800781 8.171875 10.90625 8.167969 C 11.015625 8.164062 11.164062 8.160156 11.351562 8.160156 C 11.421875 8.160156 11.472656 8.199219 11.5 8.289062 C 11.523438 8.375 11.539062 8.472656 11.539062 8.554688 Z M 7.769531 8.015625 L 8.335938 5.632812 L 8.808594 6.527344 C 8.847656 6.589844 8.890625 6.640625 8.949219 6.6875 L 10.644531 7.800781 L 10.386719 7.800781 C 10.289062 7.800781 10.253906 7.894531 10.21875 8.015625 C 10.1875 8.140625 10.199219 8.300781 10.199219 8.429688 L 10.199219 8.699219 L 9.441406 8.699219 L 9.316406 9.757812 Z M 7.769531 8.015625 "></path> </svg>