<?xml version="1.0" encoding="utf-8"?> <!DOCTYPE svg PUBLIC "-//W3C//DTD SVG 1.1//EN" "http://www.w3.org/Graphics/SVG/1.1/DTD/svg11.dtd"><svg version="1.1" id="marker-circle-blue" xmlns="http://www.w3.org/2000/svg" xmlns:xlink="http://www.w3.org/1999/xlink" x="0px"  y="0px" width="24px" height="36px" viewBox="0 0 24 36" enable-background="new 0 0 24 36" xml:space="preserve"><path fill="#EF9228" d="M12,0C5.371,0,0,5.903,0,13.187c0,0.829,0.079,1.643,0.212,2.424c0.302,1.785,0.924,3.448,1.81,4.901
	l0.107,0.163L11.965,36l9.952-15.393l0.045-0.064c0.949-1.555,1.595-3.343,1.875-5.269C23.934,14.589,24,13.899,24,13.187
	C24,5.905,18.629,0,12,0z"></path><path fill="#ffffff" transform="translate(4.5 4.5)" d="m2.6044847736323185,10.904168726944581c-0.15854941056996072,0.28474201898280127,-0.2847427189828479,0.7131690475446032,-0.2847427189828479,0.9831190655412709c0,0.06268000417866694,0,0.1423810094920673,0.015530001035333403,0.2529570168638011L0.3537009435800629,8.732308882153925C0.29027027935135197,8.621734274782284,0.2430312662020844,8.46309346420623,0.2430312662020844,8.320166354677756c0,-0.1431172095411473,0.047240103149340205,-0.31709782113985474,0.11066967737797849,-0.42785922852394853L1.3050097870006525,6.227827215188481L0.2430312662020844,5.625965975064398L3.6988456465897097,5.5619931707995445L5.3788495585899705,8.589381772625451L4.301344686756312,7.971261331417422L2.604491073632738,10.904168726944581ZM4.126604675106978,1.298556586570439C4.427534895168994,0.7749141816609454,4.919364227957614,0.48960518264034547,5.521225268081684,0.48960518264034547c0.6503810433587361,0,1.1577613771840918,0.3015679701045313,1.522095001473,0.9189561112637408L7.5823945054929665,2.31199065413271L5.711464980764332,5.546469369764624L2.684076678938445,3.7867517524501166L4.126604675106978,1.298556586570439Zm0.22131101475406764,12.34768832317922c-0.9034291602286106,0,-1.6483132098875473,-0.7449780496652033,-1.6483132098875473,-1.6483851098923405c0,-0.2536890169126011,0.11130720742048049,-0.6820930454728696,0.2698566179904412,-0.9513090634206042l0.5067186337812423,-0.903429060228604l3.7573823504921564,0l0,3.5031482335432154l-2.885644392376293,0zM7.3604395906959725,1.2027734801848988C7.122914974860998,0.7911731527448768,6.80582025372135,0.5051320136754676,6.425295028353002,0.34648814309920956l3.899105659940377,0c0.34880702325380153,0,0.618026041201736,0.14311703954113597,0.7772360518157369,0.4128778175251878L12.068493804566254,2.4077491605166106L13.114378874291925,1.7890621192708078L11.433618762241249,4.801466420097761L7.994632132975475,4.7530204168680275L9.056610303774018,4.151158976743932L7.3604395906959725,1.2027735801849053ZM13.368710891247392,10.174904678326978c0.47500303166686875,0,0.8717140581142705,-0.12683100845540055,1.2043590802906052,-0.37997722533181505l-1.9660471310698087,3.423434428228962c-0.15854901056993403,0.26921801794786787,-0.44329102955273525,0.4278590285239352,-0.77602905173527,0.4278590285239352l-1.8554027236935147,0l0,1.2205270813684719l-1.775146518343101,-2.963958197597213l1.775146518343101,-2.96471759764784l0,1.236810482454032l3.3931198262079882,0zm1.5208171013878067,-2.8533839902255993c0.14302200953480065,0.25369171691278114,0.22261401484093432,0.5229071348604756,0.22261401484093432,0.8083814538920969c0,0.5707864380524292,-0.3649990243332683,1.1731931782128784,-0.8717170581144704,1.4579597971973197c-0.23814001587600103,0.12759030850602054,-0.5714490380966025,0.20708691380579425,-0.903429060228604,0.20708691380579425l-1.0470930698062046,0l-1.8697221246481417,-3.2344756156317076l3.02748420183228,-1.727907315193821l1.4418630961242063,2.4889547659303175z"></path> </svg>