<?xml version="1.0" encoding="utf-8"?> <!DOCTYPE svg PUBLIC "-//W3C//DTD SVG 1.1//EN" "http://www.w3.org/Graphics/SVG/1.1/DTD/svg11.dtd"><svg version="1.1" id="marker-circle-blue" xmlns="http://www.w3.org/2000/svg" xmlns:xlink="http://www.w3.org/1999/xlink" x="0px"  y="0px" width="24px" height="36px" viewBox="0 0 24 36" enable-background="new 0 0 24 36" xml:space="preserve"><path fill="#EF9228" d="M12,0C5.371,0,0,5.903,0,13.187c0,0.829,0.079,1.643,0.212,2.424c0.302,1.785,0.924,3.448,1.81,4.901
	l0.107,0.163L11.965,36l9.952-15.393l0.045-0.064c0.949-1.555,1.595-3.343,1.875-5.269C23.934,14.589,24,13.899,24,13.187
	C24,5.905,18.629,0,12,0z"></path><path fill="#ffffff" transform="translate(4.5 4.5)" d="M2.1336198,8.3909791H14.334784c0.121914,0,0.227352,0.04613,0.31961,0.1350933c0.08896,0.088964,0.131798,0.1944017,0.131798,0.3163142V12.005529H12.980565V10.199902H2.1336198v1.805627H0.32799309V3.4222097c0,-0.1219135,0.042834,-0.2306463,0.13179762,-0.3196099C0.55204821,3.0136362,0.6574863,2.9708022,0.77939973,2.9708022H1.6822131c0.1219134,0,0.2273515,0.042834,0.319609,0.1317976c0.088964,0.088964,0.1317977,0.1976964,0.1317977,0.3196099zM6.2028715,6.1339451C6.2028715,5.6331142,6.0249452,5.208067,5.6723863,4.8555082C5.3198274,4.5029501,4.8914856,4.325023,4.3939494,4.325023c-0.4975363,0,-0.9258781,0.1779271,-1.2784369,0.5304852c-0.3525589,0.3525588,-0.5304853,0.777606,-0.5304853,1.2784369c0,0.4975362,0.1779264,0.9225834,0.5304853,1.2751422c0.3525588,0.3558536,0.7809006,0.5304852,1.2784369,0.5304852c0.4975362,0,0.925878,-0.1746316,1.2784369,-0.5304852C6.0249452,7.0565285,6.2028715,6.6314813,6.2028715,6.1339451ZM14.786192,7.9395725V7.4881658c0,-0.7479517,-0.263596,-1.3871697,-0.794081,-1.9176557C13.461625,5.0433195,12.825702,4.7764296,12.074455,4.7764296H7.1056856c-0.1219134,0,-0.2273515,0.04613,-0.319609,0.1350924C6.6971129,5.0004857,6.654279,5.1059237,6.654279,5.2278362v2.7117363zm0,0"></path> </svg>