<?xml version="1.0" encoding="utf-8"?> <!DOCTYPE svg PUBLIC "-//W3C//DTD SVG 1.1//EN" "http://www.w3.org/Graphics/SVG/1.1/DTD/svg11.dtd"><svg version="1.1" id="marker-circle-blue" xmlns="http://www.w3.org/2000/svg" xmlns:xlink="http://www.w3.org/1999/xlink" x="0px"  y="0px" width="24px" height="36px" viewBox="0 0 24 36" enable-background="new 0 0 24 36" xml:space="preserve"><path fill="#A23337" d="M12,0C5.371,0,0,5.903,0,13.187c0,0.829,0.079,1.643,0.212,2.424c0.302,1.785,0.924,3.448,1.81,4.901
	l0.107,0.163L11.965,36l9.952-15.393l0.045-0.064c0.949-1.555,1.595-3.343,1.875-5.269C23.934,14.589,24,13.899,24,13.187
	C24,5.905,18.629,0,12,0z"></path><path fill="#ffffff" transform="translate(4.5 4.5)" d="M15,2.6785714285714284C15,3.922005107142857,13.800762857142857,4.93000725,12.321428571428571,4.93000725C10.842094285714284,4.93000725,9.642857142857142,3.922005107142857,9.642857142857142,2.6785714285714284C9.642857142857142,1.43513775,10.842094285714284,0.42713565,12.321428571428571,0.42713565C13.800762857142857,0.42713565,15,1.43513775,15,2.6785714285714284ZM8.571428571428571,2.142857142857143L10.714285714285714,2.142857142857143L10.714285714285714,3.2142857142857144L8.571428571428571,3.2142857142857144ZM3.2142857142857144,-5.357142964285714e-8l1.0714285714285714,0L4.285714285714286,1.0714285714285714L3.2142857142857144,1.0714285714285714ZM1.0714285714285714,0L2.142857142857143,0L2.142857142857143,1.0714285714285714L1.0714285714285714,1.0714285714285714ZM1.0714285714285714,4.285714285714286L2.142857142857143,4.285714285714286L2.142857142857143,5.357142857142857L1.0714285714285714,5.357142857142857ZM3.2142857142857144,4.285714285714286L4.285714285714286,4.285714285714286L4.285714285714286,5.357142857142857L3.2142857142857144,5.357142857142857ZM4.285714285714286,2.142857142857143L5.357142857142857,2.142857142857143L5.357142857142857,3.2142857142857144L4.285714285714286,3.2142857142857144ZM2.142857142857143,2.142857142857143L3.2142857142857144,2.142857142857143L3.2142857142857144,3.2142857142857144L2.142857142857143,3.2142857142857144ZM0,2.142857142857143L1.0714285714285714,2.142857142857143L1.0714285714285714,3.2142857142857144L0,3.2142857142857144ZM6.428571428571429,5.809404214285714L8.571428571428571,5.784278571428571L8.571428571428571,2.142857142857143C8.571428571428571,1.0714285714285714,8.571428571428571,1.0714285714285714,7.5,1.0714285714285714C6.464571749999999,1.0894286785714284,6.428571428571429,1.0714285714285714,6.428571428571429,2.142857142857143ZM5.357142857142857,6.428571428571429C3.2142857142857144,6.428571428571429,1.5736607142857142,9.642857142857142,1.5736607142857142,11.785714285714285C1.5736607142857142,12.857142857142858,4.285714285714286,15,5.357142857142857,15l4.285714285714286,0c1.0714285714285714,0,3.657924642857143,-2.142857142857143,3.6579235714285714,-3.2142857142857144C13.300780714285713,9.642857142857142,11.785714285714285,6.428571428571429,9.642857142857142,6.428571428571429Z"></path> </svg>