<?xml version="1.0" encoding="utf-8"?> <!DOCTYPE svg PUBLIC "-//W3C//DTD SVG 1.1//EN" "http://www.w3.org/Graphics/SVG/1.1/DTD/svg11.dtd"><svg version="1.1" id="marker-circle-blue" xmlns="http://www.w3.org/2000/svg" xmlns:xlink="http://www.w3.org/1999/xlink" x="0px"  y="0px" width="24px" height="36px" viewBox="0 0 24 36" enable-background="new 0 0 24 36" xml:space="preserve"><path fill="#EF9228" d="M12,0C5.371,0,0,5.903,0,13.187c0,0.829,0.079,1.643,0.212,2.424c0.302,1.785,0.924,3.448,1.81,4.901
	l0.107,0.163L11.965,36l9.952-15.393l0.045-0.064c0.949-1.555,1.595-3.343,1.875-5.269C23.934,14.589,24,13.899,24,13.187
	C24,5.905,18.629,0,12,0z"></path><path fill="#ffffff" transform="translate(4.5 4.5)" d="M7.4044348353415765,0.8454135576238564c0.7289266221952698,0,1.319693094629156,0.5908719381970627,1.319693094629156,1.3197985603923326c0,0.728794789991299,-0.5907664724338861,1.3197985603923326,-1.319693094629156,1.3197985603923326s-1.319693094629156,-0.5910037704010336,-1.319693094629156,-1.3197985603923326C6.084741740712421,1.4363118622617133,6.675534579587101,0.8454135576238564,7.4044348353415765,0.8454135576238564L7.4044348353415765,0.8454135576238564z"></path> <path fill="#ffffff" transform="translate(4.5 4.5)" d="M11.017217285838585,0.3941782898726501l-0.019221135338940595,-0.00846362749492446l-0.002293880349091676,-0.0006855274606480871l-0.24241305666148127,-0.10211722519577082c-0.277427690036122,-0.11643420254699818,-0.40461940042713634,0.1108181506578427,-0.4432726026313708,0.20296886123342212L9.675350014501543,2.1211801618899466c-0.004350462731035938,0.01212856276531231,-0.17359664618873097,0.42724180662852324,-0.4411896538086324,0.7278983310042977l-0.8517415034144541,0.9562580747224932c-0.0004745959342948295,0.00023729796714741475,-0.0004745959342948295,0.00023729796714741475,-0.0004745959342948295,0.0008173596646188731c-0.22184723284203864,0.24929469770875629,-0.4862235346850528,0.27972157038521367,-0.5823028449389617,0.2819890842935112h-1.239855511904448c-0.2909273077227305,0,-0.4439317636512247,-0.13278139583937562,-0.49721834049621644,-0.19018113744825585c-0.2520631739921428,-0.3060089118569884,-0.5730482242202125,-0.910406834181454,-0.7545284362063965,-1.2706251483112294c-0.13093574498378463,-0.2535396946766156,-0.047354127666306325,-0.4392385371898647,-0.012919555989137027,-0.4982466316871885l0.8918712263031613,-1.445012787723785c0,0,0,0,0,-0.00023729796714741475c0.20196693648324412,-0.32718116381469664,-0.08758931631819021,-0.4901257679225881,-0.08758931631819021,-0.4901257679225881l-0.2357950800221478,-0.14810029794078097c-0.00023729796714741475,0,-0.00023729796714741475,0,-0.0006855274606480871,0c-0.26609012049463443,-0.16626677564795528,-0.4549002030215941,0.17565322857067525,-0.4549002030215941,0.17565322857067525L4.281909984971128,2.1694571149840485c-0.04345189442877106,0.07936298679041316,-0.191552192369552,0.3975004614127139,0.011311203100693437,0.7760434518944288l2.569620586916972,4.799245919793287c0.024019827563477206,0.04482294935006723,0.14090225960397607,0.2903472460252591,-0.004798692224536609,0.449336884014027l-1.6047670524955835,1.7504680043240963l0,0c0,0,-0.001476520684472803,0.0013710549212961741,-0.001476520684472803,0.002293880349091676l-0.07113665726263611,0.07730640440846889c-0.11345479473725842,0.13402061855670103,-0.33677854826376985,0.45081340469849973,-0.4824795000922825,1.0086481925804835l0,0l-0.90708466264139,3.463416563398107c-0.027658396393070897,0.11229467134231551,-0.0994805811163551,0.5038363171355499,0.24678988583331135,0.5038363171355499h0.6205078176496954c0.0943654916022886,-0.002953041368945606,0.3746407572441796,-0.04550847681071532,0.5077385503730851,-0.4674769952804071v-0.0004745959342948295l0.7025074485195243,-2.705249558362117c0,-0.00044822949350067237,0.0002109315263532576,-0.00044822949350067237,0.0006855274606480871,-0.0013710549212961741c0.12579428902892398,-0.4853270756980515,0.3842381416932528,-0.7646004165897645,0.4809766129670156,-0.8558546681783427c0.010309278350515464,-0.009597384449073218,0.023571598069976534,-0.021963245181532944,0.034302739473198514,-0.03245708861760751c0.0016083528884435888,-0.0006855274606480871,0.005721517652332112,-0.004113164763888523,0.005721517652332112,-0.004113164763888523v-0.000922825427795502c0.2973343528357107,-0.27215440187729056,0.8087378384791837,-0.7629920637013209,1.6398871516334008,-1.6120969230363593v0.0008964589870013447c0,0,0.2021778680095974,-0.21153795449152318,0.1879927228623408,-0.0012392227173253882c-0.10496480080153979,1.6760091755213964,-0.7744350990059852,4.331848023835263,-1.0315078967490179,5.305270651514752c-0.02697286893242281,0.13172673820760936,-0.03773037677643895,0.3746407572441796,0.2525114034856435,0.3746407572441796h0.6600574788409312c0.1084188045455744,-0.008700925462071876,0.34218366862657207,-0.07366783557887521,0.44005589685448365,-0.46017349118042555c0.3224615709125425,-1.2680148706726078,1.2112479236427875,-4.770084636274949,1.3896696284968493,-5.542700450866137c0.07888839085611833,-0.33941519234318557,0.1058876262293353,-0.6201650539193715,0.11000079099322381,-0.8442007013473252c-0.010309278350515464,-0.41477048013288687,-0.20971867007672634,-0.9107495979117779,-0.20971867007672634,-0.9107495979117779v-0.0005536952566773011l-0.16697866954939752,-0.3347219658818256l-0.7254726184512352,-1.357080707675271c-0.20447174835868906,-0.38276162100878003,-0.06335855722835974,-0.6198222901890473,-0.015107970575052072,-0.6843146043715559l0.013288686160255227,-0.017375484483349593c0.0006591610198539299,0,0.002267513908297519,-0.0020565823819442613,0.002267513908297519,-0.0020565823819442613l1.2606850001318322,-1.6244364173280248c0.284968492103251,-0.3675481846705513,0.45099796978405887,-0.7976375669048434,0.45170986368550115,-0.7991404540301105l0.5267487541856725,-1.3900123922271732C11.347483323226196,0.5791916049252511,11.093126268884962,0.42813826561552454,11.017217285838585,0.3941782898726501L11.017217285838585,0.3941782898726501z"></path> </svg>