<?xml version="1.0" encoding="utf-8"?> <!DOCTYPE svg PUBLIC "-//W3C//DTD SVG 1.1//EN" "http://www.w3.org/Graphics/SVG/1.1/DTD/svg11.dtd"><svg version="1.1" id="marker-circle-blue" xmlns="http://www.w3.org/2000/svg" xmlns:xlink="http://www.w3.org/1999/xlink" x="0px"  y="0px" width="24px" height="36px" viewBox="0 0 24 36" enable-background="new 0 0 24 36" xml:space="preserve"><path fill="#A23337" d="M12,0C5.371,0,0,5.903,0,13.187c0,0.829,0.079,1.643,0.212,2.424c0.302,1.785,0.924,3.448,1.81,4.901
	l0.107,0.163L11.965,36l9.952-15.393l0.045-0.064c0.949-1.555,1.595-3.343,1.875-5.269C23.934,14.589,24,13.899,24,13.187
	C24,5.905,18.629,0,12,0z"></path><path fill="#ffffff" transform="translate(4.5 4.5)" d="M 14,2.5 C 14,3.6605381 12.880712,4.6013401 11.5,4.6013401 10.119288,4.6013401 9,3.6605381 9,2.5 9,1.3394619 10.119288,0.39865994 11.5,0.39865994 12.880712,0.39865994 14,1.3394619 14,2.5 Z M 8,2 10,2 10,3 8,3 Z M 3,-5.0000001e-8 l 1,0 L 4,1 3,1 Z M 1,0 2,0 2,1 1,1 Z M 1,4 2,4 2,5 1,5 Z M 3,4 4,4 4,5 3,5 Z M 4,2 5,2 5,3 4,3 Z M 2,2 3,2 3,3 2,3 Z M 0,2 1,2 1,3 0,3 Z M 6,5.4221106 8,5.39866 8,2 C 8,1 8,1 7,1 6.0336003,1.0168001 6,1 6,2 Z M 5,6 C 3,6 1.46875,9 1.46875,11 1.46875,12 4,14 5,14 l 4,0 c 1,0 3.414063,-2 3.414062,-3 C 12.414062,9 11,6 9,6 Z"></path> </svg>