<?xml version="1.0" encoding="utf-8"?> <!DOCTYPE svg PUBLIC "-//W3C//DTD SVG 1.1//EN" "http://www.w3.org/Graphics/SVG/1.1/DTD/svg11.dtd"><svg version="1.1" id="marker-circle-blue" xmlns="http://www.w3.org/2000/svg" xmlns:xlink="http://www.w3.org/1999/xlink" x="0px"  y="0px" width="24px" height="36px" viewBox="0 0 24 36" enable-background="new 0 0 24 36" xml:space="preserve"><path fill="#EF9228" d="M12,0C5.371,0,0,5.903,0,13.187c0,0.829,0.079,1.643,0.212,2.424c0.302,1.785,0.924,3.448,1.81,4.901
	l0.107,0.163L11.965,36l9.952-15.393l0.045-0.064c0.949-1.555,1.595-3.343,1.875-5.269C23.934,14.589,24,13.899,24,13.187
	C24,5.905,18.629,0,12,0z"></path><path fill="#ffffff" transform="translate(4.5 4.5)" d="M11.101562,0.300781C10.933594,0.300781,10.800781,0.433594,10.800781,0.601562L10.800781,4.800781C10.800781,4.964844,10.664062,5.101562,10.5,5.101562L4.5,5.101562C4.335938,5.101562,4.199219,4.964844,4.199219,4.800781L4.199219,0.601562C4.199219,0.433594,4.066406,0.300781,3.898438,0.300781L1.199219,0.300781C1.035156,0.300781,0.898438,0.433594,0.898438,0.601562L0.898438,14.398438C0.898438,14.566406,1.035156,14.699219,1.199219,14.699219L3.898438,14.699219C4.066406,14.699219,4.199219,14.566406,4.199219,14.398438L4.199219,9.601562C4.199219,9.433594,4.335938,9.300781,4.5,9.300781L10.5,9.300781C10.664062,9.300781,10.800781,9.433594,10.800781,9.601562L10.800781,14.398438C10.800781,14.566406,10.933594,14.699219,11.101562,14.699219L13.800781,14.699219C13.964844,14.699219,14.101562,14.566406,14.101562,14.398438L14.101562,0.601562C14.101562,0.433594,13.964844,0.300781,13.800781,0.300781ZM11.101562,0.300781"></path> </svg>