<?xml version="1.0" encoding="utf-8"?> <!DOCTYPE svg PUBLIC "-//W3C//DTD SVG 1.1//EN" "http://www.w3.org/Graphics/SVG/1.1/DTD/svg11.dtd"><svg version="1.1" id="marker-circle-blue" xmlns="http://www.w3.org/2000/svg" xmlns:xlink="http://www.w3.org/1999/xlink" x="0px"  y="0px" width="24px" height="36px" viewBox="0 0 24 36" enable-background="new 0 0 24 36" xml:space="preserve"><path fill="#A23337" d="M12,0C5.371,0,0,5.903,0,13.187c0,0.829,0.079,1.643,0.212,2.424c0.302,1.785,0.924,3.448,1.81,4.901
	l0.107,0.163L11.965,36l9.952-15.393l0.045-0.064c0.949-1.555,1.595-3.343,1.875-5.269C23.934,14.589,24,13.899,24,13.187
	C24,5.905,18.629,0,12,0z"></path><path fill="#ffffff" transform="translate(4.5 4.5)" d="M12.300781,5.699219L12.21875,5.699219C12.195312,5.660156,12.171875,5.625,12.136719,5.589844L8.675781,1.878906C8.691406,1.804688,8.699219,1.730469,8.699219,1.648438C8.699219,1.070312,8.273438,0.601562,7.746094,0.601562L6.65625,0.601562C6.128906,0.601562,5.699219,1.070312,5.699219,1.648438C5.699219,1.730469,5.710938,1.804688,5.722656,1.878906L2.261719,5.589844C2.230469,5.625,2.203125,5.660156,2.179688,5.699219L0.601562,5.699219L0.601562,7.800781L1.199219,7.800781L1.199219,12.300781C1.199219,13.128906,1.871094,13.800781,2.699219,13.800781L12.300781,13.800781C13.128906,13.800781,13.800781,13.128906,13.800781,12.300781L13.800781,7.800781L14.398438,7.800781L14.398438,5.699219ZM6.65625,2.699219L7.746094,2.699219L7.792969,2.695312L10.597656,5.699219L3.800781,5.699219L6.605469,2.695312ZM3.898438,12C3.898438,12.328125,3.628906,12.601562,3.300781,12.601562C2.96875,12.601562,2.699219,12.328125,2.699219,12L2.699219,8.398438C2.699219,8.070312,2.96875,7.800781,3.300781,7.800781C3.628906,7.800781,3.898438,8.070312,3.898438,8.398438ZM6.601562,12C6.601562,12.328125,6.328125,12.601562,6,12.601562C5.671875,12.601562,5.398438,12.328125,5.398438,12L5.398438,8.398438C5.398438,8.070312,5.671875,7.800781,6,7.800781C6.328125,7.800781,6.601562,8.070312,6.601562,8.398438ZM9.601562,12C9.601562,12.328125,9.328125,12.601562,9,12.601562C8.671875,12.601562,8.398438,12.328125,8.398438,12L8.398438,8.398438C8.398438,8.070312,8.671875,7.800781,9,7.800781C9.328125,7.800781,9.601562,8.070312,9.601562,8.398438ZM12.300781,12C12.300781,12.328125,12.03125,12.601562,11.699219,12.601562C11.371094,12.601562,11.101562,12.328125,11.101562,12L11.101562,8.398438C11.101562,8.070312,11.371094,7.800781,11.699219,7.800781C12.03125,7.800781,12.300781,8.070312,12.300781,8.398438ZM12.300781,12"></path> </svg>