<?xml version="1.0" encoding="utf-8"?> <!DOCTYPE svg PUBLIC "-//W3C//DTD SVG 1.1//EN" "http://www.w3.org/Graphics/SVG/1.1/DTD/svg11.dtd"><svg version="1.1" id="marker-circle-blue" xmlns="http://www.w3.org/2000/svg" xmlns:xlink="http://www.w3.org/1999/xlink" x="0px"  y="0px" width="24px" height="36px" viewBox="0 0 24 36" enable-background="new 0 0 24 36" xml:space="preserve"><path fill="#EF9228" d="M12,0C5.371,0,0,5.903,0,13.187c0,0.829,0.079,1.643,0.212,2.424c0.302,1.785,0.924,3.448,1.81,4.901
	l0.107,0.163L11.965,36l9.952-15.393l0.045-0.064c0.949-1.555,1.595-3.343,1.875-5.269C23.934,14.589,24,13.899,24,13.187
	C24,5.905,18.629,0,12,0z"></path><path fill="#ffffff" transform="translate(4.5 4.5)" d="M 3,2 C 1.8344723,2 1,2.7955215 1,4 L 1,15 8,15 8,7.125 C 8,7.125 8.875,7 8.875,8 l 0,4 c 0,2 1.864698,2.125 2.125,2.125 0.275652,0 2.125,-0.124975 2.125,-2.125 l 0,-4 c 0,0 1.387558,0.017377 1.375,-2.96875 l -0.75,0 0,-2 C 13.75,2.4640917 13,2.4675079 13,3 l 0,2 -1,0 0,-2 C 12,2.4538157 11.25,2.4548128 11.25,3 l 0,2 -0.75,0 c 0.01252,2.9863904 1.375,3 1.375,3 l 0,4 c 0,0.874159 -0.767136,0.875 -0.875,0.875 -0.107864,0 -0.875,-0.04279 -0.875,-0.875 l 0,-4 C 10.125,6.7190916 9,5.875 8,5.875 L 8,4 C 8,2.7775442 7.1835046,2 6,2 Z m 0.96875,2 2.75,0 L 5,6.6666667 l 2.0625,0 L 3.28125,12 2.59375,12 3.96875,8 2.25,8 Z"></path> </svg>