<?xml version="1.0" encoding="utf-8"?> <!DOCTYPE svg PUBLIC "-//W3C//DTD SVG 1.1//EN" "http://www.w3.org/Graphics/SVG/1.1/DTD/svg11.dtd"><svg version="1.1" id="marker-circle-blue" xmlns="http://www.w3.org/2000/svg" xmlns:xlink="http://www.w3.org/1999/xlink" x="0px"  y="0px" width="24px" height="36px" viewBox="0 0 24 36" enable-background="new 0 0 24 36" xml:space="preserve"><path fill="#5B396C" d="M12,0C5.371,0,0,5.903,0,13.187c0,0.829,0.079,1.643,0.212,2.424c0.302,1.785,0.924,3.448,1.81,4.901
	l0.107,0.163L11.965,36l9.952-15.393l0.045-0.064c0.949-1.555,1.595-3.343,1.875-5.269C23.934,14.589,24,13.899,24,13.187
	C24,5.905,18.629,0,12,0z"></path><path fill="#ffffff" transform="translate(4.5 4.5)" d="M10.1113,2C9.9989,2,9.6758,2.1465,9.6758,2.1465L6.3535,3.8262C5.9111,4.0024,5.7358,4.7081,6.002,5.0605l0.9707,1.4082L3.002,8.498L5,9.998l2.502,-1.5l2.5,1.5l1.002,-1.002l-3,-4l2.5566,-1.5293c0.5286,-0.2662,0.4434,-0.7045,0.4434,-0.9707C10.9999,2.2861,10.6437,2,10.1113,2zM12.252,5C11.2847,5,10.5,5.7827,10.5,6.75s0.7847,1.752,1.752,1.752s1.75,-0.7847,1.75,-1.752S13.2192,5,12.252,5zM2.5,10L0,11.5V13l2.5,-1.5L5,13l2.502,-1.5l2.5,1.5L12,11.5l3,1.5v-1.5L12,10l-1.998,1.5l-2.5,-1.5L5,11.5L2.5,10z"></path> </svg>