<?xml version="1.0" encoding="utf-8"?> <!DOCTYPE svg PUBLIC "-//W3C//DTD SVG 1.1//EN" "http://www.w3.org/Graphics/SVG/1.1/DTD/svg11.dtd"><svg version="1.1" id="marker-circle-blue" xmlns="http://www.w3.org/2000/svg" xmlns:xlink="http://www.w3.org/1999/xlink" x="0px"  y="0px" width="24px" height="36px" viewBox="0 0 24 36" enable-background="new 0 0 24 36" xml:space="preserve"><path fill="#FFBA0C" d="M12,0C5.371,0,0,5.903,0,13.187c0,0.829,0.079,1.643,0.212,2.424c0.302,1.785,0.924,3.448,1.81,4.901
	l0.107,0.163L11.965,36l9.952-15.393l0.045-0.064c0.949-1.555,1.595-3.343,1.875-5.269C23.934,14.589,24,13.899,24,13.187
	C24,5.905,18.629,0,12,0z"></path><path fill="#ffffff" transform="translate(4.5 4.5)" d="M11,4H4C3.4477,4,3,3.5523,3,3V0.5C3,0.2239,3.2239,0,3.5,0S4,0.2239,4,0.5V2h1V1c0-0.5523,0.4477-1,1-1s1,0.4477,1,1v1h1V1
	c0-0.5523,0.4477-1,1-1s1,0.4477,1,1v1h1V0.5C11,0.2239,11.2239,0,11.5,0S12,0.2239,12,0.5V3C12,3.5523,11.5523,4,11,4z M14,14.5
	c0,0.2761-0.2239,0.5-0.5,0.5h-12C1.2239,15,1,14.7761,1,14.5S1.2239,14,1.5,14H2c0.5523,0,1-0.4477,1-1c0,0,1-6,1-7
	c0-0.5523,0.4477-1,1-1h5c0.5523,0,1,0.4477,1,1c0,1,1,7,1,7c0,0.5523,0.4477,1,1,1h0.5c0.2723-0.0001,0.4946,0.2178,0.5,0.49V14.5z
	 M9,10.5C9,9.6716,8.3284,9,7.5,9S6,9.6716,6,10.5V14h3V10.5z"></path> </svg>