<?xml version="1.0" encoding="utf-8"?> <!DOCTYPE svg PUBLIC "-//W3C//DTD SVG 1.1//EN" "http://www.w3.org/Graphics/SVG/1.1/DTD/svg11.dtd"><svg version="1.1" id="marker-circle-blue" xmlns="http://www.w3.org/2000/svg" xmlns:xlink="http://www.w3.org/1999/xlink" x="0px"  y="0px" width="24px" height="36px" viewBox="0 0 24 36" enable-background="new 0 0 24 36" xml:space="preserve"><path fill="#EF9228" d="M12,0C5.371,0,0,5.903,0,13.187c0,0.829,0.079,1.643,0.212,2.424c0.302,1.785,0.924,3.448,1.81,4.901
	l0.107,0.163L11.965,36l9.952-15.393l0.045-0.064c0.949-1.555,1.595-3.343,1.875-5.269C23.934,14.589,24,13.899,24,13.187
	C24,5.905,18.629,0,12,0z"></path><path fill="#ffffff" transform="translate(4.5 4.5)" d="m9.1525425,3.6864407c1.0180905,0,1.8432195,-0.8251291,1.8432195,-1.8432204C10.995762,0.82512911,10.170633,0,9.1525425,0C8.1344512,0,7.3093221,0.82512911,7.3093221,1.8432203c0,1.0180913,0.8251291,1.8432204,1.8432204,1.8432204zM8.2703887,8.5752943C8.6753212,9.0568356,9.393601,9.125093,9.8823425,8.7256325L12.41677,6.6514334C12.908967,6.2488049,12.980968,5.5227489,12.578627,5.0305515C12.176287,4.5377781,11.449943,4.4663533,10.956882,4.8686937L9.3025924,6.2223086L8.1819717,4.888566C7.7372948,4.3589281,7.0524233,4.084461,6.3387514,4.1590539C5.6420717,4.2304787,5.035537,4.6276351,4.7152775,5.2223616L3.2934058,7.8728549C2.6194783,9.1297011,3.0431311,10.648341,4.2780887,11.436893l1.2905422,1.004844H2.9316738c-0.6361991,0,-1.1520127,0.515813,-1.1520127,1.152012c0,0.6362,0.5158136,1.152013,1.1520127,1.152013h5.9904661c0.9815146,0,1.5485921,-1.232365,0.8144734,-1.966486L6.57261,9.6152739L7.574861,7.7469976Z"></path> </svg>