<?xml version="1.0" encoding="utf-8"?> <!DOCTYPE svg PUBLIC "-//W3C//DTD SVG 1.1//EN" "http://www.w3.org/Graphics/SVG/1.1/DTD/svg11.dtd"><svg version="1.1" id="marker-circle-blue" xmlns="http://www.w3.org/2000/svg" xmlns:xlink="http://www.w3.org/1999/xlink" x="0px"  y="0px" width="24px" height="36px" viewBox="0 0 24 36" enable-background="new 0 0 24 36" xml:space="preserve"><path fill="#A23337" d="M12,0C5.371,0,0,5.903,0,13.187c0,0.829,0.079,1.643,0.212,2.424c0.302,1.785,0.924,3.448,1.81,4.901
	l0.107,0.163L11.965,36l9.952-15.393l0.045-0.064c0.949-1.555,1.595-3.343,1.875-5.269C23.934,14.589,24,13.899,24,13.187
	C24,5.905,18.629,0,12,0z"></path><path fill="#ffffff" transform="translate(4.5 4.5)" d="M 0.75,3 C 0.75,3 0,5.25 0,8.25 l 5.5,0 c 0.5,0 1.306389,1 1.3,1 l 7.2,0 C 14,6.25 11,6 10,6 L 8,6 C 7,4 5,3 5,3 L 4.75,3 C 4,4.508412 2.016472,4.508412 1,3 z M 5.5,4 C 5.776142,4 6,4.2238577 6,4.5 6,4.7761423 5.776142,5 5.5,5 5.223858,5 5,4.7761423 5,4.5 5,4.2238577 5.223858,4 5.5,4 z m 1,1 C 6.776142,5 7,5.2238577 7,5.5 7,5.7761423 6.776142,6 6.5,6 6.223858,6 6,5.7761423 6,5.5 6,5.2238577 6.223858,5 6.5,5 z M 0,9 l 0,2 5.25,0 0,-2 z m 7.3,1 c 0,0 0.7,1 1.2,1 l 5.5,0 0,-1 z"></path> </svg>