<?xml version="1.0" encoding="utf-8"?> <!DOCTYPE svg PUBLIC "-//W3C//DTD SVG 1.1//EN" "http://www.w3.org/Graphics/SVG/1.1/DTD/svg11.dtd"><svg version="1.1" id="marker-circle-blue" xmlns="http://www.w3.org/2000/svg" xmlns:xlink="http://www.w3.org/1999/xlink" x="0px"  y="0px" width="24px" height="36px" viewBox="0 0 24 36" enable-background="new 0 0 24 36" xml:space="preserve"><path fill="#EF9228" d="M12,0C5.371,0,0,5.903,0,13.187c0,0.829,0.079,1.643,0.212,2.424c0.302,1.785,0.924,3.448,1.81,4.901
	l0.107,0.163L11.965,36l9.952-15.393l0.045-0.064c0.949-1.555,1.595-3.343,1.875-5.269C23.934,14.589,24,13.899,24,13.187
	C24,5.905,18.629,0,12,0z"></path><path fill="#ffffff" transform="translate(4.5 4.5)" d="M8.3879,3.8928C8.3879,3.8928,7.6818,5,7,5H4.5C3.8182,5,3.2016,5.4086,2.7273,5.8636L0.5,8C0.231,8.258,0.0072,8.7681,0,9c-0.0156,0.5,0,1,0,1s1,0,1,-1V8.5l1,-1h0.5l0.158,0.2892c0,0,-0.9535,1.8244,-0.9535,3.5289C1.7046,12,2.3864,12,2.3864,12h0.6818c0,0,0.3409,0,0,-0.3409l-0.3409,-0.3409C2.7273,10.6364,3.5002,9.6667,4,9c0,0,0.0168,1.1579,0,2c-0.008,0.4096,0.2721,1,0.6818,1h0.6818c0,0,0.3409,0,0,-0.3409l-0.3409,-0.3409C4.7105,10.7495,5.5,8.5,5.5,8.5C6.7716,8.5,7,9,8.5,9l0.3636,2.3182C8.975,12.0282,9.5,12,9.5,12H11c0.3409,0,0.9611,-0.3115,0.3409,-0.7736L11,11V9c1.2142,-0.1722,2,-1,2,-2h1c0.3214,0,1,0,1,-0.5v-1l-1.7045,-1.6818C12.5444,3.0772,12,2.5,11,2.5C9.5469,2.5,8.8636,3.0688,8.3879,3.8928z"></path> </svg>