<?xml version="1.0" encoding="utf-8"?> <!DOCTYPE svg PUBLIC "-//W3C//DTD SVG 1.1//EN" "http://www.w3.org/Graphics/SVG/1.1/DTD/svg11.dtd"><svg version="1.1" id="marker-circle-blue" xmlns="http://www.w3.org/2000/svg" xmlns:xlink="http://www.w3.org/1999/xlink" x="0px"  y="0px" width="24px" height="36px" viewBox="0 0 24 36" enable-background="new 0 0 24 36" xml:space="preserve"><path fill="#EF9228" d="M12,0C5.371,0,0,5.903,0,13.187c0,0.829,0.079,1.643,0.212,2.424c0.302,1.785,0.924,3.448,1.81,4.901
	l0.107,0.163L11.965,36l9.952-15.393l0.045-0.064c0.949-1.555,1.595-3.343,1.875-5.269C23.934,14.589,24,13.899,24,13.187
	C24,5.905,18.629,0,12,0z"></path><path fill="#ffffff" transform="translate(4.5 4.5)" d="M 11.101562 2.101562 L 2.699219 2.101562 L 2.699219 10.199219 C 2.699219 10.859375 3.238281 11.398438 3.898438 11.398438 L 9.898438 11.398438 C 10.558594 11.398438 11.101562 10.859375 11.101562 10.199219 L 11.101562 8.699219 C 12.921875 8.699219 14.398438 7.222656 14.398438 5.398438 C 14.398438 3.578125 12.921875 2.101562 11.101562 2.101562 Z M 11.101562 7.199219 L 11.101562 3.601562 C 12.09375 3.601562 12.898438 4.40625 12.898438 5.398438 C 12.898438 6.394531 12.09375 7.199219 11.101562 7.199219 Z M 0.601562 12 L 0.601562 12.691406 C 0.601562 13.257812 1.21875 13.5 1.980469 13.5 L 13.019531 13.5 C 13.777344 13.5 14.398438 13.257812 14.398438 12.691406 L 14.398438 12 Z M 0.601562 12 "></path> </svg>