<?xml version="1.0" encoding="utf-8"?> <!DOCTYPE svg PUBLIC "-//W3C//DTD SVG 1.1//EN" "http://www.w3.org/Graphics/SVG/1.1/DTD/svg11.dtd"><svg version="1.1" id="marker-circle-blue" xmlns="http://www.w3.org/2000/svg" xmlns:xlink="http://www.w3.org/1999/xlink" x="0px"  y="0px" width="24px" height="36px" viewBox="0 0 24 36" enable-background="new 0 0 24 36" xml:space="preserve"><path fill="#F5BB3A" d="M12,0C5.371,0,0,5.903,0,13.187c0,0.829,0.079,1.643,0.212,2.424c0.302,1.785,0.924,3.448,1.81,4.901
	l0.107,0.163L11.965,36l9.952-15.393l0.045-0.064c0.949-1.555,1.595-3.343,1.875-5.269C23.934,14.589,24,13.899,24,13.187
	C24,5.905,18.629,0,12,0z"></path><path fill="#ffffff" transform="translate(4.5 4.5)" d="M 7.5 4.285156 L 4.285156 4.285156 L 4.285156 7.5 L 7.5 7.5 Z M 8.570312 9.644531 L 8.570312 10.714844 L 3.214844 10.714844 L 3.214844 9.644531 Z M 8.570312 3.214844 L 8.570312 8.570312 L 3.214844 8.570312 L 3.214844 3.214844 Z M 13.929688 9.644531 L 13.929688 10.714844 L 9.644531 10.714844 L 9.644531 9.644531 Z M 13.929688 7.5 L 13.929688 8.570312 L 9.644531 8.570312 L 9.644531 7.5 Z M 13.929688 5.355469 L 13.929688 6.429688 L 9.644531 6.429688 L 9.644531 5.355469 Z M 13.929688 3.214844 L 13.929688 4.285156 L 9.644531 4.285156 L 9.644531 3.214844 Z M 1.070312 11.25 L 1.070312 3.214844 L 0 3.214844 L 0 11.25 C 0 11.394531 0.0546875 11.519531 0.160156 11.625 C 0.265625 11.734375 0.390625 11.785156 0.535156 11.785156 C 0.679688 11.785156 0.804688 11.734375 0.914062 11.625 C 1.019531 11.519531 1.070312 11.394531 1.070312 11.25 Z M 15 11.25 L 15 2.144531 L 2.144531 2.144531 L 2.144531 11.25 C 2.144531 11.433594 2.113281 11.613281 2.050781 11.785156 L 14.464844 11.785156 C 14.609375 11.785156 14.734375 11.734375 14.839844 11.625 C 14.945312 11.519531 15 11.394531 15 11.25 Z M 16.070312 1.070312 L 16.070312 11.25 C 16.070312 11.695312 15.914062 12.074219 15.601562 12.386719 C 15.289062 12.699219 14.910156 12.855469 14.464844 12.855469 L 0.535156 12.855469 C 0.0898438 12.855469 -0.289062 12.699219 -0.601562 12.386719 C -0.914062 12.074219 -1.070312 11.695312 -1.070312 11.25 L -1.070312 2.144531 L 1.070312 2.144531 L 1.070312 1.070312 Z M 16.070312 1.070312 "></path> </svg>