<?xml version="1.0" encoding="utf-8"?> <!DOCTYPE svg PUBLIC "-//W3C//DTD SVG 1.1//EN" "http://www.w3.org/Graphics/SVG/1.1/DTD/svg11.dtd"><svg version="1.1" id="marker-circle-blue" xmlns="http://www.w3.org/2000/svg" xmlns:xlink="http://www.w3.org/1999/xlink" x="0px"  y="0px" width="24px" height="36px" viewBox="0 0 24 36" enable-background="new 0 0 24 36" xml:space="preserve"><path fill="#0E5F71" d="M12,0C5.371,0,0,5.903,0,13.187c0,0.829,0.079,1.643,0.212,2.424c0.302,1.785,0.924,3.448,1.81,4.901
	l0.107,0.163L11.965,36l9.952-15.393l0.045-0.064c0.949-1.555,1.595-3.343,1.875-5.269C23.934,14.589,24,13.899,24,13.187
	C24,5.905,18.629,0,12,0z"></path><path fill="#ffffff" transform="translate(4.5 4.5)" d="M8.707714,2.3953919H1.4220529c-0.66692595,0,-1.20754019,0.5419425,-1.20754019,1.2105072v7.3035619c0,0.668565,0.54061424,1.210507,1.20754019,1.210507H8.707714c0.666926,0,1.2075402,-0.541942,1.2075402,-1.210507V3.6058991c0,-0.6685647,-0.5406142,-1.2105072,-1.2075402,-1.2105072zm4.784689,0.9547305l-2.768753,1.914526v3.9860633l2.768753,1.9119933c0.535562,0.369737,1.273222,-0.0076,1.273222,-0.65337V4.0034924c0,-0.6432402,-0.735134,-1.0231065,-1.273222,-0.65337z"></path> </svg>