<?xml version="1.0" encoding="utf-8"?> <!DOCTYPE svg PUBLIC "-//W3C//DTD SVG 1.1//EN" "http://www.w3.org/Graphics/SVG/1.1/DTD/svg11.dtd"><svg version="1.1" id="marker-circle-blue" xmlns="http://www.w3.org/2000/svg" xmlns:xlink="http://www.w3.org/1999/xlink" x="0px"  y="0px" width="24px" height="36px" viewBox="0 0 24 36" enable-background="new 0 0 24 36" xml:space="preserve"><path fill="#EF9228" d="M12,0C5.371,0,0,5.903,0,13.187c0,0.829,0.079,1.643,0.212,2.424c0.302,1.785,0.924,3.448,1.81,4.901
	l0.107,0.163L11.965,36l9.952-15.393l0.045-0.064c0.949-1.555,1.595-3.343,1.875-5.269C23.934,14.589,24,13.899,24,13.187
	C24,5.905,18.629,0,12,0z"></path><path fill="#ffffff" transform="translate(4.5 4.5)" d="m5.0741525,13.288312c0,0.226739,0.1855138,0.412253,0.4122529,0.412253H6.310911c0.226739,0,0.4122528,-0.185514,0.4122528,-0.412253V8.7535311H5.0741525ZM5.8986581,6.2800141H4.5871788L3.4225646,5.1128233C3.1107984,4.8010571,2.695969,4.6310028,2.2579504,4.6310028H1.7761299c-0.4405952,0,-0.85542457,0.172631,-1.16719078,0.4843972C0.29974951,5.4271661,0.12711864,5.8419956,0.12711864,6.2825908l0.005153,2.4709403l-0.005153,4.1225279c0,0.456055,0.36845096,0.824506,0.82192907,0.824506c0.45347809,0,0.82450559,-0.368451,0.82450559,-0.824506l0.00257,-2.594616c0.02319,0.01288,0.041225,0.0335,0.064415,0.0438l0.7497893,1.10793v1.442884c0,0.456055,0.368451,0.824506,0.8245056,0.824506c0.4560547,0,0.8245056,-0.368451,0.8245056,-0.824506v-1.455767c0,-0.255082,-0.059261,-0.510163,-0.1726308,-0.736902L3.0051587,9.103946V7.0272224l0.5385051,0.5385053c0.2344688,0.2344687,0.5436585,0.3632978,0.8734608,0.3632978h1.4815335c0.4560547,0,0.8245057,-0.368451,0.8245057,-0.8245057c0,-0.4560547,-0.368451,-0.8245057,-0.8245057,-0.8245057zM1.7761299,3.8064971c0.6827937,0,1.2367585,-0.5539646,1.2367585,-1.2367584c0,-0.6827937,-0.5539648,-1.2367585,-1.2367585,-1.2367585c-0.6827937,0,-1.23675844,0.5539648,-1.23675844,1.2367585c0,0.6827938,0.55396474,1.2367584,1.23675844,1.2367584zM7.5476695,1.3329802L8.3592922,7.0813305L7.5631289,11.064724c-0.1107926,0.556541,0.3349554,0.98683,0.8090462,0.98683c0.3916402,0,0.7214425,-0.234469,0.8322354,-0.78328c0.023189,0.435442,0.3761807,0.78328,0.8167755,0.78328c0.456055,0,0.824506,-0.368451,0.824506,-0.824506c0,0.456055,0.368451,0.824506,0.824506,0.824506c0.456055,0,0.824505,-0.368451,0.824505,-0.824506V0.50847458H7.5476695Zm-2.473517,0V5.4555085H6.7231638V0.50847458H5.8986581c-0.4560547,0,-0.8245056,0.36845096,-0.8245056,0.82450562zM14.143715,0.50847458H13.319209V13.288312c0,0.226739,0.185514,0.412253,0.412253,0.412253h0.824506c0.226739,0,0.412253,-0.185514,0.412253,-0.412253V1.3329802c0,-0.45605466,-0.368451,-0.82450562,-0.824506,-0.82450562z"></path> </svg>