<?xml version="1.0" encoding="utf-8"?> <!DOCTYPE svg PUBLIC "-//W3C//DTD SVG 1.1//EN" "http://www.w3.org/Graphics/SVG/1.1/DTD/svg11.dtd"><svg version="1.1" id="marker-circle-blue" xmlns="http://www.w3.org/2000/svg" xmlns:xlink="http://www.w3.org/1999/xlink" x="0px"  y="0px" width="24px" height="36px" viewBox="0 0 24 36" enable-background="new 0 0 24 36" xml:space="preserve"><path fill="#A23337" d="M12,0C5.371,0,0,5.903,0,13.187c0,0.829,0.079,1.643,0.212,2.424c0.302,1.785,0.924,3.448,1.81,4.901
	l0.107,0.163L11.965,36l9.952-15.393l0.045-0.064c0.949-1.555,1.595-3.343,1.875-5.269C23.934,14.589,24,13.899,24,13.187
	C24,5.905,18.629,0,12,0z"></path><path fill="#ffffff" transform="translate(4.5 4.5)" d="M13,8c0,3.31,-2.19,6,-5.5,6S2,11.31,2,8c2.2643,0.0191,4.2694,1.4667,5,3.61V7H4.5C3.6716,7,3,6.3284,3,5.5v-3C3,2.2239,3.2239,2,3.5,2c0.1574,0,0.3056,0.0741,0.4,0.2l1.53,2l1.65,-3c0.1498,-0.232,0.4593,-0.2985,0.6913,-0.1487C7.8308,1.0898,7.8815,1.1404,7.92,1.2l1.65,3l1.53,-2c0.1657,-0.2209,0.4791,-0.2657,0.7,-0.1C11.9259,2.1944,12,2.3426,12,2.5v3C12,6.3284,11.3284,7,10.5,7H8v4.61C8.7306,9.4667,10.7357,8.0191,13,8z"></path> </svg>