<?xml version="1.0" encoding="utf-8"?> <!DOCTYPE svg PUBLIC "-//W3C//DTD SVG 1.1//EN" "http://www.w3.org/Graphics/SVG/1.1/DTD/svg11.dtd"><svg version="1.1" id="marker-circle-blue" xmlns="http://www.w3.org/2000/svg" xmlns:xlink="http://www.w3.org/1999/xlink" x="0px"  y="0px" width="24px" height="36px" viewBox="0 0 24 36" enable-background="new 0 0 24 36" xml:space="preserve"><path fill="#EF9228" d="M12,0C5.371,0,0,5.903,0,13.187c0,0.829,0.079,1.643,0.212,2.424c0.302,1.785,0.924,3.448,1.81,4.901
	l0.107,0.163L11.965,36l9.952-15.393l0.045-0.064c0.949-1.555,1.595-3.343,1.875-5.269C23.934,14.589,24,13.899,24,13.187
	C24,5.905,18.629,0,12,0z"></path><path fill="#ffffff" transform="translate(4.5 4.5)" d="M13.710938,7.242188L11.34375,3.253906C11.25,3.082031,11.019531,3,10.828125,3L8.699219,3L8.699219,1.199219C8.699219,0.871094,8.429688,0.601562,8.101562,0.601562L6.601562,0.601562C6.269531,0.601562,6,0.871094,6,1.199219L6,3L4.210938,3C4.015625,3,3.78125,3.082031,3.6875,3.253906L1.308594,7.273438C0.917969,7.273438,0.601562,7.570312,0.601562,7.972656L0.601562,11.613281C0.601562,12.015625,0.917969,12.300781,1.308594,12.300781L2.101562,12.300781L2.101562,13.433594C2.101562,14.035156,2.5,14.398438,3.082031,14.398438L3.4375,14.398438C4.023438,14.398438,4.5,14.035156,4.5,13.433594L4.5,12.300781L10.5,12.300781L10.5,13.433594C10.5,14.035156,11.015625,14.398438,11.597656,14.398438L11.953125,14.398438C12.539062,14.398438,12.898438,14.035156,12.898438,13.433594L12.898438,12.300781L13.730469,12.300781C14.117188,12.300781,14.398438,12.015625,14.398438,11.613281L14.398438,7.972656C14.398438,7.570312,14.101562,7.242188,13.710938,7.242188ZM2.550781,10.15625C2.0625,10.15625,1.664062,9.75,1.664062,9.246094C1.664062,8.742188,2.0625,8.335938,2.550781,8.335938C3.042969,8.335938,3.4375,8.742188,3.4375,9.246094C3.4375,9.75,3.042969,10.15625,2.550781,10.15625ZM3.082031,7.199219L4.699219,4.386719C4.785156,4.207031,5.019531,4.199219,5.210938,4.199219L9.824219,4.199219C10.019531,4.199219,10.25,4.207031,10.339844,4.386719L11.953125,7.199219ZM12.488281,10.15625C11.996094,10.15625,11.597656,9.75,11.597656,9.246094C11.597656,8.742188,11.996094,8.335938,12.488281,8.335938C12.976562,8.335938,13.375,8.742188,13.375,9.246094C13.375,9.75,12.976562,10.15625,12.488281,10.15625ZM12.488281,10.15625"></path> </svg>