<?xml version="1.0" encoding="utf-8"?> <!DOCTYPE svg PUBLIC "-//W3C//DTD SVG 1.1//EN" "http://www.w3.org/Graphics/SVG/1.1/DTD/svg11.dtd"><svg version="1.1" id="marker-circle-blue" xmlns="http://www.w3.org/2000/svg" xmlns:xlink="http://www.w3.org/1999/xlink" x="0px"  y="0px" width="24px" height="36px" viewBox="0 0 24 36" enable-background="new 0 0 24 36" xml:space="preserve"><path fill="#EF9228" d="M12,0C5.371,0,0,5.903,0,13.187c0,0.829,0.079,1.643,0.212,2.424c0.302,1.785,0.924,3.448,1.81,4.901
	l0.107,0.163L11.965,36l9.952-15.393l0.045-0.064c0.949-1.555,1.595-3.343,1.875-5.269C23.934,14.589,24,13.899,24,13.187
	C24,5.905,18.629,0,12,0z"></path><path fill="#ffffff" transform="translate(4.5 4.5)" d="M 7.5 8.214844 C 5.878906 8.214844 4.5 8.6875 3.601562 9.425781 L 3.601562 10.800781 L 11.398438 10.800781 L 11.398438 9.425781 C 10.5 8.6875 9.121094 8.214844 7.5 8.214844 Z M 14.660156 7.507812 L 7.480469 4.199219 L 0.304688 7.507812 L 1.5 8.054688 L 1.5 8.898438 C 1.199219 8.960938 1.199219 9.117188 1.199219 9.304688 C 1.199219 9.414062 1.234375 9.542969 1.304688 9.621094 L 0.894531 10.5 L 2.359375 10.5 L 1.953125 9.621094 C 2.019531 9.542969 2.078125 9.429688 2.078125 9.320312 C 2.078125 9.132812 1.800781 8.960938 1.800781 8.898438 L 1.800781 8.195312 L 3.300781 8.871094 L 3.300781 8.8125 C 4.199219 8.027344 5.78125 7.53125 7.5 7.53125 C 9.21875 7.53125 10.800781 8.027344 11.699219 8.8125 L 11.699219 8.871094 Z M 14.660156 7.507812 "></path> </svg>