<?xml version="1.0" encoding="utf-8"?> <!DOCTYPE svg PUBLIC "-//W3C//DTD SVG 1.1//EN" "http://www.w3.org/Graphics/SVG/1.1/DTD/svg11.dtd"><svg version="1.1" id="marker-circle-blue" xmlns="http://www.w3.org/2000/svg" xmlns:xlink="http://www.w3.org/1999/xlink" x="0px"  y="0px" width="24px" height="36px" viewBox="0 0 24 36" enable-background="new 0 0 24 36" xml:space="preserve"><path fill="#EF9228" d="M12,0C5.371,0,0,5.903,0,13.187c0,0.829,0.079,1.643,0.212,2.424c0.302,1.785,0.924,3.448,1.81,4.901
	l0.107,0.163L11.965,36l9.952-15.393l0.045-0.064c0.949-1.555,1.595-3.343,1.875-5.269C23.934,14.589,24,13.899,24,13.187
	C24,5.905,18.629,0,12,0z"></path><path fill="#ffffff" transform="translate(4.5 4.5)" d="M 17.117188 8.671875 C 17.183594 9.246094 17.125 9.800781 16.933594 10.332031 C 16.742188 10.867188 16.46875 11.324219 16.105469 11.703125 C 15.742188 12.082031 15.300781 12.378906 14.777344 12.589844 C 14.257812 12.800781 13.707031 12.886719 13.132812 12.847656 C 12.234375 12.789062 11.453125 12.4375 10.792969 11.800781 C 10.132812 11.167969 9.757812 10.402344 9.667969 9.507812 C 9.601562 8.890625 9.675781 8.300781 9.898438 7.746094 C 10.117188 7.191406 10.449219 6.714844 10.890625 6.320312 L 10.296875 5.425781 C 9.761719 5.871094 9.339844 6.410156 9.03125 7.046875 C 8.726562 7.683594 8.570312 8.363281 8.570312 9.089844 C 8.570312 9.242188 8.519531 9.371094 8.417969 9.480469 C 8.3125 9.589844 8.1875 9.644531 8.035156 9.644531 L 5.316406 9.644531 C 5.1875 10.558594 4.769531 11.324219 4.066406 11.9375 C 3.363281 12.550781 2.542969 12.855469 1.605469 12.855469 C 0.574219 12.855469 -0.308594 12.488281 -1.042969 11.757812 C -1.777344 11.023438 -2.144531 10.140625 -2.144531 9.105469 C -2.144531 8.074219 -1.777344 7.191406 -1.042969 6.457031 C -0.308594 5.722656 0.574219 5.355469 1.605469 5.355469 C 2.03125 5.355469 2.457031 5.433594 2.878906 5.582031 L 3.082031 5.207031 C 2.394531 4.59375 1.546875 4.285156 0.535156 4.285156 L 0 4.285156 C -0.144531 4.285156 -0.269531 4.234375 -0.375 4.125 C -0.484375 4.019531 -0.535156 3.894531 -0.535156 3.75 C -0.535156 3.605469 -0.484375 3.480469 -0.375 3.375 C -0.269531 3.265625 -0.144531 3.214844 0 3.214844 L 1.070312 3.214844 C 1.507812 3.214844 1.910156 3.25 2.285156 3.328125 C 2.660156 3.402344 2.984375 3.511719 3.261719 3.648438 C 3.535156 3.789062 3.734375 3.898438 3.859375 3.980469 C 3.980469 4.0625 4.125 4.164062 4.285156 4.285156 L 9.535156 4.285156 L 8.824219 3.214844 L 6.964844 3.214844 C 6.796875 3.214844 6.660156 3.152344 6.554688 3.027344 C 6.449219 2.898438 6.410156 2.753906 6.4375 2.585938 C 6.460938 2.457031 6.523438 2.351562 6.628906 2.269531 C 6.734375 2.183594 6.855469 2.144531 6.988281 2.144531 L 9.105469 2.144531 C 9.292969 2.144531 9.4375 2.222656 9.550781 2.378906 L 10.136719 3.257812 L 11.089844 2.300781 C 11.195312 2.195312 11.324219 2.144531 11.476562 2.144531 L 12.320312 2.144531 C 12.464844 2.144531 12.59375 2.195312 12.699219 2.300781 C 12.804688 2.40625 12.855469 2.535156 12.855469 2.679688 L 12.855469 3.75 C 12.855469 3.894531 12.804688 4.019531 12.699219 4.125 C 12.59375 4.234375 12.464844 4.285156 12.320312 4.285156 L 10.824219 4.285156 L 11.785156 5.726562 C 12.515625 5.375 13.285156 5.273438 14.085938 5.425781 C 14.886719 5.570312 15.566406 5.945312 16.128906 6.550781 C 16.695312 7.15625 17.023438 7.863281 17.117188 8.671875 Z M 1.605469 11.785156 C 2.25 11.785156 2.816406 11.582031 3.304688 11.179688 C 3.796875 10.773438 4.105469 10.261719 4.234375 9.644531 L 1.605469 9.644531 C 1.410156 9.644531 1.257812 9.554688 1.148438 9.382812 C 1.046875 9.203125 1.042969 9.027344 1.136719 8.855469 L 2.367188 6.539062 C 2.105469 6.464844 1.851562 6.429688 1.605469 6.429688 C 0.871094 6.429688 0.238281 6.691406 -0.285156 7.214844 C -0.808594 7.738281 -1.070312 8.371094 -1.070312 9.105469 C -1.070312 9.84375 -0.808594 10.472656 -0.285156 11 C 0.238281 11.523438 0.871094 11.785156 1.605469 11.785156 Z M 13.394531 11.785156 C 14.128906 11.785156 14.761719 11.523438 15.285156 11 C 15.808594 10.472656 16.070312 9.84375 16.070312 9.105469 C 16.070312 8.371094 15.808594 7.738281 15.285156 7.214844 C 14.761719 6.691406 14.128906 6.429688 13.394531 6.429688 C 13.058594 6.429688 12.71875 6.496094 12.378906 6.628906 L 13.835938 8.804688 C 13.921875 8.933594 13.949219 9.070312 13.921875 9.214844 C 13.890625 9.359375 13.816406 9.472656 13.695312 9.550781 C 13.609375 9.613281 13.511719 9.644531 13.394531 9.644531 C 13.199219 9.644531 13.050781 9.5625 12.949219 9.398438 L 11.492188 7.222656 C 10.972656 7.753906 10.714844 8.382812 10.714844 9.105469 C 10.714844 9.84375 10.976562 10.472656 11.5 11 C 12.027344 11.523438 12.65625 11.785156 13.394531 11.785156 Z M 13.394531 11.785156 "></path> </svg>