<?xml version="1.0" encoding="utf-8"?> <!DOCTYPE svg PUBLIC "-//W3C//DTD SVG 1.1//EN" "http://www.w3.org/Graphics/SVG/1.1/DTD/svg11.dtd"><svg version="1.1" id="marker-circle-blue" xmlns="http://www.w3.org/2000/svg" xmlns:xlink="http://www.w3.org/1999/xlink" x="0px"  y="0px" width="24px" height="36px" viewBox="0 0 24 36" enable-background="new 0 0 24 36" xml:space="preserve"><path fill="#D3D3D3" d="M12,0C5.371,0,0,5.903,0,13.187c0,0.829,0.079,1.643,0.212,2.424c0.302,1.785,0.924,3.448,1.81,4.901
	l0.107,0.163L11.965,36l9.952-15.393l0.045-0.064c0.949-1.555,1.595-3.343,1.875-5.269C23.934,14.589,24,13.899,24,13.187
	C24,5.905,18.629,0,12,0z"></path><path fill="#ffffff" transform="translate(4.5 4.5)" d="m3.5367069,5.277394h0.7903347c0.2579776,0,0.4360548,-0.25376,0.3481877,-0.4962731C4.5597135,4.4629251,4.4983237,4.1255157,4.4983237,3.7777966c0,-0.3477192,0.06139,-0.6851286,0.1769056,-1.0033244C4.7633303,2.5319591,4.5850193,2.2781991,4.3270416,2.2781991H3.5367069c-0.1642528,0,-0.3153841,0.1052061,-0.361075,0.2631325c-0.1145786,0.397862,-0.176437,0.8118914,-0.176437,1.236465c0,0.4245735,0.061859,0.8386029,0.1766713,1.2362306c0.045457,0.1579264,0.1965879,0.2633668,0.3608407,0.2633668zM2.1069345,1.3254861C2.2390865,1.0766467,2.0612436,0.77860169,1.7798348,0.77860169H0.95201004c-0.14691367,0,-0.28445486,0.084118,-0.34537603,0.2181446C0.22025336,1.845659,0,2.7854848,0,3.7777966C0,4.357719,0.07310536,5.3788511,0.62537897,6.5628301C0.68676877,6.6947479,0.82266976,6.7769914,0.96770894,6.7769914H1.7840524c0.2816431,0,0.459486,-0.2985136,0.3268654,-0.5475874C0.94451204,4.0428036,1.7193823,2.055134,2.1069278,1.3254861ZM14.388169,0.99627769c-0.06092,-0.1337923,-0.198229,-0.217676,-0.345142,-0.217676h-0.829934c-0.280706,0,-0.460657,0.29663911,-0.328505,0.54477561c0.428088,0.8034562,1.134539,2.7981551,0.0066,4.902512c-0.134024,0.2502454,0.04218,0.5511021,0.325931,0.5511021H14.0426c0.146914,0,0.284221,-0.083884,0.345142,-0.217676c0.387318,-0.8489127,0.608274,-1.7889728,0.608274,-2.7815188c0,-0.9925461,-0.220722,-1.9326062,-0.607805,-2.78151891zM11.459267,2.2781991h-0.790334c-0.257978,0,-0.436055,0.25376,-0.348188,0.4962731c0.115516,0.3181958,0.176905,0.6556052,0.176905,1.0033244c0,0.3477191,-0.06139,0.6851285,-0.176905,1.0033243c-0.0881,0.2425131,0.09021,0.4962731,0.348188,0.4962731h0.790334c0.164487,0,0.315384,-0.1052061,0.361075,-0.2633668c0.114814,-0.3976277,0.176437,-0.8116571,0.176437,-1.2362306c0,-0.4245736,-0.06186,-0.838603,-0.176671,-1.2362307C11.774648,2.3834052,11.62352,2.2781991,11.459267,2.2781991ZM8.7342179,4.6241319C8.8994081,4.3830247,8.9966473,4.0920091,8.9966473,3.7777966c0,-0.8282933,-0.6708356,-1.4995975,-1.4986601,-1.4995975c-0.8275903,0,-1.4986602,0.6713042,-1.4986602,1.4995975c0,0.3142125,0.09724,0.6052281,0.2624296,0.8463353L3.2039837,11.967707c-0.079666,0.190964,0.010779,0.410514,0.2017427,0.490181l0.6914551,0.288438c0.1909643,0.07967,0.4105147,-0.01078,0.4899465,-0.201743L5.7397092,9.7761862h3.5163219l1.1528149,2.7683968c0.07967,0.191199,0.298983,0.281409,0.489947,0.201743l0.691455,-0.288438c0.190964,-0.07967,0.281174,-0.299217,0.201743,-0.490181zM6.3643853,8.2765888L7.4979872,5.5541165L8.6315894,8.2765888Z"></path> </svg>