<?xml version="1.0" encoding="utf-8"?> <!DOCTYPE svg PUBLIC "-//W3C//DTD SVG 1.1//EN" "http://www.w3.org/Graphics/SVG/1.1/DTD/svg11.dtd"><svg version="1.1" id="marker-circle-blue" xmlns="http://www.w3.org/2000/svg" xmlns:xlink="http://www.w3.org/1999/xlink" x="0px"  y="0px" width="24px" height="36px" viewBox="0 0 24 36" enable-background="new 0 0 24 36" xml:space="preserve"><path fill="#A23337" d="M12,0C5.371,0,0,5.903,0,13.187c0,0.829,0.079,1.643,0.212,2.424c0.302,1.785,0.924,3.448,1.81,4.901
	l0.107,0.163L11.965,36l9.952-15.393l0.045-0.064c0.949-1.555,1.595-3.343,1.875-5.269C23.934,14.589,24,13.899,24,13.187
	C24,5.905,18.629,0,12,0z"></path><path fill="#ffffff" transform="translate(4.5 4.5)" d="M14.699219,5.101562C14.699219,4.933594,14.566406,4.800781,14.398438,4.800781L10.5,4.800781C10.335938,4.800781,10.199219,4.664062,10.199219,4.5L10.199219,0.601562C10.199219,0.433594,10.066406,0.300781,9.898438,0.300781L5.101562,0.300781C4.933594,0.300781,4.800781,0.433594,4.800781,0.601562L4.800781,4.5C4.800781,4.664062,4.664062,4.800781,4.5,4.800781L0.601562,4.800781C0.433594,4.800781,0.300781,4.933594,0.300781,5.101562L0.300781,9.898438C0.300781,10.066406,0.433594,10.199219,0.601562,10.199219L4.5,10.199219C4.664062,10.199219,4.800781,10.335938,4.800781,10.5L4.800781,14.398438C4.800781,14.566406,4.933594,14.699219,5.101562,14.699219L9.898438,14.699219C10.066406,14.699219,10.199219,14.566406,10.199219,14.398438L10.199219,10.5C10.199219,10.335938,10.335938,10.199219,10.5,10.199219L14.398438,10.199219C14.566406,10.199219,14.699219,10.066406,14.699219,9.898438ZM14.699219,5.101562"></path> </svg>