<?xml version="1.0" encoding="utf-8"?> <!DOCTYPE svg PUBLIC "-//W3C//DTD SVG 1.1//EN" "http://www.w3.org/Graphics/SVG/1.1/DTD/svg11.dtd"><svg version="1.1" id="marker-circle-blue" xmlns="http://www.w3.org/2000/svg" xmlns:xlink="http://www.w3.org/1999/xlink" x="0px"  y="0px" width="24px" height="36px" viewBox="0 0 24 36" enable-background="new 0 0 24 36" xml:space="preserve"><path fill="#EF9228" d="M12,0C5.371,0,0,5.903,0,13.187c0,0.829,0.079,1.643,0.212,2.424c0.302,1.785,0.924,3.448,1.81,4.901
	l0.107,0.163L11.965,36l9.952-15.393l0.045-0.064c0.949-1.555,1.595-3.343,1.875-5.269C23.934,14.589,24,13.899,24,13.187
	C24,5.905,18.629,0,12,0z"></path><path fill="#ffffff" transform="translate(4.5 4.5)" d="M6.65,2C5.43,2,4.48,3.38,4.11,3.82C4.0365,3.9102,3.9975,4.0237,4,4.14v4.4C3.9884,8.7827,4.1758,8.9889,4.4185,9.0005
	C4.528,9.0057,4.6355,8.9699,4.72,8.9c0.4665-0.6264,1.1589-1.0461,1.93-1.17C8.06,7.73,8.6,9,10.07,9
	c0.9948-0.0976,1.9415-0.4756,2.73-1.09c0.1272-0.0934,0.2016-0.2422,0.2-0.4V2.45c0.0275-0.2414-0.1459-0.4595-0.3874-0.487
	C12.5332,1.954,12.4527,1.9668,12.38,2c-0.6813,0.5212-1.4706,0.8834-2.31,1.06C8.6,3.08,8.12,2,6.65,2z M2.5,3
	c-0.5523,0-1-0.4477-1-1s0.4477-1,1-1s1,0.4477,1,1S3.0523,3,2.5,3z M3,4v9.48c0,0.2761-0.2239,0.5-0.5,0.5S2,13.7561,2,13.48V4
	c0-0.2761,0.2239-0.5,0.5-0.5S3,3.7239,3,4z"></path> </svg>