<?xml version="1.0" encoding="utf-8"?> <!DOCTYPE svg PUBLIC "-//W3C//DTD SVG 1.1//EN" "http://www.w3.org/Graphics/SVG/1.1/DTD/svg11.dtd"><svg version="1.1" id="icon" xmlns="http://www.w3.org/2000/svg" xmlns:xlink="http://www.w3.org/1999/xlink" x="0px"  y="0px" width="15px" height="15px" viewBox="0 0 15 15" enable-background="new 0 0 15 15" xml:space="preserve"><path fill="#FFFFFF" d="M14.308189,10.446607L11.690163,7.0620327C11.514325,6.8314563,11.152416,6.8959699,10.881682,7.2113697L10.723521,7.3965477L9.7875998,6.0752134L10.07134,5.7466719c0.276316,-0.322568,0.358188,-0.7825262,0.18142,-1.031023L7.612424,0.9846132C6.8011522,-0.15990597,5.2316391,-0.15871127,3.7951671,0.98819729L0.92128908,3.2808185C0.55100689,3.5759085,0.39284602,4.1529469,0.6012462,4.4468422l4.4694411,6.3151648c0.1749072,0.247302,0.5423984,0.186373,0.8177842,-0.132611L8.7902566,7.2436265L9.7243355,8.5625714L9.5661747,8.7477493C9.29358,9.0667333,9.2098478,9.5171338,9.3754514,9.7692148l2.3714636,3.6653882c0.0074,0.01434,0.01861,0.02509,0.02326,0.03703v0c0.450293,0.634384,1.380651,0.462348,2.068185,-0.338099l0.03628,-0.04659c0.699629,-0.811199,0.917333,-2.013123,0.433547,-2.640339zM4.5506174,3.3429427C4.289187,2.9725868,4.4101335,2.283247,4.8232122,1.802979C5.2353606,1.3203229,5.7824108,1.2307206,6.0447716,1.60227C6.3071324,1.9726259,6.1852556,2.6619657,5.7731072,3.1446231C5.3590981,3.6236964,4.8139086,3.7132986,4.5506174,3.3429427Z"></path> </svg>