<svg version="1.1" xmlns="http://www.w3.org/2000/svg" xlink="http://www.w3.org/1999/xlink" x="0px" y="0px" width="15px" height="15px" viewBox="0 0 15 15" style="enable-background:new 0 0 15 15;" space="preserve">
    <path d="M2.945312,9.105469C2.945312,8.738281,2.816406,8.421875,2.554688,8.160156C2.289062,7.898438,1.976562,7.769531,1.605469,7.769531C1.238281,7.769531,0.921875,7.898438,0.660156,8.160156C0.398438,8.421875,0.269531,8.738281,0.269531,9.105469C0.269531,9.476562,0.398438,9.789062,0.660156,10.054688C0.921875,10.316406,1.238281,10.445312,1.605469,10.445312C1.976562,10.445312,2.289062,10.316406,2.554688,10.054688C2.816406,9.789062,2.945312,9.476562,2.945312,9.105469ZM3.246094,6.429688L11.753906,6.429688L11.007812,3.441406C10.996094,3.394531,10.957031,3.347656,10.890625,3.292969C10.824219,3.242188,10.765625,3.214844,10.714844,3.214844L4.285156,3.214844C4.234375,3.214844,4.175781,3.242188,4.109375,3.292969C4.042969,3.347656,4.003906,3.394531,3.992188,3.441406ZM14.730469,9.105469C14.730469,8.738281,14.601562,8.421875,14.339844,8.160156C14.078125,7.898438,13.761719,7.769531,13.394531,7.769531C13.023438,7.769531,12.710938,7.898438,12.445312,8.160156C12.183594,8.421875,12.054688,8.738281,12.054688,9.105469C12.054688,9.476562,12.183594,9.789062,12.445312,10.054688C12.710938,10.316406,13.023438,10.445312,13.394531,10.445312C13.761719,10.445312,14.078125,10.316406,14.339844,10.054688C14.601562,9.789062,14.730469,9.476562,14.730469,9.105469ZM16.070312,8.304688L16.070312,11.519531C16.070312,11.597656,16.046875,11.660156,15.996094,11.710938C15.945312,11.761719,15.882812,11.785156,15.804688,11.785156L15,11.785156L15,12.855469C15,13.304688,14.84375,13.683594,14.53125,13.996094C14.21875,14.308594,13.839844,14.464844,13.394531,14.464844C12.945312,14.464844,12.566406,14.308594,12.253906,13.996094C11.941406,13.683594,11.785156,13.304688,11.785156,12.855469L11.785156,11.785156L3.214844,11.785156L3.214844,12.855469C3.214844,13.304688,3.058594,13.683594,2.746094,13.996094C2.433594,14.308594,2.054688,14.464844,1.605469,14.464844C1.160156,14.464844,0.78125,14.308594,0.46875,13.996094C0.15625,13.683594,0,13.304688,0,12.855469L0,11.785156L-0.804688,11.785156C-0.882812,11.785156,-0.945312,11.761719,-0.996094,11.710938C-1.046875,11.660156,-1.070312,11.597656,-1.070312,11.519531L-1.070312,8.304688C-1.070312,7.785156,-0.886719,7.34375,-0.523438,6.976562C-0.15625,6.609375,0.285156,6.429688,0.804688,6.429688L1.039062,6.429688L1.917969,2.921875C2.046875,2.398438,2.335938,1.957031,2.789062,1.601562C3.238281,1.25,3.738281,1.070312,4.285156,1.070312L10.714844,1.070312C11.261719,1.070312,11.761719,1.25,12.210938,1.601562C12.664062,1.957031,12.953125,2.398438,13.082031,2.921875L13.960938,6.429688L14.195312,6.429688C14.714844,6.429688,15.15625,6.609375,15.523438,6.976562C15.886719,7.34375,16.070312,7.785156,16.070312,8.304688ZM16.070312,8.304688" fill="#FFFFFF"/>
    </svg>