<svg version="1.1" xmlns="http://www.w3.org/2000/svg" xlink="http://www.w3.org/1999/xlink" x="0px" y="0px" width="15px" height="16.875px" viewBox="0 0 15 16.875" style="enable-background:new 0 0 15 15;" space="preserve">
    <path d="m5.4631223,0.21451271c-0.7434622,0,-1.3624748,0.51148806,-1.5381977,1.20019239c-0.018667,-0.0004978,-0.03609,-0.00548,-0.054758,-0.00548c-0.8796101,0,-1.5929555,0.7130965,-1.5929555,1.5929555c0,0.1204673,0.015929,0.2367033,0.041317,0.3494547c-0.7247948,0.2976835,-1.2360339,1.0087888,-1.2360339,1.8408592c0,0.3131153,0.078652,0.6053231,0.207582,0.8689074c-0.5973578,0.3437341,-1.00405925,0.9811652,-1.00405925,1.7196495c0,0.8298302,0.50825237,1.5401888,1.23006025,1.8391169c-0.022401,0.113747,-0.035344,0.2309785,-0.035344,0.3511969c0,0.9896238,0.8022025,1.7920748,1.792075,1.7920748c0.1025465,0,0.2016084,-0.01369,0.2994258,-0.03012c0.2384456,0.70986,0.9015133,1.224833,1.6917686,1.224833c0.9898725,0,1.7920749,-0.802451,1.7920749,-1.792075V5.3281488C6.7845287,5.5516604,6.4592173,5.7126982,6.1013001,5.7858746C5.9775972,5.8112623,5.8613612,5.715685,5.8613612,5.589493V5.186774c0,-0.088857,0.058491,-0.1687537,0.1443616,-0.1906569c0.6023363,-0.1533219,1.050355,-0.6956735,1.050355,-1.3450518V1.8074682c0,-0.879859,-0.7133454,-1.59295549,-1.5929555,-1.59295549zM14.622617,7.7810514c0,-0.7384843,-0.406702,-1.3759154,-1.00406,-1.7196453c0.128681,-0.2635843,0.207582,-0.5557921,0.207582,-0.8689074c0,-0.8320704,-0.511239,-1.5431757,-1.236034,-1.8408592c0.02539,-0.1127514,0.04132,-0.2289874,0.04132,-0.3494547c0,-0.879859,-0.713345,-1.5929555,-1.592955,-1.5929555c-0.01867,0,-0.03609,0.00498,-0.05476,0.00548c-0.175724,-0.68870853,-0.794737,-1.20019659,-1.5381989,-1.20019659c-0.8796101,0,-1.5929555,0.71309649,-1.5929555,1.59295549v1.8435971c0,0.6493783,0.4477698,1.1917299,1.050355,1.3450518c0.086119,0.021903,0.1443616,0.1017998,0.1443616,0.1906569v0.402719c0,0.126192,-0.1164849,0.2217693,-0.2399389,0.1963816C8.4494161,5.7126982,8.1243536,5.5516604,7.8525556,5.3281488v5.8379332c0,0.989624,0.8022024,1.792075,1.7920749,1.792075c0.7902555,0,1.4533235,-0.514973,1.6917685,-1.224833c0.09782,0.01668,0.196879,0.03012,0.299426,0.03012c0.989873,0,1.792075,-0.802451,1.792075,-1.7920748c0,-0.1202184,-0.01294,-0.2374499,-0.03534,-0.3511969c0.721804,-0.2989321,1.230057,-1.0092907,1.230057,-1.8391209z" fill="#FFFFFF"/>
    </svg>