<?xml version="1.0" encoding="utf-8"?> <!DOCTYPE svg PUBLIC "-//W3C//DTD SVG 1.1//EN" "http://www.w3.org/Graphics/SVG/1.1/DTD/svg11.dtd"><svg version="1.1" id="icon" xmlns="http://www.w3.org/2000/svg" xmlns:xlink="http://www.w3.org/1999/xlink" x="0px"  y="0px" width="15px" height="15px" viewBox="0 0 15 15" enable-background="new 0 0 15 15" xml:space="preserve"><path fill="#FFFFFF" d="M 15 11.785156 L 15 15 L 0 15 L 0 11.785156 C 0.25 11.785156 0.488281 11.746094 0.710938 11.667969 C 0.933594 11.589844 1.097656 11.515625 1.207031 11.4375 C 1.3125 11.363281 1.441406 11.257812 1.597656 11.125 C 1.765625 10.972656 1.910156 10.867188 2.03125 10.804688 C 2.148438 10.746094 2.308594 10.714844 2.503906 10.714844 C 2.699219 10.714844 2.851562 10.746094 2.96875 10.804688 C 3.082031 10.867188 3.226562 10.972656 3.40625 11.125 C 3.570312 11.265625 3.699219 11.371094 3.800781 11.441406 C 3.902344 11.515625 4.0625 11.589844 4.285156 11.667969 C 4.507812 11.746094 4.75 11.785156 5.003906 11.785156 C 5.257812 11.785156 5.492188 11.746094 5.71875 11.664062 C 5.941406 11.582031 6.101562 11.507812 6.203125 11.4375 C 6.304688 11.367188 6.4375 11.265625 6.605469 11.125 C 6.722656 11.019531 6.8125 10.941406 6.875 10.898438 C 6.941406 10.855469 7.027344 10.8125 7.136719 10.773438 C 7.246094 10.734375 7.367188 10.714844 7.5 10.714844 C 7.695312 10.714844 7.851562 10.746094 7.972656 10.804688 C 8.09375 10.867188 8.238281 10.972656 8.402344 11.125 C 8.558594 11.257812 8.691406 11.363281 8.796875 11.4375 C 8.902344 11.515625 9.066406 11.589844 9.292969 11.667969 C 9.515625 11.746094 9.75 11.785156 10.003906 11.785156 C 10.253906 11.785156 10.492188 11.746094 10.714844 11.667969 C 10.9375 11.589844 11.101562 11.515625 11.207031 11.4375 C 11.3125 11.363281 11.445312 11.257812 11.601562 11.125 C 11.769531 10.972656 11.914062 10.867188 12.03125 10.804688 C 12.152344 10.746094 12.308594 10.714844 12.503906 10.714844 C 12.695312 10.714844 12.851562 10.746094 12.96875 10.804688 C 13.089844 10.867188 13.234375 10.972656 13.402344 11.125 C 13.558594 11.257812 13.6875 11.363281 13.792969 11.4375 C 13.902344 11.515625 14.066406 11.589844 14.289062 11.667969 C 14.511719 11.746094 14.75 11.785156 15 11.785156 Z M 15 9.105469 L 15 10.714844 C 14.804688 10.714844 14.648438 10.683594 14.535156 10.621094 C 14.421875 10.5625 14.273438 10.453125 14.097656 10.304688 C 13.933594 10.164062 13.804688 10.058594 13.703125 9.984375 C 13.601562 9.914062 13.441406 9.839844 13.21875 9.761719 C 12.992188 9.683594 12.757812 9.644531 12.503906 9.644531 C 12.25 9.644531 12.007812 9.683594 11.785156 9.761719 C 11.5625 9.839844 11.402344 9.914062 11.300781 9.984375 C 11.199219 10.058594 11.070312 10.164062 10.90625 10.304688 C 10.785156 10.410156 10.691406 10.484375 10.628906 10.53125 C 10.570312 10.574219 10.484375 10.617188 10.371094 10.65625 C 10.257812 10.695312 10.136719 10.714844 10.003906 10.714844 C 9.808594 10.714844 9.648438 10.683594 9.53125 10.621094 C 9.410156 10.5625 9.265625 10.453125 9.097656 10.304688 C 8.9375 10.164062 8.804688 10.058594 8.707031 9.984375 C 8.605469 9.914062 8.441406 9.839844 8.21875 9.761719 C 7.996094 9.683594 7.757812 9.644531 7.5 9.644531 C 7.25 9.644531 7.011719 9.683594 6.789062 9.765625 C 6.566406 9.84375 6.402344 9.921875 6.304688 9.992188 C 6.203125 10.058594 6.070312 10.164062 5.902344 10.304688 C 5.785156 10.410156 5.691406 10.484375 5.628906 10.53125 C 5.566406 10.574219 5.476562 10.617188 5.371094 10.65625 C 5.261719 10.695312 5.140625 10.714844 5.003906 10.714844 C 4.808594 10.714844 4.652344 10.683594 4.53125 10.621094 C 4.414062 10.5625 4.269531 10.453125 4.101562 10.304688 C 3.945312 10.171875 3.8125 10.066406 3.707031 9.992188 C 3.601562 9.914062 3.4375 9.839844 3.214844 9.761719 C 2.992188 9.683594 2.753906 9.644531 2.503906 9.644531 C 2.246094 9.644531 2.007812 9.683594 1.78125 9.761719 C 1.558594 9.839844 1.398438 9.914062 1.296875 9.984375 C 1.195312 10.058594 1.066406 10.164062 0.902344 10.304688 C 0.738281 10.453125 0.59375 10.5625 0.472656 10.621094 C 0.351562 10.683594 0.195312 10.714844 0 10.714844 L 0 9.105469 C 0 8.660156 0.15625 8.28125 0.46875 7.96875 C 0.78125 7.65625 1.160156 7.5 1.605469 7.5 L 2.144531 7.5 L 2.144531 3.75 L 4.285156 3.75 L 4.285156 7.5 L 6.429688 7.5 L 6.429688 3.75 L 8.570312 3.75 L 8.570312 7.5 L 10.714844 7.5 L 10.714844 3.75 L 12.855469 3.75 L 12.855469 7.5 L 13.394531 7.5 C 13.839844 7.5 14.21875 7.65625 14.53125 7.96875 C 14.84375 8.28125 15 8.660156 15 9.105469 Z M 4.285156 1.875 C 4.285156 2.304688 4.183594 2.636719 3.984375 2.867188 C 3.785156 3.097656 3.527344 3.214844 3.214844 3.214844 C 2.917969 3.214844 2.664062 3.109375 2.457031 2.898438 C 2.246094 2.691406 2.144531 2.4375 2.144531 2.144531 C 2.144531 1.980469 2.167969 1.839844 2.222656 1.714844 C 2.273438 1.59375 2.339844 1.5 2.417969 1.429688 C 2.496094 1.363281 2.582031 1.285156 2.679688 1.195312 C 2.773438 1.109375 2.859375 1.019531 2.9375 0.933594 C 3.015625 0.847656 3.082031 0.722656 3.132812 0.5625 C 3.1875 0.398438 3.214844 0.210938 3.214844 0 C 3.425781 0 3.65625 0.207031 3.910156 0.621094 C 4.160156 1.03125 4.285156 1.449219 4.285156 1.875 Z M 8.570312 1.875 C 8.570312 2.304688 8.472656 2.636719 8.269531 2.867188 C 8.070312 3.097656 7.8125 3.214844 7.5 3.214844 C 7.203125 3.214844 6.953125 3.109375 6.742188 2.898438 C 6.53125 2.691406 6.429688 2.4375 6.429688 2.144531 C 6.429688 1.980469 6.453125 1.839844 6.507812 1.714844 C 6.5625 1.59375 6.625 1.5 6.703125 1.429688 C 6.78125 1.363281 6.871094 1.285156 6.964844 1.195312 C 7.058594 1.109375 7.144531 1.019531 7.222656 0.933594 C 7.300781 0.847656 7.367188 0.722656 7.421875 0.5625 C 7.472656 0.398438 7.5 0.210938 7.5 0 C 7.710938 0 7.945312 0.207031 8.195312 0.621094 C 8.445312 1.03125 8.570312 1.449219 8.570312 1.875 Z M 12.855469 1.875 C 12.855469 2.304688 12.757812 2.636719 12.554688 2.867188 C 12.355469 3.097656 12.097656 3.214844 11.785156 3.214844 C 11.488281 3.214844 11.238281 3.109375 11.027344 2.898438 C 10.820312 2.691406 10.714844 2.4375 10.714844 2.144531 C 10.714844 1.980469 10.742188 1.839844 10.792969 1.714844 C 10.847656 1.59375 10.914062 1.5 10.992188 1.429688 C 11.070312 1.363281 11.15625 1.285156 11.25 1.195312 C 11.34375 1.109375 11.429688 1.019531 11.507812 0.933594 C 11.585938 0.847656 11.652344 0.722656 11.707031 0.5625 C 11.757812 0.398438 11.785156 0.210938 11.785156 0 C 11.996094 0 12.230469 0.207031 12.480469 0.621094 C 12.730469 1.03125 12.855469 1.449219 12.855469 1.875 Z M 12.855469 1.875 "></path> </svg>