<svg version="1.1" xmlns="http://www.w3.org/2000/svg" xlink="http://www.w3.org/1999/xlink" x="0px" y="0px" width="15px" height="15px" viewBox="0 0 15 15" style="enable-background:new 0 0 15 15;" space="preserve">
    <path d="M8.109375,8.8125L9.351562,10.054688L8.101562,11.300781ZM8.101562,3.699219L9.351562,4.945312L8.109375,6.1875ZM7.015625,13.945312L10.898438,10.0625L8.335938,7.5L10.898438,4.9375L7.015625,1.054688L7.015625,6.167969L4.878906,4.035156L4.101562,4.8125L6.78125,7.5L4.101562,10.1875L4.878906,10.964844L7.015625,8.832031ZM13.03125,7.5C13.03125,8.667969,12.945312,9.6875,12.765625,10.558594C12.585938,11.433594,12.34375,12.148438,12.03125,12.710938C11.722656,13.273438,11.332031,13.726562,10.855469,14.070312C10.382812,14.417969,9.875,14.65625,9.335938,14.796875C8.796875,14.929688,8.1875,15,7.5,15C6.8125,15,6.199219,14.929688,5.664062,14.796875C5.125,14.65625,4.617188,14.417969,4.144531,14.070312C3.667969,13.726562,3.277344,13.273438,2.96875,12.710938C2.65625,12.148438,2.414062,11.433594,2.234375,10.558594C2.054688,9.6875,1.96875,8.667969,1.96875,7.5C1.96875,6.332031,2.054688,5.3125,2.234375,4.441406C2.414062,3.566406,2.65625,2.851562,2.96875,2.289062C3.277344,1.726562,3.667969,1.273438,4.144531,0.929688C4.617188,0.582031,5.125,0.339844,5.664062,0.203125C6.199219,0.0664062,6.8125,0,7.5,0C8.1875,0,8.796875,0.0664062,9.335938,0.203125C9.875,0.339844,10.382812,0.582031,10.855469,0.929688C11.332031,1.273438,11.722656,1.726562,12.03125,2.289062C12.34375,2.851562,12.585938,3.566406,12.765625,4.441406C12.945312,5.3125,13.03125,6.332031,13.03125,7.5ZM13.03125,7.5" fill="#FFFFFF"/>
    </svg>