<?xml version="1.0" encoding="utf-8"?> <!DOCTYPE svg PUBLIC "-//W3C//DTD SVG 1.1//EN" "http://www.w3.org/Graphics/SVG/1.1/DTD/svg11.dtd"><svg version="1.1" id="icon" xmlns="http://www.w3.org/2000/svg" xmlns:xlink="http://www.w3.org/1999/xlink" x="0px"  y="0px" width="15px" height="15px" viewBox="0 0 15 15" enable-background="new 0 0 15 15" xml:space="preserve"><path fill="#FFFFFF" d="m14.682203,11.235848v3.064999H0.38135593v-3.064999c0.23834746,0,0.46552214,-0.03724,0.67780107,-0.111725c0.212278,-0.07448,0.368693,-0.145243,0.47297,-0.219727c0.1005531,-0.07076,0.2234507,-0.171313,0.3724179,-0.297934c0.1601399,-0.145243,0.2979343,-0.245795,0.4133841,-0.305382c0.1117258,-0.05586,0.2644169,-0.08566,0.4506254,-0.08566c0.1862094,0,0.3314517,0.02979,0.4431776,0.08566c0.1080009,0.05959,0.2457953,0.160139,0.417108,0.305382c0.1564151,0.13407,0.2793137,0.234623,0.3761419,0.301658c0.096829,0.07076,0.2495202,0.141519,0.4617982,0.216003c0.2122779,0.07448,0.4431775,0.111725,0.6852489,0.111725c0.2420714,0,0.4655231,-0.03724,0.681525,-0.11545c0.212278,-0.07821,0.3649691,-0.148967,0.4617982,-0.216002c0.096829,-0.06704,0.2234507,-0.163864,0.3835907,-0.297934c0.1117249,-0.100553,0.1973812,-0.175037,0.2569681,-0.216002c0.063311,-0.04097,0.1452432,-0.08193,0.2495202,-0.119174c0.104277,-0.03724,0.2197268,-0.05586,0.3463484,-0.05586c0.1862085,0,0.3351757,0.02979,0.4506255,0.08566c0.1154497,0.05959,0.2532441,0.160139,0.4096601,0.305382c0.1489672,0.126621,0.2755888,0.227175,0.3761419,0.297934c0.100553,0.07448,0.2569681,0.145243,0.4729709,0.219727c0.212278,0.07448,0.4357287,0.111725,0.6778001,0.111725c0.2383479,0,0.4655229,-0.03724,0.6778009,-0.111725c0.212278,-0.07448,0.368693,-0.145243,0.469246,-0.219727c0.100553,-0.07076,0.227175,-0.171313,0.376142,-0.297934c0.16014,-0.145243,0.297935,-0.245795,0.40966,-0.305382c0.11545,-0.05586,0.264417,-0.08566,0.450626,-0.08566c0.182484,0,0.331452,0.02979,0.443177,0.08566c0.11545,0.05959,0.253245,0.160139,0.413384,0.305382c0.148968,0.126621,0.271865,0.227175,0.372418,0.297934c0.104277,0.07448,0.260692,0.145243,0.47297,0.219727c0.212279,0.07448,0.439454,0.111725,0.677801,0.111725zm0,-2.5547865v1.5343615c-0.186208,0,-0.335175,-0.02979,-0.443177,-0.08938C14.131025,10.07018,13.989507,9.9659031,13.821918,9.8243847C13.665503,9.6903133,13.542605,9.5897612,13.445776,9.5190016C13.348947,9.4519659,13.196256,9.3812072,12.983978,9.3067236C12.767976,9.23224,12.544524,9.1949978,12.302453,9.1949978c-0.242072,0,-0.472971,0.037242,-0.685249,0.1117258c-0.212278,0.074484,-0.364969,0.1452423,-0.461798,0.212278c-0.09683,0.07076,-0.219727,0.1713117,-0.376142,0.3053831c-0.11545,0.1005522,-0.20483,0.1713118,-0.264417,0.2160023c-0.05586,0.04097,-0.137795,0.08193,-0.245795,0.119173c-0.108002,0.03724,-0.223451,0.05586,-0.3500739,0.05586c-0.1862084,0,-0.3388995,-0.02979,-0.4506254,-0.08938C9.3529029,10.07018,9.2151085,9.9659031,9.0549686,9.8243847C8.9022775,9.6903133,8.7756559,9.5897612,8.6825507,9.5190016C8.5857225,9.4519659,8.4293065,9.3812072,8.2170286,9.3067236C8.0047506,9.23224,7.777575,9.1949978,7.5317796,9.1949978c-0.2383474,0,-0.4655221,0.037242,-0.677801,0.1154498c-0.212278,0.074483,-0.368693,0.1489671,-0.4617973,0.2160028c-0.096829,0.063311,-0.2234517,0.1638629,-0.3835907,0.2979343c-0.1117258,0.1005522,-0.2011061,0.1713118,-0.260693,0.2160023c-0.059587,0.04097,-0.1452432,0.08193,-0.2457953,0.119173c-0.104277,0.03724,-0.2197268,0.05586,-0.3500733,0.05586c-0.1862085,0,-0.3351756,-0.02979,-0.4506254,-0.08938C4.5896777,10.07018,4.4518833,9.9659031,4.2917434,9.8243847C4.1427762,9.6977622,4.0161546,9.5972091,3.9156016,9.5264504C3.8150485,9.4519659,3.6586334,9.3812072,3.4463555,9.3067236C3.2340775,9.23224,3.0069019,9.1949978,2.7685544,9.1949978c-0.2457953,0,-0.472971,0.037242,-0.6889729,0.1117258C1.8673036,9.3812072,1.7146125,9.4519659,1.6177833,9.5190016C1.5209542,9.5897612,1.3980565,9.6903133,1.2416415,9.8243847C1.0852255,9.9659031,0.94743114,10.07018,0.83198135,10.126043C0.71653157,10.18563,0.5675644,10.215423,0.38135593,10.215423V8.6810615c0,-0.4245568,0.14896716,-0.785802,0.44690148,-1.0837363C1.1261917,7.2993909,1.4874368,7.1504237,1.9119937,7.1504237H2.4259299V3.5752119h2.0408502v3.5752118h2.044575V3.5752119H8.5522042V7.1504237H10.596779V3.5752119h2.04085v3.5752118h0.513937c0.424557,0,0.785802,0.1489672,1.083736,0.4469015c0.297934,0.2979343,0.446901,0.6591795,0.446901,1.0837363zM4.4667801,1.7876059c0,0.4096602,-0.096828,0.7262152,-0.2867616,0.945942c-0.1899334,0.2197258,-0.4357287,0.3314517,-0.733663,0.3314517c-0.2830376,0,-0.52511,-0.1005531,-0.7224912,-0.3016583C2.5227591,2.5659591,2.4259299,2.3238877,2.4259299,2.044574c0,-0.156415,0.022346,-0.2904854,0.074484,-0.4096592C2.5488286,1.519465,2.6121394,1.4300847,2.686623,1.36305C2.7611065,1.2997382,2.843038,1.2252547,2.9361432,1.1395983C3.0255235,1.0576668,3.1074549,0.97201049,3.1819385,0.89007903C3.2564221,0.80814661,3.3197329,0.68897288,3.368147,0.53628178C3.420286,0.37986674,3.4463555,0.20110614,3.4463555,0c0.2011052,0,0.420832,0.19738125,0.6629034,0.5921447c0.2383474,0.39103856,0.3575212,0.789526,0.3575212,1.1954612zm4.0854241,0c0,0.4096602,-0.093104,0.7262152,-0.2867615,0.945942C8.0755093,2.9532737,7.829714,3.0649996,7.5317796,3.0649996C7.248742,3.0649996,7.0103946,2.9644465,6.8092894,2.7633413C6.6081832,2.5659591,6.5113551,2.3238877,6.5113551,2.044574c0,-0.156415,0.022344,-0.2904854,0.074483,-0.4096592C6.6379767,1.519465,6.6975635,1.4300847,6.7720471,1.36305C6.8465307,1.2997382,6.932187,1.2252547,7.0215673,1.1395983C7.1109476,1.0576668,7.1928791,0.97201049,7.2673627,0.89007903C7.3418463,0.80814661,7.405158,0.68897288,7.457296,0.53628178C7.5057101,0.37986674,7.5317796,0.20110614,7.5317796,0C7.7328858,0,7.9563356,0.19738125,8.194683,0.5921447C8.4330305,0.98318326,8.5522042,1.3816707,8.5522042,1.7876059Zm4.0854248,0c0,0.4096602,-0.0931,0.7262152,-0.286761,0.945942c-0.189934,0.2197258,-0.43573,0.3314517,-0.733664,0.3314517c-0.283038,0,-0.521385,-0.1005531,-0.72249,-0.3016583c-0.197383,-0.1973822,-0.297935,-0.4394536,-0.297935,-0.7187673c0,-0.156415,0.02607,-0.2904854,0.07448,-0.4096592c0.05214,-0.1154498,0.115449,-0.2048301,0.189933,-0.2718648c0.07448,-0.063312,0.156415,-0.1377953,0.245796,-0.2234517c0.08938,-0.081932,0.171312,-0.16758781,0.245795,-0.24951927c0.07448,-0.0819324,0.137795,-0.20110615,0.189933,-0.35379725C11.591134,0.37986674,11.617204,0.20110614,11.617204,0c0.201106,0,0.424557,0.19738125,0.662904,0.5921447c0.238348,0.39103856,0.357521,0.789526,0.357521,1.1954612zm0,0"></path> </svg>