<svg version="1.1" xmlns="http://www.w3.org/2000/svg" xlink="http://www.w3.org/1999/xlink" x="0px" y="0px" width="18.75px" height="15px" viewBox="0 0 18.75 15" style="enable-background:new 0 0 15 15;" space="preserve">
    <path d="M17.545313,6.5808925C18.283594,6.2117518,18.75,5.4570643,18.75,4.6317713v-0.223828c0,-1.2038087,-0.975586,-2.1793946,-2.179394,-2.1793946c-0.938087,0,-1.770704,0.600293,-2.067481,1.490039c-0.225,0.6747071,-0.339843,1.322461,-1.116504,1.322461H5.3630859c-0.8021484,0,-0.9251953,-0.7482422,-1.1165039,-1.322461C3.9500977,2.8288417,3.1171875,2.2285487,2.1793946,2.2285487C0.97558592,2.2285487,0,3.2041346,0,4.4079433v0.223828c0,0.825293,0.46640625,1.5799805,1.2046875,1.9491212c0.2762695,0.1379882,0.2762695,0.5323242,0,0.6703124C0.46640625,7.6203455,0,8.3750327,0,9.2003263v0.2238281c0,1.2038086,0.97558592,2.1793946,2.1791016,2.1793946c0.9380859,0,1.7707031,-0.600293,2.0674804,-1.490039c0.225,-0.6747076,0.3398438,-1.3224613,1.1165039,-1.3224613h8.0235351c0.802149,0,0.925196,0.7482425,1.116504,1.3224613c0.296777,0.889746,1.129688,1.490039,2.067481,1.490039c1.203515,0,2.179101,-0.975586,2.179101,-2.1793946V9.2003263c0,-0.8255864,-0.466406,-1.5799808,-1.204688,-1.9491214c-0.275976,-0.1379882,-0.275976,-0.5323242,0.000294,-0.6703124z" fill="#FFFFFF"/>
    </svg>