<svg version="1.1" xmlns="http://www.w3.org/2000/svg" xlink="http://www.w3.org/1999/xlink" x="0px" y="0px" width="15px" height="15px" viewBox="0 0 15 15" style="enable-background:new 0 0 15 15;" space="preserve">
    <path d="M14.085938,1.179688C14.195312,1.074219,14.28125,1.039062,14.355469,1.070312C14.429688,1.105469,14.464844,1.195312,14.464844,1.339844L14.464844,13.660156C14.464844,13.804688,14.429688,13.894531,14.355469,13.929688C14.28125,13.960938,14.195312,13.925781,14.085938,13.820312L8.144531,7.875C8.101562,7.828125,8.0625,7.773438,8.035156,7.71875L8.035156,13.660156C8.035156,13.804688,8,13.894531,7.925781,13.929688C7.855469,13.960938,7.765625,13.925781,7.660156,13.820312L1.714844,7.875C1.609375,7.769531,1.558594,7.644531,1.558594,7.5C1.558594,7.355469,1.609375,7.230469,1.714844,7.125L7.660156,1.179688C7.765625,1.074219,7.855469,1.039062,7.925781,1.070312C8,1.105469,8.035156,1.195312,8.035156,1.339844L8.035156,7.28125C8.0625,7.222656,8.101562,7.167969,8.144531,7.125ZM14.085938,1.179688" fill="#FFFFFF"/>
    </svg>