<svg version="1.1" xmlns="http://www.w3.org/2000/svg" xlink="http://www.w3.org/1999/xlink" x="0px" y="0px" width="15px" height="15px" viewBox="0 0 15 15" style="enable-background:new 0 0 15 15;" space="preserve">
    <path d="M8.730469,9.089844L6.269531,9.089844L7.5,4.476562ZM9.449219,11.785156L12.054688,11.785156L9.339844,3.214844L5.660156,3.214844L2.945312,11.785156L5.550781,11.785156L8.753906,9.15625ZM13.929688,3.480469L13.929688,11.519531C13.929688,12.175781,13.691406,12.742188,13.21875,13.21875C12.742188,13.691406,12.175781,13.929688,11.519531,13.929688L3.480469,13.929688C2.824219,13.929688,2.257812,13.691406,1.78125,13.21875C1.308594,12.742188,1.070312,12.175781,1.070312,11.519531L1.070312,3.480469C1.070312,2.824219,1.308594,2.257812,1.78125,1.78125C2.257812,1.308594,2.824219,1.070312,3.480469,1.070312L11.519531,1.070312C12.175781,1.070312,12.742188,1.308594,13.21875,1.78125C13.691406,2.257812,13.929688,2.824219,13.929688,3.480469ZM13.929688,3.480469" fill="#FFFFFF"/>
    </svg>