<svg version="1.1" xmlns="http://www.w3.org/2000/svg" xlink="http://www.w3.org/1999/xlink" x="0px" y="0px" width="15px" height="15px" viewBox="0 0 15 15" style="enable-background:new 0 0 15 15;" space="preserve">
    <path d="M14.296875,3.75h-0.234375V2.34375c0,-1.3125,-2.90625,-2.34375,-6.5625,-2.34375S0.9375,1.03125,0.9375,2.34375v1.40625h-0.234375c-0.38818359375,0,-0.703125,0.3146484375,-0.703125,0.703125v2.34375c0,0.38818359375,0.31494140625,0.703125,0.703125,0.703125h0.234375v4.6875c0,0.51767578125,0.41982421875,0.9375,0.9375,0.9375v0.9375c0,0.51767578125,0.41982421875,0.9375,0.9375,0.9375h0.9375c0.51767578125,0,0.9375,-0.41982421875,0.9375,-0.9375v-0.9375h5.625v0.9375c0,0.51767578125,0.41982421875,0.9375,0.9375,0.9375h0.9375c0.51767578125,0,0.9375,-0.41982421875,0.9375,-0.9375v-0.9375h0.1875c0.46875,0,0.75,-0.375,0.75,-0.75V7.5h0.234375c0.38818359375,0,0.703125,-0.31494140625,0.703125,-0.703125v-2.34375c0,-0.3884765625,-0.31494140625,-0.703125,-0.703125,-0.703125zM3.28125,11.71875c-0.51767578125,0,-0.9375,-0.41982421875,-0.9375,-0.9375s0.41982421875,-0.9375,0.9375,-0.9375s0.9375,0.41982421875,0.9375,0.9375s-0.41982421875,0.9375,-0.9375,0.9375zm0.46875,-3.28125c-0.51767578125,0,-0.9375,-0.41982421875,-0.9375,-0.9375V3.75c0,-0.51767578125,0.41982421875,-0.9375,0.9375,-0.9375h7.5c0.51767578125,0,0.9375,0.41982421875,0.9375,0.9375v3.75c0,0.51767578125,-0.41982421875,0.9375,-0.9375,0.9375H3.75zm7.96875,3.28125c-0.51767578125,0,-0.9375,-0.41982421875,-0.9375,-0.9375s0.41982421875,-0.9375,0.9375,-0.9375s0.9375,0.41982421875,0.9375,0.9375s-0.41982421875,0.9375,-0.9375,0.9375z" fill="#FFFFFF"/>
    </svg>