<svg version="1.1" xmlns="http://www.w3.org/2000/svg" xlink="http://www.w3.org/1999/xlink" x="0px" y="0px" width="15px" height="18.75px" viewBox="0 0 15 18.75" style="enable-background:new 0 0 15 15;" space="preserve">
    <path d="M22.55859375,7.03125H17.578125V0.87890625c0,-0.485595703125,-0.393310546875,-0.87890625,-0.87890625,-0.87890625H11.42578125c-0.485595703125,0,-0.87890625,0.393310546875,-0.87890625,0.87890625v2.63671875h-2.34375V0.5859375c0,-0.32373046875,-0.26220703125,-0.5859375,-0.5859375,-0.5859375h-0.5859375c-0.32373046875,0,-0.5859375,0.26220703125,-0.5859375,0.5859375v2.9296875h-2.34375V0.5859375c0,-0.32373046875,-0.26220703125,-0.5859375,-0.5859375,-0.5859375H2.9296875c-0.32373046875,0,-0.5859375,0.26220703125,-0.5859375,0.5859375v2.9296875H0.87890625c-0.485595703125,0,-0.87890625,0.393310546875,-0.87890625,0.87890625v13.18359375c0,0.6470947265625,0.5247802734375,1.171875,1.171875,1.171875h21.09375c0.6470947265625,0,1.171875,-0.5247802734375,1.171875,-1.171875V7.91015625c0,-0.485595703125,-0.3936767578125,-0.87890625,-0.87890625,-0.87890625zM4.6875,14.794921875c0,0.2427978515625,-0.1966552734375,0.439453125,-0.439453125,0.439453125H2.783203125c-0.2427978515625,0,-0.439453125,-0.1966552734375,-0.439453125,-0.439453125v-1.46484375c0,-0.2427978515625,0.1966552734375,-0.439453125,0.439453125,-0.439453125h1.46484375c0.2427978515625,0,0.439453125,0.1966552734375,0.439453125,0.439453125v1.46484375zm0,-3.515625c0,0.2427978515625,-0.1966552734375,0.439453125,-0.439453125,0.439453125H2.783203125c-0.2427978515625,0,-0.439453125,-0.1966552734375,-0.439453125,-0.439453125v-1.46484375c0,-0.2427978515625,0.1966552734375,-0.439453125,0.439453125,-0.439453125h1.46484375c0.2427978515625,0,0.439453125,0.1966552734375,0.439453125,0.439453125v1.46484375zm0,-3.515625c0,0.2427978515625,-0.1966552734375,0.439453125,-0.439453125,0.439453125H2.783203125c-0.2427978515625,0,-0.439453125,-0.1966552734375,-0.439453125,-0.439453125v-1.46484375c0,-0.2427978515625,0.1966552734375,-0.439453125,0.439453125,-0.439453125h1.46484375c0.2427978515625,0,0.439453125,0.1966552734375,0.439453125,0.439453125v1.46484375zm4.6875,7.03125c0,0.2427978515625,-0.1966552734375,0.439453125,-0.439453125,0.439453125h-1.46484375c-0.2427978515625,0,-0.439453125,-0.1966552734375,-0.439453125,-0.439453125v-1.46484375c0,-0.2427978515625,0.1966552734375,-0.439453125,0.439453125,-0.439453125h1.46484375c0.2427978515625,0,0.439453125,0.1966552734375,0.439453125,0.439453125v1.46484375zm0,-3.515625c0,0.2427978515625,-0.1966552734375,0.439453125,-0.439453125,0.439453125h-1.46484375c-0.2427978515625,0,-0.439453125,-0.1966552734375,-0.439453125,-0.439453125v-1.46484375c0,-0.2427978515625,0.1966552734375,-0.439453125,0.439453125,-0.439453125h1.46484375c0.2427978515625,0,0.439453125,0.1966552734375,0.439453125,0.439453125v1.46484375zm0,-3.515625c0,0.2427978515625,-0.1966552734375,0.439453125,-0.439453125,0.439453125h-1.46484375c-0.2427978515625,0,-0.439453125,-0.1966552734375,-0.439453125,-0.439453125v-1.46484375c0,-0.2427978515625,0.1966552734375,-0.439453125,0.439453125,-0.439453125h1.46484375c0.2427978515625,0,0.439453125,0.1966552734375,0.439453125,0.439453125v1.46484375zm5.859375,3.515625c0,0.2427978515625,-0.1966552734375,0.439453125,-0.439453125,0.439453125h-1.46484375c-0.2427978515625,0,-0.439453125,-0.1966552734375,-0.439453125,-0.439453125v-1.46484375c0,-0.2427978515625,0.1966552734375,-0.439453125,0.439453125,-0.439453125h1.46484375c0.2427978515625,0,0.439453125,0.1966552734375,0.439453125,0.439453125v1.46484375zm0,-3.515625c0,0.2427978515625,-0.1966552734375,0.439453125,-0.439453125,0.439453125h-1.46484375c-0.2427978515625,0,-0.439453125,-0.1966552734375,-0.439453125,-0.439453125v-1.46484375c0,-0.2427978515625,0.1966552734375,-0.439453125,0.439453125,-0.439453125h1.46484375c0.2427978515625,0,0.439453125,0.1966552734375,0.439453125,0.439453125v1.46484375zm0,-3.515625c0,0.2427978515625,-0.1966552734375,0.439453125,-0.439453125,0.439453125h-1.46484375c-0.2427978515625,0,-0.439453125,-0.1966552734375,-0.439453125,-0.439453125V2.783203125c0,-0.2427978515625,0.1966552734375,-0.439453125,0.439453125,-0.439453125h1.46484375c0.2427978515625,0,0.439453125,0.1966552734375,0.439453125,0.439453125v1.46484375zm5.859375,10.546875c0,0.2427978515625,-0.1966552734375,0.439453125,-0.439453125,0.439453125h-1.46484375c-0.2427978515625,0,-0.439453125,-0.1966552734375,-0.439453125,-0.439453125v-1.46484375c0,-0.2427978515625,0.1966552734375,-0.439453125,0.439453125,-0.439453125h1.46484375c0.2427978515625,0,0.439453125,0.1966552734375,0.439453125,0.439453125v1.46484375zm0,-3.515625c0,0.2427978515625,-0.1966552734375,0.439453125,-0.439453125,0.439453125h-1.46484375c-0.2427978515625,0,-0.439453125,-0.1966552734375,-0.439453125,-0.439453125v-1.46484375c0,-0.2427978515625,0.1966552734375,-0.439453125,0.439453125,-0.439453125h1.46484375c0.2427978515625,0,0.439453125,0.1966552734375,0.439453125,0.439453125v1.46484375z" fill="#FFFFFF"/>
    </svg>