<svg version="1.1" xmlns="http://www.w3.org/2000/svg" xlink="http://www.w3.org/1999/xlink" x="0px" y="0px" width="15px" height="15px" viewBox="0 0 15 15" style="enable-background:new 0 0 15 15;" space="preserve">
    <path d="M16.070312,7.492188C16.070312,7.609375,16.035156,7.710938,15.960938,7.796875C15.890625,7.882812,15.796875,7.9375,15.6875,7.960938L13.96875,10.941406C13.988281,10.992188,13.996094,11.039062,13.996094,11.089844C13.996094,11.203125,13.960938,11.300781,13.890625,11.386719C13.820312,11.472656,13.730469,11.527344,13.617188,11.550781L12.003906,14.371094C12.019531,14.417969,12.027344,14.460938,12.027344,14.507812C12.027344,14.632812,11.984375,14.746094,11.890625,14.839844C11.796875,14.9375,11.683594,14.984375,11.550781,14.984375C11.410156,14.984375,11.296875,14.933594,11.207031,14.832031L7.859375,14.832031C7.765625,14.945312,7.644531,15,7.5,15C7.355469,15,7.234375,14.945312,7.140625,14.832031L3.800781,14.832031C3.707031,14.945312,3.585938,15,3.441406,15C3.3125,15,3.199219,14.953125,3.105469,14.863281C3.011719,14.769531,2.964844,14.65625,2.964844,14.523438C2.964844,14.476562,2.972656,14.421875,2.996094,14.355469L1.382812,11.550781C1.269531,11.527344,1.179688,11.472656,1.109375,11.386719C1.039062,11.300781,1.003906,11.203125,1.003906,11.089844C1.003906,11.039062,1.011719,10.992188,1.03125,10.941406L-0.695312,7.960938C-0.804688,7.933594,-0.898438,7.875,-0.96875,7.789062C-1.035156,7.703125,-1.070312,7.601562,-1.070312,7.492188C-1.070312,7.375,-1.035156,7.273438,-0.957031,7.1875C-0.882812,7.097656,-0.789062,7.046875,-0.679688,7.023438L0.988281,4.144531C0.988281,4.136719,0.984375,4.128906,0.984375,4.117188C0.980469,4.105469,0.980469,4.097656,0.980469,4.09375C0.980469,3.890625,1.074219,3.75,1.265625,3.667969L3.011719,0.628906C2.992188,0.570312,2.980469,0.523438,2.980469,0.476562C2.980469,0.34375,3.027344,0.230469,3.121094,0.136719C3.21875,0.046875,3.328125,0,3.457031,0C3.601562,0,3.726562,0.0585938,3.824219,0.175781L7.140625,0.175781C7.230469,0.0585938,7.347656,0,7.5,0C7.652344,0,7.769531,0.0585938,7.859375,0.175781L11.191406,0.175781C11.292969,0.0585938,11.414062,0,11.558594,0C11.6875,0,11.800781,0.046875,11.894531,0.136719C11.988281,0.230469,12.035156,0.34375,12.035156,0.476562C12.035156,0.511719,12.027344,0.5625,12.003906,0.628906L13.734375,3.625C13.863281,3.628906,13.972656,3.679688,14.0625,3.769531C14.152344,3.863281,14.195312,3.96875,14.195312,4.09375C14.195312,4.164062,14.175781,4.242188,14.136719,4.320312L15.703125,7.03125C15.808594,7.054688,15.898438,7.109375,15.96875,7.195312C16.035156,7.28125,16.070312,7.378906,16.070312,7.492188ZM7.828125,14.179688L11.082031,14.179688L8.21875,11.214844L7.023438,11.214844L4.160156,14.179688L7.171875,14.179688C7.273438,14.089844,7.382812,14.046875,7.5,14.046875C7.617188,14.046875,7.726562,14.089844,7.828125,14.179688ZM-0.132812,7.382812C-0.128906,7.40625,-0.125,7.441406,-0.125,7.492188C-0.125,7.546875,-0.132812,7.589844,-0.140625,7.617188L1.597656,10.628906C1.609375,10.628906,1.621094,10.632812,1.636719,10.640625C1.648438,10.644531,1.664062,10.652344,1.683594,10.660156L1.722656,10.679688L3.296875,9.015625L3.296875,6.109375L1.734375,4.488281C1.660156,4.53125,1.578125,4.558594,1.488281,4.570312ZM7.183594,0.820312L3.933594,0.820312L5.523438,2.496094L10.160156,0.820312L7.816406,0.820312C7.730469,0.910156,7.621094,0.953125,7.5,0.953125C7.378906,0.953125,7.269531,0.910156,7.183594,0.820312ZM13.066406,10.964844C13.070312,10.933594,13.085938,10.902344,13.109375,10.875L12.574219,10.304688L12.429688,10.964844ZM12.179688,10.964844L12.363281,10.085938L10.253906,7.859375L7.777344,10.429688L8.304688,10.964844ZM11.441406,14.046875L11.578125,13.8125L12.121094,11.214844L8.546875,11.214844L11.332031,14.085938C11.378906,14.066406,11.414062,14.050781,11.441406,14.046875ZM3.765625,14.179688L3.808594,14.179688L6.671875,11.214844L3.550781,11.214844L3.550781,14.019531L3.582031,14.070312C3.660156,14.097656,3.722656,14.136719,3.765625,14.179688ZM3.550781,10.964844L6.914062,10.964844L7.449219,10.414062L4.863281,7.726562L3.550781,9.117188ZM1.933594,10.964844L3.296875,10.964844L3.296875,9.382812L1.890625,10.863281C1.914062,10.910156,1.929688,10.941406,1.933594,10.964844ZM1.925781,4.058594C1.925781,4.066406,1.925781,4.070312,1.929688,4.078125C1.933594,4.082031,1.933594,4.085938,1.933594,4.09375C1.933594,4.183594,1.910156,4.261719,1.867188,4.335938L3.296875,5.816406L3.296875,3.566406ZM3.550781,3.472656L3.550781,6.078125L4.828125,7.390625L7.316406,4.761719L5.449219,2.789062ZM3.582031,0.929688L3.550781,0.996094L3.550781,3.207031L5.265625,2.585938L3.667969,0.902344C3.632812,0.914062,3.605469,0.921875,3.582031,0.929688ZM11.039062,0.820312L10.90625,0.820312L5.707031,2.695312L7.492188,4.578125ZM7.492188,4.9375L5.003906,7.574219L7.609375,10.246094L10.085938,7.675781ZM4.6875,7.550781L3.550781,6.371094L3.550781,8.746094ZM7.617188,10.597656L7.265625,10.964844L7.976562,10.964844ZM10.429688,7.683594L12.421875,9.785156L13.527344,4.5625L13.5,4.519531L13.492188,4.511719ZM13.308594,4.335938C13.265625,4.261719,13.242188,4.183594,13.242188,4.09375L13.242188,4.078125L11.433594,0.929688C11.40625,0.921875,11.371094,0.910156,11.324219,0.886719L7.667969,4.761719L10.261719,7.5ZM3.296875,3.296875L3.296875,1.429688L1.933594,3.792969ZM3.296875,11.214844L1.933594,11.214844L3.296875,13.585938ZM12.378906,11.214844L11.976562,13.117188L13.066406,11.214844ZM13.402344,10.628906L15.132812,7.609375C15.121094,7.554688,15.117188,7.515625,15.117188,7.492188C15.117188,7.484375,15.125,7.441406,15.140625,7.359375L13.710938,4.878906L12.632812,10.003906L13.277344,10.6875C13.304688,10.671875,13.34375,10.652344,13.402344,10.628906ZM13.402344,10.628906" fill="#FFFFFF"/>
    </svg>