<?xml version="1.0" encoding="utf-8"?> <!DOCTYPE svg PUBLIC "-//W3C//DTD SVG 1.1//EN" "http://www.w3.org/Graphics/SVG/1.1/DTD/svg11.dtd"><svg version="1.1" id="icon" xmlns="http://www.w3.org/2000/svg" xmlns:xlink="http://www.w3.org/1999/xlink" x="0px"  y="0px" width="15px" height="15px" viewBox="0 0 15 15" enable-background="new 0 0 15 15" xml:space="preserve"><path fill="#FFFFFF" d="M12.085938,4.585938L9.644531,7.03125L9.644531,13.929688C9.644531,14.183594,9.550781,14.40625,9.367188,14.589844C9.183594,14.773438,8.960938,14.867188,8.707031,14.867188C8.449219,14.867188,8.226562,14.773438,8.042969,14.589844C7.859375,14.40625,7.769531,14.183594,7.769531,13.929688L7.769531,10.714844L7.230469,10.714844L7.230469,13.929688C7.230469,14.183594,7.140625,14.40625,6.957031,14.589844C6.773438,14.773438,6.550781,14.867188,6.292969,14.867188C6.039062,14.867188,5.816406,14.773438,5.632812,14.589844C5.449219,14.40625,5.355469,14.183594,5.355469,13.929688L5.355469,7.03125L2.914062,4.585938C2.757812,4.429688,2.679688,4.242188,2.679688,4.019531C2.679688,3.792969,2.757812,3.605469,2.914062,3.449219C3.070312,3.292969,3.257812,3.214844,3.480469,3.214844C3.707031,3.214844,3.894531,3.292969,4.050781,3.449219L5.960938,5.355469L9.039062,5.355469L10.949219,3.449219C11.105469,3.292969,11.292969,3.214844,11.519531,3.214844C11.742188,3.214844,11.929688,3.292969,12.085938,3.449219C12.242188,3.605469,12.320312,3.792969,12.320312,4.019531C12.320312,4.242188,12.242188,4.429688,12.085938,4.585938ZM9.375,3.214844C9.375,3.734375,9.191406,4.175781,8.828125,4.539062C8.460938,4.90625,8.019531,5.089844,7.5,5.089844C6.980469,5.089844,6.539062,4.90625,6.171875,4.539062C5.808594,4.175781,5.625,3.734375,5.625,3.214844C5.625,2.695312,5.808594,2.253906,6.171875,1.886719C6.539062,1.523438,6.980469,1.339844,7.5,1.339844C8.019531,1.339844,8.460938,1.523438,8.828125,1.886719C9.191406,2.253906,9.375,2.695312,9.375,3.214844ZM9.375,3.214844"></path> </svg>