<svg version="1.1" xmlns="http://www.w3.org/2000/svg" xlink="http://www.w3.org/1999/xlink" x="0px" y="0px" width="15px" height="18.75px" viewBox="0 0 15 18.75" style="enable-background:new 0 0 15 15;" space="preserve">
    <path d="M5.2459716796875,8.0863037109375l-0.454833984375,1.6981201171875c-0.1102294921875,0.4119873046875,-0.1329345703125,0.8382568359375,-0.08825683593750001,1.2593994140625l-1.2890625,1.061279296875c-0.24060058593750003,0.1981201171875,-0.5972900390625,-0.0157470703125,-0.535400390625,-0.32116699218749994l0.5654296875,-2.80810546875c0.038818359375,-0.19262695312499997,-0.09741210937500001,-0.37646484375,-0.29296875,-0.3951416015625l-2.851318359375,-0.2764892578125c-0.3101806640625,-0.030029296874999997,-0.41125488281250006,-0.4332275390625,-0.151611328125,-0.605712890625l2.3858642578125004,-1.585693359375c0.163330078125,-0.10876464843750001,0.197021484375,-0.3350830078125,0.072509765625,-0.4866943359375L0.7858886718750001,3.413818359375c-0.1981201171875,-0.24060058593750003,0.0157470703125,-0.596923828125,0.321533203125,-0.535400390625l2.80810546875,0.5654296875c0.19262695312499997,0.038818359375,0.37646484375,-0.09741210937500001,0.3955078125,-0.29296875l0.2764892578125,-2.851318359375c0.030029296874999997,-0.310546875,0.4332275390625,-0.41125488281250006,0.6060791015625,-0.151611328125l1.585693359375,2.385498046875c0.10876464843750001,0.163330078125,0.3350830078125,0.197021484375,0.4866943359375,0.072509765625l2.2119140625,-1.8204345703125c0.24060058593750003,-0.1981201171875,0.596923828125,0.0157470703125,0.535400390625,0.32116699218749994L9.598388671875002,3.1633300781249996c-0.0992431640625,0.1116943359375,-0.19885253906249997,0.2230224609375,-0.2896728515625,0.34423828125l-1.1773681640625,1.5736083984375l-0.3922119140625,0.5244140625c-1.1986083984374998,0.32080078125,-2.167236328125,1.2645263671875,-2.4931640625,2.480712890625zm18.1116943359375,4.8526611328125l-0.454833984375,1.69775390625c-0.11462402343749999,0.427734375,-0.34350585937500006,0.7913818359375,-0.6427001953125,1.0751953125a2.4490722656250004,2.4490722656250004,0,0,1,-0.32080078125,0.25634765625l-0.5123291015625,1.9127197265624998c-0.04174804687499999,0.1563720703125,-0.113525390625,0.296630859375,-0.2069091796875,0.41674804687500006c-0.2808837890625,0.3603515625,-0.7595214843749999,0.53759765625,-1.228271484375,0.4119873046875L18.85986328125,18.406494140625c-0.6251220703125,-0.16735839843750003,-0.99609375,-0.81005859375,-0.8287353515625,-1.4351806640624998l0.30322265625,-1.1319580078125l-9.0556640625,-2.426513671875l-0.30322265625,1.1319580078125c-0.16735839843750003,0.6251220703125,-0.81005859375,0.99609375,-1.4351806640624998,0.8287353515625l-1.1319580078125,-0.30322265625c-0.46875,-0.1256103515625,-0.794677734375,-0.5185546875,-0.857666015625,-0.9708251953125001c-0.020874023437499997,-0.15087890625,-0.0128173828125,-0.308349609375,0.028930664062500003,-0.46435546875l0.5123291015625,-1.9127197265624998a2.439697265625,2.439697265625,0,0,1,-0.1497802734375,-0.3826904296875c-0.1171875,-0.3951416015625,-0.1336669921875,-0.82470703125,-0.01904296875,-1.25244140625l0.454833984375,-1.6981201171875c0.19445800781249997,-0.72509765625,0.708984375,-1.2755126953124998,1.3509521484375,-1.5457763671875a2.3560546875,2.3560546875,0,0,1,0.6771240234374999,-0.1728515625l0.6639404296875,-0.8873291015625l1.1773681640625,-1.5736083984375c0.1263427734375,-0.1688232421875,0.2633056640625,-0.325927734375,0.41015625,-0.47021484375c0.29296875,-0.2889404296875,0.6236572265625,-0.52880859375,0.9792480468749999,-0.7144775390625001c0.177978515625,-0.093017578125,0.36218261718750006,-0.1724853515625,0.5511474609375,-0.23767089843750003c0.3782958984375,-0.131103515625,0.7760009765625,-0.2061767578125,1.1806640625,-0.22119140625c0.4046630859375,-0.015014648437499998,0.8170166015625,0.030029296874999997,1.2242431640625,0.13916015625l4.49267578125,1.2037353515625c0.40722656249999994,0.109130859375,0.78662109375,0.276123046875,1.1297607421875,0.4918212890625a4.0689697265625,4.0689697265625,0,0,1,1.2703857421874998,1.263427734375c0.322998046875,0.50830078125,0.5361328125,1.0927734375,0.61083984375,1.7208251953125l0.23291015625,1.9515380859375l0.1314697265625,1.1004638671875a2.3616943359375,2.3616943359375,0,0,1,0.8327636718749999,1.0960693359375c0.1607666015625,0.43505859375000006,0.1937255859375,0.9224853515625,0.0640869140625,1.4058837890625zM9.359619140625,8.581787109375c-0.6793212890625,-0.1820068359375,-1.2528076171875,0.14794921875,-1.4344482421875002,0.8250732421875001c-0.181640625,0.6771240234374999,0.1505126953125,1.24951171875,0.8294677734375,1.4315185546875c0.6793212890625,0.1820068359375,1.667724609375,0.5679931640625,1.8489990234375,-0.109130859375c0.181640625,-0.6771240234374999,-0.5650634765625,-1.9654541015625002,-1.2440185546875,-2.1474609375zm10.642456054687502,1.0316162109375l-0.23291015625,-1.9515380859375c-0.021240234375,-0.1783447265625,-0.0692138671875,-0.3489990234375,-0.139892578125,-0.507568359375c-0.21240234375,-0.4757080078125,-0.6298828125,-0.8426513671875001,-1.150634765625,-0.982177734375l-4.49267578125,-1.2037353515625a1.75810546875,1.75810546875,0,0,0,-1.862548828125,0.6448974609375l-1.1773681640625,1.5736083984375l6.298828125,1.6874999999999998l2.7572021484375004,0.739013671875zm0.6771240234374999,2.0013427734375c-0.6793212890625,-0.1820068359375,-1.97021484375,0.5606689453125,-2.1514892578125,1.2374267578125c-0.1812744140625,0.6771240234374999,0.8675537109375,0.837158203125,1.546875,1.0191650390625c0.6793212890625,0.1820068359375,1.2528076171875,-0.14794921875,1.4344482421875002,-0.8250732421875001c0.1812744140625,-0.6767578125,-0.1505126953125,-1.24951171875,-0.829833984375,-1.4315185546875z" fill="#FFFFFF"/>
    </svg>