<svg version="1.1" xmlns="http://www.w3.org/2000/svg" xlink="http://www.w3.org/1999/xlink" x="0px" y="0px" width="15px" height="15px" viewBox="0 0 15 15" style="enable-background:new 0 0 15 15;" space="preserve">
    <path d="M12.7734375,15H2.2265625c-0.194150390625,0,-0.3515625,-0.157412109375,-0.3515625,-0.3515625v-0.703125c0,-0.194150390625,0.157412109375,-0.3515625,0.3515625,-0.3515625h10.546875c0.194150390625,0,0.3515625,0.157412109375,0.3515625,0.3515625v0.703125c0,0.194150390625,-0.157412109375,0.3515625,-0.3515625,0.3515625zM7.487666015625,0c-0.90609375,0,-1.640625,0.73453125,-1.640625,1.640625s0.73453125,1.640625,1.640625,1.640625s1.640625,-0.73453125,1.640625,-1.640625s-0.73453125,-1.640625,-1.640625,-1.640625zm5.993203125,4.5302929687499995c-0.168984375,-0.089208984375,-0.3783984375,-0.0273046875,-0.47115234375000004,0.13974609375c-0.252421875,0.4545703125,-0.666416015625,1.107451171875,-1.2909667968749998,1.107451171875c-0.84123046875,0,-0.897216796875,-0.5801953125,-0.92830078125,-1.68580078125c-0.005361328125,-0.1901953125,-0.161162109375,-0.34171875,-0.35141601562499997,-0.34171875h-1.20134765625c-0.151611328125,0,-0.28576171875,0.09749999999999999,-0.3336328125,0.24134765625c-0.26044921875000004,0.782490234375,-0.763857421875,1.2009375,-1.404052734375,1.2009375s-1.14357421875,-0.418447265625,-1.404052734375,-1.2009375c-0.047871093749999996,-0.14384765625,-0.18202148437500001,-0.24134765625,-0.3336328125,-0.24134765625h-1.201318359375c-0.190283203125,0,-0.34608398437500004,0.15158203125,-0.35141601562499997,0.341806640625c-0.030820312500000002,1.10279296875,-0.08595703125000001,1.685712890625,-0.928359375,1.685712890625c-0.606181640625,0,-0.990732421875,-0.5925,-1.301513671875,-1.114013671875c-0.09568359375,-0.160546875,-0.30052734374999995,-0.217705078125,-0.46579101562499997,-0.130458984375l-1.1478222656250001,0.605830078125a0.3515625,0.3515625,0,0,0,-0.16142578124999998,0.44370117187499997L3.28125,13.125h8.4375l3.07658203125,-7.542421875a0.3515625,0.3515625,0,0,0,-0.16142578124999998,-0.44370117187499997l-1.153037109375,-0.6085839843749999z" fill="#FFFFFF"/>
    </svg>