<svg version="1.1" xmlns="http://www.w3.org/2000/svg" xlink="http://www.w3.org/1999/xlink" x="0px" y="0px" width="15px" height="20px" viewBox="0 0 15 20" style="enable-background:new 0 0 15 15;" space="preserve">
    <path d="M3.1734765625,8.3994921875C3.1623828124999998,10.114062500000001,3.0238671875,13.59671875,1.875,17.5h11.249296875c-1.1484375,-3.89078125,-1.2865625,-7.3793750000000005,-1.2976953125,-9.1005859375l1.774140625,-1.6528125a0.46867187499999996,0.46867187499999996,0,0,0,0.14921874999999998,-0.34296875V1.71875c0,-0.2588671875,-0.20988281250000002,-0.46875,-0.46875,-0.46875h-1.5625c-0.2588671875,0,-0.46875,0.20988281250000002,-0.46875,0.46875v1.71875h-1.875V1.71875c0,-0.2588671875,-0.20988281250000002,-0.46875,-0.46875,-0.46875h-2.8125c-0.2588671875,0,-0.46875,0.20988281250000002,-0.46875,0.46875v1.71875H3.75V1.71875c0,-0.2588671875,-0.20988281250000002,-0.46875,-0.46875,-0.46875H1.71875c-0.2588671875,0,-0.46875,0.20988281250000002,-0.46875,0.46875v4.68484375c0,0.130078125,0.0540625,0.254296875,0.14921874999999998,0.34296875l1.7742578125,1.6529296875zM6.25,10c0,-0.6903515625,0.5596484375,-1.25,1.25,-1.25c0.6903515625,0,1.25,0.5596484375,1.25,1.25v2.5001562500000003h-2.5V10zm8.75,8.59375v0.9375c0,0.2588671875,-0.20988281250000002,0.46875,-0.46875,0.46875H0.46875c-0.2588671875,0,-0.46875,-0.20988281250000002,-0.46875,-0.46875v-0.9375c0,-0.2588671875,0.20988281250000002,-0.46875,0.46875,-0.46875h14.0625c0.2588671875,0,0.46875,0.20988281250000002,0.46875,0.46875z" fill="#FFFFFF"/>
    </svg>