<?xml version="1.0" encoding="utf-8"?> <!DOCTYPE svg PUBLIC "-//W3C//DTD SVG 1.1//EN" "http://www.w3.org/Graphics/SVG/1.1/DTD/svg11.dtd"><svg version="1.1" id="icon" xmlns="http://www.w3.org/2000/svg" xmlns:xlink="http://www.w3.org/1999/xlink" x="0px"  y="0px" width="15px" height="15px" viewBox="0 0 15 15" enable-background="new 0 0 15 15" xml:space="preserve"><path fill="#FFFFFF" d="M13.75,5h-3.75V1.25c0,-0.6902343750000001,-0.559765625,-1.25,-1.25,-1.25h-2.5c-0.6902343750000001,0,-1.25,0.559765625,-1.25,1.25v3.75H1.25c-0.6902343750000001,0,-1.25,0.559765625,-1.25,1.25v2.5c0,0.6902343750000001,0.559765625,1.25,1.25,1.25h3.75v8.75c0,0.6902343750000001,0.559765625,1.25,1.25,1.25h2.5c0.6902343750000001,0,1.25,-0.559765625,1.25,-1.25V10h3.75c0.6902343750000001,0,1.25,-0.559765625,1.25,-1.25v-2.5c0,-0.6902343750000001,-0.559765625,-1.25,-1.25,-1.25z"></path> </svg>