<svg version="1.1" xmlns="http://www.w3.org/2000/svg" xlink="http://www.w3.org/1999/xlink" x="0px" y="0px" width="15px" height="15px" viewBox="0 0 15 15" style="enable-background:new 0 0 15 15;" space="preserve">
    <path d="M13.394531,11.519531L13.394531,7.5L7.5,7.5L7.5,1.605469L3.480469,1.605469C2.964844,1.605469,2.519531,1.789062,2.15625,2.15625C1.789062,2.519531,1.605469,2.964844,1.605469,3.480469L1.605469,7.5L7.5,7.5L7.5,13.394531L11.519531,13.394531C12.035156,13.394531,12.480469,13.210938,12.84375,12.84375C13.210938,12.480469,13.394531,12.035156,13.394531,11.519531ZM13.929688,3.480469L13.929688,11.519531C13.929688,12.183594,13.691406,12.75,13.222656,13.222656C12.75,13.691406,12.183594,13.929688,11.519531,13.929688L3.480469,13.929688C2.816406,13.929688,2.25,13.691406,1.777344,13.222656C1.308594,12.75,1.070312,12.183594,1.070312,11.519531L1.070312,3.480469C1.070312,2.816406,1.308594,2.25,1.777344,1.777344C2.25,1.308594,2.816406,1.070312,3.480469,1.070312L11.519531,1.070312C12.183594,1.070312,12.75,1.308594,13.222656,1.777344C13.691406,2.25,13.929688,2.816406,13.929688,3.480469ZM13.929688,3.480469" fill="#FFFFFF"/>
    </svg>