<svg version="1.1" xmlns="http://www.w3.org/2000/svg" xlink="http://www.w3.org/1999/xlink" x="0px" y="0px" width="15px" height="15px" viewBox="0 0 15 15" style="enable-background:new 0 0 15 15;" space="preserve">
    <path d="M7.6863739,7.8154435C8.1522736,7.94486,8.5845248,8.1622798,8.9675978,8.4547612L13.147752,7.0622391c0.21742,-0.072473,0.333895,-0.3080114,0.261422,-0.5228429L11.845822,1.8493406C11.773342,1.6319207,11.53781,1.5154459,11.322979,1.5879191L9.7415091,2.1159386L10.598246,4.6887396L9.0271297,5.2089941L8.1703917,2.6361932L6.57598,3.166801C6.3585602,3.2392742,6.2420853,3.4748124,6.3145585,3.6896439ZM14.959584,9.075961L14.695574,8.289108C14.623101,8.0716882,14.387562,7.9552133,14.172731,8.0276866L8.6466451,9.870578C8.2014518,9.3011457,7.5181324,8.9284255,6.7442215,8.9128959L4.1714205,1.1944928C4.0575339,0.85542151,3.7417575,0.62764831,3.3845679,0.62764831H0.4856372c-0.22777313,0,-0.41413296,0.1863598,-0.41413296,0.41413299v0.8282658c0,0.2277732,0.18635983,0.414133,0.41413296,0.414133H2.7866634L5.1731045,9.446092c-0.6755543,0.5280193,-1.0793339,1.387346,-0.9317991,2.342439c0.1578882,1.019803,0.9809775,1.871364,2.0007799,2.049959c1.5581752,0.276951,2.9066958,-0.90074,2.9351675,-2.396795L14.698162,9.5988035c0.214832,-0.072477,0.333895,-0.305423,0.261422,-0.5228425zm-8.2619525,3.561543c-0.6859077,0,-1.2423989,-0.556491,-1.2423989,-1.242398c0,-0.685909,0.5564912,-1.2424,1.2423989,-1.2424c0.6859077,0,1.2423987,0.556491,1.2423987,1.2424c0,0.685907,-0.556491,1.242398,-1.2423987,1.242398z" fill="#FFFFFF"/>
    </svg>