<svg version="1.1" xmlns="http://www.w3.org/2000/svg" xlink="http://www.w3.org/1999/xlink" x="0px" y="0px" width="15px" height="15px" viewBox="0 0 15 15" style="enable-background:new 0 0 15 15;" space="preserve">
    <path d="M10.839844,13.277344C10.8125,13.167969,10.746094,13.15625,10.640625,13.234375C10.472656,13.355469,10.230469,13.464844,9.910156,13.558594C9.59375,13.65625,9.226562,13.703125,8.8125,13.703125C8.09375,13.703125,7.554688,13.566406,7.199219,13.292969C7.171875,13.269531,7.132812,13.257812,7.089844,13.257812C7.027344,13.257812,6.957031,13.292969,6.871094,13.359375C6.832031,13.394531,6.8125,13.4375,6.808594,13.492188C6.804688,13.550781,6.828125,13.605469,6.871094,13.660156C7.0625,13.839844,7.304688,13.96875,7.605469,14.046875C7.902344,14.125,8.1875,14.160156,8.460938,14.148438C8.734375,14.140625,9.011719,14.128906,9.292969,14.113281C9.519531,14.089844,9.757812,14.03125,10,13.941406C10.242188,13.847656,10.421875,13.765625,10.542969,13.691406C10.664062,13.613281,10.742188,13.558594,10.78125,13.519531C10.847656,13.453125,10.867188,13.371094,10.839844,13.277344ZM10.511719,12.3125C10.40625,12.050781,10.296875,11.878906,10.1875,11.800781C10.058594,11.71875,9.847656,11.675781,9.550781,11.675781C9.289062,11.675781,9.089844,11.703125,8.957031,11.761719C8.792969,11.828125,8.578125,11.984375,8.304688,12.230469C8.160156,12.363281,8.125,12.484375,8.203125,12.597656C8.253906,12.640625,8.300781,12.65625,8.351562,12.636719C8.398438,12.617188,8.484375,12.550781,8.613281,12.4375C8.628906,12.425781,8.660156,12.402344,8.703125,12.367188C8.742188,12.332031,8.773438,12.308594,8.789062,12.296875C8.804688,12.285156,8.832031,12.265625,8.871094,12.238281C8.910156,12.210938,8.945312,12.191406,8.96875,12.179688C8.992188,12.167969,9.027344,12.152344,9.074219,12.136719C9.117188,12.121094,9.160156,12.109375,9.199219,12.101562C9.238281,12.089844,9.285156,12.085938,9.335938,12.078125C9.390625,12.074219,9.449219,12.070312,9.507812,12.070312C9.660156,12.070312,9.785156,12.089844,9.882812,12.132812C9.980469,12.175781,10.042969,12.214844,10.074219,12.253906C10.105469,12.292969,10.140625,12.355469,10.1875,12.4375C10.242188,12.535156,10.277344,12.589844,10.292969,12.605469C10.304688,12.621094,10.339844,12.621094,10.394531,12.597656C10.523438,12.53125,10.5625,12.4375,10.511719,12.3125ZM13.484375,9.960938C13.484375,9.839844,13.472656,9.714844,13.441406,9.589844C13.414062,9.460938,13.367188,9.335938,13.304688,9.210938C13.242188,9.085938,13.144531,8.984375,13.019531,8.90625C12.894531,8.828125,12.75,8.789062,12.582031,8.789062C12.398438,8.789062,12.125,8.90625,11.769531,9.136719C11.410156,9.367188,11.050781,9.601562,10.6875,9.835938C10.328125,10.070312,10.042969,10.1875,9.84375,10.1875C9.691406,10.191406,9.515625,10.140625,9.3125,10.027344C9.109375,9.917969,8.894531,9.78125,8.675781,9.617188C8.457031,9.457031,8.222656,9.292969,7.976562,9.132812C7.730469,8.96875,7.453125,8.832031,7.140625,8.722656C6.828125,8.609375,6.519531,8.558594,6.210938,8.5625C5.570312,8.570312,5.019531,8.789062,4.5625,9.21875C4.105469,9.652344,3.871094,10.152344,3.859375,10.714844C3.847656,11.339844,4.054688,11.796875,4.476562,12.085938C4.640625,12.199219,4.8125,12.277344,5,12.324219C5.1875,12.371094,5.476562,12.398438,5.867188,12.398438C6.1875,12.398438,6.554688,12.304688,6.972656,12.125C7.390625,11.941406,7.765625,11.746094,8.09375,11.53125C8.421875,11.316406,8.757812,11.117188,9.097656,10.941406C9.4375,10.761719,9.699219,10.675781,9.878906,10.679688C10.023438,10.6875,10.203125,10.773438,10.421875,10.945312C10.640625,11.113281,10.839844,11.300781,11.019531,11.503906C11.199219,11.707031,11.390625,11.898438,11.589844,12.070312C11.785156,12.242188,11.941406,12.332031,12.054688,12.339844C12.25,12.355469,12.410156,12.316406,12.542969,12.222656C12.675781,12.125,12.828125,11.949219,13.007812,11.695312C13.164062,11.464844,13.28125,11.183594,13.363281,10.847656C13.445312,10.511719,13.484375,10.21875,13.484375,9.960938ZM13.929688,8.621094C13.929688,9.535156,13.753906,10.386719,13.410156,11.171875C13.0625,11.953125,12.601562,12.613281,12.019531,13.144531C11.441406,13.679688,10.761719,14.097656,9.992188,14.398438C9.21875,14.699219,8.40625,14.847656,7.558594,14.847656C6.710938,14.847656,5.894531,14.6875,5.105469,14.367188C4.320312,14.046875,3.628906,13.609375,3.035156,13.054688C2.441406,12.5,1.964844,11.824219,1.605469,11.03125C1.25,10.238281,1.070312,9.398438,1.070312,8.503906C1.070312,8.007812,1.125,7.527344,1.234375,7.0625C1.34375,6.59375,1.480469,6.1875,1.644531,5.84375C1.808594,5.496094,2.007812,5.164062,2.234375,4.851562C2.464844,4.535156,2.683594,4.273438,2.890625,4.0625C3.101562,3.855469,3.320312,3.660156,3.550781,3.480469C3.777344,3.304688,3.957031,3.171875,4.089844,3.09375C4.21875,3.011719,4.339844,2.945312,4.445312,2.886719C4.523438,2.84375,4.664062,2.769531,4.871094,2.664062C5.078125,2.5625,5.230469,2.484375,5.328125,2.425781C5.425781,2.371094,5.558594,2.289062,5.730469,2.175781C5.898438,2.066406,6.070312,1.941406,6.234375,1.808594C6.4375,1.652344,6.597656,1.449219,6.722656,1.203125C6.84375,0.953125,6.929688,0.601562,6.972656,0.152344C7.691406,1.015625,8.210938,1.554688,8.53125,1.765625C8.773438,1.929688,9.136719,2.117188,9.617188,2.335938C10.097656,2.554688,10.457031,2.738281,10.699219,2.886719C10.816406,2.960938,10.921875,3.03125,11.023438,3.097656C11.125,3.164062,11.292969,3.292969,11.53125,3.484375C11.765625,3.679688,11.980469,3.875,12.167969,4.078125C12.351562,4.277344,12.5625,4.542969,12.792969,4.871094C13.027344,5.199219,13.21875,5.542969,13.371094,5.894531C13.523438,6.246094,13.65625,6.660156,13.765625,7.136719C13.875,7.613281,13.929688,8.109375,13.929688,8.621094ZM13.929688,8.621094" fill="#FFFFFF"/>
    </svg>