<?xml version="1.0" encoding="utf-8"?> <!DOCTYPE svg PUBLIC "-//W3C//DTD SVG 1.1//EN" "http://www.w3.org/Graphics/SVG/1.1/DTD/svg11.dtd"><svg version="1.1" id="icon" xmlns="http://www.w3.org/2000/svg" xmlns:xlink="http://www.w3.org/1999/xlink" x="0px"  y="0px" width="15px" height="15px" viewBox="0 0 15 15" enable-background="new 0 0 15 15" xml:space="preserve"><path fill="#FFFFFF" d="M 7.316406 13.710938 L 7.316406 14.261719 C 6.15625 14.230469 5.082031 13.925781 4.09375 13.347656 C 3.105469 12.769531 2.316406 12 1.722656 11.039062 L 2.210938 10.757812 C 2.371094 11.03125 2.574219 11.304688 2.820312 11.585938 L 3.363281 11.109375 C 4.191406 12.046875 5.21875 12.636719 6.445312 12.882812 L 6.304688 13.601562 C 6.664062 13.667969 7.003906 13.707031 7.316406 13.710938 Z M 2.308594 9.273438 L 1.617188 9.507812 C 1.738281 9.84375 1.875 10.15625 2.027344 10.445312 L 1.546875 10.722656 C 1 9.71875 0.726562 8.644531 0.726562 7.5 C 0.726562 6.355469 1 5.28125 1.546875 4.277344 L 2.027344 4.554688 C 1.859375 4.867188 1.722656 5.179688 1.617188 5.492188 L 2.300781 5.726562 C 2.105469 6.285156 2.007812 6.875 2.007812 7.5 C 2.007812 8.109375 2.109375 8.699219 2.308594 9.273438 Z M 12.789062 10.757812 L 13.277344 11.039062 C 12.683594 12 11.894531 12.769531 10.90625 13.347656 C 9.917969 13.925781 8.84375 14.230469 7.683594 14.261719 L 7.683594 13.710938 C 7.996094 13.707031 8.335938 13.667969 8.695312 13.601562 L 8.554688 12.882812 C 9.78125 12.636719 10.808594 12.046875 11.636719 11.109375 L 12.179688 11.585938 C 12.425781 11.304688 12.628906 11.03125 12.789062 10.757812 Z M 11.527344 6.117188 L 9.574219 6.789062 C 9.652344 7.023438 9.691406 7.261719 9.691406 7.5 C 9.691406 7.738281 9.652344 7.976562 9.574219 8.210938 L 11.519531 8.882812 C 11.34375 9.394531 11.070312 9.867188 10.699219 10.296875 L 9.148438 8.941406 C 8.832031 9.3125 8.421875 9.550781 7.917969 9.652344 L 8.320312 11.667969 C 8.03125 11.722656 7.757812 11.753906 7.5 11.753906 C 7.242188 11.753906 6.96875 11.722656 6.679688 11.667969 L 7.082031 9.652344 C 6.578125 9.550781 6.167969 9.3125 5.851562 8.941406 L 4.300781 10.296875 C 3.929688 9.867188 3.65625 9.394531 3.480469 8.882812 L 5.425781 8.210938 C 5.347656 7.976562 5.308594 7.738281 5.308594 7.5 C 5.308594 7.261719 5.347656 7.023438 5.425781 6.789062 L 3.472656 6.117188 C 3.65625 5.601562 3.933594 5.128906 4.300781 4.703125 L 5.851562 6.058594 C 6.179688 5.679688 6.589844 5.441406 7.082031 5.339844 L 6.679688 3.332031 C 6.925781 3.277344 7.199219 3.246094 7.5 3.246094 C 7.800781 3.246094 8.074219 3.277344 8.320312 3.332031 L 7.917969 5.339844 C 8.410156 5.441406 8.820312 5.679688 9.148438 6.058594 L 10.699219 4.703125 C 11.066406 5.128906 11.34375 5.601562 11.527344 6.117188 Z M 7.316406 0.738281 L 7.316406 1.289062 C 6.953125 1.300781 6.617188 1.335938 6.304688 1.398438 L 6.445312 2.117188 C 5.21875 2.351562 4.191406 2.941406 3.363281 3.882812 L 2.820312 3.414062 C 2.609375 3.648438 2.40625 3.921875 2.210938 4.234375 L 1.734375 3.960938 C 2.324219 3 3.109375 2.230469 4.09375 1.652344 C 5.074219 1.074219 6.148438 0.769531 7.316406 0.738281 Z M 14.273438 7.5 C 14.273438 8.644531 14 9.71875 13.453125 10.722656 L 12.972656 10.445312 C 13.125 10.15625 13.261719 9.84375 13.382812 9.507812 L 12.691406 9.273438 C 12.890625 8.699219 12.992188 8.109375 12.992188 7.5 C 12.992188 6.875 12.894531 6.285156 12.699219 5.726562 L 13.382812 5.492188 C 13.277344 5.179688 13.140625 4.867188 12.972656 4.554688 L 13.453125 4.277344 C 14 5.28125 14.273438 6.355469 14.273438 7.5 Z M 13.265625 3.960938 L 12.789062 4.234375 C 12.59375 3.921875 12.390625 3.648438 12.179688 3.414062 L 11.636719 3.882812 C 10.808594 2.941406 9.78125 2.351562 8.554688 2.117188 L 8.695312 1.398438 C 8.382812 1.335938 8.046875 1.300781 7.683594 1.289062 L 7.683594 0.738281 C 8.851562 0.769531 9.925781 1.074219 10.90625 1.652344 C 11.890625 2.230469 12.675781 3 13.265625 3.960938 Z M 14.632812 7.5 C 14.632812 6.535156 14.445312 5.609375 14.066406 4.730469 C 13.691406 3.847656 13.183594 3.089844 12.546875 2.453125 C 11.910156 1.816406 11.152344 1.308594 10.269531 0.933594 C 9.390625 0.554688 8.464844 0.367188 7.5 0.367188 C 6.535156 0.367188 5.609375 0.554688 4.730469 0.933594 C 3.847656 1.308594 3.089844 1.816406 2.453125 2.453125 C 1.816406 3.089844 1.308594 3.847656 0.933594 4.730469 C 0.554688 5.609375 0.367188 6.535156 0.367188 7.5 C 0.367188 8.464844 0.554688 9.390625 0.933594 10.269531 C 1.308594 11.152344 1.816406 11.910156 2.453125 12.546875 C 3.089844 13.183594 3.847656 13.691406 4.730469 14.066406 C 5.609375 14.445312 6.535156 14.632812 7.5 14.632812 C 8.464844 14.632812 9.390625 14.445312 10.269531 14.066406 C 11.152344 13.691406 11.910156 13.183594 12.546875 12.546875 C 13.183594 11.910156 13.691406 11.152344 14.066406 10.269531 C 14.445312 9.390625 14.632812 8.464844 14.632812 7.5 Z M 15 7.5 C 15 8.515625 14.800781 9.488281 14.40625 10.414062 C 14.007812 11.339844 13.476562 12.136719 12.808594 12.808594 C 12.136719 13.476562 11.339844 14.007812 10.414062 14.40625 C 9.488281 14.800781 8.515625 15 7.5 15 C 6.484375 15 5.511719 14.800781 4.585938 14.40625 C 3.660156 14.007812 2.863281 13.476562 2.191406 12.808594 C 1.523438 12.136719 0.992188 11.339844 0.59375 10.414062 C 0.199219 9.488281 0 8.515625 0 7.5 C 0 6.484375 0.199219 5.511719 0.59375 4.585938 C 0.992188 3.660156 1.523438 2.863281 2.191406 2.191406 C 2.863281 1.523438 3.660156 0.992188 4.585938 0.59375 C 5.511719 0.199219 6.484375 0 7.5 0 C 8.515625 0 9.488281 0.199219 10.414062 0.59375 C 11.339844 0.992188 12.136719 1.523438 12.808594 2.191406 C 13.476562 2.863281 14.007812 3.660156 14.40625 4.585938 C 14.800781 5.511719 15 6.484375 15 7.5 Z M 15 7.5 "></path> </svg>