<svg version="1.1" xmlns="http://www.w3.org/2000/svg" xlink="http://www.w3.org/1999/xlink" x="0px" y="0px" width="15px" height="15px" viewBox="0 0 15 15" style="enable-background:new 0 0 15 15;" space="preserve">
    <path d="M13.929688,12.589844L13.929688,6.160156C13.75,6.363281,13.558594,6.546875,13.351562,6.714844C11.855469,7.863281,10.667969,8.804688,9.785156,9.542969C9.5,9.78125,9.269531,9.96875,9.089844,10.101562C8.910156,10.238281,8.671875,10.371094,8.367188,10.507812C8.0625,10.644531,7.777344,10.714844,7.507812,10.714844L7.492188,10.714844C7.222656,10.714844,6.9375,10.644531,6.632812,10.507812C6.328125,10.371094,6.089844,10.238281,5.910156,10.101562C5.730469,9.96875,5.5,9.78125,5.214844,9.542969C4.332031,8.804688,3.144531,7.863281,1.648438,6.714844C1.441406,6.546875,1.25,6.363281,1.070312,6.160156L1.070312,12.589844C1.070312,12.660156,1.097656,12.722656,1.152344,12.777344C1.203125,12.832031,1.265625,12.855469,1.339844,12.855469L13.660156,12.855469C13.734375,12.855469,13.796875,12.832031,13.847656,12.777344C13.902344,12.722656,13.929688,12.660156,13.929688,12.589844ZM13.929688,3.792969L13.929688,3.585938L13.925781,3.476562L13.898438,3.375L13.851562,3.296875L13.777344,3.234375L13.660156,3.214844L1.339844,3.214844C1.265625,3.214844,1.203125,3.242188,1.152344,3.292969C1.097656,3.347656,1.070312,3.410156,1.070312,3.480469C1.070312,4.417969,1.480469,5.210938,2.300781,5.859375C3.378906,6.707031,4.496094,7.59375,5.660156,8.511719C5.691406,8.539062,5.789062,8.621094,5.953125,8.757812C6.113281,8.894531,6.242188,9,6.335938,9.074219C6.429688,9.144531,6.554688,9.234375,6.710938,9.335938C6.863281,9.441406,7.003906,9.515625,7.132812,9.566406C7.261719,9.617188,7.378906,9.644531,7.492188,9.644531L7.507812,9.644531C7.621094,9.644531,7.738281,9.617188,7.867188,9.566406C7.996094,9.515625,8.136719,9.441406,8.289062,9.335938C8.445312,9.234375,8.570312,9.144531,8.664062,9.074219C8.757812,9,8.886719,8.894531,9.046875,8.757812C9.210938,8.621094,9.308594,8.539062,9.339844,8.511719C10.503906,7.59375,11.621094,6.707031,12.699219,5.859375C13,5.621094,13.28125,5.296875,13.539062,4.890625C13.796875,4.488281,13.929688,4.121094,13.929688,3.792969ZM15,3.480469L15,12.589844C15,12.957031,14.867188,13.273438,14.605469,13.535156C14.34375,13.796875,14.027344,13.929688,13.660156,13.929688L1.339844,13.929688C0.972656,13.929688,0.65625,13.796875,0.394531,13.535156C0.132812,13.273438,0,12.957031,0,12.589844L0,3.480469C0,3.113281,0.132812,2.796875,0.394531,2.535156C0.65625,2.273438,0.972656,2.144531,1.339844,2.144531L13.660156,2.144531C14.027344,2.144531,14.34375,2.273438,14.605469,2.535156C14.867188,2.796875,15,3.113281,15,3.480469ZM15,3.480469" fill="#FFFFFF"/>
    </svg>