<svg version="1.1" xmlns="http://www.w3.org/2000/svg" xlink="http://www.w3.org/1999/xlink" x="0px" y="0px" width="15px" height="15px" viewBox="0 0 15 15" style="enable-background:new 0 0 15 15;" space="preserve">
    <path d="M13.394531,14.195312L13.394531,14.730469C13.394531,14.804688,13.367188,14.867188,13.3125,14.921875C13.261719,14.972656,13.199219,15,13.125,15L1.875,15C1.800781,15,1.738281,14.972656,1.6875,14.921875C1.632812,14.867188,1.605469,14.804688,1.605469,14.730469L1.605469,14.195312C1.605469,14.125,1.632812,14.0625,1.6875,14.007812C1.738281,13.953125,1.800781,13.929688,1.875,13.929688L13.125,13.929688C13.199219,13.929688,13.261719,13.953125,13.3125,14.007812C13.367188,14.0625,13.394531,14.125,13.394531,14.195312ZM11.25,5.355469C11.25,5.792969,11.179688,6.195312,11.046875,6.5625C10.90625,6.929688,10.730469,7.246094,10.507812,7.503906C10.289062,7.765625,10.042969,8.007812,9.777344,8.242188C9.507812,8.472656,9.242188,8.6875,8.972656,8.890625C8.707031,9.089844,8.460938,9.292969,8.242188,9.492188C8.019531,9.691406,7.839844,9.921875,7.703125,10.175781C7.566406,10.429688,7.5,10.699219,7.5,10.980469C7.5,11.519531,7.6875,12.144531,8.0625,12.855469L8.027344,12.847656L8.035156,12.855469C7.535156,12.628906,7.085938,12.398438,6.695312,12.164062C6.304688,11.929688,5.917969,11.648438,5.539062,11.324219C5.15625,11,4.839844,10.660156,4.585938,10.300781C4.335938,9.941406,4.132812,9.519531,3.980469,9.039062C3.828125,8.558594,3.75,8.046875,3.75,7.5C3.75,7.066406,3.816406,6.664062,3.953125,6.292969C4.09375,5.925781,4.269531,5.613281,4.492188,5.351562C4.710938,5.09375,4.957031,4.847656,5.222656,4.617188C5.492188,4.382812,5.757812,4.167969,6.027344,3.96875C6.292969,3.765625,6.539062,3.566406,6.757812,3.363281C6.980469,3.164062,7.15625,2.9375,7.296875,2.683594C7.429688,2.429688,7.5,2.160156,7.5,1.875C7.5,1.351562,7.316406,0.726562,6.949219,0L6.972656,0.0078125L6.964844,0C7.464844,0.230469,7.914062,0.460938,8.304688,0.695312C8.695312,0.929688,9.082031,1.207031,9.460938,1.53125C9.84375,1.855469,10.160156,2.195312,10.414062,2.558594C10.664062,2.917969,10.867188,3.335938,11.019531,3.816406C11.171875,4.296875,11.25,4.808594,11.25,5.355469ZM11.25,5.355469" fill="#FFFFFF"/>
    </svg>