<svg version="1.1" xmlns="http://www.w3.org/2000/svg" xlink="http://www.w3.org/1999/xlink" x="0px" y="0px" width="15px" height="15px" viewBox="0 0 15 15" style="enable-background:new 0 0 15 15;" space="preserve">
    <path d="M12.855469,8.839844C12.855469,9.0625,12.777344,9.253906,12.621094,9.410156C12.464844,9.566406,12.277344,9.644531,12.054688,9.644531C11.769531,9.644531,11.546875,9.523438,11.382812,9.28125L9.484375,6.429688L9.105469,6.429688L9.105469,7.535156L11.175781,10.972656C11.226562,11.058594,11.25,11.148438,11.25,11.25C11.25,11.394531,11.195312,11.519531,11.089844,11.625C10.984375,11.734375,10.859375,11.785156,10.714844,11.785156L9.105469,11.785156L9.105469,14.0625C9.105469,14.320312,9.015625,14.539062,8.832031,14.722656C8.648438,14.90625,8.425781,15,8.167969,15L6.832031,15C6.574219,15,6.351562,14.90625,6.167969,14.722656C5.984375,14.539062,5.894531,14.320312,5.894531,14.0625L5.894531,11.785156L4.285156,11.785156C4.140625,11.785156,4.015625,11.734375,3.910156,11.625C3.804688,11.519531,3.75,11.394531,3.75,11.25C3.75,11.148438,3.773438,11.058594,3.824219,10.972656L5.894531,7.535156L5.894531,6.429688L5.515625,6.429688L3.617188,9.28125C3.453125,9.523438,3.230469,9.644531,2.945312,9.644531C2.722656,9.644531,2.535156,9.566406,2.378906,9.410156C2.222656,9.253906,2.144531,9.0625,2.144531,8.839844C2.144531,8.675781,2.1875,8.53125,2.277344,8.394531L4.417969,5.179688C4.828125,4.585938,5.316406,4.285156,5.894531,4.285156L9.105469,4.285156C9.683594,4.285156,10.171875,4.585938,10.582031,5.179688L12.722656,8.394531C12.8125,8.53125,12.855469,8.675781,12.855469,8.839844ZM9.375,2.144531C9.375,2.660156,9.191406,3.105469,8.828125,3.46875C8.460938,3.835938,8.019531,4.019531,7.5,4.019531C6.980469,4.019531,6.539062,3.835938,6.171875,3.46875C5.808594,3.105469,5.625,2.660156,5.625,2.144531C5.625,1.625,5.808594,1.179688,6.171875,0.816406C6.539062,0.449219,6.980469,0.269531,7.5,0.269531C8.019531,0.269531,8.460938,0.449219,8.828125,0.816406C9.191406,1.179688,9.375,1.625,9.375,2.144531ZM9.375,2.144531" fill="#FFFFFF"/>
    </svg>