<svg version="1.1" xmlns="http://www.w3.org/2000/svg" xlink="http://www.w3.org/1999/xlink" x="0px" y="0px" width="15px" height="15px" viewBox="0 0 15 15" style="enable-background:new 0 0 15 15;" space="preserve">
    <path d="M5.097656,6.832031L7.5,5.089844L9.902344,6.832031L8.988281,9.644531L6.019531,9.644531ZM7.5,0C8.515625,0,9.488281,0.199219,10.414062,0.59375C11.339844,0.992188,12.136719,1.523438,12.808594,2.191406C13.476562,2.863281,14.007812,3.660156,14.40625,4.585938C14.800781,5.511719,15,6.484375,15,7.5C15,8.515625,14.800781,9.488281,14.40625,10.414062C14.007812,11.339844,13.476562,12.136719,12.808594,12.808594C12.136719,13.476562,11.339844,14.007812,10.414062,14.40625C9.488281,14.800781,8.515625,15,7.5,15C6.484375,15,5.511719,14.800781,4.585938,14.40625C3.660156,14.007812,2.863281,13.476562,2.191406,12.808594C1.523438,12.136719,0.992188,11.339844,0.59375,10.414062C0.199219,9.488281,0,8.515625,0,7.5C0,6.484375,0.199219,5.511719,0.59375,4.585938C0.992188,3.660156,1.523438,2.863281,2.191406,2.191406C2.863281,1.523438,3.660156,0.992188,4.585938,0.59375C5.511719,0.199219,6.484375,0,7.5,0ZM12.679688,11.300781C13.511719,10.167969,13.929688,8.902344,13.929688,7.5L13.929688,7.476562L13.074219,8.21875L11.066406,6.34375L11.59375,3.640625L12.714844,3.742188C11.878906,2.59375,10.792969,1.804688,9.457031,1.382812L9.902344,2.417969L7.5,3.75L5.097656,2.417969L5.542969,1.382812C4.207031,1.804688,3.121094,2.59375,2.285156,3.742188L3.414062,3.640625L3.933594,6.34375L1.925781,8.21875L1.070312,7.476562L1.070312,7.5C1.070312,8.902344,1.488281,10.167969,2.320312,11.300781L2.570312,10.195312L5.296875,10.53125L6.460938,13.023438L5.492188,13.601562C6.144531,13.820312,6.8125,13.929688,7.5,13.929688C8.1875,13.929688,8.855469,13.820312,9.507812,13.601562L8.539062,13.023438L9.703125,10.53125L12.429688,10.195312ZM12.679688,11.300781" fill="#FFFFFF"/>
    </svg>