<?xml version="1.0" encoding="utf-8"?> <!DOCTYPE svg PUBLIC "-//W3C//DTD SVG 1.1//EN" "http://www.w3.org/Graphics/SVG/1.1/DTD/svg11.dtd"><svg version="1.1" id="icon" xmlns="http://www.w3.org/2000/svg" xmlns:xlink="http://www.w3.org/1999/xlink" x="0px"  y="0px" width="15px" height="15px" viewBox="0 0 15 15" enable-background="new 0 0 15 15" xml:space="preserve"><path fill="#FFFFFF" d="M 13.359375 3.984375 C 13.4375 4.0625 13.515625 4.164062 13.59375 4.285156 L 9.644531 4.285156 L 9.644531 0.335938 C 9.765625 0.414062 9.867188 0.492188 9.945312 0.570312 Z M 9.375 5.355469 L 13.929688 5.355469 L 13.929688 14.195312 C 13.929688 14.417969 13.851562 14.609375 13.695312 14.765625 C 13.539062 14.921875 13.347656 15 13.125 15 L 1.875 15 C 1.652344 15 1.460938 14.921875 1.304688 14.765625 C 1.148438 14.609375 1.070312 14.417969 1.070312 14.195312 L 1.070312 0.804688 C 1.070312 0.582031 1.148438 0.390625 1.304688 0.234375 C 1.460938 0.078125 1.652344 0 1.875 0 L 8.570312 0 L 8.570312 4.554688 C 8.570312 4.777344 8.648438 4.964844 8.804688 5.121094 C 8.960938 5.277344 9.152344 5.355469 9.375 5.355469 Z M 10.714844 11.519531 L 10.714844 10.980469 C 10.714844 10.902344 10.6875 10.839844 10.640625 10.789062 C 10.589844 10.738281 10.523438 10.714844 10.445312 10.714844 L 4.554688 10.714844 C 4.476562 10.714844 4.410156 10.738281 4.359375 10.789062 C 4.3125 10.839844 4.285156 10.902344 4.285156 10.980469 L 4.285156 11.519531 C 4.285156 11.597656 4.3125 11.660156 4.359375 11.710938 C 4.410156 11.761719 4.476562 11.785156 4.554688 11.785156 L 10.445312 11.785156 C 10.523438 11.785156 10.589844 11.761719 10.640625 11.710938 C 10.6875 11.660156 10.714844 11.597656 10.714844 11.519531 Z M 10.714844 9.375 L 10.714844 8.839844 C 10.714844 8.761719 10.6875 8.695312 10.640625 8.648438 C 10.589844 8.597656 10.523438 8.570312 10.445312 8.570312 L 4.554688 8.570312 C 4.476562 8.570312 4.410156 8.597656 4.359375 8.648438 C 4.3125 8.695312 4.285156 8.761719 4.285156 8.839844 L 4.285156 9.375 C 4.285156 9.453125 4.3125 9.515625 4.359375 9.566406 C 4.410156 9.617188 4.476562 9.644531 4.554688 9.644531 L 10.445312 9.644531 C 10.523438 9.644531 10.589844 9.617188 10.640625 9.566406 C 10.6875 9.515625 10.714844 9.453125 10.714844 9.375 Z M 10.714844 7.230469 L 10.714844 6.695312 C 10.714844 6.617188 10.6875 6.554688 10.640625 6.503906 C 10.589844 6.453125 10.523438 6.429688 10.445312 6.429688 L 4.554688 6.429688 C 4.476562 6.429688 4.410156 6.453125 4.359375 6.503906 C 4.3125 6.554688 4.285156 6.617188 4.285156 6.695312 L 4.285156 7.230469 C 4.285156 7.308594 4.3125 7.375 4.359375 7.425781 C 4.410156 7.476562 4.476562 7.5 4.554688 7.5 L 10.445312 7.5 C 10.523438 7.5 10.589844 7.476562 10.640625 7.425781 C 10.6875 7.375 10.714844 7.308594 10.714844 7.230469 Z M 10.714844 7.230469 "></path> </svg>