<svg version="1.1" xmlns="http://www.w3.org/2000/svg" xlink="http://www.w3.org/1999/xlink" x="0px" y="0px" width="15px" height="15px" viewBox="0 0 15 15" style="enable-background:new 0 0 15 15;" space="preserve">
    <path d="M0.9375,13.125c0,0.5185546875,0.4189453125,0.9375,0.9375,0.9375h4.6875V9.375H0.9375v3.75zm13.125,-8.4375h-1.2333984375c0.181640625,-0.3544921875,0.2958984375,-0.7470703125,0.2958984375,-1.171875c0,-1.4208984375,-1.1572265625,-2.578125,-2.578125,-2.578125c-1.21875,0,-2.0068359375,0.6240234375,-3.017578125,2.0009765625c-1.0107421875,-1.376953125,-1.798828125,-2.0009765625,-3.017578125,-2.0009765625c-1.4208984375,0,-2.578125,1.1572265625,-2.578125,2.578125c0,0.4248046875,0.111328125,0.8173828125,0.2958984375,1.171875H0.9375c-0.5185546875,0,-0.9375,0.4189453125,-0.9375,0.9375v2.34375c0,0.2578125,0.2109375,0.46875,0.46875,0.46875h14.0625c0.2578125,0,0.46875,-0.2109375,0.46875,-0.46875v-2.34375c0,-0.5185546875,-0.4189453125,-0.9375,-0.9375,-0.9375zm-9.5537109375,0c-0.6474609375,0,-1.171875,-0.5244140625,-1.171875,-1.171875s0.5244140625,-1.171875,1.171875,-1.171875c0.5830078125,0,1.013671875,0.0966796875,2.5224609375,2.34375h-2.5224609375zm6.0380859375,0h-2.5224609375c1.505859375,-2.2412109375,1.9248046875,-2.34375,2.5224609375,-2.34375c0.6474609375,0,1.171875,0.5244140625,1.171875,1.171875s-0.5244140625,1.171875,-1.171875,1.171875zm-2.109375,9.375h4.6875c0.5185546875,0,0.9375,-0.4189453125,0.9375,-0.9375V9.375H8.4375v4.6875z" fill="#FFFFFF"/>
    </svg>