<svg version="1.1" xmlns="http://www.w3.org/2000/svg" xlink="http://www.w3.org/1999/xlink" x="0px" y="0px" width="15px" height="15px" viewBox="0 0 15 15" style="enable-background:new 0 0 15 15;" space="preserve">
    <path d="M6,11.332031L8.269531,9.066406L5.933594,6.730469L5.199219,7.464844L6.804688,9.066406L6,9.867188L3.667969,7.535156L6,5.199219L6.335938,5.53125L7.066406,4.804688L6,3.734375L2.203125,7.535156ZM9,11.265625L12.796875,7.464844L9,3.667969L6.730469,5.933594L9.066406,8.269531L9.800781,7.535156L8.195312,5.933594L9,5.132812L11.332031,7.464844L9,9.800781L8.664062,9.46875L7.933594,10.203125ZM15,7.5C15,8.515625,14.800781,9.488281,14.40625,10.414062C14.007812,11.339844,13.476562,12.136719,12.808594,12.808594C12.136719,13.476562,11.339844,14.007812,10.414062,14.40625C9.488281,14.800781,8.515625,15,7.5,15C6.484375,15,5.511719,14.800781,4.585938,14.40625C3.660156,14.007812,2.863281,13.476562,2.191406,12.808594C1.523438,12.136719,0.992188,11.339844,0.59375,10.414062C0.199219,9.488281,0,8.515625,0,7.5C0,6.484375,0.199219,5.511719,0.59375,4.585938C0.992188,3.660156,1.523438,2.863281,2.191406,2.191406C2.863281,1.523438,3.660156,0.992188,4.585938,0.59375C5.511719,0.199219,6.484375,0,7.5,0C8.515625,0,9.488281,0.199219,10.414062,0.59375C11.339844,0.992188,12.136719,1.523438,12.808594,2.191406C13.476562,2.863281,14.007812,3.660156,14.40625,4.585938C14.800781,5.511719,15,6.484375,15,7.5ZM15,7.5" fill="#FFFFFF"/>
    </svg>