<svg version="1.1" xmlns="http://www.w3.org/2000/svg" xlink="http://www.w3.org/1999/xlink" x="0px" y="0px" width="15px" height="16.875px" viewBox="0 0 15 16.875" style="enable-background:new 0 0 15 15;" space="preserve">
    <path d="M9.4921875,3.7889648437499996L2.2896606445312497,10.14180908203125c-0.053393554687500004,0.0481201171875,-0.12161865234375001,0.07053222656250001,-0.18028564453124998,0.11041259765625V16.34765625c0,0.29135742187499997,0.235986328125,0.52734375,0.52734375,0.52734375h4.91846923828125L6.328125,14.47525634765625l3.43135986328125,-2.109375l-1.9828124999999999,-3.9293701171874997L12.65625,12.94464111328125l-3.43135986328125,2.109375L10.54061279296875,16.875H16.34765625c0.29135742187499997,0,0.52734375,-0.235986328125,0.52734375,-0.52734375V10.2535400390625c-0.0560302734375,-0.038232421875,-0.12260742187500001,-0.059985351562500004,-0.17336425781249998,-0.10546875L9.4921875,3.7889648437499996zm9.31717529296875,3.9985839843749997L16.875,6.07928466796875V1.58203125c0,-0.29135742187499997,-0.235986328125,-0.52734375,-0.52734375,-0.52734375h-2.109375c-0.29135742187499997,0,-0.52734375,0.235986328125,-0.52734375,0.52734375v1.70364990234375L10.37384033203125,0.33980712890625003C10.122363281250001,0.11370849609375,9.807275390625,0.00032958984374999997,9.4921875,0s-0.6295166015625,0.11239013671875,-0.8800048828125,0.33848876953124996L0.17501220703124998,7.787548828125c-0.21654052734375,0.19478759765625,-0.23466796874999998,0.5280029296875,-0.03988037109375,0.744873046875l0.705322265625,0.7850830078125001c0.1944580078125,0.21654052734375,0.5280029296875,0.23466796874999998,0.744873046875,0.03988037109375L9.143481445312501,2.69044189453125c0.19940185546875,-0.17567138671875002,0.49833984374999996,-0.17567138671875002,0.6977416992187501,0L17.399377441406248,9.3570556640625c0.21654052734375,0.1944580078125,0.55008544921875,0.17666015625,0.744873046875,-0.03988037109375l0.705322265625,-0.7850830078125001c0.1944580078125,-0.21654052734375,0.17666015625,-0.55008544921875,-0.040209960937500004,-0.74454345703125z" fill="#FFFFFF"/>
    </svg>