<?xml version="1.0" encoding="utf-8"?> <!DOCTYPE svg PUBLIC "-//W3C//DTD SVG 1.1//EN" "http://www.w3.org/Graphics/SVG/1.1/DTD/svg11.dtd"><svg version="1.1" id="icon" xmlns="http://www.w3.org/2000/svg" xmlns:xlink="http://www.w3.org/1999/xlink" x="0px"  y="0px" width="15px" height="15px" viewBox="0 0 15 15" enable-background="new 0 0 15 15" xml:space="preserve"><path fill="#FFFFFF" d="M 10.714844 8.570312 L 13.265625 8.570312 C 13.238281 8.605469 13.210938 8.632812 13.183594 8.660156 C 13.15625 8.683594 13.128906 8.707031 13.109375 8.722656 L 13.082031 8.753906 L 7.867188 13.777344 C 7.769531 13.878906 7.644531 13.929688 7.5 13.929688 C 7.355469 13.929688 7.230469 13.878906 7.132812 13.777344 L 1.910156 8.738281 C 1.878906 8.726562 1.820312 8.671875 1.734375 8.570312 L 4.820312 8.570312 C 4.945312 8.570312 5.054688 8.535156 5.152344 8.457031 C 5.25 8.382812 5.3125 8.285156 5.339844 8.167969 L 5.925781 5.816406 L 7.515625 11.402344 C 7.550781 11.511719 7.613281 11.605469 7.710938 11.675781 C 7.804688 11.75 7.914062 11.785156 8.035156 11.785156 C 8.152344 11.785156 8.257812 11.75 8.355469 11.675781 C 8.449219 11.605469 8.511719 11.511719 8.546875 11.402344 L 9.769531 7.339844 L 10.238281 8.277344 C 10.335938 8.472656 10.496094 8.570312 10.714844 8.570312 Z M 15 4.988281 C 15 5.796875 14.710938 6.636719 14.136719 7.5 L 11.050781 7.5 L 10.121094 5.648438 C 10.074219 5.554688 10.003906 5.480469 9.90625 5.425781 C 9.808594 5.367188 9.707031 5.347656 9.601562 5.355469 C 9.351562 5.386719 9.195312 5.511719 9.132812 5.742188 L 8.050781 9.339844 L 6.410156 3.597656 C 6.378906 3.488281 6.3125 3.394531 6.214844 3.324219 C 6.117188 3.25 6.007812 3.214844 5.882812 3.214844 C 5.761719 3.214844 5.652344 3.25 5.558594 3.328125 C 5.464844 3.402344 5.402344 3.5 5.375 3.617188 L 4.402344 7.5 L 0.863281 7.5 C 0.289062 6.636719 0 5.796875 0 4.988281 C 0 3.761719 0.355469 2.800781 1.0625 2.109375 C 1.773438 1.417969 2.75 1.070312 4 1.070312 C 4.347656 1.070312 4.699219 1.132812 5.058594 1.25 C 5.421875 1.371094 5.753906 1.53125 6.0625 1.738281 C 6.375 1.941406 6.640625 2.132812 6.863281 2.308594 C 7.085938 2.488281 7.300781 2.679688 7.5 2.878906 C 7.699219 2.679688 7.914062 2.488281 8.136719 2.308594 C 8.359375 2.132812 8.625 1.941406 8.9375 1.738281 C 9.246094 1.53125 9.578125 1.371094 9.941406 1.25 C 10.300781 1.132812 10.652344 1.070312 11 1.070312 C 12.25 1.070312 13.226562 1.417969 13.9375 2.109375 C 14.644531 2.800781 15 3.761719 15 4.988281 Z M 15 4.988281 "></path> </svg>