<?xml version="1.0" encoding="utf-8"?> <!DOCTYPE svg PUBLIC "-//W3C//DTD SVG 1.1//EN" "http://www.w3.org/Graphics/SVG/1.1/DTD/svg11.dtd"><svg version="1.1" id="icon" xmlns="http://www.w3.org/2000/svg" xmlns:xlink="http://www.w3.org/1999/xlink" x="0px"  y="0px" width="15px" height="15px" viewBox="0 0 15 15" enable-background="new 0 0 15 15" xml:space="preserve"><path fill="#FFFFFF" d="M 4.820312 10.980469 L 4.820312 11.519531 C 4.820312 11.589844 4.792969 11.652344 4.742188 11.707031 C 4.6875 11.757812 4.625 11.785156 4.554688 11.785156 L 4.019531 11.785156 C 3.945312 11.785156 3.882812 11.757812 3.828125 11.707031 C 3.777344 11.652344 3.75 11.589844 3.75 11.519531 L 3.75 10.980469 C 3.75 10.910156 3.777344 10.847656 3.828125 10.792969 C 3.882812 10.742188 3.945312 10.714844 4.019531 10.714844 L 4.554688 10.714844 C 4.625 10.714844 4.6875 10.742188 4.742188 10.792969 C 4.792969 10.847656 4.820312 10.910156 4.820312 10.980469 Z M 4.820312 8.839844 L 4.820312 9.375 C 4.820312 9.449219 4.792969 9.511719 4.742188 9.5625 C 4.6875 9.617188 4.625 9.644531 4.554688 9.644531 L 4.019531 9.644531 C 3.945312 9.644531 3.882812 9.617188 3.828125 9.5625 C 3.777344 9.511719 3.75 9.449219 3.75 9.375 L 3.75 8.839844 C 3.75 8.765625 3.777344 8.703125 3.828125 8.652344 C 3.882812 8.597656 3.945312 8.570312 4.019531 8.570312 L 4.554688 8.570312 C 4.625 8.570312 4.6875 8.597656 4.742188 8.652344 C 4.792969 8.703125 4.820312 8.765625 4.820312 8.839844 Z M 6.964844 8.839844 L 6.964844 9.375 C 6.964844 9.449219 6.9375 9.511719 6.882812 9.5625 C 6.832031 9.617188 6.769531 9.644531 6.695312 9.644531 L 6.160156 9.644531 C 6.089844 9.644531 6.023438 9.617188 5.972656 9.5625 C 5.917969 9.511719 5.894531 9.449219 5.894531 9.375 L 5.894531 8.839844 C 5.894531 8.765625 5.917969 8.703125 5.972656 8.652344 C 6.023438 8.597656 6.089844 8.570312 6.160156 8.570312 L 6.695312 8.570312 C 6.769531 8.570312 6.832031 8.597656 6.882812 8.652344 C 6.9375 8.703125 6.964844 8.765625 6.964844 8.839844 Z M 4.820312 6.695312 L 4.820312 7.230469 C 4.820312 7.304688 4.792969 7.367188 4.742188 7.421875 C 4.6875 7.472656 4.625 7.5 4.554688 7.5 L 4.019531 7.5 C 3.945312 7.5 3.882812 7.472656 3.828125 7.421875 C 3.777344 7.367188 3.75 7.304688 3.75 7.230469 L 3.75 6.695312 C 3.75 6.625 3.777344 6.5625 3.828125 6.507812 C 3.882812 6.453125 3.945312 6.429688 4.019531 6.429688 L 4.554688 6.429688 C 4.625 6.429688 4.6875 6.453125 4.742188 6.507812 C 4.792969 6.5625 4.820312 6.625 4.820312 6.695312 Z M 11.25 10.980469 L 11.25 11.519531 C 11.25 11.589844 11.222656 11.652344 11.171875 11.707031 C 11.117188 11.757812 11.054688 11.785156 10.980469 11.785156 L 10.445312 11.785156 C 10.375 11.785156 10.3125 11.757812 10.257812 11.707031 C 10.203125 11.652344 10.179688 11.589844 10.179688 11.519531 L 10.179688 10.980469 C 10.179688 10.910156 10.203125 10.847656 10.257812 10.792969 C 10.3125 10.742188 10.375 10.714844 10.445312 10.714844 L 10.980469 10.714844 C 11.054688 10.714844 11.117188 10.742188 11.171875 10.792969 C 11.222656 10.847656 11.25 10.910156 11.25 10.980469 Z M 9.105469 8.839844 L 9.105469 9.375 C 9.105469 9.449219 9.082031 9.511719 9.027344 9.5625 C 8.972656 9.617188 8.910156 9.644531 8.839844 9.644531 L 8.304688 9.644531 C 8.230469 9.644531 8.167969 9.617188 8.117188 9.5625 C 8.0625 9.511719 8.035156 9.449219 8.035156 9.375 L 8.035156 8.839844 C 8.035156 8.765625 8.0625 8.703125 8.117188 8.652344 C 8.167969 8.597656 8.230469 8.570312 8.304688 8.570312 L 8.839844 8.570312 C 8.910156 8.570312 8.972656 8.597656 9.027344 8.652344 C 9.082031 8.703125 9.105469 8.765625 9.105469 8.839844 Z M 6.964844 6.695312 L 6.964844 7.230469 C 6.964844 7.304688 6.9375 7.367188 6.882812 7.421875 C 6.832031 7.472656 6.769531 7.5 6.695312 7.5 L 6.160156 7.5 C 6.089844 7.5 6.023438 7.472656 5.972656 7.421875 C 5.917969 7.367188 5.894531 7.304688 5.894531 7.230469 L 5.894531 6.695312 C 5.894531 6.625 5.917969 6.5625 5.972656 6.507812 C 6.023438 6.453125 6.089844 6.429688 6.160156 6.429688 L 6.695312 6.429688 C 6.769531 6.429688 6.832031 6.453125 6.882812 6.507812 C 6.9375 6.5625 6.964844 6.625 6.964844 6.695312 Z M 11.25 8.839844 L 11.25 9.375 C 11.25 9.449219 11.222656 9.511719 11.171875 9.5625 C 11.117188 9.617188 11.054688 9.644531 10.980469 9.644531 L 10.445312 9.644531 C 10.375 9.644531 10.3125 9.617188 10.257812 9.5625 C 10.203125 9.511719 10.179688 9.449219 10.179688 9.375 L 10.179688 8.839844 C 10.179688 8.765625 10.203125 8.703125 10.257812 8.652344 C 10.3125 8.597656 10.375 8.570312 10.445312 8.570312 L 10.980469 8.570312 C 11.054688 8.570312 11.117188 8.597656 11.171875 8.652344 C 11.222656 8.703125 11.25 8.765625 11.25 8.839844 Z M 9.105469 6.695312 L 9.105469 7.230469 C 9.105469 7.304688 9.082031 7.367188 9.027344 7.421875 C 8.972656 7.472656 8.910156 7.5 8.839844 7.5 L 8.304688 7.5 C 8.230469 7.5 8.167969 7.472656 8.117188 7.421875 C 8.0625 7.367188 8.035156 7.304688 8.035156 7.230469 L 8.035156 6.695312 C 8.035156 6.625 8.0625 6.5625 8.117188 6.507812 C 8.167969 6.453125 8.230469 6.429688 8.304688 6.429688 L 8.839844 6.429688 C 8.910156 6.429688 8.972656 6.453125 9.027344 6.507812 C 9.082031 6.5625 9.105469 6.625 9.105469 6.695312 Z M 11.25 6.695312 L 11.25 7.230469 C 11.25 7.304688 11.222656 7.367188 11.171875 7.421875 C 11.117188 7.472656 11.054688 7.5 10.980469 7.5 L 10.445312 7.5 C 10.375 7.5 10.3125 7.472656 10.257812 7.421875 C 10.203125 7.367188 10.179688 7.304688 10.179688 7.230469 L 10.179688 6.695312 C 10.179688 6.625 10.203125 6.5625 10.257812 6.507812 C 10.3125 6.453125 10.375 6.429688 10.445312 6.429688 L 10.980469 6.429688 C 11.054688 6.429688 11.117188 6.453125 11.171875 6.507812 C 11.222656 6.5625 11.25 6.625 11.25 6.695312 Z M 9.105469 13.929688 L 12.320312 13.929688 L 12.320312 4.285156 L 10.179688 4.285156 L 10.179688 4.554688 C 10.179688 4.777344 10.101562 4.964844 9.945312 5.121094 C 9.789062 5.277344 9.597656 5.355469 9.375 5.355469 L 5.625 5.355469 C 5.402344 5.355469 5.210938 5.277344 5.054688 5.121094 C 4.898438 4.964844 4.820312 4.777344 4.820312 4.554688 L 4.820312 4.285156 L 2.679688 4.285156 L 2.679688 13.929688 L 5.894531 13.929688 L 5.894531 12.054688 C 5.894531 11.980469 5.917969 11.917969 5.972656 11.867188 C 6.023438 11.8125 6.089844 11.785156 6.160156 11.785156 L 8.839844 11.785156 C 8.910156 11.785156 8.972656 11.8125 9.027344 11.867188 C 9.082031 11.917969 9.105469 11.980469 9.105469 12.054688 Z M 9.105469 4.019531 L 9.105469 1.339844 C 9.105469 1.265625 9.082031 1.203125 9.027344 1.152344 C 8.972656 1.097656 8.910156 1.070312 8.839844 1.070312 L 8.304688 1.070312 C 8.230469 1.070312 8.167969 1.097656 8.117188 1.152344 C 8.0625 1.203125 8.035156 1.265625 8.035156 1.339844 L 8.035156 2.144531 L 6.964844 2.144531 L 6.964844 1.339844 C 6.964844 1.265625 6.9375 1.203125 6.882812 1.152344 C 6.832031 1.097656 6.769531 1.070312 6.695312 1.070312 L 6.160156 1.070312 C 6.089844 1.070312 6.023438 1.097656 5.972656 1.152344 C 5.917969 1.203125 5.894531 1.265625 5.894531 1.339844 L 5.894531 4.019531 C 5.894531 4.089844 5.917969 4.152344 5.972656 4.207031 C 6.023438 4.257812 6.089844 4.285156 6.160156 4.285156 L 6.695312 4.285156 C 6.769531 4.285156 6.832031 4.257812 6.882812 4.207031 C 6.9375 4.152344 6.964844 4.089844 6.964844 4.019531 L 6.964844 3.214844 L 8.035156 3.214844 L 8.035156 4.019531 C 8.035156 4.089844 8.0625 4.152344 8.117188 4.207031 C 8.167969 4.257812 8.230469 4.285156 8.304688 4.285156 L 8.839844 4.285156 C 8.910156 4.285156 8.972656 4.257812 9.027344 4.207031 C 9.082031 4.152344 9.105469 4.089844 9.105469 4.019531 Z M 13.394531 3.75 L 13.394531 14.464844 C 13.394531 14.609375 13.339844 14.734375 13.234375 14.839844 C 13.128906 14.945312 13.003906 15 12.855469 15 L 2.144531 15 C 1.996094 15 1.871094 14.945312 1.765625 14.839844 C 1.660156 14.734375 1.605469 14.609375 1.605469 14.464844 L 1.605469 3.75 C 1.605469 3.605469 1.660156 3.480469 1.765625 3.375 C 1.871094 3.265625 1.996094 3.214844 2.144531 3.214844 L 4.820312 3.214844 L 4.820312 0.804688 C 4.820312 0.582031 4.898438 0.390625 5.054688 0.234375 C 5.210938 0.078125 5.402344 0 5.625 0 L 9.375 0 C 9.597656 0 9.789062 0.078125 9.945312 0.234375 C 10.101562 0.390625 10.179688 0.582031 10.179688 0.804688 L 10.179688 3.214844 L 12.855469 3.214844 C 13.003906 3.214844 13.128906 3.265625 13.234375 3.375 C 13.339844 3.480469 13.394531 3.605469 13.394531 3.75 Z M 13.394531 3.75 "></path> </svg>