<?xml version="1.0" encoding="utf-8"?> <!DOCTYPE svg PUBLIC "-//W3C//DTD SVG 1.1//EN" "http://www.w3.org/Graphics/SVG/1.1/DTD/svg11.dtd"><svg version="1.1" id="icon" xmlns="http://www.w3.org/2000/svg" xmlns:xlink="http://www.w3.org/1999/xlink" x="0px"  y="0px" width="15px" height="15px" viewBox="0 0 15 15" enable-background="new 0 0 15 15" xml:space="preserve"><path fill="#FFFFFF" d="M14.933403,2.8713451C14.933148,2.6635653,14.856213,2.4657527,14.714123,2.3141986C14.617513,2.2112031,14.494842,2.0811171,14.364245,1.9436195C14.646907,1.7688084,14.86261,1.4966244,14.931103,1.1600364C14.957171,1.0332729,14.857754,0.91366526,14.728435,0.91366526h-3.066351c-1.8066366,0,-3.271319,1.46468184,-3.271319,3.27131884H4.3036613c-0.7370691,0,-1.3903105,0.3317321,-1.8401169,0.8461982v-0.028369c-1.2402899,0,-2.24903169,1.0087418,-2.24903169,2.2490317v1.4312018c0,0.2259259,0.1829894,0.408915,0.40891486,0.408915H1.0323425c0.2259254,0,0.4089147,-0.1829891,0.4089147,-0.408915V7.2518455c0,-0.3378659,0.1755779,-0.6233396,0.4288495,-0.8096514c-0.00537,0.065937,-0.019935,0.1290637,-0.019935,0.1962791c0,0.7064004,0.302597,1.3381739,0.7805163,1.7859356L1.9733577,10.177631a1.6342538,1.6342538,0,0,0,-0.055203,0.970917l0.635096,2.540639a0.40845483,0.40845483,0,0,0,0.3963914,0.309753h1.6857515c0.2660502,0,0.4613071,-0.249949,0.3966475,-0.508077L4.3596315,10.800715L4.9689147,9.1755344L8.3928098,9.7462261v3.8437989c0,0.225926,0.1829892,0.408915,0.4089151,0.408915h1.6356601c0.225925,0,0.408915,-0.182989,0.408915,-0.408915V9.0464706c0.504498,-0.5159995,0.817829,-1.2203553,0.817829,-1.9990825c0,-0.00562,-0.0018,-0.010734,-0.002,-0.016357V4.4121874l0.408915,0.1817115l0.483031,0.9635057c0.1904,0.3800352,0.640207,0.5507572,1.03481,0.3928138l0.831886,-0.3327545a0.81775302,0.81775302,0,0,0,0.514211,-0.7600705zm-1.635659,0.4958093c-0.225925,0,-0.408915,-0.1829894,-0.408915,-0.4089149c0,-0.2259255,0.18299,-0.4089149,0.408915,-0.4089149c0.225926,0,0.408915,0.1829894,0.408915,0.4089149c0,0.2259255,-0.182989,0.4089149,-0.408915,0.4089149z"></path> </svg>