<svg version="1.1" xmlns="http://www.w3.org/2000/svg" xlink="http://www.w3.org/1999/xlink" x="0px" y="0px" width="15px" height="15px" viewBox="0 0 15 15" style="enable-background:new 0 0 15 15;" space="preserve">
    <path d="M6.964844,0L15,3.214844L15,4.285156L13.929688,4.285156C13.929688,4.429688,13.871094,4.554688,13.757812,4.664062C13.640625,4.769531,13.507812,4.820312,13.351562,4.820312L0.578125,4.820312C0.421875,4.820312,0.285156,4.769531,0.171875,4.664062C0.0585938,4.554688,0,4.429688,0,4.285156L-1.070312,4.285156L-1.070312,3.214844ZM1.070312,5.355469L3.214844,5.355469L3.214844,11.785156L4.285156,11.785156L4.285156,5.355469L6.429688,5.355469L6.429688,11.785156L7.5,11.785156L7.5,5.355469L9.644531,5.355469L9.644531,11.785156L10.714844,11.785156L10.714844,5.355469L12.855469,5.355469L12.855469,11.785156L13.351562,11.785156C13.507812,11.785156,13.640625,11.839844,13.757812,11.945312C13.871094,12.050781,13.929688,12.175781,13.929688,12.320312L13.929688,12.855469L0,12.855469L0,12.320312C0,12.175781,0.0585938,12.050781,0.171875,11.945312C0.285156,11.839844,0.421875,11.785156,0.578125,11.785156L1.070312,11.785156ZM14.421875,13.394531C14.578125,13.394531,14.714844,13.445312,14.828125,13.550781C14.941406,13.65625,15,13.785156,15,13.929688L15,15L-1.070312,15L-1.070312,13.929688C-1.070312,13.785156,-1.015625,13.65625,-0.898438,13.550781C-0.785156,13.445312,-0.648438,13.394531,-0.492188,13.394531ZM14.421875,13.394531" fill="#FFFFFF"/>
    </svg>