<svg version="1.1" xmlns="http://www.w3.org/2000/svg" xlink="http://www.w3.org/1999/xlink" x="0px" y="0px" width="15px" height="15px" viewBox="0 0 15 15" style="enable-background:new 0 0 15 15;" space="preserve">
    <path d="M4.820312,4.820312C4.820312,5.269531,4.664062,5.648438,4.351562,5.960938C4.039062,6.273438,3.660156,6.429688,3.214844,6.429688C2.769531,6.429688,2.386719,6.273438,2.074219,5.960938C1.761719,5.648438,1.605469,5.269531,1.605469,4.820312C1.605469,4.375,1.761719,3.996094,2.074219,3.683594C2.386719,3.371094,2.769531,3.214844,3.214844,3.214844C3.660156,3.214844,4.039062,3.371094,4.351562,3.683594C4.664062,3.996094,4.820312,4.375,4.820312,4.820312ZM13.394531,8.035156L13.394531,11.785156L1.605469,11.785156L1.605469,10.179688L4.285156,7.5L5.625,8.839844L9.910156,4.554688ZM14.195312,2.144531L0.804688,2.144531C0.730469,2.144531,0.667969,2.167969,0.617188,2.222656C0.5625,2.273438,0.535156,2.339844,0.535156,2.410156L0.535156,12.589844C0.535156,12.660156,0.5625,12.722656,0.617188,12.777344C0.667969,12.832031,0.730469,12.855469,0.804688,12.855469L14.195312,12.855469C14.269531,12.855469,14.332031,12.832031,14.382812,12.777344C14.4375,12.722656,14.464844,12.660156,14.464844,12.589844L14.464844,2.410156C14.464844,2.339844,14.4375,2.273438,14.382812,2.222656C14.332031,2.167969,14.269531,2.144531,14.195312,2.144531ZM15.535156,2.410156L15.535156,12.589844C15.535156,12.957031,15.40625,13.273438,15.140625,13.535156C14.878906,13.796875,14.566406,13.929688,14.195312,13.929688L0.804688,13.929688C0.433594,13.929688,0.121094,13.796875,-0.140625,13.535156C-0.40625,13.273438,-0.535156,12.957031,-0.535156,12.589844L-0.535156,2.410156C-0.535156,2.042969,-0.40625,1.726562,-0.140625,1.464844C0.121094,1.203125,0.433594,1.070312,0.804688,1.070312L14.195312,1.070312C14.566406,1.070312,14.878906,1.203125,15.140625,1.464844C15.40625,1.726562,15.535156,2.042969,15.535156,2.410156ZM15.535156,2.410156" fill="#FFFFFF"/>
    </svg>