<svg version="1.1" xmlns="http://www.w3.org/2000/svg" xlink="http://www.w3.org/1999/xlink" x="0px" y="0px" width="15px" height="15px" viewBox="0 0 15 15" style="enable-background:new 0 0 15 15;" space="preserve">
    <path d="M9.632812,8.035156L12.28125,8.035156C12.273438,8.019531,12.265625,7.996094,12.257812,7.96875C12.25,7.941406,12.242188,7.917969,12.238281,7.902344L10.464844,3.75L4.535156,3.75L2.761719,7.902344C2.757812,7.914062,2.75,7.933594,2.742188,7.96875C2.734375,8.003906,2.726562,8.023438,2.71875,8.035156L5.367188,8.035156L6.160156,9.644531L8.839844,9.644531ZM13.929688,8.285156L13.929688,12.320312C13.929688,12.464844,13.875,12.59375,13.769531,12.699219C13.664062,12.804688,13.539062,12.855469,13.394531,12.855469L1.605469,12.855469C1.460938,12.855469,1.335938,12.804688,1.230469,12.699219C1.125,12.59375,1.070312,12.464844,1.070312,12.320312L1.070312,8.285156C1.070312,7.941406,1.140625,7.597656,1.28125,7.257812L3.273438,2.636719C3.328125,2.496094,3.429688,2.378906,3.578125,2.285156C3.726562,2.191406,3.871094,2.144531,4.019531,2.144531L10.980469,2.144531C11.128906,2.144531,11.273438,2.191406,11.421875,2.285156C11.570312,2.378906,11.671875,2.496094,11.726562,2.636719L13.71875,7.257812C13.859375,7.597656,13.929688,7.941406,13.929688,8.285156ZM13.929688,8.285156" fill="#FFFFFF"/>
    </svg>