<svg version="1.1" xmlns="http://www.w3.org/2000/svg" xlink="http://www.w3.org/1999/xlink" x="0px" y="0px" width="15px" height="15px" viewBox="0 0 15 15" style="enable-background:new 0 0 15 15;" space="preserve">
    <path d="M12.472656,11.9375L12.472656,6.511719L11.34375,6.511719C11.453125,6.863281,11.507812,7.230469,11.507812,7.609375C11.507812,8.3125,11.332031,8.960938,10.972656,9.554688C10.617188,10.148438,10.132812,10.621094,9.515625,10.964844C8.902344,11.3125,8.234375,11.484375,7.507812,11.484375C6.410156,11.484375,5.46875,11.105469,4.6875,10.351562C3.90625,9.59375,3.515625,8.679688,3.515625,7.609375C3.515625,7.230469,3.570312,6.863281,3.683594,6.511719L2.503906,6.511719L2.503906,11.9375C2.503906,12.082031,2.550781,12.203125,2.648438,12.300781C2.746094,12.398438,2.867188,12.445312,3.011719,12.445312L11.960938,12.445312C12.101562,12.445312,12.222656,12.398438,12.320312,12.300781C12.421875,12.203125,12.472656,12.082031,12.472656,11.9375ZM10.09375,7.476562C10.09375,6.78125,9.84375,6.191406,9.335938,5.703125C8.832031,5.214844,8.222656,4.972656,7.507812,4.972656C6.800781,4.972656,6.191406,5.214844,5.6875,5.703125C5.183594,6.191406,4.929688,6.78125,4.929688,7.476562C4.929688,8.167969,5.183594,8.757812,5.6875,9.246094C6.191406,9.734375,6.800781,9.976562,7.507812,9.976562C8.222656,9.976562,8.832031,9.734375,9.335938,9.246094C9.84375,8.757812,10.09375,8.167969,10.09375,7.476562ZM12.472656,4.460938L12.472656,3.082031C12.472656,2.925781,12.417969,2.789062,12.304688,2.675781C12.191406,2.558594,12.054688,2.503906,11.894531,2.503906L10.4375,2.503906C10.277344,2.503906,10.140625,2.558594,10.027344,2.675781C9.917969,2.789062,9.859375,2.925781,9.859375,3.082031L9.859375,4.460938C9.859375,4.625,9.917969,4.761719,10.027344,4.871094C10.140625,4.984375,10.277344,5.039062,10.4375,5.039062L11.894531,5.039062C12.054688,5.039062,12.191406,4.984375,12.304688,4.871094C12.417969,4.761719,12.472656,4.625,12.472656,4.460938ZM13.929688,2.71875L13.929688,12.28125C13.929688,12.730469,13.765625,13.121094,13.441406,13.441406C13.121094,13.765625,12.730469,13.929688,12.28125,13.929688L2.71875,13.929688C2.269531,13.929688,1.878906,13.765625,1.558594,13.441406C1.234375,13.121094,1.070312,12.730469,1.070312,12.28125L1.070312,2.71875C1.070312,2.269531,1.234375,1.878906,1.558594,1.558594C1.878906,1.234375,2.269531,1.070312,2.71875,1.070312L12.28125,1.070312C12.730469,1.070312,13.121094,1.234375,13.441406,1.558594C13.765625,1.878906,13.929688,2.269531,13.929688,2.71875ZM13.929688,2.71875" fill="#FFFFFF"/>
    </svg>