<svg version="1.1" xmlns="http://www.w3.org/2000/svg" xlink="http://www.w3.org/1999/xlink" x="0px" y="0px" width="15px" height="15px" viewBox="0 0 15 15" style="enable-background:new 0 0 15 15;" space="preserve">
    <path d="M2.679688,9.777344L2.679688,10.582031C2.679688,10.667969,2.632812,10.714844,2.542969,10.714844L1.742188,10.714844C1.652344,10.714844,1.605469,10.667969,1.605469,10.582031L1.605469,9.777344C1.605469,9.6875,1.652344,9.644531,1.742188,9.644531L2.542969,9.644531C2.632812,9.644531,2.679688,9.6875,2.679688,9.777344ZM3.75,7.632812L3.75,8.4375C3.75,8.527344,3.707031,8.570312,3.617188,8.570312L1.742188,8.570312C1.652344,8.570312,1.605469,8.527344,1.605469,8.4375L1.605469,7.632812C1.605469,7.542969,1.652344,7.5,1.742188,7.5L3.617188,7.5C3.707031,7.5,3.75,7.542969,3.75,7.632812ZM2.679688,5.492188L2.679688,6.292969C2.679688,6.382812,2.632812,6.429688,2.542969,6.429688L1.742188,6.429688C1.652344,6.429688,1.605469,6.382812,1.605469,6.292969L1.605469,5.492188C1.605469,5.402344,1.652344,5.355469,1.742188,5.355469L2.542969,5.355469C2.632812,5.355469,2.679688,5.402344,2.679688,5.492188ZM11.25,9.777344L11.25,10.582031C11.25,10.667969,11.207031,10.714844,11.117188,10.714844L3.882812,10.714844C3.792969,10.714844,3.75,10.667969,3.75,10.582031L3.75,9.777344C3.75,9.6875,3.792969,9.644531,3.882812,9.644531L11.117188,9.644531C11.207031,9.644531,11.25,9.6875,11.25,9.777344ZM5.894531,7.632812L5.894531,8.4375C5.894531,8.527344,5.847656,8.570312,5.757812,8.570312L4.957031,8.570312C4.867188,8.570312,4.820312,8.527344,4.820312,8.4375L4.820312,7.632812C4.820312,7.542969,4.867188,7.5,4.957031,7.5L5.757812,7.5C5.847656,7.5,5.894531,7.542969,5.894531,7.632812ZM4.820312,5.492188L4.820312,6.292969C4.820312,6.382812,4.777344,6.429688,4.6875,6.429688L3.882812,6.429688C3.792969,6.429688,3.75,6.382812,3.75,6.292969L3.75,5.492188C3.75,5.402344,3.792969,5.355469,3.882812,5.355469L4.6875,5.355469C4.777344,5.355469,4.820312,5.402344,4.820312,5.492188ZM8.035156,7.632812L8.035156,8.4375C8.035156,8.527344,7.992188,8.570312,7.902344,8.570312L7.097656,8.570312C7.007812,8.570312,6.964844,8.527344,6.964844,8.4375L6.964844,7.632812C6.964844,7.542969,7.007812,7.5,7.097656,7.5L7.902344,7.5C7.992188,7.5,8.035156,7.542969,8.035156,7.632812ZM6.964844,5.492188L6.964844,6.292969C6.964844,6.382812,6.917969,6.429688,6.832031,6.429688L6.027344,6.429688C5.9375,6.429688,5.894531,6.382812,5.894531,6.292969L5.894531,5.492188C5.894531,5.402344,5.9375,5.355469,6.027344,5.355469L6.832031,5.355469C6.917969,5.355469,6.964844,5.402344,6.964844,5.492188ZM10.179688,7.632812L10.179688,8.4375C10.179688,8.527344,10.132812,8.570312,10.042969,8.570312L9.242188,8.570312C9.152344,8.570312,9.105469,8.527344,9.105469,8.4375L9.105469,7.632812C9.105469,7.542969,9.152344,7.5,9.242188,7.5L10.042969,7.5C10.132812,7.5,10.179688,7.542969,10.179688,7.632812ZM13.394531,9.777344L13.394531,10.582031C13.394531,10.667969,13.347656,10.714844,13.257812,10.714844L12.457031,10.714844C12.367188,10.714844,12.320312,10.667969,12.320312,10.582031L12.320312,9.777344C12.320312,9.6875,12.367188,9.644531,12.457031,9.644531L13.257812,9.644531C13.347656,9.644531,13.394531,9.6875,13.394531,9.777344ZM9.105469,5.492188L9.105469,6.292969C9.105469,6.382812,9.0625,6.429688,8.972656,6.429688L8.167969,6.429688C8.082031,6.429688,8.035156,6.382812,8.035156,6.292969L8.035156,5.492188C8.035156,5.402344,8.082031,5.355469,8.167969,5.355469L8.972656,5.355469C9.0625,5.355469,9.105469,5.402344,9.105469,5.492188ZM11.25,5.492188L11.25,6.292969C11.25,6.382812,11.207031,6.429688,11.117188,6.429688L10.3125,6.429688C10.222656,6.429688,10.179688,6.382812,10.179688,6.292969L10.179688,5.492188C10.179688,5.402344,10.222656,5.355469,10.3125,5.355469L11.117188,5.355469C11.207031,5.355469,11.25,5.402344,11.25,5.492188ZM13.394531,5.492188L13.394531,8.4375C13.394531,8.527344,13.347656,8.570312,13.257812,8.570312L11.382812,8.570312C11.292969,8.570312,11.25,8.527344,11.25,8.4375L11.25,7.632812C11.25,7.542969,11.292969,7.5,11.382812,7.5L12.320312,7.5L12.320312,5.492188C12.320312,5.402344,12.367188,5.355469,12.457031,5.355469L13.257812,5.355469C13.347656,5.355469,13.394531,5.402344,13.394531,5.492188ZM14.464844,11.785156L14.464844,4.285156L0.535156,4.285156L0.535156,11.785156ZM15.535156,4.285156L15.535156,11.785156C15.535156,12.082031,15.429688,12.335938,15.222656,12.542969C15.011719,12.753906,14.761719,12.855469,14.464844,12.855469L0.535156,12.855469C0.238281,12.855469,-0.0117188,12.753906,-0.222656,12.542969C-0.429688,12.335938,-0.535156,12.082031,-0.535156,11.785156L-0.535156,4.285156C-0.535156,3.988281,-0.429688,3.738281,-0.222656,3.527344C-0.0117188,3.320312,0.238281,3.214844,0.535156,3.214844L14.464844,3.214844C14.761719,3.214844,15.011719,3.320312,15.222656,3.527344C15.429688,3.738281,15.535156,3.988281,15.535156,4.285156ZM15.535156,4.285156" fill="#FFFFFF"/>
    </svg>