<?xml version="1.0" encoding="utf-8"?> <!DOCTYPE svg PUBLIC "-//W3C//DTD SVG 1.1//EN" "http://www.w3.org/Graphics/SVG/1.1/DTD/svg11.dtd"><svg version="1.1" id="icon" xmlns="http://www.w3.org/2000/svg" xmlns:xlink="http://www.w3.org/1999/xlink" x="0px"  y="0px" width="15px" height="15px" viewBox="0 0 15 15" enable-background="new 0 0 15 15" xml:space="preserve"><path fill="#FFFFFF" d="M 9.375 4.820312 C 9.375 4.894531 9.347656 4.957031 9.296875 5.007812 C 9.242188 5.0625 9.179688 5.089844 9.105469 5.089844 C 9.035156 5.089844 8.972656 5.0625 8.917969 5.007812 C 8.867188 4.957031 8.839844 4.894531 8.839844 4.820312 C 8.839844 4.566406 8.6875 4.367188 8.386719 4.226562 C 8.085938 4.085938 7.789062 4.019531 7.5 4.019531 C 7.425781 4.019531 7.363281 3.992188 7.3125 3.9375 C 7.257812 3.886719 7.230469 3.824219 7.230469 3.75 C 7.230469 3.675781 7.257812 3.613281 7.3125 3.5625 C 7.363281 3.507812 7.425781 3.480469 7.5 3.480469 C 7.777344 3.480469 8.054688 3.527344 8.332031 3.617188 C 8.609375 3.707031 8.851562 3.855469 9.0625 4.066406 C 9.269531 4.28125 9.375 4.53125 9.375 4.820312 Z M 10.714844 4.820312 C 10.714844 4.417969 10.617188 4.046875 10.425781 3.699219 C 10.234375 3.355469 9.980469 3.070312 9.671875 2.851562 C 9.363281 2.628906 9.019531 2.457031 8.640625 2.332031 C 8.265625 2.207031 7.886719 2.144531 7.5 2.144531 C 7.113281 2.144531 6.734375 2.207031 6.359375 2.332031 C 5.980469 2.457031 5.636719 2.628906 5.328125 2.851562 C 5.019531 3.070312 4.765625 3.355469 4.574219 3.699219 C 4.382812 4.046875 4.285156 4.417969 4.285156 4.820312 C 4.285156 5.386719 4.476562 5.886719 4.855469 6.328125 C 4.910156 6.390625 4.996094 6.480469 5.109375 6.605469 C 5.222656 6.726562 5.308594 6.820312 5.367188 6.878906 C 6.078125 7.734375 6.472656 8.566406 6.546875 9.375 L 8.453125 9.375 C 8.527344 8.566406 8.921875 7.734375 9.632812 6.878906 C 9.691406 6.820312 9.773438 6.726562 9.890625 6.605469 C 10.003906 6.480469 10.089844 6.390625 10.144531 6.328125 C 10.523438 5.886719 10.714844 5.386719 10.714844 4.820312 Z M 11.785156 4.820312 C 11.785156 5.6875 11.5 6.433594 10.921875 7.066406 C 10.671875 7.339844 10.464844 7.582031 10.300781 7.792969 C 10.136719 8.003906 9.96875 8.273438 9.800781 8.59375 C 9.632812 8.914062 9.539062 9.214844 9.515625 9.492188 C 9.78125 9.648438 9.910156 9.878906 9.910156 10.179688 C 9.910156 10.386719 9.839844 10.5625 9.703125 10.714844 C 9.839844 10.863281 9.910156 11.042969 9.910156 11.25 C 9.910156 11.539062 9.785156 11.765625 9.535156 11.929688 C 9.605469 12.054688 9.644531 12.1875 9.644531 12.320312 C 9.644531 12.578125 9.554688 12.777344 9.378906 12.914062 C 9.203125 13.054688 8.988281 13.125 8.730469 13.125 C 8.617188 13.371094 8.453125 13.566406 8.226562 13.710938 C 8.003906 13.855469 7.761719 13.929688 7.5 13.929688 C 7.238281 13.929688 6.996094 13.855469 6.773438 13.710938 C 6.546875 13.566406 6.382812 13.371094 6.269531 13.125 C 6.011719 13.125 5.796875 13.054688 5.621094 12.914062 C 5.445312 12.777344 5.355469 12.578125 5.355469 12.320312 C 5.355469 12.1875 5.394531 12.054688 5.464844 11.929688 C 5.214844 11.765625 5.089844 11.539062 5.089844 11.25 C 5.089844 11.042969 5.160156 10.863281 5.296875 10.714844 C 5.160156 10.5625 5.089844 10.386719 5.089844 10.179688 C 5.089844 9.878906 5.21875 9.648438 5.484375 9.492188 C 5.460938 9.214844 5.367188 8.914062 5.199219 8.59375 C 5.03125 8.273438 4.863281 8.003906 4.699219 7.792969 C 4.535156 7.582031 4.328125 7.339844 4.078125 7.066406 C 3.5 6.433594 3.214844 5.6875 3.214844 4.820312 C 3.214844 4.269531 3.339844 3.753906 3.585938 3.277344 C 3.835938 2.800781 4.160156 2.402344 4.566406 2.089844 C 4.96875 1.773438 5.429688 1.523438 5.9375 1.34375 C 6.449219 1.160156 6.96875 1.070312 7.5 1.070312 C 8.03125 1.070312 8.550781 1.160156 9.0625 1.34375 C 9.570312 1.523438 10.027344 1.773438 10.433594 2.089844 C 10.839844 2.402344 11.164062 2.800781 11.414062 3.277344 C 11.660156 3.753906 11.785156 4.269531 11.785156 4.820312 Z M 11.785156 4.820312 "></path> </svg>