<svg version="1.1" xmlns="http://www.w3.org/2000/svg" xlink="http://www.w3.org/1999/xlink" x="0px" y="0px" width="15px" height="15px" viewBox="0 0 15 15" style="enable-background:new 0 0 15 15;" space="preserve">
    <path d="M13.058594,8.804688C13.058594,7.839844,12.40625,7.171875,11.097656,6.804688C10.902344,6.75,10.757812,6.703125,10.65625,6.667969C10.554688,6.628906,10.449219,6.5625,10.335938,6.457031C10.226562,6.355469,10.144531,6.226562,10.09375,6.070312C10.09375,6.058594,10.089844,6.035156,10.078125,5.996094C10.066406,5.960938,10.058594,5.925781,10.054688,5.898438C10.046875,5.867188,10.042969,5.84375,10.042969,5.835938C10.042969,5.632812,10.113281,5.46875,10.25,5.335938C10.386719,5.203125,10.554688,5.140625,10.757812,5.140625C11.058594,5.140625,11.253906,5.179688,11.351562,5.265625L11.34375,5.265625C11.453125,5.347656,11.5625,5.492188,11.667969,5.691406L12.445312,5.097656C12.230469,4.796875,12.09375,4.617188,12.035156,4.5625C11.851562,4.398438,11.664062,4.292969,11.472656,4.234375C11.28125,4.179688,11.039062,4.152344,10.757812,4.152344C10.308594,4.152344,9.914062,4.3125,9.566406,4.632812C9.222656,4.953125,9.046875,5.335938,9.046875,5.785156C9.046875,5.824219,9.054688,5.886719,9.066406,5.976562C9.15625,6.511719,9.335938,6.902344,9.605469,7.148438C9.875,7.394531,10.289062,7.597656,10.847656,7.757812C11.011719,7.804688,11.148438,7.847656,11.257812,7.890625C11.371094,7.929688,11.496094,7.992188,11.636719,8.070312C11.773438,8.148438,11.882812,8.242188,11.957031,8.359375C12.03125,8.472656,12.070312,8.601562,12.070312,8.746094L12.070312,8.789062C12.074219,9.113281,11.960938,9.371094,11.730469,9.566406C11.5,9.761719,11.21875,9.859375,10.890625,9.859375C10.347656,9.859375,9.882812,9.457031,9.492188,8.65625C9.363281,8.394531,9.21875,8.054688,9.0625,7.636719C8.902344,7.222656,8.769531,6.871094,8.660156,6.585938C8.550781,6.304688,8.398438,5.996094,8.207031,5.664062C8.015625,5.332031,7.808594,5.0625,7.585938,4.863281C7.367188,4.664062,7.078125,4.492188,6.722656,4.355469C6.363281,4.21875,5.953125,4.152344,5.492188,4.152344C4.925781,4.152344,4.390625,4.308594,3.882812,4.621094C3.375,4.933594,2.972656,5.347656,2.679688,5.859375C2.382812,6.371094,2.242188,6.910156,2.261719,7.464844L2.261719,7.476562C2.28125,8.078125,2.421875,8.632812,2.683594,9.140625C2.941406,9.648438,3.316406,10.058594,3.800781,10.375C4.285156,10.691406,4.832031,10.847656,5.441406,10.847656C6.480469,10.847656,7.257812,10.542969,7.777344,9.925781C7.886719,9.777344,7.972656,9.632812,8.035156,9.5L7.535156,8.589844C7.300781,9.035156,7.023438,9.359375,6.703125,9.558594C6.386719,9.761719,5.980469,9.859375,5.484375,9.859375C4.839844,9.859375,4.308594,9.617188,3.882812,9.132812C3.460938,8.648438,3.246094,8.078125,3.246094,7.425781C3.246094,6.839844,3.476562,6.3125,3.933594,5.84375C4.390625,5.375,4.910156,5.140625,5.492188,5.140625C6.117188,5.140625,6.589844,5.289062,6.914062,5.585938C7.238281,5.886719,7.527344,6.367188,7.785156,7.03125C7.828125,7.148438,7.898438,7.339844,8,7.605469C8.09375,7.871094,8.175781,8.082031,8.238281,8.246094C8.296875,8.40625,8.386719,8.613281,8.5,8.867188C8.613281,9.121094,8.722656,9.328125,8.824219,9.488281C8.921875,9.648438,9.050781,9.820312,9.203125,10.011719C9.355469,10.199219,9.511719,10.351562,9.667969,10.460938C9.824219,10.566406,10.007812,10.660156,10.21875,10.734375C10.433594,10.8125,10.65625,10.847656,10.890625,10.847656C11.488281,10.847656,11.996094,10.652344,12.421875,10.265625C12.847656,9.878906,13.058594,9.390625,13.058594,8.804688ZM13.929688,3.480469L13.929688,11.519531C13.929688,12.183594,13.691406,12.75,13.222656,13.222656C12.75,13.691406,12.183594,13.929688,11.519531,13.929688L3.480469,13.929688C2.816406,13.929688,2.25,13.691406,1.777344,13.222656C1.308594,12.75,1.070312,12.183594,1.070312,11.519531L1.070312,3.480469C1.070312,2.816406,1.308594,2.25,1.777344,1.777344C2.25,1.308594,2.816406,1.070312,3.480469,1.070312L11.519531,1.070312C12.183594,1.070312,12.75,1.308594,13.222656,1.777344C13.691406,2.25,13.929688,2.816406,13.929688,3.480469ZM13.929688,3.480469" fill="#FFFFFF"/>
    </svg>