<svg version="1.1" xmlns="http://www.w3.org/2000/svg" xlink="http://www.w3.org/1999/xlink" x="0px" y="0px" width="15px" height="15px" viewBox="0 0 15 15" style="enable-background:new 0 0 15 15;" space="preserve">
    <path d="M2.144531,10.980469L2.144531,12.589844C2.144531,12.660156,2.117188,12.722656,2.0625,12.777344C2.011719,12.832031,1.949219,12.855469,1.875,12.855469L0.269531,12.855469C0.195312,12.855469,0.132812,12.832031,0.078125,12.777344C0.0273438,12.722656,0,12.660156,0,12.589844L0,10.980469C0,10.910156,0.0273438,10.847656,0.078125,10.792969C0.132812,10.742188,0.195312,10.714844,0.269531,10.714844L1.875,10.714844C1.949219,10.714844,2.011719,10.742188,2.0625,10.792969C2.117188,10.847656,2.144531,10.910156,2.144531,10.980469ZM2.144531,7.769531L2.144531,9.375C2.144531,9.449219,2.117188,9.511719,2.0625,9.5625C2.011719,9.617188,1.949219,9.644531,1.875,9.644531L0.269531,9.644531C0.195312,9.644531,0.132812,9.617188,0.078125,9.5625C0.0273438,9.511719,0,9.449219,0,9.375L0,7.769531C0,7.695312,0.0273438,7.632812,0.078125,7.578125C0.132812,7.527344,0.195312,7.5,0.269531,7.5L1.875,7.5C1.949219,7.5,2.011719,7.527344,2.0625,7.578125C2.117188,7.632812,2.144531,7.695312,2.144531,7.769531ZM2.144531,4.554688L2.144531,6.160156C2.144531,6.234375,2.117188,6.296875,2.0625,6.347656C2.011719,6.402344,1.949219,6.429688,1.875,6.429688L0.269531,6.429688C0.195312,6.429688,0.132812,6.402344,0.078125,6.347656C0.0273438,6.296875,0,6.234375,0,6.160156L0,4.554688C0,4.480469,0.0273438,4.417969,0.078125,4.367188C0.132812,4.3125,0.195312,4.285156,0.269531,4.285156L1.875,4.285156C1.949219,4.285156,2.011719,4.3125,2.0625,4.367188C2.117188,4.417969,2.144531,4.480469,2.144531,4.554688ZM15,10.980469L15,12.589844C15,12.660156,14.972656,12.722656,14.921875,12.777344C14.867188,12.832031,14.804688,12.855469,14.730469,12.855469L3.480469,12.855469C3.410156,12.855469,3.347656,12.832031,3.292969,12.777344C3.242188,12.722656,3.214844,12.660156,3.214844,12.589844L3.214844,10.980469C3.214844,10.910156,3.242188,10.847656,3.292969,10.792969C3.347656,10.742188,3.410156,10.714844,3.480469,10.714844L14.730469,10.714844C14.804688,10.714844,14.867188,10.742188,14.921875,10.792969C14.972656,10.847656,15,10.910156,15,10.980469ZM2.144531,1.339844L2.144531,2.945312C2.144531,3.019531,2.117188,3.082031,2.0625,3.132812C2.011719,3.1875,1.949219,3.214844,1.875,3.214844L0.269531,3.214844C0.195312,3.214844,0.132812,3.1875,0.078125,3.132812C0.0273438,3.082031,0,3.019531,0,2.945312L0,1.339844C0,1.265625,0.0273438,1.203125,0.078125,1.152344C0.132812,1.097656,0.195312,1.070312,0.269531,1.070312L1.875,1.070312C1.949219,1.070312,2.011719,1.097656,2.0625,1.152344C2.117188,1.203125,2.144531,1.265625,2.144531,1.339844ZM15,7.769531L15,9.375C15,9.449219,14.972656,9.511719,14.921875,9.5625C14.867188,9.617188,14.804688,9.644531,14.730469,9.644531L3.480469,9.644531C3.410156,9.644531,3.347656,9.617188,3.292969,9.5625C3.242188,9.511719,3.214844,9.449219,3.214844,9.375L3.214844,7.769531C3.214844,7.695312,3.242188,7.632812,3.292969,7.578125C3.347656,7.527344,3.410156,7.5,3.480469,7.5L14.730469,7.5C14.804688,7.5,14.867188,7.527344,14.921875,7.578125C14.972656,7.632812,15,7.695312,15,7.769531ZM15,4.554688L15,6.160156C15,6.234375,14.972656,6.296875,14.921875,6.347656C14.867188,6.402344,14.804688,6.429688,14.730469,6.429688L3.480469,6.429688C3.410156,6.429688,3.347656,6.402344,3.292969,6.347656C3.242188,6.296875,3.214844,6.234375,3.214844,6.160156L3.214844,4.554688C3.214844,4.480469,3.242188,4.417969,3.292969,4.367188C3.347656,4.3125,3.410156,4.285156,3.480469,4.285156L14.730469,4.285156C14.804688,4.285156,14.867188,4.3125,14.921875,4.367188C14.972656,4.417969,15,4.480469,15,4.554688ZM15,1.339844L15,2.945312C15,3.019531,14.972656,3.082031,14.921875,3.132812C14.867188,3.1875,14.804688,3.214844,14.730469,3.214844L3.480469,3.214844C3.410156,3.214844,3.347656,3.1875,3.292969,3.132812C3.242188,3.082031,3.214844,3.019531,3.214844,2.945312L3.214844,1.339844C3.214844,1.265625,3.242188,1.203125,3.292969,1.152344C3.347656,1.097656,3.410156,1.070312,3.480469,1.070312L14.730469,1.070312C14.804688,1.070312,14.867188,1.097656,14.921875,1.152344C14.972656,1.203125,15,1.265625,15,1.339844ZM15,1.339844" fill="#FFFFFF"/>
    </svg>