<svg version="1.1" xmlns="http://www.w3.org/2000/svg" xlink="http://www.w3.org/1999/xlink" x="0px" y="0px" width="15px" height="15px" viewBox="0 0 15 15" style="enable-background:new 0 0 15 15;" space="preserve">
    <path d="M14.464844,7.476562C14.464844,7.554688,14.4375,7.621094,14.378906,7.675781L11.167969,10.640625C11.078125,10.71875,10.980469,10.734375,10.875,10.6875C10.765625,10.640625,10.714844,10.558594,10.714844,10.445312L10.714844,8.570312L0.269531,8.570312C0.191406,8.570312,0.125,8.546875,0.0742188,8.496094C0.0234375,8.445312,0,8.382812,0,8.304688L0,6.695312C0,6.617188,0.0234375,6.554688,0.0742188,6.503906C0.125,6.453125,0.191406,6.429688,0.269531,6.429688L10.714844,6.429688L10.714844,4.554688C10.714844,4.4375,10.765625,4.355469,10.875,4.3125C10.980469,4.265625,11.078125,4.28125,11.167969,4.351562L14.378906,7.28125C14.4375,7.339844,14.464844,7.402344,14.464844,7.476562ZM14.464844,7.476562" fill="#FFFFFF"/>
    </svg>