<svg version="1.1" xmlns="http://www.w3.org/2000/svg" xlink="http://www.w3.org/1999/xlink" x="0px" y="0px" width="15px" height="15px" viewBox="0 0 15 15" style="enable-background:new 0 0 15 15;" space="preserve">
    <path d="M16.070312,12.855469L16.070312,13.929688L-1.070312,13.929688L-1.070312,1.070312L0,1.070312L0,12.855469ZM15,2.410156L15,6.050781C15,6.167969,14.945312,6.25,14.835938,6.296875C14.726562,6.347656,14.628906,6.324219,14.539062,6.234375L13.527344,5.222656L8.226562,10.523438C8.171875,10.578125,8.109375,10.605469,8.035156,10.605469C7.964844,10.605469,7.898438,10.578125,7.84375,10.523438L5.894531,8.570312L2.410156,12.054688L0.804688,10.445312L5.699219,5.550781C5.757812,5.492188,5.820312,5.464844,5.894531,5.464844C5.964844,5.464844,6.03125,5.492188,6.085938,5.550781L8.035156,7.5L11.917969,3.617188L10.90625,2.601562C10.816406,2.515625,10.796875,2.414062,10.84375,2.304688C10.890625,2.195312,10.972656,2.144531,11.089844,2.144531L14.730469,2.144531C14.808594,2.144531,14.875,2.167969,14.925781,2.21875C14.976562,2.269531,15,2.332031,15,2.410156ZM15,2.410156" fill="#FFFFFF"/>
    </svg>