<?xml version="1.0" encoding="utf-8"?> <!DOCTYPE svg PUBLIC "-//W3C//DTD SVG 1.1//EN" "http://www.w3.org/Graphics/SVG/1.1/DTD/svg11.dtd"><svg version="1.1" id="icon" xmlns="http://www.w3.org/2000/svg" xmlns:xlink="http://www.w3.org/1999/xlink" x="0px"  y="0px" width="15px" height="15px" viewBox="0 0 15 15" enable-background="new 0 0 15 15" xml:space="preserve"><path fill="#FFFFFF" d="m6.028402,6.3722639c0.1446223,0.1446223,0.3790261,0.1446223,0.5236484,0L6.813759,6.1105555c0.1446222,-0.1446223,0.1446222,-0.3790261,0,-0.5236484L5.9872136,4.7605932L6.8135275,3.9340479c0.1446223,-0.1446222,0.1446223,-0.3790261,0,-0.5236484L6.551819,3.1486911c-0.1446222,-0.1446223,-0.3790261,-0.1446223,-0.5236483,0L4.6782084,4.4986533c-0.1446223,0.1446223,-0.1446223,0.3790261,0,0.5236485zm2.2216298,-0.261477l0.2617087,0.2617084c0.1446219,0.1446224,0.3790254,0.1446224,0.5236481,0L10.38535,5.0225331c0.144623,-0.1446222,0.144623,-0.3790261,0,-0.5236484L9.0353886,3.1489225c-0.1446227,-0.1446223,-0.3790262,-0.1446223,-0.5236481,0L8.2500318,3.410631c-0.144622,0.1446223,-0.144622,0.3790261,0,0.5236484L9.0763453,4.7605932L8.2500318,5.5871385c-0.144622,0.1446222,-0.144622,0.3790261,0,0.5236484zM14.566207,9.9438557H8.9557888C8.9386648,10.402251,8.6154057,10.684322,8.1981991,10.684322H6.7913135c-0.4324785,0,-0.7640685,-0.404248,-0.7582836,-0.7404663H0.49735169c-0.20362818,0,-0.37023305,0.1666063,-0.37023305,0.3702333v0.370233c0,0.814514,0.66641949,1.480933,1.48093216,1.480933H13.455508c0.814512,0,1.480932,-0.666419,1.480932,-1.480933v-0.370233c0,-0.203627,-0.166605,-0.3702333,-0.370233,-0.3702333zM13.455508,1.4284958c0,-0.61088455,-0.499815,-1.11069919,-1.110699,-1.11069919H2.71875c-0.6108846,0,-1.1106992,0.49981464,-1.1106992,1.11069919v7.774894H13.455508ZM11.974576,7.7224576H3.088983V1.7987288h8.885593z"></path> </svg>