<svg version="1.1" xmlns="http://www.w3.org/2000/svg" xlink="http://www.w3.org/1999/xlink" x="0px" y="0px" width="15px" height="15px" viewBox="0 0 15 15" style="enable-background:new 0 0 15 15;" space="preserve">
    <path d="M12.847656,6.914062C12.847656,6.667969,12.828125,6.351562,12.789062,5.964844C12.75,5.574219,12.699219,5.308594,12.640625,5.15625C12.574219,4.988281,12.523438,4.867188,12.496094,4.789062C12.46875,4.710938,12.445312,4.609375,12.421875,4.484375C12.398438,4.355469,12.386719,4.222656,12.386719,4.078125C12.386719,3.949219,12.402344,3.757812,12.429688,3.503906C12.457031,3.25,12.472656,3.0625,12.472656,2.9375C12.472656,2.730469,12.445312,2.578125,12.386719,2.476562C12.367188,2.472656,12.328125,2.46875,12.28125,2.46875C12.171875,2.46875,12.011719,2.480469,11.792969,2.507812C11.578125,2.53125,11.410156,2.542969,11.300781,2.542969C10.964844,2.542969,10.472656,2.476562,9.828125,2.34375C9.179688,2.210938,8.691406,2.144531,8.363281,2.144531C8.121094,2.144531,7.859375,2.175781,7.570312,2.238281C7.285156,2.304688,7.046875,2.367188,6.859375,2.4375C6.671875,2.503906,6.421875,2.597656,6.109375,2.71875C5.347656,3.023438,4.78125,3.308594,4.417969,3.582031C3.882812,3.988281,3.4375,4.519531,3.085938,5.167969C2.730469,5.820312,2.484375,6.476562,2.347656,7.144531C2.210938,7.8125,2.144531,8.503906,2.144531,9.222656C2.144531,9.449219,2.175781,9.78125,2.246094,10.230469C2.316406,10.675781,2.351562,11.011719,2.351562,11.242188C2.351562,11.371094,2.320312,11.554688,2.261719,11.796875C2.199219,12.039062,2.167969,12.222656,2.167969,12.347656C2.167969,12.46875,2.203125,12.570312,2.269531,12.652344C2.335938,12.734375,2.429688,12.773438,2.554688,12.773438C2.6875,12.773438,2.890625,12.742188,3.160156,12.679688C3.429688,12.621094,3.636719,12.589844,3.773438,12.589844C4.09375,12.589844,4.566406,12.632812,5.195312,12.71875C5.820312,12.804688,6.292969,12.847656,6.613281,12.847656C7.621094,12.847656,8.414062,12.75,8.988281,12.546875C9.710938,12.296875,10.367188,11.871094,10.960938,11.269531C11.554688,10.671875,12.019531,9.984375,12.351562,9.214844C12.683594,8.445312,12.847656,7.679688,12.847656,6.914062ZM13.921875,6.898438C13.921875,7.816406,13.726562,8.730469,13.335938,9.640625C12.945312,10.546875,12.398438,11.347656,11.695312,12.050781C10.992188,12.75,10.207031,13.253906,9.339844,13.558594C8.648438,13.804688,7.738281,13.929688,6.613281,13.929688C6.292969,13.929688,5.820312,13.886719,5.191406,13.808594C4.558594,13.726562,4.085938,13.6875,3.773438,13.6875C3.640625,13.6875,3.4375,13.726562,3.167969,13.808594C2.898438,13.886719,2.691406,13.929688,2.554688,13.929688C2.144531,13.929688,1.800781,13.773438,1.519531,13.464844C1.238281,13.15625,1.097656,12.796875,1.097656,12.386719C1.097656,12.253906,1.128906,12.066406,1.1875,11.820312C1.25,11.574219,1.28125,11.386719,1.28125,11.257812C1.28125,11.035156,1.246094,10.699219,1.175781,10.25C1.105469,9.800781,1.070312,9.460938,1.070312,9.234375C1.070312,8.613281,1.121094,8.007812,1.222656,7.414062C1.324219,6.816406,1.472656,6.234375,1.679688,5.660156C1.882812,5.082031,2.164062,4.542969,2.519531,4.035156C2.875,3.527344,3.296875,3.089844,3.773438,2.730469C4.210938,2.398438,4.859375,2.066406,5.71875,1.722656C6.800781,1.289062,7.679688,1.070312,8.363281,1.070312C8.695312,1.070312,9.1875,1.136719,9.832031,1.273438C10.476562,1.40625,10.960938,1.472656,11.285156,1.472656C11.390625,1.472656,11.546875,1.460938,11.761719,1.429688C11.972656,1.402344,12.132812,1.390625,12.246094,1.390625C12.699219,1.390625,13.027344,1.53125,13.234375,1.8125C13.441406,2.09375,13.542969,2.46875,13.542969,2.9375C13.542969,3.066406,13.53125,3.257812,13.5,3.507812C13.472656,3.757812,13.460938,3.949219,13.460938,4.078125C13.460938,4.132812,13.460938,4.183594,13.46875,4.230469C13.472656,4.277344,13.480469,4.324219,13.492188,4.375C13.503906,4.421875,13.515625,4.457031,13.527344,4.488281C13.539062,4.515625,13.554688,4.558594,13.582031,4.621094C13.605469,4.683594,13.625,4.730469,13.636719,4.761719C13.726562,4.984375,13.792969,5.316406,13.84375,5.753906C13.894531,6.191406,13.921875,6.574219,13.921875,6.898438ZM13.921875,6.898438" fill="#FFFFFF"/>
    </svg>