<svg version="1.1" xmlns="http://www.w3.org/2000/svg" xlink="http://www.w3.org/1999/xlink" x="0px" y="0px" width="15px" height="15px" viewBox="0 0 15 15" style="enable-background:new 0 0 15 15;" space="preserve">
    <path d="M14.605469,2.484375C14.664062,2.542969,14.691406,2.605469,14.691406,2.679688C14.691406,2.75,14.664062,2.816406,14.605469,2.871094L13.425781,4.050781C13.269531,4.207031,13.082031,4.285156,12.855469,4.285156L1.605469,4.285156C1.460938,4.285156,1.335938,4.234375,1.230469,4.125C1.125,4.019531,1.070312,3.894531,1.070312,3.75L1.070312,1.605469C1.070312,1.460938,1.125,1.335938,1.230469,1.230469C1.335938,1.125,1.460938,1.070312,1.605469,1.070312L6.429688,1.070312L6.429688,0.535156C6.429688,0.390625,6.480469,0.265625,6.585938,0.160156C6.695312,0.0546875,6.820312,0,6.964844,0L8.035156,0C8.179688,0,8.304688,0.0546875,8.414062,0.160156C8.519531,0.265625,8.570312,0.390625,8.570312,0.535156L8.570312,1.070312L12.855469,1.070312C13.082031,1.070312,13.269531,1.148438,13.425781,1.304688ZM6.429688,10.179688L8.570312,10.179688L8.570312,14.464844C8.570312,14.609375,8.519531,14.734375,8.414062,14.839844C8.304688,14.945312,8.179688,15,8.035156,15L6.964844,15C6.820312,15,6.695312,14.945312,6.585938,14.839844C6.480469,14.734375,6.429688,14.609375,6.429688,14.464844ZM13.394531,6.429688C13.539062,6.429688,13.664062,6.480469,13.769531,6.585938C13.875,6.695312,13.929688,6.820312,13.929688,6.964844L13.929688,9.105469C13.929688,9.253906,13.875,9.378906,13.769531,9.484375C13.664062,9.589844,13.539062,9.644531,13.394531,9.644531L2.144531,9.644531C1.917969,9.644531,1.730469,9.566406,1.574219,9.410156L0.394531,8.226562C0.335938,8.171875,0.308594,8.109375,0.308594,8.035156C0.308594,7.964844,0.335938,7.898438,0.394531,7.84375L1.574219,6.664062C1.730469,6.507812,1.917969,6.429688,2.144531,6.429688L6.429688,6.429688L6.429688,4.820312L8.570312,4.820312L8.570312,6.429688ZM13.394531,6.429688" fill="#FFFFFF"/>
    </svg>