<svg version="1.1" xmlns="http://www.w3.org/2000/svg" xlink="http://www.w3.org/1999/xlink" x="0px" y="0px" width="15px" height="15px" viewBox="0 0 15 15" style="enable-background:new 0 0 15 15;" space="preserve">
    <path d="M13.394531,6.160156L13.394531,7.769531C13.394531,7.992188,13.316406,8.179688,13.160156,8.335938C13.003906,8.492188,12.8125,8.570312,12.589844,8.570312L2.410156,8.570312C2.1875,8.570312,1.996094,8.492188,1.839844,8.335938C1.683594,8.179688,1.605469,7.992188,1.605469,7.769531L1.605469,6.160156C1.605469,5.9375,1.683594,5.746094,1.839844,5.589844C1.996094,5.433594,2.1875,5.355469,2.410156,5.355469L12.589844,5.355469C12.8125,5.355469,13.003906,5.433594,13.160156,5.589844C13.316406,5.746094,13.394531,5.9375,13.394531,6.160156ZM13.394531,6.160156" fill="#FFFFFF"/>
    </svg>