<svg version="1.1" xmlns="http://www.w3.org/2000/svg" xlink="http://www.w3.org/1999/xlink" x="0px" y="0px" width="16.875px" height="15px" viewBox="0 0 16.875 15" style="enable-background:new 0 0 15 15;" space="preserve">
    <path d="M4.6875,13.125c-0.75,0,-1.5,-0.65625,-1.875,-0.9375c-1.875,-1.3125,-2.4375,-1.78125,-2.8125,-2.0625V14.0625c0,0.51767578125,0.41982421875,0.9375,0.9375,0.9375h7.5c0.51767578125,0,0.9375,-0.41982421875,0.9375,-0.9375V10.125c-0.375,0.28125,-0.9375,0.75,-2.8125,2.0625c-0.375,0.28125,-1.125,0.9375,-1.875,0.9375zm3.75,-5.625H0.9375c-0.51767578125,0,-0.9375,0.41982421875,-0.9375,0.9375v0.46875c0.75,0.5625,0.65625,0.5625,3.375,2.53125c0.28125,0.1875,0.84375,0.75,1.3125,0.75s1.03125,-0.5625,1.3125,-0.65625c2.71875,-1.96875,2.625,-1.96875,3.375,-2.53125V8.4375c0,-0.51767578125,-0.41982421875,-0.9375,-0.9375,-0.9375zm7.5,-2.8125H6.5625c-0.51767578125,0,-0.9375,0.41982421875,-0.9375,0.9375v0.9375h2.8125c0.9729492187500001,0,1.77509765625,0.7447265625,1.86650390625,1.6939453125l0.00849609375,-0.0064453125V12.1875h5.625c0.51767578125,0,0.9375,-0.41982421875,0.9375,-0.9375V5.625c0,-0.51767578125,-0.41982421875,-0.9375,-0.9375,-0.9375zm-0.9375,3.75h-1.875v-1.875h1.875v1.875zm-10.3125,-2.8125c0,-1.03388671875,0.8411132812500001,-1.875,1.875,-1.875h6.5625V0.9375c0,-0.51767578125,-0.41982421875,-0.9375,-0.9375,-0.9375H2.8125C2.29482421875,0,1.875,0.41982421875,1.875,0.9375v5.625h2.8125v-0.9375z" fill="#FFFFFF"/>
    </svg>