<svg version="1.1" xmlns="http://www.w3.org/2000/svg" xlink="http://www.w3.org/1999/xlink" x="0px" y="0px" width="15px" height="15px" viewBox="0 0 15 15" style="enable-background:new 0 0 15 15;" space="preserve">
    <path d="M11.785156,4.820312C11.785156,6.054688,11.375,7.128906,10.550781,8.039062C9.726562,8.953125,8.710938,9.476562,7.5,9.609375L7.5,14.730469C7.5,14.808594,7.476562,14.875,7.425781,14.925781C7.375,14.976562,7.308594,15,7.230469,15L6.695312,15C6.617188,15,6.554688,14.976562,6.503906,14.925781C6.453125,14.875,6.429688,14.808594,6.429688,14.730469L6.429688,9.609375C5.21875,9.476562,4.199219,8.953125,3.378906,8.039062C2.554688,7.128906,2.144531,6.054688,2.144531,4.820312C2.144531,4.167969,2.269531,3.546875,2.523438,2.949219C2.777344,2.355469,3.121094,1.84375,3.554688,1.410156C3.984375,0.976562,4.5,0.632812,5.09375,0.382812C5.6875,0.125,6.3125,0,6.964844,0C7.617188,0,8.242188,0.125,8.835938,0.382812C9.429688,0.632812,9.941406,0.976562,10.375,1.410156C10.808594,1.84375,11.152344,2.355469,11.40625,2.949219C11.660156,3.546875,11.785156,4.167969,11.785156,4.820312ZM6.964844,8.570312C7.996094,8.570312,8.878906,8.203125,9.613281,7.46875C10.347656,6.738281,10.714844,5.855469,10.714844,4.820312C10.714844,3.789062,10.347656,2.90625,9.613281,2.171875C8.878906,1.4375,7.996094,1.070312,6.964844,1.070312C5.933594,1.070312,5.046875,1.4375,4.316406,2.171875C3.582031,2.90625,3.214844,3.789062,3.214844,4.820312C3.214844,5.855469,3.582031,6.738281,4.316406,7.46875C5.046875,8.203125,5.933594,8.570312,6.964844,8.570312ZM6.964844,8.570312" fill="#FFFFFF"/>
    </svg>