<svg version="1.1" xmlns="http://www.w3.org/2000/svg" xlink="http://www.w3.org/1999/xlink" x="0px" y="0px" width="18.75px" height="15px" viewBox="0 0 18.75 15" style="enable-background:new 0 0 15 15;" space="preserve">
    <path d="M18.515625,10.3125h-1.40625c-0.12890625,0,-0.234375,0.10546875,-0.234375,0.234375v4.21875c0,0.12890625,0.10546875,0.234375,0.234375,0.234375h1.40625c0.12890625,0,0.234375,-0.10546875,0.234375,-0.234375V10.546875c0,-0.12890625,-0.10546875,-0.234375,-0.234375,-0.234375zM16.2099609375,2.5517578125c-0.1669921875,-0.111328125,-0.2724609375,-0.29296875,-0.2724609375,-0.4921875V0.234375c0,-0.12890625,-0.10546875,-0.234375,-0.234375,-0.234375h-1.40625c-0.12890625,0,-0.234375,0.10546875,-0.234375,0.234375v1.8251953125c0,0.64453125,0.298828125,1.271484375,0.837890625,1.623046875c1.236328125,0.7998046875,1.9746093750000002,2.162109375,1.9746093750000002,3.6328125V8.203125c0,0.12890625,0.10546875,0.234375,0.234375,0.234375h1.40625c0.12890625,0,0.234375,-0.10546875,0.234375,-0.234375v-0.8876953125c0,-1.9189453125,-0.94921875,-3.697265625,-2.5400390625,-4.763671875zM12.65625,10.3125H1.40625c-0.7763671875,0,-1.40625,0.6298828125,-1.40625,1.40625v1.875c0,0.7763671875,0.6298828125,1.40625,1.40625,1.40625h11.25c0.2578125,0,0.46875,-0.2109375,0.46875,-0.46875V10.78125c0,-0.2578125,-0.2109375,-0.46875,-0.46875,-0.46875zm-0.9375,3.28125H6.5625v-1.875h5.15625v1.875zm2.5693359375,-9.4453125C13.587890625,3.662109375,13.125,2.9091796875,13.125,2.0595703125V0.234375c0,-0.12890625,-0.10546875,-0.234375,-0.234375,-0.234375h-1.40625c-0.12890625,0,-0.234375,0.10546875,-0.234375,0.234375v1.9453125000000002c0,1.2802734375,0.720703125,2.390625,1.7666015625,3.1259765625c0.65625,0.4599609375,1.0458984375,1.20703125,1.0458984375,2.009765625V8.203125c0,0.12890625,0.10546875,0.234375,0.234375,0.234375h1.40625c0.12890625,0,0.234375,-0.10546875,0.234375,-0.234375v-0.8876953125c0,-1.2685546875,-0.615234375,-2.443359375,-1.6494140625,-3.1669921875zM15.703125,10.3125h-1.40625c-0.12890625,0,-0.234375,0.10546875,-0.234375,0.234375v4.21875c0,0.12890625,0.10546875,0.234375,0.234375,0.234375h1.40625c0.12890625,0,0.234375,-0.10546875,0.234375,-0.234375V10.546875c0,-0.12890625,-0.10546875,-0.234375,-0.234375,-0.234375z" fill="#FFFFFF"/>
    </svg>