<svg version="1.1" xmlns="http://www.w3.org/2000/svg" xlink="http://www.w3.org/1999/xlink" x="0px" y="0px" width="15px" height="15px" viewBox="0 0 15 15" style="enable-background:new 0 0 15 15;" space="preserve">
    <path d="m1.2473517,1.5254237c-0.61776186,0,-1.12023306,0.5024712,-1.12023306,1.1202331v1.493644c0,0.2063096,0.16710143,0.373411,0.37341102,0.373411H2.3675847v-1.867055c0,-0.6177619,-0.5024712,-1.1202331,-1.120233,-1.1202331zM6.1016949,11.15406V9.7404661H12.823094V3.7658898c0,-1.2355237,-1.004942,-2.2404661,-2.240467,-2.2404661H2.7314271C2.9683097,1.8383888,3.1144067,2.2237023,3.1144067,2.6456568V11.23411c0,0.907156,0.8086683,1.625505,1.7445296,1.473107c0.7344529,-0.119491,1.2427586,-0.808902,1.2427586,-1.553157zm0.746822,-0.666772v0.746822c0,1.235291,-1.0049424,2.240467,-2.2404661,2.240467h7.8416322c1.4437,0,2.613877,-1.170177,2.613877,-2.613878c0,-0.206309,-0.167102,-0.373411,-0.373411,-0.373411z" fill="#FFFFFF"/>
    </svg>