<svg version="1.1" xmlns="http://www.w3.org/2000/svg" xlink="http://www.w3.org/1999/xlink" x="0px" y="0px" width="15px" height="18.75px" viewBox="0 0 15 18.75" style="enable-background:new 0 0 15 15;" space="preserve">
    <path d="M6.9437255859375,11.373779296875c0.129638671875,0.119384765625,0.5592041015625,0.344970703125,1.2593994140625,0.344970703125s1.130126953125,-0.2255859375,1.2593994140625,-0.344970703125c0.586669921875,-0.5408935546875,1.263427734375,-0.826904296875,1.957763671875,-0.826904296875h0.596923828125c0.6943359375000001,0,1.3714599609375,0.2860107421875,1.957763671875,0.826904296875c0.129638671875,0.119384765625,0.5592041015625,0.344970703125,1.2593994140625,0.344970703125s1.130126953125,-0.2255859375,1.2593994140625,-0.344970703125c0.544189453125,-0.5020751953125,1.16748046875,-0.7734375,1.8087158203125,-0.8115234375l-4.13232421875,-2.95166015625l0.6591796875,-0.47094726562499994c0.13330078125,-0.094482421875,0.30322265625,-0.12890625,0.46215820312499994,-0.0955810546875l3.6749267578125,0.7884521484375001c0.9488525390625,0.2025146484375,1.8837890624999998,-0.4017333984375,2.08740234375,-1.3505859375c0.2032470703125,-0.94921875,-0.4010009765625,-1.8837890624999998,-1.3505859375,-2.08740234375L16.0283203125,3.6060791015625c-1.1253662109375,-0.240966796875,-2.307861328125,0.00439453125,-3.2431640625,0.673095703125l-2.930419921875,2.0936279296875c-0.38012695312500006,0.2706298828125,-0.708984375,0.60205078125,-0.9785156249999999,0.986572265625L6.3629150390625,10.94970703125c0.2003173828125,0.1182861328125,0.396240234375,0.2537841796875,0.580810546875,0.424072265625zM22.8515625,12.890625h-0.5859375c-0.9536132812499999,0,-1.67724609375,-0.308349609375,-2.0540771484375,-0.655517578125c-0.325927734375,-0.3006591796875,-0.719970703125,-0.516357421875,-1.1634521484375,-0.516357421875h-0.596923828125c-0.44348144531249994,0,-0.8375244140625,0.2156982421875,-1.1634521484375,0.516357421875C16.91162109375,12.582275390625,16.18798828125,12.890625,15.234375,12.890625s-1.67724609375,-0.308349609375,-2.0540771484375,-0.655517578125c-0.325927734375,-0.3006591796875,-0.719970703125,-0.516357421875,-1.1634521484375,-0.516357421875h-0.596923828125c-0.44348144531249994,0,-0.8375244140625,0.2156982421875,-1.1634521484375,0.516357421875C9.88037109375,12.582275390625,9.15673828125,12.890625,8.203125,12.890625s-1.67724609375,-0.308349609375,-2.0540771484375,-0.655517578125c-0.325927734375,-0.3006591796875,-0.719970703125,-0.516357421875,-1.1634521484375,-0.516357421875h-0.596923828125c-0.44348144531249994,0,-0.8375244140625,0.2156982421875,-1.1634521484375,0.516357421875C2.84912109375,12.582275390625,2.12548828125,12.890625,1.171875,12.890625H0.5859375c-0.32373046875,0,-0.5859375,0.26220703125,-0.5859375,0.5859375v1.171875c0,0.32373046875,0.26220703125,0.5859375,0.5859375,0.5859375h0.5859375c1.414306640625,0,2.6630859375,-0.4464111328125,3.515625,-1.166015625c0.8525390625000001,0.719970703125,2.101318359375,1.166015625,3.515625,1.166015625s2.6630859375,-0.4464111328125,3.515625,-1.166015625c0.8525390625000001,0.719970703125,2.101318359375,1.166015625,3.515625,1.166015625s2.6630859375,-0.4464111328125,3.515625,-1.166015625c0.8525390625000001,0.719970703125,2.101318359375,1.166015625,3.515625,1.166015625h0.5859375c0.32373046875,0,0.5859375,-0.26220703125,0.5859375,-0.5859375v-1.171875c0,-0.32373046875,-0.26220703125,-0.5859375,-0.5859375,-0.5859375zm-18.75,-3.515625c1.617919921875,0,2.9296875,-1.311767578125,2.9296875,-2.9296875s-1.311767578125,-2.9296875,-2.9296875,-2.9296875s-2.9296875,1.311767578125,-2.9296875,2.9296875s1.311767578125,2.9296875,2.9296875,2.9296875z" fill="#FFFFFF"/>
    </svg>