<?xml version="1.0" encoding="utf-8"?> <!DOCTYPE svg PUBLIC "-//W3C//DTD SVG 1.1//EN" "http://www.w3.org/Graphics/SVG/1.1/DTD/svg11.dtd"><svg version="1.1" id="icon" xmlns="http://www.w3.org/2000/svg" xmlns:xlink="http://www.w3.org/1999/xlink" x="0px"  y="0px" width="15px" height="15px" viewBox="0 0 15 15" enable-background="new 0 0 15 15" xml:space="preserve"><path fill="#FFFFFF" d="m12.344723,9.3638211c-1.124575,0,-2.036267,0.9116919,-2.036267,2.0362679c0,1.124575,0.911692,2.036266,2.036267,2.036266c1.124575,0,2.036266,-0.911691,2.036266,-2.036266c0,-1.124576,-0.911691,-2.0362679,-2.036266,-2.0362679zm0,2.5916119c-0.306134,0,-0.555346,-0.24921,-0.555346,-0.555344c0,-0.306136,0.249212,-0.555344,0.555346,-0.555344c0.306133,0,0.555346,0.249208,0.555346,0.555344c0,0.306134,-0.249213,0.555344,-0.555346,0.555344zM14.195875,5.2912868H12.714953V4.3610831c0,-0.3267284,0.108751,-0.6423498,0.304285,-0.8987344c0.102271,-0.1342086,0.08214,-0.3253399,-0.03054,-0.4509869L12.488187,2.4520826C12.334079,2.2796939,12.064274,2.2919578,11.916644,2.4701313C11.478847,2.9981724,11.234032,3.6671324,11.234032,4.3610831V5.2912868H8.8661756L7.5682868,2.263265A1.1087012,1.1087012,0,0,0,6.5471451,1.5889828H3.4591923c-0.6125,0,-1.1106912,0.4981913,-1.1106912,1.1106913V6.0900589C2.1488081,5.9343307,1.8634993,5.9405784,1.6800038,6.1240738L0.96013708,6.8439405c-0.19876749,0.1987674,-0.19876749,0.5210993,0,0.7198667L1.0772223,7.6808927C0.96175678,7.8951635,0.86989342,8.1163761,0.80163214,8.3454562H0.63618543c-0.2811437,0,-0.50906678,0.227923,-0.50906678,0.5090668v1.0181334c0,0.2811446,0.22792308,0.5090676,0.50906678,0.5090676h0.16521532c0.0684926,0.229311,0.16012463,0.450294,0.27559025,0.664795l-0.11708522,0.117083c-0.19876752,0.198767,-0.19876752,0.521098,0,0.719866l0.71986662,0.719866c0.1987674,0.198768,0.5210993,0.198768,0.7198667,0l0.1170855,-0.117083c0.2142703,0.115464,0.435483,0.20733,0.6645631,0.27559v0.165447c0,0.281144,0.2279229,0.509067,0.5090667,0.509067h1.0181335c0.2811437,0,0.5090668,-0.227923,0.5090668,-0.509067v-0.165215c0.2290806,-0.06827,0.4502931,-0.160125,0.6645641,-0.27559l0.1170853,0.117083c0.1987675,0.198768,0.5210995,0.198768,0.7198669,0L7.4389371,11.8837c0.1987674,-0.198769,0.1987674,-0.521102,0,-0.719867L7.3218517,11.04675c0.1154661,-0.21427,0.2073295,-0.435483,0.2755908,-0.664565h0.165678c0.2811437,0,0.5090668,-0.227922,0.5090668,-0.5090651v-0.138837h1.8636477c0.506985,-0.6708111,1.303212,-1.1106912,2.208888,-1.1106912c0.431319,0,0.834639,0.1066729,1.198619,0.2823008L14.719288,7.7299482C14.858125,7.5911118,14.936105,7.4027571,14.936105,7.2063036V6.0317477C14.936336,5.6228744,14.604748,5.2912868,14.195875,5.2912868ZM4.1996531,11.214974c-1.0222988,0,-1.851152,-0.828855,-1.851152,-1.8511529c0,-1.0222985,0.8288532,-1.8511519,1.851152,-1.8511519c1.0222986,0,1.8511518,0.8288534,1.8511518,1.8511519c0,1.0222979,-0.8288532,1.8511529,-1.8511518,1.8511529zM4.7087198,5.2912868H3.8294225V3.0699047H6.302793l0.9521863,2.2213821z"></path> </svg>