<?xml version="1.0" encoding="utf-8"?> <!DOCTYPE svg PUBLIC "-//W3C//DTD SVG 1.1//EN" "http://www.w3.org/Graphics/SVG/1.1/DTD/svg11.dtd"><svg version="1.1" id="icon" xmlns="http://www.w3.org/2000/svg" xmlns:xlink="http://www.w3.org/1999/xlink" x="0px"  y="0px" width="15px" height="15px" viewBox="0 0 15 15" enable-background="new 0 0 15 15" xml:space="preserve"><path fill="#FFFFFF" d="M8,1L6,3H3c0,0,-1,0,-1,1v9c0,1,1,1,1,1h9c0,0,1,0,1,-1V2c0,-1,-1,-1,-1,-1S8,1,8,1zM8.5,2h2C10.777,2,11,2.223,11,2.5S10.777,3,10.5,3h-2C8.223,3,8,2.777,8,2.5S8.223,2,8.5,2zM7.5,6c1.6569,0,3,1.3431,3,3s-1.3431,3,-3,3s-3,-1.3431,-3,-3S5.8431,6,7.5,6z"></path> </svg>