<?xml version="1.0" encoding="utf-8"?> <!DOCTYPE svg PUBLIC "-//W3C//DTD SVG 1.1//EN" "http://www.w3.org/Graphics/SVG/1.1/DTD/svg11.dtd"><svg version="1.1" id="icon" xmlns="http://www.w3.org/2000/svg" xmlns:xlink="http://www.w3.org/1999/xlink" x="0px"  y="0px" width="15px" height="15px" viewBox="0 0 15 15" enable-background="new 0 0 15 15" xml:space="preserve"><path fill="#FFFFFF" d="M3.3999,1.1c0,0.1,0,0.2,0,0.2c0,0.4,0.3,0.7,0.7,0.7c0.3,0,0.5,-0.2,0.6,-0.5l0,0L4.9,1l5.6,2.3L6.6,6C6.2,6.3,6.2,6.7,6.3,7.1l0.9,2.1l-1.3,3.9C5.7,13.6,6.1,14,6.5,14c0.3,0,0.5,-0.1,0.6,-0.5l1.4,-4l0.1,0.3v3.5c0,0,0,0.7,0.7,0.7s0.7,-0.7,0.7,-0.7V10c0,-0.2,0,-0.3,-0.1,-0.5L8.5,6.1l2.7,-1.9c0.2,-0.2,0.4,-0.3,0.4,-0.6s-0.2,-0.5,-0.4,-0.6L4,0.1c-0.0878,0,-0.118,0.0179,-0.2001,0.1L3.3999,1.1zM5.5,3C4.7,3,4,3.7,4,4.5S4.7,6,5.5,6S7,5.3,7,4.5S6.2999,3,5.5,3z"></path> </svg>