<svg version="1.1" xmlns="http://www.w3.org/2000/svg" xlink="http://www.w3.org/1999/xlink" x="0px" y="0px" width="15px" height="15px" viewBox="0 0 15 15" style="enable-background:new 0 0 15 15;" space="preserve">
    <path d="M1.042,11l12,1.495V13h-12zm12,-4l-1,1v0.583L4.238,5.332l0.062,-0.125l1.352,-1.362h0.831a0.35,0.35,0,0,0,0,-0.7h-0.976a0.352,0.352,0,0,0,-0.248,0.103L3.763,4.753a0.371,0.371,0,0,0,-0.065,0.09l-0.11,0.219L1.043,4c0,2,-0.03,3.958,2.86,4.5c1.419,0.266,8.14,1.5,8.14,1.5l2,-2z" fill="#FFFFFF"/>
    </svg>