<svg version="1.1" xmlns="http://www.w3.org/2000/svg" xlink="http://www.w3.org/1999/xlink" x="0px" y="0px" width="15px" height="15px" viewBox="0 0 15 15" style="enable-background:new 0 0 15 15;" space="preserve">
    <path d="M5.65625,3.179688C6.328125,3.179688,6.867188,2.621094,6.867188,1.9375C6.867188,1.253906,6.328125,0.695312,5.65625,0.695312C4.988281,0.695312,4.445312,1.253906,4.445312,1.9375C4.445312,2.621094,4.988281,3.179688,5.65625,3.179688ZM6,3.601562L2.398438,3.601562C1.800781,3.601562,1.800781,4.5,2.398438,4.5L6,4.5C6.601562,4.5,6.601562,3.601562,6,3.601562ZM11.699219,3.976562C11.699219,2.601562,11.21875,1.285156,10.339844,0.25C10.34375,0.246094,10.121094,0,10.121094,0L6.707031,3.496094L6.648438,3.550781L6.679688,3.597656C6.730469,3.691406,6.761719,3.796875,6.773438,3.902344C6.777344,3.949219,6.773438,3.992188,6.769531,4.039062C6.761719,4.132812,6.746094,4.222656,6.707031,4.308594L6.703125,4.316406L6.679688,4.367188L6.65625,4.410156C6.507812,4.648438,6.25,4.800781,5.9375,4.800781L3.898438,4.800781L3.898438,9.601562L3.242188,14.167969C3.171875,14.546875,3.460938,14.914062,3.828125,14.984375C4.195312,15.0625,4.726562,14.78125,4.800781,14.398438L5.398438,9.300781L5.699219,9.300781L6.71875,14.4375C6.792969,14.820312,7.316406,15.0625,7.6875,14.984375C8.054688,14.914062,8.257812,14.546875,8.183594,14.167969L7.199219,9.289062L7.199219,5.207031L9.996094,7.949219C9.996094,7.949219,10.285156,7.699219,10.285156,7.695312C11.15625,6.660156,11.699219,5.347656,11.699219,3.976562ZM11.082031,4.5C10.980469,5.398438,10.457031,6.488281,9.800781,7.285156C9.191406,6.664062,7.800781,5.496094,7.199219,4.730469L7.199219,4.5ZM11.082031,3.601562L7.171875,3.601562C7.890625,2.699219,9.234375,1.488281,9.921875,0.789062C10.582031,1.582031,10.984375,2.398438,11.082031,3.601562ZM11.082031,3.601562" fill="#FFFFFF"/>
    </svg>