<svg version="1.1" xmlns="http://www.w3.org/2000/svg" xlink="http://www.w3.org/1999/xlink" x="0px" y="0px" width="15px" height="15px" viewBox="0 0 15 15" style="enable-background:new 0 0 15 15;" space="preserve">
    <path d="M7.734375,6L7.5,6L7.5,8.699219L7.734375,8.699219C8.449219,8.699219,9.023438,8.0625,9.023438,7.347656C9.023438,6.636719,8.449219,6,7.734375,6ZM12,2.101562L3,2.101562C1.351562,2.101562,0,3.449219,0,5.101562L0,9.300781C0,10.949219,1.351562,12.300781,3,12.300781L12,12.300781C13.648438,12.300781,15,10.949219,15,9.300781L15,5.101562C15,3.449219,13.648438,2.101562,12,2.101562ZM6,9.601562L4.800781,9.601562L4.800781,9L3.03125,9L2.621094,9.601562L1.0625,9.601562L4.546875,4.800781L6,4.800781ZM8.101562,9.601562L6.300781,9.601562L6.300781,4.800781L7.875,4.800781C9.214844,4.800781,10.277344,5.886719,10.277344,7.230469C10.277344,8.566406,9.4375,9.601562,8.101562,9.601562ZM10.726562,9.601562L10.3125,9.601562C10.847656,9,11.152344,8.167969,11.152344,7.320312C11.152344,6.367188,10.769531,5.398438,10.09375,4.800781L10.691406,4.800781C11.292969,5.699219,11.628906,6.386719,11.628906,7.320312C11.628906,8.152344,11.367188,9,10.882812,9.601562ZM11.953125,9.601562L11.535156,9.601562C12.074219,9,12.378906,8.167969,12.378906,7.320312C12.378906,6.367188,11.988281,5.398438,11.316406,4.800781L11.910156,4.800781C12.511719,5.699219,12.855469,6.386719,12.855469,7.320312C12.855469,8.152344,12.585938,9,12.101562,9.601562ZM13.328125,9.601562L12.753906,9.601562C13.292969,9,13.597656,8.167969,13.597656,7.320312C13.597656,6.367188,13.210938,5.398438,12.535156,4.800781L13.132812,4.800781C13.734375,5.699219,14.074219,6.386719,14.074219,7.320312C14.074219,8.152344,13.808594,9,13.328125,9.601562ZM4.800781,8.101562L4.800781,6.328125L3.699219,8.101562ZM4.800781,8.101562" fill="#FFFFFF"/>
    </svg>