<svg version="1.1" xmlns="http://www.w3.org/2000/svg" xlink="http://www.w3.org/1999/xlink" x="0px" y="0px" width="15px" height="15px" viewBox="0 0 15 15" style="enable-background:new 0 0 15 15;" space="preserve">
    <path d="M6.363281,1.800781C2.574219,1.800781,0.300781,4.839844,0.300781,6.359375C0.300781,7.878906,1.058594,9.019531,2.574219,9.019531C4.089844,9.019531,4.847656,9.398438,4.847656,10.539062C4.847656,12.058594,5.984375,13.199219,7.5,13.199219C12.425781,13.199219,14.699219,10.539062,14.699219,7.878906C14.699219,3.320312,10.910156,1.800781,6.363281,1.800781ZM5.414062,3.320312C5.9375,3.320312,6.363281,3.746094,6.363281,4.269531C6.363281,4.792969,5.9375,5.21875,5.414062,5.21875C4.894531,5.21875,4.46875,4.792969,4.46875,4.269531C4.46875,3.746094,4.894531,3.320312,5.414062,3.320312ZM8.445312,3.320312C8.96875,3.320312,9.394531,3.746094,9.394531,4.269531C9.394531,4.792969,8.96875,5.21875,8.445312,5.21875C7.925781,5.21875,7.5,4.792969,7.5,4.269531C7.5,3.746094,7.925781,3.320312,8.445312,3.320312ZM11.480469,4.839844C12.003906,4.839844,12.425781,5.265625,12.425781,5.789062C12.425781,6.316406,12.003906,6.738281,11.480469,6.738281C10.957031,6.738281,10.53125,6.316406,10.53125,5.789062C10.53125,5.265625,10.957031,4.839844,11.480469,4.839844ZM2.761719,5.601562C3.285156,5.601562,3.710938,6.023438,3.710938,6.550781C3.710938,7.074219,3.285156,7.5,2.761719,7.5C2.242188,7.5,1.816406,7.074219,1.816406,6.550781C1.816406,6.023438,2.238281,5.601562,2.761719,5.601562ZM7.5,9.398438C8.128906,9.398438,8.636719,9.910156,8.636719,10.539062C8.636719,11.167969,8.128906,11.679688,7.5,11.679688C6.871094,11.679688,6.363281,11.167969,6.363281,10.539062C6.363281,9.910156,6.871094,9.398438,7.5,9.398438ZM7.5,9.398438" fill="#FFFFFF"/>
    </svg>