<?xml version="1.0" encoding="utf-8"?> <!DOCTYPE svg PUBLIC "-//W3C//DTD SVG 1.1//EN" "http://www.w3.org/Graphics/SVG/1.1/DTD/svg11.dtd"><svg version="1.1" id="icon" xmlns="http://www.w3.org/2000/svg" xmlns:xlink="http://www.w3.org/1999/xlink" x="0px"  y="0px" width="15px" height="15px" viewBox="0 0 15 15" enable-background="new 0 0 15 15" xml:space="preserve"><path fill="#FFFFFF" d="M12.300781,1.199219L6.625,1.199219C6.171875,0.601562,5.433594,0.0742188,4.597656,0.0742188C3.222656,0.0742188,2.113281,1.148438,2.113281,2.519531C2.113281,3.894531,3.222656,4.929688,4.597656,4.929688C5.640625,4.929688,6.535156,4.199219,6.902344,3.300781L7.730469,3.300781L8.328125,2.699219L8.929688,3.300781L9.300781,3.300781L9.902344,2.699219L10.5,3.300781L10.871094,3.300781L11.472656,2.699219L12.070312,3.300781L12.300781,3.300781L12.300781,3.382812L12.246094,3.398438L13.429688,2.238281ZM3.792969,3.183594C3.394531,3.183594,3.074219,2.859375,3.074219,2.460938C3.074219,2.066406,3.394531,1.742188,3.792969,1.742188C4.191406,1.742188,4.511719,2.066406,4.511719,2.460938C4.511719,2.859375,4.191406,3.183594,3.792969,3.183594ZM12.898438,9L12.734375,9L10.890625,5.664062C10.8125,5.519531,10.609375,5.398438,10.445312,5.398438L4.855469,5.398438C4.6875,5.398438,4.488281,5.519531,4.410156,5.664062L2.566406,9L2.398438,9C2.070312,9,1.800781,9.269531,1.800781,9.601562L1.800781,12.601562C1.800781,12.929688,2.070312,13.199219,2.398438,13.199219L3,13.199219L3,14.101562C3,14.59375,3.40625,15,3.898438,15L4.199219,15C4.695312,15,5.101562,14.59375,5.101562,14.101562L5.101562,13.199219L10.199219,13.199219L10.199219,14.101562C10.199219,14.59375,10.605469,15,11.101562,15L11.398438,15C11.894531,15,12.300781,14.59375,12.300781,14.101562L12.300781,13.199219L12.898438,13.199219C13.230469,13.199219,13.5,12.929688,13.5,12.601562L13.5,9.601562C13.5,9.269531,13.230469,9,12.898438,9ZM3.449219,11.398438C3.035156,11.398438,2.699219,11.0625,2.699219,10.648438C2.699219,10.234375,3.035156,9.898438,3.449219,9.898438C3.863281,9.898438,4.199219,10.234375,4.199219,10.648438C4.199219,11.0625,3.863281,11.398438,3.449219,11.398438ZM4.050781,9L5.265625,6.570312C5.339844,6.421875,5.535156,6.300781,5.699219,6.300781L9.601562,6.300781C9.765625,6.300781,9.960938,6.421875,10.035156,6.570312L11.25,9ZM11.851562,11.398438C11.4375,11.398438,11.101562,11.0625,11.101562,10.648438C11.101562,10.234375,11.4375,9.898438,11.851562,9.898438C12.265625,9.898438,12.601562,10.234375,12.601562,10.648438C12.601562,11.0625,12.265625,11.398438,11.851562,11.398438ZM11.851562,11.398438"></path> </svg>