<?xml version="1.0" encoding="utf-8"?> <!DOCTYPE svg PUBLIC "-//W3C//DTD SVG 1.1//EN" "http://www.w3.org/Graphics/SVG/1.1/DTD/svg11.dtd"><svg version="1.1" id="icon" xmlns="http://www.w3.org/2000/svg" xmlns:xlink="http://www.w3.org/1999/xlink" x="0px"  y="0px" width="15px" height="15px" viewBox="0 0 15 15" enable-background="new 0 0 15 15" xml:space="preserve"><path fill="#FFFFFF" d="M 1.929688 6.464844 C 1.863281 6.597656 1.816406 6.746094 1.792969 6.90625 C 1.78125 6.984375 1.773438 7.0625 1.773438 7.144531 L 1.832031 10.78125 L 0.570312 13.488281 C 0.527344 13.566406 0.496094 13.660156 0.480469 13.757812 C 0.410156 14.207031 0.71875 14.621094 1.167969 14.691406 C 1.515625 14.742188 1.851562 14.566406 2.007812 14.273438 L 3.398438 11.316406 C 3.425781 11.246094 3.453125 11.175781 3.460938 11.09375 L 3.46875 10.984375 L 3.460938 8.734375 L 5.589844 9.660156 L 5.9375 11.859375 C 6.003906 12.179688 6.269531 12.4375 6.613281 12.492188 C 7.0625 12.554688 7.480469 12.25 7.550781 11.804688 C 7.558594 11.730469 7.558594 11.65625 7.550781 11.582031 L 7.132812 8.929688 C 7.082031 8.671875 6.910156 8.453125 6.671875 8.339844 L 4.765625 7.496094 L 5.980469 5.394531 L 6.582031 6.15625 C 6.644531 6.222656 6.722656 6.28125 6.8125 6.316406 L 9.109375 6.984375 C 9.414062 7.050781 9.722656 6.890625 9.84375 6.597656 C 9.976562 6.265625 9.820312 5.890625 9.488281 5.757812 L 9.457031 5.746094 L 7.460938 5.160156 L 5.960938 3.367188 C 5.738281 3.128906 5.4375 2.960938 5.089844 2.90625 C 4.480469 2.816406 3.902344 3.105469 3.597656 3.59375 Z M 8.511719 11.679688 L 8.367188 12.769531 L 4.417969 13.726562 L 4.457031 14.398438 L 14.082031 14.398438 C 14.425781 14.398438 14.699219 14.125 14.699219 13.785156 L 14.6875 0.867188 L 13.371094 0.558594 L 12.613281 3.957031 L 11.34375 4.488281 L 10.222656 7.621094 L 11.289062 10.015625 L 10.988281 10.9375 Z M 5.832031 2.746094 C 6.507812 2.746094 7.058594 2.199219 7.058594 1.523438 C 7.058594 0.847656 6.507812 0.300781 5.832031 0.300781 C 5.152344 0.300781 4.601562 0.847656 4.601562 1.523438 C 4.601562 2.199219 5.152344 2.746094 5.832031 2.746094 Z M 3.386719 2.9375 C 3.480469 2.773438 3.425781 2.554688 3.257812 2.460938 L 2.660156 2.117188 C 2.492188 2.023438 2.277344 2.074219 2.179688 2.246094 L 0.347656 5.398438 C 0.25 5.5625 0.304688 5.777344 0.476562 5.875 L 1.074219 6.214844 C 1.242188 6.3125 1.453125 6.257812 1.550781 6.089844 Z M 3.386719 2.9375 "></path> </svg>