<svg version="1.1" xmlns="http://www.w3.org/2000/svg" xlink="http://www.w3.org/1999/xlink" x="0px" y="0px" width="15px" height="15px" viewBox="0 0 15 15" style="enable-background:new 0 0 15 15;" space="preserve">
    <path d="M4.679688,6.898438C4.667969,6.601562,4.582031,6.378906,4.4375,6.238281C4.296875,6.085938,4.097656,5.972656,3.84375,5.972656C2.984375,5.972656,2.839844,6.847656,2.839844,7.53125C2.839844,8.402344,3.171875,8.96875,3.84375,8.96875C4.4375,8.96875,4.667969,8.699219,4.734375,8.101562L7.050781,8.101562C6.851562,9.898438,5.441406,10.5,3.84375,10.5C1.984375,10.5,0.550781,9.453125,0.550781,7.503906C0.550781,5.53125,1.9375,4.464844,3.84375,4.464844C5.386719,4.464844,6.84375,5.101562,7.003906,6.898438ZM12.027344,6.898438C12.019531,6.601562,11.929688,6.378906,11.785156,6.238281C11.644531,6.085938,11.445312,5.972656,11.191406,5.972656C10.332031,5.972656,10.191406,6.847656,10.191406,7.53125C10.191406,8.402344,10.523438,8.96875,11.191406,8.96875C11.785156,8.96875,12.019531,8.699219,12.085938,8.101562L14.398438,8.101562C14.203125,9.898438,12.789062,10.5,11.191406,10.5C9.328125,10.5,7.898438,9.453125,7.898438,7.503906C7.898438,5.53125,9.285156,4.464844,11.191406,4.464844C12.734375,4.464844,14.1875,5.101562,14.355469,6.898438ZM12.027344,6.898438" fill="#FFFFFF"/>
    </svg>