<svg version="1.1" xmlns="http://www.w3.org/2000/svg" xlink="http://www.w3.org/1999/xlink" x="0px" y="0px" width="15px" height="15px" viewBox="0 0 15 15" style="enable-background:new 0 0 15 15;" space="preserve">
    <path d="M7.5,0.300781C3.53125,0.300781,0.300781,3.53125,0.300781,7.5C0.300781,11.46875,3.53125,14.699219,7.5,14.699219C11.46875,14.699219,14.699219,11.46875,14.699219,7.5C14.699219,3.53125,11.46875,0.300781,7.5,0.300781ZM8.398438,13.425781L8.398438,10.800781L6.601562,10.800781L6.601562,13.425781C4.011719,13.03125,1.96875,10.988281,1.574219,8.398438L4.199219,8.398438L4.199219,6.601562L1.574219,6.601562C1.96875,4.011719,4.011719,1.96875,6.601562,1.574219L6.601562,4.199219L8.398438,4.199219L8.398438,1.574219C10.988281,1.96875,13.03125,4.011719,13.425781,6.601562L10.800781,6.601562L10.800781,8.398438L13.425781,8.398438C13.03125,10.988281,10.988281,13.03125,8.398438,13.425781ZM8.398438,13.425781" fill="#FFFFFF"/>
    </svg>