<svg version="1.1" xmlns="http://www.w3.org/2000/svg" xlink="http://www.w3.org/1999/xlink" x="0px" y="0px" width="15px" height="15px" viewBox="0 0 15 15" style="enable-background:new 0 0 15 15;" space="preserve">
    <path d="M5.429688,7.363281L2.667969,5.804688L3.628906,4.121094L6.390625,5.679688ZM10.941406,8.800781L6.277344,6.171875L5.796875,7.015625L10.460938,9.640625ZM11.507812,9.117188L11.027344,9.960938L13.433594,11.316406L13.914062,10.472656ZM10.859375,9.960938C10.824219,10.027344,10.722656,10.042969,10.632812,9.992188C10.546875,9.945312,10.507812,9.851562,10.546875,9.785156L11.109375,8.800781C11.148438,8.730469,11.246094,8.714844,11.335938,8.765625C11.421875,8.816406,11.460938,8.910156,11.421875,8.976562ZM14.410156,10.5C14.3125,10.449219,14.207031,10.421875,14.105469,10.425781L13.492188,11.503906C13.539062,11.59375,13.613281,11.671875,13.710938,11.726562C13.980469,11.878906,14.324219,11.789062,14.472656,11.53125L14.628906,11.25C14.78125,10.988281,14.679688,10.652344,14.410156,10.5ZM6.65625,5.355469C6.585938,5.484375,6.421875,5.53125,6.289062,5.457031L3.871094,4.09375C3.742188,4.023438,3.699219,3.859375,3.769531,3.726562C3.84375,3.597656,4.011719,3.554688,4.140625,3.628906L6.554688,4.988281C6.6875,5.0625,6.730469,5.226562,6.65625,5.355469ZM6.996094,4.761719C6.921875,4.894531,6.757812,4.9375,6.628906,4.863281L4.210938,3.503906C4.082031,3.429688,4.035156,3.265625,4.109375,3.136719C4.183594,3.007812,4.347656,2.960938,4.476562,3.035156L6.894531,4.398438C7.027344,4.46875,7.070312,4.632812,6.996094,4.761719ZM4.953125,8.347656C4.878906,8.476562,4.714844,8.519531,4.585938,8.445312L2.167969,7.082031C2.035156,7.011719,1.992188,6.847656,2.066406,6.71875C2.136719,6.589844,2.304688,6.542969,2.433594,6.617188L4.851562,7.980469C4.980469,8.050781,5.027344,8.214844,4.953125,8.347656ZM5.292969,7.753906C5.21875,7.882812,5.054688,7.925781,4.921875,7.851562L2.503906,6.492188C2.375,6.417969,2.328125,6.253906,2.402344,6.125C2.476562,5.996094,2.640625,5.949219,2.773438,6.023438L5.1875,7.386719C5.316406,7.460938,5.363281,7.625,5.292969,7.753906ZM1.234375,10.175781L5.496094,10.175781L5.496094,10.667969L1.234375,10.667969ZM6.425781,11.199219C6.398438,11.035156,6.257812,10.910156,6.085938,10.910156L0.648438,10.910156C0.476562,10.910156,0.332031,11.035156,0.304688,11.199219L0.300781,11.199219L0.300781,12L6.433594,12L6.433594,11.199219ZM6.425781,11.199219" fill="#FFFFFF"/>
    </svg>