<?xml version="1.0" encoding="utf-8"?> <!DOCTYPE svg PUBLIC "-//W3C//DTD SVG 1.1//EN" "http://www.w3.org/Graphics/SVG/1.1/DTD/svg11.dtd"><svg version="1.1" id="icon" xmlns="http://www.w3.org/2000/svg" xmlns:xlink="http://www.w3.org/1999/xlink" x="0px"  y="0px" width="15px" height="15px" viewBox="0 0 15 15" enable-background="new 0 0 15 15" xml:space="preserve"><path fill="#FFFFFF" d="M12.300781,4.199219L10.800781,4.199219L10.800781,0.875C10.800781,0.558594,10.53125,0.300781,10.199219,0.300781C9.867188,0.300781,9.601562,0.558594,9.601562,0.875L9.601562,4.199219L4.800781,4.199219L4.800781,0.875C4.800781,0.558594,4.53125,0.300781,4.199219,0.300781C3.867188,0.300781,3.601562,0.558594,3.601562,0.875L3.601562,4.199219L2.101562,4.199219C1.933594,4.199219,1.800781,4.460938,1.800781,4.621094L1.800781,6.058594C1.800781,7.789062,4.800781,9.792969,4.800781,12.570312L4.800781,13.5L6,13.5L6,14.699219L8.398438,14.699219L8.398438,13.5L9.601562,13.5L9.601562,12.570312C9.601562,9.792969,12.601562,7.789062,12.601562,6.058594L12.601562,4.621094C12.601562,4.460938,12.464844,4.199219,12.300781,4.199219M6.871094,9.117188C6.890625,9.054688,6.851562,9,6.785156,9L5.617188,9C5.546875,9,5.53125,8.960938,5.574219,8.910156C5.574219,8.910156,7.972656,5.863281,8.019531,5.804688C8.058594,5.746094,8.097656,5.765625,8.082031,5.832031C8.066406,5.914062,7.550781,7.992188,7.550781,7.992188C7.527344,8.054688,7.5625,8.101562,7.632812,8.101562L8.796875,8.101562C8.867188,8.101562,8.886719,8.144531,8.847656,8.199219C8.847656,8.199219,6.441406,11.320312,6.398438,11.371094C6.355469,11.421875,6.3125,11.40625,6.335938,11.320312C6.359375,11.230469,6.871094,9.117188,6.871094,9.117188"></path> </svg>