<?xml version="1.0" encoding="utf-8"?> <!DOCTYPE svg PUBLIC "-//W3C//DTD SVG 1.1//EN" "http://www.w3.org/Graphics/SVG/1.1/DTD/svg11.dtd"><svg version="1.1" id="icon" xmlns="http://www.w3.org/2000/svg" xmlns:xlink="http://www.w3.org/1999/xlink" x="0px"  y="0px" width="15px" height="15px" viewBox="0 0 15 15" enable-background="new 0 0 15 15" xml:space="preserve"><path fill="#FFFFFF" d="M 0.726562 10.085938 L 0.714844 10.046875 C 0.714844 10.019531 0.734375 9.996094 0.765625 9.996094 L 2.222656 10 C 2.296875 10 2.355469 9.9375 2.355469 9.863281 C 2.355469 9.804688 2.328125 9.765625 2.273438 9.734375 L 0.949219 9.0625 C 0.925781 9.046875 0.910156 9.019531 0.910156 8.984375 C 0.910156 8.960938 0.917969 8.933594 0.933594 8.921875 C 0.933594 8.921875 4.40625 5.65625 12.09375 8.820312 L 14.207031 7.722656 C 14.226562 7.714844 14.25 7.707031 14.277344 7.707031 C 14.367188 7.707031 14.441406 7.785156 14.441406 7.878906 C 14.441406 7.914062 14.429688 7.941406 14.417969 7.96875 L 13.171875 9.613281 L 14.417969 11.261719 C 14.429688 11.289062 14.441406 11.320312 14.441406 11.351562 C 14.441406 11.449219 14.367188 11.527344 14.277344 11.527344 C 14.25 11.527344 14.226562 11.519531 14.207031 11.507812 L 12.09375 10.410156 C 12.09375 10.410156 4.746094 13.519531 0.726562 10.085938 Z M 3.074219 9.410156 C 3.351562 9.410156 3.574219 9.175781 3.574219 8.878906 C 3.574219 8.578125 3.351562 8.34375 3.074219 8.34375 C 2.796875 8.34375 2.574219 8.578125 2.574219 8.878906 C 2.574219 9.175781 2.796875 9.410156 3.074219 9.410156 Z M 9.601562 3.898438 L 9.601562 5.699219 L 13.851562 5.699219 C 14.320312 5.699219 14.699219 5.296875 14.699219 4.800781 C 14.699219 4.296875 14.320312 3.898438 13.851562 3.898438 Z M 1.769531 5.195312 L 2.15625 5.023438 L 2.398438 5.464844 L 2.789062 5.164062 L 3.070312 5.578125 L 3.445312 5.257812 L 3.746094 5.652344 L 4.101562 5.308594 L 4.421875 5.683594 L 4.761719 5.320312 L 5.101562 5.683594 L 5.441406 5.320312 L 5.78125 5.683594 L 6.121094 5.320312 L 6.460938 5.683594 L 6.800781 5.320312 L 7.140625 5.683594 L 7.476562 5.320312 L 7.816406 5.683594 L 8.15625 5.320312 L 8.5 5.683594 L 8.894531 5.320312 L 9.300781 5.683594 L 9.300781 3.898438 L 0.300781 3.898438 L 0.300781 3.910156 C 0.601562 4.429688 1.207031 4.871094 1.769531 5.195312 Z M 1.769531 5.195312 "></path> </svg>