<?xml version="1.0" encoding="utf-8"?> <!DOCTYPE svg PUBLIC "-//W3C//DTD SVG 1.1//EN" "http://www.w3.org/Graphics/SVG/1.1/DTD/svg11.dtd"><svg version="1.1" id="icon" xmlns="http://www.w3.org/2000/svg" xmlns:xlink="http://www.w3.org/1999/xlink" x="0px"  y="0px" width="15px" height="15px" viewBox="0 0 15 15" enable-background="new 0 0 15 15" xml:space="preserve"><path fill="#FFFFFF" d="M 3.765625 14.84375 C 3.664062 15.023438 3.371094 15.050781 3.117188 14.90625 L 1.511719 13.992188 C 1.257812 13.847656 1.132812 13.585938 1.234375 13.40625 L 8.058594 2.59375 C 9.039062 1.007812 5.609375 1.148438 4.765625 1.613281 C 5.402344 0.472656 7.433594 0.09375 8.75 0 L 9.132812 0.0234375 C 9.875 0.394531 10.941406 0.953125 11.644531 1.417969 C 12.160156 2.226562 12.703125 2.65625 13.476562 2.652344 C 14.480469 3.425781 12.910156 5.527344 11.921875 4.554688 C 11.925781 4.070312 10.53125 2.828125 9.554688 3.851562 Z M 3.765625 14.84375 "></path> </svg>