<?xml version="1.0" encoding="utf-8"?> <!DOCTYPE svg PUBLIC "-//W3C//DTD SVG 1.1//EN" "http://www.w3.org/Graphics/SVG/1.1/DTD/svg11.dtd"><svg version="1.1" id="icon" xmlns="http://www.w3.org/2000/svg" xmlns:xlink="http://www.w3.org/1999/xlink" x="0px"  y="0px" width="15px" height="15px" viewBox="0 0 15 15" enable-background="new 0 0 15 15" xml:space="preserve"><path fill="#FFFFFF" d="M 8.253906 2.875 C 8.433594 3.039062 8.605469 3.195312 8.734375 3.394531 L 8.808594 3.503906 L 8.925781 3.445312 C 9.253906 3.289062 9.480469 3.039062 9.695312 2.792969 C 9.859375 2.609375 10.015625 2.4375 10.210938 2.304688 L 10.328125 2.226562 L 10.253906 2.101562 C 9.914062 1.566406 9.472656 1.117188 8.941406 0.773438 L 8.832031 0.703125 L 8.746094 0.804688 C 8.410156 1.203125 8.042969 1.578125 7.644531 1.917969 L 7.558594 1.992188 L 7.609375 2.09375 C 7.765625 2.425781 8.011719 2.652344 8.253906 2.875 Z M 10.183594 5.144531 C 11.308594 5.144531 12.234375 4.683594 12.78125 3.847656 L 12.847656 3.746094 L 12.765625 3.660156 C 12.671875 3.558594 12.578125 3.457031 12.488281 3.351562 C 12.214844 3.039062 11.933594 2.714844 11.539062 2.5 L 11.398438 2.425781 L 11.332031 2.570312 C 10.867188 3.535156 9.96875 3.738281 9.296875 3.738281 C 8.121094 3.738281 6.707031 3.082031 6.078125 2.242188 L 5.582031 1.582031 L 5.8125 2.375 C 6.242188 3.847656 8.285156 5.144531 10.183594 5.144531 Z M 6.289062 7.734375 C 6.757812 6.84375 6.777344 5.796875 6.339844 4.851562 C 5.90625 3.917969 5.105469 3.257812 4.199219 3.089844 C 4.007812 3.054688 3.816406 3.035156 3.636719 3.035156 C 2.53125 3.035156 1.808594 3.679688 1.113281 4.300781 C 0.859375 4.527344 0.617188 4.742188 0.363281 4.925781 L 0.183594 5.058594 L 0.367188 5.183594 C 0.425781 5.222656 0.574219 5.445312 0.691406 5.617188 C 1.070312 6.160156 1.386719 6.601562 1.722656 6.601562 C 1.839844 6.601562 1.949219 6.460938 2.332031 6.027344 C 2.496094 5.847656 2.675781 5.617188 2.777344 5.539062 C 3.214844 5.191406 3.816406 4.714844 4.472656 4.714844 C 4.5625 4.714844 4.648438 4.722656 4.738281 4.738281 C 5.039062 4.800781 5.222656 4.941406 5.296875 5.171875 C 5.449219 5.640625 5.101562 6.359375 4.804688 6.675781 C 4.65625 6.835938 4.492188 6.953125 4.316406 7.074219 C 4.070312 7.25 3.8125 7.429688 3.597656 7.75 L 3.53125 7.855469 L 3.621094 7.941406 L 4.007812 8.320312 C 4.339844 8.644531 4.683594 8.980469 5.039062 9.300781 L 5.15625 9.40625 L 5.253906 9.28125 C 5.480469 9 5.714844 8.703125 5.949219 8.398438 C 6.011719 8.488281 6.078125 8.585938 6.144531 8.679688 C 6.65625 9.414062 7.234375 10.242188 6.859375 11.324219 C 6.578125 12.132812 5.625 12.65625 4.554688 12.582031 C 3.285156 12.492188 2.15625 11.410156 1.105469 9.273438 C 1.039062 9.140625 0.984375 8.992188 0.933594 8.84375 C 0.808594 8.507812 0.683594 8.15625 0.390625 7.9375 L 0.09375 7.71875 L 0.152344 8.082031 C 0.460938 10.011719 1.367188 11.875 2.578125 13.0625 C 3.308594 13.785156 4.507812 14.25 5.636719 14.25 C 6.9375 14.25 8.332031 13.574219 8.339844 11.675781 C 8.347656 9.898438 7.25 8.742188 6.367188 7.816406 Z M 14.5 6.105469 C 14.152344 5.453125 12.835938 4.980469 12.179688 5.125 C 11.179688 5.34375 10.480469 5.90625 9.863281 6.40625 C 9.230469 6.914062 8.683594 7.355469 7.957031 7.355469 C 7.734375 7.355469 7.511719 7.316406 7.269531 7.238281 L 6.886719 7.109375 L 7.09375 7.457031 C 7.574219 8.253906 8.132812 8.640625 8.800781 8.640625 C 9.34375 8.640625 9.902344 8.378906 10.457031 8.039062 L 10.578125 8.40625 C 10.859375 9.238281 12.082031 10.472656 13.191406 10.472656 L 13.257812 10.46875 C 13.742188 10.449219 14.148438 10.175781 14.429688 9.679688 C 15.007812 8.660156 14.941406 6.921875 14.5 6.105469 Z M 11.21875 7.539062 C 12.039062 6.984375 12.898438 6.410156 13.605469 6.535156 C 13.910156 7.066406 13.785156 7.527344 13.621094 7.824219 C 13.3125 8.382812 12.628906 8.777344 11.964844 8.777344 C 11.648438 8.777344 11.199219 8.6875 10.835938 8.261719 L 10.578125 7.964844 C 10.792969 7.828125 11.007812 7.683594 11.21875 7.539062 Z M 11.21875 7.539062 "></path> </svg>