<?xml version="1.0" encoding="utf-8"?> <!DOCTYPE svg PUBLIC "-//W3C//DTD SVG 1.1//EN" "http://www.w3.org/Graphics/SVG/1.1/DTD/svg11.dtd"><svg version="1.1" id="icon" xmlns="http://www.w3.org/2000/svg" xmlns:xlink="http://www.w3.org/1999/xlink" x="0px"  y="0px" width="15px" height="15px" viewBox="0 0 15 15" enable-background="new 0 0 15 15" xml:space="preserve"><path fill="#FFFFFF" d="M13.800781,9.601562L13.800781,12L15,12L15,8.398438L1.199219,8.398438L1.199219,3.496094C1.199219,3.160156,0.9375,2.886719,0.601562,2.886719C0.261719,2.886719,0,3.160156,0,3.496094L0,12L1.199219,12L1.199219,9.601562ZM3.097656,5.957031C3.710938,5.957031,4.207031,5.460938,4.207031,4.847656C4.207031,4.238281,3.710938,3.746094,3.097656,3.746094C2.488281,3.746094,1.992188,4.238281,1.992188,4.847656C1.992188,5.460938,2.488281,5.957031,3.097656,5.957031ZM15,7.5L14.996094,6.039062C14.992188,5.558594,14.585938,5.253906,14.113281,5.195312L5.425781,4.347656L5.363281,4.34375C5.0625,4.34375,4.800781,4.59375,4.800781,4.894531L4.800781,6.601562L2.5625,6.601562C2.261719,6.601562,2.015625,6.75,2.015625,7.050781C2.015625,7.355469,2.261719,7.5,2.5625,7.5ZM15,7.5"></path> </svg>