<svg version="1.1" xmlns="http://www.w3.org/2000/svg" xlink="http://www.w3.org/1999/xlink" x="0px" y="0px" width="15px" height="15px" viewBox="0 0 15 15" style="enable-background:new 0 0 15 15;" space="preserve">
    <path d="M13.800781,8.699219L13.800781,14.699219L9.300781,14.699219L9.300781,13.5L5.398438,13.5L5.398438,14.699219L1.199219,14.699219L1.199219,8.699219ZM11.085938,7.605469C10.914062,6.855469,10.523438,6.191406,9.910156,5.6875C9.320312,5.191406,8.617188,5.101562,7.804688,4.800781L7.800781,4.800781L7.800781,2.902344L7.957031,2.859375L8.300781,2.730469C8.433594,2.6875,8.554688,2.648438,8.679688,2.625C8.800781,2.59375,8.886719,2.582031,8.945312,2.582031C9.058594,2.582031,9.199219,2.601562,9.367188,2.636719C9.539062,2.679688,9.71875,2.722656,9.902344,2.773438C10.097656,2.832031,10.265625,2.875,10.433594,2.914062C10.59375,2.949219,10.726562,2.964844,10.835938,2.964844C11.011719,2.964844,11.101562,2.941406,11.398438,2.886719L11.398438,0.714844C11.101562,0.785156,11.046875,0.824219,10.835938,0.824219C10.726562,0.824219,10.589844,0.808594,10.429688,0.769531C10.265625,0.734375,10.09375,0.6875,9.902344,0.632812C9.714844,0.574219,9.542969,0.53125,9.382812,0.496094C9.21875,0.457031,9.113281,0.441406,8.996094,0.441406C8.613281,0.441406,8.101562,0.53125,7.800781,0.695312L7.800781,0.300781L7.199219,0.300781L7.199219,4.800781L7.179688,4.800781C6.375,5.101562,5.667969,5.210938,5.074219,5.703125C4.472656,6.210938,4.082031,6.828125,3.898438,7.582031C3.898438,7.582031,3.324219,7.5,3.324219,8.101562L11.714844,8.101562C11.714844,7.5,11.085938,7.605469,11.085938,7.605469ZM11.085938,7.605469" fill="#FFFFFF"/>
    </svg>