<?xml version="1.0" encoding="utf-8"?> <!DOCTYPE svg PUBLIC "-//W3C//DTD SVG 1.1//EN" "http://www.w3.org/Graphics/SVG/1.1/DTD/svg11.dtd"><svg version="1.1" id="icon" xmlns="http://www.w3.org/2000/svg" xmlns:xlink="http://www.w3.org/1999/xlink" x="0px"  y="0px" width="15px" height="15px" viewBox="0 0 15 15" enable-background="new 0 0 15 15" xml:space="preserve"><path fill="#FFFFFF" d="M 2.78125 5.699219 L 3.957031 5.699219 L 4.136719 11.101562 L 2.625 11.101562 Z M 1.800781 11.398438 L 13.199219 11.398438 L 13.199219 12 L 14.101562 12 L 14.101562 12.898438 L 14.699219 12.898438 L 14.699219 13.5 L 0.300781 13.5 L 0.300781 12.898438 L 0.898438 12.898438 L 0.898438 12 L 1.800781 12 Z M 13.800781 4.144531 L 7.5 1.5 L 1.199219 4.144531 L 1.199219 4.5 L 13.800781 4.5 Z M 2.398438 4.800781 L 12.601562 4.800781 L 12.601562 5.398438 L 2.398438 5.398438 Z M 11.019531 5.699219 L 12.195312 5.699219 L 12.378906 11.101562 L 10.863281 11.101562 Z M 8.273438 5.699219 L 9.449219 5.699219 L 9.628906 11.101562 L 8.117188 11.101562 Z M 5.527344 5.699219 L 6.703125 5.699219 L 6.882812 11.101562 L 5.371094 11.101562 Z M 5.527344 5.699219 "></path> </svg>