<?xml version="1.0" encoding="utf-8"?> <!DOCTYPE svg PUBLIC "-//W3C//DTD SVG 1.1//EN" "http://www.w3.org/Graphics/SVG/1.1/DTD/svg11.dtd"><svg version="1.1" id="icon" xmlns="http://www.w3.org/2000/svg" xmlns:xlink="http://www.w3.org/1999/xlink" x="0px"  y="0px" width="15px" height="15px" viewBox="0 0 15 15" enable-background="new 0 0 15 15" xml:space="preserve"><path fill="#FFFFFF" d="M 10.53125 3.136719 C 11.09375 3.136719 11.550781 2.667969 11.550781 2.085938 C 11.550781 1.511719 11.09375 1.042969 10.53125 1.042969 C 9.972656 1.042969 9.515625 1.511719 9.515625 2.085938 C 9.515625 2.667969 9.96875 3.136719 10.53125 3.136719 Z M 11.289062 3.371094 L 9.804688 3.371094 L 7.269531 0.765625 C 7.074219 0.550781 6.746094 0.542969 6.535156 0.75 C 6.328125 0.953125 6.320312 1.289062 6.515625 1.503906 L 9.164062 4.230469 L 9.164062 13.261719 C 9.164062 13.585938 9.417969 13.847656 9.734375 13.847656 C 10.050781 13.847656 10.304688 13.585938 10.304688 13.261719 L 10.304688 8.363281 L 10.769531 8.363281 L 10.773438 13.261719 C 10.773438 13.589844 11.03125 13.851562 11.34375 13.851562 C 11.660156 13.851562 11.914062 13.589844 11.914062 13.261719 L 11.910156 4.230469 L 14.558594 1.503906 C 14.753906 1.292969 14.746094 0.953125 14.539062 0.75 C 14.328125 0.542969 14 0.554688 13.804688 0.765625 Z M 5.90625 7.355469 C 5.753906 7.191406 5.539062 7.097656 5.304688 7.097656 L 3.175781 7.097656 C 2.941406 7.097656 2.730469 7.191406 2.578125 7.355469 L 0.445312 9.550781 C 0.246094 9.765625 0.253906 10.105469 0.460938 10.308594 C 0.667969 10.511719 1 10.503906 1.195312 10.289062 L 2.851562 8.585938 L 2.851562 10.863281 L 0.992188 10.863281 C 0.652344 10.863281 0.375 11.144531 0.375 11.496094 C 0.375 11.679688 0.445312 11.84375 0.566406 11.960938 L 2.65625 14.113281 C 2.839844 14.390625 3.203125 14.480469 3.492188 14.308594 C 3.796875 14.128906 3.898438 13.734375 3.722656 13.421875 L 2.53125 12.199219 L 5.980469 12.199219 L 4.78125 13.425781 C 4.613281 13.734375 4.710938 14.132812 5.015625 14.3125 C 5.300781 14.484375 5.667969 14.394531 5.851562 14.117188 L 7.945312 11.964844 C 8.066406 11.847656 8.132812 11.683594 8.132812 11.5 C 8.132812 11.148438 7.859375 10.867188 7.515625 10.867188 L 5.660156 10.867188 L 5.660156 8.613281 L 7.289062 10.292969 C 7.484375 10.507812 7.8125 10.515625 8.023438 10.3125 C 8.230469 10.109375 8.238281 9.769531 8.039062 9.554688 Z M 4.261719 6.871094 C 4.824219 6.871094 5.277344 6.402344 5.277344 5.828125 C 5.277344 5.246094 4.824219 4.78125 4.261719 4.78125 C 3.703125 4.78125 3.246094 5.246094 3.246094 5.828125 C 3.246094 6.402344 3.703125 6.871094 4.261719 6.871094 Z M 4.261719 6.871094 "></path> </svg>