<svg version="1.1" xmlns="http://www.w3.org/2000/svg" xlink="http://www.w3.org/1999/xlink" x="0px" y="0px" width="15px" height="15px" viewBox="0 0 15 15" style="enable-background:new 0 0 15 15;" space="preserve">
    <path d="M14.628906,2.46875C14.554688,2.140625,14.550781,2.101562,13.816406,2.101562L13.082031,2.101562L12.933594,1.695312C12.738281,1.109375,12.085938,0.546875,11.433594,0.386719C11.058594,0.292969,9.714844,0.273438,6.441406,0.296875C2.320312,0.328125,1.925781,0.351562,1.519531,0.53125C0.605469,0.941406,0.101562,1.976562,0.371094,2.886719C0.5625,3.519531,0.957031,3.988281,1.519531,4.242188C1.925781,4.425781,2.320312,4.445312,6.441406,4.472656C9.714844,4.496094,11.058594,4.46875,11.433594,4.375C12.085938,4.210938,12.738281,3.632812,12.933594,3.039062C13.082031,2.59375,13.089844,2.589844,13.574219,2.621094L14.058594,2.652344L14.09375,4.191406L14.125,5.730469L12.695312,6.066406C11.910156,6.253906,10.929688,6.488281,10.511719,6.59375C10.097656,6.699219,9.089844,6.945312,8.273438,7.136719L6.789062,7.492188L6.789062,8.273438C6.789062,9.046875,6.855469,9.054688,6.394531,9.441406L6,9.828125L6,14.699219L8.101562,14.699219L8.101562,9.828125L7.671875,9.433594C7.214844,9.050781,7.222656,9.023438,7.257812,8.433594L7.300781,7.828125L7.832031,7.699219C8.117188,7.625,9.039062,7.402344,9.867188,7.199219C10.699219,7,12.128906,6.65625,13.042969,6.433594L14.699219,6.035156L14.699219,4.433594C14.699219,3.558594,14.667969,2.648438,14.628906,2.46875ZM7.433594,13.390625C7.433594,13.644531,7.386719,13.695312,7.128906,13.722656C6.804688,13.753906,6.664062,13.59375,6.734375,13.269531C6.761719,13.144531,6.871094,13.089844,7.101562,13.089844C7.394531,13.089844,7.433594,13.125,7.433594,13.390625ZM7.433594,13.390625" fill="#FFFFFF"/>
    </svg>