<svg version="1.1" xmlns="http://www.w3.org/2000/svg" xlink="http://www.w3.org/1999/xlink" x="0px" y="0px" width="15px" height="15px" viewBox="0 0 15 15" style="enable-background:new 0 0 15 15;" space="preserve">
    <path d="M10.386719,2.621094C11.019531,2.621094,11.53125,2.101562,11.53125,1.460938C11.53125,0.820312,11.019531,0.300781,10.386719,0.300781C9.75,0.300781,9.234375,0.820312,9.234375,1.460938C9.234375,2.101562,9.75,2.621094,10.386719,2.621094ZM13.46875,7.046875C13.269531,7.511719,12.84375,7.371094,12.84375,7.371094L11.042969,6.6875C10.863281,6.621094,10.722656,6.472656,10.675781,6.285156L10.269531,5.089844L9.632812,6.851562L11.5,8.828125C11.734375,9.242188,11.699219,9.546875,11.699219,9.546875L11.699219,12.269531C11.699219,12.269531,12.917969,12.8125,12.917969,13.484375C12.917969,14.15625,12.386719,14.699219,11.722656,14.699219C11.625,14.699219,11.539062,14.691406,11.445312,14.664062L7.5,13.78125L7.5,13.191406L10.5,12.527344L10.5,10.046875L8.484375,8.035156L8.167969,10.140625C8.117188,10.410156,7.921875,10.65625,7.8125,10.78125L6.425781,12.398438C6.40625,12.382812,6.378906,12.382812,6.351562,12.386719L6.425781,12.398438C6.785156,12.683594,6.972656,13.160156,6.859375,13.636719C6.707031,14.289062,6.054688,14.695312,5.410156,14.539062C5.316406,14.515625,5.226562,14.484375,5.144531,14.445312L1.5,12.65625L1.636719,12.085938L4.976562,12.132812L6.566406,10.28125L7.054688,6.640625L8.085938,3.882812L6.660156,4.710938L5.808594,6.394531C5.550781,6.929688,5.085938,6.648438,5.085938,6.648438C4.664062,6.40625,4.828125,5.996094,4.828125,5.996094L5.699219,4.214844C5.933594,3.765625,6.121094,3.695312,6.121094,3.695312L8.160156,2.570312C8.601562,2.261719,9.117188,2.5,9.117188,2.5L10.292969,2.949219C10.878906,3.160156,10.902344,3.492188,10.902344,3.492188L11.628906,5.839844L13.195312,6.394531C13.195312,6.394531,13.613281,6.578125,13.46875,7.046875ZM11.636719,14.148438L11.730469,14.15625C12.09375,14.15625,12.378906,13.855469,12.378906,13.484375C12.378906,13.117188,12,12.8125,11.699219,12.8125L11.699219,12.953125C11.699219,13.308594,11.429688,13.59375,11.078125,13.59375C10.769531,13.59375,10.535156,13.367188,10.476562,13.074219L8.632812,13.484375ZM5.449219,13.980469L5.53125,14.007812C5.894531,14.09375,6.25,13.871094,6.332031,13.511719C6.398438,13.238281,6.285156,12.964844,6.074219,12.8125L5.800781,13.128906C5.570312,13.394531,5.167969,13.425781,4.90625,13.195312C4.75,13.058594,4.6875,12.863281,4.699219,12.671875L2.675781,12.636719ZM5.449219,13.980469" fill="#FFFFFF"/>
    </svg>