<svg version="1.1" xmlns="http://www.w3.org/2000/svg" xlink="http://www.w3.org/1999/xlink" x="0px" y="0px" width="15px" height="15px" viewBox="0 0 15 15" style="enable-background:new 0 0 15 15;" space="preserve">
    <path d="M6.164062,14.28125C6.164062,14.050781,5.980469,13.863281,5.757812,13.863281C5.53125,13.863281,5.347656,14.050781,5.347656,14.28125C5.347656,14.511719,5.53125,14.699219,5.757812,14.699219C5.980469,14.699219,6.164062,14.511719,6.164062,14.28125ZM6.164062,14.28125" fill="#FFFFFF"/> <path d="M9.042969,14.691406C9.269531,14.691406,9.449219,14.503906,9.449219,14.269531C9.449219,14.039062,9.269531,13.847656,9.042969,13.847656C8.820312,13.847656,8.636719,14.039062,8.636719,14.269531C8.636719,14.503906,8.820312,14.691406,9.042969,14.691406ZM8.34375,2.519531C8.9375,2.519531,9.425781,2.023438,9.425781,1.410156C9.421875,0.796875,8.9375,0.300781,8.34375,0.300781C7.746094,0.300781,7.261719,0.796875,7.261719,1.410156C7.261719,2.023438,7.746094,2.519531,8.34375,2.519531ZM2.480469,12.238281C2.429688,12.335938,2.398438,12.449219,2.398438,12.570312C2.398438,12.960938,2.710938,13.28125,3.09375,13.28125C3.367188,13.28125,3.601562,13.117188,3.714844,12.878906L6.074219,8.710938L5.09375,7.703125ZM7.589844,12.050781C7.476562,12.289062,7.242188,12.453125,6.96875,12.453125C6.589844,12.453125,6.28125,12.132812,6.28125,11.742188C6.28125,11.621094,6.308594,11.511719,6.359375,11.414062L7.386719,9.554688L5.382812,7.507812C4.613281,6.714844,5.164062,5.855469,5.164062,5.855469L6.242188,3.894531L3.382812,3.898438C3.066406,3.898438,2.816406,3.621094,2.816406,3.296875C2.816406,2.980469,3.066406,2.699219,3.382812,2.699219L12.035156,2.699219C12.347656,2.699219,12.601562,2.980469,12.601562,3.300781C12.601562,3.625,12.347656,3.898438,12.035156,3.898438L8.734375,3.898438L7.160156,6.738281L8.761719,8.367188C9.324219,8.921875,8.960938,9.546875,8.960938,9.546875ZM10.199219,13.199219C10.199219,13.367188,10.066406,13.5,9.898438,13.5L4.800781,13.5C4.632812,13.5,4.5,13.367188,4.5,13.199219C4.5,13.035156,4.632812,12.898438,4.800781,12.898438L9.898438,12.898438C10.066406,12.898438,10.199219,13.035156,10.199219,13.199219ZM10.199219,13.199219" fill="#FFFFFF"/>
    </svg>