<?xml version="1.0" encoding="utf-8"?> <!DOCTYPE svg PUBLIC "-//W3C//DTD SVG 1.1//EN" "http://www.w3.org/Graphics/SVG/1.1/DTD/svg11.dtd"><svg version="1.1" id="icon" xmlns="http://www.w3.org/2000/svg" xmlns:xlink="http://www.w3.org/1999/xlink" x="0px"  y="0px" width="15px" height="15px" viewBox="0 0 15 15" enable-background="new 0 0 15 15" xml:space="preserve"><path fill="#FFFFFF" d="M0.300781,1.5L2.585938,3.867188L3.464844,3.070312L2.667969,1.507812ZM10.601562,8.132812C11.03125,8.253906,11.496094,8.003906,11.621094,7.558594C11.738281,7.121094,11.484375,6.664062,11.050781,6.539062L10.710938,6.445312L10.273438,8.035156ZM10.335938,6.339844L7.601562,5.558594C7.421875,5.511719,7.238281,5.621094,7.1875,5.804688L6.933594,6.730469C6.882812,6.914062,6.980469,7.101562,7.164062,7.15625L9.898438,7.929688ZM10.765625,8.976562C10.558594,8.773438,10.296875,8.613281,9.996094,8.53125L6.679688,7.589844L4.644531,3.925781C4.535156,3.738281,4.363281,3.585938,4.140625,3.523438C3.695312,3.398438,3.230469,3.664062,3.105469,4.117188C3.046875,4.332031,3.074219,4.550781,3.171875,4.734375L5.71875,9.265625C5.71875,9.265625,5.929688,9.605469,6.453125,9.78125L11.085938,11.097656L13.234375,13.308594C13.308594,13.386719,13.402344,13.445312,13.511719,13.476562C13.835938,13.570312,14.175781,13.371094,14.269531,13.046875C14.332031,12.816406,14.257812,12.578125,14.097656,12.425781ZM13.238281,9.890625L13.722656,10.53125L14.699219,9.445312L13.871094,8.980469C13.953125,8.390625,13.589844,7.824219,13.015625,7.660156C12.382812,7.480469,11.722656,7.851562,11.546875,8.492188C11.367188,9.140625,11.738281,9.804688,12.371094,9.984375C12.671875,10.070312,12.980469,10.023438,13.238281,9.890625ZM13.238281,9.890625"></path> </svg>