<svg version="1.1" xmlns="http://www.w3.org/2000/svg" xlink="http://www.w3.org/1999/xlink" x="0px" y="0px" width="15px" height="15px" viewBox="0 0 15 15" style="enable-background:new 0 0 15 15;" space="preserve">
    <path d="M14.101562,14.699219C13.8125,14.699219,13.535156,14.632812,13.289062,14.519531C13.035156,14.402344,12.75,14.332031,12.449219,14.332031C12.15625,14.332031,11.867188,14.402344,11.617188,14.519531C11.367188,14.632812,11.089844,14.699219,10.800781,14.699219C10.515625,14.699219,10.234375,14.632812,9.988281,14.519531C9.734375,14.402344,9.449219,14.332031,9.152344,14.332031C8.855469,14.332031,8.570312,14.402344,8.316406,14.519531C8.066406,14.632812,7.789062,14.699219,7.5,14.699219C7.210938,14.699219,6.9375,14.632812,6.6875,14.519531C6.433594,14.402344,6.148438,14.332031,5.851562,14.332031C5.550781,14.332031,5.265625,14.402344,5.011719,14.519531C4.765625,14.632812,4.488281,14.699219,4.199219,14.699219C3.914062,14.699219,3.632812,14.632812,3.386719,14.519531C3.132812,14.402344,2.847656,14.332031,2.550781,14.332031C2.253906,14.332031,1.964844,14.402344,1.714844,14.519531C1.464844,14.632812,1.1875,14.699219,0.898438,14.699219L0.898438,13.46875C1.1875,13.46875,1.464844,13.402344,1.714844,13.289062C1.964844,13.175781,2.253906,13.105469,2.550781,13.105469C2.847656,13.105469,3.132812,13.175781,3.386719,13.289062C3.636719,13.402344,3.914062,13.46875,4.199219,13.46875C4.488281,13.46875,4.765625,13.402344,5.011719,13.289062C5.265625,13.175781,5.550781,13.105469,5.851562,13.105469C6.148438,13.105469,6.433594,13.175781,6.6875,13.289062C6.9375,13.402344,7.210938,13.46875,7.5,13.46875C7.789062,13.46875,8.066406,13.402344,8.316406,13.289062C8.570312,13.175781,8.855469,13.105469,9.148438,13.105469C9.449219,13.105469,9.734375,13.175781,9.988281,13.289062C10.234375,13.402344,10.515625,13.46875,10.800781,13.46875C11.089844,13.46875,11.367188,13.402344,11.617188,13.289062C11.867188,13.175781,12.152344,13.105469,12.449219,13.105469C12.75,13.105469,13.035156,13.175781,13.289062,13.289062C13.535156,13.402344,13.8125,13.46875,14.101562,13.46875ZM8.699219,0.300781L8.699219,9.601562L1.285156,9.601562ZM9.601562,2.4375C9.601562,3.472656,14.355469,6.300781,14.007812,9.601562L9.601562,9.601562ZM13.058594,10.199219L3,10.199219L3,12.058594C3.300781,12.089844,3.253906,12.125,3.355469,12.171875C3.605469,12.28125,3.898438,12.347656,4.183594,12.347656C4.472656,12.347656,4.757812,12.28125,5.007812,12.171875C5.257812,12.054688,5.550781,11.984375,5.847656,11.984375C6.144531,11.984375,6.433594,12.054688,6.6875,12.171875C6.933594,12.28125,7.210938,12.347656,7.5,12.347656C7.789062,12.347656,8.066406,12.28125,8.316406,12.171875C8.566406,12.054688,8.855469,11.984375,9.148438,11.984375C9.449219,11.984375,9.734375,12.054688,9.988281,12.171875C10.234375,12.28125,10.515625,12.347656,10.800781,12.347656C10.855469,12.347656,10.910156,12.335938,10.960938,12.328125L10.976562,12.335938L11.074219,12.320312C11.140625,12.308594,11.203125,12.300781,11.269531,12.285156C11.863281,12.164062,12.242188,11.683594,12.242188,11.683594L13.394531,10.199219ZM13.058594,10.199219" fill="#FFFFFF"/>
    </svg>