<?xml version="1.0" encoding="utf-8"?> <!DOCTYPE svg PUBLIC "-//W3C//DTD SVG 1.1//EN" "http://www.w3.org/Graphics/SVG/1.1/DTD/svg11.dtd"><svg version="1.1" id="icon" xmlns="http://www.w3.org/2000/svg" xmlns:xlink="http://www.w3.org/1999/xlink" x="0px"  y="0px" width="15px" height="15px" viewBox="0 0 15 15" enable-background="new 0 0 15 15" xml:space="preserve"><path fill="#FFFFFF" d="M 9 2.398438 L 9 12.300781 L 1.800781 12.300781 L 1.800781 2.398438 L 9 2.398438 M 10.199219 1.199219 L 0.601562 1.199219 L 0.601562 13.800781 L 10.199219 13.800781 Z M 2.699219 3.601562 L 8.101562 3.601562 L 8.101562 4.800781 L 2.699219 4.800781 Z M 2.699219 5.699219 L 8.101562 5.699219 L 8.101562 6.898438 L 2.699219 6.898438 Z M 2.699219 7.800781 L 8.101562 7.800781 L 8.101562 9 L 2.699219 9 Z M 2.699219 9.898438 L 8.101562 9.898438 L 8.101562 11.101562 L 2.699219 11.101562 Z M 12 3.601562 L 14.398438 3.601562 L 14.398438 12 L 12 12 Z M 13.203125 0.300781 C 12.542969 0.300781 12 0.828125 12 1.480469 L 12 2.699219 L 14.398438 2.699219 L 14.398438 1.480469 C 14.398438 0.828125 13.855469 0.300781 13.203125 0.300781 Z M 11.980469 12.898438 L 13.195312 14.816406 L 14.398438 12.898438 Z M 11.980469 12.898438 "></path> </svg>