<svg version="1.1" xmlns="http://www.w3.org/2000/svg" xlink="http://www.w3.org/1999/xlink" x="0px" y="0px" width="15px" height="15px" viewBox="0 0 15 15" style="enable-background:new 0 0 15 15;" space="preserve">
    <path d="M14.699219,12C14.382812,12,14.085938,11.929688,13.8125,11.808594C13.539062,11.683594,13.226562,11.609375,12.902344,11.609375C12.574219,11.609375,12.261719,11.683594,11.988281,11.808594C11.71875,11.929688,11.417969,12,11.101562,12C10.785156,12,10.484375,11.929688,10.214844,11.808594C9.9375,11.683594,9.625,11.609375,9.300781,11.609375C8.976562,11.609375,8.664062,11.683594,8.386719,11.808594C8.117188,11.929688,7.8125,12,7.5,12C7.1875,12,6.886719,11.929688,6.613281,11.808594C6.335938,11.683594,6.027344,11.609375,5.703125,11.609375C5.375,11.609375,5.0625,11.683594,4.789062,11.808594C4.519531,11.929688,4.214844,12,3.898438,12C3.589844,12,3.28125,11.929688,3.015625,11.808594C2.738281,11.683594,2.425781,11.609375,2.101562,11.609375C1.777344,11.609375,1.464844,11.683594,1.1875,11.808594C0.917969,11.929688,0.617188,12,0.300781,12L0.300781,10.679688C0.617188,10.679688,0.914062,10.609375,1.1875,10.492188C1.464844,10.363281,1.777344,10.289062,2.101562,10.289062C2.425781,10.289062,2.738281,10.363281,3.015625,10.492188C3.28125,10.609375,3.589844,10.679688,3.898438,10.679688C4.214844,10.679688,4.519531,10.609375,4.789062,10.492188C5.0625,10.363281,5.375,10.289062,5.703125,10.289062C6.027344,10.289062,6.335938,10.363281,6.613281,10.492188C6.886719,10.609375,7.1875,10.679688,7.5,10.679688C7.8125,10.679688,8.117188,10.609375,8.386719,10.492188C8.664062,10.363281,8.976562,10.289062,9.300781,10.289062C9.625,10.289062,9.9375,10.363281,10.214844,10.492188C10.484375,10.609375,10.785156,10.679688,11.101562,10.679688C11.417969,10.679688,11.71875,10.609375,11.988281,10.492188C12.261719,10.363281,12.574219,10.289062,12.902344,10.289062C13.226562,10.289062,13.539062,10.363281,13.8125,10.492188C14.085938,10.609375,14.382812,10.679688,14.699219,10.679688ZM12.613281,8.269531C13.558594,8.269531,14.328125,7.503906,14.328125,6.566406C14.328125,5.625,13.558594,4.867188,12.613281,4.867188C11.667969,4.867188,10.902344,5.625,10.902344,6.566406C10.902344,7.503906,11.597656,8.269531,12.613281,8.269531ZM2.636719,9.226562C2.769531,9.257812,2.894531,9.304688,3.015625,9.359375C3.28125,9.476562,3.589844,9.550781,3.898438,9.550781C4.214844,9.550781,4.519531,9.476562,4.789062,9.359375C5.066406,9.234375,5.375,9.15625,5.703125,9.15625C6.027344,9.15625,6.335938,9.234375,6.613281,9.359375C6.886719,9.476562,7.1875,9.550781,7.5,9.550781C7.8125,9.550781,8.117188,9.476562,8.386719,9.359375C8.664062,9.234375,8.976562,9.15625,9.300781,9.15625C9.625,9.15625,9.9375,9.234375,10.214844,9.359375C10.484375,9.476562,10.785156,9.550781,11.101562,9.550781C11.332031,9.550781,11.550781,9.511719,11.761719,9.445312L8.902344,4.328125L12.226562,3.726562C12.714844,3.636719,13.070312,3.253906,13.070312,2.765625C13.070312,2.230469,12.628906,1.800781,12.089844,1.800781L11.980469,1.804688L6.84375,2.730469C6.484375,2.8125,6.007812,3.335938,6.28125,3.980469L6.324219,4.082031L7.664062,6.484375ZM2.636719,9.226562" fill="#FFFFFF"/>
    </svg>