<svg version="1.1" xmlns="http://www.w3.org/2000/svg" xlink="http://www.w3.org/1999/xlink" x="0px" y="0px" width="15px" height="15px" viewBox="0 0 15 15" style="enable-background:new 0 0 15 15;" space="preserve">
    <path d="M5.542969,5.664062C6.242188,5.542969,6.761719,4.90625,6.839844,4.148438C6.921875,3.375,7.101562,0.265625,5.933594,0.464844C2.90625,0.976562,3.121094,6.074219,5.542969,5.664062ZM9.527344,5.664062C11.949219,6.074219,12.160156,0.976562,9.136719,0.460938C7.96875,0.265625,8.148438,3.371094,8.230469,4.144531C8.308594,4.90625,8.828125,5.542969,9.527344,5.664062ZM4.300781,8.0625C4.300781,7.660156,4.15625,7.292969,3.925781,7.027344C3.542969,6.527344,2.324219,5.515625,2.027344,5.773438C1.402344,6.316406,1.425781,7.648438,1.800781,8.617188C1.992188,9.15625,2.457031,9.535156,3.003906,9.535156C3.71875,9.535156,4.300781,8.878906,4.300781,8.0625ZM13.042969,5.773438C12.742188,5.515625,11.527344,6.527344,11.144531,7.027344C10.914062,7.292969,10.769531,7.660156,10.769531,8.0625C10.769531,8.878906,11.351562,9.535156,12.066406,9.535156C12.613281,9.535156,13.078125,9.15625,13.269531,8.617188C13.644531,7.648438,13.664062,6.316406,13.042969,5.773438ZM10.601562,10.359375C9.5,9.808594,9.53125,8.75,9.28125,7.78125C9.082031,7.011719,8.375,6.441406,7.535156,6.441406C6.710938,6.441406,6.019531,6.988281,5.800781,7.734375C5.53125,8.660156,5.695312,9.738281,4.492188,10.351562C3.515625,10.667969,3.121094,11.132812,3.121094,12.230469C3.121094,13.125,3.886719,14.078125,4.875,14.199219C5.976562,14.363281,6.839844,14.148438,7.535156,13.75C8.230469,14.148438,9.089844,14.363281,10.195312,14.199219C11.183594,14.078125,11.949219,13.128906,11.949219,12.230469C11.949219,11.109375,11.578125,10.691406,10.601562,10.359375ZM9.300781,11.699219L8.15625,11.699219L8.15625,12.898438L6.910156,12.898438L6.914062,11.699219L5.699219,11.699219L5.699219,10.5L6.914062,10.5L6.910156,9.300781L8.160156,9.300781L8.15625,10.5L9.300781,10.5ZM9.300781,11.699219" fill="#FFFFFF"/>
    </svg>