<svg version="1.1" xmlns="http://www.w3.org/2000/svg" xlink="http://www.w3.org/1999/xlink" x="0px" y="0px" width="15px" height="15px" viewBox="0 0 15 15" style="enable-background:new 0 0 15 15;" space="preserve">
    <path d="M8.882812,13.03125C8.984375,13.015625,9.089844,13.007812,9.195312,13.007812C9.515625,13.007812,9.824219,13.082031,10.097656,13.207031C10.367188,13.324219,10.664062,13.394531,10.972656,13.394531C11.285156,13.394531,11.589844,13.324219,11.855469,13.207031C12.125,13.082031,12.433594,13.007812,12.753906,13.007812C13.078125,13.007812,13.320312,13.082031,13.59375,13.207031C13.859375,13.324219,14.101562,13.394531,14.398438,13.394531L14.398438,14.699219C14.101562,14.699219,13.859375,14.628906,13.59375,14.507812C13.320312,14.386719,13.042969,14.3125,12.722656,14.3125C12.402344,14.3125,12.109375,14.386719,11.835938,14.507812C11.570312,14.628906,11.277344,14.699219,10.964844,14.699219C10.65625,14.699219,10.359375,14.628906,10.09375,14.507812C9.820312,14.386719,9.515625,14.3125,9.195312,14.3125C8.875,14.3125,8.566406,14.386719,8.289062,14.507812C8.023438,14.628906,7.726562,14.699219,7.414062,14.699219C7.101562,14.699219,6.804688,14.628906,6.539062,14.507812C6.265625,14.386719,5.960938,14.3125,5.636719,14.3125C5.3125,14.3125,5.003906,14.386719,4.734375,14.507812C4.46875,14.628906,4.167969,14.699219,3.859375,14.699219C3.546875,14.699219,3.25,14.628906,2.984375,14.507812C2.707031,14.386719,2.398438,14.3125,2.078125,14.3125C1.757812,14.3125,1.449219,14.386719,1.175781,14.507812C0.910156,14.628906,0.613281,14.699219,0.300781,14.699219L0.300781,13.394531C0.613281,13.394531,0.910156,13.324219,1.175781,13.207031C1.449219,13.082031,1.757812,13.007812,2.078125,13.007812C2.398438,13.007812,2.707031,13.082031,2.984375,13.207031C3.25,13.324219,3.546875,13.394531,3.859375,13.394531C4.167969,13.394531,4.46875,13.324219,4.734375,13.207031C4.890625,13.136719,5.050781,13.082031,5.222656,13.050781L13.515625,11.582031C13.785156,11.519531,14.152344,11.332031,14.277344,11.011719C14.304688,10.953125,14.390625,10.933594,14.464844,10.9375C14.601562,10.945312,14.699219,11.0625,14.699219,11.195312C14.699219,11.40625,14.535156,11.996094,13.628906,12.179688ZM1.6875,2.683594C2.347656,2.683594,2.886719,2.148438,2.886719,1.488281C2.886719,0.832031,2.347656,0.300781,1.6875,0.300781C1.023438,0.300781,0.488281,0.832031,0.488281,1.488281C0.488281,2.148438,1.023438,2.683594,1.6875,2.683594ZM5.175781,12.308594C5.234375,12.574219,5.558594,12.828125,5.894531,12.828125L5.890625,12.832031C6.3125,12.832031,6.65625,12.492188,6.65625,12.070312L6.644531,11.949219L5.730469,8.054688C5.652344,7.804688,5.414062,7.566406,5.167969,7.46875L3.824219,6.664062L3.210938,4.039062L6.988281,4.035156C7.296875,4.035156,7.546875,3.824219,7.546875,3.519531C7.546875,3.214844,7.296875,3,6.988281,3L1.535156,3C0.988281,3,0.734375,3.351562,0.800781,3.6875L1.574219,7.148438C1.632812,7.476562,1.847656,7.742188,2.140625,7.886719L2.15625,7.890625L4.40625,9.199219ZM7.800781,3.601562L14.699219,3.601562L14.699219,3.898438L7.800781,3.898438ZM7.800781,3.601562" fill="#FFFFFF"/>
    </svg>