<svg version="1.1" xmlns="http://www.w3.org/2000/svg" xlink="http://www.w3.org/1999/xlink" x="0px" y="0px" width="15px" height="18.75px" viewBox="0 0 15 18.75" style="enable-background:new 0 0 15 15;" space="preserve">
    <path d="M0,14.24126C0,14.660227,0.33977299,15,0.75873941,15H2.2762182c0.4189664,0,0.7587394,-0.339773,0.7587394,-0.75874V6.6538665H0ZM13.732235,9.6888242c0.423471,-0.4123275,0.683814,-0.8853541,0.683814,-1.3967919c0,-1.2533426,-0.990867,-2.2238177,-2.084637,-2.9140335C11.336989,4.750379,10.419626,4.0082371,9.6767727,3.0965642L9.4842426,2.8601695L9.2917125,3.0965642C8.5488592,4.0082371,7.6317329,4.7506162,6.637073,5.3779988C5.5433027,6.0682146,4.5524364,7.0386897,4.5524364,8.2920323c0,0.5114378,0.2603425,0.9844644,0.6838139,1.3967919zm0.683814,0.7587398H4.5524364c-0.4189664,0,-0.7587394,0.339773,-0.7587394,0.758739V14.24126C3.793697,14.660227,4.13347,15,4.5524364,15h0.7587394v-1.517479c0,-0.418967,0.339773,-0.758739,0.7587395,-0.758739c0.4189664,0,0.7587394,0.339772,0.7587394,0.758739V15h1.5174788v-1.707164c0,-1.138109,1.1381091,-1.707163,1.1381091,-1.707163c0,0,1.1381094,0.569054,1.1381094,1.707163V15h1.517479v-1.517479c0,-0.418967,0.339772,-0.758739,0.758739,-0.758739c0.418966,0,0.758739,0.339772,0.758739,0.758739V15h0.75874c0.418966,0,0.758739,-0.339773,0.758739,-0.75874v-3.034957c0,-0.418966,-0.339773,-0.758739,-0.758739,-0.758739zM1.5174788,2.8601695C1.5174788,2.8601695,0,3.6189089,0,5.1363877V5.8951271H3.0349576V5.1363877c0,-1.5174788,-1.5174788,-2.2762182,-1.5174788,-2.2762182z" fill="#FFFFFF"/>
    </svg>