<svg version="1.1" xmlns="http://www.w3.org/2000/svg" xlink="http://www.w3.org/1999/xlink" x="0px" y="0px" width="15px" height="15px" viewBox="0 0 15 15" style="enable-background:new 0 0 15 15;" space="preserve">
    <path d="M4.294084821428571,0L3.22265625,2.142857142857143L3.724888392857143,2.142857142857143L4.846540178571429,0L4.294084821428571,0zM8.579799107142858,0L7.508370535714286,2.142857142857143L8.010602678571429,2.142857142857143L9.132254464285714,0L8.579799107142858,0zM12.865512857142857,0L11.794084285714284,2.142857142857143L12.296316428571428,2.142857142857143L13.417969285714285,0L12.865512857142857,0zM1.0714285714285714,2.142857142857143L0,4.285714285714286L0.5022321428571428,4.285714285714286L1.6259765357142857,2.142857142857143L1.0714285714285714,2.142857142857143zM5.365513392857142,2.142857142857143L4.294084821428571,4.285714285714286L4.796316964285714,4.285714285714286L5.91796875,2.142857142857143L5.365513392857142,2.142857142857143zM9.651227678571429,2.142857142857143L8.579799107142858,4.285714285714286L9.08203125,4.285714285714286L10.203683035714285,2.142857142857143L9.651227678571429,2.142857142857143zM13.936941428571428,2.142857142857143L12.865512857142857,4.285714285714286L13.367745,4.285714285714286L14.489397857142857,2.142857142857143L13.936941428571428,2.142857142857143zM2.6785714285714284,4.285714285714286L1.6071428571428572,6.428571428571429L2.109375,6.428571428571429L3.233119392857143,4.285714285714286L2.6785714285714284,4.285714285714286zM11.231166428571427,4.285714285714286L10.15973775,6.428571428571429L10.661969892857142,6.428571428571429L11.785714285714285,4.285714285714286L11.231166428571427,4.285714285714286zM7.5,5.357142857142857L0,9.642857142857142L2.142857142857143,9.642857142857142L3.2142857142857144,9.213867214285715L3.2142857142857144,14.445452142857143L3.2142857142857144,14.464285714285714A0.5357142857142857,0.5357142857142857,0,0,0,3.471679714285714,14.922572142857142A0.5357142857142857,0.5357142857142857,0,0,0,4.011579214285715,14.930943214285714A0.5357142857142857,0.5357142857142857,0,0,0,4.285714285714286,14.464285714285714L4.285714285714286,8.784877285714286L7.5,7.5L10.714285714285714,8.784877285714286L10.714285714285714,14.464285714285714A0.5357142857142857,0.5357142857142857,0,0,0,10.971679285714284,14.922572142857142A0.5357142857142857,0.5357142857142857,0,0,0,11.511579642857143,14.930943214285714A0.5357142857142857,0.5357142857142857,0,0,0,11.785714285714285,14.464285714285714L11.785714285714285,9.213867214285715L12.857142857142858,9.642857142857142L15,9.642857142857142L7.5,5.357142857142857z" fill="#FFFFFF"/>
    </svg>