<?xml version="1.0" encoding="utf-8"?> <!DOCTYPE svg PUBLIC "-//W3C//DTD SVG 1.1//EN" "http://www.w3.org/Graphics/SVG/1.1/DTD/svg11.dtd"><svg version="1.1" id="icon" xmlns="http://www.w3.org/2000/svg" xmlns:xlink="http://www.w3.org/1999/xlink" x="0px"  y="0px" width="15px" height="15px" viewBox="0 0 15 15" enable-background="new 0 0 15 15" xml:space="preserve"><path fill="#FFFFFF" d="m11.785714285714285,6.428571428571429c1.0714285714285714,0,2.142857142857143,1.0714285714285714,2.142857142857143,2.142857142857143l0,2.142857142857143c0.0036428571428571426,1.0142153571428572,-1.0714285714285714,2.142857142857143,-2.142857142857143,2.142857142857143L6.428571428571429,12.857142857142858C5.357142857142857,12.857142857142858,4.285714285714286,11.785714285714285,4.285714285714286,10.714285714285714L4.285714285714286,8.571428571428571C4.285714285714286,7.5,5.357142857142857,6.428571428571429,6.428571428571429,6.428571428571429L7.5,6.428571428571429C5.357142857142857,7.5,5.357142857142857,7.5,5.357142857142857,9.642857142857142C5.357142857142857,10.240779642857143,5.908911535714286,10.673029285714286,6.428571428571429,10.714285714285714l5.357142857142857,0c0.6486557142857142,0,1.0714285714285714,-0.47350607142857143,1.0714285714285714,-1.0714285714285714c0,-2.142857142857143,0,-2.142857142857143,-2.142857142857143,-3.219358821428571zM7.5,3.2142857142857144L7.5,5.344587L5.357142857142857,5.357142857142857L5.357142857142857,6.428571428571429L7.5,6.428571428571429L7.5,8.571428571428571L8.571428571428571,8.571428571428571L8.571428571428571,6.428571428571429l1.0714285714285714,0l0,2.142857142857143l1.0714285714285714,0l0,-2.142857142857143l3.2142857142857144,0c0,1.0714285714285714,1.0714285714285714,1.0714285714285714,1.0714285714285714,1.0714285714285714l0,-3.2142857142857144c0,0,-1.0714285714285714,0.00051,-1.0714285714285714,1.0212053571428572L10.714285714285714,5.325753321428571L10.714285714285714,3.2142857142857144L9.642857142857142,3.2142857142857144L9.642857142857142,5.33203125L8.571428571428571,5.3383091785714285L8.571428571428571,3.2142857142857144L7.5,3.2142857142857144ZM0,10.714285714285714L0,1.0714285714285714C3.2142857142857144,1.0714285714285714,3.2142857142857144,5.357142857142857,5.357142857142857,5.357142857142857L5.357142857142857,6.428571428571429C3.2142857142857144,6.428571428571429,3.2142857142857144,10.714285714285714,0,10.714285714285714Z"></path> </svg>