<svg version="1.1" xmlns="http://www.w3.org/2000/svg" xlink="http://www.w3.org/1999/xlink" x="0px" y="0px" width="15px" height="15px" viewBox="0 0 15 15" style="enable-background:new 0 0 15 15;" space="preserve">
    <path d="m12.262076,2.9427966c0,0.8810812,-0.701642,1.595339,-1.567161,1.595339c-0.8655189,0,-1.567161,-0.7142578,-1.567161,-1.595339c0,-0.8810814,0.7016421,-1.595339,1.567161,-1.595339c0.865519,0,1.567161,0.7142576,1.567161,1.595339zM3.25,6.6652542H5.3771186V9.8559326H3.25ZM5.8807205,2.9427966c0,0.8810812,-0.7016421,1.595339,-1.5671612,1.595339c-0.8655192,0,-1.5671613,-0.7142578,-1.5671613,-1.595339c0,-0.8810814,0.7016421,-1.595339,1.5671613,-1.595339c0.8655191,0,1.5671612,0.7142576,1.5671612,1.595339zM0.05932203,5.6016949H7.5042373V6.6652542H0.05932203ZM1.1228813,14.11017L3.25,9.8559326H4.3135593L2.1864406,14.11017Zm6.381356,0L5.3771186,9.8559326H4.3135593L6.4406779,14.11017ZM9.6313559,6.6652542H11.758475V9.8559326H9.6313559ZM7.5042373,5.6016949H14.949153V6.6652542H7.5042373Zm0,8.5084751l2.1271186,-4.2542374H10.694915L8.5677966,14.11017Zm6.3813557,0l-2.127118,-4.2542374h-1.06356l2.127119,4.2542374z" fill="#FFFFFF"/>
    </svg>