<svg version="1.1" xmlns="http://www.w3.org/2000/svg" xlink="http://www.w3.org/1999/xlink" x="0px" y="0px" width="15px" height="15px" viewBox="0 0 15 15" style="enable-background:new 0 0 15 15;" space="preserve">
    <path d="M4.6875,2.8125L4.6875,12.1875C4.6875,15.9375,10.3125,15.9375,10.3125,12.1875L10.3125,2.8125C10.3125,-0.9375,4.6875,-0.9375,4.6875,2.8125zM7.5,0.9375C8.53125,0.9375,9.375,1.78125,9.375,2.8125C9.375,3.8437499999999996,8.53125,4.6875,7.5,4.6875C6.46875,4.6875,5.625,3.8437499999999996,5.625,2.8125C5.625,1.78125,6.46875,0.9375,7.5,0.9375zM7.5,5.625C8.53125,5.625,9.375,6.46875,9.375,7.5C9.375,8.53125,8.53125,9.375,7.5,9.375C6.46875,9.375,5.625,8.53125,5.625,7.5C5.625,6.46875,6.46875,5.625,7.5,5.625zM7.5,10.3125C8.53125,10.3125,9.375,11.15625,9.375,12.1875C9.375,13.21875,8.53125,14.0625,7.5,14.0625C6.46875,14.0625,5.625,13.21875,5.625,12.1875C5.625,11.15625,6.46875,10.3125,7.5,10.3125z" fill="#FFFFFF"/>
    </svg>