<?xml version="1.0" encoding="utf-8"?> <!DOCTYPE svg PUBLIC "-//W3C//DTD SVG 1.1//EN" "http://www.w3.org/Graphics/SVG/1.1/DTD/svg11.dtd"><svg version="1.1" id="icon" xmlns="http://www.w3.org/2000/svg" xmlns:xlink="http://www.w3.org/1999/xlink" x="0px"  y="0px" width="15px" height="15px" viewBox="0 0 15 15" enable-background="new 0 0 15 15" xml:space="preserve"><path fill="#FFFFFF" d="M5.000000333333333,0C4.0000002666666665,0,3.0000001999999997,0.46875003125,2.0000001333333333,1.4687500979166666c-1.0000000666666666,1.0000000666666666,-2.0000001333333333,2.0000001333333333,-2.0000001333333333,3.0000001999999997c0.6666667144444447,0,1.3333333888888868,0.37500002499999996,2.0000001333333333,0.37500002499999996c1.5237902015860068,0,1.9342026289468333,-1.3092025872801667,3.0000001999999997,-2.375000158333333C5.5389589692639065,2.1175529411701866,5.9898449993229725,1.7619015174600932,7.468750497916666,1.9375001291666667C9.028402301893447,2.270948751396573,12.000000799999999,3.4600156306676935,14.000000933333332,4.875000325C12.391103826073532,3.2253629150241796,10.510265700684334,1.4108539940569267,8.000000533333333,0.46875003125C7.000000466666666,-0.026119401741293333,6.000000399999999,0,5.000000333333333,0Zm7.343750489583333,5.15625034375l-4.03125026875,1.7500001166666665C4.9738458315897,7.453570896904694,1.13528017568534,6.170931311395393,1.2500000833333333,6.3125004208333335C1.2945520863034665,6.3674794244986,1.3316180887745332,6.414330727622019,1.3750000916666667,6.46875043125L1.3750000916666667,6.500000433333333L0,10.000000666666667L2.5937501729166668,8.000000533333333L3.0000001999999997,12.000000799999999L4.96875033125,8.812500587499999c0.18175841211722665,0.031017002067799997,0.3580292238686133,0.07201900480126666,0.5625000375,0.09375000624999999L7.000000466666666,12.000000799999999L8.093750539583333,8.90625059375C8.430848562056532,8.847145589809665,8.73020728201378,8.7348215823214,9.031250602083333,8.625000575L11.000000733333334,11.000000733333334L11.031250735416666,7.343750489583333C11.088390739226,7.2851044856736,11.133409742227267,7.217050181136646,11.187500745833333,7.156250477083333L14.000000933333332,9.0000006L12.125000808333333,5.71875038125c0.079890005326,-0.18095651206376664,0.15928001061866667,-0.37700342513356,0.21875001458333332,-0.5625000375z"></path> </svg>