<?xml version="1.0" encoding="utf-8"?> <!DOCTYPE svg PUBLIC "-//W3C//DTD SVG 1.1//EN" "http://www.w3.org/Graphics/SVG/1.1/DTD/svg11.dtd"><svg version="1.1" id="icon" xmlns="http://www.w3.org/2000/svg" xmlns:xlink="http://www.w3.org/1999/xlink" x="0px"  y="0px" width="15px" height="15px" viewBox="0 0 15 15" enable-background="new 0 0 15 15" xml:space="preserve"><path fill="#FFFFFF" d="M 5.4161622,2.7823087 0.12711864,5.9557391 c 0,2.1156174 0.26445218,5.2890439 1.32226086,5.2890439 h 3.9667827 c 1.0578087,0 1.3222609,-3.7023309 1.3222609,-3.7023309 0.5469082,-0.2644521 1.0398048,-0.2644521 1.5867131,0 0,0 0.2644521,3.7023309 1.3222609,3.7023309 h 3.9667819 c 1.057809,0 1.322261,-3.1734265 1.322261,-5.2890439 L 9.6473971,2.7823087 c -0.5062567,-0.2922873 -0.923192,0.7892554 0,1.3222651 L 12.820823,5.9557391 H 2.242736 L 5.4161622,4.1045738 c 0.9758285,-0.5634005 0.3860684,-1.5451602 0,-1.3222651 z M 1.4493795,7.278 H 5.4161622 L 4.8872578,9.9225218 H 1.9782839 Z m 8.1980176,0 h 3.9667819 l -0.528904,2.6445218 h -2.908974 z"></path> </svg>