<?xml version="1.0" encoding="utf-8"?> <!DOCTYPE svg PUBLIC "-//W3C//DTD SVG 1.1//EN" "http://www.w3.org/Graphics/SVG/1.1/DTD/svg11.dtd"><svg version="1.1" id="icon" xmlns="http://www.w3.org/2000/svg" xmlns:xlink="http://www.w3.org/1999/xlink" x="0px"  y="0px" width="15px" height="15px" viewBox="0 0 15 15" enable-background="new 0 0 15 15" xml:space="preserve"><path fill="#FFFFFF" d="M0.47457628,0.22881357V1.25V2.2711864A2.0423663,2.0423671,0,0,0,2.5169492,4.3135593A2.0423663,2.0423671,0,0,0,4.5593221,2.2711864H5.5805085A2.0423663,2.0423671,0,0,0,7.6228814,4.3135593A2.0423663,2.0423671,0,0,0,9.6652543,2.2711864H10.68644a2.0423663,2.0423671,0,0,0,2.042373,2.0423729a2.0423663,2.0423671,0,0,0,2.042373,-2.0423729V1.25V0.22881357h-2.042373z"></path> <path fill="#FFFFFF" d="m0.47457628,5.3347457v4.0847458v2.0423735v3.063559H2.5169492V11.461865H12.728813v3.063559h2.042373V11.461865V9.4194915V5.3347457H12.728813V9.4194915H2.5169492V5.3347457Z"></path> </svg>