<?xml version="1.0" encoding="utf-8"?> <!DOCTYPE svg PUBLIC "-//W3C//DTD SVG 1.1//EN" "http://www.w3.org/Graphics/SVG/1.1/DTD/svg11.dtd"><svg version="1.1" id="icon" xmlns="http://www.w3.org/2000/svg" xmlns:xlink="http://www.w3.org/1999/xlink" x="0px"  y="0px" width="15px" height="15px" viewBox="0 0 15 15" enable-background="new 0 0 15 15" xml:space="preserve"><path fill="#FFFFFF" d="M1.875,0L1.875,3.28125C1.875,4.637734875,2.6161417499999997,5.606504625,3.662109375,6.2109375L2.8125,13.125L4.21875,13.125L4.39453125,11.748046875L6.5625,10.3125L8.73046875,11.77734375L8.90625,13.125L10.3125,13.125L9.462890625,6.240234375C10.517071875,5.6374449375,11.25,4.6526355,11.25,3.28125l0,-3.28125l-1.40625,0l0,1.40625l-0.46875,0C8.3183263125,1.875,7.5,1.875,6.5625,1.40625C5.625,0.9375,4.723252125,0.9375,3.75,1.40625l-0.46875,0l0,-1.40625zm3.134765625,6.73828125c1.0023975,0.25046371875,2.1025168125,0.2752183125,3.10546875,0.029296875L8.291015625,8.232421875L6.5625,9.375L4.833984375,8.232421875zm-0.29296875,2.34375L5.859375,9.84375L4.51171875,10.751953125zm3.69140625,0L8.61328125,10.751953125L7.265625,9.84375z"></path> </svg>