<?xml version="1.0" encoding="utf-8"?> <!DOCTYPE svg PUBLIC "-//W3C//DTD SVG 1.1//EN" "http://www.w3.org/Graphics/SVG/1.1/DTD/svg11.dtd"><svg version="1.1" id="marker-circle-blue" xmlns="http://www.w3.org/2000/svg" xmlns:xlink="http://www.w3.org/1999/xlink" x="0px"  y="0px" width="24px" height="36px" viewBox="0 0 24 36" enable-background="new 0 0 24 36" xml:space="preserve"><polygon fill="#A23337" points="12,36 24,12 18,0 6.017,0 0,12.016 "/><path fill="#ffffff" transform="translate(4.5 4.5)" d="M 4.269531 11.851562 L 13.414062 11.851562 L 13.414062 4.027344 L 4.269531 4.027344 Z M 8.917969 4.804688 L 12.214844 7.683594 L 11.382812 7.683594 L 11.382812 11.140625 L 9.453125 11.140625 L 9.453125 8.699219 L 8.234375 8.699219 L 8.234375 11.140625 L 6.40625 11.140625 L 6.40625 7.683594 L 5.554688 7.683594 Z M 3.253906 2.09375 L 3.253906 0.304688 L 1.222656 0.304688 L 1.222656 15 L 3.253906 15 L 3.253906 3.011719 L 13.824219 3.011719 L 13.824219 2.09375 Z M 3.253906 2.09375 "></path> </svg>