<?xml version="1.0" encoding="utf-8"?> <!DOCTYPE svg PUBLIC "-//W3C//DTD SVG 1.1//EN" "http://www.w3.org/Graphics/SVG/1.1/DTD/svg11.dtd"><svg version="1.1" id="marker-circle-blue" xmlns="http://www.w3.org/2000/svg" xmlns:xlink="http://www.w3.org/1999/xlink" x="0px"  y="0px" width="24px" height="36px" viewBox="0 0 24 36" enable-background="new 0 0 24 36" xml:space="preserve"><polygon fill="#5B396C" points="12,36 24,12 18,0 6.017,0 0,12.016 "/><path fill="#ffffff" transform="translate(4.5 4.5)" d="M13.777344,8.683594L13.746094,8.597656C13.644531,8.320312,13.515625,7.976562,13.191406,7.78125C12.964844,7.644531,12.699219,7.597656,12.46875,7.558594C12.347656,7.535156,12.238281,7.515625,12.140625,7.484375L12.054688,7.457031L12.039062,7.453125C11.109375,6.703125,9.21875,6.683594,8.042969,5.625C6.359375,4.105469,5.007812,2.582031,3.484375,0.300781L1.585938,1.820312C1.453125,1.925781,1.199219,2.011719,1.199219,2.390625C1.199219,2.582031,1.394531,2.609375,1.621094,2.539062L2.695312,2.199219L5.699219,6.382812L5.699219,8.667969C5.699219,9.195312,5.691406,9.675781,6.140625,9.949219L5.011719,14.699219L5.769531,14.699219L6.484375,12.445312L7.199219,11.328125L7.199219,14.699219L8.101562,14.699219L8.101562,10.949219C8.101562,10.949219,8.089844,10.1875,8.851562,10.1875L9.601562,10.949219L9.601562,14.699219L10.199219,14.699219L10.199219,11.699219L11.855469,14.699219L12.617188,14.699219C12.234375,13.5,11.699219,13.609375,11.699219,12.46875L11.699219,11.707031C11.699219,10.910156,12.601562,10.1875,12.601562,9.425781L12.601562,8.667969C12.601562,8.484375,12.578125,8.324219,12.535156,8.179688C12.667969,8.207031,12.789062,8.242188,12.882812,8.296875C13.027344,8.382812,13.105469,8.597656,13.183594,8.804688L13.21875,8.898438C13.277344,9.054688,13.449219,9.132812,13.605469,9.074219L13.605469,9.070312C13.761719,9.011719,13.835938,8.839844,13.777344,8.683594ZM13.777344,8.683594"></path> </svg>