<?xml version="1.0" encoding="utf-8"?> <!DOCTYPE svg PUBLIC "-//W3C//DTD SVG 1.1//EN" "http://www.w3.org/Graphics/SVG/1.1/DTD/svg11.dtd"><svg version="1.1" id="marker-circle-blue" xmlns="http://www.w3.org/2000/svg" xmlns:xlink="http://www.w3.org/1999/xlink" x="0px"  y="0px" width="24px" height="36px" viewBox="0 0 24 36" enable-background="new 0 0 24 36" xml:space="preserve"><polygon fill="#EF9228" points="12,36 24,12 18,0 6.017,0 0,12.016 "/><path fill="#ffffff" transform="translate(4.5 4.5)" d="M14.167969,12.300781L9.300781,12.300781L9.300781,13.5L14.21875,13.5C14.625,13.5,14.699219,13.148438,14.699219,13.148438L14.699219,12.855469C14.699219,12.855469,14.695312,12.300781,14.167969,12.300781ZM13.496094,12.0625C14.160156,12.0625,14.699219,11.523438,14.699219,10.855469C14.699219,10.1875,14.160156,9.648438,13.496094,9.648438C12.832031,9.648438,12.292969,10.1875,12.292969,10.855469C12.292969,11.523438,12.832031,12.0625,13.496094,12.0625ZM10.960938,12C11.589844,12,12.097656,11.554688,12.097656,10.925781C12.097656,10.292969,11.589844,9.964844,10.960938,9.960938L9.300781,10.167969L9.300781,12ZM5.558594,4.179688C6.292969,4.179688,6.890625,3.578125,6.890625,2.839844C6.890625,2.101562,6.292969,1.5,5.558594,1.5C4.820312,1.5,4.222656,2.101562,4.222656,2.839844C4.222656,3.578125,4.820312,4.179688,5.558594,4.179688ZM4.195312,8.515625L4.183594,8.5L3.578125,7.089844L3.578125,9.898438L5.382812,9.898438L5.777344,9.480469L4.707031,9.066406C4.453125,8.972656,4.273438,8.757812,4.195312,8.515625ZM4.578125,8.390625C4.636719,8.523438,4.746094,8.628906,4.878906,8.675781L6.945312,9.441406C7.207031,9.558594,7.515625,9.4375,7.632812,9.171875C7.746094,8.90625,7.628906,8.59375,7.363281,8.480469L5.460938,7.761719L4.871094,6.351562L5.253906,6.207031L5.753906,7.414062L7.199219,7.953125L7.199219,6.476562L7.96875,6.933594L8.351562,8.859375C8.445312,9.136719,8.742188,9.28125,9.015625,9.1875C9.289062,9.09375,9.433594,8.792969,9.339844,8.515625L8.910156,6.660156C8.882812,6.554688,8.820312,6.464844,8.742188,6.398438C8.519531,6.152344,7.410156,4.910156,7.328125,4.828125C7.214844,4.710938,6.949219,4.5,6.445312,4.5L4.648438,4.5C3.625,4.5,3.425781,5.542969,3.636719,6.074219ZM9,10.199219L0.890625,10.199219C0.59375,10.199219,0.300781,10.367188,0.300781,10.734375L0.300781,13.5L9,13.5ZM9,10.199219"></path> </svg>