<?xml version="1.0" encoding="utf-8"?> <!DOCTYPE svg PUBLIC "-//W3C//DTD SVG 1.1//EN" "http://www.w3.org/Graphics/SVG/1.1/DTD/svg11.dtd"><svg version="1.1" id="marker-circle-blue" xmlns="http://www.w3.org/2000/svg" xmlns:xlink="http://www.w3.org/1999/xlink" x="0px"  y="0px" width="24px" height="36px" viewBox="0 0 24 36" enable-background="new 0 0 24 36" xml:space="preserve"><polygon fill="#A23337" points="12,36 24,12 18,0 6.017,0 0,12.016 "/><path fill="#ffffff" transform="translate(4.5 4.5)" d="M10.496094,4.863281L12.949219,2.410156L12.054688,1.515625L9.601562,3.96875ZM14.238281,2.410156C14.238281,2.5625,14.1875,2.6875,14.085938,2.789062L3.324219,13.550781C3.222656,13.652344,3.097656,13.703125,2.945312,13.703125C2.796875,13.703125,2.671875,13.652344,2.570312,13.550781L0.914062,11.894531C0.8125,11.792969,0.761719,11.667969,0.761719,11.519531C0.761719,11.367188,0.8125,11.242188,0.914062,11.140625L11.675781,0.375C11.777344,0.277344,11.902344,0.226562,12.054688,0.226562C12.203125,0.226562,12.328125,0.277344,12.429688,0.375L14.085938,2.035156C14.1875,2.132812,14.238281,2.261719,14.238281,2.410156ZM2.929688,0.820312L3.75,1.070312L2.929688,1.324219L2.679688,2.144531L2.425781,1.324219L1.605469,1.070312L2.425781,0.820312L2.679688,0ZM5.859375,2.175781L7.5,2.679688L5.859375,3.179688L5.355469,4.820312L4.855469,3.179688L3.214844,2.679688L4.855469,2.175781L5.355469,0.535156ZM13.644531,6.175781L14.464844,6.429688L13.644531,6.679688L13.394531,7.5L13.140625,6.679688L12.320312,6.429688L13.140625,6.175781L13.394531,5.355469ZM8.285156,0.820312L9.105469,1.070312L8.285156,1.324219L8.035156,2.144531L7.785156,1.324219L6.964844,1.070312L7.785156,0.820312L8.035156,0ZM8.285156,0.820312"></path> </svg>