<?xml version="1.0" encoding="utf-8"?> <!DOCTYPE svg PUBLIC "-//W3C//DTD SVG 1.1//EN" "http://www.w3.org/Graphics/SVG/1.1/DTD/svg11.dtd"><svg version="1.1" id="marker-circle-blue" xmlns="http://www.w3.org/2000/svg" xmlns:xlink="http://www.w3.org/1999/xlink" x="0px"  y="0px" width="24px" height="36px" viewBox="0 0 24 36" enable-background="new 0 0 24 36" xml:space="preserve"><polygon fill="#A23337" points="12,36 24,12 18,0 6.017,0 0,12.016 "/><path fill="#ffffff" transform="translate(4.5 4.5)" d="M 13.359375 3.179688 C 13.515625 3.335938 13.648438 3.550781 13.761719 3.816406 C 13.871094 4.085938 13.929688 4.332031 13.929688 4.554688 L 13.929688 14.195312 C 13.929688 14.417969 13.851562 14.609375 13.695312 14.765625 C 13.539062 14.921875 13.347656 15 13.125 15 L 1.875 15 C 1.652344 15 1.460938 14.921875 1.304688 14.765625 C 1.148438 14.609375 1.070312 14.417969 1.070312 14.195312 L 1.070312 0.804688 C 1.070312 0.582031 1.148438 0.390625 1.304688 0.234375 C 1.460938 0.078125 1.652344 0 1.875 0 L 9.375 0 C 9.597656 0 9.84375 0.0546875 10.113281 0.167969 C 10.378906 0.277344 10.589844 0.414062 10.746094 0.570312 Z M 9.644531 1.136719 L 9.644531 4.285156 L 12.789062 4.285156 C 12.734375 4.125 12.671875 4.007812 12.605469 3.941406 L 9.984375 1.324219 C 9.917969 1.253906 9.804688 1.195312 9.644531 1.136719 Z M 12.855469 13.929688 L 12.855469 5.355469 L 9.375 5.355469 C 9.152344 5.355469 8.960938 5.277344 8.804688 5.121094 C 8.648438 4.964844 8.570312 4.777344 8.570312 4.554688 L 8.570312 1.070312 L 2.144531 1.070312 L 2.144531 13.929688 Z M 11.785156 10.179688 L 11.785156 12.855469 L 3.214844 12.855469 L 3.214844 11.25 L 4.820312 9.644531 L 5.894531 10.714844 L 9.105469 7.5 Z M 4.820312 8.570312 C 4.375 8.570312 3.996094 8.414062 3.683594 8.101562 C 3.371094 7.789062 3.214844 7.410156 3.214844 6.964844 C 3.214844 6.519531 3.371094 6.136719 3.683594 5.824219 C 3.996094 5.511719 4.375 5.355469 4.820312 5.355469 C 5.269531 5.355469 5.648438 5.511719 5.960938 5.824219 C 6.273438 6.136719 6.429688 6.519531 6.429688 6.964844 C 6.429688 7.410156 6.273438 7.789062 5.960938 8.101562 C 5.648438 8.414062 5.269531 8.570312 4.820312 8.570312 Z M 4.820312 8.570312 "></path> </svg>