<?xml version="1.0" encoding="utf-8"?> <!DOCTYPE svg PUBLIC "-//W3C//DTD SVG 1.1//EN" "http://www.w3.org/Graphics/SVG/1.1/DTD/svg11.dtd"><svg version="1.1" id="marker-circle-blue" xmlns="http://www.w3.org/2000/svg" xmlns:xlink="http://www.w3.org/1999/xlink" x="0px"  y="0px" width="24px" height="36px" viewBox="0 0 24 36" enable-background="new 0 0 24 36" xml:space="preserve"><polygon fill="#A23337" points="12,36 24,12 18,0 6.017,0 0,12.016 "/><path fill="#ffffff" transform="translate(4.5 4.5)" d="m13.8172,7.2090175h-0.9951c-0.09122,0,-0.16585,0.069827,-0.16585,0.1551735v2.793134c0,0.08534,0.07463,0.155174,0.16585,0.155174h0.9951c0.09122,0,0.16585,-0.06983,0.16585,-0.155174V7.364191c0,-0.085344,-0.07463,-0.1551735,-0.16585,-0.1551735zM12.18565,2.0708142C12.067482,1.9971066,11.992849,1.8768466,11.992849,1.7449486V0.53653017c0,-0.085345,-0.07463,-0.1551741,-0.16585,-0.1551741h-0.9951c-0.09122,0,-0.16585,0.069827,-0.16585,0.1551741V1.7449486c0,0.426729,0.211458,0.8418197,0.592913,1.0745809c0.87486,0.5295317,1.397288,1.4314813,1.397288,2.405199v0.5877219c0,0.085345,0.07463,0.1551745,0.16585,0.1551745h0.9951c0.09122,0,0.16585,-0.069828,0.16585,-0.1551745V5.2247285c0,-1.2704883,-0.671693,-2.447872,-1.7974,-3.1539143zM9.6709476,7.2090175H1.710143c-0.5493784,0,-0.99510054,0.4170308,-0.99510054,0.931045v1.2413921c0,0.5140135,0.44572214,0.9310444,0.99510054,0.9310444h7.9608046c0.1824361,0,0.3317014,-0.139656,0.3317014,-0.310349V7.5193651c0,-0.1706913,-0.1492653,-0.3103476,-0.3317014,-0.3103476zM9.0075479,9.3814546H5.3588452V8.1400625H9.0075479ZM10.825679,3.1279381C10.330202,2.8059517,10.002649,2.3074549,10.002649,1.7449486V0.53653017c0,-0.085345,-0.07463,-0.1551741,-0.1658519,-0.1551741H8.8416972c-0.091215,0,-0.1658496,0.069827,-0.1658496,0.1551741V1.8244754c0,0.8476387,0.5099886,1.5827761,1.2500951,2.0696349c0.4643793,0.3045291,0.7401063,0.7991467,0.7401063,1.3306182v0.5877219c0,0.085345,0.07463,0.1551745,0.16585,0.1551745h0.9951c0.09122,0,0.16585,-0.069828,0.16585,-0.1551745V5.2247285c0,-0.8398801,-0.435355,-1.6176904,-1.16717,-2.0967904zm1.00132,4.0810794h-0.9951c-0.09122,0,-0.16585,0.069827,-0.16585,0.1551735v2.793134c0,0.08534,0.07463,0.155174,0.16585,0.155174h0.9951c0.09122,0,0.16585,-0.06983,0.16585,-0.155174V7.364191c0,-0.085344,-0.07463,-0.1551735,-0.16585,-0.1551735z"></path> </svg>