<?xml version="1.0" encoding="utf-8"?> <!DOCTYPE svg PUBLIC "-//W3C//DTD SVG 1.1//EN" "http://www.w3.org/Graphics/SVG/1.1/DTD/svg11.dtd"><svg version="1.1" id="marker-circle-blue" xmlns="http://www.w3.org/2000/svg" xmlns:xlink="http://www.w3.org/1999/xlink" x="0px"  y="0px" width="24px" height="36px" viewBox="0 0 24 36" enable-background="new 0 0 24 36" xml:space="preserve"><polygon fill="#A23337" points="12,36 24,12 18,0 6.017,0 0,12.016 "/><path fill="#ffffff" transform="translate(4.5 4.5)" d="M 14.167969 12.300781 L 9.300781 12.300781 L 9.300781 13.5 L 14.21875 13.5 C 14.625 13.5 14.699219 13.148438 14.699219 13.148438 L 14.699219 12.855469 C 14.699219 12.855469 14.695312 12.300781 14.167969 12.300781 Z M 13.496094 12.0625 C 14.160156 12.0625 14.699219 11.523438 14.699219 10.855469 C 14.699219 10.1875 14.160156 9.648438 13.496094 9.648438 C 12.832031 9.648438 12.292969 10.1875 12.292969 10.855469 C 12.292969 11.523438 12.832031 12.0625 13.496094 12.0625 Z M 10.960938 12 C 11.589844 12 12.097656 11.554688 12.097656 10.925781 C 12.097656 10.292969 11.589844 9.964844 10.960938 9.960938 L 9.300781 10.167969 L 9.300781 12 Z M 5.558594 4.179688 C 6.292969 4.179688 6.890625 3.578125 6.890625 2.839844 C 6.890625 2.101562 6.292969 1.5 5.558594 1.5 C 4.820312 1.5 4.222656 2.101562 4.222656 2.839844 C 4.222656 3.578125 4.820312 4.179688 5.558594 4.179688 Z M 4.195312 8.515625 L 4.183594 8.5 L 3.578125 7.089844 L 3.578125 9.898438 L 5.382812 9.898438 L 5.777344 9.480469 L 4.707031 9.066406 C 4.453125 8.972656 4.273438 8.757812 4.195312 8.515625 Z M 4.578125 8.390625 C 4.636719 8.523438 4.746094 8.628906 4.878906 8.675781 L 6.945312 9.441406 C 7.207031 9.558594 7.515625 9.4375 7.632812 9.171875 C 7.746094 8.90625 7.628906 8.59375 7.363281 8.480469 L 5.460938 7.761719 L 4.871094 6.351562 L 5.253906 6.207031 L 5.753906 7.414062 L 7.199219 7.953125 L 7.199219 6.476562 L 7.96875 6.933594 L 8.351562 8.859375 C 8.445312 9.136719 8.742188 9.28125 9.015625 9.1875 C 9.289062 9.09375 9.433594 8.792969 9.339844 8.515625 L 8.910156 6.660156 C 8.882812 6.554688 8.820312 6.464844 8.742188 6.398438 C 8.519531 6.152344 7.410156 4.910156 7.328125 4.828125 C 7.214844 4.710938 6.949219 4.5 6.445312 4.5 L 4.648438 4.5 C 3.625 4.5 3.425781 5.542969 3.636719 6.074219 Z M 9 10.199219 L 0.890625 10.199219 C 0.59375 10.199219 0.300781 10.367188 0.300781 10.734375 L 0.300781 13.5 L 9 13.5 Z M 9 10.199219 "></path> </svg>