<?xml version="1.0" encoding="utf-8"?> <!DOCTYPE svg PUBLIC "-//W3C//DTD SVG 1.1//EN" "http://www.w3.org/Graphics/SVG/1.1/DTD/svg11.dtd"><svg version="1.1" id="marker-circle-blue" xmlns="http://www.w3.org/2000/svg" xmlns:xlink="http://www.w3.org/1999/xlink" x="0px"  y="0px" width="24px" height="36px" viewBox="0 0 24 36" enable-background="new 0 0 24 36" xml:space="preserve"><polygon fill="#A23337" points="12,36 24,12 18,0 6.017,0 0,12.016 "/><path fill="#ffffff" transform="translate(4.5 4.5)" d="m1.302115,10.245668c0.053106,0.196264,0.2562982,0.314023,0.4525625,0.260916L6.7513366,9.1673684C6.9476009,9.1142616,7.0653595,8.9110702,7.0122526,8.7148059L5.8646836,4.4316254C5.8115767,4.2353612,5.6083854,4.1176025,5.4121211,4.1707094L3.6295792,4.6509797L4.2022092,6.7914155L2.775252,7.1723991L2.202622,5.0319634L0.41777115,5.5099248C0.22150681,5.5630316,0.10374821,5.7662229,0.15685503,5.9624873ZM9.0095309,1.5730932c-0.4086917,0,-0.7388775,0.3301859,-0.7388775,0.7388775V9.7838693L0.27923161,11.963557c-0.0992867,0.0277,-0.15701146,0.129303,-0.12930355,0.226281l0.29093301,1.069064c0.0277079,0.09929,0.12930356,0.157011,0.22628123,0.129303l9.0905021,-2.479856c0.055415,1.380776,1.1822036,2.486783,2.5768346,2.486783c1.429266,0,2.586071,-1.156805,2.586071,-2.58607V1.5730932ZM12.334479,11.917377c-0.611882,0,-1.108316,-0.496433,-1.108316,-1.108315c0,-0.611883,0.496434,-1.1083164,1.108316,-1.1083164c0.611883,0,1.108317,0.4964334,1.108317,1.1083164c0,0.611882,-0.496434,1.108315,-1.108317,1.108315z"></path> </svg>