<?xml version="1.0" encoding="utf-8"?> <!DOCTYPE svg PUBLIC "-//W3C//DTD SVG 1.1//EN" "http://www.w3.org/Graphics/SVG/1.1/DTD/svg11.dtd"><svg version="1.1" id="marker-circle-blue" xmlns="http://www.w3.org/2000/svg" xmlns:xlink="http://www.w3.org/1999/xlink" x="0px"  y="0px" width="24px" height="36px" viewBox="0 0 24 36" enable-background="new 0 0 24 36" xml:space="preserve"><polygon fill="#EF9228" points="12,36 24,12 18,0 6.017,0 0,12.016 "/><path fill="#ffffff" transform="translate(4.5 4.5)" d="M7.5,1c-2,0,-7,0.25,-6.5,0.75L7,8v4c0,1,-3,0.5,-3,2h7c0,-1.5,-3,-1,-3,-2V8l6,-6.25C14.5,1.25,9.5,1,7.5,1zM7.5,2c2.5,0,4.75,0.25,4.75,0.25L11.5,3h-8L2.75,2.25C2.75,2.25,5,2,7.5,2z"></path> </svg>