<?xml version="1.0" encoding="utf-8"?> <!DOCTYPE svg PUBLIC "-//W3C//DTD SVG 1.1//EN" "http://www.w3.org/Graphics/SVG/1.1/DTD/svg11.dtd"><svg version="1.1" id="marker-circle-blue" xmlns="http://www.w3.org/2000/svg" xmlns:xlink="http://www.w3.org/1999/xlink" x="0px"  y="0px" width="24px" height="36px" viewBox="0 0 24 36" enable-background="new 0 0 24 36" xml:space="preserve"><polygon fill="#A23337" points="12,36 24,12 18,0 6.017,0 0,12.016 "/><path fill="#ffffff" transform="translate(4.5 4.5)" d="M7.652344,0.867188L0.378906,6.898438L2.101562,6.898438L2.101562,14.101562L12.898438,14.101562L12.898438,6.898438L14.78125,6.898438ZM9.28125,12L5.878906,12L6.59375,8.785156C6.160156,8.488281,5.878906,8.035156,5.878906,7.480469C5.878906,6.570312,6.640625,5.851562,7.582031,5.851562C8.519531,5.851562,9.28125,6.597656,9.28125,7.507812C9.28125,8.0625,9,8.484375,8.570312,8.78125ZM9.28125,12"></path> </svg>