<?xml version="1.0" encoding="utf-8"?> <!DOCTYPE svg PUBLIC "-//W3C//DTD SVG 1.1//EN" "http://www.w3.org/Graphics/SVG/1.1/DTD/svg11.dtd"><svg version="1.1" id="marker-circle-blue" xmlns="http://www.w3.org/2000/svg" xmlns:xlink="http://www.w3.org/1999/xlink" x="0px"  y="0px" width="24px" height="36px" viewBox="0 0 24 36" enable-background="new 0 0 24 36" xml:space="preserve"><polygon fill="#EF9228" points="12,36 24,12 18,0 6.017,0 0,12.016 "/><path fill="#ffffff" transform="translate(4.5 4.5)" d="M7.601562,7.289062C7.601562,7.289062,6.148438,8.457031,6.148438,9.402344C6.148438,9.824219,6.769531,10.246094,7.601562,10.246094C8.429688,10.246094,9.050781,9.824219,9.050781,9.402344C9.050781,8.421875,7.601562,7.289062,7.601562,7.289062ZM12.894531,5.15625C12.976562,4.125,13.273438,3.183594,13.800781,2.316406L11.785156,0.300781C11.148438,0.847656,10.421875,1.152344,9.601562,1.207031C8.847656,1.273438,8.132812,1.128906,7.460938,0.773438C6.773438,1.117188,6.0625,1.261719,5.320312,1.207031C4.554688,1.136719,3.859375,0.863281,3.242188,0.382812L1.21875,2.398438C1.71875,3.277344,1.992188,4.195312,2.046875,5.15625C2.074219,5.597656,1.949219,6.203125,1.664062,6.988281C1.519531,7.425781,1.40625,7.800781,1.328125,8.117188C1.257812,8.433594,1.214844,8.6875,1.199219,8.878906C1.191406,9.714844,1.425781,10.472656,1.90625,11.144531C2.28125,11.632812,2.902344,12.175781,3.765625,12.765625C4.707031,13.246094,5.4375,13.558594,5.949219,13.691406L6.371094,13.890625C6.503906,13.953125,6.648438,14.015625,6.796875,14.082031C7.117188,14.273438,7.34375,14.484375,7.460938,14.699219C7.609375,14.464844,7.839844,14.261719,8.144531,14.082031C8.363281,13.988281,8.546875,13.90625,8.691406,13.835938L9.011719,13.691406C9.121094,13.636719,9.265625,13.574219,9.4375,13.507812C9.613281,13.4375,9.828125,13.355469,10.085938,13.261719C10.582031,13.085938,10.945312,12.917969,11.175781,12.765625C12.011719,12.175781,12.625,11.640625,13.011719,11.164062C13.511719,10.492188,13.753906,9.730469,13.742188,8.878906C13.710938,8.496094,13.550781,7.882812,13.257812,7.050781C12.976562,6.238281,12.851562,5.609375,12.894531,5.15625ZM7.601562,11.089844C5.769531,11.089844,4.074219,9.578125,4.074219,7.710938C4.074219,6.445312,5.042969,5.246094,5.320312,4.753906L6.148438,6.023438L7.601562,3.910156L9.050781,6.023438L9.882812,4.753906C10.15625,5.246094,11.125,6.445312,11.125,7.710938C11.125,9.578125,9.433594,11.089844,7.601562,11.089844ZM7.601562,11.089844"></path> </svg>