<?xml version="1.0" encoding="utf-8"?> <!DOCTYPE svg PUBLIC "-//W3C//DTD SVG 1.1//EN" "http://www.w3.org/Graphics/SVG/1.1/DTD/svg11.dtd"><svg version="1.1" id="marker-circle-blue" xmlns="http://www.w3.org/2000/svg" xmlns:xlink="http://www.w3.org/1999/xlink" x="0px"  y="0px" width="24px" height="36px" viewBox="0 0 24 36" enable-background="new 0 0 24 36" xml:space="preserve"><polygon fill="#EF9228" points="12,36 24,12 18,0 6.017,0 0,12.016 "/><path fill="#ffffff" transform="translate(4.5 4.5)" d="M6.546875,9.023438C6.539062,9.039062,6.503906,9.039062,6.441406,9.019531C6.375,9,6.289062,8.96875,6.175781,8.921875L6.011719,8.847656C5.765625,8.734375,5.523438,8.597656,5.28125,8.4375C5.242188,8.410156,5.128906,8.320312,4.9375,8.171875C4.75,8.027344,4.644531,7.945312,4.621094,7.933594C4.246094,8.511719,3.871094,9.015625,3.5,9.449219C3.046875,9.980469,2.753906,10.289062,2.621094,10.371094C2.597656,10.382812,2.542969,10.394531,2.457031,10.40625C2.371094,10.414062,2.320312,10.414062,2.300781,10.40625C2.335938,10.382812,2.5625,10.125,2.988281,9.632812C3.105469,9.5,3.34375,9.179688,3.703125,8.671875C4.0625,8.164062,4.28125,7.835938,4.359375,7.683594C4.457031,7.515625,4.597656,7.242188,4.789062,6.859375C4.976562,6.476562,5.078125,6.261719,5.089844,6.210938C5.042969,6.207031,4.738281,6.296875,4.167969,6.488281C4.125,6.5,4.046875,6.519531,3.9375,6.550781C3.828125,6.582031,3.734375,6.605469,3.648438,6.628906C3.566406,6.652344,3.519531,6.664062,3.507812,6.671875C3.496094,6.683594,3.492188,6.710938,3.492188,6.757812C3.492188,6.804688,3.488281,6.832031,3.480469,6.839844C3.453125,6.894531,3.367188,6.9375,3.222656,6.964844C3.09375,7.003906,2.964844,7.003906,2.828125,6.964844C2.730469,6.941406,2.652344,6.882812,2.59375,6.789062C2.574219,6.753906,2.558594,6.691406,2.554688,6.597656C2.585938,6.585938,2.65625,6.570312,2.757812,6.554688C2.859375,6.539062,2.945312,6.519531,3.003906,6.503906C3.328125,6.414062,3.621094,6.324219,3.882812,6.234375C4.441406,6.039062,4.726562,5.941406,4.738281,5.941406C4.792969,5.933594,4.914062,5.878906,5.097656,5.78125C5.28125,5.683594,5.40625,5.621094,5.464844,5.601562C5.515625,5.582031,5.574219,5.5625,5.644531,5.53125C5.714844,5.503906,5.757812,5.488281,5.765625,5.488281C5.777344,5.484375,5.796875,5.484375,5.816406,5.492188C5.828125,5.558594,5.824219,5.648438,5.808594,5.765625C5.808594,5.777344,5.773438,5.855469,5.703125,5.992188C5.632812,6.132812,5.5625,6.28125,5.484375,6.441406C5.40625,6.601562,5.355469,6.695312,5.339844,6.722656C5.199219,7,4.984375,7.367188,4.695312,7.816406L5.230469,8.050781C5.296875,8.085938,5.507812,8.175781,5.855469,8.320312C6.203125,8.464844,6.390625,8.542969,6.421875,8.554688C6.441406,8.558594,6.472656,8.632812,6.507812,8.769531C6.542969,8.90625,6.558594,8.988281,6.546875,9.023438ZM4.828125,4.957031C4.847656,5.039062,4.835938,5.117188,4.796875,5.191406C4.730469,5.316406,4.589844,5.425781,4.378906,5.507812C4.210938,5.574219,4.042969,5.609375,3.875,5.609375C3.730469,5.589844,3.59375,5.519531,3.464844,5.390625C3.386719,5.308594,3.335938,5.191406,3.316406,5.046875L3.324219,5.023438C3.339844,5.039062,3.394531,5.054688,3.484375,5.0625C3.578125,5.074219,3.652344,5.074219,3.707031,5.0625C3.765625,5.054688,3.925781,5.007812,4.195312,4.929688C4.394531,4.863281,4.546875,4.824219,4.652344,4.8125C4.75,4.8125,4.808594,4.859375,4.828125,4.957031ZM10.671875,6.035156L11.199219,7.933594L10.035156,7.582031ZM1.398438,12.730469L7.207031,10.789062L7.207031,2.152344L1.398438,4.101562ZM11.785156,10.078125L12.640625,10.335938L11.125,4.839844L10.289062,4.578125L8.480469,9.066406L9.332031,9.324219L9.710938,8.402344L11.476562,8.949219ZM7.574219,2.027344L12.371094,3.566406L12.371094,0.386719ZM10.179688,13.101562L11.5,13.207031L11.050781,14.546875L10.714844,13.996094C9.988281,14.457031,9.21875,14.761719,8.402344,14.898438C8.082031,14.964844,7.828125,15,7.640625,15L6.9375,15C6.5,15,5.941406,14.890625,5.269531,14.671875C4.597656,14.457031,4.085938,14.21875,3.734375,13.960938C3.6875,13.921875,3.667969,13.878906,3.667969,13.828125C3.667969,13.785156,3.679688,13.746094,3.707031,13.714844C3.734375,13.683594,3.773438,13.667969,3.816406,13.667969C3.839844,13.667969,3.890625,13.691406,3.96875,13.730469C4.046875,13.773438,4.132812,13.820312,4.222656,13.871094C4.316406,13.921875,4.371094,13.949219,4.394531,13.960938C4.800781,14.167969,5.246094,14.339844,5.730469,14.476562C6.210938,14.613281,6.652344,14.683594,7.046875,14.683594C7.578125,14.683594,8.042969,14.640625,8.445312,14.5625C8.847656,14.480469,9.285156,14.339844,9.761719,14.136719C9.84375,14.097656,9.929688,14.054688,10.015625,14.007812C10.101562,13.960938,10.195312,13.90625,10.300781,13.847656C10.402344,13.789062,10.484375,13.746094,10.539062,13.710938ZM13.929688,4.066406L13.929688,13.101562L7.449219,11.039062C7.371094,11.074219,6.324219,11.429688,4.3125,12.109375C2.296875,12.785156,1.269531,13.125,1.230469,13.125C1.15625,13.125,1.109375,13.089844,1.078125,13.015625C1.078125,13.011719,1.078125,13.003906,1.070312,12.992188L1.070312,3.96875C1.089844,3.917969,1.097656,3.890625,1.105469,3.882812C1.132812,3.851562,1.1875,3.820312,1.273438,3.792969C1.863281,3.597656,2.28125,3.457031,2.519531,3.375L2.519531,0.160156L7.191406,1.816406C7.203125,1.816406,7.648438,1.664062,8.535156,1.355469C9.417969,1.050781,10.300781,0.746094,11.179688,0.449219C12.058594,0.148438,12.507812,0,12.53125,0C12.640625,0,12.699219,0.0585938,12.699219,0.175781L12.699219,3.675781ZM13.929688,4.066406"></path> </svg>