<?xml version="1.0" encoding="utf-8"?> <!DOCTYPE svg PUBLIC "-//W3C//DTD SVG 1.1//EN" "http://www.w3.org/Graphics/SVG/1.1/DTD/svg11.dtd"><svg version="1.1" id="marker-circle-blue" xmlns="http://www.w3.org/2000/svg" xmlns:xlink="http://www.w3.org/1999/xlink" x="0px"  y="0px" width="24px" height="36px" viewBox="0 0 24 36" enable-background="new 0 0 24 36" xml:space="preserve"><polygon fill="#A23337" points="12,36 24,12 18,0 6.017,0 0,12.016 "/><path fill="#ffffff" transform="translate(4.5 4.5)" d="M 11.089844 8.570312 L 10.179688 8.570312 C 10.035156 8.570312 9.90625 8.519531 9.800781 8.414062 C 9.695312 8.304688 9.644531 8.179688 9.644531 8.035156 L 9.644531 6.964844 C 9.644531 6.820312 9.695312 6.695312 9.800781 6.585938 C 9.90625 6.480469 10.035156 6.429688 10.179688 6.429688 L 11.089844 6.429688 C 10.914062 5.824219 10.597656 5.300781 10.148438 4.851562 C 9.699219 4.402344 9.175781 4.085938 8.570312 3.910156 L 8.570312 4.820312 C 8.570312 4.964844 8.519531 5.09375 8.414062 5.199219 C 8.304688 5.304688 8.179688 5.355469 8.035156 5.355469 L 6.964844 5.355469 C 6.820312 5.355469 6.695312 5.304688 6.585938 5.199219 C 6.480469 5.09375 6.429688 4.964844 6.429688 4.820312 L 6.429688 3.910156 C 5.824219 4.085938 5.300781 4.402344 4.851562 4.851562 C 4.402344 5.300781 4.085938 5.824219 3.910156 6.429688 L 4.820312 6.429688 C 4.964844 6.429688 5.09375 6.480469 5.199219 6.585938 C 5.304688 6.695312 5.355469 6.820312 5.355469 6.964844 L 5.355469 8.035156 C 5.355469 8.179688 5.304688 8.304688 5.199219 8.414062 C 5.09375 8.519531 4.964844 8.570312 4.820312 8.570312 L 3.910156 8.570312 C 4.085938 9.175781 4.402344 9.699219 4.851562 10.148438 C 5.300781 10.597656 5.824219 10.914062 6.429688 11.089844 L 6.429688 10.179688 C 6.429688 10.035156 6.480469 9.90625 6.585938 9.800781 C 6.695312 9.695312 6.820312 9.644531 6.964844 9.644531 L 8.035156 9.644531 C 8.179688 9.644531 8.304688 9.695312 8.414062 9.800781 C 8.519531 9.90625 8.570312 10.035156 8.570312 10.179688 L 8.570312 11.089844 C 9.175781 10.914062 9.699219 10.597656 10.148438 10.148438 C 10.597656 9.699219 10.914062 9.175781 11.089844 8.570312 Z M 13.929688 6.964844 L 13.929688 8.035156 C 13.929688 8.179688 13.875 8.304688 13.769531 8.414062 C 13.664062 8.519531 13.539062 8.570312 13.394531 8.570312 L 12.195312 8.570312 C 11.988281 9.46875 11.558594 10.246094 10.902344 10.902344 C 10.246094 11.558594 9.46875 11.988281 8.570312 12.195312 L 8.570312 13.394531 C 8.570312 13.539062 8.519531 13.664062 8.414062 13.769531 C 8.304688 13.875 8.179688 13.929688 8.035156 13.929688 L 6.964844 13.929688 C 6.820312 13.929688 6.695312 13.875 6.585938 13.769531 C 6.480469 13.664062 6.429688 13.539062 6.429688 13.394531 L 6.429688 12.195312 C 5.53125 11.988281 4.753906 11.558594 4.097656 10.902344 C 3.441406 10.246094 3.011719 9.46875 2.804688 8.570312 L 1.605469 8.570312 C 1.460938 8.570312 1.335938 8.519531 1.230469 8.414062 C 1.125 8.304688 1.070312 8.179688 1.070312 8.035156 L 1.070312 6.964844 C 1.070312 6.820312 1.125 6.695312 1.230469 6.585938 C 1.335938 6.480469 1.460938 6.429688 1.605469 6.429688 L 2.804688 6.429688 C 3.011719 5.53125 3.441406 4.753906 4.097656 4.097656 C 4.753906 3.441406 5.53125 3.011719 6.429688 2.804688 L 6.429688 1.605469 C 6.429688 1.460938 6.480469 1.335938 6.585938 1.230469 C 6.695312 1.125 6.820312 1.070312 6.964844 1.070312 L 8.035156 1.070312 C 8.179688 1.070312 8.304688 1.125 8.414062 1.230469 C 8.519531 1.335938 8.570312 1.460938 8.570312 1.605469 L 8.570312 2.804688 C 9.46875 3.011719 10.246094 3.441406 10.902344 4.097656 C 11.558594 4.753906 11.988281 5.53125 12.195312 6.429688 L 13.394531 6.429688 C 13.539062 6.429688 13.664062 6.480469 13.769531 6.585938 C 13.875 6.695312 13.929688 6.820312 13.929688 6.964844 Z M 13.929688 6.964844 "></path> </svg>