<?xml version="1.0" encoding="utf-8"?> <!DOCTYPE svg PUBLIC "-//W3C//DTD SVG 1.1//EN" "http://www.w3.org/Graphics/SVG/1.1/DTD/svg11.dtd"><svg version="1.1" id="marker-circle-blue" xmlns="http://www.w3.org/2000/svg" xmlns:xlink="http://www.w3.org/1999/xlink" x="0px"  y="0px" width="24px" height="36px" viewBox="0 0 24 36" enable-background="new 0 0 24 36" xml:space="preserve"><polygon fill="#A23337" points="12,36 24,12 18,0 6.017,0 0,12.016 "/><path fill="#ffffff" transform="translate(4.5 4.5)" d="M14.8327 8.63775L12.0187 5.80475C11.8297 5.61175 11.4407 5.66575 11.1497 5.92975L10.9797 6.08475L9.97372 4.97875L10.2787 4.70375C10.5757 4.43375 10.6637 4.04875 10.4737 3.84075L7.63572 0.717751C6.76372 -0.240249 5.07672 -0.239249 3.53272 0.720751L0.443716 2.63975C0.0457161 2.88675 -0.124284 3.36975 0.0997161 3.61575L4.90372 8.90175C5.09172 9.10875 5.48672 9.05775 5.78272 8.79075L8.90172 5.95675L9.90572 7.06075L9.73572 7.21575C9.44272 7.48275 9.35272 7.85975 9.53072 8.07075L12.0797 11.1388C12.0877 11.1508 12.0997 11.1598 12.1047 11.1698L12.1047 11.1698C12.5887 11.7008 13.5887 11.5568 14.3277 10.8868L14.3667 10.8478C15.1187 10.1688 15.3527 9.16275 14.8327 8.63775ZM4.34472 2.69175C4.06372 2.38175 4.19372 1.80475 4.63772 1.40275C5.08072 0.998751 5.66872 0.923751 5.95072 1.23475C6.23272 1.54475 6.10172 2.12175 5.65872 2.52575C5.21372 2.92675 4.62772 3.00175 4.34472 2.69175Z"></path> </svg>