<?xml version="1.0" encoding="utf-8"?> <!DOCTYPE svg PUBLIC "-//W3C//DTD SVG 1.1//EN" "http://www.w3.org/Graphics/SVG/1.1/DTD/svg11.dtd"><svg version="1.1" id="marker-circle-blue" xmlns="http://www.w3.org/2000/svg" xmlns:xlink="http://www.w3.org/1999/xlink" x="0px"  y="0px" width="24px" height="36px" viewBox="0 0 24 36" enable-background="new 0 0 24 36" xml:space="preserve"><polygon fill="#A23337" points="12,36 24,12 18,0 6.017,0 0,12.016 "/><path fill="#ffffff" transform="translate(4.5 4.5)" d="M 13.800781 9.601562 L 13.800781 12 L 15 12 L 15 8.398438 L 1.199219 8.398438 L 1.199219 3.496094 C 1.199219 3.160156 0.9375 2.886719 0.601562 2.886719 C 0.261719 2.886719 0 3.160156 0 3.496094 L 0 12 L 1.199219 12 L 1.199219 9.601562 Z M 3.097656 5.957031 C 3.710938 5.957031 4.207031 5.460938 4.207031 4.847656 C 4.207031 4.238281 3.710938 3.746094 3.097656 3.746094 C 2.488281 3.746094 1.992188 4.238281 1.992188 4.847656 C 1.992188 5.460938 2.488281 5.957031 3.097656 5.957031 Z M 15 7.5 L 14.996094 6.039062 C 14.992188 5.558594 14.585938 5.253906 14.113281 5.195312 L 5.425781 4.347656 L 5.363281 4.34375 C 5.0625 4.34375 4.800781 4.59375 4.800781 4.894531 L 4.800781 6.601562 L 2.5625 6.601562 C 2.261719 6.601562 2.015625 6.75 2.015625 7.050781 C 2.015625 7.355469 2.261719 7.5 2.5625 7.5 Z M 15 7.5 "></path> </svg>