<?xml version="1.0" encoding="utf-8"?> <!DOCTYPE svg PUBLIC "-//W3C//DTD SVG 1.1//EN" "http://www.w3.org/Graphics/SVG/1.1/DTD/svg11.dtd"><svg version="1.1" id="marker-circle-blue" xmlns="http://www.w3.org/2000/svg" xmlns:xlink="http://www.w3.org/1999/xlink" x="0px"  y="0px" width="24px" height="36px" viewBox="0 0 24 36" enable-background="new 0 0 24 36" xml:space="preserve"><polygon fill="#EF9228" points="12,36 24,12 18,0 6.017,0 0,12.016 "/><path fill="#ffffff" transform="translate(4.5 4.5)" d="M 11.101562 2.101562 L 2.699219 2.101562 L 2.699219 10.199219 C 2.699219 10.859375 3.238281 11.398438 3.898438 11.398438 L 9.898438 11.398438 C 10.558594 11.398438 11.101562 10.859375 11.101562 10.199219 L 11.101562 8.699219 C 12.921875 8.699219 14.398438 7.222656 14.398438 5.398438 C 14.398438 3.578125 12.921875 2.101562 11.101562 2.101562 Z M 11.101562 7.199219 L 11.101562 3.601562 C 12.09375 3.601562 12.898438 4.40625 12.898438 5.398438 C 12.898438 6.394531 12.09375 7.199219 11.101562 7.199219 Z M 0.601562 12 L 0.601562 12.691406 C 0.601562 13.257812 1.21875 13.5 1.980469 13.5 L 13.019531 13.5 C 13.777344 13.5 14.398438 13.257812 14.398438 12.691406 L 14.398438 12 Z M 0.601562 12 "></path> </svg>