<?xml version="1.0" encoding="utf-8"?> <!DOCTYPE svg PUBLIC "-//W3C//DTD SVG 1.1//EN" "http://www.w3.org/Graphics/SVG/1.1/DTD/svg11.dtd"><svg version="1.1" id="marker-circle-blue" xmlns="http://www.w3.org/2000/svg" xmlns:xlink="http://www.w3.org/1999/xlink" x="0px"  y="0px" width="24px" height="36px" viewBox="0 0 24 36" enable-background="new 0 0 24 36" xml:space="preserve"><polygon fill="#5B396C" points="12,36 24,12 18,0 6.017,0 0,12.016 "/><path fill="#ffffff" transform="translate(4.5 4.5)" d="M 9.472656 9.046875 C 9.472656 9.046875 8.90625 7.640625 8.363281 6.292969 C 8.363281 6.292969 8.179688 5.488281 8.320312 4.414062 C 8.320312 4.414062 8.710938 2.777344 8.496094 2 C 8.496094 2 8.160156 1.335938 7.472656 1.289062 C 7.472656 1.289062 6.519531 1.359375 6.34375 2.285156 C 6.34375 2.285156 6.296875 2.820312 6.445312 3.433594 C 6.445312 3.433594 6.976562 5.472656 6.390625 6.804688 C 6.390625 6.804688 5.574219 8.507812 5.511719 8.898438 C 5.511719 8.898438 5.207031 10.570312 5.507812 11.796875 C 5.507812 11.796875 6.136719 13.902344 6.601562 14.597656 C 6.601562 14.597656 7.535156 14.839844 8.339844 14.578125 C 8.339844 14.578125 9.304688 13.019531 9.496094 11.605469 C 9.496094 11.605469 9.738281 10.117188 9.472656 9.046875 Z M 12.472656 8.054688 C 12.472656 8.054688 11.910156 6.648438 11.363281 5.304688 C 11.363281 5.304688 11.179688 4.496094 11.320312 3.425781 C 11.320312 3.425781 11.710938 1.785156 11.496094 1.011719 C 11.496094 1.011719 11.164062 0.347656 10.472656 0.300781 C 10.472656 0.300781 9.519531 0.367188 9.34375 1.292969 C 9.34375 1.292969 9.296875 1.828125 9.445312 2.445312 C 9.445312 2.445312 9.980469 4.484375 9.394531 5.8125 C 9.394531 5.8125 9.265625 6.082031 9.109375 6.421875 C 9.621094 7.683594 10.113281 8.910156 10.113281 8.910156 L 10.121094 8.933594 L 10.125 8.953125 C 10.40625 10.074219 10.167969 11.578125 10.160156 11.632812 C 10.066406 12.304688 9.816406 12.988281 9.566406 13.546875 L 9.601562 13.609375 C 9.601562 13.609375 10.539062 13.847656 11.34375 13.585938 C 11.34375 13.585938 12.308594 12.027344 12.5 10.617188 C 12.5 10.617188 12.742188 9.125 12.472656 8.054688 Z M 5.765625 6.675781 C 5.800781 6.605469 5.824219 6.53125 5.851562 6.453125 C 5.703125 6.089844 5.542969 5.699219 5.386719 5.3125 C 5.386719 5.3125 5.203125 4.5 5.347656 3.429688 C 5.347656 3.429688 5.734375 1.792969 5.519531 1.015625 C 5.519531 1.015625 5.1875 0.351562 4.496094 0.304688 C 4.496094 0.304688 3.542969 0.375 3.367188 1.296875 C 3.367188 1.296875 3.320312 1.835938 3.472656 2.449219 C 3.472656 2.449219 4.003906 4.488281 3.417969 5.820312 C 3.417969 5.820312 2.601562 7.523438 2.535156 7.914062 C 2.535156 7.914062 2.230469 9.585938 2.53125 10.8125 C 2.53125 10.8125 3.164062 12.917969 3.625 13.613281 C 3.625 13.613281 4.5625 13.855469 5.367188 13.589844 L 5.417969 13.507812 C 5.121094 12.734375 4.882812 11.9375 4.863281 11.875 C 4.550781 10.59375 4.851562 8.914062 4.863281 8.847656 C 4.929688 8.433594 5.632812 6.957031 5.765625 6.675781 Z M 5.765625 6.675781 "></path> </svg>