<?xml version="1.0" encoding="utf-8"?> <!DOCTYPE svg PUBLIC "-//W3C//DTD SVG 1.1//EN" "http://www.w3.org/Graphics/SVG/1.1/DTD/svg11.dtd"><svg version="1.1" id="marker-circle-blue" xmlns="http://www.w3.org/2000/svg" xmlns:xlink="http://www.w3.org/1999/xlink" x="0px"  y="0px" width="24px" height="36px" viewBox="0 0 24 36" enable-background="new 0 0 24 36" xml:space="preserve"><polygon fill="#EF9228" points="12,36 24,12 18,0 6.017,0 0,12.016 "/><path fill="#ffffff" transform="translate(4.5 4.5)" d="M3.5,1v13H12V1H3.5zM9.5,2H11v3.5H9.5V2zM4.5,2.0547H6V7H4.5V2.0547zM7,2.0547h1.5V7H7V2.0547zM10.25,6.5C10.6642,6.5,11,6.8358,11,7.25S10.6642,8,10.25,8l0,0C9.8358,8,9.5,7.6642,9.5,7.25l0,0C9.5,6.8358,9.8358,6.5,10.25,6.5zM7,8h1.4727L8.5,13H7.0273L7,8zM4.5,8.166H6V13H4.5V8.166zM9.5,9H11v4H9.5V9z"></path> </svg>