<?xml version="1.0" encoding="utf-8"?> <!DOCTYPE svg PUBLIC "-//W3C//DTD SVG 1.1//EN" "http://www.w3.org/Graphics/SVG/1.1/DTD/svg11.dtd"><svg version="1.1" id="marker-circle-blue" xmlns="http://www.w3.org/2000/svg" xmlns:xlink="http://www.w3.org/1999/xlink" x="0px"  y="0px" width="24px" height="36px" viewBox="0 0 24 36" enable-background="new 0 0 24 36" xml:space="preserve"><polygon fill="#EF9228" points="12,36 24,12 18,0 6.017,0 0,12.016 "/><path fill="#ffffff" transform="translate(4.5 4.5)" d="M3.214844,4.554688L3.214844,9.375C3.214844,9.449219,3.1875,9.511719,3.132812,9.5625C3.082031,9.617188,3.019531,9.644531,2.945312,9.644531C2.867188,9.644531,2.804688,9.617188,2.753906,9.566406L0.34375,7.15625C0.292969,7.105469,0.269531,7.042969,0.269531,6.964844C0.269531,6.886719,0.292969,6.820312,0.34375,6.773438L2.753906,4.359375C2.804688,4.3125,2.867188,4.285156,2.945312,4.285156C3.019531,4.285156,3.082031,4.3125,3.132812,4.367188C3.1875,4.417969,3.214844,4.480469,3.214844,4.554688ZM15,10.980469L15,12.589844C15,12.660156,14.972656,12.722656,14.921875,12.777344C14.867188,12.832031,14.804688,12.855469,14.730469,12.855469L0.269531,12.855469C0.195312,12.855469,0.132812,12.832031,0.078125,12.777344C0.0273438,12.722656,0,12.660156,0,12.589844L0,10.980469C0,10.910156,0.0273438,10.847656,0.078125,10.792969C0.132812,10.742188,0.195312,10.714844,0.269531,10.714844L14.730469,10.714844C14.804688,10.714844,14.867188,10.742188,14.921875,10.792969C14.972656,10.847656,15,10.910156,15,10.980469ZM15,7.769531L15,9.375C15,9.449219,14.972656,9.511719,14.921875,9.5625C14.867188,9.617188,14.804688,9.644531,14.730469,9.644531L5.625,9.644531C5.550781,9.644531,5.488281,9.617188,5.4375,9.5625C5.382812,9.511719,5.355469,9.449219,5.355469,9.375L5.355469,7.769531C5.355469,7.695312,5.382812,7.632812,5.4375,7.578125C5.488281,7.527344,5.550781,7.5,5.625,7.5L14.730469,7.5C14.804688,7.5,14.867188,7.527344,14.921875,7.578125C14.972656,7.632812,15,7.695312,15,7.769531ZM15,4.554688L15,6.160156C15,6.234375,14.972656,6.296875,14.921875,6.347656C14.867188,6.402344,14.804688,6.429688,14.730469,6.429688L5.625,6.429688C5.550781,6.429688,5.488281,6.402344,5.4375,6.347656C5.382812,6.296875,5.355469,6.234375,5.355469,6.160156L5.355469,4.554688C5.355469,4.480469,5.382812,4.417969,5.4375,4.367188C5.488281,4.3125,5.550781,4.285156,5.625,4.285156L14.730469,4.285156C14.804688,4.285156,14.867188,4.3125,14.921875,4.367188C14.972656,4.417969,15,4.480469,15,4.554688ZM15,1.339844L15,2.945312C15,3.019531,14.972656,3.082031,14.921875,3.132812C14.867188,3.1875,14.804688,3.214844,14.730469,3.214844L0.269531,3.214844C0.195312,3.214844,0.132812,3.1875,0.078125,3.132812C0.0273438,3.082031,0,3.019531,0,2.945312L0,1.339844C0,1.265625,0.0273438,1.203125,0.078125,1.152344C0.132812,1.097656,0.195312,1.070312,0.269531,1.070312L14.730469,1.070312C14.804688,1.070312,14.867188,1.097656,14.921875,1.152344C14.972656,1.203125,15,1.265625,15,1.339844ZM15,1.339844"></path> </svg>