<?xml version="1.0" encoding="utf-8"?> <!DOCTYPE svg PUBLIC "-//W3C//DTD SVG 1.1//EN" "http://www.w3.org/Graphics/SVG/1.1/DTD/svg11.dtd"><svg version="1.1" id="marker-circle-blue" xmlns="http://www.w3.org/2000/svg" xmlns:xlink="http://www.w3.org/1999/xlink" x="0px"  y="0px" width="24px" height="36px" viewBox="0 0 24 36" enable-background="new 0 0 24 36" xml:space="preserve"><polygon fill="#D3D3D3" points="12,36 24,12 18,0 6.017,0 0,12.016 "/><path fill="#ffffff" transform="translate(4.5 4.5)" d="M14,1v12H1V8.72c0.0016,-0.1419,0.0634,-0.2764,0.17,-0.37l3,-3.22c0.2074,-0.1823,0.5234,-0.1618,0.7056,0.0456C4.9568,5.268,5.0011,5.387,5,5.51v3l3.16,-3.37c0.2025,-0.1878,0.5188,-0.1759,0.7066,0.0266C8.9532,5.2599,9.0009,5.3827,9,5.51V11h3V1H14z"></path> </svg>