<?xml version="1.0" encoding="utf-8"?> <!DOCTYPE svg PUBLIC "-//W3C//DTD SVG 1.1//EN" "http://www.w3.org/Graphics/SVG/1.1/DTD/svg11.dtd"><svg version="1.1" id="marker-circle-blue" xmlns="http://www.w3.org/2000/svg" xmlns:xlink="http://www.w3.org/1999/xlink" x="0px"  y="0px" width="24px" height="36px" viewBox="0 0 24 36" enable-background="new 0 0 24 36" xml:space="preserve"><polygon fill="#A23337" points="12,36 24,12 18,0 6.017,0 0,12.016 "/><path fill="#ffffff" transform="translate(4.5 4.5)" d="M13.359375,3.984375C13.4375,4.0625,13.515625,4.164062,13.59375,4.285156L9.644531,4.285156L9.644531,0.335938C9.765625,0.414062,9.867188,0.492188,9.945312,0.570312ZM9.375,5.355469L13.929688,5.355469L13.929688,14.195312C13.929688,14.417969,13.851562,14.609375,13.695312,14.765625C13.539062,14.921875,13.347656,15,13.125,15L1.875,15C1.652344,15,1.460938,14.921875,1.304688,14.765625C1.148438,14.609375,1.070312,14.417969,1.070312,14.195312L1.070312,0.804688C1.070312,0.582031,1.148438,0.390625,1.304688,0.234375C1.460938,0.078125,1.652344,0,1.875,0L8.570312,0L8.570312,4.554688C8.570312,4.777344,8.648438,4.964844,8.804688,5.121094C8.960938,5.277344,9.152344,5.355469,9.375,5.355469ZM10.714844,11.519531L10.714844,10.980469C10.714844,10.902344,10.6875,10.839844,10.640625,10.789062C10.589844,10.738281,10.523438,10.714844,10.445312,10.714844L4.554688,10.714844C4.476562,10.714844,4.410156,10.738281,4.359375,10.789062C4.3125,10.839844,4.285156,10.902344,4.285156,10.980469L4.285156,11.519531C4.285156,11.597656,4.3125,11.660156,4.359375,11.710938C4.410156,11.761719,4.476562,11.785156,4.554688,11.785156L10.445312,11.785156C10.523438,11.785156,10.589844,11.761719,10.640625,11.710938C10.6875,11.660156,10.714844,11.597656,10.714844,11.519531ZM10.714844,9.375L10.714844,8.839844C10.714844,8.761719,10.6875,8.695312,10.640625,8.648438C10.589844,8.597656,10.523438,8.570312,10.445312,8.570312L4.554688,8.570312C4.476562,8.570312,4.410156,8.597656,4.359375,8.648438C4.3125,8.695312,4.285156,8.761719,4.285156,8.839844L4.285156,9.375C4.285156,9.453125,4.3125,9.515625,4.359375,9.566406C4.410156,9.617188,4.476562,9.644531,4.554688,9.644531L10.445312,9.644531C10.523438,9.644531,10.589844,9.617188,10.640625,9.566406C10.6875,9.515625,10.714844,9.453125,10.714844,9.375ZM10.714844,7.230469L10.714844,6.695312C10.714844,6.617188,10.6875,6.554688,10.640625,6.503906C10.589844,6.453125,10.523438,6.429688,10.445312,6.429688L4.554688,6.429688C4.476562,6.429688,4.410156,6.453125,4.359375,6.503906C4.3125,6.554688,4.285156,6.617188,4.285156,6.695312L4.285156,7.230469C4.285156,7.308594,4.3125,7.375,4.359375,7.425781C4.410156,7.476562,4.476562,7.5,4.554688,7.5L10.445312,7.5C10.523438,7.5,10.589844,7.476562,10.640625,7.425781C10.6875,7.375,10.714844,7.308594,10.714844,7.230469ZM10.714844,7.230469"></path> </svg>