<?xml version="1.0" encoding="utf-8"?> <!DOCTYPE svg PUBLIC "-//W3C//DTD SVG 1.1//EN" "http://www.w3.org/Graphics/SVG/1.1/DTD/svg11.dtd"><svg version="1.1" id="marker-circle-blue" xmlns="http://www.w3.org/2000/svg" xmlns:xlink="http://www.w3.org/1999/xlink" x="0px"  y="0px" width="24px" height="36px" viewBox="0 0 24 36" enable-background="new 0 0 24 36" xml:space="preserve"><polygon fill="#C9BCF0" points="12,36 24,12 18,0 6.017,0 0,12.016 "/><path fill="#ffffff" transform="translate(4.5 4.5)" d="M4.36,14c-1,0,-0.56,-2.67,-0.86,-5c-0.1,-0.76,-1,-1.49,-1.12,-2.06C2,5,1.39,1.44,3.66,1S6,3,7.54,3s1.57,-2.36,3.85,-2s1.59,3.9,1.29,5.9c-0.1,0.45,-1.1,1.48,-1.18,2.06c-0.33,2.4,0.32,5,-0.8,5c-0.93,0,-1.32,-2.72,-2,-4.5C8.43,8.63,8.06,8,7.54,8C6,8,5.75,14,4.36,14z"></path> </svg>