<?xml version="1.0" encoding="utf-8"?> <!DOCTYPE svg PUBLIC "-//W3C//DTD SVG 1.1//EN" "http://www.w3.org/Graphics/SVG/1.1/DTD/svg11.dtd"><svg version="1.1" id="marker-circle-blue" xmlns="http://www.w3.org/2000/svg" xmlns:xlink="http://www.w3.org/1999/xlink" x="0px"  y="0px" width="24px" height="36px" viewBox="0 0 24 36" enable-background="new 0 0 24 36" xml:space="preserve"><polygon fill="#A23337" points="12,36 24,12 18,0 6.017,0 0,12.016 "/><path fill="#ffffff" transform="translate(4.5 4.5)" d="M6.898438,14.308594L6.898438,12.402344L5.894531,13L5.398438,12.691406L5.398438,12.023438L6.898438,11.128906L6.898438,9.875L5.699219,10.613281L5.699219,9.285156L4.5,9.914062L4.5,11.710938L4.003906,12.082031L3.601562,11.746094L3.601562,10.542969L1.929688,11.480469L1.199219,11.179688L1.199219,10.421875L2.90625,9.472656L1.800781,8.925781L1.800781,8.230469L2.4375,7.890625L4,8.8125L5.085938,8.1875L5.058594,8.167969L3.960938,7.53125L5.03125,6.859375L3.957031,6.238281L2.394531,7.152344L1.800781,6.859375L1.800781,6.167969L2.863281,5.574219L1.199219,4.660156L1.199219,3.902344L1.894531,3.566406L3.601562,4.527344L3.601562,3.304688L4.046875,2.964844L4.628906,3.320312L4.613281,5.152344L5.714844,5.789062L5.722656,4.492188L6.898438,5.125L6.898438,3.875L5.398438,2.976562L5.398438,2.3125L5.894531,1.996094L6.898438,2.59375L6.898438,0.695312L7.5,0.300781L8.101562,0.695312L8.101562,2.59375L9.273438,1.984375L9.898438,2.351562L9.898438,2.949219L8.101562,3.875L8.101562,5.125L9.300781,4.445312L9.300781,5.804688L10.5,5.179688L10.5,3.222656L10.9375,2.960938L11.398438,3.222656L11.398438,4.472656L13.152344,3.546875L13.800781,3.914062L13.800781,4.621094L12.152344,5.570312L13.199219,6.15625L13.199219,6.832031L12.652344,7.132812L11.054688,6.183594L9.949219,6.890625L11.015625,7.558594L9.917969,8.195312L11.046875,8.792969L12.664062,7.894531L13.199219,8.261719L13.199219,8.90625L12.203125,9.472656L13.800781,10.421875L13.800781,11.167969L13.042969,11.480469L11.398438,10.585938L11.398438,11.769531L10.945312,12.085938L10.5,11.769531L10.5,9.96875L9.300781,9.304688L9.300781,10.558594L8.101562,9.875L8.101562,11.125L9.601562,12.023438L9.601562,12.730469L9.105469,13L8.101562,12.40625L8.101562,14.308594L7.5,14.699219ZM6.460938,7.527344L7.027344,8.398438L8.082031,8.398438L8.5625,7.527344L8.054688,6.601562L7,6.601562ZM6.460938,7.527344"></path> </svg>