<?xml version="1.0" encoding="utf-8"?> <!DOCTYPE svg PUBLIC "-//W3C//DTD SVG 1.1//EN" "http://www.w3.org/Graphics/SVG/1.1/DTD/svg11.dtd"><svg version="1.1" id="marker-circle-blue" xmlns="http://www.w3.org/2000/svg" xmlns:xlink="http://www.w3.org/1999/xlink" x="0px"  y="0px" width="24px" height="36px" viewBox="0 0 24 36" enable-background="new 0 0 24 36" xml:space="preserve"><polygon fill="#EF9228" points="12,36 24,12 18,0 6.017,0 0,12.016 "/><path fill="#ffffff" transform="translate(4.5 4.5)" d="M12.320312,3.75L9.105469,9.644531L15.535156,9.644531ZM1.605469,3.75L-1.605469,9.644531L4.820312,9.644531ZM8.480469,2.144531C8.402344,2.367188,8.273438,2.566406,8.097656,2.742188C7.921875,2.917969,7.722656,3.042969,7.5,3.121094L7.5,13.929688L12.589844,13.929688C12.667969,13.929688,12.730469,13.953125,12.78125,14.003906C12.832031,14.054688,12.855469,14.117188,12.855469,14.195312L12.855469,14.730469C12.855469,14.808594,12.832031,14.875,12.78125,14.925781C12.730469,14.976562,12.667969,15,12.589844,15L1.339844,15C1.261719,15,1.195312,14.976562,1.148438,14.925781C1.097656,14.875,1.070312,14.808594,1.070312,14.730469L1.070312,14.195312C1.070312,14.117188,1.097656,14.054688,1.148438,14.003906C1.195312,13.953125,1.261719,13.929688,1.339844,13.929688L6.429688,13.929688L6.429688,3.121094C6.207031,3.042969,6.007812,2.917969,5.828125,2.742188C5.65625,2.566406,5.527344,2.367188,5.449219,2.144531L1.339844,2.144531C1.261719,2.144531,1.195312,2.117188,1.148438,2.066406C1.097656,2.015625,1.070312,1.953125,1.070312,1.875L1.070312,1.339844C1.070312,1.261719,1.097656,1.195312,1.148438,1.148438C1.195312,1.097656,1.261719,1.070312,1.339844,1.070312L5.449219,1.070312C5.566406,0.753906,5.761719,0.496094,6.035156,0.296875C6.308594,0.0976562,6.617188,0,6.964844,0C7.308594,0,7.621094,0.0976562,7.894531,0.296875C8.167969,0.496094,8.363281,0.753906,8.480469,1.070312L12.589844,1.070312C12.667969,1.070312,12.730469,1.097656,12.78125,1.148438C12.832031,1.195312,12.855469,1.261719,12.855469,1.339844L12.855469,1.875C12.855469,1.953125,12.832031,2.015625,12.78125,2.066406C12.730469,2.117188,12.667969,2.144531,12.589844,2.144531ZM6.964844,2.277344C7.148438,2.277344,7.304688,2.210938,7.4375,2.078125C7.566406,1.949219,7.632812,1.792969,7.632812,1.605469C7.632812,1.421875,7.566406,1.265625,7.4375,1.132812C7.304688,1.003906,7.148438,0.9375,6.964844,0.9375C6.78125,0.9375,6.621094,1.003906,6.492188,1.132812C6.359375,1.265625,6.292969,1.421875,6.292969,1.605469C6.292969,1.792969,6.359375,1.949219,6.492188,2.078125C6.621094,2.210938,6.78125,2.277344,6.964844,2.277344ZM16.070312,9.644531C16.070312,10.050781,15.941406,10.414062,15.683594,10.738281C15.421875,11.0625,15.09375,11.316406,14.699219,11.5C14.300781,11.683594,13.898438,11.824219,13.488281,11.914062C13.078125,12.007812,12.691406,12.054688,12.320312,12.054688C11.953125,12.054688,11.5625,12.007812,11.152344,11.914062C10.742188,11.824219,10.339844,11.683594,9.945312,11.5C9.546875,11.316406,9.21875,11.0625,8.960938,10.738281C8.703125,10.414062,8.570312,10.050781,8.570312,9.644531C8.570312,9.582031,8.667969,9.355469,8.863281,8.964844C9.058594,8.574219,9.316406,8.085938,9.632812,7.503906C9.953125,6.921875,10.25,6.375,10.53125,5.867188C10.808594,5.359375,11.09375,4.847656,11.382812,4.328125C11.675781,3.808594,11.832031,3.53125,11.851562,3.492188C11.953125,3.304688,12.109375,3.214844,12.320312,3.214844C12.535156,3.214844,12.691406,3.304688,12.789062,3.492188C12.8125,3.53125,12.96875,3.808594,13.257812,4.328125C13.550781,4.847656,13.832031,5.359375,14.113281,5.867188C14.390625,6.375,14.691406,6.921875,15.007812,7.503906C15.328125,8.085938,15.582031,8.574219,15.777344,8.964844C15.972656,9.355469,16.070312,9.582031,16.070312,9.644531ZM5.355469,9.644531C5.355469,10.050781,5.226562,10.414062,4.96875,10.738281C4.707031,11.0625,4.378906,11.316406,3.984375,11.5C3.589844,11.683594,3.183594,11.824219,2.773438,11.914062C2.363281,12.007812,1.976562,12.054688,1.605469,12.054688C1.238281,12.054688,0.851562,12.007812,0.4375,11.914062C0.03125,11.824219,-0.375,11.683594,-0.769531,11.5C-1.167969,11.316406,-1.492188,11.0625,-1.753906,10.738281C-2.011719,10.414062,-2.144531,10.050781,-2.144531,9.644531C-2.144531,9.582031,-2.046875,9.355469,-1.851562,8.964844C-1.65625,8.574219,-1.398438,8.085938,-1.078125,7.503906C-0.761719,6.921875,-0.464844,6.375,-0.183594,5.867188C0.09375,5.359375,0.378906,4.847656,0.667969,4.328125C0.960938,3.808594,1.117188,3.53125,1.136719,3.492188C1.238281,3.304688,1.394531,3.214844,1.605469,3.214844C1.820312,3.214844,1.976562,3.304688,2.074219,3.492188C2.097656,3.53125,2.253906,3.808594,2.542969,4.328125C2.835938,4.847656,3.121094,5.359375,3.398438,5.867188C3.675781,6.375,3.976562,6.921875,4.292969,7.503906C4.613281,8.085938,4.867188,8.574219,5.0625,8.964844C5.257812,9.355469,5.355469,9.582031,5.355469,9.644531ZM5.355469,9.644531"></path> </svg>