<?xml version="1.0" encoding="utf-8"?> <!DOCTYPE svg PUBLIC "-//W3C//DTD SVG 1.1//EN" "http://www.w3.org/Graphics/SVG/1.1/DTD/svg11.dtd"><svg version="1.1" id="marker-circle-blue" xmlns="http://www.w3.org/2000/svg" xmlns:xlink="http://www.w3.org/1999/xlink" x="0px"  y="0px" width="24px" height="36px" viewBox="0 0 24 36" enable-background="new 0 0 24 36" xml:space="preserve"><polygon fill="#5B396C" points="12,36 24,12 18,0 6.017,0 0,12.016 "/><path fill="#ffffff" transform="translate(4.5 4.5)" d="M 7.5 5.625 C 8.164062 5.625 8.730469 5.859375 9.203125 6.332031 C 9.675781 6.804688 9.910156 7.371094 9.910156 8.035156 C 9.910156 8.699219 9.675781 9.265625 9.203125 9.738281 C 8.730469 10.210938 8.164062 10.445312 7.5 10.445312 C 6.835938 10.445312 6.269531 10.210938 5.796875 9.738281 C 5.324219 9.265625 5.089844 8.699219 5.089844 8.035156 C 5.089844 7.371094 5.324219 6.804688 5.796875 6.332031 C 6.269531 5.859375 6.835938 5.625 7.5 5.625 Z M 13.394531 2.144531 C 13.984375 2.144531 14.488281 2.351562 14.90625 2.769531 C 15.328125 3.1875 15.535156 3.695312 15.535156 4.285156 L 15.535156 11.785156 C 15.535156 12.378906 15.328125 12.882812 14.90625 13.300781 C 14.488281 13.71875 13.984375 13.929688 13.394531 13.929688 L 1.605469 13.929688 C 1.015625 13.929688 0.511719 13.71875 0.09375 13.300781 C -0.328125 12.882812 -0.535156 12.378906 -0.535156 11.785156 L -0.535156 4.285156 C -0.535156 3.695312 -0.328125 3.1875 0.09375 2.769531 C 0.511719 2.351562 1.015625 2.144531 1.605469 2.144531 L 3.480469 2.144531 L 3.910156 1.003906 C 4.015625 0.730469 4.210938 0.496094 4.492188 0.296875 C 4.773438 0.0976562 5.0625 0 5.355469 0 L 9.644531 0 C 9.9375 0 10.226562 0.0976562 10.507812 0.296875 C 10.789062 0.496094 10.984375 0.730469 11.089844 1.003906 L 11.519531 2.144531 Z M 7.5 11.785156 C 8.53125 11.785156 9.414062 11.417969 10.148438 10.683594 C 10.882812 9.949219 11.25 9.066406 11.25 8.035156 C 11.25 7.003906 10.882812 6.121094 10.148438 5.386719 C 9.414062 4.652344 8.53125 4.285156 7.5 4.285156 C 6.46875 4.285156 5.585938 4.652344 4.851562 5.386719 C 4.117188 6.121094 3.75 7.003906 3.75 8.035156 C 3.75 9.066406 4.117188 9.949219 4.851562 10.683594 C 5.585938 11.417969 6.46875 11.785156 7.5 11.785156 Z M 7.5 11.785156 "></path> </svg>