<?xml version="1.0" encoding="utf-8"?> <!DOCTYPE svg PUBLIC "-//W3C//DTD SVG 1.1//EN" "http://www.w3.org/Graphics/SVG/1.1/DTD/svg11.dtd"><svg version="1.1" id="marker-circle-blue" xmlns="http://www.w3.org/2000/svg" xmlns:xlink="http://www.w3.org/1999/xlink" x="0px"  y="0px" width="24px" height="36px" viewBox="0 0 24 36" enable-background="new 0 0 24 36" xml:space="preserve"><polygon fill="#A23337" points="12,36 24,12 18,0 6.017,0 0,12.016 "/><path fill="#ffffff" transform="translate(4.5 4.5)" d="M10.300781,1.2207031C9.9144812,1.2207031,9.6,1.2,9.5,2L9.0996094,4.5214844L11.5,6.5L13.5,6.5C14.9,6.5,15,5.5410156,15,5.5410156L13.099609,3.3222656C12.399609,2.6222656,11.7,2.5,11,2.5L11,2C11,2,11.067481,1.2206031,10.300781,1.2207031zM4.75,1.5C4.75,1.5,3.7992187,1.5206031,3.1992188,1.7207031C2.5992187,1.9207031,2,2.6210938,2,3.6210938L2,7.5214844C2,9.2214844,1.3,9.5,1,9.5C1,9.5,0,9.5214844,0,10.521484L0,12.720703C0,12.720703,0.00078125,13.521484,0.80078125,13.521484L1,13.521484L1.5,13.521484L2,13.521484L2,13.021484L2,12.822266C2,12.422266,1.8,12.221094,1.5,12.121094L1.5,11.021484C2.5,11.021484,2.6,10.820703,3,10.720703L3.5507812,12.917969C3.6507813,13.217969,3.7507813,13.417578,4.0507812,13.517578L5.0507812,13.517578L6,13.5L6,12.699219C6,12.022819,5,12,5,12L5,9.5L8.5,9.5L9.1992188,12.121094C9.5992188,13.521094,10.5,13.5,10.5,13.5L11,13.5L12,13.5L12,12.699219C12,11.987419,11,12,11,12L11.099609,7.921875L8,5.5L3.5,5.5L3.5,3.5C3.5,3.1,3.7765,3.0053,4,3C4.4941,2.9882,4.75,3,4.75,3C5.1642,3,5.5,2.6642,5.5,2.25C5.5,1.8358,5.1642,1.5,4.75,1.5zM11.75,4C11.8881,4,12,4.1119,12,4.25C12,4.3881,11.8881,4.5,11.75,4.5C11.6119,4.5,11.5,4.3881,11.5,4.25C11.5,4.1119,11.6119,4,11.75,4z"></path> </svg>