<?xml version="1.0" encoding="utf-8"?> <!DOCTYPE svg PUBLIC "-//W3C//DTD SVG 1.1//EN" "http://www.w3.org/Graphics/SVG/1.1/DTD/svg11.dtd"><svg version="1.1" id="marker-circle-blue" xmlns="http://www.w3.org/2000/svg" xmlns:xlink="http://www.w3.org/1999/xlink" x="0px"  y="0px" width="24px" height="36px" viewBox="0 0 24 36" enable-background="new 0 0 24 36" xml:space="preserve"><polygon fill="#A23337" points="12,36 24,12 18,0 6.017,0 0,12.016 "/><path fill="#ffffff" transform="translate(4.5 4.5)" d="M7.574219,0.625L0.300781,6.898438L2.101562,6.898438L2.101562,14.398438L12.898438,14.398438L12.898438,6.898438L14.699219,6.898438ZM10.199219,9L8.101562,9L8.101562,12.625L8.085938,12.601562L6.652344,12.601562L6.601562,12.625L6.601562,9L4.800781,9L4.800781,7.800781L6.601562,7.800781L6.601562,5.101562L8.101562,5.101562L8.101562,7.800781L10.199219,7.800781ZM10.199219,9"></path> </svg>