<?xml version="1.0" encoding="utf-8"?> <!DOCTYPE svg PUBLIC "-//W3C//DTD SVG 1.1//EN" "http://www.w3.org/Graphics/SVG/1.1/DTD/svg11.dtd"><svg version="1.1" id="marker-circle-blue" xmlns="http://www.w3.org/2000/svg" xmlns:xlink="http://www.w3.org/1999/xlink" x="0px"  y="0px" width="24px" height="36px" viewBox="0 0 24 36" enable-background="new 0 0 24 36" xml:space="preserve"><polygon fill="#EF9228" points="12,36 24,12 18,0 6.017,0 0,12.016 "/><path fill="#ffffff" transform="translate(4.5 4.5)" d="M6.601562,0.578125L6.601562,3.898438L6,3.898438L6,0.601562C6,0.433594,5.867188,0.300781,5.699219,0.300781C5.535156,0.300781,5.398438,0.433594,5.398438,0.601562L5.398438,3.898438L4.800781,3.898438L4.800781,0.589844C4.800781,0.203125,4.199219,0.214844,4.199219,0.578125L4.199219,3.898438L3.601562,3.898438L3.601562,0.601562C3.601562,0.195312,3,0.210938,3,0.585938L3,4.929688C3,5.554688,3.601562,5.96875,4.199219,5.96875L4.199219,13.800781C4.199219,15,6,15,6,13.800781L6,5.96875C6.601562,5.96875,7.199219,5.46875,7.199219,5L7.199219,0.589844C7.199219,0.207031,6.601562,0.222656,6.601562,0.578125ZM9.300781,1.5L9.300781,9L9.898438,9L9.898438,13.800781C9.898438,15,12,15,12,13.800781L12,1.5C12,0,9.300781,0,9.300781,1.5ZM9.300781,1.5"></path> </svg>