<?xml version="1.0" encoding="utf-8"?> <!DOCTYPE svg PUBLIC "-//W3C//DTD SVG 1.1//EN" "http://www.w3.org/Graphics/SVG/1.1/DTD/svg11.dtd"><svg version="1.1" id="marker-circle-blue" xmlns="http://www.w3.org/2000/svg" xmlns:xlink="http://www.w3.org/1999/xlink" x="0px"  y="0px" width="24px" height="36px" viewBox="0 0 24 36" enable-background="new 0 0 24 36" xml:space="preserve"><polygon fill="#5B396C" points="12,36 24,12 18,0 6.017,0 0,12.016 "/><path fill="#ffffff" transform="translate(4.5 4.5)" d="M 13.792969 13.320312 C 13.792969 12.71875 12.699219 11.046875 12.699219 11.046875 C 12.699219 11.046875 11.59375 12.71875 11.59375 13.320312 C 11.59375 13.914062 12.085938 14.398438 12.691406 14.398438 C 13.296875 14.398438 13.792969 13.914062 13.792969 13.320312 Z M 5.898438 3.953125 L 3.699219 3.953125 L 3.699219 1.78125 L 4.300781 1.78125 L 4.300781 0.601562 L 0.300781 0.601562 L 0.300781 1.78125 L 0.898438 1.78125 L 0.898438 5.132812 C 0.898438 6.003906 1.617188 6.710938 2.5 6.710938 L 5.898438 6.710938 L 5.898438 7.304688 L 7.101562 7.304688 L 7.101562 3.359375 L 5.898438 3.359375 Z M 14.097656 8.878906 L 14.097656 5.527344 C 14.097656 4.65625 13.382812 3.953125 12.5 3.953125 L 9.101562 3.953125 L 9.101562 3.359375 L 7.898438 3.359375 L 7.898438 7.304688 L 9.101562 7.304688 L 9.101562 6.710938 L 11.300781 6.710938 L 11.300781 8.878906 L 10.699219 8.878906 L 10.699219 10.0625 L 14.699219 10.0625 L 14.699219 8.878906 Z M 14.097656 8.878906 "></path> </svg>