<?xml version="1.0" encoding="utf-8"?> <!DOCTYPE svg PUBLIC "-//W3C//DTD SVG 1.1//EN" "http://www.w3.org/Graphics/SVG/1.1/DTD/svg11.dtd"><svg version="1.1" id="marker-circle-blue" xmlns="http://www.w3.org/2000/svg" xmlns:xlink="http://www.w3.org/1999/xlink" x="0px"  y="0px" width="24px" height="36px" viewBox="0 0 24 36" enable-background="new 0 0 24 36" xml:space="preserve"><polygon fill="#EF9228" points="12,36 24,12 18,0 6.017,0 0,12.016 "/><path fill="#ffffff" transform="translate(4.5 4.5)" d="m11.72547,4.3538136l-2.5882213,4.745597h5.1764423zm-8.6263569,0l-2.58507723,4.745597H5.6873342ZM8.6340707,3.061275C8.5711735,3.2405327,8.4673932,3.4009201,8.3258738,3.5424395C8.1843552,3.6839581,8.023967,3.7845937,7.8447101,3.847491v8.701834h4.0977559c0.0629,0,0.113215,0.01887,0.154098,0.05975c0.04088,0.04088,0.05975,0.0912,0.05975,0.154098v0.430847c0,0.0629,-0.01887,0.11636,-0.05975,0.157243c-0.04088,0.04088,-0.0912,0.05975,-0.154098,0.05975H2.8852624c-0.062897,0,-0.1163605,-0.01887,-0.154098,-0.05975c-0.040884,-0.04088,-0.062898,-0.09435,-0.062898,-0.157243v-0.430847c0,-0.0629,0.022014,-0.113214,0.062898,-0.154098c0.037737,-0.04088,0.091201,-0.05975,0.154098,-0.05975H6.9830182V3.847491C6.8037605,3.7845937,6.6433723,3.6839581,6.498709,3.5424395C6.3603351,3.4009201,6.2565548,3.2405327,6.1936576,3.061275H2.8852624c-0.062897,0,-0.1163605,-0.022013,-0.154098,-0.062897C2.6902806,2.957495,2.6682663,2.907177,2.6682663,2.84428V2.4134338c0,-0.062897,0.022014,-0.1163606,0.062898,-0.1540981c0.037737,-0.040884,0.091201,-0.062898,0.154098,-0.062898H6.1936576C6.2880031,1.941704,6.4452466,1.7341435,6.6653865,1.5737553C6.8855273,1.4133673,7.1339716,1.3347458,7.4138642,1.3347458c0.2767478,0,0.5283368,0.078621,0.7484768,0.2390095c0.2201407,0.1603882,0.3773835,0.3679487,0.4717297,0.6226823h3.3083953c0.0629,0,0.113215,0.022014,0.154098,0.062898c0.04088,0.037737,0.05975,0.091201,0.05975,0.1540981v0.4308459c0,0.062897,-0.01887,0.113215,-0.05975,0.154098c-0.04088,0.040884,-0.0912,0.062897,-0.154098,0.062897zM7.4138642,3.1682007c0.1478087,0,0.2736032,-0.053462,0.3805281,-0.1603882C7.8981725,2.9040323,7.951635,2.7782378,7.951635,2.6272844C7.951635,2.4794757,7.8981725,2.3536812,7.7943923,2.2467554C7.6874674,2.1429752,7.5616729,2.0895127,7.4138642,2.0895127c-0.1478088,0,-0.2767479,0.053463,-0.3805282,0.1572427c-0.1069257,0.1069258,-0.1603882,0.2327203,-0.1603882,0.380529c0,0.1509534,0.053463,0.2767479,0.1603882,0.3805281c0.1037803,0.1069258,0.2327194,0.1603882,0.3805282,0.1603882zm7.3306728,5.9312099c0,0.3270657,-0.10378,0.6195377,-0.311341,0.8805614c-0.210705,0.261024,-0.474874,0.46544,-0.792505,0.613248c-0.320776,0.147809,-0.644696,0.261024,-0.974908,0.333355c-0.33021,0.07548,-0.641551,0.113216,-0.940313,0.113216c-0.295617,0,-0.610103,-0.03774,-0.940314,-0.113216C10.454946,10.854244,10.131025,10.741029,9.8133935,10.59322C9.4926179,10.445412,9.2284495,10.240996,9.020889,9.979972C8.8133277,9.7189483,8.706402,9.4264763,8.706402,9.0994106C8.706402,9.0490926,8.785024,8.8666912,8.9422668,8.552205C9.0995103,8.2377187,9.3070709,7.8446111,9.5618045,7.3760261C9.8196836,6.9074418,10.058693,6.4671611,10.285123,6.0583294c0.223286,-0.4088325,0.45286,-0.8208097,0.68558,-1.2390762c0.235865,-0.4182665,0.361659,-0.6415519,0.377383,-0.6730001c0.08177,-0.1509534,0.207562,-0.2232854,0.377384,-0.2232854c0.172967,0,0.298762,0.072332,0.377383,0.2232854c0.01887,0.031448,0.144664,0.2547336,0.377383,0.6730001c0.235865,0.4182665,0.462295,0.8302437,0.688725,1.2390762c0.223286,0.4088317,0.46544,0.8491124,0.720174,1.3176967c0.257879,0.468585,0.462295,0.8616926,0.619538,1.1761789c0.157243,0.3144862,0.235864,0.4968878,0.235864,0.5472056zm-8.6263561,0c0,0.3270657,-0.1037811,0.6195377,-0.3113416,0.8805614c-0.2107059,0.261024,-0.4748744,0.46544,-0.7925053,0.613248c-0.3176309,0.147809,-0.6446965,0.261024,-0.9749069,0.333355c-0.3302111,0.07548,-0.6415527,0.113216,-0.940314,0.113216c-0.2956175,0,-0.6069591,-0.03774,-0.9403141,-0.113216C1.8317334,10.854244,1.5046677,10.741029,1.1870368,10.59322C0.86626047,10.445412,0.60523667,10.240996,0.39453147,9.979972C0.18697017,9.7189483,0.08004527,9.4264763,0.08004527,9.0994106c0,-0.050318,0.078621,-0.2327194,0.2358649,-0.5472056C0.47315287,8.2377187,0.68071337,7.8446111,0.93859247,7.3760261C1.1933261,6.9074418,1.4323357,6.4671611,1.6587657,6.0583294C1.8820512,5.6494969,2.1116259,5.2375197,2.3443461,4.8192532C2.580211,4.4009867,2.7060055,4.1777013,2.7217296,4.1462531C2.8034956,3.9952997,2.9292901,3.9229677,3.0991131,3.9229677c0.1729668,0,0.2987613,0.072332,0.3773835,0.2232854c0.018869,0.031448,0.1446632,0.2547336,0.3773834,0.6730001c0.2358649,0.4182665,0.4654397,0.8302437,0.6887251,1.2390762c0.2232846,0.4088317,0.4654388,0.8491124,0.7201733,1.3176967c0.2578783,0.468585,0.4622949,0.8616926,0.6195376,1.1761789c0.1572427,0.3144862,0.2358649,0.4968878,0.2358649,0.5472056zm0,0"></path> </svg>