<?xml version="1.0" encoding="utf-8"?> <!DOCTYPE svg PUBLIC "-//W3C//DTD SVG 1.1//EN" "http://www.w3.org/Graphics/SVG/1.1/DTD/svg11.dtd"><svg version="1.1" id="marker-circle-blue" xmlns="http://www.w3.org/2000/svg" xmlns:xlink="http://www.w3.org/1999/xlink" x="0px"  y="0px" width="24px" height="36px" viewBox="0 0 24 36" enable-background="new 0 0 24 36" xml:space="preserve"><polygon fill="#D73F29" points="12,36 24,12 18,0 6.017,0 0,12.016 "/><path fill="#ffffff" transform="translate(4.5 4.5)" d="M10.71,4L7.85,1.15C7.6555,0.9539,7.339,0.9526,7.1429,1.1471C7.1419,1.1481,7.141,1.149,7.14,1.15L4.29,4H1.5C1.2239,4,1,4.2239,1,4.5v9C1,13.7761,1.2239,14,1.5,14h12c0.2761,0,0.5,-0.2239,0.5,-0.5v-9C14,4.2239,13.7761,4,13.5,4H10.71zM7.5,2.21L9.29,4H5.71L7.5,2.21zM13,13H2V5h11V13zM5,8C4.4477,8,4,7.5523,4,7s0.4477,-1,1,-1s1,0.4477,1,1S5.5523,8,5,8zM12,12H4.5L6,9l1.25,2.5L9.5,7L12,12z"></path> </svg>