<?xml version="1.0" encoding="utf-8"?> <!DOCTYPE svg PUBLIC "-//W3C//DTD SVG 1.1//EN" "http://www.w3.org/Graphics/SVG/1.1/DTD/svg11.dtd"><svg version="1.1" id="marker-circle-blue" xmlns="http://www.w3.org/2000/svg" xmlns:xlink="http://www.w3.org/1999/xlink" x="0px"  y="0px" width="24px" height="36px" viewBox="0 0 24 36" enable-background="new 0 0 24 36" xml:space="preserve"><polygon fill="#EF9228" points="12,36 24,12 18,0 6.017,0 0,12.016 "/><path fill="#ffffff" transform="translate(4.5 4.5)" d="M9,2.398438L9,12.300781L1.800781,12.300781L1.800781,2.398438L9,2.398438M10.199219,1.199219L0.601562,1.199219L0.601562,13.800781L10.199219,13.800781ZM2.699219,3.601562L8.101562,3.601562L8.101562,4.800781L2.699219,4.800781ZM2.699219,5.699219L8.101562,5.699219L8.101562,6.898438L2.699219,6.898438ZM2.699219,7.800781L8.101562,7.800781L8.101562,9L2.699219,9ZM2.699219,9.898438L8.101562,9.898438L8.101562,11.101562L2.699219,11.101562ZM12,3.601562L14.398438,3.601562L14.398438,12L12,12ZM13.203125,0.300781C12.542969,0.300781,12,0.828125,12,1.480469L12,2.699219L14.398438,2.699219L14.398438,1.480469C14.398438,0.828125,13.855469,0.300781,13.203125,0.300781ZM11.980469,12.898438L13.195312,14.816406L14.398438,12.898438ZM11.980469,12.898438"></path> </svg>