<?xml version="1.0" encoding="utf-8"?> <!DOCTYPE svg PUBLIC "-//W3C//DTD SVG 1.1//EN" "http://www.w3.org/Graphics/SVG/1.1/DTD/svg11.dtd"><svg version="1.1" id="marker-circle-blue" xmlns="http://www.w3.org/2000/svg" xmlns:xlink="http://www.w3.org/1999/xlink" x="0px"  y="0px" width="24px" height="36px" viewBox="0 0 24 36" enable-background="new 0 0 24 36" xml:space="preserve"><polygon fill="#EF9228" points="12,36 24,12 18,0 6.017,0 0,12.016 "/><path fill="#ffffff" transform="translate(4.5 4.5)" d="M3.75,8.333v2.143c0,0.404,-0.329,0.733,-0.732,0.733H2.4c-0.403,0,-0.732,-0.329,-0.732,-0.733V7.875H0.734c-0.404,0,-0.733,-0.329,-0.733,-0.733V6.526c0,-0.405,0.33,-0.734,0.733,-0.734h13.533C14.67,5.792,15,6.121,15,6.526v0.615c0,0.404,-0.33,0.733,-0.732,0.733h-0.934v2.601c0,0.404,-0.33,0.733,-0.732,0.733h-0.617c-0.403,0,-0.733,-0.329,-0.733,-0.733V8.333c0,-0.251,-0.205,-0.458,-0.458,-0.458H4.21C3.956,7.875,3.75,8.081,3.75,8.333z"></path> </svg>