<?xml version="1.0" encoding="utf-8"?> <!DOCTYPE svg PUBLIC "-//W3C//DTD SVG 1.1//EN" "http://www.w3.org/Graphics/SVG/1.1/DTD/svg11.dtd"><svg version="1.1" id="marker-circle-blue" xmlns="http://www.w3.org/2000/svg" xmlns:xlink="http://www.w3.org/1999/xlink" x="0px"  y="0px" width="24px" height="36px" viewBox="0 0 24 36" enable-background="new 0 0 24 36" xml:space="preserve"><polygon fill="#EF9228" points="12,36 24,12 18,0 6.017,0 0,12.016 "/><path fill="#ffffff" transform="translate(4.5 4.5)" d="M14.398438,12.601562C14.398438,13.261719,13.863281,13.800781,13.199219,13.800781C12.539062,13.800781,12,13.261719,12,12.601562C12,11.9375,12.539062,11.398438,13.199219,11.398438C13.863281,11.398438,14.398438,11.9375,14.398438,12.601562ZM14.398438,12.601562"></path> <path fill="#ffffff" transform="translate(4.5 4.5)" d="M5.699219,12.601562C5.699219,13.261719,5.164062,13.800781,4.5,13.800781C3.835938,13.800781,3.300781,13.261719,3.300781,12.601562C3.300781,11.9375,3.835938,11.398438,4.5,11.398438C5.164062,11.398438,5.699219,11.9375,5.699219,12.601562ZM5.699219,12.601562"></path> <path fill="#ffffff" transform="translate(4.5 4.5)" d="M14.101562,9.898438L4.730469,9.898438L4.929688,9.574219C5.015625,9.4375,5.042969,9.269531,5,9.109375L4.804688,8.359375L13.5,7.90625C13.832031,7.890625,14.101562,7.605469,14.101562,7.273438L14.101562,3.300781C14.101562,2.96875,13.828125,2.699219,13.5,2.699219L3.335938,2.699219L3.21875,2.25C3.148438,1.984375,2.910156,1.800781,2.636719,1.800781L0.601562,1.800781C0.269531,1.800781,0,2.070312,0,2.398438C0,2.730469,0.269531,3,0.601562,3L2.171875,3L3.777344,9.164062L3.144531,10.183594C3.03125,10.371094,3.027344,10.601562,3.132812,10.792969C3.238281,10.980469,3.4375,11.101562,3.65625,11.101562L14.101562,11.101562C14.429688,11.101562,14.699219,10.832031,14.699219,10.5C14.699219,10.167969,14.429688,9.898438,14.101562,9.898438ZM14.101562,9.898438"></path> </svg>