<?xml version="1.0" encoding="utf-8"?> <!DOCTYPE svg PUBLIC "-//W3C//DTD SVG 1.1//EN" "http://www.w3.org/Graphics/SVG/1.1/DTD/svg11.dtd"><svg version="1.1" id="marker-circle-blue" xmlns="http://www.w3.org/2000/svg" xmlns:xlink="http://www.w3.org/1999/xlink" x="0px"  y="0px" width="24px" height="36px" viewBox="0 0 24 36" enable-background="new 0 0 24 36" xml:space="preserve"><polygon fill="#EF9228" points="12,36 24,12 18,0 6.017,0 0,12.016 "/><path fill="#ffffff" transform="translate(4.5 4.5)" d="M8.886719,0L2.101562,0L2.101562,15L5.398438,15L5.398438,10.199219L8.886719,10.199219C12.625,10.199219,14.074219,7.238281,14.074219,4.792969C14.074219,2.363281,12.625,0,8.886719,0ZM7.980469,7.199219L5.398438,7.199219L5.398438,2.699219L7.980469,2.699219C9.515625,2.699219,10.882812,3.039062,10.882812,4.945312C10.882812,6.867188,9.515625,7.199219,7.980469,7.199219ZM7.980469,7.199219"></path> </svg>