<?xml version="1.0" encoding="utf-8"?> <!DOCTYPE svg PUBLIC "-//W3C//DTD SVG 1.1//EN" "http://www.w3.org/Graphics/SVG/1.1/DTD/svg11.dtd"><svg version="1.1" id="marker-circle-blue" xmlns="http://www.w3.org/2000/svg" xmlns:xlink="http://www.w3.org/1999/xlink" x="0px"  y="0px" width="24px" height="36px" viewBox="0 0 24 36" enable-background="new 0 0 24 36" xml:space="preserve"><polygon fill="#FFBA0C" points="12,36 24,12 18,0 6.017,0 0,12.016 "/><path fill="#ffffff" transform="translate(4.5 4.5)" d="M7.5,0L1,3.4453V4h13V3.4453L7.5,0zM2,5v5l-1,1.5547V13h13v-1.4453L13,10V5H2zM4.6152,6c0.169,-0.0023,0.3318,0.0639,0.4512,0.1836L7.5,8.6172l2.4336,-2.4336c0.2445,-0.2437,0.6402,-0.2432,0.884,0.0013C10.9341,6.3017,10.9997,6.46,11,6.625v4.2422c0.0049,0.3452,-0.271,0.629,-0.6162,0.6338c-0.3452,0.0049,-0.629,-0.271,-0.6338,-0.6162c-0.0001,-0.0059,-0.0001,-0.0118,0,-0.0177V8.1328L7.9414,9.9414c-0.244,0.2433,-0.6388,0.2433,-0.8828,0L5.25,8.1328v2.7344c0.0049,0.3452,-0.271,0.629,-0.6162,0.6338C4.2887,11.5059,4.0049,11.2301,4,10.8849c-0.0001,-0.0059,-0.0001,-0.0118,0,-0.0177V6.625C4,6.2836,4.2739,6.0054,4.6152,6z"></path> </svg>