<?xml version="1.0" encoding="utf-8"?> <!DOCTYPE svg PUBLIC "-//W3C//DTD SVG 1.1//EN" "http://www.w3.org/Graphics/SVG/1.1/DTD/svg11.dtd"><svg version="1.1" id="marker-circle-blue" xmlns="http://www.w3.org/2000/svg" xmlns:xlink="http://www.w3.org/1999/xlink" x="0px"  y="0px" width="24px" height="36px" viewBox="0 0 24 36" enable-background="new 0 0 24 36" xml:space="preserve"><polygon fill="#A23337" points="12,36 24,12 18,0 6.017,0 0,12.016 "/><path fill="#ffffff" transform="translate(4.5 4.5)" d="M 4.300781 10.003906 L 4.980469 7.5 L 3.648438 7.5 L 4.277344 10.011719 C 4.28125 10.015625 4.285156 10.023438 4.285156 10.035156 C 4.285156 10.046875 4.289062 10.054688 4.292969 10.0625 C 4.292969 10.054688 4.296875 10.046875 4.296875 10.03125 C 4.300781 10.019531 4.300781 10.007812 4.300781 10.003906 Z M 5.273438 6.429688 L 5.566406 5.355469 L 3.121094 5.355469 L 3.390625 6.429688 Z M 6.878906 6.429688 L 8.042969 6.429688 L 7.75 5.355469 L 7.164062 5.355469 Z M 10.640625 10.011719 L 11.292969 7.5 L 9.9375 7.5 L 10.613281 10.003906 C 10.613281 10.007812 10.613281 10.019531 10.617188 10.03125 C 10.621094 10.046875 10.625 10.054688 10.628906 10.0625 C 10.628906 10.054688 10.632812 10.046875 10.632812 10.035156 C 10.636719 10.023438 10.640625 10.015625 10.640625 10.011719 Z M 11.566406 6.429688 L 11.84375 5.355469 L 9.359375 5.355469 L 9.644531 6.429688 Z M 15 6.695312 L 15 7.230469 C 15 7.308594 14.976562 7.375 14.925781 7.425781 C 14.875 7.476562 14.808594 7.5 14.730469 7.5 L 12.949219 7.5 L 11.578125 12.65625 C 11.539062 12.789062 11.449219 12.855469 11.316406 12.855469 L 9.984375 12.855469 C 9.851562 12.855469 9.765625 12.789062 9.726562 12.65625 L 8.335938 7.5 L 6.585938 7.5 L 5.191406 12.65625 C 5.152344 12.789062 5.0625 12.855469 4.929688 12.855469 L 3.597656 12.855469 C 3.539062 12.855469 3.484375 12.835938 3.4375 12.796875 C 3.386719 12.757812 3.359375 12.710938 3.347656 12.65625 L 2.007812 7.5 L 0.269531 7.5 C 0.191406 7.5 0.125 7.476562 0.0742188 7.425781 C 0.0234375 7.375 0 7.308594 0 7.230469 L 0 6.695312 C 0 6.617188 0.0234375 6.554688 0.0742188 6.503906 C 0.125 6.453125 0.191406 6.429688 0.269531 6.429688 L 1.734375 6.429688 L 1.457031 5.355469 L 0.269531 5.355469 C 0.191406 5.355469 0.125 5.332031 0.0742188 5.28125 C 0.0234375 5.230469 0 5.167969 0 5.089844 L 0 4.554688 C 0 4.476562 0.0234375 4.410156 0.0742188 4.359375 C 0.125 4.3125 0.191406 4.285156 0.269531 4.285156 L 1.179688 4.285156 L 0.433594 1.40625 C 0.40625 1.324219 0.421875 1.246094 0.476562 1.171875 C 0.53125 1.105469 0.605469 1.070312 0.695312 1.070312 L 1.839844 1.070312 C 1.988281 1.070312 2.074219 1.136719 2.101562 1.273438 L 2.855469 4.285156 L 5.859375 4.285156 L 6.671875 1.273438 C 6.710938 1.136719 6.796875 1.070312 6.929688 1.070312 L 7.984375 1.070312 C 8.121094 1.070312 8.207031 1.136719 8.246094 1.273438 L 9.066406 4.285156 L 12.121094 4.285156 L 12.898438 1.273438 C 12.925781 1.136719 13.011719 1.070312 13.160156 1.070312 L 14.304688 1.070312 C 14.394531 1.070312 14.46875 1.105469 14.523438 1.171875 C 14.578125 1.246094 14.59375 1.324219 14.566406 1.40625 L 13.804688 4.285156 L 14.730469 4.285156 C 14.808594 4.285156 14.875 4.3125 14.925781 4.359375 C 14.976562 4.410156 15 4.476562 15 4.554688 L 15 5.089844 C 15 5.167969 14.976562 5.230469 14.925781 5.28125 C 14.875 5.332031 14.808594 5.355469 14.730469 5.355469 L 13.519531 5.355469 L 13.234375 6.429688 L 14.730469 6.429688 C 14.808594 6.429688 14.875 6.453125 14.925781 6.503906 C 14.976562 6.554688 15 6.617188 15 6.695312 Z M 15 6.695312 "></path> </svg>