<?xml version="1.0" encoding="utf-8"?> <!DOCTYPE svg PUBLIC "-//W3C//DTD SVG 1.1//EN" "http://www.w3.org/Graphics/SVG/1.1/DTD/svg11.dtd"><svg version="1.1" id="marker-circle-blue" xmlns="http://www.w3.org/2000/svg" xmlns:xlink="http://www.w3.org/1999/xlink" x="0px"  y="0px" width="24px" height="36px" viewBox="0 0 24 36" enable-background="new 0 0 24 36" xml:space="preserve"><polygon fill="#D3D3D3" points="12,36 24,12 18,0 6.017,0 0,12.016 "/><path fill="#ffffff" transform="translate(4.5 4.5)" d="M4.5,6L0,7V6.5l4.5,-1V6zM4.5,3.5L0,2.5V3l4.5,1V3.5zM10.5,3.5V4L15,3V2.5L10.5,3.5zM10.5,6L15,7V6.5l-4.5,-1V6zM8,7V2h2.5c0.2761,0.0552,0.5448,-0.1239,0.6,-0.4c0.0552,-0.2761,-0.1239,-0.5448,-0.4,-0.6l-3,-1C7.5696,-0.0586,7.4204,-0.0586,7.29,0l-3,1c-0.2761,0.0552,-0.4552,0.3239,-0.4,0.6S4.2139,2.0552,4.49,2H7v5H5l-2,7h9l-2,-7H8z"></path> </svg>