<?xml version="1.0" encoding="utf-8"?> <!DOCTYPE svg PUBLIC "-//W3C//DTD SVG 1.1//EN" "http://www.w3.org/Graphics/SVG/1.1/DTD/svg11.dtd"><svg version="1.1" id="marker-circle-blue" xmlns="http://www.w3.org/2000/svg" xmlns:xlink="http://www.w3.org/1999/xlink" x="0px"  y="0px" width="24px" height="36px" viewBox="0 0 24 36" enable-background="new 0 0 24 36" xml:space="preserve"><polygon fill="#EF9228" points="12,36 24,12 18,0 6.017,0 0,12.016 "/><path fill="#ffffff" transform="translate(4.5 4.5)" d="M7.5,0.5L5,4.5l-1.5-2
	C2.9452,3.4753,0.8036,5.7924,0.8036,8.3036C0.8036,12.002,3.8017,15,7.5,15s6.6964-2.998,6.6964-6.6964
	c0-2.5112-2.1416-4.8283-2.6964-5.8036l-1.5,2L7.5,0.5z M7.5,7c0,0,2.5,2.5618,2.5,4.5c0,0.8371-0.8259,2-2.5,2S5,12.3371,5,11.5
	C5,9.6283,7.5,7,7.5,7z"></path> </svg>