<?xml version="1.0" encoding="utf-8"?> <!DOCTYPE svg PUBLIC "-//W3C//DTD SVG 1.1//EN" "http://www.w3.org/Graphics/SVG/1.1/DTD/svg11.dtd"><svg version="1.1" id="marker-circle-blue" xmlns="http://www.w3.org/2000/svg" xmlns:xlink="http://www.w3.org/1999/xlink" x="0px"  y="0px" width="24px" height="36px" viewBox="0 0 24 36" enable-background="new 0 0 24 36" xml:space="preserve"><polygon fill="#A23337" points="12,36 24,12 18,0 6.017,0 0,12.016 "/><path fill="#ffffff" transform="translate(4.5 4.5)" d="M 12.878906 3.898438 L 11.398438 3.898438 L 11.398438 2.332031 C 11.398438 1.210938 10.515625 0.300781 9.390625 0.300781 L 5.609375 0.300781 C 4.484375 0.300781 3.601562 1.210938 3.601562 2.332031 L 3.601562 3.898438 L 2.121094 3.898438 C 1.117188 3.898438 0.300781 4.675781 0.300781 5.679688 L 0.300781 12.582031 C 0.300781 13.585938 1.117188 14.398438 2.121094 14.398438 L 12.878906 14.398438 C 13.882812 14.398438 14.699219 13.585938 14.699219 12.582031 L 14.699219 5.679688 C 14.699219 4.675781 13.882812 3.898438 12.878906 3.898438 Z M 4.800781 2.332031 C 4.800781 1.914062 5.1875 1.5 5.609375 1.5 L 9.390625 1.5 C 9.8125 1.5 10.199219 1.914062 10.199219 2.332031 L 10.199219 3.898438 L 4.800781 3.898438 Z M 10.800781 10.5 L 8.699219 10.5 L 8.699219 12.601562 L 6.300781 12.601562 L 6.300781 10.5 L 4.199219 10.5 L 4.199219 8.101562 L 6.300781 8.101562 L 6.300781 6 L 8.699219 6 L 8.699219 8.101562 L 10.800781 8.101562 Z M 10.800781 10.5 "></path> </svg>