<?xml version="1.0" encoding="utf-8"?> <!DOCTYPE svg PUBLIC "-//W3C//DTD SVG 1.1//EN" "http://www.w3.org/Graphics/SVG/1.1/DTD/svg11.dtd"><svg version="1.1" id="marker-circle-blue" xmlns="http://www.w3.org/2000/svg" xmlns:xlink="http://www.w3.org/1999/xlink" x="0px"  y="0px" width="24px" height="36px" viewBox="0 0 24 36" enable-background="new 0 0 24 36" xml:space="preserve"><polygon fill="#F5BB3A" points="12,36 24,12 18,0 6.017,0 0,12.016 "/><path fill="#ffffff" transform="translate(4.5 4.5)" d="M13.800781,4.199219L10.199219,4.199219L10.199219,3.007812C10.199219,2.152344,9.648438,1.199219,8.792969,1.199219L5.914062,1.199219C5.058594,1.199219,4.5,2.152344,4.5,3.007812L4.5,4.199219L1.199219,4.199219C0.871094,4.199219,0.601562,4.46875,0.601562,4.800781L0.601562,13.5C0.601562,13.828125,0.871094,14.101562,1.199219,14.101562L13.800781,14.101562C14.128906,14.101562,14.398438,13.828125,14.398438,13.5L14.398438,4.800781C14.398438,4.46875,14.128906,4.199219,13.800781,4.199219ZM9,13.199219L5.699219,13.199219L5.699219,12.878906C5.699219,12.871094,5.882812,12.863281,5.972656,12.851562C6.058594,12.84375,6.136719,12.824219,6.199219,12.800781C6.3125,12.757812,6.4375,12.699219,6.484375,12.617188C6.53125,12.539062,6.601562,12.433594,6.601562,12.304688L6.601562,9.234375C6.601562,9.113281,6.527344,9.003906,6.46875,8.910156C6.414062,8.820312,6.320312,8.742188,6.234375,8.6875C6.171875,8.644531,6.128906,8.605469,6,8.566406C5.871094,8.527344,5.699219,8.503906,5.699219,8.492188L5.699219,8.109375L8.152344,7.96875L8.101562,8.050781L8.101562,12.238281C8.101562,12.359375,8.195312,12.464844,8.246094,12.550781C8.300781,12.636719,8.410156,12.699219,8.507812,12.742188C8.578125,12.773438,8.652344,12.800781,8.738281,12.828125C8.824219,12.851562,9,12.867188,9,12.878906ZM6.1875,6.070312C6.1875,5.804688,6.289062,5.574219,6.492188,5.386719C6.699219,5.195312,6.945312,5.101562,7.230469,5.101562C7.515625,5.101562,7.757812,5.195312,7.960938,5.386719C8.167969,5.574219,8.269531,5.804688,8.269531,6.070312C8.269531,6.339844,8.164062,6.566406,7.960938,6.753906C7.753906,6.941406,7.511719,7.035156,7.230469,7.035156C6.945312,7.035156,6.699219,6.941406,6.492188,6.753906C6.289062,6.566406,6.1875,6.339844,6.1875,6.070312ZM9.300781,4.199219L5.398438,4.199219L5.398438,3.007812C5.398438,2.6875,5.722656,2.101562,6.042969,2.101562L8.460938,2.101562C8.777344,2.101562,9.300781,2.6875,9.300781,3.007812ZM9.300781,4.199219"></path> </svg>