<?xml version="1.0" encoding="utf-8"?> <!DOCTYPE svg PUBLIC "-//W3C//DTD SVG 1.1//EN" "http://www.w3.org/Graphics/SVG/1.1/DTD/svg11.dtd"><svg version="1.1" id="marker-circle-blue" xmlns="http://www.w3.org/2000/svg" xmlns:xlink="http://www.w3.org/1999/xlink" x="0px"  y="0px" width="24px" height="36px" viewBox="0 0 24 36" enable-background="new 0 0 24 36" xml:space="preserve"><polygon fill="#A23337" points="12,36 24,12 18,0 6.017,0 0,12.016 "/><path fill="#ffffff" transform="translate(4.5 4.5)" d="M 10.199219 3.300781 L 10.199219 2.390625 C 10.199219 1.644531 9.566406 0.898438 8.824219 0.898438 L 6.320312 0.898438 C 5.578125 0.898438 4.800781 1.644531 4.800781 2.390625 L 4.800781 3.300781 L 3.207031 3.300781 L 1.5 13.800781 L 13.554688 13.800781 L 11.824219 3.300781 Z M 5.699219 2.390625 C 5.699219 2.109375 6.042969 1.800781 6.320312 1.800781 L 8.824219 1.800781 C 9.101562 1.800781 9.300781 2.109375 9.300781 2.390625 L 9.300781 3.300781 L 5.699219 3.300781 Z M 5.699219 2.390625 "></path> </svg>