<?xml version="1.0" encoding="utf-8"?> <!DOCTYPE svg PUBLIC "-//W3C//DTD SVG 1.1//EN" "http://www.w3.org/Graphics/SVG/1.1/DTD/svg11.dtd"><svg version="1.1" id="marker-circle-blue" xmlns="http://www.w3.org/2000/svg" xmlns:xlink="http://www.w3.org/1999/xlink" x="0px"  y="0px" width="24px" height="36px" viewBox="0 0 24 36" enable-background="new 0 0 24 36" xml:space="preserve"><polygon fill="#EF9228" points="12,36 24,12 18,0 6.017,0 0,12.016 "/><path fill="#ffffff" transform="translate(4.5 4.5)" d="M6,1A2,2,0,0,0,4,3V6.5a0.5,0.5,0,0,0,.5.5h2A0.5,0.5,0,0,0,7,6.5v-2A0.5,0.5,0,0,1,7.5,4H14V1H6Z"></path> <path fill="#ffffff" transform="translate(4.5 4.5)" d="M7,15H4a0.5,0.5,0,0,1-.48-0.38L2,8.62A0.5,0.5,0,0,1,2.5,8h6A0.5,0.5,0,0,1,9,8.62l-1.5,6A0.5,0.5,0,0,1,7,15ZM3.65,11l3.71,0L7.86,9H3.14Z"></path> </svg>