<?xml version="1.0" encoding="utf-8"?> <!DOCTYPE svg PUBLIC "-//W3C//DTD SVG 1.1//EN" "http://www.w3.org/Graphics/SVG/1.1/DTD/svg11.dtd"><svg version="1.1" id="marker-circle-blue" xmlns="http://www.w3.org/2000/svg" xmlns:xlink="http://www.w3.org/1999/xlink" x="0px"  y="0px" width="24px" height="36px" viewBox="0 0 24 36" enable-background="new 0 0 24 36" xml:space="preserve"><polygon fill="#5B396C" points="12,36 24,12 18,0 6.017,0 0,12.016 "/><path fill="#ffffff" transform="translate(4.5 4.5)" d="M 13.929688 8.035156 C 13.082031 6.71875 12.015625 5.734375 10.738281 5.082031 C 11.078125 5.660156 11.25 6.289062 11.25 6.964844 C 11.25 7.996094 10.882812 8.878906 10.148438 9.613281 C 9.414062 10.347656 8.53125 10.714844 7.5 10.714844 C 6.46875 10.714844 5.585938 10.347656 4.851562 9.613281 C 4.117188 8.878906 3.75 7.996094 3.75 6.964844 C 3.75 6.289062 3.921875 5.660156 4.261719 5.082031 C 2.984375 5.734375 1.917969 6.71875 1.070312 8.035156 C 1.8125 9.179688 2.742188 10.089844 3.863281 10.769531 C 4.980469 11.445312 6.195312 11.785156 7.5 11.785156 C 8.804688 11.785156 10.019531 11.445312 11.136719 10.769531 C 12.253906 10.089844 13.1875 9.179688 13.929688 8.035156 Z M 7.902344 4.820312 C 7.902344 4.710938 7.863281 4.613281 7.785156 4.535156 C 7.707031 4.457031 7.613281 4.417969 7.5 4.417969 C 6.800781 4.417969 6.203125 4.667969 5.703125 5.167969 C 5.203125 5.667969 4.957031 6.265625 4.957031 6.964844 C 4.957031 7.074219 4.996094 7.171875 5.074219 7.25 C 5.152344 7.328125 5.246094 7.367188 5.355469 7.367188 C 5.46875 7.367188 5.5625 7.328125 5.640625 7.25 C 5.71875 7.171875 5.757812 7.074219 5.757812 6.964844 C 5.757812 6.484375 5.929688 6.074219 6.269531 5.734375 C 6.609375 5.394531 7.019531 5.222656 7.5 5.222656 C 7.613281 5.222656 7.707031 5.183594 7.785156 5.105469 C 7.863281 5.027344 7.902344 4.933594 7.902344 4.820312 Z M 15 8.035156 C 15 8.226562 14.945312 8.417969 14.832031 8.613281 C 14.050781 9.898438 13 10.925781 11.679688 11.699219 C 10.359375 12.46875 8.96875 12.855469 7.5 12.855469 C 6.03125 12.855469 4.636719 12.46875 3.320312 11.695312 C 2 10.917969 0.949219 9.890625 0.167969 8.613281 C 0.0546875 8.417969 0 8.226562 0 8.035156 C 0 7.847656 0.0546875 7.652344 0.167969 7.457031 C 0.949219 6.179688 2 5.152344 3.320312 4.378906 C 4.636719 3.601562 6.03125 3.214844 7.5 3.214844 C 8.96875 3.214844 10.359375 3.601562 11.679688 4.378906 C 13 5.152344 14.050781 6.179688 14.832031 7.457031 C 14.945312 7.652344 15 7.847656 15 8.035156 Z M 15 8.035156 "></path> </svg>