<?xml version="1.0" encoding="utf-8"?> <!DOCTYPE svg PUBLIC "-//W3C//DTD SVG 1.1//EN" "http://www.w3.org/Graphics/SVG/1.1/DTD/svg11.dtd"><svg version="1.1" id="marker-circle-blue" xmlns="http://www.w3.org/2000/svg" xmlns:xlink="http://www.w3.org/1999/xlink" x="0px"  y="0px" width="24px" height="36px" viewBox="0 0 24 36" enable-background="new 0 0 24 36" xml:space="preserve"><polygon fill="#5B396C" points="12,36 24,12 18,0 6.017,0 0,12.016 "/><path fill="#ffffff" transform="translate(4.5 4.5)" d="M 0.80527391,2.9396186 C 0.80527391,2.9396186 0,5.3554403 0,8.576536 h 5.905342 c 0.5368493,0 1.402668,1.0736985 1.3958081,1.0736985 H 15.03178 c 0,-3.2210956 -3.221096,-3.4895203 -4.294795,-3.4895203 H 8.5895884 C 7.5158898,4.0133171 5.3684927,2.9396186 5.3684927,2.9396186 H 5.1000681 c -0.8052739,1.6195798 -2.934985,1.6195798 -4.0263696,0 z M 5.905342,4.0133171 c 0.2964933,0 0.5368493,0.2403557 0.5368493,0.5368493 0,0.2964936 -0.240356,0.5368493 -0.5368493,0.5368493 -0.2964933,0 -0.5368493,-0.2403557 -0.5368493,-0.5368493 0,-0.2964936 0.240356,-0.5368493 0.5368493,-0.5368493 z m 1.0736986,1.0736986 c 0.2964932,0 0.5368492,0.2403557 0.5368492,0.5368493 0,0.2964936 -0.240356,0.5368492 -0.5368492,0.5368492 -0.2964933,0 -0.5368493,-0.2403556 -0.5368493,-0.5368492 0,-0.2964936 0.240356,-0.5368493 0.5368493,-0.5368493 z M 0,9.3818099 V 11.529207 H 5.6369174 V 9.3818099 Z m 7.8379994,1.0736991 c 0,0 0.751589,1.073698 1.2884383,1.073698 H 15.03178 v -1.073698 z"></path> </svg>