<?xml version="1.0" encoding="utf-8"?> <!DOCTYPE svg PUBLIC "-//W3C//DTD SVG 1.1//EN" "http://www.w3.org/Graphics/SVG/1.1/DTD/svg11.dtd"><svg version="1.1" id="marker-circle-blue" xmlns="http://www.w3.org/2000/svg" xmlns:xlink="http://www.w3.org/1999/xlink" x="0px"  y="0px" width="24px" height="36px" viewBox="0 0 24 36" enable-background="new 0 0 24 36" xml:space="preserve"><polygon fill="#EF9228" points="12,36 24,12 18,0 6.017,0 0,12.016 "/><path fill="#ffffff" transform="translate(4.5 4.5)" d="M8.699219,1.355469C6.511719,1.355469,4.800781,3.089844,4.800781,5.226562L4.800781,14.398438L6.300781,14.398438L6.300781,11.398438L11.101562,11.398438L11.101562,14.398438L12.601562,14.398438L12.601562,5.226562C12.601562,3.089844,10.890625,1.355469,8.699219,1.355469ZM1.199219,0.601562L3.410156,4.199219L3.640625,4.199219C3.78125,2.699219,4.800781,1.46875,6.300781,0.914062L6.300781,0.601562ZM1.199219,0.601562"></path> </svg>