<?xml version="1.0" encoding="utf-8"?> <!DOCTYPE svg PUBLIC "-//W3C//DTD SVG 1.1//EN" "http://www.w3.org/Graphics/SVG/1.1/DTD/svg11.dtd"><svg version="1.1" id="marker-circle-blue" xmlns="http://www.w3.org/2000/svg" xmlns:xlink="http://www.w3.org/1999/xlink" x="0px"  y="0px" width="24px" height="36px" viewBox="0 0 24 36" enable-background="new 0 0 24 36" xml:space="preserve"><polygon fill="#F5BB3A" points="12,36 24,12 18,0 6.017,0 0,12.016 "/><path fill="#ffffff" transform="translate(4.5 4.5)" d="M11.402344,9.917969C11.402344,10.773438,11.121094,11.507812,10.566406,12.125C10.011719,12.742188,9.292969,13.121094,8.402344,13.265625L8.402344,14.730469C8.402344,14.808594,8.378906,14.875,8.328125,14.925781C8.277344,14.976562,8.214844,15,8.136719,15L7.007812,15C6.933594,15,6.871094,14.972656,6.816406,14.921875C6.765625,14.867188,6.738281,14.804688,6.738281,14.730469L6.738281,13.265625C6.371094,13.21875,6.015625,13.128906,5.671875,13.007812C5.328125,12.886719,5.042969,12.761719,4.820312,12.636719C4.597656,12.507812,4.390625,12.375,4.203125,12.234375C4.011719,12.089844,3.882812,11.988281,3.8125,11.917969C3.742188,11.851562,3.695312,11.800781,3.667969,11.769531C3.570312,11.652344,3.566406,11.539062,3.648438,11.425781L4.511719,10.296875C4.550781,10.238281,4.613281,10.207031,4.703125,10.195312C4.789062,10.183594,4.855469,10.210938,4.90625,10.269531L4.921875,10.289062C5.550781,10.839844,6.230469,11.1875,6.957031,11.332031C7.164062,11.378906,7.367188,11.402344,7.574219,11.402344C8.027344,11.402344,8.425781,11.28125,8.769531,11.039062C9.109375,10.800781,9.28125,10.460938,9.28125,10.019531C9.28125,9.863281,9.242188,9.714844,9.15625,9.574219C9.074219,9.4375,8.980469,9.320312,8.875,9.222656C8.773438,9.128906,8.609375,9.023438,8.386719,8.910156C8.164062,8.796875,7.980469,8.707031,7.835938,8.640625C7.691406,8.578125,7.464844,8.488281,7.164062,8.371094C6.949219,8.28125,6.777344,8.210938,6.648438,8.160156C6.523438,8.109375,6.351562,8.039062,6.136719,7.9375C5.917969,7.839844,5.742188,7.753906,5.613281,7.679688C5.480469,7.605469,5.324219,7.503906,5.140625,7.382812C4.957031,7.261719,4.804688,7.140625,4.691406,7.027344C4.578125,6.914062,4.457031,6.777344,4.328125,6.617188C4.199219,6.457031,4.101562,6.296875,4.03125,6.132812C3.960938,5.964844,3.902344,5.78125,3.855469,5.574219C3.808594,5.367188,3.785156,5.152344,3.785156,4.921875C3.785156,4.152344,4.058594,3.476562,4.605469,2.894531C5.152344,2.316406,5.863281,1.941406,6.738281,1.773438L6.738281,0.269531C6.738281,0.195312,6.765625,0.132812,6.816406,0.078125C6.871094,0.0273438,6.933594,0,7.007812,0L8.136719,0C8.214844,0,8.277344,0.0234375,8.328125,0.0742188C8.378906,0.125,8.402344,0.191406,8.402344,0.269531L8.402344,1.742188C8.722656,1.773438,9.03125,1.839844,9.328125,1.933594C9.628906,2.027344,9.871094,2.121094,10.058594,2.214844C10.242188,2.304688,10.421875,2.410156,10.589844,2.527344C10.757812,2.644531,10.863281,2.726562,10.914062,2.769531C10.964844,2.816406,11.007812,2.855469,11.039062,2.886719C11.136719,2.988281,11.148438,3.09375,11.082031,3.207031L10.40625,4.429688C10.359375,4.511719,10.296875,4.554688,10.210938,4.5625C10.132812,4.578125,10.058594,4.558594,9.984375,4.503906C9.96875,4.488281,9.929688,4.453125,9.863281,4.402344C9.800781,4.351562,9.691406,4.277344,9.539062,4.179688C9.382812,4.082031,9.222656,3.992188,9.046875,3.914062C8.875,3.832031,8.667969,3.757812,8.425781,3.695312C8.183594,3.632812,7.945312,3.597656,7.710938,3.597656C7.179688,3.597656,6.746094,3.71875,6.410156,3.960938C6.078125,4.199219,5.910156,4.507812,5.910156,4.886719C5.910156,5.035156,5.933594,5.167969,5.980469,5.289062C6.027344,5.414062,6.109375,5.527344,6.226562,5.636719C6.34375,5.746094,6.453125,5.839844,6.558594,5.914062C6.660156,5.988281,6.816406,6.074219,7.027344,6.171875C7.234375,6.269531,7.40625,6.347656,7.535156,6.398438C7.660156,6.453125,7.855469,6.527344,8.121094,6.628906C8.414062,6.742188,8.640625,6.828125,8.796875,6.894531C8.953125,6.957031,9.164062,7.054688,9.433594,7.1875C9.703125,7.316406,9.910156,7.4375,10.066406,7.542969C10.21875,7.648438,10.390625,7.789062,10.585938,7.960938C10.777344,8.132812,10.925781,8.3125,11.027344,8.492188C11.132812,8.671875,11.21875,8.886719,11.292969,9.132812C11.363281,9.378906,11.402344,9.640625,11.402344,9.917969ZM11.402344,9.917969"></path> </svg>