<?xml version="1.0" encoding="utf-8"?> <!DOCTYPE svg PUBLIC "-//W3C//DTD SVG 1.1//EN" "http://www.w3.org/Graphics/SVG/1.1/DTD/svg11.dtd"><svg version="1.1" id="marker-circle-blue" xmlns="http://www.w3.org/2000/svg" xmlns:xlink="http://www.w3.org/1999/xlink" x="0px"  y="0px" width="24px" height="36px" viewBox="0 0 24 36" enable-background="new 0 0 24 36" xml:space="preserve"><polygon fill="#D73F29" points="12,36 24,12 18,0 6.017,0 0,12.016 "/><path fill="#ffffff" transform="translate(4.5 4.5)" d="M 14.628906 2.46875 C 14.554688 2.140625 14.550781 2.101562 13.816406 2.101562 L 13.082031 2.101562 L 12.933594 1.695312 C 12.738281 1.109375 12.085938 0.546875 11.433594 0.386719 C 11.058594 0.292969 9.714844 0.273438 6.441406 0.296875 C 2.320312 0.328125 1.925781 0.351562 1.519531 0.53125 C 0.605469 0.941406 0.101562 1.976562 0.371094 2.886719 C 0.5625 3.519531 0.957031 3.988281 1.519531 4.242188 C 1.925781 4.425781 2.320312 4.445312 6.441406 4.472656 C 9.714844 4.496094 11.058594 4.46875 11.433594 4.375 C 12.085938 4.210938 12.738281 3.632812 12.933594 3.039062 C 13.082031 2.59375 13.089844 2.589844 13.574219 2.621094 L 14.058594 2.652344 L 14.09375 4.191406 L 14.125 5.730469 L 12.695312 6.066406 C 11.910156 6.253906 10.929688 6.488281 10.511719 6.59375 C 10.097656 6.699219 9.089844 6.945312 8.273438 7.136719 L 6.789062 7.492188 L 6.789062 8.273438 C 6.789062 9.046875 6.855469 9.054688 6.394531 9.441406 L 6 9.828125 L 6 14.699219 L 8.101562 14.699219 L 8.101562 9.828125 L 7.671875 9.433594 C 7.214844 9.050781 7.222656 9.023438 7.257812 8.433594 L 7.300781 7.828125 L 7.832031 7.699219 C 8.117188 7.625 9.039062 7.402344 9.867188 7.199219 C 10.699219 7 12.128906 6.65625 13.042969 6.433594 L 14.699219 6.035156 L 14.699219 4.433594 C 14.699219 3.558594 14.667969 2.648438 14.628906 2.46875 Z M 7.433594 13.390625 C 7.433594 13.644531 7.386719 13.695312 7.128906 13.722656 C 6.804688 13.753906 6.664062 13.59375 6.734375 13.269531 C 6.761719 13.144531 6.871094 13.089844 7.101562 13.089844 C 7.394531 13.089844 7.433594 13.125 7.433594 13.390625 Z M 7.433594 13.390625 "></path> </svg>