<?xml version="1.0" encoding="utf-8"?> <!DOCTYPE svg PUBLIC "-//W3C//DTD SVG 1.1//EN" "http://www.w3.org/Graphics/SVG/1.1/DTD/svg11.dtd"><svg version="1.1" id="marker-circle-blue" xmlns="http://www.w3.org/2000/svg" xmlns:xlink="http://www.w3.org/1999/xlink" x="0px"  y="0px" width="24px" height="36px" viewBox="0 0 24 36" enable-background="new 0 0 24 36" xml:space="preserve"><polygon fill="#EF9228" points="12,36 24,12 18,0 6.017,0 0,12.016 "/><path fill="#ffffff" transform="translate(4.5 4.5)" d="M11.415820312500001,3.97265625L6.78515625,8.603320312500001c-0.27451171874999997,0.27451171874999997,-0.71982421875,0.27451171874999997,-0.9943359374999999,0l-0.331640625,-0.331640625c-0.27451171874999997,-0.27451171874999997,-0.27451171874999997,-0.71982421875,0,-0.9943359374999999l0.00322265625,-0.00322265625c-0.9969726562500001,-1.17802734375,-1.030078125,-2.8986328125,-0.09931640625,-4.1126953125c-0.35068359375,-0.22119140625,-0.7658203125,-0.34892578125,-1.2099609375,-0.34892578125C2.8968749999999996,2.8125,1.875,3.8343749999999996,1.875,5.090624999999999V14.0625H0V5.090624999999999C0,2.8004882812500003,1.86298828125,0.9375,4.153124999999999,0.9375c1.08193359375,0,2.06865234375,0.416015625,2.8083984375,1.0962890625000001c1.0517578125,-0.33720703125,2.2412109375,-0.1318359375,3.12509765625,0.6161132812500001l0.00322265625,-0.00322265625c0.27451171874999997,-0.27451171874999997,0.71982421875,-0.27451171874999997,0.9943359374999999,0l0.331640625,0.331640625c0.27451171874999997,0.27451171874999997,0.27451171874999997,0.71982421875,0,0.9943359374999999zM11.25,6.09375c0,0.258896484375,-0.20985351562500001,0.46875,-0.46875,0.46875s-0.46875,-0.20985351562500001,-0.46875,-0.46875s0.20985351562500001,-0.46875,0.46875,-0.46875s0.46875,0.20985351562500001,0.46875,0.46875zm0.9375,0c0,-0.258896484375,0.20985351562500001,-0.46875,0.46875,-0.46875s0.46875,0.20985351562500001,0.46875,0.46875s-0.20985351562500001,0.46875,-0.46875,0.46875s-0.46875,-0.20985351562500001,-0.46875,-0.46875zm2.8125,0c0,0.258896484375,-0.20985351562500001,0.46875,-0.46875,0.46875s-0.46875,-0.20985351562500001,-0.46875,-0.46875s0.20985351562500001,-0.46875,0.46875,-0.46875s0.46875,0.20985351562500001,0.46875,0.46875zm-4.6875,0.9375c0,0.258896484375,-0.20985351562500001,0.46875,-0.46875,0.46875s-0.46875,-0.20985351562500001,-0.46875,-0.46875s0.20985351562500001,-0.46875,0.46875,-0.46875s0.46875,0.20985351562500001,0.46875,0.46875zm1.40625,-0.46875c0.258896484375,0,0.46875,0.20985351562500001,0.46875,0.46875s-0.20985351562500001,0.46875,-0.46875,0.46875s-0.46875,-0.20985351562500001,-0.46875,-0.46875s0.20985351562500001,-0.46875,0.46875,-0.46875zm2.34375,0.46875c0,0.258896484375,-0.20985351562500001,0.46875,-0.46875,0.46875s-0.46875,-0.20985351562500001,-0.46875,-0.46875s0.20985351562500001,-0.46875,0.46875,-0.46875s0.46875,0.20985351562500001,0.46875,0.46875zm-4.6875,0.9375c0,0.258896484375,-0.20985351562500001,0.46875,-0.46875,0.46875s-0.46875,-0.20985351562500001,-0.46875,-0.46875s0.20985351562500001,-0.46875,0.46875,-0.46875s0.46875,0.20985351562500001,0.46875,0.46875zm0.9375,0c0,-0.258896484375,0.20985351562500001,-0.46875,0.46875,-0.46875s0.46875,0.20985351562500001,0.46875,0.46875s-0.20985351562500001,0.46875,-0.46875,0.46875s-0.46875,-0.20985351562500001,-0.46875,-0.46875zm2.8125,0c0,0.258896484375,-0.20985351562500001,0.46875,-0.46875,0.46875s-0.46875,-0.20985351562500001,-0.46875,-0.46875s0.20985351562500001,-0.46875,0.46875,-0.46875s0.46875,0.20985351562500001,0.46875,0.46875zm-3.75,0.9375c0,-0.258896484375,0.20985351562500001,-0.46875,0.46875,-0.46875s0.46875,0.20985351562500001,0.46875,0.46875s-0.20985351562500001,0.46875,-0.46875,0.46875s-0.46875,-0.20985351562500001,-0.46875,-0.46875zm2.8125,0c0,0.258896484375,-0.20985351562500001,0.46875,-0.46875,0.46875s-0.46875,-0.20985351562500001,-0.46875,-0.46875s0.20985351562500001,-0.46875,0.46875,-0.46875s0.46875,0.20985351562500001,0.46875,0.46875zm-2.8125,0.9375c0,0.258896484375,-0.20985351562500001,0.46875,-0.46875,0.46875s-0.46875,-0.20985351562500001,-0.46875,-0.46875s0.20985351562500001,-0.46875,0.46875,-0.46875s0.46875,0.20985351562500001,0.46875,0.46875zm1.875,0c0,0.258896484375,-0.20985351562500001,0.46875,-0.46875,0.46875s-0.46875,-0.20985351562500001,-0.46875,-0.46875s0.20985351562500001,-0.46875,0.46875,-0.46875s0.46875,0.20985351562500001,0.46875,0.46875zm-0.9375,0.9375c0,0.258896484375,-0.20985351562500001,0.46875,-0.46875,0.46875s-0.46875,-0.20985351562500001,-0.46875,-0.46875s0.20985351562500001,-0.46875,0.46875,-0.46875s0.46875,0.20985351562500001,0.46875,0.46875zm-0.9375,0.9375c0,0.258896484375,-0.20985351562500001,0.46875,-0.46875,0.46875s-0.46875,-0.20985351562500001,-0.46875,-0.46875s0.20985351562500001,-0.46875,0.46875,-0.46875s0.46875,0.20985351562500001,0.46875,0.46875z"></path> </svg>