<?xml version="1.0" encoding="utf-8"?> <!DOCTYPE svg PUBLIC "-//W3C//DTD SVG 1.1//EN" "http://www.w3.org/Graphics/SVG/1.1/DTD/svg11.dtd"><svg version="1.1" id="marker-circle-blue" xmlns="http://www.w3.org/2000/svg" xmlns:xlink="http://www.w3.org/1999/xlink" x="0px"  y="0px" width="24px" height="36px" viewBox="0 0 24 36" enable-background="new 0 0 24 36" xml:space="preserve"><polygon fill="#9D7178" points="12,36 24,12 18,0 6.017,0 0,12.016 "/><path fill="#ffffff" transform="translate(4.5 4.5)" d="M7,1.5l-5.5,9H1c-1,0,-1,1,-1,1v1c0,0,0,1,1,1h13c1,0,1,-1,1,-1v-1c0,0,0,-1,-1,-1h-0.5L8,1.5C7.8,1.1,7.2,1.1,7,1.5zM7.5,5l3.2,5.5H4.2L7.5,5z"></path> </svg>