<?xml version="1.0" encoding="utf-8"?> <!DOCTYPE svg PUBLIC "-//W3C//DTD SVG 1.1//EN" "http://www.w3.org/Graphics/SVG/1.1/DTD/svg11.dtd"><svg version="1.1" id="marker-circle-blue" xmlns="http://www.w3.org/2000/svg" xmlns:xlink="http://www.w3.org/1999/xlink" x="0px"  y="0px" width="24px" height="36px" viewBox="0 0 24 36" enable-background="new 0 0 24 36" xml:space="preserve"><polygon fill="#A23337" points="12,36 24,12 18,0 6.017,0 0,12.016 "/><path fill="#ffffff" transform="translate(4.5 4.5)" d="M 7.21875 4.5 L 7.507812 4.5 C 9.128906 4.5 10.058594 6.082031 10.066406 7.125 C 10.058594 7.328125 10.011719 7.523438 9.78125 7.515625 C 9.292969 7.523438 9.46875 6.710938 9.066406 6.046875 C 8.878906 5.71875 8.269531 5.101562 7.574219 5.101562 L 7.320312 5.101562 C 6.949219 5.101562 6.25 5.347656 5.777344 6.054688 C 5.191406 6.90625 5.578125 7.550781 5.082031 7.546875 C 5.007812 7.550781 4.789062 7.503906 4.792969 7.152344 C 4.816406 5.546875 6.285156 4.5 7.21875 4.5 Z M 7.441406 13.5 C 8.046875 13.5 8.398438 12.824219 8.398438 12.398438 L 8.398438 11.515625 C 8.398438 9.714844 10.351562 9.003906 10.34375 7.195312 C 10.351562 5.503906 8.851562 4.226562 7.410156 4.230469 C 6.210938 4.226562 5.410156 5 5.101562 5.398438 C 4.171875 6.546875 4.714844 7.636719 4.058594 7.636719 C 3.871094 7.636719 3.691406 7.53125 3.691406 7.160156 C 3.660156 5.367188 5.140625 3.472656 7.472656 3.46875 C 9.351562 3.472656 11.179688 4.96875 11.179688 7.265625 C 11.179688 9.390625 9.300781 9.835938 9.300781 11.703125 L 9.300781 12.5 C 9.300781 13.320312 8.585938 14.257812 7.386719 14.265625 C 7.339844 14.25 7.300781 14.234375 7.242188 14.230469 C 7.023438 14.164062 6.875 13.964844 6.925781 13.738281 C 6.992188 13.539062 7.179688 13.5 7.425781 13.5 Z M 13.382812 0.300781 L 12.527344 0.300781 L 9.621094 3.488281 C 9.925781 3.644531 10.210938 3.871094 10.460938 4.109375 C 10.875 4.503906 11.121094 4.996094 11.308594 5.523438 L 14.699219 2.140625 L 14.699219 0.300781 Z M 0.300781 14.699219 L 3.023438 14.699219 L 7.085938 10.289062 L 4.660156 8.671875 L 0.300781 13.25 Z M 0.300781 14.699219 "></path> </svg>