<?xml version="1.0" encoding="utf-8"?> <!DOCTYPE svg PUBLIC "-//W3C//DTD SVG 1.1//EN" "http://www.w3.org/Graphics/SVG/1.1/DTD/svg11.dtd"><svg version="1.1" id="marker-circle-blue" xmlns="http://www.w3.org/2000/svg" xmlns:xlink="http://www.w3.org/1999/xlink" x="0px"  y="0px" width="24px" height="36px" viewBox="0 0 24 36" enable-background="new 0 0 24 36" xml:space="preserve"><polygon fill="#A23337" points="12,36 24,12 18,0 6.017,0 0,12.016 "/><path fill="#ffffff" transform="translate(4.5 4.5)" d="M7.414062,14.699219C3.953125,14.699219,1.136719,11.882812,1.136719,8.421875C1.136719,6.207031,2.269531,4.195312,4.167969,3.046875C4.574219,2.800781,5.101562,2.929688,5.347656,3.335938C5.59375,3.742188,5.464844,4.273438,5.058594,4.519531C3.679688,5.351562,2.855469,6.8125,2.855469,8.421875C2.855469,10.933594,4.902344,12.980469,7.414062,12.980469C9.929688,12.980469,11.972656,10.933594,11.972656,8.421875C11.972656,6.785156,11.089844,5.265625,9.667969,4.457031C9.253906,4.222656,9.109375,3.695312,9.347656,3.285156C9.582031,2.871094,10.105469,2.726562,10.519531,2.960938C12.476562,4.078125,13.695312,6.167969,13.695312,8.421875C13.695312,11.882812,10.878906,14.699219,7.414062,14.699219ZM7.351562,8.335938C6.875,8.335938,6.300781,7.949219,6.300781,7.476562L6.300781,1.28125C6.300781,0.808594,6.875,0.421875,7.351562,0.421875C7.824219,0.421875,8.398438,0.808594,8.398438,1.28125L8.398438,7.476562C8.398438,7.949219,7.824219,8.335938,7.351562,8.335938ZM7.351562,8.335938"></path> </svg>