<?xml version="1.0" encoding="utf-8"?> <!DOCTYPE svg PUBLIC "-//W3C//DTD SVG 1.1//EN" "http://www.w3.org/Graphics/SVG/1.1/DTD/svg11.dtd"><svg version="1.1" id="marker-circle-blue" xmlns="http://www.w3.org/2000/svg" xmlns:xlink="http://www.w3.org/1999/xlink" x="0px"  y="0px" width="24px" height="36px" viewBox="0 0 24 36" enable-background="new 0 0 24 36" xml:space="preserve"><polygon fill="#D3D3D3" points="12,36 24,12 18,0 6.017,0 0,12.016 "/><path fill="#ffffff" transform="translate(4.5 4.5)" d="M2.679688,2.144531C2.679688,2.542969,2.5,2.851562,2.144531,3.0625L2.144531,13.660156C2.144531,13.734375,2.117188,13.796875,2.0625,13.847656C2.011719,13.902344,1.949219,13.929688,1.875,13.929688L1.339844,13.929688C1.265625,13.929688,1.203125,13.902344,1.152344,13.847656C1.097656,13.796875,1.070312,13.734375,1.070312,13.660156L1.070312,3.0625C0.714844,2.851562,0.535156,2.542969,0.535156,2.144531C0.535156,1.847656,0.640625,1.59375,0.851562,1.386719C1.058594,1.175781,1.3125,1.070312,1.605469,1.070312C1.902344,1.070312,2.15625,1.175781,2.363281,1.386719C2.574219,1.59375,2.679688,1.847656,2.679688,2.144531ZM15,2.679688L15,9.066406C15,9.203125,14.964844,9.3125,14.894531,9.386719C14.824219,9.460938,14.714844,9.539062,14.566406,9.617188C13.363281,10.265625,12.335938,10.589844,11.476562,10.589844C11.136719,10.589844,10.789062,10.527344,10.441406,10.40625C10.09375,10.28125,9.789062,10.148438,9.535156,10.003906C9.277344,9.859375,8.953125,9.722656,8.566406,9.601562C8.179688,9.476562,7.78125,9.417969,7.375,9.417969C6.304688,9.417969,5.007812,9.824219,3.492188,10.640625C3.394531,10.6875,3.304688,10.714844,3.214844,10.714844C3.070312,10.714844,2.945312,10.660156,2.835938,10.554688C2.730469,10.449219,2.679688,10.324219,2.679688,10.179688L2.679688,3.96875C2.679688,3.789062,2.765625,3.636719,2.9375,3.507812C3.054688,3.429688,3.277344,3.308594,3.597656,3.148438C4.917969,2.476562,6.089844,2.144531,7.125,2.144531C7.71875,2.144531,8.277344,2.222656,8.796875,2.386719C9.316406,2.546875,9.925781,2.792969,10.628906,3.121094C10.84375,3.226562,11.089844,3.28125,11.367188,3.28125C11.667969,3.28125,11.996094,3.222656,12.351562,3.105469C12.703125,2.988281,13.011719,2.855469,13.273438,2.710938C13.53125,2.566406,13.777344,2.4375,14.007812,2.320312C14.238281,2.203125,14.390625,2.144531,14.464844,2.144531C14.609375,2.144531,14.734375,2.195312,14.839844,2.300781C14.945312,2.40625,15,2.535156,15,2.679688ZM15,2.679688"></path> </svg>