<?xml version="1.0" encoding="utf-8"?> <!DOCTYPE svg PUBLIC "-//W3C//DTD SVG 1.1//EN" "http://www.w3.org/Graphics/SVG/1.1/DTD/svg11.dtd"><svg version="1.1" id="marker-circle-blue" xmlns="http://www.w3.org/2000/svg" xmlns:xlink="http://www.w3.org/1999/xlink" x="0px"  y="0px" width="24px" height="36px" viewBox="0 0 24 36" enable-background="new 0 0 24 36" xml:space="preserve"><polygon fill="#EF9228" points="12,36 24,12 18,0 6.017,0 0,12.016 "/><path fill="#ffffff" transform="translate(4.5 4.5)" d="M7.5,8.214844C5.878906,8.214844,4.5,8.6875,3.601562,9.425781L3.601562,10.800781L11.398438,10.800781L11.398438,9.425781C10.5,8.6875,9.121094,8.214844,7.5,8.214844ZM14.660156,7.507812L7.480469,4.199219L0.304688,7.507812L1.5,8.054688L1.5,8.898438C1.199219,8.960938,1.199219,9.117188,1.199219,9.304688C1.199219,9.414062,1.234375,9.542969,1.304688,9.621094L0.894531,10.5L2.359375,10.5L1.953125,9.621094C2.019531,9.542969,2.078125,9.429688,2.078125,9.320312C2.078125,9.132812,1.800781,8.960938,1.800781,8.898438L1.800781,8.195312L3.300781,8.871094L3.300781,8.8125C4.199219,8.027344,5.78125,7.53125,7.5,7.53125C9.21875,7.53125,10.800781,8.027344,11.699219,8.8125L11.699219,8.871094ZM14.660156,7.507812"></path> </svg>