<svg version="1.1" xmlns="http://www.w3.org/2000/svg" xlink="http://www.w3.org/1999/xlink" x="0px" y="0px" width="15px" height="15px" viewBox="0 0 15 15" style="enable-background:new 0 0 15 15;" space="preserve">
    <path d="m6.1689381,6.1883026l2.0046088,2.5248366c0,0,-0.383812,2.3676118,-1.7710845,3.4704938c-1.3849606,1.102881,-6.16411494,0.788433,-6.16411494,0.788433c0,0,0.0878606,-0.5341,0.25433332,-1.280915L2.6799474,9.0969512C2.7724322,8.9882816,2.6591383,8.8287449,2.5273474,8.8772993L1.1308262,9.3882786C1.4637717,8.4241238,1.8868899,7.5385814,2.3932443,7.1339602C3.7782049,6.0287663,6.1689381,6.1883026,6.1689381,6.1883026Zm5.5028479,3.1213637c-1.017333,0,-1.845072,0.8277387,-1.845072,1.8473847c0,1.019645,0.825427,1.847385,1.845072,1.847385c1.019645,0,1.845072,-0.82774,1.845072,-1.847385c0,-1.021958,-0.827739,-1.8473847,-1.845072,-1.8473847zm3.283212,-7.4172847l-0.4578,-0.5780302C14.370031,1.154815,14.138819,1.1293817,13.979283,1.2542364L8.6036018,5.3674995L7.8151681,4.3732875C7.6972503,4.2253118,7.4660381,4.2530572,7.3851138,4.4241542L6.8001469,5.6865723L8.804756,8.2114087L10.164284,7.9247054c0.184968,-0.039309,0.263581,-0.2589574,0.145662,-0.4069331l-0.7884324,-0.9919l5.3756814,-4.1132634c0.159536,-0.1271667,0.184969,-0.3606909,0.0578,-0.5202273z" fill="#FFFFFF"/>
    </svg>