<svg version="1.1" xmlns="http://www.w3.org/2000/svg" xlink="http://www.w3.org/1999/xlink" x="0px" y="0px" width="15px" height="15px" viewBox="0 0 15 15" style="enable-background:new 0 0 15 15;" space="preserve">
    <path d="M11.669567,10.190363L13.30352,8.5564101C13.697912,8.1619947,13.535548,7.4881979,13.003951,7.317339L12.028602,7.0038371V3.7341102c0,-0.4124558,-0.334367,-0.746822,-0.746822,-0.746822H9.7881356V2.0537606c0,-0.3093477,-0.2507688,-0.5601165,-0.5601165,-0.5601165H5.86732c-0.3093477,0,-0.5601166,0.2507688,-0.5601166,0.5601165v0.9335276h-1.493644c-0.4124558,0,-0.7468221,0.3343662,-0.7468221,0.746822V7.0038371L2.0913878,7.317339C1.560374,7.4880112,1.3969833,8.1615513,1.7918188,8.5564101L3.425772,10.190363c-0.4097252,1.018666,-1.3488773,1.758789,-2.78620632,1.758789c-0.30934769,0,-0.56011653,0.250769,-0.56011653,0.560117v0.373411c0,0.309348,0.25076884,0.560117,0.56011653,0.560117c1.42416632,0,2.50883202,-0.481001,3.34338222,-1.386196c0.3365134,0.812823,1.1380401,1.386196,2.0710776,1.386196h2.9872881c0.9330374,0,1.7345644,-0.573373,2.0710774,-1.386196c0.83441,0.905055,1.919006,1.386196,3.343382,1.386196c0.309348,0,0.560117,-0.250769,0.560117,-0.560117v-0.373411c0,-0.309348,-0.250769,-0.560117,-0.560117,-0.560117c-1.419358,0,-2.369806,-0.723507,-2.786206,-1.758789zM4.5603814,4.4809322h5.9745756v2.042815L7.7761971,5.6370127a0.74670534,0.74670534,0,0,0,-0.4570551,0L4.5603814,6.5237472Z" fill="#FFFFFF"/>
    </svg>