<svg version="1.1" xmlns="http://www.w3.org/2000/svg" xlink="http://www.w3.org/1999/xlink" x="0px" y="0px" width="15px" height="18.75px" viewBox="0 0 15 18.75" style="enable-background:new 0 0 15 15;" space="preserve">
    <path d="M15.819580078125002,16.4066162109375l-1.7567138671875,0.0018310546875V15.234375h-4.6875v1.1795654296875l-1.7570800781249998,0.0018310546875c-0.322998046875,0.0003662109375,-0.5848388671875,0.26220703125,-0.585205078125,0.5855712890625l-0.0018310546875,1.1619873046875c-0.0003662109375,0.3240966796875,0.2625732421875,0.5870361328125,0.586669921875,0.586669921875l8.20166015625,-0.009521484375c0.322998046875,-0.0003662109375,0.5848388671875,-0.26220703125,0.585205078125,-0.585205078125l0.00146484375,-1.1619873046875c0.0003662109375,-0.3240966796875,-0.2625732421875,-0.5870361328125,-0.586669921875,-0.586669921875zM21.4306640625,0.9792480468749999C21.334716796875,0.4141845703125,20.8370361328125,0,20.253662109375,0H3.1834716796875C2.60009765625,0,2.1024169921875,0.4141845703125,2.0064697265625,0.9792480468749999C-0.12158203125,13.519042968750002,0.00146484375,12.7470703125,0.0010986328125,12.890625c-0.0010986328125,0.63427734375,0.5233154296875,1.171875,1.19384765625,1.171875h21.047607421875c0.6676025390625,0,1.1905517578125,-0.533203125,1.1934814453125,-1.1641845703125c0.000732421875,-0.1494140625,0.1226806640625,0.6207275390625,-2.00537109375,-11.9190673828125zM9.5152587890625,2.34375h4.4066162109375l0.35778808593749994,3.515625H9.157470703125l0.35778808593749994,-3.515625zm-2.7528076171875,9.375H2.6033935546875004L3.299560546875,7.6171875h3.8807373046875l-0.4178466796875,4.1015625zm0.5965576171875,-5.859375H3.59765625l0.5965576171875,-3.515625h3.5225830078125l-0.35778808593749994,3.515625zm1.201904296875,5.859375l0.41748046875,-4.1015625h5.4803466796875l0.41748046875,4.1015625H8.5609130859375zm7.159423828125,-9.375h3.5225830078125l0.5965576171875,3.515625H16.078125l-0.35778808593749994,-3.515625zm0.954345703125,9.375l-0.41748046875,-4.1015625H20.137939453125l0.6961669921875001,4.1015625H16.6746826171875z" fill="#FFFFFF"/>
    </svg>