<?xml version="1.0" encoding="utf-8"?> <!DOCTYPE svg PUBLIC "-//W3C//DTD SVG 1.1//EN" "http://www.w3.org/Graphics/SVG/1.1/DTD/svg11.dtd"><svg version="1.1" id="marker-circle-blue" xmlns="http://www.w3.org/2000/svg" xmlns:xlink="http://www.w3.org/1999/xlink" x="0px"  y="0px" width="24px" height="36px" viewBox="0 0 24 36" enable-background="new 0 0 24 36" xml:space="preserve"><path fill="#EF9228" d="M20.103,0.57H2.959c-1.893,0-3.365,0.487-3.365,2.472l-0.063,18.189c0,1.979,1.526,3.724,3.418,3.724h4.558
		l4.01,11.545l3.966-11.545h4.56c1.894,0,3.488-1.744,3.488-3.724V4.166C23.531,2.18,21.996,0.57,20.103,0.57z"></path><path fill="#ffffff" transform="translate(4.5 4.5)" d="M13.5,1c-0.0804,0.0008,-0.1594,0.0214,-0.23,0.06L4.5,3.5C4.2239,3.5,4,3.7239,4,4v6.28C3.6971,10.1002,3.3522,10.0037,3,10c-1.1046,0,-2,0.8954,-2,2s0.8954,2,2,2s2,-0.8954,2,-2V7.36l8,-2.22v3.64c-0.3029,-0.1798,-0.6478,-0.2763,-1,-0.28c-1.1046,0,-2,0.8954,-2,2s0.8954,2,2,2s2,-0.8954,2,-2v-9C14,1.2239,13.7761,1,13.5,1zM13,4.14L5,6.36v-2l8,-2.22C13,2.14,13,4.14,13,4.14z"></path> </svg>