<?xml version="1.0" encoding="utf-8"?> <!DOCTYPE svg PUBLIC "-//W3C//DTD SVG 1.1//EN" "http://www.w3.org/Graphics/SVG/1.1/DTD/svg11.dtd"><svg version="1.1" id="marker-circle-blue" xmlns="http://www.w3.org/2000/svg" xmlns:xlink="http://www.w3.org/1999/xlink" x="0px"  y="0px" width="24px" height="36px" viewBox="0 0 24 36" enable-background="new 0 0 24 36" xml:space="preserve"><path fill="#5B396C" d="M20.103,0.57H2.959c-1.893,0-3.365,0.487-3.365,2.472l-0.063,18.189c0,1.979,1.526,3.724,3.418,3.724h4.558
		l4.01,11.545l3.966-11.545h4.56c1.894,0,3.488-1.744,3.488-3.724V4.166C23.531,2.18,21.996,0.57,20.103,0.57z"></path><path fill="#ffffff" transform="translate(4.5 4.5)" d="M8.4375,4.8984375v-0.8232421875c-0.826171875,-1.0634765625,-1.3798828125,-2.3232421875,-1.5849609375,-3.66796875c-0.0615234375,-0.3955078125,-0.556640625,-0.55078125,-0.814453125,-0.24316406250000003c-0.6181640625,0.7294921875,-1.1044921875,1.5849609375,-1.4326171875,2.5341796875c1.001953125,1.1220703125,2.34375,1.8925781249999998,3.8320312500000004,2.2001953125zM11.71875,1.875c-1.294921875,0,-2.34375,1.0517578125,-2.34375,2.3466796875v1.740234375C6.31640625,5.7802734375,3.720703125,3.896484375,2.548828125,1.224609375c-0.1611328125,-0.3662109375,-0.6796875,-0.38671875,-0.849609375,-0.0263671875C1.212890625,2.2265625,0.9375,3.375,0.9375,4.587890625c0,2.07421875,0.9990234375,4.0107421875,2.4931640625,5.4462890625c0.38671875,0.3720703125,0.7646484375,0.6796875,1.1396484375,0.9609374999999999l-4.2158203125,1.0546875C0.041015625,12.12890625,-0.099609375,12.4921875,0.076171875,12.7646484375C0.5859375,13.552734375,1.845703125,14.888671875,4.564453125,15c0.234375,0.0087890625,0.46875,-0.076171875,0.6474609375,-0.2314453125l1.91015625,-1.6435546875H9.375c2.58984375,0,4.6875,-2.0947265625,4.6875,-4.6845703125V3.75l0.9375,-1.875H11.71875zm0,2.8154296875c-0.2578125,0,-0.46875,-0.2109375,-0.46875,-0.46875s0.2109375,-0.46875,0.46875,-0.46875s0.46875,0.2109375,0.46875,0.46875s-0.2109375,0.46875,-0.46875,0.46875z"></path> </svg>