<?xml version="1.0" encoding="utf-8"?> <!DOCTYPE svg PUBLIC "-//W3C//DTD SVG 1.1//EN" "http://www.w3.org/Graphics/SVG/1.1/DTD/svg11.dtd"><svg version="1.1" id="marker-circle-blue" xmlns="http://www.w3.org/2000/svg" xmlns:xlink="http://www.w3.org/1999/xlink" x="0px"  y="0px" width="24px" height="36px" viewBox="0 0 24 36" enable-background="new 0 0 24 36" xml:space="preserve"><path fill="#5B396C" d="M20.103,0.57H2.959c-1.893,0-3.365,0.487-3.365,2.472l-0.063,18.189c0,1.979,1.526,3.724,3.418,3.724h4.558
		l4.01,11.545l3.966-11.545h4.56c1.894,0,3.488-1.744,3.488-3.724V4.166C23.531,2.18,21.996,0.57,20.103,0.57z"></path><path fill="#ffffff" transform="translate(4.5 4.5)" d="M15,12C14.699219,12,14.398438,11.929688,14.136719,11.808594C13.871094,11.683594,13.566406,11.605469,13.253906,11.605469C12.9375,11.605469,12.636719,11.683594,12.367188,11.808594C12.101562,11.929688,11.808594,12,11.503906,12C11.203125,12,10.90625,11.929688,10.644531,11.808594C10.375,11.683594,10.074219,11.605469,9.757812,11.605469C9.445312,11.605469,9.140625,11.683594,8.875,11.808594C8.609375,11.929688,8.316406,12,8.011719,12C7.707031,12,7.414062,11.929688,7.152344,11.808594C6.882812,11.683594,6.582031,11.605469,6.265625,11.605469C5.949219,11.605469,5.652344,11.683594,5.382812,11.808594C5.117188,11.929688,4.828125,12,4.519531,12C4.214844,12,3.925781,11.929688,3.664062,11.808594C3.390625,11.683594,3.09375,11.605469,2.777344,11.605469C2.460938,11.605469,2.246094,11.683594,1.972656,11.808594C1.714844,11.929688,1.5,12,1.199219,12L1.199219,10.6875C1.5,10.6875,1.714844,10.617188,1.972656,10.496094C2.246094,10.371094,2.503906,10.296875,2.820312,10.296875C3.136719,10.296875,3.414062,10.371094,3.683594,10.496094C3.945312,10.617188,4.226562,10.6875,4.53125,10.6875C4.835938,10.6875,5.125,10.617188,5.386719,10.496094C5.65625,10.371094,5.953125,10.296875,6.269531,10.296875C6.585938,10.296875,6.886719,10.371094,7.152344,10.496094C7.414062,10.617188,7.707031,10.6875,8.011719,10.6875C8.320312,10.6875,8.609375,10.617188,8.875,10.496094C9.140625,10.371094,9.445312,10.296875,9.757812,10.296875C10.074219,10.296875,10.375,10.371094,10.644531,10.496094C10.90625,10.617188,11.203125,10.6875,11.503906,10.6875C11.808594,10.6875,12.101562,10.617188,12.367188,10.496094C12.636719,10.371094,12.9375,10.296875,13.253906,10.296875C13.566406,10.296875,13.871094,10.371094,14.136719,10.496094C14.398438,10.617188,14.699219,10.6875,15,10.6875ZM11.488281,6.515625L14.027344,6.714844L13.835938,5.394531L11.96875,5.261719C11.464844,5.234375,11.539062,5.75,11.539062,5.75ZM6.777344,6.214844C7.242188,6.214844,7.617188,5.832031,7.617188,5.355469C7.617188,4.882812,7.242188,4.5,6.777344,4.5C6.3125,4.5,5.9375,4.882812,5.9375,5.355469C5.9375,5.832031,6.3125,6.214844,6.777344,6.214844ZM1.578125,9.515625C1.6875,9.484375,1.792969,9.441406,1.890625,9.394531C2.160156,9.265625,2.460938,9.191406,2.777344,9.191406C3.09375,9.191406,3.390625,9.265625,3.664062,9.394531C3.925781,9.515625,4.214844,9.585938,4.519531,9.585938C4.828125,9.585938,5.117188,9.515625,5.382812,9.394531C5.652344,9.265625,5.949219,9.191406,6.265625,9.191406C6.582031,9.191406,6.886719,9.265625,7.152344,9.394531C7.414062,9.515625,7.707031,9.585938,8.011719,9.585938C8.320312,9.585938,8.609375,9.515625,8.875,9.394531C9.144531,9.265625,9.445312,9.191406,9.757812,9.191406C10.074219,9.191406,10.378906,9.265625,10.644531,9.394531C10.90625,9.515625,11.203125,9.585938,11.503906,9.585938C11.8125,9.585938,12.101562,9.515625,12.367188,9.394531C12.636719,9.265625,12.9375,9.191406,13.253906,9.191406C13.566406,9.191406,13.871094,9.265625,14.136719,9.394531C14.398438,9.515625,14.691406,9.585938,14.996094,9.585938L14.710938,7.242188L4.15625,6.34375L5.75,4.707031L5.050781,4.644531L3.457031,6.285156L0,5.992188C-0.0195312,7.195312,1.292969,9.1875,1.578125,9.515625ZM1.578125,9.515625"></path> </svg>