<?xml version="1.0" encoding="utf-8"?> <!DOCTYPE svg PUBLIC "-//W3C//DTD SVG 1.1//EN" "http://www.w3.org/Graphics/SVG/1.1/DTD/svg11.dtd"><svg version="1.1" id="marker-circle-blue" xmlns="http://www.w3.org/2000/svg" xmlns:xlink="http://www.w3.org/1999/xlink" x="0px"  y="0px" width="24px" height="36px" viewBox="0 0 24 36" enable-background="new 0 0 24 36" xml:space="preserve"><path fill="#5B396C" d="M20.103,0.57H2.959c-1.893,0-3.365,0.487-3.365,2.472l-0.063,18.189c0,1.979,1.526,3.724,3.418,3.724h4.558
		l4.01,11.545l3.966-11.545h4.56c1.894,0,3.488-1.744,3.488-3.724V4.166C23.531,2.18,21.996,0.57,20.103,0.57z"></path><path fill="#ffffff" transform="translate(4.5 4.5)" d="M7,1v2v1.5v0.5098C4.1695,5.1037,2.0021,5.9665,2,7v4.5c0,1.1046,2.4624,2,5.5,2s5.5,-0.8954,5.5,-2V7c-0.0021,-1.0335,-2.1695,-1.8963,-5,-1.9902V4.0625L11,2.75L7,1zM3,8.1465c0.5148,0.2671,1.2014,0.4843,2,0.6328v2.9668C3.7948,11.477,3,11.0199,3,10.5V8.1465zM12,8.1484V10.5c0,0.5199,-0.7948,0.977,-2,1.2461V8.7812C10.7986,8.6328,11.4852,8.4155,12,8.1484zM6,8.9219C6.4877,8.973,6.9925,8.9992,7.5,9C8.0073,8.9999,8.5121,8.9743,9,8.9238v2.9844C8.5287,11.964,8.0288,12,7.5,12S6.4713,11.964,6,11.9082V8.9219z"></path> </svg>