<?xml version="1.0" encoding="utf-8"?> <!DOCTYPE svg PUBLIC "-//W3C//DTD SVG 1.1//EN" "http://www.w3.org/Graphics/SVG/1.1/DTD/svg11.dtd"><svg version="1.1" id="marker-circle-blue" xmlns="http://www.w3.org/2000/svg" xmlns:xlink="http://www.w3.org/1999/xlink" x="0px"  y="0px" width="24px" height="36px" viewBox="0 0 24 36" enable-background="new 0 0 24 36" xml:space="preserve"><path fill="#EF9228" d="M20.103,0.57H2.959c-1.893,0-3.365,0.487-3.365,2.472l-0.063,18.189c0,1.979,1.526,3.724,3.418,3.724h4.558
		l4.01,11.545l3.966-11.545h4.56c1.894,0,3.488-1.744,3.488-3.724V4.166C23.531,2.18,21.996,0.57,20.103,0.57z"></path><path fill="#ffffff" transform="translate(4.5 4.5)" d="M 14.253906 4 C 14.476562 4.320312 14.527344 4.679688 14.40625 5.082031 L 12.105469 12.664062 C 11.996094 13.023438 11.785156 13.320312 11.464844 13.5625 C 11.140625 13.808594 10.800781 13.929688 10.4375 13.929688 L 2.710938 13.929688 C 2.28125 13.929688 1.867188 13.777344 1.46875 13.480469 C 1.070312 13.183594 0.792969 12.816406 0.636719 12.378906 C 0.503906 12.007812 0.496094 11.652344 0.621094 11.316406 C 0.621094 11.292969 0.628906 11.21875 0.644531 11.089844 C 0.660156 10.960938 0.671875 10.859375 0.679688 10.78125 C 0.683594 10.738281 0.675781 10.675781 0.652344 10.601562 C 0.628906 10.527344 0.621094 10.472656 0.628906 10.4375 C 0.640625 10.375 0.660156 10.316406 0.695312 10.261719 C 0.726562 10.207031 0.773438 10.140625 0.832031 10.066406 C 0.890625 9.992188 0.9375 9.925781 0.972656 9.867188 C 1.097656 9.65625 1.226562 9.402344 1.347656 9.101562 C 1.46875 8.804688 1.554688 8.550781 1.597656 8.335938 C 1.617188 8.28125 1.617188 8.199219 1.601562 8.085938 C 1.589844 7.972656 1.585938 7.894531 1.597656 7.851562 C 1.617188 7.789062 1.664062 7.710938 1.742188 7.617188 C 1.820312 7.523438 1.867188 7.457031 1.882812 7.425781 C 2 7.222656 2.117188 6.96875 2.234375 6.65625 C 2.351562 6.34375 2.421875 6.089844 2.445312 5.902344 C 2.449219 5.851562 2.441406 5.761719 2.421875 5.632812 C 2.402344 5.503906 2.40625 5.425781 2.425781 5.398438 C 2.449219 5.328125 2.511719 5.242188 2.613281 5.144531 C 2.710938 5.046875 2.773438 4.984375 2.796875 4.957031 C 2.902344 4.808594 3.019531 4.574219 3.152344 4.25 C 3.28125 3.921875 3.359375 3.652344 3.382812 3.441406 C 3.386719 3.394531 3.378906 3.324219 3.355469 3.226562 C 3.335938 3.128906 3.328125 3.054688 3.339844 3.003906 C 3.351562 2.960938 3.375 2.910156 3.414062 2.855469 C 3.453125 2.796875 3.503906 2.734375 3.566406 2.660156 C 3.628906 2.589844 3.675781 2.53125 3.707031 2.484375 C 3.753906 2.417969 3.796875 2.332031 3.847656 2.230469 C 3.894531 2.128906 3.933594 2.03125 3.972656 1.9375 C 4.007812 1.84375 4.054688 1.746094 4.105469 1.636719 C 4.160156 1.527344 4.214844 1.4375 4.269531 1.367188 C 4.324219 1.296875 4.398438 1.234375 4.492188 1.171875 C 4.582031 1.109375 4.683594 1.078125 4.792969 1.074219 C 4.902344 1.074219 5.035156 1.089844 5.191406 1.121094 L 5.179688 1.148438 C 5.394531 1.097656 5.535156 1.070312 5.609375 1.070312 L 11.976562 1.070312 C 12.390625 1.070312 12.710938 1.226562 12.933594 1.539062 C 13.15625 1.851562 13.207031 2.214844 13.082031 2.628906 L 10.789062 10.210938 C 10.589844 10.875 10.390625 11.304688 10.191406 11.496094 C 9.992188 11.6875 9.632812 11.785156 9.117188 11.785156 L 1.839844 11.785156 C 1.691406 11.785156 1.585938 11.828125 1.523438 11.910156 C 1.460938 12 1.460938 12.121094 1.515625 12.269531 C 1.648438 12.660156 2.050781 12.855469 2.71875 12.855469 L 10.445312 12.855469 C 10.609375 12.855469 10.765625 12.8125 10.914062 12.726562 C 11.066406 12.640625 11.164062 12.523438 11.207031 12.378906 L 13.71875 4.117188 C 13.757812 3.996094 13.773438 3.835938 13.761719 3.640625 C 13.972656 3.726562 14.136719 3.84375 14.253906 4 Z M 5.347656 4.019531 C 5.328125 4.089844 5.332031 4.152344 5.367188 4.207031 C 5.398438 4.257812 5.453125 4.285156 5.53125 4.285156 L 10.621094 4.285156 C 10.695312 4.285156 10.765625 4.257812 10.835938 4.207031 C 10.90625 4.152344 10.953125 4.089844 10.972656 4.019531 L 11.148438 3.480469 C 11.171875 3.410156 11.167969 3.347656 11.132812 3.292969 C 11.097656 3.242188 11.042969 3.214844 10.964844 3.214844 L 5.875 3.214844 C 5.804688 3.214844 5.730469 3.242188 5.664062 3.292969 C 5.59375 3.347656 5.546875 3.410156 5.523438 3.480469 Z M 4.652344 6.160156 C 4.632812 6.234375 4.636719 6.296875 4.671875 6.347656 C 4.703125 6.402344 4.761719 6.429688 4.839844 6.429688 L 9.925781 6.429688 C 10 6.429688 10.070312 6.402344 10.140625 6.347656 C 10.210938 6.296875 10.257812 6.234375 10.277344 6.160156 L 10.453125 5.625 C 10.476562 5.550781 10.472656 5.488281 10.4375 5.4375 C 10.40625 5.382812 10.347656 5.355469 10.269531 5.355469 L 5.179688 5.355469 C 5.109375 5.355469 5.039062 5.382812 4.96875 5.4375 C 4.898438 5.488281 4.851562 5.550781 4.828125 5.625 Z M 4.652344 6.160156 "></path> </svg>