<?xml version="1.0" encoding="utf-8"?> <!DOCTYPE svg PUBLIC "-//W3C//DTD SVG 1.1//EN" "http://www.w3.org/Graphics/SVG/1.1/DTD/svg11.dtd"><svg version="1.1" id="marker-circle-blue" xmlns="http://www.w3.org/2000/svg" xmlns:xlink="http://www.w3.org/1999/xlink" x="0px"  y="0px" width="24px" height="36px" viewBox="0 0 24 36" enable-background="new 0 0 24 36" xml:space="preserve"><path fill="#EF9228" d="M20.103,0.57H2.959c-1.893,0-3.365,0.487-3.365,2.472l-0.063,18.189c0,1.979,1.526,3.724,3.418,3.724h4.558
		l4.01,11.545l3.966-11.545h4.56c1.894,0,3.488-1.744,3.488-3.724V4.166C23.531,2.18,21.996,0.57,20.103,0.57z"></path><path fill="#ffffff" transform="translate(4.5 4.5)" d="M 4.0078125 0 L 3.0078125 2 L 3.4765625 2 L 4.5234375 0 L 4.0078125 0 z M 8.0078125 0 L 7.0078125 2 L 7.4765625 2 L 8.5234375 0 L 8.0078125 0 z M 12.007812 0 L 11.007812 2 L 11.476562 2 L 12.523438 0 L 12.007812 0 z M 1 2 L 0 4 L 0.46875 4 L 1.5175781 2 L 1 2 z M 5.0078125 2 L 4.0078125 4 L 4.4765625 4 L 5.5234375 2 L 5.0078125 2 z M 9.0078125 2 L 8.0078125 4 L 8.4765625 4 L 9.5234375 2 L 9.0078125 2 z M 13.007812 2 L 12.007812 4 L 12.476562 4 L 13.523438 2 L 13.007812 2 z M 2.5 4 L 1.5 6 L 1.96875 6 L 3.0175781 4 L 2.5 4 z M 10.482422 4 L 9.4824219 6 L 9.9511719 6 L 11 4 L 10.482422 4 z M 7 5 L 0 9 L 2 9 L 3 8.5996094 L 3 13.482422 L 3 13.5 A 0.5 0.5 0 0 0 3.2402344 13.927734 A 0.5 0.5 0 0 0 3.7441406 13.935547 A 0.5 0.5 0 0 0 4 13.5 L 4 8.1992188 L 7 7 L 10 8.1992188 L 10 13.5 A 0.5 0.5 0 0 0 10.240234 13.927734 A 0.5 0.5 0 0 0 10.744141 13.935547 A 0.5 0.5 0 0 0 11 13.5 L 11 8.5996094 L 12 9 L 14 9 L 7 5 z "></path> </svg>