<?xml version="1.0" encoding="utf-8"?> <!DOCTYPE svg PUBLIC "-//W3C//DTD SVG 1.1//EN" "http://www.w3.org/Graphics/SVG/1.1/DTD/svg11.dtd"><svg version="1.1" id="marker-circle-blue" xmlns="http://www.w3.org/2000/svg" xmlns:xlink="http://www.w3.org/1999/xlink" x="0px"  y="0px" width="24px" height="36px" viewBox="0 0 24 36" enable-background="new 0 0 24 36" xml:space="preserve"><path fill="#A23337" d="M20.103,0.57H2.959c-1.893,0-3.365,0.487-3.365,2.472l-0.063,18.189c0,1.979,1.526,3.724,3.418,3.724h4.558
		l4.01,11.545l3.966-11.545h4.56c1.894,0,3.488-1.744,3.488-3.724V4.166C23.531,2.18,21.996,0.57,20.103,0.57z"></path><path fill="#ffffff" transform="translate(4.5 4.5)" d="M7.5,6.441406C8.339844,6.441406,9.046875,7.011719,9.246094,7.78125C9.496094,8.75,9.464844,9.808594,10.566406,10.359375C11.542969,10.691406,11.914062,11.109375,11.914062,12.230469C11.914062,13.125,11.148438,14.078125,10.160156,14.199219C9.054688,14.363281,8.195312,14.148438,7.5,13.75C6.804688,14.148438,5.941406,14.363281,4.839844,14.199219C3.851562,14.078125,3.085938,13.125,3.085938,12.230469C3.085938,11.132812,3.480469,10.667969,4.457031,10.351562C5.660156,9.734375,5.496094,8.660156,5.765625,7.734375C5.984375,6.988281,6.675781,6.441406,7.5,6.441406ZM13.007812,5.773438C12.710938,5.515625,11.492188,6.527344,11.109375,7.027344C10.878906,7.292969,10.734375,7.660156,10.734375,8.0625C10.734375,8.878906,11.316406,9.535156,12.03125,9.535156C12.578125,9.535156,13.042969,9.15625,13.234375,8.617188C13.609375,7.648438,13.632812,6.316406,13.007812,5.773438ZM1.992188,5.773438C1.371094,6.316406,1.390625,7.648438,1.765625,8.617188C1.957031,9.15625,2.421875,9.535156,2.96875,9.535156C3.683594,9.535156,4.265625,8.878906,4.265625,8.0625C4.265625,7.660156,4.121094,7.292969,3.890625,7.027344C3.507812,6.527344,2.289062,5.515625,1.992188,5.773438ZM9.101562,0.460938C12.125,0.976562,11.914062,6.074219,9.492188,5.664062C8.792969,5.542969,8.273438,4.90625,8.195312,4.148438C8.113281,3.375,7.933594,0.265625,9.101562,0.460938ZM5.898438,0.460938C7.066406,0.265625,6.886719,3.371094,6.804688,4.144531C6.726562,4.90625,6.207031,5.542969,5.507812,5.664062C3.085938,6.074219,2.875,0.976562,5.898438,0.460938ZM5.898438,0.460938"></path> </svg>