<?xml version="1.0" encoding="utf-8"?> <!DOCTYPE svg PUBLIC "-//W3C//DTD SVG 1.1//EN" "http://www.w3.org/Graphics/SVG/1.1/DTD/svg11.dtd"><svg version="1.1" id="marker-circle-blue" xmlns="http://www.w3.org/2000/svg" xmlns:xlink="http://www.w3.org/1999/xlink" x="0px"  y="0px" width="24px" height="36px" viewBox="0 0 24 36" enable-background="new 0 0 24 36" xml:space="preserve"><path fill="#A23337" d="M20.103,0.57H2.959c-1.893,0-3.365,0.487-3.365,2.472l-0.063,18.189c0,1.979,1.526,3.724,3.418,3.724h4.558
		l4.01,11.545l3.966-11.545h4.56c1.894,0,3.488-1.744,3.488-3.724V4.166C23.531,2.18,21.996,0.57,20.103,0.57z"></path><path fill="#ffffff" transform="translate(4.5 4.5)" d="M12.667969,7.59375C12.773438,7.464844,12.988281,7.316406,13.144531,7.265625L14.433594,6.738281C14.578125,6.664062,14.699219,6.46875,14.699219,6.304688L14.699219,2.632812C14.699219,2.464844,14.574219,2.28125,14.417969,2.222656C14.417969,2.222656,11.722656,1.199219,9.917969,1.199219C8.238281,1.199219,5.917969,2.085938,5.917969,2.085938C5.761719,2.144531,5.503906,2.210938,5.339844,2.230469L0.597656,2.738281C0.433594,2.757812,0.300781,2.910156,0.300781,3.074219L0.300781,5.570312C0.300781,5.734375,0.433594,5.894531,0.59375,5.925781L5.332031,6.691406C5.496094,6.714844,5.753906,6.789062,5.90625,6.847656L9.152344,7.679688C9.316406,7.703125,9.492188,7.851562,9.546875,8.007812L11.457031,13.515625C11.507812,13.671875,11.683594,13.757812,11.839844,13.703125L13.855469,13.027344C14.011719,12.972656,14.09375,12.804688,14.042969,12.648438L12.71875,8.828125C12.664062,8.671875,12.617188,8.535156,12.617188,8.523438L12.613281,8.511719C12.453125,7.859375,12.667969,7.59375,12.667969,7.59375ZM10.367188,5.609375C9.613281,5.609375,9.007812,5.011719,9.007812,4.269531C9.007812,3.53125,9.613281,2.929688,10.367188,2.929688C11.117188,2.929688,11.726562,3.53125,11.726562,4.269531C11.726562,5.011719,11.117188,5.609375,10.367188,5.609375ZM10.367188,5.609375"></path> </svg>