<?xml version="1.0" encoding="utf-8"?> <!DOCTYPE svg PUBLIC "-//W3C//DTD SVG 1.1//EN" "http://www.w3.org/Graphics/SVG/1.1/DTD/svg11.dtd"><svg version="1.1" id="marker-circle-blue" xmlns="http://www.w3.org/2000/svg" xmlns:xlink="http://www.w3.org/1999/xlink" x="0px"  y="0px" width="24px" height="36px" viewBox="0 0 24 36" enable-background="new 0 0 24 36" xml:space="preserve"><path fill="#EF9228" d="M20.103,0.57H2.959c-1.893,0-3.365,0.487-3.365,2.472l-0.063,18.189c0,1.979,1.526,3.724,3.418,3.724h4.558
		l4.01,11.545l3.966-11.545h4.56c1.894,0,3.488-1.744,3.488-3.724V4.166C23.531,2.18,21.996,0.57,20.103,0.57z"></path><path fill="#ffffff" transform="translate(4.5 4.5)" d="M5.894531,7.5L5.894531,4.285156L3.75,4.285156L3.75,6.429688C3.75,6.722656,3.855469,6.976562,4.0625,7.1875C4.273438,7.394531,4.527344,7.5,4.820312,7.5ZM14.464844,11.25L14.464844,12.855469L4.820312,12.855469L4.820312,11.25L5.894531,9.644531L4.820312,9.644531C3.933594,9.644531,3.175781,9.328125,2.546875,8.703125C1.921875,8.074219,1.605469,7.316406,1.605469,6.429688L1.605469,3.75L1.070312,3.214844L1.339844,2.144531L5.355469,2.144531L5.625,1.070312L13.660156,1.070312L13.929688,2.679688L13.394531,2.945312L13.394531,9.644531ZM14.464844,11.25"></path> </svg>