<?xml version="1.0" encoding="utf-8"?> <!DOCTYPE svg PUBLIC "-//W3C//DTD SVG 1.1//EN" "http://www.w3.org/Graphics/SVG/1.1/DTD/svg11.dtd"><svg version="1.1" id="marker-circle-blue" xmlns="http://www.w3.org/2000/svg" xmlns:xlink="http://www.w3.org/1999/xlink" x="0px"  y="0px" width="24px" height="36px" viewBox="0 0 24 36" enable-background="new 0 0 24 36" xml:space="preserve"><path fill="#D3D3D3" d="M20.103,0.57H2.959c-1.893,0-3.365,0.487-3.365,2.472l-0.063,18.189c0,1.979,1.526,3.724,3.418,3.724h4.558
		l4.01,11.545l3.966-11.545h4.56c1.894,0,3.488-1.744,3.488-3.724V4.166C23.531,2.18,21.996,0.57,20.103,0.57z"></path><path fill="#ffffff" transform="translate(4.5 4.5)" d="M7.9449153,13.191804L13.300384,10.269929V4.9457097l-5.3554687,1.949219zm-0.535156,-7.2421883l5.8437497,-2.125l-5.8437497,-2.125l-5.84375,2.125zm6.9648437,-2.109375v6.4296883c0,0.195312,-0.05078,0.375,-0.152344,0.542968c-0.101563,0.167969,-0.238282,0.300782,-0.410156,0.394532l-5.8906257,3.214844c-0.15625,0.08984,-0.328124,0.132812,-0.511718,0.132812c-0.183594,0,-0.355469,-0.04297,-0.511719,-0.132812L1.0074153,11.207429C0.83163425,11.113679,0.69491525,10.980866,0.59725925,10.812897C0.49569645,10.644929,0.44491525,10.465241,0.44491525,10.269929V3.8402407c0,-0.222656,0.0625,-0.425781,0.191406,-0.609375c0.128906,-0.183593,0.300782,-0.316406,0.51171905,-0.394531l5.894531,-2.14453095c0.121094,-0.042969,0.242188,-0.066407,0.367188,-0.066407c0.121094,0,0.246094,0.023438,0.367187,0.066407L13.671477,2.8363347c0.210938,0.078125,0.382813,0.210938,0.507813,0.394531c0.128906,0.183594,0.195313,0.386719,0.195313,0.609375zm0,0"></path> </svg>