<?xml version="1.0" encoding="utf-8"?> <!DOCTYPE svg PUBLIC "-//W3C//DTD SVG 1.1//EN" "http://www.w3.org/Graphics/SVG/1.1/DTD/svg11.dtd"><svg version="1.1" id="marker-circle-blue" xmlns="http://www.w3.org/2000/svg" xmlns:xlink="http://www.w3.org/1999/xlink" x="0px"  y="0px" width="24px" height="36px" viewBox="0 0 24 36" enable-background="new 0 0 24 36" xml:space="preserve"><path fill="#A23337" d="M20.103,0.57H2.959c-1.893,0-3.365,0.487-3.365,2.472l-0.063,18.189c0,1.979,1.526,3.724,3.418,3.724h4.558
		l4.01,11.545l3.966-11.545h4.56c1.894,0,3.488-1.744,3.488-3.724V4.166C23.531,2.18,21.996,0.57,20.103,0.57z"></path><path fill="#ffffff" transform="translate(4.5 4.5)" d="M9.300781,7.5C8.308594,7.5,7.5,8.304688,7.5,9.300781C7.5,10.292969,8.308594,11.101562,9.300781,11.101562C10.292969,11.101562,11.097656,10.292969,11.097656,9.300781C11.097656,8.304688,10.292969,7.5,9.300781,7.5ZM12.898438,3.898438L11.417969,0.910156C11.296875,0.554688,10.960938,0.300781,10.566406,0.300781L8.09375,0.300781C7.691406,0.300781,7.355469,0.5625,7.238281,0.921875L5.703125,3.898438L2.101562,3.898438C1.105469,3.898438,0.300781,4.707031,0.300781,5.699219L0.300781,14.699219L14.699219,14.699219L14.699219,5.699219C14.699219,4.707031,13.894531,3.898438,12.898438,3.898438ZM3,7.5C2.503906,7.5,2.101562,7.097656,2.101562,6.601562C2.101562,6.101562,2.503906,5.699219,3,5.699219C3.496094,5.699219,3.898438,6.101562,3.898438,6.601562C3.898438,7.097656,3.496094,7.5,3,7.5ZM9.300781,12.902344C7.3125,12.902344,5.699219,11.289062,5.699219,9.300781C5.699219,7.3125,7.3125,5.699219,9.300781,5.699219C11.289062,5.699219,12.898438,7.3125,12.898438,9.300781C12.898438,11.289062,11.289062,12.902344,9.300781,12.902344ZM9.300781,12.902344"></path> </svg>