<?xml version="1.0" encoding="utf-8"?> <!DOCTYPE svg PUBLIC "-//W3C//DTD SVG 1.1//EN" "http://www.w3.org/Graphics/SVG/1.1/DTD/svg11.dtd"><svg version="1.1" id="marker-circle-blue" xmlns="http://www.w3.org/2000/svg" xmlns:xlink="http://www.w3.org/1999/xlink" x="0px"  y="0px" width="24px" height="36px" viewBox="0 0 24 36" enable-background="new 0 0 24 36" xml:space="preserve"><path fill="#EF9228" d="M20.103,0.57H2.959c-1.893,0-3.365,0.487-3.365,2.472l-0.063,18.189c0,1.979,1.526,3.724,3.418,3.724h4.558
		l4.01,11.545l3.966-11.545h4.56c1.894,0,3.488-1.744,3.488-3.724V4.166C23.531,2.18,21.996,0.57,20.103,0.57z"></path><path fill="#ffffff" transform="translate(4.5 4.5)" d="M4,3C3.446,3,3,3.446,3,4s0.446,1,1,1h1.2969
	L4.6523,7H2.5c-0.554,0-1,0.446-1,1s0.446,1,1,1h1.5098L3.041,12.0098c-0.1284,0.3939,0.0868,0.8173,0.4807,0.9457
	s0.8173-0.0868,0.9457-0.4807c0.0005-0.0013,0.0009-0.0027,0.0013-0.004L5.5859,9h3.8281l1.1172,3.4707
	c0.1273,0.3943,0.5501,0.6107,0.9443,0.4834s0.6107-0.5501,0.4834-0.9443l0,0L10.9902,9H12.5c0.554,0,1-0.446,1-1s-0.446-1-1-1
	h-2.1523L9.7031,5H11c0.554,0,1-0.446,1-1s-0.446-1-1-1H4z M6.873,5H8.127l0.6445,2h-2.543L6.873,5z"></path> </svg>