<?xml version="1.0" encoding="utf-8"?> <!DOCTYPE svg PUBLIC "-//W3C//DTD SVG 1.1//EN" "http://www.w3.org/Graphics/SVG/1.1/DTD/svg11.dtd"><svg version="1.1" id="marker-circle-blue" xmlns="http://www.w3.org/2000/svg" xmlns:xlink="http://www.w3.org/1999/xlink" x="0px"  y="0px" width="24px" height="36px" viewBox="0 0 24 36" enable-background="new 0 0 24 36" xml:space="preserve"><path fill="#EF9228" d="M20.103,0.57H2.959c-1.893,0-3.365,0.487-3.365,2.472l-0.063,18.189c0,1.979,1.526,3.724,3.418,3.724h4.558
		l4.01,11.545l3.966-11.545h4.56c1.894,0,3.488-1.744,3.488-3.724V4.166C23.531,2.18,21.996,0.57,20.103,0.57z"></path><path fill="#ffffff" transform="translate(4.5 4.5)" d="M10.5,10.14c-0.6637,0.4788,-1.4732,0.7121,-2.29,0.66h-1.9V14h-1.9V5h3.92c0.7801,-0.0414,1.5484,0.2041,2.16,0.69c0.5779,0.5595,0.875,1.3483,0.81,2.15C11.4042,8.6892,11.1088,9.5388,10.5,10.14zM9,6.9C8.711,6.6881,8.3579,6.5822,8,6.6H6.31v2.65H8c0.3612,0.0191,0.717,-0.0947,1,-0.32c0.2559,-0.2675,0.3867,-0.6308,0.36,-1C9.4072,7.5493,9.274,7.1684,9,6.9zM14.41,4.21c0.114,-0.2486,0.007,-0.5427,-0.24,-0.66L7.5,0.45l-6.71,3.1C0.5387,3.666,0.429,3.9637,0.545,4.215C0.661,4.4663,0.9587,4.576,1.21,4.46l0,0L7.5,1.55l6.29,2.9c0.2486,0.114,0.5427,0.007,0.66,-0.24H14.41z"></path> </svg>