<?xml version="1.0" encoding="utf-8"?> <!DOCTYPE svg PUBLIC "-//W3C//DTD SVG 1.1//EN" "http://www.w3.org/Graphics/SVG/1.1/DTD/svg11.dtd"><svg version="1.1" id="marker-circle-blue" xmlns="http://www.w3.org/2000/svg" xmlns:xlink="http://www.w3.org/1999/xlink" x="0px"  y="0px" width="24px" height="36px" viewBox="0 0 24 36" enable-background="new 0 0 24 36" xml:space="preserve"><path fill="#A23337" d="M20.103,0.57H2.959c-1.893,0-3.365,0.487-3.365,2.472l-0.063,18.189c0,1.979,1.526,3.724,3.418,3.724h4.558
		l4.01,11.545l3.966-11.545h4.56c1.894,0,3.488-1.744,3.488-3.724V4.166C23.531,2.18,21.996,0.57,20.103,0.57z"></path><path fill="#ffffff" transform="translate(4.5 4.5)" d="M13.1,12.5c-0.6,0.3,-1.4,0.1,-1.8,-0.5l-1.1,-1.4H4.8L3.7,12l0,0c-0.5,0.7,-1.4,0.8,-2.1,0.3c-0.5,-0.4,-0.7,-1,-0.6,-1.5l0.7,-3.7l0,0C1.9,5.9,3,5,4.2,5v0H7V3.5C7,2.7,7.6,2,8.4,2h3.1C11.8,2,12,2.2,12,2.5S11.8,3,11.5,3h-3C8.2,3,8,3.2,8,3.4c0,0,0,0.1,0,0.1V5h2.8v0c1.2,0,2.3,0.9,2.5,2.1l0,0l0.7,3.7l0,0C14.1,11.5,13.8,12.2,13.1,12.5zM6,7.5C6,6.7,5.3,6,4.5,6S3,6.7,3,7.5S3.7,9,4.5,9S6,8.3,6,7.5zM12,7.5C12,7.2,11.8,7,11.5,7H11V6.5C11,6.2,10.8,6,10.5,6S10,6.2,10,6.5V7H9.5C9.2,7,9,7.2,9,7.5S9.2,8,9.5,8H10v0.5C10,8.8,10.2,9,10.5,9S11,8.8,11,8.5V8h0.5C11.8,8,12,7.8,12,7.5z"></path> </svg>