<?xml version="1.0" encoding="utf-8"?> <!DOCTYPE svg PUBLIC "-//W3C//DTD SVG 1.1//EN" "http://www.w3.org/Graphics/SVG/1.1/DTD/svg11.dtd"><svg version="1.1" id="marker-circle-blue" xmlns="http://www.w3.org/2000/svg" xmlns:xlink="http://www.w3.org/1999/xlink" x="0px"  y="0px" width="24px" height="36px" viewBox="0 0 24 36" enable-background="new 0 0 24 36" xml:space="preserve"><path fill="#A23337" d="M20.103,0.57H2.959c-1.893,0-3.365,0.487-3.365,2.472l-0.063,18.189c0,1.979,1.526,3.724,3.418,3.724h4.558
		l4.01,11.545l3.966-11.545h4.56c1.894,0,3.488-1.744,3.488-3.724V4.166C23.531,2.18,21.996,0.57,20.103,0.57z"></path><path fill="#ffffff" transform="translate(4.5 4.5)" d="M7.5,4.285156L4.285156,4.285156L4.285156,7.5L7.5,7.5ZM8.570312,9.644531L8.570312,10.714844L3.214844,10.714844L3.214844,9.644531ZM8.570312,3.214844L8.570312,8.570312L3.214844,8.570312L3.214844,3.214844ZM13.929688,9.644531L13.929688,10.714844L9.644531,10.714844L9.644531,9.644531ZM13.929688,7.5L13.929688,8.570312L9.644531,8.570312L9.644531,7.5ZM13.929688,5.355469L13.929688,6.429688L9.644531,6.429688L9.644531,5.355469ZM13.929688,3.214844L13.929688,4.285156L9.644531,4.285156L9.644531,3.214844ZM1.070312,11.25L1.070312,3.214844L0,3.214844L0,11.25C0,11.394531,0.0546875,11.519531,0.160156,11.625C0.265625,11.734375,0.390625,11.785156,0.535156,11.785156C0.679688,11.785156,0.804688,11.734375,0.914062,11.625C1.019531,11.519531,1.070312,11.394531,1.070312,11.25ZM15,11.25L15,2.144531L2.144531,2.144531L2.144531,11.25C2.144531,11.433594,2.113281,11.613281,2.050781,11.785156L14.464844,11.785156C14.609375,11.785156,14.734375,11.734375,14.839844,11.625C14.945312,11.519531,15,11.394531,15,11.25ZM16.070312,1.070312L16.070312,11.25C16.070312,11.695312,15.914062,12.074219,15.601562,12.386719C15.289062,12.699219,14.910156,12.855469,14.464844,12.855469L0.535156,12.855469C0.0898438,12.855469,-0.289062,12.699219,-0.601562,12.386719C-0.914062,12.074219,-1.070312,11.695312,-1.070312,11.25L-1.070312,2.144531L1.070312,2.144531L1.070312,1.070312ZM16.070312,1.070312"></path> </svg>