<?xml version="1.0" encoding="utf-8"?> <!DOCTYPE svg PUBLIC "-//W3C//DTD SVG 1.1//EN" "http://www.w3.org/Graphics/SVG/1.1/DTD/svg11.dtd"><svg version="1.1" id="marker-circle-blue" xmlns="http://www.w3.org/2000/svg" xmlns:xlink="http://www.w3.org/1999/xlink" x="0px"  y="0px" width="24px" height="36px" viewBox="0 0 24 36" enable-background="new 0 0 24 36" xml:space="preserve"><path fill="#5B396C" d="M20.103,0.57H2.959c-1.893,0-3.365,0.487-3.365,2.472l-0.063,18.189c0,1.979,1.526,3.724,3.418,3.724h4.558
		l4.01,11.545l3.966-11.545h4.56c1.894,0,3.488-1.744,3.488-3.724V4.166C23.531,2.18,21.996,0.57,20.103,0.57z"></path><path fill="#ffffff" transform="translate(4.5 4.5)" d="M 7.523438 2.265625 C 8.054688 2.265625 8.484375 1.839844 8.484375 1.308594 C 8.484375 0.78125 8.054688 0.351562 7.523438 0.351562 C 6.992188 0.351562 6.5625 0.78125 6.5625 1.308594 C 6.5625 1.839844 6.992188 2.265625 7.523438 2.265625 Z M 13.550781 13.25 C 13.285156 13.125 12.984375 13.054688 12.671875 13.054688 C 12.363281 13.054688 12.066406 13.125 11.796875 13.25 C 11.542969 13.363281 11.253906 13.429688 10.953125 13.429688 C 10.648438 13.429688 10.359375 13.363281 10.101562 13.25 C 9.835938 13.125 9.539062 13.054688 9.226562 13.054688 C 8.914062 13.054688 8.613281 13.125 8.347656 13.25 C 8.089844 13.363281 7.800781 13.429688 7.5 13.429688 C 7.195312 13.429688 6.910156 13.363281 6.648438 13.25 C 6.382812 13.125 6.085938 13.054688 5.773438 13.054688 C 5.464844 13.054688 5.164062 13.125 4.898438 13.25 C 4.640625 13.363281 4.351562 13.429688 4.050781 13.429688 C 3.75 13.429688 3.457031 13.363281 3.203125 13.25 C 2.9375 13.125 2.636719 13.054688 2.328125 13.054688 C 2.015625 13.054688 1.714844 13.125 1.449219 13.25 C 1.191406 13.363281 0.902344 13.429688 0.601562 13.429688 L 0.601562 14.699219 C 0.902344 14.699219 1.191406 14.636719 1.449219 14.519531 C 1.714844 14.394531 2.015625 14.324219 2.328125 14.324219 C 2.636719 14.324219 2.9375 14.394531 3.203125 14.519531 C 3.457031 14.636719 3.75 14.699219 4.050781 14.699219 C 4.351562 14.699219 4.640625 14.636719 4.898438 14.519531 C 5.164062 14.394531 5.464844 14.324219 5.773438 14.324219 C 6.085938 14.324219 6.382812 14.394531 6.648438 14.519531 C 6.910156 14.636719 7.195312 14.699219 7.5 14.699219 C 7.800781 14.699219 8.089844 14.636719 8.347656 14.519531 C 8.613281 14.394531 8.914062 14.324219 9.226562 14.324219 C 9.539062 14.324219 9.835938 14.394531 10.101562 14.519531 C 10.359375 14.636719 10.648438 14.699219 10.953125 14.699219 C 11.253906 14.699219 11.542969 14.636719 11.796875 14.519531 C 12.066406 14.394531 12.363281 14.324219 12.671875 14.324219 C 12.984375 14.324219 13.285156 14.394531 13.550781 14.519531 C 13.808594 14.636719 14.097656 14.699219 14.398438 14.699219 L 14.398438 13.429688 C 14.097656 13.429688 13.808594 13.363281 13.550781 13.25 Z M 13.628906 0.3125 C 13.558594 0.285156 13.453125 0.300781 13.398438 0.355469 L 9.882812 3.894531 C 9.828125 3.867188 9.757812 3.898438 9.691406 3.898438 L 8.363281 3.898438 C 8.136719 3.601562 6.9375 2.429688 6.9375 2.429688 C 6.875 2.367188 6.796875 2.308594 6.714844 2.289062 C 6.441406 2.050781 6.027344 2.042969 5.761719 2.304688 L 3.707031 4.367188 C 3.628906 4.445312 3.601562 4.546875 3.601562 4.664062 L 3.601562 6 L 0.601562 6 L 0.601562 6.601562 L 3.601562 6.601562 L 3.601562 10.058594 C 3.601562 10.484375 3.921875 10.832031 4.347656 10.832031 C 4.773438 10.832031 5.101562 10.484375 5.101562 10.058594 L 5.101562 6.601562 L 7.199219 6.601562 L 7.199219 11.101562 L 0.601562 11.101562 L 0.601562 12 L 7.800781 12 L 7.800781 6.601562 L 8.699219 6.601562 L 8.699219 6 L 5.101562 6 L 5.101562 5.753906 L 7.042969 3.824219 L 7.835938 4.636719 C 7.921875 4.726562 8.042969 4.800781 8.171875 4.800781 L 9.691406 4.800781 C 9.953125 4.800781 10.199219 4.761719 10.199219 4.5 C 10.199219 4.4375 10.21875 4.253906 10.199219 4.199219 C 11.03125 3.371094 13.199219 1.335938 13.5 0.921875 L 13.5 12 L 13.800781 12 L 13.800781 0.484375 C 13.800781 0.410156 13.695312 0.34375 13.628906 0.3125 Z M 13.628906 0.3125 "></path> </svg>