<?xml version="1.0" encoding="utf-8"?> <!DOCTYPE svg PUBLIC "-//W3C//DTD SVG 1.1//EN" "http://www.w3.org/Graphics/SVG/1.1/DTD/svg11.dtd"><svg version="1.1" id="marker-circle-blue" xmlns="http://www.w3.org/2000/svg" xmlns:xlink="http://www.w3.org/1999/xlink" x="0px"  y="0px" width="24px" height="36px" viewBox="0 0 24 36" enable-background="new 0 0 24 36" xml:space="preserve"><path fill="#D3D3D3" d="M20.103,0.57H2.959c-1.893,0-3.365,0.487-3.365,2.472l-0.063,18.189c0,1.979,1.526,3.724,3.418,3.724h4.558
		l4.01,11.545l3.966-11.545h4.56c1.894,0,3.488-1.744,3.488-3.724V4.166C23.531,2.18,21.996,0.57,20.103,0.57z"></path><path fill="#ffffff" transform="translate(4.5 4.5)" d="m7.4469797,0.70012754c-2.6523295,0,-4.9157495,2.03036806,-4.9157495,4.60359296h2.8675205c0,-0.9641607,0.8544596,-1.8014059,2.048229,-1.8014059c1.1937692,0,2.0482288,0.8372452,2.0482288,1.8014059c0,0.6004687,-0.095277,0.7818931,-0.8456944,1.1485528C7.3647662,7.0800112,6.3075482,7.93128,6.0412224,9.232568C5.8912756,9.9652196,5.8145199,10.585345,5.8540015,11.188001h2.8627199v-0.126662l-0.0032,-0.04613C8.7002774,10.82109,8.7306074,10.378165,8.8527371,9.7814337C8.8595071,9.7483477,9.031228,9.3986785,9.9312576,8.9589165C11.365613,8.2580767,12.362725,6.838251,12.362725,5.3037201c0,-2.5732248,-2.26342,-4.60359291,-4.9157501,-4.60359291zM5.8492009,11.108251v0.07975h0.00242zm0,1.280687v2.802187h2.8675205v-2.802187z"></path> </svg>