<?xml version="1.0" encoding="utf-8"?> <!DOCTYPE svg PUBLIC "-//W3C//DTD SVG 1.1//EN" "http://www.w3.org/Graphics/SVG/1.1/DTD/svg11.dtd"><svg version="1.1" id="marker-circle-blue" xmlns="http://www.w3.org/2000/svg" xmlns:xlink="http://www.w3.org/1999/xlink" x="0px"  y="0px" width="24px" height="36px" viewBox="0 0 24 36" enable-background="new 0 0 24 36" xml:space="preserve"><path fill="#A23337" d="M20.103,0.57H2.959c-1.893,0-3.365,0.487-3.365,2.472l-0.063,18.189c0,1.979,1.526,3.724,3.418,3.724h4.558
		l4.01,11.545l3.966-11.545h4.56c1.894,0,3.488-1.744,3.488-3.724V4.166C23.531,2.18,21.996,0.57,20.103,0.57z"></path><path fill="#ffffff" transform="translate(4.5 4.5)" d="m3.460452,4.8358051h8.174435v4.904661H3.460452Zm10.218044,2.4523305c0,0.6772009,0.548964,1.2261653,1.226165,1.2261653v2.4523311c0,0.6772,-0.548964,1.226165,-1.226165,1.226165H1.4168433c-0.67720093,0,-1.22616533,-0.548965,-1.22616533,-1.226165V8.5143009c0.67720086,0,1.22616533,-0.5489644,1.22616533,-1.2261653c0,-0.6772009,-0.54896447,-1.2261652,-1.22616533,-1.2261652V3.6096399c0,-0.6772009,0.5489644,-1.2261653,1.22616533,-1.2261653H13.678496c0.677201,0,1.226165,0.5489644,1.226165,1.2261653v2.4523305c-0.677201,0,-1.226165,0.5489643,-1.226165,1.2261652zM12.452331,4.6314442c0,-0.3386004,-0.274483,-0.6130826,-0.613083,-0.6130826H3.2560911c-0.3386004,0,-0.6130826,0.2744822,-0.6130826,0.6130826V9.944827c0,0.3386,0.2744822,0.613083,0.6130826,0.613083h8.5831569c0.3386,0,0.613083,-0.274483,0.613083,-0.613083z"></path> </svg>