<?xml version="1.0" encoding="utf-8"?> <!DOCTYPE svg PUBLIC "-//W3C//DTD SVG 1.1//EN" "http://www.w3.org/Graphics/SVG/1.1/DTD/svg11.dtd"><svg version="1.1" id="marker-circle-blue" xmlns="http://www.w3.org/2000/svg" xmlns:xlink="http://www.w3.org/1999/xlink" x="0px"  y="0px" width="24px" height="36px" viewBox="0 0 24 36" enable-background="new 0 0 24 36" xml:space="preserve"><path fill="#A23337" d="M20.103,0.57H2.959c-1.893,0-3.365,0.487-3.365,2.472l-0.063,18.189c0,1.979,1.526,3.724,3.418,3.724h4.558
		l4.01,11.545l3.966-11.545h4.56c1.894,0,3.488-1.744,3.488-3.724V4.166C23.531,2.18,21.996,0.57,20.103,0.57z"></path><path fill="#ffffff" transform="translate(4.5 4.5)" d="m13.515914,13c0,-12,0.02345,-10.0477231,0.02345,-12c0,-1,-0.0469,-1,-1.539364,-1l0,13.038526C12.048052,14.003111,12.000001,14,12.718594,14c0.765494,0,0.79732,0,0.79732,-1zM2.5075377,11.624791c1.9893914,0.633166,3.1278615,0.633166,5.0938024,-0.07035L7,4C5,4.281407,5,4.3048576,3,4ZM4.319933,0L5.718593,0L6.2730319,3c-1,0.3048576,-1.5544389,0.3048576,-2.5544389,0zm-2.2964824,14l0.2345058,-1l5.4991626,0l0.2579562,1zm7.4606365,-14l1.9597989,0l0,0.6097152l-1.9597989,0zm0,1l1.9597989,0l0,0.6097152l-1.9597989,0zm0,1l1.9597989,0l0,0.6097152l-1.9597989,0zm0,1l1.9597989,0l0,0.6097152l-1.9597989,0zm0,1l1.9597989,0l0,0.6097152l-1.9597989,0z"></path> </svg>