<?xml version="1.0" encoding="utf-8"?> <!DOCTYPE svg PUBLIC "-//W3C//DTD SVG 1.1//EN" "http://www.w3.org/Graphics/SVG/1.1/DTD/svg11.dtd"><svg version="1.1" id="marker-circle-blue" xmlns="http://www.w3.org/2000/svg" xmlns:xlink="http://www.w3.org/1999/xlink" x="0px"  y="0px" width="24px" height="36px" viewBox="0 0 24 36" enable-background="new 0 0 24 36" xml:space="preserve"><path fill="#EF9228" d="M20.103,0.57H2.959c-1.893,0-3.365,0.487-3.365,2.472l-0.063,18.189c0,1.979,1.526,3.724,3.418,3.724h4.558
		l4.01,11.545l3.966-11.545h4.56c1.894,0,3.488-1.744,3.488-3.724V4.166C23.531,2.18,21.996,0.57,20.103,0.57z"></path><path fill="#ffffff" transform="translate(4.5 4.5)" d="M0.47457628,0.22881357V1.25V2.2711864A2.0423663,2.0423671,0,0,0,2.5169492,4.3135593A2.0423663,2.0423671,0,0,0,4.5593221,2.2711864H5.5805085A2.0423663,2.0423671,0,0,0,7.6228814,4.3135593A2.0423663,2.0423671,0,0,0,9.6652543,2.2711864H10.68644a2.0423663,2.0423671,0,0,0,2.042373,2.0423729a2.0423663,2.0423671,0,0,0,2.042373,-2.0423729V1.25V0.22881357h-2.042373z"></path> <path fill="#ffffff" transform="translate(4.5 4.5)" d="m0.47457628,5.3347457v4.0847458v2.0423735v3.063559H2.5169492V11.461865H12.728813v3.063559h2.042373V11.461865V9.4194915V5.3347457H12.728813V9.4194915H2.5169492V5.3347457Z"></path> </svg>