<?xml version="1.0" encoding="utf-8"?> <!DOCTYPE svg PUBLIC "-//W3C//DTD SVG 1.1//EN" "http://www.w3.org/Graphics/SVG/1.1/DTD/svg11.dtd"><svg version="1.1" id="marker-circle-blue" xmlns="http://www.w3.org/2000/svg" xmlns:xlink="http://www.w3.org/1999/xlink" x="0px"  y="0px" width="24px" height="36px" viewBox="0 0 24 36" enable-background="new 0 0 24 36" xml:space="preserve"><path fill="#A23337" d="M20.103,0.57H2.959c-1.893,0-3.365,0.487-3.365,2.472l-0.063,18.189c0,1.979,1.526,3.724,3.418,3.724h4.558
		l4.01,11.545l3.966-11.545h4.56c1.894,0,3.488-1.744,3.488-3.724V4.166C23.531,2.18,21.996,0.57,20.103,0.57z"></path><path fill="#ffffff" transform="translate(4.5 4.5)" d="M 13.949219 3.300781 L 1.054688 3.300781 C 0.640625 3.300781 0.300781 3.675781 0.300781 4.050781 C 0.300781 4.421875 0.640625 4.800781 1.054688 4.800781 L 1.238281 4.800781 L 1.238281 6.300781 L 13.785156 6.300781 L 13.785156 4.800781 L 13.949219 4.800781 C 14.363281 4.800781 14.703125 4.421875 14.703125 4.050781 C 14.703125 3.675781 14.363281 3.300781 13.949219 3.300781 Z M 7.503906 5.554688 C 7.292969 5.554688 7.125 5.382812 7.125 5.167969 C 7.125 4.953125 7.292969 4.78125 7.503906 4.78125 C 7.710938 4.78125 7.878906 4.953125 7.878906 5.167969 C 7.878906 5.382812 7.710938 5.554688 7.503906 5.554688 Z M 1.238281 9.300781 L 13.785156 9.300781 L 13.785156 6.898438 L 1.238281 6.898438 Z M 7.503906 7.6875 C 7.710938 7.6875 7.878906 7.859375 7.878906 8.074219 C 7.878906 8.289062 7.710938 8.460938 7.503906 8.460938 C 7.292969 8.460938 7.125 8.289062 7.125 8.074219 C 7.125 7.859375 7.292969 7.6875 7.503906 7.6875 Z M 1.238281 11.367188 L 1.238281 13.113281 C 1.238281 13.324219 1.265625 13.5 1.472656 13.5 L 2.980469 13.5 C 3.1875 13.5 3.28125 13.324219 3.28125 13.113281 L 3.28125 12 L 11.742188 12 L 11.742188 13.113281 C 11.742188 13.324219 11.816406 13.5 12.023438 13.5 L 13.53125 13.5 C 13.738281 13.5 13.785156 13.324219 13.785156 13.113281 L 13.785156 9.898438 L 1.238281 9.898438 Z M 7.503906 10.59375 C 7.710938 10.59375 7.878906 10.765625 7.878906 10.980469 C 7.878906 11.195312 7.710938 11.367188 7.503906 11.367188 C 7.292969 11.367188 7.125 11.195312 7.125 10.980469 C 7.125 10.769531 7.292969 10.59375 7.503906 10.59375 Z M 7.503906 10.59375 "></path> </svg>