<?xml version="1.0" encoding="utf-8"?> <!DOCTYPE svg PUBLIC "-//W3C//DTD SVG 1.1//EN" "http://www.w3.org/Graphics/SVG/1.1/DTD/svg11.dtd"><svg version="1.1" id="marker-circle-blue" xmlns="http://www.w3.org/2000/svg" xmlns:xlink="http://www.w3.org/1999/xlink" x="0px"  y="0px" width="24px" height="36px" viewBox="0 0 24 36" enable-background="new 0 0 24 36" xml:space="preserve"><path fill="#EF9228" d="M20.103,0.57H2.959c-1.893,0-3.365,0.487-3.365,2.472l-0.063,18.189c0,1.979,1.526,3.724,3.418,3.724h4.558
		l4.01,11.545l3.966-11.545h4.56c1.894,0,3.488-1.744,3.488-3.724V4.166C23.531,2.18,21.996,0.57,20.103,0.57z"></path><path fill="#ffffff" transform="translate(4.5 4.5)" d="M 2.945312 9.105469 C 2.945312 8.738281 2.816406 8.421875 2.554688 8.160156 C 2.289062 7.898438 1.976562 7.769531 1.605469 7.769531 C 1.238281 7.769531 0.921875 7.898438 0.660156 8.160156 C 0.398438 8.421875 0.269531 8.738281 0.269531 9.105469 C 0.269531 9.476562 0.398438 9.789062 0.660156 10.054688 C 0.921875 10.316406 1.238281 10.445312 1.605469 10.445312 C 1.976562 10.445312 2.289062 10.316406 2.554688 10.054688 C 2.816406 9.789062 2.945312 9.476562 2.945312 9.105469 Z M 3.246094 6.429688 L 11.753906 6.429688 L 11.007812 3.441406 C 10.996094 3.394531 10.957031 3.347656 10.890625 3.292969 C 10.824219 3.242188 10.765625 3.214844 10.714844 3.214844 L 4.285156 3.214844 C 4.234375 3.214844 4.175781 3.242188 4.109375 3.292969 C 4.042969 3.347656 4.003906 3.394531 3.992188 3.441406 Z M 14.730469 9.105469 C 14.730469 8.738281 14.601562 8.421875 14.339844 8.160156 C 14.078125 7.898438 13.761719 7.769531 13.394531 7.769531 C 13.023438 7.769531 12.710938 7.898438 12.445312 8.160156 C 12.183594 8.421875 12.054688 8.738281 12.054688 9.105469 C 12.054688 9.476562 12.183594 9.789062 12.445312 10.054688 C 12.710938 10.316406 13.023438 10.445312 13.394531 10.445312 C 13.761719 10.445312 14.078125 10.316406 14.339844 10.054688 C 14.601562 9.789062 14.730469 9.476562 14.730469 9.105469 Z M 16.070312 8.304688 L 16.070312 11.519531 C 16.070312 11.597656 16.046875 11.660156 15.996094 11.710938 C 15.945312 11.761719 15.882812 11.785156 15.804688 11.785156 L 15 11.785156 L 15 12.855469 C 15 13.304688 14.84375 13.683594 14.53125 13.996094 C 14.21875 14.308594 13.839844 14.464844 13.394531 14.464844 C 12.945312 14.464844 12.566406 14.308594 12.253906 13.996094 C 11.941406 13.683594 11.785156 13.304688 11.785156 12.855469 L 11.785156 11.785156 L 3.214844 11.785156 L 3.214844 12.855469 C 3.214844 13.304688 3.058594 13.683594 2.746094 13.996094 C 2.433594 14.308594 2.054688 14.464844 1.605469 14.464844 C 1.160156 14.464844 0.78125 14.308594 0.46875 13.996094 C 0.15625 13.683594 0 13.304688 0 12.855469 L 0 11.785156 L -0.804688 11.785156 C -0.882812 11.785156 -0.945312 11.761719 -0.996094 11.710938 C -1.046875 11.660156 -1.070312 11.597656 -1.070312 11.519531 L -1.070312 8.304688 C -1.070312 7.785156 -0.886719 7.34375 -0.523438 6.976562 C -0.15625 6.609375 0.285156 6.429688 0.804688 6.429688 L 1.039062 6.429688 L 1.917969 2.921875 C 2.046875 2.398438 2.335938 1.957031 2.789062 1.601562 C 3.238281 1.25 3.738281 1.070312 4.285156 1.070312 L 10.714844 1.070312 C 11.261719 1.070312 11.761719 1.25 12.210938 1.601562 C 12.664062 1.957031 12.953125 2.398438 13.082031 2.921875 L 13.960938 6.429688 L 14.195312 6.429688 C 14.714844 6.429688 15.15625 6.609375 15.523438 6.976562 C 15.886719 7.34375 16.070312 7.785156 16.070312 8.304688 Z M 16.070312 8.304688 "></path> </svg>