<?xml version="1.0" encoding="utf-8"?> <!DOCTYPE svg PUBLIC "-//W3C//DTD SVG 1.1//EN" "http://www.w3.org/Graphics/SVG/1.1/DTD/svg11.dtd"><svg version="1.1" id="marker-circle-blue" xmlns="http://www.w3.org/2000/svg" xmlns:xlink="http://www.w3.org/1999/xlink" x="0px"  y="0px" width="24px" height="36px" viewBox="0 0 24 36" enable-background="new 0 0 24 36" xml:space="preserve"><path fill="#A23337" d="M20.103,0.57H2.959c-1.893,0-3.365,0.487-3.365,2.472l-0.063,18.189c0,1.979,1.526,3.724,3.418,3.724h4.558
		l4.01,11.545l3.966-11.545h4.56c1.894,0,3.488-1.744,3.488-3.724V4.166C23.531,2.18,21.996,0.57,20.103,0.57z"></path><path fill="#ffffff" transform="translate(4.5 4.5)" d="M6.429688,2.308594L5.699219,3.300781L3.996094,3.300781C4.207031,3.898438,4.894531,4.464844,5.855469,4.277344C6.140625,4.257812,7.101562,4.105469,7.5,4.199219C8.03125,4.328125,7.808594,4.328125,8.761719,5.089844L13.5,9C13.789062,9.257812,14.160156,9.152344,14.417969,8.863281C14.675781,8.570312,14.691406,8.054688,14.398438,7.800781L8.398438,3C8.023438,2.699219,7.929688,2.28125,7.800781,1.800781C7.546875,0.972656,6.621094,0.308594,5.710938,0.308594C4.980469,0.308594,4.191406,0.945312,3.898438,1.5L5.699219,1.5ZM10.546875,9.601562L8.691406,6.382812C8.617188,6.246094,8.433594,6,8.28125,6L3.117188,6C2.964844,6,2.78125,6.246094,2.707031,6.382812L0.898438,9.601562L0.855469,9.601562C0.550781,9.601562,0.300781,9.710938,0.300781,10.015625L0.300781,12.785156C0.300781,13.089844,0.550781,13.199219,0.855469,13.199219L1.5,13.199219L1.5,14.167969C1.5,14.625,1.78125,15,2.238281,15L2.515625,15C2.972656,15,3.300781,14.625,3.300781,14.167969L3.300781,13.199219L8.101562,13.199219L8.101562,14.167969C8.101562,14.625,8.425781,15,8.882812,15L9.160156,15C9.617188,15,9.898438,14.625,9.898438,14.167969L9.898438,13.199219L10.546875,13.199219C10.851562,13.199219,11.101562,13.089844,11.101562,12.785156L11.101562,10.015625C11.101562,9.710938,10.851562,9.601562,10.546875,9.601562ZM1.824219,11.675781C1.441406,11.675781,1.128906,11.367188,1.128906,10.984375C1.128906,10.601562,1.441406,10.292969,1.824219,10.292969C2.207031,10.292969,2.515625,10.601562,2.515625,10.984375C2.515625,11.367188,2.207031,11.675781,1.824219,11.675781ZM2.375,9.601562L3.5,7.25C3.566406,7.117188,3.746094,6.898438,3.898438,6.898438L7.5,6.898438C7.652344,6.898438,7.832031,7.117188,7.902344,7.25L9.023438,9.601562ZM9.578125,11.675781C9.195312,11.675781,8.882812,11.367188,8.882812,10.984375C8.882812,10.601562,9.195312,10.292969,9.578125,10.292969C9.960938,10.292969,10.269531,10.601562,10.269531,10.984375C10.269531,11.367188,9.960938,11.675781,9.578125,11.675781ZM9.578125,11.675781"></path> </svg>