<?xml version="1.0" encoding="utf-8"?> <!DOCTYPE svg PUBLIC "-//W3C//DTD SVG 1.1//EN" "http://www.w3.org/Graphics/SVG/1.1/DTD/svg11.dtd"><svg version="1.1" id="marker-circle-blue" xmlns="http://www.w3.org/2000/svg" xmlns:xlink="http://www.w3.org/1999/xlink" x="0px"  y="0px" width="24px" height="36px" viewBox="0 0 24 36" enable-background="new 0 0 24 36" xml:space="preserve"><path fill="#EF9228" d="M20.103,0.57H2.959c-1.893,0-3.365,0.487-3.365,2.472l-0.063,18.189c0,1.979,1.526,3.724,3.418,3.724h4.558
		l4.01,11.545l3.966-11.545h4.56c1.894,0,3.488-1.744,3.488-3.724V4.166C23.531,2.18,21.996,0.57,20.103,0.57z"></path><path fill="#ffffff" transform="translate(4.5 4.5)" d="M3.75,8.333v2.143c0,0.404,-0.329,0.733,-0.732,0.733H2.4c-0.403,0,-0.732,-0.329,-0.732,-0.733V7.875H0.734c-0.404,0,-0.733,-0.329,-0.733,-0.733V6.526c0,-0.405,0.33,-0.734,0.733,-0.734h13.533C14.67,5.792,15,6.121,15,6.526v0.615c0,0.404,-0.33,0.733,-0.732,0.733h-0.934v2.601c0,0.404,-0.33,0.733,-0.732,0.733h-0.617c-0.403,0,-0.733,-0.329,-0.733,-0.733V8.333c0,-0.251,-0.205,-0.458,-0.458,-0.458H4.21C3.956,7.875,3.75,8.081,3.75,8.333z"></path> </svg>