<?xml version="1.0" encoding="utf-8"?> <!DOCTYPE svg PUBLIC "-//W3C//DTD SVG 1.1//EN" "http://www.w3.org/Graphics/SVG/1.1/DTD/svg11.dtd"><svg version="1.1" id="marker-circle-blue" xmlns="http://www.w3.org/2000/svg" xmlns:xlink="http://www.w3.org/1999/xlink" x="0px"  y="0px" width="24px" height="36px" viewBox="0 0 24 36" enable-background="new 0 0 24 36" xml:space="preserve"><path fill="#A23337" d="M20.103,0.57H2.959c-1.893,0-3.365,0.487-3.365,2.472l-0.063,18.189c0,1.979,1.526,3.724,3.418,3.724h4.558
		l4.01,11.545l3.966-11.545h4.56c1.894,0,3.488-1.744,3.488-3.724V4.166C23.531,2.18,21.996,0.57,20.103,0.57z"></path><path fill="#ffffff" transform="translate(4.5 4.5)" d="M0.80527391,2.9396186C0.80527391,2.9396186,0,5.3554403,0,8.576536h5.905342c0.5368493,0,1.402668,1.0736985,1.3958081,1.0736985H15.03178c0,-3.2210956,-3.221096,-3.4895203,-4.294795,-3.4895203H8.5895884C7.5158898,4.0133171,5.3684927,2.9396186,5.3684927,2.9396186H5.1000681c-0.8052739,1.6195798,-2.934985,1.6195798,-4.0263696,0zM5.905342,4.0133171c0.2964933,0,0.5368493,0.2403557,0.5368493,0.5368493c0,0.2964936,-0.240356,0.5368493,-0.5368493,0.5368493c-0.2964933,0,-0.5368493,-0.2403557,-0.5368493,-0.5368493c0,-0.2964936,0.240356,-0.5368493,0.5368493,-0.5368493zm1.0736986,1.0736986c0.2964932,0,0.5368492,0.2403557,0.5368492,0.5368493c0,0.2964936,-0.240356,0.5368492,-0.5368492,0.5368492c-0.2964933,0,-0.5368493,-0.2403556,-0.5368493,-0.5368492c0,-0.2964936,0.240356,-0.5368493,0.5368493,-0.5368493zM0,9.3818099V11.529207H5.6369174V9.3818099Zm7.8379994,1.0736991c0,0,0.751589,1.073698,1.2884383,1.073698H15.03178v-1.073698z"></path> </svg>