<?xml version="1.0" encoding="utf-8"?> <!DOCTYPE svg PUBLIC "-//W3C//DTD SVG 1.1//EN" "http://www.w3.org/Graphics/SVG/1.1/DTD/svg11.dtd"><svg version="1.1" id="marker-circle-blue" xmlns="http://www.w3.org/2000/svg" xmlns:xlink="http://www.w3.org/1999/xlink" x="0px"  y="0px" width="24px" height="36px" viewBox="0 0 24 36" enable-background="new 0 0 24 36" xml:space="preserve"><path fill="#5B396C" d="M20.103,0.57H2.959c-1.893,0-3.365,0.487-3.365,2.472l-0.063,18.189c0,1.979,1.526,3.724,3.418,3.724h4.558
		l4.01,11.545l3.966-11.545h4.56c1.894,0,3.488-1.744,3.488-3.724V4.166C23.531,2.18,21.996,0.57,20.103,0.57z"></path><path fill="#ffffff" transform="translate(4.5 4.5)" d="M14.931432,6.9051202L13.768895,2.2470269C13.617394,1.639483,13.215441,1.1178155,12.6666,0.81635061C12.116991,0.51565481,11.462535,0.45464411,10.867296,0.65408261l-0.39093,0.1302246C10.26129,0.85582821,10.145165,1.0883355,10.216942,1.3031548l0.129712,0.3891358c0.07152,0.2148193,0.303772,0.3309448,0.518591,0.2594238l0.337867,-0.1125366c0.27865,-0.092798,0.589599,-0.091516,0.850048,0.044348c0.263782,0.1376587,0.450403,0.3732422,0.522181,0.6618897l0.985913,3.9431396c-0.568836,-0.1745726,-1.276355,-0.319409,-2.081543,-0.319409c-0.891321,0,-1.8964605,0.179956,-2.9441534,0.6854736H6.6596055c-1.0476929,-0.5060303,-2.0528321,-0.68573,-2.9444092,-0.68573c-0.8054443,0,-1.5129639,0.1448364,-2.0817993,0.3194092L2.6193101,2.5449029C2.6908311,2.2565118,2.8779648,2.0206719,3.1417466,1.8832696C3.4021958,1.7474053,3.7128892,1.7461236,3.9915391,1.8389214L4.3291489,1.9514581C4.5439683,2.0229791,4.7762192,1.9068536,4.8477402,1.6920342L4.9774522,1.3028985C5.0492295,1.0880792,4.933104,0.85557181,4.7180283,0.78405081L4.3270981,0.65382621C3.7318589,0.45438776,3.0774033,0.51514211,2.5277939,0.81609431C1.9789536,1.1178155,1.5770005,1.6392266,1.425499,2.2465142L0.26321876,6.9051202A1.6462134,1.6462134,0,0,0,0.21451271,7.3022027V9.103045c0,1.612427,1.32224119,2.919544,2.95312499,2.919544h0.9515625c1.5452637,0,2.8293091,-1.177661,2.9449219,-2.7011358l0.07511,-0.990271H8.055675l0.07511,0.990271c0.1153564,1.5234748,1.3994018,2.7011358,2.944665,2.7011358h0.951563c1.630884,0,2.953125,-1.307117,2.953125,-2.9192877V7.302459c0,-0.1340698,-0.01641,-0.2673706,-0.04871,-0.3973388zM5.4281113,9.1973809C5.3776108,9.8615775,4.8026231,10.381964,4.1192002,10.381964H3.1676377c-0.7236694,0,-1.3125,-0.5737065,-1.3125,-1.278919V8.1407159C2.3196397,7.9743463,2.9681992,7.8095147,3.715709,7.8095147c0.6116455,0,1.211499,0.1109985,1.7926391,0.3312012zm7.9114017,-0.09408c0,0.7052122,-0.588831,1.2786627,-1.3125,1.2786627h-0.951562c-0.68368,0,-1.2586678,-0.5203865,-1.3089119,-1.1845831L9.6863023,8.1407159C10.267443,7.9205132,10.867553,7.8095147,11.479454,7.8095147c0.746485,0,1.395301,0.1650879,1.859803,0.3314575v0.9623291z"></path> </svg>