<?xml version="1.0" encoding="utf-8"?> <!DOCTYPE svg PUBLIC "-//W3C//DTD SVG 1.1//EN" "http://www.w3.org/Graphics/SVG/1.1/DTD/svg11.dtd"><svg version="1.1" id="marker-circle-blue" xmlns="http://www.w3.org/2000/svg" xmlns:xlink="http://www.w3.org/1999/xlink" x="0px"  y="0px" width="24px" height="36px" viewBox="0 0 24 36" enable-background="new 0 0 24 36" xml:space="preserve"><path fill="#EF9228" d="M20.103,0.57H2.959c-1.893,0-3.365,0.487-3.365,2.472l-0.063,18.189c0,1.979,1.526,3.724,3.418,3.724h4.558
		l4.01,11.545l3.966-11.545h4.56c1.894,0,3.488-1.744,3.488-3.724V4.166C23.531,2.18,21.996,0.57,20.103,0.57z"></path><path fill="#ffffff" transform="translate(4.5 4.5)" d="M 1.199219 0.300781 L 2.878906 13.855469 C 2.933594 14.277344 3.300781 14.699219 3.71875 14.699219 L 11.28125 14.699219 C 11.699219 14.699219 12.066406 14.277344 12.121094 13.855469 L 13.800781 0.300781 Z M 3.089844 1.992188 L 11.910156 1.992188 L 11.515625 5.382812 L 3.484375 5.382812 Z M 3.089844 1.992188 "></path> </svg>