<?xml version="1.0" encoding="utf-8"?> <!DOCTYPE svg PUBLIC "-//W3C//DTD SVG 1.1//EN" "http://www.w3.org/Graphics/SVG/1.1/DTD/svg11.dtd"><svg version="1.1" id="marker-circle-blue" xmlns="http://www.w3.org/2000/svg" xmlns:xlink="http://www.w3.org/1999/xlink" x="0px"  y="0px" width="24px" height="36px" viewBox="0 0 24 36" enable-background="new 0 0 24 36" xml:space="preserve"><path fill="#EF9228" d="M20.103,0.57H2.959c-1.893,0-3.365,0.487-3.365,2.472l-0.063,18.189c0,1.979,1.526,3.724,3.418,3.724h4.558
		l4.01,11.545l3.966-11.545h4.56c1.894,0,3.488-1.744,3.488-3.724V4.166C23.531,2.18,21.996,0.57,20.103,0.57z"></path><path fill="#ffffff" transform="translate(4.5 4.5)" d="M8.699219,1.355469C6.511719,1.355469,4.800781,3.089844,4.800781,5.226562L4.800781,14.398438L6.300781,14.398438L6.300781,11.398438L11.101562,11.398438L11.101562,14.398438L12.601562,14.398438L12.601562,5.226562C12.601562,3.089844,10.890625,1.355469,8.699219,1.355469ZM1.199219,0.601562L3.410156,4.199219L3.640625,4.199219C3.78125,2.699219,4.800781,1.46875,6.300781,0.914062L6.300781,0.601562ZM1.199219,0.601562"></path> </svg>