<?xml version="1.0" encoding="utf-8"?> <!DOCTYPE svg PUBLIC "-//W3C//DTD SVG 1.1//EN" "http://www.w3.org/Graphics/SVG/1.1/DTD/svg11.dtd"><svg version="1.1" id="marker-circle-blue" xmlns="http://www.w3.org/2000/svg" xmlns:xlink="http://www.w3.org/1999/xlink" x="0px"  y="0px" width="24px" height="36px" viewBox="0 0 24 36" enable-background="new 0 0 24 36" xml:space="preserve"><path fill="#EF9228" d="M20.103,0.57H2.959c-1.893,0-3.365,0.487-3.365,2.472l-0.063,18.189c0,1.979,1.526,3.724,3.418,3.724h4.558
		l4.01,11.545l3.966-11.545h4.56c1.894,0,3.488-1.744,3.488-3.724V4.166C23.531,2.18,21.996,0.57,20.103,0.57z"></path><path fill="#ffffff" transform="translate(4.5 4.5)" d="M8.018554687500002,4.49176025390625l1.556396484375,0.44512939453125c0.112060546875,0.0311279296875,0.18988037109375,0.136962890625,0.18988037109375,0.25213623046875c0,0.1431884765625,-0.1182861328125,0.261474609375,-0.261474609375,0.261474609375h-1.0209960937499998c-0.112060546875,0,-0.22100830078125,-0.02490234375,-0.32061767578125,-0.0684814453125c-0.1494140625,-0.0684814453125,-0.32373046875,-0.05291748046875,-0.43890380859375,0.062255859375l-0.54473876953125,0.54473876953125c-0.16497802734375,0.16497802734375,-0.14630126953125,0.44512939453125,0.04669189453125,0.57275390625c0.29571533203125,0.19610595703125,0.63189697265625,0.31439208984375,0.9898681640625,0.35797119140625V7.470703125c0,0.27392578125,0.22412109375,0.498046875,0.498046875,0.498046875h0.498046875c0.27392578125,0,0.498046875,-0.22412109375,0.498046875,-0.498046875v-0.5478515625c0.94317626953125,-0.112060546875,1.65911865234375,-0.9649658203125,1.53460693359375,-1.9610595703125c-0.09027099609375,-0.7159423828125,-0.64434814453125,-1.28558349609375,-1.33538818359375,-1.48480224609375l-1.556396484375,-0.44512939453125c-0.112060546875,-0.0311279296875,-0.18988037109375,-0.136962890625,-0.18988037109375,-0.25213623046875c0,-0.1431884765625,0.1182861328125,-0.261474609375,0.261474609375,-0.261474609375h1.0209960937499998c0.112060546875,0,0.22100830078125,0.02490234375,0.32061767578125,0.0684814453125c0.1494140625,0.0684814453125,0.32373046875,0.05291748046875,0.43890380859375,-0.062255859375l0.54473876953125,-0.54473876953125c0.16497802734375,-0.16497802734375,0.14630126953125,-0.44512939453125,-0.04669189453125,-0.57275390625c-0.29571533203125,-0.19610595703125,-0.63189697265625,-0.31439208984375,-0.9898681640625,-0.35797119140625V0.498046875c0,-0.27392578125,-0.22412109375,-0.498046875,-0.498046875,-0.498046875h-0.498046875c-0.27392578125,0,-0.498046875,0.22412109375,-0.498046875,0.498046875v0.5478515625c-0.94317626953125,0.112060546875,-1.65911865234375,0.9649658203125,-1.53460693359375,1.9610595703125c0.09027099609375,0.7159423828125,0.64434814453125,1.28558349609375,1.33538818359375,1.48480224609375zm8.60064697265625,5.7213134765625c-0.3486328125,-0.33306884765625,-0.88714599609375,-0.311279296875,-1.25445556640625,0L12.650390625,12.513427734375c-0.33306884765625,0.28326416015625,-0.7470703125,0.435791015625,-1.1766357421875,0.435791015625H7.996765136718749c-0.25836181640625006,0,-0.47003173828125,-0.22412109375,-0.47003173828125,-0.498046875s0.211669921875,-0.498046875,0.47003173828125,-0.498046875h2.30035400390625c0.47003173828125,0,0.9027099609375,-0.33929443359375,0.9774169921875,-0.8280029296875c0.09649658203125,-0.62255859375,-0.35797119140625,-1.1641845703125,-0.9276123046875,-1.1641845703125H5.64349365234375c-0.79376220703125,0,-1.5626220703125,0.28948974609375,-2.17584228515625,0.81866455078125L2.10113525390625,11.953125H0.47003173828125C0.211669921875,11.953125,0,12.17724609375,0,12.451171875v2.98828125c0,0.27392578125,0.211669921875,0.498046875,0.47003173828125,0.498046875H10.95703125c0.42645263671875,0,0.8404541015625,-0.15252685546875,1.1766357421875,-0.435791015625l4.445068359375,-3.7664794921875c0.4482421875,-0.37664794921875,0.48248291015625,-1.09881591796875,0.04046630859375,-1.52215576171875z"></path> </svg>