<?xml version="1.0" encoding="utf-8"?> <!DOCTYPE svg PUBLIC "-//W3C//DTD SVG 1.1//EN" "http://www.w3.org/Graphics/SVG/1.1/DTD/svg11.dtd"><svg version="1.1" id="marker-circle-blue" xmlns="http://www.w3.org/2000/svg" xmlns:xlink="http://www.w3.org/1999/xlink" x="0px"  y="0px" width="24px" height="36px" viewBox="0 0 24 36" enable-background="new 0 0 24 36" xml:space="preserve"><path fill="#D3D3D3" d="M20.103,0.57H2.959c-1.893,0-3.365,0.487-3.365,2.472l-0.063,18.189c0,1.979,1.526,3.724,3.418,3.724h4.558
		l4.01,11.545l3.966-11.545h4.56c1.894,0,3.488-1.744,3.488-3.724V4.166C23.531,2.18,21.996,0.57,20.103,0.57z"></path><path fill="#ffffff" transform="translate(4.5 4.5)" d="M 6.898438 14.308594 L 6.898438 12.402344 L 5.894531 13 L 5.398438 12.691406 L 5.398438 12.023438 L 6.898438 11.128906 L 6.898438 9.875 L 5.699219 10.613281 L 5.699219 9.285156 L 4.5 9.914062 L 4.5 11.710938 L 4.003906 12.082031 L 3.601562 11.746094 L 3.601562 10.542969 L 1.929688 11.480469 L 1.199219 11.179688 L 1.199219 10.421875 L 2.90625 9.472656 L 1.800781 8.925781 L 1.800781 8.230469 L 2.4375 7.890625 L 4 8.8125 L 5.085938 8.1875 L 5.058594 8.167969 L 3.960938 7.53125 L 5.03125 6.859375 L 3.957031 6.238281 L 2.394531 7.152344 L 1.800781 6.859375 L 1.800781 6.167969 L 2.863281 5.574219 L 1.199219 4.660156 L 1.199219 3.902344 L 1.894531 3.566406 L 3.601562 4.527344 L 3.601562 3.304688 L 4.046875 2.964844 L 4.628906 3.320312 L 4.613281 5.152344 L 5.714844 5.789062 L 5.722656 4.492188 L 6.898438 5.125 L 6.898438 3.875 L 5.398438 2.976562 L 5.398438 2.3125 L 5.894531 1.996094 L 6.898438 2.59375 L 6.898438 0.695312 L 7.5 0.300781 L 8.101562 0.695312 L 8.101562 2.59375 L 9.273438 1.984375 L 9.898438 2.351562 L 9.898438 2.949219 L 8.101562 3.875 L 8.101562 5.125 L 9.300781 4.445312 L 9.300781 5.804688 L 10.5 5.179688 L 10.5 3.222656 L 10.9375 2.960938 L 11.398438 3.222656 L 11.398438 4.472656 L 13.152344 3.546875 L 13.800781 3.914062 L 13.800781 4.621094 L 12.152344 5.570312 L 13.199219 6.15625 L 13.199219 6.832031 L 12.652344 7.132812 L 11.054688 6.183594 L 9.949219 6.890625 L 11.015625 7.558594 L 9.917969 8.195312 L 11.046875 8.792969 L 12.664062 7.894531 L 13.199219 8.261719 L 13.199219 8.90625 L 12.203125 9.472656 L 13.800781 10.421875 L 13.800781 11.167969 L 13.042969 11.480469 L 11.398438 10.585938 L 11.398438 11.769531 L 10.945312 12.085938 L 10.5 11.769531 L 10.5 9.96875 L 9.300781 9.304688 L 9.300781 10.558594 L 8.101562 9.875 L 8.101562 11.125 L 9.601562 12.023438 L 9.601562 12.730469 L 9.105469 13 L 8.101562 12.40625 L 8.101562 14.308594 L 7.5 14.699219 Z M 6.460938 7.527344 L 7.027344 8.398438 L 8.082031 8.398438 L 8.5625 7.527344 L 8.054688 6.601562 L 7 6.601562 Z M 6.460938 7.527344 "></path> </svg>