<?xml version="1.0" encoding="utf-8"?> <!DOCTYPE svg PUBLIC "-//W3C//DTD SVG 1.1//EN" "http://www.w3.org/Graphics/SVG/1.1/DTD/svg11.dtd"><svg version="1.1" id="marker-circle-blue" xmlns="http://www.w3.org/2000/svg" xmlns:xlink="http://www.w3.org/1999/xlink" x="0px"  y="0px" width="24px" height="36px" viewBox="0 0 24 36" enable-background="new 0 0 24 36" xml:space="preserve"><path fill="#75030B" d="M20.103,0.57H2.959c-1.893,0-3.365,0.487-3.365,2.472l-0.063,18.189c0,1.979,1.526,3.724,3.418,3.724h4.558
		l4.01,11.545l3.966-11.545h4.56c1.894,0,3.488-1.744,3.488-3.724V4.166C23.531,2.18,21.996,0.57,20.103,0.57z"></path><path fill="#ffffff" transform="translate(4.5 4.5)" d="M7.5,8.035156L7.5,11.785156C7.5,11.929688,7.445312,12.054688,7.339844,12.164062C7.234375,12.269531,7.109375,12.320312,6.964844,12.320312C6.820312,12.320312,6.695312,12.269531,6.585938,12.164062L5.382812,10.957031L2.601562,13.734375C2.546875,13.792969,2.484375,13.820312,2.410156,13.820312C2.339844,13.820312,2.273438,13.792969,2.21875,13.734375L1.265625,12.78125C1.207031,12.726562,1.179688,12.660156,1.179688,12.589844C1.179688,12.515625,1.207031,12.453125,1.265625,12.398438L4.042969,9.617188L2.835938,8.414062C2.730469,8.304688,2.679688,8.179688,2.679688,8.035156C2.679688,7.890625,2.730469,7.765625,2.835938,7.660156C2.945312,7.554688,3.070312,7.5,3.214844,7.5L6.964844,7.5C7.109375,7.5,7.234375,7.554688,7.339844,7.660156C7.445312,7.765625,7.5,7.890625,7.5,8.035156ZM13.820312,2.410156C13.820312,2.484375,13.792969,2.546875,13.734375,2.601562L10.957031,5.382812L12.164062,6.585938C12.269531,6.695312,12.320312,6.820312,12.320312,6.964844C12.320312,7.109375,12.269531,7.234375,12.164062,7.339844C12.054688,7.445312,11.929688,7.5,11.785156,7.5L8.035156,7.5C7.890625,7.5,7.765625,7.445312,7.660156,7.339844C7.554688,7.234375,7.5,7.109375,7.5,6.964844L7.5,3.214844C7.5,3.070312,7.554688,2.945312,7.660156,2.835938C7.765625,2.730469,7.890625,2.679688,8.035156,2.679688C8.179688,2.679688,8.304688,2.730469,8.414062,2.835938L9.617188,4.042969L12.398438,1.265625C12.453125,1.207031,12.515625,1.179688,12.589844,1.179688C12.660156,1.179688,12.726562,1.207031,12.78125,1.265625L13.734375,2.21875C13.792969,2.273438,13.820312,2.339844,13.820312,2.410156ZM13.820312,2.410156"></path> </svg>