<?xml version="1.0" encoding="utf-8"?> <!DOCTYPE svg PUBLIC "-//W3C//DTD SVG 1.1//EN" "http://www.w3.org/Graphics/SVG/1.1/DTD/svg11.dtd"><svg version="1.1" id="marker-circle-blue" xmlns="http://www.w3.org/2000/svg" xmlns:xlink="http://www.w3.org/1999/xlink" x="0px"  y="0px" width="24px" height="36px" viewBox="0 0 24 36" enable-background="new 0 0 24 36" xml:space="preserve"><path fill="#A23337" d="M20.103,0.57H2.959c-1.893,0-3.365,0.487-3.365,2.472l-0.063,18.189c0,1.979,1.526,3.724,3.418,3.724h4.558
		l4.01,11.545l3.966-11.545h4.56c1.894,0,3.488-1.744,3.488-3.724V4.166C23.531,2.18,21.996,0.57,20.103,0.57z"></path><path fill="#ffffff" transform="translate(4.5 4.5)" d="M12.878906,3.898438L11.398438,3.898438L11.398438,2.332031C11.398438,1.210938,10.515625,0.300781,9.390625,0.300781L5.609375,0.300781C4.484375,0.300781,3.601562,1.210938,3.601562,2.332031L3.601562,3.898438L2.121094,3.898438C1.117188,3.898438,0.300781,4.675781,0.300781,5.679688L0.300781,12.582031C0.300781,13.585938,1.117188,14.398438,2.121094,14.398438L12.878906,14.398438C13.882812,14.398438,14.699219,13.585938,14.699219,12.582031L14.699219,5.679688C14.699219,4.675781,13.882812,3.898438,12.878906,3.898438ZM4.800781,2.332031C4.800781,1.914062,5.1875,1.5,5.609375,1.5L9.390625,1.5C9.8125,1.5,10.199219,1.914062,10.199219,2.332031L10.199219,3.898438L4.800781,3.898438ZM10.800781,10.5L8.699219,10.5L8.699219,12.601562L6.300781,12.601562L6.300781,10.5L4.199219,10.5L4.199219,8.101562L6.300781,8.101562L6.300781,6L8.699219,6L8.699219,8.101562L10.800781,8.101562ZM10.800781,10.5"></path> </svg>