<?xml version="1.0" encoding="utf-8"?> <!DOCTYPE svg PUBLIC "-//W3C//DTD SVG 1.1//EN" "http://www.w3.org/Graphics/SVG/1.1/DTD/svg11.dtd"><svg version="1.1" id="marker-circle-blue" xmlns="http://www.w3.org/2000/svg" xmlns:xlink="http://www.w3.org/1999/xlink" x="0px"  y="0px" width="24px" height="36px" viewBox="0 0 24 36" enable-background="new 0 0 24 36" xml:space="preserve"><path fill="#EF9228" d="M20.103,0.57H2.959c-1.893,0-3.365,0.487-3.365,2.472l-0.063,18.189c0,1.979,1.526,3.724,3.418,3.724h4.558
		l4.01,11.545l3.966-11.545h4.56c1.894,0,3.488-1.744,3.488-3.724V4.166C23.531,2.18,21.996,0.57,20.103,0.57z"></path><path fill="#ffffff" transform="translate(4.5 4.5)" d="M 15 7.84375 C 15 8.15625 14.980469 8.445312 14.941406 8.714844 L 5.308594 8.714844 C 5.308594 9.527344 5.613281 10.210938 6.222656 10.761719 C 6.835938 11.308594 7.554688 11.585938 8.378906 11.585938 C 8.929688 11.585938 9.449219 11.453125 9.929688 11.195312 C 10.414062 10.9375 10.796875 10.570312 11.074219 10.101562 L 14.613281 10.101562 C 14.300781 10.992188 13.828125 11.773438 13.1875 12.457031 C 12.546875 13.136719 11.800781 13.660156 10.949219 14.03125 C 10.09375 14.402344 9.199219 14.589844 8.261719 14.589844 C 7.21875 14.589844 6.226562 14.359375 5.28125 13.894531 C 4.007812 14.542969 2.910156 14.867188 1.984375 14.867188 C 0.660156 14.867188 0 14.132812 0 12.664062 C 0 12.023438 0.125 11.253906 0.375 10.363281 C 0.472656 10.027344 0.777344 9.390625 1.289062 8.445312 C 2.398438 6.4375 3.726562 4.746094 5.265625 3.375 C 4.238281 3.8125 3.046875 4.800781 1.691406 6.335938 C 2.042969 4.808594 2.832031 3.554688 4.0625 2.574219 C 5.292969 1.59375 6.695312 1.105469 8.261719 1.105469 C 8.429688 1.105469 8.554688 1.109375 8.636719 1.113281 C 10.0625 0.460938 11.269531 0.132812 12.261719 0.132812 C 12.621094 0.132812 12.945312 0.171875 13.234375 0.242188 C 13.523438 0.316406 13.789062 0.429688 14.023438 0.582031 C 14.261719 0.734375 14.449219 0.949219 14.582031 1.222656 C 14.714844 1.496094 14.78125 1.816406 14.78125 2.183594 C 14.78125 2.832031 14.574219 3.628906 14.15625 4.578125 C 14.71875 5.59375 15 6.683594 15 7.84375 Z M 14.414062 2.484375 C 14.414062 2.023438 14.265625 1.65625 13.96875 1.382812 C 13.675781 1.109375 13.292969 0.972656 12.824219 0.972656 C 12.222656 0.972656 11.511719 1.167969 10.699219 1.558594 C 11.371094 1.820312 11.992188 2.1875 12.558594 2.65625 C 13.125 3.128906 13.601562 3.675781 13.988281 4.292969 C 14.273438 3.539062 14.414062 2.9375 14.414062 2.484375 Z M 1.070312 12.839844 C 1.070312 13.320312 1.207031 13.691406 1.476562 13.949219 C 1.746094 14.210938 2.125 14.339844 2.601562 14.339844 C 3.246094 14.339844 3.988281 14.105469 4.828125 13.644531 C 4.148438 13.242188 3.554688 12.730469 3.042969 12.113281 C 2.53125 11.492188 2.148438 10.808594 1.890625 10.0625 C 1.34375 11.207031 1.070312 12.132812 1.070312 12.839844 Z M 5.289062 6.871094 L 11.382812 6.871094 C 11.355469 6.078125 11.039062 5.417969 10.4375 4.886719 C 9.835938 4.359375 9.136719 4.09375 8.335938 4.09375 C 7.535156 4.09375 6.832031 4.359375 6.230469 4.886719 C 5.632812 5.417969 5.316406 6.078125 5.289062 6.871094 Z M 5.289062 6.871094 "></path> </svg>