<?xml version="1.0" encoding="utf-8"?> <!DOCTYPE svg PUBLIC "-//W3C//DTD SVG 1.1//EN" "http://www.w3.org/Graphics/SVG/1.1/DTD/svg11.dtd"><svg version="1.1" id="marker-circle-blue" xmlns="http://www.w3.org/2000/svg" xmlns:xlink="http://www.w3.org/1999/xlink" x="0px"  y="0px" width="24px" height="36px" viewBox="0 0 24 36" enable-background="new 0 0 24 36" xml:space="preserve"><path fill="#EF9228" d="M20.103,0.57H2.959c-1.893,0-3.365,0.487-3.365,2.472l-0.063,18.189c0,1.979,1.526,3.724,3.418,3.724h4.558
		l4.01,11.545l3.966-11.545h4.56c1.894,0,3.488-1.744,3.488-3.724V4.166C23.531,2.18,21.996,0.57,20.103,0.57z"></path><path fill="#ffffff" transform="translate(4.5 4.5)" d="M14,7.5v2c0,0.2761,-0.2239,0.5,-0.5,0.5S13,9.7761,13,9.5c0,0,0.06,-0.5,-1,-0.5h-1v2.5c0,0.2761,-0.2239,0.5,-0.5,0.5h-8C2.2239,12,2,11.7761,2,11.5v-4C2,7.2239,2.2239,7,2.5,7h8C10.7761,7,11,7.2239,11,7.5V8h1c1.06,0,1,-0.5,1,-0.5C13,7.2239,13.2239,7,13.5,7S14,7.2239,14,7.5zM4,3C2.8954,3,2,3.8954,2,5s0.8954,2,2,2s2,-0.8954,2,-2S5.1046,3,4,3zM4,6C3.4477,6,3,5.5523,3,5s0.4477,-1,1,-1s1,0.4477,1,1S4.5523,6,4,6zM8.5,2C7.1193,2,6,3.1193,6,4.5S7.1193,7,8.5,7S11,5.8807,11,4.5S9.8807,2,8.5,2zM8.5,6C7.6716,6,7,5.3284,7,4.5S7.6716,3,8.5,3S10,3.6716,10,4.5S9.3284,6,8.5,6z"></path> </svg>