<?xml version="1.0" encoding="utf-8"?> <!DOCTYPE svg PUBLIC "-//W3C//DTD SVG 1.1//EN" "http://www.w3.org/Graphics/SVG/1.1/DTD/svg11.dtd"><svg version="1.1" id="marker-circle-blue" xmlns="http://www.w3.org/2000/svg" xmlns:xlink="http://www.w3.org/1999/xlink" x="0px"  y="0px" width="24px" height="36px" viewBox="0 0 24 36" enable-background="new 0 0 24 36" xml:space="preserve"><path fill="#A23337" d="M20.103,0.57H2.959c-1.893,0-3.365,0.487-3.365,2.472l-0.063,18.189c0,1.979,1.526,3.724,3.418,3.724h4.558
		l4.01,11.545l3.966-11.545h4.56c1.894,0,3.488-1.744,3.488-3.724V4.166C23.531,2.18,21.996,0.57,20.103,0.57z"></path><path fill="#ffffff" transform="translate(4.5 4.5)" d="M 11.351562 4.445312 C 11.449219 6.003906 10.691406 7.101562 10.691406 7.101562 C 10.789062 5.898438 10.304688 4.234375 10.304688 4.234375 C 9.886719 4.152344 9.222656 4.242188 9.222656 4.242188 C 9.316406 5.539062 8.65625 6.671875 8.171875 7.085938 C 8.410156 5.648438 8.027344 4.5625 8.027344 4.5625 C 7.367188 4.394531 6.425781 4.496094 6.425781 4.496094 C 6.628906 6.027344 5.785156 7.152344 5.785156 7.152344 C 5.925781 6.085938 5.355469 4.71875 5.355469 4.71875 C 4.871094 4.6875 4.101562 4.84375 4.101562 4.84375 C 4.507812 5.570312 4.183594 7.167969 4.183594 7.167969 C 3.960938 5.859375 3.214844 5.089844 3.214844 5.089844 C -1.058594 6.910156 0.0664062 9.417969 2.15625 10.164062 C 4.128906 10.867188 10.480469 11.214844 13.320312 9.980469 C 16.164062 8.746094 14.164062 5.28125 11.351562 4.445312 Z M 11.351562 4.445312 "></path> </svg>