<?xml version="1.0" encoding="utf-8"?> <!DOCTYPE svg PUBLIC "-//W3C//DTD SVG 1.1//EN" "http://www.w3.org/Graphics/SVG/1.1/DTD/svg11.dtd"><svg version="1.1" id="marker-circle-blue" xmlns="http://www.w3.org/2000/svg" xmlns:xlink="http://www.w3.org/1999/xlink" x="0px"  y="0px" width="24px" height="36px" viewBox="0 0 24 36" enable-background="new 0 0 24 36" xml:space="preserve"><path fill="#EF9228" d="M20.103,0.57H2.959c-1.893,0-3.365,0.487-3.365,2.472l-0.063,18.189c0,1.979,1.526,3.724,3.418,3.724h4.558
		l4.01,11.545l3.966-11.545h4.56c1.894,0,3.488-1.744,3.488-3.724V4.166C23.531,2.18,21.996,0.57,20.103,0.57z"></path><path fill="#ffffff" transform="translate(4.5 4.5)" d="M 13.710938 7.242188 L 11.34375 3.253906 C 11.25 3.082031 11.019531 3 10.828125 3 L 8.699219 3 L 8.699219 1.199219 C 8.699219 0.871094 8.429688 0.601562 8.101562 0.601562 L 6.601562 0.601562 C 6.269531 0.601562 6 0.871094 6 1.199219 L 6 3 L 4.210938 3 C 4.015625 3 3.78125 3.082031 3.6875 3.253906 L 1.308594 7.273438 C 0.917969 7.273438 0.601562 7.570312 0.601562 7.972656 L 0.601562 11.613281 C 0.601562 12.015625 0.917969 12.300781 1.308594 12.300781 L 2.101562 12.300781 L 2.101562 13.433594 C 2.101562 14.035156 2.5 14.398438 3.082031 14.398438 L 3.4375 14.398438 C 4.023438 14.398438 4.5 14.035156 4.5 13.433594 L 4.5 12.300781 L 10.5 12.300781 L 10.5 13.433594 C 10.5 14.035156 11.015625 14.398438 11.597656 14.398438 L 11.953125 14.398438 C 12.539062 14.398438 12.898438 14.035156 12.898438 13.433594 L 12.898438 12.300781 L 13.730469 12.300781 C 14.117188 12.300781 14.398438 12.015625 14.398438 11.613281 L 14.398438 7.972656 C 14.398438 7.570312 14.101562 7.242188 13.710938 7.242188 Z M 2.550781 10.15625 C 2.0625 10.15625 1.664062 9.75 1.664062 9.246094 C 1.664062 8.742188 2.0625 8.335938 2.550781 8.335938 C 3.042969 8.335938 3.4375 8.742188 3.4375 9.246094 C 3.4375 9.75 3.042969 10.15625 2.550781 10.15625 Z M 3.082031 7.199219 L 4.699219 4.386719 C 4.785156 4.207031 5.019531 4.199219 5.210938 4.199219 L 9.824219 4.199219 C 10.019531 4.199219 10.25 4.207031 10.339844 4.386719 L 11.953125 7.199219 Z M 12.488281 10.15625 C 11.996094 10.15625 11.597656 9.75 11.597656 9.246094 C 11.597656 8.742188 11.996094 8.335938 12.488281 8.335938 C 12.976562 8.335938 13.375 8.742188 13.375 9.246094 C 13.375 9.75 12.976562 10.15625 12.488281 10.15625 Z M 12.488281 10.15625 "></path> </svg>