<?xml version="1.0" encoding="utf-8"?> <!DOCTYPE svg PUBLIC "-//W3C//DTD SVG 1.1//EN" "http://www.w3.org/Graphics/SVG/1.1/DTD/svg11.dtd"><svg version="1.1" id="marker-circle-blue" xmlns="http://www.w3.org/2000/svg" xmlns:xlink="http://www.w3.org/1999/xlink" x="0px"  y="0px" width="24px" height="36px" viewBox="0 0 24 36" enable-background="new 0 0 24 36" xml:space="preserve"><path fill="#EF9228" d="M20.103,0.57H2.959c-1.893,0-3.365,0.487-3.365,2.472l-0.063,18.189c0,1.979,1.526,3.724,3.418,3.724h4.558
		l4.01,11.545l3.966-11.545h4.56c1.894,0,3.488-1.744,3.488-3.724V4.166C23.531,2.18,21.996,0.57,20.103,0.57z"></path><path fill="#ffffff" transform="translate(4.5 4.5)" d="M14,7c-0.004-0.6904-0.4787-1.2889-1.15-1.45l-1.39-3.24l0,0l0,0l0,0C11.3833,2.1233,11.2019,2.001,11,2H4
	C3.8124,2.0034,3.6425,2.1115,3.56,2.28l0,0l0,0l0,0L2.15,5.54C1.475,5.702,0.9994,6.3059,1,7v3.5h1v1c0,0.5523,0.4477,1,1,1
	s1-0.4477,1-1v-1h7v1c0,0.5523,0.4477,1,1,1s1-0.4477,1-1v-1h1V7z M4.3,3h6.4l1.05,2.5h-8.5L4.3,3z M3,9C2.4477,9,2,8.5523,2,8
	s0.4477-1,1-1s1,0.4477,1,1S3.5523,9,3,9z M12,9c-0.5523,0-1-0.4477-1-1s0.4477-1,1-1s1,0.4477,1,1S12.5523,9,12,9z"></path> </svg>