<?xml version="1.0" encoding="utf-8"?> <!DOCTYPE svg PUBLIC "-//W3C//DTD SVG 1.1//EN" "http://www.w3.org/Graphics/SVG/1.1/DTD/svg11.dtd"><svg version="1.1" id="marker-circle-blue" xmlns="http://www.w3.org/2000/svg" xmlns:xlink="http://www.w3.org/1999/xlink" x="0px"  y="0px" width="24px" height="36px" viewBox="0 0 24 36" enable-background="new 0 0 24 36" xml:space="preserve"><path fill="#D3D3D3" d="M20.103,0.57H2.959c-1.893,0-3.365,0.487-3.365,2.472l-0.063,18.189c0,1.979,1.526,3.724,3.418,3.724h4.558
		l4.01,11.545l3.966-11.545h4.56c1.894,0,3.488-1.744,3.488-3.724V4.166C23.531,2.18,21.996,0.57,20.103,0.57z"></path><path fill="#ffffff" transform="translate(4.5 4.5)" d="M13.75,5h-3.75V1.25c0,-0.6902343750000001,-0.559765625,-1.25,-1.25,-1.25h-2.5c-0.6902343750000001,0,-1.25,0.559765625,-1.25,1.25v3.75H1.25c-0.6902343750000001,0,-1.25,0.559765625,-1.25,1.25v2.5c0,0.6902343750000001,0.559765625,1.25,1.25,1.25h3.75v8.75c0,0.6902343750000001,0.559765625,1.25,1.25,1.25h2.5c0.6902343750000001,0,1.25,-0.559765625,1.25,-1.25V10h3.75c0.6902343750000001,0,1.25,-0.559765625,1.25,-1.25v-2.5c0,-0.6902343750000001,-0.559765625,-1.25,-1.25,-1.25z"></path> </svg>