<?xml version="1.0" encoding="utf-8"?> <!DOCTYPE svg PUBLIC "-//W3C//DTD SVG 1.1//EN" "http://www.w3.org/Graphics/SVG/1.1/DTD/svg11.dtd"><svg version="1.1" id="marker-circle-blue" xmlns="http://www.w3.org/2000/svg" xmlns:xlink="http://www.w3.org/1999/xlink" x="0px"  y="0px" width="24px" height="36px" viewBox="0 0 24 36" enable-background="new 0 0 24 36" xml:space="preserve"><path fill="#A23337" d="M20.103,0.57H2.959c-1.893,0-3.365,0.487-3.365,2.472l-0.063,18.189c0,1.979,1.526,3.724,3.418,3.724h4.558
		l4.01,11.545l3.966-11.545h4.56c1.894,0,3.488-1.744,3.488-3.724V4.166C23.531,2.18,21.996,0.57,20.103,0.57z"></path><path fill="#ffffff" transform="translate(4.5 4.5)" d="M 14.207031 4.425781 C 14.230469 4.511719 14.203125 4.609375 14.152344 4.683594 L 12.535156 7.089844 C 12.472656 7.183594 12.347656 7.234375 12.242188 7.234375 C 12.210938 7.234375 12.128906 7.226562 12.097656 7.21875 L 10.800781 6.898438 L 10.800781 12.601562 C 10.800781 12.773438 10.675781 12.898438 10.5 12.898438 L 4.199219 12.898438 C 4.023438 12.898438 3.898438 12.773438 3.898438 12.601562 L 3.898438 6.898438 L 2.734375 7.222656 C 2.601562 7.261719 2.484375 7.210938 2.410156 7.09375 L 0.804688 4.691406 C 0.753906 4.613281 0.738281 4.527344 0.761719 4.441406 C 0.78125 4.351562 0.847656 4.289062 0.925781 4.246094 L 4.199219 2.699219 L 5.699219 2.699219 C 5.878906 2.699219 6 2.824219 6 3 C 6 3.617188 6.867188 4.054688 7.484375 4.054688 C 8.101562 4.054688 9 3.621094 9 3 C 9 2.824219 9.121094 2.699219 9.300781 2.699219 L 10.800781 2.699219 L 14.039062 4.21875 C 14.125 4.261719 14.183594 4.335938 14.207031 4.425781 Z M 14.207031 4.425781 "></path> </svg>