<?xml version="1.0" encoding="utf-8"?> <!DOCTYPE svg PUBLIC "-//W3C//DTD SVG 1.1//EN" "http://www.w3.org/Graphics/SVG/1.1/DTD/svg11.dtd"><svg version="1.1" id="marker-circle-blue" xmlns="http://www.w3.org/2000/svg" xmlns:xlink="http://www.w3.org/1999/xlink" x="0px"  y="0px" width="24px" height="36px" viewBox="0 0 24 36" enable-background="new 0 0 24 36" xml:space="preserve"><path fill="#5B396C" d="M20.103,0.57H2.959c-1.893,0-3.365,0.487-3.365,2.472l-0.063,18.189c0,1.979,1.526,3.724,3.418,3.724h4.558
		l4.01,11.545l3.966-11.545h4.56c1.894,0,3.488-1.744,3.488-3.724V4.166C23.531,2.18,21.996,0.57,20.103,0.57z"></path><path fill="#ffffff" transform="translate(4.5 4.5)" d="M14.101562,14.398438C13.8125,14.398438,13.535156,14.335938,13.289062,14.222656C13.035156,14.105469,12.75,14.035156,12.449219,14.035156C12.152344,14.035156,11.867188,14.105469,11.613281,14.222656C11.367188,14.335938,11.089844,14.398438,10.800781,14.398438C10.511719,14.398438,10.234375,14.335938,9.988281,14.222656C9.730469,14.105469,9.449219,14.035156,9.148438,14.035156C8.851562,14.035156,8.566406,14.105469,8.3125,14.222656C8.066406,14.335938,7.789062,14.398438,7.5,14.398438C7.210938,14.398438,6.933594,14.335938,6.683594,14.222656C6.433594,14.105469,6.148438,14.035156,5.851562,14.035156C5.550781,14.035156,5.265625,14.105469,5.011719,14.222656C4.765625,14.335938,4.492188,14.398438,4.203125,14.398438C3.914062,14.398438,3.636719,14.335938,3.386719,14.222656C3.132812,14.105469,2.847656,14.035156,2.554688,14.035156C2.253906,14.035156,1.96875,14.105469,1.714844,14.222656C1.46875,14.335938,1.1875,14.398438,0.898438,14.398438L0.898438,13.183594C1.1875,13.183594,1.46875,13.121094,1.714844,13.007812C1.96875,12.894531,2.253906,12.824219,2.554688,12.824219C2.847656,12.824219,3.132812,12.894531,3.386719,13.007812C3.636719,13.121094,3.914062,13.183594,4.203125,13.183594C4.492188,13.183594,4.765625,13.121094,5.011719,13.007812C5.265625,12.894531,5.550781,12.824219,5.851562,12.824219C6.148438,12.824219,6.433594,12.894531,6.683594,13.007812C6.933594,13.121094,7.210938,13.183594,7.5,13.183594C7.789062,13.183594,8.066406,13.121094,8.3125,13.007812C8.566406,12.894531,8.851562,12.824219,9.148438,12.824219C9.449219,12.824219,9.730469,12.894531,9.988281,13.007812C10.234375,13.121094,10.511719,13.183594,10.800781,13.183594C11.089844,13.183594,11.367188,13.121094,11.613281,13.007812C11.867188,12.894531,12.152344,12.824219,12.449219,12.824219C12.75,12.824219,13.035156,12.894531,13.289062,13.007812C13.535156,13.121094,13.8125,13.183594,14.101562,13.183594ZM4.636719,8.441406C5.25,8.441406,5.75,7.945312,5.75,7.332031C5.75,6.71875,5.25,6.226562,4.636719,6.226562C4.023438,6.226562,3.523438,6.71875,3.523438,7.332031C3.523438,7.945312,4.023438,8.441406,4.636719,8.441406ZM4.792969,12.28125C4.617188,12.578125,4.234375,12.679688,3.9375,12.503906C3.636719,12.332031,3.535156,11.945312,3.710938,11.648438L6.292969,7.21875C6.386719,7.050781,6.523438,6.914062,6.6875,6.820312L10.007812,4.816406L12.261719,0.992188C12.476562,0.617188,12.953125,0.488281,13.328125,0.703125C13.699219,0.917969,13.828125,1.394531,13.613281,1.765625L10.910156,6.347656C10.820312,6.511719,10.683594,6.652344,10.515625,6.742188L6.597656,9.167969ZM4.792969,12.28125"></path> </svg>