<?xml version="1.0" encoding="utf-8"?> <!DOCTYPE svg PUBLIC "-//W3C//DTD SVG 1.1//EN" "http://www.w3.org/Graphics/SVG/1.1/DTD/svg11.dtd"><svg version="1.1" id="marker-circle-blue" xmlns="http://www.w3.org/2000/svg" xmlns:xlink="http://www.w3.org/1999/xlink" x="0px"  y="0px" width="24px" height="36px" viewBox="0 0 24 36" enable-background="new 0 0 24 36" xml:space="preserve"><path fill="#EF9228" d="M20.103,0.57H2.959c-1.893,0-3.365,0.487-3.365,2.472l-0.063,18.189c0,1.979,1.526,3.724,3.418,3.724h4.558
		l4.01,11.545l3.966-11.545h4.56c1.894,0,3.488-1.744,3.488-3.724V4.166C23.531,2.18,21.996,0.57,20.103,0.57z"></path><path fill="#ffffff" transform="translate(4.5 4.5)" d="M13.265625,10.171875C13.050781,10.867188,12.707031,11.566406,12.238281,12.261719C11.519531,13.355469,10.800781,13.902344,10.085938,13.902344C9.8125,13.902344,9.421875,13.8125,8.914062,13.636719C8.433594,13.457031,8.011719,13.367188,7.652344,13.367188C7.308594,13.367188,6.914062,13.460938,6.460938,13.644531C6.011719,13.832031,5.640625,13.929688,5.355469,13.929688C4.507812,13.929688,3.667969,13.207031,2.835938,11.761719C2.015625,10.304688,1.605469,8.902344,1.605469,7.550781C1.605469,6.277344,1.921875,5.234375,2.554688,4.417969C3.179688,3.617188,3.96875,3.214844,4.929688,3.214844C5.332031,3.214844,5.824219,3.296875,6.410156,3.464844C6.992188,3.632812,7.378906,3.714844,7.566406,3.714844C7.816406,3.714844,8.21875,3.621094,8.765625,3.433594C9.332031,3.242188,9.816406,3.148438,10.210938,3.148438C10.875,3.148438,11.46875,3.328125,11.996094,3.691406C12.285156,3.890625,12.574219,4.171875,12.867188,4.527344C12.425781,4.902344,12.105469,5.230469,11.910156,5.515625C11.546875,6.039062,11.367188,6.617188,11.367188,7.25C11.367188,7.941406,11.558594,8.5625,11.945312,9.117188C12.328125,9.667969,12.769531,10.019531,13.265625,10.171875ZM10.121094,0.351562C10.121094,0.691406,10.039062,1.070312,9.878906,1.488281C9.710938,1.910156,9.449219,2.292969,9.097656,2.644531C8.796875,2.945312,8.496094,3.148438,8.195312,3.246094C7.988281,3.308594,7.699219,3.355469,7.324219,3.390625C7.339844,2.558594,7.558594,1.839844,7.976562,1.238281C8.390625,0.640625,9.085938,0.230469,10.070312,0C10.074219,0.015625,10.082031,0.046875,10.089844,0.09375C10.097656,0.136719,10.105469,0.167969,10.113281,0.183594C10.113281,0.207031,10.113281,0.234375,10.117188,0.269531C10.117188,0.300781,10.121094,0.328125,10.121094,0.351562ZM10.121094,0.351562"></path> </svg>