<?xml version="1.0" encoding="utf-8"?> <!DOCTYPE svg PUBLIC "-//W3C//DTD SVG 1.1//EN" "http://www.w3.org/Graphics/SVG/1.1/DTD/svg11.dtd"><svg version="1.1" id="marker-circle-blue" xmlns="http://www.w3.org/2000/svg" xmlns:xlink="http://www.w3.org/1999/xlink" x="0px"  y="0px" width="24px" height="36px" viewBox="0 0 24 36" enable-background="new 0 0 24 36" xml:space="preserve"><path fill="#A23337" d="M20.103,0.57H2.959c-1.893,0-3.365,0.487-3.365,2.472l-0.063,18.189c0,1.979,1.526,3.724,3.418,3.724h4.558
		l4.01,11.545l3.966-11.545h4.56c1.894,0,3.488-1.744,3.488-3.724V4.166C23.531,2.18,21.996,0.57,20.103,0.57z"></path><path fill="#ffffff" transform="translate(4.5 4.5)" d="M12.5547,1c-2.1441,0,-5.0211,1.471,-6.9531,4H4C2.8427,5,2.1794,5.8638,1.7227,6.7773L1.1113,8h1.4434H4l1.5,1.5L7,11v1.4453v1.4434l1.2227,-0.6113C9.1362,12.8206,10,12.1573,10,11V9.3984c2.529,-1.932,4,-4.809,4,-6.9531V1H12.5547zM10,4c0.5523,0,1,0.4477,1,1l0,0c0,0.5523,-0.4477,1,-1,1l0,0C9.4477,6,9,5.5523,9,5v0C9,4.4477,9.4477,4,10,4L10,4zM3.5,10L3,10.5C2.2778,11.2222,2,13,2,13s1.698,-0.198,2.5,-1L5,11.5L3.5,10z"></path> </svg>