<?xml version="1.0" encoding="utf-8"?> <!DOCTYPE svg PUBLIC "-//W3C//DTD SVG 1.1//EN" "http://www.w3.org/Graphics/SVG/1.1/DTD/svg11.dtd"><svg version="1.1" id="marker-circle-blue" xmlns="http://www.w3.org/2000/svg" xmlns:xlink="http://www.w3.org/1999/xlink" x="0px"  y="0px" width="24px" height="36px" viewBox="0 0 24 36" enable-background="new 0 0 24 36" xml:space="preserve"><path fill="#5B396C" d="M20.103,0.57H2.959c-1.893,0-3.365,0.487-3.365,2.472l-0.063,18.189c0,1.979,1.526,3.724,3.418,3.724h4.558
		l4.01,11.545l3.966-11.545h4.56c1.894,0,3.488-1.744,3.488-3.724V4.166C23.531,2.18,21.996,0.57,20.103,0.57z"></path><path fill="#ffffff" transform="translate(4.5 4.5)" d="M 4.199219 4.800781 C 5.101562 5.101562 5.699219 5.863281 5.699219 6.871094 L 5.699219 14.617188 C 5.699219 14.855469 5.941406 15 5.695312 15 L 1.253906 15 C 1.007812 15 0.898438 14.855469 0.898438 14.617188 L 0.898438 6.871094 C 0.898438 5.863281 1.5 5.027344 2.398438 4.800781 L 2.398438 1.199219 L 4.199219 1.199219 Z M 2.398438 0 L 4.199219 0 L 4.199219 0.601562 L 2.398438 0.601562 Z M 10.578125 1.433594 C 10.4375 1.414062 10.335938 1.304688 10.335938 1.171875 C 10.335938 1.074219 10.394531 0.988281 10.476562 0.9375 C 10.394531 0.894531 10.335938 0.734375 10.335938 0.636719 C 10.335938 0.488281 10.460938 0.300781 10.613281 0.300781 L 12.019531 0.300781 C 12.175781 0.300781 12.300781 0.488281 12.300781 0.636719 C 12.300781 0.738281 12.242188 0.859375 12.152344 0.902344 C 12.238281 0.949219 12.300781 1.050781 12.300781 1.152344 C 12.300781 1.289062 12.199219 1.40625 12.0625 1.425781 L 13.851562 5.804688 C 13.957031 6.089844 14.101562 6.410156 14.101562 6.722656 L 14.101562 14.398438 C 14.101562 14.691406 14.109375 15 13.800781 15 L 9.273438 15 C 8.960938 15 9 14.691406 9 14.398438 L 9 6.601562 C 9 6.285156 9.058594 6.09375 9.164062 5.808594 Z M 10.578125 1.433594 "></path> </svg>