<?xml version="1.0" encoding="utf-8"?> <!DOCTYPE svg PUBLIC "-//W3C//DTD SVG 1.1//EN" "http://www.w3.org/Graphics/SVG/1.1/DTD/svg11.dtd"><svg version="1.1" id="marker-circle-blue" xmlns="http://www.w3.org/2000/svg" xmlns:xlink="http://www.w3.org/1999/xlink" x="0px"  y="0px" width="24px" height="36px" viewBox="0 0 24 36" enable-background="new 0 0 24 36" xml:space="preserve"><path fill="#F5BB3A" d="M20.103,0.57H2.959c-1.893,0-3.365,0.487-3.365,2.472l-0.063,18.189c0,1.979,1.526,3.724,3.418,3.724h4.558
		l4.01,11.545l3.966-11.545h4.56c1.894,0,3.488-1.744,3.488-3.724V4.166C23.531,2.18,21.996,0.57,20.103,0.57z"></path><path fill="#ffffff" transform="translate(4.5 4.5)" d="M4.269531,11.851562L13.414062,11.851562L13.414062,4.027344L4.269531,4.027344ZM8.917969,4.804688L12.214844,7.683594L11.382812,7.683594L11.382812,11.140625L9.453125,11.140625L9.453125,8.699219L8.234375,8.699219L8.234375,11.140625L6.40625,11.140625L6.40625,7.683594L5.554688,7.683594ZM3.253906,2.09375L3.253906,0.304688L1.222656,0.304688L1.222656,15L3.253906,15L3.253906,3.011719L13.824219,3.011719L13.824219,2.09375ZM3.253906,2.09375"></path> </svg>