<?xml version="1.0" encoding="utf-8"?> <!DOCTYPE svg PUBLIC "-//W3C//DTD SVG 1.1//EN" "http://www.w3.org/Graphics/SVG/1.1/DTD/svg11.dtd"><svg version="1.1" id="marker-circle-blue" xmlns="http://www.w3.org/2000/svg" xmlns:xlink="http://www.w3.org/1999/xlink" x="0px"  y="0px" width="24px" height="36px" viewBox="0 0 24 36" enable-background="new 0 0 24 36" xml:space="preserve"><path fill="#EF9228" d="M20.103,0.57H2.959c-1.893,0-3.365,0.487-3.365,2.472l-0.063,18.189c0,1.979,1.526,3.724,3.418,3.724h4.558
		l4.01,11.545l3.966-11.545h4.56c1.894,0,3.488-1.744,3.488-3.724V4.166C23.531,2.18,21.996,0.57,20.103,0.57z"></path><path fill="#ffffff" transform="translate(4.5 4.5)" d="M12.273438,6.796875C11.894531,6.796875,11.53125,6.875,11.203125,7.011719L10.28125,5.433594L10.976562,4.238281C11.070312,4.078125,11.015625,3.867188,10.855469,3.773438C10.78125,3.730469,10.703125,3.65625,10.628906,3.667969L10.570312,3.601562L9.203125,3.601562C9.015625,3.601562,8.863281,3.863281,8.863281,4.050781C8.863281,4.238281,9.015625,4.5,9.203125,4.5L10.089844,4.5L9.691406,5.101562L5.707031,5.101562L6.503906,3.601562L6.816406,3.601562C7.007812,3.601562,7.160156,3.488281,7.160156,3.300781C7.160156,3.113281,7.007812,3,6.816406,3L5.113281,3C4.925781,3,4.773438,3.113281,4.773438,3.300781C4.773438,3.488281,4.925781,3.601562,5.113281,3.601562L5.714844,3.601562L3.796875,6.949219C3.46875,6.808594,3.105469,6.761719,2.726562,6.761719C1.222656,6.761719,0,8,0,9.507812C0,11.011719,1.222656,12.242188,2.726562,12.242188C4.234375,12.242188,5.453125,11.023438,5.453125,9.519531C5.453125,8.636719,5.035156,7.855469,4.382812,7.355469L5.113281,6.105469L7.207031,9.695312L7.230469,9.730469L7.257812,9.761719L7.277344,9.78125L7.304688,9.800781L7.316406,9.808594L7.324219,9.816406L7.328125,9.816406L7.359375,9.832031L7.363281,9.832031L7.367188,9.835938L7.371094,9.835938L7.394531,9.84375L7.414062,9.851562L7.417969,9.851562L7.425781,9.855469L7.4375,9.855469L7.5,9.863281L7.5,9.898438L9.570312,9.898438C9.738281,11.101562,10.882812,12.269531,12.273438,12.269531C13.777344,12.269531,15,11.039062,15,9.53125C15,8.027344,13.777344,6.796875,12.273438,6.796875ZM4.773438,9.523438C4.773438,10.652344,3.855469,11.566406,2.726562,11.566406C1.597656,11.566406,0.683594,10.652344,0.683594,9.523438C0.683594,8.394531,1.597656,7.476562,2.726562,7.476562C2.980469,7.476562,3.222656,7.527344,3.449219,7.609375L2.433594,9.351562C2.339844,9.511719,2.394531,9.722656,2.554688,9.816406C2.609375,9.847656,2.667969,9.863281,2.726562,9.863281C2.84375,9.863281,2.957031,9.804688,3.023438,9.695312L4.039062,7.953125C4.488281,8.328125,4.773438,8.890625,4.773438,9.523438ZM7.5,8.773438L5.707031,5.699219L9.292969,5.699219ZM9.886719,6.167969L10.617188,7.449219C10.050781,7.882812,9.660156,8.398438,9.570312,9.300781L8.09375,9.300781ZM10.960938,8.070312L11.679688,9.300781L10.257812,9.300781C10.339844,8.699219,10.597656,8.378906,10.960938,8.070312ZM12.273438,11.585938C11.257812,11.585938,10.421875,10.800781,10.257812,9.898438L12.273438,9.898438L12.273438,9.882812L12.335938,9.867188L12.347656,9.859375L12.40625,9.839844L12.410156,9.835938L12.445312,9.816406L12.453125,9.8125L12.484375,9.789062L12.507812,9.769531L12.53125,9.746094L12.550781,9.71875L12.582031,9.664062L12.605469,9.601562L12.609375,9.570312L12.613281,9.53125L12.613281,9.503906L12.609375,9.464844L12.601562,9.433594L12.589844,9.402344L12.574219,9.367188L12.566406,9.351562L11.550781,7.609375C11.777344,7.527344,12.019531,7.476562,12.273438,7.476562C13.402344,7.476562,14.320312,8.402344,14.320312,9.53125C14.320312,10.660156,13.402344,11.585938,12.273438,11.585938ZM12.273438,11.585938"></path> </svg>