<?xml version="1.0" encoding="utf-8"?> <!DOCTYPE svg PUBLIC "-//W3C//DTD SVG 1.1//EN" "http://www.w3.org/Graphics/SVG/1.1/DTD/svg11.dtd"><svg version="1.1" id="marker-circle-blue" xmlns="http://www.w3.org/2000/svg" xmlns:xlink="http://www.w3.org/1999/xlink" x="0px"  y="0px" width="24px" height="36px" viewBox="0 0 24 36" enable-background="new 0 0 24 36" xml:space="preserve"><path fill="#EF9228" d="M20.103,0.57H2.959c-1.893,0-3.365,0.487-3.365,2.472l-0.063,18.189c0,1.979,1.526,3.724,3.418,3.724h4.558
		l4.01,11.545l3.966-11.545h4.56c1.894,0,3.488-1.744,3.488-3.724V4.166C23.531,2.18,21.996,0.57,20.103,0.57z"></path><path fill="#ffffff" transform="translate(4.5 4.5)" d="M14,6.5V12c0,0.5523-0.4477,1-1,1H2c-0.5523,0-1-0.4477-1-1V6.5C1,6.2239,1.2239,6,1.5,6
	c0.0692-0.0152,0.1408-0.0152,0.21,0l0,0l5.79,4l5.8-4l0,0c0.066-0.0138,0.134-0.0138,0.2,0C13.7761,6,14,6.2239,14,6.5z M1.25,3.92
	L1.25,3.92L1.33,4L7.5,8l6.19-4l0,0h0.06l0,0c0.1796-0.0981,0.2792-0.2975,0.25-0.5C14,3.2239,13.7761,3,13.5,3h-12
	C1.2239,3,1,3.2239,1,3.5C1.0026,3.6745,1.0978,3.8345,1.25,3.92z"></path> </svg>