<?xml version="1.0" encoding="utf-8"?> <!DOCTYPE svg PUBLIC "-//W3C//DTD SVG 1.1//EN" "http://www.w3.org/Graphics/SVG/1.1/DTD/svg11.dtd"><svg version="1.1" id="marker-circle-blue" xmlns="http://www.w3.org/2000/svg" xmlns:xlink="http://www.w3.org/1999/xlink" x="0px"  y="0px" width="24px" height="36px" viewBox="0 0 24 36" enable-background="new 0 0 24 36" xml:space="preserve"><path fill="#EF9228" d="M20.103,0.57H2.959c-1.893,0-3.365,0.487-3.365,2.472l-0.063,18.189c0,1.979,1.526,3.724,3.418,3.724h4.558
		l4.01,11.545l3.966-11.545h4.56c1.894,0,3.488-1.744,3.488-3.724V4.166C23.531,2.18,21.996,0.57,20.103,0.57z"></path><path fill="#ffffff" transform="translate(4.5 4.5)" d="M4.5,3C3.6716,3,3,2.3284,3,1.5S3.6716,0,4.5,0S6,0.6716,6,1.5S5.3284,3,4.5,3z M14,1.5C14,0.6716,13.3284,0,12.5,0
	S11,0.6716,11,1.5S11.6716,3,12.5,3S14,2.3284,14,1.5z M8.86,6.64L8.86,6.64L6.38,4.15l0,0C6.2798,4.0492,6.142,3.9949,6,4H3
	C2.8697,4.0003,2.7445,4.0503,2.65,4.14l0,0L0.14,6.63c-0.2261,0.177-0.2659,0.5039-0.0889,0.73s0.5039,0.2659,0.73,0.0889
	C0.8142,7.423,0.8441,7.3931,0.87,7.36L3,5.2L1,11h2v3.33c-0.0075,0.0497-0.0075,0.1003,0,0.15
	c0.0555,0.2761,0.3244,0.455,0.6005,0.3995C3.802,14.839,3.9595,14.6815,4,14.48l0,0V11h1v3.5l0,0
	c0.0555,0.2761,0.3244,0.455,0.6005,0.3995C5.802,14.859,5.9595,14.7015,6,14.5c0.0075-0.0497,0.0075-0.1003,0-0.15V11h2L6,5.2
	l2.14,2.16l0,0c0.0967,0.1081,0.2349,0.17,0.38,0.17C8.7954,7.5088,9.0061,7.2761,9,7C9.0023,6.8663,8.9521,6.737,8.86,6.64z
	 M14.5,4h-4C10.2239,4,10,4.2239,10,4.5v5c0,0.2761,0.2239,0.5,0.5,0.5S11,9.7761,11,9.5v5c0,0.2761,0.2239,0.5,0.5,0.5
	s0.5-0.2239,0.5-0.5v-5h1v5c0,0.2761,0.2239,0.5,0.5,0.5s0.5-0.2239,0.5-0.5v-5c0,0.2761,0.2239,0.5,0.5,0.5S15,9.7761,15,9.5v-5
	C15,4.2239,14.7761,4,14.5,4z"></path> </svg>