<?xml version="1.0" encoding="utf-8"?> <!DOCTYPE svg PUBLIC "-//W3C//DTD SVG 1.1//EN" "http://www.w3.org/Graphics/SVG/1.1/DTD/svg11.dtd"><svg version="1.1" id="marker-circle-blue" xmlns="http://www.w3.org/2000/svg" xmlns:xlink="http://www.w3.org/1999/xlink" x="0px"  y="0px" width="24px" height="36px" viewBox="0 0 24 36" enable-background="new 0 0 24 36" xml:space="preserve"><path fill="#EF9228" d="M20.103,0.57H2.959c-1.893,0-3.365,0.487-3.365,2.472l-0.063,18.189c0,1.979,1.526,3.724,3.418,3.724h4.558
		l4.01,11.545l3.966-11.545h4.56c1.894,0,3.488-1.744,3.488-3.724V4.166C23.531,2.18,21.996,0.57,20.103,0.57z"></path><path fill="#ffffff" transform="translate(4.5 4.5)" d="M11.804688,5.101562L3.121094,5.101562C1.570312,5.101562,0.300781,6.191406,0.300781,7.648438C0.300781,9.109375,1.570312,10.199219,3.121094,10.199219L11.804688,10.199219C13.355469,10.199219,14.625,9.109375,14.625,7.648438C14.625,6.191406,13.355469,5.101562,11.804688,5.101562ZM11.804688,9.601562L7.5,9.601562L7.5,5.699219L11.804688,5.699219C12.949219,5.699219,13.886719,6.574219,13.886719,7.648438C13.886719,8.726562,12.949219,9.601562,11.804688,9.601562ZM11.804688,9.601562"></path> </svg>