<?xml version="1.0" encoding="utf-8"?> <!DOCTYPE svg PUBLIC "-//W3C//DTD SVG 1.1//EN" "http://www.w3.org/Graphics/SVG/1.1/DTD/svg11.dtd"><svg version="1.1" id="marker-circle-blue" xmlns="http://www.w3.org/2000/svg" xmlns:xlink="http://www.w3.org/1999/xlink" x="0px"  y="0px" width="24px" height="36px" viewBox="0 0 24 36" enable-background="new 0 0 24 36" xml:space="preserve"><path fill="#A23337" d="M20.103,0.57H2.959c-1.893,0-3.365,0.487-3.365,2.472l-0.063,18.189c0,1.979,1.526,3.724,3.418,3.724h4.558
		l4.01,11.545l3.966-11.545h4.56c1.894,0,3.488-1.744,3.488-3.724V4.166C23.531,2.18,21.996,0.57,20.103,0.57z"></path><path fill="#ffffff" transform="translate(4.5 4.5)" d="M 7.6811441,0.3845339 C 7.1074871,0.9581909 6.6438573,1.7807134 6.5,2.5 6.4213803,2.8930985 6.38606,3.8255659 6.375,4.281125 6.5830531,4.4032096 6.7911853,4.499514 7,4.656125 7.2211442,4.4902669 7.4360105,4.3770848 7.65625,4.249875 7.6737853,3.8551732 7.6944029,3.0279856 7.75,2.75 7.8561427,2.2192866 8.1298011,1.6858769 8.5561441,1.2595339 z M 0.5,1 C 1.0359156,3 3.3537505,4 5.5,3 4.5967177,1 3,0.36207008 0.5,1 z M 2,5.25 C 1.3855932,5.8940678 1,7 1,8 c 0,2 2,5.5 4,5.5 0.5635593,0 1,-0.25 2,-0.75 1,0.5 1.4364407,0.75 2,0.75 2,0 4,-3.5 4,-5.5 C 13,7 12.673729,5.8940678 12,5.25 10.977751,4.2727555 9,4.24975 7,5.74975 5,4.3360985 3,4.1445974 2,5.25 z"></path> </svg>