<?xml version="1.0" encoding="utf-8"?> <!DOCTYPE svg PUBLIC "-//W3C//DTD SVG 1.1//EN" "http://www.w3.org/Graphics/SVG/1.1/DTD/svg11.dtd"><svg version="1.1" id="marker-circle-blue" xmlns="http://www.w3.org/2000/svg" xmlns:xlink="http://www.w3.org/1999/xlink" x="0px"  y="0px" width="24px" height="36px" viewBox="0 0 24 36" enable-background="new 0 0 24 36" xml:space="preserve"><path fill="#5B396C" d="M20.103,0.57H2.959c-1.893,0-3.365,0.487-3.365,2.472l-0.063,18.189c0,1.979,1.526,3.724,3.418,3.724h4.558
		l4.01,11.545l3.966-11.545h4.56c1.894,0,3.488-1.744,3.488-3.724V4.166C23.531,2.18,21.996,0.57,20.103,0.57z"></path><path fill="#ffffff" transform="translate(4.5 4.5)" d="M6.964844,4.285156C6.964844,3.839844,6.808594,3.460938,6.496094,3.148438C6.183594,2.835938,5.804688,2.679688,5.355469,2.679688C4.910156,2.679688,4.53125,2.835938,4.21875,3.148438C3.90625,3.460938,3.75,3.839844,3.75,4.285156C3.75,4.519531,3.804688,4.75,3.910156,4.980469C3.679688,4.875,3.449219,4.820312,3.214844,4.820312C2.769531,4.820312,2.386719,4.976562,2.074219,5.289062C1.761719,5.601562,1.605469,5.980469,1.605469,6.429688C1.605469,6.875,1.761719,7.253906,2.074219,7.566406C2.386719,7.878906,2.769531,8.035156,3.214844,8.035156C3.660156,8.035156,4.039062,7.878906,4.351562,7.566406C4.664062,7.253906,4.820312,6.875,4.820312,6.429688C4.820312,6.195312,4.769531,5.960938,4.664062,5.734375C4.890625,5.839844,5.121094,5.894531,5.355469,5.894531C5.804688,5.894531,6.183594,5.738281,6.496094,5.425781C6.808594,5.113281,6.964844,4.730469,6.964844,4.285156ZM14.085938,10.179688C14.085938,10.273438,13.949219,10.457031,13.675781,10.730469C13.402344,11.003906,13.21875,11.140625,13.125,11.140625C13.074219,11.140625,12.996094,11.097656,12.886719,11.007812C12.777344,10.917969,12.675781,10.824219,12.582031,10.730469C12.484375,10.636719,12.378906,10.523438,12.257812,10.394531C12.136719,10.269531,12.070312,10.195312,12.054688,10.179688L11.25,10.980469L13.089844,12.824219C13.246094,12.980469,13.324219,13.167969,13.324219,13.394531C13.324219,13.628906,13.21875,13.851562,13,14.070312C12.78125,14.289062,12.554688,14.398438,12.320312,14.398438C12.097656,14.398438,11.910156,14.320312,11.753906,14.164062L6.136719,8.546875C5.152344,9.277344,4.136719,9.644531,3.082031,9.644531C2.171875,9.644531,1.429688,9.355469,0.859375,8.785156C0.285156,8.210938,0,7.472656,0,6.5625C0,5.667969,0.265625,4.796875,0.796875,3.941406C1.324219,3.089844,2.015625,2.398438,2.871094,1.867188C3.726562,1.335938,4.597656,1.070312,5.492188,1.070312C6.402344,1.070312,7.140625,1.355469,7.714844,1.929688C8.285156,2.5,8.570312,3.242188,8.570312,4.152344C8.570312,5.207031,8.207031,6.226562,7.476562,7.207031L10.445312,10.179688L11.25,9.375C11.234375,9.359375,11.160156,9.289062,11.03125,9.171875C10.902344,9.050781,10.792969,8.941406,10.699219,8.847656C10.601562,8.753906,10.511719,8.652344,10.421875,8.542969C10.332031,8.433594,10.289062,8.355469,10.289062,8.304688C10.289062,8.207031,10.425781,8.023438,10.699219,7.75C10.972656,7.476562,11.15625,7.339844,11.25,7.339844C11.324219,7.339844,11.386719,7.367188,11.441406,7.425781C11.476562,7.457031,11.605469,7.582031,11.828125,7.796875C12.050781,8.011719,12.28125,8.234375,12.515625,8.460938C12.75,8.691406,12.988281,8.929688,13.238281,9.183594C13.484375,9.433594,13.691406,9.652344,13.847656,9.835938C14.007812,10.019531,14.085938,10.132812,14.085938,10.179688ZM14.085938,10.179688"></path> </svg>