<?xml version="1.0" encoding="utf-8"?> <!DOCTYPE svg PUBLIC "-//W3C//DTD SVG 1.1//EN" "http://www.w3.org/Graphics/SVG/1.1/DTD/svg11.dtd"><svg version="1.1" id="marker-circle-blue" xmlns="http://www.w3.org/2000/svg" xmlns:xlink="http://www.w3.org/1999/xlink" x="0px"  y="0px" width="24px" height="36px" viewBox="0 0 24 36" enable-background="new 0 0 24 36" xml:space="preserve"><path fill="#5B396C" d="M20.103,0.57H2.959c-1.893,0-3.365,0.487-3.365,2.472l-0.063,18.189c0,1.979,1.526,3.724,3.418,3.724h4.558
		l4.01,11.545l3.966-11.545h4.56c1.894,0,3.488-1.744,3.488-3.724V4.166C23.531,2.18,21.996,0.57,20.103,0.57z"></path><path fill="#ffffff" transform="translate(4.5 4.5)" d="M 8.570312 4.554688 L 8.570312 8.304688 C 8.570312 8.382812 8.546875 8.445312 8.496094 8.496094 C 8.445312 8.546875 8.382812 8.570312 8.304688 8.570312 L 5.625 8.570312 C 5.546875 8.570312 5.484375 8.546875 5.433594 8.496094 C 5.382812 8.445312 5.355469 8.382812 5.355469 8.304688 L 5.355469 7.769531 C 5.355469 7.691406 5.382812 7.625 5.433594 7.574219 C 5.484375 7.523438 5.546875 7.5 5.625 7.5 L 7.5 7.5 L 7.5 4.554688 C 7.5 4.476562 7.523438 4.410156 7.574219 4.359375 C 7.625 4.3125 7.691406 4.285156 7.769531 4.285156 L 8.304688 4.285156 C 8.382812 4.285156 8.445312 4.3125 8.496094 4.359375 C 8.546875 4.410156 8.570312 4.476562 8.570312 4.554688 Z M 12.054688 7.5 C 12.054688 6.675781 11.851562 5.914062 11.441406 5.214844 C 11.035156 4.515625 10.484375 3.964844 9.785156 3.558594 C 9.085938 3.148438 8.324219 2.945312 7.5 2.945312 C 6.675781 2.945312 5.914062 3.148438 5.214844 3.558594 C 4.515625 3.964844 3.964844 4.515625 3.558594 5.214844 C 3.148438 5.914062 2.945312 6.675781 2.945312 7.5 C 2.945312 8.324219 3.148438 9.085938 3.558594 9.785156 C 3.964844 10.484375 4.515625 11.035156 5.214844 11.441406 C 5.914062 11.851562 6.675781 12.054688 7.5 12.054688 C 8.324219 12.054688 9.085938 11.851562 9.785156 11.441406 C 10.484375 11.035156 11.035156 10.484375 11.441406 9.785156 C 11.851562 9.085938 12.054688 8.324219 12.054688 7.5 Z M 13.929688 7.5 C 13.929688 8.667969 13.640625 9.742188 13.066406 10.726562 C 12.492188 11.710938 11.710938 12.492188 10.726562 13.066406 C 9.742188 13.640625 8.667969 13.929688 7.5 13.929688 C 6.332031 13.929688 5.257812 13.640625 4.273438 13.066406 C 3.289062 12.492188 2.507812 11.710938 1.933594 10.726562 C 1.359375 9.742188 1.070312 8.667969 1.070312 7.5 C 1.070312 6.332031 1.359375 5.257812 1.933594 4.273438 C 2.507812 3.289062 3.289062 2.507812 4.273438 1.933594 C 5.257812 1.359375 6.332031 1.070312 7.5 1.070312 C 8.667969 1.070312 9.742188 1.359375 10.726562 1.933594 C 11.710938 2.507812 12.492188 3.289062 13.066406 4.273438 C 13.640625 5.257812 13.929688 6.332031 13.929688 7.5 Z M 13.929688 7.5 "></path> </svg>