<?xml version="1.0" encoding="utf-8"?> <!DOCTYPE svg PUBLIC "-//W3C//DTD SVG 1.1//EN" "http://www.w3.org/Graphics/SVG/1.1/DTD/svg11.dtd"><svg version="1.1" id="marker-circle-blue" xmlns="http://www.w3.org/2000/svg" xmlns:xlink="http://www.w3.org/1999/xlink" x="0px"  y="0px" width="24px" height="36px" viewBox="0 0 24 36" enable-background="new 0 0 24 36" xml:space="preserve"><path fill="#EF9228" d="M20.103,0.57H2.959c-1.893,0-3.365,0.487-3.365,2.472l-0.063,18.189c0,1.979,1.526,3.724,3.418,3.724h4.558
		l4.01,11.545l3.966-11.545h4.56c1.894,0,3.488-1.744,3.488-3.724V4.166C23.531,2.18,21.996,0.57,20.103,0.57z"></path><path fill="#ffffff" transform="translate(4.5 4.5)" d="M7.5,5.625C8.164062,5.625,8.730469,5.859375,9.203125,6.332031C9.675781,6.804688,9.910156,7.371094,9.910156,8.035156C9.910156,8.699219,9.675781,9.265625,9.203125,9.738281C8.730469,10.210938,8.164062,10.445312,7.5,10.445312C6.835938,10.445312,6.269531,10.210938,5.796875,9.738281C5.324219,9.265625,5.089844,8.699219,5.089844,8.035156C5.089844,7.371094,5.324219,6.804688,5.796875,6.332031C6.269531,5.859375,6.835938,5.625,7.5,5.625ZM13.394531,2.144531C13.984375,2.144531,14.488281,2.351562,14.90625,2.769531C15.328125,3.1875,15.535156,3.695312,15.535156,4.285156L15.535156,11.785156C15.535156,12.378906,15.328125,12.882812,14.90625,13.300781C14.488281,13.71875,13.984375,13.929688,13.394531,13.929688L1.605469,13.929688C1.015625,13.929688,0.511719,13.71875,0.09375,13.300781C-0.328125,12.882812,-0.535156,12.378906,-0.535156,11.785156L-0.535156,4.285156C-0.535156,3.695312,-0.328125,3.1875,0.09375,2.769531C0.511719,2.351562,1.015625,2.144531,1.605469,2.144531L3.480469,2.144531L3.910156,1.003906C4.015625,0.730469,4.210938,0.496094,4.492188,0.296875C4.773438,0.0976562,5.0625,0,5.355469,0L9.644531,0C9.9375,0,10.226562,0.0976562,10.507812,0.296875C10.789062,0.496094,10.984375,0.730469,11.089844,1.003906L11.519531,2.144531ZM7.5,11.785156C8.53125,11.785156,9.414062,11.417969,10.148438,10.683594C10.882812,9.949219,11.25,9.066406,11.25,8.035156C11.25,7.003906,10.882812,6.121094,10.148438,5.386719C9.414062,4.652344,8.53125,4.285156,7.5,4.285156C6.46875,4.285156,5.585938,4.652344,4.851562,5.386719C4.117188,6.121094,3.75,7.003906,3.75,8.035156C3.75,9.066406,4.117188,9.949219,4.851562,10.683594C5.585938,11.417969,6.46875,11.785156,7.5,11.785156ZM7.5,11.785156"></path> </svg>