<?xml version="1.0" encoding="utf-8"?> <!DOCTYPE svg PUBLIC "-//W3C//DTD SVG 1.1//EN" "http://www.w3.org/Graphics/SVG/1.1/DTD/svg11.dtd"><svg version="1.1" id="marker-circle-blue" xmlns="http://www.w3.org/2000/svg" xmlns:xlink="http://www.w3.org/1999/xlink" x="0px"  y="0px" width="24px" height="36px" viewBox="0 0 24 36" enable-background="new 0 0 24 36" xml:space="preserve"><path fill="#0E5F71" d="M20.103,0.57H2.959c-1.893,0-3.365,0.487-3.365,2.472l-0.063,18.189c0,1.979,1.526,3.724,3.418,3.724h4.558
		l4.01,11.545l3.966-11.545h4.56c1.894,0,3.488-1.744,3.488-3.724V4.166C23.531,2.18,21.996,0.57,20.103,0.57z"></path><path fill="#ffffff" transform="translate(4.5 4.5)" d="M15,11.25L15,12.320312C15,12.464844,14.945312,12.59375,14.839844,12.699219C14.734375,12.804688,14.609375,12.855469,14.464844,12.855469L0.535156,12.855469C0.390625,12.855469,0.265625,12.804688,0.160156,12.699219C0.0546875,12.59375,0,12.464844,0,12.320312L0,11.25C0,11.105469,0.0546875,10.980469,0.160156,10.875C0.265625,10.765625,0.390625,10.714844,0.535156,10.714844L14.464844,10.714844C14.609375,10.714844,14.734375,10.765625,14.839844,10.875C14.945312,10.980469,15,11.105469,15,11.25ZM15,8.035156L15,9.105469C15,9.253906,14.945312,9.378906,14.839844,9.484375C14.734375,9.589844,14.609375,9.644531,14.464844,9.644531L0.535156,9.644531C0.390625,9.644531,0.265625,9.589844,0.160156,9.484375C0.0546875,9.378906,0,9.253906,0,9.105469L0,8.035156C0,7.890625,0.0546875,7.765625,0.160156,7.660156C0.265625,7.554688,0.390625,7.5,0.535156,7.5L14.464844,7.5C14.609375,7.5,14.734375,7.554688,14.839844,7.660156C14.945312,7.765625,15,7.890625,15,8.035156ZM15,4.820312L15,5.894531C15,6.039062,14.945312,6.164062,14.839844,6.269531C14.734375,6.375,14.609375,6.429688,14.464844,6.429688L0.535156,6.429688C0.390625,6.429688,0.265625,6.375,0.160156,6.269531C0.0546875,6.164062,0,6.039062,0,5.894531L0,4.820312C0,4.675781,0.0546875,4.550781,0.160156,4.445312C0.265625,4.339844,0.390625,4.285156,0.535156,4.285156L14.464844,4.285156C14.609375,4.285156,14.734375,4.339844,14.839844,4.445312C14.945312,4.550781,15,4.675781,15,4.820312ZM15,1.605469L15,2.679688C15,2.824219,14.945312,2.949219,14.839844,3.054688C14.734375,3.160156,14.609375,3.214844,14.464844,3.214844L0.535156,3.214844C0.390625,3.214844,0.265625,3.160156,0.160156,3.054688C0.0546875,2.949219,0,2.824219,0,2.679688L0,1.605469C0,1.460938,0.0546875,1.335938,0.160156,1.230469C0.265625,1.125,0.390625,1.070312,0.535156,1.070312L14.464844,1.070312C14.609375,1.070312,14.734375,1.125,14.839844,1.230469C14.945312,1.335938,15,1.460938,15,1.605469ZM15,1.605469"></path> </svg>