<?xml version="1.0" encoding="utf-8"?> <!DOCTYPE svg PUBLIC "-//W3C//DTD SVG 1.1//EN" "http://www.w3.org/Graphics/SVG/1.1/DTD/svg11.dtd"><svg version="1.1" id="marker-circle-blue" xmlns="http://www.w3.org/2000/svg" xmlns:xlink="http://www.w3.org/1999/xlink" x="0px"  y="0px" width="24px" height="36px" viewBox="0 0 24 36" enable-background="new 0 0 24 36" xml:space="preserve"><path fill="#5B396C" d="M20.103,0.57H2.959c-1.893,0-3.365,0.487-3.365,2.472l-0.063,18.189c0,1.979,1.526,3.724,3.418,3.724h4.558
		l4.01,11.545l3.966-11.545h4.56c1.894,0,3.488-1.744,3.488-3.724V4.166C23.531,2.18,21.996,0.57,20.103,0.57z"></path><path fill="#ffffff" transform="translate(4.5 4.5)" d="M5,3C4.4477,3,4,2.5523,4,2s0.4477,-1,1,-1s1,0.4477,1,1S5.5523,3,5,3zM12.5,10H10L9,7L8,5.25L9,5l2.3,1l0,0c0.2761,0.1105,0.5895,-0.0239,0.7,-0.3S11.9761,5.1105,11.7,5l0,0L9,4H7L5,5L4,6H2.5C2.2239,6,2,6.2239,2,6.5S2.2239,7,2.5,7H5l1,-1l1,2l-2,2v3.5C5,13.7761,5.2239,14,5.5,14S6,13.7761,6,13.5v-3.11L8,9l1,2h3.5c0.2761,0,0.5,-0.2239,0.5,-0.5S12.7761,10,12.5,10z"></path> </svg>