<?xml version="1.0" encoding="utf-8"?> <!DOCTYPE svg PUBLIC "-//W3C//DTD SVG 1.1//EN" "http://www.w3.org/Graphics/SVG/1.1/DTD/svg11.dtd"><svg version="1.1" id="marker-circle-blue" xmlns="http://www.w3.org/2000/svg" xmlns:xlink="http://www.w3.org/1999/xlink" x="0px"  y="0px" width="24px" height="36px" viewBox="0 0 24 36" enable-background="new 0 0 24 36" xml:space="preserve"><path fill="#D3D3D3" d="M20.103,0.57H2.959c-1.893,0-3.365,0.487-3.365,2.472l-0.063,18.189c0,1.979,1.526,3.724,3.418,3.724h4.558
		l4.01,11.545l3.966-11.545h4.56c1.894,0,3.488-1.744,3.488-3.724V4.166C23.531,2.18,21.996,0.57,20.103,0.57z"></path><path fill="#ffffff" transform="translate(4.5 4.5)" d="M14,1v12H1V8.72c0.0016,-0.1419,0.0634,-0.2764,0.17,-0.37l3,-3.22c0.2074,-0.1823,0.5234,-0.1618,0.7056,0.0456C4.9568,5.268,5.0011,5.387,5,5.51v3l3.16,-3.37c0.2025,-0.1878,0.5188,-0.1759,0.7066,0.0266C8.9532,5.2599,9.0009,5.3827,9,5.51V11h3V1H14z"></path> </svg>