<?xml version="1.0" encoding="utf-8"?> <!DOCTYPE svg PUBLIC "-//W3C//DTD SVG 1.1//EN" "http://www.w3.org/Graphics/SVG/1.1/DTD/svg11.dtd"><svg version="1.1" id="marker-circle-blue" xmlns="http://www.w3.org/2000/svg" xmlns:xlink="http://www.w3.org/1999/xlink" x="0px"  y="0px" width="24px" height="36px" viewBox="0 0 24 36" enable-background="new 0 0 24 36" xml:space="preserve"><path fill="#9D7178" d="M20.103,0.57H2.959c-1.893,0-3.365,0.487-3.365,2.472l-0.063,18.189c0,1.979,1.526,3.724,3.418,3.724h4.558
		l4.01,11.545l3.966-11.545h4.56c1.894,0,3.488-1.744,3.488-3.724V4.166C23.531,2.18,21.996,0.57,20.103,0.57z"></path><path fill="#ffffff" transform="translate(4.5 4.5)" d="m9.9413409,12.103632v-1.545137c0,-0.0901,-0.031532,-0.166677,-0.090098,-0.225238c-0.058566,-0.05406,-0.1306386,-0.08559,-0.2207341,-0.08559H8.7025277V5.3059291c0,-0.090095,-0.027028,-0.1621718,-0.085589,-0.2207335C8.5583749,5.0266326,8.4862985,4.9951001,8.3962042,4.9951001H5.3059291c-0.090095,0,-0.1621718,0.031532,-0.2207335,0.090095c-0.058563,0.058562,-0.090095,0.1306382,-0.090095,0.2207336v1.5451375c0,0.090095,0.031532,0.1621719,0.090095,0.2207337c0.058562,0.058562,0.1306381,0.085591,0.2207335,0.085591H6.233913V10.247665H5.3059291c-0.090095,0,-0.1621718,0.03153,-0.2207335,0.08559c-0.058563,0.05857,-0.090095,0.135143,-0.090095,0.225239v1.545137c0,0.0901,0.031532,0.162171,0.090095,0.220734c0.058562,0.05857,0.1306381,0.08559,0.2207335,0.08559h4.3245824c0.090095,0,0.1621722,-0.02703,0.2207341,-0.08559c0.058566,-0.05857,0.090098,-0.130639,0.090098,-0.220734zM8.7025277,3.454467V1.9093306c0,-0.090096,-0.027028,-0.1666775,-0.085589,-0.2252392C8.5583749,1.6300341,8.4862985,1.5985004,8.3962042,1.5985004H6.5402364c-0.090094,0,-0.1621706,0.031533,-0.2207336,0.085591c-0.058562,0.058562,-0.08559,0.1351427,-0.08559,0.2252392V3.454467c0,0.090095,0.027028,0.1621719,0.08559,0.2207348c0.058563,0.058562,0.1306393,0.08559,0.2207336,0.08559h1.8559678c0.090094,0,0.1621707,-0.027028,0.2207336,-0.08559c0.058562,-0.058563,0.085589,-0.1306393,0.08559,-0.2207348zm6.1805503,4.0137533c0,1.3469275,-0.333354,2.5857407,-0.995556,3.7209417c-0.662201,1.135204,-1.563156,2.036159,-2.69836,2.69836c-1.135201,0.662202,-2.3740142,0.995556,-3.7209417,0.995556c-1.3469275,0,-2.5857405,-0.333354,-3.7209422,-0.995556C2.6120741,13.225321,1.7111195,12.324366,1.0489186,11.189162C0.38671661,10.053961,0.05336285,8.8151478,0.05336285,7.4682203c0,-1.3469275,0.33335376,-2.5857405,0.99555575,-3.7209422C1.7111195,2.6120741,2.6120741,1.7111195,3.7472781,1.0489186C4.8824798,0.38671661,6.1212928,0.05336285,7.4682203,0.05336285c1.3469275,0,2.5857407,0.33335376,3.7209417,0.99555575c1.135204,0.6622009,2.036159,1.5631555,2.69836,2.6983595c0.662202,1.1352017,0.995556,2.3740147,0.995556,3.7209422zm0,0"></path> </svg>