<?xml version="1.0" encoding="utf-8"?> <!DOCTYPE svg PUBLIC "-//W3C//DTD SVG 1.1//EN" "http://www.w3.org/Graphics/SVG/1.1/DTD/svg11.dtd"><svg version="1.1" id="marker-circle-blue" xmlns="http://www.w3.org/2000/svg" xmlns:xlink="http://www.w3.org/1999/xlink" x="0px"  y="0px" width="24px" height="36px" viewBox="0 0 24 36" enable-background="new 0 0 24 36" xml:space="preserve"><path fill="#D3D3D3" d="M20.103,0.57H2.959c-1.893,0-3.365,0.487-3.365,2.472l-0.063,18.189c0,1.979,1.526,3.724,3.418,3.724h4.558
		l4.01,11.545l3.966-11.545h4.56c1.894,0,3.488-1.744,3.488-3.724V4.166C23.531,2.18,21.996,0.57,20.103,0.57z"></path><path fill="#ffffff" transform="translate(4.5 4.5)" d="M4.5,6L0,7V6.5l4.5,-1V6zM4.5,3.5L0,2.5V3l4.5,1V3.5zM10.5,3.5V4L15,3V2.5L10.5,3.5zM10.5,6L15,7V6.5l-4.5,-1V6zM8,7V2h2.5c0.2761,0.0552,0.5448,-0.1239,0.6,-0.4c0.0552,-0.2761,-0.1239,-0.5448,-0.4,-0.6l-3,-1C7.5696,-0.0586,7.4204,-0.0586,7.29,0l-3,1c-0.2761,0.0552,-0.4552,0.3239,-0.4,0.6S4.2139,2.0552,4.49,2H7v5H5l-2,7h9l-2,-7H8z"></path> </svg>