<?xml version="1.0" encoding="utf-8"?> <!DOCTYPE svg PUBLIC "-//W3C//DTD SVG 1.1//EN" "http://www.w3.org/Graphics/SVG/1.1/DTD/svg11.dtd"><svg version="1.1" id="marker-circle-blue" xmlns="http://www.w3.org/2000/svg" xmlns:xlink="http://www.w3.org/1999/xlink" x="0px"  y="0px" width="24px" height="36px" viewBox="0 0 24 36" enable-background="new 0 0 24 36" xml:space="preserve"><path fill="#A23337" d="M20.103,0.57H2.959c-1.893,0-3.365,0.487-3.365,2.472l-0.063,18.189c0,1.979,1.526,3.724,3.418,3.724h4.558
		l4.01,11.545l3.966-11.545h4.56c1.894,0,3.488-1.744,3.488-3.724V4.166C23.531,2.18,21.996,0.57,20.103,0.57z"></path><path fill="#ffffff" transform="translate(4.5 4.5)" d="M 8.167969 11.785156 C 8.167969 11.601562 8.105469 11.445312 7.972656 11.3125 C 7.839844 11.179688 7.683594 11.117188 7.5 11.117188 C 7.316406 11.117188 7.15625 11.179688 7.027344 11.3125 C 6.894531 11.445312 6.832031 11.601562 6.832031 11.785156 C 6.832031 11.96875 6.894531 12.128906 7.027344 12.257812 C 7.15625 12.390625 7.316406 12.457031 7.5 12.457031 C 7.683594 12.457031 7.839844 12.390625 7.972656 12.257812 C 8.105469 12.128906 8.167969 11.96875 8.167969 11.785156 Z M 9.910156 10.445312 L 9.910156 4.554688 C 9.910156 4.480469 9.882812 4.417969 9.832031 4.367188 C 9.777344 4.3125 9.714844 4.285156 9.644531 4.285156 L 5.355469 4.285156 C 5.285156 4.285156 5.222656 4.3125 5.167969 4.367188 C 5.117188 4.417969 5.089844 4.480469 5.089844 4.554688 L 5.089844 10.445312 C 5.089844 10.519531 5.117188 10.582031 5.167969 10.632812 C 5.222656 10.6875 5.285156 10.714844 5.355469 10.714844 L 9.644531 10.714844 C 9.714844 10.714844 9.777344 10.6875 9.832031 10.632812 C 9.882812 10.582031 9.910156 10.519531 9.910156 10.445312 Z M 8.304688 3.347656 C 8.304688 3.257812 8.257812 3.214844 8.167969 3.214844 L 6.832031 3.214844 C 6.742188 3.214844 6.695312 3.257812 6.695312 3.347656 C 6.695312 3.4375 6.742188 3.480469 6.832031 3.480469 L 8.167969 3.480469 C 8.257812 3.480469 8.304688 3.4375 8.304688 3.347656 Z M 10.714844 3.214844 L 10.714844 11.785156 C 10.714844 12.074219 10.609375 12.328125 10.394531 12.539062 C 10.183594 12.75 9.933594 12.855469 9.644531 12.855469 L 5.355469 12.855469 C 5.066406 12.855469 4.816406 12.75 4.605469 12.539062 C 4.390625 12.328125 4.285156 12.074219 4.285156 11.785156 L 4.285156 3.214844 C 4.285156 2.925781 4.390625 2.671875 4.605469 2.460938 C 4.816406 2.25 5.066406 2.144531 5.355469 2.144531 L 9.644531 2.144531 C 9.933594 2.144531 10.183594 2.25 10.394531 2.460938 C 10.609375 2.671875 10.714844 2.925781 10.714844 3.214844 Z M 10.714844 3.214844 "></path> </svg>