<?xml version="1.0" encoding="utf-8"?> <!DOCTYPE svg PUBLIC "-//W3C//DTD SVG 1.1//EN" "http://www.w3.org/Graphics/SVG/1.1/DTD/svg11.dtd"><svg version="1.1" id="marker-circle-blue" xmlns="http://www.w3.org/2000/svg" xmlns:xlink="http://www.w3.org/1999/xlink" x="0px"  y="0px" width="24px" height="36px" viewBox="0 0 24 36" enable-background="new 0 0 24 36" xml:space="preserve"><path fill="#A23337" d="M20.103,0.57H2.959c-1.893,0-3.365,0.487-3.365,2.472l-0.063,18.189c0,1.979,1.526,3.724,3.418,3.724h4.558
		l4.01,11.545l3.966-11.545h4.56c1.894,0,3.488-1.744,3.488-3.724V4.166C23.531,2.18,21.996,0.57,20.103,0.57z"></path><path fill="#ffffff" transform="translate(4.5 4.5)" d="M 0.75,3 C 0.75,3 0,5.25 0,8.25 l 5.5,0 c 0.5,0 1.306389,1 1.3,1 l 7.2,0 C 14,6.25 11,6 10,6 L 8,6 C 7,4 5,3 5,3 L 4.75,3 C 4,4.508412 2.016472,4.508412 1,3 z M 5.5,4 C 5.776142,4 6,4.2238577 6,4.5 6,4.7761423 5.776142,5 5.5,5 5.223858,5 5,4.7761423 5,4.5 5,4.2238577 5.223858,4 5.5,4 z m 1,1 C 6.776142,5 7,5.2238577 7,5.5 7,5.7761423 6.776142,6 6.5,6 6.223858,6 6,5.7761423 6,5.5 6,5.2238577 6.223858,5 6.5,5 z M 0,9 l 0,2 5.25,0 0,-2 z m 7.3,1 c 0,0 0.7,1 1.2,1 l 5.5,0 0,-1 z"></path> </svg>