<?xml version="1.0" encoding="utf-8"?> <!DOCTYPE svg PUBLIC "-//W3C//DTD SVG 1.1//EN" "http://www.w3.org/Graphics/SVG/1.1/DTD/svg11.dtd"><svg version="1.1" id="marker-circle-blue" xmlns="http://www.w3.org/2000/svg" xmlns:xlink="http://www.w3.org/1999/xlink" x="0px"  y="0px" width="24px" height="36px" viewBox="0 0 24 36" enable-background="new 0 0 24 36" xml:space="preserve"><path fill="#F5BB3A" d="M20.103,0.57H2.959c-1.893,0-3.365,0.487-3.365,2.472l-0.063,18.189c0,1.979,1.526,3.724,3.418,3.724h4.558
		l4.01,11.545l3.966-11.545h4.56c1.894,0,3.488-1.744,3.488-3.724V4.166C23.531,2.18,21.996,0.57,20.103,0.57z"></path><path fill="#ffffff" transform="translate(4.5 4.5)" d="M0.0898438,8.273438C0.210938,9.226562,1.023438,9.960938,2.011719,9.960938C2.996094,9.960938,3.808594,9.226562,3.929688,8.273438ZM10.554688,12.175781C10.554688,12.339844,10.421875,12.476562,10.253906,12.476562L4.660156,12.476562C4.492188,12.476562,4.359375,12.339844,4.359375,12.175781C4.359375,12.007812,4.492188,11.875,4.660156,11.875L10.253906,11.875C10.421875,11.875,10.554688,12.007812,10.554688,12.175781ZM4.390625,12.628906L10.523438,12.628906L10.523438,13.496094L4.390625,13.496094ZM11.070312,8.273438C11.191406,9.226562,12.003906,9.960938,12.992188,9.960938C13.976562,9.960938,14.789062,9.226562,14.910156,8.273438ZM14.804688,7.671875L13.230469,5.503906L14.074219,5.503906C14.277344,5.503906,14.441406,5.335938,14.441406,5.128906C14.441406,4.925781,14.277344,4.757812,14.074219,4.757812L9.617188,4.757812C9.351562,4.027344,8.710938,3.476562,7.929688,3.339844L7.929688,2.167969C7.929688,1.960938,7.761719,1.796875,7.554688,1.796875L7.519531,1.800781L7.484375,1.796875C7.277344,1.796875,7.113281,1.960938,7.113281,2.167969L7.113281,3.339844C6.328125,3.476562,5.6875,4.027344,5.421875,4.757812L0.96875,4.757812C0.765625,4.757812,0.597656,4.925781,0.597656,5.128906C0.597656,5.335938,0.765625,5.503906,0.96875,5.503906L1.769531,5.503906L0.195312,7.671875L0,7.671875L0,8.070312L4.019531,8.070312L4.019531,7.671875L3.820312,7.671875L2.25,5.503906L5.898438,5.503906C5.898438,5.421875,5.910156,5.335938,5.921875,5.257812C5.933594,5.21875,5.945312,5.183594,5.945312,5.144531C6.082031,4.5625,6.535156,4.105469,7.113281,3.964844L7.113281,8.070312L7.097656,8.070312C7.0625,9.617188,6.328125,10.964844,5.238281,11.722656L9.800781,11.722656C8.710938,10.964844,7.976562,9.617188,7.941406,8.070312L7.929688,8.070312L7.929688,3.964844C8.507812,4.105469,8.960938,4.5625,9.097656,5.144531C9.097656,5.183594,9.105469,5.21875,9.117188,5.257812C9.132812,5.335938,9.136719,5.421875,9.136719,5.503906L12.75,5.503906L11.179688,7.671875L10.980469,7.671875L10.980469,8.070312L15,8.070312L15,7.671875ZM1.847656,7.671875L0.59375,7.671875L1.847656,5.941406ZM2.171875,7.671875L2.171875,5.941406L3.425781,7.671875ZM12.832031,7.671875L11.574219,7.671875L12.832031,5.941406ZM13.148438,7.671875L13.148438,5.941406L14.40625,7.671875ZM2.382812,4.238281C2.382812,4.441406,2.214844,4.609375,2.011719,4.609375C1.804688,4.609375,1.636719,4.441406,1.636719,4.238281C1.636719,4.03125,1.804688,3.863281,2.011719,3.863281C2.214844,3.863281,2.382812,4.03125,2.382812,4.238281ZM13.363281,4.21875C13.363281,4.425781,13.195312,4.589844,12.992188,4.589844C12.785156,4.589844,12.617188,4.425781,12.617188,4.21875C12.617188,4.011719,12.785156,3.84375,12.992188,3.84375C13.195312,3.84375,13.363281,4.011719,13.363281,4.21875ZM13.363281,4.21875"></path> </svg>