<?xml version="1.0" encoding="utf-8"?> <!DOCTYPE svg PUBLIC "-//W3C//DTD SVG 1.1//EN" "http://www.w3.org/Graphics/SVG/1.1/DTD/svg11.dtd"><svg version="1.1" id="marker-circle-blue" xmlns="http://www.w3.org/2000/svg" xmlns:xlink="http://www.w3.org/1999/xlink" x="0px"  y="0px" width="24px" height="36px" viewBox="0 0 24 36" enable-background="new 0 0 24 36" xml:space="preserve"><path fill="#EF9228" d="M20.103,0.57H2.959c-1.893,0-3.365,0.487-3.365,2.472l-0.063,18.189c0,1.979,1.526,3.724,3.418,3.724h4.558
		l4.01,11.545l3.966-11.545h4.56c1.894,0,3.488-1.744,3.488-3.724V4.166C23.531,2.18,21.996,0.57,20.103,0.57z"></path><path fill="#ffffff" transform="translate(4.5 4.5)" d="M 12.347656 7.5 L 2.742188 7.5 C 2.460938 7.5 2.230469 7.257812 2.230469 6.984375 C 2.230469 6.941406 2.242188 6.886719 2.25 6.847656 L 2.761719 3.277344 C 2.804688 3.046875 3.011719 3 3.261719 3 L 11.828125 3 C 12.078125 3 12.289062 3.042969 12.332031 3.273438 L 12.84375 6.90625 C 12.851562 6.949219 12.859375 6.976562 12.859375 7.019531 C 12.859375 7.292969 12.628906 7.5 12.347656 7.5 Z M 11.964844 11.503906 C 11.421875 11.503906 10.984375 11.078125 10.984375 10.546875 C 10.984375 10.019531 11.421875 9.59375 11.964844 9.59375 C 12.5 9.59375 12.941406 10.019531 12.941406 10.546875 C 12.941406 11.078125 12.5 11.503906 11.964844 11.503906 Z M 3.113281 11.503906 C 2.578125 11.503906 2.136719 11.078125 2.136719 10.546875 C 2.136719 10.019531 2.578125 9.59375 3.113281 9.59375 C 3.65625 9.59375 4.09375 10.019531 4.09375 10.546875 C 4.09375 11.078125 3.65625 11.503906 3.113281 11.503906 Z M 4.800781 0.898438 L 10.800781 0.898438 L 10.800781 1.800781 L 4.800781 1.800781 C 4.199219 1.800781 4.199219 0.898438 4.800781 0.898438 Z M 13.261719 2.277344 C 13.085938 1.433594 12.574219 1.09375 11.738281 0.753906 C 10.90625 0.414062 8.972656 0.0078125 7.519531 0.0078125 C 6.0625 0.0078125 4.121094 0.414062 3.285156 0.753906 C 2.453125 1.09375 1.949219 1.433594 1.773438 2.277344 L 1.199219 6.976562 L 1.199219 13.5 L 2.101562 13.5 L 2.101562 14.101562 C 2.101562 15.300781 3.601562 15.300781 3.601562 14.101562 L 3.601562 13.5 L 11.101562 13.5 L 11.101562 14.101562 C 11.101562 15.300781 12.898438 15.300781 12.898438 14.101562 L 12.898438 13.5 L 13.800781 13.5 L 13.800781 6.976562 Z M 13.261719 2.277344 "></path> </svg>