<?xml version="1.0" encoding="utf-8"?> <!DOCTYPE svg PUBLIC "-//W3C//DTD SVG 1.1//EN" "http://www.w3.org/Graphics/SVG/1.1/DTD/svg11.dtd"><svg version="1.1" id="marker-circle-blue" xmlns="http://www.w3.org/2000/svg" xmlns:xlink="http://www.w3.org/1999/xlink" x="0px"  y="0px" width="24px" height="36px" viewBox="0 0 24 36" enable-background="new 0 0 24 36" xml:space="preserve"><path fill="#D3D3D3" d="M20.103,0.57H2.959c-1.893,0-3.365,0.487-3.365,2.472l-0.063,18.189c0,1.979,1.526,3.724,3.418,3.724h4.558
		l4.01,11.545l3.966-11.545h4.56c1.894,0,3.488-1.744,3.488-3.724V4.166C23.531,2.18,21.996,0.57,20.103,0.57z"></path><path fill="#ffffff" transform="translate(4.5 4.5)" d="M 2,0 2,3.5 C 2,4.9469172 2.7905512,5.9802716 3.90625,6.625 L 3,14 4.5,14 4.6875,12.53125 7,11 9.3125,12.5625 9.5,14 11,14 10.09375,6.65625 C 11.21821,6.0132746 12,4.9628112 12,3.5 l 0,-3.5 -1.5,0 0,1.5 -0.5,0 C 8.8728814,2 8,2 7,1.5 6,1 5.0381356,1 4,1.5 l -0.5,0 0,-1.5 z m 3.34375,7.1875 c 1.069224,0.2671613 2.2426846,0.2935662 3.3125,0.03125 L 8.84375,8.78125 7,10 5.15625,8.78125 z m -0.3125,2.5 L 6.25,10.5 4.8125,11.46875 z m 3.9375,0 L 9.1875,11.46875 7.75,10.5 z"></path> </svg>