<?xml version="1.0" encoding="utf-8"?> <!DOCTYPE svg PUBLIC "-//W3C//DTD SVG 1.1//EN" "http://www.w3.org/Graphics/SVG/1.1/DTD/svg11.dtd"><svg version="1.1" id="marker-circle-blue" xmlns="http://www.w3.org/2000/svg" xmlns:xlink="http://www.w3.org/1999/xlink" x="0px"  y="0px" width="24px" height="36px" viewBox="0 0 24 36" enable-background="new 0 0 24 36" xml:space="preserve"><path fill="#EF9228" d="M20.103,0.57H2.959c-1.893,0-3.365,0.487-3.365,2.472l-0.063,18.189c0,1.979,1.526,3.724,3.418,3.724h4.558
		l4.01,11.545l3.966-11.545h4.56c1.894,0,3.488-1.744,3.488-3.724V4.166C23.531,2.18,21.996,0.57,20.103,0.57z"></path><path fill="#ffffff" transform="translate(4.5 4.5)" d="M4.36,14c-1,0,-0.56,-2.67,-0.86,-5c-0.1,-0.76,-1,-1.49,-1.12,-2.06C2,5,1.39,1.44,3.66,1S6,3,7.54,3s1.57,-2.36,3.85,-2s1.59,3.9,1.29,5.9c-0.1,0.45,-1.1,1.48,-1.18,2.06c-0.33,2.4,0.32,5,-0.8,5c-0.93,0,-1.32,-2.72,-2,-4.5C8.43,8.63,8.06,8,7.54,8C6,8,5.75,14,4.36,14z"></path> </svg>