<?xml version="1.0" encoding="utf-8"?> <!DOCTYPE svg PUBLIC "-//W3C//DTD SVG 1.1//EN" "http://www.w3.org/Graphics/SVG/1.1/DTD/svg11.dtd"><svg version="1.1" id="marker-circle-blue" xmlns="http://www.w3.org/2000/svg" xmlns:xlink="http://www.w3.org/1999/xlink" x="0px"  y="0px" width="24px" height="36px" viewBox="0 0 24 36" enable-background="new 0 0 24 36" xml:space="preserve"><path fill="#EF9228" d="M20.103,0.57H2.959c-1.893,0-3.365,0.487-3.365,2.472l-0.063,18.189c0,1.979,1.526,3.724,3.418,3.724h4.558
		l4.01,11.545l3.966-11.545h4.56c1.894,0,3.488-1.744,3.488-3.724V4.166C23.531,2.18,21.996,0.57,20.103,0.57z"></path><path fill="#ffffff" transform="translate(4.5 4.5)" d="M 11.101562 0.300781 C 10.933594 0.300781 10.800781 0.433594 10.800781 0.601562 L 10.800781 4.800781 C 10.800781 4.964844 10.664062 5.101562 10.5 5.101562 L 4.5 5.101562 C 4.335938 5.101562 4.199219 4.964844 4.199219 4.800781 L 4.199219 0.601562 C 4.199219 0.433594 4.066406 0.300781 3.898438 0.300781 L 1.199219 0.300781 C 1.035156 0.300781 0.898438 0.433594 0.898438 0.601562 L 0.898438 14.398438 C 0.898438 14.566406 1.035156 14.699219 1.199219 14.699219 L 3.898438 14.699219 C 4.066406 14.699219 4.199219 14.566406 4.199219 14.398438 L 4.199219 9.601562 C 4.199219 9.433594 4.335938 9.300781 4.5 9.300781 L 10.5 9.300781 C 10.664062 9.300781 10.800781 9.433594 10.800781 9.601562 L 10.800781 14.398438 C 10.800781 14.566406 10.933594 14.699219 11.101562 14.699219 L 13.800781 14.699219 C 13.964844 14.699219 14.101562 14.566406 14.101562 14.398438 L 14.101562 0.601562 C 14.101562 0.433594 13.964844 0.300781 13.800781 0.300781 Z M 11.101562 0.300781 "></path> </svg>