<?xml version="1.0" encoding="utf-8"?> <!DOCTYPE svg PUBLIC "-//W3C//DTD SVG 1.1//EN" "http://www.w3.org/Graphics/SVG/1.1/DTD/svg11.dtd"><svg version="1.1" id="marker-circle-blue" xmlns="http://www.w3.org/2000/svg" xmlns:xlink="http://www.w3.org/1999/xlink" x="0px"  y="0px" width="24px" height="36px" viewBox="0 0 24 36" enable-background="new 0 0 24 36" xml:space="preserve"><path fill="#EF9228" d="M20.103,0.57H2.959c-1.893,0-3.365,0.487-3.365,2.472l-0.063,18.189c0,1.979,1.526,3.724,3.418,3.724h4.558
		l4.01,11.545l3.966-11.545h4.56c1.894,0,3.488-1.744,3.488-3.724V4.166C23.531,2.18,21.996,0.57,20.103,0.57z"></path><path fill="#ffffff" transform="translate(4.5 4.5)" d="M 5.542969 5.664062 C 6.242188 5.542969 6.761719 4.90625 6.839844 4.148438 C 6.921875 3.375 7.101562 0.265625 5.933594 0.464844 C 2.90625 0.976562 3.121094 6.074219 5.542969 5.664062 Z M 9.527344 5.664062 C 11.949219 6.074219 12.160156 0.976562 9.136719 0.460938 C 7.96875 0.265625 8.148438 3.371094 8.230469 4.144531 C 8.308594 4.90625 8.828125 5.542969 9.527344 5.664062 Z M 4.300781 8.0625 C 4.300781 7.660156 4.15625 7.292969 3.925781 7.027344 C 3.542969 6.527344 2.324219 5.515625 2.027344 5.773438 C 1.402344 6.316406 1.425781 7.648438 1.800781 8.617188 C 1.992188 9.15625 2.457031 9.535156 3.003906 9.535156 C 3.71875 9.535156 4.300781 8.878906 4.300781 8.0625 Z M 13.042969 5.773438 C 12.742188 5.515625 11.527344 6.527344 11.144531 7.027344 C 10.914062 7.292969 10.769531 7.660156 10.769531 8.0625 C 10.769531 8.878906 11.351562 9.535156 12.066406 9.535156 C 12.613281 9.535156 13.078125 9.15625 13.269531 8.617188 C 13.644531 7.648438 13.664062 6.316406 13.042969 5.773438 Z M 10.601562 10.359375 C 9.5 9.808594 9.53125 8.75 9.28125 7.78125 C 9.082031 7.011719 8.375 6.441406 7.535156 6.441406 C 6.710938 6.441406 6.019531 6.988281 5.800781 7.734375 C 5.53125 8.660156 5.695312 9.738281 4.492188 10.351562 C 3.515625 10.667969 3.121094 11.132812 3.121094 12.230469 C 3.121094 13.125 3.886719 14.078125 4.875 14.199219 C 5.976562 14.363281 6.839844 14.148438 7.535156 13.75 C 8.230469 14.148438 9.089844 14.363281 10.195312 14.199219 C 11.183594 14.078125 11.949219 13.128906 11.949219 12.230469 C 11.949219 11.109375 11.578125 10.691406 10.601562 10.359375 Z M 9.300781 11.699219 L 8.15625 11.699219 L 8.15625 12.898438 L 6.910156 12.898438 L 6.914062 11.699219 L 5.699219 11.699219 L 5.699219 10.5 L 6.914062 10.5 L 6.910156 9.300781 L 8.160156 9.300781 L 8.15625 10.5 L 9.300781 10.5 Z M 9.300781 11.699219 "></path> </svg>