<?xml version="1.0" encoding="utf-8"?> <!DOCTYPE svg PUBLIC "-//W3C//DTD SVG 1.1//EN" "http://www.w3.org/Graphics/SVG/1.1/DTD/svg11.dtd"><svg version="1.1" id="marker-circle-blue" xmlns="http://www.w3.org/2000/svg" xmlns:xlink="http://www.w3.org/1999/xlink" x="0px"  y="0px" width="24px" height="36px" viewBox="0 0 24 36" enable-background="new 0 0 24 36" xml:space="preserve"><path fill="#75030B" d="M20.103,0.57H2.959c-1.893,0-3.365,0.487-3.365,2.472l-0.063,18.189c0,1.979,1.526,3.724,3.418,3.724h4.558
		l4.01,11.545l3.966-11.545h4.56c1.894,0,3.488-1.744,3.488-3.724V4.166C23.531,2.18,21.996,0.57,20.103,0.57z"></path><path fill="#ffffff" transform="translate(4.5 4.5)" d="M7.5,0.234375C3.4872949218750002,0.234375,0.234375,3.4872949218750002,0.234375,7.5s3.2529199218750002,7.265625,7.265625,7.265625s7.265625,-3.2529199218750002,7.265625,-7.265625S11.512705078125,0.234375,7.5,0.234375zm5.08875,3.502705078125l-1.857392578125,1.857392578125c-0.321884765625,-0.543720703125,-0.78134765625,-1.0034765625000002,-1.325830078125,-1.325830078125l1.857392578125,-1.857392578125a6.398320312499999,6.398320312499999,0,0,1,1.325830078125,1.325830078125zM7.5,10.3125c-1.553291015625,0,-2.8125,-1.259208984375,-2.8125,-2.8125s1.259208984375,-2.8125,2.8125,-2.8125s2.8125,1.259208984375,2.8125,2.8125s-1.259208984375,2.8125,-2.8125,2.8125zM3.737080078125,2.41125l1.857392578125,1.857392578125c-0.543720703125,0.321884765625,-1.0034765625000002,0.78134765625,-1.325830078125,1.325830078125l-1.857392578125,-1.857392578125a6.397617187500001,6.397617187500001,0,0,1,1.325830078125,-1.325830078125zM2.41125,11.262919921875l1.857392578125,-1.857392578125c0.321884765625,0.543720703125,0.78134765625,1.0034765625000002,1.325830078125,1.325830078125l-1.857392578125,1.857392578125a6.398320312499999,6.398320312499999,0,0,1,-1.325830078125,-1.325830078125zm8.851669921875,1.325830078125l-1.857392578125,-1.857392578125c0.543720703125,-0.321884765625,1.0034765625000002,-0.78134765625,1.325830078125,-1.325830078125l1.857392578125,1.857392578125a6.398525390625,6.398525390625,0,0,1,-1.325830078125,1.325830078125z"></path> </svg>