<?xml version="1.0" encoding="utf-8"?> <!DOCTYPE svg PUBLIC "-//W3C//DTD SVG 1.1//EN" "http://www.w3.org/Graphics/SVG/1.1/DTD/svg11.dtd"><svg version="1.1" id="marker-circle-blue" xmlns="http://www.w3.org/2000/svg" xmlns:xlink="http://www.w3.org/1999/xlink" x="0px"  y="0px" width="24px" height="36px" viewBox="0 0 24 36" enable-background="new 0 0 24 36" xml:space="preserve"><path fill="#EF9228" d="M20.103,0.57H2.959c-1.893,0-3.365,0.487-3.365,2.472l-0.063,18.189c0,1.979,1.526,3.724,3.418,3.724h4.558
		l4.01,11.545l3.966-11.545h4.56c1.894,0,3.488-1.744,3.488-3.724V4.166C23.531,2.18,21.996,0.57,20.103,0.57z"></path><path fill="#ffffff" transform="translate(4.5 4.5)" d="m12.262076,2.9427966c0,0.8810812,-0.701642,1.595339,-1.567161,1.595339c-0.8655189,0,-1.567161,-0.7142578,-1.567161,-1.595339c0,-0.8810814,0.7016421,-1.595339,1.567161,-1.595339c0.865519,0,1.567161,0.7142576,1.567161,1.595339zM3.25,6.6652542H5.3771186V9.8559326H3.25ZM5.8807205,2.9427966c0,0.8810812,-0.7016421,1.595339,-1.5671612,1.595339c-0.8655192,0,-1.5671613,-0.7142578,-1.5671613,-1.595339c0,-0.8810814,0.7016421,-1.595339,1.5671613,-1.595339c0.8655191,0,1.5671612,0.7142576,1.5671612,1.595339zM0.05932203,5.6016949H7.5042373V6.6652542H0.05932203ZM1.1228813,14.11017L3.25,9.8559326H4.3135593L2.1864406,14.11017Zm6.381356,0L5.3771186,9.8559326H4.3135593L6.4406779,14.11017ZM9.6313559,6.6652542H11.758475V9.8559326H9.6313559ZM7.5042373,5.6016949H14.949153V6.6652542H7.5042373Zm0,8.5084751l2.1271186,-4.2542374H10.694915L8.5677966,14.11017Zm6.3813557,0l-2.127118,-4.2542374h-1.06356l2.127119,4.2542374z"></path> </svg>