<?xml version="1.0" encoding="utf-8"?> <!DOCTYPE svg PUBLIC "-//W3C//DTD SVG 1.1//EN" "http://www.w3.org/Graphics/SVG/1.1/DTD/svg11.dtd"><svg version="1.1" id="marker-circle-blue" xmlns="http://www.w3.org/2000/svg" xmlns:xlink="http://www.w3.org/1999/xlink" x="0px"  y="0px" width="24px" height="36px" viewBox="0 0 24 36" enable-background="new 0 0 24 36" xml:space="preserve"><path fill="#0E5F71" d="M20.103,0.57H2.959c-1.893,0-3.365,0.487-3.365,2.472l-0.063,18.189c0,1.979,1.526,3.724,3.418,3.724h4.558
		l4.01,11.545l3.966-11.545h4.56c1.894,0,3.488-1.744,3.488-3.724V4.166C23.531,2.18,21.996,0.57,20.103,0.57z"></path><path fill="#ffffff" transform="translate(4.5 4.5)" d="M4.6875,2.8125L4.6875,12.1875C4.6875,15.9375,10.3125,15.9375,10.3125,12.1875L10.3125,2.8125C10.3125,-0.9375,4.6875,-0.9375,4.6875,2.8125zM7.5,0.9375C8.53125,0.9375,9.375,1.78125,9.375,2.8125C9.375,3.8437499999999996,8.53125,4.6875,7.5,4.6875C6.46875,4.6875,5.625,3.8437499999999996,5.625,2.8125C5.625,1.78125,6.46875,0.9375,7.5,0.9375zM7.5,5.625C8.53125,5.625,9.375,6.46875,9.375,7.5C9.375,8.53125,8.53125,9.375,7.5,9.375C6.46875,9.375,5.625,8.53125,5.625,7.5C5.625,6.46875,6.46875,5.625,7.5,5.625zM7.5,10.3125C8.53125,10.3125,9.375,11.15625,9.375,12.1875C9.375,13.21875,8.53125,14.0625,7.5,14.0625C6.46875,14.0625,5.625,13.21875,5.625,12.1875C5.625,11.15625,6.46875,10.3125,7.5,10.3125z"></path> </svg>