<?xml version="1.0" encoding="utf-8"?> <!DOCTYPE svg PUBLIC "-//W3C//DTD SVG 1.1//EN" "http://www.w3.org/Graphics/SVG/1.1/DTD/svg11.dtd"><svg version="1.1" id="marker-circle-blue" xmlns="http://www.w3.org/2000/svg" xmlns:xlink="http://www.w3.org/1999/xlink" x="0px"  y="0px" width="24px" height="36px" viewBox="0 0 24 36" enable-background="new 0 0 24 36" xml:space="preserve"><path fill="#9D7178" d="M20.103,0.57H2.959c-1.893,0-3.365,0.487-3.365,2.472l-0.063,18.189c0,1.979,1.526,3.724,3.418,3.724h4.558
		l4.01,11.545l3.966-11.545h4.56c1.894,0,3.488-1.744,3.488-3.724V4.166C23.531,2.18,21.996,0.57,20.103,0.57z"></path><path fill="#ffffff" transform="translate(4.5 4.5)" d="M10.9,11.6c-0.3,-0.6,-0.3,-2.3,0,-2.8c0.4,-0.6,3.4,1.4,3.4,1.4c0.9,0.4,0.9,-6.1,0,-5.7c0,0,-3.1,2.1,-3.4,1.4c-0.3,-0.7,-0.3,-2.1,0,-2.8C11.2,2.5,15,2.4,15,2.4C15,1.7,12.1,1,10.9,1S8.4,1.1,6.8,1.8C5.2,2.4,3.9,3.4,2.7,4.6S0,8.2,0,8.9s1.5,2.8,3.7,3.7s3.3,1.1,4.5,1.3c1.1,0.1,2.6,0,3.9,-0.3c1,-0.2,2.9,-0.7,2.9,-1.1C15,12.3,11.2,12.2,10.9,11.6zM4.5,9.3C3.7,9.3,3,8.6,3,7.8s0.7,-1.5,1.5,-1.5S6,7,6,7.8S5.3,9.3,4.5,9.3z"></path> </svg>