<?xml version="1.0" encoding="utf-8"?> <!DOCTYPE svg PUBLIC "-//W3C//DTD SVG 1.1//EN" "http://www.w3.org/Graphics/SVG/1.1/DTD/svg11.dtd"><svg version="1.1" id="marker-circle-blue" xmlns="http://www.w3.org/2000/svg" xmlns:xlink="http://www.w3.org/1999/xlink" x="0px"  y="0px" width="24px" height="36px" viewBox="0 0 24 36" enable-background="new 0 0 24 36" xml:space="preserve"><path fill="#A23337" d="M20.103,0.57H2.959c-1.893,0-3.365,0.487-3.365,2.472l-0.063,18.189c0,1.979,1.526,3.724,3.418,3.724h4.558
		l4.01,11.545l3.966-11.545h4.56c1.894,0,3.488-1.744,3.488-3.724V4.166C23.531,2.18,21.996,0.57,20.103,0.57z"></path><path fill="#ffffff" transform="translate(4.5 4.5)" d="M3.765625,14.84375C3.664062,15.023438,3.371094,15.050781,3.117188,14.90625L1.511719,13.992188C1.257812,13.847656,1.132812,13.585938,1.234375,13.40625L8.058594,2.59375C9.039062,1.007812,5.609375,1.148438,4.765625,1.613281C5.402344,0.472656,7.433594,0.09375,8.75,0L9.132812,0.0234375C9.875,0.394531,10.941406,0.953125,11.644531,1.417969C12.160156,2.226562,12.703125,2.65625,13.476562,2.652344C14.480469,3.425781,12.910156,5.527344,11.921875,4.554688C11.925781,4.070312,10.53125,2.828125,9.554688,3.851562ZM3.765625,14.84375"></path> </svg>