<?xml version="1.0" encoding="utf-8"?> <!DOCTYPE svg PUBLIC "-//W3C//DTD SVG 1.1//EN" "http://www.w3.org/Graphics/SVG/1.1/DTD/svg11.dtd"><svg version="1.1" id="marker-circle-blue" xmlns="http://www.w3.org/2000/svg" xmlns:xlink="http://www.w3.org/1999/xlink" x="0px"  y="0px" width="24px" height="36px" viewBox="0 0 24 36" enable-background="new 0 0 24 36" xml:space="preserve"><path fill="#EF9228" d="M20.103,0.57H2.959c-1.893,0-3.365,0.487-3.365,2.472l-0.063,18.189c0,1.979,1.526,3.724,3.418,3.724h4.558
		l4.01,11.545l3.966-11.545h4.56c1.894,0,3.488-1.744,3.488-3.724V4.166C23.531,2.18,21.996,0.57,20.103,0.57z"></path><path fill="#ffffff" transform="translate(4.5 4.5)" d="M12.898438,1.800781L12.898438,0.601562L2.101562,0.601562L2.101562,1.800781L0,1.800781L0,14.699219L1.199219,14.699219L1.199219,3L2.101562,3L2.101562,4.199219L12.898438,4.199219L12.898438,3L13.800781,3L13.800781,14.699219L15,14.699219L15,1.800781ZM12.617188,8.699219L10.65625,5.363281C10.582031,5.21875,10.386719,5.101562,10.222656,5.101562L4.777344,5.101562C4.613281,5.101562,4.417969,5.21875,4.34375,5.363281L2.382812,8.699219C2.0625,8.699219,1.800781,8.96875,1.800781,9.300781L1.800781,12.300781C1.800781,12.628906,2.0625,12.898438,2.382812,12.898438L3,12.898438L3,13.800781C3,14.296875,3.363281,14.699219,3.847656,14.699219L4.136719,14.699219C4.621094,14.699219,5.101562,14.296875,5.101562,13.800781L5.101562,12.898438L9.898438,12.898438L9.898438,13.800781C9.898438,14.296875,10.378906,14.699219,10.863281,14.699219L11.152344,14.699219C11.636719,14.699219,12,14.296875,12,13.800781L12,12.898438L12.617188,12.898438C12.9375,12.898438,13.199219,12.628906,13.199219,12.300781L13.199219,9.300781C13.199219,8.96875,12.9375,8.699219,12.617188,8.699219ZM3.40625,11.101562C3.003906,11.101562,2.675781,10.765625,2.675781,10.351562C2.675781,9.9375,3.003906,9.601562,3.40625,9.601562C3.8125,9.601562,4.136719,9.9375,4.136719,10.351562C4.136719,10.765625,3.8125,11.101562,3.40625,11.101562ZM3.847656,8.699219L5.175781,6.269531C5.25,6.121094,5.4375,6,5.601562,6L9.398438,6C9.5625,6,9.75,6.121094,9.824219,6.269531L11.152344,8.699219ZM11.59375,11.101562C11.1875,11.101562,10.863281,10.765625,10.863281,10.351562C10.863281,9.9375,11.1875,9.601562,11.59375,9.601562C11.996094,9.601562,12.324219,9.9375,12.324219,10.351562C12.324219,10.765625,11.996094,11.101562,11.59375,11.101562ZM11.59375,11.101562"></path> </svg>