<?xml version="1.0" encoding="utf-8"?> <!DOCTYPE svg PUBLIC "-//W3C//DTD SVG 1.1//EN" "http://www.w3.org/Graphics/SVG/1.1/DTD/svg11.dtd"><svg version="1.1" id="marker-circle-blue" xmlns="http://www.w3.org/2000/svg" xmlns:xlink="http://www.w3.org/1999/xlink" x="0px"  y="0px" width="24px" height="36px" viewBox="0 0 24 36" enable-background="new 0 0 24 36" xml:space="preserve"><path fill="#5B396C" d="M20.103,0.57H2.959c-1.893,0-3.365,0.487-3.365,2.472l-0.063,18.189c0,1.979,1.526,3.724,3.418,3.724h4.558
		l4.01,11.545l3.966-11.545h4.56c1.894,0,3.488-1.744,3.488-3.724V4.166C23.531,2.18,21.996,0.57,20.103,0.57z"></path><path fill="#ffffff" transform="translate(4.5 4.5)" d="M13.792969,13.320312C13.792969,12.71875,12.699219,11.046875,12.699219,11.046875C12.699219,11.046875,11.59375,12.71875,11.59375,13.320312C11.59375,13.914062,12.085938,14.398438,12.691406,14.398438C13.296875,14.398438,13.792969,13.914062,13.792969,13.320312ZM5.898438,3.953125L3.699219,3.953125L3.699219,1.78125L4.300781,1.78125L4.300781,0.601562L0.300781,0.601562L0.300781,1.78125L0.898438,1.78125L0.898438,5.132812C0.898438,6.003906,1.617188,6.710938,2.5,6.710938L5.898438,6.710938L5.898438,7.304688L7.101562,7.304688L7.101562,3.359375L5.898438,3.359375ZM14.097656,8.878906L14.097656,5.527344C14.097656,4.65625,13.382812,3.953125,12.5,3.953125L9.101562,3.953125L9.101562,3.359375L7.898438,3.359375L7.898438,7.304688L9.101562,7.304688L9.101562,6.710938L11.300781,6.710938L11.300781,8.878906L10.699219,8.878906L10.699219,10.0625L14.699219,10.0625L14.699219,8.878906ZM14.097656,8.878906"></path> </svg>