<?xml version="1.0" encoding="utf-8"?> <!DOCTYPE svg PUBLIC "-//W3C//DTD SVG 1.1//EN" "http://www.w3.org/Graphics/SVG/1.1/DTD/svg11.dtd"><svg version="1.1" id="marker-circle-blue" xmlns="http://www.w3.org/2000/svg" xmlns:xlink="http://www.w3.org/1999/xlink" x="0px"  y="0px" width="24px" height="36px" viewBox="0 0 24 36" enable-background="new 0 0 24 36" xml:space="preserve"><path fill="#EF9228" d="M20.103,0.57H2.959c-1.893,0-3.365,0.487-3.365,2.472l-0.063,18.189c0,1.979,1.526,3.724,3.418,3.724h4.558
		l4.01,11.545l3.966-11.545h4.56c1.894,0,3.488-1.744,3.488-3.724V4.166C23.531,2.18,21.996,0.57,20.103,0.57z"></path><path fill="#ffffff" transform="translate(4.5 4.5)" d="M12.984375,4.167969L7.488281,0.300781L6.25,1.171875L6.269531,1.1875L1.429688,4.628906L0.300781,5.410156L0.300781,7.242188L1.453125,6.464844L1.453125,14.699219L13.546875,14.699219L13.546875,6.390625L14.699219,7.242188L14.699219,5.410156ZM11.820312,12.945312L2.988281,12.945312L2.988281,5.355469L7.503906,2.105469L11.820312,5.210938ZM5.46875,6.230469C5.792969,6.230469,6.058594,5.964844,6.058594,5.632812C6.058594,5.304688,5.792969,5.035156,5.46875,5.035156C5.144531,5.035156,4.882812,5.304688,4.882812,5.632812C4.882812,5.964844,5.144531,6.230469,5.46875,6.230469ZM4.667969,11.992188C4.667969,12.175781,4.800781,12.347656,4.980469,12.347656C5.164062,12.347656,5.292969,12.21875,5.292969,12.03125L5.292969,9.242188L5.675781,9.242188L5.675781,12.03125C5.675781,12.21875,5.789062,12.371094,5.96875,12.371094C6.152344,12.371094,6.285156,12.175781,6.285156,11.992188L6.269531,7.097656L6.636719,7.097656L6.636719,9.046875C6.636719,9.242188,7.019531,9.242188,7.019531,9.046875L7.019531,7.140625C7.019531,6.746094,6.710938,6.355469,6.25,6.355469L4.691406,6.351562C4.273438,6.351562,3.949219,6.699219,3.949219,7.132812L3.949219,9.046875C3.949219,9.242188,4.332031,9.242188,4.332031,9.046875L4.332031,7.097656L4.671875,7.097656ZM9.644531,6.230469C9.964844,6.230469,10.230469,5.964844,10.230469,5.632812C10.230469,5.304688,9.964844,5.035156,9.644531,5.035156C9.320312,5.035156,9.050781,5.304688,9.050781,5.632812C9.050781,5.964844,9.320312,6.230469,9.644531,6.230469ZM8.84375,11.992188C8.84375,12.175781,8.996094,12.347656,9.179688,12.347656C9.363281,12.347656,9.515625,12.21875,9.515625,12.03125L9.515625,9.242188L9.707031,9.242188L9.707031,12.03125C9.707031,12.21875,9.890625,12.371094,10.074219,12.371094C10.253906,12.371094,10.421875,12.175781,10.421875,11.992188L10.441406,7.097656L10.667969,7.097656L10.667969,9.046875C10.667969,9.242188,11.246094,9.242188,11.246094,9.046875L11.246094,7.140625C11.246094,6.746094,10.910156,6.355469,10.449219,6.355469L8.90625,6.351562C8.488281,6.351562,8.171875,6.699219,8.171875,7.132812L8.171875,9.046875C8.171875,9.242188,8.554688,9.242188,8.554688,9.046875L8.554688,7.097656L8.84375,7.097656ZM8.84375,11.992188"></path> </svg>