<?xml version="1.0" encoding="utf-8"?> <!DOCTYPE svg PUBLIC "-//W3C//DTD SVG 1.1//EN" "http://www.w3.org/Graphics/SVG/1.1/DTD/svg11.dtd"><svg version="1.1" id="marker-circle-blue" xmlns="http://www.w3.org/2000/svg" xmlns:xlink="http://www.w3.org/1999/xlink" x="0px"  y="0px" width="24px" height="36px" viewBox="0 0 24 36" enable-background="new 0 0 24 36" xml:space="preserve"><path fill="#EF9228" d="M20.103,0.57H2.959c-1.893,0-3.365,0.487-3.365,2.472l-0.063,18.189c0,1.979,1.526,3.724,3.418,3.724h4.558
		l4.01,11.545l3.966-11.545h4.56c1.894,0,3.488-1.744,3.488-3.724V4.166C23.531,2.18,21.996,0.57,20.103,0.57z"></path><path fill="#ffffff" transform="translate(4.5 4.5)" d="M11.85,8.37c-0.9532,0.7086,-2.1239,1.0623,-3.31,1H5.79V14H3V1h5.72c1.1305,-0.0605,2.244,0.2952,3.13,1c0.8321,0.8147,1.2543,1.9601,1.15,3.12C13.1271,6.3214,12.7045,7.5159,11.85,8.37zM9.75,3.7C9.3254,3.3892,8.8052,3.237,8.28,3.27H5.79v3.82h2.49c0.5315,0.0326,1.056,-0.1351,1.47,-0.47c0.3795,-0.3947,0.5693,-0.9346,0.52,-1.48C10.324,4.606,10.1327,4.0763,9.75,3.7z"></path> </svg>