<?xml version="1.0" encoding="utf-8"?> <!DOCTYPE svg PUBLIC "-//W3C//DTD SVG 1.1//EN" "http://www.w3.org/Graphics/SVG/1.1/DTD/svg11.dtd"><svg version="1.1" id="marker-circle-blue" xmlns="http://www.w3.org/2000/svg" xmlns:xlink="http://www.w3.org/1999/xlink" x="0px"  y="0px" width="24px" height="36px" viewBox="0 0 24 36" enable-background="new 0 0 24 36" xml:space="preserve"><path fill="#A23337" d="M20.103,0.57H2.959c-1.893,0-3.365,0.487-3.365,2.472l-0.063,18.189c0,1.979,1.526,3.724,3.418,3.724h4.558
		l4.01,11.545l3.966-11.545h4.56c1.894,0,3.488-1.744,3.488-3.724V4.166C23.531,2.18,21.996,0.57,20.103,0.57z"></path><path fill="#ffffff" transform="translate(4.5 4.5)" d="M4.300781,10.003906L4.980469,7.5L3.648438,7.5L4.277344,10.011719C4.28125,10.015625,4.285156,10.023438,4.285156,10.035156C4.285156,10.046875,4.289062,10.054688,4.292969,10.0625C4.292969,10.054688,4.296875,10.046875,4.296875,10.03125C4.300781,10.019531,4.300781,10.007812,4.300781,10.003906ZM5.273438,6.429688L5.566406,5.355469L3.121094,5.355469L3.390625,6.429688ZM6.878906,6.429688L8.042969,6.429688L7.75,5.355469L7.164062,5.355469ZM10.640625,10.011719L11.292969,7.5L9.9375,7.5L10.613281,10.003906C10.613281,10.007812,10.613281,10.019531,10.617188,10.03125C10.621094,10.046875,10.625,10.054688,10.628906,10.0625C10.628906,10.054688,10.632812,10.046875,10.632812,10.035156C10.636719,10.023438,10.640625,10.015625,10.640625,10.011719ZM11.566406,6.429688L11.84375,5.355469L9.359375,5.355469L9.644531,6.429688ZM15,6.695312L15,7.230469C15,7.308594,14.976562,7.375,14.925781,7.425781C14.875,7.476562,14.808594,7.5,14.730469,7.5L12.949219,7.5L11.578125,12.65625C11.539062,12.789062,11.449219,12.855469,11.316406,12.855469L9.984375,12.855469C9.851562,12.855469,9.765625,12.789062,9.726562,12.65625L8.335938,7.5L6.585938,7.5L5.191406,12.65625C5.152344,12.789062,5.0625,12.855469,4.929688,12.855469L3.597656,12.855469C3.539062,12.855469,3.484375,12.835938,3.4375,12.796875C3.386719,12.757812,3.359375,12.710938,3.347656,12.65625L2.007812,7.5L0.269531,7.5C0.191406,7.5,0.125,7.476562,0.0742188,7.425781C0.0234375,7.375,0,7.308594,0,7.230469L0,6.695312C0,6.617188,0.0234375,6.554688,0.0742188,6.503906C0.125,6.453125,0.191406,6.429688,0.269531,6.429688L1.734375,6.429688L1.457031,5.355469L0.269531,5.355469C0.191406,5.355469,0.125,5.332031,0.0742188,5.28125C0.0234375,5.230469,0,5.167969,0,5.089844L0,4.554688C0,4.476562,0.0234375,4.410156,0.0742188,4.359375C0.125,4.3125,0.191406,4.285156,0.269531,4.285156L1.179688,4.285156L0.433594,1.40625C0.40625,1.324219,0.421875,1.246094,0.476562,1.171875C0.53125,1.105469,0.605469,1.070312,0.695312,1.070312L1.839844,1.070312C1.988281,1.070312,2.074219,1.136719,2.101562,1.273438L2.855469,4.285156L5.859375,4.285156L6.671875,1.273438C6.710938,1.136719,6.796875,1.070312,6.929688,1.070312L7.984375,1.070312C8.121094,1.070312,8.207031,1.136719,8.246094,1.273438L9.066406,4.285156L12.121094,4.285156L12.898438,1.273438C12.925781,1.136719,13.011719,1.070312,13.160156,1.070312L14.304688,1.070312C14.394531,1.070312,14.46875,1.105469,14.523438,1.171875C14.578125,1.246094,14.59375,1.324219,14.566406,1.40625L13.804688,4.285156L14.730469,4.285156C14.808594,4.285156,14.875,4.3125,14.925781,4.359375C14.976562,4.410156,15,4.476562,15,4.554688L15,5.089844C15,5.167969,14.976562,5.230469,14.925781,5.28125C14.875,5.332031,14.808594,5.355469,14.730469,5.355469L13.519531,5.355469L13.234375,6.429688L14.730469,6.429688C14.808594,6.429688,14.875,6.453125,14.925781,6.503906C14.976562,6.554688,15,6.617188,15,6.695312ZM15,6.695312"></path> </svg>