<?xml version="1.0" encoding="utf-8"?> <!DOCTYPE svg PUBLIC "-//W3C//DTD SVG 1.1//EN" "http://www.w3.org/Graphics/SVG/1.1/DTD/svg11.dtd"><svg version="1.1" id="marker-circle-blue" xmlns="http://www.w3.org/2000/svg" xmlns:xlink="http://www.w3.org/1999/xlink" x="0px"  y="0px" width="24px" height="36px" viewBox="0 0 24 36" enable-background="new 0 0 24 36" xml:space="preserve"><path fill="#5B396C" d="M20.103,0.57H2.959c-1.893,0-3.365,0.487-3.365,2.472l-0.063,18.189c0,1.979,1.526,3.724,3.418,3.724h4.558
		l4.01,11.545l3.966-11.545h4.56c1.894,0,3.488-1.744,3.488-3.724V4.166C23.531,2.18,21.996,0.57,20.103,0.57z"></path><path fill="#ffffff" transform="translate(4.5 4.5)" d="M11.573627,2.0842986C11.39692,1.0020409,10.56027,0.18074681,9.5507773,0.18074681c-1.0105229,0,-1.8474299,0.82303959,-2.0231057,1.90675199c-4.1912344,0.4486134,-7.46905735,4.4390026,-7.45617797,9.2934522c0.0028346,1.015926,0.74906955,1.833438,1.64857107,1.833438h7.8307126c0.2277106,0,0.4121429,-0.208306,0.4121429,-0.465488c0,-0.514072,-0.3691246,-0.930973,-0.8242848,-0.930973H7.0910579l0.922169,-1.406062C8.6350477,9.357828,8.2798322,7.8435394,7.144894,7.3105565C6.5295134,7.0216635,5.8170215,7.1752743,5.2840694,7.6270879L4.440207,8.3424835C4.258349,8.4969669,3.9999871,8.4562372,3.8629495,8.2496772C3.7264272,8.0436988,3.763005,7.7518965,3.9451206,7.5977038l0.8958952,-0.759035c0.9489587,-0.8047111,2.2739979,-0.8035473,3.223214,0c0.2799998,0.2371076,1.1815623,1.1363707,1.0509647,2.711754l3.0532045,3.6639662h2.328092c0.22771,0,0.412144,-0.208306,0.412144,-0.465488c0,-0.514072,-0.369127,-0.930973,-0.824287,-0.930973h-1.38145l-2.53777,-3.0454504l3.978209,-2.5209044a1.498139,1.6920461,0,0,0,0.765298,-1.4758855c0,-0.6225893,-0.301896,-1.1913566,-0.785133,-1.490432C13.078721,2.6388104,11.573627,2.0842986,11.573627,2.0842986ZM9.5507773,3.2064138c-0.3415633,0,-0.6182133,-0.3127492,-0.6182133,-0.6982309c0,-0.3857725,0.27665,-0.6982309,0.6182133,-0.6982309c0.3413064,0,0.6182147,0.3124584,0.6182147,0.6982309c0,0.3854817,-0.2769083,0.6982309,-0.6182147,0.6982309z"></path> </svg>