<?xml version="1.0" encoding="utf-8"?> <!DOCTYPE svg PUBLIC "-//W3C//DTD SVG 1.1//EN" "http://www.w3.org/Graphics/SVG/1.1/DTD/svg11.dtd"><svg version="1.1" id="marker-circle-blue" xmlns="http://www.w3.org/2000/svg" xmlns:xlink="http://www.w3.org/1999/xlink" x="0px"  y="0px" width="24px" height="36px" viewBox="0 0 24 36" enable-background="new 0 0 24 36" xml:space="preserve"><path fill="#EF9228" d="M20.103,0.57H2.959c-1.893,0-3.365,0.487-3.365,2.472l-0.063,18.189c0,1.979,1.526,3.724,3.418,3.724h4.558
		l4.01,11.545l3.966-11.545h4.56c1.894,0,3.488-1.744,3.488-3.724V4.166C23.531,2.18,21.996,0.57,20.103,0.57z"></path><path fill="#ffffff" transform="translate(4.5 4.5)" d="M7.546875,5.203125C8.730469,5.203125,9.6875,4.238281,9.6875,3.050781C9.6875,1.863281,8.730469,0.898438,7.546875,0.898438C6.363281,0.898438,5.398438,1.863281,5.398438,3.050781C5.398438,4.238281,6.363281,5.203125,7.546875,5.203125ZM9.632812,5.699219C10.613281,5.699219,11.023438,6.539062,11.023438,6.539062L14.191406,10.902344C14.324219,11.097656,14.398438,11.335938,14.398438,11.589844C14.398438,12.269531,13.851562,12.820312,13.175781,12.820312C13.015625,12.820312,12.855469,12.785156,12.71875,12.730469L10.800781,12.199219L10.800781,14.101562L4.199219,14.101562L4.199219,12.199219L2.28125,12.734375C2.144531,12.785156,1.988281,12.820312,1.828125,12.820312C1.152344,12.820312,0.601562,12.273438,0.601562,11.59375C0.601562,11.339844,0.675781,11.105469,0.8125,10.910156L3.976562,6.539062C3.976562,6.539062,4.390625,5.699219,5.367188,5.699219ZM7.5,12.777344L9.976562,11.953125L9.921875,11.9375C8.210938,11.4375,8.867188,9.171875,10.574219,9.679688L10.800781,9.757812L10.800781,7.203125L7.503906,8.289062L4.199219,7.203125L4.199219,9.757812L4.425781,9.679688C6.132812,9.171875,6.796875,11.4375,5.085938,11.9375L5.023438,11.953125ZM7.5,12.777344"></path> </svg>