<?xml version="1.0" encoding="utf-8"?> <!DOCTYPE svg PUBLIC "-//W3C//DTD SVG 1.1//EN" "http://www.w3.org/Graphics/SVG/1.1/DTD/svg11.dtd"><svg version="1.1" id="marker-circle-blue" xmlns="http://www.w3.org/2000/svg" xmlns:xlink="http://www.w3.org/1999/xlink" x="0px"  y="0px" width="24px" height="36px" viewBox="0 0 24 36" enable-background="new 0 0 24 36" xml:space="preserve"><path fill="#A23337" d="M20.103,0.57H2.959c-1.893,0-3.365,0.487-3.365,2.472l-0.063,18.189c0,1.979,1.526,3.724,3.418,3.724h4.558
		l4.01,11.545l3.966-11.545h4.56c1.894,0,3.488-1.744,3.488-3.724V4.166C23.531,2.18,21.996,0.57,20.103,0.57z"></path><path fill="#ffffff" transform="translate(4.5 4.5)" d="M 12.539923,6.0720338 V 12.884181 H 3.2971578 V 11.46832 c 0,-0.921526 0.494488,-1.7639524 1.2773212,-2.1760566 L 6.2278653,8.4218293 A 1.3864148,1.4597458 0 0 0 6.9942638,7.1161774 V 5.585452 L 6.3551555,5.921893 A 0.69309184,0.72975123 0 0 0 5.9926658,6.3976789 L 5.650828,7.8372923 A 0.34660368,0.36493644 0 0 1 5.4432989,8.087608 L 4.5883143,8.4476792 a 0.34654592,0.36487561 0 0 1 -0.2694844,-0.0053 L 2.5787063,7.6280926 A 0.34660368,0.36493644 0 0 1 2.3728813,7.2946014 V 2.4816979 c 0,-0.1935683 0.073047,-0.3792297 0.2030521,-0.5161114 L 2.8350196,1.6927966 2.4245542,0.82844469 A 0.48920221,0.51507737 0 0 1 2.3728814,0.59798728 c 0,-0.20153607 0.1551919,-0.36493637 0.3466038,-0.36493637 h 4.2747787 c 3.0627921,0 5.5456591,2.61419169 5.5456591,5.83898289 z m 0.577673,7.2987292 H 2.7194851 c -0.1914119,0 -0.3466038,0.163401 -0.3466038,0.364937 v 0.729873 c 0,0.201537 0.1551919,0.364936 0.3466038,0.364936 H 13.117596 c 0.191412,0 0.346604,-0.163399 0.346604,-0.364936 V 13.7357 c 0,-0.201536 -0.155192,-0.364937 -0.346604,-0.364937 z M 3.8748307,3.1525424 c -0.3190488,0 -0.5776729,0.2723034 -0.5776729,0.6082273 0,0.3359241 0.2586241,0.6082274 0.5776729,0.6082274 0.3190487,0 0.5776728,-0.2723033 0.5776728,-0.6082274 0,-0.3359239 -0.2586241,-0.6082273 -0.5776728,-0.6082273 z"></path> </svg>