<?xml version="1.0" encoding="utf-8"?> <!DOCTYPE svg PUBLIC "-//W3C//DTD SVG 1.1//EN" "http://www.w3.org/Graphics/SVG/1.1/DTD/svg11.dtd"><svg version="1.1" id="marker-circle-blue" xmlns="http://www.w3.org/2000/svg" xmlns:xlink="http://www.w3.org/1999/xlink" x="0px"  y="0px" width="24px" height="36px" viewBox="0 0 24 36" enable-background="new 0 0 24 36" xml:space="preserve"><path fill="#FFBA0C" d="M20.103,0.57H2.959c-1.893,0-3.365,0.487-3.365,2.472l-0.063,18.189c0,1.979,1.526,3.724,3.418,3.724h4.558
		l4.01,11.545l3.966-11.545h4.56c1.894,0,3.488-1.744,3.488-3.724V4.166C23.531,2.18,21.996,0.57,20.103,0.57z"></path><path fill="#ffffff" transform="translate(4.5 4.5)" d="M7.5050982,0.19067797L14.936441,3.1639379v0.9898818h-0.989882c0,0.133671,-0.05419,0.2492776,-0.15896,0.3504326c-0.108381,0.097543,-0.231214,0.1445083,-0.375722,0.1445083H1.5983186c-0.1445084,0,-0.2709534,-0.046965,-0.3757218,-0.1445083C1.1178283,4.4030973,1.0636376,4.2874907,1.0636376,4.1538197H0.0737558V3.1639379ZM2.0535195,5.1437024h1.983378V11.090221H5.0267793V5.1437024h1.983378V11.090221H8.0000391V5.1437024H9.9834158V11.090221H10.973299V5.1437024h1.979765v5.9465186h0.458813c0.144508,0,0.267341,0.05058,0.375722,0.148121c0.10477,0.09754,0.15896,0.21315,0.15896,0.34682v0.494942H1.0636376v-0.494942c0,-0.13367,0.054191,-0.249277,0.1589592,-0.34682c0.1047684,-0.09754,0.2312134,-0.148121,0.3757218,-0.148121H2.0535195ZM14.40176,12.578658c0.144508,0,0.270953,0.04696,0.375722,0.144508c0.104768,0.09754,0.158959,0.216762,0.158959,0.350433v0.989882H0.0737558v-0.989882c0,-0.133671,0.05057726,-0.25289,0.15895828,-0.350433c0.10476926,-0.09754,0.23121339,-0.144508,0.37572175,-0.144508zm0,0"></path> </svg>