<?xml version="1.0" encoding="utf-8"?> <!DOCTYPE svg PUBLIC "-//W3C//DTD SVG 1.1//EN" "http://www.w3.org/Graphics/SVG/1.1/DTD/svg11.dtd"><svg version="1.1" id="marker-circle-blue" xmlns="http://www.w3.org/2000/svg" xmlns:xlink="http://www.w3.org/1999/xlink" x="0px"  y="0px" width="24px" height="36px" viewBox="0 0 24 36" enable-background="new 0 0 24 36" xml:space="preserve"><path fill="#EF9228" d="M20.103,0.57H2.959c-1.893,0-3.365,0.487-3.365,2.472l-0.063,18.189c0,1.979,1.526,3.724,3.418,3.724h4.558
		l4.01,11.545l3.966-11.545h4.56c1.894,0,3.488-1.744,3.488-3.724V4.166C23.531,2.18,21.996,0.57,20.103,0.57z"></path><path fill="#ffffff" transform="translate(4.5 4.5)" d="M6.65,2C5.43,2,4.48,3.38,4.11,3.82C4.0365,3.9102,3.9975,4.0237,4,4.14v4.4C3.9884,8.7827,4.1758,8.9889,4.4185,9.0005
	C4.528,9.0057,4.6355,8.9699,4.72,8.9c0.4665-0.6264,1.1589-1.0461,1.93-1.17C8.06,7.73,8.6,9,10.07,9
	c0.9948-0.0976,1.9415-0.4756,2.73-1.09c0.1272-0.0934,0.2016-0.2422,0.2-0.4V2.45c0.0275-0.2414-0.1459-0.4595-0.3874-0.487
	C12.5332,1.954,12.4527,1.9668,12.38,2c-0.6813,0.5212-1.4706,0.8834-2.31,1.06C8.6,3.08,8.12,2,6.65,2z M2.5,3
	c-0.5523,0-1-0.4477-1-1s0.4477-1,1-1s1,0.4477,1,1S3.0523,3,2.5,3z M3,4v9.48c0,0.2761-0.2239,0.5-0.5,0.5S2,13.7561,2,13.48V4
	c0-0.2761,0.2239-0.5,0.5-0.5S3,3.7239,3,4z"></path> </svg>