<svg version="1.1" xmlns="http://www.w3.org/2000/svg" xlink="http://www.w3.org/1999/xlink" x="0px" y="0px" width="15px" height="15px" viewBox="0 0 15 15" style="enable-background:new 0 0 15 15;" space="preserve">
    <path d="M7.5,6.4418999999999995c0.8412,0,1.5474,0.57,1.7469000000000001,1.3407c0.25079999999999997,0.9662999999999999,0.21689999999999998,2.0253,1.3194,2.5751999999999997c0.9785999999999999,0.333,1.3488,0.7515,1.3488,1.8735c0,0.8955,-0.7661999999999999,1.8474,-1.7541,1.9662c-1.1046,0.16590000000000002,-1.9644,-0.051000000000000004,-2.6613,-0.4482c-0.6969,0.3972,-1.5570000000000002,0.6144,-2.6601000000000004,0.4482c-0.9884999999999999,-0.1188,-1.7544,-1.074,-1.7544,-1.9662c0,-1.098,0.39509999999999995,-1.5626999999999998,1.3719000000000001,-1.8809999999999998c1.2021,-0.6141,1.0407,-1.6905,1.3089000000000002,-2.6151c0.21689999999999998,-0.747,0.9110999999999999,-1.2933,1.734,-1.2933zm5.507099999999999,-0.6672c-0.2979,-0.25889999999999996,-1.5138,0.7517999999999999,-1.8962999999999999,1.2515999999999998c-0.23249999999999998,0.2667,-0.37709999999999994,0.6333000000000001,-0.37709999999999994,1.0377c0,0.8132999999999999,0.582,1.4727,1.2981,1.4727c0.5448,0,1.011,-0.37889999999999996,1.2039,-0.9177c0.37470000000000003,-0.969,0.39540000000000003,-2.3024999999999998,-0.2286,-2.8443zm-11.0148,0c-0.6231,0.5418,-0.6029999999999999,1.8753,-0.22769999999999999,2.8443c0.1929,0.5388,0.6588,0.9177,1.2033,0.9177c0.7166999999999999,0,1.2981,-0.6594,1.2981,-1.4727c0,-0.40440000000000004,-0.14429999999999998,-0.7709999999999999,-0.37679999999999997,-1.0377c-0.3828,-0.49979999999999997,-1.5984,-1.5105,-1.8969,-1.2515999999999998zm7.108199999999999,-5.3121c3.0263999999999998,0.5136,2.814,5.610600000000001,0.39089999999999997,5.1998999999999995c-0.699,-0.1188,-1.2179999999999997,-0.7554,-1.2969000000000002,-1.5159c-0.0801,-0.7734,-0.26039999999999996,-3.8814,0.9059999999999999,-3.6839999999999997zm-3.201,0c1.1666999999999998,-0.19770000000000001,0.9861,2.9103,0.9059999999999999,3.6837c-0.0789,0.7608,-0.5973,1.3971,-1.2962999999999998,1.5159c-2.4237,0.4113,-2.6357999999999997,-4.686,0.3903,-5.1996z" fill="#FFFFFF"/>
    </svg>