<svg version="1.1" xmlns="http://www.w3.org/2000/svg" xlink="http://www.w3.org/1999/xlink" x="0px" y="0px" width="15px" height="15px" viewBox="0 0 15 15" style="enable-background:new 0 0 15 15;" space="preserve">
    <path d="M6.27804863,14C5.56199336,14,1,13.888969,1,12.9093418C1,11.4580786,2.1646894,11.0734005,3.19918693,10.8066314C4.35595925,10.5084199,13.1764582,9.77148874,13.7552842,10.0697002C14.4634224,10.4347268,13.515133,12.4937126,12.435772,12.7717813C11.2789997,13.0699928,10.2128339,14,8.47723556,14C7.04512503,14,9.68678837,14,6.27804863,14ZM6.92307692,4.5C6.66538462,4.5,5,4.432,5,3.88461538C5,3.07353846,5.75307692,2.51292308,5.96153846,2.34615385C6.36192308,2.02615385,6.32115385,1.61723077,6.53846154,1.26923077C6.83538462,0.794461538,7.61076923,0.5,7.88461538,0.5C8.10192308,0.5,8.74884615,0.900923077,9.23076923,1.42307692C9.445,1.65507692,10,2.76769231,10,3.11538462C10,4.21723077,9.36153846,4.5,8.84615385,4.5C8.33076923,4.5,8.15038462,4.5,6.92307692,4.5ZM3.67896734,8.22019373C3.00488582,7.7333735,3.67491313,6.85860763,4.56901281,6.21452622C5.37838906,5.63108673,5.92324971,5.96155065,6.79075025,5.70029508C8.33125017,5.23647955,9.02319123,5.72348531,9.02319123,5.72348531L10.9049658,6.81765321C12.0285608,7.62911112,10.9893351,7.67312146,10.3816421,8.55847508C9.79094948,9.41955768,8.1806388,9.10516021,7.4211094,9.33368682C6.78139326,9.52638363,5.74574811,9.71281835,4.62253051,8.90163302L3.67896734,8.22019373Z" fill="#FFFFFF"/>
    </svg>