<svg version="1.1" xmlns="http://www.w3.org/2000/svg" xlink="http://www.w3.org/1999/xlink" x="0px" y="0px" width="15px" height="15px" viewBox="0 0 15 15" style="enable-background:new 0 0 15 15;" space="preserve">
    <path d="M9,0.5C9,0.5,9,1,9,1C9,1,12.5,1,12.5,1C13,1,13,1.5,13,1.5L13,13.5C13,13.5,13,14,12.5,14C12.5,14,9,14,9,14L9,14.5C9,15,6,15,6,14.5L6,14C6,14,2.5,14,2.5,14C2,14,2,13.5,2,13.5L2,1.5C2,1.5,2,1,2.5,1C2.5,1,6,1,6,1C6,1,6,0.5,6,0.5C6,0,9,0,9,0.5zM7.5,3C5,3,3,5,3,7.5C3,10,5,12,7.5,12C10,12,12,10,12,7.5C12,5,10,3,7.5,3z" fill="#FFFFFF"/> <path d="M9,9.5C9.25,10.5,9,11.25,9,11.25C8.754,11.5,6.25,11.5,6,11.25C6,11.25,5.75,10.5,6,9.5C6.5,10,8.5,10,9,9.5z" fill="#FFFFFF"/> <path d="M9.25,4.5C9.25,4.25,10,4.25,10,4.5C10,5.729,8.75,6.75,7.5,9C7.377,9,7,8.5,7,8.5C8,6.75,9.25,5.483,9.25,4.5zM9,7C8.754,7.37,8.623,7.5,8.5,7.75C8.5,8.25,8.25,8.75,7.75,9.25C7.627,9.5,8.377,9.5,8.5,9.25C9,8.75,9.25,8,9,7zM8.5,4.5C8.5,4.25,7.75,4.265,7.75,4.5C7.75,5.25,7.754,5.886,8,6.5C8.123,6.377,8.377,6,8.5,5.75C8.377,5.25,8.4,5,8.5,4.5zM5.75,4.5C5.75,5.75,6.5,6.5,7.5,7.25C7.377,7.5,7.172,7.754,7,8C6,7,5,6,5,4.5C5,4.25,5.75,4.25,5.75,4.5zM6.25,7.5C6,8.25,6,8.75,6.5,9.25C6.623,9.411,7.131,9.623,7.5,9.5C6.763,8.886,6.627,8.37,6.75,8C6.627,7.877,6.5,7.75,6.25,7.5zM7.25,4.5C7.25,4.25,6.5,4.25,6.5,4.5C6.75,5.25,7,5.75,6.75,6.25C6.873,6.5,7.25,6.777,7.5,6.9C7.7,6.1,7.5,5.25,7.25,4.5z" fill="#FFFFFF"/>
    </svg>