<svg version="1.1" xmlns="http://www.w3.org/2000/svg" xlink="http://www.w3.org/1999/xlink" x="0px" y="0px" width="15px" height="15px" viewBox="0 0 15 15" style="enable-background:new 0 0 15 15;" space="preserve">
    <path d="M1.5,14C1.336,13.145,0.871,11.403,1,9.5C1.156,7.187,2.403,5.801,2.5,5.5C2.672,4.969,2.671,4.672,2.5,4C2.281,3.141,1.5,0.5,3.25,0.5C5,0.5,4.204,3.093,4,4C3.859,4.625,3.859,5.062,4,5.5C4.105,5.827,5.234,7.391,5.5,9.5C5.753,11.51,5.22,13.026,5,14C4.78,14.975,1.688,14.982,1.5,14zM10.5,8C10.776,8,11,8.224,11,8.5C11,8.776,10.776,9,10.5,9C10.224,9,10,8.776,10,8.5C10,8.224,10.224,8,10.5,8zM12.5,8.5C12.776,8.5,13,8.724,13,9C13,9.276,12.776,9.5,12.5,9.5C12.224,9.5,12,9.276,12,9C12,8.724,12.224,8.5,12.5,8.5zM11,10C11.276,10,11.5,10.224,11.5,10.5C11.5,10.776,11.276,11,11,11C10.724,11,10.5,10.776,10.5,10.5C10.5,10.224,10.724,10,11,10zM10.5,6.5C8.291,6.5,6.5,8.291,6.5,10.5C6.5,12.709,8.291,14.5,10.5,14.5C12.709,14.5,14.5,12.709,14.5,10.5C14.5,8.291,12.709,6.5,10.5,6.5z" fill="#FFFFFF"/>
    </svg>