<svg version="1.1" xmlns="http://www.w3.org/2000/svg" xlink="http://www.w3.org/1999/xlink" x="0px" y="0px" width="15px" height="15px" viewBox="0 0 15 15" style="enable-background:new 0 0 15 15;" space="preserve">
    <path d="M10.1568,2.5742999999999996c0.6237,0,1.1247,-0.5073,1.1247,-1.1355s-0.5007,-1.1387999999999998,-1.1247,-1.1387999999999998c-0.6209999999999999,0,-1.1226,0.5105999999999999,-1.1226,1.1387999999999998s0.5015999999999999,1.1355,1.1226,1.1355zm-4.7706,4.6116l4.0431,-2.6435999999999997c0.528,-0.33899999999999997,0.6875999999999999,-1.0446,0.35219999999999996,-1.5785999999999998c-0.33149999999999996,-0.5343,-1.0323,-0.6954,-1.5606,-0.3561l-2.9808,1.9479c-0.1692,0.111,-0.3021,0.2556,-0.3882,0.4233l-3.1031999999999997,6.1875c-0.1827,0.3663,-0.0396,0.8097,0.31889999999999996,0.9944999999999999c0.3585,0.1842,0.8000999999999999,0.0402,0.9824999999999999,-0.32280000000000003l2.3361,-4.6521zm7.875,-0.4332c0.5346,-0.3393,0.7008,-1.0512,0.36510000000000004,-1.5923999999999998l-0.39209999999999995,0.24180000000000001c0.2025,0.32580000000000003,0.10319999999999999,0.7524,-0.21869999999999998,0.954l-12.4155,7.9506l0.24569999999999997,0.3933l12.4155,-7.947299999999999z" fill="#FFFFFF"/>
    </svg>