<svg version="1.1" xmlns="http://www.w3.org/2000/svg" xlink="http://www.w3.org/1999/xlink" x="0px" y="0px" width="15px" height="15px" viewBox="0 0 15 15" style="enable-background:new 0 0 15 15;" space="preserve">
    <path d="M13.799999999999999,4.2h-3.5999999999999996v-1.1927999999999999c0,-0.8553,-0.5523,-1.8072,-1.4067,-1.8072h-2.8776c-0.8553,0,-1.4157,0.9519,-1.4157,1.8072v1.1927999999999999h-3.3c-0.33,0,-0.6,0.27,-0.6,0.6v8.7c0,0.33,0.27,0.6,0.6,0.6h12.6c0.33,0,0.6,-0.27,0.6,-0.6v-8.7c0,-0.33,-0.27,-0.6,-0.6,-0.6zm-4.8,9h-3.3v-0.3201c0,-0.0069,0.18389999999999998,-0.015899999999999997,0.2718,-0.026399999999999996s0.165,-0.0282,0.2283,-0.05279999999999999c0.11249999999999999,-0.0423,0.2385,-0.1029,0.2844,-0.1818s0.11549999999999999,-0.18389999999999998,0.11549999999999999,-0.3138v-3.069c0,-0.12299999999999998,-0.0744,-0.2313,-0.1308,-0.3243s-0.1497,-0.168,-0.23399999999999999,-0.2241c-0.0633,-0.0423,-0.10769999999999999,-0.0825,-0.2361,-0.1212s-0.2991,-0.06359999999999999,-0.2991,-0.0741v-0.38489999999999996l2.4525,-0.1371l-0.0525,0.0789v4.1871c0,0.12299999999999998,0.0948,0.22769999999999999,0.14759999999999998,0.3138s0.1626,0.1503,0.261,0.1926c0.0702,0.0315,0.1455,0.0597,0.2301,0.0843s0.2613,0.042,0.2613,0.05279999999999999v0.3201zm-2.8143,-7.128299999999999c0,-0.2673,0.1029,-0.49559999999999993,0.3084,-0.6855s0.45089999999999997,-0.28469999999999995,0.7355999999999999,-0.28469999999999995s0.5292,0.0948,0.7329,0.28469999999999995s0.306,0.4185,0.306,0.6855s-0.1029,0.4947,-0.3084,0.6828s-0.4491,0.282,-0.7305,0.282c-0.28469999999999995,0,-0.5300999999999999,-0.0939,-0.7355999999999999,-0.282s-0.3084,-0.4155,-0.3084,-0.6828zm3.1143,-1.8717h-3.9v-1.1927999999999999c0,-0.3201,0.324,-0.9072,0.6440999999999999,-0.9072h2.4156c0.31949999999999995,0,0.8403,0.5871,0.8403,0.9072v1.1927999999999999z" fill="#FFFFFF"/>
    </svg>