<svg version="1.1" xmlns="http://www.w3.org/2000/svg" xlink="http://www.w3.org/1999/xlink" x="0px" y="0px" width="15px" height="15px" viewBox="0 0 15 15" style="enable-background:new 0 0 15 15;" space="preserve">
    <path d="M12,0C13,0,13,0,13,1L13,14C13,15,13,15,12,15L3,15C2,15,2,15,2,14L2,1C2,0,2,0,3,0L12,0zM10,12L4,12L4,13L10,13L10,12zM12,9L11,9L11,9.75L12,9.75L12,9zM10,2L4,2L4,10L10,10L10,2zM12,7.5L11,7.5L11,8.25L12,8.25L12,7.5zM12,6L11,6L11,6.75L12,6.75L12,6zM12,4.5L11,4.5L11,5.25L12,5.25L12,4.5z" fill="#FFFFFF"/> <path d="M5,3.75C5,3.75,5,3.75,5,3.75C5,4.253,6.5,4.35,7,4.35C7.5,4.35,9,4.247,9,3.75C9,3.75,9,8.75,9,8.75C9,9.75,5,9.75,5,8.75C5,8.75,5,3.75,5,3.75zM7.902,3.258C8.148,3.258,8.348,3.325,8.348,3.407C8.348,3.489,8.148,3.556,7.902,3.555C7.656,3.556,7.457,3.489,7.457,3.407C7.457,3.325,7.656,3.258,7.902,3.258zM9,3.25C9,2.75,7,2.75,7,2.75C7,2.75,5,2.75,5,3.25C5,3.75,6,4,7,4C8,4,9,3.75,9,3.25z" fill="#FFFFFF"/>
    </svg>