<svg version="1.1" xmlns="http://www.w3.org/2000/svg" xlink="http://www.w3.org/1999/xlink" x="0px" y="0px" width="15px" height="15px" viewBox="0 0 15 15" style="enable-background:new 0 0 15 15;" space="preserve">
    <path d="M7.5228,2.2668c0.5318999999999999,0,0.9608999999999999,-0.42779999999999996,0.9608999999999999,-0.9581999999999999c0,-0.5265,-0.429,-0.9579,-0.9608999999999999,-0.9579s-0.9608999999999999,0.43139999999999995,-0.9608999999999999,0.9579c0,0.5300999999999999,0.429,0.9581999999999999,0.9608999999999999,0.9581999999999999zm6.0264,10.982399999999998c-0.26489999999999997,-0.12299999999999998,-0.5630999999999999,-0.1947,-0.8754000000000001,-0.1947c-0.3087,0,-0.6069,0.0717,-0.8754000000000001,0.1947c-0.2571,0.11309999999999999,-0.5454,0.1815,-0.8472,0.1815s-0.5937,-0.0687,-0.8514,-0.1815c-0.2643,-0.12299999999999998,-0.5625,-0.1947,-0.8747999999999999,-0.1947s-0.6111,0.0717,-0.8754000000000001,0.1947c-0.2607,0.11309999999999999,-0.549,0.1815,-0.8507999999999999,0.1815c-0.3021,0,-0.5903999999999999,-0.0687,-0.8511000000000001,-0.1815c-0.2643,-0.12299999999999998,-0.5628,-0.1947,-0.8750999999999999,-0.1947c-0.3087,0,-0.6072,0.0717,-0.8750999999999999,0.1947c-0.25739999999999996,0.11309999999999999,-0.5448,0.1815,-0.8451000000000001,0.1815c-0.3018,0,-0.5937,-0.0687,-0.8511000000000001,-0.1815c-0.2643,-0.12299999999999998,-0.5628,-0.1947,-0.8750999999999999,-0.1947s-0.6108,0.0717,-0.8750999999999999,0.1947c-0.2607,0.11309999999999999,-0.549,0.1818,-0.8511000000000001,0.1818v1.2690000000000001c0.3021,0,0.5903999999999999,-0.06509999999999999,0.8511000000000001,-0.1815c0.2643,-0.12299999999999998,0.5628,-0.1947,0.8750999999999999,-0.1947s0.6108,0.0717,0.8750999999999999,0.1947c0.2571,0.1164,0.5493,0.1815,0.8511000000000001,0.1815c0.30029999999999996,0,0.5877,-0.06509999999999999,0.8451000000000001,-0.1815c0.26789999999999997,-0.12299999999999998,0.5660999999999999,-0.1947,0.8750999999999999,-0.1947c0.31229999999999997,0,0.6108,0.0717,0.8750999999999999,0.1947c0.2607,0.1164,0.549,0.1815,0.8511000000000001,0.1815c0.3018,0,0.5901,-0.06509999999999999,0.8507999999999999,-0.1815c0.2643,-0.12299999999999998,0.5630999999999999,-0.1947,0.8754000000000001,-0.1947s0.6105,0.0717,0.8747999999999999,0.1947c0.2577,0.1164,0.5496,0.1815,0.8514,0.1815s0.5901,-0.06509999999999999,0.8472,-0.1815c0.2685,-0.12299999999999998,0.5667,-0.1947,0.8754000000000001,-0.1947c0.31229999999999997,0,0.6105,0.0717,0.8754000000000001,0.1947c0.2601,0.1164,0.549,0.1815,0.8507999999999999,0.1815v-1.2690000000000001c-0.3018,0,-0.5907,-0.0687,-0.8507999999999999,-0.1818zm0.0792,-12.936300000000001c-0.069,-0.027299999999999998,-0.17339999999999997,-0.0105,-0.2286,0.041100000000000005l-3.5151,3.5387999999999997c-0.0549,-0.024,-0.1278,0.0072,-0.1932,0.0072h-1.3278c-0.2268,-0.3,-1.4277,-1.4717999999999998,-1.4277,-1.4717999999999998c-0.06149999999999999,-0.061799999999999994,-0.1407,-0.1185,-0.2196,-0.1389c-0.2745,-0.2397,-0.6897,-0.24749999999999997,-0.954,0.015899999999999997l-2.0544,2.061c-0.0789,0.0786,-0.108,0.18239999999999998,-0.108,0.2988v1.335h-3v0.6h3v3.4568999999999996c0,0.42779999999999996,0.3204,0.7734,0.7478999999999999,0.7734c0.42479999999999996,0,0.7521,-0.34559999999999996,0.7521,-0.7734v-3.4568999999999996h2.1v4.5h-6.6v0.8999999999999999h7.199999999999999v-5.3999999999999995h0.8999999999999999v-0.6h-3.5999999999999996v-0.24719999999999998l1.9425,-1.9293l0.7928999999999999,0.8132999999999999c0.08519999999999998,0.08879999999999999,0.20879999999999999,0.1632,0.336,0.1632h1.5197999999999998c0.2616,0,0.5087999999999999,-0.0399,0.5087999999999999,-0.3c0,-0.061799999999999994,0.0198,-0.24509999999999998,0,-0.3c0.8303999999999999,-0.828,3,-2.8641,3.3,-3.2781v11.0781h0.3v-11.5161c0,-0.07529999999999999,-0.10319999999999999,-0.1401,-0.17159999999999997,-0.17099999999999999z" fill="#FFFFFF"/>
    </svg>