<svg version="1.1" xmlns="http://www.w3.org/2000/svg" xlink="http://www.w3.org/1999/xlink" x="0px" y="0px" width="15px" height="15px" viewBox="0 0 15 15" style="enable-background:new 0 0 15 15;" space="preserve">
    <path d="M6,0.5C6,0.5,6,2,6,2C6,2,8.5,2,8.5,2C9,2,9,2.5,9,2.5L9,12.5C9,12.5,9,13,8.5,13C8.5,13,6,13,6,13L6,14.5C6,15,3,15,3,14.5L3,13C3,13,0.5,13,0.5,13C0,13,0,12.5,0,12.5L0,2.5C0,2.5,0,2,0.5,2C0.5,2,3,2,3,2C3,2,3,0.5,3,0.5C3,0,6,0,6,0.5zM4.5,4C2.5,4,1,5.5,1,7.5C1,9.5,2.5,11,4.5,11C6.5,11,8,9.5,8,7.5C8,5.5,6.5,4,4.5,4z" fill="#FFFFFF"/> <path d="M3,9C3,9,6,9,6,9C6.5,9,6.5,10,6,10C6,10,3,10,3,10C2.5,10,2.5,9,3,9zM2.5,5.5C2.25,5.75,3.6,7.1,3.6,7.1C3.6,7.1,3.5,7.3,3.5,7.5C3.5,8,3.875,8.5,4.5,8.5C5.125,8.5,5.5,8,5.5,7.5C5.5,7,5.125,6.5,4.5,6.5C4.2,6.5,4.1,6.6,4.1,6.6C4.1,6.6,2.75,5.25,2.5,5.5z" fill="#FFFFFF"/> <path d="M11.5,2C11.5,2,10,8,10,8C10,8,12,8,12,8C12,8,11,13,11,13C11,13,15,6,15,6C15,6,13,6,13,6C13,6,14.5,2,14.5,2C14.5,2,11.5,2,11.5,2z" fill="#FFFFFF"/>
    </svg>