<svg version="1.1" xmlns="http://www.w3.org/2000/svg" xlink="http://www.w3.org/1999/xlink" x="0px" y="0px" width="15px" height="15px" viewBox="0 0 15 15" style="enable-background:new 0 0 15 15;" space="preserve">
    <path d="M0,2C0,2,5,2,5,2C5,2,15,6.5,15,6.5C15,6.5,7.75,6.5,7.75,6.5C7.75,6.5,0,2,0,2z" fill="#FFFFFF"/> <path d="M0,2.5C0,2.5,7.495,7.002,7.495,7.002C7.495,7.002,5.5,12.5,5.5,12.5C5.5,12.5,0,6,0,6C0,6,0,2.5,0,2.5z" fill="#FFFFFF"/> <path d="M15,7C15,7,12.5,12.5,12.5,12.5C12.5,12.5,6,12.5,6,12.5C6,12.5,8,7,8,7L15,7zM10.126,7.5C8.952,7.5,8,8.351,8,9.4C8,10.449,8.952,11.3,10.126,11.3C11.3,11.3,12.252,10.449,12.252,9.4C12.252,8.351,11.3,7.5,10.126,7.5z" fill="#FFFFFF"/>
    </svg>