<svg version="1.1" xmlns="http://www.w3.org/2000/svg" xlink="http://www.w3.org/1999/xlink" x="0px" y="0px" width="15px" height="15px" viewBox="0 0 15 15" style="enable-background:new 0 0 15 15;" space="preserve">
    <path d="M4.34468228,6.14629706L12.3923048,1.5L13.8923048,4.09807621L6,8.65470054L6,14L1,14L1,8.5C1,7.11928813,2.11928813,6,3.5,6C3.79644174,6,4.08083262,6.05159581,4.34468228,6.14629706L4.34468228,6.14629706ZM5.2902936,6.75504864C5.52346341,6.99423906,5.70910244,7.27998378,5.83195099,7.59702314L7.33012702,6.73205081L6.83012702,5.8660254L5.2902936,6.75504864L5.2902936,6.75504864ZM8.19615242,6.23205081L9.92820323,5.23205081L9.42820323,4.3660254L7.69615242,5.3660254L8.19615242,6.23205081ZM10.7942286,4.73205081L12.5262794,3.73205081L12.0262794,2.8660254L10.2942286,3.8660254L10.7942286,4.73205081ZM3.5,9.5C4.05228475,9.5,4.5,9.05228475,4.5,8.5C4.5,7.94771525,4.05228475,7.5,3.5,7.5C2.94771525,7.5,2.5,7.94771525,2.5,8.5C2.5,9.05228475,2.94771525,9.5,3.5,9.5Z" fill="#FFFFFF"/>
    </svg>