<svg version="1.1" xmlns="http://www.w3.org/2000/svg" xlink="http://www.w3.org/1999/xlink" x="0px" y="0px" width="15px" height="15px" viewBox="0 0 15 15" style="enable-background:new 0 0 15 15;" space="preserve">
    <path d="M13.7097,7.243499999999999l-2.367,-3.9879c-0.09419999999999999,-0.1752,-0.3216,-0.2556,-0.5163,-0.2556h-2.1264v-1.7999999999999998c0,-0.33,-0.27,-0.6,-0.6,-0.6h-1.5c-0.33,0,-0.6,0.27,-0.6,0.6v1.7999999999999998h-1.788c-0.195,0,-0.432,0.0804,-0.5262,0.2556l-2.3763,4.0194c-0.3903,0,-0.7095,0.2961,-0.7095,0.6966v3.6416999999999997c0,0.40049999999999997,0.3192,0.6867,0.7095,0.6867h0.7904999999999999v1.134c0,0.6012,0.39840000000000003,0.966,0.9836999999999999,0.966h0.3549c0.5853,0,1.0614,-0.36479999999999996,1.0614,-0.966v-1.134h6v1.134c0,0.6012,0.5142,0.966,1.0995,0.966h0.35519999999999996c0.5853,0,0.9452999999999999,-0.36479999999999996,0.9452999999999999,-0.966v-1.134h0.8289c0.39,0,0.6711,-0.28619999999999995,0.6711,-0.6867v-3.6416999999999997c0,-0.40049999999999997,-0.3,-0.7281,-0.6903,-0.7281zm-11.1582,2.9130000000000003c-0.4899,0,-0.8874000000000001,-0.40740000000000004,-0.8874000000000001,-0.9101999999999999c0,-0.5031,0.3972,-0.9105,0.8874000000000001,-0.9105s0.8870999999999999,0.40740000000000004,0.8870999999999999,0.9105c0,0.5027999999999999,-0.3969,0.9101999999999999,-0.8870999999999999,0.9101999999999999zm0.5322,-2.9565l1.6152,-2.8131c0.0876,-0.17939999999999998,0.31889999999999996,-0.18689999999999998,0.5139,-0.18689999999999998h4.6128c0.195,0,0.4263,0.0075,0.5136,0.18689999999999998l1.6155,2.8131h-8.871zm9.402899999999999,2.9565c-0.4895999999999999,0,-0.8870999999999999,-0.40740000000000004,-0.8870999999999999,-0.9101999999999999c0,-0.5031,0.39749999999999996,-0.9105,0.8870999999999999,-0.9105c0.4899,0,0.8874000000000001,0.40740000000000004,0.8874000000000001,0.9105c0,0.5027999999999999,-0.39749999999999996,0.9101999999999999,-0.8874000000000001,0.9101999999999999z" fill="#FFFFFF"/>
    </svg>