<?xml version="1.0" encoding="utf-8"?> <!DOCTYPE svg PUBLIC "-//W3C//DTD SVG 1.1//EN" "http://www.w3.org/Graphics/SVG/1.1/DTD/svg11.dtd"><svg version="1.1" id="icon" xmlns="http://www.w3.org/2000/svg" xmlns:xlink="http://www.w3.org/1999/xlink" x="0px"  y="0px" width="15px" height="15px" viewBox="0 0 15 15" enable-background="new 0 0 15 15" xml:space="preserve"><path fill="#FFFFFF" d="m9.5339002,12.828389c0,1.161311,-0.9485556,2.102755,-2.1186419,2.102755c-1.1700863,0,-2.118642,-0.941444,-2.118642,-2.102755c0,-0.778183,0.4262442,-1.457109,1.059321,-1.820755V7.5715044c0,-0.5806556,0.4742778,-1.0513774,1.059321,-1.0513774c0.5850432,0,1.059321,0.4707218,1.059321,1.0513774v3.4361296c0.6330767,0.363646,1.0593209,1.042572,1.0593209,1.820755zm1.0593218,-2.78132c0.659163,0.741321,1.05932,1.714862,1.05932,2.78132c0,2.322755,-1.8969457,4.205508,-4.2372837,4.205508c-0.0099,0,-0.02016,-0.000033,-0.030091,-0.000098c-2.3272622,-0.01603,-4.2190109,-1.917481,-4.2071265,-4.227324c0.00543,-1.057883,0.4046274,-2.023179,1.0592547,-2.759406V3.3659957c0,-1.7419673,1.4228336,-3.15413124,3.177963,-3.15413124c1.7551293,0,3.1779645,1.41216394,3.1779645,3.15413124zm-0.529662,2.78132c0,-1.128225,-0.6412196,-1.714729,-1.0593202,-2.184959V3.3659957c0,-0.8695874,-0.7128236,-1.5770657,-1.5889815,-1.5770657c-0.8761578,0,-1.5889816,0.7074783,-1.5889816,1.5770657V10.64343c-0.4214773,0.47404,-1.0535277,1.054663,-1.0592878,2.171094c-0.00741,1.44157,1.1772697,2.632255,2.6292015,2.642242l0.019068,0.000066c1.4602742,0,2.6483016,-1.17912,2.6483016,-2.628443z"></path> </svg>