<svg version="1.1" xmlns="http://www.w3.org/2000/svg" xlink="http://www.w3.org/1999/xlink" x="0px" y="0px" width="15px" height="17.142857142857142px" viewBox="0 0 15 17.142857142857142" style="enable-background:new 0 0 15 15;" space="preserve">
    <path d="M0,2.8125V1.875c0,-0.4453125,0.35825892857142855,-0.8035714285714286,0.8035714285714286,-0.8035714285714286h3.75l0.31473214285714285,-0.6261160714285714c0.13392857142857142,-0.2745535714285714,0.41183035714285715,-0.4453125,0.7165178571428571,-0.4453125h3.8270089285714284c0.3046875,0,0.5825892857142857,0.17075892857142855,0.7198660714285714,0.4453125L10.446428571428571,1.0714285714285714h3.75c0.4453125,0,0.8035714285714286,0.35825892857142855,0.8035714285714286,0.8035714285714286v0.9375c0,0.22098214285714285,-0.18080357142857142,0.4017857142857143,-0.4017857142857143,0.4017857142857143H0.4017857142857143C0.18080357142857142,3.2142857142857144,0,3.033482142857143,0,2.8125zm13.901785714285714,1.8984375L13.21875,15.636160714285714c-0.053571428571428575,0.8470982142857143,-0.7566964285714286,1.5066964285714286,-1.6037946428571428,1.5066964285714286H3.3850446428571423c-0.8470982142857143,0,-1.5502232142857142,-0.6595982142857142,-1.6037946428571428,-1.5066964285714286L1.0982142857142856,4.710937499999999c-0.013392857142857144,-0.23102678571428573,0.17075892857142855,-0.42522321428571425,0.4017857142857143,-0.42522321428571425h12.003348214285714c0.22767857142857142,0,0.41183035714285715,0.19419642857142855,0.3984375,0.42522321428571425z" fill="#FFFFFF"/>
    </svg>