<?xml version="1.0" encoding="utf-8"?> <!DOCTYPE svg PUBLIC "-//W3C//DTD SVG 1.1//EN" "http://www.w3.org/Graphics/SVG/1.1/DTD/svg11.dtd"><svg version="1.1" id="icon" xmlns="http://www.w3.org/2000/svg" xmlns:xlink="http://www.w3.org/1999/xlink" x="0px"  y="0px" width="15px" height="15px" viewBox="0 0 15 15" enable-background="new 0 0 15 15" xml:space="preserve"><path fill="#FFFFFF" d="m1.2385557,8.9744813c0.053106,0.1962644,0.2562982,0.3140229,0.4525625,0.2609161L6.6877773,7.896182C6.8840416,7.8430752,7.0018002,7.6398838,6.9486933,7.4436195L5.8011243,3.160439C5.7480174,2.9641748,5.5448261,2.8464161,5.3485618,2.899523L3.5660199,3.3797933L4.1386499,5.5202291L2.7116927,5.9012127L2.1390627,3.760777L0.35421183,4.2387384C0.15794749,4.2918452,0.04018889,4.4950365,0.09329571,4.6913009ZM8.9459716,0.30190678c-0.4086917,0,-0.7388775,0.33018585,-0.7388775,0.73887752V8.5126829L0.21567229,10.692371c-0.0992867,0.0277,-0.15701146,0.129303,-0.12930355,0.226281l0.29093301,1.069064c0.0277079,0.09929,0.12930356,0.157011,0.22628123,0.129303L9.6940851,9.6371621c0.055415,1.3807769,1.1822039,2.4867839,2.5768349,2.4867839c1.429266,0,2.586071,-1.156805,2.586071,-2.5860706V0.30190678ZM12.27092,10.646191c-0.611882,0,-1.108316,-0.496433,-1.108316,-1.1083156c0,-0.6118829,0.496434,-1.1083162,1.108316,-1.1083162c0.611883,0,1.108317,0.4964333,1.108317,1.1083162c0,0.6118826,-0.496434,1.1083156,-1.108317,1.1083156z"></path> </svg>