<svg version="1.1" xmlns="http://www.w3.org/2000/svg" xlink="http://www.w3.org/1999/xlink" x="0px" y="0px" width="15px" height="17.142857142857142px" viewBox="0 0 15 17.142857142857142" style="enable-background:new 0 0 15 15;" space="preserve">
    <path d="M9.286941964285715,0.4011160714285714C8.741517857142856,0.14966517857142855,8.13984375,0,7.5,0c-1.79765625,0,-3.331473214285714,1.109263392857143,-3.9679687500000003,2.6785714285714284h2.7184151785714286l3.0364955357142858,-2.277455357142857zM11.467968749999999,2.6785714285714284c-0.2645089285714286,-0.6518973214285714,-0.6920758928571429,-1.2120535714285714,-1.221763392857143,-1.6580357142857143L8.035379464285715,2.6785714285714284h3.4325892857142857zM7.5,8.571428571428571c2.3668526785714286,0,4.285714285714286,-1.9188616071428573,4.285714285714286,-4.285714285714286c0,-0.18348214285714287,-0.03180803571428571,-0.35825892857142855,-0.05390625,-0.5357142857142857H3.2681919642857142c-0.022433035714285714,0.17745535714285712,-0.05390625,0.3522321428571428,-0.05390625,0.5357142857142857c0,2.3668526785714286,1.9188616071428573,4.285714285714286,4.285714285714286,4.285714285714286zM2.6785714285714284,10.034598214285714V17.142857142857142h4.294419642857142l-3.2963169642857144,-7.416964285714286A4.447600446428572,4.447600446428572,0,0,0,2.6785714285714284,10.034598214285714zM0,15.535714285714285c0,0.8876116071428571,0.71953125,1.6071428571428572,1.6071428571428572,1.6071428571428572V10.722321428571428C0.6321428571428571,11.54765625,0,12.765401785714285,0,14.142857142857142V15.535714285714285zm8.571428571428571,-1.6071428571428572h-1.8542410714285715l1.4286830357142857,3.2142857142857144H8.571428571428571c0.8862723214285714,0,1.6071428571428572,-0.7208705357142857,1.6071428571428572,-1.6071428571428572s-0.7208705357142857,-1.6071428571428572,-1.6071428571428572,-1.6071428571428572zm1.9285714285714286,-4.285714285714286h-0.5594866071428571c-0.744642857142857,0.34084821428571427,-1.5696428571428571,0.5357142857142857,-2.440513392857143,0.5357142857142857s-1.6958705357142856,-0.19486607142857143,-2.440513392857143,-0.5357142857142857h-0.24676339285714285l1.4286830357142857,3.2142857142857144H8.571428571428571c1.4768973214285714,0,2.6785714285714284,1.2016741071428572,2.6785714285714284,2.6785714285714284c0,0.6053571428571428,-0.20959821428571426,1.1581473214285716,-0.5494419642857142,1.6071428571428572H13.392857142857142c0.8876116071428571,0,1.6071428571428572,-0.71953125,1.6071428571428572,-1.6071428571428572v-1.3928571428571428c0,-2.4853794642857143,-2.0146205357142857,-4.5,-4.5,-4.5z" fill="#FFFFFF"/>
    </svg>