<svg version="1.1" xmlns="http://www.w3.org/2000/svg" xlink="http://www.w3.org/1999/xlink" x="0px" y="0px" width="15px" height="17.142857142857142px" viewBox="0 0 15 17.142857142857142" style="enable-background:new 0 0 15 15;" space="preserve">
    <path d="M7.5,8.571428571428571c2.3671875,0,4.285714285714286,-1.9185267857142856,4.285714285714286,-4.285714285714286S9.8671875,0,7.5,0S3.2142857142857144,1.9185267857142856,3.2142857142857144,4.285714285714286s1.9185267857142856,4.285714285714286,4.285714285714286,4.285714285714286zM3.482142857142857,14.196428571428571c0,0.4453125,0.35825892857142855,0.8035714285714286,0.8035714285714286,0.8035714285714286s0.8035714285714286,-0.35825892857142855,0.8035714285714286,-0.8035714285714286s-0.35825892857142855,-0.8035714285714286,-0.8035714285714286,-0.8035714285714286s-0.8035714285714286,0.35825892857142855,-0.8035714285714286,0.8035714285714286zm7.232142857142857,-4.533482142857143v1.640625c1.2220982142857142,0.24776785714285715,2.142857142857143,1.3325892857142856,2.142857142857143,2.625v1.3962053571428572c0,0.2544642857142857,-0.18080357142857142,0.47544642857142855,-0.43191964285714285,0.5256696428571428l-1.078125,0.2142857142857143c-0.14397321428571427,0.030133928571428572,-0.2845982142857143,-0.06361607142857142,-0.31473214285714285,-0.2109375l-0.10379464285714286,-0.5256696428571428c-0.030133928571428572,-0.14397321428571427,0.06361607142857142,-0.28794642857142855,0.2109375,-0.31473214285714285l0.6462053571428571,-0.13058035714285712V13.928571428571429c0,-2.102678571428571,-3.2142857142857144,-2.1796874999999996,-3.2142857142857144,0.06361607142857142v0.8939732142857142l0.6462053571428571,0.13058035714285712c0.14397321428571427,0.030133928571428572,0.23772321428571427,0.17075892857142855,0.2109375,0.31473214285714285l-0.10379464285714286,0.5256696428571428c-0.030133928571428572,0.14397321428571427,-0.17075892857142855,0.23772321428571427,-0.31473214285714285,0.2109375l-1.044642857142857,-0.140625c-0.2645089285714286,-0.036830357142857144,-0.46205357142857145,-0.26116071428571425,-0.46205357142857145,-0.5323660714285714V13.928571428571429c0,-1.2924107142857142,0.9207589285714285,-2.373883928571429,2.142857142857143,-2.625v-1.5133928571428572c-0.07366071428571429,0.023437499999999997,-0.14732142857142858,0.036830357142857144,-0.22098214285714285,0.06361607142857142c-0.6026785714285714,0.2109375,-1.2488839285714284,0.328125,-1.921875,0.328125s-1.3191964285714284,-0.1171875,-1.921875,-0.328125c-0.24776785714285715,-0.08705357142857142,-0.49888392857142855,-0.140625,-0.7566964285714286,-0.17410714285714285v2.7321428571428568c0.7734375,0.23102678571428573,1.3392857142857142,0.9408482142857143,1.3392857142857142,1.7879464285714284c0,1.0345982142857142,-0.8404017857142857,1.875,-1.875,1.875s-1.875,-0.8404017857142857,-1.875,-1.875c0,-0.8470982142857143,0.5658482142857142,-1.5569196428571428,1.3392857142857142,-1.7879464285714284v-2.691964285714286C1.6238839285714286,10.078125,0,11.912946428571429,0,14.142857142857142v1.4999999999999998C0,16.46986607142857,0.6729910714285715,17.142857142857142,1.4999999999999998,17.142857142857142h11.999999999999998c0.8270089285714285,0,1.4999999999999998,-0.6729910714285715,1.4999999999999998,-1.4999999999999998v-1.4999999999999998c0,-2.4107142857142856,-1.9017857142857142,-4.362723214285714,-4.285714285714286,-4.479910714285714z" fill="#FFFFFF"/>
    </svg>