<svg version="1.1" xmlns="http://www.w3.org/2000/svg" xlink="http://www.w3.org/1999/xlink" x="0px" y="0px" width="15px" height="17.142857142857142px" viewBox="0 0 15 17.142857142857142" style="enable-background:new 0 0 15 15;" space="preserve">
    <path d="M2.142857142857143,7.5h0.45200892857142855c0.8270089285714285,1.8917410714285714,2.708705357142857,3.2142857142857144,4.905133928571429,3.2142857142857144s4.078125,-1.3225446428571428,4.905133928571429,-3.2142857142857144H12.857142857142858c0.29464285714285715,0,0.5357142857142857,-0.24107142857142858,0.5357142857142857,-0.5357142857142857v-3.2142857142857144c0,-0.29464285714285715,-0.24107142857142858,-0.5357142857142857,-0.5357142857142857,-0.5357142857142857h-0.45200892857142855C11.578125,1.3225446428571428,9.696428571428571,0,7.5,0S3.421875,1.3225446428571428,2.594866071428571,3.2142857142857144H2.142857142857143c-0.29464285714285715,0,-0.5357142857142857,0.24107142857142858,-0.5357142857142857,0.5357142857142857v3.2142857142857144c0,0.29464285714285715,0.24107142857142858,0.5357142857142857,0.5357142857142857,0.5357142857142857zm1.3392857142857142,-2.946428571428571c0,-0.7399553571428572,0.7198660714285714,-1.3392857142857142,1.6071428571428572,-1.3392857142857142h4.821428571428571c0.8872767857142857,0,1.6071428571428572,0.5993303571428571,1.6071428571428572,1.3392857142857142v0.8035714285714286c0,1.7745535714285714,-1.4397321428571428,3.2142857142857144,-3.2142857142857144,3.2142857142857144h-1.6071428571428572c-1.7745535714285714,0,-3.2142857142857144,-1.4397321428571428,-3.2142857142857144,-3.2142857142857144v-0.8035714285714286zm2.4107142857142856,2.4107142857142856l0.4017857142857143,-1.2053571428571428l1.2053571428571428,-0.4017857142857143l-1.2053571428571428,-0.4017857142857143l-0.4017857142857143,-1.2053571428571428l-0.4017857142857143,1.2053571428571428l-1.2053571428571428,0.4017857142857143l1.2053571428571428,0.4017857142857143l0.4017857142857143,1.2053571428571428zm5.075892857142857,3.796875C9.967633928571427,11.407366071428571,8.779017857142856,11.785714285714285,7.5,11.785714285714285s-2.4676339285714284,-0.3783482142857143,-3.4687499999999996,-1.0245535714285714C1.771205357142857,10.998883928571429,0,12.890625,0,15.214285714285714v0.3214285714285714c0,0.8872767857142857,0.7198660714285714,1.6071428571428572,1.6071428571428572,1.6071428571428572h2.6785714285714284v-2.142857142857143c0,-0.5926339285714285,0.47879464285714285,-1.0714285714285714,1.0714285714285714,-1.0714285714285714h4.285714285714286c0.5926339285714285,0,1.0714285714285714,0.47879464285714285,1.0714285714285714,1.0714285714285714v2.142857142857143h2.6785714285714284c0.8872767857142857,0,1.6071428571428572,-0.7198660714285714,1.6071428571428572,-1.6071428571428572v-0.3214285714285714c0,-2.3236607142857144,-1.771205357142857,-4.215401785714286,-4.03125,-4.453125zM9.107142857142858,15c-0.29464285714285715,0,-0.5357142857142857,0.24107142857142858,-0.5357142857142857,0.5357142857142857s0.24107142857142858,0.5357142857142857,0.5357142857142857,0.5357142857142857s0.5357142857142857,-0.24107142857142858,0.5357142857142857,-0.5357142857142857s-0.24107142857142858,-0.5357142857142857,-0.5357142857142857,-0.5357142857142857zm-3.2142857142857144,0c-0.29464285714285715,0,-0.5357142857142857,0.24107142857142858,-0.5357142857142857,0.5357142857142857v1.6071428571428572h1.0714285714285714v-1.6071428571428572c0,-0.29464285714285715,-0.24107142857142858,-0.5357142857142857,-0.5357142857142857,-0.5357142857142857z" fill="#FFFFFF"/>
    </svg>