<svg version="1.1" xmlns="http://www.w3.org/2000/svg" xlink="http://www.w3.org/1999/xlink" x="0px" y="0px" width="15px" height="16.216216216216218px" viewBox="0 0 15 16.216216216216218" style="enable-background:new 0 0 15 15;" space="preserve">
    <path d="m7.4469797,0.70012754c-2.6523295,0,-4.9157495,2.03036806,-4.9157495,4.60359296h2.8675205c0,-0.9641607,0.8544596,-1.8014059,2.048229,-1.8014059c1.1937692,0,2.0482288,0.8372452,2.0482288,1.8014059c0,0.6004687,-0.095277,0.7818931,-0.8456944,1.1485528C7.3647662,7.0800112,6.3075482,7.93128,6.0412224,9.232568C5.8912756,9.9652196,5.8145199,10.585345,5.8540015,11.188001h2.8627199v-0.126662l-0.0032,-0.04613C8.7002774,10.82109,8.7306074,10.378165,8.8527371,9.7814337C8.8595071,9.7483477,9.031228,9.3986785,9.9312576,8.9589165C11.365613,8.2580767,12.362725,6.838251,12.362725,5.3037201c0,-2.5732248,-2.26342,-4.60359291,-4.9157501,-4.60359291zM5.8492009,11.108251v0.07975h0.00242zm0,1.280687v2.802187h2.8675205v-2.802187z" fill="#FFFFFF"/>
    </svg>