<svg version="1.1" xmlns="http://www.w3.org/2000/svg" xlink="http://www.w3.org/1999/xlink" x="0px" y="0px" width="15px" height="26.666666666666664px" viewBox="0 0 15 26.666666666666664" style="enable-background:new 0 0 15 15;" space="preserve">
    <path d="M11.25,24.166666666666668h-2.0833333333333335V18.063020833333333c3.5661458333333336,-0.8276041666666667,6.1484375,-4.161979166666667,5.802083333333334,-8.029166666666667l-0.8307291666666666,-9.276041666666666C14.099479166666667,0.3286458333333333,13.744791666666666,0,13.319791666666667,0H1.6802083333333333c-0.4244791666666667,0,-0.7796875000000001,0.3286458333333333,-0.8177083333333334,0.7578125000000001L0.03125,10.034375C-0.3151041666666667,13.901562500000002,2.2671875000000004,17.235937500000002,5.833333333333334,18.063541666666666V24.166666666666668H3.75c-1.1505208333333334,0,-2.0833333333333335,0.9328125,-2.0833333333333335,2.0833333333333335c0,0.23020833333333335,0.18645833333333334,0.4166666666666667,0.4166666666666667,0.4166666666666667h10.833333333333334c0.23020833333333335,0,0.4166666666666667,-0.18645833333333334,0.4166666666666667,-0.4166666666666667c0,-1.1505208333333334,-0.9328125,-2.0833333333333335,-2.0833333333333335,-2.0833333333333335zM3.2161458333333335,2.5h8.567708333333334l0.37343750000000003,4.166666666666667H2.8427083333333334l0.37343750000000003,-4.166666666666667z" fill="#FFFFFF"/>
    </svg>