<?xml version="1.0" encoding="UTF-8" standalone="no"?>
<!-- Created with Inkscape (http://www.inkscape.org/) -->

<svg
   width="500"
   height="500"
   viewBox="0 0 132.29166 132.29167"
   version="1.1"
   id="svg5"
   xml:space="preserve"
   xmlns:xlink="http://www.w3.org/1999/xlink"
   xmlns="http://www.w3.org/2000/svg"
   xmlns:svg="http://www.w3.org/2000/svg"><defs
     id="defs2"><linearGradient
       id="linearGradient32332"><stop
         style="stop-color:#56a3f6;stop-opacity:1;"
         offset="0"
         id="stop32328" /><stop
         style="stop-color:#5d89d8;stop-opacity:1"
         offset="1"
         id="stop32330" /></linearGradient><linearGradient
       id="linearGradient22940"><stop
         style="stop-color:#52c752;stop-opacity:1"
         offset="0"
         id="stop22936" /><stop
         style="stop-color:#10a110;stop-opacity:1;"
         offset="1"
         id="stop22938" /></linearGradient><linearGradient
       id="linearGradient22031"><stop
         style="stop-color:#5d89d8;stop-opacity:0;"
         offset="0"
         id="stop22027" /><stop
         style="stop-color:#5d89d8;stop-opacity:1;"
         offset="1"
         id="stop22029" /></linearGradient><linearGradient
       xlink:href="#linearGradient22031"
       id="linearGradient22033"
       x1="59.779297"
       y1="-2.5295613"
       x2="79.772858"
       y2="46.01577"
       gradientUnits="userSpaceOnUse" /><linearGradient
       xlink:href="#linearGradient22940"
       id="linearGradient22942"
       x1="41.664078"
       y1="4.6240997"
       x2="13.179242"
       y2="30.58326"
       gradientUnits="userSpaceOnUse" /><linearGradient
       xlink:href="#linearGradient32332"
       id="linearGradient32334"
       x1="43.200462"
       y1="126.78192"
       x2="30.810522"
       y2="127.87798"
       gradientUnits="userSpaceOnUse" /><filter
       style="color-interpolation-filters:sRGB;"
       id="filter52937"
       x="-0.034731634"
       y="-0.046094412"
       width="1.0694633"
       height="1.0921888"><feGaussianBlur
         stdDeviation="0.1 0.1"
         result="blur"
         id="feGaussianBlur52935" /></filter><filter
       style="color-interpolation-filters:sRGB"
       id="filter52937-3"
       x="-0.034731634"
       y="-0.046094412"
       width="1.0694633"
       height="1.0921888"><feGaussianBlur
         stdDeviation="0.1 0.1"
         result="blur"
         id="feGaussianBlur52935-6" /></filter><filter
       style="color-interpolation-filters:sRGB"
       id="filter52937-5"
       x="-0.034731634"
       y="-0.046094412"
       width="1.0694633"
       height="1.0921888"><feGaussianBlur
         stdDeviation="0.1 0.1"
         result="blur"
         id="feGaussianBlur52935-3" /></filter><filter
       style="color-interpolation-filters:sRGB"
       id="filter52937-6"
       x="-0.034731634"
       y="-0.046094412"
       width="1.0694633"
       height="1.0921888"><feGaussianBlur
         stdDeviation="0.1 0.1"
         result="blur"
         id="feGaussianBlur52935-2" /></filter><filter
       style="color-interpolation-filters:sRGB"
       id="filter52937-1"
       x="-0.034731634"
       y="-0.046094412"
       width="1.0694633"
       height="1.0921888"><feGaussianBlur
         stdDeviation="0.1 0.1"
         result="blur"
         id="feGaussianBlur52935-27" /></filter><mask
       maskUnits="userSpaceOnUse"
       id="mask54813"><g
         id="g54819"><rect
           style="opacity:1;fill:#000000;fill-opacity:1;stroke:none;stroke-width:2.91042;stroke-linecap:round;stroke-linejoin:round;stroke-dasharray:none;stroke-opacity:1"
           id="rect54815"
           width="132.29166"
           height="132.29166"
           x="0"
           y="4.9999999e-06" /><circle
           style="opacity:1;fill:#ffffff;fill-opacity:1;stroke:none;stroke-width:2.91042;stroke-linecap:round;stroke-linejoin:round;stroke-dasharray:none;stroke-opacity:1"
           id="circle54817"
           cx="66.145828"
           cy="66.145836"
           r="66.145828" /></g></mask></defs><g
     id="layer1"><g
       id="g54536"
       mask="url(#mask54813)"><rect
         style="opacity:1;fill:#e5e5e5;fill-opacity:1;stroke:none;stroke-width:0.105833;stroke-linecap:round;stroke-linejoin:round;stroke-opacity:1"
         id="rect2562"
         width="132.29166"
         height="132.29166"
         x="0"
         y="4.9999999e-06" /><path
         style="fill:#afafaf;fill-opacity:1;stroke:none;stroke-width:0.264583px;stroke-linecap:butt;stroke-linejoin:miter;stroke-opacity:1"
         d="m 34.425925,77.508548 18.627655,-5.518202 -2.996891,-9.044751 -9.898754,2.854337 -3.799589,-9.252829 -9.224671,3.507195 z"
         id="path14586" /><rect
         style="opacity:1;fill:#afafaf;fill-opacity:1;stroke:none;stroke-width:0.0696501;stroke-linecap:round;stroke-linejoin:round;stroke-opacity:1"
         id="rect15140"
         width="19.23756"
         height="11.807749"
         x="64.319107"
         y="120.13936"
         transform="matrix(0.99874612,-0.0500618,0.0395416,0.99921793,0,0)" /><rect
         style="opacity:1;fill:#ffd75b;fill-opacity:1;stroke:none;stroke-width:0.0696501;stroke-linecap:round;stroke-linejoin:round;stroke-opacity:1"
         id="rect2518"
         width="19.23756"
         height="11.807749"
         x="63.713428"
         y="120.87263"
         transform="matrix(0.99874612,-0.0500618,0.0395416,0.99921793,0,0)" /><rect
         style="opacity:1;fill:#bababa;fill-opacity:1;stroke:none;stroke-width:0.105833;stroke-linecap:round;stroke-linejoin:round;stroke-opacity:1"
         id="rect2520"
         width="8.0126572"
         height="13.837626"
         x="2.5083625"
         y="110.38788"
         transform="rotate(-32.821105)" /><rect
         style="opacity:1;fill:#fddacb;fill-opacity:1;stroke:none;stroke-width:0.105833;stroke-linecap:round;stroke-linejoin:round;stroke-opacity:1"
         id="rect2522"
         width="6.4333425"
         height="3.8560266"
         x="52.669144"
         y="134.3425"
         transform="rotate(-30.846188)" /><path
         style="fill:#ffd75b;fill-opacity:1;stroke:none;stroke-width:0.264583px;stroke-linecap:butt;stroke-linejoin:miter;stroke-opacity:1"
         d="m 33.873372,78.107873 18.627655,-5.518202 -2.996891,-9.044751 -9.898754,2.854337 -3.799589,-9.252829 -9.224671,3.507195 z"
         id="path2528" /><rect
         style="opacity:1;fill:#afafaf;fill-opacity:1;stroke:none;stroke-width:0.105833;stroke-linecap:round;stroke-linejoin:round;stroke-opacity:1"
         id="rect15771"
         width="14.008361"
         height="25.2444"
         x="42.871429"
         y="71.94603"
         transform="rotate(-50.919153)" /><rect
         style="opacity:1;fill:#ffd75b;fill-opacity:1;stroke:none;stroke-width:0.105833;stroke-linecap:round;stroke-linejoin:round;stroke-opacity:1"
         id="rect2530"
         width="14.008361"
         height="25.2444"
         x="43.69297"
         y="71.278839"
         transform="rotate(-50.919153)" /><rect
         style="opacity:1;fill:#86d186;fill-opacity:1;stroke:none;stroke-width:0.105833;stroke-linecap:round;stroke-linejoin:round;stroke-opacity:1"
         id="rect2532"
         width="6.9119563"
         height="26.62451"
         x="22.334721"
         y="86.177841"
         transform="rotate(4.4614773)" /><path
         style="fill:#86d186;fill-opacity:1;stroke:none;stroke-width:0.264583px;stroke-linecap:butt;stroke-linejoin:miter;stroke-opacity:1"
         d="M 4.2802012,56.25367 11.860125,55.200658 23.216809,72.985957 14.37285,72.046768 Z"
         id="path2534" /><path
         style="fill:#86d186;fill-opacity:1;stroke:none;stroke-width:0.264583px;stroke-linecap:butt;stroke-linejoin:miter;stroke-opacity:1"
         d="m 97.479709,50.05728 3.164401,-6.884723 21.17313,0.04948 -5.65431,6.887046 z"
         id="path2536" /><path
         style="fill:url(#linearGradient22942);fill-opacity:1;stroke:none;stroke-width:0.263752px;stroke-linecap:butt;stroke-linejoin:miter;stroke-opacity:1"
         d="m 7.0517991,36.278301 c 0,0 4.0888939,-0.449661 5.6845739,-0.424944 2.838035,0.04396 5.707297,0.195305 7.27539,-0.07646 1.500595,-0.26007 2.794433,-0.611484 3.134016,-0.893655 2.200277,-1.828293 4.510208,-3.03845 8.702725,-5.557096 3.090479,-1.856598 4.536195,-3.288239 6.432243,-5.125227 1.896047,-1.836987 4.259106,-4.399139 4.89815,-5.845315 1.051287,-2.379098 0.642996,-4.330482 0.871127,-6.133535 0.228131,-1.803053 0.835232,-4.5395099 0.923621,-5.7086807 0.08906,-1.1780099 0.111471,-2.8959898 -0.03484,-3.3221716 C 43.846773,0.01025359 22.192134,0.36408167 17.344024,5.843336 12.495914,11.322591 2.0559388,35.387941 7.0517991,36.278301 Z"
         id="path2544" /><path
         style="fill:url(#linearGradient32334);stroke:none;stroke-width:0.264583px;stroke-linecap:butt;stroke-linejoin:miter;stroke-opacity:1;fill-opacity:1"
         d="m 41.585573,123.92614 c 1.844759,0.75859 5.399079,6.3528 4.593354,6.99062 -0.805722,0.63782 -15.015509,3.40541 -16.62385,-0.33417 -1.608341,-3.73958 -3.162786,-6.58939 -1.098965,-7.29262 2.063824,-0.70323 4.477705,-0.41876 5.146402,-0.22089 0.668695,0.19787 6.058638,-0.0214 7.983059,0.85706 z"
         id="path2548" /><path
         style="fill:url(#linearGradient22033);fill-opacity:1;stroke:none;stroke-width:0.264583px;stroke-linecap:butt;stroke-linejoin:miter;stroke-opacity:1"
         d="m 59.779296,-2.5295613 c -0.384267,2.03287977 2.92572,8.4387037 4.070035,12.1907285 0.892525,2.9264458 1.549253,3.5821748 1.807141,7.1907558 0.219138,3.066365 -0.457278,4.597003 -0.08942,8.158465 0.331048,3.205082 1.512797,7.043632 2.636965,10.544657 1.124168,3.501025 3.138362,7.193339 3.833186,9.342989 1.098433,3.39834 6.160689,23.767479 6.566524,27.910181 0.730785,7.459733 0.196892,13.337823 1.259612,17.735611 0.621362,2.571346 1.877952,6.23795 3.612185,8.641334 2.117348,2.93432 6.478992,5.04331 9.2692,8.15351 2.539306,2.83052 5.59271,15.81343 8.479326,20.87159 3.79797,6.65511 29.34716,12.53829 34.4904,7.03368 5.14324,-5.50461 -4.32712,-28.35723 -8.50342,-32.16651 -3.68063,-3.35717 -4.48745,-5.982709 -9.30557,-9.084461 C 108.66226,88.04249 104.86903,86.351968 100.34633,80.37778 98.872909,78.431484 96.969105,74.773552 96.499694,71.842562 95.824558,67.627031 96.092612,59.950846 95.191604,56.906604 93.868178,52.435135 92.203878,48.643142 89.832586,45.519445 87.461294,42.395748 82.758117,40.123974 81.601993,38.261488 79.516347,34.901568 79.859652,32.45086 78.881835,29.338591 77.606832,25.280416 78.878275,21.083152 78.108665,19.133716 76.432163,14.887108 67.89898,0.29873824 67.223152,-3.3420439 66.315586,-8.2312318 64.022179,-5.3476622 62.606511,-5.089095 c -1.415668,0.2585672 -2.442949,0.5266539 -2.827215,2.5595337 z"
         id="path2550" /><path
         style="fill:none;stroke:#ffffff;stroke-width:2.11667;stroke-linecap:butt;stroke-linejoin:miter;stroke-dasharray:none;stroke-opacity:1"
         d="m 29.239365,117.19132 c 0.403861,-7.6238 0.83236,-15.14684 0.78252,-22.995464 -1.008533,-16.11945 -3.341001,-23.960737 -9.125506,-35.624498 0,0 -6.064636,-8.454487 -8.51564,-10.445355 C 9.9297346,46.135135 0.88647872,40.790078 0.88647872,40.790078 -1.5832848,39.375433 -3.5724946,39.603775 -5.8628728,39.621506"
         id="path2540" /><path
         style="fill:none;fill-opacity:1;stroke:#fffa6c;stroke-width:2.91042;stroke-linecap:butt;stroke-linejoin:miter;stroke-dasharray:none;stroke-opacity:1"
         d="M -3.6561979,130.12947 29.25558,116.94124 c 13.301182,-0.0712 21.984549,0.2401 36.167535,-1.3166 4.045029,-0.44397 9.077407,-0.64606 13.718558,-2.27668 5.07345,-1.7825 9.23085,-3.72487 12.491029,-5.29476 15.395048,-7.41324 45.656218,-24.754894 45.656218,-24.754894"
         id="path2542" /><path
         style="fill:none;stroke:#ffffff;stroke-width:2.11667;stroke-linecap:butt;stroke-linejoin:miter;stroke-dasharray:none;stroke-opacity:1"
         d="M 56.076904,-0.49092504 C 55.798164,9.8061473 54.674197,21.090121 53.034522,31.317803 42.635664,40.815993 31.535349,50.521747 20.730484,58.854002"
         id="path2538" /><g
         id="g52054"
         transform="matrix(2.7727267,0,0,2.7727267,54.164701,103.62457)"><path
           fill="#1b75bb"
           d="m 1.6111584,-1.2985732 c -1.75392303,0 -3.7847411,0.85375487 -4.5371307,1.90724484 -0.08563,0.11989885 -0.1488111,0.23762822 -0.1942932,0.3505848 C -3.2247443,1.2174222 -3.2319463,1.457943 -3.1476105,1.6680914 l 0.011474,0.023575 1.0194699,2.2164654 4.2231286,-2.2263 0.01852,-0.00926 C 2.5366935,1.4476743 2.892303,1.1890746 3.1653292,0.91051589 3.2617551,0.81144385 3.3504877,0.71164867 3.4240325,0.60867164 4.1762154,-0.44452908 3.3650864,-1.2985732 1.6111644,-1.2985732 Z"
           id="path52494"
           style="fill:#000000;fill-opacity:0.348481;stroke-width:0.195618;filter:url(#filter52937)" /><path
           fill="#1b75bb"
           d="m -2.1074046,-5.6168681 c -1.753923,0 -3.175,1.5618354 -3.175,3.4890604 0,0.2193396 0.0209,0.4347104 0.05609,0.64135 0.0799,0.4722812 0.244475,0.91228325 0.478896,1.29672285 l 0.02831,0.043127 2.602442,4.05473965 2.63313288,-4.07273125 0.01191,-0.016933 c 0.25108996,-0.4114274 0.42201096,-0.88450235 0.49609392,-1.39408985 0.02567,-0.1812396 0.04313,-0.3638021 0.04313,-0.5521854 0,-1.9266958 -1.42107684,-3.4890604 -3.1749988,-3.4890604 z"
           id="path50991"
           style="fill:#d40000;fill-opacity:1;stroke-width:0.264583" /><g
           id="g48910"><path
             d="m -0.79374956,-1.1906201 c 0,0.66144998 -0.52916704,1.05832998 -1.19062504,1.05832998 1.05833304,-1.05832998 0,-0.92603998 -0.264584,-1.58749998 -0.132291,0.52917 -0.661458,1.05832998 0,1.58749998 -0.529166,0 -1.190625,-0.26458 -1.190625,-1.05832998 0,-0.52917 0.529167,-1.05834 0.529167,-2.11667 0.132292,0.39687 0.396875,0.66146 0.396875,0.66146 0,-0.92604 0.926042,-1.45521 0.926042,-1.45521 -0.132292,1.05833 0.529166,1.19062 0.396875,1.71979 -0.132292,0.66146 0.39687504,0.79375 0.39687504,1.19063 z"
             fill="#ffffff"
             id="path47401"
             style="stroke-width:0.264583" /><rect
             style="opacity:1;fill:none;fill-opacity:1;stroke:none;stroke-width:2.91042;stroke-linecap:round;stroke-linejoin:round;stroke-dasharray:none;stroke-opacity:1"
             id="rect48906"
             width="4.2333331"
             height="4.2333398"
             x="-4.2333331"
             y="-4.233335" /></g></g><g
         id="g49557"
         transform="matrix(2.7727267,0,0,2.7727267,115.03535,37.552684)"><path
           fill="#1b75bb"
           d="m 1.6111584,-1.2985732 c -1.75392302,0 -3.7847411,0.85375487 -4.5371307,1.90724483 -0.08563,0.1198989 -0.1488111,0.2376282 -0.1942932,0.3505848 C -3.2247443,1.2174222 -3.2319463,1.457943 -3.1476105,1.6680914 l 0.011474,0.023575 1.0194699,2.2164654 4.2231286,-2.2263 0.01852,-0.00926 C 2.5366935,1.4476743 2.892303,1.1890746 3.1653292,0.91051593 3.2617551,0.81144393 3.3504877,0.71164863 3.4240325,0.60867163 4.1762154,-0.44452908 3.3650864,-1.2985732 1.6111644,-1.2985732 Z"
           id="path52494-7"
           style="fill:#000000;fill-opacity:0.348481;stroke-width:0.195618;filter:url(#filter52937-3)" /><path
           fill="#1b75bb"
           d="m -2.1074046,-5.6168681 c -1.753923,0 -3.175,1.5618354 -3.175,3.4890604 0,0.2193396 0.0209,0.4347104 0.05609,0.64135 0.0799,0.4722812 0.244475,0.91228325 0.478896,1.29672285 l 0.02831,0.043127 2.602442,4.05473965 2.63313288,-4.07273125 0.01191,-0.016933 c 0.25108996,-0.4114274 0.42201096,-0.88450235 0.49609392,-1.39408985 0.02567,-0.1812396 0.04313,-0.3638021 0.04313,-0.5521854 0,-1.9266958 -1.42107684,-3.4890604 -3.1749988,-3.4890604 z"
           id="path48922"
           style="fill:#008000;fill-opacity:1;stroke-width:0.264583" /><g
           id="g48884"><rect
             style="opacity:1;fill:none;fill-opacity:1;stroke:none;stroke-width:2.91042;stroke-linecap:round;stroke-linejoin:round;stroke-dasharray:none;stroke-opacity:1"
             id="rect48880"
             width="4.2333331"
             height="4.2333398"
             x="-4.2333331"
             y="-4.233335" /><path
             d="m -1.3756266,-3.743955 c -0.102208,0 -0.185415,-0.005 -0.211873,0.20619 l -0.105937,0.66715 0.635103,0.52348 h 0.52916699 c 0.370416,0 0.396875,-0.25373 0.396875,-0.25373 l -0.502812,-0.58705 c -0.185209,-0.18521 -0.37031299,-0.21756 -0.55552099,-0.21756 v -0.13229 c 0,0 0.01785,-0.20621 -0.185002,-0.20619 z m -1.468644,0.0739 c 0,0 -0.251561,0.005 -0.410311,0.0584 -0.1587499,0.0529 -0.3172929,0.23822 -0.3172929,0.50281 v 1.03198 c 0,0.44979 -0.185209,0.52348 -0.264584,0.52348 0,0 -0.264583,0.006 -0.264583,0.27027 v 0.58186998 c 0,0 2.07e-4,0.21188 0.211873,0.21188 h 0.05271 0.132292 0.132292 v -0.1323 -0.0527 c 0,-0.10583 -0.05292,-0.15906 -0.132292,-0.18551 V -1.150815 c 0.264583,0 0.291042,-0.0531 0.3968749,-0.0796 l 0.145728,0.58135998 c 0.02646,0.0794 0.05292,0.13218 0.132291,0.15864 h 0.264584 l 0.251147,-0.005 v -0.21187 c 0,-0.17897 -0.264583,-0.185 -0.264583,-0.185 V -1.553745 h 0.926041 l 0.185002,0.69349998 c 0.105833,0.37041 0.344165,0.36483 0.344165,0.36483 h 0.132292 0.26458299 v -0.21187 c 0,-0.18833 -0.26458299,-0.185 -0.26458299,-0.185 l 0.02635,-1.07900998 -0.820105,-0.64079 h -1.190625 v -0.52916 c 0,-0.10584 0.07316,-0.13089 0.132291,-0.13229 0.130731,-0.003 0.198438,0 0.198438,0 0.10959,0 0.198437,-0.0889 0.198437,-0.19844 0,-0.10959 -0.08885,-0.19844 -0.198437,-0.19844 z m 1.85208299,0.66146 c 0.03654,0 0.06615,0.0296 0.06615,0.0661 0,0.0365 -0.02961,0.0661 -0.06615,0.0661 -0.03654,0 -0.06615,-0.0296 -0.06615,-0.0661 0,-0.0365 0.02961,-0.0661 0.06615,-0.0661 z"
             fill="#ffffff"
             id="path47383"
             style="stroke-width:0.264583" /></g></g><g
         id="g50131"
         transform="matrix(2.7727267,0,0,2.7727267,39.372923,57.640828)"><path
           fill="#1b75bb"
           d="m 1.6111584,-1.2985732 c -1.753923,0 -3.7847411,0.8537549 -4.5371307,1.9072448 -0.08563,0.1198989 -0.1488111,0.2376283 -0.1942932,0.3505848 -0.1044788,0.2581658 -0.1116808,0.4986866 -0.027345,0.708835 l 0.011474,0.023575 1.0194699,2.2164654 4.2231286,-2.2263 0.01852,-0.00926 C 2.5366935,1.4476743 2.892303,1.1890746 3.1653292,0.9105159 3.2617551,0.8114438 3.3504877,0.7116487 3.4240325,0.6086716 4.1762154,-0.4445291 3.3650864,-1.2985732 1.6111644,-1.2985732 Z"
           id="path52494-5"
           style="fill:#000000;fill-opacity:0.348481;stroke-width:0.195618;filter:url(#filter52937-5)" /><path
           fill="#1b75bb"
           d="m -2.1074046,-5.6168681 c -1.753923,0 -3.175,1.5618354 -3.175,3.4890604 0,0.2193396 0.0209,0.4347104 0.05609,0.64135 0.0799,0.4722812 0.244475,0.91228325 0.478896,1.29672285 l 0.02831,0.043127 2.602442,4.05473965 2.63313288,-4.07273125 0.01191,-0.016933 c 0.25108996,-0.4114274 0.42201096,-0.88450235 0.49609392,-1.39408985 0.02567,-0.1812396 0.04313,-0.3638021 0.04313,-0.5521854 0,-1.9266958 -1.42107684,-3.4890604 -3.1749988,-3.4890604 z"
           id="path50125"
           style="fill:#ff6600;fill-opacity:1;stroke-width:0.264583" /><g
           id="g48892"><path
             d="m -3.1078039,-4.1010401 -0.264583,1.45521 c -0.03874,0.21299 0.471355,0.31247 0.46302,0.52916 l -0.06615,1.71979998 c -0.01016,0.26439 0.264584,0.26458 0.264584,0.26458 0,0 0.274743,-1.9e-4 0.264583,-0.26458 l -0.06615,-1.71979998 c -0.0083,-0.21632 0.458629,-0.31242 0.463021,-0.52916 l -0.264583,-1.45521 h -0.132292 l 0.06615,1.05833 -0.198437,0.13229 -0.06615,-1.19062 h -0.132292 l -0.06615,1.19062 -0.198437,-0.13229 0.06615,-1.05833 z m 2.24895804,0 c -0.19483904,0 -0.51969404,0.17327 -0.64957804,0.43304 -0.108241,0.19484 -0.144172,0.63011 -0.144172,0.88988 v 0.66145 c 0,0.21649 0.288634,0.26459 0.396875,0.26459 l -0.132291,1.45520998 c -0.02394,0.26349 0.264583,0.26458 0.264583,0.26458 0,0 0.26458304,0 0.26458304,-0.26458 z"
             fill="#ffffff"
             id="path47374"
             style="stroke-width:0.264583" /><rect
             style="opacity:1;fill:none;fill-opacity:1;stroke:none;stroke-width:2.91042;stroke-linecap:round;stroke-linejoin:round;stroke-dasharray:none;stroke-opacity:1"
             id="rect48888"
             width="4.2333331"
             height="4.2333398"
             x="-4.2333331"
             y="-4.233335" /></g></g><g
         id="g50492"
         transform="matrix(2.7727267,0,0,2.7727267,115.5038,75.790465)"><path
           fill="#1b75bb"
           d="m 1.6111584,-1.2985732 c -1.753923,0 -3.7847411,0.85375484 -4.5371307,1.9072448 -0.08563,0.1198989 -0.1488111,0.2376282 -0.1942932,0.3505848 -0.1044788,0.2581658 -0.1116808,0.4986866 -0.027345,0.708835 l 0.011474,0.023575 1.0194699,2.2164654 4.2231286,-2.2263 0.01852,-0.00926 C 2.5366935,1.4476743 2.892303,1.1890746 3.1653292,0.9105159 3.2617551,0.8114438 3.3504877,0.7116486 3.4240325,0.6086716 4.1762154,-0.44452911 3.3650864,-1.2985732 1.6111644,-1.2985732 Z"
           id="path52494-9"
           style="fill:#000000;fill-opacity:0.348481;stroke-width:0.195618;filter:url(#filter52937-6)" /><path
           fill="#1b75bb"
           d="m -2.1074046,-5.6168681 c -1.753923,0 -3.175,1.5618354 -3.175,3.4890604 0,0.2193396 0.0209,0.4347104 0.05609,0.64135 0.0799,0.4722812 0.244475,0.91228325 0.478896,1.29672285 l 0.02831,0.043127 2.602442,4.05473965 2.63313288,-4.07273125 0.01191,-0.016933 c 0.25108996,-0.4114274 0.42201096,-0.88450235 0.49609392,-1.39408985 0.02567,-0.1812396 0.04313,-0.3638021 0.04313,-0.5521854 0,-1.9266958 -1.42107684,-3.4890604 -3.1749988,-3.4890604 z"
           id="path50486"
           style="fill:#ff6600;fill-opacity:1;stroke-width:0.264583" /><g
           id="g54447"
           transform="matrix(1.0000084,0,0,1.0000084,1.882763e-5,8.23772e-5)"><path
             d="m -3.4588964,-1.2441881 c -0.0419,0.07534 -0.0753,0.188693 -0.0753,0.26011698 0,0.01658 0,0.03767 0.004,0.06693 l -0.52429,-0.90168298 c -0.0168,-0.02926 -0.0293,-0.07123 -0.0293,-0.109046 0,-0.03787 0.0125,-0.0839 0.0293,-0.113204 l 0.2517,-0.440394 -0.28098,-0.159242 0.9143497,-0.01693 0.4445,0.800996 -0.28509,-0.163544 -0.4489597,0.775998 z m 0.4027197,-2.541485 c 0.0796,-0.138547 0.20976,-0.214035 0.369,-0.214035 0.17208,0 0.30632,0.07979 0.40272,0.243141 l 0.14263,0.239032 -0.49502,0.855789 -0.8009897,-0.465592 z m 0.0586,3.26699298 c -0.23903,0 -0.4361197,-0.197109 -0.4361197,-0.436136 0,-0.06712 0.0295,-0.18046998 0.0714,-0.25169998 l 0.13407,-0.239032 h 0.99414 v 0.92687398 h -0.76349 z m 0.79706,-3.29233498 c -0.0628,-0.108903 -0.14674,-0.184585 -0.24742,-0.226559 h 1.03164 c 0.0923,0 0.16352,0.03787 0.20564,0.10924 l 0.25581999,0.436135 0.27672,-0.163694 -0.44469999,0.797032 -0.9099,-0.01282 0.28098,-0.159243 -0.44878,-0.780093 z m 1.58968999,2.373876 c 0.12568,0 0.23064,-0.03356 0.31866,-0.100536 l -0.52019,0.90578398 c -0.0419,0.07123 -0.11729,0.113204 -0.20531999,0.113204 h -0.49091 v 0.322931 l -0.46968,-0.784214 0.46968,-0.78441398 v 0.327239 h 0.89775999 z m 0.40238,-0.754958 c 0.0378,0.06712 0.0589,0.138353 0.0589,0.213884 0,0.151021 -0.0966,0.310408 -0.23064,0.385752 -0.063,0.03376 -0.15119,0.05479 -0.23903,0.05479 h -0.27704 l -0.49469999,-0.855788 0.80101999,-0.457176 z"
             fill="#ffffff"
             id="path53759"
             style="stroke-width:0.264583" /><rect
             style="opacity:1;fill:#000000;fill-opacity:0;stroke:none;stroke-width:2.91042;stroke-linecap:round;stroke-linejoin:round;stroke-dasharray:none;stroke-opacity:1"
             id="rect54183"
             width="4.2333331"
             height="4.2333398"
             x="-4.2333331"
             y="-4.233335" /></g></g><g
         id="g50997"
         transform="matrix(2.7727267,0,0,2.7727267,29.515079,89.399458)"><path
           fill="#1b75bb"
           d="m 1.6111584,-1.2985732 c -1.753923,0 -3.7847411,0.85375484 -4.5371307,1.90724481 -0.08563,0.11989885 -0.1488111,0.23762822 -0.1942932,0.35058479 -0.1044788,0.2581658 -0.1116808,0.4986866 -0.027345,0.708835 l 0.011474,0.023575 1.0194699,2.2164654 4.2231286,-2.2263 0.01852,-0.00926 C 2.5366935,1.4476743 2.892303,1.1890746 3.1653292,0.91051586 3.2617551,0.81144382 3.3504877,0.71164864 3.4240325,0.60867161 4.1762154,-0.44452911 3.3650864,-1.2985732 1.6111644,-1.2985732 Z"
           id="path52494-0"
           style="fill:#000000;fill-opacity:0.348481;stroke-width:0.195618;filter:url(#filter52937-1)" /><path
           fill="#1b75bb"
           d="m -2.1074046,-5.6168681 c -1.753923,0 -3.175,1.5618354 -3.175,3.4890604 0,0.2193396 0.0209,0.4347104 0.05609,0.64135 0.0799,0.4722812 0.244475,0.91228325 0.478896,1.29672285 l 0.02831,0.043127 2.602442,4.05473965 2.63313288,-4.07273125 0.01191,-0.016933 c 0.25108996,-0.4114274 0.42201096,-0.88450235 0.49609392,-1.39408985 0.02567,-0.1812396 0.04313,-0.3638021 0.04313,-0.5521854 0,-1.9266958 -1.42107684,-3.4890604 -3.1749988,-3.4890604 z"
           id="path48912"
           style="fill:#0071ff;fill-opacity:1;stroke-width:0.264583" /><g
           id="g48904"><path
             d="m -2.1166616,-3.5718727 c -0.178885,-0.003 -0.178885,0.26712 0,0.26458 h 0.396875 v 0.33486 l -0.741548,0.61754 -0.257889,-0.68781 h 0.07339 c 0.178884,0.003 0.178884,-0.26713 0,-0.26459 h -0.529167 c -0.178884,-0.003 -0.178884,0.26713 0,0.26459 h 0.172588 l 0.235664,0.62838 c -0.123772,-0.0615 -0.26117,-0.0992 -0.408252,-0.0992 -0.509878,0 -0.926041,0.41617 -0.926041,0.92605 0,0.50987 0.416163,0.92603998 0.926041,0.92603998 0.509879,0 0.926042,-0.41616998 0.926042,-0.92603998 0,-0.17725 -0.053,-0.34161 -0.140044,-0.48266 l 0.746204,-0.62166 0.122476,0.30697 c -0.275828,0.16068 -0.464053,0.45635 -0.464053,0.79735 0,0.50987 0.416164,0.92603998 0.926042,0.92603998 0.50987904,0 0.92604204,-0.41616998 0.92604204,-0.92603998 0,-0.50988 -0.416163,-0.92605 -0.92604204,-0.92605 -0.0749,0 -0.146685,0.0115 -0.216535,0.0284 l -0.18034,-0.45114 v -0.50332 c 0,-0.073 -0.05924,-0.13229 -0.132292,-0.13229 z m -1.058334,1.32292 c 0.156713,0 0.298345,0.0561 0.411348,0.14623 l -0.496094,0.41341 c -0.135175,0.11306 0.03381,0.31605 0.169492,0.2036 l 0.496094,-0.41341 c 0.04979,0.0931 0.08062,0.19815 0.08062,0.31163 0,0.36687 -0.294587,0.66144998 -0.661459,0.66144998 -0.366871,0 -0.661458,-0.29457998 -0.661458,-0.66144998 0,-0.36688 0.294561,-0.66146 0.661457,-0.66146 z m 2.116667,0 c 0.36687104,0 0.66145904,0.29458 0.66145904,0.66146 0,0.36687 -0.294588,0.66144998 -0.66145904,0.66144998 -0.366871,0 -0.661458,-0.29457998 -0.661458,-0.66144998 0,-0.23204 0.118216,-0.43448 0.297656,-0.55243 l 0.240824,0.60151 c 0.06509,0.16486 0.31231404,0.0662 0.24598304,-0.0982 l -0.24029504,-0.60047 c 0.03815,-0.007 0.0771,-0.0119 0.11729,-0.0119 z"
             fill="#ffffff"
             id="path48136"
             style="stroke-width:0.264583" /><rect
             style="opacity:1;fill:none;fill-opacity:1;stroke:none;stroke-width:2.91042;stroke-linecap:round;stroke-linejoin:round;stroke-dasharray:none;stroke-opacity:1"
             id="rect48900"
             width="4.2333331"
             height="4.2333398"
             x="-4.2333331"
             y="-4.233335" /></g></g></g></g></svg>
