<svg version="1.1" xmlns="http://www.w3.org/2000/svg" xlink="http://www.w3.org/1999/xlink" x="0px" y="0px" width="15px" height="15px" viewBox="0 0 15 15" style="enable-background:new 0 0 15 15;" space="preserve"><path d="M7.4044348353415765.8454135576238564c.7289266221952698 0 1.319693094629156.5908719381970627 1.319693094629156 1.3197985603923326 0 .728794789991299-.5907664724338861 1.3197985603923326-1.319693094629156 1.3197985603923326s-1.319693094629156-.5910037704010336-1.319693094629156-1.3197985603923326C6.084741740712421 1.4363118622617133 6.675534579587101.8454135576238564 7.4044348353415765.8454135576238564L7.4044348353415765.8454135576238564zM11.017217285838585.3941782898726501l-.019221135338940595-.00846362749492446-.002293880349091676-.0006855274606480871-.24241305666148127-.10211722519577082c-.277427690036122-.11643420254699818-.40461940042713634.1108181506578427-.4432726026313708.20296886123342212L9.675350014501543 2.1211801618899466c-.004350462731035938.01212856276531231-.17359664618873097.42724180662852324-.4411896538086324.7278983310042977l-.8517415034144541.9562580747224932c-.0004745959342948295.00023729796714741475-.0004745959342948295.00023729796714741475-.0004745959342948295.0008173596646188731-.22184723284203864.24929469770875629-.4862235346850528.27972157038521367-.5823028449389617.2819890842935112h-1.239855511904448c-.2909273077227305 0-.4439317636512247-.13278139583937562-.49721834049621644-.19018113744825585-.2520631739921428-.3060089118569884-.5730482242202125-.910406834181454-.7545284362063965-1.2706251483112294-.13093574498378463-.2535396946766156-.047354127666306325-.4392385371898647-.012919555989137027-.4982466316871885l.8918712263031613-1.445012787723785c0 0 0 0 0-.00023729796714741475.20196693648324412-.32718116381469664-.08758931631819021-.4901257679225881-.08758931631819021-.4901257679225881l-.2357950800221478-.14810029794078097c-.00023729796714741475 0-.00023729796714741475 0-.0006855274606480871 0-.26609012049463443-.16626677564795528-.4549002030215941.17565322857067525-.4549002030215941.17565322857067525L4.281909984971128 2.1694571149840485c-.04345189442877106.07936298679041316-.191552192369552.3975004614127139.011311203100693437.7760434518944288l2.569620586916972 4.799245919793287c.024019827563477206.04482294935006723.14090225960397607.2903472460252591-.004798692224536609.449336884014027l-1.6047670524955835 1.7504680043240963 0 0c0 0-.001476520684472803.0013710549212961741-.001476520684472803.002293880349091676l-.07113665726263611.07730640440846889c-.11345479473725842.13402061855670103-.33677854826376985.45081340469849973-.4824795000922825 1.0086481925804835l0 0-.90708466264139 3.463416563398107c-.027658396393070897.11229467134231551-.0994805811163551.5038363171355499.24678988583331135.5038363171355499h.6205078176496954c.0943654916022886-.002953041368945606.3746407572441796-.04550847681071532.5077385503730851-.4674769952804071v-.0004745959342948295l.7025074485195243-2.705249558362117c0-.00044822949350067237.0002109315263532576-.00044822949350067237.0006855274606480871-.0013710549212961741.12579428902892398-.4853270756980515.3842381416932528-.7646004165897645.4809766129670156-.8558546681783427.010309278350515464-.009597384449073218.023571598069976534-.021963245181532944.034302739473198514-.03245708861760751.0016083528884435888-.0006855274606480871.005721517652332112-.004113164763888523.005721517652332112-.004113164763888523v-.000922825427795502c.2973343528357107-.27215440187729056.8087378384791837-.7629920637013209 1.6398871516334008-1.6120969230363593v.0008964589870013447c0 0 .2021778680095974-.21153795449152318.1879927228623408-.0012392227173253882-.10496480080153979 1.6760091755213964-.7744350990059852 4.331848023835263-1.0315078967490179 5.305270651514752-.02697286893242281.13172673820760936-.03773037677643895.3746407572441796.2525114034856435.3746407572441796h.6600574788409312c.1084188045455744-.008700925462071876.34218366862657207-.07366783557887521.44005589685448365-.46017349118042555.3224615709125425-1.2680148706726078 1.2112479236427875-4.770084636274949 1.3896696284968493-5.542700450866137.07888839085611833-.33941519234318557.1058876262293353-.6201650539193715.11000079099322381-.8442007013473252-.010309278350515464-.41477048013288687-.20971867007672634-.9107495979117779-.20971867007672634-.9107495979117779v-.0005536952566773011l-.16697866954939752-.3347219658818256-.7254726184512352-1.357080707675271c-.20447174835868906-.38276162100878003-.06335855722835974-.6198222901890473-.015107970575052072-.6843146043715559l.013288686160255227-.017375484483349593c.0006591610198539299 0 .002267513908297519-.0020565823819442613.002267513908297519-.0020565823819442613l1.2606850001318322-1.6244364173280248c.284968492103251-.3675481846705513.45099796978405887-.7976375669048434.45170986368550115-.7991404540301105l.5267487541856725-1.3900123922271732C11.347483323226196.5791916049252511 11.093126268884962.42813826561552454 11.017217285838585.3941782898726501L11.017217285838585.3941782898726501z" fill="#FFFFFF"/></svg>