<svg version="1.1" xmlns="http://www.w3.org/2000/svg" xlink="http://www.w3.org/1999/xlink" x="0px" y="0px" width="15px" height="18.75px" viewBox="0 0 15 18.75" style="enable-background:new 0 0 15 15;" space="preserve">
    <path d="M22.8515625,16.40625h-2.9296875V4.1546630859375C19.921875,3.1563720703125,19.1334228515625,2.34375,18.1640625,2.34375H14.0625v2.34375h3.515625v14.0625h5.2734375c0.32373046875,0,0.5859375,-0.26220703125,0.5859375,-0.5859375v-1.171875c0,-0.32373046875,-0.26220703125,-0.5859375,-0.5859375,-0.5859375zM11.4345703125,0.0369873046875l-7.03125,1.821533203125C3.8814697265625,1.9936523437499998,3.515625,2.479248046875,3.515625,3.03662109375V16.40625H0.5859375c-0.32373046875,0,-0.5859375,0.26220703125,-0.5859375,0.5859375v1.171875c0,0.32373046875,0.26220703125,0.5859375,0.5859375,0.5859375h12.3046875V1.215087890625c0,-0.790283203125,-0.71630859375,-1.3699951171875,-1.4560546875,-1.1781005859375zM9.66796875,10.546875c-0.4852294921875,0,-0.87890625,-0.5247802734375,-0.87890625,-1.171875s0.3936767578125,-1.171875,0.87890625,-1.171875s0.87890625,0.5247802734375,0.87890625,1.171875s-0.3936767578125,1.171875,-0.87890625,1.171875z" fill="#FFFFFF"/>
    </svg>