<svg version="1.1" xmlns="http://www.w3.org/2000/svg" xlink="http://www.w3.org/1999/xlink" x="0px" y="0px" width="12px" height="15px" viewBox="0 0 12 15" style="enable-background:new 0 0 15 15;" space="preserve"><path d="M18.28125,13.125h-2.34375V3.32373046875C15.9375,2.5250976562500003,15.30673828125,1.875,14.53125,1.875H11.25v1.875h2.8125v11.25h4.21875c0.258984375,0,0.46875,-0.209765625,0.46875,-0.46875v-0.9375c0,-0.258984375,-0.209765625,-0.46875,-0.46875,-0.46875zM9.14765625,0.02958984375l-5.625,1.4572265625C3.1051757812500003,1.5949218749999998,2.8125,1.9833984375,2.8125,2.4292968750000004V13.125H0.46875c-0.258984375,0,-0.46875,0.209765625,-0.46875,0.46875v0.9375c0,0.258984375,0.209765625,0.46875,0.46875,0.46875h9.84375V0.9720703125000001c0,-0.6322265625000001,-0.5730468750000001,-1.09599609375,-1.16484375,-0.94248046875zM7.734375,8.4375c-0.38818359375,0,-0.703125,-0.41982421875000003,-0.703125,-0.9375s0.31494140625,-0.9375,0.703125,-0.9375s0.703125,0.41982421875000003,0.703125,0.9375s-0.31494140625,0.9375,-0.703125,0.9375z" fill="#FFFFFF"/></svg>