<svg version="1.1" xmlns="http://www.w3.org/2000/svg" xlink="http://www.w3.org/1999/xlink" x="0px" y="0px" width="15px" height="15px" viewBox="0 0 15 15" style="enable-background:new 0 0 15 15;" space="preserve"><path d="M7.5,0.234375C3.484599609375,0.234375,0.234375,3.4839550781249997,0.234375,7.5c0,4.0154003906249995,3.2495800781249997,7.265625,7.265625,7.265625c1.4107617187500001,0,2.7932226562499998,-0.41425781250000004,3.96703125,-1.178408203125c0.35170898437500003,-0.22895507812500002,0.428466796875,-0.7115625,0.16265625,-1.0362890625l-0.298154296875,-0.364248046875c-0.224736328125,-0.274541015625,-0.620478515625,-0.341806640625,-0.919130859375,-0.15026367187499998C9.5484375,12.590537109375001,8.53458984375,12.890625,7.5,12.890625c-2.97240234375,0,-5.390625,-2.41822265625,-5.390625,-5.390625S4.52759765625,2.109375,7.5,2.109375c2.933759765625,0,5.390625,1.688056640625,5.390625,4.6875c0,1.13630859375,-0.617958984375,2.33619140625,-1.7041992187500001,2.451943359375c-0.508271484375,-0.013300781250000001,-0.49541015625,-0.376669921875,-0.39480468750000003,-0.879609375l0.686513671875,-3.54814453125C11.562099609375,4.38720703125,11.2297265625,3.984375,10.787841796875,3.984375h-1.317802734375a0.39603515625,0.39603515625,0,0,0,-0.39351562500000004,0.351357421875l-0.00029296875,0.0026953125c-0.43057617187499997,-0.524443359375,-1.185,-0.637939453125,-1.7569628906249999,-0.637939453125c-2.1849609375,0,-4.038017578124999,1.82326171875,-4.038017578124999,4.4373046875c0,1.913173828125,1.077685546875,3.1016601562500004,2.8125,3.1016601562500004c0.7905468750000001,0,1.680732421875,-0.458115234375,2.197001953125,-1.123037109375c0.27896484375,0.999140625,1.1898339843749999,0.999111328125,2.0715820312499997,0.999111328125C13.552998046874999,11.115527343750001,14.765625,9.01751953125,14.765625,6.796875C14.765625,2.802333984375,11.543642578125,0.234375,7.5,0.234375zm-0.63515625,8.91884765625c-0.6518261718749999,0,-1.05673828125,-0.457705078125,-1.05673828125,-1.194462890625c0,-1.318154296875,0.901728515625,-2.130732421875,1.71767578125,-2.130732421875c0.6530859375,0,1.042998046875,0.446513671875,1.042998046875,1.1944335937500001c0,1.320146484375,-0.992431640625,2.13076171875,-1.703935546875,2.13076171875z" fill="#FFFFFF"/></svg>