<svg version="1.1" xmlns="http://www.w3.org/2000/svg" xlink="http://www.w3.org/1999/xlink" x="0px" y="0px" width="13.125px" height="15px" viewBox="0 0 13.125 15" style="enable-background:new 0 0 15 15;" space="preserve"><path d="M10.27880859375,3.779296875c0.76083984375,0.13681640625,1.38486328125,0.54697265625,1.87265625,1.23046875c0.42919921875,0.60556640625,0.7218749999999999,1.36728515625,0.8777343750000001,2.28515625c0.13681640625,0.83994140625,0.12656250000000002,1.6795898437499999,-0.029296875,2.51953125c-0.23408203125,1.3866210937499999,-0.70224609375,2.548828125,-1.4044921875,3.486328125c-0.8390625,1.13291015625,-1.8922851562500003,1.69921875,-3.16025390625,1.69921875c-0.31230468749999996,0,-0.6533203125,-0.09755859374999999,-1.02421875,-0.29296875c-0.2537109375,-0.15615234374999998,-0.53642578125,-0.234375,-0.8487304687499999,-0.234375s-0.5947265625,0.07822265625,-0.8487304687499999,0.234375c-0.37089843749999996,0.19541015625,-0.7119140625,0.29296875,-1.02421875,0.29296875c-1.26796875,0,-2.32119140625,-0.5663085937499999,-3.16025390625,-1.69921875c-0.70224609375,-0.9375,-1.17041015625,-2.09970703125,-1.4044921875,-3.486328125c-0.155859375,-0.83994140625,-0.16611328125,-1.6795898437499999,-0.029296875,-2.51953125c0.155859375,-0.91787109375,0.44853515625,-1.6795898437499999,0.8777343750000001,-2.28515625c0.48779296874999994,-0.68349609375,1.11181640625,-1.0936523437499999,1.87265625,-1.23046875c0.4681640625,-0.07822265625,1.11181640625,-0.00966796875,1.9312500000000001,0.205078125c0.70224609375,0.19541015625,1.297265625,0.42978515624999997,1.78505859375,0.703125c0.48779296874999994,-0.27333984375000003,1.0828125,-0.5077148437499999,1.78505859375,-0.703125c0.8197265625,-0.21474609375,1.463671875,-0.28330078125,1.9318359374999998,-0.205078125zm-1.6095703124999998,-1.201171875c-0.273046875,0.25400390625,-0.63427734375,0.43945312499999994,-1.0828125,0.556640625c-0.31230468749999996,0.09755859374999999,-0.6533203125,0.146484375,-1.02421875,0.146484375l-0.43886718750000003,-0.029296875c-0.03896484375,-0.27333984375000003,-0.03896484375,-0.5859375,0,-0.9375c0.07822265625,-0.703125,0.30234375,-1.24013671875,0.6729492187499999,-1.6113281249999998c0.273046875,-0.25400390625,0.63427734375,-0.43945312499999994,1.0828125,-0.556640625c0.31230468749999996,-0.09755859374999999,0.6533203125,-0.146484375,1.02421875,-0.146484375l0.43886718750000003,0.029296875l0.029296875,0.43945312499999994c0,0.37119140624999997,-0.048925781249999994,0.7127929687499999,-0.14619140625,1.025390625c-0.11689453125000002,0.44912109375000003,-0.30205078124999996,0.81064453125,-0.5560546875,1.083984375z" fill="#FFFFFF"/></svg>