<svg version="1.1" xmlns="http://www.w3.org/2000/svg" xlink="http://www.w3.org/1999/xlink" x="0px" y="0px" width="11.25px" height="15px" viewBox="0 0 11.25 15" style="enable-background:new 0 0 15 15;" space="preserve">
    <path d="M11.1017578125,9.416308593750001L8.3408203125,6.5625h1.4419921875c0.4482421875,0,0.6931640625,-0.486328125,0.40605468749999996,-0.8065429687500001L6.86865234375,2.0496093749999997c0.10048828125,-0.19365234375,0.16259765625,-0.41015625,0.16259765625,-0.6433593750000001c0,-0.7766601562500001,-0.6295898437499999,-1.40625,-1.40625,-1.40625s-1.40625,0.6295898437499999,-1.40625,1.40625c0,0.23320312499999998,0.06210937500000001,0.44970703125,0.16259765625,0.6433593750000001L1.0611328125,5.75595703125C0.7740234375000001,6.076171875,1.0189453125,6.5625,1.4671874999999999,6.5625H2.9091796875L0.14824218749999998,9.416308593750001C-0.19599609375000002,9.772265625,0.09785156249999999,10.3125,0.6357421875,10.3125H4.6875v0.9375H1.40625c-0.25898437500000004,0,-0.46875,0.20976562499999998,-0.46875,0.46875v2.8125c0,0.25898437500000004,0.20976562499999998,0.46875,0.46875,0.46875h8.4375c0.25898437500000004,0,0.46875,-0.20976562499999998,0.46875,-0.46875v-2.8125c0,-0.25898437500000004,-0.20976562499999998,-0.46875,-0.46875,-0.46875H6.5625v-0.9375h4.0517578125c0.537890625,0,0.8317382812499999,-0.540234375,0.48750000000000004,-0.8961914062499999zM5.625,0.9369140625000001c0.25927734375,0,0.46933593749999997,0.21005859375000002,0.46933593749999997,0.46933593749999997c0,0.25898437500000004,-0.21005859375000002,0.46933593749999997,-0.46933593749999997,0.46933593749999997S5.1556640625,1.6652343750000003,5.1556640625,1.40625c0,-0.25927734375,0.21005859375000002,-0.46933593749999997,0.46933593749999997,-0.46933593749999997zM8.90625,12.65625v0.9375H2.34375v-0.9375h6.5625z" fill="#FFFFFF"/>
    </svg>