<svg version="1.1" xmlns="http://www.w3.org/2000/svg" xlink="http://www.w3.org/1999/xlink" x="0px" y="0px" width="15px" height="15px" viewBox="0 0 15 15" style="enable-background:new 0 0 15 15;" space="preserve">
    <path d="M12.941406,8.789062C13.199219,8.933594,13.363281,9.148438,13.4375,9.4375C13.515625,9.726562,13.480469,9.996094,13.335938,10.253906L12.796875,11.175781C12.652344,11.429688,12.4375,11.597656,12.148438,11.671875C11.863281,11.75,11.589844,11.714844,11.332031,11.566406L9.105469,10.289062L9.105469,12.855469C9.105469,13.148438,9,13.398438,8.789062,13.609375C8.578125,13.824219,8.324219,13.929688,8.035156,13.929688L6.964844,13.929688C6.675781,13.929688,6.421875,13.824219,6.210938,13.609375C6,13.398438,5.894531,13.148438,5.894531,12.855469L5.894531,10.289062L3.667969,11.566406C3.410156,11.714844,3.136719,11.75,2.851562,11.671875C2.5625,11.597656,2.347656,11.429688,2.203125,11.175781L1.664062,10.253906C1.519531,9.996094,1.484375,9.726562,1.5625,9.4375C1.636719,9.148438,1.800781,8.933594,2.058594,8.789062L4.285156,7.5L2.058594,6.210938C1.800781,6.066406,1.636719,5.847656,1.5625,5.5625C1.484375,5.273438,1.519531,5.003906,1.664062,4.746094L2.203125,3.824219C2.347656,3.570312,2.5625,3.402344,2.851562,3.328125C3.136719,3.25,3.410156,3.285156,3.667969,3.433594L5.894531,4.710938L5.894531,2.144531C5.894531,1.851562,6,1.601562,6.210938,1.390625C6.421875,1.175781,6.675781,1.070312,6.964844,1.070312L8.035156,1.070312C8.324219,1.070312,8.578125,1.175781,8.789062,1.390625C9,1.601562,9.105469,1.851562,9.105469,2.144531L9.105469,4.710938L11.332031,3.433594C11.589844,3.285156,11.863281,3.25,12.148438,3.328125C12.4375,3.402344,12.652344,3.570312,12.796875,3.824219L13.335938,4.746094C13.480469,5.003906,13.515625,5.273438,13.4375,5.5625C13.363281,5.847656,13.199219,6.066406,12.941406,6.210938L10.714844,7.5ZM12.941406,8.789062" fill="#FFFFFF"/>
    </svg>