<svg version="1.1" xmlns="http://www.w3.org/2000/svg" xlink="http://www.w3.org/1999/xlink" x="0px" y="0px" width="15px" height="15px" viewBox="0 0 15 15" style="enable-background:new 0 0 15 15;" space="preserve"><path d="M4.820312,11.785156C4.820312,11.488281,4.71875,11.238281,4.507812,11.027344C4.296875,10.820312,4.046875,10.714844,3.75,10.714844C3.453125,10.714844,3.203125,10.820312,2.992188,11.027344C2.78125,11.238281,2.679688,11.488281,2.679688,11.785156C2.679688,12.082031,2.78125,12.335938,2.992188,12.542969C3.203125,12.753906,3.453125,12.855469,3.75,12.855469C4.046875,12.855469,4.296875,12.753906,4.507812,12.542969C4.71875,12.335938,4.820312,12.082031,4.820312,11.785156ZM1.605469,7.5L4.820312,7.5L4.820312,5.355469L3.5,5.355469C3.421875,5.367188,3.359375,5.394531,3.316406,5.433594L1.683594,7.066406C1.644531,7.132812,1.617188,7.191406,1.605469,7.25ZM12.320312,11.785156C12.320312,11.488281,12.21875,11.238281,12.007812,11.027344C11.796875,10.820312,11.546875,10.714844,11.25,10.714844C10.953125,10.714844,10.703125,10.820312,10.492188,11.027344C10.28125,11.238281,10.179688,11.488281,10.179688,11.785156C10.179688,12.082031,10.28125,12.335938,10.492188,12.542969C10.703125,12.753906,10.953125,12.855469,11.25,12.855469C11.546875,12.855469,11.796875,12.753906,12.007812,12.542969C12.21875,12.335938,12.320312,12.082031,12.320312,11.785156ZM13.394531,6.160156L13.394531,4.554688C13.394531,4.476562,13.367188,4.410156,13.316406,4.359375C13.265625,4.3125,13.203125,4.285156,13.125,4.285156L11.25,4.285156L11.25,2.410156C11.25,2.332031,11.226562,2.269531,11.175781,2.21875C11.125,2.167969,11.058594,2.144531,10.980469,2.144531L9.375,2.144531C9.296875,2.144531,9.234375,2.167969,9.183594,2.21875C9.132812,2.269531,9.105469,2.332031,9.105469,2.410156L9.105469,4.285156L7.230469,4.285156C7.152344,4.285156,7.089844,4.3125,7.039062,4.359375C6.988281,4.410156,6.964844,4.476562,6.964844,4.554688L6.964844,6.160156C6.964844,6.238281,6.988281,6.304688,7.039062,6.351562C7.089844,6.402344,7.152344,6.429688,7.230469,6.429688L9.105469,6.429688L9.105469,8.304688C9.105469,8.382812,9.132812,8.445312,9.183594,8.496094C9.234375,8.546875,9.296875,8.570312,9.375,8.570312L10.980469,8.570312C11.058594,8.570312,11.125,8.546875,11.175781,8.496094C11.226562,8.445312,11.25,8.382812,11.25,8.304688L11.25,6.429688L13.125,6.429688C13.203125,6.429688,13.265625,6.402344,13.316406,6.351562C13.367188,6.304688,13.394531,6.238281,13.394531,6.160156ZM15.535156,1.605469L15.535156,11.25C15.535156,11.394531,15.484375,11.519531,15.375,11.625C15.269531,11.734375,15.144531,11.785156,15,11.785156L13.394531,11.785156C13.394531,12.378906,13.183594,12.882812,12.765625,13.300781C12.347656,13.71875,11.839844,13.929688,11.25,13.929688C10.660156,13.929688,10.152344,13.71875,9.734375,13.300781C9.316406,12.882812,9.105469,12.378906,9.105469,11.785156L5.894531,11.785156C5.894531,12.378906,5.683594,12.882812,5.265625,13.300781C4.847656,13.71875,4.339844,13.929688,3.75,13.929688C3.160156,13.929688,2.652344,13.71875,2.234375,13.300781C1.816406,12.882812,1.605469,12.378906,1.605469,11.785156L0.535156,11.785156C0.390625,11.785156,0.265625,11.734375,0.160156,11.625C0.0546875,11.519531,0,11.394531,0,11.25C0,11.105469,0.0546875,10.980469,0.160156,10.875C0.265625,10.765625,0.390625,10.714844,0.535156,10.714844L0.535156,7.230469C0.535156,7.085938,0.570312,6.925781,0.644531,6.746094C0.71875,6.566406,0.804688,6.425781,0.914062,6.320312L2.570312,4.664062C2.675781,4.554688,2.816406,4.46875,2.996094,4.394531C3.175781,4.320312,3.335938,4.285156,3.480469,4.285156L4.820312,4.285156L4.820312,1.605469C4.820312,1.460938,4.875,1.335938,4.980469,1.230469C5.085938,1.125,5.210938,1.070312,5.355469,1.070312L15,1.070312C15.144531,1.070312,15.269531,1.125,15.375,1.230469C15.484375,1.335938,15.535156,1.460938,15.535156,1.605469ZM15.535156,1.605469" fill="#FFFFFF"/></svg>