<svg version="1.1" xmlns="http://www.w3.org/2000/svg" xlink="http://www.w3.org/1999/xlink" x="0px" y="0px" width="15px" height="15px" viewBox="0 0 15 15" style="enable-background:new 0 0 15 15;" space="preserve"><path d="M5.734375,4.042969C5.824219,4.042969,5.898438,4.011719,5.964844,3.945312C6.027344,3.882812,6.058594,3.804688,6.058594,3.714844C6.058594,3.628906,6.027344,3.550781,5.964844,3.484375C5.898438,3.421875,5.824219,3.390625,5.734375,3.390625C5.644531,3.390625,5.570312,3.421875,5.507812,3.484375C5.445312,3.550781,5.414062,3.628906,5.414062,3.714844C5.414062,3.804688,5.445312,3.882812,5.507812,3.945312C5.570312,4.011719,5.644531,4.042969,5.734375,4.042969ZM9.265625,4.042969C9.355469,4.042969,9.429688,4.011719,9.492188,3.945312C9.554688,3.882812,9.585938,3.804688,9.585938,3.714844C9.585938,3.628906,9.554688,3.550781,9.492188,3.484375C9.429688,3.421875,9.355469,3.390625,9.265625,3.390625C9.175781,3.390625,9.101562,3.421875,9.035156,3.484375C8.972656,3.550781,8.941406,3.628906,8.941406,3.714844C8.941406,3.804688,8.972656,3.882812,9.035156,3.945312C9.101562,4.011719,9.175781,4.042969,9.265625,4.042969ZM2.46875,5.582031C2.703125,5.582031,2.90625,5.667969,3.070312,5.835938C3.238281,6,3.324219,6.203125,3.324219,6.4375L3.324219,10.035156C3.324219,10.277344,3.242188,10.480469,3.078125,10.648438C2.910156,10.816406,2.710938,10.898438,2.46875,10.898438C2.230469,10.898438,2.027344,10.816406,1.859375,10.648438C1.691406,10.480469,1.605469,10.277344,1.605469,10.035156L1.605469,6.4375C1.605469,6.203125,1.691406,6,1.859375,5.835938C2.027344,5.667969,2.230469,5.582031,2.46875,5.582031ZM11.34375,5.742188L11.34375,11.316406C11.34375,11.574219,11.253906,11.792969,11.074219,11.96875C10.894531,12.148438,10.679688,12.238281,10.429688,12.238281L9.800781,12.238281L9.800781,14.136719C9.800781,14.378906,9.71875,14.582031,9.550781,14.75C9.382812,14.917969,9.179688,15,8.941406,15C8.699219,15,8.496094,14.917969,8.328125,14.75C8.160156,14.582031,8.078125,14.378906,8.078125,14.136719L8.078125,12.238281L6.921875,12.238281L6.921875,14.136719C6.921875,14.378906,6.839844,14.582031,6.671875,14.75C6.503906,14.917969,6.300781,15,6.058594,15C5.824219,15,5.625,14.917969,5.457031,14.75C5.289062,14.582031,5.207031,14.378906,5.207031,14.136719L5.199219,12.238281L4.578125,12.238281C4.320312,12.238281,4.105469,12.148438,3.925781,11.96875C3.746094,11.792969,3.65625,11.574219,3.65625,11.316406L3.65625,5.742188ZM9.398438,2.351562C9.996094,2.660156,10.472656,3.085938,10.832031,3.636719C11.1875,4.1875,11.367188,4.789062,11.367188,5.441406L3.625,5.441406C3.625,4.789062,3.804688,4.1875,4.160156,3.636719C4.515625,3.085938,4.996094,2.660156,5.601562,2.351562L5.003906,1.253906C4.964844,1.183594,4.980469,1.128906,5.046875,1.089844C5.121094,1.054688,5.175781,1.070312,5.214844,1.136719L5.816406,2.242188C6.347656,2.007812,6.910156,1.890625,7.5,1.890625C8.089844,1.890625,8.652344,2.007812,9.183594,2.242188L9.785156,1.136719C9.824219,1.070312,9.878906,1.054688,9.953125,1.089844C10.019531,1.128906,10.035156,1.183594,9.996094,1.253906ZM13.394531,6.4375L13.394531,10.035156C13.394531,10.277344,13.308594,10.480469,13.140625,10.648438C12.972656,10.816406,12.769531,10.898438,12.53125,10.898438C12.296875,10.898438,12.09375,10.816406,11.929688,10.648438C11.761719,10.480469,11.675781,10.277344,11.675781,10.035156L11.675781,6.4375C11.675781,6.195312,11.761719,5.996094,11.929688,5.828125C12.09375,5.664062,12.296875,5.582031,12.53125,5.582031C12.769531,5.582031,12.972656,5.664062,13.140625,5.828125C13.308594,5.996094,13.394531,6.195312,13.394531,6.4375ZM13.394531,6.4375" fill="#FFFFFF"/></svg>