<svg version="1.1" xmlns="http://www.w3.org/2000/svg" xlink="http://www.w3.org/1999/xlink" x="0px" y="0px" width="13.125px" height="15px" viewBox="0 0 13.125 15" style="enable-background:new 0 0 15 15;" space="preserve"><path d="M12.418945312499998,7.494140625L12.041015625,12.1025390625c-0.0966796875,1.1923828125,-1.8720703124999998,1.0283203125,-1.775390625,-0.1435546875l0.29296875,-3.5888671875l-1.2041015625,0.06738281249999999c0.2958984375,0.6064453125,0.46289062500000006,1.2861328125,0.46289062500000006,2.0068359375c0,1.20703125,-0.4716796875,2.3056640625,-1.2392578125,3.1201171874999996l-1.1513671875,-1.1513671875c1.6962890625,-1.8662109375,0.3837890625,-4.8984375,-2.16796875,-4.8984375c-0.7587890624999999,0,-1.4501953125,0.2900390625,-1.96875,0.76171875L2.138671875,7.125c0.64453125,-0.6064453125,1.4677734375,-1.0283203125,2.384765625,-1.1777343750000002l2.2060546874999996,-2.5107421875l-1.248046875,-0.7265625l-1.51171875,1.34765625c-0.8789062499999999,0.78515625,-2.068359375,-0.5419921875,-1.1865234375,-1.330078125l1.9921875,-1.7783203125000002c0.287109375,-0.2578125,0.7060546875,-0.29882812499999994,1.0400390625,-0.10546875c0,0,4.0810546875,2.3701171875,4.0869140625,2.3759765625c0.4746093749999999,0.2958984375,0.6064453125,1.0546875,0.17871093749999997,1.541015625L8.3701171875,6.708984375l3.1083984374999996,-0.17285156250000003c0.5419921875,-0.0322265625,0.984375,0.421875,0.9404296875000001,0.9580078125zm-1.9013671875000002,-4.51171875c0.8232421875,0,1.4912109375,-0.66796875,1.4912109375,-1.4912109375C12.008789062499998,0.66796875,11.3408203125,0,10.517578125,0c-0.8232421875,0,-1.4912109375,0.66796875,-1.4912109375,1.4912109375c0,0.8232421875,0.66796875,1.4912109375,1.4912109375,1.4912109375zM5.26171875,13.3740234375c-2.3613281249999996,0,-3.732421875,-2.654296875,-2.4228515625,-4.5732421875l-1.1630859375,-1.1630859375C1.06640625,8.408203125,0.703125,9.3837890625,0.703125,10.44140625c0,3.8291015625,4.415039062499999,5.900390625,7.365234374999999,3.5888671875l-1.1630859375,-1.1630859375c-0.46875,0.3193359375,-1.0341796875,0.5068359375,-1.6435546875,0.5068359375z" fill="#FFFFFF"/></svg>