<svg version="1.1" xmlns="http://www.w3.org/2000/svg" xlink="http://www.w3.org/1999/xlink" x="0px" y="0px" width="15px" height="20px" viewBox="0 0 15 20" style="enable-background:new 0 0 15 15;" space="preserve">
    <path d="M14.80234375,12.555078125000001L11.12109375,8.75h1.92265625c0.59765625,0,0.92421875,-0.6484375,0.54140625,-1.075390625L9.158203125,2.7328124999999996c0.13398437500000002,-0.25820312500000003,0.216796875,-0.546875,0.216796875,-0.8578125000000001c0,-1.035546875,-0.8394531249999999,-1.875,-1.875,-1.875s-1.875,0.8394531249999999,-1.875,1.875c0,0.3109375,0.08281250000000001,0.599609375,0.216796875,0.8578125000000001L1.41484375,7.674609375C1.0320312500000002,8.1015625,1.35859375,8.75,1.9562499999999998,8.75H3.87890625L0.19765624999999998,12.555078125000001C-0.261328125,13.0296875,0.13046875,13.75,0.84765625,13.75H6.25v1.25H1.875c-0.3453125,0,-0.625,0.2796875,-0.625,0.625v3.75c0,0.3453125,0.2796875,0.625,0.625,0.625h11.25c0.3453125,0,0.625,-0.2796875,0.625,-0.625v-3.75c0,-0.3453125,-0.2796875,-0.625,-0.625,-0.625H8.75v-1.25h5.40234375c0.7171875,0,1.108984375,-0.7203125,0.65,-1.194921875zM7.5,1.24921875c0.345703125,0,0.62578125,0.280078125,0.62578125,0.62578125c0,0.3453125,-0.280078125,0.62578125,-0.62578125,0.62578125S6.87421875,2.2203125000000004,6.87421875,1.875c0,-0.345703125,0.280078125,-0.62578125,0.62578125,-0.62578125zM11.875,16.875v1.25H3.125v-1.25h8.75z" fill="#FFFFFF"/>
    </svg>