<svg version="1.1" xmlns="http://www.w3.org/2000/svg" xlink="http://www.w3.org/1999/xlink" x="0px" y="0px" width="15px" height="20px" viewBox="0 0 15 20" style="enable-background:new 0 0 15 15;" space="preserve">
    <path d="M7.5,6.25c1.7265625,0,3.125,-1.3984375,3.125,-3.125S9.2265625,0,7.5,0s-3.125,1.3984375,-3.125,3.125s1.3984375,3.125,3.125,3.125zm-2.0859375,9.71875l1,-1.25l-2.40234375,-2L2.21875,14.9609375c-0.4453125,0.5546875,-0.45703125,1.34375,-0.03125,1.9140625l1.875,2.5c0.30859375,0.41015625,0.77734375,0.625,1.25,0.625c0.32421875,0,0.65625,-0.1015625,0.9375,-0.3125c0.69140625,-0.515625,0.828125,-1.49609375,0.3125,-2.1875l-1.1484375,-1.53125zm5.57421875,-3.25l-2.40234375,2l1,1.25L8.4375,17.5c-0.515625,0.69140625,-0.37890625,1.671875,0.3125,2.1875c0.28125,0.2109375,0.609375,0.3125,0.9375,0.3125c0.4765625,0,0.9453125,-0.21484375,1.25,-0.625l1.875,-2.5c0.42578125,-0.5703125,0.4140625,-1.359375,-0.03125,-1.9140625l-1.79296875,-2.2421875zM14.71484375,5.6640625c-0.49609375,-0.70703125,-1.46875,-0.875,-2.17578125,-0.3828125l-1.5859375,1.11328125c-2.05859375,1.4453125,-4.8515625,1.4453125,-6.90625,0L2.4609375,5.28515625C1.75390625,4.7890625,0.78125,4.9609375,0.28515625,5.6640625C-0.2109375,6.37109375,-0.0390625,7.34375,0.6640625,7.83984375l1.5859375,1.11328125c0.6640625,0.46484375,1.3828125,0.81640625,2.125,1.08984375V11.25h6.25v-1.203125c0.7421875,-0.2734375,1.4609375,-0.625,2.125,-1.08984375l1.5859375,-1.11328125c0.70703125,-0.5,0.875,-1.47265625,0.37890625,-2.1796875z" fill="#FFFFFF"/>
    </svg>