<svg version="1.1" xmlns="http://www.w3.org/2000/svg" xlink="http://www.w3.org/1999/xlink" x="0px" y="0px" width="13.333333333333332px" height="15px" viewBox="0 0 13.333333333333332 15" style="enable-background:new 0 0 15 15;" space="preserve">
    <path d="m4.856108711111111,0.19067796444444443c-0.6608552888888888,0,-1.211088711111111,0.4546560533333333,-1.3672868444444444,1.06683768c-0.016592888888888886,-0.0004424888888888888,-0.03208,-0.004871111111111111,-0.048673777777777774,-0.004871111111111111c-0.7818756444444444,0,-1.4159604444444442,0.6338635555555555,-1.4159604444444442,1.4159604444444442c0,0.10708204444444444,0.014159111111111108,0.21040293333333332,0.03672622222222222,0.31062639999999997c-0.6442620444444443,0.26460755555555554,-1.0986968,0.8967011555555555,-1.0986968,1.6363192888888887c0,0.27832471111111107,0.06991288888888889,0.5380649777777777,0.1845173333333333,0.7723621333333333c-0.5309847111111111,0.3055414222222222,-0.8924971111111111,0.8721468444444443,-0.8924971111111111,1.5285773333333332c0,0.7376268444444444,0.45177988444444445,1.369056711111111,1.093386888888889,1.6347705777777777c-0.019912,0.10110844444444445,-0.03141688888888889,0.2053142222222222,-0.03141688888888889,0.3121750222222222c0,0.8796656,0.7130688888888889,1.5929553777777776,1.5929555555555555,1.5929553777777776c0.09115244444444444,0,0.17920746666666665,-0.012168888888888889,0.2661562666666667,-0.026773333333333333c0.21195164444444445,0.6309866666666667,0.8013451555555555,1.0887404444444444,1.5037943111111112,1.0887404444444444c0.8798866666666667,0,1.5929554666666665,-0.7132897777777778,1.5929554666666665,-1.5929555555555555V4.736132266666666C6.0306921777777776,4.934809244444445,5.741526488888888,5.0779539555555555,5.423377866666666,5.142999644444444C5.313419733333333,5.165566488888889,5.2100988444444445,5.0806088888888885,5.2100988444444445,4.968438222222222V4.610465777777777c0,-0.078984,0.051992,-0.1500032888888889,0.12832142222222223,-0.16947279999999998c0.5354100444444445,-0.13628613333333334,0.9336488888888888,-0.6183764444444444,0.9336488888888888,-1.1956016V1.6066383999999998c0,-0.7820968888888888,-0.6340848,-1.4159604355555555,-1.4159604444444442,-1.4159604355555555zM12.997881777777778,6.916490133333333c0,-0.6564304888888889,-0.3615128888888889,-1.223035911111111,-0.8924977777777777,-1.5285735999999999c0.1143831111111111,-0.23429715555555553,0.1845173333333333,-0.4940374222222222,0.1845173333333333,-0.7723621333333333c0,-0.7396181333333333,-0.45443466666666665,-1.3717117333333333,-1.0986968888888888,-1.6363192888888887c0.02256888888888889,-0.10022346666666666,0.03672888888888889,-0.20354435555555556,0.03672888888888889,-0.31062639999999997c0,-0.7820968888888888,-0.6340844444444445,-1.4159604444444442,-1.4159599999999999,-1.4159604444444442c-0.016595555555555554,0,-0.03208,0.004426666666666666,-0.048675555555555555,0.004871111111111111c-0.1561991111111111,-0.6121853599999999,-0.7064328888888889,-1.0668414133333333,-1.3672879111111111,-1.0668414133333333c-0.7818756444444444,0,-1.4159604444444442,0.6338635466666666,-1.4159604444444442,1.4159604355555555v1.6387529777777776c0,0.5772251555555555,0.39801759999999997,1.0593154666666664,0.9336488888888888,1.1956016c0.07655022222222221,0.01946933333333333,0.12832142222222223,0.0904887111111111,0.12832142222222223,0.16947279999999998v0.3579724444444444c0,0.11217066666666665,-0.10354213333333333,0.19712826666666666,-0.21327902222222223,0.1745614222222222C7.510592088888889,5.0779539555555555,7.2216476444444435,4.934809244444445,6.980049422222222,4.736132266666666v5.189273955555556c0,0.8796657777777777,0.7130688,1.5929555555555555,1.5929554666666665,1.5929555555555555c0.7024493333333333,0,1.291843111111111,-0.45775377777777776,1.5037942222222223,-1.0887404444444444c0.0869511111111111,0.014826666666666667,0.17500355555555555,0.026773333333333333,0.2661564444444445,0.026773333333333333c0.8798871111111111,0,1.5929555555555555,-0.7132897777777778,1.5929555555555555,-1.5929553777777776c0,-0.10686079999999999,-0.011502222222222221,-0.21106657777777776,-0.031413333333333335,-0.3121750222222222c0.6416035555555555,-0.26571742222222217,1.093384,-0.8971472888888888,1.093384,-1.6347741333333332z" fill="#FFFFFF"/>
    </svg>