<svg version="1.1" xmlns="http://www.w3.org/2000/svg" xlink="http://www.w3.org/1999/xlink" x="0px" y="0px" width="15px" height="15px" viewBox="0 0 15 15" style="enable-background:new 0 0 15 15;" space="preserve">
    <path d="M4.285156,10.179688C4.285156,9.882812,4.179688,9.628906,3.972656,9.421875C3.761719,9.210938,3.511719,9.105469,3.214844,9.105469C2.917969,9.105469,2.664062,9.210938,2.457031,9.421875C2.246094,9.628906,2.144531,9.882812,2.144531,10.179688C2.144531,10.472656,2.246094,10.726562,2.457031,10.9375C2.664062,11.144531,2.917969,11.25,3.214844,11.25C3.511719,11.25,3.761719,11.144531,3.972656,10.9375C4.179688,10.726562,4.285156,10.472656,4.285156,10.179688ZM12.855469,10.179688C12.855469,9.882812,12.753906,9.628906,12.542969,9.421875C12.335938,9.210938,12.082031,9.105469,11.785156,9.105469C11.488281,9.105469,11.238281,9.210938,11.027344,9.421875C10.820312,9.628906,10.714844,9.882812,10.714844,10.179688C10.714844,10.472656,10.820312,10.726562,11.027344,10.9375C11.238281,11.144531,11.488281,11.25,11.785156,11.25C12.082031,11.25,12.335938,11.144531,12.542969,10.9375C12.753906,10.726562,12.855469,10.472656,12.855469,10.179688ZM12.472656,6.863281L11.871094,3.648438C11.839844,3.519531,11.777344,3.417969,11.679688,3.335938C11.582031,3.253906,11.46875,3.214844,11.34375,3.214844L3.65625,3.214844C3.53125,3.214844,3.417969,3.253906,3.320312,3.335938C3.222656,3.417969,3.160156,3.519531,3.128906,3.648438L2.527344,6.863281C2.5,7.03125,2.539062,7.179688,2.644531,7.308594C2.75,7.4375,2.886719,7.5,3.054688,7.5L11.945312,7.5C12.113281,7.5,12.25,7.4375,12.355469,7.308594C12.460938,7.179688,12.5,7.03125,12.472656,6.863281ZM10.582031,1.742188C10.582031,1.628906,10.542969,1.535156,10.464844,1.457031C10.386719,1.378906,10.289062,1.339844,10.179688,1.339844L4.820312,1.339844C4.710938,1.339844,4.613281,1.378906,4.535156,1.457031C4.457031,1.535156,4.417969,1.628906,4.417969,1.742188C4.417969,1.851562,4.457031,1.949219,4.535156,2.027344C4.613281,2.105469,4.710938,2.144531,4.820312,2.144531L10.179688,2.144531C10.289062,2.144531,10.386719,2.105469,10.464844,2.027344C10.542969,1.949219,10.582031,1.851562,10.582031,1.742188ZM13.929688,7.808594L13.929688,12.855469L12.855469,12.855469L12.855469,13.929688C12.855469,14.222656,12.753906,14.476562,12.542969,14.6875C12.335938,14.894531,12.082031,15,11.785156,15C11.488281,15,11.238281,14.894531,11.027344,14.6875C10.820312,14.476562,10.714844,14.222656,10.714844,13.929688L10.714844,12.855469L4.285156,12.855469L4.285156,13.929688C4.285156,14.222656,4.179688,14.476562,3.972656,14.6875C3.761719,14.894531,3.511719,15,3.214844,15C2.917969,15,2.664062,14.894531,2.457031,14.6875C2.246094,14.476562,2.144531,14.222656,2.144531,13.929688L2.144531,12.855469L1.070312,12.855469L1.070312,7.808594C1.070312,7.183594,1.140625,6.5625,1.28125,5.941406L2.144531,2.144531C2.191406,1.707031,2.464844,1.324219,2.960938,0.996094C3.453125,0.667969,4.09375,0.417969,4.882812,0.25C5.671875,0.0820312,6.546875,0,7.5,0C8.453125,0,9.324219,0.0820312,10.117188,0.25C10.90625,0.417969,11.546875,0.667969,12.039062,0.996094C12.535156,1.324219,12.808594,1.707031,12.855469,2.144531L13.734375,5.941406C13.863281,6.511719,13.929688,7.132812,13.929688,7.808594ZM13.929688,7.808594" fill="#FFFFFF"/>
    </svg>