<svg version="1.1" xmlns="http://www.w3.org/2000/svg" xlink="http://www.w3.org/1999/xlink" x="0px" y="0px" width="15px" height="15px" viewBox="0 0 15 15" style="enable-background:new 0 0 15 15;" space="preserve"><path d="M8.429688,7.191406C8.472656,7.542969,8.332031,7.824219,8.007812,8.035156C7.679688,8.246094,7.367188,8.265625,7.074219,8.085938C6.855469,7.992188,6.707031,7.828125,6.625,7.601562C6.542969,7.371094,6.542969,7.144531,6.621094,6.914062C6.699219,6.683594,6.84375,6.523438,7.054688,6.429688C7.257812,6.328125,7.460938,6.292969,7.664062,6.328125C7.867188,6.363281,8.046875,6.460938,8.199219,6.625C8.351562,6.789062,8.429688,6.976562,8.429688,7.191406ZM9.359375,7.015625C9.28125,6.417969,8.964844,5.960938,8.414062,5.640625C7.859375,5.324219,7.308594,5.289062,6.761719,5.53125C6.410156,5.6875,6.132812,5.9375,5.921875,6.273438C5.710938,6.609375,5.617188,6.972656,5.632812,7.359375C5.65625,7.867188,5.871094,8.296875,6.28125,8.65625C6.691406,9.011719,7.152344,9.167969,7.667969,9.125C8.175781,9.078125,8.597656,8.84375,8.941406,8.421875C9.28125,7.996094,9.417969,7.527344,9.359375,7.015625ZM11.359375,2.476562C11.246094,2.328125,11.089844,2.203125,10.890625,2.105469C10.6875,2.007812,10.527344,1.945312,10.40625,1.921875C10.28125,1.894531,10.082031,1.859375,9.808594,1.816406C8.1875,1.554688,6.605469,1.558594,5.074219,1.832031C4.832031,1.871094,4.648438,1.90625,4.519531,1.933594C4.390625,1.960938,4.238281,2.023438,4.058594,2.117188C3.882812,2.210938,3.742188,2.332031,3.640625,2.476562C3.808594,2.632812,4.019531,2.761719,4.277344,2.859375C4.535156,2.957031,4.738281,3.015625,4.890625,3.042969C5.046875,3.066406,5.289062,3.101562,5.625,3.140625C6.898438,3.300781,8.148438,3.304688,9.375,3.148438C9.726562,3.101562,9.976562,3.070312,10.125,3.046875C10.273438,3.023438,10.472656,2.964844,10.730469,2.867188C10.988281,2.769531,11.195312,2.640625,11.359375,2.476562ZM11.835938,11.140625C11.792969,11.285156,11.75,11.5,11.707031,11.78125C11.664062,12.0625,11.625,12.296875,11.589844,12.484375C11.550781,12.671875,11.472656,12.867188,11.351562,13.070312C11.226562,13.273438,11.066406,13.433594,10.863281,13.542969C10.386719,13.8125,9.855469,14.011719,9.277344,14.140625C8.703125,14.273438,8.136719,14.335938,7.585938,14.328125C7.039062,14.316406,6.476562,14.265625,5.902344,14.171875C5.644531,14.125,5.417969,14.078125,5.21875,14.019531C5.019531,13.964844,4.808594,13.890625,4.578125,13.792969C4.351562,13.699219,4.144531,13.578125,3.96875,13.429688C3.789062,13.28125,3.644531,13.109375,3.53125,12.914062C3.394531,12.378906,3.234375,11.566406,3.054688,10.472656L3.105469,10.335938L3.257812,10.261719C4.5,11.089844,5.914062,11.5,7.496094,11.5C9.078125,11.5,10.492188,11.089844,11.742188,10.261719C11.859375,10.296875,11.929688,10.359375,11.945312,10.453125C11.960938,10.550781,11.949219,10.675781,11.902344,10.832031C11.859375,10.988281,11.835938,11.089844,11.835938,11.140625ZM13.351562,3.097656C13.207031,4.027344,12.894531,5.855469,12.421875,8.578125C12.394531,8.746094,12.320312,8.902344,12.195312,9.046875C12.074219,9.195312,11.953125,9.304688,11.832031,9.382812C11.710938,9.460938,11.558594,9.546875,11.375,9.644531C9.96875,10.347656,8.265625,10.589844,6.269531,10.378906C4.886719,10.230469,3.785156,9.839844,2.972656,9.214844C2.886719,9.148438,2.816406,9.074219,2.757812,8.992188C2.699219,8.914062,2.652344,8.816406,2.617188,8.703125C2.578125,8.585938,2.554688,8.492188,2.539062,8.417969C2.527344,8.339844,2.507812,8.230469,2.492188,8.085938C2.46875,7.941406,2.457031,7.84375,2.445312,7.792969C2.394531,7.515625,2.320312,7.09375,2.222656,6.539062C2.125,5.980469,2.046875,5.527344,1.988281,5.1875C1.929688,4.84375,1.863281,4.429688,1.792969,3.949219C1.71875,3.472656,1.65625,3.03125,1.605469,2.628906C1.625,2.484375,1.671875,2.347656,1.753906,2.222656C1.835938,2.097656,1.921875,1.992188,2.015625,1.910156C2.113281,1.824219,2.238281,1.742188,2.394531,1.65625C2.550781,1.574219,2.679688,1.511719,2.777344,1.46875C2.878906,1.425781,3.011719,1.375,3.179688,1.3125C3.878906,1.058594,4.75,0.878906,5.800781,0.777344C7.914062,0.570312,9.800781,0.710938,11.460938,1.195312C12.324219,1.453125,12.925781,1.792969,13.257812,2.21875C13.347656,2.328125,13.394531,2.472656,13.398438,2.644531C13.398438,2.816406,13.382812,2.96875,13.351562,3.097656ZM13.351562,3.097656" fill="#FFFFFF"/></svg>