<svg version="1.1" xmlns="http://www.w3.org/2000/svg" xlink="http://www.w3.org/1999/xlink" x="0px" y="0px" width="15px" height="15px" viewBox="0 0 15 15" style="enable-background:new 0 0 15 15;" space="preserve">
    <path d="M12.054688,7.476562C12.054688,6.578125,11.8125,5.753906,11.324219,5.003906L5.015625,11.308594C5.777344,11.804688,6.605469,12.054688,7.5,12.054688C8.121094,12.054688,8.710938,11.933594,9.269531,11.6875C9.832031,11.445312,10.316406,11.121094,10.722656,10.714844C11.128906,10.308594,11.453125,9.820312,11.695312,9.253906C11.933594,8.6875,12.054688,8.09375,12.054688,7.476562ZM3.691406,9.976562L10.011719,3.667969C9.257812,3.160156,8.421875,2.90625,7.5,2.90625C6.675781,2.90625,5.914062,3.109375,5.214844,3.515625C4.515625,3.921875,3.964844,4.476562,3.558594,5.179688C3.148438,5.882812,2.945312,6.648438,2.945312,7.476562C2.945312,8.378906,3.195312,9.214844,3.691406,9.976562ZM13.929688,7.476562C13.929688,8.351562,13.757812,9.1875,13.417969,9.984375C13.078125,10.785156,12.621094,11.46875,12.050781,12.046875C11.476562,12.621094,10.792969,13.078125,10,13.417969C9.203125,13.757812,8.371094,13.929688,7.5,13.929688C6.628906,13.929688,5.796875,13.757812,5,13.417969C4.207031,13.078125,3.523438,12.621094,2.949219,12.046875C2.378906,11.46875,1.921875,10.785156,1.582031,9.984375C1.242188,9.1875,1.070312,8.351562,1.070312,7.476562C1.070312,6.597656,1.242188,5.761719,1.582031,4.96875C1.921875,4.171875,2.378906,3.488281,2.949219,2.914062C3.523438,2.339844,4.207031,1.878906,5,1.539062C5.796875,1.199219,6.628906,1.03125,7.5,1.03125C8.371094,1.03125,9.203125,1.199219,10,1.539062C10.792969,1.878906,11.476562,2.339844,12.050781,2.914062C12.621094,3.488281,13.078125,4.171875,13.417969,4.96875C13.757812,5.761719,13.929688,6.597656,13.929688,7.476562ZM13.929688,7.476562" fill="#FFFFFF"/>
    </svg>