<svg version="1.1" xmlns="http://www.w3.org/2000/svg" xlink="http://www.w3.org/1999/xlink" x="0px" y="0px" width="15px" height="17.142857142857142px" viewBox="0 0 15 17.142857142857142" style="enable-background:new 0 0 15 15;" space="preserve">
    <path d="M12.321428571428571,3.2142857142857144h-1.6071428571428572V1.875c0,-0.44380580357142857,-0.359765625,-0.8035714285714286,-0.8035714285714286,-0.8035714285714286H0.8035714285714286C0.359765625,1.0714285714285714,0,1.4311941964285713,0,1.875v13.392857142857142c0,0.44380580357142857,0.359765625,0.8035714285714286,0.8035714285714286,0.8035714285714286h9.107142857142858c0.44380580357142857,0,0.8035714285714286,-0.359765625,0.8035714285714286,-0.8035714285714286v-1.4099330357142856l2.698861607142857,-1.2045870535714285C14.377098214285715,12.223091517857142,15,11.262991071428571,15,10.207366071428572V5.892857142857142c0,-1.4769642857142857,-1.2016071428571427,-2.6785714285714284,-2.6785714285714284,-2.6785714285714284zm0.5357142857142857,6.9930803571428575a0.5363169642857143,0.5363169642857143,0,0,1,-0.3173772321428571,0.4892075892857143L10.714285714285714,11.511328125V5.357142857142857h1.6071428571428572c0.29537946428571427,0,0.5357142857142857,0.24033482142857143,0.5357142857142857,0.5357142857142857v4.314508928571429zM6.964285714285714,12.857142857142858c-0.2958482142857143,0,-0.5357142857142857,-0.23986607142857141,-0.5357142857142857,-0.5357142857142857V4.821428571428571c0,-0.2958482142857143,0.23986607142857141,-0.5357142857142857,0.5357142857142857,-0.5357142857142857s0.5357142857142857,0.23986607142857141,0.5357142857142857,0.5357142857142857v7.5c0,0.2958482142857143,-0.23986607142857141,0.5357142857142857,-0.5357142857142857,0.5357142857142857zm-3.2142857142857144,0c-0.2958482142857143,0,-0.5357142857142857,-0.23986607142857141,-0.5357142857142857,-0.5357142857142857V4.821428571428571c0,-0.2958482142857143,0.23986607142857141,-0.5357142857142857,0.5357142857142857,-0.5357142857142857s0.5357142857142857,0.23986607142857141,0.5357142857142857,0.5357142857142857v7.5c0,0.2958482142857143,-0.23986607142857141,0.5357142857142857,-0.5357142857142857,0.5357142857142857z" fill="#FFFFFF"/>
    </svg>