<svg version="1.1" xmlns="http://www.w3.org/2000/svg" xlink="http://www.w3.org/1999/xlink" x="0px" y="0px" width="15px" height="15px" viewBox="0 0 15 15" style="enable-background:new 0 0 15 15;" space="preserve"><path d="M5.355469,2.144531L9.644531,2.144531L9.644531,1.070312L5.355469,1.070312ZM15,7.5L15,11.519531C15,11.886719,14.867188,12.203125,14.605469,12.464844C14.34375,12.726562,14.027344,12.855469,13.660156,12.855469L1.339844,12.855469C0.972656,12.855469,0.65625,12.726562,0.394531,12.464844C0.132812,12.203125,0,11.886719,0,11.519531L0,7.5L5.625,7.5L5.625,8.839844C5.625,8.984375,5.679688,9.109375,5.785156,9.214844C5.890625,9.320312,6.015625,9.375,6.160156,9.375L8.839844,9.375C8.984375,9.375,9.109375,9.320312,9.214844,9.214844C9.320312,9.109375,9.375,8.984375,9.375,8.839844L9.375,7.5ZM8.570312,7.5L8.570312,8.570312L6.429688,8.570312L6.429688,7.5ZM15,3.480469L15,6.695312L0,6.695312L0,3.480469C0,3.113281,0.132812,2.796875,0.394531,2.535156C0.65625,2.273438,0.972656,2.144531,1.339844,2.144531L4.285156,2.144531L4.285156,0.804688C4.285156,0.582031,4.363281,0.390625,4.519531,0.234375C4.675781,0.078125,4.867188,0,5.089844,0L9.910156,0C10.132812,0,10.324219,0.078125,10.480469,0.234375C10.636719,0.390625,10.714844,0.582031,10.714844,0.804688L10.714844,2.144531L13.660156,2.144531C14.027344,2.144531,14.34375,2.273438,14.605469,2.535156C14.867188,2.796875,15,3.113281,15,3.480469ZM15,3.480469" fill="#FFFFFF"/></svg>