<svg version="1.1" xmlns="http://www.w3.org/2000/svg" xlink="http://www.w3.org/1999/xlink" x="0px" y="0px" width="15px" height="12px" viewBox="0 0 15 12" style="enable-background:new 0 0 15 15;" space="preserve"><path d="M14.0362504,5.264714000000001C14.6268752,4.96940144,15,4.36565144,15,3.70541704v-0.1790624c0,-0.96304696,-0.7804688,-1.7435156800000002,-1.7435152,-1.7435156800000002c-0.7504696000000001,0,-1.4165632000000001,0.4802344,-1.6539848,1.1920312c-0.18000000000000002,0.53976568,-0.2718744,1.0579688,-0.8932032,1.0579688H4.29046872c-0.6417187200000001,0,-0.7401562400000001,-0.59859376,-0.8932031200000001,-1.0579688C3.1600781600000003,2.26307336,2.4937500000000004,1.7828389600000003,1.7435156800000002,1.7828389600000003C0.780468736,1.7828389600000003,0,2.5633076800000003,0,3.5263546400000005v0.1790624c0,0.6602344000000001,0.37312500000000004,1.2639844,0.96375,1.5592969600000002c0.2210156,0.11039056000000001,0.2210156,0.42585936,0,0.53624992C0.37312500000000004,6.096276400000001,0,6.70002616,0,7.360261040000001v0.17906248000000002c0,0.9630468799999999,0.780468736,1.7435156800000002,1.7432812800000002,1.7435156800000002c0.7504687200000001,0,1.41656248,-0.4802344,1.6539843200000002,-1.1920312c0.18000000000000002,-0.53976608,0.27187504,-1.0579690400000001,0.8932031200000001,-1.0579690400000001h6.418828080000001c0.6417192,0,0.7401568000000001,0.5985940000000001,0.8932032,1.0579690400000001c0.2374216,0.7117968000000001,0.9037504000000001,1.1920312,1.6539848,1.1920312c0.962812,0,1.7432808000000002,-0.7804688,1.7432808000000002,-1.7435156800000002V7.360261040000001c0,-0.6604691200000001,-0.37312480000000003,-1.26398464,-0.9637504,-1.55929712c-0.2207808,-0.11039056000000001,-0.2207808,-0.42585936,0.0002352,-0.53624992z" fill="#FFFFFF"/></svg>