<svg version="1.1" xmlns="http://www.w3.org/2000/svg" xlink="http://www.w3.org/1999/xlink" x="0px" y="0px" width="11.25px" height="15px" viewBox="0 0 11.25 15" style="enable-background:new 0 0 15 15;" space="preserve"><path d="M11.13720703125,14.965927734375a0.234375,0.234375,0,0,1,-0.32194335937500007,-0.07872070312499999l-3.6717773437499996,-6.0476660156249995a0.9352441406249998,0.9352441406249998,0,0,0,0.37962890625,-0.27788085937499996l3.6928125,6.082265625a0.234375,0.234375,0,0,1,-0.07872070312499999,0.322001953125zM4.183681640625,9.20912109375l-0.9533203124999999,2.621630859375l1.058203125,2.5864746093749997c0.19608398437499996,0.47929687499999996,0.743466796875,0.70875,1.222646484375,0.5127246093750001c0.479208984375,-0.1960546875,0.708779296875,-0.7434375000000001,0.5127246093750001,-1.22267578125l-1.84025390625,-4.498154296875001zM2.8125,2.578125c0.711943359375,0,1.2890625,-0.577119140625,1.2890625,-1.2890625S3.5244433593749998,0,2.8125,0S1.5234375,0.577119140625,1.5234375,1.2890625s0.577119140625,1.2890625,1.2890625,1.2890625zm4.536240234375,4.954921874999999l-3.515625,-4.453125c-0.138662109375,-0.17563476562500002,-0.34423828125,-0.2668359375,-0.551865234375,-0.266953125V2.8125H2.34375v0.00076171875c-0.20935546875,0.000087890625,-0.41651367187500005,0.092607421875,-0.5549999999999999,0.27070312500000004L0,5.38376953125v2.80353515625c0,0.39418945312500003,0.32258789062499993,0.726298828125,0.71671875,0.718828125C1.098779296875,8.8988671875,1.40625,8.5869140625,1.40625,8.203125v-2.3368945312500005l0.46875,-0.602666015625v4.1220117187500005L0.290830078125,13.741845703125001c-0.176953125,0.4865917968750001,0.0740625,1.024482421875,0.5606835937500001,1.201435546875c0.48638671875000006,0.17692382812500002,1.0244531250000002,-0.0739453125,1.201435546875,-0.5606835937500001L3.984375,9.07142578125V5.9308886718750005l-0.9200976562500001,-1.166484375a0.1171875,0.1171875,0,1,1,0.183662109375,-0.145634765625l2.9970703125,3.785654296875c0.26791992187499997,0.339375,0.71390625,0.332197265625,0.9875390625,0.11616210937499999c0.30498046874999996,-0.240703125,0.356220703125,-0.68361328125,0.11619140625000002,-0.9875390625z" fill="#FFFFFF"/></svg>