<svg version="1.1" xmlns="http://www.w3.org/2000/svg" xlink="http://www.w3.org/1999/xlink" x="0px" y="0px" width="15px" height="15px" viewBox="0 0 15 15" style="enable-background:new 0 0 15 15;" space="preserve">
    <path d="M5.894531,7.5L5.894531,4.285156L3.75,4.285156L3.75,6.429688C3.75,6.722656,3.855469,6.976562,4.0625,7.1875C4.273438,7.394531,4.527344,7.5,4.820312,7.5ZM14.464844,11.25L14.464844,12.855469L4.820312,12.855469L4.820312,11.25L5.894531,9.644531L4.820312,9.644531C3.933594,9.644531,3.175781,9.328125,2.546875,8.703125C1.921875,8.074219,1.605469,7.316406,1.605469,6.429688L1.605469,3.75L1.070312,3.214844L1.339844,2.144531L5.355469,2.144531L5.625,1.070312L13.660156,1.070312L13.929688,2.679688L13.394531,2.945312L13.394531,9.644531ZM14.464844,11.25" fill="#FFFFFF"/>
    </svg>