<svg version="1.1" xmlns="http://www.w3.org/2000/svg" xlink="http://www.w3.org/1999/xlink" x="0px" y="0px" width="15px" height="15px" viewBox="0 0 15 15" style="enable-background:new 0 0 15 15;" space="preserve"><path d="M4.234375,9.644531L1.605469,9.644531C1.382812,9.644531,1.222656,9.546875,1.125,9.351562C1.027344,9.15625,1.046875,8.96875,1.179688,8.789062L2.753906,6.6875C2.390625,6.515625,2.007812,6.429688,1.605469,6.429688C0.871094,6.429688,0.238281,6.691406,-0.285156,7.214844C-0.808594,7.738281,-1.070312,8.371094,-1.070312,9.105469C-1.070312,9.84375,-0.808594,10.472656,-0.285156,11C0.238281,11.523438,0.871094,11.785156,1.605469,11.785156C2.25,11.785156,2.816406,11.582031,3.304688,11.179688C3.796875,10.773438,4.105469,10.261719,4.234375,9.644531ZM2.679688,8.570312L4.234375,8.570312C4.136719,8.097656,3.925781,7.683594,3.609375,7.332031ZM6.695312,8.570312L9.105469,5.355469L5.089844,5.355469L4.261719,6.460938C4.847656,7.035156,5.199219,7.738281,5.316406,8.570312ZM16.070312,9.105469C16.070312,8.371094,15.808594,7.738281,15.285156,7.214844C14.761719,6.691406,14.128906,6.429688,13.394531,6.429688C13.058594,6.429688,12.71875,6.496094,12.378906,6.628906L13.835938,8.804688C13.921875,8.933594,13.949219,9.070312,13.921875,9.214844C13.890625,9.359375,13.816406,9.472656,13.695312,9.550781C13.609375,9.613281,13.511719,9.644531,13.394531,9.644531C13.199219,9.644531,13.050781,9.5625,12.949219,9.398438L11.492188,7.222656C10.972656,7.753906,10.714844,8.382812,10.714844,9.105469C10.714844,9.84375,10.976562,10.472656,11.5,11C12.027344,11.523438,12.65625,11.785156,13.394531,11.785156C14.128906,11.785156,14.761719,11.523438,15.285156,11C15.808594,10.472656,16.070312,9.84375,16.070312,9.105469ZM17.144531,9.105469C17.144531,10.140625,16.777344,11.023438,16.042969,11.757812C15.308594,12.488281,14.425781,12.855469,13.394531,12.855469C12.359375,12.855469,11.476562,12.488281,10.742188,11.757812C10.007812,11.023438,9.644531,10.140625,9.644531,9.105469C9.644531,8.566406,9.753906,8.054688,9.972656,7.570312C10.195312,7.089844,10.5,6.671875,10.890625,6.320312L10.347656,5.5L7.390625,9.425781C7.289062,9.570312,7.148438,9.644531,6.964844,9.644531L5.316406,9.644531C5.1875,10.558594,4.769531,11.324219,4.066406,11.9375C3.363281,12.550781,2.542969,12.855469,1.605469,12.855469C0.574219,12.855469,-0.308594,12.488281,-1.042969,11.757812C-1.777344,11.023438,-2.144531,10.140625,-2.144531,9.105469C-2.144531,8.074219,-1.777344,7.191406,-1.042969,6.457031C-0.308594,5.722656,0.574219,5.355469,1.605469,5.355469C2.242188,5.355469,2.84375,5.511719,3.40625,5.816406L4.554688,4.285156L2.679688,4.285156C2.535156,4.285156,2.40625,4.234375,2.300781,4.125C2.195312,4.019531,2.144531,3.894531,2.144531,3.75C2.144531,3.605469,2.195312,3.480469,2.300781,3.375C2.40625,3.265625,2.535156,3.214844,2.679688,3.214844L5.894531,3.214844L5.894531,4.285156L9.535156,4.285156L8.824219,3.214844L6.964844,3.214844C6.820312,3.214844,6.695312,3.160156,6.585938,3.054688C6.480469,2.949219,6.429688,2.824219,6.429688,2.679688C6.429688,2.535156,6.480469,2.40625,6.585938,2.300781C6.695312,2.195312,6.820312,2.144531,6.964844,2.144531L9.105469,2.144531C9.292969,2.144531,9.4375,2.222656,9.550781,2.378906L11.785156,5.726562C12.292969,5.480469,12.828125,5.355469,13.394531,5.355469C14.425781,5.355469,15.308594,5.722656,16.042969,6.457031C16.777344,7.191406,17.144531,8.074219,17.144531,9.105469ZM17.144531,9.105469" fill="#FFFFFF"/></svg>