<svg version="1.1" xmlns="http://www.w3.org/2000/svg" xlink="http://www.w3.org/1999/xlink" x="0px" y="0px" width="15px" height="15px" viewBox="0 0 15 15" style="enable-background:new 0 0 15 15;" space="preserve"><path d="M14.296875,7.5H2.34375V3.28125c0,-0.516943359375,0.42055664062500003,-0.9375,0.9375,-0.9375c0.33254882812500003,0,0.6249609375,0.17416992187500002,0.791455078125,0.43593750000000003c-0.48316406250000005,0.738486328125,-0.43028320312499996,1.745390625,0.20033203125000001,2.4326660156249997c-0.12234375,0.13807617187500001,-0.117802734375,0.3491015625,0.014384765625,0.48128906250000003l0.33146484375,0.33146484375c0.13728515624999998,0.13728515624999998,0.35988281250000004,0.13728515624999998,0.497197265625,0l2.78408203125,-2.784052734375c0.13728515624999998,-0.13728515624999998,0.13728515624999998,-0.35988281250000004,0,-0.497197265625l-0.33146484375,-0.33146484375c-0.13218749999999999,-0.13218749999999999,-0.343212890625,-0.13669921875000002,-0.48128906250000003,-0.014384765625c-0.525849609375,-0.48249023437500005,-1.23908203125,-0.627802734375,-1.88021484375,-0.450146484375C4.783623046875,1.337900390625,4.0784765625,0.9375,3.28125,0.9375c-1.2923437500000001,0,-2.34375,1.0514062499999999,-2.34375,2.34375v4.21875h-0.234375c-0.38833007812500003,0,-0.703125,0.31479492187499997,-0.703125,0.703125v0.46875c0,0.38833007812500003,0.31479492187499997,0.703125,0.703125,0.703125h0.234375v0.9375c0,0.83291015625,0.36216796875,1.581123046875,0.9375,2.096103515625V13.359375c0,0.38833007812500003,0.31479492187499997,0.703125,0.703125,0.703125h0.46875c0.38833007812500003,0,0.703125,-0.31479492187499997,0.703125,-0.703125v-0.234375h7.5v0.234375c0,0.38833007812500003,0.31479492187499997,0.703125,0.703125,0.703125h0.46875c0.38833007812500003,0,0.703125,-0.31479492187499997,0.703125,-0.703125v-0.9507714843750001c0.5753320312500001,-0.51498046875,0.9375,-1.263193359375,0.9375,-2.096103515625v-0.9375h0.234375c0.38833007812500003,0,0.703125,-0.31479492187499997,0.703125,-0.703125v-0.46875c0,-0.38833007812500003,-0.31479492187499997,-0.703125,-0.703125,-0.703125z" fill="#FFFFFF"/></svg>