<svg version="1.1" xmlns="http://www.w3.org/2000/svg" xlink="http://www.w3.org/1999/xlink" x="0px" y="0px" width="15px" height="15px" viewBox="0 0 15 15" style="enable-background:new 0 0 15 15;" space="preserve"><path d="M9.644531,7.5C9.644531,8.089844,9.433594,8.597656,9.015625,9.015625C8.597656,9.433594,8.089844,9.644531,7.5,9.644531C6.910156,9.644531,6.402344,9.433594,5.984375,9.015625C5.566406,8.597656,5.355469,8.089844,5.355469,7.5C5.355469,6.910156,5.566406,6.402344,5.984375,5.984375C6.402344,5.566406,6.910156,5.355469,7.5,5.355469C8.089844,5.355469,8.597656,5.566406,9.015625,5.984375C9.433594,6.402344,9.644531,6.910156,9.644531,7.5ZM10.714844,7.5C10.714844,6.613281,10.398438,5.855469,9.773438,5.226562C9.144531,4.601562,8.386719,4.285156,7.5,4.285156C6.613281,4.285156,5.855469,4.601562,5.226562,5.226562C4.601562,5.855469,4.285156,6.613281,4.285156,7.5C4.285156,8.386719,4.601562,9.144531,5.226562,9.773438C5.855469,10.398438,6.613281,10.714844,7.5,10.714844C8.386719,10.714844,9.144531,10.398438,9.773438,9.773438C10.398438,9.144531,10.714844,8.386719,10.714844,7.5ZM11.785156,7.5C11.785156,8.683594,11.367188,9.691406,10.53125,10.53125C9.691406,11.367188,8.683594,11.785156,7.5,11.785156C6.316406,11.785156,5.308594,11.367188,4.46875,10.53125C3.632812,9.691406,3.214844,8.683594,3.214844,7.5C3.214844,6.316406,3.632812,5.308594,4.46875,4.46875C5.308594,3.632812,6.316406,3.214844,7.5,3.214844C8.683594,3.214844,9.691406,3.632812,10.53125,4.46875C11.367188,5.308594,11.785156,6.316406,11.785156,7.5ZM12.855469,7.5C12.855469,6.773438,12.714844,6.082031,12.429688,5.421875C12.144531,4.757812,11.765625,4.1875,11.289062,3.710938C10.8125,3.234375,10.242188,2.855469,9.578125,2.570312C8.917969,2.285156,8.226562,2.144531,7.5,2.144531C6.773438,2.144531,6.082031,2.285156,5.421875,2.570312C4.757812,2.855469,4.1875,3.234375,3.710938,3.710938C3.234375,4.1875,2.855469,4.757812,2.570312,5.421875C2.285156,6.082031,2.144531,6.773438,2.144531,7.5C2.144531,8.226562,2.285156,8.917969,2.570312,9.578125C2.855469,10.242188,3.234375,10.8125,3.710938,11.289062C4.1875,11.765625,4.757812,12.144531,5.421875,12.429688C6.082031,12.714844,6.773438,12.855469,7.5,12.855469C8.226562,12.855469,8.917969,12.714844,9.578125,12.429688C10.242188,12.144531,10.8125,11.765625,11.289062,11.289062C11.765625,10.8125,12.144531,10.242188,12.429688,9.578125C12.714844,8.917969,12.855469,8.226562,12.855469,7.5ZM13.929688,7.5C13.929688,8.667969,13.640625,9.742188,13.066406,10.726562C12.492188,11.710938,11.710938,12.492188,10.726562,13.066406C9.742188,13.640625,8.667969,13.929688,7.5,13.929688C6.332031,13.929688,5.257812,13.640625,4.273438,13.066406C3.289062,12.492188,2.507812,11.710938,1.933594,10.726562C1.359375,9.742188,1.070312,8.667969,1.070312,7.5C1.070312,6.332031,1.359375,5.257812,1.933594,4.273438C2.507812,3.289062,3.289062,2.507812,4.273438,1.933594C5.257812,1.359375,6.332031,1.070312,7.5,1.070312C8.667969,1.070312,9.742188,1.359375,10.726562,1.933594C11.710938,2.507812,12.492188,3.289062,13.066406,4.273438C13.640625,5.257812,13.929688,6.332031,13.929688,7.5ZM13.929688,7.5" fill="#FFFFFF"/></svg>