<svg version="1.1" xmlns="http://www.w3.org/2000/svg" xlink="http://www.w3.org/1999/xlink" x="0px" y="0px" width="15px" height="15px" viewBox="0 0 15 15" style="enable-background:new 0 0 15 15;" space="preserve">
    <path d="M5.894531,2.679688L5.894531,9.105469C5.894531,9.253906,5.839844,9.378906,5.734375,9.484375C5.628906,9.589844,5.503906,9.644531,5.355469,9.644531L5.355469,14.464844C5.355469,14.609375,5.304688,14.734375,5.199219,14.839844C5.09375,14.945312,4.964844,15,4.820312,15L0.535156,15C0.390625,15,0.265625,14.945312,0.160156,14.839844C0.0546875,14.734375,0,14.609375,0,14.464844L0,10.179688L2.085938,2.871094C2.125,2.742188,2.210938,2.679688,2.34375,2.679688ZM8.570312,2.679688L8.570312,8.570312L6.429688,8.570312L6.429688,2.679688ZM15,10.179688L15,14.464844C15,14.609375,14.945312,14.734375,14.839844,14.839844C14.734375,14.945312,14.609375,15,14.464844,15L10.179688,15C10.035156,15,9.90625,14.945312,9.800781,14.839844C9.695312,14.734375,9.644531,14.609375,9.644531,14.464844L9.644531,9.644531C9.496094,9.644531,9.371094,9.589844,9.265625,9.484375C9.160156,9.378906,9.105469,9.253906,9.105469,9.105469L9.105469,2.679688L12.65625,2.679688C12.789062,2.679688,12.875,2.742188,12.914062,2.871094ZM6.160156,0.269531L6.160156,2.144531L3.214844,2.144531L3.214844,0.269531C3.214844,0.191406,3.238281,0.125,3.289062,0.0742188C3.339844,0.0234375,3.402344,0,3.480469,0L5.894531,0C5.972656,0,6.035156,0.0234375,6.085938,0.0742188C6.136719,0.125,6.160156,0.191406,6.160156,0.269531ZM11.785156,0.269531L11.785156,2.144531L8.839844,2.144531L8.839844,0.269531C8.839844,0.191406,8.863281,0.125,8.914062,0.0742188C8.964844,0.0234375,9.027344,0,9.105469,0L11.519531,0C11.597656,0,11.660156,0.0234375,11.710938,0.0742188C11.761719,0.125,11.785156,0.191406,11.785156,0.269531ZM11.785156,0.269531" fill="#FFFFFF"/>
    </svg>