<svg version="1.1" xmlns="http://www.w3.org/2000/svg" xlink="http://www.w3.org/1999/xlink" x="0px" y="0px" width="15px" height="15px" viewBox="0 0 15 15" style="enable-background:new 0 0 15 15;" space="preserve"><path d="M7.5,2.945312C6.675781,2.945312,5.914062,3.148438,5.214844,3.558594C4.515625,3.964844,3.964844,4.515625,3.558594,5.214844C3.148438,5.914062,2.945312,6.675781,2.945312,7.5C2.945312,8.324219,3.148438,9.085938,3.558594,9.785156C3.964844,10.484375,4.515625,11.035156,5.214844,11.441406C5.914062,11.851562,6.675781,12.054688,7.5,12.054688C8.324219,12.054688,9.085938,11.851562,9.785156,11.441406C10.484375,11.035156,11.035156,10.484375,11.441406,9.785156C11.851562,9.085938,12.054688,8.324219,12.054688,7.5C12.054688,6.675781,11.851562,5.914062,11.441406,5.214844C11.035156,4.515625,10.484375,3.964844,9.785156,3.558594C9.085938,3.148438,8.324219,2.945312,7.5,2.945312ZM13.929688,7.5C13.929688,8.667969,13.640625,9.742188,13.066406,10.726562C12.492188,11.710938,11.710938,12.492188,10.726562,13.066406C9.742188,13.640625,8.667969,13.929688,7.5,13.929688C6.332031,13.929688,5.257812,13.640625,4.273438,13.066406C3.289062,12.492188,2.507812,11.710938,1.933594,10.726562C1.359375,9.742188,1.070312,8.667969,1.070312,7.5C1.070312,6.332031,1.359375,5.257812,1.933594,4.273438C2.507812,3.289062,3.289062,2.507812,4.273438,1.933594C5.257812,1.359375,6.332031,1.070312,7.5,1.070312C8.667969,1.070312,9.742188,1.359375,10.726562,1.933594C11.710938,2.507812,12.492188,3.289062,13.066406,4.273438C13.640625,5.257812,13.929688,6.332031,13.929688,7.5ZM13.929688,7.5" fill="#FFFFFF"/></svg>