<svg version="1.1" xmlns="http://www.w3.org/2000/svg" xlink="http://www.w3.org/1999/xlink" x="0px" y="0px" width="15px" height="15px" viewBox="0 0 15 15" style="enable-background:new 0 0 15 15;" space="preserve"><path d="M7.769531,6.964844C7.769531,6.886719,7.742188,6.820312,7.691406,6.773438C7.640625,6.722656,7.578125,6.695312,7.5,6.695312C7.132812,6.695312,6.816406,6.828125,6.554688,7.089844C6.292969,7.351562,6.160156,7.667969,6.160156,8.035156C6.160156,8.113281,6.1875,8.179688,6.234375,8.226562C6.285156,8.277344,6.351562,8.304688,6.429688,8.304688C6.507812,8.304688,6.570312,8.277344,6.621094,8.226562C6.671875,8.179688,6.695312,8.113281,6.695312,8.035156C6.695312,7.8125,6.773438,7.621094,6.929688,7.464844C7.085938,7.308594,7.277344,7.230469,7.5,7.230469C7.578125,7.230469,7.640625,7.207031,7.691406,7.15625C7.742188,7.105469,7.769531,7.042969,7.769531,6.964844ZM9.644531,8.050781C9.644531,8.644531,9.433594,9.148438,9.015625,9.566406C8.597656,9.984375,8.089844,10.195312,7.5,10.195312C6.910156,10.195312,6.402344,9.984375,5.984375,9.566406C5.566406,9.148438,5.355469,8.644531,5.355469,8.050781C5.355469,7.460938,5.566406,6.957031,5.984375,6.539062C6.402344,6.117188,6.910156,5.910156,7.5,5.910156C8.089844,5.910156,8.597656,6.117188,9.015625,6.539062C9.433594,6.957031,9.644531,7.460938,9.644531,8.050781ZM1.070312,12.855469L13.929688,12.855469L13.929688,11.785156L1.070312,11.785156ZM10.714844,8.050781C10.714844,7.164062,10.398438,6.40625,9.773438,5.78125C9.144531,5.152344,8.386719,4.839844,7.5,4.839844C6.613281,4.839844,5.855469,5.152344,5.226562,5.78125C4.601562,6.40625,4.285156,7.164062,4.285156,8.050781C4.285156,8.941406,4.601562,9.695312,5.226562,10.324219C5.855469,10.953125,6.613281,11.265625,7.5,11.265625C8.386719,11.265625,9.144531,10.953125,9.773438,10.324219C10.398438,9.695312,10.714844,8.941406,10.714844,8.050781ZM2.144531,2.679688L5.355469,2.679688L5.355469,1.605469L2.144531,1.605469ZM1.070312,4.285156L13.929688,4.285156L13.929688,2.144531L6.996094,2.144531L6.460938,3.214844L1.070312,3.214844ZM15,2.144531L15,12.855469C15,13.152344,14.894531,13.40625,14.6875,13.613281C14.476562,13.824219,14.222656,13.929688,13.929688,13.929688L1.070312,13.929688C0.777344,13.929688,0.523438,13.824219,0.3125,13.613281C0.105469,13.40625,0,13.152344,0,12.855469L0,2.144531C0,1.847656,0.105469,1.59375,0.3125,1.386719C0.523438,1.175781,0.777344,1.070312,1.070312,1.070312L13.929688,1.070312C14.222656,1.070312,14.476562,1.175781,14.6875,1.386719C14.894531,1.59375,15,1.847656,15,2.144531ZM15,2.144531" fill="#FFFFFF"/></svg>