<svg version="1.1" xmlns="http://www.w3.org/2000/svg" xlink="http://www.w3.org/1999/xlink" x="0px" y="0px" width="15px" height="15px" viewBox="0 0 15 15" style="enable-background:new 0 0 15 15;" space="preserve"><path d="M7.6961205,12.806252H6.2536178V9.6739786L10.600187,5.4533397C10.999967,5.06512,10.716875,4.4014944,10.151466,4.4014944H0.70719533c-0.56540949,0,-0.84850064,0.6636256,-0.44872134,1.0518453L4.6050434,9.6739786V12.806252H3.1625408c-0.5690157,0,-1.0303589,0.448003,-1.0303589,1.000566c0,0.110563,0.092217,0.200114,0.2060716,0.200114h6.1821542c0.1138549,0,0.2060719,-0.08955,0.2060719,-0.200114c0,-0.552563,-0.4613437,-1.000566,-1.0303591,-1.000566zM11.19934,1.1996822c-1.6127686,0,-2.9712971,1.0055691,-3.4820972,2.401359H9.0706195C9.4995064,2.8868871,10.288246,2.4003617,11.19934,2.4003617c1.363423,0,2.472862,1.0771096,2.472862,2.4013591c0,1.3242495,-1.109439,2.4013592,-2.472862,2.4013592c-0.361655,0,-0.702961,-0.080045,-1.012842,-0.2161224L9.2782365,7.8689569c0.5618037,0.3326882,1.2150505,0.5348027,1.9211035,0.5348027c2.048612,0,3.709294,-1.6126628,3.709294,-3.6020388c0,-1.989376,-1.660682,-3.6020386,-3.709294,-3.6020386z" fill="#FFFFFF"/></svg>