<svg version="1.1" xmlns="http://www.w3.org/2000/svg" xlink="http://www.w3.org/1999/xlink" x="0px" y="0px" width="15px" height="15px" viewBox="0 0 15 15" style="enable-background:new 0 0 15 15;" space="preserve"><path d="M12.589844,7.5L13.746094,8.628906C13.910156,8.785156,13.96875,8.980469,13.910156,9.214844C13.84375,9.445312,13.699219,9.585938,13.476562,9.644531L11.902344,10.042969L12.347656,11.601562C12.414062,11.832031,12.359375,12.027344,12.1875,12.1875C12.027344,12.359375,11.832031,12.414062,11.601562,12.347656L10.042969,11.902344L9.644531,13.476562C9.585938,13.699219,9.445312,13.84375,9.214844,13.910156C9.148438,13.921875,9.097656,13.929688,9.058594,13.929688C8.882812,13.929688,8.742188,13.867188,8.628906,13.746094L7.5,12.589844L6.371094,13.746094C6.214844,13.910156,6.019531,13.96875,5.785156,13.910156C5.554688,13.851562,5.414062,13.707031,5.355469,13.476562L4.957031,11.902344L3.398438,12.347656C3.167969,12.414062,2.972656,12.359375,2.8125,12.1875C2.640625,12.027344,2.585938,11.832031,2.652344,11.601562L3.097656,10.042969L1.523438,9.644531C1.300781,9.585938,1.15625,9.445312,1.089844,9.214844C1.03125,8.980469,1.089844,8.785156,1.253906,8.628906L2.410156,7.5L1.253906,6.371094C1.089844,6.214844,1.03125,6.019531,1.089844,5.785156C1.15625,5.554688,1.300781,5.414062,1.523438,5.355469L3.097656,4.957031L2.652344,3.398438C2.585938,3.167969,2.640625,2.972656,2.8125,2.8125C2.972656,2.640625,3.167969,2.585938,3.398438,2.652344L4.957031,3.097656L5.355469,1.523438C5.414062,1.292969,5.554688,1.152344,5.785156,1.097656C6.011719,1.03125,6.207031,1.082031,6.371094,1.253906L7.5,2.417969L8.628906,1.253906C8.792969,1.089844,8.988281,1.035156,9.214844,1.097656C9.445312,1.152344,9.585938,1.292969,9.644531,1.523438L10.042969,3.097656L11.601562,2.652344C11.832031,2.585938,12.027344,2.640625,12.1875,2.8125C12.359375,2.972656,12.414062,3.167969,12.347656,3.398438L11.902344,4.957031L13.476562,5.355469C13.699219,5.414062,13.84375,5.554688,13.910156,5.785156C13.96875,6.019531,13.910156,6.214844,13.746094,6.371094ZM12.589844,7.5" fill="#FFFFFF"/></svg>