<svg version="1.1" xmlns="http://www.w3.org/2000/svg" xlink="http://www.w3.org/1999/xlink" x="0px" y="0px" width="11.25px" height="15px" viewBox="0 0 11.25 15" style="enable-background:new 0 0 15 15;" space="preserve"><path d="M10.3125,3.75h-2.8125V0.9375c0,-0.51767578125,-0.41982421875000003,-0.9375,-0.9375,-0.9375h-1.875c-0.51767578125,0,-0.9375,0.41982421875000003,-0.9375,0.9375v2.8125H0.9375c-0.51767578125,0,-0.9375,0.41982421875000003,-0.9375,0.9375v1.875c0,0.51767578125,0.41982421875000003,0.9375,0.9375,0.9375h2.8125v6.5625c0,0.51767578125,0.41982421875000003,0.9375,0.9375,0.9375h1.875c0.51767578125,0,0.9375,-0.41982421875000003,0.9375,-0.9375V7.5h2.8125c0.51767578125,0,0.9375,-0.41982421875000003,0.9375,-0.9375v-1.875c0,-0.51767578125,-0.41982421875000003,-0.9375,-0.9375,-0.9375z" fill="#FFFFFF"/></svg>