<svg version="1.1" xmlns="http://www.w3.org/2000/svg" xlink="http://www.w3.org/1999/xlink" x="0px" y="0px" width="15px" height="15px" viewBox="0 0 15 15" style="enable-background:new 0 0 15 15;" space="preserve"><path d="M1.875,12.855469L6.964844,12.855469L6.964844,3.214844L1.605469,3.214844L1.605469,12.589844C1.605469,12.660156,1.632812,12.722656,1.6875,12.777344C1.738281,12.832031,1.800781,12.855469,1.875,12.855469ZM13.394531,12.589844L13.394531,3.214844L8.035156,3.214844L8.035156,12.855469L13.125,12.855469C13.199219,12.855469,13.261719,12.832031,13.3125,12.777344C13.367188,12.722656,13.394531,12.660156,13.394531,12.589844ZM14.464844,2.410156L14.464844,12.589844C14.464844,12.957031,14.332031,13.273438,14.070312,13.535156C13.808594,13.796875,13.492188,13.929688,13.125,13.929688L1.875,13.929688C1.507812,13.929688,1.191406,13.796875,0.929688,13.535156C0.667969,13.273438,0.535156,12.957031,0.535156,12.589844L0.535156,2.410156C0.535156,2.042969,0.667969,1.726562,0.929688,1.464844C1.191406,1.203125,1.507812,1.070312,1.875,1.070312L13.125,1.070312C13.492188,1.070312,13.808594,1.203125,14.070312,1.464844C14.332031,1.726562,14.464844,2.042969,14.464844,2.410156ZM14.464844,2.410156" fill="#FFFFFF"/></svg>