<svg version="1.1" xmlns="http://www.w3.org/2000/svg" xlink="http://www.w3.org/1999/xlink" x="0px" y="0px" width="15px" height="15px" viewBox="0 0 15 15" style="enable-background:new 0 0 15 15;" space="preserve"><path d="M8.035156,7.5C8.179688,7.5,8.304688,7.554688,8.414062,7.660156C8.519531,7.765625,8.570312,7.890625,8.570312,8.035156C8.570312,8.179688,8.519531,8.304688,8.414062,8.414062C8.304688,8.519531,8.179688,8.570312,8.035156,8.570312C7.890625,8.570312,7.765625,8.519531,7.660156,8.414062C7.554688,8.304688,7.5,8.179688,7.5,8.035156C7.5,7.890625,7.554688,7.765625,7.660156,7.660156C7.765625,7.554688,7.890625,7.5,8.035156,7.5ZM10.546875,8.035156L14.789062,11.367188C14.945312,11.480469,15.015625,11.636719,15,11.835938C14.972656,12.03125,14.875,12.171875,14.707031,12.261719L13.636719,12.796875C13.5625,12.835938,13.480469,12.855469,13.394531,12.855469C13.296875,12.855469,13.210938,12.835938,13.132812,12.789062L7.359375,9.550781L6.4375,10.101562C6.390625,10.125,6.359375,10.140625,6.335938,10.144531C6.414062,10.417969,6.441406,10.6875,6.421875,10.957031C6.382812,11.386719,6.226562,11.796875,5.953125,12.191406C5.679688,12.585938,5.308594,12.929688,4.847656,13.226562C4.109375,13.695312,3.335938,13.929688,2.527344,13.929688C1.769531,13.929688,1.148438,13.710938,0.667969,13.277344C0.167969,12.808594,-0.0546875,12.230469,0.0078125,11.542969C0.046875,11.117188,0.203125,10.707031,0.476562,10.3125C0.75,9.917969,1.117188,9.570312,1.574219,9.273438C2.308594,8.804688,3.085938,8.570312,3.902344,8.570312C4.363281,8.570312,4.785156,8.65625,5.164062,8.832031C5.214844,8.757812,5.277344,8.695312,5.347656,8.648438L6.371094,8.035156L5.347656,7.425781C5.277344,7.375,5.214844,7.3125,5.164062,7.242188C4.785156,7.414062,4.363281,7.5,3.902344,7.5C3.085938,7.5,2.308594,7.265625,1.574219,6.796875C1.117188,6.5,0.75,6.15625,0.476562,5.757812C0.203125,5.363281,0.046875,4.953125,0.0078125,4.527344C-0.0195312,4.199219,0.0234375,3.882812,0.136719,3.582031C0.253906,3.28125,0.429688,3.023438,0.667969,2.804688C1.144531,2.363281,1.761719,2.144531,2.527344,2.144531C3.335938,2.144531,4.109375,2.378906,4.847656,2.847656C5.308594,3.136719,5.679688,3.480469,5.953125,3.875C6.226562,4.273438,6.382812,4.683594,6.421875,5.113281C6.441406,5.382812,6.414062,5.652344,6.335938,5.925781C6.359375,5.933594,6.390625,5.945312,6.4375,5.96875L7.359375,6.519531L13.132812,3.28125C13.210938,3.238281,13.296875,3.214844,13.394531,3.214844C13.480469,3.214844,13.5625,3.234375,13.636719,3.273438L14.707031,3.808594C14.875,3.898438,14.972656,4.039062,15,4.234375C15.015625,4.4375,14.945312,4.59375,14.789062,4.703125ZM4.847656,5.859375C5.101562,5.625,5.160156,5.324219,5.023438,4.957031C4.882812,4.585938,4.585938,4.261719,4.136719,3.976562C3.621094,3.648438,3.085938,3.480469,2.527344,3.480469C2.113281,3.480469,1.800781,3.582031,1.582031,3.785156C1.324219,4.019531,1.265625,4.320312,1.40625,4.6875C1.546875,5.054688,1.839844,5.382812,2.292969,5.667969C2.808594,5.996094,3.34375,6.160156,3.902344,6.160156C4.3125,6.160156,4.628906,6.058594,4.847656,5.859375ZM4.136719,12.09375C4.585938,11.8125,4.882812,11.484375,5.023438,11.117188C5.160156,10.746094,5.101562,10.445312,4.847656,10.210938C4.628906,10.011719,4.3125,9.910156,3.902344,9.910156C3.34375,9.910156,2.808594,10.074219,2.292969,10.40625C1.839844,10.6875,1.546875,11.015625,1.40625,11.382812C1.265625,11.753906,1.324219,12.054688,1.582031,12.289062C1.800781,12.488281,2.113281,12.589844,2.527344,12.589844C3.085938,12.589844,3.621094,12.425781,4.136719,12.09375ZM5.625,6.964844L6.429688,7.449219L6.429688,7.359375C6.429688,7.15625,6.519531,7,6.703125,6.890625L6.820312,6.820312L6.160156,6.429688L5.941406,6.644531C5.925781,6.664062,5.898438,6.695312,5.859375,6.738281C5.820312,6.78125,5.785156,6.816406,5.757812,6.839844C5.746094,6.851562,5.738281,6.859375,5.726562,6.867188C5.714844,6.875,5.707031,6.882812,5.699219,6.890625ZM7.5,8.839844L8.304688,9.105469L14.464844,4.285156L13.394531,3.75L6.964844,7.359375L6.964844,8.304688L5.625,9.105469L5.699219,9.175781C5.710938,9.183594,5.730469,9.203125,5.757812,9.222656C5.78125,9.246094,5.8125,9.28125,5.851562,9.324219C5.890625,9.371094,5.921875,9.402344,5.941406,9.425781L6.160156,9.644531ZM13.394531,12.320312L14.464844,11.785156L10.113281,8.371094L8.628906,9.527344C8.617188,9.542969,8.582031,9.5625,8.519531,9.585938ZM13.394531,12.320312" fill="#FFFFFF"/></svg>