<svg version="1.1" xmlns="http://www.w3.org/2000/svg" xlink="http://www.w3.org/1999/xlink" x="0px" y="0px" width="15px" height="15px" viewBox="0 0 15 15" style="enable-background:new 0 0 15 15;" space="preserve">
    <path d="M12.763506,2.4668801H12.379663C12.037113,2.0135879,11.498652,1.7160856,10.88652,1.7160856c-1.0365652,0,-1.8769861,0.8404206,-1.8769861,1.8769862V4.0853114L0.28365954,10.950154A0.70893772,0.70893772,0,0,0,0,11.517239c0,0.526963,0.55464943,0.869749,1.0260076,0.634187L3.8776189,10.72562h2.26388l1.0419618,2.817825c0.05326,0.146171,0.2146803,0.221485,0.360851,0.168226l0.5290751,-0.192627c0.1461707,-0.05326,0.2214843,-0.21468,0.1682254,-0.36085L7.3423008,10.72562h0.9164386c0.044815,0,0.088218,-0.0054,0.1327965,-0.0068l1.0443083,2.824395c0.05326,0.14617,0.2146803,0.221484,0.360851,0.168224L10.32577,13.51881c0.146171,-0.05326,0.221485,-0.21468,0.168226,-0.36085L9.5264092,10.541206C11.396591,9.9935946,12.763506,8.2681755,12.763506,6.2208525V4.3438663L15.01589,3.9684691c0,-0.8293933,-1.008411,-1.501589,-2.252384,-1.501589zM10.88652,4.1561677c-0.310876,0,-0.563096,-0.25222,-0.563096,-0.5630959c0,-0.3111104,0.25222,-0.5630958,0.563096,-0.5630958c0.310876,0,0.563096,0.2519854,0.563096,0.5630958c0,0.3108759,-0.25222,0.5630959,-0.563096,0.5630959z" fill="#FFFFFF"/>
    </svg>