<svg version="1.1" xmlns="http://www.w3.org/2000/svg" xlink="http://www.w3.org/1999/xlink" x="0px" y="0px" width="15px" height="15px" viewBox="0 0 15 15" style="enable-background:new 0 0 15 15;" space="preserve"><path d="M11.820312,6.144531C11.820312,5.988281,11.769531,5.859375,11.667969,5.757812L10.90625,5.003906C10.800781,4.898438,10.675781,4.847656,10.53125,4.847656C10.386719,4.847656,10.257812,4.898438,10.152344,5.003906L6.738281,8.414062L4.847656,6.519531C4.742188,6.414062,4.613281,6.363281,4.46875,6.363281C4.324219,6.363281,4.199219,6.414062,4.09375,6.519531L3.332031,7.273438C3.230469,7.375,3.179688,7.503906,3.179688,7.660156C3.179688,7.808594,3.230469,7.933594,3.332031,8.035156L6.363281,11.066406C6.46875,11.171875,6.59375,11.226562,6.738281,11.226562C6.890625,11.226562,7.015625,11.171875,7.125,11.066406L11.667969,6.519531C11.769531,6.421875,11.820312,6.292969,11.820312,6.144531ZM13.929688,7.5C13.929688,8.667969,13.640625,9.742188,13.066406,10.726562C12.492188,11.710938,11.710938,12.492188,10.726562,13.066406C9.742188,13.640625,8.667969,13.929688,7.5,13.929688C6.332031,13.929688,5.257812,13.640625,4.273438,13.066406C3.289062,12.492188,2.507812,11.710938,1.933594,10.726562C1.359375,9.742188,1.070312,8.667969,1.070312,7.5C1.070312,6.332031,1.359375,5.257812,1.933594,4.273438C2.507812,3.289062,3.289062,2.507812,4.273438,1.933594C5.257812,1.359375,6.332031,1.070312,7.5,1.070312C8.667969,1.070312,9.742188,1.359375,10.726562,1.933594C11.710938,2.507812,12.492188,3.289062,13.066406,4.273438C13.640625,5.257812,13.929688,6.332031,13.929688,7.5ZM13.929688,7.5" fill="#FFFFFF"/></svg>