<svg version="1.1" xmlns="http://www.w3.org/2000/svg" xlink="http://www.w3.org/1999/xlink" x="0px" y="0px" width="15px" height="20px" viewBox="0 0 15 20" style="enable-background:new 0 0 15 15;" space="preserve">
    <path d="M0.7421875,10.643359375000001l1.587109375,0.70546875a1.25,1.25,0,0,0,0.9718749999999999,0.018359374999999997l0.49921875,-0.2a1.25,1.25,0,0,0,0.7328125000000001,-0.80078125l0.36015625,-1.197265625a0.9375,0.9375,0,0,1,0.490234375,-0.611328125L6.24765625,8.125v1.9660156249999998a1.875,1.875,0,0,1,-1.036328125,1.67734375l-2.23515625,1.119140625A3.125,3.125,0,0,0,1.25,15.6828125V16.25h12.494531250000001V8.75c0,-4.140625,-3.35625,-7.5,-7.496874999999999,-7.5H0.46875A0.46875,0.46875,0,0,0,0,1.71875a0.66015625,0.66015625,0,0,0,0.069921875,0.29609375L0.625,3.125l-0.3515625,0.3515625a0.9375,0.9375,0,0,0,-0.2734375,0.6640625v5.3597656250000005a1.25,1.25,0,0,0,0.7421875,1.14296875zM2.03125,5a0.78125,0.78125,0,1,1,-0.78125,0.78125a0.78125,0.78125,0,0,1,0.78125,-0.78125zm12.34375,12.5H0.625a0.625,0.625,0,0,0,-0.625,0.625v1.25a0.625,0.625,0,0,0,0.625,0.625h13.75a0.625,0.625,0,0,0,0.625,-0.625v-1.25a0.625,0.625,0,0,0,-0.625,-0.625z" fill="#FFFFFF"/>
    </svg>