<svg version="1.1" xmlns="http://www.w3.org/2000/svg" xlink="http://www.w3.org/1999/xlink" x="0px" y="0px" width="15px" height="15px" viewBox="0 0 15 15" style="enable-background:new 0 0 15 15;" space="preserve"><path d="M6.964844,7.5C6.964844,6.910156,6.753906,6.402344,6.335938,5.984375C5.917969,5.566406,5.414062,5.355469,4.820312,5.355469C4.230469,5.355469,3.726562,5.566406,3.304688,5.984375C2.886719,6.402344,2.679688,6.910156,2.679688,7.5C2.679688,8.089844,2.886719,8.597656,3.304688,9.015625C3.726562,9.433594,4.230469,9.644531,4.820312,9.644531C5.414062,9.644531,5.917969,9.433594,6.335938,9.015625C6.753906,8.597656,6.964844,8.089844,6.964844,7.5ZM13.394531,11.785156C13.394531,11.496094,13.285156,11.246094,13.074219,11.03125C12.863281,10.820312,12.613281,10.714844,12.320312,10.714844C12.03125,10.714844,11.78125,10.820312,11.566406,11.03125C11.355469,11.246094,11.25,11.496094,11.25,11.785156C11.25,12.082031,11.355469,12.335938,11.5625,12.542969C11.773438,12.753906,12.027344,12.855469,12.320312,12.855469C12.617188,12.855469,12.871094,12.753906,13.078125,12.542969C13.289062,12.335938,13.394531,12.082031,13.394531,11.785156ZM13.394531,3.214844C13.394531,2.925781,13.285156,2.671875,13.074219,2.460938C12.863281,2.25,12.613281,2.144531,12.320312,2.144531C12.03125,2.144531,11.78125,2.25,11.566406,2.460938C11.355469,2.671875,11.25,2.925781,11.25,3.214844C11.25,3.511719,11.355469,3.761719,11.5625,3.972656C11.773438,4.179688,12.027344,4.285156,12.320312,4.285156C12.617188,4.285156,12.871094,4.179688,13.078125,3.972656C13.289062,3.761719,13.394531,3.511719,13.394531,3.214844ZM10.179688,6.738281L10.179688,8.285156C10.179688,8.34375,10.160156,8.398438,10.121094,8.449219C10.082031,8.503906,10.035156,8.53125,9.984375,8.539062L8.6875,8.738281C8.628906,8.933594,8.539062,9.144531,8.421875,9.375C8.609375,9.644531,8.863281,9.964844,9.175781,10.335938C9.214844,10.394531,9.234375,10.449219,9.234375,10.503906C9.234375,10.570312,9.214844,10.625,9.175781,10.664062C9.046875,10.832031,8.816406,11.082031,8.484375,11.414062C8.152344,11.746094,7.933594,11.910156,7.828125,11.910156C7.765625,11.910156,7.707031,11.890625,7.652344,11.851562L6.6875,11.097656C6.480469,11.207031,6.265625,11.292969,6.042969,11.359375C5.980469,11.960938,5.917969,12.394531,5.851562,12.65625C5.8125,12.789062,5.726562,12.855469,5.601562,12.855469L4.042969,12.855469C3.980469,12.855469,3.925781,12.835938,3.875,12.792969C3.824219,12.753906,3.796875,12.703125,3.792969,12.648438L3.597656,11.367188C3.410156,11.3125,3.199219,11.226562,2.972656,11.109375L1.984375,11.851562C1.945312,11.890625,1.890625,11.910156,1.816406,11.910156C1.753906,11.910156,1.695312,11.890625,1.640625,11.84375C0.835938,11.101562,0.433594,10.65625,0.433594,10.503906C0.433594,10.453125,0.453125,10.402344,0.492188,10.347656C0.550781,10.269531,0.664062,10.121094,0.835938,9.902344C1.011719,9.683594,1.140625,9.515625,1.230469,9.390625C1.101562,9.144531,1.003906,8.917969,0.9375,8.707031L-0.335938,8.503906C-0.390625,8.5,-0.4375,8.472656,-0.476562,8.425781C-0.515625,8.378906,-0.535156,8.324219,-0.535156,8.261719L-0.535156,6.714844C-0.535156,6.65625,-0.515625,6.601562,-0.476562,6.550781C-0.4375,6.496094,-0.394531,6.46875,-0.34375,6.460938L0.953125,6.261719C1.015625,6.066406,1.105469,5.855469,1.222656,5.625C1.03125,5.355469,0.78125,5.035156,0.46875,4.664062C0.429688,4.601562,0.410156,4.546875,0.410156,4.496094C0.410156,4.429688,0.429688,4.371094,0.46875,4.328125C0.589844,4.160156,0.820312,3.910156,1.15625,3.582031C1.488281,3.253906,1.710938,3.089844,1.816406,3.089844C1.878906,3.089844,1.9375,3.109375,1.992188,3.148438L2.953125,3.902344C3.144531,3.800781,3.359375,3.710938,3.597656,3.632812C3.660156,3.03125,3.726562,2.601562,3.792969,2.34375C3.832031,2.210938,3.914062,2.144531,4.042969,2.144531L5.601562,2.144531C5.660156,2.144531,5.71875,2.164062,5.765625,2.207031C5.816406,2.246094,5.84375,2.296875,5.851562,2.351562L6.042969,3.632812C6.234375,3.6875,6.441406,3.773438,6.671875,3.890625L7.660156,3.148438C7.703125,3.109375,7.757812,3.089844,7.828125,3.089844C7.886719,3.089844,7.945312,3.109375,8.003906,3.15625C8.804688,3.898438,9.207031,4.34375,9.207031,4.496094C9.207031,4.546875,9.1875,4.597656,9.148438,4.652344C9.082031,4.742188,8.964844,4.894531,8.796875,5.105469C8.628906,5.316406,8.503906,5.484375,8.421875,5.609375C8.550781,5.875,8.644531,6.105469,8.707031,6.292969L9.976562,6.488281C10.035156,6.5,10.082031,6.527344,10.121094,6.574219C10.160156,6.621094,10.179688,6.675781,10.179688,6.738281ZM15.535156,11.199219L15.535156,12.371094C15.535156,12.460938,15.121094,12.546875,14.289062,12.632812C14.222656,12.78125,14.136719,12.925781,14.039062,13.066406C14.320312,13.695312,14.464844,14.082031,14.464844,14.222656C14.464844,14.242188,14.453125,14.261719,14.429688,14.28125C13.75,14.675781,13.402344,14.875,13.394531,14.875C13.347656,14.875,13.21875,14.742188,13.007812,14.480469C12.796875,14.21875,12.652344,14.027344,12.574219,13.910156C12.460938,13.921875,12.378906,13.929688,12.320312,13.929688C12.265625,13.929688,12.183594,13.921875,12.070312,13.910156C11.992188,14.027344,11.847656,14.21875,11.636719,14.480469C11.421875,14.742188,11.292969,14.875,11.25,14.875C11.238281,14.875,10.894531,14.675781,10.210938,14.28125C10.191406,14.261719,10.179688,14.242188,10.179688,14.222656C10.179688,14.082031,10.320312,13.695312,10.605469,13.066406C10.503906,12.925781,10.421875,12.78125,10.355469,12.632812C9.523438,12.546875,9.105469,12.460938,9.105469,12.371094L9.105469,11.199219C9.105469,11.109375,9.523438,11.023438,10.355469,10.941406C10.425781,10.777344,10.511719,10.632812,10.605469,10.503906C10.320312,9.875,10.179688,9.488281,10.179688,9.351562C10.179688,9.328125,10.191406,9.308594,10.210938,9.292969C10.234375,9.28125,10.332031,9.222656,10.503906,9.125C10.679688,9.023438,10.84375,8.929688,11,8.839844C11.15625,8.75,11.238281,8.707031,11.25,8.707031C11.292969,8.707031,11.421875,8.835938,11.636719,9.09375C11.847656,9.355469,11.992188,9.542969,12.070312,9.660156C12.183594,9.648438,12.265625,9.644531,12.320312,9.644531C12.378906,9.644531,12.460938,9.648438,12.574219,9.660156C12.855469,9.261719,13.113281,8.949219,13.34375,8.722656L13.394531,8.707031C13.414062,8.707031,13.761719,8.902344,14.429688,9.292969C14.453125,9.308594,14.464844,9.328125,14.464844,9.351562C14.464844,9.488281,14.320312,9.875,14.039062,10.503906C14.132812,10.632812,14.214844,10.777344,14.289062,10.941406C15.121094,11.023438,15.535156,11.109375,15.535156,11.199219ZM15.535156,2.628906L15.535156,3.800781C15.535156,3.890625,15.121094,3.976562,14.289062,4.058594C14.222656,4.210938,14.136719,4.355469,14.039062,4.496094C14.320312,5.125,14.464844,5.511719,14.464844,5.648438C14.464844,5.671875,14.453125,5.691406,14.429688,5.707031C13.75,6.105469,13.402344,6.304688,13.394531,6.304688C13.347656,6.304688,13.21875,6.171875,13.007812,5.910156C12.796875,5.648438,12.652344,5.457031,12.574219,5.339844C12.460938,5.351562,12.378906,5.355469,12.320312,5.355469C12.265625,5.355469,12.183594,5.351562,12.070312,5.339844C11.992188,5.457031,11.847656,5.648438,11.636719,5.910156C11.421875,6.171875,11.292969,6.304688,11.25,6.304688C11.238281,6.304688,10.894531,6.105469,10.210938,5.707031C10.191406,5.691406,10.179688,5.671875,10.179688,5.648438C10.179688,5.511719,10.320312,5.125,10.605469,4.496094C10.503906,4.355469,10.421875,4.210938,10.355469,4.058594C9.523438,3.976562,9.105469,3.890625,9.105469,3.800781L9.105469,2.628906C9.105469,2.539062,9.523438,2.453125,10.355469,2.367188C10.425781,2.207031,10.511719,2.0625,10.605469,1.933594C10.320312,1.304688,10.179688,0.917969,10.179688,0.777344C10.179688,0.757812,10.191406,0.738281,10.210938,0.71875C10.234375,0.707031,10.332031,0.652344,10.503906,0.550781C10.679688,0.453125,10.84375,0.355469,11,0.269531C11.15625,0.179688,11.238281,0.132812,11.25,0.132812C11.292969,0.132812,11.421875,0.265625,11.636719,0.523438C11.847656,0.78125,11.992188,0.972656,12.070312,1.089844C12.183594,1.078125,12.265625,1.070312,12.320312,1.070312C12.378906,1.070312,12.460938,1.078125,12.574219,1.089844C12.855469,0.691406,13.113281,0.378906,13.34375,0.152344L13.394531,0.132812C13.414062,0.132812,13.761719,0.328125,14.429688,0.71875C14.453125,0.738281,14.464844,0.757812,14.464844,0.777344C14.464844,0.917969,14.320312,1.304688,14.039062,1.933594C14.132812,2.0625,14.214844,2.207031,14.289062,2.367188C15.121094,2.453125,15.535156,2.539062,15.535156,2.628906ZM15.535156,2.628906" fill="#FFFFFF"/></svg>