<svg version="1.1" xmlns="http://www.w3.org/2000/svg" xlink="http://www.w3.org/1999/xlink" x="0px" y="0px" width="15px" height="15px" viewBox="0 0 15 15" style="enable-background:new 0 0 15 15;" space="preserve"><path d="M5.625,12.320312C5.625,12.097656,5.546875,11.910156,5.390625,11.753906C5.234375,11.597656,5.042969,11.519531,4.820312,11.519531C4.597656,11.519531,4.410156,11.597656,4.253906,11.753906C4.097656,11.910156,4.019531,12.097656,4.019531,12.320312C4.019531,12.542969,4.097656,12.734375,4.253906,12.890625C4.410156,13.046875,4.597656,13.125,4.820312,13.125C5.042969,13.125,5.234375,13.046875,5.390625,12.890625C5.546875,12.734375,5.625,12.542969,5.625,12.320312ZM5.625,2.679688C5.625,2.457031,5.546875,2.265625,5.390625,2.109375C5.234375,1.953125,5.042969,1.875,4.820312,1.875C4.597656,1.875,4.410156,1.953125,4.253906,2.109375C4.097656,2.265625,4.019531,2.457031,4.019531,2.679688C4.019531,2.902344,4.097656,3.089844,4.253906,3.246094C4.410156,3.402344,4.597656,3.480469,4.820312,3.480469C5.042969,3.480469,5.234375,3.402344,5.390625,3.246094C5.546875,3.089844,5.625,2.902344,5.625,2.679688ZM10.980469,3.75C10.980469,3.527344,10.902344,3.335938,10.746094,3.179688C10.589844,3.023438,10.402344,2.945312,10.179688,2.945312C9.957031,2.945312,9.765625,3.023438,9.609375,3.179688C9.453125,3.335938,9.375,3.527344,9.375,3.75C9.375,3.972656,9.453125,4.164062,9.609375,4.320312C9.765625,4.476562,9.957031,4.554688,10.179688,4.554688C10.402344,4.554688,10.589844,4.476562,10.746094,4.320312C10.902344,4.164062,10.980469,3.972656,10.980469,3.75ZM11.785156,3.75C11.785156,4.039062,11.714844,4.308594,11.566406,4.558594C11.421875,4.804688,11.226562,5,10.980469,5.140625C10.972656,6.742188,10.339844,7.894531,9.089844,8.605469C8.710938,8.816406,8.144531,9.042969,7.390625,9.28125C6.675781,9.507812,6.203125,9.703125,5.972656,9.878906C5.742188,10.050781,5.625,10.328125,5.625,10.714844L5.625,10.933594C5.871094,11.070312,6.066406,11.265625,6.210938,11.515625C6.355469,11.761719,6.429688,12.03125,6.429688,12.320312C6.429688,12.769531,6.273438,13.148438,5.960938,13.460938C5.648438,13.773438,5.269531,13.929688,4.820312,13.929688C4.375,13.929688,3.996094,13.773438,3.683594,13.460938C3.371094,13.148438,3.214844,12.769531,3.214844,12.320312C3.214844,12.03125,3.285156,11.761719,3.433594,11.515625C3.578125,11.265625,3.773438,11.070312,4.019531,10.933594L4.019531,4.066406C3.773438,3.929688,3.578125,3.734375,3.433594,3.484375C3.285156,3.238281,3.214844,2.96875,3.214844,2.679688C3.214844,2.230469,3.371094,1.851562,3.683594,1.539062C3.996094,1.226562,4.375,1.070312,4.820312,1.070312C5.269531,1.070312,5.648438,1.226562,5.960938,1.539062C6.273438,1.851562,6.429688,2.230469,6.429688,2.679688C6.429688,2.96875,6.355469,3.238281,6.210938,3.484375C6.066406,3.734375,5.871094,3.929688,5.625,4.066406L5.625,8.226562C5.925781,8.082031,6.355469,7.925781,6.914062,7.75C7.222656,7.65625,7.464844,7.574219,7.648438,7.503906C7.828125,7.433594,8.023438,7.347656,8.238281,7.246094C8.449219,7.140625,8.613281,7.03125,8.730469,6.914062C8.847656,6.796875,8.960938,6.65625,9.070312,6.488281C9.179688,6.320312,9.257812,6.125,9.304688,5.90625C9.351562,5.683594,9.375,5.429688,9.375,5.140625C9.128906,5,8.933594,4.804688,8.789062,4.558594C8.644531,4.308594,8.570312,4.039062,8.570312,3.75C8.570312,3.304688,8.726562,2.925781,9.039062,2.613281C9.351562,2.300781,9.730469,2.144531,10.179688,2.144531C10.625,2.144531,11.003906,2.300781,11.316406,2.613281C11.628906,2.925781,11.785156,3.304688,11.785156,3.75ZM11.785156,3.75" fill="#FFFFFF"/></svg>