<svg version="1.1" xmlns="http://www.w3.org/2000/svg" xlink="http://www.w3.org/1999/xlink" x="0px" y="0px" width="15px" height="15px" viewBox="0 0 15 15" style="enable-background:new 0 0 15 15;" space="preserve"><path d="M12.320312,7.785156L12.320312,10.445312C12.320312,11.109375,12.085938,11.679688,11.613281,12.148438C11.140625,12.621094,10.574219,12.855469,9.910156,12.855469L2.945312,12.855469C2.28125,12.855469,1.714844,12.621094,1.242188,12.148438C0.769531,11.679688,0.535156,11.109375,0.535156,10.445312L0.535156,3.480469C0.535156,2.816406,0.769531,2.25,1.242188,1.777344C1.714844,1.308594,2.28125,1.070312,2.945312,1.070312L9.910156,1.070312C10.261719,1.070312,10.589844,1.140625,10.890625,1.28125C10.972656,1.320312,11.023438,1.382812,11.039062,1.472656C11.058594,1.566406,11.03125,1.648438,10.964844,1.714844L10.554688,2.125C10.5,2.183594,10.433594,2.210938,10.363281,2.210938C10.347656,2.210938,10.320312,2.203125,10.289062,2.191406C10.160156,2.160156,10.035156,2.144531,9.910156,2.144531L2.945312,2.144531C2.578125,2.144531,2.261719,2.273438,2,2.535156C1.738281,2.796875,1.605469,3.113281,1.605469,3.480469L1.605469,10.445312C1.605469,10.816406,1.738281,11.128906,2,11.390625C2.261719,11.65625,2.578125,11.785156,2.945312,11.785156L9.910156,11.785156C10.277344,11.785156,10.59375,11.65625,10.855469,11.390625C11.117188,11.128906,11.25,10.816406,11.25,10.445312L11.25,8.320312C11.25,8.246094,11.273438,8.1875,11.324219,8.136719L11.859375,7.601562C11.917969,7.542969,11.980469,7.515625,12.054688,7.515625C12.085938,7.515625,12.121094,7.523438,12.152344,7.542969C12.265625,7.585938,12.320312,7.667969,12.320312,7.785156ZM14.253906,3.691406L7.441406,10.503906C7.308594,10.640625,7.148438,10.707031,6.964844,10.707031C6.78125,10.707031,6.621094,10.640625,6.488281,10.503906L2.886719,6.90625C2.753906,6.773438,2.6875,6.613281,2.6875,6.429688C2.6875,6.246094,2.753906,6.085938,2.886719,5.953125L3.808594,5.03125C3.941406,4.898438,4.101562,4.828125,4.285156,4.828125C4.46875,4.828125,4.628906,4.898438,4.761719,5.03125L6.964844,7.230469L12.378906,1.816406C12.515625,1.683594,12.671875,1.617188,12.855469,1.617188C13.042969,1.617188,13.199219,1.683594,13.335938,1.816406L14.253906,2.738281C14.390625,2.871094,14.457031,3.03125,14.457031,3.214844C14.457031,3.398438,14.390625,3.558594,14.253906,3.691406ZM14.253906,3.691406" fill="#FFFFFF"/></svg>