<svg version="1.1" xmlns="http://www.w3.org/2000/svg" xlink="http://www.w3.org/1999/xlink" x="0px" y="0px" width="15px" height="17.142857142857142px" viewBox="0 0 15 17.142857142857142" style="enable-background:new 0 0 15 15;" space="preserve">
    <path d="M14.94408482142857,11.446875l-0.3572544642857143,-1.0714285714285714A1.0712946428571428,1.0712946428571428,0,0,0,13.5703125,9.642857142857142H1.4293526785714286c-0.46104910714285713,0,-0.8705357142857143,0.2949776785714286,-1.016517857142857,0.7325892857142856l-0.3572544642857143,1.0714285714285714C-0.1754464285714286,12.140625,0.34084821428571427,12.857142857142858,1.0724330357142857,12.857142857142858H1.0714285714285714v3.75c0,0.29598214285714286,0.23973214285714287,0.5357142857142857,0.5357142857142857,0.5357142857142857h1.0714285714285714c0.29598214285714286,0,0.5357142857142857,-0.23973214285714287,0.5357142857142857,-0.5357142857142857V12.857142857142858h8.571428571428571v3.75c0,0.29598214285714286,0.23973214285714287,0.5357142857142857,0.5357142857142857,0.5357142857142857h1.0714285714285714c0.29598214285714286,0,0.5357142857142857,-0.23973214285714287,0.5357142857142857,-0.5357142857142857V12.857142857142858h-0.0010044642857142856c0.7315848214285715,0,1.2478794642857143,-0.7165178571428571,1.016517857142857,-1.410267857142857zM3.75,4.285714285714286c0,-0.9870535714285714,0.5424107142857142,-1.8411830357142858,1.3392857142857142,-2.3059151785714285V8.571428571428571h1.6071428571428572V1.6071428571428572h1.6071428571428572v6.964285714285714h1.6071428571428572V1.9797991071428571c0.796875,0.46473214285714287,1.3392857142857142,1.3188616071428572,1.3392857142857142,2.3059151785714285v4.285714285714286h1.6071428571428572V4.285714285714286C12.857142857142858,1.9188616071428573,10.93828125,0,8.571428571428571,0h-2.142857142857143C4.06171875,0,2.142857142857143,1.9188616071428573,2.142857142857143,4.285714285714286v4.285714285714286h1.6071428571428572V4.285714285714286z" fill="#FFFFFF"/>
    </svg>