<svg version="1.1" xmlns="http://www.w3.org/2000/svg" xlink="http://www.w3.org/1999/xlink" x="0px" y="0px" width="15px" height="15px" viewBox="0 0 15 15" style="enable-background:new 0 0 15 15;" space="preserve">
    <path d="M12.539923,6.0720338V12.884181H3.2971578V11.46832c0,-0.921526,0.494488,-1.7639524,1.2773212,-2.1760566L6.2278653,8.4218293A1.3864148,1.4597458,0,0,0,6.9942638,7.1161774V5.585452L6.3551555,5.921893A0.69309184,0.72975123,0,0,0,5.9926658,6.3976789L5.650828,7.8372923A0.34660368,0.36493644,0,0,1,5.4432989,8.087608L4.5883143,8.4476792a0.34654592,0.36487561,0,0,1,-0.2694844,-0.0053L2.5787063,7.6280926A0.34660368,0.36493644,0,0,1,2.3728813,7.2946014V2.4816979c0,-0.1935683,0.073047,-0.3792297,0.2030521,-0.5161114L2.8350196,1.6927966L2.4245542,0.82844469A0.48920221,0.51507737,0,0,1,2.3728814,0.59798728c0,-0.20153607,0.1551919,-0.36493637,0.3466038,-0.36493637h4.2747787c3.0627921,0,5.5456591,2.61419169,5.5456591,5.83898289zm0.577673,7.2987292H2.7194851c-0.1914119,0,-0.3466038,0.163401,-0.3466038,0.364937v0.729873c0,0.201537,0.1551919,0.364936,0.3466038,0.364936H13.117596c0.191412,0,0.346604,-0.163399,0.346604,-0.364936V13.7357c0,-0.201536,-0.155192,-0.364937,-0.346604,-0.364937zM3.8748307,3.1525424c-0.3190488,0,-0.5776729,0.2723034,-0.5776729,0.6082273c0,0.3359241,0.2586241,0.6082274,0.5776729,0.6082274c0.3190487,0,0.5776728,-0.2723033,0.5776728,-0.6082274c0,-0.3359239,-0.2586241,-0.6082273,-0.5776728,-0.6082273z" fill="#FFFFFF"/>
    </svg>