<svg version="1.1" xmlns="http://www.w3.org/2000/svg" xlink="http://www.w3.org/1999/xlink" x="0px" y="0px" width="15px" height="15px" viewBox="0 0 15 15" style="enable-background:new 0 0 15 15;" space="preserve"><path d="M14.75009765625,10.55419921875c-0.045703125000000004,-0.024023437499999998,-0.94892578125,-0.49482421875000004,-2.2494140625,-0.75615234375c1.88232421875,-2.2007812500000004,2.46240234375,-4.7364257812499995,2.48818359375,-4.852734375c0.0345703125,-0.15615234375,-0.012890625,-0.3193359375,-0.1259765625,-0.43271484374999997c-0.08876953124999999,-0.0890625,-0.20859375,-0.1376953125,-0.331640625,-0.1376953125c-0.033398437499999996,0,-0.06708984375,0.0035156249999999997,-0.10078125,0.0111328125c-0.11367187499999999,0.02490234375,-2.5353515625000003,0.57392578125,-4.7044921875000005,2.33671875c0.00029296875,-0.0427734375,0.00029296875,-0.08583984375,0.00029296875,-0.12890625c0,-3.4801757812500003,-1.7572265624999999,-6.261328125,-1.83193359375,-6.3779296875A0.467958984375,0.467958984375,0,0,0,7.5,0c-0.15966796875,0,-0.30849609375,0.08144531249999999,-0.39462890625,0.21591796875c-0.07470703125,0.1166015625,-1.83193359375,2.8977539062499997,-1.83193359375,6.3779296875c0,0.04306640625,0.00029296875,0.0861328125,0.00029296875,0.12890625c-2.16884765625,-1.7625,-4.59052734375,-2.3115234375,-4.7044921875000005,-2.33671875c-0.033398437499999996,-0.00732421875,-0.06708984375,-0.0111328125,-0.10078125,-0.0111328125c-0.123046875,0,-0.24287109375,0.0486328125,-0.331640625,0.1376953125A0.46833984375000004,0.46833984375000004,0,0,0,0.0111328125,4.9453125c0.02578125,0.11630859375000001,0.605859375,2.651953125,2.48818359375,4.852734375c-1.30048828125,0.261328125,-2.2034179687499997,0.7321289062499999,-2.2494140625,0.75615234375a0.46883789062500003,0.46883789062500003,0,0,0,-0.0005859375,0.8288085937499999c0.07177734375,0.03779296875,1.780078125,0.9292968749999999,3.9108398437500003,0.9292968749999999c0.1798828125,0,0.350390625,-0.0029296875,0.5126953125,-0.00908203125c-0.33310546874999997,0.65126953125,-0.48398437499999997,1.1223632812500002,-0.49248046874999996,1.1490234375c-0.052734375,0.16640624999999998,-0.00849609375,0.34833984375000004,0.11455078125000001,0.47197265624999996a0.46930664062499994,0.46930664062499994,0,0,0,0.47167968750000006,0.11689453125c0.053613281250000006,-0.016699218749999998,1.105078125,-0.35126953125,2.2646484375,-1.15107421875V14.765625c0,0.1294921875,0.1048828125,0.234375,0.234375,0.234375h0.46875c0.1294921875,0,0.234375,-0.1048828125,0.234375,-0.234375v-1.8752929687500002c1.1595703124999999,0.7998046875,2.21103515625,1.13408203125,2.2646484375,1.15107421875a0.46930664062499994,0.46930664062499994,0,0,0,0.47167968750000006,-0.11689453125c0.123046875,-0.1236328125,0.16728515625,-0.30556640625,0.11455078125000001,-0.47197265624999996c-0.00849609375,-0.02666015625,-0.15966796875,-0.49775390624999993,-0.49248046874999996,-1.1490234375c0.1623046875,0.00615234375,0.33310546874999997,0.00908203125,0.5126953125,0.00908203125c2.13046875,0,3.8390625,-0.89150390625,3.9108398437500003,-0.9292968749999999c0.15351562500000002,-0.08144531249999999,0.249609375,-0.24082031250000002,0.24931640624999998,-0.41455078125c-0.00029296875,-0.17402343750000002,-0.09638671875,-0.33369140625000004,-0.24990234374999998,-0.41455078125z" fill="#FFFFFF"/></svg>