<svg version="1.1" xmlns="http://www.w3.org/2000/svg" xlink="http://www.w3.org/1999/xlink" x="0px" y="0px" width="13.125px" height="15px" viewBox="0 0 13.125 15" style="enable-background:new 0 0 15 15;" space="preserve">
    <path d="M13.076074218749998,10.016015625l-0.31259765625,-0.9375A0.9373828125,0.9373828125,0,0,0,11.8740234375,8.4375H1.25068359375c-0.40341796874999997,0,-0.76171875,0.25810546875,-0.889453125,0.6410156249999999l-0.31259765625,0.9375C-0.15351562500000002,10.623046875,0.2982421875,11.25,0.93837890625,11.25H0.9375v3.28125c0,0.258984375,0.209765625,0.46875,0.46875,0.46875h0.9375c0.258984375,0,0.46875,-0.209765625,0.46875,-0.46875V11.25h7.5v3.28125c0,0.258984375,0.209765625,0.46875,0.46875,0.46875h0.9375c0.258984375,0,0.46875,-0.209765625,0.46875,-0.46875V11.25h-0.0008789062499999999c0.6401367187500001,0,1.09189453125,-0.626953125,0.889453125,-1.233984375zM3.28125,3.75c0,-0.863671875,0.4746093749999999,-1.61103515625,1.171875,-2.01767578125V7.5h1.40625V1.40625h1.40625v6.09375h1.40625V1.73232421875c0.697265625,0.40664062500000003,1.171875,1.15400390625,1.171875,2.01767578125v3.75h1.40625V3.75C11.25,1.6790039062500002,9.570996093749999,0,7.5,0h-1.875C3.5540039062499997,0,1.875,1.6790039062500002,1.875,3.75v3.75h1.40625V3.75z" fill="#FFFFFF"/>
    </svg>