<svg version="1.1" xmlns="http://www.w3.org/2000/svg" xlink="http://www.w3.org/1999/xlink" x="0px" y="0px" width="15px" height="15px" viewBox="0 0 15 15" style="enable-background:new 0 0 15 15;" space="preserve">
    <path d="M1.15625,1.070312L2.804688,1.070312C2.414062,1.429688,2.0625,1.84375,1.75,2.320312C1.546875,2.632812,1.382812,2.953125,1.253906,3.28125C1.128906,3.609375,1.042969,3.960938,1.003906,4.332031C0.964844,4.703125,0.941406,5.039062,0.933594,5.335938C0.925781,5.632812,0.953125,6.003906,1.019531,6.441406C1.089844,6.878906,1.148438,7.230469,1.195312,7.496094C1.246094,7.761719,1.324219,8.140625,1.429688,8.636719C1.453125,8.746094,1.46875,8.824219,1.480469,8.871094C1.765625,10.199219,1.992188,11.117188,2.160156,11.625C2.476562,12.582031,2.902344,13.347656,3.433594,13.929688L1.15625,13.929688C0.886719,13.929688,0.660156,13.832031,0.46875,13.644531C0.277344,13.453125,0.183594,13.226562,0.183594,12.957031L0.183594,2.042969C0.183594,1.773438,0.277344,1.546875,0.46875,1.355469C0.660156,1.167969,0.886719,1.070312,1.15625,1.070312ZM11.265625,1.070312L13.84375,1.070312C14.113281,1.070312,14.339844,1.167969,14.53125,1.355469C14.722656,1.546875,14.816406,1.773438,14.816406,2.042969L14.816406,12.957031C14.816406,13.226562,14.722656,13.453125,14.53125,13.644531C14.339844,13.832031,14.113281,13.929688,13.84375,13.929688L12.355469,13.929688C13.539062,12.757812,14.085938,11.179688,13.996094,9.199219L10.070312,10.042969C10.058594,10.296875,10.023438,10.523438,9.96875,10.730469C9.914062,10.9375,9.828125,11.136719,9.710938,11.332031C9.59375,11.527344,9.425781,11.695312,9.210938,11.832031C8.996094,11.96875,8.734375,12.070312,8.429688,12.136719C7.742188,12.28125,7.1875,12.171875,6.761719,11.800781C6.585938,11.652344,6.4375,11.480469,6.320312,11.292969C6.203125,11.101562,6.058594,10.742188,5.890625,10.210938C5.71875,9.683594,5.539062,8.960938,5.347656,8.050781C5.152344,7.144531,5.027344,6.410156,4.96875,5.851562C4.910156,5.292969,4.894531,4.90625,4.921875,4.6875C4.949219,4.46875,5.015625,4.253906,5.113281,4.042969C5.226562,3.8125,5.398438,3.609375,5.636719,3.433594C5.875,3.253906,6.160156,3.128906,6.496094,3.054688C6.746094,2.988281,6.980469,2.96875,7.195312,3C7.410156,3.03125,7.597656,3.078125,7.753906,3.144531C7.914062,3.207031,8.066406,3.304688,8.207031,3.4375C8.351562,3.566406,8.46875,3.699219,8.566406,3.835938C8.664062,3.972656,8.761719,4.132812,8.855469,4.3125L12.773438,3.472656C12.394531,2.496094,11.890625,1.695312,11.265625,1.070312ZM11.265625,1.070312" fill="#FFFFFF"/>
    </svg>