<svg version="1.1" xmlns="http://www.w3.org/2000/svg" xlink="http://www.w3.org/1999/xlink" x="0px" y="0px" width="15px" height="15px" viewBox="0 0 15 15" style="enable-background:new 0 0 15 15;" space="preserve"><path d="M8.513378906249999,5.625c-0.5912109375,0,-3.1294921875,0.0580078125,-4.76337890625,2.51806640625V5.625c0,-1.5509765624999998,-1.2615234375000002,-2.8125,-2.8125,-2.8125c-0.51767578125,0,-0.9375,0.41982421875,-0.9375,0.9375s0.41982421875,0.9375,0.9375,0.9375c0.516796875,0,0.9375,0.42070312499999996,0.9375,0.9375v7.5c0,1.0341796875,0.8408203125,1.875,1.875,1.875h5.15625c0.258984375,0,0.46875,-0.209765625,0.46875,-0.46875v-0.46875c0,-0.51767578125,-0.41982421875,-0.9375,-0.9375,-0.9375h-0.9375l3.75,-2.8125v4.21875c0,0.258984375,0.209765625,0.46875,0.46875,0.46875h0.9375c0.258984375,0,0.46875,-0.209765625,0.46875,-0.46875V8.491992187500001c-0.30146484375,0.07822265625,-0.61201171875,0.1330078125,-0.9375,0.1330078125c-1.8108398437500002,0,-3.32578125,-1.29052734375,-3.6741210937499997,-3zM13.125,2.8125h-1.875l-1.875,-1.875v3.9375c0,1.5533203125000001,1.2591796874999999,2.8125,2.8125,2.8125s2.8125,-1.2591796874999999,2.8125,-2.8125V0.9375l-1.875,1.875zm-2.109375,2.34375c-0.258984375,0,-0.46875,-0.209765625,-0.46875,-0.46875s0.209765625,-0.46875,0.46875,-0.46875s0.46875,0.209765625,0.46875,0.46875s-0.209765625,0.46875,-0.46875,0.46875zm2.34375,0c-0.258984375,0,-0.46875,-0.209765625,-0.46875,-0.46875s0.209765625,-0.46875,0.46875,-0.46875s0.46875,0.209765625,0.46875,0.46875s-0.209765625,0.46875,-0.46875,0.46875z" fill="#FFFFFF"/></svg>