<svg version="1.1" xmlns="http://www.w3.org/2000/svg" xlink="http://www.w3.org/1999/xlink" x="0px" y="0px" width="12px" height="15px" viewBox="0 0 12 15" style="enable-background:new 0 0 15 15;" space="preserve"><path d="M13.607226562500001,7.2269531250000005L10.3125,5.25V3.75h1.40625c0.258984375,0,0.46875,-0.209765625,0.46875,-0.46875V2.34375c0,-0.258984375,-0.209765625,-0.46875,-0.46875,-0.46875h-1.40625V0.46875c0,-0.258984375,-0.209765625,-0.46875,-0.46875,-0.46875h-0.9375c-0.258984375,0,-0.46875,0.209765625,-0.46875,0.46875v1.40625h-1.40625c-0.258984375,0,-0.46875,0.209765625,-0.46875,0.46875v0.9375c0,0.258984375,0.209765625,0.46875,0.46875,0.46875h1.40625v1.5l-3.2947265625,1.976953125A0.9374121093750001,0.9374121093750001,0,0,0,4.6875,8.030859375V15h2.8125v-2.8125c0,-1.03564453125,0.83935546875,-1.875,1.875,-1.875s1.875,0.83935546875,1.875,1.875v2.8125h2.8125V8.030859375c0,-0.32929687500000004,-0.1728515625,-0.6345703125000001,-0.45527343750000004,-0.80390625zM0,11.600390625000001V14.53125c0,0.258984375,0.209765625,0.46875,0.46875,0.46875h3.28125V9.375L0.56806640625,10.7384765625A0.9382031250000001,0.9382031250000001,0,0,0,0,11.600390625000001zm18.18193359375,-0.8619140625L15,9.375v5.625h3.28125c0.258984375,0,0.46875,-0.209765625,0.46875,-0.46875V11.600390625000001c0,-0.375,-0.22353515625,-0.71396484375,-0.56806640625,-0.8619140625z" fill="#FFFFFF"/></svg>