<svg version="1.1" xmlns="http://www.w3.org/2000/svg" xlink="http://www.w3.org/1999/xlink" x="0px" y="0px" width="15px" height="15px" viewBox="0 0 15 15" style="enable-background:new 0 0 15 15;" space="preserve"><path d="M-2.144531,12.589844L-2.144531,7.5L17.144531,7.5L17.144531,12.589844C17.144531,12.957031,17.011719,13.273438,16.75,13.535156C16.488281,13.796875,16.171875,13.929688,15.804688,13.929688L-0.804688,13.929688C-1.171875,13.929688,-1.488281,13.796875,-1.75,13.535156C-2.011719,13.273438,-2.144531,12.957031,-2.144531,12.589844ZM3.214844,10.714844L3.214844,11.785156L6.429688,11.785156L6.429688,10.714844ZM0,10.714844L0,11.785156L2.144531,11.785156L2.144531,10.714844ZM15.804688,1.070312C16.171875,1.070312,16.488281,1.203125,16.75,1.464844C17.011719,1.726562,17.144531,2.042969,17.144531,2.410156L17.144531,4.285156L-2.144531,4.285156L-2.144531,2.410156C-2.144531,2.042969,-2.011719,1.726562,-1.75,1.464844C-1.488281,1.203125,-1.171875,1.070312,-0.804688,1.070312ZM15.804688,1.070312" fill="#FFFFFF"/></svg>