<svg version="1.1" xmlns="http://www.w3.org/2000/svg" xlink="http://www.w3.org/1999/xlink" x="0px" y="0px" width="15px" height="15px" viewBox="0 0 15 15" style="enable-background:new 0 0 15 15;" space="preserve"><path d="M13.988281,4.738281C13.988281,4.960938,13.910156,5.152344,13.753906,5.308594L7.691406,11.367188L6.554688,12.503906C6.398438,12.660156,6.207031,12.738281,5.984375,12.738281C5.761719,12.738281,5.570312,12.660156,5.414062,12.503906L1.246094,8.335938C1.089844,8.179688,1.011719,7.992188,1.011719,7.769531C1.011719,7.542969,1.089844,7.355469,1.246094,7.199219L2.386719,6.058594C2.542969,5.902344,2.730469,5.824219,2.953125,5.824219C3.179688,5.824219,3.367188,5.902344,3.523438,6.058594L5.984375,8.53125L11.476562,3.03125C11.632812,2.875,11.820312,2.796875,12.046875,2.796875C12.269531,2.796875,12.457031,2.875,12.613281,3.03125L13.753906,4.167969C13.910156,4.324219,13.988281,4.515625,13.988281,4.738281ZM13.988281,4.738281" fill="#FFFFFF"/></svg>