<svg version="1.1" xmlns="http://www.w3.org/2000/svg" xlink="http://www.w3.org/1999/xlink" x="0px" y="0px" width="15px" height="15px" viewBox="0 0 15 15" style="enable-background:new 0 0 15 15;" space="preserve"><path d="M11.25,5.894531C11.25,5.746094,11.195312,5.621094,11.089844,5.515625C10.984375,5.410156,10.859375,5.355469,10.714844,5.355469C10.570312,5.355469,10.445312,5.410156,10.335938,5.515625L9.105469,6.738281L9.105469,4.285156C9.105469,4.140625,9.054688,4.015625,8.949219,3.910156C8.84375,3.804688,8.714844,3.75,8.570312,3.75C8.425781,3.75,8.300781,3.804688,8.195312,3.910156C8.089844,4.015625,8.035156,4.140625,8.035156,4.285156L8.035156,6.738281L6.804688,5.515625C6.699219,5.410156,6.574219,5.355469,6.429688,5.355469C6.285156,5.355469,6.15625,5.410156,6.050781,5.515625C5.945312,5.621094,5.894531,5.746094,5.894531,5.894531C5.894531,6.039062,5.945312,6.164062,6.050781,6.269531L8.195312,8.414062C8.300781,8.519531,8.425781,8.570312,8.570312,8.570312C8.714844,8.570312,8.84375,8.519531,8.949219,8.414062L11.089844,6.269531C11.195312,6.164062,11.25,6.039062,11.25,5.894531ZM5.894531,12.855469C5.894531,13.152344,5.789062,13.40625,5.578125,13.613281C5.371094,13.824219,5.117188,13.929688,4.820312,13.929688C4.527344,13.929688,4.273438,13.824219,4.0625,13.613281C3.855469,13.40625,3.75,13.152344,3.75,12.855469C3.75,12.5625,3.855469,12.308594,4.0625,12.101562C4.273438,11.890625,4.527344,11.785156,4.820312,11.785156C5.117188,11.785156,5.371094,11.890625,5.578125,12.101562C5.789062,12.308594,5.894531,12.5625,5.894531,12.855469ZM13.394531,12.855469C13.394531,13.152344,13.289062,13.40625,13.078125,13.613281C12.871094,13.824219,12.617188,13.929688,12.320312,13.929688C12.027344,13.929688,11.773438,13.824219,11.5625,13.613281C11.355469,13.40625,11.25,13.152344,11.25,12.855469C11.25,12.5625,11.355469,12.308594,11.5625,12.101562C11.773438,11.890625,12.027344,11.785156,12.320312,11.785156C12.617188,11.785156,12.871094,11.890625,13.078125,12.101562C13.289062,12.308594,13.394531,12.5625,13.394531,12.855469ZM14.464844,3.75L14.464844,8.035156C14.464844,8.167969,14.417969,8.289062,14.332031,8.390625C14.242188,8.496094,14.125,8.554688,13.988281,8.570312L5.25,9.59375C5.253906,9.632812,5.265625,9.691406,5.285156,9.773438C5.304688,9.851562,5.320312,9.925781,5.335938,9.996094C5.351562,10.0625,5.355469,10.121094,5.355469,10.179688C5.355469,10.269531,5.289062,10.445312,5.15625,10.714844L12.855469,10.714844C13.003906,10.714844,13.128906,10.765625,13.234375,10.875C13.339844,10.980469,13.394531,11.105469,13.394531,11.25C13.394531,11.394531,13.339844,11.519531,13.234375,11.625C13.128906,11.734375,13.003906,11.785156,12.855469,11.785156L4.285156,11.785156C4.140625,11.785156,4.015625,11.734375,3.910156,11.625C3.804688,11.519531,3.75,11.394531,3.75,11.25C3.75,11.171875,3.78125,11.0625,3.84375,10.917969C3.902344,10.777344,3.984375,10.609375,4.089844,10.421875C4.191406,10.230469,4.25,10.125,4.261719,10.101562L2.777344,3.214844L1.070312,3.214844C0.925781,3.214844,0.800781,3.160156,0.695312,3.054688C0.589844,2.949219,0.535156,2.824219,0.535156,2.679688C0.535156,2.535156,0.589844,2.40625,0.695312,2.300781C0.800781,2.195312,0.925781,2.144531,1.070312,2.144531L3.214844,2.144531C3.304688,2.144531,3.382812,2.160156,3.453125,2.195312C3.523438,2.234375,3.578125,2.277344,3.621094,2.328125C3.664062,2.378906,3.699219,2.445312,3.730469,2.53125C3.757812,2.617188,3.78125,2.691406,3.792969,2.753906C3.804688,2.816406,3.816406,2.898438,3.835938,3C3.855469,3.105469,3.871094,3.175781,3.875,3.214844L13.929688,3.214844C14.074219,3.214844,14.199219,3.265625,14.304688,3.375C14.410156,3.480469,14.464844,3.605469,14.464844,3.75ZM14.464844,3.75" fill="#FFFFFF"/></svg>