<svg version="1.1" xmlns="http://www.w3.org/2000/svg" xlink="http://www.w3.org/1999/xlink" x="0px" y="0px" width="11.25px" height="15px" viewBox="0 0 11.25 15" style="enable-background:new 0 0 15 15;" space="preserve"><path d="M2.380107421875,6.2996191406249995C2.371787109375,7.585546875,2.267900390625,10.1975390625,1.40625,13.125h8.436972656250001c-0.861328125,-2.9180859375,-0.964921875,-5.534531250000001,-0.9732714843749999,-6.825439453125l1.33060546875,-1.2396093750000001a0.35150390624999994,0.35150390624999994,0,0,0,0.1119140625,-0.2572265625V1.2890625c0,-0.194150390625,-0.157412109375,-0.3515625,-0.3515625,-0.3515625h-1.171875c-0.194150390625,0,-0.3515625,0.157412109375,-0.3515625,0.3515625v1.2890625h-1.40625V1.2890625c0,-0.194150390625,-0.157412109375,-0.3515625,-0.3515625,-0.3515625h-2.109375c-0.194150390625,0,-0.3515625,0.157412109375,-0.3515625,0.3515625v1.2890625H2.8125V1.2890625c0,-0.194150390625,-0.157412109375,-0.3515625,-0.3515625,-0.3515625H1.2890625c-0.194150390625,0,-0.3515625,0.157412109375,-0.3515625,0.3515625v3.5136328125c0,0.09755859374999999,0.040546874999999996,0.19072265624999998,0.1119140625,0.2572265625l1.3306933593749999,1.2396972656249998zM4.6875,7.5c0,-0.5177636718749999,0.41973632812500006,-0.9375,0.9375,-0.9375c0.5177636718749999,0,0.9375,0.41973632812500006,0.9375,0.9375v1.8751171875000003h-1.875V7.5zm6.5625,6.4453125v0.703125c0,0.194150390625,-0.157412109375,0.3515625,-0.3515625,0.3515625H0.3515625c-0.194150390625,0,-0.3515625,-0.157412109375,-0.3515625,-0.3515625v-0.703125c0,-0.194150390625,0.157412109375,-0.3515625,0.3515625,-0.3515625h10.546875c0.194150390625,0,0.3515625,0.157412109375,0.3515625,0.3515625z" fill="#FFFFFF"/></svg>