<svg version="1.1" xmlns="http://www.w3.org/2000/svg" xlink="http://www.w3.org/1999/xlink" x="0px" y="0px" width="15px" height="15px" viewBox="0 0 15 15" style="enable-background:new 0 0 15 15;" space="preserve">
    <path d="M12.472656,11.066406C12.472656,11.289062,12.394531,11.480469,12.238281,11.636719L11.097656,12.773438C10.941406,12.929688,10.753906,13.007812,10.53125,13.007812C10.308594,13.007812,10.117188,12.929688,9.960938,12.773438L7.5,10.3125L5.039062,12.773438C4.882812,12.929688,4.691406,13.007812,4.46875,13.007812C4.246094,13.007812,4.058594,12.929688,3.902344,12.773438L2.761719,11.636719C2.605469,11.480469,2.527344,11.289062,2.527344,11.066406C2.527344,10.84375,2.605469,10.652344,2.761719,10.496094L5.222656,8.035156L2.761719,5.574219C2.605469,5.417969,2.527344,5.230469,2.527344,5.003906C2.527344,4.78125,2.605469,4.59375,2.761719,4.4375L3.902344,3.296875C4.058594,3.140625,4.246094,3.0625,4.46875,3.0625C4.691406,3.0625,4.882812,3.140625,5.039062,3.296875L7.5,5.757812L9.960938,3.296875C10.117188,3.140625,10.308594,3.0625,10.53125,3.0625C10.753906,3.0625,10.941406,3.140625,11.097656,3.296875L12.238281,4.4375C12.394531,4.59375,12.472656,4.78125,12.472656,5.003906C12.472656,5.230469,12.394531,5.417969,12.238281,5.574219L9.777344,8.035156L12.238281,10.496094C12.394531,10.652344,12.472656,10.84375,12.472656,11.066406ZM12.472656,11.066406" fill="#FFFFFF"/>
    </svg>