<svg version="1.1" xmlns="http://www.w3.org/2000/svg" xlink="http://www.w3.org/1999/xlink" x="0px" y="0px" width="12px" height="15px" viewBox="0 0 12 15" style="enable-background:new 0 0 15 15;" space="preserve">
    <path d="M4.6875,6.5625v1.875h9.375v-1.875c0,-1.0341796875,0.8408203125,-1.875,1.875,-1.875h0.9375c0,-1.552734375,-1.259765625,-2.8125,-2.8125,-2.8125H4.6875c-1.552734375,0,-2.8125,1.259765625,-2.8125,2.8125h0.9375c1.0341796875,0,1.875,0.8408203125,1.875,1.875zm12.1875,-0.9375h-0.9375c-0.5185546875,0,-0.9375,0.4189453125,-0.9375,0.9375v2.8125H3.75v-2.8125c0,-0.5185546875,-0.4189453125,-0.9375,-0.9375,-0.9375H1.875c-1.0341796875,0,-1.875,0.8408203125,-1.875,1.875c0,0.69140625,0.380859375,1.2890625,0.9375,1.6142578125V12.65625c0,0.2578125,0.2109375,0.46875,0.46875,0.46875h1.875c0.2578125,0,0.46875,-0.2109375,0.46875,-0.46875v-0.46875h11.25v0.46875c0,0.2578125,0.2109375,0.46875,0.46875,0.46875h1.875c0.2578125,0,0.46875,-0.2109375,0.46875,-0.46875V9.1142578125c0.556640625,-0.3251953125,0.9375,-0.9228515625,0.9375,-1.6142578125c0,-1.0341796875,-0.8408203125,-1.875,-1.875,-1.875z" fill="#FFFFFF"/>
    </svg>