<svg version="1.1" xmlns="http://www.w3.org/2000/svg" xlink="http://www.w3.org/1999/xlink" x="0px" y="0px" width="15px" height="15px" viewBox="0 0 15 15" style="enable-background:new 0 0 15 15;" space="preserve">
    <path d="M3.214844,13.660156L6.429688,12.054688L6.429688,9.425781L3.214844,10.796875ZM2.679688,9.859375L6.058594,8.414062L2.679688,6.964844L-0.703125,8.414062ZM11.785156,13.660156L15,12.054688L15,9.425781L11.785156,10.796875ZM11.25,9.859375L14.632812,8.414062L11.25,6.964844L7.867188,8.414062ZM7.5,7.40625L10.714844,6.027344L10.714844,3.800781L7.5,5.171875ZM6.964844,4.234375L10.65625,2.652344L6.964844,1.070312L3.273438,2.652344ZM16.070312,8.570312L16.070312,12.054688C16.070312,12.253906,16.019531,12.441406,15.914062,12.613281C15.804688,12.789062,15.660156,12.917969,15.476562,13.007812L11.726562,14.882812C11.585938,14.960938,11.429688,15,11.25,15C11.070312,15,10.914062,14.960938,10.773438,14.882812L7.023438,13.007812C6.996094,12.996094,6.976562,12.984375,6.964844,12.972656C6.953125,12.984375,6.933594,12.996094,6.90625,13.007812L3.15625,14.882812C3.015625,14.960938,2.855469,15,2.679688,15C2.5,15,2.339844,14.960938,2.203125,14.882812L-1.546875,13.007812C-1.734375,12.917969,-1.878906,12.789062,-1.984375,12.613281C-2.089844,12.441406,-2.144531,12.253906,-2.144531,12.054688L-2.144531,8.570312C-2.144531,8.359375,-2.082031,8.164062,-1.960938,7.984375C-1.84375,7.808594,-1.683594,7.671875,-1.488281,7.582031L2.144531,6.027344L2.144531,2.679688C2.144531,2.464844,2.203125,2.269531,2.324219,2.09375C2.441406,1.914062,2.601562,1.78125,2.796875,1.691406L6.546875,0.0820312C6.675781,0.0273438,6.8125,0,6.964844,0C7.113281,0,7.253906,0.0273438,7.382812,0.0820312L11.132812,1.691406C11.328125,1.78125,11.484375,1.914062,11.605469,2.09375C11.726562,2.269531,11.785156,2.464844,11.785156,2.679688L11.785156,6.027344L15.417969,7.582031C15.621094,7.671875,15.777344,7.808594,15.894531,7.984375C16.011719,8.164062,16.070312,8.359375,16.070312,8.570312ZM16.070312,8.570312" fill="#FFFFFF"/>
    </svg>