<svg version="1.1" xmlns="http://www.w3.org/2000/svg" xlink="http://www.w3.org/1999/xlink" x="0px" y="0px" width="15px" height="15px" viewBox="0 0 15 15" style="enable-background:new 0 0 15 15;" space="preserve"><path d="M15.535156,9.644531C15.535156,10.53125,15.222656,11.289062,14.59375,11.914062C13.964844,12.542969,13.207031,12.855469,12.320312,12.855469L3.214844,12.855469C2.183594,12.855469,1.296875,12.488281,0.566406,11.757812C-0.167969,11.023438,-0.535156,10.140625,-0.535156,9.105469C-0.535156,8.371094,-0.335938,7.695312,0.0585938,7.085938C0.453125,6.476562,0.976562,6.019531,1.625,5.71875C1.613281,5.5625,1.605469,5.441406,1.605469,5.355469C1.605469,4.175781,2.027344,3.164062,2.863281,2.328125C3.699219,1.488281,4.710938,1.070312,5.894531,1.070312C6.773438,1.070312,7.574219,1.316406,8.289062,1.808594C9.007812,2.300781,9.53125,2.941406,9.859375,3.734375C10.25,3.386719,10.714844,3.214844,11.25,3.214844C11.839844,3.214844,12.347656,3.421875,12.765625,3.84375C13.183594,4.261719,13.394531,4.765625,13.394531,5.355469C13.394531,5.777344,13.277344,6.160156,13.050781,6.511719C13.769531,6.679688,14.363281,7.054688,14.832031,7.636719C15.300781,8.222656,15.535156,8.890625,15.535156,9.644531ZM15.535156,9.644531" fill="#FFFFFF"/></svg>