<svg version="1.1" xmlns="http://www.w3.org/2000/svg" xlink="http://www.w3.org/1999/xlink" x="0px" y="0px" width="15px" height="15px" viewBox="0 0 15 15" style="enable-background:new 0 0 15 15;" space="preserve"><path d="M11.089844,8.570312L10.179688,8.570312C10.035156,8.570312,9.90625,8.519531,9.800781,8.414062C9.695312,8.304688,9.644531,8.179688,9.644531,8.035156L9.644531,6.964844C9.644531,6.820312,9.695312,6.695312,9.800781,6.585938C9.90625,6.480469,10.035156,6.429688,10.179688,6.429688L11.089844,6.429688C10.914062,5.824219,10.597656,5.300781,10.148438,4.851562C9.699219,4.402344,9.175781,4.085938,8.570312,3.910156L8.570312,4.820312C8.570312,4.964844,8.519531,5.09375,8.414062,5.199219C8.304688,5.304688,8.179688,5.355469,8.035156,5.355469L6.964844,5.355469C6.820312,5.355469,6.695312,5.304688,6.585938,5.199219C6.480469,5.09375,6.429688,4.964844,6.429688,4.820312L6.429688,3.910156C5.824219,4.085938,5.300781,4.402344,4.851562,4.851562C4.402344,5.300781,4.085938,5.824219,3.910156,6.429688L4.820312,6.429688C4.964844,6.429688,5.09375,6.480469,5.199219,6.585938C5.304688,6.695312,5.355469,6.820312,5.355469,6.964844L5.355469,8.035156C5.355469,8.179688,5.304688,8.304688,5.199219,8.414062C5.09375,8.519531,4.964844,8.570312,4.820312,8.570312L3.910156,8.570312C4.085938,9.175781,4.402344,9.699219,4.851562,10.148438C5.300781,10.597656,5.824219,10.914062,6.429688,11.089844L6.429688,10.179688C6.429688,10.035156,6.480469,9.90625,6.585938,9.800781C6.695312,9.695312,6.820312,9.644531,6.964844,9.644531L8.035156,9.644531C8.179688,9.644531,8.304688,9.695312,8.414062,9.800781C8.519531,9.90625,8.570312,10.035156,8.570312,10.179688L8.570312,11.089844C9.175781,10.914062,9.699219,10.597656,10.148438,10.148438C10.597656,9.699219,10.914062,9.175781,11.089844,8.570312ZM13.929688,6.964844L13.929688,8.035156C13.929688,8.179688,13.875,8.304688,13.769531,8.414062C13.664062,8.519531,13.539062,8.570312,13.394531,8.570312L12.195312,8.570312C11.988281,9.46875,11.558594,10.246094,10.902344,10.902344C10.246094,11.558594,9.46875,11.988281,8.570312,12.195312L8.570312,13.394531C8.570312,13.539062,8.519531,13.664062,8.414062,13.769531C8.304688,13.875,8.179688,13.929688,8.035156,13.929688L6.964844,13.929688C6.820312,13.929688,6.695312,13.875,6.585938,13.769531C6.480469,13.664062,6.429688,13.539062,6.429688,13.394531L6.429688,12.195312C5.53125,11.988281,4.753906,11.558594,4.097656,10.902344C3.441406,10.246094,3.011719,9.46875,2.804688,8.570312L1.605469,8.570312C1.460938,8.570312,1.335938,8.519531,1.230469,8.414062C1.125,8.304688,1.070312,8.179688,1.070312,8.035156L1.070312,6.964844C1.070312,6.820312,1.125,6.695312,1.230469,6.585938C1.335938,6.480469,1.460938,6.429688,1.605469,6.429688L2.804688,6.429688C3.011719,5.53125,3.441406,4.753906,4.097656,4.097656C4.753906,3.441406,5.53125,3.011719,6.429688,2.804688L6.429688,1.605469C6.429688,1.460938,6.480469,1.335938,6.585938,1.230469C6.695312,1.125,6.820312,1.070312,6.964844,1.070312L8.035156,1.070312C8.179688,1.070312,8.304688,1.125,8.414062,1.230469C8.519531,1.335938,8.570312,1.460938,8.570312,1.605469L8.570312,2.804688C9.46875,3.011719,10.246094,3.441406,10.902344,4.097656C11.558594,4.753906,11.988281,5.53125,12.195312,6.429688L13.394531,6.429688C13.539062,6.429688,13.664062,6.480469,13.769531,6.585938C13.875,6.695312,13.929688,6.820312,13.929688,6.964844ZM13.929688,6.964844" fill="#FFFFFF"/></svg>