<svg version="1.1" xmlns="http://www.w3.org/2000/svg" xlink="http://www.w3.org/1999/xlink" x="0px" y="0px" width="12px" height="15px" viewBox="0 0 12 15" style="enable-background:new 0 0 15 15;" space="preserve">
    <path d="M18.046875,5.625H14.0625V0.703125c0,-0.3884765625,-0.31464843750000004,-0.703125,-0.703125,-0.703125H9.140625c-0.3884765625,0,-0.703125,0.31464843750000004,-0.703125,0.703125v2.109375h-1.875V0.46875c0,-0.258984375,-0.209765625,-0.46875,-0.46875,-0.46875h-0.46875c-0.258984375,0,-0.46875,0.209765625,-0.46875,0.46875v2.34375h-1.875V0.46875c0,-0.258984375,-0.209765625,-0.46875,-0.46875,-0.46875H2.34375c-0.258984375,0,-0.46875,0.209765625,-0.46875,0.46875v2.34375H0.703125c-0.3884765625,0,-0.703125,0.31464843750000004,-0.703125,0.703125v10.546875c0,0.51767578125,0.41982421875000003,0.9375,0.9375,0.9375h16.875c0.51767578125,0,0.9375,-0.41982421875000003,0.9375,-0.9375V6.328125c0,-0.3884765625,-0.31494140625,-0.703125,-0.703125,-0.703125zM3.75,11.8359375c0,0.19423828125,-0.15732421875000002,0.3515625,-0.3515625,0.3515625H2.2265625c-0.19423828125,0,-0.3515625,-0.15732421875000002,-0.3515625,-0.3515625v-1.171875c0,-0.19423828125,0.15732421875000002,-0.3515625,0.3515625,-0.3515625h1.171875c0.19423828125,0,0.3515625,0.15732421875000002,0.3515625,0.3515625v1.171875zm0,-2.8125c0,0.19423828125,-0.15732421875000002,0.3515625,-0.3515625,0.3515625H2.2265625c-0.19423828125,0,-0.3515625,-0.15732421875000002,-0.3515625,-0.3515625v-1.171875c0,-0.19423828125,0.15732421875000002,-0.3515625,0.3515625,-0.3515625h1.171875c0.19423828125,0,0.3515625,0.15732421875000002,0.3515625,0.3515625v1.171875zm0,-2.8125c0,0.19423828125,-0.15732421875000002,0.3515625,-0.3515625,0.3515625H2.2265625c-0.19423828125,0,-0.3515625,-0.15732421875000002,-0.3515625,-0.3515625v-1.171875c0,-0.19423828125,0.15732421875000002,-0.3515625,0.3515625,-0.3515625h1.171875c0.19423828125,0,0.3515625,0.15732421875000002,0.3515625,0.3515625v1.171875zm3.75,5.625c0,0.19423828125,-0.15732421875000002,0.3515625,-0.3515625,0.3515625h-1.171875c-0.19423828125,0,-0.3515625,-0.15732421875000002,-0.3515625,-0.3515625v-1.171875c0,-0.19423828125,0.15732421875000002,-0.3515625,0.3515625,-0.3515625h1.171875c0.19423828125,0,0.3515625,0.15732421875000002,0.3515625,0.3515625v1.171875zm0,-2.8125c0,0.19423828125,-0.15732421875000002,0.3515625,-0.3515625,0.3515625h-1.171875c-0.19423828125,0,-0.3515625,-0.15732421875000002,-0.3515625,-0.3515625v-1.171875c0,-0.19423828125,0.15732421875000002,-0.3515625,0.3515625,-0.3515625h1.171875c0.19423828125,0,0.3515625,0.15732421875000002,0.3515625,0.3515625v1.171875zm0,-2.8125c0,0.19423828125,-0.15732421875000002,0.3515625,-0.3515625,0.3515625h-1.171875c-0.19423828125,0,-0.3515625,-0.15732421875000002,-0.3515625,-0.3515625v-1.171875c0,-0.19423828125,0.15732421875000002,-0.3515625,0.3515625,-0.3515625h1.171875c0.19423828125,0,0.3515625,0.15732421875000002,0.3515625,0.3515625v1.171875zm4.6875,2.8125c0,0.19423828125,-0.15732421875000002,0.3515625,-0.3515625,0.3515625h-1.171875c-0.19423828125,0,-0.3515625,-0.15732421875000002,-0.3515625,-0.3515625v-1.171875c0,-0.19423828125,0.15732421875000002,-0.3515625,0.3515625,-0.3515625h1.171875c0.19423828125,0,0.3515625,0.15732421875000002,0.3515625,0.3515625v1.171875zm0,-2.8125c0,0.19423828125,-0.15732421875000002,0.3515625,-0.3515625,0.3515625h-1.171875c-0.19423828125,0,-0.3515625,-0.15732421875000002,-0.3515625,-0.3515625v-1.171875c0,-0.19423828125,0.15732421875000002,-0.3515625,0.3515625,-0.3515625h1.171875c0.19423828125,0,0.3515625,0.15732421875000002,0.3515625,0.3515625v1.171875zm0,-2.8125c0,0.19423828125,-0.15732421875000002,0.3515625,-0.3515625,0.3515625h-1.171875c-0.19423828125,0,-0.3515625,-0.15732421875000002,-0.3515625,-0.3515625V2.2265625c0,-0.19423828125,0.15732421875000002,-0.3515625,0.3515625,-0.3515625h1.171875c0.19423828125,0,0.3515625,0.15732421875000002,0.3515625,0.3515625v1.171875zm4.6875,8.4375c0,0.19423828125,-0.15732421875000002,0.3515625,-0.3515625,0.3515625h-1.171875c-0.19423828125,0,-0.3515625,-0.15732421875000002,-0.3515625,-0.3515625v-1.171875c0,-0.19423828125,0.15732421875000002,-0.3515625,0.3515625,-0.3515625h1.171875c0.19423828125,0,0.3515625,0.15732421875000002,0.3515625,0.3515625v1.171875zm0,-2.8125c0,0.19423828125,-0.15732421875000002,0.3515625,-0.3515625,0.3515625h-1.171875c-0.19423828125,0,-0.3515625,-0.15732421875000002,-0.3515625,-0.3515625v-1.171875c0,-0.19423828125,0.15732421875000002,-0.3515625,0.3515625,-0.3515625h1.171875c0.19423828125,0,0.3515625,0.15732421875000002,0.3515625,0.3515625v1.171875z" fill="#FFFFFF"/>
    </svg>