<svg version="1.1" xmlns="http://www.w3.org/2000/svg" xlink="http://www.w3.org/1999/xlink" x="0px" y="0px" width="18.75px" height="15px" viewBox="0 0 18.75 15" style="enable-background:new 0 0 15 15;" space="preserve">
    <path d="M0.53671875,7.4935546875L5.625,6.561328125l-2.67421875,2.01240234375c-0.2953125,0.2953125,-0.0861328125,0.80009765625,0.33134765625,0.80009765625h6.5244140625c-0.2765625,-0.7734375,-0.43154296875000003,-1.59580078125,-0.43154296875000003,-2.4427734374999996v-1.2383789062500001l-3.50771484375,-2.56640625c-0.6978515625,-0.46523437500000003,-1.61982421875,-0.41044921875,-2.2576171875,0.13447265625L0.17021484374999998,6.669140625c-0.36269531250000003,0.30263671875,-0.10107421875,0.8912109375,0.36650390625,0.8244140625zm16.31455078125,0.9990234375l-2.9490234374999997,-1.4739257812500002A1.406015625,1.406015625,0,0,1,13.125,5.76123046875v-1.0749023437499998h1.875l0.82294921875,0.66298828125c0.17578125,0.17578125,0.41425781250000004,0.27451171874999997,0.66298828125,0.27451171874999997h0.9073242187499999a0.9375,0.9375,0,0,0,0.8384765625,-0.51826171875l0.41923828125,-0.8384765625a0.9376464843750001,0.9376464843750001,0,0,0,-0.0884765625,-0.98173828125l-2.18349609375,-2.9115234374999996C16.2017578125,0.1376953125,15.924023437499999,0,15.62900390625,0H8.672460937499999c-0.20888671875,0,-0.3134765625,0.25107421875,-0.1658203125,0.39873046874999996L10.3125,1.873828125L8.5669921875,2.6015625c-0.1728515625,0.08642578125,-0.1728515625,0.33281249999999996,0,0.41923828125L10.3125,3.7488281249999997v3.1822265625000004c0,2.11171875,1.05556640625,4.08369140625,2.8125,5.2552734375c-5.73017578125,0.19951171874999998,-10.09453125,1.20146484375,-12.7177734375,1.78447265625C0.1693359375,14.02353515625,0,14.234765625,0,14.478515625C0,14.765625,0.23291015625,15,0.5203125000000001,15h14.621484375c1.85419921875,0.00029296875,3.50419921875,-1.3933593750000002,3.60322265625,-3.244921875c0.073828125,-1.38515625,-0.66591796875,-2.6484375,-1.89375,-3.2625zM14.3314453125,1.94091796875l1.33740234375,0.33427734375c-0.08056640625,0.31962890625,-0.36533203125,0.55341796875,-0.70693359375,0.5349609375000001c-0.3796875,-0.020800781249999997,-0.75732421875,-0.36708984375,-0.63046875,-0.86923828125z" fill="#FFFFFF"/>
    </svg>