<svg version="1.1" xmlns="http://www.w3.org/2000/svg" xlink="http://www.w3.org/1999/xlink" x="0px" y="0px" width="14.0625px" height="15px" viewBox="0 0 14.0625 15" style="enable-background:new 0 0 15 15;" space="preserve"><path d="M6.0322265625,15l0.9111328125,-1.125c0.3603515625,-0.005859375,0.75,-0.041015625,1.0693359375,-0.193359375c1.1396484375,-0.544921875,1.125,-1.8134765625,1.1220703125,-1.869140625c-0.0029296875,-0.146484375,-0.0234375,-0.12890625,-0.8466796875,-1.095703125H10.60546875c-0.005859375,1.4677734375,-0.2138671875,2.0068359375,-0.298828125,2.2177734375c-0.275390625,0.6943359375,-1.2861328125,1.83984375,-2.7890625,2.033203125c-0.2548828125,0.0322265625,-0.9609374999999999,0.03515625,-1.4853515625,0.0322265625zm5.87109375,-4.9130859375c1.130859375,0,1.7138671875,-0.3984375,2.1591796875,-0.9052734375l-5.1416015625,-0.0087890625l-0.509765625,0.9169921875l3.4921875,-0.0029296875zm-1.27734375,-6.5595703125v4.9306640625h-2.1533203125l-0.9580078125000001,1.6259765625H7.32421875c-1.5322265625,0,-1.7021484375,-1.6552734375,-1.7080078125,-1.7255859375c-0.03515625,-0.38671875,-0.6240234375,-0.33984375,-0.5888671875,0.052734375c0.041015625,0.462890625,0.2578125,1.171875,0.7734375,1.6728515625h-2.666015625c-0.7470703125,0,-3.24609375,-0.78515625,-3.134765625,-3.33984375V0.49511718749999994C0,0.0263671875,0.2841796875,0.0087890625,0.439453125,0.0029296875h2.40234375c0.005859375,0,0.0087890625,0.0029296875,0.0146484375,0.0029296875c0.1259765625,-0.01171875,1.4677734375,-0.0615234375,1.4677734375,1.2802734375c0,0.3896484375,0.591796875,0.392578125,0.591796875,0c0,-0.533203125,-0.1611328125,-0.9609374999999999,-0.462890625,-1.2802734375h2.466796875c3.1845703125,-0.01171875,3.7060546875,2.326171875,3.7060546875,3.521484375zm-3.8818359375,1.640625l1.875,0.8583984375c0.3896484375,-1.3330078125,-1.236328125,-2.1005859375,-1.875,-0.8583984375z" fill="#FFFFFF"/></svg>