<svg version="1.1" xmlns="http://www.w3.org/2000/svg" xlink="http://www.w3.org/1999/xlink" x="0px" y="0px" width="15px" height="15px" viewBox="0 0 15 15" style="enable-background:new 0 0 15 15;" space="preserve"><path d="M13.38896484375,10.0904296875c-0.73388671875,0.59560546875,-1.54189453125,1.0892578125,-2.4181640625000003,1.43701171875l1.5931640625,2.75947265625l1.58056640625,0.6749999999999999c0.28740234375,0.12275390625000002,0.61201171875,-0.06474609375,0.64951171875,-0.375l0.2056640625,-1.70654296875l-1.6107421874999999,-2.78994140625zm1.24482421875,-2.7703125c0.1423828125,-0.22470703125,0.055371093749999996,-0.5270507812499999,-0.17724609375,-0.65595703125l-0.82236328125,-0.45615234375c-0.219140625,-0.12158203125000001,-0.48662109374999996,-0.0427734375,-0.6228515625000001,0.167578125C11.80693359375,8.23681640625,9.73388671875,9.375,7.5,9.375c-0.70107421875,0,-1.3836914062499999,-0.12451171875,-2.0334960937499997,-0.33779296875l1.9734375,-3.418359375c0.0205078125,0.0005859375,0.0392578125,0.00615234375,0.059765625,0.00615234375s0.03955078125,-0.00556640625,0.059765625,-0.00615234375l1.49677734375,2.5927734375c0.91494140625,-0.2625,1.7449218750000002,-0.75439453125,2.42021484375,-1.4332031250000001l-1.51728515625,-2.6282226562499997C10.177441406249999,3.75087890625,10.3125,3.2997070312499996,10.3125,2.8125c0,-1.5533203125000001,-1.2591796874999999,-2.8125,-2.8125,-2.8125s-2.8125,1.2591796874999999,-2.8125,2.8125c0,0.48720703125,0.13505859375,0.9383789062500001,0.35302734375,1.3376953125l-2.0009765625,3.46611328125c-0.36767578125,-0.34013671874999996,-0.7019531250000001,-0.72041015625,-0.98671875,-1.142578125c-0.14033203125,-0.2080078125,-0.40927734375,-0.28183593749999997,-0.6263671875,-0.15615234375l-0.81298828125,0.47080078125c-0.22998046875,0.1330078125,-0.31142578125000003,0.4365234375,-0.165234375,0.6583007812499999c0.45615234375,0.692578125,1.0163085937499998,1.29521484375,1.6400390624999999,1.8169921875000001L0,12.880664062500001l0.2056640625,1.70654296875c0.0375,0.31025390625,0.36210937499999996,0.49775390624999993,0.64951171875,0.375l1.58056640625,-0.6749999999999999l2.07421875,-3.5926757812499996C5.45302734375,11.053125,6.4634765625,11.25,7.5,11.25c2.90185546875,0,5.5921875,-1.49443359375,7.1337890625,-3.9298828125zM7.5,1.875c0.51767578125,0,0.9375,0.41982421875,0.9375,0.9375s-0.41982421875,0.9375,-0.9375,0.9375s-0.9375,-0.41982421875,-0.9375,-0.9375s0.41982421875,-0.9375,0.9375,-0.9375z" fill="#FFFFFF"/></svg>