<svg version="1.1" xmlns="http://www.w3.org/2000/svg" xlink="http://www.w3.org/1999/xlink" x="0px" y="0px" width="15px" height="15px" viewBox="0 0 15 15" style="enable-background:new 0 0 15 15;" space="preserve">
    <path d="m13.828124,6.0858051h-2.741695c0.293011,0.6832305,0.1644,1.5054621,-0.392529,2.0623907L7.5476695,11.294427v1.071833c0,0.612114,0.496202,1.108316,1.108316,1.108316h5.1721385c0.612114,0,1.108316,-0.496202,1.108316,-1.108316V7.1941208c0,-0.6121135,-0.496202,-1.1083157,-1.108316,-1.1083157zm-2.586069,4.2485429c-0.305941,0,-0.554158,-0.248216,-0.554158,-0.5541573c0,-0.3061724,0.248217,-0.5541577,0.554158,-0.5541577c0.305941,0,0.554157,0.2479853,0.554157,0.5541577c0,0.3059413,-0.248216,0.5541573,-0.554157,0.5541573zM10.171376,6.0234623L6.132258,1.9843444c-0.4424027,-0.4424026,-1.1598062,-0.4424026,-1.6022088,0L0.49070032,6.0234623c-0.44240268,0.4424027,-0.44240268,1.1598063,0,1.6022089L4.5298182,11.66502c0.4424027,0.442403,1.1598062,0.442403,1.6022089,0L10.171376,7.6259021c0.442402,-0.4426335,0.442402,-1.1600371,0,-1.6024398zM2.3755297,7.3788401c-0.3059414,0,-0.5541579,-0.2482165,-0.5541579,-0.5541579c0,-0.3061722,0.2482165,-0.5541579,0.5541579,-0.5541579c0.3059413,0,0.5541578,0.2479857,0.5541578,0.5541579c0,0.3059414,-0.2482165,0.5541579,-0.5541578,0.5541579zm2.9555084,2.9555079c-0.3059413,0,-0.5541578,-0.248216,-0.5541578,-0.5541573c0,-0.3061724,0.2482165,-0.5541577,0.5541578,-0.5541577c0.3059413,0,0.5541579,0.2479853,0.5541579,0.5541577c0,0.3059413,-0.2482166,0.5541573,-0.5541579,0.5541573zm0,-2.9555079c-0.3059413,0,-0.5541578,-0.2482165,-0.5541578,-0.5541579c0,-0.3061722,0.2482165,-0.5541579,0.5541578,-0.5541579c0.3059413,0,0.5541579,0.2479857,0.5541579,0.5541579c0,0.3059414,-0.2482166,0.5541579,-0.5541579,0.5541579zm0,-2.9555086c-0.3059413,0,-0.5541578,-0.2482164,-0.5541578,-0.5541577c0,-0.3061722,0.2482165,-0.5541578,0.5541578,-0.5541578c0.3059413,0,0.5541579,0.2479856,0.5541579,0.5541578c0,0.3059413,-0.2482166,0.5541577,-0.5541579,0.5541577zm2.9555085,2.9555086c-0.305941,0,-0.5541577,-0.2482165,-0.5541577,-0.5541579c0,-0.3061722,0.2482167,-0.5541579,0.5541577,-0.5541579c0.305941,0,0.5541577,0.2479857,0.5541577,0.5541579c0,0.3059414,-0.2482167,0.5541579,-0.5541577,0.5541579z" fill="#FFFFFF"/>
    </svg>