<svg version="1.1" xmlns="http://www.w3.org/2000/svg" xlink="http://www.w3.org/1999/xlink" x="0px" y="0px" width="15px" height="15px" viewBox="0 0 15 15" style="enable-background:new 0 0 15 15;" space="preserve"><path d="M6.328125,7.6171875c0,0.453046875,-0.367265625,0.8203125,-0.8203125,0.8203125s-0.8203125,-0.367265625,-0.8203125,-0.8203125c0,-1.2923437500000001,1.0514062499999999,-2.34375,2.34375,-2.34375s2.34375,1.0514062499999999,2.34375,2.34375c0,0.453046875,-0.367265625,0.8203125,-0.8203125,0.8203125s-0.8203125,-0.367265625,-0.8203125,-0.8203125c0,-0.38771484375,-0.315439453125,-0.703125,-0.703125,-0.703125s-0.703125,0.31541015625,-0.703125,0.703125zm0.703125,-5.15625c-2.843173828125,0,-5.15625,2.313076171875,-5.15625,5.15625c0,0.453046875,0.367265625,0.8203125,0.8203125,0.8203125s0.8203125,-0.367265625,0.8203125,-0.8203125c0,-1.9385156250000002,1.577109375,-3.515625,3.515625,-3.515625s3.515625,1.577109375,3.515625,3.515625c0,2.2020703125,-2.080341796875,2.0598925781250004,-2.109287109375,4.207675781250001L8.4375,11.8359375c0,0.8400292968749999,-0.6834082031250001,1.5234375,-1.5234375,1.5234375c-0.453046875,0,-0.8203125,0.367265625,-0.8203125,0.8203125s0.367265625,0.8203125,0.8203125,0.8203125c1.742431640625,0,3.1604296875,-1.4158593750000001,3.1640625,-3.1574414062500002c0.017431640624999998,-1.0086328125,2.109375,-1.41328125,2.109375,-4.22537109375c0,-2.843173828125,-2.313076171875,-5.15625,-5.15625,-5.15625zm7.865771484375,-1.529326171875L14.068359375,0.102978515625c-0.137314453125,-0.13728515624999998,-0.35988281250000004,-0.13728515624999998,-0.497197265625,0L11.021484375,2.6526562499999997c-0.13728515624999998,0.13728515624999998,-0.13728515624999998,0.35988281250000004,0,0.497197265625l0.828662109375,0.828662109375c0.13728515624999998,0.13728515624999998,0.35988281250000004,0.13728515624999998,0.49716796874999997,0l2.54970703125,-2.549677734375c0.137314453125,-0.13734375,0.137314453125,-0.35994140625,0,-0.4972265625zM4.95029296875,9.221044921875c-0.13728515624999998,-0.13728515624999998,-0.35988281250000004,-0.13728515624999998,-0.49716796874999997,0L0.102978515625,13.571191406250001c-0.13728515624999998,0.13728515624999998,-0.13728515624999998,0.35988281250000004,0,0.497197265625L0.931640625,14.897021484375001c0.137314453125,0.13728515624999998,0.35988281250000004,0.13728515624999998,0.497197265625,0L5.778984375,10.546875c0.13728515624999998,-0.13728515624999998,0.13728515624999998,-0.35988281250000004,0,-0.497197265625l-0.82869140625,-0.8286328125z" fill="#FFFFFF"/></svg>