<svg version="1.1" xmlns="http://www.w3.org/2000/svg" xlink="http://www.w3.org/1999/xlink" x="0px" y="0px" width="15px" height="16px" viewBox="0 0 15 16" style="enable-background:new 0 0 15 15;" space="preserve">
    <path d="M6.434375,16l0.971875,-1.2c0.384375,-0.00625,0.8,-0.04375,1.140625,-0.20625c1.215625,-0.58125,1.2,-1.934375,1.196875,-1.99375c-0.003125,-0.15625,-0.025,-0.1375,-0.903125,-1.16875H11.3125c-0.00625,1.565625,-0.228125,2.140625,-0.31875,2.365625c-0.29375,0.740625,-1.371875,1.9625,-2.975,2.16875c-0.271875,0.034375,-1.025,0.0375,-1.584375,0.034375zm6.2625,-5.240625c1.20625,0,1.828125,-0.425,2.303125,-0.965625l-5.484375,-0.009375l-0.54375,0.978125l3.725,-0.003125zm-1.3625,-6.996875v5.259375h-2.296875l-1.021875,1.734375H7.8125c-1.634375,0,-1.815625,-1.765625,-1.821875,-1.840625c-0.0375,-0.4125,-0.665625,-0.3625,-0.628125,0.05625c0.04375,0.49375,0.275,1.25,0.825,1.784375h-2.84375c-0.796875,0,-3.4625,-0.8375,-3.34375,-3.5625V0.528125C0,0.028125,0.303125,0.009375,0.46875,0.003125h2.5625c0.00625,0,0.009375,0.003125,0.015625,0.003125c0.134375,-0.0125,1.565625,-0.065625,1.565625,1.365625c0,0.415625,0.63125,0.41875,0.63125,0c0,-0.56875,-0.171875,-1.025,-0.49375,-1.365625h2.63125c3.396875,-0.0125,3.953125,2.48125,3.953125,3.75625zm-4.140625,1.75l2,0.915625c0.415625,-1.421875,-1.31875,-2.240625,-2,-0.915625z" fill="#FFFFFF"/>
    </svg>