<svg version="1.1" xmlns="http://www.w3.org/2000/svg" xlink="http://www.w3.org/1999/xlink" x="0px" y="0px" width="15px" height="15px" viewBox="0 0 15 15" style="enable-background:new 0 0 15 15;" space="preserve">
    <path d="M0.703125,6.429688L5.917969,11.996094L3.40625,6.429688ZM7.5,12.890625L10.421875,6.429688L4.578125,6.429688ZM3.433594,5.355469L5.140625,2.144531L2.945312,2.144531L0.535156,5.355469ZM9.082031,11.996094L14.296875,6.429688L11.59375,6.429688ZM4.644531,5.355469L10.355469,5.355469L8.648438,2.144531L6.351562,2.144531ZM11.566406,5.355469L14.464844,5.355469L12.054688,2.144531L9.859375,2.144531ZM12.75,1.289062L15.960938,5.574219C16.039062,5.675781,16.078125,5.789062,16.070312,5.921875C16.066406,6.054688,16.019531,6.167969,15.929688,6.261719L7.894531,14.832031C7.792969,14.945312,7.660156,15,7.5,15C7.339844,15,7.207031,14.945312,7.105469,14.832031L-0.929688,6.261719C-1.019531,6.167969,-1.066406,6.054688,-1.070312,5.921875C-1.078125,5.789062,-1.039062,5.675781,-0.960938,5.574219L2.25,1.289062C2.351562,1.144531,2.496094,1.070312,2.679688,1.070312L12.320312,1.070312C12.503906,1.070312,12.648438,1.144531,12.75,1.289062ZM12.75,1.289062" fill="#FFFFFF"/>
    </svg>