<svg version="1.1" xmlns="http://www.w3.org/2000/svg" xlink="http://www.w3.org/1999/xlink" x="0px" y="0px" width="15px" height="12px" viewBox="0 0 15 12" style="enable-background:new 0 0 15 15;" space="preserve"><path d="M0.42937500000000006,5.99484375L4.5,5.249062500000001l-2.1393750000000002,1.609921875c-0.23625,0.23625,-0.06890625,0.640078125,0.265078125,0.640078125h5.21953125c-0.22125,-0.61875,-0.34523437500000004,-1.276640625,-0.34523437500000004,-1.95421875v-0.9907031250000001l-2.8061718750000004,-2.053125c-0.5582812500000001,-0.37218750000000006,-1.295859375,-0.328359375,-1.8060937500000003,0.107578125L0.136171875,5.335312500000001c-0.29015625000000006,0.242109375,-0.08085937500000001,0.71296875,0.293203125,0.6595312500000001zm13.051640625,0.7992187500000001l-2.3592187499999997,-1.1791406250000003A1.1248125,1.1248125,0,0,1,10.5,4.608984375v-0.859921875h1.5l0.6583593750000001,0.530390625c0.140625,0.140625,0.33140625000000007,0.219609375,0.530390625,0.219609375h0.725859375a0.75,0.75,0,0,0,0.6707812500000001,-0.41460937500000006l0.33539062500000005,-0.6707812500000001a0.7501171875000001,0.7501171875000001,0,0,0,-0.07078125,-0.785390625l-1.7467968750000002,-2.32921875C12.96140625,0.11015625000000001,12.73921875,0,12.503203125,0H6.93796875c-0.167109375,0,-0.25078125,0.20085937500000003,-0.13265625,0.318984375L8.25,1.4990625L6.853593750000001,2.0812500000000003c-0.13828125,0.069140625,-0.13828125,0.26625,0,0.33539062500000005L8.25,2.9990625v2.5457812500000006c0,1.689375,0.8444531250000001,3.266953125,2.25,4.20421875c-4.584140625,0.159609375,-8.075625,0.961171875,-10.174218750000001,1.4275781250000001C0.13546875,11.218828125000002,0,11.3878125,0,11.582812500000001C0,11.8125,0.186328125,12,0.41625000000000006,12h11.6971875c1.483359375,0.000234375,2.8033593750000003,-1.1146875000000003,2.882578125,-2.5959375000000002c0.0590625,-1.108125,-0.532734375,-2.11875,-1.5150000000000001,-2.6100000000000003zM11.46515625,1.552734375l1.0699218750000001,0.26742187500000003c-0.064453125,0.25570312500000003,-0.29226562500000003,0.44273437500000007,-0.565546875,0.42796875000000006c-0.30375,-0.016640625,-0.6058593750000001,-0.29367187499999997,-0.504375,-0.695390625z" fill="#FFFFFF"/></svg>