<svg version="1.1" xmlns="http://www.w3.org/2000/svg" xlink="http://www.w3.org/1999/xlink" x="0px" y="0px" width="15px" height="15px" viewBox="0 0 15 15" style="enable-background:new 0 0 15 15;" space="preserve">
    <path d="M14.799391,12.040519H12.17161V1.5625414c0,-0.73915647,-0.505144,-1.34008377,-1.126192,-1.34008377H4.2880334c-0.6210478,0,-1.1261918,0.6009273,-1.1261918,1.34008377V12.040519H0.53429556c-0.20740698,0,-0.37539725,0.188878,-0.37539725,0.422074v0.844147c0,0.233196,0.16799027,0.422074,0.37539725,0.422074H14.799391c0.207407,0,0.375397,-0.188878,0.375397,-0.422074v-0.844147c0,-0.233196,-0.16799,-0.422074,-0.375397,-0.422074zM9.9189921,7.8197828c-0.4145794,0,-0.7507945,-0.3780197,-0.7507945,-0.8441472c0,-0.4661276,0.3362151,-0.8441473,0.7507945,-0.8441473c0.4145789,0,0.7507939,0.3780197,0.7507939,0.8441473c0.000235,0.4661275,-0.33598,0.8441472,-0.7507939,0.8441472z" fill="#FFFFFF"/>
    </svg>