<svg version="1.1" xmlns="http://www.w3.org/2000/svg" xlink="http://www.w3.org/1999/xlink" x="0px" y="0px" width="15px" height="15px" viewBox="0 0 15 15" style="enable-background:new 0 0 15 15;" space="preserve"><path d="M14.501953125,6.5935546875l-0.5044921874999999,0.031640625000000006c-0.15439453125,-1.15693359375,-0.6090820312499999,-2.216015625,-1.2849609375,-3.1007812500000003l0.37939453125,-0.33486328125c0.202734375,-0.17900390625,0.21240234375,-0.49189453125,0.02138671875,-0.68291015625L12.493359375,1.8867187500000002c-0.19130859375,-0.19130859375,-0.5041992187500001,-0.18134765625000002,-0.68291015625,0.02138671875L11.4755859375,2.28720703125c-0.884765625,-0.6755859375,-1.9438476562499998,-1.1302734374999999,-3.10048828125,-1.2849609375L8.4064453125,0.498046875c0.0169921875,-0.26982421875,-0.19746093750000002,-0.498046875,-0.46787109375,-0.498046875h-0.8771484375c-0.27041015625000003,0,-0.4845703125,0.22822265625,-0.46787109375,0.498046875l0.031640625000000006,0.5044921874999999c-1.15693359375,0.15439453125,-2.216015625,0.6090820312499999,-3.10048828125,1.2849609375l-0.33486328125,-0.37939453125c-0.17900390625,-0.202734375,-0.49189453125,-0.21240234375,-0.68291015625,-0.02138671875L1.8867187500000002,2.506640625c-0.19130859375,0.19130859375,-0.18134765625000002,0.5041992187500001,0.02138671875,0.68291015625l0.37939453125,0.33486328125c-0.6755859375,0.884765625,-1.1302734374999999,1.9438476562499998,-1.2849609375,3.1007812500000003L0.498046875,6.5935546875c-0.26982421875,-0.0169921875,-0.498046875,0.19746093750000002,-0.498046875,0.46787109375v0.8771484375c0,0.27041015625000003,0.22822265625,0.4845703125,0.498046875,0.46787109375l0.5044921874999999,-0.031640625000000006c0.15439453125,1.15693359375,0.6090820312499999,2.216015625,1.2849609375,3.10048828125l-0.37939453125,0.33486328125c-0.202734375,0.17900390625,-0.21240234375,0.49189453125,-0.02138671875,0.68291015625l0.62021484375,0.62021484375c0.19130859375,0.19130859375,0.5041992187500001,0.18134765625000002,0.68291015625,-0.02138671875l0.33486328125,-0.37939453125c0.884765625,0.6755859375,1.9438476562499998,1.1302734374999999,3.1007812500000003,1.2849609375L6.5935546875,14.501953125c-0.0169921875,0.26982421875,0.19746093750000002,0.498046875,0.46787109375,0.498046875h0.8771484375c0.27041015625000003,0,0.4845703125,-0.22822265625,0.46787109375,-0.498046875l-0.031640625000000006,-0.5044921874999999c1.15693359375,-0.15439453125,2.216015625,-0.6090820312499999,3.1007812500000003,-1.2849609375l0.33486328125,0.37939453125c0.17900390625,0.202734375,0.49189453125,0.21240234375,0.68291015625,0.02138671875l0.62021484375,-0.62021484375c0.19130859375,-0.19130859375,0.18134765625000002,-0.5041992187500001,-0.02138671875,-0.68291015625l-0.37939453125,-0.33486328125c0.6755859375,-0.884765625,1.1302734374999999,-1.9438476562499998,1.2849609375,-3.10048828125l0.5044921874999999,0.031640625000000006c0.26982421875,0.0169921875,0.498046875,-0.19746093750000002,0.498046875,-0.46787109375v-0.8771484375c-0.00029296875,-0.27041015625000003,-0.228515625,-0.4845703125,-0.49833984375000007,-0.46787109375zM8.257031249999999,2.88896484375c0.72685546875,0.11923828125000001,1.39541015625,0.4001953125,1.96962890625,0.8138671875000001l-1.2486328125,1.41474609375c-0.25576171875000003,-0.15937500000000002,-0.53671875,-0.2794921875,-0.8384765625,-0.35009765625l0.11748046875,-1.8785156250000001zm-1.5140625,0l0.11748046875,1.8785156250000001c-0.30146484375,0.07060546875000001,-0.58271484375,0.191015625,-0.8384765625,0.35009765625l-1.2486328125,-1.41474609375c0.57421875,-0.41367187499999997,1.2427734375000001,-0.6946289062500001,1.96962890625,-0.8138671875000001zm-3.04013671875,1.8846679687499999l1.4150390625,1.24833984375c-0.15937500000000002,0.25576171875000003,-0.2794921875,0.53701171875,-0.350390625,0.8384765625l-1.8785156250000001,-0.11748046875c0.11923828125000001,-0.72685546875,0.4001953125,-1.3951171875,0.8138671875000001,-1.9693359375zm-0.8138671875000001,3.4833984375l1.8785156250000001,-0.11748046875c0.07060546875000001,0.30146484375,0.191015625,0.58271484375,0.35009765625,0.8384765625l-1.41474609375,1.2486328125c-0.41367187499999997,-0.57421875,-0.6946289062500001,-1.2427734375000001,-0.8138671875000001,-1.96962890625zm3.8540039062500004,3.8540039062500004c-0.72685546875,-0.11923828125000001,-1.39541015625,-0.4001953125,-1.96962890625,-0.8138671875000001l1.24833984375,-1.4150390625c0.25576171875000003,0.15937500000000002,0.53701171875,0.2794921875,0.8384765625,0.350390625l-0.1171875,1.8785156250000001zM7.5,8.4375c-0.51767578125,0,-0.9375,-0.41982421875,-0.9375,-0.9375s0.41982421875,-0.9375,0.9375,-0.9375s0.9375,0.41982421875,0.9375,0.9375s-0.41982421875,0.9375,-0.9375,0.9375zm0.75703125,3.67353515625l-0.11748046875,-1.8785156250000001c0.30146484375,-0.07060546875000001,0.58271484375,-0.191015625,0.8384765625,-0.350390625l1.24833984375,1.4150390625c-0.57421875,0.41367187499999997,-1.24248046875,0.6946289062500001,-1.9693359375,0.8138671875000001zm3.04013671875,-1.8846679687499999l-1.41474609375,-1.2486328125c0.15937500000000002,-0.25576171875000003,0.2794921875,-0.53671875,0.35009765625,-0.8384765625l1.8785156250000001,0.11748046875c-0.11923828125000001,0.7271484375,-0.4001953125,1.395703125,-0.8138671875000001,1.96962890625zm-1.0646484375,-3.36591796875c-0.07060546875000001,-0.30146484375,-0.191015625,-0.58271484375,-0.350390625,-0.8384765625l1.4150390625,-1.24833984375c0.41367187499999997,0.57421875,0.6946289062500001,1.2427734375000001,0.8138671875000001,1.96962890625l-1.8785156250000001,0.1171875z" fill="#FFFFFF"/></svg>