<svg version="1.1" xmlns="http://www.w3.org/2000/svg" xlink="http://www.w3.org/1999/xlink" x="0px" y="0px" width="15px" height="13.333333333333332px" viewBox="0 0 15 13.333333333333332" style="enable-background:new 0 0 15 15;" space="preserve"><path d="M7.661458333333333,7.231770833333333c0.46875,0.13020833333333331,0.9036458333333333,0.3489583333333333,1.2890625,0.6432291666666666l4.205729166666666,-1.4010416666666665c0.21875,-0.07291666666666666,0.3359375,-0.3098958333333333,0.2630208333333333,-0.5260416666666666L11.846354166666666,1.2291666666666665c-0.07291666666666666,-0.21875,-0.3098958333333333,-0.3359375,-0.5260416666666666,-0.2630208333333333l-1.5911458333333333,0.53125l0.8619791666666666,2.5885416666666665L9.010416666666666,4.609375l-0.8619791666666666,-2.5885416666666665l-1.6041666666666665,0.5338541666666666c-0.21875,0.07291666666666666,-0.3359375,0.3098958333333333,-0.2630208333333333,0.5260416666666666l1.3802083333333333,4.151041666666666zm7.317708333333333,1.2682291666666665L14.713541666666666,7.708333333333333c-0.07291666666666666,-0.21875,-0.3098958333333333,-0.3359375,-0.5260416666666666,-0.2630208333333333l-5.559895833333333,1.8541666666666665c-0.44791666666666663,-0.5729166666666666,-1.1354166666666665,-0.9479166666666666,-1.9140625,-0.9635416666666666L4.125,0.5703125C4.010416666666666,0.22916666666666666,3.692708333333333,0,3.333333333333333,0H0.41666666666666663C0.1875,0,0,0.1875,0,0.41666666666666663v0.8333333333333333c0,0.22916666666666666,0.1875,0.41666666666666663,0.41666666666666663,0.41666666666666663h2.3151041666666665l2.4010416666666665,7.205729166666666c-0.6796875,0.53125,-1.0859375,1.3958333333333333,-0.9375,2.356770833333333c0.15885416666666666,1.0260416666666665,0.9869791666666666,1.8828125,2.013020833333333,2.0625c1.5677083333333333,0.2786458333333333,2.9244791666666665,-0.90625,2.953125,-2.411458333333333l5.5546875,-1.8541666666666665c0.21614583333333334,-0.07291666666666666,0.3359375,-0.30729166666666663,0.2630208333333333,-0.5260416666666666zM6.666666666666666,12.083333333333332c-0.6901041666666666,0,-1.25,-0.5598958333333333,-1.25,-1.25s0.5598958333333333,-1.25,1.25,-1.25s1.25,0.5598958333333333,1.25,1.25s-0.5598958333333333,1.25,-1.25,1.25z" fill="#FFFFFF"/></svg>