<svg version="1.1" xmlns="http://www.w3.org/2000/svg" xlink="http://www.w3.org/1999/xlink" x="0px" y="0px" width="15px" height="15px" viewBox="0 0 15 15" style="enable-background:new 0 0 15 15;" space="preserve">
    <path d="M6.964844,11.785156L9.777344,8.570312L3.347656,8.570312L0.535156,11.785156ZM15.445312,2.769531C15.527344,2.960938,15.554688,3.160156,15.523438,3.367188C15.492188,3.578125,15.40625,3.761719,15.269531,3.917969L7.769531,12.488281C7.554688,12.734375,7.289062,12.855469,6.964844,12.855469L0.535156,12.855469C0.324219,12.855469,0.128906,12.800781,-0.046875,12.6875C-0.222656,12.570312,-0.355469,12.417969,-0.445312,12.230469C-0.527344,12.039062,-0.554688,11.839844,-0.523438,11.632812C-0.492188,11.421875,-0.40625,11.238281,-0.269531,11.082031L7.230469,2.511719C7.445312,2.265625,7.710938,2.144531,8.035156,2.144531L14.464844,2.144531C14.675781,2.144531,14.871094,2.199219,15.046875,2.3125C15.222656,2.429688,15.355469,2.582031,15.445312,2.769531ZM15.445312,2.769531" fill="#FFFFFF"/>
    </svg>