<svg version="1.1" xmlns="http://www.w3.org/2000/svg" xlink="http://www.w3.org/1999/xlink" x="0px" y="0px" width="15px" height="15px" viewBox="0 0 15 15" style="enable-background:new 0 0 15 15;" space="preserve"><path d="M15,5.941406L15,12.589844C15,12.957031,14.867188,13.273438,14.605469,13.535156C14.34375,13.796875,14.027344,13.929688,13.660156,13.929688L1.339844,13.929688C0.972656,13.929688,0.65625,13.796875,0.394531,13.535156C0.132812,13.273438,0,12.957031,0,12.589844L0,5.941406C0.246094,6.214844,0.527344,6.460938,0.84375,6.671875C2.867188,8.042969,4.253906,9.007812,5.003906,9.558594C5.324219,9.792969,5.582031,9.976562,5.78125,10.109375C5.976562,10.238281,6.242188,10.371094,6.570312,10.507812C6.898438,10.644531,7.207031,10.714844,7.492188,10.714844L7.507812,10.714844C7.792969,10.714844,8.101562,10.644531,8.429688,10.507812C8.757812,10.371094,9.023438,10.238281,9.21875,10.109375C9.417969,9.976562,9.675781,9.792969,9.996094,9.558594C10.941406,8.871094,12.332031,7.910156,14.164062,6.671875C14.480469,6.453125,14.761719,6.210938,15,5.941406ZM15,3.480469C15,3.921875,14.863281,4.34375,14.589844,4.746094C14.316406,5.148438,13.976562,5.492188,13.570312,5.777344C11.46875,7.230469,10.164062,8.140625,9.652344,8.496094C9.59375,8.535156,9.476562,8.621094,9.296875,8.75C9.113281,8.882812,8.964844,8.988281,8.84375,9.070312C8.722656,9.148438,8.578125,9.242188,8.40625,9.339844C8.238281,9.441406,8.078125,9.515625,7.925781,9.566406C7.777344,9.617188,7.636719,9.644531,7.507812,9.644531L7.492188,9.644531C7.363281,9.644531,7.222656,9.617188,7.074219,9.566406C6.921875,9.515625,6.761719,9.441406,6.59375,9.339844C6.421875,9.242188,6.277344,9.148438,6.15625,9.070312C6.035156,8.988281,5.886719,8.882812,5.703125,8.75C5.523438,8.621094,5.40625,8.535156,5.347656,8.496094C4.839844,8.140625,4.109375,7.628906,3.15625,6.96875C2.203125,6.308594,1.628906,5.910156,1.441406,5.777344C1.09375,5.542969,0.765625,5.21875,0.460938,4.808594C0.152344,4.398438,0,4.019531,0,3.667969C0,3.230469,0.117188,2.867188,0.347656,2.578125C0.578125,2.289062,0.910156,2.144531,1.339844,2.144531L13.660156,2.144531C14.023438,2.144531,14.335938,2.273438,14.601562,2.535156C14.867188,2.796875,15,3.113281,15,3.480469ZM15,3.480469" fill="#FFFFFF"/></svg>