<svg version="1.1" xmlns="http://www.w3.org/2000/svg" xlink="http://www.w3.org/1999/xlink" x="0px" y="0px" width="15px" height="15px" viewBox="0 0 15 15" style="enable-background:new 0 0 15 15;" space="preserve">
    <path d="M14.214844,0.785156C14.738281,1.3125,15,1.941406,15,2.683594C15,3.421875,14.738281,4.050781,14.214844,4.570312L12.328125,6.4375L13.199219,7.308594C13.257812,7.363281,13.285156,7.425781,13.285156,7.5C13.285156,7.574219,13.257812,7.636719,13.199219,7.691406L11.441406,9.449219C11.386719,9.507812,11.324219,9.535156,11.25,9.535156C11.175781,9.535156,11.113281,9.507812,11.058594,9.449219L10.179688,8.570312L5.132812,13.617188C4.925781,13.824219,4.671875,13.929688,4.378906,13.929688L2.679688,13.929688L0.535156,15L0,14.464844L1.070312,12.320312L1.070312,10.621094C1.070312,10.328125,1.175781,10.074219,1.382812,9.867188L6.429688,4.820312L5.550781,3.941406C5.492188,3.886719,5.464844,3.824219,5.464844,3.75C5.464844,3.675781,5.492188,3.613281,5.550781,3.558594L7.308594,1.800781C7.363281,1.742188,7.425781,1.714844,7.5,1.714844C7.574219,1.714844,7.636719,1.742188,7.691406,1.800781L8.5625,2.671875L10.429688,0.785156C10.949219,0.261719,11.578125,0,12.316406,0C13.054688,0,13.6875,0.261719,14.214844,0.785156ZM4.285156,12.320312L9.105469,7.5L7.5,5.894531L2.679688,10.714844L2.679688,12.320312ZM4.285156,12.320312" fill="#FFFFFF"/>
    </svg>