<svg version="1.1" xmlns="http://www.w3.org/2000/svg" xlink="http://www.w3.org/1999/xlink" x="0px" y="0px" width="15px" height="15px" viewBox="0 0 15 15" style="enable-background:new 0 0 15 15;" space="preserve"><path d="M4.644531,11.175781L5.296875,9.996094C4.8125,9.644531,4.433594,9.199219,4.160156,8.664062C3.886719,8.128906,3.75,7.5625,3.75,6.964844C3.75,6.289062,3.921875,5.660156,4.261719,5.082031C2.984375,5.734375,1.917969,6.71875,1.070312,8.035156C2.003906,9.476562,3.195312,10.523438,4.644531,11.175781ZM7.902344,4.820312C7.902344,4.710938,7.863281,4.613281,7.785156,4.535156C7.707031,4.457031,7.613281,4.417969,7.5,4.417969C6.800781,4.417969,6.203125,4.667969,5.703125,5.167969C5.203125,5.667969,4.957031,6.265625,4.957031,6.964844C4.957031,7.074219,4.996094,7.171875,5.074219,7.25C5.152344,7.328125,5.246094,7.367188,5.355469,7.367188C5.46875,7.367188,5.5625,7.328125,5.640625,7.25C5.71875,7.171875,5.757812,7.074219,5.757812,6.964844C5.757812,6.484375,5.929688,6.074219,6.269531,5.734375C6.609375,5.394531,7.019531,5.222656,7.5,5.222656C7.613281,5.222656,7.707031,5.183594,7.785156,5.105469C7.863281,5.027344,7.902344,4.933594,7.902344,4.820312ZM10.941406,3.222656C10.941406,3.261719,10.9375,3.285156,10.933594,3.296875C10.347656,4.347656,9.46875,5.925781,8.296875,8.035156C7.125,10.144531,6.242188,11.726562,5.648438,12.78125L5.238281,13.527344C5.183594,13.617188,5.105469,13.660156,5.003906,13.660156C4.9375,13.660156,4.566406,13.464844,3.882812,13.074219C3.792969,13.019531,3.75,12.941406,3.75,12.839844C3.75,12.773438,3.871094,12.53125,4.117188,12.113281C3.320312,11.75,2.585938,11.265625,1.914062,10.664062C1.238281,10.0625,0.660156,9.378906,0.167969,8.613281C0.0546875,8.441406,0,8.246094,0,8.035156C0,7.824219,0.0546875,7.632812,0.167969,7.457031C1.019531,6.148438,2.082031,5.113281,3.347656,4.351562C4.613281,3.59375,6,3.214844,7.5,3.214844C7.996094,3.214844,8.5,3.261719,9.007812,3.355469L9.457031,2.542969C9.515625,2.457031,9.59375,2.410156,9.691406,2.410156C9.722656,2.410156,9.769531,2.425781,9.84375,2.460938C9.917969,2.496094,10.003906,2.539062,10.101562,2.589844C10.203125,2.644531,10.296875,2.695312,10.378906,2.746094C10.464844,2.796875,10.550781,2.847656,10.644531,2.898438C10.734375,2.953125,10.789062,2.984375,10.804688,2.996094C10.894531,3.050781,10.941406,3.128906,10.941406,3.222656ZM11.25,6.964844C11.25,7.738281,11.03125,8.445312,10.589844,9.085938C10.148438,9.726562,9.566406,10.183594,8.839844,10.464844L11.183594,6.261719C11.226562,6.511719,11.25,6.746094,11.25,6.964844ZM15,8.035156C15,8.230469,14.945312,8.421875,14.832031,8.613281C14.613281,8.96875,14.3125,9.375,13.921875,9.828125C13.082031,10.785156,12.113281,11.53125,11.011719,12.0625C9.910156,12.59375,8.738281,12.855469,7.5,12.855469L8.121094,11.753906C9.300781,11.652344,10.398438,11.269531,11.40625,10.605469C12.410156,9.941406,13.253906,9.085938,13.929688,8.035156C13.285156,7.035156,12.5,6.214844,11.566406,5.574219L12.09375,4.636719C12.625,4.996094,13.132812,5.421875,13.625,5.917969C14.109375,6.414062,14.515625,6.929688,14.832031,7.457031C14.945312,7.648438,15,7.839844,15,8.035156ZM15,8.035156" fill="#FFFFFF"/></svg>