<svg version="1.1" xmlns="http://www.w3.org/2000/svg" xlink="http://www.w3.org/1999/xlink" x="0px" y="0px" width="15px" height="15px" viewBox="0 0 15 15" style="enable-background:new 0 0 15 15;" space="preserve"><path d="M7.390625,8.839844C7.390625,8.910156,7.363281,8.976562,7.308594,9.03125L4.527344,11.8125L5.734375,13.015625C5.839844,13.121094,5.894531,13.246094,5.894531,13.394531C5.894531,13.539062,5.839844,13.664062,5.734375,13.769531C5.628906,13.875,5.503906,13.929688,5.355469,13.929688L1.605469,13.929688C1.460938,13.929688,1.335938,13.875,1.230469,13.769531C1.125,13.664062,1.070312,13.539062,1.070312,13.394531L1.070312,9.644531C1.070312,9.496094,1.125,9.371094,1.230469,9.265625C1.335938,9.160156,1.460938,9.105469,1.605469,9.105469C1.753906,9.105469,1.878906,9.160156,1.984375,9.265625L3.1875,10.472656L5.96875,7.691406C6.023438,7.636719,6.089844,7.609375,6.160156,7.609375C6.234375,7.609375,6.296875,7.636719,6.351562,7.691406L7.308594,8.648438C7.363281,8.703125,7.390625,8.765625,7.390625,8.839844ZM13.929688,1.605469L13.929688,5.355469C13.929688,5.503906,13.875,5.628906,13.769531,5.734375C13.664062,5.839844,13.539062,5.894531,13.394531,5.894531C13.246094,5.894531,13.121094,5.839844,13.015625,5.734375L11.8125,4.527344L9.03125,7.308594C8.976562,7.363281,8.910156,7.390625,8.839844,7.390625C8.765625,7.390625,8.703125,7.363281,8.648438,7.308594L7.691406,6.351562C7.636719,6.296875,7.609375,6.234375,7.609375,6.160156C7.609375,6.089844,7.636719,6.023438,7.691406,5.96875L10.472656,3.1875L9.265625,1.984375C9.160156,1.878906,9.105469,1.753906,9.105469,1.605469C9.105469,1.460938,9.160156,1.335938,9.265625,1.230469C9.371094,1.125,9.496094,1.070312,9.644531,1.070312L13.394531,1.070312C13.539062,1.070312,13.664062,1.125,13.769531,1.230469C13.875,1.335938,13.929688,1.460938,13.929688,1.605469ZM13.929688,1.605469" fill="#FFFFFF"/></svg>