<svg version="1.1" xmlns="http://www.w3.org/2000/svg" xlink="http://www.w3.org/1999/xlink" x="0px" y="0px" width="15px" height="15px" viewBox="0 0 15 15" style="enable-background:new 0 0 15 15;" space="preserve">
    <path d="M14.195312,3.214844C14.417969,3.214844,14.609375,3.292969,14.765625,3.449219C14.921875,3.605469,15,3.792969,15,4.019531L15,14.195312C15,14.417969,14.921875,14.609375,14.765625,14.765625C14.609375,14.921875,14.417969,15,14.195312,15L6.160156,15C5.9375,15,5.746094,14.921875,5.589844,14.765625C5.433594,14.609375,5.355469,14.417969,5.355469,14.195312L5.355469,11.785156L0.804688,11.785156C0.582031,11.785156,0.390625,11.707031,0.234375,11.550781C0.078125,11.394531,0,11.207031,0,10.980469L0,5.355469C0,5.132812,0.0546875,4.886719,0.167969,4.621094C0.277344,4.351562,0.414062,4.140625,0.570312,3.984375L3.984375,0.570312C4.140625,0.414062,4.351562,0.277344,4.621094,0.167969C4.886719,0.0546875,5.132812,0,5.355469,0L8.839844,0C9.0625,0,9.253906,0.078125,9.410156,0.234375C9.566406,0.390625,9.644531,0.582031,9.644531,0.804688L9.644531,3.550781C10.023438,3.324219,10.378906,3.214844,10.714844,3.214844ZM9.644531,4.996094L7.140625,7.5L9.644531,7.5ZM4.285156,1.78125L1.78125,4.285156L4.285156,4.285156ZM5.925781,7.199219L8.570312,4.554688L8.570312,1.070312L5.355469,1.070312L5.355469,4.554688C5.355469,4.777344,5.277344,4.964844,5.121094,5.121094C4.964844,5.277344,4.777344,5.355469,4.554688,5.355469L1.070312,5.355469L1.070312,10.714844L5.355469,10.714844L5.355469,8.570312C5.355469,8.347656,5.414062,8.101562,5.523438,7.835938C5.636719,7.566406,5.769531,7.355469,5.925781,7.199219ZM13.929688,13.929688L13.929688,4.285156L10.714844,4.285156L10.714844,7.769531C10.714844,7.992188,10.636719,8.179688,10.480469,8.335938C10.324219,8.492188,10.132812,8.570312,9.910156,8.570312L6.429688,8.570312L6.429688,13.929688ZM13.929688,13.929688" fill="#FFFFFF"/>
    </svg>