<svg version="1.1" xmlns="http://www.w3.org/2000/svg" xlink="http://www.w3.org/1999/xlink" x="0px" y="0px" width="15px" height="15px" viewBox="0 0 15 15" style="enable-background:new 0 0 15 15;" space="preserve"><path d="M2.410156,3.214844C2.777344,3.214844,3.09375,3.34375,3.355469,3.609375C3.617188,3.871094,3.75,4.183594,3.75,4.554688L3.75,13.660156C3.75,14.027344,3.617188,14.34375,3.355469,14.605469C3.09375,14.867188,2.777344,15,2.410156,15L1.339844,15C0.972656,15,0.65625,14.867188,0.394531,14.605469C0.132812,14.34375,0,14.027344,0,13.660156L0,4.554688C0,4.183594,0.132812,3.871094,0.394531,3.609375C0.65625,3.34375,0.972656,3.214844,1.339844,3.214844ZM13.929688,4.578125C14.253906,4.769531,14.511719,5.027344,14.707031,5.355469C14.902344,5.6875,15,6.042969,15,6.429688L15,12.855469C15,13.449219,14.789062,13.953125,14.371094,14.371094C13.953125,14.789062,13.449219,15,12.855469,15L5.625,15C5.257812,15,4.941406,14.867188,4.679688,14.605469C4.417969,14.34375,4.285156,14.027344,4.285156,13.660156L4.285156,0.804688C4.285156,0.582031,4.363281,0.390625,4.519531,0.234375C4.675781,0.078125,4.867188,0,5.089844,0L10.714844,0C10.9375,0,11.183594,0.0546875,11.449219,0.167969C11.71875,0.277344,11.929688,0.414062,12.085938,0.570312L13.359375,1.839844C13.515625,1.996094,13.648438,2.210938,13.761719,2.476562C13.871094,2.746094,13.929688,2.992188,13.929688,3.214844ZM7.769531,12.855469L7.769531,11.785156C7.769531,11.707031,7.742188,11.644531,7.691406,11.59375C7.640625,11.542969,7.578125,11.519531,7.5,11.519531L6.429688,11.519531C6.351562,11.519531,6.285156,11.542969,6.234375,11.59375C6.1875,11.644531,6.160156,11.707031,6.160156,11.785156L6.160156,12.855469C6.160156,12.933594,6.1875,13,6.234375,13.050781C6.285156,13.101562,6.351562,13.125,6.429688,13.125L7.5,13.125C7.578125,13.125,7.640625,13.101562,7.691406,13.050781C7.742188,13,7.769531,12.933594,7.769531,12.855469ZM7.769531,10.714844L7.769531,9.644531C7.769531,9.566406,7.742188,9.5,7.691406,9.449219C7.640625,9.398438,7.578125,9.375,7.5,9.375L6.429688,9.375C6.351562,9.375,6.285156,9.398438,6.234375,9.449219C6.1875,9.5,6.160156,9.566406,6.160156,9.644531L6.160156,10.714844C6.160156,10.792969,6.1875,10.855469,6.234375,10.90625C6.285156,10.957031,6.351562,10.980469,6.429688,10.980469L7.5,10.980469C7.578125,10.980469,7.640625,10.957031,7.691406,10.90625C7.742188,10.855469,7.769531,10.792969,7.769531,10.714844ZM7.769531,8.570312L7.769531,7.5C7.769531,7.421875,7.742188,7.359375,7.691406,7.308594C7.640625,7.257812,7.578125,7.230469,7.5,7.230469L6.429688,7.230469C6.351562,7.230469,6.285156,7.257812,6.234375,7.308594C6.1875,7.359375,6.160156,7.421875,6.160156,7.5L6.160156,8.570312C6.160156,8.648438,6.1875,8.714844,6.234375,8.765625C6.285156,8.8125,6.351562,8.839844,6.429688,8.839844L7.5,8.839844C7.578125,8.839844,7.640625,8.8125,7.691406,8.765625C7.742188,8.714844,7.769531,8.648438,7.769531,8.570312ZM9.910156,12.855469L9.910156,11.785156C9.910156,11.707031,9.886719,11.644531,9.835938,11.59375C9.785156,11.542969,9.722656,11.519531,9.644531,11.519531L8.570312,11.519531C8.492188,11.519531,8.429688,11.542969,8.378906,11.59375C8.328125,11.644531,8.304688,11.707031,8.304688,11.785156L8.304688,12.855469C8.304688,12.933594,8.328125,13,8.378906,13.050781C8.429688,13.101562,8.492188,13.125,8.570312,13.125L9.644531,13.125C9.722656,13.125,9.785156,13.101562,9.835938,13.050781C9.886719,13,9.910156,12.933594,9.910156,12.855469ZM9.910156,10.714844L9.910156,9.644531C9.910156,9.566406,9.886719,9.5,9.835938,9.449219C9.785156,9.398438,9.722656,9.375,9.644531,9.375L8.570312,9.375C8.492188,9.375,8.429688,9.398438,8.378906,9.449219C8.328125,9.5,8.304688,9.566406,8.304688,9.644531L8.304688,10.714844C8.304688,10.792969,8.328125,10.855469,8.378906,10.90625C8.429688,10.957031,8.492188,10.980469,8.570312,10.980469L9.644531,10.980469C9.722656,10.980469,9.785156,10.957031,9.835938,10.90625C9.886719,10.855469,9.910156,10.792969,9.910156,10.714844ZM9.910156,8.570312L9.910156,7.5C9.910156,7.421875,9.886719,7.359375,9.835938,7.308594C9.785156,7.257812,9.722656,7.230469,9.644531,7.230469L8.570312,7.230469C8.492188,7.230469,8.429688,7.257812,8.378906,7.308594C8.328125,7.359375,8.304688,7.421875,8.304688,7.5L8.304688,8.570312C8.304688,8.648438,8.328125,8.714844,8.378906,8.765625C8.429688,8.8125,8.492188,8.839844,8.570312,8.839844L9.644531,8.839844C9.722656,8.839844,9.785156,8.8125,9.835938,8.765625C9.886719,8.714844,9.910156,8.648438,9.910156,8.570312ZM12.054688,12.855469L12.054688,11.785156C12.054688,11.707031,12.027344,11.644531,11.976562,11.59375C11.929688,11.542969,11.863281,11.519531,11.785156,11.519531L10.714844,11.519531C10.636719,11.519531,10.570312,11.542969,10.523438,11.59375C10.472656,11.644531,10.445312,11.707031,10.445312,11.785156L10.445312,12.855469C10.445312,12.933594,10.472656,13,10.523438,13.050781C10.570312,13.101562,10.636719,13.125,10.714844,13.125L11.785156,13.125C11.863281,13.125,11.929688,13.101562,11.976562,13.050781C12.027344,13,12.054688,12.933594,12.054688,12.855469ZM12.054688,10.714844L12.054688,9.644531C12.054688,9.566406,12.027344,9.5,11.976562,9.449219C11.929688,9.398438,11.863281,9.375,11.785156,9.375L10.714844,9.375C10.636719,9.375,10.570312,9.398438,10.523438,9.449219C10.472656,9.5,10.445312,9.566406,10.445312,9.644531L10.445312,10.714844C10.445312,10.792969,10.472656,10.855469,10.523438,10.90625C10.570312,10.957031,10.636719,10.980469,10.714844,10.980469L11.785156,10.980469C11.863281,10.980469,11.929688,10.957031,11.976562,10.90625C12.027344,10.855469,12.054688,10.792969,12.054688,10.714844ZM12.054688,8.570312L12.054688,7.5C12.054688,7.421875,12.027344,7.359375,11.976562,7.308594C11.929688,7.257812,11.863281,7.230469,11.785156,7.230469L10.714844,7.230469C10.636719,7.230469,10.570312,7.257812,10.523438,7.308594C10.472656,7.359375,10.445312,7.421875,10.445312,7.5L10.445312,8.570312C10.445312,8.648438,10.472656,8.714844,10.523438,8.765625C10.570312,8.8125,10.636719,8.839844,10.714844,8.839844L11.785156,8.839844C11.863281,8.839844,11.929688,8.8125,11.976562,8.765625C12.027344,8.714844,12.054688,8.648438,12.054688,8.570312ZM12.855469,5.355469L12.855469,3.214844L11.519531,3.214844C11.292969,3.214844,11.105469,3.136719,10.949219,2.980469C10.792969,2.824219,10.714844,2.632812,10.714844,2.410156L10.714844,1.070312L5.355469,1.070312L5.355469,5.355469ZM12.855469,5.355469" fill="#FFFFFF"/></svg>