<svg version="1.1" xmlns="http://www.w3.org/2000/svg" xlink="http://www.w3.org/1999/xlink" x="0px" y="0px" width="13.125px" height="15px" viewBox="0 0 13.125 15" style="enable-background:new 0 0 15 15;" space="preserve"><path d="M12.715634765625,0.771357421875l-4.921875,0.8203125C7.461708984375001,1.64701171875,7.5,1.986328125,7.5,2.109375h-1.7089453125C6.104091796875,1.0578515624999998,5.31580078125,0,4.21875,0c-1.1553222656250002,0,-1.944375,1.1623828125,-1.5301171875000001,2.232509765625c-1.524580078125,0.38235351562500003,-2.208427734375,1.5882714843749999,-2.6381542968750002,2.6626171875c-0.144228515625,0.36055664062500004,0.031142578124999997,0.76974609375,0.39169921874999997,0.9139746093749999c0.360849609375,0.14431640625,0.7698925781249999,-0.031494140625,0.9139453125000001,-0.39169921874999997C2.1989648437500002,3.31025390625,3.1337109375,3.5156249999999996,4.921875,3.5156249999999996v0.7932421875c-1.217080078125,0.31822265625,-2.109375,1.442431640625,-2.109375,2.7576855468750003V14.296875c0,0.388330078125,0.31479492187499997,0.703125,0.703125,0.703125h4.21875c0.388330078125,0,0.703125,-0.31479492187499997,0.703125,-0.703125V7.031249999999999c0,-1.3104785156249998,-0.8963671875,-2.4114843749999997,-2.109375,-2.72373046875V3.5156249999999996h1.171875c0,0.08712890625,-0.049892578125,0.46042968749999996,0.29375976562499995,0.517705078125l4.921875,0.8203125C12.929941406249998,4.889355468749999,13.125,4.72412109375,13.125,4.50685546875V1.1181445312499998c0,-0.217265625,-0.19505859375,-0.38249999999999995,-0.409365234375,-0.34678710937499996zM4.21875,2.109375c-0.25845703124999997,0,-0.46875,-0.21029296875,-0.46875,-0.46875s0.21029296875,-0.46875,0.46875,-0.46875s0.46875,0.21029296875,0.46875,0.46875s-0.21029296875,0.46875,-0.46875,0.46875z" fill="#FFFFFF"/></svg>