<svg version="1.1" xmlns="http://www.w3.org/2000/svg" xlink="http://www.w3.org/1999/xlink" x="0px" y="0px" width="15px" height="15px" viewBox="0 0 15 15" style="enable-background:new 0 0 15 15;" space="preserve"><path d="M1.070312,1.070312L13.929688,1.070312L13.929688,13.929688L1.070312,13.929688ZM8.671875,3.75L8.570312,4.027344L9.199219,4.722656L8.941406,5.675781L9.148438,5.882812L10.042969,5.40625L10.941406,5.882812L11.148438,5.675781L10.890625,4.722656L11.519531,4.027344L11.417969,3.75L10.621094,3.75L10.179688,2.945312L9.910156,2.945312L9.46875,3.75ZM6.4375,5.113281C6.617188,5.113281,6.738281,5.160156,6.808594,5.25C6.878906,5.335938,6.910156,5.511719,6.90625,5.777344L8.363281,5.601562C8.363281,5.292969,8.3125,5.035156,8.214844,4.824219C8.117188,4.617188,7.976562,4.460938,7.792969,4.355469C7.609375,4.253906,7.417969,4.183594,7.214844,4.144531C7.015625,4.105469,6.777344,4.085938,6.503906,4.085938C5.761719,4.085938,5.207031,4.246094,4.839844,4.566406C4.46875,4.886719,4.285156,5.394531,4.285156,6.09375L4.285156,6.695312L3.480469,6.695312L3.480469,7.769531L4.117188,7.769531C4.230469,7.769531,4.285156,7.789062,4.285156,7.835938L4.285156,11.03125C4.285156,11.109375,4.273438,11.167969,4.242188,11.199219C4.214844,11.234375,4.164062,11.253906,4.09375,11.257812L3.480469,11.316406L3.480469,12.054688L7.230469,12.054688L7.230469,11.332031L5.984375,11.214844C5.953125,11.210938,5.925781,11.207031,5.914062,11.203125C5.898438,11.199219,5.890625,11.195312,5.882812,11.183594C5.878906,11.171875,5.878906,11.160156,5.878906,11.148438C5.882812,11.136719,5.886719,11.117188,5.890625,11.089844C5.890625,11.0625,5.894531,11.035156,5.894531,11.007812L5.894531,7.769531L7.492188,7.769531L7.808594,6.695312L5.875,6.695312C5.84375,6.695312,5.835938,6.679688,5.859375,6.644531C5.882812,6.613281,5.894531,6.585938,5.894531,6.570312L5.894531,5.902344C5.894531,5.75,5.898438,5.636719,5.90625,5.5625C5.914062,5.488281,5.933594,5.410156,5.96875,5.328125C6,5.246094,6.054688,5.191406,6.132812,5.160156C6.207031,5.128906,6.308594,5.113281,6.4375,5.113281ZM11.519531,12.054688L11.519531,11.332031L11.066406,11.257812C11.027344,11.253906,11,11.246094,10.984375,11.238281C10.972656,11.230469,10.964844,11.21875,10.964844,11.210938C10.964844,11.203125,10.96875,11.183594,10.972656,11.148438C10.980469,11.117188,10.980469,11.082031,10.980469,11.050781L10.980469,6.695312L8.679688,6.695312L8.488281,7.542969L9.183594,7.726562C9.3125,7.765625,9.375,7.839844,9.375,7.953125L9.375,11.050781C9.375,11.128906,9.359375,11.179688,9.324219,11.203125C9.292969,11.230469,9.234375,11.246094,9.15625,11.257812L8.570312,11.332031L8.570312,12.054688ZM11.519531,12.054688" fill="#FFFFFF"/></svg>