<svg version="1.1" xmlns="http://www.w3.org/2000/svg" xlink="http://www.w3.org/1999/xlink" x="0px" y="0px" width="15px" height="15px" viewBox="0 0 15 15" style="enable-background:new 0 0 15 15;" space="preserve"><path d="M15,0C13.4830078125,0.104296875,2.825390625,1.119140625,2.08037109375,8.426074218750001c-0.09052734374999999,0.7810546875,-0.141796875,1.5656249999999998,-0.17548828125000002,2.35078125l5.24033203125,-5.23505859375c0.18310546875,-0.18310546875,0.48046874999999994,-0.18310546875,0.66357421875,0s0.18310546875,0.4798828125,0,0.66298828125L0.20625,13.79970703125c-0.27480468750000003,0.27451171874999997,-0.27480468750000003,0.71982421875,0,0.9943359374999999c0.27480468750000003,0.27451171874999997,0.72041015625,0.27451171874999997,0.9955078124999999,0l1.67373046875,-1.67197265625c1.23310546875,-0.0041015625,2.46533203125,-0.07412109374999999,3.6902343749999997,-0.215625c1.5667968749999999,-0.15937500000000002,2.8423828125,-0.7754882812499999,3.8841796875000005,-1.6564453125H7.492382812500001l4.30048828125,-1.43203125c0.32958984375,-0.43623046875000004,0.62607421875,-0.8997070312500001,0.89208984375,-1.38046875h-2.3771484375l3.1212890625000003,-1.55888671875C14.65693359375,3.8923828125,14.94697265625,0.7693359375000001,15,0z" fill="#FFFFFF"/></svg>