<svg version="1.1" xmlns="http://www.w3.org/2000/svg" xlink="http://www.w3.org/1999/xlink" x="0px" y="0px" width="15px" height="15px" viewBox="0 0 15 15" style="enable-background:new 0 0 15 15;" space="preserve"><path d="M10.511719,3.632812L10.824219,2.007812C10.851562,1.878906,10.824219,1.769531,10.746094,1.675781C10.667969,1.578125,10.570312,1.53125,10.453125,1.53125L4.496094,1.53125C4.367188,1.53125,4.257812,1.578125,4.171875,1.675781C4.085938,1.769531,4.042969,1.871094,4.042969,1.984375L4.042969,11.199219C4.042969,11.238281,4.058594,11.242188,4.09375,11.207031L6.527344,8.261719C6.65625,8.117188,6.761719,8.023438,6.847656,7.980469C6.929688,7.9375,7.066406,7.917969,7.25,7.917969L9.25,7.917969C9.371094,7.917969,9.476562,7.878906,9.558594,7.796875C9.644531,7.714844,9.691406,7.632812,9.710938,7.550781C9.84375,6.824219,9.945312,6.292969,10.019531,5.953125C10.042969,5.835938,10.007812,5.722656,9.921875,5.617188C9.835938,5.511719,9.734375,5.457031,9.617188,5.457031L7.15625,5.457031C6.996094,5.457031,6.859375,5.40625,6.753906,5.296875C6.648438,5.191406,6.597656,5.058594,6.597656,4.898438L6.597656,4.546875C6.597656,4.382812,6.648438,4.25,6.753906,4.148438C6.859375,4.042969,6.996094,3.992188,7.15625,3.992188L10.054688,3.992188C10.152344,3.992188,10.25,3.953125,10.347656,3.878906C10.441406,3.804688,10.496094,3.722656,10.511719,3.632812ZM12.414062,1.773438C12.328125,2.183594,12.179688,2.925781,11.964844,4.003906C11.75,5.085938,11.558594,6.0625,11.382812,6.933594C11.210938,7.808594,11.113281,8.292969,11.089844,8.386719C11.058594,8.511719,11.03125,8.601562,11.015625,8.660156C11,8.71875,10.960938,8.808594,10.898438,8.929688C10.835938,9.054688,10.769531,9.144531,10.695312,9.207031C10.617188,9.269531,10.511719,9.328125,10.371094,9.382812C10.230469,9.4375,10.070312,9.46875,9.886719,9.46875L7.617188,9.46875C7.542969,9.46875,7.484375,9.496094,7.433594,9.550781C7.386719,9.601562,6.199219,10.980469,3.867188,13.6875C3.746094,13.824219,3.582031,13.90625,3.378906,13.925781C3.171875,13.945312,3.039062,13.929688,2.972656,13.878906C2.664062,13.753906,2.511719,13.480469,2.511719,13.058594L2.511719,1.253906C2.511719,0.949219,2.617188,0.664062,2.828125,0.398438C3.042969,0.132812,3.375,0,3.832031,0L11.265625,0C11.796875,0,12.152344,0.148438,12.328125,0.445312C12.507812,0.738281,12.535156,1.183594,12.414062,1.773438ZM12.414062,1.773438L11.089844,8.386719C11.113281,8.292969,11.210938,7.808594,11.382812,6.933594C11.558594,6.0625,11.75,5.085938,11.964844,4.003906C12.179688,2.925781,12.328125,2.183594,12.414062,1.773438ZM12.414062,1.773438" fill="#FFFFFF"/></svg>