<svg version="1.1" xmlns="http://www.w3.org/2000/svg" xlink="http://www.w3.org/1999/xlink" x="0px" y="0px" width="15px" height="15px" viewBox="0 0 15 15" style="enable-background:new 0 0 15 15;" space="preserve"><path d="M14.464844,5.089844L14.464844,10.980469C14.464844,11.496094,14.28125,11.9375,13.910156,12.304688C13.542969,12.671875,13.101562,12.855469,12.589844,12.855469L2.410156,12.855469C1.898438,12.855469,1.457031,12.671875,1.089844,12.304688C0.71875,11.9375,0.535156,11.496094,0.535156,10.980469L0.535156,2.945312C0.535156,2.433594,0.71875,1.992188,1.089844,1.625C1.457031,1.253906,1.898438,1.070312,2.410156,1.070312L5.089844,1.070312C5.601562,1.070312,6.042969,1.253906,6.410156,1.625C6.78125,1.992188,6.964844,2.433594,6.964844,2.945312L6.964844,3.214844L12.589844,3.214844C13.101562,3.214844,13.542969,3.398438,13.910156,3.765625C14.28125,4.136719,14.464844,4.574219,14.464844,5.089844ZM14.464844,5.089844" fill="#FFFFFF"/></svg>