<svg version="1.1" xmlns="http://www.w3.org/2000/svg" xlink="http://www.w3.org/1999/xlink" x="0px" y="0px" width="15px" height="15px" viewBox="0 0 15 15" style="enable-background:new 0 0 15 15;" space="preserve"><path d="M5.355469,8.4375L5.355469,6.5625C5.355469,6.472656,5.3125,6.429688,5.222656,6.429688L4.417969,6.429688C4.332031,6.429688,4.285156,6.472656,4.285156,6.5625L4.285156,8.4375C4.285156,8.527344,4.332031,8.570312,4.417969,8.570312L5.222656,8.570312C5.3125,8.570312,5.355469,8.527344,5.355469,8.4375ZM9.644531,8.4375L9.644531,6.5625C9.644531,6.472656,9.597656,6.429688,9.507812,6.429688L8.707031,6.429688C8.617188,6.429688,8.570312,6.472656,8.570312,6.5625L8.570312,8.4375C8.570312,8.527344,8.617188,8.570312,8.707031,8.570312L9.507812,8.570312C9.597656,8.570312,9.644531,8.527344,9.644531,8.4375ZM13.929688,8.707031L13.929688,15L8.570312,15L8.570312,12.320312C8.570312,11.875,8.414062,11.496094,8.101562,11.183594C7.789062,10.871094,7.410156,10.714844,6.964844,10.714844C6.519531,10.714844,6.136719,10.871094,5.824219,11.183594C5.511719,11.496094,5.355469,11.875,5.355469,12.320312L5.355469,15L0,15L0,8.707031C0,8.617188,0.0429688,8.570312,0.132812,8.570312L0.9375,8.570312C1.027344,8.570312,1.070312,8.617188,1.070312,8.707031L1.070312,9.644531L2.144531,9.644531L2.144531,4.417969C2.144531,4.332031,2.1875,4.285156,2.277344,4.285156L3.082031,4.285156C3.167969,4.285156,3.214844,4.332031,3.214844,4.417969L3.214844,5.355469L4.285156,5.355469L4.285156,4.417969C4.285156,4.332031,4.332031,4.285156,4.417969,4.285156L5.222656,4.285156C5.3125,4.285156,5.355469,4.332031,5.355469,4.417969L5.355469,5.355469L6.429688,5.355469L6.429688,4.417969C6.429688,4.332031,6.472656,4.285156,6.5625,4.285156L6.695312,4.285156L6.695312,0.996094C6.519531,0.890625,6.429688,0.738281,6.429688,0.535156C6.429688,0.390625,6.480469,0.265625,6.585938,0.160156C6.695312,0.0546875,6.820312,0,6.964844,0C7.109375,0,7.234375,0.0546875,7.339844,0.160156C7.445312,0.265625,7.5,0.390625,7.5,0.535156C7.5,0.738281,7.410156,0.890625,7.230469,0.996094L7.230469,1.070312L9.507812,1.070312C9.597656,1.070312,9.644531,1.117188,9.644531,1.207031L9.644531,3.082031C9.644531,3.167969,9.597656,3.214844,9.507812,3.214844L7.230469,3.214844L7.230469,4.285156L7.367188,4.285156C7.457031,4.285156,7.5,4.332031,7.5,4.417969L7.5,5.355469L8.570312,5.355469L8.570312,4.417969C8.570312,4.332031,8.617188,4.285156,8.707031,4.285156L9.507812,4.285156C9.597656,4.285156,9.644531,4.332031,9.644531,4.417969L9.644531,5.355469L10.714844,5.355469L10.714844,4.417969C10.714844,4.332031,10.757812,4.285156,10.847656,4.285156L11.652344,4.285156C11.742188,4.285156,11.785156,4.332031,11.785156,4.417969L11.785156,9.644531L12.855469,9.644531L12.855469,8.707031C12.855469,8.617188,12.902344,8.570312,12.992188,8.570312L13.792969,8.570312C13.882812,8.570312,13.929688,8.617188,13.929688,8.707031ZM13.929688,8.707031" fill="#FFFFFF"/></svg>