<svg version="1.1" xmlns="http://www.w3.org/2000/svg" xlink="http://www.w3.org/1999/xlink" x="0px" y="0px" width="15px" height="15px" viewBox="0 0 15 15" style="enable-background:new 0 0 15 15;" space="preserve"><path d="M13.394531,10.980469L13.394531,5.089844C13.394531,4.867188,13.316406,4.675781,13.160156,4.519531C13.003906,4.363281,12.8125,4.285156,12.589844,4.285156L6.695312,4.285156C6.472656,4.285156,6.285156,4.207031,6.128906,4.050781C5.972656,3.894531,5.894531,3.707031,5.894531,3.480469L5.894531,2.945312C5.894531,2.722656,5.816406,2.535156,5.660156,2.378906C5.503906,2.222656,5.3125,2.144531,5.089844,2.144531L2.410156,2.144531C2.1875,2.144531,1.996094,2.222656,1.839844,2.378906C1.683594,2.535156,1.605469,2.722656,1.605469,2.945312L1.605469,10.980469C1.605469,11.207031,1.683594,11.394531,1.839844,11.550781C1.996094,11.707031,2.1875,11.785156,2.410156,11.785156L12.589844,11.785156C12.8125,11.785156,13.003906,11.707031,13.160156,11.550781C13.316406,11.394531,13.394531,11.207031,13.394531,10.980469ZM14.464844,5.089844L14.464844,10.980469C14.464844,11.496094,14.28125,11.9375,13.910156,12.304688C13.542969,12.671875,13.101562,12.855469,12.589844,12.855469L2.410156,12.855469C1.898438,12.855469,1.457031,12.671875,1.089844,12.304688C0.71875,11.9375,0.535156,11.496094,0.535156,10.980469L0.535156,2.945312C0.535156,2.433594,0.71875,1.992188,1.089844,1.625C1.457031,1.253906,1.898438,1.070312,2.410156,1.070312L5.089844,1.070312C5.601562,1.070312,6.042969,1.253906,6.410156,1.625C6.78125,1.992188,6.964844,2.433594,6.964844,2.945312L6.964844,3.214844L12.589844,3.214844C13.101562,3.214844,13.542969,3.398438,13.910156,3.765625C14.28125,4.136719,14.464844,4.574219,14.464844,5.089844ZM14.464844,5.089844" fill="#FFFFFF"/></svg>