<svg version="1.1" xmlns="http://www.w3.org/2000/svg" xlink="http://www.w3.org/1999/xlink" x="0px" y="0px" width="15px" height="15px" viewBox="0 0 15 15" style="enable-background:new 0 0 15 15;" space="preserve"><path d="M2.679688,13.394531L2.679688,12.320312C2.679688,12.175781,2.625,12.050781,2.519531,11.945312C2.414062,11.839844,2.289062,11.785156,2.144531,11.785156L1.070312,11.785156C0.925781,11.785156,0.800781,11.839844,0.695312,11.945312C0.589844,12.050781,0.535156,12.175781,0.535156,12.320312L0.535156,13.394531C0.535156,13.539062,0.589844,13.664062,0.695312,13.769531C0.800781,13.875,0.925781,13.929688,1.070312,13.929688L2.144531,13.929688C2.289062,13.929688,2.414062,13.875,2.519531,13.769531C2.625,13.664062,2.679688,13.539062,2.679688,13.394531ZM2.679688,10.179688L2.679688,9.105469C2.679688,8.960938,2.625,8.835938,2.519531,8.730469C2.414062,8.625,2.289062,8.570312,2.144531,8.570312L1.070312,8.570312C0.925781,8.570312,0.800781,8.625,0.695312,8.730469C0.589844,8.835938,0.535156,8.960938,0.535156,9.105469L0.535156,10.179688C0.535156,10.324219,0.589844,10.449219,0.695312,10.554688C0.800781,10.660156,0.925781,10.714844,1.070312,10.714844L2.144531,10.714844C2.289062,10.714844,2.414062,10.660156,2.519531,10.554688C2.625,10.449219,2.679688,10.324219,2.679688,10.179688ZM2.679688,6.964844L2.679688,5.894531C2.679688,5.746094,2.625,5.621094,2.519531,5.515625C2.414062,5.410156,2.289062,5.355469,2.144531,5.355469L1.070312,5.355469C0.925781,5.355469,0.800781,5.410156,0.695312,5.515625C0.589844,5.621094,0.535156,5.746094,0.535156,5.894531L0.535156,6.964844C0.535156,7.109375,0.589844,7.234375,0.695312,7.339844C0.800781,7.445312,0.925781,7.5,1.070312,7.5L2.144531,7.5C2.289062,7.5,2.414062,7.445312,2.519531,7.339844C2.625,7.234375,2.679688,7.109375,2.679688,6.964844ZM11.25,13.394531L11.25,9.105469C11.25,8.960938,11.195312,8.835938,11.089844,8.730469C10.984375,8.625,10.859375,8.570312,10.714844,8.570312L4.285156,8.570312C4.140625,8.570312,4.015625,8.625,3.910156,8.730469C3.804688,8.835938,3.75,8.960938,3.75,9.105469L3.75,13.394531C3.75,13.539062,3.804688,13.664062,3.910156,13.769531C4.015625,13.875,4.140625,13.929688,4.285156,13.929688L10.714844,13.929688C10.859375,13.929688,10.984375,13.875,11.089844,13.769531C11.195312,13.664062,11.25,13.539062,11.25,13.394531ZM2.679688,3.75L2.679688,2.679688C2.679688,2.535156,2.625,2.40625,2.519531,2.300781C2.414062,2.195312,2.289062,2.144531,2.144531,2.144531L1.070312,2.144531C0.925781,2.144531,0.800781,2.195312,0.695312,2.300781C0.589844,2.40625,0.535156,2.535156,0.535156,2.679688L0.535156,3.75C0.535156,3.894531,0.589844,4.019531,0.695312,4.125C0.800781,4.234375,0.925781,4.285156,1.070312,4.285156L2.144531,4.285156C2.289062,4.285156,2.414062,4.234375,2.519531,4.125C2.625,4.019531,2.679688,3.894531,2.679688,3.75ZM14.464844,13.394531L14.464844,12.320312C14.464844,12.175781,14.410156,12.050781,14.304688,11.945312C14.199219,11.839844,14.074219,11.785156,13.929688,11.785156L12.855469,11.785156C12.710938,11.785156,12.585938,11.839844,12.480469,11.945312C12.375,12.050781,12.320312,12.175781,12.320312,12.320312L12.320312,13.394531C12.320312,13.539062,12.375,13.664062,12.480469,13.769531C12.585938,13.875,12.710938,13.929688,12.855469,13.929688L13.929688,13.929688C14.074219,13.929688,14.199219,13.875,14.304688,13.769531C14.410156,13.664062,14.464844,13.539062,14.464844,13.394531ZM11.25,6.964844L11.25,2.679688C11.25,2.535156,11.195312,2.40625,11.089844,2.300781C10.984375,2.195312,10.859375,2.144531,10.714844,2.144531L4.285156,2.144531C4.140625,2.144531,4.015625,2.195312,3.910156,2.300781C3.804688,2.40625,3.75,2.535156,3.75,2.679688L3.75,6.964844C3.75,7.109375,3.804688,7.234375,3.910156,7.339844C4.015625,7.445312,4.140625,7.5,4.285156,7.5L10.714844,7.5C10.859375,7.5,10.984375,7.445312,11.089844,7.339844C11.195312,7.234375,11.25,7.109375,11.25,6.964844ZM14.464844,10.179688L14.464844,9.105469C14.464844,8.960938,14.410156,8.835938,14.304688,8.730469C14.199219,8.625,14.074219,8.570312,13.929688,8.570312L12.855469,8.570312C12.710938,8.570312,12.585938,8.625,12.480469,8.730469C12.375,8.835938,12.320312,8.960938,12.320312,9.105469L12.320312,10.179688C12.320312,10.324219,12.375,10.449219,12.480469,10.554688C12.585938,10.660156,12.710938,10.714844,12.855469,10.714844L13.929688,10.714844C14.074219,10.714844,14.199219,10.660156,14.304688,10.554688C14.410156,10.449219,14.464844,10.324219,14.464844,10.179688ZM14.464844,6.964844L14.464844,5.894531C14.464844,5.746094,14.410156,5.621094,14.304688,5.515625C14.199219,5.410156,14.074219,5.355469,13.929688,5.355469L12.855469,5.355469C12.710938,5.355469,12.585938,5.410156,12.480469,5.515625C12.375,5.621094,12.320312,5.746094,12.320312,5.894531L12.320312,6.964844C12.320312,7.109375,12.375,7.234375,12.480469,7.339844C12.585938,7.445312,12.710938,7.5,12.855469,7.5L13.929688,7.5C14.074219,7.5,14.199219,7.445312,14.304688,7.339844C14.410156,7.234375,14.464844,7.109375,14.464844,6.964844ZM14.464844,3.75L14.464844,2.679688C14.464844,2.535156,14.410156,2.40625,14.304688,2.300781C14.199219,2.195312,14.074219,2.144531,13.929688,2.144531L12.855469,2.144531C12.710938,2.144531,12.585938,2.195312,12.480469,2.300781C12.375,2.40625,12.320312,2.535156,12.320312,2.679688L12.320312,3.75C12.320312,3.894531,12.375,4.019531,12.480469,4.125C12.585938,4.234375,12.710938,4.285156,12.855469,4.285156L13.929688,4.285156C14.074219,4.285156,14.199219,4.234375,14.304688,4.125C14.410156,4.019531,14.464844,3.894531,14.464844,3.75ZM15.535156,2.410156L15.535156,13.660156C15.535156,14.027344,15.40625,14.34375,15.140625,14.605469C14.878906,14.867188,14.566406,15,14.195312,15L0.804688,15C0.433594,15,0.121094,14.867188,-0.140625,14.605469C-0.40625,14.34375,-0.535156,14.027344,-0.535156,13.660156L-0.535156,2.410156C-0.535156,2.042969,-0.40625,1.726562,-0.140625,1.464844C0.121094,1.203125,0.433594,1.070312,0.804688,1.070312L14.195312,1.070312C14.566406,1.070312,14.878906,1.203125,15.140625,1.464844C15.40625,1.726562,15.535156,2.042969,15.535156,2.410156ZM15.535156,2.410156" fill="#FFFFFF"/></svg>