<svg version="1.1" xmlns="http://www.w3.org/2000/svg" xlink="http://www.w3.org/1999/xlink" x="0px" y="0px" width="15px" height="15px" viewBox="0 0 15 15" style="enable-background:new 0 0 15 15;" space="preserve"><path d="M14.296875,1.875h-0.234375v0.5859375c0,0.193359375,-0.158203125,0.3515625,-0.3515625,0.3515625h-1.171875c-0.193359375,0,-0.3515625,-0.158203125,-0.3515625,-0.3515625V1.875H2.8125v0.5859375c0,0.193359375,-0.158203125,0.3515625,-0.3515625,0.3515625H1.2890625c-0.193359375,0,-0.3515625,-0.158203125,-0.3515625,-0.3515625V1.875h-0.234375C0.3134765625,1.875,0,2.1884765625,0,2.578125v9.84375c0,0.3896484375,0.3134765625,0.703125,0.703125,0.703125h0.234375v-0.5859375c0,-0.193359375,0.158203125,-0.3515625,0.3515625,-0.3515625h1.171875c0.193359375,0,0.3515625,0.158203125,0.3515625,0.3515625v0.5859375h9.375v-0.5859375c0,-0.193359375,0.158203125,-0.3515625,0.3515625,-0.3515625h1.171875c0.193359375,0,0.3515625,0.158203125,0.3515625,0.3515625v0.5859375h0.234375c0.3896484375,0,0.703125,-0.3134765625,0.703125,-0.703125V2.578125c0,-0.3896484375,-0.3134765625,-0.703125,-0.703125,-0.703125zM2.8125,10.8984375c0,0.193359375,-0.158203125,0.3515625,-0.3515625,0.3515625H1.2890625c-0.193359375,0,-0.3515625,-0.158203125,-0.3515625,-0.3515625v-1.171875c0,-0.193359375,0.158203125,-0.3515625,0.3515625,-0.3515625h1.171875c0.193359375,0,0.3515625,0.158203125,0.3515625,0.3515625v1.171875zm0,-2.8125c0,0.193359375,-0.158203125,0.3515625,-0.3515625,0.3515625H1.2890625c-0.193359375,0,-0.3515625,-0.158203125,-0.3515625,-0.3515625v-1.171875c0,-0.193359375,0.158203125,-0.3515625,0.3515625,-0.3515625h1.171875c0.193359375,0,0.3515625,0.158203125,0.3515625,0.3515625v1.171875zm0,-2.8125c0,0.193359375,-0.158203125,0.3515625,-0.3515625,0.3515625H1.2890625c-0.193359375,0,-0.3515625,-0.158203125,-0.3515625,-0.3515625v-1.171875c0,-0.193359375,0.158203125,-0.3515625,0.3515625,-0.3515625h1.171875c0.193359375,0,0.3515625,0.158203125,0.3515625,0.3515625v1.171875zm7.96875,6.09375c0,0.193359375,-0.158203125,0.3515625,-0.3515625,0.3515625H4.5703125c-0.193359375,0,-0.3515625,-0.158203125,-0.3515625,-0.3515625v-2.8125c0,-0.193359375,0.158203125,-0.3515625,0.3515625,-0.3515625h5.859375c0.193359375,0,0.3515625,0.158203125,0.3515625,0.3515625v2.8125zm0,-4.921875c0,0.193359375,-0.158203125,0.3515625,-0.3515625,0.3515625H4.5703125c-0.193359375,0,-0.3515625,-0.158203125,-0.3515625,-0.3515625v-2.8125c0,-0.193359375,0.158203125,-0.3515625,0.3515625,-0.3515625h5.859375c0.193359375,0,0.3515625,0.158203125,0.3515625,0.3515625v2.8125zm3.28125,4.453125c0,0.193359375,-0.158203125,0.3515625,-0.3515625,0.3515625h-1.171875c-0.193359375,0,-0.3515625,-0.158203125,-0.3515625,-0.3515625v-1.171875c0,-0.193359375,0.158203125,-0.3515625,0.3515625,-0.3515625h1.171875c0.193359375,0,0.3515625,0.158203125,0.3515625,0.3515625v1.171875zm0,-2.8125c0,0.193359375,-0.158203125,0.3515625,-0.3515625,0.3515625h-1.171875c-0.193359375,0,-0.3515625,-0.158203125,-0.3515625,-0.3515625v-1.171875c0,-0.193359375,0.158203125,-0.3515625,0.3515625,-0.3515625h1.171875c0.193359375,0,0.3515625,0.158203125,0.3515625,0.3515625v1.171875zm0,-2.8125c0,0.193359375,-0.158203125,0.3515625,-0.3515625,0.3515625h-1.171875c-0.193359375,0,-0.3515625,-0.158203125,-0.3515625,-0.3515625v-1.171875c0,-0.193359375,0.158203125,-0.3515625,0.3515625,-0.3515625h1.171875c0.193359375,0,0.3515625,0.158203125,0.3515625,0.3515625v1.171875z" fill="#FFFFFF"/></svg>