<svg version="1.1" xmlns="http://www.w3.org/2000/svg" xlink="http://www.w3.org/1999/xlink" x="0px" y="0px" width="15px" height="15px" viewBox="0 0 15 15" style="enable-background:new 0 0 15 15;" space="preserve"><path d="M15.535156,8.035156C15.53125,8.214844,14.726562,8.480469,13.125,8.839844L10.179688,9.105469L8.304688,9.644531L7.769531,9.644531L5.316406,12.589844L5.894531,12.589844C6.039062,12.589844,6.164062,12.601562,6.269531,12.625C6.375,12.652344,6.429688,12.683594,6.429688,12.722656C6.429688,12.761719,6.375,12.792969,6.269531,12.820312C6.164062,12.84375,6.039062,12.855469,5.894531,12.855469L3.214844,12.855469L3.214844,12.589844L3.75,12.589844L3.75,9.105469L2.410156,9.105469L0.804688,10.980469L0,10.980469L-0.269531,10.714844L-0.269531,9.105469L0,9.105469L0,8.839844L1.070312,8.839844L1.070312,8.773438L-0.535156,8.570312L-0.535156,7.5L1.070312,7.300781L1.070312,7.230469L0,7.230469L0,6.964844L-0.269531,6.964844L-0.269531,5.355469L0,5.089844L0.804688,5.089844L2.410156,6.964844L3.75,6.964844L3.75,3.480469L3.214844,3.480469L3.214844,3.214844L5.894531,3.214844C6.039062,3.214844,6.164062,3.226562,6.269531,3.25C6.375,3.277344,6.429688,3.308594,6.429688,3.347656C6.429688,3.386719,6.375,3.417969,6.269531,3.445312C6.164062,3.46875,6.039062,3.480469,5.894531,3.480469L5.316406,3.480469L7.769531,6.429688L8.304688,6.429688L10.179688,6.964844L13.125,7.230469C14.582031,7.554688,15.382812,7.816406,15.527344,8.011719ZM15.535156,8.035156" fill="#FFFFFF"/></svg>