<svg version="1.1" xmlns="http://www.w3.org/2000/svg" xlink="http://www.w3.org/1999/xlink" x="0px" y="0px" width="13.333333333333332px" height="15px" viewBox="0 0 13.333333333333332 15" style="enable-background:new 0 0 15 15;" space="preserve"><path d="M0,2.34375v10.3125c0,0.7763671875,0.6298828125,1.40625,1.40625,1.40625h1.40625V0.9375H1.40625C0.6298828125,0.9375,0,1.5673828125,0,2.34375zm3.75,11.71875h9.375V0.9375H3.75v13.125zm1.875,-7.265625c0,-0.12890625,0.10546875,-0.234375,0.234375,-0.234375h1.640625v-1.640625c0,-0.12890625,0.10546875,-0.234375,0.234375,-0.234375h1.40625c0.12890625,0,0.234375,0.10546875,0.234375,0.234375v1.640625h1.640625c0.12890625,0,0.234375,0.10546875,0.234375,0.234375v1.40625c0,0.12890625,-0.10546875,0.234375,-0.234375,0.234375h-1.640625v1.640625c0,0.12890625,-0.10546875,0.234375,-0.234375,0.234375h-1.40625c-0.12890625,0,-0.234375,-0.10546875,-0.234375,-0.234375v-1.640625h-1.640625c-0.12890625,0,-0.234375,-0.10546875,-0.234375,-0.234375v-1.40625zM15.46875,0.9375h-1.40625v13.125h1.40625c0.7763671875,0,1.40625,-0.6298828125,1.40625,-1.40625V2.34375c0,-0.7763671875,-0.6298828125,-1.40625,-1.40625,-1.40625z" fill="#FFFFFF"/></svg>