<svg version="1.1" xmlns="http://www.w3.org/2000/svg" xlink="http://www.w3.org/1999/xlink" x="0px" y="0px" width="15px" height="15px" viewBox="0 0 15 15" style="enable-background:new 0 0 15 15;" space="preserve"><path d="M8.890625,1.253906C7.121094,1.929688,5.570312,2.941406,4.234375,4.289062C2.902344,5.636719,1.902344,7.203125,1.238281,8.980469C1.128906,8.484375,1.070312,7.992188,1.070312,7.507812C1.070312,6.347656,1.355469,5.273438,1.929688,4.289062C2.5,3.304688,3.277344,2.527344,4.261719,1.953125C5.242188,1.382812,6.3125,1.097656,7.476562,1.097656C7.933594,1.097656,8.402344,1.148438,8.890625,1.253906ZM11.140625,2.25C11.660156,2.613281,12.117188,3.046875,12.515625,3.550781C10.34375,4.179688,8.460938,5.296875,6.867188,6.902344C5.273438,8.507812,4.167969,10.394531,3.550781,12.5625C3.03125,12.164062,2.597656,11.710938,2.25,11.207031C2.875,9.054688,3.980469,7.183594,5.558594,5.589844C7.136719,4,9,2.886719,11.140625,2.25ZM5.003906,13.417969C5.648438,11.429688,6.707031,9.695312,8.183594,8.210938C9.65625,6.726562,11.386719,5.65625,13.367188,4.996094C13.589844,5.511719,13.742188,6.054688,13.820312,6.628906C12.191406,7.300781,10.75,8.261719,9.5,9.515625C8.25,10.773438,7.292969,12.21875,6.628906,13.851562C6.054688,13.773438,5.511719,13.628906,5.003906,13.417969ZM13.929688,13.902344C12.851562,13.625,11.828125,13.304688,10.855469,12.941406C10.101562,13.410156,9.292969,13.707031,8.429688,13.835938C9.039062,12.691406,9.800781,11.660156,10.722656,10.734375C11.644531,9.8125,12.671875,9.042969,13.8125,8.429688C13.695312,9.277344,13.414062,10.070312,12.964844,10.804688C13.328125,11.78125,13.648438,12.816406,13.929688,13.902344ZM13.929688,13.902344" fill="#FFFFFF"/></svg>