<svg version="1.1" xmlns="http://www.w3.org/2000/svg" xlink="http://www.w3.org/1999/xlink" x="0px" y="0px" width="15px" height="15px" viewBox="0 0 15 15" style="enable-background:new 0 0 15 15;" space="preserve">
    <path d="M8.746094,7.574219C8.746094,7.429688,8.730469,7.25,8.695312,7.039062L5.667969,7.039062L5.667969,8.144531L7.484375,8.144531C7.464844,8.277344,7.421875,8.417969,7.34375,8.5625C7.269531,8.707031,7.164062,8.855469,7.03125,9.007812C6.898438,9.15625,6.710938,9.28125,6.476562,9.378906C6.238281,9.476562,5.96875,9.527344,5.667969,9.527344C5.113281,9.527344,4.644531,9.328125,4.253906,8.929688C3.863281,8.535156,3.667969,8.058594,3.667969,7.5C3.667969,6.941406,3.863281,6.464844,4.253906,6.070312C4.644531,5.671875,5.113281,5.472656,5.667969,5.472656C6.179688,5.472656,6.605469,5.640625,6.949219,5.96875L7.816406,5.121094C7.214844,4.566406,6.5,4.285156,5.667969,4.285156C4.773438,4.285156,4.015625,4.601562,3.390625,5.226562C2.765625,5.855469,2.453125,6.613281,2.453125,7.5C2.453125,8.386719,2.765625,9.144531,3.390625,9.773438C4.015625,10.398438,4.773438,10.714844,5.667969,10.714844C6.585938,10.714844,7.332031,10.421875,7.898438,9.835938C8.464844,9.25,8.746094,8.496094,8.746094,7.574219ZM11.636719,7.960938L12.546875,7.960938L12.546875,7.039062L11.636719,7.039062L11.636719,6.117188L10.714844,6.117188L10.714844,7.039062L9.792969,7.039062L9.792969,7.960938L10.714844,7.960938L10.714844,8.882812L11.636719,8.882812ZM13.929688,3.480469L13.929688,11.519531C13.929688,12.183594,13.691406,12.75,13.222656,13.222656C12.75,13.691406,12.183594,13.929688,11.519531,13.929688L3.480469,13.929688C2.816406,13.929688,2.25,13.691406,1.777344,13.222656C1.308594,12.75,1.070312,12.183594,1.070312,11.519531L1.070312,3.480469C1.070312,2.816406,1.308594,2.25,1.777344,1.777344C2.25,1.308594,2.816406,1.070312,3.480469,1.070312L11.519531,1.070312C12.183594,1.070312,12.75,1.308594,13.222656,1.777344C13.691406,2.25,13.929688,2.816406,13.929688,3.480469ZM13.929688,3.480469" fill="#FFFFFF"/>
    </svg>