<svg version="1.1" xmlns="http://www.w3.org/2000/svg" xlink="http://www.w3.org/1999/xlink" x="0px" y="0px" width="15px" height="15px" viewBox="0 0 15 15" style="enable-background:new 0 0 15 15;" space="preserve">
    <path d="M13.402344,1.070312C13.765625,1.070312,14.070312,1.199219,14.320312,1.453125C14.574219,1.707031,14.699219,2.015625,14.699219,2.378906L14.699219,6.722656C14.699219,7.703125,14.507812,8.640625,14.128906,9.535156C13.75,10.425781,13.242188,11.195312,12.601562,11.835938C11.960938,12.476562,11.199219,12.988281,10.308594,13.363281C9.417969,13.742188,8.484375,13.929688,7.507812,13.929688C6.527344,13.929688,5.589844,13.742188,4.699219,13.363281C3.808594,12.988281,3.042969,12.476562,2.402344,11.835938C1.761719,11.195312,1.25,10.425781,0.871094,9.535156C0.492188,8.640625,0.300781,7.703125,0.300781,6.722656L0.300781,2.378906C0.300781,2.019531,0.429688,1.714844,0.6875,1.457031C0.941406,1.199219,1.25,1.070312,1.605469,1.070312ZM7.507812,9.976562C7.769531,9.976562,8,9.886719,8.195312,9.703125L11.578125,6.453125C11.78125,6.257812,11.886719,6.019531,11.886719,5.742188C11.886719,5.46875,11.789062,5.234375,11.597656,5.042969C11.40625,4.851562,11.171875,4.753906,10.898438,4.753906C10.636719,4.753906,10.40625,4.847656,10.210938,5.03125L7.507812,7.625L4.804688,5.03125C4.609375,4.847656,4.382812,4.753906,4.125,4.753906C3.851562,4.753906,3.621094,4.851562,3.429688,5.042969C3.234375,5.234375,3.140625,5.46875,3.140625,5.742188C3.140625,6.027344,3.238281,6.265625,3.441406,6.453125L6.832031,9.703125C7.015625,9.886719,7.242188,9.976562,7.507812,9.976562ZM7.507812,9.976562" fill="#FFFFFF"/>
    </svg>