<svg version="1.1" xmlns="http://www.w3.org/2000/svg" xlink="http://www.w3.org/1999/xlink" x="0px" y="0px" width="15px" height="15px" viewBox="0 0 15 15" style="enable-background:new 0 0 15 15;" space="preserve"><path d="M11.753906,9.515625L11.753906,12.589844C11.753906,12.667969,11.726562,12.730469,11.675781,12.78125C11.625,12.832031,11.5625,12.855469,11.484375,12.855469L3.480469,12.855469C3.402344,12.855469,3.339844,12.832031,3.289062,12.78125C3.238281,12.730469,3.214844,12.667969,3.214844,12.589844L3.214844,11.332031C3.214844,11.261719,3.242188,11.199219,3.292969,11.144531C3.347656,11.09375,3.410156,11.066406,3.480469,11.066406L4.292969,11.066406L4.292969,7.859375L3.5,7.859375C3.421875,7.859375,3.355469,7.832031,3.304688,7.78125C3.257812,7.726562,3.230469,7.664062,3.230469,7.59375L3.230469,6.496094C3.230469,6.417969,3.257812,6.351562,3.304688,6.304688C3.355469,6.253906,3.421875,6.226562,3.5,6.226562L4.292969,6.226562L4.292969,4.359375C4.292969,3.40625,4.636719,2.621094,5.328125,2C6.015625,1.382812,6.894531,1.070312,7.960938,1.070312C8.992188,1.070312,9.925781,1.421875,10.765625,2.117188C10.816406,2.164062,10.84375,2.21875,10.847656,2.289062C10.855469,2.359375,10.835938,2.421875,10.789062,2.476562L9.925781,3.539062C9.878906,3.601562,9.816406,3.636719,9.742188,3.640625C9.671875,3.652344,9.605469,3.632812,9.550781,3.582031C9.523438,3.554688,9.449219,3.5,9.332031,3.421875C9.214844,3.34375,9.023438,3.257812,8.753906,3.15625C8.488281,3.054688,8.226562,3.003906,7.976562,3.003906C7.503906,3.003906,7.121094,3.136719,6.832031,3.398438C6.539062,3.660156,6.394531,4.003906,6.394531,4.429688L6.394531,6.226562L8.949219,6.226562C9.019531,6.226562,9.082031,6.253906,9.136719,6.304688C9.1875,6.351562,9.214844,6.417969,9.214844,6.496094L9.214844,7.59375C9.214844,7.664062,9.1875,7.726562,9.136719,7.78125C9.082031,7.832031,9.019531,7.859375,8.949219,7.859375L6.394531,7.859375L6.394531,11.03125L9.859375,11.03125L9.859375,9.515625C9.859375,9.445312,9.886719,9.382812,9.9375,9.328125C9.984375,9.277344,10.050781,9.25,10.128906,9.25L11.484375,9.25C11.5625,9.25,11.625,9.277344,11.675781,9.328125C11.726562,9.382812,11.753906,9.445312,11.753906,9.515625ZM11.753906,9.515625" fill="#FFFFFF"/></svg>