<svg version="1.1" xmlns="http://www.w3.org/2000/svg" xlink="http://www.w3.org/1999/xlink" x="0px" y="0px" width="15px" height="15px" viewBox="0 0 15 15" style="enable-background:new 0 0 15 15;" space="preserve"><path d="M6.5384325,7.6603327V6.6709825c0,-0.072215,-0.025276,-0.1299875,-0.072216,-0.1769273C6.422888,6.4471155,6.3615043,6.4254505,6.289289,6.4254505H4.805265V4.937815C4.805265,4.8656,4.779989,4.8078275,4.733049,4.7608877C4.6897206,4.713948,4.6283368,4.692283,4.5561216,4.692283H3.5667722c-0.072215,0,-0.133599,0.021665,-0.1769273,0.068605c-0.046941,0.04694,-0.072216,0.104712,-0.072216,0.1769273V6.4254505H1.8336047c-0.072215,0,-0.133599,0.021665,-0.1769273,0.068605c-0.046941,0.04694,-0.072216,0.104712,-0.072216,0.1769273V7.660333c0,0.072215,0.025275,0.1335982,0.072216,0.1805379c0.043329,0.04694,0.104712,0.068605,0.1769273,0.068605h1.484024v1.4840253c0,0.072216,0.025275,0.1335982,0.072216,0.1805372c0.043329,0.046935,0.104712,0.068609,0.1769273,0.068609h0.9893494c0.072215,0,0.133599,-0.021664,0.1769272,-0.068609c0.046941,-0.046935,0.072216,-0.1083221,0.072216,-0.1805372V7.9094753h1.484024c0.072215,0,0.1335989,-0.021665,0.1769272,-0.068605c0.046941,-0.04694,0.072216,-0.1083225,0.072217,-0.1805376zm4.4556845,0.4982852c0,-0.2744182,-0.09749,-0.5091177,-0.288861,-0.700488c-0.194983,-0.1949819,-0.429681,-0.2924727,-0.700488,-0.2924727c-0.2744196,0,-0.5091191,0.097491,-0.7004895,0.2924727c-0.1949808,0.1913703,-0.2924717,0.4260698,-0.2924717,0.700488c0,0.2708077,0.097491,0.5055073,0.2924717,0.6968786c0.1913704,0.1949804,0.4260699,0.2924715,0.7004895,0.2924715c0.270807,0,0.505505,-0.097487,0.700488,-0.2924715c0.19137,-0.1913713,0.288861,-0.4260709,0.288861,-0.6968786zm1.98231,-1.98231c0,-0.2744183,-0.09749,-0.5055072,-0.292472,-0.7004881c-0.191371,-0.1949819,-0.42607,-0.2888612,-0.700489,-0.2888612c-0.270807,0,-0.505507,0.09388,-0.700488,0.2888612c-0.19137,0.1949809,-0.288861,0.4260698,-0.288861,0.7004881c0,0.2744181,0.09749,0.5055072,0.288861,0.700488c0.194981,0.1949818,0.429681,0.2888613,0.700488,0.2888613c0.274419,0,0.509118,-0.09388,0.700489,-0.2888613c0.194981,-0.1949808,0.292472,-0.4260699,0.292472,-0.700488zm1.978699,0.9893493c0,1.0940621,-0.386351,2.0292508,-1.159055,2.8019541c-0.776315,0.7727047,-1.707892,1.1590567,-2.801954,1.1590567c-0.989349,0,-1.8631552,-0.32858,-2.6141945,-0.98935H6.6756411c-0.7510392,0.66077,-1.6248449,0.98935,-2.6141942,0.98935c-1.0940623,0,-2.0256394,-0.386352,-2.8019542,-1.1590567C0.48678845,9.194908,0.10043722,8.2597193,0.10043722,7.1656572c0,-1.0940613,0.38635123,-2.0256394,1.15905548,-2.7983427c0.7763148,-0.7763148,1.7078919,-1.162667,2.8019542,-1.162667h6.9326701c1.094062,0,2.025639,0.3863522,2.801954,1.162667c0.772704,0.7727033,1.159055,1.7042814,1.159055,2.7983427zm0,0" fill="#FFFFFF"/></svg>