<svg version="1.1" xmlns="http://www.w3.org/2000/svg" xlink="http://www.w3.org/1999/xlink" x="0px" y="0px" width="15px" height="15px" viewBox="0 0 15 15" style="enable-background:new 0 0 15 15;" space="preserve">
    <path d="M4.371094,11.316406C4.324219,11.367188,4.269531,11.359375,4.203125,11.292969C4.128906,11.230469,4.117188,11.175781,4.167969,11.132812C4.214844,11.082031,4.269531,11.089844,4.335938,11.15625C4.402344,11.21875,4.414062,11.273438,4.371094,11.316406ZM4.019531,10.804688C4.066406,10.875,4.066406,10.925781,4.019531,10.964844C3.972656,11,3.925781,10.980469,3.875,10.90625C3.824219,10.835938,3.824219,10.785156,3.875,10.757812C3.925781,10.71875,3.972656,10.734375,4.019531,10.804688ZM3.507812,10.304688C3.480469,10.34375,3.441406,10.347656,3.398438,10.320312C3.34375,10.292969,3.324219,10.257812,3.339844,10.21875C3.355469,10.191406,3.394531,10.1875,3.449219,10.203125C3.503906,10.230469,3.523438,10.265625,3.507812,10.304688ZM3.765625,10.589844C3.734375,10.628906,3.6875,10.621094,3.632812,10.5625C3.582031,10.503906,3.578125,10.457031,3.617188,10.429688C3.648438,10.394531,3.695312,10.40625,3.75,10.453125C3.800781,10.515625,3.804688,10.5625,3.765625,10.589844ZM4.847656,11.527344C4.824219,11.59375,4.769531,11.609375,4.6875,11.578125C4.59375,11.554688,4.554688,11.511719,4.578125,11.449219C4.601562,11.390625,4.652344,11.371094,4.738281,11.390625C4.828125,11.421875,4.863281,11.464844,4.847656,11.527344ZM5.375,11.566406C5.375,11.628906,5.328125,11.660156,5.238281,11.660156C5.144531,11.671875,5.097656,11.640625,5.097656,11.566406C5.097656,11.507812,5.140625,11.476562,5.230469,11.476562C5.328125,11.464844,5.375,11.496094,5.375,11.566406ZM5.859375,11.484375C5.871094,11.539062,5.832031,11.578125,5.742188,11.601562C5.652344,11.625,5.601562,11.601562,5.589844,11.535156C5.582031,11.46875,5.621094,11.425781,5.707031,11.410156C5.796875,11.398438,5.847656,11.421875,5.859375,11.484375ZM13.929688,3.480469L13.929688,11.519531C13.929688,12.183594,13.691406,12.75,13.222656,13.222656C12.75,13.691406,12.183594,13.929688,11.519531,13.929688L9.644531,13.929688C9.554688,13.929688,9.484375,13.925781,9.4375,13.921875C9.390625,13.914062,9.335938,13.902344,9.273438,13.878906C9.214844,13.855469,9.167969,13.816406,9.140625,13.757812C9.113281,13.699219,9.097656,13.621094,9.097656,13.527344L9.097656,11.527344C9.097656,10.984375,8.953125,10.589844,8.664062,10.335938C8.980469,10.304688,9.265625,10.253906,9.523438,10.1875C9.773438,10.121094,10.039062,10.011719,10.308594,9.859375C10.578125,9.710938,10.804688,9.523438,10.984375,9.304688C11.167969,9.082031,11.316406,8.789062,11.429688,8.425781C11.542969,8.058594,11.601562,7.640625,11.601562,7.164062C11.601562,6.488281,11.382812,5.914062,10.941406,5.441406C11.148438,4.933594,11.125,4.363281,10.875,3.734375C10.71875,3.683594,10.492188,3.714844,10.195312,3.824219C9.898438,3.9375,9.644531,4.058594,9.425781,4.195312L9.105469,4.394531C8.589844,4.25,8.050781,4.175781,7.5,4.175781C6.949219,4.175781,6.410156,4.25,5.894531,4.394531C5.804688,4.332031,5.683594,4.257812,5.539062,4.167969C5.390625,4.078125,5.15625,3.972656,4.839844,3.847656C4.519531,3.71875,4.28125,3.683594,4.117188,3.734375C3.871094,4.363281,3.851562,4.933594,4.058594,5.441406C3.617188,5.914062,3.398438,6.488281,3.398438,7.164062C3.398438,7.640625,3.457031,8.058594,3.570312,8.421875C3.683594,8.785156,3.832031,9.078125,4.007812,9.300781C4.1875,9.523438,4.414062,9.710938,4.683594,9.859375C4.953125,10.011719,5.214844,10.121094,5.46875,10.1875C5.722656,10.253906,6.011719,10.304688,6.328125,10.335938C6.105469,10.539062,5.96875,10.824219,5.917969,11.199219C5.800781,11.253906,5.675781,11.296875,5.542969,11.324219C5.40625,11.351562,5.25,11.367188,5.0625,11.367188C4.878906,11.367188,4.695312,11.308594,4.515625,11.1875C4.335938,11.066406,4.179688,10.894531,4.050781,10.664062C3.945312,10.484375,3.808594,10.339844,3.644531,10.230469C3.480469,10.117188,3.34375,10.050781,3.230469,10.027344L3.0625,10.003906C2.945312,10.003906,2.867188,10.015625,2.820312,10.039062C2.777344,10.066406,2.761719,10.097656,2.777344,10.136719C2.796875,10.175781,2.820312,10.214844,2.855469,10.253906C2.886719,10.292969,2.925781,10.328125,2.964844,10.355469L3.023438,10.394531C3.144531,10.453125,3.265625,10.558594,3.386719,10.714844C3.503906,10.871094,3.59375,11.011719,3.648438,11.140625L3.734375,11.332031C3.804688,11.546875,3.929688,11.71875,4.101562,11.847656C4.273438,11.980469,4.460938,12.0625,4.664062,12.101562C4.863281,12.136719,5.058594,12.15625,5.242188,12.15625C5.429688,12.160156,5.585938,12.152344,5.707031,12.128906L5.902344,12.09375C5.902344,12.308594,5.902344,12.59375,5.90625,12.957031C5.90625,13.320312,5.910156,13.511719,5.910156,13.527344C5.910156,13.648438,5.878906,13.742188,5.816406,13.808594C5.757812,13.871094,5.695312,13.90625,5.632812,13.914062C5.570312,13.925781,5.480469,13.929688,5.355469,13.929688L3.480469,13.929688C2.816406,13.929688,2.25,13.691406,1.777344,13.222656C1.308594,12.75,1.070312,12.183594,1.070312,11.519531L1.070312,3.480469C1.070312,2.816406,1.308594,2.25,1.777344,1.777344C2.25,1.308594,2.816406,1.070312,3.480469,1.070312L11.519531,1.070312C12.183594,1.070312,12.75,1.308594,13.222656,1.777344C13.691406,2.25,13.929688,2.816406,13.929688,3.480469ZM13.929688,3.480469" fill="#FFFFFF"/>
    </svg>