<svg version="1.1" xmlns="http://www.w3.org/2000/svg" xlink="http://www.w3.org/1999/xlink" x="0px" y="0px" width="15px" height="15px" viewBox="0 0 15 15" style="enable-background:new 0 0 15 15;" space="preserve"><path d="M4.980469,12.671875C4.980469,12.113281,4.519531,11.835938,3.597656,11.835938C2.71875,11.835938,2.277344,12.125,2.277344,12.707031C2.277344,13.269531,2.757812,13.550781,3.714844,13.550781C4.558594,13.550781,4.980469,13.257812,4.980469,12.671875ZM4.488281,6.351562C4.488281,6.011719,4.402344,5.726562,4.234375,5.5C4.066406,5.269531,3.820312,5.15625,3.492188,5.15625C2.796875,5.15625,2.453125,5.5625,2.453125,6.371094C2.453125,7.125,2.796875,7.5,3.492188,7.5C4.15625,7.5,4.488281,7.117188,4.488281,6.351562ZM6.738281,3.640625L6.738281,5.332031C6.539062,5.398438,6.316406,5.460938,6.078125,5.515625C6.167969,5.757812,6.210938,5.992188,6.210938,6.21875C6.210938,6.929688,6.007812,7.53125,5.601562,8.03125C5.191406,8.53125,4.644531,8.84375,3.949219,8.972656C3.726562,9.019531,3.5625,9.09375,3.453125,9.199219C3.34375,9.304688,3.289062,9.46875,3.289062,9.683594C3.289062,9.859375,3.351562,10,3.476562,10.117188C3.601562,10.230469,3.765625,10.320312,3.964844,10.382812C4.160156,10.449219,4.378906,10.507812,4.621094,10.566406C4.859375,10.625,5.101562,10.699219,5.339844,10.78125C5.582031,10.863281,5.800781,10.96875,5.996094,11.09375C6.195312,11.21875,6.359375,11.398438,6.484375,11.632812C6.609375,11.863281,6.671875,12.136719,6.671875,12.457031C6.671875,14.152344,5.660156,15,3.632812,15C3.246094,15,2.886719,14.964844,2.542969,14.894531C2.203125,14.824219,1.878906,14.710938,1.574219,14.550781C1.265625,14.394531,1.023438,14.164062,0.839844,13.867188C0.660156,13.566406,0.570312,13.210938,0.570312,12.796875C0.570312,11.878906,1.078125,11.25,2.09375,10.914062L2.09375,10.882812C1.71875,10.652344,1.53125,10.300781,1.53125,9.828125C1.53125,9.21875,1.707031,8.835938,2.058594,8.679688L2.058594,8.648438C1.65625,8.511719,1.324219,8.210938,1.058594,7.738281C0.792969,7.265625,0.660156,6.804688,0.660156,6.351562C0.660156,5.578125,0.925781,4.929688,1.457031,4.414062C1.988281,3.898438,2.640625,3.640625,3.421875,3.640625C3.960938,3.640625,4.457031,3.773438,4.914062,4.035156C5.460938,4.035156,6.070312,3.902344,6.738281,3.640625ZM9.398438,11.015625L7.542969,11.015625C7.5625,10.765625,7.574219,10.390625,7.574219,9.894531L7.574219,4.796875C7.574219,4.273438,7.5625,3.914062,7.542969,3.726562L9.398438,3.726562C9.378906,3.910156,9.367188,4.253906,9.367188,4.761719L9.367188,9.894531C9.367188,10.390625,9.378906,10.765625,9.398438,11.015625ZM14.429688,9.15625L14.429688,10.796875C14.035156,11.015625,13.550781,11.125,12.972656,11.125C12.628906,11.125,12.328125,11.070312,12.078125,10.957031C11.828125,10.84375,11.632812,10.707031,11.492188,10.539062C11.351562,10.371094,11.242188,10.152344,11.164062,9.886719C11.082031,9.617188,11.03125,9.359375,11.007812,9.117188C10.984375,8.871094,10.972656,8.582031,10.972656,8.253906L10.972656,5.316406L10.992188,5.316406L10.992188,5.28125C10.953125,5.28125,10.898438,5.277344,10.832031,5.273438C10.765625,5.269531,10.714844,5.265625,10.679688,5.265625C10.5625,5.265625,10.398438,5.28125,10.1875,5.316406L10.1875,3.726562L10.992188,3.726562L10.992188,3.089844C10.992188,2.789062,10.972656,2.539062,10.941406,2.34375L12.839844,2.34375C12.808594,2.574219,12.789062,3.03125,12.789062,3.726562L14.222656,3.726562L14.222656,5.316406C14.136719,5.316406,14.015625,5.308594,13.859375,5.296875C13.699219,5.289062,13.578125,5.28125,13.5,5.28125L12.789062,5.28125L12.789062,8.335938C12.789062,9.066406,13.03125,9.433594,13.519531,9.433594C13.859375,9.433594,14.164062,9.339844,14.429688,9.15625ZM9.609375,1.230469C9.609375,1.554688,9.5,1.835938,9.28125,2.078125C9.066406,2.324219,8.796875,2.445312,8.480469,2.445312C8.15625,2.445312,7.882812,2.324219,7.660156,2.078125C7.4375,1.835938,7.324219,1.554688,7.324219,1.230469C7.324219,0.902344,7.433594,0.613281,7.65625,0.367188C7.875,0.121094,8.148438,0,8.480469,0C8.804688,0,9.070312,0.125,9.289062,0.371094C9.5,0.621094,9.609375,0.90625,9.609375,1.230469ZM9.609375,1.230469" fill="#FFFFFF"/></svg>