<svg version="1.1" xmlns="http://www.w3.org/2000/svg" xlink="http://www.w3.org/1999/xlink" x="0px" y="0px" width="15px" height="15px" viewBox="0 0 15 15" style="enable-background:new 0 0 15 15;" space="preserve"><path d="M14.794072265625001,5.84068359375l-0.662900390625,-0.662900390625c-0.274599609375,-0.274599609375,-0.7197949218749999,-0.274599609375,-0.994365234375,0l-0.165732421875,0.165732421875L9.656484375,2.0289550781249996l0.165732421875,-0.165732421875c0.274599609375,-0.274599609375,0.274599609375,-0.7197949218749999,0,-0.994365234375L9.15931640625,0.205927734375c-0.274599609375,-0.274599609375,-0.7197949218749999,-0.274599609375,-0.994365234375,0L4.51892578125,3.8519531249999996c-0.274599609375,0.274599609375,-0.274599609375,0.7197949218749999,0,0.994365234375l0.662900390625,0.662900390625c0.274599609375,0.274599609375,0.7197949218749999,0.274599609375,0.994365234375,0l0.165732421875,-0.165732421875l1.16009765625,1.16009765625l-2.3742187500000003,2.3742187500000003l-0.165732421875,-0.165732421875c-0.36612304687499997,-0.36612304687499997,-0.9597070312500001,-0.36612304687499997,-1.325830078125,0L0.274599609375,12.073769531249999c-0.36612304687499997,0.36612304687499997,-0.36612304687499997,0.9597070312500001,0,1.325830078125l1.325830078125,1.325830078125c0.36612304687499997,0.36612304687499997,0.9597070312500001,0.36612304687499997,1.325830078125,0l3.3616699218750004,-3.3616699218750004c0.36612304687499997,-0.36612304687499997,0.36612304687499997,-0.9597070312500001,0,-1.325830078125l-0.165732421875,-0.165732421875l2.3742187500000003,-2.3742187500000003l1.16009765625,1.16009765625l-0.165732421875,0.165732421875c-0.274599609375,0.274599609375,-0.274599609375,0.7197949218749999,0,0.994365234375l0.662900390625,0.662900390625c0.274599609375,0.274599609375,0.7197949218749999,0.274599609375,0.994365234375,0l3.6460253906249998,-3.6460253906249998c0.27457031249999997,-0.27457031249999997,0.27457031249999997,-0.7197656250000001,0,-0.994365234375z" fill="#FFFFFF"/></svg>