<svg version="1.1" xmlns="http://www.w3.org/2000/svg" xlink="http://www.w3.org/1999/xlink" x="0px" y="0px" width="15px" height="15px" viewBox="0 0 15 15" style="enable-background:new 0 0 15 15;" space="preserve">
    <path d="M7.5,6.578125L13.570312,6.578125C13.636719,6.953125,13.667969,7.308594,13.667969,7.652344C13.667969,8.863281,13.414062,9.941406,12.90625,10.894531C12.398438,11.84375,11.675781,12.589844,10.734375,13.125C9.792969,13.660156,8.714844,13.929688,7.5,13.929688C6.625,13.929688,5.789062,13.757812,4.996094,13.421875C4.203125,13.085938,3.519531,12.628906,2.945312,12.054688C2.371094,11.480469,1.914062,10.796875,1.578125,10.003906C1.238281,9.210938,1.070312,8.375,1.070312,7.5C1.070312,6.625,1.238281,5.789062,1.578125,4.996094C1.914062,4.203125,2.371094,3.519531,2.945312,2.945312C3.519531,2.371094,4.203125,1.914062,4.996094,1.578125C5.789062,1.238281,6.625,1.070312,7.5,1.070312C9.175781,1.070312,10.609375,1.632812,11.8125,2.753906L10.0625,4.4375C9.375,3.773438,8.519531,3.441406,7.5,3.441406C6.78125,3.441406,6.113281,3.621094,5.503906,3.984375C4.890625,4.347656,4.410156,4.839844,4.050781,5.460938C3.695312,6.082031,3.515625,6.761719,3.515625,7.5C3.515625,8.238281,3.695312,8.914062,4.050781,9.539062C4.410156,10.160156,4.890625,10.652344,5.503906,11.015625C6.113281,11.378906,6.78125,11.558594,7.5,11.558594C7.984375,11.558594,8.433594,11.492188,8.839844,11.359375C9.246094,11.226562,9.582031,11.058594,9.84375,10.855469C10.105469,10.65625,10.335938,10.425781,10.53125,10.171875C10.726562,9.914062,10.867188,9.671875,10.960938,9.441406C11.054688,9.214844,11.117188,8.996094,11.148438,8.789062L7.5,8.789062ZM7.5,6.578125" fill="#FFFFFF"/>
    </svg>