<svg version="1.1" xmlns="http://www.w3.org/2000/svg" xlink="http://www.w3.org/1999/xlink" x="0px" y="0px" width="15px" height="15px" viewBox="0 0 15 15" style="enable-background:new 0 0 15 15;" space="preserve"><path d="M14.53125,10.3125h-0.46875V7.03125c0,-0.258984375,-0.209765625,-0.46875,-0.46875,-0.46875h-0.46875v-2.34375c0,-0.258984375,-0.209765625,-0.46875,-0.46875,-0.46875h-0.46875V0.46875c0,-0.258984375,-0.209765625,-0.46875,-0.46875,-0.46875s-0.46875,0.209765625,-0.46875,0.46875v0.46875h-1.875V0.46875c0,-0.258984375,-0.209765625,-0.46875,-0.46875,-0.46875s-0.46875,0.209765625,-0.46875,0.46875v0.46875h-1.875V0.46875c0,-0.258984375,-0.209765625,-0.46875,-0.46875,-0.46875s-0.46875,0.209765625,-0.46875,0.46875v0.46875h-1.875V0.46875c0,-0.258984375,-0.209765625,-0.46875,-0.46875,-0.46875S2.8125,0.209765625,2.8125,0.46875v3.28125H2.34375c-0.258984375,0,-0.46875,0.209765625,-0.46875,0.46875v2.34375H1.40625c-0.258984375,0,-0.46875,0.209765625,-0.46875,0.46875v3.28125H0.46875c-0.258984375,0,-0.46875,0.209765625,-0.46875,0.46875v3.75c0,0.258984375,0.209765625,0.46875,0.46875,0.46875h2.34375V10.3125h0.9375V6.5625h0.9375v-2.8125h0.9375v2.8125h-0.9375v3.75h-0.9375v4.6875h2.34375v-2.34375c0,-0.258984375,0.209765625,-0.46875,0.46875,-0.46875h1.875c0.258984375,0,0.46875,0.209765625,0.46875,0.46875v2.34375h2.34375V10.3125h-0.9375V6.5625h-0.9375v-2.8125h0.9375v2.8125h0.9375v3.75h0.9375v4.6875h2.34375c0.258984375,0,0.46875,-0.209765625,0.46875,-0.46875V10.78125c0,-0.258984375,-0.209765625,-0.46875,-0.46875,-0.46875zm-7.96875,0v-1.875c0,-0.258984375,0.209765625,-0.46875,0.46875,-0.46875h0.9375c0.258984375,0,0.46875,0.209765625,0.46875,0.46875v1.875h-1.875zm0.234375,-3.75v-1.40625c0,-0.258984375,0.209765625,-0.46875,0.46875,-0.46875h0.46875c0.258984375,0,0.46875,0.209765625,0.46875,0.46875v1.40625h-1.40625z" fill="#FFFFFF"/></svg>