<svg version="1.1" xmlns="http://www.w3.org/2000/svg" xlink="http://www.w3.org/1999/xlink" x="0px" y="0px" width="15px" height="15px" viewBox="0 0 15 15" style="enable-background:new 0 0 15 15;" space="preserve"><path d="M5.894531,10.179688C5.894531,10.402344,5.859375,10.628906,5.789062,10.863281C5.71875,11.097656,5.597656,11.3125,5.429688,11.5C5.257812,11.691406,5.054688,11.785156,4.820312,11.785156C4.585938,11.785156,4.382812,11.691406,4.214844,11.5C4.042969,11.3125,3.925781,11.097656,3.855469,10.863281C3.785156,10.628906,3.75,10.402344,3.75,10.179688C3.75,9.957031,3.785156,9.726562,3.855469,9.492188C3.925781,9.257812,4.042969,9.046875,4.214844,8.855469C4.382812,8.667969,4.585938,8.570312,4.820312,8.570312C5.054688,8.570312,5.257812,8.667969,5.429688,8.855469C5.597656,9.046875,5.71875,9.257812,5.789062,9.492188C5.859375,9.726562,5.894531,9.957031,5.894531,10.179688ZM11.25,10.179688C11.25,10.402344,11.214844,10.628906,11.144531,10.863281C11.074219,11.097656,10.957031,11.3125,10.785156,11.5C10.613281,11.691406,10.414062,11.785156,10.179688,11.785156C9.945312,11.785156,9.742188,11.691406,9.570312,11.5C9.402344,11.3125,9.28125,11.097656,9.210938,10.863281C9.140625,10.628906,9.105469,10.402344,9.105469,10.179688C9.105469,9.957031,9.140625,9.726562,9.210938,9.492188C9.28125,9.257812,9.402344,9.046875,9.570312,8.855469C9.742188,8.667969,9.945312,8.570312,10.179688,8.570312C10.414062,8.570312,10.613281,8.667969,10.785156,8.855469C10.957031,9.046875,11.074219,9.257812,11.144531,9.492188C11.214844,9.726562,11.25,9.957031,11.25,10.179688ZM12.589844,10.179688C12.589844,9.507812,12.398438,8.941406,12.011719,8.472656C11.625,8.003906,11.105469,7.769531,10.445312,7.769531C10.21875,7.769531,9.671875,7.828125,8.8125,7.945312C8.417969,8.003906,7.980469,8.035156,7.5,8.035156C7.019531,8.035156,6.582031,8.003906,6.1875,7.945312C5.335938,7.828125,4.792969,7.769531,4.554688,7.769531C3.894531,7.769531,3.375,8.003906,2.988281,8.472656C2.601562,8.941406,2.410156,9.507812,2.410156,10.179688C2.410156,10.667969,2.5,11.097656,2.679688,11.464844C2.855469,11.828125,3.082031,12.117188,3.355469,12.324219C3.628906,12.535156,3.96875,12.703125,4.378906,12.828125C4.785156,12.953125,5.175781,13.035156,5.550781,13.074219C5.921875,13.113281,6.339844,13.132812,6.796875,13.132812L8.203125,13.132812C8.660156,13.132812,9.078125,13.113281,9.449219,13.074219C9.824219,13.035156,10.214844,12.953125,10.621094,12.828125C11.03125,12.703125,11.371094,12.535156,11.644531,12.324219C11.917969,12.117188,12.144531,11.828125,12.320312,11.464844C12.5,11.097656,12.589844,10.667969,12.589844,10.179688ZM14.464844,8.707031C14.464844,9.859375,14.292969,10.785156,13.953125,11.476562C13.742188,11.90625,13.445312,12.277344,13.070312,12.589844C12.695312,12.902344,12.300781,13.140625,11.890625,13.308594C11.480469,13.476562,11.003906,13.609375,10.46875,13.707031C9.929688,13.804688,9.449219,13.867188,9.03125,13.890625C8.613281,13.914062,8.148438,13.929688,7.632812,13.929688C7.199219,13.929688,6.800781,13.921875,6.445312,13.902344C6.089844,13.886719,5.675781,13.851562,5.210938,13.796875C4.746094,13.746094,4.320312,13.660156,3.933594,13.546875C3.550781,13.433594,3.167969,13.289062,2.789062,13.117188C2.40625,12.945312,2.070312,12.71875,1.773438,12.4375C1.480469,12.160156,1.238281,11.839844,1.054688,11.476562C0.707031,10.789062,0.535156,9.867188,0.535156,8.707031C0.535156,7.382812,0.914062,6.277344,1.675781,5.390625C1.523438,4.933594,1.449219,4.457031,1.449219,3.96875C1.449219,3.320312,1.589844,2.710938,1.875,2.144531C2.476562,2.144531,3.007812,2.253906,3.464844,2.472656C3.921875,2.695312,4.449219,3.039062,5.046875,3.507812C5.867188,3.3125,6.730469,3.214844,7.632812,3.214844C8.460938,3.214844,9.242188,3.304688,9.976562,3.480469C10.5625,3.023438,11.085938,2.6875,11.542969,2.46875C12,2.25,12.527344,2.144531,13.125,2.144531C13.410156,2.710938,13.550781,3.320312,13.550781,3.96875C13.550781,4.453125,13.476562,4.921875,13.324219,5.375C14.085938,6.265625,14.464844,7.378906,14.464844,8.707031ZM14.464844,8.707031" fill="#FFFFFF"/></svg>