<svg version="1.1" xmlns="http://www.w3.org/2000/svg" xlink="http://www.w3.org/1999/xlink" x="0px" y="0px" width="15px" height="15px" viewBox="0 0 15 15" style="enable-background:new 0 0 15 15;" space="preserve"><path d="M5.941406,10.949219C5.941406,11.316406,5.683594,11.5,5.164062,11.5C4.566406,11.5,4.269531,11.324219,4.269531,10.972656C4.269531,10.617188,4.542969,10.4375,5.089844,10.4375C5.660156,10.4375,5.941406,10.609375,5.941406,10.949219ZM5.640625,7.046875C5.640625,7.523438,5.433594,7.757812,5.023438,7.757812C4.59375,7.757812,4.378906,7.523438,4.378906,7.054688C4.378906,6.554688,4.59375,6.304688,5.023438,6.304688C5.222656,6.304688,5.375,6.375,5.484375,6.515625C5.589844,6.660156,5.640625,6.835938,5.640625,7.046875ZM7.03125,6.421875L7.03125,5.375C6.597656,5.535156,6.21875,5.617188,5.902344,5.617188C5.621094,5.453125,5.316406,5.375,4.980469,5.375C4.5,5.375,4.097656,5.53125,3.765625,5.851562C3.4375,6.167969,3.273438,6.566406,3.273438,7.046875C3.273438,7.328125,3.355469,7.613281,3.519531,7.902344C3.683594,8.191406,3.890625,8.378906,4.136719,8.460938L4.136719,8.488281C3.921875,8.582031,3.816406,8.820312,3.816406,9.199219C3.816406,9.496094,3.929688,9.710938,4.160156,9.84375L4.160156,9.867188C3.53125,10.074219,3.214844,10.464844,3.214844,11.03125C3.214844,11.285156,3.269531,11.503906,3.382812,11.6875C3.492188,11.875,3.644531,12.019531,3.832031,12.117188C4.023438,12.214844,4.222656,12.285156,4.4375,12.328125C4.648438,12.375,4.875,12.398438,5.113281,12.398438C6.363281,12.398438,6.988281,11.871094,6.988281,10.824219C6.988281,10.449219,6.855469,10.171875,6.585938,9.996094C6.320312,9.816406,5.96875,9.6875,5.53125,9.609375C5.382812,9.582031,5.238281,9.523438,5.101562,9.4375C4.964844,9.351562,4.898438,9.242188,4.898438,9.105469C4.898438,8.863281,5.035156,8.714844,5.308594,8.671875C5.738281,8.589844,6.078125,8.394531,6.328125,8.085938C6.578125,7.777344,6.703125,7.40625,6.703125,6.964844C6.703125,6.832031,6.675781,6.683594,6.621094,6.527344C6.828125,6.480469,6.964844,6.441406,7.03125,6.421875ZM7.523438,9.925781L8.671875,9.925781C8.660156,9.777344,8.65625,9.546875,8.65625,9.242188L8.65625,6C8.65625,5.746094,8.660156,5.550781,8.671875,5.425781L7.523438,5.425781C7.542969,5.550781,7.550781,5.75,7.550781,6.019531L7.550781,9.300781C7.550781,9.578125,7.542969,9.789062,7.523438,9.925781ZM11.785156,9.792969L11.785156,8.78125C11.617188,8.898438,11.429688,8.957031,11.214844,8.957031C10.921875,8.957031,10.773438,8.726562,10.773438,8.269531L10.773438,6.386719L11.207031,6.386719C11.257812,6.386719,11.332031,6.390625,11.429688,6.394531C11.527344,6.402344,11.601562,6.402344,11.652344,6.402344L11.652344,5.425781L10.773438,5.425781C10.773438,4.964844,10.78125,4.683594,10.796875,4.570312L9.625,4.570312C9.648438,4.703125,9.660156,4.859375,9.660156,5.03125L9.660156,5.425781L9.15625,5.425781L9.15625,6.402344C9.359375,6.386719,9.460938,6.378906,9.46875,6.378906C9.484375,6.378906,9.515625,6.378906,9.558594,6.382812C9.605469,6.386719,9.636719,6.386719,9.660156,6.386719L9.660156,6.402344L9.644531,6.402344L9.644531,8.21875C9.644531,8.425781,9.648438,8.605469,9.664062,8.753906C9.675781,8.90625,9.710938,9.0625,9.761719,9.226562C9.808594,9.394531,9.878906,9.527344,9.964844,9.632812C10.050781,9.742188,10.171875,9.828125,10.328125,9.894531C10.484375,9.960938,10.667969,9.996094,10.882812,9.996094C11.238281,9.996094,11.539062,9.925781,11.785156,9.792969ZM8.804688,3.882812C8.804688,3.683594,8.738281,3.503906,8.605469,3.351562C8.472656,3.199219,8.304688,3.121094,8.101562,3.121094C7.902344,3.121094,7.734375,3.199219,7.597656,3.347656C7.460938,3.5,7.390625,3.675781,7.390625,3.882812C7.390625,4.085938,7.460938,4.257812,7.601562,4.40625C7.738281,4.554688,7.90625,4.628906,8.101562,4.628906C8.296875,4.628906,8.464844,4.554688,8.601562,4.402344C8.738281,4.253906,8.804688,4.078125,8.804688,3.882812ZM13.929688,3.480469L13.929688,11.519531C13.929688,12.183594,13.691406,12.75,13.222656,13.222656C12.75,13.691406,12.183594,13.929688,11.519531,13.929688L3.480469,13.929688C2.816406,13.929688,2.25,13.691406,1.777344,13.222656C1.308594,12.75,1.070312,12.183594,1.070312,11.519531L1.070312,3.480469C1.070312,2.816406,1.308594,2.25,1.777344,1.777344C2.25,1.308594,2.816406,1.070312,3.480469,1.070312L11.519531,1.070312C12.183594,1.070312,12.75,1.308594,13.222656,1.777344C13.691406,2.25,13.929688,2.816406,13.929688,3.480469ZM13.929688,3.480469" fill="#FFFFFF"/></svg>