<svg version="1.1" xmlns="http://www.w3.org/2000/svg" xlink="http://www.w3.org/1999/xlink" x="0px" y="0px" width="15px" height="15px" viewBox="0 0 15 15" style="enable-background:new 0 0 15 15;" space="preserve">
    <path d="M7.542969,10.898438L10.472656,6.9375C10.5625,6.816406,10.628906,6.652344,10.675781,6.445312C10.722656,6.238281,10.707031,6,10.625,5.734375C10.546875,5.464844,10.375,5.246094,10.113281,5.074219C9.886719,4.925781,9.65625,4.855469,9.417969,4.859375C9.175781,4.863281,8.972656,4.910156,8.800781,5.003906C8.632812,5.101562,8.480469,5.226562,8.34375,5.382812C8.144531,5.605469,7.875,5.71875,7.542969,5.71875C7.210938,5.71875,6.949219,5.605469,6.746094,5.382812C6.613281,5.226562,6.460938,5.101562,6.289062,5.003906C6.121094,4.910156,5.914062,4.863281,5.675781,4.859375C5.433594,4.855469,5.199219,4.925781,4.972656,5.074219C4.714844,5.246094,4.546875,5.464844,4.464844,5.734375C4.382812,6,4.367188,6.238281,4.414062,6.445312C4.460938,6.652344,4.53125,6.816406,4.621094,6.9375ZM13.929688,7.5C13.929688,8.667969,13.640625,9.742188,13.066406,10.726562C12.492188,11.710938,11.710938,12.492188,10.726562,13.066406C9.742188,13.640625,8.667969,13.929688,7.5,13.929688C6.332031,13.929688,5.257812,13.640625,4.273438,13.066406C3.289062,12.492188,2.507812,11.710938,1.933594,10.726562C1.359375,9.742188,1.070312,8.667969,1.070312,7.5C1.070312,6.332031,1.359375,5.257812,1.933594,4.273438C2.507812,3.289062,3.289062,2.507812,4.273438,1.933594C5.257812,1.359375,6.332031,1.070312,7.5,1.070312C8.667969,1.070312,9.742188,1.359375,10.726562,1.933594C11.710938,2.507812,12.492188,3.289062,13.066406,4.273438C13.640625,5.257812,13.929688,6.332031,13.929688,7.5ZM13.929688,7.5" fill="#FFFFFF"/>
    </svg>