<svg version="1.1" xmlns="http://www.w3.org/2000/svg" xlink="http://www.w3.org/1999/xlink" x="0px" y="0px" width="15px" height="15px" viewBox="0 0 15 15" style="enable-background:new 0 0 15 15;" space="preserve"><path d="M5.355469,1.070312C5.0625,1.070312,4.808594,1.175781,4.601562,1.386719C4.390625,1.59375,4.285156,1.847656,4.285156,2.144531L4.285156,9.644531L3.023438,7.953125C2.792969,7.652344,2.496094,7.5,2.125,7.5C1.835938,7.5,1.585938,7.605469,1.382812,7.816406C1.175781,8.03125,1.070312,8.28125,1.070312,8.570312C1.070312,8.8125,1.144531,9.027344,1.289062,9.214844L4.503906,13.5C4.714844,13.785156,5,13.929688,5.355469,13.929688L11.367188,13.929688C11.488281,13.929688,11.601562,13.890625,11.699219,13.816406C11.796875,13.742188,11.859375,13.644531,11.886719,13.527344L12.65625,10.445312C12.789062,9.910156,12.855469,9.371094,12.855469,8.824219L12.855469,7.007812C12.855469,6.777344,12.777344,6.578125,12.621094,6.410156C12.464844,6.246094,12.277344,6.160156,12.054688,6.160156C11.832031,6.160156,11.640625,6.238281,11.484375,6.394531C11.328125,6.550781,11.25,6.742188,11.25,6.964844L10.980469,6.964844L10.980469,6.453125C10.980469,6.1875,10.894531,5.957031,10.714844,5.773438C10.535156,5.585938,10.3125,5.492188,10.042969,5.492188C9.789062,5.492188,9.566406,5.582031,9.382812,5.765625C9.199219,5.953125,9.105469,6.171875,9.105469,6.429688L9.105469,6.964844L8.839844,6.964844L8.839844,6.210938C8.839844,5.902344,8.734375,5.640625,8.53125,5.421875C8.324219,5.199219,8.070312,5.089844,7.769531,5.089844C7.472656,5.089844,7.21875,5.195312,7.011719,5.402344C6.800781,5.613281,6.695312,5.863281,6.695312,6.160156L6.695312,6.964844L6.429688,6.964844L6.429688,2.191406C6.429688,1.886719,6.324219,1.621094,6.117188,1.402344C5.914062,1.179688,5.660156,1.070312,5.355469,1.070312ZM5.355469,0C5.953125,0,6.460938,0.214844,6.875,0.648438C7.292969,1.082031,7.5,1.597656,7.5,2.191406L7.5,4.035156C7.621094,4.023438,7.710938,4.019531,7.769531,4.019531C8.320312,4.019531,8.804688,4.210938,9.214844,4.59375C9.476562,4.476562,9.753906,4.417969,10.042969,4.417969C10.675781,4.417969,11.1875,4.664062,11.585938,5.148438C11.734375,5.109375,11.890625,5.089844,12.054688,5.089844C12.578125,5.089844,13.023438,5.277344,13.382812,5.65625C13.746094,6.03125,13.929688,6.480469,13.929688,7.007812L13.929688,8.824219C13.929688,9.46875,13.851562,10.097656,13.695312,10.707031L12.925781,13.785156C12.835938,14.144531,12.644531,14.433594,12.355469,14.660156C12.066406,14.886719,11.734375,15,11.367188,15L5.355469,15C5.023438,15,4.703125,14.921875,4.398438,14.769531C4.09375,14.617188,3.84375,14.410156,3.640625,14.144531L0.425781,9.859375C0.140625,9.480469,0,9.050781,0,8.570312C0,7.984375,0.207031,7.480469,0.625,7.0625C1.039062,6.640625,1.539062,6.429688,2.125,6.429688C2.523438,6.429688,2.886719,6.527344,3.214844,6.722656L3.214844,2.144531C3.214844,1.550781,3.421875,1.046875,3.84375,0.628906C4.261719,0.210938,4.765625,0,5.355469,0ZM6.429688,11.785156L6.429688,8.570312L6.160156,8.570312L6.160156,11.785156ZM8.570312,11.785156L8.570312,8.570312L8.304688,8.570312L8.304688,11.785156ZM10.714844,11.785156L10.714844,8.570312L10.445312,8.570312L10.445312,11.785156ZM10.714844,11.785156" fill="#FFFFFF"/></svg>