<svg version="1.1" xmlns="http://www.w3.org/2000/svg" xlink="http://www.w3.org/1999/xlink" x="0px" y="0px" width="15px" height="15px" viewBox="0 0 15 15" style="enable-background:new 0 0 15 15;" space="preserve">
    <path d="M1.070312,8.570312L15.535156,8.570312C15.679688,8.570312,15.804688,8.625,15.914062,8.730469C16.019531,8.835938,16.070312,8.960938,16.070312,9.105469L16.070312,12.855469L13.929688,12.855469L13.929688,10.714844L1.070312,10.714844L1.070312,12.855469L-1.070312,12.855469L-1.070312,2.679688C-1.070312,2.535156,-1.019531,2.40625,-0.914062,2.300781C-0.804688,2.195312,-0.679688,2.144531,-0.535156,2.144531L0.535156,2.144531C0.679688,2.144531,0.804688,2.195312,0.914062,2.300781C1.019531,2.40625,1.070312,2.535156,1.070312,2.679688ZM5.894531,5.894531C5.894531,5.300781,5.683594,4.796875,5.265625,4.378906C4.847656,3.960938,4.339844,3.75,3.75,3.75C3.160156,3.75,2.652344,3.960938,2.234375,4.378906C1.816406,4.796875,1.605469,5.300781,1.605469,5.894531C1.605469,6.484375,1.816406,6.988281,2.234375,7.40625C2.652344,7.828125,3.160156,8.035156,3.75,8.035156C4.339844,8.035156,4.847656,7.828125,5.265625,7.40625C5.683594,6.988281,5.894531,6.484375,5.894531,5.894531ZM16.070312,8.035156L16.070312,7.5C16.070312,6.613281,15.757812,5.855469,15.128906,5.226562C14.5,4.601562,13.746094,4.285156,12.855469,4.285156L6.964844,4.285156C6.820312,4.285156,6.695312,4.339844,6.585938,4.445312C6.480469,4.550781,6.429688,4.675781,6.429688,4.820312L6.429688,8.035156ZM16.070312,8.035156" fill="#FFFFFF"/>
    </svg>