<svg version="1.1" xmlns="http://www.w3.org/2000/svg" xlink="http://www.w3.org/1999/xlink" x="0px" y="0px" width="15px" height="12px" viewBox="0 0 15 12" style="enable-background:new 0 0 15 15;" space="preserve">
    <path d="M10.188281250000001,1.5h-2.01328125c-0.1875,0,-0.36796875,0.0703125,-0.50625,0.19687500000000002l-2.3039062500000003,2.109375c-0.0023437500000000003,0.0023437500000000003,-0.004687500000000001,0.00703125,-0.00703125,0.009375000000000001c-0.3890625000000001,0.36562500000000003,-0.38203125000000004,0.94921875,-0.049218750000000006,1.3125c0.29765625,0.32578125,0.9234375,0.41250000000000003,1.31484375,0.06328125c0.0023437500000000003,-0.0023437500000000003,0.00703125,-0.0023437500000000003,0.009375000000000001,-0.004687500000000001l1.8726562500000001,-1.7156250000000002c0.15234375,-0.13828125,0.39140625,-0.12890625,0.5296875,0.0234375c0.140625,0.15234375,0.12890625,0.3890625000000001,-0.0234375,0.5296875l-0.6117187500000001,0.56015625L11.8125,7.354687500000001c0.06796875000000001,0.05625,0.12890625,0.1171875,0.18515625000000002,0.18046875V3l-1.2796875,-1.2796875c-0.13828125,-0.140625,-0.33046875000000003,-0.22031250000000002,-0.5296875,-0.22031250000000002zM12.75,3.0046874999999997v5.24765625c0,0.41484375,0.33515625000000004,0.75,0.75,0.75h1.5V3.0046874999999997h-2.25zm1.125,5.24765625c-0.20625000000000002,0,-0.375,-0.16875,-0.375,-0.375s0.16875,-0.375,0.375,-0.375s0.375,0.16875,0.375,0.375s-0.16875,0.375,-0.375,0.375zM0,9h1.5c0.41484375,0,0.75,-0.33515625000000004,0.75,-0.75V3.0046874999999997H0V9zm1.125,-1.4976562500000001c0.20625000000000002,0,0.375,0.16875,0.375,0.375s-0.16875,0.375,-0.375,0.375s-0.375,-0.16875,-0.375,-0.375c0,-0.20859375000000002,0.16875,-0.375,0.375,-0.375zm10.21640625,0.43593750000000003L7.8421875000000005,5.09765625l-0.703125,0.64453125c-0.6960937500000001,0.6351562500000001,-1.7625000000000002,0.57421875,-2.38359375,-0.10312500000000001c-0.63046875,-0.6890625,-0.58125,-1.7554687500000001,0.10312500000000001,-2.38359375L6.7757812500000005,1.5h-1.9640625c-0.19921875,0,-0.3890625000000001,0.07968750000000001,-0.5296875,0.22031250000000002L3,3v5.24765625h0.42890625000000004l2.12109375,1.9195312500000001c0.6421875,0.52265625,1.5867187500000002,0.42421875000000003,2.109375,-0.21796875000000002l0.004687500000000001,-0.004687500000000001l0.41953125,0.36328125c0.37265625,0.3046875,0.9234375,0.24609375,1.22578125,-0.1265625l0.7359375,-0.9046875000000001l0.1265625,0.10312500000000001c0.32109375,0.26015625000000003,0.79453125,0.21328125,1.0546875,-0.11015625000000001l0.22265625,-0.27421875c0.2625,-0.32343750000000004,0.21328125,-0.79453125,-0.1078125,-1.05703125z" fill="#FFFFFF"/>
    </svg>