<svg version="1.1" xmlns="http://www.w3.org/2000/svg" xlink="http://www.w3.org/1999/xlink" x="0px" y="0px" width="14.117647058823529px" height="15px" viewBox="0 0 14.117647058823529 15" style="enable-background:new 0 0 15 15;" space="preserve">
    <path d="M7.546875000000002,4.2275390625l1.46484375,0.4189453125c0.10546875,0.029296875,0.1787109375,0.12890625,0.1787109375,0.2373046875c0,0.134765625,-0.111328125,0.24609375,-0.24609375,0.24609375h-0.9609374999999998c-0.10546875,0,-0.2080078125,-0.0234375,-0.3017578125,-0.064453125c-0.140625,-0.064453125,-0.3046875,-0.0498046875,-0.4130859375,0.05859375l-0.5126953125,0.5126953125c-0.1552734375,0.1552734375,-0.1376953125,0.4189453125,0.0439453125,0.5390625c0.2783203125,0.1845703125,0.5947265625,0.2958984375,0.931640625,0.3369140625V7.03125c0,0.2578125,0.2109375,0.46875,0.46875,0.46875h0.46875c0.2578125,0,0.46875,-0.2109375,0.46875,-0.46875v-0.515625c0.8876953125,-0.10546875,1.5615234375,-0.908203125,1.4443359375,-1.845703125c-0.0849609375,-0.673828125,-0.6064453125,-1.2099609375,-1.2568359375,-1.3974609375l-1.46484375,-0.4189453125c-0.10546875,-0.029296875,-0.1787109375,-0.12890625,-0.1787109375,-0.2373046875c0,-0.134765625,0.111328125,-0.24609375,0.24609375,-0.24609375h0.9609374999999998c0.10546875,0,0.2080078125,0.0234375,0.3017578125,0.064453125c0.140625,0.064453125,0.3046875,0.0498046875,0.4130859375,-0.05859375l0.5126953125,-0.5126953125c0.1552734375,-0.1552734375,0.1376953125,-0.4189453125,-0.0439453125,-0.5390625c-0.2783203125,-0.1845703125,-0.5947265625,-0.2958984375,-0.931640625,-0.3369140625V0.46875c0,-0.2578125,-0.2109375,-0.46875,-0.46875,-0.46875h-0.46875c-0.2578125,0,-0.46875,0.2109375,-0.46875,0.46875v0.515625c-0.8876953125,0.10546875,-1.5615234375,0.908203125,-1.4443359375,1.845703125c0.0849609375,0.673828125,0.6064453125,1.2099609375,1.2568359375,1.3974609375zm8.0947265625,5.384765625c-0.328125,-0.3134765625,-0.8349609375,-0.29296875,-1.1806640625,0L11.90625,11.77734375c-0.3134765625,0.2666015625,-0.703125,0.41015625,-1.107421875,0.41015625H7.526367187499999c-0.24316406250000006,0,-0.4423828125,-0.2109375,-0.4423828125,-0.46875s0.19921875,-0.46875,0.4423828125,-0.46875h2.1650390625c0.4423828125,0,0.849609375,-0.3193359375,0.919921875,-0.779296875c0.0908203125,-0.5859375,-0.3369140625,-1.095703125,-0.873046875,-1.095703125H5.3115234375c-0.7470703125,0,-1.470703125,0.2724609375,-2.0478515625,0.7705078125L1.9775390625,11.25H0.4423828125C0.19921875,11.25,0,11.4609375,0,11.71875v2.8125c0,0.2578125,0.19921875,0.46875,0.4423828125,0.46875H10.3125c0.4013671875,0,0.791015625,-0.1435546875,1.107421875,-0.41015625l4.18359375,-3.544921875c0.421875,-0.3544921875,0.4541015625,-1.0341796875,0.0380859375,-1.4326171875z" fill="#FFFFFF"/>
    </svg>