<svg version="1.1" xmlns="http://www.w3.org/2000/svg" xlink="http://www.w3.org/1999/xlink" x="0px" y="0px" width="15px" height="15px" viewBox="0 0 15 15" style="enable-background:new 0 0 15 15;" space="preserve"><path d="M5.625,6.09375c0,-0.51767578125,-0.41982421875,-0.9375,-0.9375,-0.9375h-0.46875c-1.03564453125,0,-1.875,0.83935546875,-1.875,1.875v1.40625c0,1.03564453125,0.83935546875,1.875,1.875,1.875h0.46875c0.51767578125,0,0.9375,-0.41982421875,0.9375,-0.9375V6.09375zm5.15625,4.21875c1.03564453125,0,1.875,-0.83935546875,1.875,-1.875v-1.40625c0,-1.03564453125,-0.83935546875,-1.875,-1.875,-1.875h-0.46875c-0.51767578125,0,-0.9375,0.41982421875,-0.9375,0.9375v3.28125c0,0.51767578125,0.41982421875,0.9375,0.9375,0.9375h0.46875zM7.5,0C3.3158203125,0,0.1341796875,3.48134765625,0,7.5v0.46875c0,0.258984375,0.209765625,0.46875,0.46875,0.46875h0.46875c0.258984375,0,0.46875,-0.209765625,0.46875,-0.46875v-0.46875c0,-3.36005859375,2.73369140625,-6.09375,6.09375,-6.09375s6.09375,2.73369140625,6.09375,6.09375h-0.0035156249999999997c0.00234375,0.07119140625,0.0035156249999999997,4.855078125,0.0035156249999999997,4.855078125c0,0.68408203125,-0.55458984375,1.238671875,-1.238671875,1.238671875H9.375c0,-0.7766601562500001,-0.6295898437499999,-1.40625,-1.40625,-1.40625h-0.9375c-0.7766601562500001,0,-1.40625,0.6295898437499999,-1.40625,1.40625s0.6295898437499999,1.40625,1.40625,1.40625h5.323828125c1.4607421875,0,2.644921875,-1.1841796875000001,2.644921875,-2.644921875V7.5C14.8658203125,3.48134765625,11.6841796875,0,7.5,0z" fill="#FFFFFF"/></svg>