<svg version="1.1" xmlns="http://www.w3.org/2000/svg" xlink="http://www.w3.org/1999/xlink" x="0px" y="0px" width="15px" height="15px" viewBox="0 0 15 15" style="enable-background:new 0 0 15 15;" space="preserve"><path d="M14.078125,13.929688C13.832031,13.929688,13.464844,13.917969,12.96875,13.898438C12.476562,13.878906,12.105469,13.871094,11.851562,13.871094C11.605469,13.871094,11.238281,13.878906,10.746094,13.898438C10.257812,13.917969,9.886719,13.929688,9.644531,13.929688C9.507812,13.929688,9.40625,13.871094,9.332031,13.757812C9.261719,13.640625,9.222656,13.515625,9.222656,13.375C9.222656,13.203125,9.273438,13.074219,9.367188,12.992188C9.460938,12.90625,9.570312,12.859375,9.691406,12.847656C9.816406,12.835938,9.957031,12.816406,10.121094,12.789062C10.28125,12.761719,10.40625,12.71875,10.496094,12.664062C10.679688,12.546875,10.773438,12.15625,10.773438,11.492188L10.765625,8.21875C10.765625,8.101562,10.761719,8.015625,10.757812,7.960938C10.683594,7.9375,10.542969,7.925781,10.335938,7.925781L4.6875,7.925781C4.476562,7.925781,4.332031,7.9375,4.261719,7.960938C4.253906,8.015625,4.253906,8.101562,4.253906,8.21875L4.242188,11.324219C4.242188,12.117188,4.347656,12.574219,4.554688,12.699219C4.644531,12.753906,4.777344,12.789062,4.957031,12.808594C5.132812,12.824219,5.292969,12.832031,5.433594,12.835938C5.570312,12.839844,5.699219,12.878906,5.808594,12.960938C5.921875,13.042969,5.976562,13.167969,5.976562,13.34375C5.976562,13.488281,5.941406,13.621094,5.871094,13.746094C5.800781,13.867188,5.699219,13.929688,5.566406,13.929688C5.304688,13.929688,4.914062,13.917969,4.398438,13.898438C3.882812,13.878906,3.496094,13.871094,3.238281,13.871094C3,13.871094,2.640625,13.878906,2.167969,13.898438C1.695312,13.917969,1.339844,13.929688,1.105469,13.929688C0.976562,13.929688,0.878906,13.871094,0.808594,13.753906C0.738281,13.636719,0.703125,13.511719,0.703125,13.375C0.703125,13.207031,0.746094,13.082031,0.832031,13C0.917969,12.914062,1.019531,12.867188,1.132812,12.851562C1.25,12.839844,1.382812,12.816406,1.53125,12.789062C1.683594,12.761719,1.800781,12.71875,1.882812,12.664062C2.066406,12.535156,2.160156,12.136719,2.160156,11.46875L2.152344,10.992188L2.152344,4.183594C2.152344,4.167969,2.152344,4.097656,2.15625,3.96875C2.15625,3.839844,2.15625,3.738281,2.15625,3.664062C2.152344,3.585938,2.148438,3.480469,2.144531,3.339844C2.136719,3.199219,2.128906,3.082031,2.113281,2.988281C2.101562,2.894531,2.082031,2.792969,2.058594,2.683594C2.035156,2.574219,2.007812,2.484375,1.96875,2.417969C1.929688,2.351562,1.882812,2.300781,1.832031,2.269531C1.75,2.210938,1.625,2.179688,1.457031,2.167969C1.289062,2.15625,1.140625,2.152344,1.011719,2.152344C0.882812,2.152344,0.769531,2.113281,0.667969,2.035156C0.570312,1.957031,0.519531,1.832031,0.519531,1.65625C0.519531,1.511719,0.550781,1.378906,0.621094,1.253906C0.6875,1.132812,0.785156,1.070312,0.921875,1.070312C1.175781,1.070312,1.5625,1.082031,2.078125,1.101562C2.597656,1.121094,2.984375,1.128906,3.238281,1.128906C3.472656,1.128906,3.828125,1.121094,4.296875,1.101562C4.769531,1.082031,5.121094,1.070312,5.355469,1.070312C5.496094,1.070312,5.601562,1.132812,5.671875,1.253906C5.742188,1.378906,5.777344,1.511719,5.777344,1.65625C5.777344,1.824219,5.726562,1.945312,5.632812,2.023438C5.539062,2.097656,5.429688,2.136719,5.3125,2.144531C5.191406,2.148438,5.054688,2.160156,4.898438,2.175781C4.742188,2.191406,4.621094,2.230469,4.535156,2.285156C4.339844,2.402344,4.242188,2.847656,4.242188,3.625L4.253906,6.304688C4.253906,6.421875,4.253906,6.507812,4.261719,6.570312C4.332031,6.585938,4.441406,6.597656,4.585938,6.597656L10.4375,6.597656C10.578125,6.597656,10.683594,6.585938,10.757812,6.570312C10.761719,6.507812,10.765625,6.421875,10.765625,6.304688L10.773438,3.625C10.773438,2.847656,10.675781,2.402344,10.480469,2.285156C10.378906,2.222656,10.214844,2.1875,9.992188,2.179688C9.765625,2.171875,9.578125,2.136719,9.4375,2.070312C9.296875,2.007812,9.222656,1.871094,9.222656,1.65625C9.222656,1.511719,9.257812,1.378906,9.328125,1.253906C9.398438,1.132812,9.503906,1.070312,9.644531,1.070312C9.886719,1.070312,10.257812,1.082031,10.746094,1.101562C11.238281,1.121094,11.605469,1.128906,11.851562,1.128906C12.09375,1.128906,12.453125,1.121094,12.933594,1.101562C13.414062,1.082031,13.773438,1.070312,14.011719,1.070312C14.152344,1.070312,14.257812,1.132812,14.328125,1.253906C14.394531,1.378906,14.429688,1.511719,14.429688,1.65625C14.429688,1.824219,14.382812,1.949219,14.285156,2.027344C14.1875,2.105469,14.074219,2.144531,13.949219,2.148438C13.824219,2.148438,13.679688,2.15625,13.519531,2.171875C13.355469,2.1875,13.234375,2.222656,13.148438,2.277344C12.953125,2.40625,12.855469,2.855469,12.855469,3.625L12.867188,11.519531C12.867188,12.183594,12.960938,12.574219,13.148438,12.691406C13.238281,12.746094,13.367188,12.78125,13.535156,12.804688C13.703125,12.820312,13.851562,12.835938,13.984375,12.839844C14.113281,12.847656,14.230469,12.890625,14.332031,12.96875C14.429688,13.050781,14.480469,13.175781,14.480469,13.34375C14.480469,13.488281,14.449219,13.621094,14.378906,13.746094C14.3125,13.867188,14.214844,13.929688,14.078125,13.929688ZM14.078125,13.929688" fill="#FFFFFF"/></svg>