<svg version="1.1" xmlns="http://www.w3.org/2000/svg" xlink="http://www.w3.org/1999/xlink" x="0px" y="0px" width="15px" height="15px" viewBox="0 0 15 15" style="enable-background:new 0 0 15 15;" space="preserve"><path d="M4.7542373,5.5550848C4.5081683,5.2277667,4.0415659,5.1604459,3.7142479,5.4065149C3.3869298,5.6525838,3.319609,6.1191862,3.5656779,6.4465043L4.4501333,7.625778c0.1114273,0.1485699,0.095177,0.3551749,-0.034821,0.4851736l-0.29714,0.2971398C3.9626382,8.5636255,3.7096051,8.5520186,3.5703208,8.382556L1.4856991,5.8800815V2.4351166C1.4856991,2.0242279,1.1537383,1.692267,0.74284957,1.692267C0.3319609,1.692267,0,2.0242279,0,2.4351166V7.5050649C0,7.7580981,0.08589198,8.004167,0.24374752,8.2014864L2.6603301,11.319133c0.1160702,0.150892,0.1949979,0.322675,0.241426,0.503745c0.041786,0.160177,0.1880339,0.269283,0.355175,0.269283h3.0572903c0.2042836,0,0.3714248,-0.167141,0.3714248,-0.371425V9.1207627c0,-0.6430291,-0.2089264,-1.2674871,-0.5942797,-1.7828389zM14.114142,1.692267c-0.410889,0,-0.742849,0.3319609,-0.742849,0.7428496V5.8800815L11.28667,8.382556c-0.139283,0.1671412,-0.394638,0.1787482,-0.547851,0.025535L10.44168,8.1109516C10.311681,7.9809529,10.295431,7.7743479,10.406859,7.625778L11.291313,6.4465043C11.537383,6.1191862,11.470062,5.6525838,11.142744,5.4065149C10.815425,5.1604459,10.348823,5.2277667,10.102754,5.5550848L8.765625,7.3379238C8.3802718,7.8532756,8.1713453,8.4777336,8.1713453,9.1207627v2.5999733c0,0.204284,0.1671412,0.371425,0.3714248,0.371425H11.60006c0.16482,0,0.313391,-0.109106,0.355175,-0.269283c0.04643,-0.18107,0.125357,-0.352853,0.241426,-0.503745L14.613244,8.2014864C14.7711,8.004167,14.856991,7.7580981,14.856991,7.5050649V2.4351166c0,-0.4108887,-0.331961,-0.7428496,-0.742849,-0.7428496z" fill="#FFFFFF"/></svg>