<svg version="1.1" xmlns="http://www.w3.org/2000/svg" xlink="http://www.w3.org/1999/xlink" x="0px" y="0px" width="15px" height="15px" viewBox="0 0 15 15" style="enable-background:new 0 0 15 15;" space="preserve">
    <path d="M8.296875,8.570312L8.832031,6.429688L6.703125,6.429688L6.167969,8.570312ZM14.722656,4.351562L14.253906,6.226562C14.214844,6.363281,14.128906,6.429688,13.996094,6.429688L11.257812,6.429688L10.722656,8.570312L13.324219,8.570312C13.410156,8.570312,13.480469,8.605469,13.535156,8.671875C13.589844,8.75,13.609375,8.828125,13.585938,8.90625L13.117188,10.78125C13.089844,10.914062,13.003906,10.980469,12.855469,10.980469L10.121094,10.980469L9.441406,13.726562C9.402344,13.863281,9.316406,13.929688,9.183594,13.929688L7.308594,13.929688C7.21875,13.929688,7.144531,13.894531,7.089844,13.828125C7.039062,13.761719,7.023438,13.683594,7.039062,13.59375L7.691406,10.980469L5.566406,10.980469L4.886719,13.726562C4.847656,13.863281,4.761719,13.929688,4.628906,13.929688L2.746094,13.929688C2.660156,13.929688,2.59375,13.894531,2.535156,13.828125C2.484375,13.761719,2.46875,13.683594,2.484375,13.59375L3.140625,10.980469L0.535156,10.980469C0.453125,10.980469,0.382812,10.949219,0.328125,10.882812C0.277344,10.816406,0.257812,10.738281,0.277344,10.648438L0.746094,8.773438C0.785156,8.636719,0.871094,8.570312,1.003906,8.570312L3.742188,8.570312L4.277344,6.429688L1.675781,6.429688C1.589844,6.429688,1.519531,6.394531,1.464844,6.328125C1.410156,6.25,1.390625,6.171875,1.414062,6.09375L1.882812,4.21875C1.910156,4.085938,1.996094,4.019531,2.144531,4.019531L4.878906,4.019531L5.558594,1.273438C5.597656,1.136719,5.6875,1.070312,5.824219,1.070312L7.699219,1.070312C7.785156,1.070312,7.855469,1.105469,7.910156,1.171875C7.960938,1.238281,7.976562,1.316406,7.960938,1.40625L7.308594,4.019531L9.433594,4.019531L10.113281,1.273438C10.152344,1.136719,10.238281,1.070312,10.378906,1.070312L12.253906,1.070312C12.339844,1.070312,12.40625,1.105469,12.464844,1.171875C12.515625,1.238281,12.53125,1.316406,12.515625,1.40625L11.859375,4.019531L14.464844,4.019531C14.546875,4.019531,14.617188,4.050781,14.671875,4.117188C14.722656,4.183594,14.742188,4.261719,14.722656,4.351562ZM14.722656,4.351562" fill="#FFFFFF"/>
    </svg>