<svg version="1.1" xmlns="http://www.w3.org/2000/svg" xlink="http://www.w3.org/1999/xlink" x="0px" y="0px" width="15px" height="15px" viewBox="0 0 15 15" style="enable-background:new 0 0 15 15;" space="preserve"><path d="M7.5,0.9375C3.355078125,0.9375,0,4.291875,0,8.4375v1.40625a0.9375,0.9375,0,0,0,0.518232421875,0.83853515625l0.42137695312499995,0.210673828125C0.998525390625,12.653408203125,2.443974609375,14.0625,4.21875,14.0625h0.703125c0.38833007812500003,0,0.703125,-0.31479492187499997,0.703125,-0.703125V8.203125c0,-0.38833007812500003,-0.31479492187499997,-0.703125,-0.703125,-0.703125h-0.703125c-0.91822265625,0,-1.7481738281249999,0.377314453125,-2.34375,0.9851660156250001V8.4375c0,-3.101630859375,2.523369140625,-5.625,5.625,-5.625s5.625,2.523369140625,5.625,5.625v0.047666015625C12.529423828125,7.877314453125001,11.69947265625,7.5,10.78125,7.5h-0.703125c-0.38833007812500003,0,-0.703125,0.31479492187499997,-0.703125,0.703125v5.15625c0,0.38833007812500003,0.31479492187499997,0.703125,0.703125,0.703125h0.703125c1.7747753906250001,0,3.220224609375,-1.40912109375,3.279140625,-3.169541015625l0.42134765625,-0.210673828125A0.9375,0.9375,0,0,0,15,9.84375v-1.40625c0,-4.144892578125001,-3.3543749999999997,-7.5,-7.5,-7.5z" fill="#FFFFFF"/></svg>