<svg version="1.1" xmlns="http://www.w3.org/2000/svg" xlink="http://www.w3.org/1999/xlink" x="0px" y="0px" width="15px" height="15px" viewBox="0 0 15 15" style="enable-background:new 0 0 15 15;" space="preserve"><path d="M14.464844,7.417969C14.464844,8.34375,14.296875,9.21875,13.960938,10.042969L13.792969,10.453125L12.246094,10.730469C12.125,11.195312,11.871094,11.574219,11.488281,11.875C11.105469,12.171875,10.667969,12.320312,10.179688,12.320312L10.179688,12.589844C10.179688,12.667969,10.152344,12.730469,10.101562,12.78125C10.054688,12.832031,9.988281,12.855469,9.910156,12.855469L9.375,12.855469C9.296875,12.855469,9.234375,12.832031,9.183594,12.78125C9.132812,12.730469,9.105469,12.667969,9.105469,12.589844L9.105469,7.769531C9.105469,7.691406,9.132812,7.625,9.183594,7.574219C9.234375,7.523438,9.296875,7.5,9.375,7.5L9.910156,7.5C9.988281,7.5,10.054688,7.523438,10.101562,7.574219C10.152344,7.625,10.179688,7.691406,10.179688,7.769531L10.179688,8.035156C10.574219,8.035156,10.9375,8.132812,11.265625,8.332031C11.597656,8.53125,11.855469,8.796875,12.046875,9.132812L12.613281,9.03125C12.777344,8.5,12.855469,7.964844,12.855469,7.417969C12.855469,6.589844,12.613281,5.8125,12.121094,5.082031C11.628906,4.351562,10.96875,3.765625,10.140625,3.332031C9.3125,2.894531,8.433594,2.679688,7.5,2.679688C6.566406,2.679688,5.6875,2.894531,4.859375,3.332031C4.03125,3.765625,3.371094,4.351562,2.878906,5.082031C2.386719,5.8125,2.144531,6.589844,2.144531,7.417969C2.144531,7.964844,2.222656,8.5,2.386719,9.03125L2.953125,9.132812C3.144531,8.796875,3.402344,8.53125,3.734375,8.332031C4.0625,8.132812,4.425781,8.035156,4.820312,8.035156L4.820312,7.769531C4.820312,7.691406,4.847656,7.625,4.898438,7.574219C4.945312,7.523438,5.011719,7.5,5.089844,7.5L5.625,7.5C5.703125,7.5,5.765625,7.523438,5.816406,7.574219C5.867188,7.625,5.894531,7.691406,5.894531,7.769531L5.894531,12.589844C5.894531,12.667969,5.867188,12.730469,5.816406,12.78125C5.765625,12.832031,5.703125,12.855469,5.625,12.855469L5.089844,12.855469C5.011719,12.855469,4.945312,12.832031,4.898438,12.78125C4.847656,12.730469,4.820312,12.667969,4.820312,12.589844L4.820312,12.320312C4.332031,12.320312,3.894531,12.171875,3.511719,11.875C3.128906,11.574219,2.875,11.195312,2.753906,10.730469L1.207031,10.453125L1.039062,10.042969C0.703125,9.21875,0.535156,8.34375,0.535156,7.417969C0.535156,6.574219,0.722656,5.761719,1.097656,4.980469C1.46875,4.199219,1.96875,3.523438,2.59375,2.949219C3.21875,2.378906,3.960938,1.921875,4.820312,1.582031C5.679688,1.242188,6.574219,1.070312,7.5,1.070312C8.425781,1.070312,9.320312,1.242188,10.179688,1.582031C11.039062,1.921875,11.78125,2.378906,12.40625,2.949219C13.03125,3.523438,13.53125,4.199219,13.902344,4.980469C14.277344,5.761719,14.464844,6.574219,14.464844,7.417969ZM14.464844,7.417969" fill="#FFFFFF"/></svg>