<svg version="1.1" xmlns="http://www.w3.org/2000/svg" xlink="http://www.w3.org/1999/xlink" x="0px" y="0px" width="15px" height="15px" viewBox="0 0 15 15" style="enable-background:new 0 0 15 15;" space="preserve"><path d="M11.785156,11.25L11.785156,3.75C11.785156,3.605469,11.734375,3.480469,11.625,3.375C11.519531,3.265625,11.394531,3.214844,11.25,3.214844L10.179688,3.214844C10.035156,3.214844,9.90625,3.265625,9.800781,3.375C9.695312,3.480469,9.644531,3.605469,9.644531,3.75L9.644531,6.429688L5.355469,6.429688L5.355469,3.75C5.355469,3.605469,5.304688,3.480469,5.199219,3.375C5.09375,3.265625,4.964844,3.214844,4.820312,3.214844L3.75,3.214844C3.605469,3.214844,3.480469,3.265625,3.375,3.375C3.265625,3.480469,3.214844,3.605469,3.214844,3.75L3.214844,11.25C3.214844,11.394531,3.265625,11.519531,3.375,11.625C3.480469,11.734375,3.605469,11.785156,3.75,11.785156L4.820312,11.785156C4.964844,11.785156,5.09375,11.734375,5.199219,11.625C5.304688,11.519531,5.355469,11.394531,5.355469,11.25L5.355469,8.570312L9.644531,8.570312L9.644531,11.25C9.644531,11.394531,9.695312,11.519531,9.800781,11.625C9.90625,11.734375,10.035156,11.785156,10.179688,11.785156L11.25,11.785156C11.394531,11.785156,11.519531,11.734375,11.625,11.625C11.734375,11.519531,11.785156,11.394531,11.785156,11.25ZM13.929688,3.480469L13.929688,11.519531C13.929688,12.183594,13.691406,12.75,13.222656,13.222656C12.75,13.691406,12.183594,13.929688,11.519531,13.929688L3.480469,13.929688C2.816406,13.929688,2.25,13.691406,1.777344,13.222656C1.308594,12.75,1.070312,12.183594,1.070312,11.519531L1.070312,3.480469C1.070312,2.816406,1.308594,2.25,1.777344,1.777344C2.25,1.308594,2.816406,1.070312,3.480469,1.070312L11.519531,1.070312C12.183594,1.070312,12.75,1.308594,13.222656,1.777344C13.691406,2.25,13.929688,2.816406,13.929688,3.480469ZM13.929688,3.480469" fill="#FFFFFF"/></svg>