<svg version="1.1" xmlns="http://www.w3.org/2000/svg" xlink="http://www.w3.org/1999/xlink" x="0px" y="0px" width="15px" height="12px" viewBox="0 0 15 12" style="enable-background:new 0 0 15 15;" space="preserve">
    <path d="M6.112500000000001,6.82171875c-0.671015625,-0.5376562500000001,-1.453125,-0.8217187500000002,-2.259375,-0.8217187500000002C2.0390625,6,0.503203125,7.470000000000001,0.033515625,9.65765625c-0.083203125,0.3890625000000001,-0.010078125,0.7928906250000001,0.20085937500000003,1.10859375C0.439453125,11.073515625,0.7460156250000001,11.25,1.0753125000000001,11.25H13.875c-2.418984375,0,-3.6328125,-0.868828125,-5.465390625,-2.44828125zm5.499609375,-0.428671875L10.978125,2.7234375A1.5,1.5,0,0,0,9.1875,1.5096093750000001L4.7074218750000005,2.4609375a1.5,1.5,0,0,0,-1.180078125,1.307578125L3.3658593750000003,5.296875c0.16171875000000002,-0.019453125,0.32109375,-0.046875,0.487265625,-0.046875c0.979453125,0,1.921875,0.34101562500000004,2.7489843750000005,1.00359375l2.296875,1.9800000000000002C10.5646875,9.668906250000001,11.59921875,10.5,13.875,10.5a1.125,1.125,0,0,0,1.125,-1.125c0,-0.595078125,-0.6937500000000001,-2.796796875,-3.3878906250000003,-2.9819531250000004z" fill="#FFFFFF"/>
    </svg>