<svg version="1.1" xmlns="http://www.w3.org/2000/svg" xlink="http://www.w3.org/1999/xlink" x="0px" y="0px" width="15px" height="15px" viewBox="0 0 15 15" style="enable-background:new 0 0 15 15;" space="preserve">
    <path d="M11.519531,11.785156L11.785156,11.785156L11.785156,6.429688L11.519531,6.429688C11.324219,6.429688,11.132812,6.394531,10.953125,6.328125C10.769531,6.261719,10.597656,6.15625,10.429688,6.019531C10.261719,5.878906,10.121094,5.75,10.011719,5.632812C9.898438,5.515625,9.761719,5.367188,9.601562,5.179688C9.589844,5.164062,9.578125,5.152344,9.570312,5.144531C9.5625,5.136719,9.550781,5.121094,9.539062,5.105469C9.523438,5.089844,9.511719,5.074219,9.5,5.0625C9.097656,4.613281,8.785156,4.207031,8.5625,3.851562C8.484375,3.726562,8.378906,3.539062,8.246094,3.28125C8.238281,3.265625,8.210938,3.203125,8.15625,3.09375C8.105469,2.984375,8.050781,2.882812,8.003906,2.792969C7.953125,2.699219,7.894531,2.601562,7.835938,2.496094C7.773438,2.386719,7.714844,2.304688,7.65625,2.238281C7.597656,2.175781,7.542969,2.144531,7.5,2.144531C7.105469,2.144531,6.78125,2.226562,6.53125,2.398438C6.285156,2.566406,6.160156,2.839844,6.160156,3.214844C6.160156,3.453125,6.203125,3.691406,6.285156,3.921875C6.371094,4.152344,6.460938,4.34375,6.5625,4.492188C6.664062,4.636719,6.753906,4.792969,6.839844,4.953125C6.921875,5.109375,6.964844,5.246094,6.964844,5.355469L2.144531,5.355469C1.863281,5.355469,1.617188,5.464844,1.398438,5.679688C1.179688,5.894531,1.070312,6.144531,1.070312,6.429688C1.070312,6.71875,1.175781,6.96875,1.390625,7.183594C1.601562,7.394531,1.851562,7.5,2.144531,7.5L4.914062,7.5C4.828125,7.59375,4.761719,7.726562,4.703125,7.898438C4.648438,8.066406,4.621094,8.222656,4.621094,8.363281C4.621094,8.746094,4.769531,9.078125,5.0625,9.359375C4.964844,9.535156,4.914062,9.730469,4.914062,9.9375C4.914062,10.140625,4.960938,10.347656,5.058594,10.550781C5.15625,10.753906,5.289062,10.902344,5.457031,10.992188C5.433594,11.125,5.425781,11.28125,5.425781,11.460938C5.425781,11.933594,5.558594,12.285156,5.828125,12.515625C6.101562,12.742188,6.480469,12.855469,6.964844,12.855469C7.433594,12.855469,7.945312,12.769531,8.496094,12.589844C9.046875,12.410156,9.589844,12.230469,10.121094,12.054688C10.648438,11.875,11.117188,11.785156,11.519531,11.785156ZM13.929688,11.25C13.929688,11.105469,13.875,10.980469,13.769531,10.875C13.664062,10.765625,13.539062,10.714844,13.394531,10.714844C13.246094,10.714844,13.121094,10.765625,13.015625,10.875C12.910156,10.980469,12.855469,11.105469,12.855469,11.25C12.855469,11.394531,12.910156,11.519531,13.015625,11.625C13.121094,11.734375,13.246094,11.785156,13.394531,11.785156C13.539062,11.785156,13.664062,11.734375,13.769531,11.625C13.875,11.519531,13.929688,11.394531,13.929688,11.25ZM15,6.429688L15,11.785156C15,12.082031,14.894531,12.335938,14.6875,12.542969C14.476562,12.753906,14.222656,12.855469,13.929688,12.855469L11.519531,12.855469C11.1875,12.855469,10.566406,13.023438,9.652344,13.351562C8.589844,13.734375,7.707031,13.929688,6.996094,13.929688C6.207031,13.929688,5.5625,13.710938,5.074219,13.28125C4.582031,12.847656,4.339844,12.242188,4.34375,11.460938L4.351562,11.417969C4.011719,10.992188,3.84375,10.496094,3.84375,9.925781C3.84375,9.804688,3.851562,9.683594,3.867188,9.566406C3.683594,9.25,3.578125,8.917969,3.558594,8.570312L2.144531,8.570312C1.558594,8.570312,1.054688,8.359375,0.632812,7.933594C0.210938,7.511719,0,7.007812,0,6.421875C0,5.84375,0.210938,5.347656,0.636719,4.921875C1.058594,4.496094,1.5625,4.285156,2.144531,4.285156L5.273438,4.285156C5.152344,3.949219,5.089844,3.59375,5.089844,3.214844C5.089844,2.535156,5.316406,2.007812,5.773438,1.632812C6.226562,1.257812,6.800781,1.070312,7.5,1.070312C7.710938,1.070312,7.90625,1.121094,8.082031,1.21875C8.257812,1.316406,8.410156,1.453125,8.542969,1.632812C8.671875,1.8125,8.785156,1.988281,8.882812,2.160156C8.976562,2.332031,9.078125,2.535156,9.191406,2.761719C9.300781,2.992188,9.394531,3.164062,9.46875,3.28125C9.664062,3.589844,9.941406,3.949219,10.304688,4.359375C10.316406,4.378906,10.355469,4.425781,10.421875,4.503906C10.488281,4.582031,10.542969,4.640625,10.582031,4.683594C10.621094,4.726562,10.675781,4.785156,10.75,4.863281C10.828125,4.941406,10.894531,5.003906,10.953125,5.050781C11.011719,5.097656,11.074219,5.148438,11.140625,5.203125C11.207031,5.253906,11.273438,5.292969,11.335938,5.320312C11.402344,5.34375,11.460938,5.355469,11.519531,5.355469L13.929688,5.355469C14.222656,5.355469,14.476562,5.460938,14.6875,5.671875C14.894531,5.878906,15,6.132812,15,6.429688ZM15,6.429688" fill="#FFFFFF"/>
    </svg>