<svg version="1.1" xmlns="http://www.w3.org/2000/svg" xlink="http://www.w3.org/1999/xlink" x="0px" y="0px" width="18.75px" height="15px" viewBox="0 0 18.75 15" style="enable-background:new 0 0 15 15;" space="preserve">
    <path d="M7.640625,8.5271484375c-0.83876953125,-0.6720703125,-1.81640625,-1.0271484375000002,-2.82421875,-1.0271484375000002C2.548828125,7.5,0.6290039062499999,9.3375,0.04189453125,12.0720703125c-0.10400390625,0.48632812500000006,-0.01259765625,0.99111328125,0.25107421875,1.3857421875C0.54931640625,13.84189453125,0.93251953125,14.0625,1.344140625,14.0625H17.34375c-3.0237304687499997,0,-4.541015625,-1.08603515625,-6.83173828125,-3.0603515624999997zm6.87451171875,-0.5358398437499999L13.72265625,3.404296875A1.875,1.875,0,0,0,11.484375,1.88701171875L5.88427734375,3.076171875a1.875,1.875,0,0,0,-1.47509765625,1.63447265625L4.20732421875,6.62109375c0.2021484375,-0.02431640625,0.4013671875,-0.05859375,0.6090820312499999,-0.05859375c1.22431640625,0,2.40234375,0.42626953125,3.4362304687500003,1.2544921875l2.87109375,2.475C13.205859375,12.0861328125,14.4990234375,13.125,17.34375,13.125a1.40625,1.40625,0,0,0,1.40625,-1.40625c0,-0.74384765625,-0.8671875,-3.49599609375,-4.23486328125,-3.72744140625z" fill="#FFFFFF"/>
    </svg>