<svg version="1.1" xmlns="http://www.w3.org/2000/svg" xlink="http://www.w3.org/1999/xlink" x="0px" y="0px" width="13.333333333333332px" height="15px" viewBox="0 0 13.333333333333332 15" style="enable-background:new 0 0 15 15;" space="preserve"><path d="M8.4375,3.3679687499999993L2.0352539062499995,9.01494140625c-0.0474609375,0.0427734375,-0.10810546875,0.0626953125,-0.16025390624999997,0.09814453125V14.53125c0,0.25898437499999993,0.20976562499999998,0.46875,0.46875,0.46875h4.37197265625L5.625,12.866894531249999l3.0500976562499997,-1.875l-1.7624999999999997,-3.4927734374999995L11.25,11.50634765625l-3.0500976562499997,1.875L9.36943359375,15H14.53125c0.25898437499999993,0,0.46875,-0.20976562499999998,0.46875,-0.46875V9.1142578125c-0.0498046875,-0.033984375,-0.10898437500000001,-0.0533203125,-0.15410156249999998,-0.09375L8.4375,3.3679687499999993zm8.28193359375,3.5542968749999995L15,5.40380859375V1.40625c0,-0.25898437499999993,-0.20976562499999998,-0.46875,-0.46875,-0.46875h-1.875c-0.25898437499999993,0,-0.46875,0.20976562499999998,-0.46875,0.46875v1.5143554687499998L9.22119140625,0.30205078125C8.99765625,0.10107421875,8.717578125,0.00029296874999999993,8.4375,0s-0.5595703125,0.09990234375,-0.7822265625,0.30087890624999997L0.15556640624999998,6.922265625c-0.19248046875,0.17314453124999998,-0.20859374999999997,0.4693359374999999,-0.03544921875,0.662109375l0.626953125,0.6978515625c0.1728515625,0.19248046875,0.4693359374999999,0.20859374999999997,0.662109375,0.03544921875L8.1275390625,2.3915039062499996c0.17724609375,-0.15615234375,0.4429687499999999,-0.15615234375,0.62021484375,0L15.466113281249998,8.3173828125c0.19248046875,0.1728515625,0.48896484375,0.15703124999999998,0.662109375,-0.03544921875l0.626953125,-0.6978515625c0.1728515625,-0.19248046875,0.15703124999999998,-0.48896484375,-0.0357421875,-0.6618164062499999z" fill="#FFFFFF"/></svg>