<svg version="1.1" xmlns="http://www.w3.org/2000/svg" xlink="http://www.w3.org/1999/xlink" x="0px" y="0px" width="15px" height="15px" viewBox="0 0 15 15" style="enable-background:new 0 0 15 15;" space="preserve"><path d="M7.367188,1.070312C7.109375,1.070312,6.890625,1.164062,6.703125,1.347656C6.519531,1.53125,6.429688,1.753906,6.429688,2.007812L6.429688,7.5L6.160156,7.5L6.160156,3.082031C6.160156,2.824219,6.070312,2.601562,5.882812,2.417969C5.699219,2.234375,5.480469,2.144531,5.222656,2.144531C4.964844,2.144531,4.746094,2.234375,4.5625,2.417969C4.378906,2.601562,4.285156,2.824219,4.285156,3.082031L4.285156,9.644531L2.996094,7.925781C2.785156,7.640625,2.5,7.5,2.144531,7.5C1.847656,7.5,1.59375,7.605469,1.386719,7.8125C1.175781,8.023438,1.070312,8.277344,1.070312,8.570312C1.070312,8.8125,1.144531,9.027344,1.289062,9.214844L4.503906,13.5C4.714844,13.785156,5,13.929688,5.355469,13.929688L11.117188,13.929688C11.304688,13.929688,11.476562,13.867188,11.625,13.746094C11.777344,13.621094,11.871094,13.464844,11.910156,13.277344L12.546875,9.886719C12.574219,9.707031,12.589844,9.542969,12.589844,9.390625L12.589844,5.222656C12.589844,4.964844,12.496094,4.746094,12.3125,4.5625C12.128906,4.378906,11.910156,4.285156,11.652344,4.285156C11.394531,4.285156,11.175781,4.378906,10.992188,4.5625C10.804688,4.746094,10.714844,4.964844,10.714844,5.222656L10.714844,7.5L10.445312,7.5L10.445312,3.082031C10.445312,2.824219,10.355469,2.601562,10.171875,2.417969C9.984375,2.234375,9.765625,2.144531,9.507812,2.144531C9.253906,2.144531,9.03125,2.234375,8.847656,2.417969C8.664062,2.601562,8.570312,2.824219,8.570312,3.082031L8.570312,7.5L8.304688,7.5L8.304688,2.007812C8.304688,1.753906,8.210938,1.53125,8.027344,1.347656C7.84375,1.164062,7.621094,1.070312,7.367188,1.070312ZM7.367188,0C7.746094,0,8.09375,0.0976562,8.417969,0.296875C8.738281,0.496094,8.984375,0.765625,9.15625,1.105469C9.261719,1.082031,9.378906,1.070312,9.507812,1.070312C10.0625,1.070312,10.535156,1.269531,10.929688,1.660156C11.320312,2.054688,11.519531,2.527344,11.519531,3.082031L11.519531,3.222656C12.105469,3.1875,12.605469,3.367188,13.027344,3.757812C13.449219,4.148438,13.660156,4.636719,13.660156,5.222656L13.660156,9.390625C13.660156,9.613281,13.636719,9.847656,13.59375,10.085938L12.957031,13.46875C12.878906,13.910156,12.664062,14.273438,12.316406,14.566406C11.96875,14.855469,11.566406,15,11.117188,15L5.355469,15C5.023438,15,4.703125,14.921875,4.398438,14.769531C4.09375,14.617188,3.84375,14.410156,3.640625,14.144531L0.425781,9.859375C0.140625,9.480469,0,9.050781,0,8.570312C0,7.980469,0.210938,7.476562,0.628906,7.054688C1.046875,6.636719,1.550781,6.429688,2.144531,6.429688C2.578125,6.429688,2.933594,6.523438,3.214844,6.714844L3.214844,3.082031C3.214844,2.527344,3.410156,2.054688,3.804688,1.660156C4.199219,1.269531,4.671875,1.070312,5.222656,1.070312C5.351562,1.070312,5.46875,1.082031,5.574219,1.105469C5.746094,0.765625,5.996094,0.496094,6.316406,0.296875C6.636719,0.0976562,6.988281,0,7.367188,0ZM7.367188,0" fill="#FFFFFF"/></svg>