<svg version="1.1" xmlns="http://www.w3.org/2000/svg" xlink="http://www.w3.org/1999/xlink" x="0px" y="0px" width="15px" height="15px" viewBox="0 0 15 15" style="enable-background:new 0 0 15 15;" space="preserve"><path d="M13.929688,4.988281C13.929688,4.535156,13.867188,4.136719,13.75,3.792969C13.628906,3.445312,13.476562,3.171875,13.289062,2.96875C13.101562,2.761719,12.875,2.597656,12.605469,2.46875C12.339844,2.339844,12.074219,2.253906,11.820312,2.210938C11.5625,2.164062,11.289062,2.144531,11,2.144531C10.707031,2.144531,10.394531,2.214844,10.0625,2.355469C9.726562,2.5,9.417969,2.675781,9.136719,2.890625C8.855469,3.105469,8.613281,3.308594,8.414062,3.496094C8.210938,3.679688,8.042969,3.851562,7.910156,4.007812C7.808594,4.132812,7.671875,4.195312,7.5,4.195312C7.328125,4.195312,7.191406,4.132812,7.089844,4.007812C6.957031,3.851562,6.789062,3.679688,6.585938,3.496094C6.386719,3.308594,6.144531,3.105469,5.863281,2.890625C5.582031,2.675781,5.273438,2.5,4.9375,2.355469C4.605469,2.214844,4.292969,2.144531,4,2.144531C3.710938,2.144531,3.4375,2.164062,3.179688,2.210938C2.925781,2.253906,2.660156,2.339844,2.394531,2.46875C2.125,2.597656,1.898438,2.761719,1.710938,2.96875C1.523438,3.171875,1.371094,3.445312,1.25,3.792969C1.132812,4.136719,1.070312,4.535156,1.070312,4.988281C1.070312,5.925781,1.59375,6.917969,2.636719,7.960938L7.5,12.648438L12.355469,7.96875C13.402344,6.917969,13.929688,5.925781,13.929688,4.988281ZM15,4.988281C15,6.222656,14.359375,7.476562,13.082031,8.753906L7.867188,13.777344C7.769531,13.878906,7.644531,13.929688,7.5,13.929688C7.355469,13.929688,7.230469,13.878906,7.132812,13.777344L1.910156,8.738281C1.851562,8.695312,1.777344,8.621094,1.679688,8.519531C1.582031,8.421875,1.425781,8.238281,1.214844,7.972656C1,7.707031,0.8125,7.4375,0.644531,7.15625C0.476562,6.878906,0.328125,6.539062,0.195312,6.144531C0.0664062,5.746094,0,5.363281,0,4.988281C0,3.761719,0.355469,2.800781,1.0625,2.109375C1.773438,1.417969,2.75,1.070312,4,1.070312C4.347656,1.070312,4.699219,1.132812,5.058594,1.25C5.421875,1.371094,5.753906,1.53125,6.0625,1.738281C6.375,1.941406,6.640625,2.132812,6.863281,2.308594C7.085938,2.488281,7.300781,2.679688,7.5,2.878906C7.699219,2.679688,7.914062,2.488281,8.136719,2.308594C8.359375,2.132812,8.625,1.941406,8.9375,1.738281C9.246094,1.53125,9.578125,1.371094,9.941406,1.25C10.300781,1.132812,10.652344,1.070312,11,1.070312C12.25,1.070312,13.226562,1.417969,13.9375,2.109375C14.644531,2.800781,15,3.761719,15,4.988281ZM15,4.988281" fill="#FFFFFF"/></svg>