<svg version="1.1" xmlns="http://www.w3.org/2000/svg" xlink="http://www.w3.org/1999/xlink" x="0px" y="0px" width="15px" height="15px" viewBox="0 0 15 15" style="enable-background:new 0 0 15 15;" space="preserve"><path d="M12.13505859375,5.20458984375c0.0298828125,0.24052734375,0.22705078125,0.42041015625,0.46142578125,0.42041015625h0.472265625c0.27861328125,0,0.500390625,-0.25107421875,0.46875,-0.53759765625c-0.1271484375,-1.14580078125,-0.65625,-2.18349609375,-1.46865234375,-2.8464843749999997c-0.50888671875,-0.41513671875,-0.8443359375,-1.07666015625,-0.9369140625,-1.82080078125C11.10234375,0.1798828125,10.9048828125,0,10.670800781250001,0h-0.472265625c-0.27861328125,0,-0.50068359375,0.25107421875,-0.46875,0.53759765625c0.1271484375,1.14580078125,0.65625,2.18349609375,1.46865234375,2.8464843749999997c0.50859375,0.41513671875,0.8443359375,1.07666015625,0.9366210937499999,1.8205078125zm-3.1640625,0c0.0298828125,0.24052734375,0.22705078125,0.42041015625,0.46142578125,0.42041015625h0.472265625c0.27861328125,0,0.500390625,-0.25107421875,0.46875,-0.53759765625c-0.1271484375,-1.14580078125,-0.65625,-2.18349609375,-1.46865234375,-2.8464843749999997c-0.50888671875,-0.41513671875,-0.8443359375,-1.07666015625,-0.9369140625,-1.82080078125C7.938281249999999,0.1798828125,7.7408203125,0,7.5067382812500005,0h-0.472265625c-0.27861328125,0,-0.50068359375,0.25107421875,-0.46875,0.53759765625c0.1271484375,1.14580078125,0.65625,2.18349609375,1.46865234375,2.8464843749999997c0.50859375,0.41513671875,0.8443359375,1.07666015625,0.9366210937499999,1.8205078125zM14.0625,7.5H7.5l-3.24990234375,-2.4375a1.87470703125,1.87470703125,0,0,0,-1.125,-0.375H1.875c-1.03564453125,0,-1.875,0.83935546875,-1.875,1.875v6.5625c0,1.03564453125,0.83935546875,1.875,1.875,1.875h11.25c1.03564453125,0,1.875,-0.83935546875,1.875,-1.875V8.4375c0,-0.51767578125,-0.41982421875,-0.9375,-0.9375,-0.9375zM3.75,12.890625c0,0.1294921875,-0.1048828125,0.234375,-0.234375,0.234375h-0.46875c-0.1294921875,0,-0.234375,-0.1048828125,-0.234375,-0.234375V9.609375c0,-0.1294921875,0.1048828125,-0.234375,0.234375,-0.234375h0.46875c0.1294921875,0,0.234375,0.1048828125,0.234375,0.234375v3.28125zm2.8125,0c0,0.1294921875,-0.1048828125,0.234375,-0.234375,0.234375h-0.46875c-0.1294921875,0,-0.234375,-0.1048828125,-0.234375,-0.234375V9.609375c0,-0.1294921875,0.1048828125,-0.234375,0.234375,-0.234375h0.46875c0.1294921875,0,0.234375,0.1048828125,0.234375,0.234375v3.28125zm2.8125,0c0,0.1294921875,-0.1048828125,0.234375,-0.234375,0.234375h-0.46875c-0.1294921875,0,-0.234375,-0.1048828125,-0.234375,-0.234375V9.609375c0,-0.1294921875,0.1048828125,-0.234375,0.234375,-0.234375h0.46875c0.1294921875,0,0.234375,0.1048828125,0.234375,0.234375v3.28125zm2.8125,0c0,0.1294921875,-0.1048828125,0.234375,-0.234375,0.234375h-0.46875c-0.1294921875,0,-0.234375,-0.1048828125,-0.234375,-0.234375V9.609375c0,-0.1294921875,0.1048828125,-0.234375,0.234375,-0.234375h0.46875c0.1294921875,0,0.234375,0.1048828125,0.234375,0.234375v3.28125zM1.875,3.75c1.03564453125,0,1.875,-0.83935546875,1.875,-1.875S2.91064453125,0,1.875,0S0,0.83935546875,0,1.875s0.83935546875,1.875,1.875,1.875z" fill="#FFFFFF"/></svg>