<svg version="1.1" xmlns="http://www.w3.org/2000/svg" xlink="http://www.w3.org/1999/xlink" x="0px" y="0px" width="15px" height="15px" viewBox="0 0 15 15" style="enable-background:new 0 0 15 15;" space="preserve"><path d="M10.179688,11.25L10.179688,12.320312C10.179688,12.464844,10.125,12.59375,10.019531,12.699219C9.914062,12.804688,9.789062,12.855469,9.644531,12.855469L5.355469,12.855469C5.210938,12.855469,5.085938,12.804688,4.980469,12.699219C4.875,12.59375,4.820312,12.464844,4.820312,12.320312L4.820312,11.25C4.820312,11.105469,4.875,10.980469,4.980469,10.875C5.085938,10.765625,5.210938,10.714844,5.355469,10.714844L5.894531,10.714844L5.894531,7.5L5.355469,7.5C5.210938,7.5,5.085938,7.445312,4.980469,7.339844C4.875,7.234375,4.820312,7.109375,4.820312,6.964844L4.820312,5.894531C4.820312,5.746094,4.875,5.621094,4.980469,5.515625C5.085938,5.410156,5.210938,5.355469,5.355469,5.355469L8.570312,5.355469C8.714844,5.355469,8.84375,5.410156,8.949219,5.515625C9.054688,5.621094,9.105469,5.746094,9.105469,5.894531L9.105469,10.714844L9.644531,10.714844C9.789062,10.714844,9.914062,10.765625,10.019531,10.875C10.125,10.980469,10.179688,11.105469,10.179688,11.25ZM9.105469,1.605469L9.105469,3.214844C9.105469,3.359375,9.054688,3.484375,8.949219,3.589844C8.84375,3.695312,8.714844,3.75,8.570312,3.75L6.429688,3.75C6.285156,3.75,6.15625,3.695312,6.050781,3.589844C5.945312,3.484375,5.894531,3.359375,5.894531,3.214844L5.894531,1.605469C5.894531,1.460938,5.945312,1.335938,6.050781,1.230469C6.15625,1.125,6.285156,1.070312,6.429688,1.070312L8.570312,1.070312C8.714844,1.070312,8.84375,1.125,8.949219,1.230469C9.054688,1.335938,9.105469,1.460938,9.105469,1.605469ZM9.105469,1.605469" fill="#FFFFFF"/></svg>