<svg version="1.1" xmlns="http://www.w3.org/2000/svg" xlink="http://www.w3.org/1999/xlink" x="0px" y="0px" width="15px" height="15px" viewBox="0 0 15 15" style="enable-background:new 0 0 15 15;" space="preserve"><path d="M9.644531,0.269531C9.644531,0.191406,9.667969,0.125,9.71875,0.0742188C9.769531,0.0234375,9.832031,0,9.910156,0L12.320312,0C12.464844,0,12.59375,0.0546875,12.699219,0.160156C12.804688,0.265625,12.855469,0.390625,12.855469,0.535156L12.855469,2.945312C12.855469,3.023438,12.832031,3.089844,12.78125,3.140625C12.730469,3.1875,12.667969,3.214844,12.589844,3.214844L12.054688,3.214844C11.976562,3.214844,11.910156,3.1875,11.859375,3.140625C11.8125,3.089844,11.785156,3.023438,11.785156,2.945312L11.785156,1.824219L9.660156,3.960938C10.363281,4.839844,10.714844,5.84375,10.714844,6.964844C10.714844,8.199219,10.300781,9.269531,9.480469,10.183594C8.65625,11.09375,7.640625,11.617188,6.429688,11.753906L6.429688,12.855469L7.230469,12.855469C7.308594,12.855469,7.375,12.882812,7.425781,12.933594C7.476562,12.984375,7.5,13.046875,7.5,13.125L7.5,13.660156C7.5,13.738281,7.476562,13.804688,7.425781,13.851562C7.375,13.902344,7.308594,13.929688,7.230469,13.929688L6.429688,13.929688L6.429688,14.730469C6.429688,14.808594,6.402344,14.875,6.351562,14.925781C6.304688,14.976562,6.238281,15,6.160156,15L5.625,15C5.546875,15,5.484375,14.976562,5.433594,14.925781C5.382812,14.875,5.355469,14.808594,5.355469,14.730469L5.355469,13.929688L4.554688,13.929688C4.476562,13.929688,4.410156,13.902344,4.359375,13.851562C4.3125,13.804688,4.285156,13.738281,4.285156,13.660156L4.285156,13.125C4.285156,13.046875,4.3125,12.984375,4.359375,12.933594C4.410156,12.882812,4.476562,12.855469,4.554688,12.855469L5.355469,12.855469L5.355469,11.753906C4.527344,11.664062,3.769531,11.375,3.09375,10.890625C2.414062,10.40625,1.894531,9.78125,1.53125,9.019531C1.167969,8.257812,1.019531,7.445312,1.089844,6.578125C1.175781,5.441406,1.625,4.453125,2.425781,3.621094C3.230469,2.785156,4.199219,2.304688,5.332031,2.175781C5.992188,2.097656,6.625,2.152344,7.242188,2.335938C7.855469,2.519531,8.40625,2.808594,8.898438,3.199219L11.03125,1.070312L9.910156,1.070312C9.832031,1.070312,9.769531,1.046875,9.71875,0.996094C9.667969,0.945312,9.644531,0.882812,9.644531,0.804688ZM5.894531,10.714844C6.925781,10.714844,7.808594,10.347656,8.542969,9.613281C9.277344,8.878906,9.644531,7.996094,9.644531,6.964844C9.644531,5.933594,9.277344,5.046875,8.542969,4.316406C7.808594,3.582031,6.925781,3.214844,5.894531,3.214844C4.859375,3.214844,3.976562,3.582031,3.242188,4.316406C2.507812,5.046875,2.144531,5.933594,2.144531,6.964844C2.144531,7.996094,2.507812,8.878906,3.242188,9.613281C3.976562,10.347656,4.859375,10.714844,5.894531,10.714844ZM5.894531,10.714844" fill="#FFFFFF"/></svg>