<svg version="1.1" xmlns="http://www.w3.org/2000/svg" xlink="http://www.w3.org/1999/xlink" x="0px" y="0px" width="15px" height="15px" viewBox="0 0 15 15" style="enable-background:new 0 0 15 15;" space="preserve">
    <path d="M10.027344,8.980469L8.6875,10.320312L7.425781,11.59375L7.171875,11.84375C6.8125,12.203125,6.386719,12.445312,5.90625,12.574219C5.421875,12.699219,4.945312,12.707031,4.46875,12.589844C4.378906,12.980469,4.179688,13.300781,3.867188,13.550781C3.554688,13.804688,3.195312,13.929688,2.789062,13.929688C2.3125,13.929688,1.910156,13.757812,1.574219,13.421875C1.238281,13.085938,1.070312,12.679688,1.070312,12.203125C1.070312,11.800781,1.195312,11.445312,1.445312,11.132812C1.691406,10.820312,2.007812,10.621094,2.394531,10.53125C2.269531,10.050781,2.273438,9.566406,2.402344,9.082031C2.53125,8.597656,2.777344,8.171875,3.140625,7.808594L3.238281,7.710938L4.503906,8.980469L4.410156,9.074219C4.203125,9.28125,4.101562,9.527344,4.101562,9.820312C4.101562,10.109375,4.203125,10.359375,4.410156,10.570312C4.617188,10.777344,4.867188,10.882812,5.15625,10.882812C5.445312,10.882812,5.695312,10.777344,5.902344,10.570312L6.152344,10.320312L7.417969,9.046875L8.765625,7.710938ZM7.171875,3.273438L7.273438,3.375L6,4.644531L5.902344,4.546875C5.695312,4.339844,5.445312,4.234375,5.15625,4.234375C4.867188,4.234375,4.617188,4.339844,4.410156,4.546875C4.203125,4.75,4.101562,5,4.101562,5.292969C4.101562,5.585938,4.203125,5.835938,4.410156,6.042969L7.265625,8.898438L6,10.171875L4.652344,8.832031L3.390625,7.558594L3.140625,7.308594C2.757812,6.933594,2.507812,6.488281,2.386719,5.972656C2.261719,5.457031,2.277344,4.957031,2.425781,4.46875C2.035156,4.386719,1.714844,4.1875,1.464844,3.875C1.214844,3.5625,1.089844,3.203125,1.089844,2.796875C1.089844,2.320312,1.253906,1.914062,1.589844,1.578125C1.925781,1.238281,2.328125,1.070312,2.804688,1.070312C3.226562,1.070312,3.601562,1.207031,3.921875,1.480469C4.242188,1.753906,4.4375,2.097656,4.503906,2.511719C4.972656,2.398438,5.445312,2.410156,5.921875,2.539062C6.398438,2.671875,6.816406,2.914062,7.171875,3.273438ZM13.929688,12.203125C13.929688,12.679688,13.761719,13.085938,13.425781,13.421875C13.089844,13.757812,12.6875,13.929688,12.210938,13.929688C11.800781,13.929688,11.433594,13.796875,11.117188,13.535156C10.796875,13.273438,10.601562,12.945312,10.523438,12.546875C10.042969,12.703125,9.539062,12.71875,9.019531,12.597656C8.496094,12.476562,8.046875,12.222656,7.667969,11.84375L7.574219,11.742188L8.839844,10.472656L8.941406,10.570312C9.144531,10.777344,9.394531,10.882812,9.683594,10.882812C9.976562,10.882812,10.222656,10.777344,10.429688,10.570312C10.636719,10.367188,10.738281,10.117188,10.738281,9.828125C10.738281,9.535156,10.636719,9.289062,10.429688,9.082031L7.566406,6.21875L8.839844,4.945312L10.179688,6.285156L11.449219,7.558594L11.695312,7.808594C12.050781,8.167969,12.292969,8.585938,12.425781,9.070312C12.558594,9.550781,12.5625,10.03125,12.445312,10.503906C12.871094,10.566406,13.222656,10.757812,13.507812,11.078125C13.789062,11.398438,13.929688,11.773438,13.929688,12.203125ZM13.910156,2.796875C13.910156,3.226562,13.769531,3.601562,13.484375,3.925781C13.199219,4.25,12.847656,4.441406,12.421875,4.503906C12.566406,4.976562,12.574219,5.46875,12.445312,5.980469C12.320312,6.492188,12.066406,6.933594,11.695312,7.308594L11.59375,7.40625L10.328125,6.136719L10.429688,6.035156C10.636719,5.828125,10.738281,5.582031,10.738281,5.289062C10.738281,5,10.636719,4.75,10.429688,4.546875C10.222656,4.339844,9.976562,4.234375,9.683594,4.234375C9.394531,4.234375,9.144531,4.339844,8.941406,4.546875L8.6875,4.796875L7.417969,6.070312L6.078125,7.40625L4.804688,6.136719L6.152344,4.796875L7.425781,3.523438L7.667969,3.273438C8.042969,2.898438,8.484375,2.648438,9,2.523438C9.511719,2.398438,10.007812,2.40625,10.488281,2.554688C10.550781,2.132812,10.742188,1.78125,11.0625,1.5C11.382812,1.214844,11.761719,1.070312,12.195312,1.070312C12.671875,1.070312,13.074219,1.238281,13.410156,1.578125C13.746094,1.914062,13.910156,2.320312,13.910156,2.796875ZM13.910156,2.796875" fill="#FFFFFF"/>
    </svg>