<svg version="1.1" xmlns="http://www.w3.org/2000/svg" xlink="http://www.w3.org/1999/xlink" x="0px" y="0px" width="15px" height="15px" viewBox="0 0 15 15" style="enable-background:new 0 0 15 15;" space="preserve">
    <path d="M15,6.695312L15,8.304688C15,8.382812,14.976562,8.445312,14.925781,8.496094C14.875,8.546875,14.808594,8.570312,14.730469,8.570312L4.285156,8.570312L4.285156,10.445312C4.285156,10.5625,4.234375,10.644531,4.125,10.6875C4.019531,10.734375,3.921875,10.71875,3.832031,10.648438L0.621094,7.71875C0.5625,7.660156,0.535156,7.597656,0.535156,7.523438C0.535156,7.445312,0.5625,7.378906,0.621094,7.324219L3.832031,4.359375C3.921875,4.28125,4.019531,4.265625,4.125,4.3125C4.234375,4.359375,4.285156,4.441406,4.285156,4.554688L4.285156,6.429688L14.730469,6.429688C14.808594,6.429688,14.875,6.453125,14.925781,6.503906C14.976562,6.554688,15,6.617188,15,6.695312ZM15,6.695312" fill="#FFFFFF"/>
    </svg>