<svg version="1.1" xmlns="http://www.w3.org/2000/svg" xlink="http://www.w3.org/1999/xlink" x="0px" y="0px" width="15px" height="15px" viewBox="0 0 15 15" style="enable-background:new 0 0 15 15;" space="preserve"><path d="M9.375,4.820312C9.375,4.894531,9.347656,4.957031,9.296875,5.007812C9.242188,5.0625,9.179688,5.089844,9.105469,5.089844C9.035156,5.089844,8.972656,5.0625,8.917969,5.007812C8.867188,4.957031,8.839844,4.894531,8.839844,4.820312C8.839844,4.566406,8.6875,4.367188,8.386719,4.226562C8.085938,4.085938,7.789062,4.019531,7.5,4.019531C7.425781,4.019531,7.363281,3.992188,7.3125,3.9375C7.257812,3.886719,7.230469,3.824219,7.230469,3.75C7.230469,3.675781,7.257812,3.613281,7.3125,3.5625C7.363281,3.507812,7.425781,3.480469,7.5,3.480469C7.777344,3.480469,8.054688,3.527344,8.332031,3.617188C8.609375,3.707031,8.851562,3.855469,9.0625,4.066406C9.269531,4.28125,9.375,4.53125,9.375,4.820312ZM10.714844,4.820312C10.714844,4.417969,10.617188,4.046875,10.425781,3.699219C10.234375,3.355469,9.980469,3.070312,9.671875,2.851562C9.363281,2.628906,9.019531,2.457031,8.640625,2.332031C8.265625,2.207031,7.886719,2.144531,7.5,2.144531C7.113281,2.144531,6.734375,2.207031,6.359375,2.332031C5.980469,2.457031,5.636719,2.628906,5.328125,2.851562C5.019531,3.070312,4.765625,3.355469,4.574219,3.699219C4.382812,4.046875,4.285156,4.417969,4.285156,4.820312C4.285156,5.386719,4.476562,5.886719,4.855469,6.328125C4.910156,6.390625,4.996094,6.480469,5.109375,6.605469C5.222656,6.726562,5.308594,6.820312,5.367188,6.878906C6.078125,7.734375,6.472656,8.566406,6.546875,9.375L8.453125,9.375C8.527344,8.566406,8.921875,7.734375,9.632812,6.878906C9.691406,6.820312,9.773438,6.726562,9.890625,6.605469C10.003906,6.480469,10.089844,6.390625,10.144531,6.328125C10.523438,5.886719,10.714844,5.386719,10.714844,4.820312ZM11.785156,4.820312C11.785156,5.6875,11.5,6.433594,10.921875,7.066406C10.671875,7.339844,10.464844,7.582031,10.300781,7.792969C10.136719,8.003906,9.96875,8.273438,9.800781,8.59375C9.632812,8.914062,9.539062,9.214844,9.515625,9.492188C9.78125,9.648438,9.910156,9.878906,9.910156,10.179688C9.910156,10.386719,9.839844,10.5625,9.703125,10.714844C9.839844,10.863281,9.910156,11.042969,9.910156,11.25C9.910156,11.539062,9.785156,11.765625,9.535156,11.929688C9.605469,12.054688,9.644531,12.1875,9.644531,12.320312C9.644531,12.578125,9.554688,12.777344,9.378906,12.914062C9.203125,13.054688,8.988281,13.125,8.730469,13.125C8.617188,13.371094,8.453125,13.566406,8.226562,13.710938C8.003906,13.855469,7.761719,13.929688,7.5,13.929688C7.238281,13.929688,6.996094,13.855469,6.773438,13.710938C6.546875,13.566406,6.382812,13.371094,6.269531,13.125C6.011719,13.125,5.796875,13.054688,5.621094,12.914062C5.445312,12.777344,5.355469,12.578125,5.355469,12.320312C5.355469,12.1875,5.394531,12.054688,5.464844,11.929688C5.214844,11.765625,5.089844,11.539062,5.089844,11.25C5.089844,11.042969,5.160156,10.863281,5.296875,10.714844C5.160156,10.5625,5.089844,10.386719,5.089844,10.179688C5.089844,9.878906,5.21875,9.648438,5.484375,9.492188C5.460938,9.214844,5.367188,8.914062,5.199219,8.59375C5.03125,8.273438,4.863281,8.003906,4.699219,7.792969C4.535156,7.582031,4.328125,7.339844,4.078125,7.066406C3.5,6.433594,3.214844,5.6875,3.214844,4.820312C3.214844,4.269531,3.339844,3.753906,3.585938,3.277344C3.835938,2.800781,4.160156,2.402344,4.566406,2.089844C4.96875,1.773438,5.429688,1.523438,5.9375,1.34375C6.449219,1.160156,6.96875,1.070312,7.5,1.070312C8.03125,1.070312,8.550781,1.160156,9.0625,1.34375C9.570312,1.523438,10.027344,1.773438,10.433594,2.089844C10.839844,2.402344,11.164062,2.800781,11.414062,3.277344C11.660156,3.753906,11.785156,4.269531,11.785156,4.820312ZM11.785156,4.820312" fill="#FFFFFF"/></svg>