<svg version="1.1" xmlns="http://www.w3.org/2000/svg" xlink="http://www.w3.org/1999/xlink" x="0px" y="0px" width="15px" height="15px" viewBox="0 0 15 15" style="enable-background:new 0 0 15 15;" space="preserve"><path d="M3.054688,11.835938L4.988281,11.835938L4.988281,6.027344L3.054688,6.027344ZM5.113281,4.234375C5.109375,3.945312,5.007812,3.707031,4.8125,3.515625C4.617188,3.324219,4.359375,3.230469,4.035156,3.230469C3.710938,3.230469,3.445312,3.324219,3.242188,3.515625C3.039062,3.707031,2.9375,3.945312,2.9375,4.234375C2.9375,4.519531,3.035156,4.757812,3.234375,4.953125C3.433594,5.144531,3.691406,5.238281,4.007812,5.238281L4.019531,5.238281C4.347656,5.238281,4.613281,5.144531,4.8125,4.953125C5.015625,4.757812,5.113281,4.519531,5.113281,4.234375ZM10.011719,11.835938L11.945312,11.835938L11.945312,8.503906C11.945312,7.644531,11.742188,6.996094,11.332031,6.554688C10.925781,6.113281,10.386719,5.894531,9.71875,5.894531C8.960938,5.894531,8.375,6.21875,7.96875,6.871094L7.984375,6.871094L7.984375,6.027344L6.050781,6.027344C6.070312,6.394531,6.070312,8.332031,6.050781,11.835938L7.984375,11.835938L7.984375,8.589844C7.984375,8.375,8.003906,8.21875,8.042969,8.121094C8.128906,7.925781,8.253906,7.757812,8.421875,7.621094C8.589844,7.484375,8.792969,7.417969,9.039062,7.417969C9.6875,7.417969,10.011719,7.855469,10.011719,8.730469ZM13.929688,3.480469L13.929688,11.519531C13.929688,12.183594,13.691406,12.75,13.222656,13.222656C12.75,13.691406,12.183594,13.929688,11.519531,13.929688L3.480469,13.929688C2.816406,13.929688,2.25,13.691406,1.777344,13.222656C1.308594,12.75,1.070312,12.183594,1.070312,11.519531L1.070312,3.480469C1.070312,2.816406,1.308594,2.25,1.777344,1.777344C2.25,1.308594,2.816406,1.070312,3.480469,1.070312L11.519531,1.070312C12.183594,1.070312,12.75,1.308594,13.222656,1.777344C13.691406,2.25,13.929688,2.816406,13.929688,3.480469ZM13.929688,3.480469" fill="#FFFFFF"/></svg>