<svg version="1.1" xmlns="http://www.w3.org/2000/svg" xlink="http://www.w3.org/1999/xlink" x="0px" y="0px" width="15px" height="15px" viewBox="0 0 15 15" style="enable-background:new 0 0 15 15;" space="preserve"><path d="M3.214844,9.910156L3.214844,10.445312C3.214844,10.519531,3.1875,10.582031,3.132812,10.632812C3.082031,10.6875,3.019531,10.714844,2.945312,10.714844L2.410156,10.714844C2.339844,10.714844,2.273438,10.6875,2.222656,10.632812C2.167969,10.582031,2.144531,10.519531,2.144531,10.445312L2.144531,9.910156C2.144531,9.839844,2.167969,9.773438,2.222656,9.722656C2.273438,9.667969,2.339844,9.644531,2.410156,9.644531L2.945312,9.644531C3.019531,9.644531,3.082031,9.667969,3.132812,9.722656C3.1875,9.773438,3.214844,9.839844,3.214844,9.910156ZM3.214844,7.769531L3.214844,8.304688C3.214844,8.375,3.1875,8.4375,3.132812,8.492188C3.082031,8.546875,3.019531,8.570312,2.945312,8.570312L2.410156,8.570312C2.339844,8.570312,2.273438,8.546875,2.222656,8.492188C2.167969,8.4375,2.144531,8.375,2.144531,8.304688L2.144531,7.769531C2.144531,7.695312,2.167969,7.632812,2.222656,7.578125C2.273438,7.527344,2.339844,7.5,2.410156,7.5L2.945312,7.5C3.019531,7.5,3.082031,7.527344,3.132812,7.578125C3.1875,7.632812,3.214844,7.695312,3.214844,7.769531ZM3.214844,5.625L3.214844,6.160156C3.214844,6.234375,3.1875,6.296875,3.132812,6.347656C3.082031,6.402344,3.019531,6.429688,2.945312,6.429688L2.410156,6.429688C2.339844,6.429688,2.273438,6.402344,2.222656,6.347656C2.167969,6.296875,2.144531,6.234375,2.144531,6.160156L2.144531,5.625C2.144531,5.550781,2.167969,5.488281,2.222656,5.4375C2.273438,5.382812,2.339844,5.355469,2.410156,5.355469L2.945312,5.355469C3.019531,5.355469,3.082031,5.382812,3.132812,5.4375C3.1875,5.488281,3.214844,5.550781,3.214844,5.625ZM12.855469,9.910156L12.855469,10.445312C12.855469,10.519531,12.832031,10.582031,12.777344,10.632812C12.722656,10.6875,12.660156,10.714844,12.589844,10.714844L4.554688,10.714844C4.480469,10.714844,4.417969,10.6875,4.367188,10.632812C4.3125,10.582031,4.285156,10.519531,4.285156,10.445312L4.285156,9.910156C4.285156,9.839844,4.3125,9.773438,4.367188,9.722656C4.417969,9.667969,4.480469,9.644531,4.554688,9.644531L12.589844,9.644531C12.660156,9.644531,12.722656,9.667969,12.777344,9.722656C12.832031,9.773438,12.855469,9.839844,12.855469,9.910156ZM12.855469,7.769531L12.855469,8.304688C12.855469,8.375,12.832031,8.4375,12.777344,8.492188C12.722656,8.546875,12.660156,8.570312,12.589844,8.570312L4.554688,8.570312C4.480469,8.570312,4.417969,8.546875,4.367188,8.492188C4.3125,8.4375,4.285156,8.375,4.285156,8.304688L4.285156,7.769531C4.285156,7.695312,4.3125,7.632812,4.367188,7.578125C4.417969,7.527344,4.480469,7.5,4.554688,7.5L12.589844,7.5C12.660156,7.5,12.722656,7.527344,12.777344,7.578125C12.832031,7.632812,12.855469,7.695312,12.855469,7.769531ZM12.855469,5.625L12.855469,6.160156C12.855469,6.234375,12.832031,6.296875,12.777344,6.347656C12.722656,6.402344,12.660156,6.429688,12.589844,6.429688L4.554688,6.429688C4.480469,6.429688,4.417969,6.402344,4.367188,6.347656C4.3125,6.296875,4.285156,6.234375,4.285156,6.160156L4.285156,5.625C4.285156,5.550781,4.3125,5.488281,4.367188,5.4375C4.417969,5.382812,4.480469,5.355469,4.554688,5.355469L12.589844,5.355469C12.660156,5.355469,12.722656,5.382812,12.777344,5.4375C12.832031,5.488281,12.855469,5.550781,12.855469,5.625ZM13.929688,11.519531L13.929688,4.554688C13.929688,4.480469,13.902344,4.417969,13.847656,4.367188C13.796875,4.3125,13.734375,4.285156,13.660156,4.285156L1.339844,4.285156C1.265625,4.285156,1.203125,4.3125,1.152344,4.367188C1.097656,4.417969,1.070312,4.480469,1.070312,4.554688L1.070312,11.519531C1.070312,11.589844,1.097656,11.652344,1.152344,11.707031C1.203125,11.757812,1.265625,11.785156,1.339844,11.785156L13.660156,11.785156C13.734375,11.785156,13.796875,11.757812,13.847656,11.707031C13.902344,11.652344,13.929688,11.589844,13.929688,11.519531ZM15,2.410156L15,11.519531C15,11.886719,14.867188,12.203125,14.605469,12.464844C14.34375,12.726562,14.027344,12.855469,13.660156,12.855469L1.339844,12.855469C0.972656,12.855469,0.65625,12.726562,0.394531,12.464844C0.132812,12.203125,0,11.886719,0,11.519531L0,2.410156C0,2.042969,0.132812,1.726562,0.394531,1.464844C0.65625,1.203125,0.972656,1.070312,1.339844,1.070312L13.660156,1.070312C14.027344,1.070312,14.34375,1.203125,14.605469,1.464844C14.867188,1.726562,15,2.042969,15,2.410156ZM15,2.410156" fill="#FFFFFF"/></svg>