<svg version="1.1" xmlns="http://www.w3.org/2000/svg" xlink="http://www.w3.org/1999/xlink" x="0px" y="0px" width="15px" height="15px" viewBox="0 0 15 15" style="enable-background:new 0 0 15 15;" space="preserve"><path d="M3.214844,11.785156C3.214844,12.230469,3.058594,12.613281,2.746094,12.925781C2.433594,13.238281,2.054688,13.394531,1.605469,13.394531C1.160156,13.394531,0.78125,13.238281,0.46875,12.925781C0.15625,12.613281,0,12.230469,0,11.785156C0,11.339844,0.15625,10.960938,0.46875,10.648438C0.78125,10.335938,1.160156,10.179688,1.605469,10.179688C2.054688,10.179688,2.433594,10.335938,2.746094,10.648438C3.058594,10.960938,3.214844,11.339844,3.214844,11.785156ZM3.214844,7.5C3.214844,7.945312,3.058594,8.324219,2.746094,8.636719C2.433594,8.949219,2.054688,9.105469,1.605469,9.105469C1.160156,9.105469,0.78125,8.949219,0.46875,8.636719C0.15625,8.324219,0,7.945312,0,7.5C0,7.054688,0.15625,6.675781,0.46875,6.363281C0.78125,6.050781,1.160156,5.894531,1.605469,5.894531C2.054688,5.894531,2.433594,6.050781,2.746094,6.363281C3.058594,6.675781,3.214844,7.054688,3.214844,7.5ZM15,10.980469L15,12.589844C15,12.660156,14.972656,12.722656,14.921875,12.777344C14.867188,12.832031,14.804688,12.855469,14.730469,12.855469L4.554688,12.855469C4.480469,12.855469,4.417969,12.832031,4.367188,12.777344C4.3125,12.722656,4.285156,12.660156,4.285156,12.589844L4.285156,10.980469C4.285156,10.910156,4.3125,10.847656,4.367188,10.792969C4.417969,10.742188,4.480469,10.714844,4.554688,10.714844L14.730469,10.714844C14.804688,10.714844,14.867188,10.742188,14.921875,10.792969C14.972656,10.847656,15,10.910156,15,10.980469ZM3.214844,3.214844C3.214844,3.660156,3.058594,4.039062,2.746094,4.351562C2.433594,4.664062,2.054688,4.820312,1.605469,4.820312C1.160156,4.820312,0.78125,4.664062,0.46875,4.351562C0.15625,4.039062,0,3.660156,0,3.214844C0,2.769531,0.15625,2.386719,0.46875,2.074219C0.78125,1.761719,1.160156,1.605469,1.605469,1.605469C2.054688,1.605469,2.433594,1.761719,2.746094,2.074219C3.058594,2.386719,3.214844,2.769531,3.214844,3.214844ZM15,6.695312L15,8.304688C15,8.375,14.972656,8.4375,14.921875,8.492188C14.867188,8.546875,14.804688,8.570312,14.730469,8.570312L4.554688,8.570312C4.480469,8.570312,4.417969,8.546875,4.367188,8.492188C4.3125,8.4375,4.285156,8.375,4.285156,8.304688L4.285156,6.695312C4.285156,6.625,4.3125,6.5625,4.367188,6.507812C4.417969,6.453125,4.480469,6.429688,4.554688,6.429688L14.730469,6.429688C14.804688,6.429688,14.867188,6.453125,14.921875,6.507812C14.972656,6.5625,15,6.625,15,6.695312ZM15,2.410156L15,4.019531C15,4.089844,14.972656,4.152344,14.921875,4.207031C14.867188,4.257812,14.804688,4.285156,14.730469,4.285156L4.554688,4.285156C4.480469,4.285156,4.417969,4.257812,4.367188,4.207031C4.3125,4.152344,4.285156,4.089844,4.285156,4.019531L4.285156,2.410156C4.285156,2.339844,4.3125,2.273438,4.367188,2.222656C4.417969,2.167969,4.480469,2.144531,4.554688,2.144531L14.730469,2.144531C14.804688,2.144531,14.867188,2.167969,14.921875,2.222656C14.972656,2.273438,15,2.339844,15,2.410156ZM15,2.410156" fill="#FFFFFF"/></svg>