<svg version="1.1" xmlns="http://www.w3.org/2000/svg" xlink="http://www.w3.org/1999/xlink" x="0px" y="0px" width="15px" height="15px" viewBox="0 0 15 15" style="enable-background:new 0 0 15 15;" space="preserve"><path d="M10.6875,10.875C10.734375,10.980469,10.71875,11.078125,10.648438,11.167969L7.71875,14.378906C7.660156,14.4375,7.597656,14.464844,7.523438,14.464844C7.445312,14.464844,7.378906,14.4375,7.324219,14.378906L4.351562,11.167969C4.28125,11.078125,4.265625,10.980469,4.3125,10.875C4.359375,10.765625,4.441406,10.714844,4.554688,10.714844L6.429688,10.714844L6.429688,0.269531C6.429688,0.191406,6.453125,0.125,6.503906,0.0742188C6.554688,0.0234375,6.617188,0,6.695312,0L8.304688,0C8.382812,0,8.445312,0.0234375,8.496094,0.0742188C8.546875,0.125,8.570312,0.191406,8.570312,0.269531L8.570312,10.714844L10.445312,10.714844C10.5625,10.714844,10.644531,10.765625,10.6875,10.875ZM10.6875,10.875" fill="#FFFFFF"/></svg>