<svg version="1.1" xmlns="http://www.w3.org/2000/svg" xlink="http://www.w3.org/1999/xlink" x="0px" y="0px" width="15px" height="15px" viewBox="0 0 15 15" style="enable-background:new 0 0 15 15;" space="preserve"><path d="M3.1875,13.558594C3.1875,14.007812,3.035156,14.359375,2.734375,14.613281C2.429688,14.871094,2.050781,15,1.597656,15C1.007812,15,0.527344,14.816406,0.160156,14.449219L0.636719,13.710938C0.910156,13.960938,1.207031,14.085938,1.523438,14.085938C1.683594,14.085938,1.824219,14.046875,1.945312,13.964844C2.066406,13.886719,2.125,13.765625,2.125,13.609375C2.125,13.253906,1.832031,13.097656,1.246094,13.140625L1.03125,12.671875C1.074219,12.617188,1.164062,12.496094,1.300781,12.308594C1.4375,12.121094,1.558594,11.972656,1.65625,11.855469C1.757812,11.742188,1.859375,11.636719,1.96875,11.535156L1.96875,11.527344C1.878906,11.527344,1.742188,11.527344,1.5625,11.535156C1.378906,11.539062,1.246094,11.542969,1.15625,11.542969L1.15625,11.988281L0.269531,11.988281L0.269531,10.714844L3.054688,10.714844L3.054688,11.449219L2.261719,12.414062C2.542969,12.480469,2.769531,12.617188,2.9375,12.824219C3.105469,13.03125,3.1875,13.277344,3.1875,13.558594ZM3.207031,8.3125L3.207031,9.644531L0.175781,9.644531C0.140625,9.441406,0.125,9.292969,0.125,9.191406C0.125,8.90625,0.191406,8.648438,0.320312,8.414062C0.453125,8.179688,0.609375,7.988281,0.796875,7.84375C0.980469,7.699219,1.164062,7.566406,1.347656,7.445312C1.53125,7.324219,1.6875,7.203125,1.820312,7.082031C1.953125,6.957031,2.015625,6.832031,2.015625,6.703125C2.015625,6.566406,1.976562,6.457031,1.894531,6.382812C1.816406,6.308594,1.703125,6.269531,1.566406,6.269531C1.308594,6.269531,1.082031,6.429688,0.886719,6.753906L0.175781,6.261719C0.308594,5.976562,0.507812,5.753906,0.773438,5.59375C1.039062,5.4375,1.332031,5.355469,1.65625,5.355469C2.066406,5.355469,2.40625,5.472656,2.6875,5.703125C2.964844,5.9375,3.105469,6.25,3.105469,6.644531C3.105469,6.925781,3.011719,7.179688,2.820312,7.414062C2.632812,7.644531,2.421875,7.824219,2.191406,7.953125C1.964844,8.082031,1.753906,8.222656,1.5625,8.375C1.367188,8.527344,1.269531,8.675781,1.265625,8.8125L2.328125,8.8125L2.328125,8.3125ZM15,10.980469L15,12.589844C15,12.660156,14.972656,12.722656,14.921875,12.777344C14.867188,12.832031,14.804688,12.855469,14.730469,12.855469L4.554688,12.855469C4.480469,12.855469,4.417969,12.832031,4.367188,12.777344C4.3125,12.722656,4.285156,12.660156,4.285156,12.589844L4.285156,10.980469C4.285156,10.902344,4.3125,10.839844,4.359375,10.789062C4.410156,10.738281,4.476562,10.714844,4.554688,10.714844L14.730469,10.714844C14.804688,10.714844,14.867188,10.742188,14.921875,10.792969C14.972656,10.847656,15,10.910156,15,10.980469ZM3.214844,3.457031L3.214844,4.285156L0.410156,4.285156L0.410156,3.457031L1.304688,3.457031C1.304688,3.226562,1.308594,2.886719,1.308594,2.4375C1.3125,1.984375,1.3125,1.644531,1.3125,1.421875L1.3125,1.324219L1.296875,1.324219C1.253906,1.417969,1.113281,1.566406,0.878906,1.773438L0.285156,1.136719L1.421875,0.0742188L2.308594,0.0742188L2.308594,3.457031ZM15,6.695312L15,8.304688C15,8.375,14.972656,8.4375,14.921875,8.492188C14.867188,8.546875,14.804688,8.570312,14.730469,8.570312L4.554688,8.570312C4.480469,8.570312,4.417969,8.546875,4.367188,8.492188C4.3125,8.4375,4.285156,8.375,4.285156,8.304688L4.285156,6.695312C4.285156,6.617188,4.3125,6.554688,4.359375,6.503906C4.410156,6.453125,4.476562,6.429688,4.554688,6.429688L14.730469,6.429688C14.804688,6.429688,14.867188,6.453125,14.921875,6.507812C14.972656,6.5625,15,6.625,15,6.695312ZM15,2.410156L15,4.019531C15,4.089844,14.972656,4.152344,14.921875,4.207031C14.867188,4.257812,14.804688,4.285156,14.730469,4.285156L4.554688,4.285156C4.480469,4.285156,4.417969,4.257812,4.367188,4.207031C4.3125,4.152344,4.285156,4.089844,4.285156,4.019531L4.285156,2.410156C4.285156,2.339844,4.3125,2.273438,4.367188,2.222656C4.417969,2.167969,4.480469,2.144531,4.554688,2.144531L14.730469,2.144531C14.804688,2.144531,14.867188,2.167969,14.921875,2.222656C14.972656,2.273438,15,2.339844,15,2.410156ZM15,2.410156" fill="#FFFFFF"/></svg>