<svg version="1.1" xmlns="http://www.w3.org/2000/svg" xlink="http://www.w3.org/1999/xlink" x="0px" y="0px" width="15px" height="15px" viewBox="0 0 15 15" style="enable-background:new 0 0 15 15;" space="preserve"><path d="M2.945312,10.714844C2.578125,10.714844,2.261719,10.582031,2,10.320312C1.738281,10.058594,1.605469,9.742188,1.605469,9.375L1.605469,3.480469C1.605469,3.113281,1.738281,2.796875,2,2.535156C2.261719,2.273438,2.578125,2.144531,2.945312,2.144531L12.054688,2.144531C12.421875,2.144531,12.738281,2.273438,13,2.535156C13.261719,2.796875,13.394531,3.113281,13.394531,3.480469L13.394531,9.375C13.394531,9.742188,13.261719,10.058594,13,10.320312C12.738281,10.582031,12.421875,10.714844,12.054688,10.714844ZM2.679688,3.480469L2.679688,9.375C2.679688,9.449219,2.703125,9.511719,2.757812,9.5625C2.8125,9.617188,2.875,9.644531,2.945312,9.644531L12.054688,9.644531C12.125,9.644531,12.1875,9.617188,12.242188,9.5625C12.292969,9.511719,12.320312,9.449219,12.320312,9.375L12.320312,3.480469C12.320312,3.410156,12.292969,3.347656,12.242188,3.292969C12.1875,3.242188,12.125,3.214844,12.054688,3.214844L2.945312,3.214844C2.875,3.214844,2.8125,3.242188,2.757812,3.292969C2.703125,3.347656,2.679688,3.410156,2.679688,3.480469ZM14.195312,11.25L15.535156,11.25L15.535156,12.054688C15.535156,12.277344,15.40625,12.464844,15.140625,12.621094C14.878906,12.777344,14.566406,12.855469,14.195312,12.855469L0.804688,12.855469C0.433594,12.855469,0.121094,12.777344,-0.140625,12.621094C-0.40625,12.464844,-0.535156,12.277344,-0.535156,12.054688L-0.535156,11.25ZM8.167969,12.054688C8.257812,12.054688,8.304688,12.007812,8.304688,11.917969C8.304688,11.832031,8.257812,11.785156,8.167969,11.785156L6.832031,11.785156C6.742188,11.785156,6.695312,11.832031,6.695312,11.917969C6.695312,12.007812,6.742188,12.054688,6.832031,12.054688ZM8.167969,12.054688" fill="#FFFFFF"/></svg>