<svg version="1.1" xmlns="http://www.w3.org/2000/svg" xlink="http://www.w3.org/1999/xlink" x="0px" y="0px" width="15px" height="17.142857142857142px" viewBox="0 0 15 17.142857142857142" style="enable-background:new 0 0 15 15;" space="preserve">
    <path d="M13.392857142857142,7.5h-0.8035714285714286v-2.4107142857142856C12.589285714285714,2.283482142857143,10.305803571428571,0,7.5,0S2.4107142857142856,2.283482142857143,2.4107142857142856,5.089285714285714v2.4107142857142856H1.6071428571428572c-0.8872767857142857,0,-1.6071428571428572,0.7198660714285714,-1.6071428571428572,1.6071428571428572v6.428571428571429c0,0.8872767857142857,0.7198660714285714,1.6071428571428572,1.6071428571428572,1.6071428571428572h11.785714285714285c0.8872767857142857,0,1.6071428571428572,-0.7198660714285714,1.6071428571428572,-1.6071428571428572V9.107142857142858c0,-0.8872767857142857,-0.7198660714285714,-1.6071428571428572,-1.6071428571428572,-1.6071428571428572zm-3.482142857142857,0H5.089285714285714v-2.4107142857142856c0,-1.3292410714285714,1.0814732142857142,-2.4107142857142856,2.4107142857142856,-2.4107142857142856s2.4107142857142856,1.0814732142857142,2.4107142857142856,2.4107142857142856v2.4107142857142856z" fill="#FFFFFF"/>
    </svg>