<svg version="1.1" xmlns="http://www.w3.org/2000/svg" xlink="http://www.w3.org/1999/xlink" x="0px" y="0px" width="15px" height="15px" viewBox="0 0 15 15" style="enable-background:new 0 0 15 15;" space="preserve"><path d="M10.816406,5.894531C10.816406,5.925781,10.84375,6.039062,10.898438,6.234375C10.953125,6.398438,11.023438,6.535156,11.109375,6.648438C11.191406,6.765625,11.304688,6.859375,11.449219,6.933594C11.597656,7.011719,11.71875,7.066406,11.820312,7.101562C11.917969,7.136719,12.074219,7.183594,12.28125,7.242188C14.09375,7.75,15,8.675781,15,10.019531C15,10.835938,14.707031,11.511719,14.117188,12.050781C13.527344,12.585938,12.816406,12.855469,11.988281,12.855469C11.65625,12.855469,11.347656,12.804688,11.054688,12.703125C10.761719,12.597656,10.503906,12.472656,10.289062,12.320312C10.070312,12.171875,9.855469,11.960938,9.644531,11.699219C9.429688,11.433594,9.253906,11.1875,9.117188,10.964844C8.976562,10.742188,8.828125,10.453125,8.667969,10.097656C8.507812,9.746094,8.386719,9.457031,8.304688,9.238281C8.21875,9.015625,8.109375,8.71875,7.972656,8.34375C7.835938,7.972656,7.738281,7.707031,7.675781,7.550781C7.496094,7.097656,7.324219,6.726562,7.160156,6.433594C6.996094,6.140625,6.792969,5.871094,6.546875,5.625C6.300781,5.378906,6.011719,5.199219,5.675781,5.089844C5.339844,4.976562,4.945312,4.921875,4.488281,4.921875C3.949219,4.921875,3.441406,5.078125,2.953125,5.386719C2.46875,5.695312,2.085938,6.097656,1.800781,6.597656C1.515625,7.09375,1.371094,7.609375,1.371094,8.144531C1.371094,9.039062,1.671875,9.816406,2.265625,10.484375C2.859375,11.152344,3.59375,11.484375,4.46875,11.484375C5.457031,11.484375,6.175781,11.21875,6.628906,10.6875C6.941406,10.335938,7.171875,10.015625,7.324219,9.71875L8.027344,10.992188C7.945312,11.179688,7.820312,11.375,7.660156,11.578125L7.667969,11.585938C6.9375,12.433594,5.855469,12.855469,4.417969,12.855469C3.597656,12.855469,2.847656,12.636719,2.164062,12.195312C1.480469,11.753906,0.949219,11.175781,0.570312,10.460938C0.191406,9.742188,0,8.976562,0,8.160156C0,7.574219,0.121094,7,0.363281,6.4375C0.605469,5.875,0.929688,5.378906,1.335938,4.960938C1.738281,4.539062,2.21875,4.199219,2.773438,3.941406C3.328125,3.6875,3.902344,3.558594,4.488281,3.558594C4.972656,3.558594,5.414062,3.609375,5.816406,3.714844C6.21875,3.824219,6.5625,3.960938,6.851562,4.136719C7.136719,4.308594,7.402344,4.53125,7.648438,4.804688C7.890625,5.078125,8.089844,5.355469,8.253906,5.632812C8.414062,5.914062,8.578125,6.238281,8.742188,6.613281C8.90625,6.988281,9.046875,7.332031,9.164062,7.65625C9.28125,7.976562,9.421875,8.339844,9.585938,8.746094C9.746094,9.15625,9.898438,9.507812,10.042969,9.808594C10.582031,10.925781,11.230469,11.484375,11.996094,11.484375C12.445312,11.484375,12.832031,11.347656,13.15625,11.078125C13.476562,10.808594,13.636719,10.449219,13.636719,10.003906C13.636719,9.769531,13.582031,9.566406,13.476562,9.398438C13.371094,9.234375,13.230469,9.105469,13.054688,9.015625C12.878906,8.925781,12.675781,8.835938,12.445312,8.75C12.21875,8.664062,11.984375,8.589844,11.738281,8.523438C11.496094,8.460938,11.253906,8.367188,11.007812,8.242188C10.761719,8.117188,10.535156,7.96875,10.328125,7.804688C10.121094,7.640625,9.941406,7.414062,9.785156,7.117188C9.628906,6.828125,9.519531,6.484375,9.457031,6.09375C9.441406,6.003906,9.433594,5.914062,9.433594,5.816406C9.433594,5.203125,9.675781,4.667969,10.164062,4.210938C10.652344,3.753906,11.207031,3.535156,11.828125,3.558594C12.261719,3.574219,12.597656,3.613281,12.835938,3.679688C13.074219,3.742188,13.324219,3.890625,13.59375,4.125L13.585938,4.125C13.652344,4.1875,13.714844,4.257812,13.777344,4.332031C13.839844,4.40625,13.910156,4.507812,13.996094,4.632812C14.078125,4.757812,14.132812,4.835938,14.15625,4.863281L13.074219,5.691406C12.929688,5.417969,12.777344,5.222656,12.621094,5.105469L12.621094,5.097656C12.496094,4.980469,12.222656,4.921875,11.8125,4.921875C11.539062,4.921875,11.304688,5.015625,11.109375,5.199219C10.914062,5.382812,10.816406,5.613281,10.816406,5.894531ZM10.816406,5.894531" fill="#FFFFFF"/></svg>