<svg version="1.1" xmlns="http://www.w3.org/2000/svg" xlink="http://www.w3.org/1999/xlink" x="0px" y="0px" width="15px" height="15px" viewBox="0 0 15 15" style="enable-background:new 0 0 15 15;" space="preserve"><path d="M9.644531,5.355469C9.644531,4.765625,9.433594,4.261719,9.015625,3.84375C8.597656,3.421875,8.089844,3.214844,7.5,3.214844C6.910156,3.214844,6.402344,3.421875,5.984375,3.84375C5.566406,4.261719,5.355469,4.765625,5.355469,5.355469C5.355469,5.949219,5.566406,6.453125,5.984375,6.871094C6.402344,7.289062,6.910156,7.5,7.5,7.5C8.089844,7.5,8.597656,7.289062,9.015625,6.871094C9.433594,6.453125,9.644531,5.949219,9.644531,5.355469ZM11.785156,5.355469C11.785156,5.964844,11.695312,6.464844,11.507812,6.855469L8.460938,13.335938C8.375,13.519531,8.242188,13.664062,8.066406,13.769531C7.890625,13.875,7.699219,13.929688,7.5,13.929688C7.300781,13.929688,7.109375,13.875,6.933594,13.769531C6.757812,13.664062,6.628906,13.519531,6.546875,13.335938L3.492188,6.855469C3.304688,6.464844,3.214844,5.964844,3.214844,5.355469C3.214844,4.175781,3.632812,3.164062,4.46875,2.328125C5.308594,1.488281,6.316406,1.070312,7.5,1.070312C8.683594,1.070312,9.691406,1.488281,10.53125,2.328125C11.367188,3.164062,11.785156,4.175781,11.785156,5.355469ZM11.785156,5.355469" fill="#FFFFFF"/></svg>