<svg version="1.1" xmlns="http://www.w3.org/2000/svg" xlink="http://www.w3.org/1999/xlink" x="0px" y="0px" width="15px" height="15px" viewBox="0 0 15 15" style="enable-background:new 0 0 15 15;" space="preserve"><path d="M3.875,7.910156L3.03125,8.753906C2.796875,8.179688,2.679688,7.582031,2.679688,6.964844L2.679688,5.894531C2.679688,5.746094,2.730469,5.621094,2.835938,5.515625C2.945312,5.410156,3.070312,5.355469,3.214844,5.355469C3.359375,5.355469,3.484375,5.410156,3.589844,5.515625C3.695312,5.621094,3.75,5.746094,3.75,5.894531L3.75,6.964844C3.75,7.261719,3.792969,7.574219,3.875,7.910156ZM13.199219,2.871094L10.179688,5.894531L10.179688,6.964844C10.179688,7.699219,9.917969,8.332031,9.390625,8.855469C8.867188,9.378906,8.238281,9.644531,7.5,9.644531C7.191406,9.644531,6.890625,9.589844,6.585938,9.484375L5.785156,10.289062C6.324219,10.570312,6.898438,10.714844,7.5,10.714844C8.53125,10.714844,9.414062,10.347656,10.148438,9.613281C10.882812,8.878906,11.25,7.996094,11.25,6.964844L11.25,5.894531C11.25,5.746094,11.304688,5.621094,11.410156,5.515625C11.515625,5.410156,11.640625,5.355469,11.785156,5.355469C11.929688,5.355469,12.054688,5.410156,12.164062,5.515625C12.269531,5.621094,12.320312,5.746094,12.320312,5.894531L12.320312,6.964844C12.320312,8.199219,11.910156,9.269531,11.085938,10.183594C10.261719,11.09375,9.246094,11.617188,8.035156,11.753906L8.035156,12.855469L10.179688,12.855469C10.324219,12.855469,10.449219,12.910156,10.554688,13.015625C10.660156,13.121094,10.714844,13.246094,10.714844,13.394531C10.714844,13.539062,10.660156,13.664062,10.554688,13.769531C10.449219,13.875,10.324219,13.929688,10.179688,13.929688L4.820312,13.929688C4.675781,13.929688,4.550781,13.875,4.445312,13.769531C4.339844,13.664062,4.285156,13.539062,4.285156,13.394531C4.285156,13.246094,4.339844,13.121094,4.445312,13.015625C4.550781,12.910156,4.675781,12.855469,4.820312,12.855469L6.964844,12.855469L6.964844,11.753906C6.265625,11.679688,5.609375,11.453125,4.996094,11.074219L2.871094,13.199219C2.816406,13.257812,2.75,13.285156,2.679688,13.285156C2.605469,13.285156,2.542969,13.257812,2.484375,13.199219L1.800781,12.515625C1.742188,12.457031,1.714844,12.394531,1.714844,12.320312C1.714844,12.25,1.742188,12.183594,1.800781,12.128906L12.128906,1.800781C12.183594,1.742188,12.25,1.714844,12.320312,1.714844C12.394531,1.714844,12.457031,1.742188,12.515625,1.800781L13.199219,2.484375C13.257812,2.542969,13.285156,2.605469,13.285156,2.679688C13.285156,2.75,13.257812,2.816406,13.199219,2.871094ZM10.019531,1.765625L4.820312,6.964844L4.820312,2.679688C4.820312,1.941406,5.082031,1.3125,5.609375,0.785156C6.132812,0.261719,6.761719,0,7.5,0C8.070312,0,8.585938,0.164062,9.042969,0.492188C9.503906,0.824219,9.828125,1.246094,10.019531,1.765625ZM10.019531,1.765625" fill="#FFFFFF"/></svg>