<svg version="1.1" xmlns="http://www.w3.org/2000/svg" xlink="http://www.w3.org/1999/xlink" x="0px" y="0px" width="15px" height="15px" viewBox="0 0 15 15" style="enable-background:new 0 0 15 15;" space="preserve"><path d="M10.714844,9.105469C10.714844,9.253906,10.660156,9.378906,10.554688,9.484375C10.449219,9.589844,10.324219,9.644531,10.179688,9.644531L4.820312,9.644531C4.675781,9.644531,4.550781,9.589844,4.445312,9.484375C4.339844,9.378906,4.285156,9.253906,4.285156,9.105469C4.285156,8.960938,4.339844,8.835938,4.445312,8.730469C4.550781,8.625,4.675781,8.570312,4.820312,8.570312L10.179688,8.570312C10.324219,8.570312,10.449219,8.625,10.554688,8.730469C10.660156,8.835938,10.714844,8.960938,10.714844,9.105469ZM6.429688,5.355469C6.429688,5.652344,6.324219,5.90625,6.113281,6.113281C5.90625,6.324219,5.652344,6.429688,5.355469,6.429688C5.0625,6.429688,4.808594,6.324219,4.601562,6.113281C4.390625,5.90625,4.285156,5.652344,4.285156,5.355469C4.285156,5.0625,4.390625,4.808594,4.601562,4.601562C4.808594,4.390625,5.0625,4.285156,5.355469,4.285156C5.652344,4.285156,5.90625,4.390625,6.113281,4.601562C6.324219,4.808594,6.429688,5.0625,6.429688,5.355469ZM10.714844,5.355469C10.714844,5.652344,10.609375,5.90625,10.398438,6.113281C10.191406,6.324219,9.9375,6.429688,9.644531,6.429688C9.347656,6.429688,9.09375,6.324219,8.886719,6.113281C8.675781,5.90625,8.570312,5.652344,8.570312,5.355469C8.570312,5.0625,8.675781,4.808594,8.886719,4.601562C9.09375,4.390625,9.347656,4.285156,9.644531,4.285156C9.9375,4.285156,10.191406,4.390625,10.398438,4.601562C10.609375,4.808594,10.714844,5.0625,10.714844,5.355469ZM12.855469,7.5C12.855469,6.773438,12.714844,6.082031,12.429688,5.421875C12.144531,4.757812,11.765625,4.1875,11.289062,3.710938C10.8125,3.234375,10.242188,2.855469,9.578125,2.570312C8.917969,2.285156,8.226562,2.144531,7.5,2.144531C6.773438,2.144531,6.082031,2.285156,5.421875,2.570312C4.757812,2.855469,4.1875,3.234375,3.710938,3.710938C3.234375,4.1875,2.855469,4.757812,2.570312,5.421875C2.285156,6.082031,2.144531,6.773438,2.144531,7.5C2.144531,8.226562,2.285156,8.917969,2.570312,9.578125C2.855469,10.242188,3.234375,10.8125,3.710938,11.289062C4.1875,11.765625,4.757812,12.144531,5.421875,12.429688C6.082031,12.714844,6.773438,12.855469,7.5,12.855469C8.226562,12.855469,8.917969,12.714844,9.578125,12.429688C10.242188,12.144531,10.8125,11.765625,11.289062,11.289062C11.765625,10.8125,12.144531,10.242188,12.429688,9.578125C12.714844,8.917969,12.855469,8.226562,12.855469,7.5ZM13.929688,7.5C13.929688,8.667969,13.640625,9.742188,13.066406,10.726562C12.492188,11.710938,11.710938,12.492188,10.726562,13.066406C9.742188,13.640625,8.667969,13.929688,7.5,13.929688C6.332031,13.929688,5.257812,13.640625,4.273438,13.066406C3.289062,12.492188,2.507812,11.710938,1.933594,10.726562C1.359375,9.742188,1.070312,8.667969,1.070312,7.5C1.070312,6.332031,1.359375,5.257812,1.933594,4.273438C2.507812,3.289062,3.289062,2.507812,4.273438,1.933594C5.257812,1.359375,6.332031,1.070312,7.5,1.070312C8.667969,1.070312,9.742188,1.359375,10.726562,1.933594C11.710938,2.507812,12.492188,3.289062,13.066406,4.273438C13.640625,5.257812,13.929688,6.332031,13.929688,7.5ZM13.929688,7.5" fill="#FFFFFF"/></svg>