<svg version="1.1" xmlns="http://www.w3.org/2000/svg" xlink="http://www.w3.org/1999/xlink" x="0px" y="0px" width="15px" height="15px" viewBox="0 0 15 15" style="enable-background:new 0 0 15 15;" space="preserve">
    <path d="M11.625,8.730469C11.800781,8.898438,11.839844,9.089844,11.742188,9.308594C11.648438,9.53125,11.484375,9.644531,11.25,9.644531L8.050781,9.644531L9.734375,13.628906C9.789062,13.765625,9.789062,13.902344,9.734375,14.039062C9.679688,14.171875,9.585938,14.269531,9.449219,14.332031L7.96875,14.957031C7.828125,15.015625,7.691406,15.015625,7.558594,14.957031C7.425781,14.902344,7.328125,14.808594,7.265625,14.671875L5.667969,10.890625L3.054688,13.5C2.949219,13.609375,2.824219,13.660156,2.679688,13.660156C2.613281,13.660156,2.542969,13.648438,2.476562,13.617188C2.253906,13.523438,2.144531,13.359375,2.144531,13.125L2.144531,0.535156C2.144531,0.300781,2.253906,0.136719,2.476562,0.0429688C2.542969,0.015625,2.613281,0,2.679688,0C2.828125,0,2.953125,0.0546875,3.054688,0.160156ZM11.625,8.730469" fill="#FFFFFF"/>
    </svg>