<svg version="1.1" xmlns="http://www.w3.org/2000/svg" xlink="http://www.w3.org/1999/xlink" x="0px" y="0px" width="15px" height="15px" viewBox="0 0 15 15" style="enable-background:new 0 0 15 15;" space="preserve"><path d="M12.1875,1.40625v12.1875c0,0.7766601562500001,-0.6295898437499999,1.40625,-1.40625,1.40625H4.21875c-0.7766601562500001,0,-1.40625,-0.6295898437499999,-1.40625,-1.40625V1.40625c0,-0.7766601562500001,0.6295898437499999,-1.40625,1.40625,-1.40625h6.5625c0.7766601562500001,0,1.40625,0.6295898437499999,1.40625,1.40625zm2.8125,1.69921875v0.3515625a0.17578125,0.17578125,0,0,1,-0.17578125,0.17578125h-0.52734375v0.17578125a0.17578125,0.17578125,0,0,1,-0.17578125,0.17578125h-1.23046875V2.578125h1.23046875a0.17578125,0.17578125,0,0,1,0.17578125,0.17578125v0.17578125h0.52734375a0.17578125,0.17578125,0,0,1,0.17578125,0.17578125zm0,2.8125v0.3515625a0.17578125,0.17578125,0,0,1,-0.17578125,0.17578125h-0.52734375v0.17578125a0.17578125,0.17578125,0,0,1,-0.17578125,0.17578125h-1.23046875v-1.40625h1.23046875a0.17578125,0.17578125,0,0,1,0.17578125,0.17578125v0.17578125h0.52734375a0.17578125,0.17578125,0,0,1,0.17578125,0.17578125zm0,2.8125v0.3515625a0.17578125,0.17578125,0,0,1,-0.17578125,0.17578125h-0.52734375v0.17578125a0.17578125,0.17578125,0,0,1,-0.17578125,0.17578125h-1.23046875v-1.40625h1.23046875a0.17578125,0.17578125,0,0,1,0.17578125,0.17578125v0.17578125h0.52734375a0.17578125,0.17578125,0,0,1,0.17578125,0.17578125zm0,2.8125v0.3515625a0.17578125,0.17578125,0,0,1,-0.17578125,0.17578125h-0.52734375v0.17578125a0.17578125,0.17578125,0,0,1,-0.17578125,0.17578125h-1.23046875v-1.40625h1.23046875a0.17578125,0.17578125,0,0,1,0.17578125,0.17578125v0.17578125h0.52734375a0.17578125,0.17578125,0,0,1,0.17578125,0.17578125zM0.87890625,11.015625h1.23046875v1.40625H0.87890625a0.17578125,0.17578125,0,0,1,-0.17578125,-0.17578125v-0.17578125H0.17578125a0.17578125,0.17578125,0,0,1,-0.17578125,-0.17578125v-0.3515625a0.17578125,0.17578125,0,0,1,0.17578125,-0.17578125h0.52734375v-0.17578125a0.17578125,0.17578125,0,0,1,0.17578125,-0.17578125zm0,-2.8125h1.23046875v1.40625H0.87890625a0.17578125,0.17578125,0,0,1,-0.17578125,-0.17578125v-0.17578125H0.17578125a0.17578125,0.17578125,0,0,1,-0.17578125,-0.17578125v-0.3515625a0.17578125,0.17578125,0,0,1,0.17578125,-0.17578125h0.52734375v-0.17578125a0.17578125,0.17578125,0,0,1,0.17578125,-0.17578125zm0,-2.8125h1.23046875v1.40625H0.87890625a0.17578125,0.17578125,0,0,1,-0.17578125,-0.17578125v-0.17578125H0.17578125a0.17578125,0.17578125,0,0,1,-0.17578125,-0.17578125v-0.3515625a0.17578125,0.17578125,0,0,1,0.17578125,-0.17578125h0.52734375v-0.17578125a0.17578125,0.17578125,0,0,1,0.17578125,-0.17578125zm0,-2.8125h1.23046875v1.40625H0.87890625a0.17578125,0.17578125,0,0,1,-0.17578125,-0.17578125v-0.17578125H0.17578125a0.17578125,0.17578125,0,0,1,-0.17578125,-0.17578125v-0.3515625a0.17578125,0.17578125,0,0,1,0.17578125,-0.17578125h0.52734375v-0.17578125a0.17578125,0.17578125,0,0,1,0.17578125,-0.17578125z" fill="#FFFFFF"/></svg>