<svg version="1.1" xmlns="http://www.w3.org/2000/svg" xlink="http://www.w3.org/1999/xlink" x="0px" y="0px" width="15px" height="15px" viewBox="0 0 15 15" style="enable-background:new 0 0 15 15;" space="preserve"><path d="M5.894531,9.644531L9.105469,9.644531L9.105469,8.839844L8.035156,8.839844L8.035156,5.089844L7.082031,5.089844L5.84375,6.234375L6.488281,6.90625C6.722656,6.699219,6.875,6.539062,6.949219,6.429688L6.964844,6.429688L6.964844,8.839844L5.894531,8.839844ZM10.179688,7.5C10.179688,7.890625,10.121094,8.285156,10.003906,8.6875C9.886719,9.089844,9.71875,9.464844,9.503906,9.808594C9.289062,10.15625,9.007812,10.4375,8.65625,10.65625C8.304688,10.875,7.917969,10.980469,7.5,10.980469C7.082031,10.980469,6.695312,10.875,6.34375,10.65625C5.992188,10.4375,5.710938,10.15625,5.496094,9.808594C5.28125,9.464844,5.113281,9.089844,4.996094,8.6875C4.878906,8.285156,4.820312,7.890625,4.820312,7.5C4.820312,7.109375,4.878906,6.714844,4.996094,6.3125C5.113281,5.910156,5.28125,5.535156,5.496094,5.191406C5.710938,4.84375,5.992188,4.5625,6.34375,4.34375C6.695312,4.125,7.082031,4.019531,7.5,4.019531C7.917969,4.019531,8.304688,4.125,8.65625,4.34375C9.007812,4.5625,9.289062,4.84375,9.503906,5.191406C9.71875,5.535156,9.886719,5.910156,10.003906,6.3125C10.121094,6.714844,10.179688,7.109375,10.179688,7.5ZM14.464844,9.644531L14.464844,5.355469C13.871094,5.355469,13.367188,5.148438,12.949219,4.730469C12.53125,4.3125,12.320312,3.804688,12.320312,3.214844L2.679688,3.214844C2.679688,3.804688,2.46875,4.3125,2.050781,4.730469C1.632812,5.148438,1.128906,5.355469,0.535156,5.355469L0.535156,9.644531C1.128906,9.644531,1.632812,9.851562,2.050781,10.269531C2.46875,10.6875,2.679688,11.195312,2.679688,11.785156L12.320312,11.785156C12.320312,11.195312,12.53125,10.6875,12.949219,10.269531C13.367188,9.851562,13.871094,9.644531,14.464844,9.644531ZM15.535156,2.679688L15.535156,12.320312C15.535156,12.464844,15.484375,12.59375,15.375,12.699219C15.269531,12.804688,15.144531,12.855469,15,12.855469L0,12.855469C-0.144531,12.855469,-0.269531,12.804688,-0.375,12.699219C-0.484375,12.59375,-0.535156,12.464844,-0.535156,12.320312L-0.535156,2.679688C-0.535156,2.535156,-0.484375,2.40625,-0.375,2.300781C-0.269531,2.195312,-0.144531,2.144531,0,2.144531L15,2.144531C15.144531,2.144531,15.269531,2.195312,15.375,2.300781C15.484375,2.40625,15.535156,2.535156,15.535156,2.679688ZM15.535156,2.679688" fill="#FFFFFF"/></svg>