<svg version="1.1" xmlns="http://www.w3.org/2000/svg" xlink="http://www.w3.org/1999/xlink" x="0px" y="0px" width="15px" height="13.333333333333332px" viewBox="0 0 15 13.333333333333332" style="enable-background:new 0 0 15 15;" space="preserve">
    <path d="M4.166666666666666,11.666666666666666c-0.6666666666666666,0,-1.3333333333333333,-0.5833333333333333,-1.6666666666666665,-0.8333333333333333c-1.6666666666666665,-1.1666666666666665,-2.1666666666666665,-1.5833333333333333,-2.5,-1.8333333333333333V12.5c0,0.46015625,0.37317708333333327,0.8333333333333333,0.8333333333333333,0.8333333333333333h6.666666666666666c0.46015625,0,0.8333333333333333,-0.37317708333333327,0.8333333333333333,-0.8333333333333333V9c-0.3333333333333333,0.25,-0.8333333333333333,0.6666666666666666,-2.5,1.8333333333333333c-0.3333333333333333,0.25,-1,0.8333333333333333,-1.6666666666666665,0.8333333333333333zm3.333333333333333,-5H0.8333333333333333c-0.46015625,0,-0.8333333333333333,0.37317708333333327,-0.8333333333333333,0.8333333333333333v0.41666666666666663c0.6666666666666666,0.5,0.5833333333333333,0.5,3,2.25c0.25,0.16666666666666666,0.75,0.6666666666666666,1.1666666666666665,0.6666666666666666s0.9166666666666666,-0.5,1.1666666666666665,-0.5833333333333333c2.4166666666666665,-1.75,2.333333333333333,-1.75,3,-2.25V7.5c0,-0.46015625,-0.37317708333333327,-0.8333333333333333,-0.8333333333333333,-0.8333333333333333zm6.666666666666666,-2.5H5.833333333333333c-0.46015625,0,-0.8333333333333333,0.37317708333333327,-0.8333333333333333,0.8333333333333333v0.8333333333333333h2.5c0.86484375,0,1.5778645833333333,0.6619791666666667,1.6591145833333332,1.5057291666666666l0.0075520833333333325,-0.005729166666666666V10.833333333333332h5c0.46015625,0,0.8333333333333333,-0.37317708333333327,0.8333333333333333,-0.8333333333333333V5c0,-0.46015625,-0.37317708333333327,-0.8333333333333333,-0.8333333333333333,-0.8333333333333333zm-0.8333333333333333,3.333333333333333h-1.6666666666666665v-1.6666666666666665h1.6666666666666665v1.6666666666666665zm-9.166666666666666,-2.5c0,-0.9190104166666666,0.74765625,-1.6666666666666665,1.6666666666666665,-1.6666666666666665h5.833333333333333V0.8333333333333333c0,-0.46015625,-0.37317708333333327,-0.8333333333333333,-0.8333333333333333,-0.8333333333333333H2.5C2.03984375,0,1.6666666666666665,0.37317708333333327,1.6666666666666665,0.8333333333333333v5h2.5v-0.8333333333333333z" fill="#FFFFFF"/>
    </svg>