<svg version="1.1" xmlns="http://www.w3.org/2000/svg" xlink="http://www.w3.org/1999/xlink" x="0px" y="0px" width="15px" height="15px" viewBox="0 0 15 15" style="enable-background:new 0 0 15 15;" space="preserve">
    <path d="M11.785156,5.894531L11.785156,9.375C11.785156,9.597656,11.707031,9.789062,11.550781,9.945312C11.394531,10.101562,11.207031,10.179688,10.980469,10.179688C10.757812,10.179688,10.570312,10.101562,10.414062,9.945312C10.257812,9.789062,10.179688,9.597656,10.179688,9.375L10.179688,6.429688L9.644531,6.429688L9.644531,14.0625C9.644531,14.320312,9.550781,14.539062,9.367188,14.722656C9.183594,14.90625,8.960938,15,8.707031,15C8.449219,15,8.226562,14.90625,8.042969,14.722656C7.859375,14.539062,7.769531,14.320312,7.769531,14.0625L7.769531,10.179688L7.230469,10.179688L7.230469,14.0625C7.230469,14.320312,7.140625,14.539062,6.957031,14.722656C6.773438,14.90625,6.550781,15,6.292969,15C6.039062,15,5.816406,14.90625,5.632812,14.722656C5.449219,14.539062,5.355469,14.320312,5.355469,14.0625L5.355469,6.429688L4.820312,6.429688L4.820312,9.375C4.820312,9.597656,4.742188,9.789062,4.585938,9.945312C4.429688,10.101562,4.242188,10.179688,4.019531,10.179688C3.792969,10.179688,3.605469,10.101562,3.449219,9.945312C3.292969,9.789062,3.214844,9.597656,3.214844,9.375L3.214844,5.894531C3.214844,5.445312,3.371094,5.066406,3.683594,4.753906C3.996094,4.441406,4.375,4.285156,4.820312,4.285156L10.179688,4.285156C10.625,4.285156,11.003906,4.441406,11.316406,4.753906C11.628906,5.066406,11.785156,5.445312,11.785156,5.894531ZM9.375,2.144531C9.375,2.660156,9.191406,3.105469,8.828125,3.46875C8.460938,3.835938,8.019531,4.019531,7.5,4.019531C6.980469,4.019531,6.539062,3.835938,6.171875,3.46875C5.808594,3.105469,5.625,2.660156,5.625,2.144531C5.625,1.625,5.808594,1.179688,6.171875,0.816406C6.539062,0.449219,6.980469,0.269531,7.5,0.269531C8.019531,0.269531,8.460938,0.449219,8.828125,0.816406C9.191406,1.179688,9.375,1.625,9.375,2.144531ZM9.375,2.144531" fill="#FFFFFF"/>
    </svg>