<svg version="1.1" xmlns="http://www.w3.org/2000/svg" xlink="http://www.w3.org/1999/xlink" x="0px" y="0px" width="15px" height="15px" viewBox="0 0 15 15" style="enable-background:new 0 0 15 15;" space="preserve"><path d="M10.714844,9.375L10.714844,7.769531C10.714844,7.691406,10.6875,7.625,10.640625,7.574219C10.589844,7.523438,10.523438,7.5,10.445312,7.5L8.570312,7.5L8.570312,5.625C8.570312,5.546875,8.546875,5.484375,8.496094,5.433594C8.445312,5.382812,8.382812,5.355469,8.304688,5.355469L6.695312,5.355469C6.617188,5.355469,6.554688,5.382812,6.503906,5.433594C6.453125,5.484375,6.429688,5.546875,6.429688,5.625L6.429688,7.5L4.554688,7.5C4.476562,7.5,4.410156,7.523438,4.359375,7.574219C4.3125,7.625,4.285156,7.691406,4.285156,7.769531L4.285156,9.375C4.285156,9.453125,4.3125,9.515625,4.359375,9.566406C4.410156,9.617188,4.476562,9.644531,4.554688,9.644531L6.429688,9.644531L6.429688,11.519531C6.429688,11.597656,6.453125,11.660156,6.503906,11.710938C6.554688,11.761719,6.617188,11.785156,6.695312,11.785156L8.304688,11.785156C8.382812,11.785156,8.445312,11.761719,8.496094,11.710938C8.546875,11.660156,8.570312,11.597656,8.570312,11.519531L8.570312,9.644531L10.445312,9.644531C10.523438,9.644531,10.589844,9.617188,10.640625,9.566406C10.6875,9.515625,10.714844,9.453125,10.714844,9.375ZM5.355469,3.214844L9.644531,3.214844L9.644531,2.144531L5.355469,2.144531ZM2.144531,3.214844L2.144531,13.929688L1.875,13.929688C1.363281,13.929688,0.921875,13.746094,0.550781,13.375C0.183594,13.007812,0,12.566406,0,12.054688L0,5.089844C0,4.574219,0.183594,4.136719,0.550781,3.765625C0.921875,3.398438,1.363281,3.214844,1.875,3.214844ZM12.054688,3.214844L12.054688,13.929688L2.945312,13.929688L2.945312,3.214844L4.285156,3.214844L4.285156,1.875C4.285156,1.652344,4.363281,1.460938,4.519531,1.304688C4.675781,1.148438,4.867188,1.070312,5.089844,1.070312L9.910156,1.070312C10.132812,1.070312,10.324219,1.148438,10.480469,1.304688C10.636719,1.460938,10.714844,1.652344,10.714844,1.875L10.714844,3.214844ZM15,5.089844L15,12.054688C15,12.566406,14.816406,13.007812,14.449219,13.375C14.078125,13.746094,13.636719,13.929688,13.125,13.929688L12.855469,13.929688L12.855469,3.214844L13.125,3.214844C13.636719,3.214844,14.078125,3.398438,14.449219,3.765625C14.816406,4.136719,15,4.574219,15,5.089844ZM15,5.089844" fill="#FFFFFF"/></svg>