<svg version="1.1" xmlns="http://www.w3.org/2000/svg" xlink="http://www.w3.org/1999/xlink" x="0px" y="0px" width="15px" height="15px" viewBox="0 0 15 15" style="enable-background:new 0 0 15 15;" space="preserve">
    <path d="M15,5.355469C15,5.503906,14.945312,5.628906,14.839844,5.734375L10.554688,10.019531C10.449219,10.125,10.324219,10.179688,10.179688,10.179688C10.035156,10.179688,9.90625,10.125,9.800781,10.019531C9.695312,9.914062,9.644531,9.789062,9.644531,9.644531L9.644531,7.5L7.769531,7.5C7.222656,7.5,6.730469,7.515625,6.296875,7.550781C5.867188,7.582031,5.4375,7.644531,5.007812,7.730469C4.582031,7.816406,4.210938,7.933594,3.898438,8.085938C3.582031,8.238281,3.285156,8.429688,3.011719,8.667969C2.738281,8.90625,2.515625,9.1875,2.34375,9.511719C2.171875,9.839844,2.035156,10.226562,1.9375,10.671875C1.839844,11.117188,1.792969,11.625,1.792969,12.1875C1.792969,12.496094,1.804688,12.835938,1.832031,13.21875C1.832031,13.25,1.839844,13.316406,1.855469,13.414062C1.867188,13.511719,1.875,13.585938,1.875,13.636719C1.875,13.71875,1.851562,13.789062,1.804688,13.84375C1.757812,13.902344,1.691406,13.929688,1.605469,13.929688C1.519531,13.929688,1.441406,13.882812,1.371094,13.785156C1.332031,13.734375,1.296875,13.675781,1.265625,13.601562C1.230469,13.53125,1.191406,13.445312,1.152344,13.351562C1.109375,13.257812,1.078125,13.1875,1.0625,13.148438C0.355469,11.558594,0,10.300781,0,9.375C0,8.265625,0.148438,7.335938,0.445312,6.585938C1.347656,4.339844,3.789062,3.214844,7.769531,3.214844L9.644531,3.214844L9.644531,1.070312C9.644531,0.925781,9.695312,0.800781,9.800781,0.695312C9.90625,0.589844,10.035156,0.535156,10.179688,0.535156C10.324219,0.535156,10.449219,0.589844,10.554688,0.695312L14.839844,4.980469C14.945312,5.085938,15,5.210938,15,5.355469ZM15,5.355469" fill="#FFFFFF"/>
    </svg>