<svg version="1.1" xmlns="http://www.w3.org/2000/svg" xlink="http://www.w3.org/1999/xlink" x="0px" y="0px" width="15px" height="15px" viewBox="0 0 15 15" style="enable-background:new 0 0 15 15;" space="preserve"><path d="M11.25,8.035156L11.25,6.964844C11.25,6.820312,11.195312,6.695312,11.089844,6.585938C10.984375,6.480469,10.859375,6.429688,10.714844,6.429688L4.285156,6.429688C4.140625,6.429688,4.015625,6.480469,3.910156,6.585938C3.804688,6.695312,3.75,6.820312,3.75,6.964844L3.75,8.035156C3.75,8.179688,3.804688,8.304688,3.910156,8.414062C4.015625,8.519531,4.140625,8.570312,4.285156,8.570312L10.714844,8.570312C10.859375,8.570312,10.984375,8.519531,11.089844,8.414062C11.195312,8.304688,11.25,8.179688,11.25,8.035156ZM13.929688,7.5C13.929688,8.667969,13.640625,9.742188,13.066406,10.726562C12.492188,11.710938,11.710938,12.492188,10.726562,13.066406C9.742188,13.640625,8.667969,13.929688,7.5,13.929688C6.332031,13.929688,5.257812,13.640625,4.273438,13.066406C3.289062,12.492188,2.507812,11.710938,1.933594,10.726562C1.359375,9.742188,1.070312,8.667969,1.070312,7.5C1.070312,6.332031,1.359375,5.257812,1.933594,4.273438C2.507812,3.289062,3.289062,2.507812,4.273438,1.933594C5.257812,1.359375,6.332031,1.070312,7.5,1.070312C8.667969,1.070312,9.742188,1.359375,10.726562,1.933594C11.710938,2.507812,12.492188,3.289062,13.066406,4.273438C13.640625,5.257812,13.929688,6.332031,13.929688,7.5ZM13.929688,7.5" fill="#FFFFFF"/></svg>