<svg version="1.1" xmlns="http://www.w3.org/2000/svg" xlink="http://www.w3.org/1999/xlink" x="0px" y="0px" width="15px" height="15px" viewBox="0 0 15 15" style="enable-background:new 0 0 15 15;" space="preserve"><path d="M13.929688,6.964844L13.929688,8.035156C13.929688,9.15625,13.652344,10.167969,13.105469,11.066406C12.554688,11.964844,11.789062,12.664062,10.8125,13.171875C9.832031,13.675781,8.726562,13.929688,7.5,13.929688C6.273438,13.929688,5.167969,13.675781,4.1875,13.171875C3.210938,12.664062,2.445312,11.964844,1.894531,11.066406C1.347656,10.167969,1.070312,9.15625,1.070312,8.035156L1.070312,6.964844C1.070312,6.820312,1.125,6.695312,1.230469,6.585938C1.335938,6.480469,1.460938,6.429688,1.605469,6.429688L4.820312,6.429688C4.964844,6.429688,5.09375,6.480469,5.199219,6.585938C5.304688,6.695312,5.355469,6.820312,5.355469,6.964844L5.355469,8.035156C5.355469,8.324219,5.421875,8.578125,5.554688,8.789062C5.683594,9,5.835938,9.160156,6,9.265625C6.167969,9.371094,6.367188,9.457031,6.597656,9.515625C6.824219,9.578125,7.003906,9.613281,7.132812,9.625C7.261719,9.636719,7.382812,9.644531,7.5,9.644531C7.617188,9.644531,7.738281,9.636719,7.867188,9.625C7.996094,9.613281,8.175781,9.578125,8.402344,9.515625C8.632812,9.457031,8.832031,9.371094,9,9.265625C9.164062,9.160156,9.316406,9,9.445312,8.789062C9.578125,8.578125,9.644531,8.324219,9.644531,8.035156L9.644531,6.964844C9.644531,6.820312,9.695312,6.695312,9.800781,6.585938C9.90625,6.480469,10.035156,6.429688,10.179688,6.429688L13.394531,6.429688C13.539062,6.429688,13.664062,6.480469,13.769531,6.585938C13.875,6.695312,13.929688,6.820312,13.929688,6.964844ZM5.355469,1.605469L5.355469,4.820312C5.355469,4.964844,5.304688,5.09375,5.199219,5.199219C5.09375,5.304688,4.964844,5.355469,4.820312,5.355469L1.605469,5.355469C1.460938,5.355469,1.335938,5.304688,1.230469,5.199219C1.125,5.09375,1.070312,4.964844,1.070312,4.820312L1.070312,1.605469C1.070312,1.460938,1.125,1.335938,1.230469,1.230469C1.335938,1.125,1.460938,1.070312,1.605469,1.070312L4.820312,1.070312C4.964844,1.070312,5.09375,1.125,5.199219,1.230469C5.304688,1.335938,5.355469,1.460938,5.355469,1.605469ZM13.929688,1.605469L13.929688,4.820312C13.929688,4.964844,13.875,5.09375,13.769531,5.199219C13.664062,5.304688,13.539062,5.355469,13.394531,5.355469L10.179688,5.355469C10.035156,5.355469,9.90625,5.304688,9.800781,5.199219C9.695312,5.09375,9.644531,4.964844,9.644531,4.820312L9.644531,1.605469C9.644531,1.460938,9.695312,1.335938,9.800781,1.230469C9.90625,1.125,10.035156,1.070312,10.179688,1.070312L13.394531,1.070312C13.539062,1.070312,13.664062,1.125,13.769531,1.230469C13.875,1.335938,13.929688,1.460938,13.929688,1.605469ZM13.929688,1.605469" fill="#FFFFFF"/></svg>