<svg version="1.1" xmlns="http://www.w3.org/2000/svg" xlink="http://www.w3.org/1999/xlink" x="0px" y="0px" width="15px" height="15px" viewBox="0 0 15 15" style="enable-background:new 0 0 15 15;" space="preserve"><path d="M9.089844,2.644531C9.898438,3.046875,10.550781,3.632812,11.046875,4.40625C11.539062,5.179688,11.785156,6.03125,11.785156,6.964844C11.785156,8.199219,11.375,9.269531,10.550781,10.183594C9.726562,11.09375,8.710938,11.617188,7.5,11.753906L7.5,12.855469L8.304688,12.855469C8.382812,12.855469,8.445312,12.882812,8.496094,12.933594C8.546875,12.984375,8.570312,13.046875,8.570312,13.125L8.570312,13.660156C8.570312,13.738281,8.546875,13.804688,8.496094,13.851562C8.445312,13.902344,8.382812,13.929688,8.304688,13.929688L7.5,13.929688L7.5,14.730469C7.5,14.808594,7.476562,14.875,7.425781,14.925781C7.375,14.976562,7.308594,15,7.230469,15L6.695312,15C6.617188,15,6.554688,14.976562,6.503906,14.925781C6.453125,14.875,6.429688,14.808594,6.429688,14.730469L6.429688,13.929688L5.625,13.929688C5.546875,13.929688,5.484375,13.902344,5.433594,13.851562C5.382812,13.804688,5.355469,13.738281,5.355469,13.660156L5.355469,13.125C5.355469,13.046875,5.382812,12.984375,5.433594,12.933594C5.484375,12.882812,5.546875,12.855469,5.625,12.855469L6.429688,12.855469L6.429688,11.753906C5.21875,11.617188,4.199219,11.09375,3.378906,10.183594C2.554688,9.269531,2.144531,8.199219,2.144531,6.964844C2.144531,6.03125,2.390625,5.179688,2.882812,4.40625C3.378906,3.632812,4.027344,3.046875,4.839844,2.644531C3.917969,2.109375,3.28125,1.347656,2.929688,0.359375C2.894531,0.269531,2.90625,0.1875,2.960938,0.113281C3.011719,0.0390625,3.085938,0,3.179688,0L3.757812,0C3.875,0,3.957031,0.0546875,4,0.167969C4.246094,0.757812,4.636719,1.234375,5.171875,1.597656C5.707031,1.960938,6.304688,2.144531,6.964844,2.144531C7.621094,2.144531,8.21875,1.960938,8.753906,1.597656C9.292969,1.234375,9.683594,0.757812,9.925781,0.167969C9.972656,0.0546875,10.074219,0,10.238281,0L10.746094,0C10.84375,0,10.917969,0.0390625,10.96875,0.113281C11.023438,0.1875,11.03125,0.269531,11,0.359375C10.648438,1.347656,10.011719,2.109375,9.089844,2.644531ZM6.964844,10.714844C7.996094,10.714844,8.878906,10.347656,9.613281,9.613281C10.347656,8.878906,10.714844,7.996094,10.714844,6.964844C10.714844,5.933594,10.347656,5.046875,9.613281,4.316406C8.878906,3.582031,7.996094,3.214844,6.964844,3.214844C5.933594,3.214844,5.046875,3.582031,4.316406,4.316406C3.582031,5.046875,3.214844,5.933594,3.214844,6.964844C3.214844,7.996094,3.582031,8.878906,4.316406,9.613281C5.046875,10.347656,5.933594,10.714844,6.964844,10.714844ZM6.964844,10.714844" fill="#FFFFFF"/></svg>