<svg version="1.1" xmlns="http://www.w3.org/2000/svg" xlink="http://www.w3.org/1999/xlink" x="0px" y="0px" width="15px" height="15px" viewBox="0 0 15 15" style="enable-background:new 0 0 15 15;" space="preserve"><path d="M11.25,6.695312L11.25,7.230469C11.25,7.308594,11.226562,7.375,11.175781,7.425781C11.125,7.476562,11.058594,7.5,10.980469,7.5L4.019531,7.5C3.941406,7.5,3.875,7.476562,3.824219,7.425781C3.773438,7.375,3.75,7.308594,3.75,7.230469L3.75,6.695312C3.75,6.617188,3.773438,6.554688,3.824219,6.503906C3.875,6.453125,3.941406,6.429688,4.019531,6.429688L10.980469,6.429688C11.058594,6.429688,11.125,6.453125,11.175781,6.503906C11.226562,6.554688,11.25,6.617188,11.25,6.695312ZM12.320312,10.445312L12.320312,3.480469C12.320312,3.113281,12.191406,2.796875,11.929688,2.535156C11.664062,2.273438,11.351562,2.144531,10.980469,2.144531L4.019531,2.144531C3.648438,2.144531,3.335938,2.273438,3.070312,2.535156C2.808594,2.796875,2.679688,3.113281,2.679688,3.480469L2.679688,10.445312C2.679688,10.816406,2.808594,11.128906,3.070312,11.390625C3.335938,11.65625,3.648438,11.785156,4.019531,11.785156L10.980469,11.785156C11.351562,11.785156,11.664062,11.65625,11.929688,11.390625C12.191406,11.128906,12.320312,10.816406,12.320312,10.445312ZM13.394531,3.480469L13.394531,10.445312C13.394531,11.109375,13.15625,11.679688,12.6875,12.148438C12.214844,12.621094,11.644531,12.855469,10.980469,12.855469L4.019531,12.855469C3.355469,12.855469,2.785156,12.621094,2.3125,12.148438C1.84375,11.679688,1.605469,11.109375,1.605469,10.445312L1.605469,3.480469C1.605469,2.816406,1.84375,2.25,2.3125,1.777344C2.785156,1.308594,3.355469,1.070312,4.019531,1.070312L10.980469,1.070312C11.644531,1.070312,12.214844,1.308594,12.6875,1.777344C13.15625,2.25,13.394531,2.816406,13.394531,3.480469ZM13.394531,3.480469" fill="#FFFFFF"/></svg>