<svg version="1.1" xmlns="http://www.w3.org/2000/svg" xlink="http://www.w3.org/1999/xlink" x="0px" y="0px" width="15px" height="15px" viewBox="0 0 15 15" style="enable-background:new 0 0 15 15;" space="preserve"><path d="M11.636719,10.90625C11.332031,10.957031,11.027344,10.980469,10.714844,10.980469C9.699219,10.980469,8.757812,10.730469,7.894531,10.230469C7.027344,9.726562,6.34375,9.042969,5.84375,8.179688C5.339844,7.3125,5.089844,6.371094,5.089844,5.355469C5.089844,4.285156,5.378906,3.289062,5.960938,2.367188C4.839844,2.703125,3.921875,3.34375,3.210938,4.285156C2.5,5.230469,2.144531,6.300781,2.144531,7.5C2.144531,8.226562,2.285156,8.917969,2.570312,9.578125C2.855469,10.242188,3.234375,10.8125,3.710938,11.289062C4.1875,11.765625,4.757812,12.144531,5.421875,12.429688C6.082031,12.714844,6.773438,12.855469,7.5,12.855469C8.304688,12.855469,9.066406,12.6875,9.789062,12.34375C10.511719,12,11.128906,11.519531,11.636719,10.90625ZM13.335938,10.195312C12.808594,11.328125,12.019531,12.234375,10.960938,12.910156C9.902344,13.589844,8.75,13.929688,7.5,13.929688C6.628906,13.929688,5.796875,13.757812,5.003906,13.417969C4.214844,13.078125,3.53125,12.621094,2.953125,12.046875C2.378906,11.46875,1.921875,10.785156,1.582031,9.996094C1.242188,9.203125,1.070312,8.371094,1.070312,7.5C1.070312,6.644531,1.230469,5.828125,1.554688,5.050781C1.875,4.273438,2.308594,3.597656,2.859375,3.03125C3.40625,2.460938,4.066406,2,4.828125,1.652344C5.59375,1.304688,6.402344,1.113281,7.257812,1.078125C7.503906,1.070312,7.671875,1.175781,7.769531,1.40625C7.867188,1.636719,7.828125,1.835938,7.640625,2.007812C7.164062,2.445312,6.796875,2.949219,6.542969,3.527344C6.289062,4.105469,6.160156,4.714844,6.160156,5.355469C6.160156,6.183594,6.363281,6.945312,6.773438,7.640625C7.179688,8.339844,7.730469,8.890625,8.429688,9.300781C9.125,9.707031,9.886719,9.910156,10.714844,9.910156C11.371094,9.910156,12.007812,9.769531,12.621094,9.484375C12.851562,9.382812,13.050781,9.417969,13.226562,9.59375C13.304688,9.671875,13.351562,9.765625,13.371094,9.878906C13.390625,9.988281,13.378906,10.09375,13.335938,10.195312ZM13.335938,10.195312" fill="#FFFFFF"/></svg>