<svg version="1.1" xmlns="http://www.w3.org/2000/svg" xlink="http://www.w3.org/1999/xlink" x="0px" y="0px" width="15px" height="15px" viewBox="0 0 15 15" style="enable-background:new 0 0 15 15;" space="preserve"><path d="M9.089844,0L9.089844,12.855469L6.8125,13.929688C5.542969,13.816406,4.386719,13.53125,3.347656,13.074219C2.308594,12.617188,1.492188,12.035156,0.894531,11.328125C0.296875,10.625,0,9.863281,0,9.046875C0,8.265625,0.28125,7.53125,0.839844,6.84375C1.402344,6.152344,2.167969,5.582031,3.144531,5.121094C4.117188,4.664062,5.210938,4.363281,6.421875,4.21875L6.421875,5.660156C5.210938,5.871094,4.214844,6.289062,3.4375,6.914062C2.65625,7.539062,2.269531,8.25,2.269531,9.046875C2.269531,9.898438,2.699219,10.640625,3.5625,11.285156C4.421875,11.925781,5.507812,12.328125,6.8125,12.496094L6.8125,1.113281ZM14.691406,4.871094L15,8.136719L10.605469,7.183594L11.835938,6.488281C11.171875,6.097656,10.390625,5.820312,9.492188,5.660156L9.492188,4.21875C11.039062,4.402344,12.378906,4.839844,13.519531,5.53125ZM14.691406,4.871094" fill="#FFFFFF"/></svg>