<svg version="1.1" xmlns="http://www.w3.org/2000/svg" xlink="http://www.w3.org/1999/xlink" x="0px" y="0px" width="12px" height="15px" viewBox="0 0 12 15" style="enable-background:new 0 0 15 15;" space="preserve"><path d="M18.451171875,4.69658203125L12.1875,6.5625l-1.47919921875,-0.7394531249999999a1.8770507812500001,1.8770507812500001,0,0,0,-0.8384765625,-0.19804687499999998H8.203125v-1.40625h1.640625c0.258984375,0,0.46875,-0.209765625,0.46875,-0.46875v-0.46875c0,-0.258984375,-0.209765625,-0.46875,-0.46875,-0.46875H5.15625c-0.258984375,0,-0.46875,0.209765625,-0.46875,0.46875v0.46875c0,0.258984375,0.209765625,0.46875,0.46875,0.46875h1.640625v1.40625h-1.640625L1.1050781250000001,4.8884765625a0.9345703125,0.9345703125,0,0,0,-0.16962890625000002,-0.01552734375C0.42978515625,4.872949218750001,0,5.283984375,0,5.810742187500001v2.78173828125c0,0.4529296875,0.3240234375,0.84140625,0.7699218750000001,0.9222656250000001L2.8125,9.886523437500001V11.25c0,0.51767578125,0.41982421875000003,0.9375,0.9375,0.9375h8.04580078125c0.25048828125,0,0.49072265625,-0.10019531250000001,0.6667968750000002,-0.27861328125l6.218554687499999,-6.29150390625c0.0439453125,-0.0439453125,0.06855468749999999,-0.1037109375,0.06855468749999999,-0.1658203125V4.921875c0.00029296875000000004,-0.15556640624999998,-0.148828125,-0.26806640625,-0.29853515625,-0.22529296875000002zM2.8125,8.45712890625l-1.40625,-0.25576171875000003v-1.82900390625l1.40625,0.25576171875000003v1.82900390625zm13.281152343750001,2.4802734374999997c0,0.6902343750000001,0.5595703125,1.2500976562500004,1.2500976562500004,1.2500976562500004s1.2500976562500004,-0.5595703125,1.2500976562500004,-1.2500976562500004S17.34375,8.4375,17.34375,8.4375s-1.2500976562500004,1.8096679687500001,-1.2500976562500004,2.49990234375z" fill="#FFFFFF"/></svg>