<svg version="1.1" xmlns="http://www.w3.org/2000/svg" xlink="http://www.w3.org/1999/xlink" x="0px" y="0px" width="15px" height="15px" viewBox="0 0 15 15" style="enable-background:new 0 0 15 15;" space="preserve"><path d="M17.144531,6.429688L16.070312,6.429688L16.070312,11.785156L17.144531,11.785156L17.144531,15L13.929688,15L13.929688,13.929688L6.429688,13.929688L6.429688,15L3.214844,15L3.214844,11.785156L4.285156,11.785156L4.285156,10.714844L1.070312,10.714844L1.070312,11.785156L-2.144531,11.785156L-2.144531,8.570312L-1.070312,8.570312L-1.070312,3.214844L-2.144531,3.214844L-2.144531,0L1.070312,0L1.070312,1.070312L8.570312,1.070312L8.570312,0L11.785156,0L11.785156,3.214844L10.714844,3.214844L10.714844,4.285156L13.929688,4.285156L13.929688,3.214844L17.144531,3.214844ZM15,4.285156L15,5.355469L16.070312,5.355469L16.070312,4.285156ZM9.644531,1.070312L9.644531,2.144531L10.714844,2.144531L10.714844,1.070312ZM-1.070312,1.070312L-1.070312,2.144531L0,2.144531L0,1.070312ZM0,10.714844L0,9.644531L-1.070312,9.644531L-1.070312,10.714844ZM10.714844,9.644531L9.644531,9.644531L9.644531,10.714844L10.714844,10.714844ZM1.070312,9.644531L8.570312,9.644531L8.570312,8.570312L9.644531,8.570312L9.644531,3.214844L8.570312,3.214844L8.570312,2.144531L1.070312,2.144531L1.070312,3.214844L0,3.214844L0,8.570312L1.070312,8.570312ZM5.355469,13.929688L5.355469,12.855469L4.285156,12.855469L4.285156,13.929688ZM16.070312,13.929688L16.070312,12.855469L15,12.855469L15,13.929688ZM15,11.785156L15,6.429688L13.929688,6.429688L13.929688,5.355469L10.714844,5.355469L10.714844,8.570312L11.785156,8.570312L11.785156,11.785156L8.570312,11.785156L8.570312,10.714844L5.355469,10.714844L5.355469,11.785156L6.429688,11.785156L6.429688,12.855469L13.929688,12.855469L13.929688,11.785156ZM15,11.785156" fill="#FFFFFF"/></svg>