<svg version="1.1" xmlns="http://www.w3.org/2000/svg" xlink="http://www.w3.org/1999/xlink" x="0px" y="0px" width="15px" height="15px" viewBox="0 0 15 15" style="enable-background:new 0 0 15 15;" space="preserve"><path d="M8.832031,4.855469C8.832031,5.222656,8.703125,5.539062,8.441406,5.796875C8.183594,6.054688,7.867188,6.1875,7.5,6.1875C7.132812,6.1875,6.816406,6.054688,6.558594,5.796875C6.296875,5.539062,6.167969,5.222656,6.167969,4.855469C6.167969,4.488281,6.296875,4.171875,6.558594,3.914062C6.816406,3.652344,7.132812,3.523438,7.5,3.523438C7.867188,3.523438,8.183594,3.652344,8.441406,3.914062C8.703125,4.171875,8.832031,4.488281,8.832031,4.855469ZM10.621094,7.894531C10.566406,7.78125,10.488281,7.691406,10.386719,7.625C10.289062,7.558594,10.15625,7.53125,9.992188,7.546875C9.824219,7.558594,9.65625,7.636719,9.484375,7.777344C9.429688,7.820312,9.347656,7.875,9.242188,7.945312C9.136719,8.011719,8.910156,8.101562,8.5625,8.210938C8.21875,8.324219,7.863281,8.378906,7.5,8.378906C7.136719,8.378906,6.792969,8.328125,6.460938,8.226562C6.132812,8.128906,5.894531,8.027344,5.742188,7.925781L5.515625,7.777344C5.34375,7.636719,5.175781,7.558594,5.007812,7.546875C4.84375,7.53125,4.710938,7.558594,4.613281,7.625C4.511719,7.691406,4.433594,7.78125,4.378906,7.894531C4.253906,8.144531,4.25,8.351562,4.359375,8.515625C4.472656,8.679688,4.714844,8.886719,5.089844,9.132812C5.550781,9.429688,6.183594,9.613281,6.980469,9.691406L6.554688,10.128906C5.761719,10.921875,5.230469,11.449219,4.957031,11.71875C4.832031,11.839844,4.769531,11.988281,4.769531,12.15625C4.769531,12.328125,4.832031,12.476562,4.957031,12.597656L5.03125,12.671875C5.152344,12.796875,5.300781,12.855469,5.46875,12.855469C5.640625,12.855469,5.785156,12.796875,5.910156,12.671875L7.507812,11.074219C8.144531,11.714844,8.675781,12.25,9.105469,12.671875C9.230469,12.796875,9.375,12.855469,9.546875,12.855469C9.714844,12.855469,9.863281,12.796875,9.984375,12.671875L10.0625,12.597656C10.183594,12.476562,10.246094,12.328125,10.246094,12.15625C10.246094,11.988281,10.183594,11.839844,10.0625,11.71875L8.460938,10.128906L8.027344,9.691406C8.8125,9.613281,9.441406,9.429688,9.910156,9.132812C10.285156,8.886719,10.527344,8.679688,10.640625,8.515625C10.75,8.351562,10.746094,8.144531,10.621094,7.894531ZM10.210938,4.855469C10.210938,4.105469,9.945312,3.46875,9.417969,2.9375C8.886719,2.40625,8.246094,2.144531,7.5,2.144531C6.753906,2.144531,6.113281,2.40625,5.582031,2.9375C5.054688,3.46875,4.789062,4.105469,4.789062,4.855469C4.789062,5.601562,5.054688,6.242188,5.582031,6.773438C6.113281,7.300781,6.753906,7.566406,7.5,7.566406C8.246094,7.566406,8.886719,7.300781,9.417969,6.773438C9.945312,6.242188,10.210938,5.601562,10.210938,4.855469ZM13.929688,3.480469L13.929688,11.519531C13.929688,12.183594,13.691406,12.75,13.222656,13.222656C12.75,13.691406,12.183594,13.929688,11.519531,13.929688L3.480469,13.929688C2.816406,13.929688,2.25,13.691406,1.777344,13.222656C1.308594,12.75,1.070312,12.183594,1.070312,11.519531L1.070312,3.480469C1.070312,2.816406,1.308594,2.25,1.777344,1.777344C2.25,1.308594,2.816406,1.070312,3.480469,1.070312L11.519531,1.070312C12.183594,1.070312,12.75,1.308594,13.222656,1.777344C13.691406,2.25,13.929688,2.816406,13.929688,3.480469ZM13.929688,3.480469" fill="#FFFFFF"/></svg>