<svg version="1.1" xmlns="http://www.w3.org/2000/svg" xlink="http://www.w3.org/1999/xlink" x="0px" y="0px" width="15px" height="15px" viewBox="0 0 15 15" style="enable-background:new 0 0 15 15;" space="preserve"><path d="M16.070312,3.214844L15,3.214844L15,11.785156L16.070312,11.785156L16.070312,15L12.855469,15L12.855469,13.929688L2.144531,13.929688L2.144531,15L-1.070312,15L-1.070312,11.785156L0,11.785156L0,3.214844L-1.070312,3.214844L-1.070312,0L2.144531,0L2.144531,1.070312L12.855469,1.070312L12.855469,0L16.070312,0ZM13.929688,1.070312L13.929688,2.144531L15,2.144531L15,1.070312ZM0,1.070312L0,2.144531L1.070312,2.144531L1.070312,1.070312ZM1.070312,13.929688L1.070312,12.855469L0,12.855469L0,13.929688ZM12.855469,12.855469L12.855469,11.785156L13.929688,11.785156L13.929688,3.214844L12.855469,3.214844L12.855469,2.144531L2.144531,2.144531L2.144531,3.214844L1.070312,3.214844L1.070312,11.785156L2.144531,11.785156L2.144531,12.855469ZM15,13.929688L15,12.855469L13.929688,12.855469L13.929688,13.929688ZM9.644531,5.355469L12.855469,5.355469L12.855469,11.785156L5.355469,11.785156L5.355469,9.644531L2.144531,9.644531L2.144531,3.214844L9.644531,3.214844ZM3.214844,8.570312L8.570312,8.570312L8.570312,4.285156L3.214844,4.285156ZM11.785156,10.714844L11.785156,6.429688L9.644531,6.429688L9.644531,9.644531L6.429688,9.644531L6.429688,10.714844ZM11.785156,10.714844" fill="#FFFFFF"/></svg>