<svg version="1.1" xmlns="http://www.w3.org/2000/svg" xlink="http://www.w3.org/1999/xlink" x="0px" y="0px" width="15px" height="15px" viewBox="0 0 15 15" style="enable-background:new 0 0 15 15;" space="preserve"><path d="m9.6582267,11.48054c0,0.27692,-0.097064,0.513873,-0.2940492,0.710857c-0.1941305,0.194131,-0.4310828,0.291197,-0.7080031,0.291197c-0.2769212,0,-0.5167286,-0.09706,-0.7137132,-0.291197C7.7454766,11.994413,7.6455567,11.75746,7.6455567,11.48054c0,-0.276921,0.09992,-0.513873,0.2969045,-0.713712c0.1969846,-0.196986,0.436792,-0.296905,0.7137132,-0.296905c0.2769203,0,0.5138726,0.09992,0.7080031,0.296905c0.1969846,0.199839,0.2940492,0.436791,0.2940492,0.713712zm-4.5820362,0c0,0.27692,-0.097064,0.513873,-0.2969046,0.710857c-0.1969846,0.194131,-0.4339374,0.291197,-0.7108577,0.291197c-0.2797758,0,-0.5138733,-0.09706,-0.7108578,-0.291197C3.160585,11.994413,3.0635205,11.75746,3.0635205,11.48054c0,-0.276921,0.097064,-0.513873,0.2940499,-0.713712c0.1969845,-0.196986,0.431082,-0.296905,0.7108578,-0.296905c0.2769203,0,0.5138731,0.09992,0.7108577,0.296905c0.19984,0.199839,0.2969046,0.436791,0.2969046,0.713712zM0.33428253,2.342161c0.23409749,0.2426621,0.45963094,0.4567763,0.67659967,0.6394867c0.2198233,0.1798558,0.4653409,0.3482916,0.7422613,0.4995992c0.2740657,0.1541615,0.5509861,0.2826297,0.8307619,0.3854051c0.2797751,0.1056288,0.6166479,0.1969845,1.0163271,0.2797751c0.3968246,0.079936,0.8050677,0.1455975,1.2218764,0.1912751c0.4196626,0.048532,0.9278265,0.085645,1.5302004,0.114194c0.6023729,0.028548,1.2218762,0.048532,1.8585075,0.057097c0.6394868,0.011419,1.3988775,0.017129,2.2810272,0.017129c0.565261,0,1.06486,0.00856,1.493087,0.028548c0.431082,0.019984,0.799359,0.054242,1.107682,0.102775c0.308324,0.045677,0.562406,0.1027751,0.75939,0.1684364c0.196985,0.062806,0.342582,0.1455969,0.433938,0.2398069c0.09136,0.097065,0.142743,0.2026946,0.148453,0.3168886c0.0058,0.114194,-0.03426,0.2426629,-0.119905,0.3911145c-0.08564,0.1455976,-0.199838,0.3026146,-0.345436,0.4681963c-0.145598,0.1655813,-0.328308,0.3482917,-0.548132,0.5566957c-0.219824,0.2055493,-0.456776,0.4168087,-0.710858,0.6394867c-0.251227,0.2198243,-0.533857,0.4624864,-0.84789,0.7279874C11.105638,8.8055444,10.523247,9.3079982,10.112148,9.6762743C10.229197,9.4678698,10.386215,9.2451911,10.580344,9.0082391C10.77162,8.7712862,10.96575,8.5571722,11.15417,8.3630423C11.345445,8.1689124,11.53672,7.9690732,11.733704,7.7606684C11.927835,7.5522645,12.096271,7.3666993,12.239013,7.2011183C12.381755,7.0355365,12.493095,6.8728102,12.570175,6.7100832C12.647255,6.5445022,12.675805,6.40176,12.650115,6.2818559C12.624418,6.159097,12.533062,6.044903,12.373191,5.9421283C12.210465,5.8364991,11.973512,5.7537085,11.659478,5.6909015C11.345445,5.628095,10.928636,5.5795628,10.411908,5.5453038C9.8923244,5.513901,9.2728222,5.5024816,8.5505443,5.5167557C7.8653801,5.5253204,7.2258933,5.5110463,6.6292296,5.4796428C6.0354204,5.4453846,5.5129825,5.399707,5.0647711,5.3397545C4.6165596,5.2769481,4.1997509,5.1941577,3.8143465,5.0885276C3.4289414,4.9828982,3.103488,4.877269,2.837987,4.7716397C2.572486,4.668865,2.3212591,4.5403961,2.0871609,4.3890892C1.8530634,4.2406369,1.6674983,4.1036041,1.5276101,3.9837007C1.3905773,3.8637965,1.2506896,3.718199,1.1136568,3.5469087C0.97376928,3.3756168,0.87099457,3.2328746,0.80247818,3.1215352C0.73681642,3.0073412,0.65402591,2.8703083,0.55981524,2.7047273C0.46275073,2.5391455,0.38852488,2.4192422,0.33428253,2.342161Zm0,0" fill="#FFFFFF"/></svg>