<svg version="1.1" xmlns="http://www.w3.org/2000/svg" xlink="http://www.w3.org/1999/xlink" x="0px" y="0px" width="15px" height="15px" viewBox="0 0 15 15" style="enable-background:new 0 0 15 15;" space="preserve"><path d="M14.765625,0.09375C14.949219,0.226562,15.023438,0.40625,14.992188,0.628906L12.847656,13.484375C12.820312,13.648438,12.730469,13.773438,12.582031,13.863281C12.503906,13.90625,12.417969,13.929688,12.320312,13.929688C12.261719,13.929688,12.191406,13.914062,12.121094,13.886719L8.328125,12.339844L6.304688,14.808594C6.203125,14.9375,6.066406,15,5.894531,15C5.820312,15,5.757812,14.988281,5.707031,14.964844C5.601562,14.925781,5.515625,14.863281,5.453125,14.769531C5.390625,14.679688,5.355469,14.574219,5.355469,14.464844L5.355469,11.542969L12.589844,2.679688L3.640625,10.421875L0.335938,9.066406C0.128906,8.988281,0.015625,8.832031,0,8.605469C-0.0117188,8.382812,0.078125,8.21875,0.269531,8.109375L14.195312,0.0742188C14.28125,0.0234375,14.371094,0,14.464844,0C14.574219,0,14.675781,0.03125,14.765625,0.09375ZM14.765625,0.09375" fill="#FFFFFF"/></svg>