<svg version="1.1" xmlns="http://www.w3.org/2000/svg" xlink="http://www.w3.org/1999/xlink" x="0px" y="0px" width="15px" height="15px" viewBox="0 0 15 15" style="enable-background:new 0 0 15 15;" space="preserve"><path d="M14.765625,0.09375C14.949219,0.226562,15.023438,0.40625,14.992188,0.628906L12.847656,13.484375C12.820312,13.648438,12.730469,13.773438,12.582031,13.863281C12.503906,13.90625,12.417969,13.929688,12.320312,13.929688C12.261719,13.929688,12.191406,13.914062,12.121094,13.886719L7.710938,12.085938L5.214844,14.824219C5.113281,14.941406,4.984375,15,4.820312,15C4.742188,15,4.679688,14.988281,4.628906,14.964844C4.523438,14.925781,4.4375,14.863281,4.378906,14.769531C4.316406,14.679688,4.285156,14.574219,4.285156,14.464844L4.285156,10.679688L0.335938,9.066406C0.128906,8.988281,0.015625,8.832031,0,8.605469C-0.015625,8.386719,0.0742188,8.222656,0.269531,8.109375L14.195312,0.0742188C14.390625,-0.0429688,14.582031,-0.0351562,14.765625,0.09375ZM11.902344,12.640625L13.753906,1.566406L1.75,8.488281L4.5625,9.632812L11.785156,4.285156L7.785156,10.957031ZM11.902344,12.640625" fill="#FFFFFF"/></svg>