<svg version="1.1" xmlns="http://www.w3.org/2000/svg" xlink="http://www.w3.org/1999/xlink" x="0px" y="0px" width="15px" height="15px" viewBox="0 0 15 15" style="enable-background:new 0 0 15 15;" space="preserve">
    <path d="M13.223437500000001,10.814648437499999C13.730273437500001,10.42939453125,14.0625,9.826464843750001,14.0625,9.140625c0,-1.1651367187500001,-0.94453125,-2.109375,-2.109375,-2.109375h-0.41220703125c0.3931640625,-0.34365234375000003,0.64658203125,-0.8431640625000001,0.64658203125,-1.40625c0,-1.03564453125,-0.83935546875,-1.875,-1.875,-1.875h-0.172265625c0.10458984375,-0.29443359375,0.172265625,-0.6070312499999999,0.172265625,-0.9375c0,-1.5533203125000001,-1.2591796874999999,-2.8125,-2.8125,-2.8125c-0.15146484375,0,-0.29736328125,0.0216796875,-0.44267578124999996,0.04453125C7.33330078125,0.42890625000000004,7.5,0.8970703125,7.5,1.40625c0,1.2943359375,-1.0494140625,2.34375,-2.34375,2.34375h-0.46875c-1.03564453125,0,-1.875,0.83935546875,-1.875,1.875c0,0.5630859374999999,0.25341796875,1.0625976562500001,0.64658203125,1.40625H3.046875c-1.16484375,0,-2.109375,0.9442382812499999,-2.109375,2.109375c0,0.68583984375,0.3322265625,1.28876953125,0.8390625,1.6740234375C0.77080078125,10.9751953125,0,11.839453125,0,12.890625c0,1.16484375,0.94453125,2.109375,2.109375,2.109375h10.78125c1.16484375,0,2.109375,-0.94453125,2.109375,-2.109375c0,-1.051171875,-0.77080078125,-1.9154296874999999,-1.7765625,-2.0759765625z" fill="#FFFFFF"/>
    </svg>