<svg version="1.1" xmlns="http://www.w3.org/2000/svg" xlink="http://www.w3.org/1999/xlink" x="0px" y="0px" width="12px" height="15px" viewBox="0 0 12 15" style="enable-background:new 0 0 15 15;" space="preserve"><path d="M15.46875,6.5625H7.96875c-0.2578125,0,-0.46875,0.2109375,-0.46875,0.46875v4.21875H1.875V4.21875c0,-0.2578125,-0.2109375,-0.46875,-0.46875,-0.46875H0.46875c-0.2578125,0,-0.46875,0.2109375,-0.46875,0.46875v10.3125c0,0.2578125,0.2109375,0.46875,0.46875,0.46875h0.9375c0.2578125,0,0.46875,-0.2109375,0.46875,-0.46875v-1.40625h15v1.40625c0,0.2578125,0.2109375,0.46875,0.46875,0.46875h0.9375c0.2578125,0,0.46875,-0.2109375,0.46875,-0.46875V9.84375c0,-1.8134765625,-1.4677734375,-3.28125,-3.28125,-3.28125zM3.984375,2.8125h3.6943359375l0.80859375,1.6171875c0.1728515625,0.345703125,0.6650390625,0.345703125,0.837890625,0L10.78125,1.517578125L11.4287109375,2.8125H15c0.2578125,0,0.46875,-0.2109375,0.46875,-0.46875s-0.2109375,-0.46875,-0.46875,-0.46875H12.0087890625L11.2001953125,0.2578125C11.02734375,-0.087890625,10.53515625,-0.087890625,10.3623046875,0.2578125L8.90625,3.169921875l-0.5830078125,-1.166015625c-0.041015625,-0.0791015625,-0.12011718749999999,-0.12890625,-0.2109375,-0.12890625H3.984375c-0.12890625,0,-0.234375,0.10546875,-0.234375,0.234375v0.46875c0,0.12890625,0.10546875,0.234375,0.234375,0.234375zm0.703125,7.5c1.0341796875,0,1.875,-0.8408203125,1.875,-1.875s-0.8408203125,-1.875,-1.875,-1.875s-1.875,0.8408203125,-1.875,1.875s0.8408203125,1.875,1.875,1.875z" fill="#FFFFFF"/></svg>