<svg version="1.1" xmlns="http://www.w3.org/2000/svg" xlink="http://www.w3.org/1999/xlink" x="0px" y="0px" width="15px" height="15px" viewBox="0 0 15 15" style="enable-background:new 0 0 15 15;" space="preserve">
    <path d="M5.9853515625,0.146484375C3.0732421875,0.71484375,0.7265625,3.0556640625,0.15234375,5.958984375c-1.083984375,5.478515625,3.8583984374999996,9.5625,7.58203125,8.9853515625c1.20703125,-0.1875,1.798828125,-1.599609375,1.2451171875,-2.6865234375c-0.6767578125,-1.330078125,0.2900390625,-2.8828125,1.7841796875,-2.8828125h2.3349609375c1.048828125,0,1.8984375,-0.8671875,1.9013671875000002,-1.9130859375C14.9853515625,2.8447265625,10.7841796875,-0.7880859375,5.9853515625,0.146484375zM2.8125,9.375c-0.5185546875,0,-0.9375,-0.4189453125,-0.9375,-0.9375s0.4189453125,-0.9375,0.9375,-0.9375s0.9375,0.4189453125,0.9375,0.9375s-0.4189453125,0.9375,-0.9375,0.9375zm0.9375,-3.75c-0.5185546875,0,-0.9375,-0.4189453125,-0.9375,-0.9375s0.4189453125,-0.9375,0.9375,-0.9375s0.9375,0.4189453125,0.9375,0.9375s-0.4189453125,0.9375,-0.9375,0.9375zm3.75,-1.875c-0.5185546875,0,-0.9375,-0.4189453125,-0.9375,-0.9375s0.4189453125,-0.9375,0.9375,-0.9375s0.9375,0.4189453125,0.9375,0.9375s-0.4189453125,0.9375,-0.9375,0.9375zm3.75,1.875c-0.5185546875,0,-0.9375,-0.4189453125,-0.9375,-0.9375s0.4189453125,-0.9375,0.9375,-0.9375s0.9375,0.4189453125,0.9375,0.9375s-0.4189453125,0.9375,-0.9375,0.9375z" fill="#FFFFFF"/>
    </svg>