<svg version="1.1" xmlns="http://www.w3.org/2000/svg" xlink="http://www.w3.org/1999/xlink" x="0px" y="0px" width="15px" height="15px" viewBox="0 0 15 15" style="enable-background:new 0 0 15 15;" space="preserve"><path d="M13.125,5.625V2.26318359375c0,-0.24873046875000002,-0.09873046875000001,-0.4869140625,-0.27451171874999997,-0.66298828125L11.52451171875,0.27451171874999997c-0.17578125,-0.17578125,-0.41425781250000004,-0.27451171874999997,-0.66298828125,-0.27451171874999997H2.8125C2.29482421875,0,1.875,0.41982421875,1.875,0.9375v4.6875c-1.03564453125,0,-1.875,0.83935546875,-1.875,1.875v3.28125c0,0.258984375,0.209765625,0.46875,0.46875,0.46875h1.40625v2.8125c0,0.51767578125,0.41982421875,0.9375,0.9375,0.9375h9.375c0.51767578125,0,0.9375,-0.41982421875,0.9375,-0.9375v-2.8125h1.40625c0.258984375,0,0.46875,-0.209765625,0.46875,-0.46875V7.5c0,-1.03564453125,-0.83935546875,-1.875,-1.875,-1.875zm-1.875,7.5H3.75v-2.8125h7.5v2.8125zm0,-6.5625H3.75V1.875h5.625v1.40625c0,0.258984375,0.209765625,0.46875,0.46875,0.46875h1.40625v2.8125zm1.40625,2.109375c-0.38818359375,0,-0.703125,-0.31494140625,-0.703125,-0.703125c0,-0.3884765625,0.31494140625,-0.703125,0.703125,-0.703125s0.703125,0.3146484375,0.703125,0.703125c0,0.38818359375,-0.31494140625,0.703125,-0.703125,0.703125z" fill="#FFFFFF"/></svg>