<svg version="1.1" xmlns="http://www.w3.org/2000/svg" xlink="http://www.w3.org/1999/xlink" x="0px" y="0px" width="18.75px" height="15px" viewBox="0 0 18.75 15" style="enable-background:new 0 0 15 15;" space="preserve">
    <path d="M5.55498046875,9.0990234375c0.1037109375,0.0955078125,0.44736328124999997,0.2759765625,1.00751953125,0.2759765625s0.9041015625,-0.18046875,1.00751953125,-0.2759765625c0.46933593749999997,-0.43271484374999997,1.0107421875,-0.6615234375,1.5662109375,-0.6615234375h0.4775390625c0.5554687500000001,0,1.09716796875,0.22880859374999998,1.5662109375,0.6615234375c0.1037109375,0.0955078125,0.44736328124999997,0.2759765625,1.00751953125,0.2759765625s0.9041015625,-0.18046875,1.00751953125,-0.2759765625c0.43535156249999996,-0.40166015625,0.933984375,-0.61875,1.44697265625,-0.64921875l-3.3058593750000003,-2.361328125l0.52734375,-0.37675781249999996c0.106640625,-0.0755859375,0.24257812499999998,-0.103125,0.36972656249999997,-0.07646484375l2.93994140625,0.6307617187500001c0.75908203125,0.16201171875,1.5070312499999998,-0.32138671875,1.669921875,-1.08046875c0.16259765625,-0.759375,-0.32080078125,-1.5070312499999998,-1.08046875,-1.669921875L12.82265625,2.88486328125c-0.90029296875,-0.1927734375,-1.8462890625000001,0.0035156249999999997,-2.59453125,0.5384765625l-2.3443359375,1.6749023437500001c-0.30410156250000003,0.21650390625,-0.5671875,0.48164062500000004,-0.7828124999999999,0.7892578125L5.09033203125,8.759765625c0.16025390625,0.09462890625,0.3169921875,0.20302734374999998,0.46464843749999996,0.3392578125zM18.28125,10.3125h-0.46875c-0.7628906249999999,0,-1.341796875,-0.2466796875,-1.64326171875,-0.5244140625c-0.2607421875,-0.24052734375,-0.5759765625,-0.4130859375,-0.93076171875,-0.4130859375h-0.4775390625c-0.35478515624999996,0,-0.67001953125,0.17255859375,-0.93076171875,0.4130859375C13.529296875,10.0658203125,12.950390625,10.3125,12.1875,10.3125s-1.341796875,-0.2466796875,-1.64326171875,-0.5244140625c-0.2607421875,-0.24052734375,-0.5759765625,-0.4130859375,-0.93076171875,-0.4130859375h-0.4775390625c-0.35478515624999996,0,-0.67001953125,0.17255859375,-0.93076171875,0.4130859375C7.904296875,10.0658203125,7.325390625,10.3125,6.5625,10.3125s-1.341796875,-0.2466796875,-1.64326171875,-0.5244140625c-0.2607421875,-0.24052734375,-0.5759765625,-0.4130859375,-0.93076171875,-0.4130859375h-0.4775390625c-0.35478515624999996,0,-0.67001953125,0.17255859375,-0.93076171875,0.4130859375C2.279296875,10.0658203125,1.700390625,10.3125,0.9375,10.3125H0.46875c-0.258984375,0,-0.46875,0.209765625,-0.46875,0.46875v0.9375c0,0.258984375,0.209765625,0.46875,0.46875,0.46875h0.46875c1.1314453125,0,2.13046875,-0.35712890625,2.8125,-0.9328125c0.6820312500000001,0.5759765625,1.6810546875,0.9328125,2.8125,0.9328125s2.13046875,-0.35712890625,2.8125,-0.9328125c0.6820312500000001,0.5759765625,1.6810546875,0.9328125,2.8125,0.9328125s2.13046875,-0.35712890625,2.8125,-0.9328125c0.6820312500000001,0.5759765625,1.6810546875,0.9328125,2.8125,0.9328125h0.46875c0.258984375,0,0.46875,-0.209765625,0.46875,-0.46875v-0.9375c0,-0.258984375,-0.209765625,-0.46875,-0.46875,-0.46875zm-15,-2.8125c1.2943359375,0,2.34375,-1.0494140625,2.34375,-2.34375s-1.0494140625,-2.34375,-2.34375,-2.34375s-2.34375,1.0494140625,-2.34375,2.34375s1.0494140625,2.34375,2.34375,2.34375z" fill="#FFFFFF"/>
    </svg>