<svg version="1.1" xmlns="http://www.w3.org/2000/svg" xlink="http://www.w3.org/1999/xlink" x="0px" y="0px" width="15px" height="15px" viewBox="0 0 15 15" style="enable-background:new 0 0 15 15;" space="preserve"><path d="M13.125,0L9.375,2.8125v1.8181640625000002l-2.43251953125,2.43251953125c0.19892578125,0.12451171875,0.38876953124999997,0.2654296875,0.55869140625,0.43564453124999997c0.169921875,0.169921875,0.31113281249999997,0.359765625,0.43564453124999997,0.55869140625L10.3693359375,5.625H12.1875l2.8125,-3.75l-1.875,-1.875zM3.75,8.161816406249999L0.319921875,11.59189453125c-0.42626953125,0.42626953125,-0.42626953125,1.11767578125,0,1.54423828125l1.5439453125,1.5439453125c0.4265625,0.4265625,1.11767578125,0.4265625,1.54423828125,0L6.83818359375,11.25c0.85283203125,-0.85283203125,0.85283203125,-2.2353515625,0,-3.0881835937499997s-2.2353515625,-0.85283203125,-3.0881835937499997,0z" fill="#FFFFFF"/></svg>