<svg version="1.1" xmlns="http://www.w3.org/2000/svg" xlink="http://www.w3.org/1999/xlink" x="0px" y="0px" width="15px" height="13.333333333333332px" viewBox="0 0 15 13.333333333333332" style="enable-background:new 0 0 15 15;" space="preserve"><path d="M7.5,0.8333333333333333C3.3578124999999996,0.8333333333333333,0,4.191145833333333,0,8.333333333333332c0,1.375,0.37109375,2.6630208333333334,1.0171875000000001,3.770833333333333c0.14609375,0.2505208333333333,0.42447916666666663,0.3958333333333333,0.7145833333333333,0.3958333333333333h11.536458333333332c0.29010416666666666,0,0.5684895833333333,-0.14531249999999998,0.7145833333333333,-0.3958333333333333C14.62890625,10.996354166666665,15,9.708333333333332,15,8.333333333333332c0,-4.1421875,-3.3578124999999996,-7.5,-7.5,-7.5zm0,1.6666666666666665c0.38307291666666665,0,0.6921875,0.2638020833333333,0.7895833333333333,0.6158854166666666c-0.02890625,0.05885416666666666,-0.06875,0.11015625,-0.08984375,0.17369791666666665l-0.24010416666666667,0.7205729166666667c-0.13359375,0.09088541666666666,-0.28567708333333336,0.15651041666666665,-0.45937500000000003,0.15651041666666665c-0.46015625,0,-0.8333333333333333,-0.37317708333333327,-0.8333333333333333,-0.8333333333333333S7.039843749999999,2.5,7.5,2.5zM2.5,10c-0.46015625,0,-0.8333333333333333,-0.37317708333333327,-0.8333333333333333,-0.8333333333333333s0.37317708333333327,-0.8333333333333333,0.8333333333333333,-0.8333333333333333s0.8333333333333333,0.37317708333333327,0.8333333333333333,0.8333333333333333s-0.37317708333333327,0.8333333333333333,-0.8333333333333333,0.8333333333333333zm1.25,-4.166666666666666c-0.46015625,0,-0.8333333333333333,-0.37317708333333327,-0.8333333333333333,-0.8333333333333333s0.37317708333333327,-0.8333333333333333,0.8333333333333333,-0.8333333333333333s0.8333333333333333,0.37317708333333327,0.8333333333333333,0.8333333333333333s-0.37317708333333327,0.8333333333333333,-0.8333333333333333,0.8333333333333333zm6.426302083333333,-1.885677083333333l-1.5971354166666665,4.791666666666666C8.935677083333333,9.045052083333333,9.166666666666666,9.493229166666667,9.166666666666666,10c0,0.30520833333333336,-0.08802083333333333,0.5872395833333333,-0.23125,0.8333333333333333H6.064583333333332c-0.14322916666666666,-0.24609375,-0.23125,-0.5281250000000001,-0.23125,-0.8333333333333333c0,-0.8838541666666666,0.6901041666666666,-1.5997395833333332,1.5598958333333333,-1.6559895833333333l1.5973958333333333,-4.7919270833333325c0.10859374999999999,-0.32708333333333334,0.46171874999999996,-0.5065104166666666,0.7906249999999999,-0.3950520833333333c0.32734375,0.10911458333333335,0.50390625,0.4632812499999999,0.3950520833333333,0.7906249999999999zm0.38177083333333334,1.4895833333333333l0.4041666666666666,-1.2122395833333333c0.09036458333333333,-0.03359375,0.18567708333333333,-0.05807291666666667,0.28776041666666663,-0.05807291666666667c0.46015625,0,0.8333333333333333,0.37317708333333327,0.8333333333333333,0.8333333333333333s-0.37317708333333327,0.8333333333333333,-0.8333333333333333,0.8333333333333333c-0.2963541666666667,-0.00026041666666666666,-0.5440104166666667,-0.16354166666666667,-0.6919270833333333,-0.3963541666666667zM12.5,10c-0.46015625,0,-0.8333333333333333,-0.37317708333333327,-0.8333333333333333,-0.8333333333333333s0.37317708333333327,-0.8333333333333333,0.8333333333333333,-0.8333333333333333s0.8333333333333333,0.37317708333333327,0.8333333333333333,0.8333333333333333s-0.37317708333333327,0.8333333333333333,-0.8333333333333333,0.8333333333333333z" fill="#FFFFFF"/></svg>