<svg version="1.1" xmlns="http://www.w3.org/2000/svg" xlink="http://www.w3.org/1999/xlink" x="0px" y="0px" width="18.75px" height="15px" viewBox="0 0 18.75 15" style="enable-background:new 0 0 15 15;" space="preserve">
    <path d="M1.470703125,11.00390625c0.0673828125,0.2490234375,0.3251953125,0.3984375,0.57421875,0.3310546875l6.33984375,-1.69921875c0.2490234375,-0.0673828125,0.3984375,-0.3251953125,0.3310546875,-0.57421875l-1.4560546875,-5.4345703125c-0.0673828125,-0.2490234375,-0.3251953125,-0.3984375,-0.57421875,-0.3310546875L4.423828125,3.9052734375000004l0.7265625,2.7158203125l-1.810546875,0.4833984375l-0.7265625,-2.7158203125l-2.2646484375,0.6064453125C0.099609375,5.0625,-0.0498046875,5.3203125,0.017578125,5.5693359375l1.453125,5.4345703125zM11.25,0c-0.5185546875,0,-0.9375,0.4189453125,-0.9375,0.9375v9.48046875L0.1728515625,13.18359375c-0.1259765625,0.03515625,-0.19921875,0.1640625,-0.1640625,0.287109375l0.369140625,1.3564453125c0.03515625,0.1259765625,0.1640625,0.19921875,0.287109375,0.1640625l11.5341796875,-3.146484375C12.26953125,13.5966796875,13.69921875,15,15.46875,15c1.8134765625,0,3.28125,-1.4677734375,3.28125,-3.28125V0H11.25zm4.21875,13.125c-0.7763671875,0,-1.40625,-0.6298828125,-1.40625,-1.40625s0.6298828125,-1.40625,1.40625,-1.40625s1.40625,0.6298828125,1.40625,1.40625s-0.6298828125,1.40625,-1.40625,1.40625z" fill="#FFFFFF"/>
    </svg>