<svg version="1.1" xmlns="http://www.w3.org/2000/svg" xlink="http://www.w3.org/1999/xlink" x="0px" y="0px" width="15px" height="12px" viewBox="0 0 15 12" style="enable-background:new 0 0 15 15;" space="preserve">
    <path d="M5.25,4.5c-0.82734375,0,-1.5,0.6726562500000001,-1.5,1.5s0.6726562500000001,1.5,1.5,1.5s1.5,-0.6726562500000001,1.5,-1.5s-0.6726562500000001,-1.5,-1.5,-1.5zm9.375,5.25H8.9203125c0.97265625,-0.9539062500000001,1.5796875000000004,-2.2804687500000003,1.5796875000000004,-3.75c0,-2.89921875,-2.3507812500000003,-5.25,-5.25,-5.25S0,3.1007812500000007,0,6s2.3507812500000003,5.25,5.25,5.25h9.375c0.20625000000000002,0,0.375,-0.16875,0.375,-0.375v-0.75c0,-0.20625000000000002,-0.16875,-0.375,-0.375,-0.375zm-9.375,-1.5c-1.2421875,0,-2.25,-1.0078125,-2.25,-2.25s1.0078125,-2.25,2.25,-2.25s2.25,1.0078125,2.25,2.25s-1.0078125,2.25,-2.25,2.25z" fill="#FFFFFF"/>
    </svg>