<svg version="1.1" xmlns="http://www.w3.org/2000/svg" xlink="http://www.w3.org/1999/xlink" x="0px" y="0px" width="16.875px" height="15px" viewBox="0 0 16.875 15" style="enable-background:new 0 0 15 15;" space="preserve">
    <path d="M8.4375,0.9375C3.7775390625,0.9375,0,4.7150390625,0,9.375c0,1.546875,0.41748046875,2.9958984375,1.1443359375000002,4.2421875c0.16435546875,0.28183593749999997,0.4775390625,0.4453125,0.80390625,0.4453125h12.978515625c0.32636718750000004,0,0.63955078125,-0.1634765625,0.80390625,-0.4453125C16.45751953125,12.3708984375,16.875,10.921875,16.875,9.375c0,-4.6599609375,-3.7775390625,-8.4375,-8.4375,-8.4375zm0,1.875c0.43095703125,0,0.7787109375,0.29677734375000003,0.88828125,0.69287109375c-0.032519531250000004,0.0662109375,-0.07734375,0.12392578125,-0.10107421875,0.19541015625l-0.2701171875,0.81064453125c-0.15029296875,0.10224609375,-0.32138671875,0.17607421874999998,-0.516796875,0.17607421874999998c-0.51767578125,0,-0.9375,-0.41982421875,-0.9375,-0.9375S7.91982421875,2.8125,8.4375,2.8125zM2.8125,11.25c-0.51767578125,0,-0.9375,-0.41982421875,-0.9375,-0.9375s0.41982421875,-0.9375,0.9375,-0.9375s0.9375,0.41982421875,0.9375,0.9375s-0.41982421875,0.9375,-0.9375,0.9375zm1.40625,-4.6875c-0.51767578125,0,-0.9375,-0.41982421875,-0.9375,-0.9375s0.41982421875,-0.9375,0.9375,-0.9375s0.9375,0.41982421875,0.9375,0.9375s-0.41982421875,0.9375,-0.9375,0.9375zm7.22958984375,-2.1213867187499997l-1.7967773437499999,5.390625C10.05263671875,10.17568359375,10.3125,10.6798828125,10.3125,11.25c0,0.343359375,-0.09902343749999999,0.66064453125,-0.26015625000000003,0.9375H6.82265625c-0.1611328125,-0.27685546875,-0.26015625000000003,-0.5941406250000001,-0.26015625000000003,-0.9375c0,-0.9943359374999999,0.7763671875,-1.79970703125,1.7548828125,-1.86298828125l1.7970703125,-5.390917968749999c0.12216796875,-0.36796875,0.51943359375,-0.56982421875,0.889453125,-0.44443359375c0.36826171875,0.12275390625000002,0.56689453125,0.5211914062499999,0.44443359375,0.889453125zm0.4294921875,1.67578125l0.45468749999999997,-1.36376953125c0.10166015625000001,-0.03779296875,0.20888671875,-0.06533203125,0.32373046875,-0.06533203125c0.51767578125,0,0.9375,0.41982421875,0.9375,0.9375s-0.41982421875,0.9375,-0.9375,0.9375c-0.33339843750000003,-0.00029296875,-0.61201171875,-0.183984375,-0.77841796875,-0.4458984375zM14.0625,11.25c-0.51767578125,0,-0.9375,-0.41982421875,-0.9375,-0.9375s0.41982421875,-0.9375,0.9375,-0.9375s0.9375,0.41982421875,0.9375,0.9375s-0.41982421875,0.9375,-0.9375,0.9375z" fill="#FFFFFF"/>
    </svg>