<svg version="1.1" xmlns="http://www.w3.org/2000/svg" xlink="http://www.w3.org/1999/xlink" x="0px" y="0px" width="15px" height="12px" viewBox="0 0 15 12" style="enable-background:new 0 0 15 15;" space="preserve">
    <path d="M1.1765625,8.803125c0.05390625,0.19921875,0.26015625000000003,0.31875000000000003,0.45937500000000003,0.26484375l5.071875,-1.359375c0.19921875,-0.05390625,0.31875000000000003,-0.26015625000000003,0.26484375,-0.45937500000000003l-1.16484375,-4.34765625c-0.05390625,-0.19921875,-0.26015625000000003,-0.31875000000000003,-0.45937500000000003,-0.26484375L3.5390625,3.1242187500000007l0.58125,2.17265625l-1.4484375,0.38671875l-0.58125,-2.17265625l-1.81171875,0.48515625C0.07968750000000001,4.05,-0.039843750000000004,4.2562500000000005,0.0140625,4.4554687500000005l1.1625,4.34765625zM9,0c-0.41484375,0,-0.75,0.33515625000000004,-0.75,0.75v7.5843750000000005L0.13828125,10.546875c-0.10078125,0.028125,-0.15937500000000002,0.13125,-0.13125,0.22968750000000002l0.29531250000000003,1.08515625c0.028125,0.10078125,0.13125,0.15937500000000002,0.22968750000000002,0.13125l9.227343750000001,-2.5171875000000004C9.815625,10.877343750000001,10.959375000000001,12,12.375,12c1.4507812500000001,0,2.625,-1.17421875,2.625,-2.625V0H9zm3.375,10.5c-0.62109375,0,-1.125,-0.50390625,-1.125,-1.125s0.50390625,-1.125,1.125,-1.125s1.125,0.50390625,1.125,1.125s-0.50390625,1.125,-1.125,1.125z" fill="#FFFFFF"/>
    </svg>