<svg version="1.1" xmlns="http://www.w3.org/2000/svg" xlink="http://www.w3.org/1999/xlink" x="0px" y="0px" width="15px" height="15px" viewBox="0 0 15 15" style="enable-background:new 0 0 15 15;" space="preserve"><path d="M14.690148,8.532839H14.316737V6.0099808c0,-0.296395,-0.119025,-0.5811209,-0.329069,-0.7911646L11.656183,2.8873311C11.446139,2.6772875,11.161414,2.5582627,10.865018,2.5582627H9.835805v-1.120233c0,-0.61846204,-0.5017712,-1.12023309,-1.120233,-1.12023309H1.2473517c-0.61846201,0,-1.12023306,0.50177105,-1.12023306,1.12023309V8.90625c0,0.6184618,0.50177105,1.120233,1.12023306,1.120233h0.373411c0,1.236924,1.0035421,2.240467,2.2404661,2.240467c1.236924,0,2.2404661,-1.003543,2.2404661,-2.240467H9.088983c0,1.236924,1.003542,2.240467,2.240466,2.240467c1.236923,0,2.240466,-1.003543,2.240466,-2.240467h1.120233c0.205375,0,0.373411,-0.1680345,0.373411,-0.373411V8.90625c0,-0.2053757,-0.168036,-0.373411,-0.373411,-0.373411zM3.8612288,11.146716c-0.618462,0,-1.1202331,-0.501771,-1.1202331,-1.120233c0,-0.6184618,0.5017711,-1.120233,1.1202331,-1.120233c0.618462,0,1.120233,0.5017712,1.120233,1.120233c0,0.618462,-0.501771,1.120233,-1.120233,1.120233zm7.4682202,0c-0.618462,0,-1.120234,-0.501771,-1.120234,-1.120233c0,-0.6184618,0.501772,-1.120233,1.120234,-1.120233c0.618461,0,1.120233,0.5017712,1.120233,1.120233c0,0.618462,-0.501772,1.120233,-1.120233,1.120233zM13.196504,6.2923729H9.835805V3.6784958h1.029213l2.331486,2.331485z" fill="#FFFFFF"/></svg>