<svg version="1.1" xmlns="http://www.w3.org/2000/svg" xlink="http://www.w3.org/1999/xlink" x="0px" y="0px" width="15px" height="12px" viewBox="0 0 15 12" style="enable-background:new 0 0 15 15;" space="preserve">
    <path d="M2.70421875,3.2085937500000004l2.3932031250000003,0.8714062500000002c0.824765625,-1.9110937500000003,2.020546875,-3.381796875,3.2578125,-4.07109375c-2.2471875,-0.114609375,-4.42453125,0.86625,-5.824921875,2.6203125000000003c-0.15679687500000003,0.19687500000000002,-0.06234375000000001,0.49335937500000004,0.17390625,0.579375zm3.099609375,1.12875l5.589375,2.035078125c0.838125,-2.84484375,0.43828125,-5.42953125,-0.9991406250000001,-5.95265625c-0.17343750000000002,-0.06328125,-0.35460937500000006,-0.09375,-0.5411718750000001,-0.09375c-1.3598437500000002,0.000234375,-3.0063281250000005,1.621171875,-4.0490625,4.011328125zM12.222187500000002,1.41796875c0.14578125,0.38203125000000004,0.253828125,0.8109375000000001,0.309375,1.293515625c0.13453125000000002,1.1692968750000001,-0.03328125,2.5366406250000004,-0.444140625,3.91359375l2.4051562500000006,0.875625c0.236484375,0.086015625,0.499453125,-0.08039062500000001,0.5055468750000001,-0.33210937500000004c0.054375,-2.242734375,-0.982265625,-4.393125,-2.7759375,-5.750625zM13.125,10.499531250000002H7.52484375L9.046875,6.31640625l-1.4095312500000001,-0.51328125l-1.7085937500000001,4.696171875H0.375c-0.2071875,0,-0.375,0.16781250000000003,-0.375,0.37523437500000006v0.750234375C0,11.831953125,0.16781250000000003,12,0.375,12h12.75c0.2071875,0,0.375,-0.168046875,0.375,-0.37523437500000006v-0.750234375c0,-0.2071875,-0.16781250000000003,-0.375,-0.375,-0.375z" fill="#FFFFFF"/>
    </svg>