<svg version="1.1" xmlns="http://www.w3.org/2000/svg" xlink="http://www.w3.org/1999/xlink" x="0px" y="0px" width="18.75px" height="15px" viewBox="0 0 18.75 15" style="enable-background:new 0 0 15 15;" space="preserve">
    <path d="M2.8125,6.5625c1.0341796875,0,1.875,-0.8408203125,1.875,-1.875s-0.8408203125,-1.875,-1.875,-1.875s-1.875,0.8408203125,-1.875,1.875s0.8408203125,1.875,1.875,1.875zm13.125,0c1.0341796875,0,1.875,-0.8408203125,1.875,-1.875s-0.8408203125,-1.875,-1.875,-1.875s-1.875,0.8408203125,-1.875,1.875s0.8408203125,1.875,1.875,1.875zm0.9375,0.9375h-1.875c-0.515625,0,-0.9814453125,0.2080078125,-1.3212890625,0.544921875c1.1806640625,0.6474609375,2.0185546875,1.81640625,2.2001953125,3.205078125h1.93359375c0.5185546875,0,0.9375,-0.4189453125,0.9375,-0.9375v-0.9375c0,-1.0341796875,-0.8408203125,-1.875,-1.875,-1.875zm-7.5,0c1.8134765625,0,3.28125,-1.4677734375,3.28125,-3.28125S11.1884765625,0.9375,9.375,0.9375S6.09375,2.4052734375,6.09375,4.21875s1.4677734375,3.28125,3.28125,3.28125zm2.25,0.9375h-0.24316406250000003c-0.609375,0.29296875,-1.2861328125,0.46875,-2.0068359375,0.46875s-1.39453125,-0.17578125,-2.0068359375,-0.46875h-0.24316406250000003C5.26171875,8.4375,3.75,9.94921875,3.75,11.8125V12.65625c0,0.7763671875,0.6298828125,1.40625,1.40625,1.40625h8.4375c0.7763671875,0,1.40625,-0.6298828125,1.40625,-1.40625v-0.84375c0,-1.86328125,-1.51171875,-3.375,-3.375,-3.375zm-6.5537109375,-0.392578125C4.7314453125,7.708007812500001,4.265625,7.5,3.75,7.5H1.875c-1.0341796875,0,-1.875,0.8408203125,-1.875,1.875v0.9375c0,0.5185546875,0.4189453125,0.9375,0.9375,0.9375h1.9306640625000002c0.1845703125,-1.388671875,1.0224609375,-2.5576171875,2.203125,-3.205078125z" fill="#FFFFFF"/>
    </svg>