<svg version="1.1" xmlns="http://www.w3.org/2000/svg" xlink="http://www.w3.org/1999/xlink" x="0px" y="0px" width="18.75px" height="15px" viewBox="0 0 18.75 15" style="enable-background:new 0 0 15 15;" space="preserve">
    <path d="M3.3802734374999996,4.0107421875l2.99150390625,1.0892578125c1.0309570312499998,-2.3888671875000003,2.5256835937499997,-4.22724609375,4.072265625,-5.0888671875c-2.8089843749999996,-0.14326171875,-5.5306640625,1.0828125,-7.28115234375,3.275390625c-0.19599609375000002,0.24609375,-0.07792968750000001,0.61669921875,0.2173828125,0.7242187499999999zm3.87451171875,1.4109375l6.98671875,2.54384765625c1.04765625,-3.5560546874999996,0.5478515625,-6.7869140625,-1.24892578125,-7.4408203125c-0.216796875,-0.0791015625,-0.44326171875000003,-0.1171875,-0.67646484375,-0.1171875c-1.6998046875000001,0.00029296875,-3.7579101562500004,2.02646484375,-5.061328124999999,5.01416015625zM15.277734375000001,1.7724609375c0.1822265625,0.4775390625,0.31728515625,1.013671875,0.38671875,1.6168945312499998c0.16816406250000002,1.46162109375,-0.041601562499999994,3.17080078125,-0.55517578125,4.8919921875l3.0064453125000004,1.09453125c0.29560546875,0.10751953125,0.62431640625,-0.10048828125,0.63193359375,-0.41513671875c0.06796875,-2.80341796875,-1.22783203125,-5.49140625,-3.469921875,-7.18828125zM16.40625,13.124414062500001H9.4060546875L11.30859375,7.8955078125l-1.7619140625,-0.6416015625l-2.1357421875,5.87021484375H0.46875c-0.258984375,0,-0.46875,0.209765625,-0.46875,0.46904296875000007v0.93779296875C0,14.78994140625,0.209765625,15,0.46875,15h15.9375c0.258984375,0,0.46875,-0.21005859375,0.46875,-0.46904296875000007v-0.93779296875c0,-0.258984375,-0.209765625,-0.46875,-0.46875,-0.46875z" fill="#FFFFFF"/>
    </svg>