<svg version="1.1" xmlns="http://www.w3.org/2000/svg" xlink="http://www.w3.org/1999/xlink" x="0px" y="0px" width="13.125px" height="15px" viewBox="0 0 13.125 15" style="enable-background:new 0 0 15 15;" space="preserve"><path d="M6.5625,7.5c2.0712890625,0,3.75,-1.6787109375,3.75,-3.75S8.6337890625,0,6.5625,0S2.8125,1.6787109375,2.8125,3.75s1.6787109375,3.75,3.75,3.75zm2.806640625,0.955078125L7.96875,14.062499999999998l-0.9375,-3.984375l0.9375,-1.640625h-2.8125l0.9375,1.640625l-0.9375,3.984375l-1.4003906249999998,-5.607421875C1.6669921874999998,8.5546875,0,10.2626953125,0,12.375V13.59375c0,0.7763671875,0.6298828125,1.40625,1.40625,1.40625h10.3125c0.7763671875,0,1.40625,-0.6298828125,1.40625,-1.40625v-1.21875c0,-2.1123046874999996,-1.6669921874999998,-3.8203125,-3.755859374999999,-3.919921875z" fill="#FFFFFF"/></svg>