<svg version="1.1" xmlns="http://www.w3.org/2000/svg" xlink="http://www.w3.org/1999/xlink" x="0px" y="0px" width="14.0625px" height="15px" viewBox="0 0 14.0625 15" style="enable-background:new 0 0 15 15;" space="preserve">
    <path d="M13.9951171875,5.4521484375L9.0673828125,0.5361328125c-0.0908203125,-0.0908203125,-0.24023437499999997,-0.0908203125,-0.3310546875,0l-0.99609375,0.9931640625c-0.0908203125,0.0908203125,-0.0908203125,0.24023437499999997,0,0.3310546875l0.328125,0.3251953125L0.966796875,9.2724609375c-1.13671875,1.1337890625,-1.3212890625,2.98828125,-0.275390625,4.2041015625c0.603515625,0.703125,1.4501953125,1.0546875,2.296875,1.0517578125c0.7734375,0,1.546875,-0.29296875,2.1357421875,-0.8818359375l7.2158203125,-7.1982421875l0.328125,0.3251953125c0.0908203125,0.0908203125,0.24023437499999997,0.0908203125,0.3310546875,0l0.99609375,-0.9931640625c0.0908203125,-0.087890625,0.0908203125,-0.2373046875,0,-0.328125zM9.31640625,7.5H4.716796875l4.3359375,-4.3271484375l2.2998046875,2.2939453125L9.31640625,7.5z" fill="#FFFFFF"/>
    </svg>