<svg version="1.1" xmlns="http://www.w3.org/2000/svg" xlink="http://www.w3.org/1999/xlink" x="0px" y="0px" width="18.75px" height="15px" viewBox="0 0 18.75 15" style="enable-background:new 0 0 15 15;" space="preserve">
    <path d="M14.765625,10.3125H3.99609375c-0.12890625,0,-0.234375,0.10546875,-0.234375,0.234375l-0.0029296875,1.40625c0,0.12890625,0.10546875,0.234375,0.234375,0.234375H14.765625c0.12890625,0,0.234375,-0.10546875,0.234375,-0.234375v-1.40625c0,-0.12890625,-0.10546875,-0.234375,-0.234375,-0.234375zm0,2.8125H3.9873046875c-0.12890625,0,-0.234375,0.10546875,-0.234375,0.234375l-0.0029296875,1.40625c0,0.12890625,0.10546875,0.234375,0.234375,0.234375h10.78125c0.12890625,0,0.234375,-0.10546875,0.234375,-0.234375v-1.40625c0,-0.12890625,-0.10546875,-0.234375,-0.234375,-0.234375zm0,-5.625H4.001953125c-0.12890625,0,-0.234375,0.10546875,-0.234375,0.234375l-0.0029296875,1.40625c0,0.12890625,0.10546875,0.234375,0.234375,0.234375H14.765625c0.12890625,0,0.234375,-0.10546875,0.234375,-0.234375v-1.40625c0,-0.12890625,-0.10546875,-0.234375,-0.234375,-0.234375zm3.1201171875,-4.072265625L9.9140625,0.1083984375a1.41064453125,1.41064453125,0,0,0,-1.0810546875,0L0.8642578125,3.427734375C0.3427734375,3.6474609375,0,4.1572265625,0,4.7255859375V14.765625c0,0.12890625,0.10546875,0.234375,0.234375,0.234375h2.34375c0.12890625,0,0.234375,-0.10546875,0.234375,-0.234375V7.5c0,-0.515625,0.427734375,-0.9375,0.955078125,-0.9375h11.21484375c0.52734375,0,0.955078125,0.421875,0.955078125,0.9375v7.265625c0,0.12890625,0.10546875,0.234375,0.234375,0.234375h2.34375c0.12890625,0,0.234375,-0.10546875,0.234375,-0.234375V4.7255859375c0,-0.568359375,-0.3427734375,-1.078125,-0.8642578125,-1.2978515625z" fill="#FFFFFF"/>
    </svg>