<svg version="1.1" xmlns="http://www.w3.org/2000/svg" xlink="http://www.w3.org/1999/xlink" x="0px" y="0px" width="15px" height="18.75px" viewBox="0 0 15 18.75" style="enable-background:new 0 0 15 15;" space="preserve">
    <path d="M18.45703125,12.890625H4.9951171875c-0.1611328125,0,-0.29296875,0.1318359375,-0.29296875,0.29296875l-0.003662109375,1.7578125c0,0.1611328125,0.1318359375,0.29296875,0.29296875,0.29296875H18.45703125c0.1611328125,0,0.29296875,-0.1318359375,0.29296875,-0.29296875v-1.7578125c0,-0.1611328125,-0.1318359375,-0.29296875,-0.29296875,-0.29296875zm0,3.515625H4.984130859375c-0.1611328125,0,-0.29296875,0.1318359375,-0.29296875,0.29296875l-0.003662109375,1.7578125c0,0.1611328125,0.1318359375,0.29296875,0.29296875,0.29296875h13.4765625c0.1611328125,0,0.29296875,-0.1318359375,0.29296875,-0.29296875v-1.7578125c0,-0.1611328125,-0.1318359375,-0.29296875,-0.29296875,-0.29296875zm0,-7.03125H5.00244140625c-0.1611328125,0,-0.29296875,0.1318359375,-0.29296875,0.29296875l-0.003662109375,1.7578125c0,0.1611328125,0.1318359375,0.29296875,0.29296875,0.29296875H18.45703125c0.1611328125,0,0.29296875,-0.1318359375,0.29296875,-0.29296875v-1.7578125c0,-0.1611328125,-0.1318359375,-0.29296875,-0.29296875,-0.29296875zm3.900146484375,-5.09033203125L12.392578125,0.135498046875a1.7633056640625,1.7633056640625,0,0,0,-1.351318359375,0L1.080322265625,4.28466796875C0.428466796875,4.559326171875,0,5.196533203125,0,5.906982421875V18.45703125c0,0.1611328125,0.1318359375,0.29296875,0.29296875,0.29296875h2.9296875c0.1611328125,0,0.29296875,-0.1318359375,0.29296875,-0.29296875V9.375c0,-0.64453125,0.53466796875,-1.171875,1.19384765625,-1.171875h14.0185546875c0.6591796875,0,1.19384765625,0.52734375,1.19384765625,1.171875v9.08203125c0,0.1611328125,0.1318359375,0.29296875,0.29296875,0.29296875h2.9296875c0.1611328125,0,0.29296875,-0.1318359375,0.29296875,-0.29296875V5.906982421875c0,-0.71044921875,-0.428466796875,-1.34765625,-1.080322265625,-1.622314453125z" fill="#FFFFFF"/>
    </svg>