<svg version="1.1" xmlns="http://www.w3.org/2000/svg" xlink="http://www.w3.org/1999/xlink" x="0px" y="0px" width="15px" height="15px" viewBox="0 0 15 15" style="enable-background:new 0 0 15 15;" space="preserve"><path d="M15,7.5c0,4.13671875,-3.3603515625,7.5,-7.5,7.5C3.36328125,15,0,11.6396484375,0,7.5S3.3603515625,0,7.5,0s7.5,3.3603515625,7.5,7.5zm-0.9375,0c0,-3.609375,-2.9384765625,-6.5625,-6.5625,-6.5625C3.8818359375,0.9375,0.9375,3.8818359375,0.9375,7.5s2.9443359375,6.5625,6.5625,6.5625s6.5625,-2.9443359375,6.5625,-6.5625zM4.7138671875,3.650390625l2.5458984375,1.0869140625l-1.0869140625,2.5458984375l-2.5458984375,-1.0869140625l1.0869140625,-2.5458984375zm3.22265625,4.9541015625l1.365234375,2.75390625h-0.427734375l-1.46484375,-2.9296875l-1.4326171875,2.9296875h-0.41015625l1.4970703125,-3.1318359375l-0.6533203125,-0.275390625l0.17578125,-0.41015625l2.009765625,0.8525390625l-0.17578125,0.4189453125l-0.4833984375,-0.2080078125zm-0.345703125,-3.4072265625l2.009765625,0.861328125l-0.861328125,2.0009765625L6.73828125,7.20703125l0.8525390625,-2.009765625zm2.3525390625,1.2568359375l1.599609375,0.6767578125l-0.685546875,1.5908203125l-1.5908203125,-0.6767578125l0.6767578125,-1.5908203125z" fill="#FFFFFF"/></svg>