<svg version="1.1" xmlns="http://www.w3.org/2000/svg" xlink="http://www.w3.org/1999/xlink" x="0px" y="0px" width="15px" height="13.333333333333332px" viewBox="0 0 15 13.333333333333332" style="enable-background:new 0 0 15 15;" space="preserve">
    <path d="M13.747395833333334,0.8333333333333334H1.2526041666666667C0.5598958333333334,0.8333333333333334,0,1.3932291666666667,0,2.0833333333333335v9.166666666666668c0,0.6901041666666667,0.5598958333333334,1.25,1.2526041666666667,1.25h12.494791666666668c0.6927083333333334,0,1.2526041666666667,-0.5598958333333334,1.2526041666666667,-1.25V2.0833333333333335c0,-0.6901041666666667,-0.5598958333333334,-1.25,-1.2526041666666667,-1.25zM1.4088541666666667,2.0833333333333335h12.182291666666668c0.0859375,0,0.15625,0.07031250000000001,0.15625,0.15625v1.09375H1.2526041666666667V2.2395833333333335c0,-0.0859375,0.07031250000000001,-0.15625,0.15625,-0.15625zm12.182291666666668,9.166666666666668H1.4088541666666667c-0.0859375,0,-0.15625,-0.07031250000000001,-0.15625,-0.15625V6.666666666666667h12.494791666666668v4.427083333333334c0,0.0859375,-0.07031250000000001,0.15625,-0.15625,0.15625zM5,8.645833333333334v1.0416666666666667c0,0.171875,-0.14062500000000003,0.3125,-0.3125,0.3125h-1.875c-0.171875,0,-0.3125,-0.14062500000000003,-0.3125,-0.3125v-1.0416666666666667c0,-0.171875,0.14062500000000003,-0.3125,0.3125,-0.3125h1.875c0.171875,0,0.3125,0.14062500000000003,0.3125,0.3125zm5,0v1.0416666666666667c0,0.171875,-0.14062500000000003,0.3125,-0.3125,0.3125H6.145833333333334c-0.171875,0,-0.3125,-0.14062500000000003,-0.3125,-0.3125v-1.0416666666666667c0,-0.171875,0.14062500000000003,-0.3125,0.3125,-0.3125h3.541666666666667c0.171875,0,0.3125,0.14062500000000003,0.3125,0.3125z" fill="#FFFFFF"/>
    </svg>