<svg version="1.1" xmlns="http://www.w3.org/2000/svg" xlink="http://www.w3.org/1999/xlink" x="0px" y="0px" width="16.875px" height="15px" viewBox="0 0 16.875 15" style="enable-background:new 0 0 15 15;" space="preserve">
    <path d="M15.4658203125,0.9375H1.4091796875C0.6298828125,0.9375,0,1.5673828125,0,2.34375v10.3125c0,0.7763671875,0.6298828125,1.40625,1.4091796875,1.40625h14.056640625c0.779296875,0,1.4091796875,-0.6298828125,1.4091796875,-1.40625V2.34375c0,-0.7763671875,-0.6298828125,-1.40625,-1.4091796875,-1.40625zM1.5849609375,2.34375h13.705078125c0.0966796875,0,0.17578125,0.0791015625,0.17578125,0.17578125v1.23046875H1.4091796875V2.51953125c0,-0.0966796875,0.0791015625,-0.17578125,0.17578125,-0.17578125zm13.705078125,10.3125H1.5849609375c-0.0966796875,0,-0.17578125,-0.0791015625,-0.17578125,-0.17578125V7.5h14.056640625v4.98046875c0,0.0966796875,-0.0791015625,0.17578125,-0.17578125,0.17578125zM5.625,9.7265625v1.171875c0,0.193359375,-0.158203125,0.3515625,-0.3515625,0.3515625h-2.109375c-0.193359375,0,-0.3515625,-0.158203125,-0.3515625,-0.3515625v-1.171875c0,-0.193359375,0.158203125,-0.3515625,0.3515625,-0.3515625h2.109375c0.193359375,0,0.3515625,0.158203125,0.3515625,0.3515625zm5.625,0v1.171875c0,0.193359375,-0.158203125,0.3515625,-0.3515625,0.3515625H6.9140625c-0.193359375,0,-0.3515625,-0.158203125,-0.3515625,-0.3515625v-1.171875c0,-0.193359375,0.158203125,-0.3515625,0.3515625,-0.3515625h3.984375c0.193359375,0,0.3515625,0.158203125,0.3515625,0.3515625z" fill="#FFFFFF"/>
    </svg>