<svg version="1.1" xmlns="http://www.w3.org/2000/svg" xlink="http://www.w3.org/1999/xlink" x="0px" y="0px" width="15px" height="13.333333333333332px" viewBox="0 0 15 13.333333333333332" style="enable-background:new 0 0 15 15;" space="preserve">
    <path d="M13.747395833333332,0.8333333333333333H1.2526041666666665C0.5598958333333333,0.8333333333333333,0,1.3932291666666665,0,2.083333333333333v9.166666666666666c0,0.6901041666666666,0.5598958333333333,1.25,1.2526041666666665,1.25h12.494791666666666c0.6927083333333333,0,1.2526041666666665,-0.5598958333333333,1.2526041666666665,-1.25V2.083333333333333c0,-0.6901041666666666,-0.5598958333333333,-1.25,-1.2526041666666665,-1.25zM1.4088541666666665,2.083333333333333h12.182291666666666c0.0859375,0,0.15625,0.0703125,0.15625,0.15625v1.09375H1.2526041666666665V2.239583333333333c0,-0.0859375,0.0703125,-0.15625,0.15625,-0.15625zm12.182291666666666,9.166666666666666H1.4088541666666665c-0.0859375,0,-0.15625,-0.0703125,-0.15625,-0.15625V6.666666666666666h12.494791666666666v4.427083333333333c0,0.0859375,-0.0703125,0.15625,-0.15625,0.15625zM5,8.645833333333332v1.0416666666666665c0,0.171875,-0.140625,0.3125,-0.3125,0.3125h-1.875c-0.171875,0,-0.3125,-0.140625,-0.3125,-0.3125v-1.0416666666666665c0,-0.171875,0.140625,-0.3125,0.3125,-0.3125h1.875c0.171875,0,0.3125,0.140625,0.3125,0.3125zm5,0v1.0416666666666665c0,0.171875,-0.140625,0.3125,-0.3125,0.3125H6.145833333333333c-0.171875,0,-0.3125,-0.140625,-0.3125,-0.3125v-1.0416666666666665c0,-0.171875,0.140625,-0.3125,0.3125,-0.3125h3.5416666666666665c0.171875,0,0.3125,0.140625,0.3125,0.3125z" fill="#FFFFFF"/>
    </svg>