<svg version="1.1" xmlns="http://www.w3.org/2000/svg" xlink="http://www.w3.org/1999/xlink" x="0px" y="0px" width="15px" height="13.333333333333332px" viewBox="0 0 15 13.333333333333332" style="enable-background:new 0 0 15 15;" space="preserve"><path d="M11.628385416666667,2.5372395833333337C11.449739583333335,1.5684895833333332,10.60390625,0.8333333333333334,9.583333333333334,0.8333333333333334c-1.0216145833333332,0,-1.8677083333333333,0.73671875,-2.0453125,1.7067708333333336C3.30078125,2.9416666666666664,-0.013020833333333334,6.513541666666667,0,10.858854166666667C0.0028645833333333336,11.768229166666666,0.7572916666666667,12.5,1.6666666666666667,12.5h7.916666666666667c0.23020833333333335,0,0.4166666666666667,-0.18645833333333334,0.4166666666666667,-0.4166666666666667c0,-0.46015625000000004,-0.3731770833333333,-0.8333333333333334,-0.8333333333333334,-0.8333333333333334h-2.070052083333333l0.9322916666666666,-1.25859375c0.6286458333333333,-0.9434895833333333,0.26953125,-2.2989583333333337,-0.8778645833333334,-2.7760416666666665c-0.6221354166666667,-0.25859375,-1.3424479166666667,-0.12109375000000001,-1.8812499999999999,0.2833333333333334l-0.853125,0.6403645833333333c-0.18385416666666665,0.13828125,-0.44505208333333335,0.10182291666666668,-0.58359375,-0.08307291666666666c-0.13802083333333334,-0.184375,-0.10104166666666667,-0.44557291666666665,0.08307291666666666,-0.58359375l0.9057291666666667,-0.6794270833333333c0.9593750000000001,-0.7203125,2.2989583333333337,-0.7192708333333334,3.25859375,0c0.2830729166666667,0.21223958333333334,1.19453125,1.0171875000000001,1.0625,2.42734375L12.2296875,12.5H14.583333333333334c0.23020833333333335,0,0.4166666666666667,-0.18645833333333334,0.4166666666666667,-0.4166666666666667c0,-0.46015625000000004,-0.3731770833333333,-0.8333333333333334,-0.8333333333333334,-0.8333333333333334h-1.3966145833333334l-2.565625,-2.726041666666667l4.0218750000000005,-2.256510416666667A1.5145833333333334,1.5145833333333334,0,0,0,15,4.946354166666667c0,-0.5572916666666666,-0.30520833333333336,-1.0664062500000002,-0.7937500000000001,-1.3341145833333332c-1.0562500000000001,-0.5786458333333333,-2.577864583333333,-1.0750000000000002,-2.577864583333333,-1.0750000000000002zM9.583333333333334,3.541666666666667c-0.3453125,0,-0.625,-0.2799479166666667,-0.625,-0.625c0,-0.3453125,0.27968750000000003,-0.625,0.625,-0.625c0.34505208333333337,0,0.625,0.27968750000000003,0.625,0.625c0,0.34505208333333337,-0.2799479166666667,0.625,-0.625,0.625z" fill="#FFFFFF"/></svg>