<svg version="1.1" xmlns="http://www.w3.org/2000/svg" xlink="http://www.w3.org/1999/xlink" x="0px" y="0px" width="15px" height="15px" viewBox="0 0 15 15" style="enable-background:new 0 0 15 15;" space="preserve">
    <path d="M15,3.75V0.9375c0,-0.51767578125,-0.41982421875,-0.9375,-0.9375,-0.9375h-2.8125c-0.51767578125,0,-0.9375,0.41982421875,-0.9375,0.9375H4.6875c0,-0.51767578125,-0.41982421875,-0.9375,-0.9375,-0.9375H0.9375C0.41982421875,0,0,0.41982421875,0,0.9375v2.8125c0,0.51767578125,0.41982421875,0.9375,0.9375,0.9375v5.625c-0.51767578125,0,-0.9375,0.41982421875,-0.9375,0.9375v2.8125c0,0.51767578125,0.41982421875,0.9375,0.9375,0.9375h2.8125c0.51767578125,0,0.9375,-0.41982421875,0.9375,-0.9375h5.625c0,0.51767578125,0.41982421875,0.9375,0.9375,0.9375h2.8125c0.51767578125,0,0.9375,-0.41982421875,0.9375,-0.9375v-2.8125c0,-0.51767578125,-0.41982421875,-0.9375,-0.9375,-0.9375V4.6875c0.51767578125,0,0.9375,-0.41982421875,0.9375,-0.9375zm-2.8125,-1.875h0.9375v0.9375h-0.9375V1.875zM1.875,1.875h0.9375v0.9375H1.875V1.875zm0.9375,11.25H1.875v-0.9375h0.9375v0.9375zm10.3125,0h-0.9375v-0.9375h0.9375v0.9375zm-0.9375,-2.8125h-0.9375c-0.51767578125,0,-0.9375,0.41982421875,-0.9375,0.9375v0.9375H4.6875v-0.9375c0,-0.51767578125,-0.41982421875,-0.9375,-0.9375,-0.9375H2.8125V4.6875h0.9375c0.51767578125,0,0.9375,-0.41982421875,0.9375,-0.9375V2.8125h5.625v0.9375c0,0.51767578125,0.41982421875,0.9375,0.9375,0.9375h0.9375v5.625z" fill="#FFFFFF"/>
    </svg>