<svg version="1.1" xmlns="http://www.w3.org/2000/svg" xlink="http://www.w3.org/1999/xlink" x="0px" y="0px" width="13.125px" height="15px" viewBox="0 0 13.125 15" style="enable-background:new 0 0 15 15;" space="preserve">
    <path d="M10.78125,2.8125h-1.40625V1.640625c0,-0.38833007812500003,-0.31479492187499997,-0.703125,-0.703125,-0.703125H0.703125C0.31479492187499997,0.9375,0,1.252294921875,0,1.640625v11.71875c0,0.38833007812500003,0.31479492187499997,0.703125,0.703125,0.703125h7.96875c0.38833007812500003,0,0.703125,-0.31479492187499997,0.703125,-0.703125v-1.23369140625l2.36150390625,-1.054013671875C12.579960937500001,10.695205078125,13.125,9.8551171875,13.125,8.931445312500001V5.15625c0,-1.2923437500000001,-1.0514062499999999,-2.34375,-2.34375,-2.34375zm0.46875,6.1189453125a0.46927734375,0.46927734375,0,0,1,-0.277705078125,0.42805664062500004L9.375,10.072412109375V4.6875h1.40625c0.25845703124999997,0,0.46875,0.21029296875,0.46875,0.46875v3.7751953125zM6.09375,11.25c-0.2588671875,0,-0.46875,-0.2098828125,-0.46875,-0.46875V4.21875c0,-0.2588671875,0.2098828125,-0.46875,0.46875,-0.46875s0.46875,0.2098828125,0.46875,0.46875v6.5625c0,0.2588671875,-0.2098828125,0.46875,-0.46875,0.46875zm-2.8125,0c-0.2588671875,0,-0.46875,-0.2098828125,-0.46875,-0.46875V4.21875c0,-0.2588671875,0.2098828125,-0.46875,0.46875,-0.46875s0.46875,0.2098828125,0.46875,0.46875v6.5625c0,0.2588671875,-0.2098828125,0.46875,-0.46875,0.46875z" fill="#FFFFFF"/>
    </svg>