<svg version="1.1" xmlns="http://www.w3.org/2000/svg" xlink="http://www.w3.org/1999/xlink" x="0px" y="0px" width="15px" height="13.333333333333332px" viewBox="0 0 15 13.333333333333332" style="enable-background:new 0 0 15 15;" space="preserve"><path d="M5.599739583333333,1.8502604166666667L3.2828125000000004,4.166666666666667H0.625c-0.3453125,0,-0.625,0.27968750000000003,-0.625,0.625v3.75c0,0.34505208333333337,0.27968750000000003,0.625,0.625,0.625h2.6578125000000004l2.3169270833333333,2.31640625c0.39140625,0.39140625,1.0669270833333333,0.11640625,1.0669270833333333,-0.4419270833333333V2.2921875c0,-0.5588541666666668,-0.6760416666666668,-0.8328125000000001,-1.0669270833333333,-0.4419270833333333zm6.076041666666667,-1.3302083333333334c-0.2908854166666667,-0.19088541666666667,-0.6817708333333333,-0.11041666666666668,-0.87265625,0.18098958333333334c-0.19114583333333335,0.2908854166666667,-0.10989583333333333,0.6817708333333333,0.18098958333333334,0.87265625c1.72578125,1.1325520833333333,2.755729166666667,3.0364583333333335,2.755729166666667,5.093229166666667c0,2.0567708333333337,-1.0299479166666667,3.9606770833333336,-2.755729166666667,5.093229166666667c-0.2908854166666667,0.19062500000000002,-0.37213541666666666,0.5817708333333333,-0.18098958333333334,0.8723958333333334c0.18333333333333335,0.27890625,0.5710937500000001,0.3791666666666667,0.87265625,0.18098958333333334C13.75703125,11.447395833333333,15,9.14921875,15,6.666666666666667S13.75703125,1.886197916666667,11.675781250000002,0.5200520833333333zM12.5,6.666666666666667c0,-1.6544270833333334,-0.8348958333333334,-3.1755208333333336,-2.23359375,-4.0687500000000005c-0.29140625,-0.1859375,-0.6778645833333334,-0.09947916666666666,-0.8624999999999999,0.19427083333333334s-0.0984375,0.6825520833333334,0.19296875000000002,0.86875C10.63203125,4.322135416666667,11.25,5.445572916666667,11.25,6.666666666666667s-0.6179687500000001,2.34453125,-1.653125,3.005729166666667c-0.29140625,0.1859375,-0.3776041666666667,0.5747395833333334,-0.19296875000000002,0.86875c0.16953125,0.26979166666666665,0.55,0.39427083333333335,0.8624999999999999,0.19427083333333334C11.665104166666667,9.8421875,12.5,8.321354166666667,12.5,6.666666666666667zm-3.6919270833333337,-2.001822916666667c-0.3015625,-0.16484375,-0.6820312500000001,-0.05625000000000001,-0.84921875,0.24609375c-0.16640625,0.30234375,-0.05625000000000001,0.6822916666666666,0.24609375,0.84921875C8.541145833333335,5.944791666666667,8.75,6.292447916666667,8.75,6.666666666666667c0,0.3744791666666667,-0.20885416666666667,0.721875,-0.5447916666666668,0.9065104166666668c-0.30234375,0.16692708333333334,-0.41250000000000003,0.546875,-0.24609375,0.84921875c0.16744791666666667,0.30364583333333334,0.5481770833333334,0.41145833333333337,0.84921875,0.24609375c0.7351562500000001,-0.4049479166666667,1.1919270833333335,-1.171875,1.1919270833333335,-2.002083333333333s-0.45677083333333335,-1.596875,-1.1921875000000002,-2.0015625z" fill="#FFFFFF"/></svg>