<svg version="1.1" xmlns="http://www.w3.org/2000/svg" xlink="http://www.w3.org/1999/xlink" x="0px" y="0px" width="15px" height="12px" viewBox="0 0 15 12" style="enable-background:new 0 0 15 15;" space="preserve">
    <path d="M14.85515625,10.736718750000001L11.600859375,8.22140625c0.0121875,-0.130546875,0.024140625,-0.26156250000000003,0.024140625,-0.395390625c0,-2.6193750000000002,-2.338828125,-3.59390625,-3.4401562500000002,-7.30828125c-0.18609375,-0.67453125,-1.15875,-0.7059375,-1.3696875,0c-0.36375,1.22671875,-0.8641406249999999,2.1553125,-1.370859375,2.945625L1.065703125,0.078984375C0.902109375,-0.048046874999999996,0.6663281249999999,-0.018750000000000003,0.539296875,0.14484375L0.078984375,0.737109375C-0.048046874999999996,0.90046875,-0.018750000000000003,1.136015625,0.14484375,1.26328125l13.7896875,10.657734375c0.16359375,0.127265625,0.399140625,0.097734375,0.52640625,-0.065859375l0.4603125,-0.592265625c0.126796875,-0.163359375,0.0975,-0.39890625,-0.06609374999999999,-0.526171875zM3.375,7.826015625C3.375,10.133203125000001,5.22,12,7.5,12c1.047890625,0,2.000859375,-0.3975,2.7281250000000004,-1.0476562500000002L3.8137499999999998,5.99484375c-0.26742187500000003,0.55078125,-0.43875,1.133203125,-0.43875,1.831171875z" fill="#FFFFFF"/>
    </svg>