<svg version="1.1" xmlns="http://www.w3.org/2000/svg" xlink="http://www.w3.org/1999/xlink" x="0px" y="0px" width="15px" height="15px" viewBox="0 0 15 15" style="enable-background:new 0 0 15 15;" space="preserve">
    <path d="M12.65625,2.8125c0.7763671875,0,1.40625,-0.6298828125,1.40625,-1.40625S13.4326171875,0,12.65625,0s-1.40625,0.6298828125,-1.40625,1.40625s0.6298828125,1.40625,1.40625,1.40625zm2.138671875,10.4326171875c-0.275390625,-0.275390625,-0.720703125,-0.275390625,-0.9931640625,0c-0.3544921875,0.3544921875,-0.8935546875,0.451171875,-1.3212890625,0.2548828125l-3.9785156250000004,-2.056640625l1.44140625,-2.162109375c0.3720703125,-0.556640625,0.298828125,-1.3037109375,-0.17578125,-1.775390625L8.583984375,6.3193359375l-3.134765625,-1.5556640625c-0.0849609375,0.5830078125,0.099609375,1.171875,0.5185546875,1.59375l2.2001953125,2.203125l-1.3447265625,2.015625L1.025390625,7.5791015625c-0.3427734375,-0.17578125,-0.767578125,-0.0439453125,-0.9462890624999999,0.3017578125c-0.1787109375,0.345703125,-0.0439453125,0.7705078125,0.3017578125,0.9462890624999999l11.4814453125,5.9326171875c0.3486328125,0.1611328125,0.7177734375,0.2373046875,1.0869140625,0.2373046875c0.6796875,0,1.34765625,-0.263671875,1.845703125,-0.76171875c0.2724609375,-0.2724609375,0.2724609375,-0.7177734375,0,-0.9902343749999999zM3.515625,2.68359375l-0.3369140625,0.6591796875c0.421875,0.2138671875,0.9140625,0.1435546875,1.25390625,-0.140625l1.3828125,0.685546875c-0.0029296875,0.0029296875,-0.0029296875,0.005859375,-0.005859375,0.0087890625l3.3544921875,1.6640625l0.94921875,-0.380859375l0.1875,0.5595703125c0.1171875,0.3544921875,0.369140625,0.64453125,0.703125,0.8115234375l1.7021484375,0.849609375c0.4658203125,0.2314453125,1.025390625,0.0439453125,1.2568359375,-0.4189453125c0.2314453125,-0.462890625,0.0439453125,-1.025390625,-0.4189453125,-1.2568359375l-1.5263671875,-0.7646484375l-0.5009765625,-1.5c-0.2373046875,-0.708984375,-1.1982421875,-1.658203125,-2.4755859375,-1.1484375l-2.37890625,0.9521484375l-1.8310546875,-0.908203125c0.0087890625,-0.4248046875,-0.2109375,-0.837890625,-0.6123046875,-1.04296875l-0.3251953125,0.6357421875h-0.005859375l-1.0078125,-0.205078125c-0.052734375,-0.01171875,-0.1083984375,0.005859375,-0.146484375,0.0498046875c-0.0556640625,0.064453125,-0.0498046875,0.1611328125,0.0146484375,0.216796875l0.767578125,0.673828125z" fill="#FFFFFF"/>
    </svg>