<svg version="1.1" xmlns="http://www.w3.org/2000/svg" xlink="http://www.w3.org/1999/xlink" x="0px" y="0px" width="11.25px" height="15px" viewBox="0 0 11.25 15" style="enable-background:new 0 0 15 15;" space="preserve"><path d="M2.37158203125,13.834863281250001c-0.125390625,0.502734375,0.1798828125,1.01162109375,0.6820312500000001,1.1370117187500002c0.07646484375,0.0193359375,0.1529296875,0.02783203125,0.228515625,0.02783203125c0.41982421875,0,0.80185546875,-0.2841796875,0.9087890625,-0.70986328125l0.7394531249999999,-2.95810546875l-1.5462890625,-1.5462890625l-1.0125000000000002,4.0494140625zm0.43623046875000004,-5.745703125L4.013671875,3.427734375c0.06416015625,-0.2466796875,-0.0919921875,-0.49658203125,-0.34921875,-0.5583984375c-1.285546875,-0.30820312499999997,-2.58837890625,0.44150390625,-2.909765625,1.6749023437500001L0.01435546875,7.419140625000001c-0.06416015625,0.2466796875,0.0919921875,0.49658203125,0.34921875,0.5583984375l1.8621093750000002,0.44677734375c0.25751953125,0.0615234375,0.51796875,-0.0884765625,0.58212890625,-0.33515625zM10.78125,4.6875h-0.46875c-0.258984375,0,-0.46875,0.209765625,-0.46875,0.46875v0.46875h-1.01806640625l-1.3705078125,-1.3705078125C7.1302734375,3.92900390625,6.69755859375,3.75,6.23759765625,3.75c-0.7916015625,0,-1.47861328125,0.5361328125,-1.67080078125,1.3042968750000001l-0.788671875,3.155859375a0.9378515625,0.9378515625,0,0,0,0.2466796875,0.89033203125L6.5625,11.63818359375V14.0625c0,0.51767578125,0.41982421875,0.9375,0.9375,0.9375s0.9375,-0.41982421875,0.9375,-0.9375v-2.42431640625c0,-0.50068359375,-0.1951171875,-0.971484375,-0.54931640625,-1.32568359375l-1.3716796875,-1.3716796875c0.00439453125,-0.0146484375,0.01435546875,-0.02607421875,0.0181640625,-0.04130859375l0.58271484375,-2.33115234375l0.65712890625,0.65712890625c0.17578125,0.17578125,0.41425781250000004,0.27480468750000003,0.6626953125,0.27480468750000003h1.40625v7.03125c0,0.258984375,0.209765625,0.46875,0.46875,0.46875h0.46875c0.258984375,0,0.46875,-0.209765625,0.46875,-0.46875V5.15625c0.00029296875,-0.258984375,-0.20947265625,-0.46875,-0.46845703125,-0.46875zM7.03125,2.8125c0.7766601562500001,0,1.40625,-0.6295898437499999,1.40625,-1.40625S7.807910156249999,0,7.03125,0s-1.40625,0.6295898437499999,-1.40625,1.40625s0.6295898437499999,1.40625,1.40625,1.40625z" fill="#FFFFFF"/></svg>