<svg version="1.1" xmlns="http://www.w3.org/2000/svg" xlink="http://www.w3.org/1999/xlink" x="0px" y="0px" width="7.5px" height="15px" viewBox="0 0 7.5 15" style="enable-background:new 0 0 15 15;" space="preserve"><path d="M5.625,11.25c0,1.0355273437499999,-0.83947265625,1.875,-1.875,1.875c-1.0355273437499999,0,-1.875,-0.83947265625,-1.875,-1.875c0,-0.693896484375,0.3772265625,-1.2992871093749998,0.9375,-1.623544921875V4.6875c0,-0.5177636718749999,0.419736328125,-0.9375,0.9375,-0.9375s0.9375,0.419736328125,0.9375,0.9375v4.938955078125c0.5602734374999999,0.32425781249999996,0.9375,0.9296484375,0.9375,1.623544921875zm0.9375,-2.480068359375c0.583359375,0.661025390625,0.9375,1.5291210937500002,0.9375,2.480068359375c0,2.071171875,-1.678798828125,3.75,-3.75,3.75c-0.008759765624999999,0,-0.017841796875,-0.000029296875,-0.026630859375,-0.000087890625C1.663740234375,14.985615234375,-0.010458984374999999,13.2901171875,0.00005859375,11.230458984375002C0.00486328125,10.287158203125,0.358154296875,9.426416015625,0.9375,8.769931640625V2.8125c0,-1.553291015625,1.259208984375,-2.8125,2.8125,-2.8125s2.8125,1.259208984375,2.8125,2.8125v5.957431640625zM6.09375,11.25c0,-1.006025390625,-0.56748046875,-1.5290039062499998,-0.9375,-1.94830078125V2.8125c0,-0.775400390625,-0.630849609375,-1.40625,-1.40625,-1.40625S2.34375,2.0370996093750002,2.34375,2.8125v6.48919921875c-0.3730078125,0.42269531250000003,-0.932373046875,0.9404296875,-0.9374707031249999,1.9359374999999999c-0.0065625,1.2854296875,1.041884765625,2.3471484375,2.326845703125,2.3560546875L3.75,13.59375c1.2923437500000001,0,2.34375,-1.0514062499999999,2.34375,-2.34375z" fill="#FFFFFF"/></svg>