<svg version="1.1" xmlns="http://www.w3.org/2000/svg" xlink="http://www.w3.org/1999/xlink" x="0px" y="0px" width="15px" height="15px" viewBox="0 0 15 15" style="enable-background:new 0 0 15 15;" space="preserve">
    <path d="M6.5625,7.5C6.5625,6.9814453125,6.9814453125,6.5625,7.5,6.5625C8.0185546875,6.5625,8.4375,6.9814453125,8.4375,7.5C8.4375,8.0185546875,8.0185546875,8.4375,7.5,8.4375C6.9814453125,8.4375,6.5625,8.0185546875,6.5625,7.5zM7.5,0C8.0185546875,0,8.4375,0.41982421875,8.4375,0.9375V1.24072265625C11.1826171875,1.6485351562500001,13.3505859375,3.8173828125000004,13.7578125,6.5625H14.0625C14.5810546875,6.5625,15,6.9814453125,15,7.5C15,8.0185546875,14.5810546875,8.4375,14.0625,8.4375H13.7578125C13.3505859375,11.1826171875,11.1826171875,13.3505859375,8.4375,13.7578125V14.0625C8.4375,14.5810546875,8.0185546875,15,7.5,15C6.9814453125,15,6.5625,14.5810546875,6.5625,14.0625V13.7578125C3.8173828125000004,13.3505859375,1.6485351562500001,11.1826171875,1.24072265625,8.4375H0.9375C0.41982421875,8.4375,0,8.0185546875,0,7.5C0,6.9814453125,0.41982421875,6.5625,0.9375,6.5625H1.24072265625C1.6485351562500001,3.8173828125000004,3.8173828125000004,1.6485351562500001,6.5625,1.24072265625V0.9375C6.5625,0.41982421875,6.9814453125,0,7.5,0V0zM6.5625,11.853515625V11.25C6.5625,10.7314453125,6.9814453125,10.3125,7.5,10.3125C8.0185546875,10.3125,8.4375,10.7314453125,8.4375,11.25V11.853515625C10.1455078125,11.4873046875,11.4873046875,10.1455078125,11.853515625,8.4375H11.25C10.7314453125,8.4375,10.3125,8.0185546875,10.3125,7.5C10.3125,6.9814453125,10.7314453125,6.5625,11.25,6.5625H11.853515625C11.4873046875,4.8544921875,10.1455078125,3.5126953125,8.4375,3.146484375V3.75C8.4375,4.2685546875,8.0185546875,4.6875,7.5,4.6875C6.9814453125,4.6875,6.5625,4.2685546875,6.5625,3.75V3.146484375C4.8544921875,3.5126953125,3.5126953125,4.8544921875,3.146484375,6.5625H3.75C4.2685546875,6.5625,4.6875,6.9814453125,4.6875,7.5C4.6875,8.0185546875,4.2685546875,8.4375,3.75,8.4375H3.146484375C3.5126953125,10.1455078125,4.8544921875,11.4873046875,6.5625,11.853515625z" fill="#FFFFFF"/>
    </svg>