<svg version="1.1" xmlns="http://www.w3.org/2000/svg" xlink="http://www.w3.org/1999/xlink" x="0px" y="0px" width="15px" height="15px" viewBox="0 0 15 15" style="enable-background:new 0 0 15 15;" space="preserve"><path d="M14.86259765625,2.48115234375L13.59375,1.21201171875c-0.17578125,-0.17578125,-0.41425781250000004,-0.27451171874999997,-0.66298828125,-0.27451171874999997H8.4375V0.46875c0,-0.258984375,-0.209765625,-0.46875,-0.46875,-0.46875h-0.9375c-0.258984375,0,-0.46875,0.209765625,-0.46875,0.46875v0.46875H1.640625c-0.38818359375,0,-0.703125,0.31494140625,-0.703125,0.703125v2.34375c0,0.38818359375,0.31494140625,0.703125,0.703125,0.703125h11.29013671875c0.24873046875000002,0,0.4869140625,-0.09873046875000001,0.66298828125,-0.27451171874999997l1.2688476562500002,-1.2688476562500002c0.18310546875,-0.18339843749999998,0.18310546875,-0.4798828125,0,-0.66298828125zM6.5625,14.53125c0,0.258984375,0.209765625,0.46875,0.46875,0.46875h0.9375c0.258984375,0,0.46875,-0.209765625,0.46875,-0.46875V11.25h-1.875v3.28125zm6.796875,-7.96875H8.4375v-0.9375h-1.875v0.9375H2.0692382812499996c-0.24873046875000002,0,-0.4869140625,0.09873046875000001,-0.66298828125,0.27451171874999997L0.13740234375000002,8.10615234375c-0.18310546875,0.18310546875,-0.18310546875,0.4798828125,0,0.66298828125L1.40625,10.03798828125c0.17578125,0.17578125,0.41425781250000004,0.27451171874999997,0.66298828125,0.27451171874999997H13.359375c0.38818359375,0,0.703125,-0.31494140625,0.703125,-0.703125v-2.34375c0,-0.38818359375,-0.31494140625,-0.703125,-0.703125,-0.703125z" fill="#FFFFFF"/></svg>