<svg version="1.1" xmlns="http://www.w3.org/2000/svg" xlink="http://www.w3.org/1999/xlink" x="0px" y="0px" width="13.125px" height="15px" viewBox="0 0 13.125 15" style="enable-background:new 0 0 15 15;" space="preserve">
    <path d="M6.5625,15c1.034765625,0,1.87412109375,-0.83935546875,1.87412109375,-1.875H4.68837890625c0,1.03564453125,0.83935546875,1.875,1.87412109375,1.875zm6.310253906249999,-4.38603515625c-0.566015625,-0.6082031250000001,-1.62509765625,-1.52314453125,-1.62509765625,-4.52021484375c0,-2.2763671875,-1.5960937499999999,-4.0986328125,-3.7482421875,-4.545703124999999V0.9375c0,-0.51767578125,-0.41953125,-0.9375,-0.9369140625,-0.9375s-0.9369140625,0.41982421875,-0.9369140625,0.9375v0.610546875C3.4734374999999997,1.9951171874999998,1.87734375,3.8173828125,1.87734375,6.09375c0,2.9970703124999996,-1.05908203125,3.91201171875,-1.62509765625,4.52021484375c-0.17578125,0.18896484375,-0.2537109375,0.41484374999999996,-0.25224609375,0.63603515625c0.00322265625,0.48046874999999994,0.3802734375,0.9375,0.9404296875000001,0.9375h11.244140625c0.56015625,0,0.9375,-0.45703124999999994,0.9404296875000001,-0.9375c0.00146484375,-0.22119140624999997,-0.07646484375,-0.44736328124999997,-0.25224609375,-0.63603515625z" fill="#FFFFFF"/>
    </svg>