<svg version="1.1" xmlns="http://www.w3.org/2000/svg" xlink="http://www.w3.org/1999/xlink" x="0px" y="0px" width="16.875px" height="15px" viewBox="0 0 16.875 15" style="enable-background:new 0 0 15 15;" space="preserve">
    <path d="M8.4375,0c-2.0387695312500003,0,-3.69140625,1.65263671875,-3.69140625,3.69140625c0,1.6482421875,2.41259765625,4.65234375,3.3369140625,5.7427734375c0.18720703125,0.2208984375,0.5220703125,0.2208984375,0.708984375,0C9.71630859375,8.34375,12.12890625,5.339648437499999,12.12890625,3.69140625C12.12890625,1.65263671875,10.476269531249999,0,8.4375,0zm0,4.921875c-0.6796875,0,-1.23046875,-0.55078125,-1.23046875,-1.23046875s0.55078125,-1.23046875,1.23046875,-1.23046875s1.23046875,0.55078125,1.23046875,1.23046875s-0.55078125,1.23046875,-1.23046875,1.23046875zM0.589453125,6.32666015625A0.9376757812500001,0.9376757812500001,0,0,0,0,7.1970703125v7.3335937499999995c0,0.331640625,0.33486328125,0.5583984375,0.6427734375,0.43535156249999996L4.6875,13.125V6.2964843749999995c-0.258984375,-0.46816406250000003,-0.47080078125,-0.9240234374999999,-0.62255859375,-1.3599609375000001L0.589453125,6.32666015625zM8.4375,10.53720703125c-0.41220703125,0,-0.8021484375,-0.18105468749999998,-1.06962890625,-0.496875c-0.5759765625,-0.6796875,-1.18857421875,-1.4537109375,-1.74287109375,-2.24765625v5.33203125l5.625,1.875V7.79296875c-0.554296875,0.79365234375,-1.1666015625,1.5679687500000001,-1.74287109375,2.24765625c-0.26748046875000003,0.31552734374999997,-0.657421875,0.49658203125,-1.06962890625,0.49658203125zm7.7947265625,-5.815722656249999L12.1875,6.5625v8.4375l4.098046875,-1.63916015625A0.9373828125,0.9373828125,0,0,0,16.875,12.490429687499999V5.1568359375c0,-0.331640625,-0.33486328125,-0.5583984375,-0.6427734375,-0.43535156249999996z" fill="#FFFFFF"/>
    </svg>