<svg version="1.1" xmlns="http://www.w3.org/2000/svg" xlink="http://www.w3.org/1999/xlink" x="0px" y="0px" width="15px" height="15px" viewBox="0 0 15 15" style="enable-background:new 0 0 15 15;" space="preserve"><path d="M0.9375,13.125c0,0.5185546875,0.4189453125,0.9375,0.9375,0.9375h11.25c0.5185546875,0,0.9375,-0.4189453125,0.9375,-0.9375V4.6875H0.9375v8.4375zm4.6875,-6.2109375c0,-0.193359375,0.158203125,-0.3515625,0.3515625,-0.3515625h3.046875c0.193359375,0,0.3515625,0.158203125,0.3515625,0.3515625v0.234375c0,0.193359375,-0.158203125,0.3515625,-0.3515625,0.3515625H5.9765625c-0.193359375,0,-0.3515625,-0.158203125,-0.3515625,-0.3515625v-0.234375zM14.0625,0.9375H0.9375C0.4189453125,0.9375,0,1.3564453125,0,1.875v1.40625c0,0.2578125,0.2109375,0.46875,0.46875,0.46875h14.0625c0.2578125,0,0.46875,-0.2109375,0.46875,-0.46875V1.875c0,-0.5185546875,-0.4189453125,-0.9375,-0.9375,-0.9375z" fill="#FFFFFF"/></svg>