<svg version="1.1" xmlns="http://www.w3.org/2000/svg" xlink="http://www.w3.org/1999/xlink" x="0px" y="0px" width="16.875px" height="15px" viewBox="0 0 16.875 15" style="enable-background:new 0 0 15 15;" space="preserve">
    <path d="M8.619140625,8.1357421875c0.52734375,0.146484375,1.0166015625,0.392578125,1.4501953125,0.7236328125l4.7314453125,-1.576171875c0.24609375,-0.08203125,0.3779296875,-0.3486328125,0.2958984375,-0.591796875L13.3271484375,1.3828125c-0.08203125,-0.24609375,-0.3486328125,-0.3779296875,-0.591796875,-0.2958984375l-1.7900390625,0.59765625l0.9697265625,2.912109375L10.13671875,5.185546875l-0.9697265625,-2.912109375l-1.8046875,0.6005859375c-0.24609375,0.08203125,-0.3779296875,0.3486328125,-0.2958984375,0.591796875l1.552734375,4.669921875zm8.232421875,1.4267578125L16.552734375,8.671875c-0.08203125,-0.24609375,-0.3486328125,-0.3779296875,-0.591796875,-0.2958984375l-6.2548828125,2.0859375c-0.50390625,-0.64453125,-1.27734375,-1.06640625,-2.1533203125,-1.083984375L4.640625,0.6416015625C4.51171875,0.2578125,4.154296875,0,3.75,0H0.46875C0.2109375,0,0,0.2109375,0,0.46875v0.9375c0,0.2578125,0.2109375,0.46875,0.46875,0.46875h2.6044921875l2.701171875,8.1064453125c-0.7646484375,0.59765625,-1.2216796875,1.5703125,-1.0546875,2.6513671875c0.1787109375,1.154296875,1.1103515625,2.1181640625,2.2646484375,2.3203125c1.763671875,0.3134765625,3.2900390625,-1.01953125,3.322265625,-2.712890625l6.2490234375,-2.0859375c0.24316406250000003,-0.08203125,0.3779296875,-0.345703125,0.2958984375,-0.591796875zM7.5,13.59375c-0.7763671875,0,-1.40625,-0.6298828125,-1.40625,-1.40625s0.6298828125,-1.40625,1.40625,-1.40625s1.40625,0.6298828125,1.40625,1.40625s-0.6298828125,1.40625,-1.40625,1.40625z" fill="#FFFFFF"/>
    </svg>