<svg version="1.1" xmlns="http://www.w3.org/2000/svg" xlink="http://www.w3.org/1999/xlink" x="0px" y="0px" width="13.125px" height="15px" viewBox="0 0 13.125 15" style="enable-background:new 0 0 15 15;" space="preserve">
    <path d="M12.808593749999998,11.8212890625L9.375,6.298828125V1.875h0.234375c0.3896484375,0,0.703125,-0.3134765625,0.703125,-0.703125V0.703125c0,-0.3896484375,-0.3134765625,-0.703125,-0.703125,-0.703125H3.5156249999999996c-0.3896484375,0,-0.703125,0.3134765625,-0.703125,0.703125v0.46875c0,0.3896484375,0.3134765625,0.703125,0.703125,0.703125h0.234375v4.423828125L0.31640625,11.8212890625C-0.5419921875,13.201171875,0.4482421875,15,2.0771484375,15h8.970703125c1.6318359375,0,2.619140625,-1.8017578125,1.7607421875,-3.1787109375zM4.0400390625,9.375l1.412109375,-2.2734375c0.1083984375,-0.15234375,0.16992187499999997,-0.33984374999999994,0.16992187499999997,-0.5390624999999999V1.875h1.875v4.6875c0,0.2021484375,0.064453125,0.38671875,0.16992187499999997,0.5390624999999999l1.412109375,2.2734375h-5.0390625z" fill="#FFFFFF"/>
    </svg>