<svg version="1.1" xmlns="http://www.w3.org/2000/svg" xlink="http://www.w3.org/1999/xlink" x="0px" y="0px" width="15px" height="12px" viewBox="0 0 15 12" style="enable-background:new 0 0 15 15;" space="preserve">
    <path d="M11.8125,8.25H3.1968750000000004c-0.10312500000000001,0,-0.1875,0.084375,-0.1875,0.1875l-0.0023437500000000003,1.125c0,0.10312500000000001,0.084375,0.1875,0.1875,0.1875H11.8125c0.10312500000000001,0,0.1875,-0.084375,0.1875,-0.1875v-1.125c0,-0.10312500000000001,-0.084375,-0.1875,-0.1875,-0.1875zm0,2.25H3.18984375c-0.10312500000000001,0,-0.1875,0.084375,-0.1875,0.1875l-0.0023437500000000003,1.125c0,0.10312500000000001,0.084375,0.1875,0.1875,0.1875h8.625c0.10312500000000001,0,0.1875,-0.084375,0.1875,-0.1875v-1.125c0,-0.10312500000000001,-0.084375,-0.1875,-0.1875,-0.1875zm0,-4.5H3.2015625c-0.10312500000000001,0,-0.1875,0.084375,-0.1875,0.1875l-0.0023437500000000003,1.125c0,0.10312500000000001,0.084375,0.1875,0.1875,0.1875H11.8125c0.10312500000000001,0,0.1875,-0.084375,0.1875,-0.1875v-1.125c0,-0.10312500000000001,-0.084375,-0.1875,-0.1875,-0.1875zm2.49609375,-3.2578125L7.93125,0.08671875000000001a1.1285156250000001,1.1285156250000001,0,0,0,-0.86484375,0L0.69140625,2.7421875C0.27421875,2.91796875,0,3.3257812500000004,0,3.7804687500000003V11.8125c0,0.10312500000000001,0.084375,0.1875,0.1875,0.1875h1.875c0.10312500000000001,0,0.1875,-0.084375,0.1875,-0.1875V6c0,-0.41250000000000003,0.34218750000000003,-0.75,0.7640625000000001,-0.75h8.971875c0.421875,0,0.7640625000000001,0.3375,0.7640625000000001,0.75v5.8125c0,0.10312500000000001,0.084375,0.1875,0.1875,0.1875h1.875c0.10312500000000001,0,0.1875,-0.084375,0.1875,-0.1875V3.7804687500000003c0,-0.4546875,-0.27421875,-0.8625,-0.69140625,-1.03828125z" fill="#FFFFFF"/>
    </svg>