<svg version="1.1" xmlns="http://www.w3.org/2000/svg" xlink="http://www.w3.org/1999/xlink" x="0px" y="0px" width="15px" height="13.333333333333332px" viewBox="0 0 15 13.333333333333332" style="enable-background:new 0 0 15 15;" space="preserve">
    <path d="M10.484375000000002,2.166666666666667l2.3489583333333335,2.3489583333333335c0.09895833333333333,0.09895833333333333,0.09895833333333333,0.2604166666666667,0,0.35937500000000006L7.145833333333333,10.562500000000002l-2.4166666666666665,0.2682291666666667c-0.3229166666666667,0.036458333333333336,-0.5963541666666666,-0.23697916666666666,-0.5598958333333334,-0.5598958333333334l0.2682291666666667,-2.4166666666666665L10.125,2.166666666666667c0.09895833333333333,-0.09895833333333333,0.2604166666666667,-0.09895833333333333,0.35937500000000006,0zm4.21875,-0.5963541666666666l-1.2708333333333333,-1.2708333333333333c-0.3958333333333333,-0.3958333333333333,-1.0390625,-0.3958333333333333,-1.4375000000000002,0l-0.921875,0.921875c-0.09895833333333333,0.09895833333333333,-0.09895833333333333,0.2604166666666667,0,0.35937500000000006l2.3489583333333335,2.3489583333333335c0.09895833333333333,0.09895833333333333,0.2604166666666667,0.09895833333333333,0.35937500000000006,0l0.921875,-0.921875c0.3958333333333333,-0.39843750000000006,0.3958333333333333,-1.0416666666666667,0,-1.4375000000000002zM10,9.015625V11.666666666666668H1.6666666666666667V3.3333333333333335h5.984375000000001c0.08333333333333334,0,0.16145833333333334,-0.03385416666666667,0.22135416666666669,-0.09114583333333334l1.0416666666666667,-1.0416666666666667c0.19791666666666666,-0.19791666666666666,0.05729166666666667,-0.5338541666666667,-0.22135416666666669,-0.5338541666666667H1.25C0.5598958333333334,1.6666666666666667,0,2.2265625,0,2.916666666666667v9.166666666666668c0,0.6901041666666667,0.5598958333333334,1.25,1.25,1.25h9.166666666666668c0.6901041666666667,0,1.25,-0.5598958333333334,1.25,-1.25V7.973958333333333c0,-0.2786458333333333,-0.3359375,-0.4166666666666667,-0.5338541666666667,-0.22135416666666669l-1.0416666666666667,1.0416666666666667c-0.05729166666666667,0.05989583333333333,-0.09114583333333334,0.13802083333333334,-0.09114583333333334,0.22135416666666669z" fill="#FFFFFF"/>
    </svg>