<svg version="1.1" xmlns="http://www.w3.org/2000/svg" xlink="http://www.w3.org/1999/xlink" x="0px" y="0px" width="15px" height="13.333333333333332px" viewBox="0 0 15 13.333333333333332" style="enable-background:new 0 0 15 15;" space="preserve">
    <path d="M14.375,1.6666666666666665H2.2916666666666665c-0.3451822916666667,0,-0.625,0.2798177083333333,-0.625,0.625v0.20833333333333331H0.625c-0.3451822916666667,0,-0.625,0.2798177083333333,-0.625,0.625v7.083333333333333c0,0.8054166666666667,0.6529166666666666,1.4583333333333333,1.4583333333333333,1.4583333333333333h12.291666666666666c0.6903645833333334,0,1.25,-0.5596354166666666,1.25,-1.25V2.2916666666666665c0,-0.3451822916666667,-0.2798177083333333,-0.625,-0.625,-0.625zM1.4583333333333333,10.416666666666666a0.20833333333333331,0.20833333333333331,0,0,1,-0.20833333333333331,-0.20833333333333331V3.75h0.41666666666666663v6.458333333333333a0.20833333333333331,0.20833333333333331,0,0,1,-0.20833333333333331,0.20833333333333331zm6.145833333333333,-0.41666666666666663H3.645833333333333c-0.172578125,0,-0.3125,-0.139921875,-0.3125,-0.3125v-0.20833333333333331c0,-0.172578125,0.139921875,-0.3125,0.3125,-0.3125h3.958333333333333c0.172578125,0,0.3125,0.139921875,0.3125,0.3125v0.20833333333333331c0,0.172578125,-0.139921875,0.3125,-0.3125,0.3125zm5.416666666666666,0H9.0625c-0.172578125,0,-0.3125,-0.139921875,-0.3125,-0.3125v-0.20833333333333331c0,-0.172578125,0.139921875,-0.3125,0.3125,-0.3125h3.958333333333333c0.172578125,0,0.3125,0.139921875,0.3125,0.3125v0.20833333333333331c0,0.172578125,-0.139921875,0.3125,-0.3125,0.3125zm-5.416666666666666,-2.5H3.645833333333333c-0.172578125,0,-0.3125,-0.139921875,-0.3125,-0.3125v-0.20833333333333331c0,-0.172578125,0.139921875,-0.3125,0.3125,-0.3125h3.958333333333333c0.172578125,0,0.3125,0.139921875,0.3125,0.3125v0.20833333333333331c0,0.172578125,-0.139921875,0.3125,-0.3125,0.3125zm5.416666666666666,0H9.0625c-0.172578125,0,-0.3125,-0.139921875,-0.3125,-0.3125v-0.20833333333333331c0,-0.172578125,0.139921875,-0.3125,0.3125,-0.3125h3.958333333333333c0.172578125,0,0.3125,0.139921875,0.3125,0.3125v0.20833333333333331c0,0.172578125,-0.139921875,0.3125,-0.3125,0.3125zm0,-2.5H3.645833333333333c-0.172578125,0,-0.3125,-0.139921875,-0.3125,-0.3125v-1.0416666666666665c0,-0.172578125,0.139921875,-0.3125,0.3125,-0.3125h9.375c0.172578125,0,0.3125,0.139921875,0.3125,0.3125v1.0416666666666665c0,0.172578125,-0.139921875,0.3125,-0.3125,0.3125z" fill="#FFFFFF"/>
    </svg>