<svg version="1.1" xmlns="http://www.w3.org/2000/svg" xlink="http://www.w3.org/1999/xlink" x="0px" y="0px" width="15px" height="12px" viewBox="0 0 15 12" style="enable-background:new 0 0 15 15;" space="preserve">
    <path d="M10.12453125,10.500234375l-1.124296875,0.0011718750000000002V9.75h-3v0.754921875l-1.12453125,0.0011718750000000002c-0.20671875,0.000234375,-0.37429687500000003,0.1678125,-0.37453125,0.374765625l-0.0011718750000000002,0.743671875c-0.000234375,0.20742187499999998,0.16804687499999998,0.375703125,0.37546875,0.37546875l5.2490625,-0.00609375c0.20671875,-0.000234375,0.37429687500000003,-0.1678125,0.37453125,-0.37453125l0.0009375,-0.743671875c0.000234375,-0.20742187499999998,-0.16804687499999998,-0.375703125,-0.37546875,-0.37546875zM13.715625000000001,0.62671875C13.654218750000002,0.265078125,13.335703125,0,12.962343749999999,0H2.037421875C1.6640625,0,1.345546875,0.265078125,1.284140625,0.62671875C-0.07781249999999999,8.6521875,0.0009375,8.158125,0.000703125,8.25c-0.000703125,0.4059375,0.334921875,0.75,0.7640625000000001,0.75h13.47046875c0.427265625,0,0.761953125,-0.34125,0.7638281250000001,-0.745078125c0.00046875,-0.095625,0.078515625,0.39726562499999996,-1.2834375,-7.628203125000001zM6.089765625,1.5h2.820234375l0.228984375,2.25H5.8607812500000005l0.228984375,-2.25zm-1.761796875,6H1.666171875L2.1117187499999996,4.875h2.4836718749999998l-0.26742187500000003,2.625zm0.381796875,-3.75H2.3024999999999998l0.381796875,-2.25h2.254453125l-0.228984375,2.25zm0.7692187500000001,3.75l0.2671875,-2.625h3.5074218750000004l0.2671875,2.625H5.4789843750000005zm4.58203125,-6h2.254453125l0.381796875,2.25H10.290000000000001l-0.228984375,-2.25zm0.6107812499999999,6l-0.2671875,-2.625H12.888281249999999l0.445546875,2.625H10.671796875z" fill="#FFFFFF"/>
    </svg>