<svg version="1.1" xmlns="http://www.w3.org/2000/svg" xlink="http://www.w3.org/1999/xlink" x="0px" y="0px" width="13.125px" height="15px" viewBox="0 0 13.125 15" style="enable-background:new 0 0 15 15;" space="preserve"><path d="M12.8101171875,7.027646484375L11.25,4.6875V0.9375A0.9375,0.9375,0,0,0,10.3125,0H9.375a0.703740234375,0.703740234375,0,0,0,-0.38999999999999996,0.11809570312499999l-0.732421875,0.4884375a3.0408398437499997,3.0408398437499997,0,0,1,-3.38015625,0l-0.732421875,-0.4884375A0.703740234375,0.703740234375,0,0,0,3.75,0H2.8125A0.9375,0.9375,0,0,0,1.875,0.9375V4.6875L0.3148828125,7.027646484375A1.875,1.875,0,0,0,0,8.067685546875V14.0625a0.9375,0.9375,0,0,0,0.9375,0.9375H5.625V8.4375a0.9371191406249999,0.9371191406249999,0,0,1,0.048134765625,-0.296455078125L6.068408203124999,6.955078125L4.400039062499999,1.9501171874999998A4.43900390625,4.43900390625,0,0,0,6.5625,2.52638671875a4.43994140625,4.43994140625,0,0,0,2.1624609375,-0.576328125L6.5625,8.4375V15H12.1875a0.9375,0.9375,0,0,0,0.9375,-0.9375V8.067685546875A1.875,1.875,0,0,0,12.8101171875,7.027646484375ZM3.8470312500000006,10.87828125l-1.40625,1.40625a0.46875,0.46875,0,0,1,-0.6628124999999999,-0.6628124999999999l1.40625,-1.40625a0.46875,0.46875,0,0,1,0.6628124999999999,0.6628124999999999Zm7.5,1.40625a0.46851562500000005,0.46851562500000005,0,0,1,-0.6628124999999999,0l-1.40625,-1.40625a0.46875,0.46875,0,0,1,0.6628124999999999,-0.6628124999999999l1.40625,1.40625A0.468544921875,0.468544921875,0,0,1,11.34703125,12.28453125Z" fill="#FFFFFF"/></svg>