<svg version="1.1" xmlns="http://www.w3.org/2000/svg" xlink="http://www.w3.org/1999/xlink" x="0px" y="0px" width="15px" height="13.333333333333332px" viewBox="0 0 15 13.333333333333332" style="enable-background:new 0 0 15 15;" space="preserve">
    <path d="M8.518229166666666,2.5c-2.34296875,0,-4.3890625,1.4263020833333333,-5.527864583333334,2.6466145833333328L0.7161458333333333,3.4265625c-0.3158854166666667,-0.23906249999999996,-0.7874999999999999,0.015625,-0.7067708333333333,0.38177083333333334L0.6390624999999999,6.666666666666666L0.009114583333333332,9.525260416666665c-0.08072916666666666,0.36614583333333334,0.39088541666666665,0.6205729166666666,0.7067708333333333,0.38177083333333334l2.2742187499999997,-1.7200520833333333C4.12890625,9.407031250000001,6.175260416666666,10.833333333333332,8.518229166666666,10.833333333333332C12.097916666666665,10.833333333333332,15,7.5,15,6.666666666666666S12.097916666666665,2.5,8.518229166666666,2.5zm2.2768229166666667,4.791666666666666c-0.3450520833333333,0,-0.625,-0.27994791666666663,-0.625,-0.625c0,-0.34531249999999997,0.27994791666666663,-0.625,0.625,-0.625c0.34531249999999997,0,0.625,0.2796875,0.625,0.625c0,0.3450520833333333,-0.27994791666666663,0.625,-0.625,0.625z" fill="#FFFFFF"/>
    </svg>