<svg version="1.1" xmlns="http://www.w3.org/2000/svg" xlink="http://www.w3.org/1999/xlink" x="0px" y="0px" width="15px" height="12px" viewBox="0 0 15 12" style="enable-background:new 0 0 15 15;" space="preserve">
    <path d="M9.375,2.25a1.125,1.125,0,1,0,-1.125,-1.125a1.125,1.125,0,0,0,1.125,1.125zm-0.09375,2.8359375a0.74765625,0.74765625,0,0,0,0.46875,0.1640625h1.5a0.75,0.75,0,0,0,0,-1.5h-1.2370312500000002L8.34375,2.4140625a0.7485937500000001,0.7485937500000001,0,0,0,-0.9564843750000002,0.015937500000000004l-2.625,2.25a0.75,0.75,0,0,0,0.0721875,1.1934375000000002L6.75,7.151250000000001V9.75a0.75,0.75,0,0,0,1.5,0V6.75a0.75,0.75,0,0,0,-0.333984375,-0.6239062500000001l-0.969375,-0.6461718750000001l1.365234375,-1.1700000000000002zm2.71875,0.9140625a3,3,0,1,0,3,3a3,3,0,0,0,-3,-3zm0,4.5a1.5,1.5,0,1,1,1.5,-1.5a1.5,1.5,0,0,1,-1.5,1.5zM3,6a3,3,0,1,0,3,3a3,3,0,0,0,-3,-3zm0,4.5a1.5,1.5,0,1,1,1.5,-1.5a1.5,1.5,0,0,1,-1.5,1.5z" fill="#FFFFFF"/>
    </svg>