<svg version="1.1" xmlns="http://www.w3.org/2000/svg" xlink="http://www.w3.org/1999/xlink" x="0px" y="0px" width="7.5px" height="15px" viewBox="0 0 7.5 15" style="enable-background:new 0 0 15 15;" space="preserve">
    <path d="M3.75,0c1.0355273437499999,0,1.875,0.83947265625,1.875,1.875s-0.83947265625,1.875,-1.875,1.875c-1.0355273437499999,0,-1.875,-0.83947265625,-1.875,-1.875S2.71447265625,0,3.75,0m3.4946191406250002,10.376337890624999l-1.40625,-5.625A0.703125,0.703125,0,0,0,5.15625,4.21875h-0.33281249999999996c-0.6653613281249999,0.30594726562499996,-1.45283203125,0.31916015625,-2.146875,0H2.34375a0.703125,0.703125,0,0,0,-0.682119140625,0.532587890625l-1.40625,5.625C0.14458007812499998,10.819482421875,0.47997070312499995,11.25,0.9375,11.25h1.640625v3.046875c0,0.38833007812500003,0.31479492187499997,0.703125,0.703125,0.703125h0.9375c0.38833007812500003,0,0.703125,-0.31479492187499997,0.703125,-0.703125V11.25h1.640625c0.45676757812499996,0,0.793095703125,-0.429814453125,0.682119140625,-0.873662109375z" fill="#FFFFFF"/>
    </svg>