<svg version="1.1" xmlns="http://www.w3.org/2000/svg" xlink="http://www.w3.org/1999/xlink" x="0px" y="0px" width="15px" height="12px" viewBox="0 0 15 12" style="enable-background:new 0 0 15 15;" space="preserve">
    <path d="M14.793750000000001,2.26171875L10.23046875,0C9.759374999999999,0.6515625,8.716406249999999,1.1062500000000002,7.5,1.1062500000000002S5.240625,0.6515625,4.76953125,0L0.20625000000000002,2.26171875c-0.18515625000000002,0.09375,-0.26015625,0.31875,-0.16875,0.50390625l1.3406250000000002,2.68359375c0.09375,0.18515625000000002,0.31875,0.26015625,0.50390625,0.16875l1.3265625,-0.64921875c0.24843749999999998,-0.12187500000000001,0.5390625,0.05859375,0.5390625,0.3375V11.25c0,0.41484374999999996,0.33515625000000004,0.75,0.75,0.75h6c0.41484374999999996,0,0.75,-0.33515625000000004,0.75,-0.75V5.303906250000001c0,-0.27656250000000004,0.290625,-0.45937500000000003,0.5390625,-0.3375l1.3265625,0.64921875c0.18515625000000002,0.09375,0.41015625,0.018750000000000003,0.50390625,-0.16875L14.960156249999999,2.765625c0.09375,-0.18515625000000002,0.018750000000000003,-0.41250000000000003,-0.16640624999999998,-0.50390625z" fill="#FFFFFF"/>
    </svg>