<svg version="1.1" xmlns="http://www.w3.org/2000/svg" xlink="http://www.w3.org/1999/xlink" x="0px" y="0px" width="15px" height="15px" viewBox="0 0 15 15" style="enable-background:new 0 0 15 15;" space="preserve">
    <path d="M1.40625,0.9375C0.6298828125,0.9375,0,1.5673828125,0,2.34375v10.3125c0,0.7763671875,0.6298828125,1.40625,1.40625,1.40625h12.1875c0.7763671875,0,1.40625,-0.6298828125,1.40625,-1.40625V2.34375c0,-0.7763671875,-0.6298828125,-1.40625,-1.40625,-1.40625H1.40625zm0,0.9375h3.10546875c0.0966796875,0,0.17578125,0.0791015625,0.17578125,0.17578125v0.5859375c0,0.0966796875,-0.0791015625,0.17578125,-0.17578125,0.17578125H1.11328125c-0.0966796875,0,-0.17578125,-0.0791015625,-0.17578125,-0.17578125V2.34375c0,-0.2578125,0.2109375,-0.46875,0.46875,-0.46875zm12.48046875,2.8125H1.11328125c-0.0966796875,0,-0.17578125,-0.0791015625,-0.17578125,-0.17578125v-1.0546875c0,-0.0966796875,0.0791015625,-0.17578125,0.17578125,-0.17578125h4.04296875l0.884765625,-1.3271484375c0.0322265625,-0.0498046875,0.087890625,-0.0791015625,0.146484375,-0.0791015625H13.59375c0.2578125,0,0.46875,0.2109375,0.46875,0.46875v2.16796875c0,0.0966796875,-0.0791015625,0.17578125,-0.17578125,0.17578125zM7.5,12.421875c-1.939453125,0,-3.515625,-1.576171875,-3.515625,-3.515625s1.576171875,-3.515625,3.515625,-3.515625s3.515625,1.576171875,3.515625,3.515625s-1.576171875,3.515625,-3.515625,3.515625zm0,-6.09375c-1.4208984375,0,-2.578125,1.1572265625,-2.578125,2.578125s1.1572265625,2.578125,2.578125,2.578125s2.578125,-1.1572265625,2.578125,-2.578125s-1.1572265625,-2.578125,-2.578125,-2.578125zm-1.40625,3.046875c-0.2578125,0,-0.46875,-0.2109375,-0.46875,-0.46875c0,-1.0341796875,0.8408203125,-1.875,1.875,-1.875c0.2578125,0,0.46875,0.2109375,0.46875,0.46875s-0.2109375,0.46875,-0.46875,0.46875c-0.515625,0,-0.9375,0.421875,-0.9375,0.9375c0,0.2578125,-0.2109375,0.46875,-0.46875,0.46875z" fill="#FFFFFF"/>
    </svg>