<svg version="1.1" xmlns="http://www.w3.org/2000/svg" xlink="http://www.w3.org/1999/xlink" x="0px" y="0px" width="15px" height="13.333333333333332px" viewBox="0 0 15 13.333333333333332" style="enable-background:new 0 0 15 15;" space="preserve">
    <path d="M14.909374999999997,6.286458333333333C13.497135416666666,3.5309895833333336,10.701302083333333,1.6666666666666665,7.5,1.6666666666666665S1.5020833333333334,3.532291666666666,0.090625,6.2867187499999995a0.8424479166666666,0.8424479166666666,0,0,0,0,0.76015625C1.5028645833333332,9.80234375,4.298697916666666,11.666666666666666,7.5,11.666666666666666s5.997916666666666,-1.8656249999999996,7.409374999999998,-4.620052083333333a0.8424479166666666,0.8424479166666666,0,0,0,0,-0.76015625zM7.5,10.416666666666666a3.75,3.75,0,1,1,3.75,-3.75a3.7481770833333337,3.7481770833333337,0,0,1,-3.75,3.75zm0,-6.25a2.48203125,2.48203125,0,0,0,-0.6591145833333333,0.09869791666666666a1.24609375,1.24609375,0,0,1,-1.7421875,1.7421875A2.494270833333333,2.494270833333333,0,1,0,7.5,4.166666666666666z" fill="#FFFFFF"/>
    </svg>