<svg version="1.1" xmlns="http://www.w3.org/2000/svg" xlink="http://www.w3.org/1999/xlink" x="0px" y="0px" width="15px" height="12.467532467532468px" viewBox="0 0 15 12.467532467532468" style="enable-background:new 0 0 15 15;" space="preserve"><path d="M14.65909090909091,2.887987012987013L13.078733766233768,0.3652597402597403C12.9375,0.1387987012987013,12.686688311688313,0,12.418831168831169,0H2.5811688311688314C2.313311688311688,0,2.0625,0.1387987012987013,1.921266233766234,0.3652597402597403L0.34090909090909094,2.887987012987013c-0.8157467532467533,1.3027597402597404,-0.09253246753246754,3.1144480519480524,1.4318181818181819,3.3214285714285716c0.10957792207792208,0.01461038961038961,0.2215909090909091,0.021915584415584416,0.3336038961038961,0.021915584415584416c0.7207792207792209,0,1.3587662337662338,-0.3165584415584416,1.797077922077922,-0.8060064935064936c0.4383116883116883,0.489448051948052,1.0787337662337662,0.8060064935064936,1.797077922077922,0.8060064935064936c0.7207792207792209,0,1.3587662337662338,-0.3165584415584416,1.797077922077922,-0.8060064935064936c0.4383116883116883,0.489448051948052,1.0787337662337662,0.8060064935064936,1.797077922077922,0.8060064935064936c0.7207792207792209,0,1.3587662337662338,-0.3165584415584416,1.797077922077922,-0.8060064935064936c0.4407467532467533,0.489448051948052,1.0787337662337662,0.8060064935064936,1.797077922077922,0.8060064935064936c0.11444805194805195,0,0.22402597402597402,-0.007305194805194805,0.3336038961038961,-0.021915584415584416c1.5292207792207793,-0.20454545454545456,2.2548701298701297,-2.0162337662337664,1.4366883116883118,-3.3214285714285716zM12.893668831168831,7.012987012987013c-0.2435064935064935,0,-0.48457792207792205,-0.03652597402597403,-0.7183441558441559,-0.09253246753246754V9.350649350649352H2.824675324675325v-2.4301948051948052c-0.23376623376623376,0.053571428571428575,-0.47483766233766234,0.09253246753246754,-0.7183441558441559,0.09253246753246754c-0.14610389610389612,0,-0.29464285714285715,-0.009740259740259742,-0.4383116883116883,-0.02922077922077922c-0.13636363636363635,-0.019480519480519484,-0.2702922077922078,-0.05113636363636364,-0.39935064935064934,-0.08766233766233766V11.688311688311689c0,0.4310064935064935,0.34821428571428575,0.7792207792207793,0.7792207792207793,0.7792207792207793h10.90909090909091c0.4310064935064935,0,0.7792207792207793,-0.34821428571428575,0.7792207792207793,-0.7792207792207793V6.896103896103896c-0.1314935064935065,0.03896103896103897,-0.262987012987013,0.07061688311688312,-0.39935064935064934,0.08766233766233766c-0.14853896103896103,0.019480519480519484,-0.29464285714285715,0.02922077922077922,-0.4431818181818182,0.02922077922077922z" fill="#FFFFFF"/></svg>