<svg version="1.1" xmlns="http://www.w3.org/2000/svg" xlink="http://www.w3.org/1999/xlink" x="0px" y="0px" width="16.875px" height="15px" viewBox="0 0 16.875 15" style="enable-background:new 0 0 15 15;" space="preserve">
    <path d="M16.171875,1.875H2.578125c-0.38833007812500003,0,-0.703125,0.31479492187499997,-0.703125,0.703125v0.234375H0.703125c-0.38833007812500003,0,-0.703125,0.31479492187499997,-0.703125,0.703125v7.96875c0,0.90609375,0.73453125,1.640625,1.640625,1.640625h13.828125c0.7766601562500001,0,1.40625,-0.6295898437499999,1.40625,-1.40625V2.578125c0,-0.38833007812500003,-0.31479492187499997,-0.703125,-0.703125,-0.703125zM1.640625,11.71875a0.234375,0.234375,0,0,1,-0.234375,-0.234375V4.21875h0.46875v7.265625a0.234375,0.234375,0,0,1,-0.234375,0.234375zm6.9140625,-0.46875H4.1015625c-0.194150390625,0,-0.3515625,-0.157412109375,-0.3515625,-0.3515625v-0.234375c0,-0.194150390625,0.157412109375,-0.3515625,0.3515625,-0.3515625h4.453125c0.194150390625,0,0.3515625,0.157412109375,0.3515625,0.3515625v0.234375c0,0.194150390625,-0.157412109375,0.3515625,-0.3515625,0.3515625zm6.09375,0H10.1953125c-0.194150390625,0,-0.3515625,-0.157412109375,-0.3515625,-0.3515625v-0.234375c0,-0.194150390625,0.157412109375,-0.3515625,0.3515625,-0.3515625h4.453125c0.194150390625,0,0.3515625,0.157412109375,0.3515625,0.3515625v0.234375c0,0.194150390625,-0.157412109375,0.3515625,-0.3515625,0.3515625zm-6.09375,-2.8125H4.1015625c-0.194150390625,0,-0.3515625,-0.157412109375,-0.3515625,-0.3515625v-0.234375c0,-0.194150390625,0.157412109375,-0.3515625,0.3515625,-0.3515625h4.453125c0.194150390625,0,0.3515625,0.157412109375,0.3515625,0.3515625v0.234375c0,0.194150390625,-0.157412109375,0.3515625,-0.3515625,0.3515625zm6.09375,0H10.1953125c-0.194150390625,0,-0.3515625,-0.157412109375,-0.3515625,-0.3515625v-0.234375c0,-0.194150390625,0.157412109375,-0.3515625,0.3515625,-0.3515625h4.453125c0.194150390625,0,0.3515625,0.157412109375,0.3515625,0.3515625v0.234375c0,0.194150390625,-0.157412109375,0.3515625,-0.3515625,0.3515625zm0,-2.8125H4.1015625c-0.194150390625,0,-0.3515625,-0.157412109375,-0.3515625,-0.3515625v-1.171875c0,-0.194150390625,0.157412109375,-0.3515625,0.3515625,-0.3515625h10.546875c0.194150390625,0,0.3515625,0.157412109375,0.3515625,0.3515625v1.171875c0,0.194150390625,-0.157412109375,0.3515625,-0.3515625,0.3515625z" fill="#FFFFFF"/>
    </svg>