<svg version="1.1" xmlns="http://www.w3.org/2000/svg" xlink="http://www.w3.org/1999/xlink" x="0px" y="0px" width="15px" height="30px" viewBox="0 0 15 30" style="enable-background:new 0 0 15 15;" space="preserve">
    <path d="M7.5,0c2.0710546874999998,0,3.75,1.6789453125,3.75,3.75s-1.6789453125,3.75,-3.75,3.75c-2.0710546874999998,0,-3.75,-1.6789453125,-3.75,-3.75S5.4289453125,0,7.5,0m6.9892382812500005,20.752675781249998l-2.8125,-11.25A1.40625,1.40625,0,0,0,10.3125,8.4375h-0.6656249999999999c-1.3307226562499999,0.6118945312499999,-2.9056640625,0.6383203125,-4.29375,0H4.6875a1.40625,1.40625,0,0,0,-1.36423828125,1.06517578125l-2.8125,11.25C0.28916015624999997,21.63896484375,0.9599414062499999,22.5,1.875,22.5h3.28125v6.09375c0,0.7766601562500001,0.6295898437499999,1.40625,1.40625,1.40625h1.875c0.7766601562500001,0,1.40625,-0.6295898437499999,1.40625,-1.40625V22.5h3.28125c0.9135351562499999,0,1.58619140625,-0.85962890625,1.36423828125,-1.74732421875z" fill="#FFFFFF"/>
    </svg>