<svg version="1.1" xmlns="http://www.w3.org/2000/svg" xlink="http://www.w3.org/1999/xlink" x="0px" y="0px" width="18.75px" height="15px" viewBox="0 0 18.75 15" style="enable-background:new 0 0 15 15;" space="preserve">
    <path d="M11.71875,2.8125a1.40625,1.40625,0,1,0,-1.40625,-1.40625a1.40625,1.40625,0,0,0,1.40625,1.40625zm-0.1171875,3.544921875a0.9345703125,0.9345703125,0,0,0,0.5859375,0.205078125h1.875a0.9375,0.9375,0,0,0,0,-1.875h-1.5462890625L10.4296875,3.017578125a0.9357421875,0.9357421875,0,0,0,-1.1956054687500002,0.019921875000000002l-3.28125,2.8125a0.9375,0.9375,0,0,0,0.090234375,1.4917968750000001L8.4375,8.9390625V12.1875a0.9375,0.9375,0,0,0,1.875,0V8.4375a0.9375,0.9375,0,0,0,-0.41748046875,-0.7798828125l-1.21171875,-0.80771484375l1.70654296875,-1.4625000000000001zm3.3984375,1.142578125a3.75,3.75,0,1,0,3.75,3.75a3.75,3.75,0,0,0,-3.75,-3.75zm0,5.625a1.875,1.875,0,1,1,1.875,-1.875a1.875,1.875,0,0,1,-1.875,1.875zM3.75,7.5a3.75,3.75,0,1,0,3.75,3.75a3.75,3.75,0,0,0,-3.75,-3.75zm0,5.625a1.875,1.875,0,1,1,1.875,-1.875a1.875,1.875,0,0,1,-1.875,1.875z" fill="#FFFFFF"/>
    </svg>