<svg version="1.1" xmlns="http://www.w3.org/2000/svg" xlink="http://www.w3.org/1999/xlink" x="0px" y="0px" width="18.75px" height="15px" viewBox="0 0 18.75 15" style="enable-background:new 0 0 15 15;" space="preserve">
    <path d="M18.28125,12.1875h-0.46875c-0.7628906249999999,0,-1.341796875,-0.2466796875,-1.64326171875,-0.5244140625c-0.2607421875,-0.24052734375,-0.5759765625,-0.4130859375,-0.93076171875,-0.4130859375h-0.4775390625c-0.35478515624999996,0,-0.67001953125,0.17255859375,-0.93076171875,0.4130859375C13.529296875,11.9408203125,12.950390625,12.1875,12.1875,12.1875s-1.341796875,-0.2466796875,-1.64326171875,-0.5244140625c-0.2607421875,-0.24052734375,-0.5759765625,-0.4130859375,-0.93076171875,-0.4130859375h-0.4775390625c-0.35478515624999996,0,-0.67001953125,0.17255859375,-0.93076171875,0.4130859375C7.904296875,11.9408203125,7.325390625,12.1875,6.5625,12.1875s-1.341796875,-0.2466796875,-1.64326171875,-0.5244140625c-0.2607421875,-0.24052734375,-0.5759765625,-0.4130859375,-0.93076171875,-0.4130859375h-0.4775390625c-0.35478515624999996,0,-0.67001953125,0.17255859375,-0.93076171875,0.4130859375C2.279296875,11.9408203125,1.700390625,12.1875,0.9375,12.1875H0.46875c-0.258984375,0,-0.46875,0.209765625,-0.46875,0.46875v0.9375c0,0.258984375,0.209765625,0.46875,0.46875,0.46875h0.46875c1.1314453125,0,2.13046875,-0.35712890625,2.8125,-0.9328125c0.6820312500000001,0.5759765625,1.6810546875,0.9328125,2.8125,0.9328125s2.13046875,-0.35712890625,2.8125,-0.9328125c0.6820312500000001,0.5759765625,1.6810546875,0.9328125,2.8125,0.9328125s2.13046875,-0.35712890625,2.8125,-0.9328125c0.6820312500000001,0.5759765625,1.6810546875,0.9328125,2.8125,0.9328125h0.46875c0.258984375,0,0.46875,-0.209765625,0.46875,-0.46875v-0.9375c0,-0.258984375,-0.209765625,-0.46875,-0.46875,-0.46875zm-11.71875,-0.9375v-2.8125h5.625v2.8125c0.56015625,0,0.9041015625,-0.18046875,1.00751953125,-0.2759765625c0.26865234375,-0.2478515625,0.5625,-0.4201171875,0.86748046875,-0.52939453125V3.75c0,-0.516796875,0.42070312499999996,-0.9375,0.9375,-0.9375s0.9375,0.42070312499999996,0.9375,0.9375v0.46875c0,0.258984375,0.209765625,0.46875,0.46875,0.46875h0.9375c0.258984375,0,0.46875,-0.209765625,0.46875,-0.46875v-0.46875c0,-1.5509765624999998,-1.2615234375000002,-2.8125,-2.8125,-2.8125s-2.8125,1.2615234375000002,-2.8125,2.8125v2.8125H6.5625v-2.8125c0,-0.516796875,0.42070312499999996,-0.9375,0.9375,-0.9375s0.9375,0.42070312499999996,0.9375,0.9375v0.46875c0,0.258984375,0.209765625,0.46875,0.46875,0.46875h0.9375c0.258984375,0,0.46875,-0.209765625,0.46875,-0.46875v-0.46875c0,-1.5509765624999998,-1.2615234375000002,-2.8125,-2.8125,-2.8125s-2.8125,1.2615234375000002,-2.8125,2.8125v6.6943359375c0.30498046875,0.10927734375,0.598828125,0.28183593749999997,0.86748046875,0.52939453125c0.10341796874999999,0.09580078125,0.44736328124999997,0.27626953125,1.00751953125,0.27626953125z" fill="#FFFFFF"/>
    </svg>