<svg version="1.1" xmlns="http://www.w3.org/2000/svg" xlink="http://www.w3.org/1999/xlink" x="0px" y="0px" width="15px" height="13.333333333333332px" viewBox="0 0 15 13.333333333333332" style="enable-background:new 0 0 15 15;" space="preserve">
    <path d="M10.484375,2.1666666666666665l2.348958333333333,2.348958333333333c0.09895833333333333,0.09895833333333333,0.09895833333333333,0.26041666666666663,0,0.359375L7.145833333333333,10.5625l-2.4166666666666665,0.26822916666666663c-0.32291666666666663,0.03645833333333333,-0.5963541666666666,-0.23697916666666666,-0.5598958333333333,-0.5598958333333333l0.26822916666666663,-2.4166666666666665L10.125,2.1666666666666665c0.09895833333333333,-0.09895833333333333,0.26041666666666663,-0.09895833333333333,0.359375,0zm4.21875,-0.5963541666666666l-1.2708333333333333,-1.2708333333333333c-0.3958333333333333,-0.3958333333333333,-1.0390625,-0.3958333333333333,-1.4375,0l-0.921875,0.921875c-0.09895833333333333,0.09895833333333333,-0.09895833333333333,0.26041666666666663,0,0.359375l2.348958333333333,2.348958333333333c0.09895833333333333,0.09895833333333333,0.26041666666666663,0.09895833333333333,0.359375,0l0.921875,-0.921875c0.3958333333333333,-0.3984375,0.3958333333333333,-1.0416666666666665,0,-1.4375zM10,9.015625V11.666666666666666H1.6666666666666665V3.333333333333333h5.984375c0.08333333333333333,0,0.16145833333333331,-0.033854166666666664,0.22135416666666666,-0.09114583333333333l1.0416666666666665,-1.0416666666666665c0.19791666666666666,-0.19791666666666666,0.057291666666666664,-0.5338541666666666,-0.22135416666666666,-0.5338541666666666H1.25C0.5598958333333333,1.6666666666666665,0,2.2265625,0,2.9166666666666665v9.166666666666666c0,0.6901041666666666,0.5598958333333333,1.25,1.25,1.25h9.166666666666666c0.6901041666666666,0,1.25,-0.5598958333333333,1.25,-1.25V7.973958333333333c0,-0.2786458333333333,-0.3359375,-0.41666666666666663,-0.5338541666666666,-0.22135416666666666l-1.0416666666666665,1.0416666666666665c-0.057291666666666664,0.05989583333333333,-0.09114583333333333,0.13802083333333331,-0.09114583333333333,0.22135416666666666z" fill="#FFFFFF"/>
    </svg>