<svg version="1.1" xmlns="http://www.w3.org/2000/svg" xlink="http://www.w3.org/1999/xlink" x="0px" y="0px" width="15px" height="13.333333333333332px" viewBox="0 0 15 13.333333333333332" style="enable-background:new 0 0 15 15;" space="preserve"><path d="M7.661458333333333,7.231770833333333c0.46875,0.13020833333333334,0.9036458333333335,0.34895833333333337,1.2890625,0.6432291666666666l4.205729166666667,-1.4010416666666667c0.21875000000000003,-0.07291666666666667,0.3359375,-0.30989583333333337,0.2630208333333333,-0.5260416666666666L11.846354166666666,1.2291666666666667c-0.07291666666666667,-0.21875000000000003,-0.30989583333333337,-0.3359375,-0.5260416666666666,-0.2630208333333333l-1.5911458333333335,0.53125l0.8619791666666667,2.588541666666667L9.010416666666668,4.609375l-0.8619791666666667,-2.588541666666667l-1.6041666666666667,0.5338541666666667c-0.21875000000000003,0.07291666666666667,-0.3359375,0.30989583333333337,-0.2630208333333333,0.5260416666666666l1.3802083333333335,4.151041666666667zm7.317708333333334,1.2682291666666667L14.713541666666668,7.708333333333334c-0.07291666666666667,-0.21875000000000003,-0.30989583333333337,-0.3359375,-0.5260416666666666,-0.2630208333333333l-5.559895833333334,1.8541666666666667c-0.4479166666666667,-0.5729166666666667,-1.1354166666666667,-0.9479166666666666,-1.9140625,-0.9635416666666667L4.125,0.5703125C4.010416666666667,0.22916666666666669,3.692708333333334,0,3.3333333333333335,0H0.4166666666666667C0.1875,0,0,0.1875,0,0.4166666666666667v0.8333333333333334c0,0.22916666666666669,0.1875,0.4166666666666667,0.4166666666666667,0.4166666666666667h2.315104166666667l2.401041666666667,7.205729166666667c-0.6796875000000001,0.53125,-1.0859375000000002,1.3958333333333335,-0.9375,2.3567708333333335c0.15885416666666666,1.0260416666666667,0.9869791666666666,1.8828125,2.0130208333333335,2.0625c1.5677083333333335,0.2786458333333333,2.9244791666666665,-0.90625,2.9531250000000004,-2.4114583333333335l5.554687500000001,-1.8541666666666667c0.21614583333333337,-0.07291666666666667,0.3359375,-0.3072916666666667,0.2630208333333333,-0.5260416666666666zM6.666666666666667,12.083333333333334c-0.6901041666666667,0,-1.25,-0.5598958333333334,-1.25,-1.25s0.5598958333333334,-1.25,1.25,-1.25s1.25,0.5598958333333334,1.25,1.25s-0.5598958333333334,1.25,-1.25,1.25z" fill="#FFFFFF"/></svg>