<svg version="1.1" xmlns="http://www.w3.org/2000/svg" xlink="http://www.w3.org/1999/xlink" x="0px" y="0px" width="16.875px" height="15px" viewBox="0 0 16.875 15" style="enable-background:new 0 0 15 15;" space="preserve">
    <path d="M13.08193359375,2.85439453125C12.88095703125,1.7645507812499999,11.92939453125,0.9375,10.78125,0.9375c-1.1493164062499999,0,-2.101171875,0.8288085937499999,-2.3009765625000003,1.9201171875000003C3.71337890625,3.3093749999999997,-0.0146484375,7.327734375,0,12.216210937500001C0.00322265625,13.2392578125,0.851953125,14.0625,1.875,14.0625h8.90625c0.258984375,0,0.46875,-0.209765625,0.46875,-0.46875c0,-0.51767578125,-0.41982421875,-0.9375,-0.9375,-0.9375h-2.32880859375l1.048828125,-1.4159179687499999c0.7072265625,-1.0614257812499999,0.30322265625,-2.586328125,-0.9875976562500001,-3.123046875c-0.69990234375,-0.29091796875,-1.51025390625,-0.13623046875,-2.11640625,0.31875000000000003l-0.959765625,0.72041015625c-0.20683593749999998,0.15556640624999998,-0.50068359375,0.11455078125000001,-0.65654296875,-0.09345703125c-0.1552734375,-0.207421875,-0.11367187499999999,-0.50126953125,0.09345703125,-0.65654296875l1.0189453125,-0.76435546875c1.079296875,-0.8103515625,2.586328125,-0.8091796875,3.6659179687499996,0c0.31845703124999997,0.23876953125,1.34384765625,1.1443359375000002,1.1953125,2.7307617187499997L13.7583984375,14.0625H16.40625c0.258984375,0,0.46875,-0.209765625,0.46875,-0.46875c0,-0.51767578125,-0.41982421875,-0.9375,-0.9375,-0.9375h-1.57119140625l-2.886328125,-3.066796875l4.524609375,-2.53857421875A1.70390625,1.70390625,0,0,0,16.875,5.5646484375c0,-0.626953125,-0.343359375,-1.19970703125,-0.89296875,-1.5008789062499999c-1.1882812500000002,-0.6509765624999999,-2.90009765625,-1.209375,-2.90009765625,-1.209375zM10.78125,3.984375c-0.3884765625,0,-0.703125,-0.31494140625,-0.703125,-0.703125c0,-0.3884765625,0.3146484375,-0.703125,0.703125,-0.703125c0.38818359375,0,0.703125,0.3146484375,0.703125,0.703125c0,0.38818359375,-0.31494140625,0.703125,-0.703125,0.703125z" fill="#FFFFFF"/>
    </svg>