<svg version="1.1" xmlns="http://www.w3.org/2000/svg" xlink="http://www.w3.org/1999/xlink" x="0px" y="0px" width="15px" height="12px" viewBox="0 0 15 12" style="enable-background:new 0 0 15 15;" space="preserve">
    <path d="M12.375,10.5H2.625c-0.20625000000000002,0,-0.375,0.16875,-0.375,0.375v0.75c0,0.20625000000000002,0.16875,0.375,0.375,0.375h9.75c0.20625000000000002,0,0.375,-0.16875,0.375,-0.375v-0.75c0,-0.20625000000000002,-0.16875,-0.375,-0.375,-0.375zm1.5,-7.5c-0.62109375,0,-1.125,0.50390625,-1.125,1.125c0,0.16640625,0.037500000000000006,0.32109375,0.10312500000000001,0.46406250000000004L11.15625,5.60625c-0.3609375,0.215625,-0.82734375,0.09375,-1.0359375,-0.27187500000000003L8.21015625,1.9921875C8.4609375,1.7859375000000002,8.625,1.4765625,8.625,1.125c0,-0.62109375,-0.50390625,-1.125,-1.125,-1.125s-1.125,0.50390625,-1.125,1.125c0,0.3515625,0.1640625,0.6609375000000001,0.41484375,0.8671875l-1.91015625,3.3421875c-0.20859375000000002,0.36562500000000003,-0.67734375,0.48750000000000004,-1.0359375,0.27187500000000003l-1.69453125,-1.0171875000000001c0.06328125,-0.140625,0.10312500000000001,-0.29765625,0.10312500000000001,-0.46406250000000004c0,-0.62109375,-0.50390625,-1.125,-1.125,-1.125S0,3.50390625,0,4.125s0.50390625,1.125,1.125,1.125c0.060937500000000006,0,0.12187500000000001,-0.009375000000000001,0.18046875,-0.018750000000000003L3,9.75h9l1.69453125,-4.51875c0.05859375,0.009375000000000001,0.11953125,0.018750000000000003,0.18046875,0.018750000000000003c0.62109375,0,1.125,-0.50390625,1.125,-1.125s-0.50390625,-1.125,-1.125,-1.125z" fill="#FFFFFF"/>
    </svg>