<svg version="1.1" xmlns="http://www.w3.org/2000/svg" xlink="http://www.w3.org/1999/xlink" x="0px" y="0px" width="15px" height="17.142857142857142px" viewBox="0 0 15 17.142857142857142" style="enable-background:new 0 0 15 15;" space="preserve">
    <path d="M7.5,8.571428571428571c2.3671875,0,4.285714285714286,-1.9185267857142856,4.285714285714286,-4.285714285714286S9.8671875,0,7.5,0S3.2142857142857144,1.9185267857142856,3.2142857142857144,4.285714285714286s1.9185267857142856,4.285714285714286,4.285714285714286,4.285714285714286zm3.2075892857142856,1.0915178571428572L9.107142857142858,16.07142857142857l-1.0714285714285714,-4.553571428571429l1.0714285714285714,-1.875h-3.2142857142857144l1.0714285714285714,1.875l-1.0714285714285714,4.553571428571429l-1.6004464285714284,-6.408482142857143C1.9051339285714284,9.776785714285714,0,11.728794642857142,0,14.142857142857142V15.535714285714285c0,0.8872767857142857,0.7198660714285714,1.6071428571428572,1.6071428571428572,1.6071428571428572h11.785714285714285c0.8872767857142857,0,1.6071428571428572,-0.7198660714285714,1.6071428571428572,-1.6071428571428572v-1.3928571428571428c0,-2.4140624999999996,-1.9051339285714284,-4.366071428571429,-4.2924107142857135,-4.479910714285714z" fill="#FFFFFF"/>
    </svg>