<svg version="1.1" xmlns="http://www.w3.org/2000/svg" xlink="http://www.w3.org/1999/xlink" x="0px" y="0px" width="15px" height="15px" viewBox="0 0 15 15" style="enable-background:new 0 0 15 15;" space="preserve">
    <path d="M2.8125,14.0625h9.375V3.75h-0.9375V2.34375c0,-0.7766601562500001,-0.6295898437499999,-1.40625,-1.40625,-1.40625H5.15625c-0.7766601562500001,0,-1.40625,0.6295898437499999,-1.40625,1.40625v1.40625H2.8125v10.3125zm2.8125,-11.25h3.75v0.9375H5.625V2.8125zm9.375,2.34375v7.5c0,0.7766601562500001,-0.6295898437499999,1.40625,-1.40625,1.40625h-0.46875V3.75h0.46875c0.7766601562500001,0,1.40625,0.6295898437499999,1.40625,1.40625zM1.875,14.0625H1.40625c-0.7766601562500001,0,-1.40625,-0.6295898437499999,-1.40625,-1.40625V5.15625c0,-0.7766601562500001,0.6295898437499999,-1.40625,1.40625,-1.40625h0.46875v10.3125zm8.4375,-6.09375v0.9375c0,0.258896484375,-0.20985351562500001,0.46875,-0.46875,0.46875h-1.40625v1.40625c0,0.258896484375,-0.20985351562500001,0.46875,-0.46875,0.46875h-0.9375c-0.258896484375,0,-0.46875,-0.20985351562500001,-0.46875,-0.46875v-1.40625h-1.40625c-0.258896484375,0,-0.46875,-0.20985351562500001,-0.46875,-0.46875v-0.9375c0,-0.258896484375,0.20985351562500001,-0.46875,0.46875,-0.46875h1.40625v-1.40625c0,-0.258896484375,0.20985351562500001,-0.46875,0.46875,-0.46875h0.9375c0.258896484375,0,0.46875,0.20985351562500001,0.46875,0.46875v1.40625h1.40625c0.258896484375,0,0.46875,0.20985351562500001,0.46875,0.46875z" fill="#FFFFFF"/>
    </svg>