<svg version="1.1" xmlns="http://www.w3.org/2000/svg" xlink="http://www.w3.org/1999/xlink" x="0px" y="0px" width="13.125px" height="15px" viewBox="0 0 13.125 15" style="enable-background:new 0 0 15 15;" space="preserve"><path d="M9.375,1.40625a1.40625,1.40625,0,1,0,-2.8125,0a1.40625,1.40625,0,1,0,2.8125,0zM3.6826171875,5.1416015625c0.2900390625,-0.2900390625,0.685546875,-0.4541015625,1.0986328125,-0.4541015625c0.0556640625,0,0.111328125,0.0029296875,0.1640625,0.0087890625L4.03125,7.44140625c-0.2724609375,0.8203125,0.0498046875,1.72265625,0.78515625,2.1826171875l2.525390625,1.5791015625l-0.744140625,2.6015625c-0.1435546875,0.498046875,0.146484375,1.0166015625,0.64453125,1.16015625s1.0166015625,-0.146484375,1.16015625,-0.64453125l0.8408203125,-2.94140625c0.1728515625,-0.603515625,-0.076171875,-1.248046875,-0.6064453125,-1.5791015625L6.97265625,8.759765625l0.9052734375,-2.4140625l0.1494140625,0.3603515625C8.466796875,7.7548828125,9.4892578125,8.4375,10.6259765625,8.4375H11.25c0.5185546875,0,0.9375,-0.4189453125,0.9375,-0.9375s-0.4189453125,-0.9375,-0.9375,-0.9375H10.6259765625c-0.3779296875,0,-0.720703125,-0.228515625,-0.8642578125,-0.5771484375l-0.1845703125,-0.439453125c-0.427734375,-1.0283203125,-1.2919921875,-1.8134765625,-2.3583984375,-2.1416015625l-1.4267578125,-0.439453125c-0.3251953125,-0.099609375,-0.6650390625,-0.15234375,-1.0078125,-0.15234375c-0.908203125,0,-1.78125,0.3603515625,-2.4228515625,1.0048828125L1.681640625,4.494140625c-0.3662109375,0.3662109375,-0.3662109375,0.9609374999999999,0,1.3271484375s0.9609374999999999,0.3662109375,1.3271484375,0l0.6767578125,-0.6767578125zM2.671875,10.3125H0.9375c-0.5185546875,0,-0.9375,0.4189453125,-0.9375,0.9375s0.4189453125,0.9375,0.9375,0.9375h2.0390625c0.556640625,0,1.060546875,-0.328125,1.2861328125,-0.8349609375L4.599609375,10.59375l-0.2783203125,-0.17578125c-0.5126953125,-0.3193359375,-0.8935546875,-0.78515625,-1.1103515625,-1.3154296875L2.671875,10.3125z" fill="#FFFFFF"/></svg>