<svg version="1.1" xmlns="http://www.w3.org/2000/svg" xlink="http://www.w3.org/1999/xlink" x="0px" y="0px" width="13.125px" height="15px" viewBox="0 0 13.125 15" style="enable-background:new 0 0 15 15;" space="preserve">
    <path d="M11.2470703125,9.0322265625l0.7001953124999999,-1.833984375c0.1171875,-0.3076171875,-0.1083984375,-0.6357421875,-0.43945312499999994,-0.6357421875h-1.7138671874999998c0.322265625,-0.5537109374999999,0.521484375,-1.189453125,0.521484375,-1.875v-0.0087890625c1.1484375,-0.22851562499999997,1.875,-0.5595703125,1.875,-0.9287109375c0,-0.3896484375,-0.7998046875,-0.7353515625,-2.0537109374999996,-0.9667968749999999c-0.26953124999999994,-0.9609374999999999,-0.791015625,-1.927734375,-1.189453125,-2.42578125c-0.2783203125,-0.3486328125,-0.7587890624999999,-0.45703124999999994,-1.1572265625,-0.2578125l-0.80859375,0.404296875c-0.263671875,0.1318359375,-0.57421875,0.1318359375,-0.837890625,0L5.334960937499999,0.099609375c-0.3984375,-0.19921875,-0.8789062499999999,-0.0908203125,-1.1572265625,0.2578125c-0.3955078125,0.498046875,-0.9199218749999999,1.46484375,-1.189453125,2.42578125c-1.2509765625,0.23144531250000003,-2.05078125,0.5771484374999999,-2.05078125,0.9667968749999999c0,0.369140625,0.7265625,0.7001953124999999,1.875,0.9287109375v0.0087890625c0,0.685546875,0.19921875,1.3212890625,0.521484375,1.875H1.6494140625c-0.3369140625,0,-0.5625,0.3427734375,-0.43066406249999994,0.6533203125l0.755859375,1.763671875C0.7998046875,9.662109375,0,10.9189453125,0,12.375v1.3124999999999998C0,14.411132812499998,0.5888671875000001,15,1.3124999999999998,15h10.499999999999998c0.7236328124999999,0,1.3124999999999998,-0.5888671875000001,1.3124999999999998,-1.3124999999999998v-1.3124999999999998c0,-1.41796875,-0.755859375,-2.6484375,-1.8779296874999996,-3.3427734374999996zM5.15625,14.062499999999998l-1.21875,-5.625l1.453125,0.9375l0.703125,1.171875l-0.9375,3.5156249999999996zm2.8125,0l-0.9375,-3.5156249999999996l0.703125,-1.171875l1.453125,-0.9375L7.96875,14.062499999999998zm1.2216796875,-8.7451171875c-0.11425781249999999,0.3486328125,-0.205078125,0.720703125,-0.48339843749999994,0.978515625c-0.2958984375,0.2724609375,-1.40625,0.6562499999999999,-1.875,-0.732421875c-0.08203124999999999,-0.24609375,-0.451171875,-0.24609375,-0.5361328125,0c-0.498046875,1.470703125,-1.640625,0.9492187499999998,-1.875,0.732421875c-0.2783203125,-0.2578125,-0.37207031249999994,-0.6298828125,-0.48339843749999994,-0.978515625c-0.0234375,-0.0732421875,-0.1845703125,-0.1669921875,-0.1845703125,-0.16992187499999997v-0.31640625c0.8291015625,0.10546875,1.787109375,0.16992187499999997,2.8125,0.16992187499999997s1.9833984375000002,-0.0615234375,2.8125,-0.16992187499999997v0.31640625c-0.0029296875,0.0029296875,-0.16406249999999997,0.09375,-0.1875,0.16992187499999997z" fill="#FFFFFF"/>
    </svg>