<svg version="1.1" xmlns="http://www.w3.org/2000/svg" xlink="http://www.w3.org/1999/xlink" x="0px" y="0px" width="15px" height="15px" viewBox="0 0 15 15" style="enable-background:new 0 0 15 15;" space="preserve">
    <path d="M14.537109375,8.6865234375C15.459960937500002,6.4072265625,15,3.697265625,13.154296875,1.8486328125C10.6962890625,-0.615234375,6.708984375,-0.615234375,4.2509765625,1.8486328125l-1.640625,1.6435546875l6.1962890625,6.1962890625c1.3505859375,-1.8193359375,3.8525390625,-2.267578125,5.73046875,-1.001953125zm-6.3837890625,2.3349609375L1.6962890625,4.5673828125c-0.7998046875,1.3271484375,-0.6357421875,3.076171875,0.5068359375,4.2216796875l1.0107421875,1.013671875L0.1962890625,12.421875c-0.251953125,0.2197265625,-0.2666015625,0.6064453125,-0.029296875,0.84375l1.564453125,1.5673828125c0.234375,0.2373046875,0.62109375,0.22265625,0.8408203125,-0.029296875L5.1884765625,11.77734375l1.0458984375,1.0458984375c0.5771484375,0.5771484375,1.306640625,0.8935546875,2.0595703125,0.9755859374999999c-0.2080078125,-0.498046875,-0.322265625,-1.04296875,-0.322265625,-1.6142578125c-0.0029296875,-0.404296875,0.0732421875,-0.791015625,0.181640625,-1.1630859375zM12.1875,9.375c-1.552734375,0,-2.8125,1.259765625,-2.8125,2.8125s1.259765625,2.8125,2.8125,2.8125s2.8125,-1.259765625,2.8125,-2.8125s-1.259765625,-2.8125,-2.8125,-2.8125z" fill="#FFFFFF"/>
    </svg>