<svg version="1.1" xmlns="http://www.w3.org/2000/svg" xlink="http://www.w3.org/1999/xlink" x="0px" y="0px" width="18.75px" height="15px" viewBox="0 0 18.75 15" style="enable-background:new 0 0 15 15;" space="preserve">
    <path d="M17.9501953125,10.2744140625l-0.2724609375,-0.216796875c-0.2021484375,-0.1611328125,-0.498046875,-0.12890625,-0.6591796875,0.0732421875l-0.29296875,0.3662109375c-0.1611328125,0.2021484375,-0.12890625,0.498046875,0.0732421875,0.6591796875l0.2724609375,0.216796875c0.1728515625,0.1376953125,0.26953125,0.3427734375,0.26953125,0.5625c0,0.3984375,-0.322265625,0.720703125,-0.720703125,0.720703125H1.40625c-0.2578125,0,-0.46875,0.2109375,-0.46875,0.46875v0.46875c0,0.2578125,0.2109375,0.46875,0.46875,0.46875h15.1171875c1.142578125,0,2.1591796875,-0.8583984375,2.2236328125,-2.0009765625c0.041015625,-0.697265625,-0.2548828125,-1.3564453125,-0.796875,-1.787109375zM0.9375,6.5625c0,1.74609375,1.1982421875,3.19921875,2.8125,3.6181640625V11.71875h1.875v-1.40625h5.625v1.40625h1.875v-1.40625c1.552734375,0,2.8125,-1.259765625,2.8125,-2.8125v-2.8125c0.5185546875,0,0.9375,-0.4189453125,0.9375,-0.9375s-0.4189453125,-0.9375,-0.9375,-0.9375h-2.8125v1.875c0,1.0341796875,-0.8408203125,1.875,-1.875,1.875h-0.6064453125c-1.927734375,0,-3.6884765625,-1.08984375,-4.5498046875,-2.8125c-0.861328125,-1.72265625,-2.625,-2.8125,-4.5498046875,-2.8125H0.9375C0.4189453125,0.9375,0,1.3564453125,0,1.875s0.4189453125,0.9375,0.9375,0.9375v3.75z" fill="#FFFFFF"/>
    </svg>