<svg version="1.1" xmlns="http://www.w3.org/2000/svg" xlink="http://www.w3.org/1999/xlink" x="0px" y="0px" width="15px" height="13.333333333333332px" viewBox="0 0 15 13.333333333333332" style="enable-background:new 0 0 15 15;" space="preserve">
    <path d="M11.628385416666665,2.537239583333333C11.449739583333333,1.5684895833333332,10.60390625,0.8333333333333333,9.583333333333332,0.8333333333333333c-1.0216145833333332,0,-1.867708333333333,0.7367187499999999,-2.0453125,1.7067708333333336C3.30078125,2.9416666666666664,-0.013020833333333332,6.513541666666667,0,10.858854166666667C0.002864583333333333,11.768229166666666,0.7572916666666666,12.5,1.6666666666666665,12.5h7.916666666666666c0.23020833333333332,0,0.41666666666666663,-0.18645833333333334,0.41666666666666663,-0.41666666666666663c0,-0.46015625,-0.37317708333333327,-0.8333333333333333,-0.8333333333333333,-0.8333333333333333h-2.070052083333333l0.9322916666666666,-1.2585937499999997c0.6286458333333333,-0.9434895833333332,0.26953125,-2.298958333333333,-0.8778645833333334,-2.7760416666666665c-0.6221354166666667,-0.25859374999999996,-1.3424479166666665,-0.12109375,-1.8812499999999996,0.2833333333333333l-0.8531249999999999,0.6403645833333333c-0.18385416666666665,0.13828124999999997,-0.44505208333333335,0.10182291666666667,-0.5835937499999999,-0.08307291666666666c-0.13802083333333331,-0.18437499999999998,-0.10104166666666665,-0.4455729166666666,0.08307291666666666,-0.5835937499999999l0.9057291666666667,-0.6794270833333333c0.959375,-0.7203124999999999,2.298958333333333,-0.7192708333333333,3.2585937499999993,0c0.2830729166666666,0.21223958333333331,1.1945312499999998,1.0171875000000001,1.0625,2.4273437499999995L12.229687499999999,12.5H14.583333333333332c0.23020833333333332,0,0.41666666666666663,-0.18645833333333334,0.41666666666666663,-0.41666666666666663c0,-0.46015625,-0.37317708333333327,-0.8333333333333333,-0.8333333333333333,-0.8333333333333333h-1.3966145833333334l-2.565625,-2.7260416666666667l4.021875,-2.2565104166666665A1.5145833333333332,1.5145833333333332,0,0,0,15,4.946354166666667c0,-0.5572916666666666,-0.30520833333333336,-1.06640625,-0.79375,-1.3341145833333332c-1.0562500000000001,-0.5786458333333332,-2.577864583333333,-1.075,-2.577864583333333,-1.075zM9.583333333333332,3.5416666666666665c-0.34531249999999997,0,-0.625,-0.27994791666666663,-0.625,-0.625c0,-0.34531249999999997,0.2796875,-0.625,0.625,-0.625c0.3450520833333333,0,0.625,0.2796875,0.625,0.625c0,0.3450520833333333,-0.27994791666666663,0.625,-0.625,0.625z" fill="#FFFFFF"/>
    </svg>