<svg version="1.1" xmlns="http://www.w3.org/2000/svg" xlink="http://www.w3.org/1999/xlink" x="0px" y="0px" width="15px" height="15.483870967741936px" viewBox="0 0 15 15.483870967741936" style="enable-background:new 0 0 15 15;" space="preserve">
    <path d="M7.5,0.24193548387096775C3.3568548387096775,0.24193548387096775,0,3.5987903225806455,0,7.741935483870968s3.3568548387096775,7.5,7.5,7.5s7.5,-3.3568548387096775,7.5,-7.5S11.643145161290322,0.24193548387096775,7.5,0.24193548387096775zM2.661290322580645,7.741935483870968H1.6935483870967742c0,-3.202620967741936,2.60383064516129,-5.806451612903226,5.806451612903226,-5.806451612903226v0.967741935483871c-2.6673387096774195,0,-4.838709677419355,2.1713709677419355,-4.838709677419355,4.838709677419355zm4.838709677419355,2.903225806451613c-1.6028225806451613,0,-2.903225806451613,-1.3004032258064517,-2.903225806451613,-2.903225806451613s1.3004032258064517,-2.903225806451613,2.903225806451613,-2.903225806451613s2.903225806451613,1.3004032258064517,2.903225806451613,2.903225806451613s-1.3004032258064517,2.903225806451613,-2.903225806451613,2.903225806451613zm0,-3.870967741935484c-0.5352822580645161,0,-0.967741935483871,0.43245967741935487,-0.967741935483871,0.967741935483871s0.43245967741935487,0.967741935483871,0.967741935483871,0.967741935483871s0.967741935483871,-0.43245967741935487,0.967741935483871,-0.967741935483871s-0.43245967741935487,-0.967741935483871,-0.967741935483871,-0.967741935483871z" fill="#FFFFFF"/>
    </svg>