<svg version="1.1" xmlns="http://www.w3.org/2000/svg" xlink="http://www.w3.org/1999/xlink" x="0px" y="0px" width="15px" height="12px" viewBox="0 0 15 12" style="enable-background:new 0 0 15 15;" space="preserve"><path d="M6.5367187499999995,11.98828125l-1.4296875,-0.41484374999999996c-0.15000000000000002,-0.0421875,-0.234375,-0.19921875,-0.19218749999999998,-0.34921875L8.1140625,0.20390624999999998c0.0421875,-0.15000000000000002,0.19921875,-0.234375,0.34921875,-0.19218749999999998l1.4296875,0.41484374999999996c0.15000000000000002,0.0421875,0.234375,0.19921875,0.19218749999999998,0.34921875L6.885937500000001,11.79609375c-0.044531249999999994,0.15000000000000002,-0.19921875,0.23671874999999998,-0.34921875,0.19218749999999998zm-2.671875,-2.6296875l1.01953125,-1.0875c0.10781249999999999,-0.11484375000000001,0.10078124999999999,-0.29765624999999996,-0.018750000000000003,-0.40312499999999996L2.7421875,6l2.1234374999999996,-1.8679687500000002c0.11953124999999999,-0.10546875,0.12890625,-0.28828125000000004,0.018750000000000003,-0.40312499999999996l-1.01953125,-1.0875c-0.10546875,-0.11249999999999999,-0.28359375,-0.11953124999999999,-0.3984375,-0.01171875L0.08906249999999999,5.793749999999999c-0.11953124999999999,0.11015625000000001,-0.11953124999999999,0.30000000000000004,0,0.41015625l3.3773437499999996,3.1664062499999996c0.11484375000000001,0.10781249999999999,0.29296875,0.10312500000000001,0.3984375,-0.01171875zm7.668749999999999,0.014062499999999999l3.3773437499999996,-3.1664062499999996c0.11953124999999999,-0.11015625000000001,0.11953124999999999,-0.30000000000000004,0,-0.41015625L11.533593750000001,2.6273437499999996c-0.11249999999999999,-0.10546875,-0.290625,-0.10078124999999999,-0.3984375,0.01171875L10.115625000000001,3.7265625c-0.10781249999999999,0.11484375000000001,-0.10078124999999999,0.29765624999999996,0.018750000000000003,0.40312499999999996L12.2578125,6l-2.1234374999999996,1.8679687500000002c-0.11953124999999999,0.10546875,-0.12890625,0.28828125000000004,-0.018750000000000003,0.40312499999999996l1.01953125,1.0875c0.10546875,0.11484375000000001,0.28359375,0.11953124999999999,0.3984375,0.014062499999999999z" fill="#FFFFFF"/></svg>