<svg version="1.1" xmlns="http://www.w3.org/2000/svg" xlink="http://www.w3.org/1999/xlink" x="0px" y="0px" width="15px" height="15px" viewBox="0 0 15 15" style="enable-background:new 0 0 15 15;" space="preserve">
    <path d="M14.86259765625,2.12607421875L12.87392578125,0.13740234375000002c-0.18310546875,-0.18310546875,-0.4798828125,-0.18310546875,-0.66298828125,0l-0.66298828125,0.66298828125c-0.18310546875,0.18310546875,-0.18310546875,0.4798828125,0,0.66298828125l-2.24619140625,2.24619140625c-1.3646484374999999,-0.5771484375,-3,-0.31435546875000003,-4.11240234375,0.79775390625L0.54931640625,9.147363281250001c-0.7321289062499999,0.7321289062499999,-0.7321289062499999,1.91953125,0,2.65166015625l2.65166015625,2.65166015625c0.7321289062499999,0.7321289062499999,1.91953125,0.7321289062499999,2.65166015625,0l4.64033203125,-4.64033203125c1.112109375,-1.112109375,1.37490234375,-2.7477539062500003,0.79775390625,-4.11240234375l2.24619140625,-2.24619140625c0.18310546875,0.18310546875,0.4798828125,0.18310546875,0.66298828125,0l0.66298828125,-0.66298828125c0.18281250000000002,-0.18281250000000002,0.18281250000000002,-0.47958984375,-0.00029296875,-0.6626953125zM5.2505859375,12.40107421875l-2.65166015625,-2.65166015625l3.5753906250000003,-3.5753906250000003l2.65166015625,2.65166015625l-3.5753906250000003,3.5753906250000003z" fill="#FFFFFF"/>
    </svg>