<svg version="1.1" xmlns="http://www.w3.org/2000/svg" xlink="http://www.w3.org/1999/xlink" x="0px" y="0px" width="15px" height="17.142857142857142px" viewBox="0 0 15 17.142857142857142" style="enable-background:new 0 0 15 15;" space="preserve">
    <path d="M12.853794642857142,10.322544642857142l0.8002232142857142,-2.095982142857143c0.13392857142857142,-0.3515625,-0.12388392857142858,-0.7265625,-0.5022321428571428,-0.7265625h-1.958705357142857c0.3683035714285714,-0.6328124999999999,0.5959821428571429,-1.359375,0.5959821428571429,-2.142857142857143v-0.010044642857142856c1.3125,-0.26116071428571425,2.142857142857143,-0.6395089285714286,2.142857142857143,-1.0613839285714286c0,-0.4453125,-0.9140625,-0.8404017857142857,-2.347098214285714,-1.1049107142857142c-0.30803571428571425,-1.0982142857142856,-0.9040178571428571,-2.203125,-1.359375,-2.7723214285714284c-0.31808035714285715,-0.3984375,-0.8671874999999999,-0.5223214285714285,-1.3225446428571428,-0.29464285714285715l-0.9241071428571429,0.46205357142857145c-0.3013392857142857,0.15066964285714285,-0.65625,0.15066964285714285,-0.9575892857142857,0L6.0970982142857135,0.11383928571428571c-0.45535714285714285,-0.22767857142857142,-1.0044642857142856,-0.10379464285714286,-1.3225446428571428,0.29464285714285715c-0.45200892857142855,0.5691964285714286,-1.0513392857142856,1.6741071428571428,-1.359375,2.7723214285714284c-1.4296875,0.2645089285714286,-2.34375,0.6595982142857142,-2.34375,1.1049107142857142c0,0.421875,0.8303571428571429,0.8002232142857142,2.142857142857143,1.0613839285714286v0.010044642857142856c0,0.7834821428571428,0.22767857142857142,1.5100446428571428,0.5959821428571429,2.142857142857143H1.8850446428571428c-0.38504464285714285,0,-0.6428571428571428,0.3917410714285714,-0.49218749999999994,0.7466517857142857l0.8638392857142857,2.015625C0.9140625,11.042410714285714,0,12.478794642857142,0,14.142857142857142v1.4999999999999998C0,16.46986607142857,0.6729910714285715,17.142857142857142,1.4999999999999998,17.142857142857142h11.999999999999998c0.8270089285714285,0,1.4999999999999998,-0.6729910714285715,1.4999999999999998,-1.4999999999999998v-1.4999999999999998c0,-1.6205357142857142,-0.8638392857142857,-3.0267857142857144,-2.1462053571428568,-3.8203124999999996zM5.892857142857142,16.07142857142857l-1.3928571428571428,-6.428571428571429l1.6607142857142858,1.0714285714285714l0.8035714285714286,1.3392857142857142l-1.0714285714285714,4.017857142857142zm3.2142857142857144,0l-1.0714285714285714,-4.017857142857142l0.8035714285714286,-1.3392857142857142l1.6607142857142858,-1.0714285714285714L9.107142857142858,16.07142857142857zm1.3962053571428572,-9.994419642857142c-0.13058035714285712,0.3984375,-0.234375,0.8236607142857143,-0.5524553571428571,1.1183035714285714c-0.33816964285714285,0.3113839285714286,-1.6071428571428572,0.7499999999999999,-2.142857142857143,-0.8370535714285714c-0.09374999999999999,-0.28125,-0.515625,-0.28125,-0.6127232142857143,0c-0.5691964285714286,1.6808035714285714,-1.875,1.0848214285714284,-2.142857142857143,0.8370535714285714c-0.31808035714285715,-0.29464285714285715,-0.42522321428571425,-0.7198660714285714,-0.5524553571428571,-1.1183035714285714c-0.026785714285714288,-0.08370535714285714,-0.2109375,-0.19084821428571427,-0.2109375,-0.19419642857142855v-0.36160714285714285c0.9475446428571429,0.12053571428571429,2.0424107142857144,0.19419642857142855,3.2142857142857144,0.19419642857142855s2.2667410714285716,-0.0703125,3.2142857142857144,-0.19419642857142855v0.36160714285714285c-0.003348214285714286,0.003348214285714286,-0.18749999999999997,0.10714285714285715,-0.2142857142857143,0.19419642857142855z" fill="#FFFFFF"/>
    </svg>