<svg version="1.1" xmlns="http://www.w3.org/2000/svg" xlink="http://www.w3.org/1999/xlink" x="0px" y="0px" width="15px" height="15px" viewBox="0 0 15 15" style="enable-background:new 0 0 15 15;" space="preserve"><path d="M8.736328125,4.587890625c-1.5439453125,-0.7529296875,-3.3544921875,-0.3076171875,-4.400390625,0.9609374999999999l1.6171875,1.6171875c0.1845703125,0.1845703125,0.1845703125,0.48046874999999994,0,0.662109375c-0.0908203125,0.0908203125,-0.2109375,0.1376953125,-0.3310546875,0.1376953125s-0.24023437499999997,-0.046875,-0.3310546875,-0.1376953125L3.8203125,6.357421875L0.0673828125,14.0537109375c-0.0849609375,0.17578125,-0.0908203125,0.3896484375,0,0.5771484375c0.158203125,0.3251953125,0.5537109375,0.4599609375,0.87890625,0.3017578125l3.9140625,-1.91015625l-1.44140625,-1.44140625c-0.1845703125,-0.181640625,-0.1845703125,-0.48046874999999994,0,-0.662109375c0.1845703125,-0.181640625,0.48046874999999994,-0.181640625,0.662109375,0l1.669921875,1.669921875l2.98828125,-1.458984375c0.703125,-0.3427734375,1.3037109375,-0.9169921875,1.6728515625,-1.6728515625c0.8818359375,-1.8076171875,0.1318359375,-3.9873046875,-1.67578125,-4.869140625zm2.6982421875,-1.0224609375C12.005859375,2.373046875,11.7099609375,0.9638671875,10.546875,0c-1.4736328125,1.2216796875,-1.5380859375,3.1494140625,-0.2314453125,4.4501953125l0.234375,0.234375c1.30078125,1.306640625,3.2314453125,1.2421875,4.4501953125,-0.2314453125c-0.9638671875,-1.1630859375,-2.373046875,-1.458984375,-3.5654296875,-0.8876953125z" fill="#FFFFFF"/></svg>