<svg version="1.1" xmlns="http://www.w3.org/2000/svg" xlink="http://www.w3.org/1999/xlink" x="0px" y="0px" width="15px" height="13.333333333333332px" viewBox="0 0 15 13.333333333333332" style="enable-background:new 0 0 15 15;" space="preserve">
    <path d="M8.75,2.5c0.6901041666666666,0,1.25,-0.5598958333333333,1.25,-1.25S9.440104166666666,0,8.75,0s-1.25,0.5598958333333333,-1.25,1.25s0.5598958333333333,1.25,1.25,1.25zm5.625,8.333333333333332c-0.34375,0,-0.625,0.2786458333333333,-0.625,0.625c0,0.34375,-0.28125,0.625,-0.625,0.625h-1.8098958333333333L11.979166666666666,7.4375c0.3046875,-0.12239583333333333,0.5234375,-0.421875,0.5234375,-0.7708333333333333c0,-0.4609375,-0.3723958333333333,-0.8333333333333333,-0.8333333333333333,-0.8333333333333333h-1.1458333333333333L9.84375,4.447916666666666c-0.3255208333333333,-0.6640625,-0.9244791666666666,-1.1510416666666665,-1.609375,-1.3255208333333333L6.380208333333333,2.5703125c-0.7369791666666666,-0.17708333333333331,-1.5052083333333333,-0.013020833333333332,-2.1041666666666665,0.4453125l-1.0338541666666665,0.7916666666666666c-0.3645833333333333,0.2786458333333333,-0.4348958333333333,0.8020833333333333,-0.15364583333333331,1.1692708333333333c0.018229166666666664,0.0234375,0.04427083333333333,0.033854166666666664,0.0625,0.0546875L1.7421875,12.083333333333332H0.625c-0.34375,0,-0.625,0.2786458333333333,-0.625,0.625s0.28125,0.625,0.625,0.625h12.5c1.0338541666666665,0,1.875,-0.8411458333333331,1.875,-1.875c0,-0.34375,-0.28125,-0.625,-0.625,-0.625zm-6.783854166666666,1.25h-2.5234375l1.1223958333333333,-2.3697916666666665l-0.5729166666666666,-0.33854166666666663c-0.31510416666666663,-0.1875,-0.5703125,-0.4401041666666666,-0.7682291666666666,-0.7239583333333333L3.2213541666666665,12.083333333333332H2.591145833333333l1.3619791666666665,-6.807291666666665c0.10677083333333331,-0.026041666666666664,0.2109375,-0.07552083333333333,0.3046875,-0.14583333333333331l1.0338541666666665,-0.7916666666666666c0.20052083333333331,-0.15364583333333331,0.453125,-0.20833333333333331,0.6588541666666666,-0.15885416666666666l0.3828125,0.11458333333333333l-0.9765625,2.2760416666666665c-0.328125,0.7682291666666666,-0.033854166666666664,1.6666666666666665,0.6848958333333333,2.091145833333333l2.2135416666666665,1.3072916666666665l-0.6640625,2.114583333333333zm2.880208333333333,0h-1.1354166666666665l0.6145833333333333,-1.9661458333333333c0.15364583333333331,-0.5416666666666666,-0.07552083333333333,-1.1223958333333333,-0.5625,-1.4166666666666665L7.794270833333333,7.760416666666666l0.8151041666666666,-2.0390625l0.5286458333333333,1.078125c0.20833333333333331,0.42447916666666663,0.6484375,0.7005208333333333,1.1223958333333333,0.7005208333333333h0.8671874999999999l-0.65625,4.583333333333333z" fill="#FFFFFF"/>
    </svg>