<svg version="1.1" xmlns="http://www.w3.org/2000/svg" xlink="http://www.w3.org/1999/xlink" x="0px" y="0px" width="15px" height="13.333333333333332px" viewBox="0 0 15 13.333333333333332" style="enable-background:new 0 0 15 15;" space="preserve"><path d="M14.223958333333336,0.2526041666666667c-0.14583333333333334,-0.32552083333333337,-0.5625000000000001,-0.3385416666666667,-0.7369791666666667,-0.03125C12.6796875,1.625,11.234375,2.5,9.583333333333334,2.5h-2.0833333333333335C4.739583333333334,2.5,2.5,4.739583333333334,2.5,7.5c0,0.18229166666666669,0.020833333333333336,0.3567708333333333,0.0390625,0.5338541666666667C4.200520833333334,6.843750000000001,6.598958333333334,5.833333333333334,10,5.833333333333334c0.22916666666666669,0,0.4166666666666667,0.1875,0.4166666666666667,0.4166666666666667s-0.1875,0.4166666666666667,-0.4166666666666667,0.4166666666666667C3.453125,6.666666666666667,0.6770833333333334,10.679687500000002,0.0625,12.1875c-0.171875,0.4244791666666667,0.03125,0.9088541666666666,0.4557291666666667,1.0833333333333335c0.4270833333333333,0.17708333333333334,0.9114583333333334,-0.028645833333333336,1.0885416666666667,-0.45052083333333337c0.0390625,-0.09375,0.5442708333333334,-1.2473958333333333,1.8723958333333335,-2.359375c0.84375,1.1432291666666667,2.447916666666667,2.234375,4.5546875,2.010416666666667C12.122395833333334,12.174479166666668,15,8.5078125,15,4.018229166666667c0,-1.3072916666666667,-0.28125000000000006,-2.6614583333333335,-0.7760416666666667,-3.765625z" fill="#FFFFFF"/></svg>