<svg version="1.1" xmlns="http://www.w3.org/2000/svg" xlink="http://www.w3.org/1999/xlink" x="0px" y="0px" width="15px" height="13.333333333333332px" viewBox="0 0 15 13.333333333333332" style="enable-background:new 0 0 15 15;" space="preserve"><path d="M7.5,2.99375L1.8091145833333333,8.01328125c-0.0421875,0.03802083333333334,-0.09609375,0.05572916666666667,-0.14244791666666667,0.08723958333333334V12.916666666666668c0,0.23020833333333335,0.18645833333333334,0.4166666666666667,0.4166666666666667,0.4166666666666667h3.8861979166666667L5,11.437239583333334l2.711197916666667,-1.6666666666666667l-1.5666666666666667,-3.1046875000000003L10,10.227864583333334l-2.711197916666667,1.6666666666666667L8.328385416666666,13.333333333333334H12.916666666666668c0.23020833333333335,0,0.4166666666666667,-0.18645833333333334,0.4166666666666667,-0.4166666666666667V8.101562500000002c-0.044270833333333336,-0.030208333333333334,-0.096875,-0.04739583333333334,-0.13697916666666668,-0.08333333333333334L7.5,2.99375zm7.3617187500000005,3.159375L13.333333333333334,4.803385416666667V1.25c0,-0.23020833333333335,-0.18645833333333334,-0.4166666666666667,-0.4166666666666667,-0.4166666666666667h-1.6666666666666667c-0.23020833333333335,0,-0.4166666666666667,0.18645833333333334,-0.4166666666666667,0.4166666666666667v1.34609375L8.196614583333334,0.26848958333333334C7.997916666666667,0.08984375000000001,7.748958333333333,0.00026041666666666666,7.5,0s-0.49739583333333337,0.08880208333333334,-0.6953125,0.2674479166666667L0.13828125,6.153125c-0.17109375000000002,0.15390625000000002,-0.18541666666666667,0.4171875,-0.031510416666666666,0.5885416666666667l0.5572916666666666,0.6203125c0.15364583333333334,0.17109375000000002,0.4171875,0.18541666666666667,0.5885416666666667,0.031510416666666666L7.224479166666668,2.12578125c0.15755208333333334,-0.13880208333333335,0.39375,-0.13880208333333335,0.5513020833333334,0L13.74765625,7.393229166666666c0.17109375000000002,0.15364583333333334,0.4346354166666667,0.13958333333333334,0.5885416666666667,-0.031510416666666666l0.5572916666666666,-0.6203125c0.15364583333333334,-0.17109375000000002,0.13958333333333334,-0.4346354166666667,-0.03177083333333333,-0.58828125z" fill="#FFFFFF"/></svg>