<svg version="1.1" xmlns="http://www.w3.org/2000/svg" xlink="http://www.w3.org/1999/xlink" x="0px" y="0px" width="15px" height="24px" viewBox="0 0 15 24" style="enable-background:new 0 0 15 15;" space="preserve">
    <path d="M4.926562499999999,10.5H3.75a0.75,0.75,0,0,0,-0.75,0.75v1.5a0.75,0.75,0,0,0,0.75,0.75h0.75v0.25734375c0,2.0625,-0.19406249999999997,4.059374999999999,-1.125,5.7426562500000005h8.25c-0.93234375,-1.6832812499999998,-1.125,-3.6801562500000005,-1.125,-5.7426562500000005V13.5h0.75a0.75,0.75,0,0,0,0.75,-0.75v-1.5a0.75,0.75,0,0,0,-0.75,-0.75h-1.1765625000000002c1.37765625,-0.8615625,2.3015625,-2.3803125,2.3015625,-4.125a4.875,4.875,0,0,0,-9.75,0c0,1.7446875,0.92390625,3.2634375,2.3015625,4.125zM14.25,21H0.75a0.75,0.75,0,0,0,-0.75,0.75v1.5a0.75,0.75,0,0,0,0.75,0.75h13.5a0.75,0.75,0,0,0,0.75,-0.75v-1.5a0.75,0.75,0,0,0,-0.75,-0.75z" fill="#FFFFFF"/>
    </svg>