<svg version="1.1" xmlns="http://www.w3.org/2000/svg" xlink="http://www.w3.org/1999/xlink" x="0px" y="0px" width="15px" height="13.333333333333332px" viewBox="0 0 15 13.333333333333332" style="enable-background:new 0 0 15 15;" space="preserve"><path d="M5,12.916666666666668c0,0.22916666666666669,0.1875,0.4166666666666667,0.4166666666666667,0.4166666666666667h0.8333333333333334c0.22916666666666669,0,0.4166666666666667,-0.1875,0.4166666666666667,-0.4166666666666667V8.333333333333334h-1.6666666666666667v4.583333333333334zm0.8333333333333334,-7.083333333333334h-1.3255208333333333l-1.1770833333333335,-1.1796875C3.015625,4.338541666666667,2.596354166666667,4.166666666666667,2.1536458333333335,4.166666666666667H1.6666666666666667c-0.44531250000000006,0,-0.8645833333333335,0.17447916666666669,-1.1796875,0.48958333333333337C0.17447916666666669,4.971354166666667,0,5.390625,0,5.8359375L0.005208333333333334,8.333333333333334L0,12.5c0,0.4609375,0.37239583333333337,0.8333333333333334,0.8307291666666666,0.8333333333333334c0.45833333333333337,0,0.8333333333333334,-0.37239583333333337,0.8333333333333334,-0.8333333333333334l0.002604166666666667,-2.6223958333333335c0.0234375,0.013020833333333334,0.04166666666666667,0.03385416666666667,0.06510416666666667,0.044270833333333336l0.7578125000000001,1.1197916666666667v1.4583333333333335c0,0.4609375,0.37239583333333337,0.8333333333333334,0.8333333333333334,0.8333333333333334s0.8333333333333334,-0.37239583333333337,0.8333333333333334,-0.8333333333333334v-1.4713541666666667c0,-0.2578125,-0.05989583333333333,-0.515625,-0.17447916666666669,-0.7447916666666667l-1.0729166666666667,-1.5963541666666667V6.588541666666667l0.5442708333333334,0.5442708333333334c0.23697916666666666,0.23697916666666666,0.5494791666666667,0.3671875,0.8828125,0.3671875H5.833333333333334c0.4609375,0,0.8333333333333334,-0.37239583333333337,0.8333333333333334,-0.8333333333333334s-0.37239583333333337,-0.8333333333333334,-0.8333333333333334,-0.8333333333333334zM1.6666666666666667,3.3333333333333335c0.6901041666666667,0,1.25,-0.5598958333333334,1.25,-1.25S2.3567708333333335,0.8333333333333334,1.6666666666666667,0.8333333333333334S0.4166666666666667,1.3932291666666667,0.4166666666666667,2.0833333333333335s0.5598958333333334,1.25,1.25,1.25zm5.833333333333334,-2.5l0.8203125,5.809895833333333l-0.8046875,4.026041666666667c-0.11197916666666667,0.5625000000000001,0.3385416666666667,0.9973958333333333,0.8177083333333334,0.9973958333333333c0.3958333333333333,0,0.7291666666666667,-0.23697916666666666,0.8411458333333333,-0.7916666666666666c0.0234375,0.44010416666666663,0.3802083333333333,0.7916666666666666,0.8255208333333334,0.7916666666666666c0.4609375,0,0.8333333333333334,-0.37239583333333337,0.8333333333333334,-0.8333333333333334c0,0.4609375,0.37239583333333337,0.8333333333333334,0.8333333333333334,0.8333333333333334s0.8333333333333334,-0.37239583333333337,0.8333333333333334,-0.8333333333333334V0H7.5v0.8333333333333334zm-2.5,0v4.166666666666667h1.6666666666666667V0h-0.8333333333333334c-0.4609375,0,-0.8333333333333334,0.37239583333333337,-0.8333333333333334,0.8333333333333334zM14.166666666666668,0h-0.8333333333333334v12.916666666666668c0,0.22916666666666669,0.1875,0.4166666666666667,0.4166666666666667,0.4166666666666667h0.8333333333333334c0.22916666666666669,0,0.4166666666666667,-0.1875,0.4166666666666667,-0.4166666666666667V0.8333333333333334c0,-0.4609375,-0.37239583333333337,-0.8333333333333334,-0.8333333333333334,-0.8333333333333334z" fill="#FFFFFF"/></svg>