<svg version="1.1" xmlns="http://www.w3.org/2000/svg" xlink="http://www.w3.org/1999/xlink" x="0px" y="0px" width="9.375px" height="15px" viewBox="0 0 9.375 15" style="enable-background:new 0 0 15 15;" space="preserve">
    <path d="M3.0791015624999996,6.5625H2.34375a0.46875,0.46875,0,0,0,-0.46875,0.46875v0.9375a0.46875,0.46875,0,0,0,0.46875,0.46875h0.46875v0.16083984375c0,1.2890625,-0.12128906249999999,2.5371093749999996,-0.703125,3.58916015625h5.15625c-0.58271484375,-1.05205078125,-0.703125,-2.30009765625,-0.703125,-3.58916015625V8.4375h0.46875a0.46875,0.46875,0,0,0,0.46875,-0.46875v-0.9375a0.46875,0.46875,0,0,0,-0.46875,-0.46875h-0.7353515625000001c0.86103515625,-0.5384765625,1.4384765625,-1.4876953125,1.4384765625,-2.578125a3.046875,3.046875,0,0,0,-6.09375,0c0,1.0904296875,0.5774414062500001,2.0396484375000004,1.4384765625,2.578125zM8.90625,13.125H0.46875a0.46875,0.46875,0,0,0,-0.46875,0.46875v0.9375a0.46875,0.46875,0,0,0,0.46875,0.46875h8.4375a0.46875,0.46875,0,0,0,0.46875,-0.46875v-0.9375a0.46875,0.46875,0,0,0,-0.46875,-0.46875z" fill="#FFFFFF"/>
    </svg>