<svg version="1.1" xmlns="http://www.w3.org/2000/svg" xlink="http://www.w3.org/1999/xlink" x="0px" y="0px" width="15px" height="12px" viewBox="0 0 15 12" style="enable-background:new 0 0 15 15;" space="preserve">
    <path d="M14.625,10.5H0.375c-0.2071875,0,-0.375,0.16781250000000003,-0.375,0.375v0.75c0,0.2071875,0.16781250000000003,0.375,0.375,0.375h14.25c0.2071875,0,0.375,-0.16781250000000003,0.375,-0.375v-0.75c0,-0.2071875,-0.16781250000000003,-0.375,-0.375,-0.375zM1.887890625,7.998515625c0.1471875,0.1603125,0.35390625000000003,0.25125000000000003,0.570234375,0.251015625l3.05953125,-0.004218749999999999a1.53796875,1.53796875,0,0,0,0.6946875000000001,-0.166875l6.819375,-3.4605468750000004c0.62671875,-0.31804687500000006,1.188515625,-0.77203125,1.57078125,-1.3666406250000003c0.429140625,-0.6675,0.47578125000000004,-1.150546875,0.30632812500000006,-1.4917968750000001c-0.16898437500000002,-0.34148437500000006,-0.57984375,-0.592265625,-1.365234375,-0.6433593750000001c-0.6996093750000001,-0.04546875,-1.39546875,0.13875,-2.0221875000000002,0.4565625l-2.3088281250000002,1.171640625l-5.12578125,-1.9232812500000003a0.41716406250000004,0.41716406250000004,0,0,0,-0.421875,-0.026015625000000004L2.1239062500000006,1.5771093750000003c-0.25007812500000004,0.126796875,-0.310546875,0.460546875,-0.121171875,0.6686718750000001l3.6614062500000006,2.29921875l-2.418984375,1.2276562500000001l-1.695703125,-0.854765625a0.41728125000000005,0.41728125000000005,0,0,0,-0.37664062500000006,0.00046875L0.23226562500000003,5.395781250000001c-0.2446875,0.12421875,-0.309140625,0.44812500000000005,-0.13054687500000003,0.6581250000000001l1.786171875,1.944609375z" fill="#FFFFFF"/>
    </svg>