<svg version="1.1" xmlns="http://www.w3.org/2000/svg" xlink="http://www.w3.org/1999/xlink" x="0px" y="0px" width="16.875px" height="15px" viewBox="0 0 16.875 15" style="enable-background:new 0 0 15 15;" space="preserve">
    <path d="M9.84375,13.125H0.46875c-0.258984375,0,-0.46875,0.209765625,-0.46875,0.46875v0.9375c0,0.258984375,0.209765625,0.46875,0.46875,0.46875h9.375c0.258984375,0,0.46875,-0.209765625,0.46875,-0.46875v-0.9375c0,-0.258984375,-0.209765625,-0.46875,-0.46875,-0.46875zm6.09375,-9.375V2.34375c0,-0.258984375,-0.209765625,-0.46875,-0.46875,-0.46875s-0.46875,0.209765625,-0.46875,0.46875v1.40625h-0.9375V2.34375c0,-0.258984375,-0.209765625,-0.46875,-0.46875,-0.46875s-0.46875,0.209765625,-0.46875,0.46875v1.40625h-0.46875c-0.258984375,0,-0.46875,0.209765625,-0.46875,0.46875v0.9375c0,1.04765625,0.6919921875,1.9245117187499998,1.640625,2.22451171875v3.47138671875c0,0.40869140625,-0.2783203125,0.788671875,-0.6814453125000001,0.85517578125C12.6333984375,11.7919921875,12.1875,11.39619140625,12.1875,10.8984375v-0.8203125c0,-1.423828125,-1.154296875,-2.578125,-2.578125,-2.578125h-0.234375V1.875c0,-1.03564453125,-0.83935546875,-1.875,-1.875,-1.875H2.8125C1.77685546875,0,0.9375,0.83935546875,0.9375,1.875v10.3125h8.4375V8.90625h0.234375c0.64716796875,0,1.171875,0.52470703125,1.171875,1.171875v0.72099609375c0,1.1622070312500001,0.847265625,2.2019531249999997,2.0041992187499997,2.31474609375C14.11259765625,13.24365234375,15.234375,12.199511718750001,15.234375,10.8984375V7.3807617187500005c0.9486328125000001,-0.3,1.640625,-1.1768554687500001,1.640625,-2.22451171875v-0.9375c0,-0.258984375,-0.209765625,-0.46875,-0.46875,-0.46875h-0.46875zm-8.317675781250001,1.39921875l-2.7451171875,4.072265625c-0.064453125,0.09755859375,-0.18193359375,0.15351562500000002,-0.30439453125000004,0.15351562500000002c-0.22470703125,0,-0.39462890625,-0.183984375,-0.34189453125,-0.378515625L4.90283203125,6.5625H3.1640625c-0.21240234375,0,-0.37646484375,-0.16376953125,-0.34833984375000004,-0.34833984375000004l0.46875,-3.134765625C3.3076171875,2.9267578125,3.4564453125,2.8125,3.6328125,2.8125h1.9921875c0.230859375,0,0.39902343749999997,0.1916015625,0.33984375,0.38701171875L5.625,4.6875h1.6904296875c0.270703125,0,0.43974609375,0.2572265625,0.30439453125000004,0.46171875z" fill="#FFFFFF"/>
    </svg>