<svg version="1.1" xmlns="http://www.w3.org/2000/svg" xlink="http://www.w3.org/1999/xlink" x="0px" y="0px" width="15px" height="15px" viewBox="0 0 15 15" style="enable-background:new 0 0 15 15;" space="preserve"><path d="M14.6806640625,11.5927734375L11.25,8.162109375c-0.6767578125,-0.6767578125,-1.6875,-0.80859375,-2.501953125,-0.4072265625L5.625,4.6318359375V2.8125L1.875,0L0,1.875l2.8125,3.75h1.8193359375l3.123046875,3.123046875c-0.3984375,0.814453125,-0.26953125,1.8251953125,0.4072265625,2.501953125l3.4306640625,3.4306640625c0.427734375,0.427734375,1.119140625,0.427734375,1.5439453125,0l1.5439453125,-1.5439453125c0.4248046875,-0.427734375,0.4248046875,-1.119140625,0,-1.5439453125zM9.7177734375,6.591796875c0.8291015625,0,1.6083984375,0.322265625,2.1943359375,0.908203125l0.568359375,0.568359375c0.462890625,-0.2021484375,0.90234375,-0.4833984375,1.283203125,-0.8642578125c1.0869140625,-1.0869140625,1.4560546875,-2.6162109375,1.1103515625,-4.0048828125c-0.064453125,-0.263671875,-0.3955078125,-0.3544921875,-0.5888671875,-0.1611328125l-2.1796875,2.1796875l-1.9892578125000002,-0.3310546875L9.78515625,2.8974609375l2.1796875,-2.1796875c0.193359375,-0.193359375,0.099609375,-0.5244140625,-0.1669921875,-0.591796875c-1.388671875,-0.3427734375,-2.91796875,0.0263671875,-4.001953125,1.1103515625c-0.8349609375,0.8349609375,-1.2275390625,1.9365234374999998,-1.20703125,3.03515625l2.4052734375,2.4052734375c0.2373046875,-0.0556640625,0.4833984375,-0.0849609375,0.7236328125,-0.0849609375zm-3.0439453125,2.40234375l-1.6611328125,-1.6611328125L0.5478515625,11.80078125c-0.732421875,0.732421875,-0.732421875,1.9189453125,0,2.6513671875s1.9189453125,0.732421875,2.6513671875,0l3.62109375,-3.62109375c-0.22265625,-0.5830078125,-0.2900390625,-1.21875,-0.146484375,-1.8369140625zM1.875,13.828125c-0.38671875,0,-0.703125,-0.31640625,-0.703125,-0.703125c0,-0.3896484375,0.3134765625,-0.703125,0.703125,-0.703125s0.703125,0.3134765625,0.703125,0.703125c0,0.38671875,-0.3134765625,0.703125,-0.703125,0.703125z" fill="#FFFFFF"/></svg>