<svg version="1.1" xmlns="http://www.w3.org/2000/svg" xlink="http://www.w3.org/1999/xlink" x="0px" y="0px" width="15px" height="21.81818181818182px" viewBox="0 0 15 21.81818181818182" style="enable-background:new 0 0 15 15;" space="preserve">
    <path d="M7.499999999999999,14.999999999999998c2.259375,0,4.090909090909091,-1.8315340909090907,4.090909090909091,-4.090909090909091V4.090909090909091c0,-2.259375,-1.8315340909090907,-4.090909090909091,-4.090909090909091,-4.090909090909091S3.4090909090909087,1.8315340909090907,3.4090909090909087,4.090909090909091v6.8181818181818175c0,2.259375,1.8315340909090907,4.090909090909091,4.090909090909091,4.090909090909091zm6.8181818181818175,-6.8181818181818175h-0.6818181818181818c-0.3767045454545454,0,-0.6818181818181818,0.30511363636363636,-0.6818181818181818,0.6818181818181818v2.0454545454545454c0,3.1874999999999996,-2.7481534090909085,5.745170454545454,-5.999573863636363,5.428125C4.121164772727272,16.060653409090907,2.0454545454545454,13.513210227272728,2.0454545454545454,10.666193181818182V8.863636363636363c0,-0.3767045454545454,-0.30511363636363636,-0.6818181818181818,-0.6818181818181818,-0.6818181818181818H0.6818181818181818c-0.3767045454545454,0,-0.6818181818181818,0.30511363636363636,-0.6818181818181818,0.6818181818181818v1.7113636363636362c0,3.8198863636363636,2.725994318181818,7.225142045454545,6.477272727272727,7.742471590909091V19.77272727272727H4.090909090909091c-0.3767045454545454,0,-0.6818181818181818,0.30511363636363636,-0.6818181818181818,0.6818181818181818v0.6818181818181818c0,0.3767045454545454,0.30511363636363636,0.6818181818181818,0.6818181818181818,0.6818181818181818h6.8181818181818175c0.3767045454545454,0,0.6818181818181818,-0.30511363636363636,0.6818181818181818,-0.6818181818181818v-0.6818181818181818c0,-0.3767045454545454,-0.30511363636363636,-0.6818181818181818,-0.6818181818181818,-0.6818181818181818h-2.3863636363636362v-1.4390625000000001C12.175142045454544,17.83252840909091,14.999999999999998,14.69744318181818,14.999999999999998,10.909090909090908v-2.0454545454545454c0,-0.3767045454545454,-0.30511363636363636,-0.6818181818181818,-0.6818181818181818,-0.6818181818181818z" fill="#FFFFFF"/>
    </svg>