<svg version="1.1" xmlns="http://www.w3.org/2000/svg" xlink="http://www.w3.org/1999/xlink" x="0px" y="0px" width="15px" height="15px" viewBox="0 0 15 15" style="enable-background:new 0 0 15 15;" space="preserve"><path d="M13.125,1.875h-0.7611328125C12.844921875,2.703515625,13.125,3.66240234375,13.125,4.6875c0,3.1016601562500004,-2.5233398437499996,5.625,-5.625,5.625S1.875,7.78916015625,1.875,4.6875c0,-1.02509765625,0.280078125,-1.983984375,0.7611328125,-2.8125H1.875C0.8411132812500001,1.875,0,2.7161132812499997,0,3.75v9.375c0,1.03388671875,0.8411132812500001,1.875,1.875,1.875h11.25c1.03388671875,0,1.875,-0.8411132812500001,1.875,-1.875V3.75c0,-1.03388671875,-0.8411132812500001,-1.875,-1.875,-1.875zM7.5,9.375c2.5889648437500004,0,4.6875,-2.0985351562499996,4.6875,-4.6875S10.08896484375,0,7.5,0S2.8125,2.0985351562499996,2.8125,4.6875s2.0985351562499996,4.6875,4.6875,4.6875zm-0.0087890625,-4.4513671875l0.9837890625,-2.295703125c0.1025390625,-0.23935546875,0.3791015625,-0.34921875,0.6161132812500001,-0.24638671875c0.23789062499999997,0.101953125,0.34804687500000003,0.37763671875000004,0.24638671875,0.615234375l-0.98642578125,2.30126953125C8.546777343750001,5.5078125,8.671875,5.78466796875,8.671875,6.09375c0,0.64716796875,-0.52470703125,1.171875,-1.171875,1.171875s-1.171875,-0.52470703125,-1.171875,-1.171875c0,-0.6439453125,0.5203125000000001,-1.1651367187500001,1.1630859375,-1.1701171874999998z" fill="#FFFFFF"/></svg>