<svg version="1.1" xmlns="http://www.w3.org/2000/svg" xlink="http://www.w3.org/1999/xlink" x="0px" y="0px" width="15px" height="15px" viewBox="0 0 15 15" style="enable-background:new 0 0 15 15;" space="preserve">
    <path d="M13.7806640625,0.04423828125L4.40654296875,2.8125A0.9375,0.9375,0,0,0,3.75,3.70634765625v7.658496093750001A4.072265625,4.072265625,0,0,0,2.8125,11.25c-1.552734375,0,-2.8125,0.8396484375,-2.8125,1.875s1.259765625,1.875,2.8125,1.875s2.8125,-0.8396484375,2.8125,-1.875V6.2789062499999995l7.5,-2.197265625v5.40849609375a4.0546875,4.0546875,0,0,0,-0.9375,-0.11513671875c-1.552734375,0,-2.8125,0.8396484375,-2.8125,1.875s1.259765625,1.875,2.8125,1.875s2.8125,-0.83935546875,2.8125,-1.875V0.9375a0.9375,0.9375,0,0,0,-1.2193359375,-0.8932617187499999z" fill="#FFFFFF"/>
    </svg>