<svg version="1.1" xmlns="http://www.w3.org/2000/svg" xlink="http://www.w3.org/1999/xlink" x="0px" y="0px" width="15px" height="12px" viewBox="0 0 15 12" style="enable-background:new 0 0 15 15;" space="preserve"><path d="M10.18828125,1.5h-2.0132812500000004c-0.1875,0,-0.36796874999999996,0.0703125,-0.5062500000000001,0.19687500000000002l-2.30390625,2.109375c-0.0023437500000000003,0.0023437500000000003,-0.004687500000000001,0.007031249999999999,-0.007031249999999999,0.009375000000000001c-0.38906250000000003,0.365625,-0.38203125000000004,0.94921875,-0.049218750000000006,1.3125c0.29765624999999996,0.32578125,0.9234374999999999,0.41250000000000003,1.31484375,0.06328125000000001c0.0023437500000000003,-0.0023437500000000003,0.007031249999999999,-0.0023437500000000003,0.009375000000000001,-0.004687500000000001l1.8726562500000001,-1.7156250000000002c0.15234375,-0.13828125000000002,0.39140624999999996,-0.12890625,0.5296875000000001,0.0234375c0.140625,0.15234375,0.12890625,0.38906250000000003,-0.0234375,0.5296875000000001l-0.6117187500000001,0.5601562499999999L11.8125,7.354687500000001c0.06796875,0.056249999999999994,0.12890625,0.1171875,0.18515625000000002,0.18046875V3l-1.2796875,-1.2796875c-0.13828125000000002,-0.140625,-0.33046875,-0.22031250000000002,-0.5296875000000001,-0.22031250000000002zM12.75,3.0046874999999997v5.24765625c0,0.41484374999999996,0.33515625000000004,0.75,0.75,0.75h1.5V3.0046874999999997h-2.25zm1.125,5.24765625c-0.20625000000000002,0,-0.375,-0.16875,-0.375,-0.375s0.16875,-0.375,0.375,-0.375s0.375,0.16875,0.375,0.375s-0.16875,0.375,-0.375,0.375zM0,9h1.5c0.41484374999999996,0,0.75,-0.33515625000000004,0.75,-0.75V3.0046874999999997H0V9zm1.125,-1.49765625c0.20625000000000002,0,0.375,0.16875,0.375,0.375s-0.16875,0.375,-0.375,0.375s-0.375,-0.16875,-0.375,-0.375c0,-0.20859375000000002,0.16875,-0.375,0.375,-0.375zm10.216406249999999,0.43593750000000003L7.8421875000000005,5.09765625l-0.703125,0.64453125c-0.69609375,0.6351562500000001,-1.7625000000000002,0.57421875,-2.38359375,-0.10312500000000001c-0.6304687499999999,-0.6890624999999999,-0.58125,-1.7554687500000001,0.10312500000000001,-2.38359375L6.7757812500000005,1.5h-1.9640624999999998c-0.19921875,0,-0.38906250000000003,0.0796875,-0.5296875000000001,0.22031250000000002L3,3v5.24765625h0.42890625000000004l2.12109375,1.9195312500000001c0.6421874999999999,0.52265625,1.5867187500000002,0.42421875000000003,2.109375,-0.21796875000000002l0.004687500000000001,-0.004687500000000001l0.41953124999999997,0.36328125c0.37265625,0.3046875,0.9234374999999999,0.24609375,1.2257812499999998,-0.12656250000000002l0.7359374999999999,-0.9046875000000001l0.12656250000000002,0.10312500000000001c0.32109374999999996,0.26015625,0.7945312499999999,0.21328124999999998,1.0546875,-0.11015625000000001l0.22265625,-0.27421874999999996c0.26249999999999996,-0.32343750000000004,0.21328124999999998,-0.7945312499999999,-0.10781249999999999,-1.05703125z" fill="#FFFFFF"/></svg>