<svg version="1.1" xmlns="http://www.w3.org/2000/svg" xlink="http://www.w3.org/1999/xlink" x="0px" y="0px" width="15px" height="12px" viewBox="0 0 15 12" style="enable-background:new 0 0 15 15;" space="preserve">
    <path d="M2.25,5.25c0.8273437499999999,0,1.5,-0.67265625,1.5,-1.5s-0.67265625,-1.5,-1.5,-1.5s-1.5,0.67265625,-1.5,1.5s0.67265625,1.5,1.5,1.5zm10.5,0c0.8273437499999999,0,1.5,-0.67265625,1.5,-1.5s-0.67265625,-1.5,-1.5,-1.5s-1.5,0.67265625,-1.5,1.5s0.67265625,1.5,1.5,1.5zm0.75,0.75h-1.5c-0.41250000000000003,0,-0.78515625,0.16640624999999998,-1.05703125,0.43593750000000003c0.9445312499999999,0.5179687500000001,1.6148437500000001,1.453125,1.7601562499999999,2.5640625000000004h1.546875c0.41484374999999996,0,0.75,-0.33515625000000004,0.75,-0.75v-0.75c0,-0.8273437499999999,-0.67265625,-1.5,-1.5,-1.5zm-6,0c1.45078125,0,2.625,-1.17421875,2.625,-2.625S8.950781249999999,0.75,7.5,0.75S4.875,1.9242187499999999,4.875,3.375s1.17421875,2.625,2.625,2.625zm1.7999999999999998,0.75h-0.19453125000000002c-0.48750000000000004,0.234375,-1.02890625,0.375,-1.60546875,0.375s-1.115625,-0.140625,-1.60546875,-0.375h-0.19453125000000002C4.209375,6.75,3,7.9593750000000005,3,9.45V10.125c0,0.62109375,0.50390625,1.125,1.125,1.125h6.75c0.62109375,0,1.125,-0.50390625,1.125,-1.125v-0.675c0,-1.490625,-1.209375,-2.7,-2.7,-2.7zm-5.242968749999999,-0.3140625C3.78515625,6.1664062500000005,3.4124999999999996,6,3,6H1.5c-0.8273437499999999,0,-1.5,0.67265625,-1.5,1.5v0.75c0,0.41484374999999996,0.33515625000000004,0.75,0.75,0.75h1.5445312500000001c0.14765625,-1.1109375,0.8179687499999999,-2.04609375,1.7625000000000002,-2.5640625000000004z" fill="#FFFFFF"/>
    </svg>