<svg version="1.1" xmlns="http://www.w3.org/2000/svg" xlink="http://www.w3.org/1999/xlink" x="0px" y="0px" width="18.75px" height="15px" viewBox="0 0 18.75 15" style="enable-background:new 0 0 15 15;" space="preserve">
    <path d="M15.46875,9.84375c-1.423828125,0,-2.578125,1.154296875,-2.578125,2.578125s1.154296875,2.578125,2.578125,2.578125s2.578125,-1.154296875,2.578125,-2.578125s-1.154296875,-2.578125,-2.578125,-2.578125zm0,3.28125c-0.38759765625000003,0,-0.703125,-0.31552734374999997,-0.703125,-0.703125s0.31552734374999997,-0.703125,0.703125,-0.703125s0.703125,0.31552734374999997,0.703125,0.703125s-0.31552734374999997,0.703125,-0.703125,0.703125zm2.34375,-8.4375h-1.875v-1.177734375c0,-0.41367187499999997,0.1376953125,-0.8132812500000001,0.38525390625,-1.137890625c0.1294921875,-0.169921875,0.10400390625,-0.4119140625,-0.038671875,-0.5709960937499999L15.650390625000002,1.0927734375c-0.1951171875,-0.21826171875,-0.53671875,-0.202734375,-0.7236328125,0.022851562500000002C14.3724609375,1.7841796875,14.0625,2.63115234375,14.0625,3.509765625V4.6875H11.06455078125L9.4212890625,0.8537109375A1.40373046875,1.40373046875,0,0,0,8.12841796875,0H4.21875c-0.7754882812499999,0,-1.40625,0.6307617187500001,-1.40625,1.40625v4.292578125c-0.25283203125000003,-0.19716796875,-0.6140625000000001,-0.1892578125,-0.84638671875,0.04306640625L1.0546875,6.6533203125c-0.25166015625,0.25166015625,-0.25166015625,0.659765625,0,0.91142578125l0.14824218749999998,0.14824218749999998c-0.14619140625000002,0.2712890625,-0.2625,0.5513671875,-0.34892578125,0.8414062499999999H0.64453125c-0.35595703125,0,-0.64453125,0.28857421875,-0.64453125,0.64453125v1.2890625c0,0.35595703125,0.28857421875,0.64453125,0.64453125,0.64453125h0.2091796875c0.08671875,0.29033203125,0.202734375,0.5701171875000001,0.34892578125,0.84169921875l-0.14824218749999998,0.14824218749999998c-0.25166015625,0.25166015625,-0.25166015625,0.659765625,0,0.91142578125L1.9658203124999998,13.9453125c0.25166015625,0.25166015625,0.659765625,0.25166015625,0.91142578125,0l0.14824218749999998,-0.14824218749999998c0.2712890625,0.14619140625000002,0.5513671875,0.2625,0.8414062499999999,0.34892578125V14.35546875c0,0.35595703125,0.28857421875,0.64453125,0.64453125,0.64453125h1.2890625c0.35595703125,0,0.64453125,-0.28857421875,0.64453125,-0.64453125v-0.2091796875c0.2900390625,-0.08642578125,0.5701171875000001,-0.202734375,0.8414062499999999,-0.34892578125l0.14824218749999998,0.14824218749999998c0.25166015625,0.25166015625,0.659765625,0.25166015625,0.91142578125,0l0.91142578125,-0.91142578125c0.25166015625,-0.25166015625,0.25166015625,-0.659765625,0,-0.91142578125l-0.14824218749999998,-0.14824218749999998c0.14619140625000002,-0.2712890625,0.2625,-0.5513671875,0.34892578125,-0.8414062499999999H9.66796875c0.35595703125,0,0.64453125,-0.28857421875,0.64453125,-0.64453125v-0.17578125h2.3595703125000003c0.64189453125,-0.8493164062499999,1.65,-1.40625,2.7966796874999997,-1.40625c0.54609375,0,1.05673828125,0.13505859375,1.517578125,0.357421875l1.4888671875,-1.4888671875c0.17578125,-0.17578125,0.27451171874999997,-0.41425781250000004,0.27451171874999997,-0.66298828125V5.625c0.00029296875,-0.51767578125,-0.41953125,-0.9375,-0.9372070312499999,-0.9375zM5.15625,12.1875c-1.2943359375,0,-2.34375,-1.0494140625,-2.34375,-2.34375s1.0494140625,-2.34375,2.34375,-2.34375s2.34375,1.0494140625,2.34375,2.34375s-1.0494140625,2.34375,-2.34375,2.34375zm0.64453125,-7.5h-1.11328125V1.875h3.13154296875l1.20556640625,2.8125H5.80078125z" fill="#FFFFFF"/>
    </svg>