<svg version="1.1" xmlns="http://www.w3.org/2000/svg" xlink="http://www.w3.org/1999/xlink" x="0px" y="0px" width="15px" height="12px" viewBox="0 0 15 12" style="enable-background:new 0 0 15 15;" space="preserve"><path d="M14.30859375,8.74921875c0.060937500000000006,-0.33046875,0.060937500000000006,-0.66796875,0,-0.9984375000000001l0.6046875,-0.34921875c0.0703125,-0.03984375,0.10078124999999999,-0.12187500000000001,0.07734374999999999,-0.19921875c-0.15703125,-0.5062500000000001,-0.42656249999999996,-0.9656250000000001,-0.7781250000000001,-1.3453125c-0.053906249999999996,-0.05859375,-0.140625,-0.07265625,-0.2109375,-0.032812499999999994l-0.6046875,0.34921875c-0.25546875,-0.21796875000000002,-0.5484374999999999,-0.38671875,-0.8648437499999999,-0.49921875000000004v-0.6984375c0,-0.0796875,-0.056249999999999994,-0.15000000000000002,-0.13359375,-0.16640624999999998c-0.52265625,-0.1171875,-1.0546875,-0.11249999999999999,-1.5515625000000002,0c-0.07734374999999999,0.016406249999999997,-0.13359375,0.08671875000000001,-0.13359375,0.16640624999999998v0.6984375c-0.31640625,0.11249999999999999,-0.609375,0.28125,-0.8648437499999999,0.49921875000000004l-0.6046875,-0.34921875c-0.06796875,-0.03984375,-0.15703125,-0.025781250000000002,-0.2109375,0.032812499999999994c-0.3515625,0.37968749999999996,-0.62109375,0.8390624999999999,-0.7781250000000001,1.3453125c-0.0234375,0.07734374999999999,0.009375000000000001,0.159375,0.07734374999999999,0.19921875l0.6046875,0.34921875c-0.060937500000000006,0.33046875,-0.060937500000000006,0.66796875,0,0.9984375000000001l-0.6046875,0.34921875c-0.0703125,0.03984375,-0.10078124999999999,0.12187500000000001,-0.07734374999999999,0.19921875c0.15703125,0.5062500000000001,0.42656249999999996,0.9632812500000001,0.7781250000000001,1.3453125c0.053906249999999996,0.05859375,0.140625,0.07265625,0.2109375,0.032812499999999994l0.6046875,-0.34921875c0.25546875,0.21796875000000002,0.5484374999999999,0.38671875,0.8648437499999999,0.49921875000000004v0.6984375c0,0.0796875,0.056249999999999994,0.15000000000000002,0.13359375,0.16640624999999998c0.52265625,0.1171875,1.0546875,0.11249999999999999,1.5515625000000002,0c0.07734374999999999,-0.016406249999999997,0.13359375,-0.08671875000000001,0.13359375,-0.16640624999999998v-0.6984375c0.31640625,-0.11249999999999999,0.609375,-0.28125,0.8648437499999999,-0.49921875000000004l0.6046875,0.34921875c0.06796875,0.03984375,0.15703125,0.025781250000000002,0.2109375,-0.032812499999999994c0.3515625,-0.37968749999999996,0.62109375,-0.8390624999999999,0.7781250000000001,-1.3453125c0.0234375,-0.07734374999999999,-0.009375000000000001,-0.159375,-0.07734374999999999,-0.19921875l-0.6046875,-0.34921875zM11.625,9.38671875c-0.628125,0,-1.13671875,-0.5109375,-1.13671875,-1.13671875s0.5109375,-1.13671875,1.13671875,-1.13671875s1.13671875,0.5109375,1.13671875,1.13671875s-0.50859375,1.13671875,-1.13671875,1.13671875zM5.25,6c1.6570312500000002,0,3,-1.3429687499999998,3,-3S6.907031249999999,0,5.25,0S2.25,1.3429687499999998,2.25,3s1.3429687499999998,3,3,3zm4.715624999999999,5.30859375c-0.053906249999999996,-0.028124999999999997,-0.10781249999999999,-0.060937500000000006,-0.159375,-0.09140625l-0.18515625000000002,0.10781249999999999c-0.140625,0.0796875,-0.30000000000000004,0.12421874999999999,-0.45937500000000003,0.12421874999999999c-0.25546875,0,-0.5015624999999999,-0.10781249999999999,-0.6773437499999999,-0.2953125c-0.42890625000000004,-0.46406250000000004,-0.7570312499999999,-1.02890625,-0.9421875000000001,-1.6312499999999999c-0.12890625,-0.41484374999999996,0.044531249999999994,-0.8531249999999999,0.41953124999999997,-1.0710937500000002l0.18515625000000002,-0.10781249999999999c-0.0023437500000000003,-0.060937500000000006,-0.0023437500000000003,-0.12187500000000001,0,-0.1828125l-0.18515625000000002,-0.10781249999999999c-0.375,-0.21562499999999998,-0.5484374999999999,-0.65625,-0.41953124999999997,-1.0710937500000002c0.02109375,-0.06796875,0.051562500000000004,-0.1359375,0.07500000000000001,-0.20390624999999998c-0.08906249999999999,-0.007031249999999999,-0.17578125,-0.028124999999999997,-0.2671875,-0.028124999999999997h-0.39140624999999996c-0.5203125,0.23906249999999998,-1.09921875,0.375,-1.7085937500000001,0.375s-1.1859375,-0.1359375,-1.7085937500000001,-0.375h-0.39140624999999996C1.4109375000000002,6.75,0,8.1609375,0,9.899999999999999V10.875c0,0.62109375,0.50390625,1.125,1.125,1.125h8.25c0.23671874999999998,0,0.45703125,-0.07500000000000001,0.6375,-0.19921875c-0.028124999999999997,-0.08906249999999999,-0.046875,-0.18046875,-0.046875,-0.27656250000000004v-0.21562499999999998z" fill="#FFFFFF"/></svg>