<svg version="1.1" xmlns="http://www.w3.org/2000/svg" xlink="http://www.w3.org/1999/xlink" x="0px" y="0px" width="15px" height="13.333333333333332px" viewBox="0 0 15 13.333333333333332" style="enable-background:new 0 0 15 15;" space="preserve"><path d="M8.75,11.666666666666668H0.4166666666666667c-0.23020833333333335,0,-0.4166666666666667,0.18645833333333334,-0.4166666666666667,0.4166666666666667v0.8333333333333334c0,0.23020833333333335,0.18645833333333334,0.4166666666666667,0.4166666666666667,0.4166666666666667h8.333333333333334c0.23020833333333335,0,0.4166666666666667,-0.18645833333333334,0.4166666666666667,-0.4166666666666667v-0.8333333333333334c0,-0.23020833333333335,-0.18645833333333334,-0.4166666666666667,-0.4166666666666667,-0.4166666666666667zm5.416666666666667,-8.333333333333334V2.0833333333333335c0,-0.23020833333333335,-0.18645833333333334,-0.4166666666666667,-0.4166666666666667,-0.4166666666666667s-0.4166666666666667,0.18645833333333334,-0.4166666666666667,0.4166666666666667v1.25h-0.8333333333333334V2.0833333333333335c0,-0.23020833333333335,-0.18645833333333334,-0.4166666666666667,-0.4166666666666667,-0.4166666666666667s-0.4166666666666667,0.18645833333333334,-0.4166666666666667,0.4166666666666667v1.25h-0.4166666666666667c-0.23020833333333335,0,-0.4166666666666667,0.18645833333333334,-0.4166666666666667,0.4166666666666667v0.8333333333333334c0,0.93125,0.6151041666666667,1.7106770833333333,1.4583333333333335,1.9773437500000002v3.085677083333333c0,0.36328125,-0.24739583333333334,0.7010416666666668,-0.6057291666666668,0.7601562500000001C11.2296875,10.481770833333334,10.833333333333334,10.129947916666667,10.833333333333334,9.6875v-0.7291666666666667c0,-1.265625,-1.0260416666666667,-2.291666666666667,-2.291666666666667,-2.291666666666667h-0.20833333333333334V1.6666666666666667c0,-0.9205729166666667,-0.74609375,-1.6666666666666667,-1.6666666666666667,-1.6666666666666667H2.5C1.5794270833333333,0,0.8333333333333334,0.74609375,0.8333333333333334,1.6666666666666667v9.166666666666668h7.5V7.916666666666667h0.20833333333333334c0.5752604166666667,0,1.0416666666666667,0.46640625,1.0416666666666667,1.0416666666666667v0.6408854166666667c0,1.0330729166666668,0.753125,1.9572916666666667,1.7815104166666667,2.0575520833333334C12.54453125,11.772135416666668,13.541666666666668,10.844010416666668,13.541666666666668,9.6875V6.560677083333334c0.8432291666666668,-0.26666666666666666,1.4583333333333335,-1.04609375,1.4583333333333335,-1.9773437500000002v-0.8333333333333334c0,-0.23020833333333335,-0.18645833333333334,-0.4166666666666667,-0.4166666666666667,-0.4166666666666667h-0.4166666666666667zm-7.393489583333334,1.24375l-2.440104166666667,3.619791666666667c-0.05729166666666667,0.08671875000000001,-0.16171875,0.13645833333333335,-0.2705729166666667,0.13645833333333335c-0.19973958333333333,0,-0.35078125000000004,-0.16354166666666667,-0.30390625,-0.33645833333333336L4.358072916666667,5.833333333333334H2.8125c-0.18880208333333334,0,-0.3346354166666667,-0.14557291666666666,-0.3096354166666667,-0.3096354166666667l0.4166666666666667,-2.7864583333333335C2.940104166666667,2.6015625000000004,3.0723958333333337,2.5,3.229166666666667,2.5h1.7708333333333335c0.20520833333333333,0,0.3546875,0.1703125,0.3020833333333333,0.3440104166666667L5,4.166666666666667h1.5026041666666667c0.240625,0,0.39088541666666665,0.22864583333333333,0.2705729166666667,0.41041666666666665z" fill="#FFFFFF"/></svg>