<svg version="1.1" xmlns="http://www.w3.org/2000/svg" xlink="http://www.w3.org/1999/xlink" x="0px" y="0px" width="15px" height="12px" viewBox="0 0 15 12" style="enable-background:new 0 0 15 15;" space="preserve">
    <path d="M3,2.25c0.62109375,0,1.125,-0.50390625,1.125,-1.125S3.62109375,0,3,0S1.875,0.50390625,1.875,1.125s0.50390625,1.125,1.125,1.125zm9,0c0.62109375,0,1.125,-0.50390625,1.125,-1.125S12.62109375,0,12,0s-1.125,0.50390625,-1.125,1.125s0.50390625,1.125,1.125,1.125zm2.94609375,8.72109375l-1.03125,-2.578125l-0.9632812500000001,1.0875000000000001l-0.046875,0.4265625l0.6492187500000001,1.6218750000000002c0.1171875,0.29296875,0.3984375,0.47109375000000003,0.6960937500000001,0.47109375000000003c0.09375,0,0.1875,-0.01640625,0.27890625,-0.05390625c0.38437499999999997,-0.1546875,0.571875,-0.5906250000000001,0.41718750000000004,-0.9750000000000001zm-0.8015625000000001,-4.917187500000001L13.7109375,4.1742187500000005c-0.1078125,-0.46875,-0.43593750000000003,-0.8625,-0.87890625,-1.0523437500000001c-0.43359375,-0.1875,-0.9140625,-0.15703125,-1.31484375,0.07734375c-0.5320312500000001,0.3140625,-0.9304687500000001,0.80859375,-1.12734375,1.3921875000000001L10.125,5.385937500000001L9.75,5.625v-2.25c0,-0.20625000000000002,-0.16875,-0.375,-0.375,-0.375H5.625c-0.20625000000000002,0,-0.375,0.16875,-0.375,0.375v2.25l-0.3773437500000001,-0.2390625l-0.26484375,-0.79453125c-0.19453125000000004,-0.5859375,-0.5953125,-1.078125,-1.12734375,-1.3921875000000001c-0.403125,-0.234375,-0.8812500000000001,-0.26484375,-1.31484375,-0.07734375c-0.44296875,0.18984375,-0.77109375,0.58359375,-0.87890625,1.0523437500000001l-0.43125,1.8796875000000002c-0.1078125,0.46875,0.01640625,0.9656250000000001,0.3375,1.3289062500000002l1.5750000000000002,1.7789062500000001l0.23671875,2.1703125C3.046875,11.7140625,3.3703125000000003,12,3.75,12c0.028125,0,0.05390625,-0.0023437500000000003,0.08203125,-0.004687500000000001c0.41250000000000003,-0.04453125,0.7078125000000001,-0.41484375,0.66328125,-0.82734375l-0.23671875,-2.1750000000000003c-0.03515625,-0.3046875,-0.16171875000000002,-0.58828125,-0.36562500000000003,-0.8203125l-1.01484375,-1.1484375l0.41250000000000003,-1.64765625l0.15937500000000002,0.478125c0.09609374999999999,0.29296875,0.27890625,0.5484375,0.57421875,0.7640625000000001l1.19765625,0.76171875c0.1078125,0.06796875000000001,0.28359375000000003,0.1078125,0.403125,0.1171875h3.75c0.11953125,-0.009375000000000001,0.29531250000000003,-0.049218750000000006,0.403125,-0.1171875l1.19765625,-0.76171875c0.29531250000000003,-0.215625,0.478125,-0.46875,0.57421875,-0.7640625000000001l0.15937500000000002,-0.478125l0.41250000000000003,1.64765625l-1.01484375,1.1484375c-0.20390625,0.23203125000000002,-0.33046875000000003,0.515625,-0.36562500000000003,0.8203125l-0.23671875,2.1750000000000003c-0.04453125,0.41250000000000003,0.253125,0.7828125,0.66328125,0.82734375c0.028125,0.0023437500000000003,0.05390625,0.004687500000000001,0.08203125,0.004687500000000001c0.3773437500000001,0,0.703125,-0.28359375000000003,0.7453125,-0.66796875l0.23671875,-2.1703125l1.5750000000000002,-1.7789062500000001c0.31875000000000003,-0.36328125,0.4453125,-0.8601562500000001,0.3375,-1.3289062500000002zM1.08515625,8.39296875l-1.03125,2.578125c-0.1546875,0.38437499999999997,0.0328125,0.8203125,0.41718750000000004,0.9750000000000001c0.39375000000000004,0.1546875,0.8226562500000001,-0.039843750000000004,0.9750000000000001,-0.41718750000000004l0.6492187500000001,-1.6218750000000002l-0.046875,-0.4265625l-0.9632812500000001,-1.0875000000000001z" fill="#FFFFFF"/>
    </svg>