<svg version="1.1" xmlns="http://www.w3.org/2000/svg" xlink="http://www.w3.org/1999/xlink" x="0px" y="0px" width="15px" height="15px" viewBox="0 0 15 15" style="enable-background:new 0 0 15 15;" space="preserve">
    <path d="M14.9267578125,5.408203125L13.4443359375,0.9609374999999999C13.25390625,0.38671875,12.7177734375,0,12.111328125,0H7.96875v5.625h6.9931640625c-0.01171875,-0.0732421875,-0.01171875,-0.146484375,-0.03515625,-0.216796875zM7.03125,0H2.888671875c-0.6064453125,0,-1.142578125,0.38671875,-1.3330078125,0.9609374999999999L0.0732421875,5.408203125c-0.0234375,0.0703125,-0.0234375,0.1435546875,-0.03515625,0.216796875H7.03125V0zM0,6.5625v7.03125c0,0.7763671875,0.6298828125,1.40625,1.40625,1.40625h12.1875c0.7763671875,0,1.40625,-0.6298828125,1.40625,-1.40625V6.5625H0z" fill="#FFFFFF"/>
    </svg>