<svg version="1.1" xmlns="http://www.w3.org/2000/svg" xlink="http://www.w3.org/1999/xlink" x="0px" y="0px" width="15px" height="15px" viewBox="0 0 15 15" style="enable-background:new 0 0 15 15;" space="preserve">
    <path d="M14.0625,4.6875H0.9375c-0.5177636718749999,0,-0.9375,-0.419736328125,-0.9375,-0.9375V1.875c0,-0.5177636718749999,0.419736328125,-0.9375,0.9375,-0.9375h13.125c0.5177636718749999,0,0.9375,0.419736328125,0.9375,0.9375v1.875c0,0.5177636718749999,-0.419736328125,0.9375,-0.9375,0.9375zm-1.40625,-2.578125c-0.38833007812500003,0,-0.703125,0.31479492187499997,-0.703125,0.703125s0.31479492187499997,0.703125,0.703125,0.703125s0.703125,-0.31479492187499997,0.703125,-0.703125s-0.31479492187499997,-0.703125,-0.703125,-0.703125zm-1.875,0c-0.38833007812500003,0,-0.703125,0.31479492187499997,-0.703125,0.703125s0.31479492187499997,0.703125,0.703125,0.703125s0.703125,-0.31479492187499997,0.703125,-0.703125s-0.31479492187499997,-0.703125,-0.703125,-0.703125zm3.28125,7.265625H0.9375c-0.5177636718749999,0,-0.9375,-0.419736328125,-0.9375,-0.9375v-1.875c0,-0.5177636718749999,0.419736328125,-0.9375,0.9375,-0.9375h13.125c0.5177636718749999,0,0.9375,0.419736328125,0.9375,0.9375v1.875c0,0.5177636718749999,-0.419736328125,0.9375,-0.9375,0.9375zm-1.40625,-2.578125c-0.38833007812500003,0,-0.703125,0.31479492187499997,-0.703125,0.703125s0.31479492187499997,0.703125,0.703125,0.703125s0.703125,-0.31479492187499997,0.703125,-0.703125s-0.31479492187499997,-0.703125,-0.703125,-0.703125zm-1.875,0c-0.38833007812500003,0,-0.703125,0.31479492187499997,-0.703125,0.703125s0.31479492187499997,0.703125,0.703125,0.703125s0.703125,-0.31479492187499997,0.703125,-0.703125s-0.31479492187499997,-0.703125,-0.703125,-0.703125zm3.28125,7.265625H0.9375c-0.5177636718749999,0,-0.9375,-0.419736328125,-0.9375,-0.9375v-1.875c0,-0.5177636718749999,0.419736328125,-0.9375,0.9375,-0.9375h13.125c0.5177636718749999,0,0.9375,0.419736328125,0.9375,0.9375v1.875c0,0.5177636718749999,-0.419736328125,0.9375,-0.9375,0.9375zm-1.40625,-2.578125c-0.38833007812500003,0,-0.703125,0.31479492187499997,-0.703125,0.703125s0.31479492187499997,0.703125,0.703125,0.703125s0.703125,-0.31479492187499997,0.703125,-0.703125s-0.31479492187499997,-0.703125,-0.703125,-0.703125zm-1.875,0c-0.38833007812500003,0,-0.703125,0.31479492187499997,-0.703125,0.703125s0.31479492187499997,0.703125,0.703125,0.703125s0.703125,-0.31479492187499997,0.703125,-0.703125s-0.31479492187499997,-0.703125,-0.703125,-0.703125z" fill="#FFFFFF"/>
    </svg>