<svg version="1.1" xmlns="http://www.w3.org/2000/svg" xlink="http://www.w3.org/1999/xlink" x="0px" y="0px" width="13.125px" height="15px" viewBox="0 0 13.125 15" style="enable-background:new 0 0 15 15;" space="preserve">
    <path d="M1.26697265625,13.65650390625c-1.71181640625,-1.7662792968749998,-1.679912109375,-4.614580078125,0.04060546875,-6.374443359374999L7.452890624999999,0.99609375c1.2983203125,-1.3280859375,3.4087207031249998,-1.328203125,4.707158203124999,0c1.28583984375,1.31525390625,1.2873925781249997,3.437373046875,0,4.7541796875L6.803144531249999,11.224453125c-0.874658203125,0.8946386718749999,-2.303701171875,0.882158203125,-3.16353515625,-0.029238281249999998c-0.8283691406249999,-0.8780273437499999,-0.801796875,-2.269716796875,0.042539062499999995,-3.133388671875l4.211220703125,-4.301806640625c0.18111328125,-0.18498046875,0.477890625,-0.18814453125,0.6628710937500001,-0.007060546874999999l0.669755859375,0.655634765625c0.18500976562500002,0.18111328125,0.18814453125,0.477890625,0.007060546874999999,0.6628710937500001L5.0222753906249995,9.372861328125001c-0.1444921875,0.147802734375,-0.15339843749999998,0.3933984375,-0.018984375,0.5358984375c0.1280859375,0.13576171874999998,0.32944335937499997,0.138017578125,0.45960937500000004,0.004833984375l5.356904296874999,-5.474150390625c0.574599609375,-0.58775390625,0.574599609375,-1.544677734375,-0.00032226562499999996,-2.13275390625c-0.5621777343750001,-0.575009765625,-1.4635839843749998,-0.575302734375,-2.02599609375,0L2.6481445312500003,8.592626953125c-1.0184472656249999,1.041796875,-1.034150390625,2.728125,-0.034892578125,3.7591699218749994c0.9963867187499998,1.0281152343750002,2.6069824218749997,1.029404296875,3.6052148437500002,0.008378906249999998l5.0408203125,-5.156220703124999c0.18096679687499997,-0.185126953125,0.4777441406249999,-0.18846679687499998,0.6628710937500001,-0.007500000000000001l0.670224609375,0.6551953125c0.185126953125,0.18096679687499997,0.18849609375,0.4777441406249999,0.007500000000000001,0.6628710937500001l-5.0408203125,5.15619140625c-1.745390625,1.78529296875,-4.568642578125001,1.764140625,-6.29208984375,-0.014208984374999997z" fill="#FFFFFF"/>
    </svg>