<svg version="1.1" xmlns="http://www.w3.org/2000/svg" xlink="http://www.w3.org/1999/xlink" x="0px" y="0px" width="11.25px" height="15px" viewBox="0 0 11.25 15" style="enable-background:new 0 0 15 15;" space="preserve"><path d="M5.918583984374999,0C3.58013671875,0,2.065517578125,0.9580957031250001,0.8763867187500001,2.6667773437499998c-0.21571289062500001,0.3099609375,-0.149208984375,0.7349414062499999,0.15169921875,0.96310546875l1.2638085937499999,0.9582714843750001c0.303896484375,0.23041992187500002,0.7362890625,0.17654296875,0.974208984375,-0.1215234375c0.733857421875,-0.9193652343750001,1.27822265625,-1.448701171875,2.424521484375,-1.448701171875c0.9012890625,0,2.01609375,0.580048828125,2.01609375,1.454033203125c0,0.660703125,-0.545419921875,1.00001953125,-1.435341796875,1.4989453125c-1.037783203125,0.5818359375,-2.4111035156250002,1.3059375,-2.4111035156250002,3.117333984375V9.375c0,0.38833007812500003,0.31479492187499997,0.703125,0.703125,0.703125h2.123173828125c0.38833007812500003,0,0.703125,-0.31479492187499997,0.703125,-0.703125v-0.169130859375c0,-1.2556640625,3.6699609375,-1.3079589843750001,3.6699609375,-4.705869140625C11.0596875,1.94109375,8.40533203125,0,5.918583984374999,0zM5.625,10.941181640625c-1.1190234374999999,0,-2.029423828125,0.910400390625,-2.029423828125,2.029423828125c0,1.118994140625,0.910400390625,2.02939453125,2.029423828125,2.02939453125s2.029423828125,-0.910400390625,2.029423828125,-2.029423828125s-0.910400390625,-2.02939453125,-2.029423828125,-2.02939453125z" fill="#FFFFFF"/></svg>