<svg version="1.1" xmlns="http://www.w3.org/2000/svg" xlink="http://www.w3.org/1999/xlink" x="0px" y="0px" width="15px" height="15px" viewBox="0 0 15 15" style="enable-background:new 0 0 15 15;" space="preserve">
    <path d="M14.571972656249999,10.599609375l-3.28125,-1.40625a0.703125,0.703125,0,0,0,-0.8203125,0.2021484375l-1.453125,1.775390625A10.859179687500001,10.859179687500001,0,0,1,3.826171875,5.97978515625l1.775390625,-1.453125a0.7013671875,0.7013671875,0,0,0,0.2021484375,-0.8203125l-1.40625,-3.28125A0.7078125,0.7078125,0,0,0,3.591796875,0.01787109375l-3.046875,0.703125A0.703125,0.703125,0,0,0,0,1.40625c0,7.5146484375,6.0908203125,13.59375,13.59375,13.59375a0.703125,0.703125,0,0,0,0.685546875,-0.544921875l0.703125,-3.046875a0.7116210937499999,0.7116210937499999,0,0,0,-0.41044921875,-0.80859375z" fill="#FFFFFF"/>
    </svg>