<svg version="1.1" xmlns="http://www.w3.org/2000/svg" xlink="http://www.w3.org/1999/xlink" x="0px" y="0px" width="11.25px" height="15px" viewBox="0 0 11.25 15" style="enable-background:new 0 0 15 15;" space="preserve">
    <path d="M0.556640625,7.98251953125l1.19033203125,0.5291015625a0.9375,0.9375,0,0,0,0.72890625,0.013769531249999998l0.3744140625,-0.15000000000000002a0.9375,0.9375,0,0,0,0.5496093750000001,-0.6005859375l0.2701171875,-0.89794921875a0.703125,0.703125,0,0,1,0.36767578125,-0.45849609375L4.685742187500001,6.09375v1.4745117187499999a1.40625,1.40625,0,0,1,-0.7772460937500001,1.2580078124999998l-1.6763671875000001,0.83935546875A2.34375,2.34375,0,0,0,0.9375,11.762109375000001V12.1875h9.370898437500001V6.5625c0,-3.10546875,-2.5171875000000004,-5.625,-5.6226562499999995,-5.625H0.3515625A0.3515625,0.3515625,0,0,0,0,1.2890625a0.4951171875,0.4951171875,0,0,0,0.052441406249999996,0.22207031249999998L0.46875,2.34375l-0.263671875,0.263671875a0.703125,0.703125,0,0,0,-0.205078125,0.498046875v4.01982421875a0.9375,0.9375,0,0,0,0.556640625,0.8572265625000001zM1.5234375,3.75a0.5859375,0.5859375,0,1,1,-0.5859375,0.5859375a0.5859375,0.5859375,0,0,1,0.5859375,-0.5859375zm9.2578125,9.375H0.46875a0.46875,0.46875,0,0,0,-0.46875,0.46875v0.9375a0.46875,0.46875,0,0,0,0.46875,0.46875h10.3125a0.46875,0.46875,0,0,0,0.46875,-0.46875v-0.9375a0.46875,0.46875,0,0,0,-0.46875,-0.46875z" fill="#FFFFFF"/>
    </svg>