<svg version="1.1" xmlns="http://www.w3.org/2000/svg" xlink="http://www.w3.org/1999/xlink" x="0px" y="0px" width="15px" height="12px" viewBox="0 0 15 12" style="enable-background:new 0 0 15 15;" space="preserve"><path d="M12.375,7.875c-1.1390625,0,-2.0625,0.9234374999999999,-2.0625,2.0625s0.9234374999999999,2.0625,2.0625,2.0625s2.0625,-0.9234374999999999,2.0625,-2.0625s-0.9234374999999999,-2.0625,-2.0625,-2.0625zm0,2.625c-0.310078125,0,-0.5625,-0.252421875,-0.5625,-0.5625s0.252421875,-0.5625,0.5625,-0.5625s0.5625,0.252421875,0.5625,0.5625s-0.252421875,0.5625,-0.5625,0.5625zm1.875,-6.75h-1.5v-0.9421875000000001c0,-0.3309375,0.11015625000000001,-0.650625,0.308203125,-0.9103125000000001c0.10359375,-0.1359375,0.08320312499999999,-0.32953125,-0.0309375,-0.456796875L12.520312500000001,0.8742187499999999c-0.15609375,-0.174609375,-0.429375,-0.16218749999999998,-0.57890625,0.01828125C11.49796875,1.42734375,11.25,2.104921875,11.25,2.8078125V3.75H8.851640625L7.53703125,0.68296875A1.1229843750000001,1.1229843750000001,0,0,0,6.502734374999999,0H3.375c-0.620390625,0,-1.125,0.504609375,-1.125,1.125v3.4340625000000005c-0.202265625,-0.157734375,-0.49125,-0.15140625,-0.677109375,0.034453125L0.84375,5.32265625c-0.201328125,0.201328125,-0.201328125,0.5278125,0,0.729140625l0.11859375,0.11859375c-0.116953125,0.21703125,-0.21000000000000002,0.44109375,-0.27914062500000003,0.673125H0.515625c-0.284765625,0,-0.515625,0.23085937499999998,-0.515625,0.515625v1.03125c0,0.284765625,0.23085937499999998,0.515625,0.515625,0.515625h0.16734374999999999c0.06937499999999999,0.232265625,0.16218749999999998,0.45609375,0.27914062500000003,0.673359375l-0.11859375,0.11859375c-0.201328125,0.201328125,-0.201328125,0.5278125,0,0.729140625L1.5726562499999999,11.15625c0.201328125,0.201328125,0.5278125,0.201328125,0.729140625,0l0.11859375,-0.11859375c0.21703125,0.116953125,0.44109375,0.21000000000000002,0.673125,0.27914062500000003V11.484375c0,0.284765625,0.23085937499999998,0.515625,0.515625,0.515625h1.03125c0.284765625,0,0.515625,-0.23085937499999998,0.515625,-0.515625v-0.16734374999999999c0.23203125000000002,-0.06914062500000001,0.45609375,-0.16218749999999998,0.673125,-0.27914062500000003l0.11859375,0.11859375c0.201328125,0.201328125,0.5278125,0.201328125,0.729140625,0l0.729140625,-0.729140625c0.201328125,-0.201328125,0.201328125,-0.5278125,0,-0.729140625l-0.11859375,-0.11859375c0.116953125,-0.21703125,0.21000000000000002,-0.44109375,0.27914062500000003,-0.673125H7.734375c0.284765625,0,0.515625,-0.23085937499999998,0.515625,-0.515625v-0.140625h1.88765625c0.513515625,-0.679453125,1.32,-1.125,2.23734375,-1.125c0.436875,0,0.8453906250000001,0.10804687500000001,1.2140624999999998,0.28593749999999996l1.19109375,-1.19109375c0.140625,-0.140625,0.219609375,-0.33140625,0.219609375,-0.530390625V4.5c0.000234375,-0.41414062500000004,-0.335625,-0.75,-0.749765625,-0.75zM4.125,9.75c-1.03546875,0,-1.875,-0.8395312500000001,-1.875,-1.875s0.8395312500000001,-1.875,1.875,-1.875s1.875,0.8395312500000001,1.875,1.875s-0.8395312500000001,1.875,-1.875,1.875zm0.515625,-6h-0.890625V1.5h2.505234375l0.9644531249999999,2.25H4.640625z" fill="#FFFFFF"/></svg>