<svg version="1.1" xmlns="http://www.w3.org/2000/svg" xlink="http://www.w3.org/1999/xlink" x="0px" y="0px" width="15px" height="12px" viewBox="0 0 15 12" style="enable-background:new 0 0 15 15;" space="preserve"><path d="M3.75,5.25v1.5h7.5v-1.5c0,-0.8273437499999999,0.67265625,-1.5,1.5,-1.5h0.75c0,-1.2421875,-1.0078125,-2.25,-2.25,-2.25H3.75c-1.2421875,0,-2.25,1.0078125,-2.25,2.25h0.75c0.8273437499999999,0,1.5,0.67265625,1.5,1.5zm9.75,-0.75h-0.75c-0.41484374999999996,0,-0.75,0.33515625000000004,-0.75,0.75v2.25H3v-2.25c0,-0.41484374999999996,-0.33515625000000004,-0.75,-0.75,-0.75H1.5c-0.8273437499999999,0,-1.5,0.67265625,-1.5,1.5c0,0.5531250000000001,0.3046875,1.03125,0.75,1.29140625V10.125c0,0.20625000000000002,0.16875,0.375,0.375,0.375h1.5c0.20625000000000002,0,0.375,-0.16875,0.375,-0.375v-0.375h9v0.375c0,0.20625000000000002,0.16875,0.375,0.375,0.375h1.5c0.20625000000000002,0,0.375,-0.16875,0.375,-0.375V7.2914062500000005c0.4453125,-0.26015625,0.75,-0.73828125,0.75,-1.29140625c0,-0.8273437499999999,-0.67265625,-1.5,-1.5,-1.5z" fill="#FFFFFF"/></svg>