<svg version="1.1" xmlns="http://www.w3.org/2000/svg" xlink="http://www.w3.org/1999/xlink" x="0px" y="0px" width="15px" height="13.333333333333332px" viewBox="0 0 15 13.333333333333332" style="enable-background:new 0 0 15 15;" space="preserve">
    <path d="M15,5.625v0.41666666666666663c0,0.3451822916666667,-0.2798177083333333,0.625,-0.625,0.625h-0.20833333333333331l-0.6800260416666666,4.760104166666666C13.398671875,12.042578124999999,12.871276041666667,12.5,12.249218749999999,12.5H2.7507812499999997c-0.6220572916666667,0,-1.149453125,-0.45742187500000003,-1.2374479166666665,-1.0732291666666667L0.8333333333333333,6.666666666666666h-0.20833333333333331c-0.3451822916666667,0,-0.625,-0.2798177083333333,-0.625,-0.625v-0.41666666666666663c0,-0.3451822916666667,0.2798177083333333,-0.625,0.625,-0.625h1.7536718749999998l2.7807291666666667,-3.8234635416666665c0.27070312499999993,-0.37218749999999995,0.7918489583333334,-0.45450520833333335,1.1640885416666666,-0.18380208333333334c0.3722135416666666,0.27070312499999993,0.45450520833333335,0.791875,0.18380208333333334,1.1640885416666666L4.439505208333333,5h6.120989583333333L8.492708333333333,2.156796875c-0.27070312499999993,-0.37218749999999995,-0.18838541666666667,-0.8933854166666665,0.183828125,-1.1640885416666666c0.3721614583333333,-0.27070312499999993,0.8933854166666665,-0.18841145833333334,1.1640885416666666,0.18380208333333334L12.621328125,5H14.375c0.3451822916666667,0,0.625,0.2798177083333333,0.625,0.625zM8.125,10.208333333333332V7.291666666666666c0,-0.3451822916666667,-0.2798177083333333,-0.625,-0.625,-0.625s-0.625,0.2798177083333333,-0.625,0.625v2.9166666666666665c0,0.3451822916666667,0.2798177083333333,0.625,0.625,0.625s0.625,-0.2798177083333333,0.625,-0.625zm2.9166666666666665,0V7.291666666666666c0,-0.3451822916666667,-0.2798177083333333,-0.625,-0.625,-0.625s-0.625,0.2798177083333333,-0.625,0.625v2.9166666666666665c0,0.3451822916666667,0.2798177083333333,0.625,0.625,0.625s0.625,-0.2798177083333333,0.625,-0.625zm-5.833333333333333,0V7.291666666666666c0,-0.3451822916666667,-0.2798177083333333,-0.625,-0.625,-0.625s-0.625,0.2798177083333333,-0.625,0.625v2.9166666666666665c0,0.3451822916666667,0.2798177083333333,0.625,0.625,0.625s0.625,-0.2798177083333333,0.625,-0.625z" fill="#FFFFFF"/>
    </svg>