<svg version="1.1" xmlns="http://www.w3.org/2000/svg" xlink="http://www.w3.org/1999/xlink" x="0px" y="0px" width="16.875px" height="15px" viewBox="0 0 16.875 15" style="enable-background:new 0 0 15 15;" space="preserve">
    <path d="M3.28125,0.9375C1.4677734375,0.9375,0,2.4052734375,0,4.21875v6.5625c0,1.8134765625,1.4677734375,3.28125,3.28125,3.28125s3.28125,-1.4677734375,3.28125,-3.28125V4.21875c0,-1.8134765625,-1.4677734375,-3.28125,-3.28125,-3.28125zm1.40625,6.5625H1.875V4.21875c0,-0.7763671875,0.6298828125,-1.40625,1.40625,-1.40625s1.40625,0.6298828125,1.40625,1.40625v3.28125zm4.0927734375,-0.8701171875c-0.1025390625,-0.1025390625,-0.275390625,-0.0908203125,-0.3603515625,0.0234375c-1.3271484375,1.8310546875,-1.18359375,4.3974609375,0.4658203125,6.046875c1.6494140625,1.6494140625,4.2158203125,1.79296875,6.046875,0.4658203125c0.1171875,-0.0849609375,0.1259765625,-0.2578125,0.0234375,-0.3603515625L8.7802734375,6.6298828125zm6.732421875,-0.556640625c-1.6494140625,-1.6494140625,-4.2158203125,-1.79296875,-6.046875,-0.4658203125c-0.1171875,0.0849609375,-0.1259765625,0.2578125,-0.0234375,0.3603515625l6.17578125,6.17578125c0.1025390625,0.1025390625,0.275390625,0.0908203125,0.3603515625,-0.0234375c1.3271484375,-1.833984375,1.1865234375,-4.3974609375,-0.4658203125,-6.046875z" fill="#FFFFFF"/>
    </svg>