<svg version="1.1" xmlns="http://www.w3.org/2000/svg" xlink="http://www.w3.org/1999/xlink" x="0px" y="0px" width="15px" height="13.333333333333332px" viewBox="0 0 15 13.333333333333332" style="enable-background:new 0 0 15 15;" space="preserve">
    <path d="M2.5,0C2.799479166666667,0,3.057291666666667,0.21328125,3.1145833333333335,0.5080729166666668L3.1536458333333335,0.8333333333333334H14.109375C14.638020833333334,0.8333333333333334,15.059895833333332,1.3606770833333335,14.911458333333334,1.8921875L13.505208333333334,6.893229166666667C13.403645833333336,7.252604166666667,13.075520833333334,7.5,12.703125,7.5H4.4453125L4.684895833333334,8.75H12.708333333333334C13.0546875,8.75,13.333333333333334,9.028645833333334,13.333333333333334,9.375C13.333333333333334,9.721354166666668,13.0546875,10,12.708333333333334,10H4.143229166666667C3.8671875,10,3.609375,9.786458333333334,3.5520833333333335,9.4921875L1.9828125,1.25H0.625C0.2799479166666667,1.25,0,0.9700520833333334,0,0.625C0,0.2799479166666667,0.2799479166666667,0,0.625,0H2.5zM3.3333333333333335,12.083333333333334C3.3333333333333335,11.393229166666668,3.893229166666667,10.833333333333334,4.583333333333334,10.833333333333334C5.2734375,10.833333333333334,5.833333333333334,11.393229166666668,5.833333333333334,12.083333333333334C5.833333333333334,12.7734375,5.2734375,13.333333333333334,4.583333333333334,13.333333333333334C3.893229166666667,13.333333333333334,3.3333333333333335,12.7734375,3.3333333333333335,12.083333333333334zM13.333333333333334,12.083333333333334C13.333333333333334,12.7734375,12.7734375,13.333333333333334,12.083333333333334,13.333333333333334C11.393229166666668,13.333333333333334,10.833333333333334,12.7734375,10.833333333333334,12.083333333333334C10.833333333333334,11.393229166666668,11.393229166666668,10.833333333333334,12.083333333333334,10.833333333333334C12.7734375,10.833333333333334,13.333333333333334,11.393229166666668,13.333333333333334,12.083333333333334z" fill="#FFFFFF"/>
    </svg>