<svg version="1.1" xmlns="http://www.w3.org/2000/svg" xlink="http://www.w3.org/1999/xlink" x="0px" y="0px" width="15px" height="17.142857142857142px" viewBox="0 0 15 17.142857142857142" style="enable-background:new 0 0 15 15;" space="preserve">
    <path d="M1.44796875,15.607433035714285c-1.9563616071428571,-2.0186049107142856,-1.9198995535714285,-5.273805803571428,0.046406249999999996,-7.285078124999999L8.517589285714285,1.1383928571428572c1.483794642857143,-1.5178125,3.8956808035714285,-1.5179464285714286,5.379609374999999,0c1.46953125,1.5031473214285713,1.4713058035714284,3.928426339285714,0,5.433348214285714L7.775022321428571,12.827946428571428c-0.999609375,1.0224441964285713,-2.632801339285714,1.0081808035714286,-3.61546875,-0.03341517857142857c-0.9467075892857142,-1.0034598214285713,-0.9163392857142857,-2.5939620535714285,0.048616071428571425,-3.581015625l4.812823660714286,-4.916350446428572c0.20698660714285716,-0.21140625,0.5461607142857143,-0.21502232142857142,0.7575669642857144,-0.008069196428571427l0.7654352678571429,0.749296875c0.21143973214285716,0.20698660714285716,0.21502232142857142,0.5461607142857143,0.008069196428571427,0.7575669642857144L5.739743303571428,10.711841517857144c-0.16513392857142858,0.1689174107142857,-0.17531249999999998,0.4495982142857143,-0.02169642857142857,0.6124553571428571c0.14638392857142857,0.15515625,0.3765066964285714,0.157734375,0.5252678571428572,0.005524553571428572l6.122176339285714,-6.256171875c0.6566852678571429,-0.67171875,0.6566852678571429,-1.7653459821428572,-0.0003683035714285714,-2.4374330357142857c-0.6424888392857143,-0.6571540178571428,-1.6726674107142856,-0.6574888392857143,-2.315424107142857,0L3.026450892857143,9.820145089285715c-1.163939732142857,1.190625,-1.1818861607142856,3.117857142857143,-0.03987723214285714,4.296194196428571c1.1387276785714284,1.1749888392857144,2.979408482142857,1.1764620535714285,4.120245535714286,0.009575892857142856l5.7609375,-5.892823660714285c0.2068191964285714,-0.2115736607142857,0.5459933035714285,-0.21539062499999997,0.7575669642857144,-0.008571428571428572l0.7659709821428571,0.7487946428571428c0.2115736607142857,0.2068191964285714,0.21542410714285715,0.5459933035714285,0.008571428571428572,0.7575669642857144l-5.7609375,5.8927901785714285c-1.9947321428571427,2.0403348214285715,-5.221305803571429,2.0161607142857143,-7.190959821428572,-0.016238839285714284z" fill="#FFFFFF"/>
    </svg>