<svg version="1.1" xmlns="http://www.w3.org/2000/svg" xlink="http://www.w3.org/1999/xlink" x="0px" y="0px" width="16.875px" height="15px" viewBox="0 0 16.875 15" style="enable-background:new 0 0 15 15;" space="preserve">
    <path d="M16.001953125,0.2841796875c-0.1640625,-0.3662109375,-0.6328125,-0.380859375,-0.8291015625,-0.03515625C14.2646484375,1.828125,12.638671875,2.8125,10.78125,2.8125h-2.34375C5.33203125,2.8125,2.8125,5.33203125,2.8125,8.4375c0,0.205078125,0.0234375,0.4013671875,0.0439453125,0.6005859375C4.7255859375,7.69921875,7.423828125,6.5625,11.25,6.5625c0.2578125,0,0.46875,0.2109375,0.46875,0.46875s-0.2109375,0.46875,-0.46875,0.46875C3.884765625,7.5,0.76171875,12.0146484375,0.0703125,13.7109375c-0.193359375,0.4775390625,0.03515625,1.0224609375,0.5126953125,1.21875c0.48046874999999994,0.19921875,1.025390625,-0.0322265625,1.224609375,-0.5068359375c0.0439453125,-0.10546875,0.6123046875,-1.4033203125,2.1064453125,-2.654296875c0.94921875,1.2861328125,2.75390625,2.513671875,5.1240234375,2.26171875C13.6376953125,13.6962890625,16.875,9.5712890625,16.875,4.5205078125c0,-1.470703125,-0.31640625,-2.994140625,-0.873046875,-4.236328125z" fill="#FFFFFF"/>
    </svg>