<svg version="1.1" xmlns="http://www.w3.org/2000/svg" xlink="http://www.w3.org/1999/xlink" x="0px" y="0px" width="15px" height="15.483870967741936px" viewBox="0 0 15 15.483870967741936" style="enable-background:new 0 0 15 15;" space="preserve">
    <path d="M7.5,0.24193548387096775C3.3568548387096775,0.24193548387096775,0,3.5987903225806455,0,7.741935483870968s3.3568548387096775,7.5,7.5,7.5s7.5,-3.3568548387096775,7.5,-7.5S11.643145161290322,0.24193548387096775,7.5,0.24193548387096775zM3.3870967741935485,6.756048387096775c0.09979838709677419,-1.2731854838709677,0.9737903225806452,-2.1592741935483875,1.6935483870967742,-2.1592741935483875s1.5937500000000002,0.8860887096774194,1.6935483870967742,2.1592741935483875c0.021169354838709676,0.2600806451612903,-0.3266129032258065,0.35987903225806456,-0.45060483870967744,0.13608870967741937l-0.2872983870967742,-0.5141129032258065c-0.23286290322580647,-0.41431451612903225,-0.5806451612903226,-0.653225806451613,-0.9526209677419355,-0.653225806451613s-0.7197580645161291,0.23891129032258066,-0.9526209677419355,0.653225806451613l-0.2872983870967742,0.5141129032258065c-0.13004032258064516,0.22379032258064518,-0.4778225806451613,0.12096774193548387,-0.4566532258064516,-0.13608870967741937zm7.584677419354839,3.713709677419355C10.109879032258066,11.504032258064516,8.845766129032258,12.096774193548388,7.5,12.096774193548388s-2.6098790322580645,-0.592741935483871,-3.471774193548387,-1.627016129032258c-0.40826612903225806,-0.4929435483870968,0.3326612903225806,-1.1098790322580647,0.7439516129032259,-0.6199596774193549c0.6774193548387096,0.813508064516129,1.6693548387096775,1.276209677419355,2.7278225806451615,1.276209677419355s2.0504032258064515,-0.46572580645161293,2.7278225806451615,-1.276209677419355c0.4112903225806452,-0.4899193548387097,1.152217741935484,0.13004032258064516,0.7439516129032259,0.6199596774193549zm0.1875,-3.5776209677419355l-0.2872983870967742,-0.5141129032258065c-0.23286290322580647,-0.41431451612903225,-0.5806451612903226,-0.653225806451613,-0.9526209677419355,-0.653225806451613s-0.7197580645161291,0.23891129032258066,-0.9526209677419355,0.653225806451613l-0.2872983870967742,0.5141129032258065c-0.12399193548387095,0.22076612903225806,-0.4717741935483871,0.12096774193548387,-0.45060483870967744,-0.13608870967741937c0.09979838709677419,-1.2731854838709677,0.9737903225806452,-2.1592741935483875,1.6935483870967742,-2.1592741935483875s1.5937500000000002,0.8860887096774194,1.6935483870967742,2.1592741935483875c0.018145161290322582,0.2600806451612903,-0.3326612903225806,0.35987903225806456,-0.4566532258064516,0.13608870967741937z" fill="#FFFFFF"/>
    </svg>