<svg version="1.1" xmlns="http://www.w3.org/2000/svg" xlink="http://www.w3.org/1999/xlink" x="0px" y="0px" width="15px" height="13.333333333333332px" viewBox="0 0 15 13.333333333333332" style="enable-background:new 0 0 15 15;" space="preserve">
    <path d="M14.583333333333332,11.666666666666666h-0.41666666666666663V2.5H0.8333333333333333v9.166666666666666H0.41718749999999993c-0.23020833333333332,0,-0.41666666666666663,0.18645833333333334,-0.41666666666666663,0.41666666666666663v0.8333333333333333c0,0.23020833333333332,0.18645833333333334,0.41666666666666663,0.41666666666666663,0.41666666666666663H4.583333333333333c0.23020833333333332,0,0.41666666666666663,-0.18645833333333334,0.41666666666666663,-0.41666666666666663V8.333333333333332c0,-1.3807291666666668,1.1192708333333332,-2.5,2.5,-2.5s2.5,1.1192708333333332,2.5,2.5l0.0005208333333333333,4.166666666666666v0.41666666666666663c0,0.23020833333333332,0.18645833333333334,0.41666666666666663,0.41666666666666663,0.41666666666666663H14.583333333333332c0.23020833333333332,0,0.41666666666666663,-0.18645833333333334,0.41666666666666663,-0.41666666666666663v-0.8333333333333333c0,-0.23020833333333332,-0.18645833333333334,-0.41666666666666663,-0.41666666666666663,-0.41666666666666663zm0,-11.666666666666666H0.41666666666666663C0.18645833333333334,0,0,0.18645833333333334,0,0.41666666666666663v0.8333333333333333c0,0.23020833333333332,0.18645833333333334,0.41666666666666663,0.41666666666666663,0.41666666666666663h14.166666666666666c0.23020833333333332,0,0.41666666666666663,-0.18645833333333334,0.41666666666666663,-0.41666666666666663V0.41666666666666663c0,-0.23020833333333332,-0.18645833333333334,-0.41666666666666663,-0.41666666666666663,-0.41666666666666663z" fill="#FFFFFF"/>
    </svg>