<svg version="1.1" xmlns="http://www.w3.org/2000/svg" xlink="http://www.w3.org/1999/xlink" x="0px" y="0px" width="15px" height="12px" viewBox="0 0 15 12" style="enable-background:new 0 0 15 15;" space="preserve"><path d="M14.625,9.75H8.942343750000001c-0.017343749999999998,0.46429687499999994,-0.344765625,0.75,-0.76734375,0.75H6.75c-0.43804687500000006,0,-0.77390625,-0.409453125,-0.768046875,-0.75H0.375c-0.20625000000000002,0,-0.375,0.16875,-0.375,0.375v0.375c0,0.8250000000000001,0.675,1.5,1.5,1.5h12c0.8250000000000001,0,1.5,-0.675,1.5,-1.5v-0.375c0,-0.20625000000000002,-0.16875,-0.375,-0.375,-0.375zM13.5,1.125c0,-0.6187499999999999,-0.5062500000000001,-1.125,-1.125,-1.125H2.625C2.0062499999999996,0,1.5,0.5062500000000001,1.5,1.125v7.875h12V1.125zm-1.5,6.375H3V1.5h9v6z" fill="#FFFFFF"/></svg>