<svg version="1.1" xmlns="http://www.w3.org/2000/svg" xlink="http://www.w3.org/1999/xlink" x="0px" y="0px" width="13.125px" height="15px" viewBox="0 0 13.125 15" style="enable-background:new 0 0 15 15;" space="preserve"><path d="M8.1462890625,7.5L13.021875000000001,2.62412109375c0.13740234375000002,-0.13740234375000002,0.13740234375000002,-0.36005859375,0,-0.49716796874999997c-0.9609374999999999,-0.9609374999999999,-2.51923828125,-0.9609374999999999,-3.4801757812500003,0L6.1576171875000005,5.511328125l-0.7283203125,-0.7283203125c0.12626953124999998,-0.319921875,0.19570312499999998,-0.66826171875,0.19570312499999998,-1.0330078125c0,-1.5533203125000001,-1.2591796874999999,-2.8125,-2.8125,-2.8125S0,2.1966796875,0,3.75s1.2591796874999999,2.8125,2.8125,2.8125c0.1330078125,0,0.26337890625,-0.009375,0.39140624999999996,-0.027246093750000002L4.16865234375,7.5l-0.96474609375,0.96474609375c-0.12802734375,-0.01787109375,-0.25869140625,-0.027246093750000002,-0.39140624999999996,-0.027246093750000002c-1.5533203125000001,0,-2.8125,1.2591796874999999,-2.8125,2.8125s1.2591796874999999,2.8125,2.8125,2.8125s2.8125,-1.2591796874999999,2.8125,-2.8125c0,-0.36474609375,-0.06943359375000001,-0.7130859375,-0.19570312499999998,-1.0330078125l0.7283203125,-0.7283203125L9.54169921875,12.873046875c0.9609374999999999,0.9609374999999999,2.51923828125,0.9609374999999999,3.4801757812500003,0c0.13740234375000002,-0.13710937499999998,0.13740234375000002,-0.359765625,0,-0.49716796874999997L8.1462890625,7.5zM2.8125,4.6875c-0.516796875,0,-0.9375,-0.42070312499999996,-0.9375,-0.9375s0.42070312499999996,-0.9375,0.9375,-0.9375s0.9375,0.42070312499999996,0.9375,0.9375s-0.42070312499999996,0.9375,-0.9375,0.9375zm0,7.5c-0.516796875,0,-0.9375,-0.42070312499999996,-0.9375,-0.9375s0.42070312499999996,-0.9375,0.9375,-0.9375s0.9375,0.42070312499999996,0.9375,0.9375s-0.42070312499999996,0.9375,-0.9375,0.9375z" fill="#FFFFFF"/></svg>