<svg version="1.1" xmlns="http://www.w3.org/2000/svg" xlink="http://www.w3.org/1999/xlink" x="0px" y="0px" width="18.75px" height="15px" viewBox="0 0 18.75 15" style="enable-background:new 0 0 15 15;" space="preserve">
    <path d="M4.19677734375,6.46904296875l-0.3638671875,1.35849609375c-0.08818359375,0.32958984375,-0.10634765624999999,0.67060546875,-0.07060546875000001,1.00751953125l-1.03125,0.8490234375c-0.19248046875000002,0.15849609375,-0.47783203124999996,-0.01259765625,-0.42832031249999997,-0.25693359374999997l0.45234375,-2.246484375c0.0310546875,-0.15410156249999998,-0.07792968750000001,-0.301171875,-0.234375,-0.31611328125l-2.2810546875,-0.22119140625c-0.24814453125000002,-0.024023437499999998,-0.32900390625000003,-0.34658203125,-0.12128906249999999,-0.4845703125l1.9086914062500002,-1.2685546875c0.1306640625,-0.08701171875000001,0.1576171875,-0.26806640625,0.0580078125,-0.38935546875L0.6287109375000001,2.7310546875c-0.15849609375,-0.19248046875000002,0.01259765625,-0.4775390625,0.2572265625,-0.42832031249999997l2.246484375,0.45234375c0.15410156249999998,0.0310546875,0.301171875,-0.07792968750000001,0.31640625,-0.234375l0.22119140625,-2.2810546875c0.024023437499999998,-0.2484375,0.34658203125,-0.32900390625000003,0.48486328125,-0.12128906249999999l1.2685546875,1.9083984375c0.08701171875000001,0.1306640625,0.26806640625,0.1576171875,0.38935546875,0.0580078125l1.76953125,-1.45634765625c0.19248046875000002,-0.15849609375,0.4775390625,0.01259765625,0.42832031249999997,0.25693359374999997L7.678710937500001,2.5306640624999996c-0.07939453125,0.08935546875,-0.15908203124999998,0.17841796875,-0.23173828125,0.275390625l-0.94189453125,1.25888671875l-0.31376953125,0.41953125c-0.9588867187499999,0.256640625,-1.7337890625,1.01162109375,-1.9945312499999999,1.9845703124999998zm14.48935546875,3.8821289062499997l-0.3638671875,1.358203125c-0.09169921874999999,0.3421875,-0.27480468750000003,0.63310546875,-0.51416015625,0.86015625a1.9592578125000002,1.9592578125000002,0,0,1,-0.256640625,0.205078125l-0.40986328125,1.5301757812499999c-0.033398437499999996,0.12509765625,-0.0908203125,0.2373046875,-0.16552734375,0.33339843750000003c-0.22470703125,0.28828125,-0.6076171874999999,0.430078125,-0.9826171874999999,0.32958984375L15.087890625,14.7251953125c-0.50009765625,-0.13388671875000002,-0.796875,-0.648046875,-0.66298828125,-1.1481445312499998l0.24257812499999998,-0.90556640625l-7.24453125,-1.9412109375000002l-0.24257812499999998,0.90556640625c-0.13388671875000002,0.50009765625,-0.648046875,0.796875,-1.1481445312499998,0.66298828125l-0.90556640625,-0.24257812499999998c-0.375,-0.10048828125,-0.6357421875,-0.41484375,-0.6861328125,-0.7766601562500001c-0.016699218749999998,-0.12070312500000001,-0.01025390625,-0.2466796875,0.023144531250000003,-0.371484375l0.40986328125,-1.5301757812499999a1.9517578125000001,1.9517578125000001,0,0,1,-0.11982421874999999,-0.30615234375c-0.09375,-0.31611328125,-0.10693359375,-0.659765625,-0.015234375000000001,-1.001953125l0.3638671875,-1.35849609375c0.15556640624999998,-0.580078125,0.5671875,-1.0204101562499999,1.08076171875,-1.23662109375a1.88484375,1.88484375,0,0,1,0.5416992187499999,-0.13828125l0.53115234375,-0.70986328125l0.94189453125,-1.25888671875c0.10107421875,-0.13505859375,0.21064453125000002,-0.2607421875,0.328125,-0.376171875c0.234375,-0.23115234375,0.49892578125000003,-0.423046875,0.7833984374999999,-0.5715820312500001c0.1423828125,-0.0744140625,0.28974609375000004,-0.13798828125,0.44091796875,-0.19013671875000002c0.30263671875,-0.1048828125,0.62080078125,-0.16494140625,0.94453125,-0.176953125c0.32373046875,-0.012011718749999999,0.65361328125,0.024023437499999998,0.97939453125,0.111328125l3.594140625,0.9629882812499999c0.32578124999999997,0.0873046875,0.629296875,0.2208984375,0.90380859375,0.39345703125a3.25517578125,3.25517578125,0,0,1,1.0163085937499998,1.0107421875c0.2583984375,0.40664062500000003,0.42890625000000004,0.87421875,0.488671875,1.37666015625l0.186328125,1.56123046875l0.10517578124999999,0.88037109375a1.8893554687499998,1.8893554687499998,0,0,1,0.6662109374999999,0.87685546875c0.12861328125,0.34804687500000003,0.15498046875,0.73798828125,0.05126953125,1.12470703125zM7.4876953125000005,6.8654296875c-0.54345703125,-0.14560546875,-1.00224609375,0.118359375,-1.1475585937500001,0.6600585937500001c-0.1453125,0.5416992187499999,0.12041015625000001,0.9996093749999999,0.66357421875,1.14521484375c0.54345703125,0.14560546875,1.3341796875,0.45439453125,1.47919921875,-0.0873046875c0.1453125,-0.5416992187499999,-0.45205078125,-1.5723632812500001,-0.9952148437499999,-1.71796875zm8.513964843750001,0.82529296875l-0.186328125,-1.56123046875c-0.0169921875,-0.14267578125,-0.055371093749999996,-0.27919921875,-0.1119140625,-0.40605468749999996c-0.169921875,-0.38056640625,-0.50390625,-0.6741210937500001,-0.9205078125,-0.7857421875l-3.594140625,-0.9629882812499999a1.406484375,1.406484375,0,0,0,-1.4900390625,0.51591796875l-0.94189453125,1.25888671875l5.0390625,1.3499999999999999l2.2057617187500003,0.5912109375zm0.5416992187499999,1.60107421875c-0.54345703125,-0.14560546875,-1.576171875,0.44853515625,-1.72119140625,0.9899414062499999c-0.14501953125,0.5416992187499999,0.69404296875,0.6697265625,1.2375,0.81533203125c0.54345703125,0.14560546875,1.00224609375,-0.118359375,1.1475585937500001,-0.6600585937500001c0.14501953125,-0.54140625,-0.12041015625000001,-0.9996093749999999,-0.6638671875,-1.14521484375z" fill="#FFFFFF"/>
    </svg>