<svg version="1.1" xmlns="http://www.w3.org/2000/svg" xlink="http://www.w3.org/1999/xlink" x="0px" y="0px" width="18.75px" height="15px" viewBox="0 0 18.75 15" style="enable-background:new 0 0 15 15;" space="preserve">
    <path d="M15.46875,13.125H3.28125c-0.2578125,0,-0.46875,0.2109375,-0.46875,0.46875v0.9375c0,0.2578125,0.2109375,0.46875,0.46875,0.46875h12.1875c0.2578125,0,0.46875,-0.2109375,0.46875,-0.46875v-0.9375c0,-0.2578125,-0.2109375,-0.46875,-0.46875,-0.46875zm1.875,-9.375c-0.7763671875,0,-1.40625,0.6298828125,-1.40625,1.40625c0,0.2080078125,0.046875,0.4013671875,0.12890625,0.580078125L13.9453125,7.0078125c-0.451171875,0.26953125,-1.0341796875,0.1171875,-1.294921875,-0.33984375L10.2626953125,2.490234375C10.576171875,2.232421875,10.78125,1.845703125,10.78125,1.40625c0,-0.7763671875,-0.6298828125,-1.40625,-1.40625,-1.40625s-1.40625,0.6298828125,-1.40625,1.40625c0,0.439453125,0.205078125,0.826171875,0.5185546875,1.083984375l-2.3876953125,4.177734375c-0.2607421875,0.45703125,-0.8466796875,0.609375,-1.294921875,0.33984375l-2.1181640625,-1.271484375c0.0791015625,-0.17578125,0.12890625,-0.3720703125,0.12890625,-0.580078125c0,-0.7763671875,-0.6298828125,-1.40625,-1.40625,-1.40625S0,4.3798828125,0,5.15625s0.6298828125,1.40625,1.40625,1.40625c0.076171875,0,0.15234375,-0.01171875,0.2255859375,-0.0234375L3.75,12.1875h11.25l2.1181640625,-5.6484375c0.0732421875,0.01171875,0.1494140625,0.0234375,0.2255859375,0.0234375c0.7763671875,0,1.40625,-0.6298828125,1.40625,-1.40625s-0.6298828125,-1.40625,-1.40625,-1.40625z" fill="#FFFFFF"/>
    </svg>