<svg version="1.1" xmlns="http://www.w3.org/2000/svg" xlink="http://www.w3.org/1999/xlink" x="0px" y="0px" width="16.875px" height="15px" viewBox="0 0 16.875 15" style="enable-background:new 0 0 15 15;" space="preserve">
    <path d="M5.625,14.53125c0,0.2578125,0.2109375,0.46875,0.46875,0.46875h0.9375c0.2578125,0,0.46875,-0.2109375,0.46875,-0.46875V9.375h-1.875v5.15625zm0.9375,-7.96875h-1.4912109375l-1.32421875,-1.3271484375C3.392578125,4.880859375,2.9208984375,4.6875,2.4228515625,4.6875H1.875c-0.5009765625,0,-0.9726562500000001,0.1962890625,-1.3271484375,0.55078125C0.1962890625,5.5927734375,0,6.064453125,0,6.5654296875L0.005859375,9.375L0,14.0625c0,0.5185546875,0.4189453125,0.9375,0.9345703125,0.9375c0.515625,0,0.9375,-0.4189453125,0.9375,-0.9375l0.0029296875,-2.9501953125c0.0263671875,0.0146484375,0.046875,0.0380859375,0.0732421875,0.0498046875l0.8525390625,1.259765625v1.640625c0,0.5185546875,0.4189453125,0.9375,0.9375,0.9375s0.9375,-0.4189453125,0.9375,-0.9375v-1.6552734375c0,-0.2900390625,-0.0673828125,-0.580078125,-0.1962890625,-0.837890625l-1.20703125,-1.7958984375V7.412109375l0.6123046875,0.6123046875c0.2666015625,0.2666015625,0.6181640625,0.4130859375,0.9931640625,0.4130859375H6.5625c0.5185546875,0,0.9375,-0.4189453125,0.9375,-0.9375s-0.4189453125,-0.9375,-0.9375,-0.9375zM1.875,3.75c0.7763671875,0,1.40625,-0.6298828125,1.40625,-1.40625S2.6513671875,0.9375,1.875,0.9375S0.46875,1.5673828125,0.46875,2.34375s0.6298828125,1.40625,1.40625,1.40625zm6.5625,-2.8125l0.9228515625,6.5361328125l-0.9052734375,4.529296875c-0.1259765625,0.6328125,0.380859375,1.1220703125,0.919921875,1.1220703125c0.4453125,0,0.8203125,-0.2666015625,0.9462890624999999,-0.890625c0.0263671875,0.49511718749999994,0.427734375,0.890625,0.9287109375,0.890625c0.5185546875,0,0.9375,-0.4189453125,0.9375,-0.9375c0,0.5185546875,0.4189453125,0.9375,0.9375,0.9375s0.9375,-0.4189453125,0.9375,-0.9375V0H8.4375v0.9375zm-2.8125,0v4.6875h1.875V0h-0.9375c-0.5185546875,0,-0.9375,0.4189453125,-0.9375,0.9375zM15.9375,0h-0.9375v14.53125c0,0.2578125,0.2109375,0.46875,0.46875,0.46875h0.9375c0.2578125,0,0.46875,-0.2109375,0.46875,-0.46875V0.9375c0,-0.5185546875,-0.4189453125,-0.9375,-0.9375,-0.9375z" fill="#FFFFFF"/>
    </svg>