<svg version="1.1" xmlns="http://www.w3.org/2000/svg" xlink="http://www.w3.org/1999/xlink" x="0px" y="0px" width="15px" height="15px" viewBox="0 0 15 15" style="enable-background:new 0 0 15 15;" space="preserve"><path d="M3.7713867187499996,5.7222656249999995l-2.42607421875,-1.51640625c-0.235546875,-0.1470703125,-0.5563476562499999,-0.06357421875,-0.67177734375,0.18896484375A7.44697265625,7.44697265625,0,0,0,0.015820312500000003,7.01015625C-0.00146484375,7.27646484375,0.22236328125,7.5,0.48896484375000004,7.5h2.8456054687499996c0.233203125,0,0.4125,-0.18310546875,0.43974609375,-0.41484375c0.03193359375,-0.27333984375,0.094921875,-0.53701171875,0.18281250000000002,-0.7892578125c0.075,-0.2150390625,0.00732421875,-0.4529296875,-0.1857421875,-0.5736328125zM9.34658203125,0.234375C8.755664062500001,0.0826171875,8.137792968749999,0,7.5,0s-1.2556640625,0.0826171875,-1.84658203125,0.234375c-0.26865234375,0.06884765625,-0.40751953125,0.369140625,-0.30439453125000004,0.62666015625l1.09775390625,3.04775390625A0.46883789062500003,0.46883789062500003,0,0,0,6.8876953125,4.21875h1.224609375c0.19775390625,0,0.37412109374999997,-0.12392578125,0.44091796875,-0.3099609375l1.09775390625,-3.04775390625c0.103125,-0.25751953125,-0.0357421875,-0.5575195312500001,-0.30439453125000004,-0.62666015625zM3.28125,8.4375H0.46875c-0.258984375,0,-0.46875,0.209765625,-0.46875,0.46875v1.875c0,0.258984375,0.209765625,0.46875,0.46875,0.46875h2.8125c0.258984375,0,0.46875,-0.209765625,0.46875,-0.46875v-1.875c0,-0.258984375,-0.209765625,-0.46875,-0.46875,-0.46875zm0,3.75H0.46875c-0.258984375,0,-0.46875,0.209765625,-0.46875,0.46875v1.875c0,0.258984375,0.209765625,0.46875,0.46875,0.46875h2.8125c0.258984375,0,0.46875,-0.209765625,0.46875,-0.46875v-1.875c0,-0.258984375,-0.209765625,-0.46875,-0.46875,-0.46875zm2.26494140625,-8.31064453125l-1.0640625,-2.66015625c-0.10341796874999999,-0.25869140625,-0.41396484375000003,-0.38056640625,-0.6568359375,-0.24345703125a7.5383203125,7.5383203125,0,0,0,-2.09794921875,1.75458984375c-0.17753906249999998,0.21445312500000002,-0.11279296875,0.54140625,0.1236328125,0.6890625l2.42958984375,1.5184570312499999c0.19072265624999998,0.11923828125000001,0.4294921875,0.07675781250000001,0.58916015625,-0.08173828125c0.15175781249999998,-0.15087890625,0.31611328125,-0.28857421875,0.49189453125,-0.41162109375c0.183984375,-0.12919921875,0.26806640625,-0.35654296875,0.1845703125,-0.5651367187499999zM11.6654296875,7.5h2.8456054687499996c0.2666015625,0,0.49042968749999993,-0.22353515625,0.47314453124999994,-0.48984374999999997a7.445361328124999,7.445361328124999,0,0,0,-0.65771484375,-2.61533203125c-0.1154296875,-0.25253906249999997,-0.43623046875000004,-0.33603515625,-0.67177734375,-0.18896484375l-2.42607421875,1.51640625c-0.19306640625,0.12070312500000001,-0.2607421875,0.35859375,-0.1857421875,0.5736328125c0.08818359375,0.25224609374999996,0.15087890625,0.5162109375,0.18281250000000002,0.7892578125c0.027246093750000002,0.23173828125,0.20654296875,0.41484375,0.43974609375,0.41484375zm1.60693359375,-4.77216796875a7.5383203125,7.5383203125,0,0,0,-2.09794921875,-1.75458984375c-0.24257812499999998,-0.13710937499999998,-0.553125,-0.015234375000000001,-0.6568359375,0.24345703125l-1.0640625,2.66015625c-0.08349609375,0.20859375,0.0005859375,0.43593750000000003,0.1845703125,0.5648437500000001c0.17578125,0.123046875,0.34013671874999996,0.2607421875,0.49189453125,0.41162109375c0.15937500000000002,0.15849609375,0.3984375,0.2009765625,0.58916015625,0.08173828125l2.42958984375,-1.5184570312499999c0.23642578125000002,-0.14736328125,0.30146484375,-0.47431640625000004,0.1236328125,-0.6887695312500001zM14.53125,8.4375h-2.8125c-0.258984375,0,-0.46875,0.209765625,-0.46875,0.46875v1.875c0,0.258984375,0.209765625,0.46875,0.46875,0.46875h2.8125c0.258984375,0,0.46875,-0.209765625,0.46875,-0.46875v-1.875c0,-0.258984375,-0.209765625,-0.46875,-0.46875,-0.46875zm0,3.75h-2.8125c-0.258984375,0,-0.46875,0.209765625,-0.46875,0.46875v1.875c0,0.258984375,0.209765625,0.46875,0.46875,0.46875h2.8125c0.258984375,0,0.46875,-0.209765625,0.46875,-0.46875v-1.875c0,-0.258984375,-0.209765625,-0.46875,-0.46875,-0.46875zM7.03125,5.2037109375V13.828125c0,0.1294921875,0.1048828125,0.234375,0.234375,0.234375h0.46875c0.1294921875,0,0.234375,-0.1048828125,0.234375,-0.234375V5.2037109375c-0.15322265625,-0.02607421875,-0.30820312499999997,-0.0474609375,-0.46875,-0.0474609375s-0.31552734374999997,0.02138671875,-0.46875,0.0474609375zm-1.875,1.21611328125V13.828125c0,0.1294921875,0.1048828125,0.234375,0.234375,0.234375h0.46875c0.1294921875,0,0.234375,-0.1048828125,0.234375,-0.234375V5.54765625c-0.3744140625,0.21826171875,-0.6984375,0.5118164062499999,-0.9375,0.87216796875zm3.75,-0.87216796875V13.828125c0,0.1294921875,0.1048828125,0.234375,0.234375,0.234375h0.46875c0.1294921875,0,0.234375,-0.1048828125,0.234375,-0.234375V6.41982421875c-0.2390625,-0.3603515625,-0.5630859374999999,-0.65390625,-0.9375,-0.87216796875z" fill="#FFFFFF"/></svg>