<svg version="1.1" xmlns="http://www.w3.org/2000/svg" xlink="http://www.w3.org/1999/xlink" x="0px" y="0px" width="15px" height="15px" viewBox="0 0 15 15" style="enable-background:new 0 0 15 15;" space="preserve">
    <path d="M9.68759765625,7.70859375V5.080078125l-1.54541015625,-0.7095703124999999C6.42890625,6.408984374999999,5.7884765625000005,11.71875,1.640625,11.71875a1.640625,1.640625,0,0,0,0,3.28125c6.2296875,0,10.85888671875,-3.5997070312500004,12.2806640625,-6.1623046875l-1.08544921875,-1.1291015625zm3.8405273437500003,-3.7608398437500004C14.4703125,2.1946289062499997,13.9798828125,0.77578125,13.4361328125,0.087890625a0.234375,0.234375,0,0,0,-0.34951171875,-0.01728515625l-0.6708984375,0.673828125a0.2361328125,0.2361328125,0,0,0,-0.02607421875,0.29970703125000003c0.2009765625,0.30351562499999996,0.49951171875,1.0283203125,-0.041015625,2.11875A4.18505859375,4.18505859375,0,0,0,10.674023437499999,2.8125c-0.8203125,0,-1.58203125,0.2501953125,-2.2365234375000003,0.66181640625l2.18759765625,1.00458984375v2.2921875h2.6100585937500003L14.837109375,8.4375c0.0955078125,-0.36972656249999997,0.16289062499999998,-0.75087890625,0.16289062499999998,-1.1516601562500002a4.51171875,4.51171875,0,0,0,-1.471875,-3.3380859375z" fill="#FFFFFF"/>
    </svg>