<svg version="1.1" xmlns="http://www.w3.org/2000/svg" xlink="http://www.w3.org/1999/xlink" x="0px" y="0px" width="15px" height="12px" viewBox="0 0 15 12" style="enable-background:new 0 0 15 15;" space="preserve">
    <path d="M14.360156250000001,8.219531250000001l-0.21796875000000002,-0.17343750000000002c-0.16171875000000002,-0.12890625,-0.3984375,-0.10312500000000001,-0.52734375,0.05859375l-0.234375,0.29296875c-0.12890625,0.16171875000000002,-0.10312500000000001,0.3984375,0.05859375,0.52734375l0.21796875000000002,0.17343750000000002c0.13828125,0.11015625000000001,0.215625,0.27421875,0.215625,0.45c0,0.31875000000000003,-0.2578125,0.5765625,-0.5765625,0.5765625H1.125c-0.20625000000000002,0,-0.375,0.16875,-0.375,0.375v0.375c0,0.20625000000000002,0.16875,0.375,0.375,0.375h12.09375c0.9140625,0,1.7273437500000002,-0.68671875,1.7789062500000001,-1.60078125c0.0328125,-0.5578125,-0.20390625,-1.08515625,-0.6375000000000001,-1.4296875zM0.75,5.25c0,1.396875,0.95859375,2.559375,2.25,2.89453125V9.375h1.5v-1.125h4.5v1.125h1.5v-1.125c1.2421875,0,2.25,-1.0078125,2.25,-2.25v-2.25c0.41484375,0,0.75,-0.33515625000000004,0.75,-0.75s-0.33515625000000004,-0.75,-0.75,-0.75h-2.25v1.5c0,0.82734375,-0.6726562500000001,1.5,-1.5,1.5h-0.48515625c-1.5421875,0,-2.9507812500000004,-0.8718750000000001,-3.6398437500000003,-2.25c-0.6890625,-1.378125,-2.1,-2.25,-3.6398437500000003,-2.25H0.75C0.33515625000000004,0.75,0,1.08515625,0,1.5s0.33515625000000004,0.75,0.75,0.75v3z" fill="#FFFFFF"/>
    </svg>