<svg version="1.1" xmlns="http://www.w3.org/2000/svg" xlink="http://www.w3.org/1999/xlink" x="0px" y="0px" width="15px" height="15px" viewBox="0 0 15 15" style="enable-background:new 0 0 15 15;" space="preserve">
    <path d="M14.765625,7.5c0,4.012705078125,-3.2529199218750002,7.265625,-7.265625,7.265625S0.234375,11.512705078125,0.234375,7.5S3.4872949218750002,0.234375,7.5,0.234375s7.265625,3.2529199218750002,7.265625,7.265625zm-1.40625,0l-0.000087890625,-0.008261718749999999l-0.76359375,0.666240234375l-1.8362988281250001,-1.7138671875l0.48205078125,-2.471337890625l1.004970703125,0.09c-0.729169921875,-1.002421875,-1.7579296875,-1.760419921875,-2.950458984375,-2.142802734375l0.399931640625,0.935712890625L7.5,4.072265625l-2.195888671875,-1.216552734375l0.399931640625,-0.935712890625c-1.190361328125,0.38167968750000003,-2.2201171875,1.13876953125,-2.950458984375,2.142802734375l1.0126464843749998,-0.090029296875l0.474375,2.471337890625l-1.83626953125,1.7138671875l-0.76359375,-0.666240234375l-0.000087890625,0.008261718749999999c0,1.260205078125,0.39541992187499997,2.45953125,1.127109375,3.456767578125l0.225703125,-0.993076171875l2.4942773437500003,0.30606445312499997l1.063505859375,2.2800585937499998l-0.8760351562500001,0.52107421875c1.17779296875,0.38443359374999997,2.4694335937500003,0.3851953125,3.6495703125,0l-0.8760351562500001,-0.52107421875l1.063505859375,-2.2800585937499998l2.4942773437500003,-0.30606445312499997l0.225703125,0.993076171875C12.963955078125,9.95953125,13.359375,8.760205078124999,13.359375,7.5zm-7.26861328125,2.038212890625l-0.8758007812499999,-2.67515625L7.5,5.2069921875l2.2850390624999997,1.656064453125l-0.86783203125,2.67515625h-2.8264453124999998z" fill="#FFFFFF"/>
    </svg>