<svg version="1.1" xmlns="http://www.w3.org/2000/svg" xlink="http://www.w3.org/1999/xlink" x="0px" y="0px" width="16.875px" height="15px" viewBox="0 0 16.875 15" style="enable-background:new 0 0 15 15;" space="preserve">
    <path d="M15.21802734375,8.456572265625c-1.216376953125,0,-1.7431640625,0.925576171875,-2.4040429687500002,0.925576171875C11.056904296875,9.382148437500001,12.65625,4.21875,12.65625,4.21875s-5.750625,2.34375,-5.750625,-0.09659179687500001c0,-1.049619140625,1.0631249999999999,-1.35498046875,1.0631249999999999,-2.519091796875C7.96875,0.56296875,7.145068359374999,0,6.168134765625,0c-1.0152539062500001,0,-1.94431640625,0.5534472656249999,-1.94431640625,1.6507617187499999c0,1.2118359374999998,0.9290332031249999,1.736630859375,0.9290332031249999,2.39501953125C5.152880859374999,6.085517578125,0,4.885488281250001,0,4.885488281250001v9.762802734375s5.233447265624999,1.2025488281249999,5.233447265624999,-0.83970703125c0,-0.6583886718749999,-1.171875,-1.175009765625,-1.171875,-2.386845703125c0,-1.09734375,0.85693359375,-1.6507617187499999,1.862607421875,-1.6507617187499999c0.986513671875,0,1.8101953124999999,0.56296875,1.8101953124999999,1.603037109375c0,1.164111328125,-1.0631249999999999,1.46947265625,-1.0631249999999999,2.519091796875c0,1.781337890625,3.7990722656250004,0.75380859375,5.30947265625,0.75380859375c0,0,-1.017333984375,-3.5185839843749998,0.7566503906250001,-3.5185839843749998c1.0535742187500001,0,1.360048828125,1.059140625,2.5285546875000002,1.059140625C16.309921875,12.1875,16.875,11.36689453125,16.875,10.384072265624999c0,-1.001923828125,-0.55552734375,-1.9275,-1.65697265625,-1.9275z" fill="#FFFFFF"/>
    </svg>