<svg version="1.1" xmlns="http://www.w3.org/2000/svg" xlink="http://www.w3.org/1999/xlink" x="0px" y="0px" width="15px" height="12px" viewBox="0 0 15 12" style="enable-background:new 0 0 15 15;" space="preserve"><path d="M13.889156250000001,4.88071875C13.1187890625,4.51959375,12.088523437500001,4.3125,11.0625,4.3125H4.3670390625c-0.1160625,-0.1536328125,-0.24808593750000002,-0.280734375,-0.391875,-0.375H8.8125C5.3708671875,3.2284453125000003,5.1422578125,0.75,2.2500703125,0.75H2.25v3H1.875V0.75c-0.621328125,0,-1.125,0.671578125,-1.125,1.5v1.5c-0.5436796875,0,-0.75,0.235125,-0.75,0.5625v0.9375c0,0.3277265625,0.2066953125,0.5625,0.75,0.5625v0.375c-0.5436796875,0,-0.75,0.235125,-0.75,0.5625v0.9375c0,0.3277265625,0.2066953125,0.5625,0.75,0.5625v1.5c0,0.8284218749999999,0.503671875,1.5,1.125,1.5V8.25h0.375v3h0.00007031250000000001c2.8921875000000004,0,3.120796875,-2.4784453125,6.5624296875,-3.1875H3.975140625c0.1437890625,-0.094265625,0.2758125,-0.2213671875,0.391875,-0.375H11.0625c1.0260234375000001,0,2.0562890625,-0.20709375000000002,2.82665625,-0.56821875C14.584734375,6.793242187500001,15,6.374812500000001,15,6s-0.41526562499999997,-0.7932421875,-1.11084375,-1.11928125zM11.4375,6.9375a0.1875,0.1875,0,0,1,-0.1875,-0.1875v-1.5a0.1875,0.1875,0,0,1,0.1875,-0.1875c0.7478671875,0,0.748640625,1.875,0,1.875z" fill="#FFFFFF"/></svg>