<svg version="1.1" xmlns="http://www.w3.org/2000/svg" xlink="http://www.w3.org/1999/xlink" x="0px" y="0px" width="15px" height="13.333333333333332px" viewBox="0 0 15 13.333333333333332" style="enable-background:new 0 0 15 15;" space="preserve">
    <path d="M10.833333333333334,5c0,-2.3020833333333335,-2.4244791666666665,-4.166666666666667,-5.416666666666667,-4.166666666666667S0,2.6979166666666665,0,5c0,0.8932291666666666,0.3671875,1.7161458333333335,0.9895833333333334,2.3958333333333335c-0.34895833333333337,0.7864583333333334,-0.9244791666666667,1.4114583333333335,-0.9322916666666666,1.4192708333333335c-0.05729166666666667,0.05989583333333333,-0.07291666666666667,0.1484375,-0.0390625,0.2265625S0.125,9.166666666666668,0.20833333333333334,9.166666666666668c0.9531250000000001,0,1.7421875000000002,-0.32031250000000006,2.3098958333333335,-0.6510416666666667c0.8385416666666667,0.4088541666666667,1.8307291666666667,0.6510416666666667,2.8984375,0.6510416666666667c2.9921875000000004,0,5.416666666666667,-1.8645833333333333,5.416666666666667,-4.166666666666667zm3.1770833333333335,5.729166666666667c0.6223958333333334,-0.6770833333333334,0.9895833333333334,-1.5026041666666667,0.9895833333333334,-2.3958333333333335c0,-1.7421875000000002,-1.3932291666666667,-3.234375,-3.3671875000000004,-3.8567708333333335c0.0234375,0.171875,0.03385416666666667,0.3463541666666667,0.03385416666666667,0.5234375000000001c0,2.7578125000000004,-2.8046875,5,-6.25,5c-0.28125000000000006,0,-0.5546875,-0.020833333333333336,-0.8255208333333334,-0.049479166666666664C5.411458333333334,11.447916666666668,7.338541666666667,12.5,9.583333333333334,12.5c1.0677083333333335,0,2.0598958333333335,-0.23958333333333331,2.8984375,-0.6510416666666667c0.5677083333333334,0.3307291666666667,1.3567708333333335,0.6510416666666667,2.3098958333333335,0.6510416666666667c0.08333333333333334,0,0.15885416666666666,-0.049479166666666664,0.19010416666666666,-0.125c0.03385416666666667,-0.07552083333333333,0.018229166666666668,-0.1640625,-0.0390625,-0.2265625c-0.0078125,-0.0078125,-0.5833333333333334,-0.6302083333333334,-0.9322916666666666,-1.4192708333333335z" fill="#FFFFFF"/>
    </svg>