<svg version="1.1" xmlns="http://www.w3.org/2000/svg" xlink="http://www.w3.org/1999/xlink" x="0px" y="0px" width="15px" height="15px" viewBox="0 0 15 15" style="enable-background:new 0 0 15 15;" space="preserve"><path d="M7.125,5.5634765625V7.55859375c0.7646484375,0.1728515625,1.4443359375,0.45703125,2.15625,0.6533203125v-1.998046875c-0.76171875,-0.169921875,-1.447265625,-0.4541015625,-2.15625,-0.650390625zm6.5419921875,-3.603515625c-1.0048828125,0.4658203125,-2.2412109375,0.9345703125,-3.427734375,0.9345703125C8.671875,2.89453125,7.3740234375,1.875,5.3994140625,1.875c-0.732421875,0,-1.3857421875,0.12890625,-1.9921875,0.3515625c0.08203125,-0.2138671875,0.12011718749999999,-0.4453125,0.10546875,-0.69140625C3.4599609375,0.703125,2.77734375,0.03515625,1.9423828125,0C1.0048828125,-0.0380859375,0.234375,0.7119140625,0.234375,1.640625c0,0.556640625,0.2783203125,1.048828125,0.703125,1.3447265625V14.296875c0,0.3896484375,0.3134765625,0.703125,0.703125,0.703125h0.46875c0.3896484375,0,0.703125,-0.3134765625,0.703125,-0.703125v-2.765625c0.8291015625,-0.3544921875,1.86328125,-0.6474609375,3.3515625,-0.6474609375c1.5703125,0,2.865234375,1.01953125,4.83984375,1.01953125c1.412109375,0,2.5400390625,-0.4775390625,3.5888671875,-1.1982421875c0.2548828125,-0.17578125,0.404296875,-0.462890625,0.404296875,-0.7734375V2.8095703125c0.0029296875,-0.6826171875,-0.708984375,-1.13671875,-1.330078125,-0.849609375zM4.96875,9.5361328125c-0.755859375,0.0791015625,-1.46484375,0.24023437499999997,-2.15625,0.48632812500000006v-2.0654296875c0.767578125,-0.2724609375,1.3916015625,-0.439453125,2.15625,-0.509765625zM13.59375,5.595703125c-0.69140625,0.287109375,-1.3564453125,0.5712890625,-2.15625,0.7001953125V8.37890625c0.7265625,-0.099609375,1.505859375,-0.345703125,2.15625,-0.76171875v2.0654296875c-0.7353515625,0.47167968750000006,-1.4208984375,0.7236328125,-2.15625,0.7939453125V8.37890625c-0.791015625,0.1083984375,-1.4033203125,0.0439453125,-2.15625,-0.1640625v1.9746093750000002c-0.7001953125,-0.216796875,-1.3857421875,-0.4892578125,-2.15625,-0.6240234375V7.55859375c-0.5771484375,-0.12890625,-1.1953125,-0.19921875,-2.15625,-0.111328125v-2.05078125c-0.65625,0.0908203125,-1.306640625,0.298828125,-2.15625,0.6123046875v-2.0654296875c0.9726562500000001,-0.357421875,1.4677734375,-0.580078125,2.15625,-0.64453125v2.09765625c0.791015625,-0.1083984375,1.41796875,-0.0380859375,2.15625,0.1669921875v-1.9746093750000002c0.6943359375,0.216796875,1.3828125,0.4892578125,2.15625,0.6240234375v2.00390625c0.6943359375,0.1552734375,1.39453125,0.2021484375,2.15625,0.0791015625V4.189453125c0.791015625,-0.140625,1.5322265625,-0.3984375,2.15625,-0.6591796875z" fill="#FFFFFF"/></svg>