<svg version="1.1" xmlns="http://www.w3.org/2000/svg" xlink="http://www.w3.org/1999/xlink" x="0px" y="0px" width="15px" height="13.333333333333332px" viewBox="0 0 15 13.333333333333332" style="enable-background:new 0 0 15 15;" space="preserve">
    <path d="M8.75,2.5c0.6901041666666667,0,1.25,-0.5598958333333334,1.25,-1.25S9.440104166666668,0,8.75,0s-1.25,0.5598958333333334,-1.25,1.25s0.5598958333333334,1.25,1.25,1.25zm5.625,8.333333333333334c-0.34375,0,-0.625,0.2786458333333333,-0.625,0.625c0,0.34375,-0.28125000000000006,0.625,-0.625,0.625h-1.8098958333333335L11.979166666666668,7.437500000000001c0.3046875,-0.12239583333333334,0.5234375000000001,-0.421875,0.5234375000000001,-0.7708333333333334c0,-0.4609375,-0.37239583333333337,-0.8333333333333334,-0.8333333333333334,-0.8333333333333334h-1.1458333333333335L9.84375,4.447916666666667c-0.32552083333333337,-0.6640625,-0.9244791666666667,-1.1510416666666667,-1.609375,-1.3255208333333333L6.380208333333334,2.5703125c-0.7369791666666667,-0.17708333333333334,-1.5052083333333333,-0.013020833333333334,-2.1041666666666665,0.44531250000000006l-1.0338541666666667,0.7916666666666666c-0.36458333333333337,0.2786458333333333,-0.4348958333333333,0.8020833333333334,-0.15364583333333334,1.1692708333333333c0.018229166666666668,0.0234375,0.044270833333333336,0.03385416666666667,0.0625,0.05468750000000001L1.7421875000000002,12.083333333333334H0.625c-0.34375,0,-0.625,0.2786458333333333,-0.625,0.625s0.28125000000000006,0.625,0.625,0.625h12.5c1.0338541666666667,0,1.875,-0.8411458333333333,1.875,-1.875c0,-0.34375,-0.28125000000000006,-0.625,-0.625,-0.625zm-6.783854166666667,1.25h-2.5234375000000004l1.1223958333333335,-2.369791666666667l-0.5729166666666667,-0.3385416666666667c-0.3151041666666667,-0.1875,-0.5703125,-0.44010416666666663,-0.7682291666666667,-0.7239583333333334L3.221354166666667,12.083333333333334H2.5911458333333335l1.3619791666666667,-6.807291666666666c0.10677083333333333,-0.026041666666666668,0.2109375,-0.07552083333333333,0.3046875,-0.14583333333333334l1.0338541666666667,-0.7916666666666666c0.20052083333333334,-0.15364583333333334,0.453125,-0.20833333333333334,0.6588541666666667,-0.15885416666666666l0.3828125,0.11458333333333334l-0.9765625,2.276041666666667c-0.328125,0.7682291666666667,-0.03385416666666667,1.6666666666666667,0.6848958333333334,2.0911458333333335l2.213541666666667,1.3072916666666667l-0.6640625,2.1145833333333335zm2.8802083333333335,0h-1.1354166666666667l0.6145833333333334,-1.9661458333333335c0.15364583333333334,-0.5416666666666667,-0.07552083333333333,-1.1223958333333335,-0.5625000000000001,-1.4166666666666667L7.794270833333334,7.760416666666667l0.8151041666666667,-2.0390625l0.5286458333333334,1.078125c0.20833333333333334,0.4244791666666667,0.6484375,0.7005208333333334,1.1223958333333335,0.7005208333333334h0.8671875l-0.65625,4.583333333333334z" fill="#FFFFFF"/>
    </svg>