<svg version="1.1" xmlns="http://www.w3.org/2000/svg" xlink="http://www.w3.org/1999/xlink" x="0px" y="0px" width="15px" height="13.333333333333332px" viewBox="0 0 15 13.333333333333332" style="enable-background:new 0 0 15 15;" space="preserve">
    <path d="M12.5,5H9.523697916666665L6.7867187499999995,0.20989583333333334A0.41703124999999996,0.41703124999999996,0,0,0,6.424739583333333,0h-1.7057291666666665c-0.2768229166666667,0,-0.4765625,0.26484375,-0.4005208333333333,0.5309895833333333L5.5953124999999995,5H2.9166666666666665l-1.125,-1.5c-0.07864583333333332,-0.10494791666666667,-0.20234375,-0.16666666666666666,-0.3333333333333333,-0.16666666666666666H0.4169270833333334C0.14583333333333331,3.333333333333333,-0.053125,3.5880208333333328,0.012760416666666665,3.8510416666666663L0.8333333333333333,6.666666666666666L0.012760416666666665,9.482291666666667C-0.053125,9.745312499999999,0.14583333333333331,10,0.4169270833333334,10H1.4583333333333333c0.13124999999999998,0,0.25468749999999996,-0.06171875,0.3333333333333333,-0.16666666666666666L2.9166666666666665,8.333333333333332h2.6786458333333334l-1.2768229166666667,4.46875c-0.07604166666666666,0.26614583333333336,0.12369791666666666,0.53125,0.4005208333333333,0.53125h1.7057291666666665c0.14947916666666666,0,0.2875,-0.08020833333333334,0.36171875000000003,-0.20989583333333334L9.523697916666665,8.333333333333332H12.5c0.9205729166666666,0,2.5,-0.74609375,2.5,-1.6666666666666665s-1.5794270833333333,-1.6666666666666665,-2.5,-1.6666666666666665z" fill="#FFFFFF"/>
    </svg>