<svg version="1.1" xmlns="http://www.w3.org/2000/svg" xlink="http://www.w3.org/1999/xlink" x="0px" y="0px" width="14.53125px" height="15px" viewBox="0 0 14.53125 15" style="enable-background:new 0 0 15 15;" space="preserve"><path d="M7.265625,0.234375C3.251953125,0.234375,0,3.486328125,0,7.5s3.251953125,7.265625,7.265625,7.265625s7.265625,-3.251953125,7.265625,-7.265625S11.279296875,0.234375,7.265625,0.234375zM2.578125,7.5H1.640625c0,-3.1025390625,2.5224609375,-5.625,5.625,-5.625v0.9375c-2.583984375,0,-4.6875,2.103515625,-4.6875,4.6875zm4.6875,2.8125c-1.552734375,0,-2.8125,-1.259765625,-2.8125,-2.8125s1.259765625,-2.8125,2.8125,-2.8125s2.8125,1.259765625,2.8125,2.8125s-1.259765625,2.8125,-2.8125,2.8125zm0,-3.75c-0.5185546875,0,-0.9375,0.4189453125,-0.9375,0.9375s0.4189453125,0.9375,0.9375,0.9375s0.9375,-0.4189453125,0.9375,-0.9375s-0.4189453125,-0.9375,-0.9375,-0.9375z" fill="#FFFFFF"/></svg>