<svg version="1.1" xmlns="http://www.w3.org/2000/svg" xlink="http://www.w3.org/1999/xlink" x="0px" y="0px" width="15px" height="17.142857142857142px" viewBox="0 0 15 17.142857142857142" style="enable-background:new 0 0 15 15;" space="preserve">
    <path d="M15,12.053571428571429V0.8035714285714286c0,-0.4453125,-0.35825892857142855,-0.8035714285714286,-0.8035714285714286,-0.8035714285714286H3.2142857142857144C1.4397321428571428,0,0,1.4397321428571428,0,3.2142857142857144v10.714285714285714c0,1.7745535714285714,1.4397321428571428,3.2142857142857144,3.2142857142857144,3.2142857142857144h10.982142857142858c0.4453125,0,0.8035714285714286,-0.35825892857142855,0.8035714285714286,-0.8035714285714286v-0.5357142857142857c0,-0.2511160714285714,-0.1171875,-0.47879464285714285,-0.29799107142857145,-0.6261160714285714c-0.140625,-0.515625,-0.140625,-1.9854910714285712,0,-2.5011160714285716c0.18080357142857142,-0.14397321428571427,0.29799107142857145,-0.3716517857142857,0.29799107142857145,-0.6227678571428572zM4.285714285714286,4.486607142857142c0,-0.11049107142857142,0.09040178571428571,-0.20089285714285715,0.20089285714285715,-0.20089285714285715h7.098214285714286c0.11049107142857142,0,0.20089285714285715,0.09040178571428571,0.20089285714285715,0.20089285714285715v0.6696428571428571c0,0.11049107142857142,-0.09040178571428571,0.20089285714285715,-0.20089285714285715,0.20089285714285715H4.486607142857142c-0.11049107142857142,0,-0.20089285714285715,-0.09040178571428571,-0.20089285714285715,-0.20089285714285715v-0.6696428571428571zm0,2.142857142857143c0,-0.11049107142857142,0.09040178571428571,-0.20089285714285715,0.20089285714285715,-0.20089285714285715h7.098214285714286c0.11049107142857142,0,0.20089285714285715,0.09040178571428571,0.20089285714285715,0.20089285714285715v0.6696428571428571c0,0.11049107142857142,-0.09040178571428571,0.20089285714285715,-0.20089285714285715,0.20089285714285715H4.486607142857142c-0.11049107142857142,0,-0.20089285714285715,-0.09040178571428571,-0.20089285714285715,-0.20089285714285715v-0.6696428571428571zm8.484375,8.370535714285714H3.2142857142857144c-0.5926339285714285,0,-1.0714285714285714,-0.47879464285714285,-1.0714285714285714,-1.0714285714285714c0,-0.5892857142857143,0.48214285714285715,-1.0714285714285714,1.0714285714285714,-1.0714285714285714h9.555803571428571c-0.06361607142857142,0.5725446428571429,-0.06361607142857142,1.5703125,0,2.142857142857143z" fill="#FFFFFF"/>
    </svg>