<svg version="1.1" xmlns="http://www.w3.org/2000/svg" xlink="http://www.w3.org/1999/xlink" x="0px" y="0px" width="15px" height="13.333333333333332px" viewBox="0 0 15 13.333333333333332" style="enable-background:new 0 0 15 15;" space="preserve">
    <path d="M13.527135416666667,7.516953125000001c-1.0812239583333334,0,-1.5494791666666667,0.822734375,-2.1369270833333336,0.822734375C9.828359375,8.339687500000002,11.25,3.75,11.25,3.75s-5.111666666666667,2.0833333333333335,-5.111666666666667,-0.085859375c0,-0.9329947916666667,0.945,-1.2044270833333335,0.945,-2.2391927083333334C7.083333333333334,0.5004166666666667,6.351171875,0,5.482786458333333,0c-0.9024479166666668,0,-1.72828125,0.491953125,-1.72828125,1.46734375c0,1.0771875,0.8258072916666667,1.543671875,0.8258072916666667,2.12890625C4.580338541666666,5.409348958333333,0,4.34265625,0,4.34265625v8.678046875000001s4.651953125,1.0689322916666666,4.651953125,-0.74640625c0,-0.585234375,-1.0416666666666667,-1.044453125,-1.0416666666666667,-2.1216406250000004c0,-0.9754166666666668,0.76171875,-1.46734375,1.6556510416666668,-1.46734375c0.8769010416666667,0,1.6090625,0.5004166666666667,1.6090625,1.4249218750000001c0,1.0347656250000001,-0.945,1.3061979166666668,-0.945,2.2391927083333334c0,1.5834114583333334,3.3769531250000004,0.6700520833333333,4.71953125,0.6700520833333333c0,0,-0.9042968750000001,-3.1276302083333336,0.672578125,-3.1276302083333336c0.9365104166666668,0,1.2089322916666667,0.9414583333333334,2.247604166666667,0.9414583333333334C14.497708333333334,10.833333333333334,15,10.103906250000001,15,9.230286458333333c0,-0.8905989583333334,-0.49380208333333336,-1.7133333333333334,-1.4728645833333334,-1.7133333333333334z" fill="#FFFFFF"/>
    </svg>