<svg version="1.1" xmlns="http://www.w3.org/2000/svg" xlink="http://www.w3.org/1999/xlink" x="0px" y="0px" width="15px" height="12px" viewBox="0 0 15 12" style="enable-background:new 0 0 15 15;" space="preserve"><path d="M10.885781249999999,5.7815625L8.25,4.199999999999999V3h1.125c0.2071875,0,0.375,-0.1678125,0.375,-0.375V1.875c0,-0.2071875,-0.1678125,-0.375,-0.375,-0.375h-1.125V0.375c0,-0.2071875,-0.1678125,-0.375,-0.375,-0.375h-0.75c-0.2071875,0,-0.375,0.1678125,-0.375,0.375v1.125h-1.125c-0.2071875,0,-0.375,0.1678125,-0.375,0.375v0.75c0,0.2071875,0.1678125,0.375,0.375,0.375h1.125v1.2000000000000002l-2.63578125,1.5815625A0.7499296875,0.7499296875,0,0,0,3.75,6.4246875V12h2.25v-2.25c0,-0.8285156250000001,0.6714843749999999,-1.5,1.5,-1.5s1.5,0.6714843749999999,1.5,1.5v2.25h2.25V6.4246875c0,-0.2634375,-0.13828125000000002,-0.50765625,-0.36421875,-0.6431250000000001zM0,9.280312499999999V11.625c0,0.2071875,0.1678125,0.375,0.375,0.375h2.625V7.5L0.454453125,8.590781250000001A0.7505625,0.7505625,0,0,0,0,9.280312499999999zm14.545546875,-0.68953125L12,7.5v4.5h2.625c0.2071875,0,0.375,-0.1678125,0.375,-0.375V9.280312499999999c0,-0.30000000000000004,-0.178828125,-0.571171875,-0.454453125,-0.68953125z" fill="#FFFFFF"/></svg>