<svg version="1.1" xmlns="http://www.w3.org/2000/svg" xlink="http://www.w3.org/1999/xlink" x="0px" y="0px" width="16.875px" height="15px" viewBox="0 0 16.875 15" style="enable-background:new 0 0 15 15;" space="preserve">
    <path d="M9.5830078125,2.8125c-2.63583984375,0,-4.9376953125,1.6045898437500001,-6.21884765625,2.9774414062499996L0.8056640625,3.8548828125000005c-0.35537109375000003,-0.2689453125,-0.8859374999999999,0.017578125,-0.7951171875,0.4294921875L0.7189453124999999,7.5L0.01025390625,10.715917968749999c-0.0908203125,0.4119140625,0.43974609375,0.69814453125,0.7951171875,0.4294921875l2.55849609375,-1.93505859375C4.64501953125,10.582910156250001,6.94716796875,12.1875,9.5830078125,12.1875C13.61015625,12.1875,16.875,8.4375,16.875,7.5S13.61015625,2.8125,9.5830078125,2.8125zm2.56142578125,5.390625c-0.38818359375,0,-0.703125,-0.31494140625,-0.703125,-0.703125c0,-0.3884765625,0.31494140625,-0.703125,0.703125,-0.703125c0.3884765625,0,0.703125,0.3146484375,0.703125,0.703125c0,0.38818359375,-0.31494140625,0.703125,-0.703125,0.703125z" fill="#FFFFFF"/>
    </svg>