<svg version="1.1" xmlns="http://www.w3.org/2000/svg" xlink="http://www.w3.org/1999/xlink" x="0px" y="0px" width="16.875px" height="15px" viewBox="0 0 16.875 15" style="enable-background:new 0 0 15 15;" space="preserve">
    <path d="M3.75,4.6875h9.375v5.625H3.75V4.6875zm11.71875,2.8125c0,0.7766601562500001,0.6295898437499999,1.40625,1.40625,1.40625v2.8125c0,0.7766601562500001,-0.6295898437499999,1.40625,-1.40625,1.40625H1.40625c-0.7766601562500001,0,-1.40625,-0.6295898437499999,-1.40625,-1.40625v-2.8125c0.7766601562500001,0,1.40625,-0.6295898437499999,1.40625,-1.40625s-0.6295898437499999,-1.40625,-1.40625,-1.40625v-2.8125c0,-0.7766601562500001,0.6295898437499999,-1.40625,1.40625,-1.40625h14.0625c0.7766601562500001,0,1.40625,0.6295898437499999,1.40625,1.40625v2.8125c-0.7766601562500001,0,-1.40625,0.6295898437499999,-1.40625,1.40625zm-1.40625,-3.046875c0,-0.38833007812500003,-0.31479492187499997,-0.703125,-0.703125,-0.703125H3.515625c-0.38833007812500003,0,-0.703125,0.31479492187499997,-0.703125,0.703125v6.09375c0,0.38833007812500003,0.31479492187499997,0.703125,0.703125,0.703125h9.84375c0.38833007812500003,0,0.703125,-0.31479492187499997,0.703125,-0.703125V4.453125z" fill="#FFFFFF"/>
    </svg>