<svg version="1.1" xmlns="http://www.w3.org/2000/svg" xlink="http://www.w3.org/1999/xlink" x="0px" y="0px" width="15px" height="20px" viewBox="0 0 15 20" style="enable-background:new 0 0 15 15;" space="preserve">
    <path d="M4.6875,2.8125c0,-1.5533203125,1.2591796875,-2.8125,2.8125,-2.8125s2.8125,1.2591796875,2.8125,2.8125c0,1.5532812500000002,-1.2591796875,2.8125,-2.8125,2.8125s-2.8125,-1.2592187499999998,-2.8125,-2.8125zm9.9463671875,0.0536328125c-0.48812500000000003,-0.4881640625,-1.2796093750000002,-0.4881640625,-1.7677343749999999,0L9.4822265625,6.25H5.517734375L2.1338671875,2.8661328125c-0.48812500000000003,-0.4881640625,-1.2796093750000002,-0.4881640625,-1.7677343749999999,0c-0.4881640625,0.4881640625,-0.4881640625,1.2796093750000002,0,1.7677734375L4.0625,8.330234375V18.75c0,0.6903515625,0.5596484375,1.25,1.25,1.25h0.625c0.6903515625,0,1.25,-0.5596484375,1.25,-1.25V14.375h0.625v4.375c0,0.6903515625,0.5596484375,1.25,1.25,1.25h0.625c0.6903515625,0,1.25,-0.5596484375,1.25,-1.25V8.330234375l3.6963671875,-3.6963671875c0.4881640625,-0.4881640625,0.4881640625,-1.2795703125,0,-1.7677343749999999z" fill="#FFFFFF"/>
    </svg>