<svg version="1.1" xmlns="http://www.w3.org/2000/svg" xlink="http://www.w3.org/1999/xlink" x="0px" y="0px" width="15px" height="13.333333333333332px" viewBox="0 0 15 13.333333333333332" style="enable-background:new 0 0 15 15;" space="preserve">
    <path d="M5.701041666666666,8.760156249999998c0.90859375,-0.90859375,1.1510416666666665,-1.5546875,1.4075520833333333,-2.239583333333333c0.2763020833333333,-0.7367187499999999,0.5622395833333333,-1.4984374999999999,1.598177083333333,-2.5348958333333336s1.7981770833333333,-1.3221354166666668,2.53515625,-1.5984375c0.621875,-0.234375,1.2145833333333333,-0.46041666666666664,1.9997395833333336,-1.1815104166666666L12.260677083333333,0.23203125a0.8072916666666666,0.8072916666666666,0,0,0,-1.0463541666666667,-0.07369791666666667c-0.35520833333333335,0.2630208333333333,-0.6549479166666666,0.37473958333333335,-1.0677083333333333,0.5286458333333333C6.432291666666666,2.0708333333333333,5.4494791666666655,4.981510416666667,5.225260416666666,5.575520833333333c-0.7747395833333333,2.052864583333333,-2.33203125,2.4656249999999997,-2.5708333333333333,2.5544270833333336c-0.6473958333333333,0.24114583333333334,-1.4252604166666665,0.5307291666666666,-2.3716145833333333,1.3114583333333332C-0.078125,9.739583333333332,-0.09453124999999998,10.286458333333332,0.23619791666666667,10.61484375l0.9312499999999999,0.9247395833333333C2.083333333333333,10.690624999999999,2.786458333333333,10.420572916666666,3.4635416666666665,10.166406249999998c0.6841145833333333,-0.25625,1.3296875000000001,-0.4979166666666667,2.2375,-1.40625zm9.0625,-6.041666666666666l-0.9309895833333333,-0.9247395833333333c-0.9164062499999998,0.8497395833333333,-1.6192708333333332,1.1197916666666665,-2.298177083333333,1.3747395833333333c-0.6838541666666667,0.25651041666666663,-1.3296875000000001,0.4989583333333333,-2.23828125,1.40625s-1.1507812499999999,1.5544270833333331,-1.40625,2.239583333333333C7.612760416666666,7.552083333333333,7.326562499999999,8.313020833333333,6.290364583333333,9.348958333333332s-1.796875,1.3210937499999997,-2.5338541666666665,1.5968749999999998c-0.6213541666666665,0.234375,-1.2138020833333332,0.4598958333333333,-1.9979166666666666,1.1804687499999997l0.9812500000000001,0.9747395833333333a0.8072916666666666,0.8072916666666666,0,0,0,1.0463541666666667,0.07343749999999999c0.35416666666666663,-0.26197916666666665,0.6533854166666667,-0.3734375,1.0661458333333331,-0.5270833333333332c3.703125,-1.3802083333333333,4.6875,-4.2734375,4.9203125,-4.887760416666667C10.546875,5.7078125,12.104166666666666,5.294270833333333,12.34375,5.2046874999999995c0.6476562499999999,-0.24140624999999996,1.4255208333333333,-0.53125,2.37265625,-1.3127604166666667c0.36171875000000003,-0.296875,0.37812499999999993,-0.8450520833333334,0.04739583333333333,-1.1731770833333333z" fill="#FFFFFF"/>
    </svg>