<svg version="1.1" xmlns="http://www.w3.org/2000/svg" xlink="http://www.w3.org/1999/xlink" x="0px" y="0px" width="15px" height="15px" viewBox="0 0 15 15" style="enable-background:new 0 0 15 15;" space="preserve"><path d="M4.5908203125,7.5H0.46875c-0.2578125,0,-0.46875,0.2109375,-0.46875,0.46875v0.9375c0,0.2578125,0.2109375,0.46875,0.46875,0.46875h4.166015625c0.4658203125,0,0.90234375,0.3193359375,0.978515625,0.779296875c0.0966796875,0.5859375,-0.3544921875,1.095703125,-0.92578125,1.095703125c-0.4130859375,0,-0.7646484375,-0.26953125,-0.890625,-0.6416015625c-0.0615234375,-0.1845703125,-0.251953125,-0.2958984375,-0.4453125,-0.2958984375H2.390625c-0.287109375,0,-0.5185546875,0.2578125,-0.4658203125,0.5390625c0.251953125,1.2919921875,1.39453125,2.2734375,2.759765625,2.2734375c1.6728515625,0,3.0087890625,-1.4677734375,2.7890625,-3.181640625C7.294921875,8.525390625,6.017578125,7.5,4.5908203125,7.5zM0.46875,6.5625h9.84375c1.7490234375,0,3.12890625,-1.60546875,2.748046875,-3.4189453125c-0.22265625,-1.060546875,-1.0810546875,-1.9189453125,-2.1416015625,-2.1416015625c-1.623046875,-0.33984375,-3.0791015625,0.7294921875,-3.3662109375,2.2119140625c-0.0556640625,0.28125,0.1787109375,0.5361328125,0.462890625,0.5361328125h0.9609374999999999c0.1962890625,0,0.3837890625,-0.111328125,0.4453125,-0.2958984375C9.5478515625,3.08203125,9.8994140625,2.8125,10.3125,2.8125c0.568359375,0,1.0224609375,0.509765625,0.92578125,1.095703125c-0.076171875,0.4599609375,-0.509765625,0.779296875,-0.978515625,0.779296875H0.46875c-0.2578125,0,-0.46875,0.2109375,-0.46875,0.46875v0.9375c0,0.2578125,0.2109375,0.46875,0.46875,0.46875zm11.25,0.9375H7.1396484375c0.5654296875,0.48632812500000006,0.9726562500000001,1.13671875,1.166015625,1.875H11.71875c0.7763671875,0,1.40625,0.6298828125,1.40625,1.40625s-0.6298828125,1.40625,-1.40625,1.40625c-0.5244140625,0,-0.9755859374999999,-0.2900390625,-1.21875,-0.71484375c-0.0849609375,-0.146484375,-0.2548828125,-0.22265625,-0.4248046875,-0.22265625h-0.9902343749999999c-0.3193359375,0,-0.556640625,0.31640625,-0.4482421875,0.6181640625c0.521484375,1.482421875,2.0654296875,2.484375,3.791015625,2.1181640625c1.20703125,-0.2548828125,2.2001953125,-1.21875,2.4814453125,-2.4228515625C15.41015625,9.4189453125,13.7841796875,7.5,11.71875,7.5z" fill="#FFFFFF"/></svg>