<svg version="1.1" xmlns="http://www.w3.org/2000/svg" xlink="http://www.w3.org/1999/xlink" x="0px" y="0px" width="15px" height="15px" viewBox="0 0 15 15" style="enable-background:new 0 0 15 15;" space="preserve"><path d="M12.1875,11.25H4.6875c-1.03564453125,0,-1.875,0.83935546875,-1.875,1.875v0.9375c0,0.51767578125,0.41982421875,0.9375,0.9375,0.9375h9.375c0.51767578125,0,0.9375,-0.41982421875,0.9375,-0.9375v-0.9375c0,-1.03564453125,-0.83935546875,-1.875,-1.875,-1.875zm-3.75,2.8125c-0.51767578125,0,-0.9375,-0.41982421875,-0.9375,-0.9375s0.41982421875,-0.9375,0.9375,-0.9375s0.9375,0.41982421875,0.9375,0.9375s-0.41982421875,0.9375,-0.9375,0.9375zm1.171875,-12.1875h4.8791015625L15,0H1.40625C0.6295898437499999,0,0,0.6295898437499999,0,1.40625v4.6875c0,0.7766601562500001,0.6295898437499999,1.40625,1.40625,1.40625h3.02548828125l0.25576171875000003,2.8125h7.5l0.5115234375000001,-1.875H9.609375c-0.1294921875,0,-0.234375,-0.1048828125,-0.234375,-0.234375v-0.46875c0,-0.1294921875,0.1048828125,-0.234375,0.234375,-0.234375h3.3451171875l0.5115234375000001,-1.875H9.609375c-0.1294921875,0,-0.234375,-0.1048828125,-0.234375,-0.234375v-0.46875c0,-0.1294921875,0.1048828125,-0.234375,0.234375,-0.234375h4.112109375l0.5115234375000001,-1.875H9.609375c-0.1294921875,0,-0.234375,-0.1048828125,-0.234375,-0.234375V2.109375c0,-0.1294921875,0.1048828125,-0.234375,0.234375,-0.234375zM1.875,5.625V1.875h2.0455078125l0.34101562500000004,3.75H1.875z" fill="#FFFFFF"/></svg>