<svg version="1.1" xmlns="http://www.w3.org/2000/svg" xlink="http://www.w3.org/1999/xlink" x="0px" y="0px" width="15px" height="13.333333333333332px" viewBox="0 0 15 13.333333333333332" style="enable-background:new 0 0 15 15;" space="preserve">
    <path d="M8.518229166666668,2.5c-2.3429687500000003,0,-4.3890625,1.4263020833333335,-5.527864583333334,2.646614583333333L0.7161458333333334,3.4265625000000006c-0.3158854166666667,-0.2390625,-0.7875,0.015625,-0.7067708333333333,0.38177083333333334L0.6390625,6.666666666666667L0.009114583333333334,9.525260416666667c-0.08072916666666667,0.36614583333333334,0.39088541666666665,0.6205729166666667,0.7067708333333333,0.38177083333333334l2.27421875,-1.7200520833333333C4.128906250000001,9.407031250000001,6.175260416666667,10.833333333333334,8.518229166666668,10.833333333333334C12.097916666666666,10.833333333333334,15,7.5,15,6.666666666666667S12.097916666666666,2.5,8.518229166666668,2.5zm2.276822916666667,4.791666666666667c-0.34505208333333337,0,-0.625,-0.2799479166666667,-0.625,-0.625c0,-0.3453125,0.2799479166666667,-0.625,0.625,-0.625c0.3453125,0,0.625,0.27968750000000003,0.625,0.625c0,0.34505208333333337,-0.2799479166666667,0.625,-0.625,0.625z" fill="#FFFFFF"/>
    </svg>