<svg version="1.1" xmlns="http://www.w3.org/2000/svg" xlink="http://www.w3.org/1999/xlink" x="0px" y="0px" width="15px" height="12px" viewBox="0 0 15 12" style="enable-background:new 0 0 15 15;" space="preserve">
    <path d="M12.375,7.875c-1.1390625,0,-2.0625,0.9234375,-2.0625,2.0625s0.9234375,2.0625,2.0625,2.0625s2.0625,-0.9234375,2.0625,-2.0625s-0.9234375,-2.0625,-2.0625,-2.0625zm0,2.625c-0.31007812500000004,0,-0.5625,-0.25242187499999996,-0.5625,-0.5625s0.25242187499999996,-0.5625,0.5625,-0.5625s0.5625,0.25242187499999996,0.5625,0.5625s-0.25242187499999996,0.5625,-0.5625,0.5625zm1.875,-6.75h-1.5v-0.9421875000000001c0,-0.3309375,0.11015625000000001,-0.6506250000000001,0.308203125,-0.9103125000000001c0.10359375,-0.13593750000000002,0.083203125,-0.32953125000000005,-0.030937500000000003,-0.456796875L12.520312500000003,0.87421875c-0.15609375000000003,-0.174609375,-0.42937500000000006,-0.1621875,-0.5789062500000001,0.018281250000000002C11.49796875,1.4273437500000001,11.25,2.104921875,11.25,2.8078125000000003V3.75H8.851640625L7.53703125,0.6829687500000001A1.1229843750000001,1.1229843750000001,0,0,0,6.502734375,0H3.375c-0.620390625,0,-1.125,0.5046093750000001,-1.125,1.125v3.4340625000000005c-0.20226562500000003,-0.157734375,-0.4912500000000001,-0.15140625000000002,-0.6771093750000001,0.034453125L0.84375,5.3226562500000005c-0.201328125,0.201328125,-0.201328125,0.5278125,0,0.729140625l0.11859375,0.11859375c-0.11695312500000002,0.21703125,-0.21000000000000002,0.44109375000000006,-0.27914062500000003,0.673125H0.515625c-0.284765625,0,-0.515625,0.230859375,-0.515625,0.515625v1.03125c0,0.284765625,0.230859375,0.515625,0.515625,0.515625h0.16734375c0.069375,0.23226562500000003,0.1621875,0.4560937500000001,0.27914062500000003,0.673359375l-0.11859375,0.11859375c-0.201328125,0.201328125,-0.201328125,0.5278125,0,0.729140625L1.5726562499999999,11.15625c0.201328125,0.201328125,0.5278125,0.201328125,0.729140625,0l0.11859375,-0.11859375c0.21703125,0.11695312500000002,0.44109375000000006,0.21000000000000002,0.673125,0.27914062500000003V11.484375c0,0.284765625,0.230859375,0.515625,0.515625,0.515625h1.03125c0.284765625,0,0.515625,-0.230859375,0.515625,-0.515625v-0.16734375c0.23203125000000002,-0.069140625,0.4560937500000001,-0.1621875,0.673125,-0.27914062500000003l0.11859375,0.11859375c0.201328125,0.201328125,0.5278125,0.201328125,0.729140625,0l0.729140625,-0.729140625c0.201328125,-0.201328125,0.201328125,-0.5278125,0,-0.729140625l-0.11859375,-0.11859375c0.11695312500000002,-0.21703125,0.21000000000000002,-0.44109375000000006,0.27914062500000003,-0.673125H7.734375c0.284765625,0,0.515625,-0.230859375,0.515625,-0.515625v-0.140625h1.8876562500000003c0.513515625,-0.679453125,1.32,-1.125,2.23734375,-1.125c0.43687500000000007,0,0.845390625,0.10804687500000001,1.2140625,0.2859375l1.19109375,-1.19109375c0.140625,-0.140625,0.219609375,-0.33140625000000007,0.219609375,-0.530390625V4.5c0.000234375,-0.41414062500000004,-0.33562500000000006,-0.75,-0.749765625,-0.75zM4.125,9.75c-1.0354687500000002,0,-1.875,-0.83953125,-1.875,-1.875s0.83953125,-1.875,1.875,-1.875s1.875,0.83953125,1.875,1.875s-0.83953125,1.875,-1.875,1.875zm0.515625,-6h-0.890625V1.5h2.505234375l0.964453125,2.25H4.640625z" fill="#FFFFFF"/>
    </svg>