<svg version="1.1" xmlns="http://www.w3.org/2000/svg" xlink="http://www.w3.org/1999/xlink" x="0px" y="0px" width="15px" height="12px" viewBox="0 0 15 12" style="enable-background:new 0 0 15 15;" space="preserve">
    <path d="M6.112500000000001,6.8217187500000005c-0.671015625,-0.5376562500000001,-1.453125,-0.82171875,-2.2593750000000004,-0.82171875C2.0390625,6,0.503203125,7.470000000000001,0.033515625,9.65765625c-0.08320312499999999,0.38906250000000003,-0.010078125,0.792890625,0.200859375,1.1085937499999998C0.439453125,11.073515625,0.746015625,11.25,1.0753125000000001,11.25H13.875c-2.418984375,0,-3.6328125,-0.8688281250000001,-5.4653906249999995,-2.44828125zm5.499609375,-0.428671875L10.978124999999999,2.7234375A1.5,1.5,0,0,0,9.1875,1.509609375L4.707421875,2.4609375a1.5,1.5,0,0,0,-1.180078125,1.307578125L3.3658593750000003,5.296875c0.16171875000000002,-0.019453124999999998,0.32109374999999996,-0.046875,0.487265625,-0.046875c0.979453125,0,1.921875,0.34101562500000004,2.748984375,1.00359375l2.296875,1.98C10.5646875,9.668906250000001,11.599218749999999,10.5,13.875,10.5a1.125,1.125,0,0,0,1.125,-1.125c0,-0.595078125,-0.6937500000000001,-2.796796875,-3.3878906250000003,-2.981953125z" fill="#FFFFFF"/>
    </svg>