<svg version="1.1" xmlns="http://www.w3.org/2000/svg" xlink="http://www.w3.org/1999/xlink" x="0px" y="0px" width="15px" height="13.333333333333332px" viewBox="0 0 15 13.333333333333332" style="enable-background:new 0 0 15 15;" space="preserve"><path d="M14.997916666666667,1.9947916666666665c-0.00026041666666666666,-0.21171875000000004,-0.07864583333333333,-0.41328125,-0.2234375,-0.5677083333333334c-0.0984375,-0.10494791666666668,-0.2234375,-0.2375,-0.35651041666666666,-0.3776041666666667c0.28802083333333334,-0.178125,0.5078125,-0.45546875,0.5776041666666667,-0.7984375C15.022135416666668,0.121875,14.920833333333334,0,14.7890625,0H11.664583333333335c-1.8408854166666666,0,-3.3333333333333335,1.4924479166666669,-3.3333333333333335,3.3333333333333335H4.166666666666667c-0.7510416666666667,0,-1.4166666666666667,0.3380208333333334,-1.875,0.8622395833333334V4.166666666666667c-1.2638020833333334,0,-2.291666666666667,1.0278645833333333,-2.291666666666667,2.291666666666667v1.4583333333333335c0,0.23020833333333335,0.18645833333333334,0.4166666666666667,0.4166666666666667,0.4166666666666667h0.4166666666666667c0.23020833333333335,0,0.4166666666666667,-0.18645833333333334,0.4166666666666667,-0.4166666666666667v-1.4583333333333335c0,-0.34427083333333336,0.17890625000000002,-0.6351562500000001,0.4369791666666667,-0.8250000000000001c-0.00546875,0.06718750000000001,-0.0203125,0.13151041666666666,-0.0203125,0.2c0,0.7197916666666667,0.30833333333333335,1.3635416666666667,0.7953125,1.8197916666666667l-0.6697916666666667,1.7864583333333333a1.665234375,1.665234375,0,0,0,-0.05625000000000001,0.9893229166666667l0.6471354166666667,2.5888020833333334A0.41619791666666667,0.41619791666666667,0,0,0,2.786979166666667,13.333333333333334h1.7177083333333332c0.27109375,0,0.47005208333333337,-0.2546875,0.4041666666666667,-0.5177083333333333l-0.68515625,-2.7411458333333334l0.6208333333333333,-1.6559895833333336L8.333333333333334,9.000000000000002V12.916666666666668c0,0.23020833333333335,0.18645833333333334,0.4166666666666667,0.4166666666666667,0.4166666666666667h1.6666666666666667c0.23020833333333335,0,0.4166666666666667,-0.18645833333333334,0.4166666666666667,-0.4166666666666667V8.286979166666669c0.5140625,-0.5257812500000001,0.8333333333333334,-1.2434895833333335,0.8333333333333334,-2.036979166666667c0,-0.005729166666666667,-0.001822916666666667,-0.0109375,-0.0020833333333333333,-0.016666666666666666V3.5648437499999996l0.4166666666666667,0.18515625000000002l0.4921875,0.9817708333333335c0.19401041666666669,0.3872395833333333,0.65234375,0.5611979166666667,1.0544270833333333,0.4002604166666667l0.84765625,-0.3390625a0.8332552083333333,0.8332552083333333,0,0,0,0.5239583333333334,-0.7744791666666666l-0.0015625,-2.0236979166666664zm-1.6666666666666667,0.5052083333333334c-0.23020833333333335,0,-0.4166666666666667,-0.18645833333333334,-0.4166666666666667,-0.4166666666666667s0.18645833333333334,-0.4166666666666667,0.4166666666666667,-0.4166666666666667s0.4166666666666667,0.18645833333333334,0.4166666666666667,0.4166666666666667s-0.18645833333333334,0.4166666666666667,-0.4166666666666667,0.4166666666666667z" fill="#FFFFFF"/></svg>