<svg version="1.1" xmlns="http://www.w3.org/2000/svg" xlink="http://www.w3.org/1999/xlink" x="0px" y="0px" width="15px" height="15px" viewBox="0 0 15 15" style="enable-background:new 0 0 15 15;" space="preserve"><path d="M8.4375,1.875c0.5185546875,0,0.9375,-0.4189453125,0.9375,-0.9375S8.9560546875,0,8.4375,0s-0.9375,0.4189453125,-0.9375,0.9375s0.4189453125,0.9375,0.9375,0.9375zm6.5478515625,-0.3544921875c-0.0673828125,-0.251953125,-0.322265625,-0.3984375,-0.57421875,-0.3310546875l-14.0625,3.75c-0.2490234375,0.0673828125,-0.3984375,0.322265625,-0.3310546875,0.57421875C0.0732421875,5.7216796875,0.2607421875,5.859375,0.46875,5.859375c0.041015625,0,0.08203125,-0.005859375,0.12011718749999999,-0.0146484375L7.03125,4.125V6.5625H1.875c-0.5185546875,0,-0.9375,0.4189453125,-0.9375,0.9375v6.5625c0,0.5185546875,0.4189453125,0.9375,0.9375,0.9375h11.25c0.5185546875,0,0.9375,-0.4189453125,0.9375,-0.9375V7.5c0,-0.5185546875,-0.4189453125,-0.9375,-0.9375,-0.9375H7.96875v-2.6865234375l6.6826171875,-1.78125c0.251953125,-0.0673828125,0.3984375,-0.3251953125,0.333984375,-0.57421875zM5.15625,11.25H2.34375v-2.8125h2.8125v2.8125zm4.6875,-2.8125h2.8125v2.8125h-2.8125v-2.8125zm-0.9375,0v2.8125h-2.8125v-2.8125h2.8125zM5.625,2.8125c0.5185546875,0,0.9375,-0.4189453125,0.9375,-0.9375s-0.4189453125,-0.9375,-0.9375,-0.9375s-0.9375,0.4189453125,-0.9375,0.9375s0.4189453125,0.9375,0.9375,0.9375z" fill="#FFFFFF"/></svg>