<svg version="1.1" xmlns="http://www.w3.org/2000/svg" xlink="http://www.w3.org/1999/xlink" x="0px" y="0px" width="18.75px" height="15px" viewBox="0 0 18.75 15" style="enable-background:new 0 0 15 15;" space="preserve">
    <path d="M18.28125,13.125H15V1.48828125C15,0.6673828125000001,14.36923828125,0,13.59375,0H5.155957031250001c-0.7754882812499999,0,-1.40625,0.6673828125000001,-1.40625,1.48828125V13.125H0.46875c-0.258984375,0,-0.46875,0.209765625,-0.46875,0.46875v0.9375c0,0.258984375,0.209765625,0.46875,0.46875,0.46875h17.8125c0.258984375,0,0.46875,-0.209765625,0.46875,-0.46875v-0.9375c0,-0.258984375,-0.209765625,-0.46875,-0.46875,-0.46875zM12.18720703125,8.4375c-0.51767578125,0,-0.9375,-0.41982421875,-0.9375,-0.9375s0.41982421875,-0.9375,0.9375,-0.9375s0.9375,0.41982421875,0.9375,0.9375c0.00029296875,0.51767578125,-0.41953125,0.9375,-0.9375,0.9375z" fill="#FFFFFF"/>
    </svg>