<svg version="1.1" xmlns="http://www.w3.org/2000/svg" xlink="http://www.w3.org/1999/xlink" x="0px" y="0px" width="15px" height="12px" viewBox="0 0 15 12" style="enable-background:new 0 0 15 15;" space="preserve"><path d="M12.75,0H2.25C1.00734375,0,0,1.00734375,0,2.25v7.5c0,1.24265625,1.00734375,2.25,2.25,2.25h10.5c1.24265625,0,2.25,-1.00734375,2.25,-2.25V2.25c0,-1.24265625,-1.00734375,-2.25,-2.25,-2.25zM3.75,8.625c0,0.621328125,-0.503671875,1.125,-1.125,1.125s-1.125,-0.503671875,-1.125,-1.125v-1.5c0,-0.2071875,0.1678125,-0.375,0.375,-0.375h1.5c0.2071875,0,0.375,0.1678125,0.375,0.375v1.5zm0,-3c0,0.2071875,-0.1678125,0.375,-0.375,0.375H1.875c-0.2071875,0,-0.375,-0.1678125,-0.375,-0.375v-1.5c0,-0.621328125,0.503671875,-1.125,1.125,-1.125s1.125,0.503671875,1.125,1.125v1.5zm3.375,2.8125c0,0.7249218749999999,-0.5875781250000001,1.3125,-1.3125,1.3125s-1.3125,-0.5875781250000001,-1.3125,-1.3125v-1.3125c0,-0.2071875,0.1678125,-0.375,0.375,-0.375h1.875c0.2071875,0,0.375,0.1678125,0.375,0.375v1.3125zm0,-2.8125c0,0.2071875,-0.1678125,0.375,-0.375,0.375h-1.875c-0.2071875,0,-0.375,-0.1678125,-0.375,-0.375v-2.0625c0,-0.7249218749999999,0.5875781250000001,-1.3125,1.3125,-1.3125s1.3125,0.5875781250000001,1.3125,1.3125v2.0625zm3.375,2.8125c0,0.7249218749999999,-0.5875781250000001,1.3125,-1.3125,1.3125s-1.3125,-0.5875781250000001,-1.3125,-1.3125v-1.3125c0,-0.2071875,0.1678125,-0.375,0.375,-0.375h1.875c0.2071875,0,0.375,0.1678125,0.375,0.375v1.3125zm0,-2.8125c0,0.2071875,-0.1678125,0.375,-0.375,0.375h-1.875c-0.2071875,0,-0.375,-0.1678125,-0.375,-0.375v-2.0625c0,-0.7249218749999999,0.5875781250000001,-1.3125,1.3125,-1.3125s1.3125,0.5875781250000001,1.3125,1.3125v2.0625zm3,3c0,0.621328125,-0.503671875,1.125,-1.125,1.125s-1.125,-0.503671875,-1.125,-1.125v-1.5c0,-0.2071875,0.1678125,-0.375,0.375,-0.375h1.5c0.2071875,0,0.375,0.1678125,0.375,0.375v1.5zm0,-3c0,0.2071875,-0.1678125,0.375,-0.375,0.375h-1.5c-0.2071875,0,-0.375,-0.1678125,-0.375,-0.375v-1.5c0,-0.621328125,0.503671875,-1.125,1.125,-1.125s1.125,0.503671875,1.125,1.125v1.5z" fill="#FFFFFF"/></svg>