<svg version="1.1" xmlns="http://www.w3.org/2000/svg" xlink="http://www.w3.org/1999/xlink" x="0px" y="0px" width="13.125px" height="15px" viewBox="0 0 13.125 15" style="enable-background:new 0 0 15 15;" space="preserve"><path d="M11.71875,0c-0.7763671875,0,-1.40625,0.6298828125,-1.40625,1.40625s0.6298828125,1.40625,1.40625,1.40625s1.40625,-0.6298828125,1.40625,-1.40625s-0.6298828125,-1.40625,-1.40625,-1.40625zm0,13.125c-0.2578125,0,-0.46875,0.2109375,-0.46875,0.46875s-0.2109375,0.46875,-0.46875,0.46875h-2.8125c-0.2578125,0,-0.46875,0.2109375,-0.46875,0.46875s0.2109375,0.46875,0.46875,0.46875h2.8125c0.7763671875,0,1.40625,-0.6298828125,1.40625,-1.40625c0,-0.2578125,-0.2109375,-0.46875,-0.46875,-0.46875zm-8.267578125,0.251953125c-0.181640625,0.181640625,-0.48046874999999994,0.1845703125,-0.662109375,0l-1.9892578125000002,-1.9892578125000002c-0.181640625,-0.181640625,-0.48046874999999994,-0.181640625,-0.662109375,0s-0.181640625,0.48046874999999994,0,0.662109375l1.9892578125000002,1.9892578125000002c0.275390625,0.275390625,0.6357421875,0.41015625,0.99609375,0.41015625s0.720703125,-0.1376953125,0.9931640625,-0.41015625c0.181640625,-0.181640625,0.181640625,-0.48046874999999994,0,-0.662109375s-0.48046874999999994,-0.1845703125,-0.6650390625,0zm1.6435546875,-5.267578125l-2.7451171875,2.7451171875c-0.3662109375,0.3662109375,-0.3662109375,0.9609374999999999,0,1.32421875c0.181640625,0.181640625,0.421875,0.275390625,0.662109375,0.275390625s0.48046874999999994,-0.0908203125,0.662109375,-0.275390625l2.6923828125,-2.6923828125l-0.884765625,-0.884765625c-0.146484375,-0.146484375,-0.275390625,-0.3134765625,-0.38671875,-0.4921875zM3.75,4.6875h3.0908203125l-0.5888671875,0.50390625c-0.3955078125,0.3369140625,-0.6328125,0.83203125,-0.6533203125,1.3505859375c-0.0205078125,0.521484375,0.1787109375,1.03125,0.5478515625,1.3974609375l2.291015625,2.291015625V12.65625c0,0.5185546875,0.4189453125,0.9375,0.9375,0.9375s0.9375,-0.4189453125,0.9375,-0.9375v-2.619140625c0,-0.369140625,-0.1494140625,-0.732421875,-0.4130859375,-0.9931640625l-1.787109375,-1.787109375c0.0146484375,-0.01171875,0.03515625,-0.017578125,0.0498046875,-0.0322265625l2.4111328125,-2.4111328125c0.3369140625,-0.3369140625,0.4365234375,-0.837890625,0.2548828125,-1.27734375c-0.181640625,-0.439453125,-0.6064453125,-0.7236328125,-1.083984375,-0.7236328125H3.75c-0.5185546875,0,-0.9375,0.4189453125,-0.9375,0.9375s0.4189453125,0.9375,0.9375,0.9375z" fill="#FFFFFF"/></svg>