<svg version="1.1" xmlns="http://www.w3.org/2000/svg" xlink="http://www.w3.org/1999/xlink" x="0px" y="0px" width="9.375px" height="15px" viewBox="0 0 9.375 15" style="enable-background:new 0 0 15 15;" space="preserve">
    <path d="M7.96875,0H1.40625C0.6298828125,0,0,0.6298828125,0,1.40625v12.1875c0,0.7763671875,0.6298828125,1.40625,1.40625,1.40625h6.5625c0.7763671875,0,1.40625,-0.6298828125,1.40625,-1.40625V1.40625c0,-0.7763671875,-0.6298828125,-1.40625,-1.40625,-1.40625zM4.6875,14.0625c-0.5185546875,0,-0.9375,-0.4189453125,-0.9375,-0.9375s0.4189453125,-0.9375,0.9375,-0.9375s0.9375,0.4189453125,0.9375,0.9375s-0.4189453125,0.9375,-0.9375,0.9375zm3.28125,-3.1640625c0,0.193359375,-0.158203125,0.3515625,-0.3515625,0.3515625H1.7578125c-0.193359375,0,-0.3515625,-0.158203125,-0.3515625,-0.3515625V1.7578125c0,-0.193359375,0.158203125,-0.3515625,0.3515625,-0.3515625h5.859375c0.193359375,0,0.3515625,0.158203125,0.3515625,0.3515625v9.140625z" fill="#FFFFFF"/>
    </svg>