<svg version="1.1" xmlns="http://www.w3.org/2000/svg" xlink="http://www.w3.org/1999/xlink" x="0px" y="0px" width="18.75px" height="15px" viewBox="0 0 18.75 15" style="enable-background:new 0 0 15 15;" space="preserve">
    <path d="M18.60087890625,4.5375C13.4103515625,-0.26337890625,5.33759765625,-0.26162109375,0.14912109375,4.5375c-0.1951171875,0.18046875,-0.19892578125,0.48603515625,-0.01025390625,0.6732421875l1.003125,0.9952148437499999c0.1798828125,0.1787109375,0.46933593749999997,0.18251953125,0.65625,0.0111328125c4.2749999999999995,-3.91640625,10.8779296875,-3.91728515625,15.15380859375,0c0.1869140625,0.17138671875,0.47636718750000007,0.16728515625,0.65625,-0.0111328125l1.003125,-0.9952148437499999c0.18837890624999998,-0.18720703125,0.1845703125,-0.4927734375,-0.010546874999999999,-0.6732421875zM9.375,10.3125c-1.03564453125,0,-1.875,0.83935546875,-1.875,1.875s0.83935546875,1.875,1.875,1.875s1.875,-0.83935546875,1.875,-1.875s-0.83935546875,-1.875,-1.875,-1.875zm5.9375976562499995,-2.4489257812500003c-3.3767578125,-2.98623046875,-8.50224609375,-2.9830078125,-11.875195312499999,0c-0.2021484375,0.1787109375,-0.20859375,0.48896484375000004,-0.016699218749999998,0.67822265625l1.0089843749999998,0.99580078125c0.17578125,0.1734375,0.4587890625,0.18515625000000002,0.64599609375,0.0234375c2.45947265625,-2.12607421875,6.144726562500001,-2.1213867187499997,8.59833984375,0c0.18720703125,0.16171875,0.47021484375,0.15029296875,0.64599609375,-0.0234375l1.0089843749999998,-0.99580078125c0.19218749999999998,-0.1892578125,0.18544921875,-0.49980468749999996,-0.01640625,-0.67822265625z" fill="#FFFFFF"/>
    </svg>