<svg version="1.1" xmlns="http://www.w3.org/2000/svg" xlink="http://www.w3.org/1999/xlink" x="0px" y="0px" width="11.25px" height="15px" viewBox="0 0 11.25 15" style="enable-background:new 0 0 15 15;" space="preserve">
    <path d="M7.5,4.21875V0.9375c0,-0.5177636718749999,0.419736328125,-0.9375,0.9375,-0.9375s0.9375,0.419736328125,0.9375,0.9375v3.28125h-1.875zm3.28125,0.46875H0.46875c-0.258896484375,0,-0.46875,0.20985351562500001,-0.46875,0.46875v0.9375c0,0.258896484375,0.20985351562500001,0.46875,0.46875,0.46875h0.46875v0.9375c0,2.2677539062500003,1.610419921875,4.159306640625,3.75,4.5936328125V15h1.875v-2.9063671875c2.1395800781250003,-0.434326171875,3.75,-2.32587890625,3.75,-4.5936328125v-0.9375h0.46875c0.258896484375,0,0.46875,-0.20985351562500001,0.46875,-0.46875v-0.9375c0,-0.258896484375,-0.20985351562500001,-0.46875,-0.46875,-0.46875zm-7.03125,-0.46875V0.9375c0,-0.5177636718749999,-0.419736328125,-0.9375,-0.9375,-0.9375S1.875,0.419736328125,1.875,0.9375v3.28125h1.875z" fill="#FFFFFF"/>
    </svg>