<svg version="1.1" xmlns="http://www.w3.org/2000/svg" xlink="http://www.w3.org/1999/xlink" x="0px" y="0px" width="15px" height="13.333333333333332px" viewBox="0 0 15 13.333333333333332" style="enable-background:new 0 0 15 15;" space="preserve"><path d="M7.5,0c-1.8122395833333336,0,-3.28125,1.4690104166666667,-3.28125,3.28125c0,1.4651041666666667,2.14453125,4.135416666666667,2.9661458333333335,5.104687500000001c0.16640625,0.19635416666666666,0.46406250000000004,0.19635416666666666,0.6302083333333334,0C8.63671875,7.416666666666667,10.78125,4.746354166666666,10.78125,3.28125C10.78125,1.4690104166666667,9.312239583333334,0,7.5,0zm0,4.375c-0.6041666666666666,0,-1.09375,-0.48958333333333337,-1.09375,-1.09375s0.48958333333333337,-1.09375,1.09375,-1.09375s1.09375,0.48958333333333337,1.09375,1.09375s-0.48958333333333337,1.09375,-1.09375,1.09375zM0.5239583333333334,5.623697916666667A0.8334895833333333,0.8334895833333333,0,0,0,0,6.397395833333333v6.51875c0,0.2947916666666667,0.29765625,0.49635416666666665,0.5713541666666667,0.38697916666666665L4.166666666666667,11.666666666666668V5.596875c-0.23020833333333335,-0.4161458333333334,-0.41848958333333336,-0.8213541666666667,-0.5533854166666667,-1.2088541666666668L0.5239583333333334,5.623697916666667zM7.5,9.36640625c-0.36640625000000004,0,-0.7130208333333333,-0.1609375,-0.95078125,-0.4416666666666667c-0.5119791666666667,-0.6041666666666666,-1.0565104166666668,-1.2921875,-1.54921875,-1.9979166666666668v4.739583333333334l5,1.6666666666666667V6.927083333333334c-0.4927083333333334,0.70546875,-1.0369791666666668,1.39375,-1.54921875,1.9979166666666668c-0.2377604166666667,0.28046875,-0.5843750000000001,0.44140625,-0.95078125,0.44140625zm6.928645833333333,-5.16953125L10.833333333333334,5.833333333333334v7.5l3.642708333333333,-1.4570312500000002A0.8332291666666667,0.8332291666666667,0,0,0,15,11.102604166666666V4.583854166666667c0,-0.2947916666666667,-0.29765625,-0.49635416666666665,-0.5713541666666667,-0.38697916666666665z" fill="#FFFFFF"/></svg>