<svg version="1.1" xmlns="http://www.w3.org/2000/svg" xlink="http://www.w3.org/1999/xlink" x="0px" y="0px" width="15px" height="17.142857142857142px" viewBox="0 0 15 17.142857142857142" style="enable-background:new 0 0 15 15;" space="preserve">
    <path d="M14.638392857142856,13.510044642857142L10.714285714285714,7.198660714285714V2.142857142857143h0.26785714285714285c0.4453125,0,0.8035714285714286,-0.35825892857142855,0.8035714285714286,-0.8035714285714286V0.8035714285714286c0,-0.4453125,-0.35825892857142855,-0.8035714285714286,-0.8035714285714286,-0.8035714285714286H4.017857142857142c-0.4453125,0,-0.8035714285714286,0.35825892857142855,-0.8035714285714286,0.8035714285714286v0.5357142857142857c0,0.4453125,0.35825892857142855,0.8035714285714286,0.8035714285714286,0.8035714285714286h0.26785714285714285v5.055803571428571L0.36160714285714285,13.510044642857142C-0.6194196428571428,15.087053571428571,0.5122767857142857,17.142857142857142,2.373883928571429,17.142857142857142h10.252232142857142c1.8649553571428572,0,2.9933035714285716,-2.0591517857142856,2.0122767857142856,-3.6328125zM4.6171875,10.714285714285714l1.6138392857142858,-2.5982142857142856c0.12388392857142858,-0.17410714285714285,0.19419642857142855,-0.3883928571428571,0.19419642857142855,-0.6160714285714285V2.142857142857143h2.142857142857143v5.357142857142857c0,0.23102678571428573,0.07366071428571429,0.4419642857142857,0.19419642857142855,0.6160714285714285l1.6138392857142858,2.5982142857142856h-5.758928571428571z" fill="#FFFFFF"/>
    </svg>