<svg version="1.1" xmlns="http://www.w3.org/2000/svg" xlink="http://www.w3.org/1999/xlink" x="0px" y="0px" width="15px" height="12px" viewBox="0 0 15 12" style="enable-background:new 0 0 15 15;" space="preserve">
    <path d="M12.02109375,4.5c-0.34921875,-0.0023437500000000003,-0.6820312500000001,0.05390625,-0.99375,0.16171875000000002L10.256250000000001,3.375H12.1875c0.31171875000000004,0,0.5625,-0.25078125,0.5625,-0.5625V2.0625c0,-0.31171875000000004,-0.25078125,-0.5625,-0.5625,-0.5625h-1.06171875c-0.15937500000000002,0,-0.31171875000000004,0.06796875000000001,-0.41718750000000004,0.18515625000000002l-0.87890625,0.9773437500000001l-0.534375,-0.890625C9.192187500000001,1.6031250000000001,9.009375,1.5,8.8125,1.5h-1.875c-0.20625000000000002,0,-0.375,0.16875,-0.375,0.375v0.375c0,0.20625000000000002,0.16875,0.375,0.375,0.375h1.5562500000000004l0.45,0.75H5.34140625c-0.41484375,-0.54140625,-1.0523437500000001,-0.9375,-2.34140625,-0.9375H1.69921875C1.3828125,2.4375,1.11796875,2.6953125,1.125,3.01171875c0.004687500000000001,0.3046875,0.25546875,0.55078125,0.5625,0.55078125h1.3125c0.57421875,0,0.9070312500000001,0.25546875,1.1203125,0.58125l-0.26484375,0.48046875c-0.3046875,-0.09140625000000001,-0.63046875,-0.13359375,-0.96796875,-0.12187500000000001C1.3101562500000001,4.55859375,0.037500000000000006,5.8500000000000005,0,7.4296875c-0.037500000000000006,1.68984375,1.31953125,3.0703125,3,3.0703125c1.396875,0,2.57109375,-0.95625,2.90625,-2.25h1.9734375000000002c0.32109375,0,0.5765625,-0.2671875,0.5625,-0.58828125c-0.049218750000000006,-1.10390625,0.41015625,-2.19609375,1.3171875000000002,-2.9296875l0.29296875,0.48750000000000004c-0.6468750000000001,0.5554687500000001,-1.05703125,1.3804687500000001,-1.05,2.3015625c0.01171875,1.63125,1.3406250000000002,2.96484375,2.9718750000000003,2.97890625c1.678125,0.01640625,3.0421875000000007,-1.34765625,3.0281249999999997,-3.02578125c-0.01640625,-1.63125,-1.35,-2.9625000000000004,-2.98125,-2.9742187500000004zM3,9.375c-1.03359375,0,-1.875,-0.84140625,-1.875,-1.875s0.84140625,-1.875,1.875,-1.875c0.09843750000000001,0,0.19687500000000002,0.00703125,0.29296875,0.0234375L2.3203125,7.415625c-0.20625000000000002,0.375,0.065625,0.8343750000000001,0.4921875,0.8343750000000001h1.90546875c-0.290625,0.6609375000000001,-0.9515625000000001,1.125,-1.71796875,1.125zm10.87265625,-1.771875c-0.051562500000000004,0.9515625000000001,-0.8203125,1.7203125000000001,-1.76953125,1.76953125c-1.08046875,0.05859375,-1.9781250000000001,-0.80390625,-1.9781250000000001,-1.8726562500000001c0,-0.5015625,0.19687500000000002,-0.95625,0.51796875,-1.29140625l1.1578125000000001,1.9312500000000001c0.10546875,0.178125,0.3375,0.234375,0.515625,0.12890625l0.32109375,-0.19218749999999998c0.178125,-0.10546875,0.234375,-0.3375,0.12890625,-0.515625l-1.1390625,-1.8960937500000001c0.12187500000000001,-0.025781250000000002,0.24609375,-0.037500000000000006,0.37265625,-0.037500000000000006c1.06875,-0.0023437500000000003,1.92890625,0.8953125000000001,1.8726562500000001,1.97578125z" fill="#FFFFFF"/>
    </svg>