<svg version="1.1" xmlns="http://www.w3.org/2000/svg" xlink="http://www.w3.org/1999/xlink" x="0px" y="0px" width="15px" height="12px" viewBox="0 0 15 12" style="enable-background:new 0 0 15 15;" space="preserve">
    <path d="M9.81328125,2.4398437499999996l0.004687500000000001,-0.004687500000000001l-0.3375,-1.6875H7.125v3h1.4249999999999998c0.37968749999999996,-0.45234375000000004,0.8015625000000001,-0.8953125000000001,1.26328125,-1.3078124999999998zM6.375,0.75H4.01953125l-0.6000000000000001,3H6.375V0.75zm4.436718750000001,1.6898437499999999c0.42656249999999996,0.38203125000000004,0.83203125,0.7898437500000001,1.19765625,1.20703125c0.13359375,-0.13124999999999998,0.2671875,-0.26015625,0.40546875000000004,-0.38203125000000004l0.49921875000000004,-0.4453125l0.49921875000000004,0.4453125c0.025781250000000002,0.02109375,0.049218750000000006,0.049218750000000006,0.07265625,0.07265625c-0.0023437500000000003,-0.018750000000000003,0.004687500000000001,-0.03515625,0,-0.053906249999999996l-0.5625,-2.25C12.883593750000001,0.8671875,12.733593749999999,0.75,12.5625,0.75h-2.3179687500000004l0.28828125000000004,1.44140625l0.27890625,0.24843749999999998zM0.375,3.75h2.28046875l0.6000000000000001,-3H0.9375c-0.17109375,0,-0.32109374999999996,0.1171875,-0.36328125,0.28359375l-0.5625,2.25C-0.046875,3.5203124999999997,0.13124999999999998,3.75,0.375,3.75zm7.6078125000000005,0.75H0.75l0.09375,0.75H0.375c-0.20625000000000002,0,-0.375,0.16875,-0.375,0.375v0.75c0,0.20625000000000002,0.16875,0.375,0.375,0.375h0.65625l0.46875,3.75v0.375c0,0.20625000000000002,0.16875,0.375,0.375,0.375h0.75c0.20625000000000002,0,0.375,-0.16875,0.375,-0.375v-0.375h4.893750000000001c-0.7078125,-0.7898437500000001,-1.1437499999999998,-1.8257812500000001,-1.1437499999999998,-2.9625000000000004c0,-0.8414062499999999,0.46640624999999997,-1.9429687500000001,1.2328125,-3.0374999999999996zm4.93359375,-0.675c-0.34921875,0.31171875000000004,-0.66328125,0.6375,-0.9421875000000001,0.9656250000000001c-0.45703125,-0.6046875,-1.021875,-1.21875,-1.6640625,-1.7906250000000001c-1.6453125000000002,1.4695312500000002,-2.8125,3.3820312500000003,-2.8125,4.5375c0,2.05078125,1.6781249999999999,3.7125000000000004,3.75,3.7125000000000004s3.75,-1.6617187500000001,3.75,-3.7125000000000004c0.0023437500000000003,-0.8578125000000001,-0.8671875,-2.6296875,-2.08125,-3.7125000000000004zm-0.43593750000000003,5.3765625c-0.34453124999999996,0.25078124999999996,-0.7710937499999999,0.3984375,-1.23046875,0.3984375c-1.1484375,0,-2.0835937500000004,-0.78515625,-2.0835937500000004,-2.0625c0,-0.6351562500000001,0.38671875,-1.1953125,1.1578125,-2.1539062500000004c0.11015625000000001,0.13124999999999998,1.5726562499999999,2.0648437499999996,1.5726562499999999,2.0648437499999996l0.9328124999999999,-1.1015625c0.06562499999999999,0.11249999999999999,0.12656250000000002,0.22265625,0.18046875,0.328125c0.43593750000000003,0.8601562500000001,0.25312500000000004,1.9593749999999999,-0.5296875000000001,2.5265625z" fill="#FFFFFF"/>
    </svg>