<svg version="1.1" xmlns="http://www.w3.org/2000/svg" xlink="http://www.w3.org/1999/xlink" x="0px" y="0px" width="15px" height="15px" viewBox="0 0 15 15" style="enable-background:new 0 0 15 15;" space="preserve">
    <path d="M4.374990234375,1.640625v2.34375c0,0.38833007812500003,-0.31479492187499997,0.703125,-0.703125,0.703125H0.703125c-0.38833007812500003,0,-0.703125,-0.31479492187499997,-0.703125,-0.703125V1.640625c0,-0.38833007812500003,0.31479492187499997,-0.703125,0.703125,-0.703125h2.968740234375c0.38833007812500003,0,0.703125,0.31479492187499997,0.703125,0.703125zm5.31251953125,7.03125v-2.34375c0,-0.38833007812500003,-0.31479492187499997,-0.703125,-0.703125,-0.703125H6.015615234375c-0.38833007812500003,0,-0.703125,0.31479492187499997,-0.703125,0.703125v2.34375c0,0.38833007812500003,0.31479492187499997,0.703125,0.703125,0.703125h2.968740234375c0.388359375,0,0.7031542968750001,-0.31479492187499997,0.7031542968750001,-0.703125zm0.9375,-7.03125v2.34375c0,0.38833007812500003,0.31479492187499997,0.703125,0.703125,0.703125H14.296875c0.38833007812500003,0,0.703125,-0.31479492187499997,0.703125,-0.703125V1.640625c0,-0.38833007812500003,-0.31479492187499997,-0.703125,-0.703125,-0.703125H11.328134765624998c-0.38833007812500003,0,-0.703125,0.31479492187499997,-0.703125,0.703125zm-0.9375,2.34375V1.640625c0,-0.38833007812500003,-0.31479492187499997,-0.703125,-0.703125,-0.703125H6.015615234375c-0.38833007812500003,0,-0.703125,0.31479492187499997,-0.703125,0.703125v2.34375c0,0.38833007812500003,0.31479492187499997,0.703125,0.703125,0.703125h2.968740234375c0.388359375,0,0.7031542968750001,-0.31479492187499997,0.7031542968750001,-0.703125zm-6.01564453125,1.640625H0.703125c-0.38833007812500003,0,-0.703125,0.31479492187499997,-0.703125,0.703125v2.34375c0,0.38833007812500003,0.31479492187499997,0.703125,0.703125,0.703125h2.968740234375c0.38833007812500003,0,0.703125,-0.31479492187499997,0.703125,-0.703125v-2.34375c0,-0.38833007812500003,-0.31479492187499997,-0.703125,-0.703125,-0.703125zM0,11.015625v2.34375c0,0.38833007812500003,0.31479492187499997,0.703125,0.703125,0.703125h2.968740234375c0.38833007812500003,0,0.703125,-0.31479492187499997,0.703125,-0.703125v-2.34375c0,-0.38833007812500003,-0.31479492187499997,-0.703125,-0.703125,-0.703125H0.703125c-0.38833007812500003,0,-0.703125,0.31479492187499997,-0.703125,0.703125zm11.328134765624998,-1.640625H14.296875c0.38833007812500003,0,0.703125,-0.31479492187499997,0.703125,-0.703125v-2.34375c0,-0.38833007812500003,-0.31479492187499997,-0.703125,-0.703125,-0.703125H11.328134765624998c-0.38833007812500003,0,-0.703125,0.31479492187499997,-0.703125,0.703125v2.34375c0,0.38833007812500003,0.31479492187499997,0.703125,0.703125,0.703125zm0,4.6875H14.296875c0.38833007812500003,0,0.703125,-0.31479492187499997,0.703125,-0.703125v-2.34375c0,-0.38833007812500003,-0.31479492187499997,-0.703125,-0.703125,-0.703125H11.328134765624998c-0.38833007812500003,0,-0.703125,0.31479492187499997,-0.703125,0.703125v2.34375c0,0.38833007812500003,0.31479492187499997,0.703125,0.703125,0.703125zM5.312490234375,11.015625v2.34375c0,0.38833007812500003,0.31479492187499997,0.703125,0.703125,0.703125h2.968740234375c0.38833007812500003,0,0.703125,-0.31479492187499997,0.703125,-0.703125v-2.34375c0,-0.38833007812500003,-0.31479492187499997,-0.703125,-0.703125,-0.703125H6.015615234375c-0.38833007812500003,0,-0.703125,0.31479492187499997,-0.703125,0.703125z" fill="#FFFFFF"/>
    </svg>