<svg version="1.1" xmlns="http://www.w3.org/2000/svg" xlink="http://www.w3.org/1999/xlink" x="0px" y="0px" width="15px" height="13.333333333333332px" viewBox="0 0 15 13.333333333333332" style="enable-background:new 0 0 15 15;" space="preserve">
    <path d="M3.3333333333333335,4.166666666666667h8.333333333333334v5H3.3333333333333335V4.166666666666667zm10.416666666666668,2.5c0,0.6903645833333334,0.5596354166666666,1.25,1.25,1.25v2.5c0,0.6903645833333334,-0.5596354166666666,1.25,-1.25,1.25H1.25c-0.6903645833333334,0,-1.25,-0.5596354166666666,-1.25,-1.25v-2.5c0.6903645833333334,0,1.25,-0.5596354166666666,1.25,-1.25s-0.5596354166666666,-1.25,-1.25,-1.25v-2.5c0,-0.6903645833333334,0.5596354166666666,-1.25,1.25,-1.25h12.5c0.6903645833333334,0,1.25,0.5596354166666666,1.25,1.25v2.5c-0.6903645833333334,0,-1.25,0.5596354166666666,-1.25,1.25zm-1.25,-2.7083333333333335c0,-0.3451822916666667,-0.2798177083333333,-0.625,-0.625,-0.625H3.125c-0.3451822916666667,0,-0.625,0.2798177083333333,-0.625,0.625v5.416666666666667c0,0.3451822916666667,0.2798177083333333,0.625,0.625,0.625h8.75c0.3451822916666667,0,0.625,-0.2798177083333333,0.625,-0.625V3.9583333333333335z" fill="#FFFFFF"/>
    </svg>