<svg version="1.1" xmlns="http://www.w3.org/2000/svg" xlink="http://www.w3.org/1999/xlink" x="0px" y="0px" width="13.125px" height="15px" viewBox="0 0 13.125 15" style="enable-background:new 0 0 15 15;" space="preserve">
    <path d="M1.26697265625,13.65650390625c-1.71181640625,-1.766279296875,-1.679912109375,-4.614580078125,0.04060546875,-6.374443359374999L7.452890625,0.99609375c1.2983203125,-1.3280859375,3.4087207031249998,-1.328203125,4.707158203125,0c1.28583984375,1.31525390625,1.287392578125,3.437373046875,0,4.754179687500001L6.80314453125,11.224453125c-0.874658203125,0.894638671875,-2.303701171875,0.882158203125,-3.16353515625,-0.02923828125c-0.828369140625,-0.8780273437499999,-0.801796875,-2.269716796875,0.0425390625,-3.133388671875l4.211220703125,-4.301806640625c0.18111328125,-0.18498046875000002,0.477890625,-0.18814453125,0.6628710937500001,-0.0070605468749999995l0.669755859375,0.655634765625c0.18500976562500002,0.18111328125,0.18814453125,0.477890625,0.0070605468749999995,0.6628710937500001L5.0222753906249995,9.372861328125001c-0.1444921875,0.147802734375,-0.15339843749999998,0.39339843750000003,-0.018984375,0.5358984375c0.1280859375,0.13576171875,0.32944335937499997,0.138017578125,0.45960937500000004,0.004833984375l5.356904296874999,-5.474150390625c0.574599609375,-0.58775390625,0.574599609375,-1.544677734375,-0.00032226562499999996,-2.13275390625c-0.562177734375,-0.575009765625,-1.463583984375,-0.575302734375,-2.02599609375,0L2.64814453125,8.592626953125c-1.0184472656249999,1.0417968750000002,-1.034150390625,2.7281250000000004,-0.034892578125000004,3.7591699218749994c0.99638671875,1.0281152343750002,2.606982421875,1.0294042968750001,3.6052148437500002,0.00837890625l5.0408203125,-5.156220703125c0.180966796875,-0.185126953125,0.477744140625,-0.188466796875,0.6628710937500001,-0.0075l0.670224609375,0.6551953125000001c0.185126953125,0.180966796875,0.18849609375,0.477744140625,0.0075,0.6628710937500001l-5.0408203125,5.15619140625c-1.745390625,1.78529296875,-4.568642578125,1.764140625,-6.29208984375,-0.014208984374999999z" fill="#FFFFFF"/>
    </svg>