<svg version="1.1" xmlns="http://www.w3.org/2000/svg" xlink="http://www.w3.org/1999/xlink" x="0px" y="0px" width="18.75px" height="15px" viewBox="0 0 18.75 15" style="enable-background:new 0 0 15 15;" space="preserve">
    <path d="M18.28125,12.1875H11.1779296875c-0.0216796875,0.58037109375,-0.43095703125,0.9375,-0.9591796875,0.9375H8.4375c-0.54755859375,0,-0.9673828125000001,-0.5118164062499999,-0.9600585937500001,-0.9375H0.46875c-0.2578125,0,-0.46875,0.2109375,-0.46875,0.46875v0.46875c0,1.03125,0.84375,1.875,1.875,1.875h15c1.03125,0,1.875,-0.84375,1.875,-1.875v-0.46875c0,-0.2578125,-0.2109375,-0.46875,-0.46875,-0.46875zM16.875,1.40625c0,-0.7734375,-0.6328125,-1.40625,-1.40625,-1.40625H3.28125C2.5078125,0,1.875,0.6328125,1.875,1.40625v9.84375h15V1.40625zm-1.875,7.96875H3.75V1.875h11.25v7.5z" fill="#FFFFFF"/>
    </svg>