<svg version="1.1" xmlns="http://www.w3.org/2000/svg" xlink="http://www.w3.org/1999/xlink" x="0px" y="0px" width="15px" height="15px" viewBox="0 0 15 15" style="enable-background:new 0 0 15 15;" space="preserve"><path d="M7.0048828125,0.1845703125l-6.09375,2.28515625c-0.5478515625,0.205078125,-0.9111328125,0.732421875,-0.9111328125,1.318359375v6.5947265625c0,0.533203125,0.3017578125,1.01953125,0.7763671875,1.2568359375l6.09375,3.046875c0.3955078125,0.19921875,0.861328125,0.19921875,1.2568359375,0l6.09375,-3.046875c0.4775390625,-0.2373046875,0.7763671875,-0.7265625,0.7763671875,-1.2568359375V3.7880859375000004c0,-0.5859375,-0.36328125,-1.1103515625,-0.9111328125,-1.3154296875l-6.09375,-2.28515625C7.67578125,0.064453125,7.32421875,0.064453125,7.0048828125,0.1845703125zM7.5,2.00390625l5.625,2.109375v0.0322265625l-5.625,2.28515625l-5.625,-2.28515625v-0.0322265625l5.625,-2.109375zm0.9375,10.4296875V8.0712890625l4.6875,-1.904296875v3.9228515625l-4.6875,2.34375z" fill="#FFFFFF"/></svg>