<svg version="1.1" xmlns="http://www.w3.org/2000/svg" xlink="http://www.w3.org/1999/xlink" x="0px" y="0px" width="15px" height="15px" viewBox="0 0 15 15" style="enable-background:new 0 0 15 15;" space="preserve"><path d="M14.72548828125,1.142578125L13.857421875,0.27451171874999997a0.9375,0.9375,0,0,0,-1.3259765625,0L11.1755859375,1.6318359375a1.0294921875,1.0294921875,0,0,0,-0.24990234374999998,0.40400390625L10.569433593749999,3.10546875l-2.2341796875,2.2341796875c-0.35625,-0.256640625,-0.7470703125,-0.4611328125,-1.1748046875,-0.5607421875c-0.9799804687500001,-0.2279296875,-1.962890625,-0.02578125,-2.6332031249999996,0.64453125a2.41552734375,2.41552734375,0,0,0,-0.5929687499999999,0.9805664062499999c-0.17578125,0.54375,-0.6799804687500001,0.9577148437499999,-1.23486328125,1.0095703125c-0.6943359375,0.06650390625,-1.3397460937499999,0.33544921875,-1.83427734375,0.833203125C-0.47197265624999996,9.580078125,-0.2314453125,11.982421875,1.3939453124999999,13.60693359375S5.419921875,15.46875,6.7546875,14.136328124999999c0.498046875,-0.49453125,0.76640625,-1.1396484375,0.83349609375,-1.83720703125c0.0515625,-0.55224609375,0.46552734375000004,-1.05849609375,1.00869140625,-1.2345703125a2.419921875,2.419921875,0,0,0,0.9808593749999999,-0.59326171875c0.67001953125,-0.6703125,0.8712890624999999,-1.651171875,0.64453125,-2.62939453125c-0.09931640625,-0.42890625000000004,-0.30380859374999997,-0.8203125,-0.561328125,-1.177734375L11.89453125,4.43056640625l1.0687499999999999,-0.35625a1.0294921875,1.0294921875,0,0,0,0.40400390625,-0.24990234374999998l1.3573242187499999,-1.35703125a0.9375,0.9375,0,0,0,0.0008789062499999999,-1.3248046875zM6.09375,10.3125a1.40625,1.40625,0,1,1,1.40625,-1.40625a1.40625,1.40625,0,0,1,-1.40625,1.40625z" fill="#FFFFFF"/></svg>