<svg version="1.1" xmlns="http://www.w3.org/2000/svg" xlink="http://www.w3.org/1999/xlink" x="0px" y="0px" width="15px" height="12px" viewBox="0 0 15 12" style="enable-background:new 0 0 15 15;" space="preserve">
    <path d="M14.625,8.25h-0.375V5.71640625c0,-0.29765625,-0.11953125,-0.58359375,-0.33046875000000003,-0.79453125L11.578125,2.58046875c-0.2109375,-0.2109375,-0.496875,-0.33046875000000003,-0.79453125,-0.33046875000000003H9.75V1.125c0,-0.62109375,-0.50390625,-1.125,-1.125,-1.125H1.125C0.50390625,0,0,0.50390625,0,1.125v7.5c0,0.62109375,0.50390625,1.125,1.125,1.125h0.375c0,1.2421875,1.0078125,2.25,2.25,2.25s2.25,-1.0078125,2.25,-2.25h3c0,1.2421875,1.0078125,2.25,2.25,2.25s2.25,-1.0078125,2.25,-2.25h1.125c0.20625000000000002,0,0.375,-0.16875,0.375,-0.375v-0.75c0,-0.20625000000000002,-0.16875,-0.375,-0.375,-0.375zM3.75,10.875c-0.62109375,0,-1.125,-0.50390625,-1.125,-1.125s0.50390625,-1.125,1.125,-1.125s1.125,0.50390625,1.125,1.125s-0.50390625,1.125,-1.125,1.125zm3.375,-5.8125c0,0.10312500000000001,-0.084375,0.1875,-0.1875,0.1875h-1.3125v1.3125c0,0.10312500000000001,-0.084375,0.1875,-0.1875,0.1875h-1.125c-0.10312500000000001,0,-0.1875,-0.084375,-0.1875,-0.1875v-1.3125h-1.3125c-0.10312500000000001,0,-0.1875,-0.084375,-0.1875,-0.1875v-1.125c0,-0.10312500000000001,0.084375,-0.1875,0.1875,-0.1875h1.3125v-1.3125c0,-0.10312500000000001,0.084375,-0.1875,0.1875,-0.1875h1.125c0.10312500000000001,0,0.1875,0.084375,0.1875,0.1875v1.3125h1.3125c0.10312500000000001,0,0.1875,0.084375,0.1875,0.1875v1.125zm4.125,5.8125c-0.62109375,0,-1.125,-0.50390625,-1.125,-1.125s0.50390625,-1.125,1.125,-1.125s1.125,0.50390625,1.125,1.125s-0.50390625,1.125,-1.125,1.125zm1.875,-4.875H9.75V3.375h1.03359375l2.34140625,2.34140625V6z" fill="#FFFFFF"/>
    </svg>