<svg version="1.1" xmlns="http://www.w3.org/2000/svg" xlink="http://www.w3.org/1999/xlink" x="0px" y="0px" width="15px" height="15.483870967741936px" viewBox="0 0 15 15.483870967741936" style="enable-background:new 0 0 15 15;" space="preserve">
    <path d="M7.5,0.24193548387096775C3.3568548387096775,0.24193548387096775,0,3.5987903225806455,0,7.741935483870968s3.3568548387096775,7.5,7.5,7.5s7.5,-3.3568548387096775,7.5,-7.5S11.643145161290322,0.24193548387096775,7.5,0.24193548387096775zm2.4193548387096775,4.35483870967742c0.7197580645161291,0,1.5937500000000002,0.8860887096774194,1.6935483870967742,2.1592741935483875c0.021169354838709676,0.2600806451612903,-0.3266129032258065,0.35987903225806456,-0.45060483870967744,0.13608870967741937l-0.2872983870967742,-0.5141129032258065c-0.23286290322580647,-0.41431451612903225,-0.5806451612903226,-0.653225806451613,-0.9526209677419355,-0.653225806451613s-0.7197580645161291,0.23891129032258066,-0.9526209677419355,0.653225806451613l-0.2872983870967742,0.5141129032258065c-0.12399193548387095,0.22076612903225806,-0.4717741935483871,0.12096774193548387,-0.45060483870967744,-0.13608870967741937c0.09375,-1.2731854838709677,0.967741935483871,-2.1592741935483875,1.6875,-2.1592741935483875zm-4.838709677419355,0c0.7197580645161291,0,1.5937500000000002,0.8860887096774194,1.6935483870967742,2.1592741935483875c0.021169354838709676,0.2600806451612903,-0.3266129032258065,0.35987903225806456,-0.45060483870967744,0.13608870967741937l-0.2872983870967742,-0.5141129032258065c-0.23286290322580647,-0.41431451612903225,-0.5806451612903226,-0.653225806451613,-0.9526209677419355,-0.653225806451613s-0.7197580645161291,0.23891129032258066,-0.9526209677419355,0.653225806451613l-0.2872983870967742,0.5141129032258065c-0.12701612903225806,0.22379032258064518,-0.4717741935483871,0.12096774193548387,-0.45060483870967744,-0.13608870967741937c0.09375,-1.2731854838709677,0.967741935483871,-2.1592741935483875,1.6875,-2.1592741935483875zm2.4193548387096775,8.467741935483872c-1.8326612903225807,0,-4.067540322580645,-1.158266129032258,-4.348790322580646,-2.8215725806451615c-0.06048387096774194,-0.35987903225806456,0.2842741935483871,-0.653225806451613,0.626008064516129,-0.5413306451612903C4.690524193548387,9.994959677419356,6.048387096774194,10.161290322580646,7.5,10.161290322580646s2.809475806451613,-0.1663306451612903,3.722782258064516,-0.4596774193548387c0.34475806451612906,-0.11189516129032259,0.683467741935484,0.1844758064516129,0.626008064516129,0.5413306451612903c-0.28125000000000006,1.6633064516129032,-2.5161290322580645,2.8215725806451615,-4.348790322580646,2.8215725806451615z" fill="#FFFFFF"/>
    </svg>