<svg version="1.1" xmlns="http://www.w3.org/2000/svg" xlink="http://www.w3.org/1999/xlink" x="0px" y="0px" width="15px" height="13.333333333333332px" viewBox="0 0 15 13.333333333333332" style="enable-background:new 0 0 15 15;" space="preserve">
    <path d="M5.599739583333332,1.8502604166666665L3.2828125,4.166666666666666H0.625c-0.34531249999999997,0,-0.625,0.2796875,-0.625,0.625v3.75c0,0.3450520833333333,0.2796875,0.625,0.625,0.625h2.6578125l2.3169270833333333,2.31640625c0.39140624999999996,0.39140624999999996,1.0669270833333333,0.11640624999999999,1.0669270833333333,-0.4419270833333333V2.2921875c0,-0.5588541666666667,-0.6760416666666667,-0.8328125,-1.0669270833333333,-0.4419270833333333zm6.076041666666666,-1.3302083333333332c-0.2908854166666667,-0.19088541666666667,-0.6817708333333333,-0.11041666666666666,-0.8726562499999999,0.18098958333333331c-0.19114583333333332,0.2908854166666667,-0.10989583333333332,0.6817708333333333,0.18098958333333331,0.8726562499999999c1.7257812499999998,1.1325520833333333,2.7557291666666663,3.036458333333333,2.7557291666666663,5.093229166666667c0,2.056770833333333,-1.0299479166666665,3.960677083333333,-2.7557291666666663,5.093229166666667c-0.2908854166666667,0.19062500000000002,-0.37213541666666666,0.5817708333333333,-0.18098958333333331,0.8723958333333333c0.18333333333333332,0.27890624999999997,0.57109375,0.37916666666666665,0.8726562499999999,0.18098958333333331C13.757031249999997,11.447395833333333,15,9.14921875,15,6.666666666666666S13.757031249999997,1.8861979166666667,11.67578125,0.5200520833333332zM12.5,6.666666666666666c0,-1.6544270833333332,-0.8348958333333334,-3.175520833333333,-2.23359375,-4.0687500000000005c-0.29140625,-0.18593749999999998,-0.6778645833333333,-0.09947916666666666,-0.8624999999999998,0.19427083333333334s-0.09843749999999998,0.6825520833333334,0.19296875,0.8687499999999999C10.632031249999999,4.322135416666667,11.25,5.445572916666666,11.25,6.666666666666666s-0.61796875,2.3445312499999997,-1.6531249999999997,3.0057291666666663c-0.29140625,0.18593749999999998,-0.37760416666666663,0.5747395833333333,-0.19296875,0.8687499999999999c0.16953124999999997,0.2697916666666666,0.55,0.39427083333333335,0.8624999999999998,0.19427083333333334C11.665104166666667,9.8421875,12.5,8.321354166666667,12.5,6.666666666666666zm-3.6919270833333333,-2.001822916666667c-0.30156249999999996,-0.16484374999999998,-0.68203125,-0.05625000000000001,-0.8492187499999999,0.24609375c-0.16640624999999998,0.30234374999999997,-0.05625000000000001,0.6822916666666666,0.24609375,0.8492187499999999C8.541145833333335,5.944791666666666,8.75,6.292447916666666,8.75,6.666666666666666c0,0.3744791666666667,-0.20885416666666665,0.7218749999999999,-0.5447916666666667,0.9065104166666668c-0.30234374999999997,0.16692708333333334,-0.4125,0.546875,-0.24609375,0.8492187499999999c0.16744791666666664,0.30364583333333334,0.5481770833333333,0.4114583333333333,0.8492187499999999,0.24609375c0.73515625,-0.40494791666666663,1.1919270833333333,-1.171875,1.1919270833333333,-2.0020833333333328s-0.45677083333333324,-1.5968749999999998,-1.1921875,-2.0015625z" fill="#FFFFFF"/>
    </svg>