<svg version="1.1" xmlns="http://www.w3.org/2000/svg" xlink="http://www.w3.org/1999/xlink" x="0px" y="0px" width="15px" height="13.333333333333332px" viewBox="0 0 15 13.333333333333332" style="enable-background:new 0 0 15 15;" space="preserve">
    <path d="M7.5,0c-1.8122395833333336,0,-3.28125,1.4690104166666667,-3.28125,3.28125c0,1.4651041666666667,2.14453125,4.135416666666666,2.966145833333333,5.1046875c0.16640624999999998,0.19635416666666664,0.4640625,0.19635416666666664,0.6302083333333333,0C8.63671875,7.416666666666666,10.78125,4.7463541666666655,10.78125,3.28125C10.78125,1.4690104166666667,9.312239583333332,0,7.5,0zm0,4.375c-0.6041666666666666,0,-1.09375,-0.4895833333333333,-1.09375,-1.09375s0.4895833333333333,-1.09375,1.09375,-1.09375s1.09375,0.4895833333333333,1.09375,1.09375s-0.4895833333333333,1.09375,-1.09375,1.09375zM0.5239583333333333,5.623697916666666A0.8334895833333333,0.8334895833333333,0,0,0,0,6.397395833333333v6.518749999999999c0,0.2947916666666667,0.29765624999999996,0.4963541666666666,0.5713541666666667,0.3869791666666666L4.166666666666666,11.666666666666666V5.596874999999999c-0.23020833333333332,-0.4161458333333333,-0.4184895833333333,-0.8213541666666666,-0.5533854166666666,-1.2088541666666668L0.5239583333333333,5.623697916666666zM7.5,9.366406249999999c-0.36640625,0,-0.7130208333333333,-0.16093749999999998,-0.9507812499999999,-0.44166666666666665c-0.5119791666666667,-0.6041666666666666,-1.0565104166666666,-1.2921874999999998,-1.5492187499999999,-1.9979166666666666v4.739583333333333l5,1.6666666666666665V6.927083333333333c-0.4927083333333333,0.70546875,-1.0369791666666666,1.39375,-1.5492187499999999,1.9979166666666666c-0.2377604166666667,0.28046874999999993,-0.584375,0.44140625,-0.9507812499999999,0.44140625zm6.928645833333333,-5.1695312499999995L10.833333333333332,5.833333333333333v7.5l3.6427083333333328,-1.45703125A0.8332291666666666,0.8332291666666666,0,0,0,15,11.102604166666666V4.583854166666667c0,-0.2947916666666667,-0.29765624999999996,-0.4963541666666666,-0.5713541666666667,-0.3869791666666666z" fill="#FFFFFF"/>
    </svg>