<svg version="1.1" xmlns="http://www.w3.org/2000/svg" xlink="http://www.w3.org/1999/xlink" x="0px" y="0px" width="15px" height="12px" viewBox="0 0 15 12" style="enable-background:new 0 0 15 15;" space="preserve">
    <path d="M0.419296875,2.89734375L0.129140625,3.3328124999999997c-0.33281249999999996,0.49921875000000004,0.0234375,1.1671874999999998,0.623203125,1.1671874999999998h1.7404687500000002ZM13.5,9.68953125V5.25H12V8.53125L9,6.2109375V5.25H7.7559375l-0.9703124999999999,-0.75H14.25c0.59765625,0,0.9539062500000001,-0.66796875,0.623203125,-1.1671874999999998l-1.998984375,-3A0.7542187499999999,0.7542187499999999,0,0,0,12.248437500000001,0H2.75203125A0.746953125,0.746953125,0,0,0,2.128359375,0.33281249999999996l-0.24984375,0.375L1.06546875,0.07921875A0.375,0.375,0,0,0,0.5390625,0.145078125L0.078984375,0.73734375A0.375,0.375,0,0,0,0.14484375,1.263515625L13.934296875,11.921015624999999A0.375,0.375,0,0,0,14.4609375,11.854921875l0.4603125,-0.59203125a0.375,0.375,0,0,0,-0.065859375,-0.526171875ZM7.5,9H3V5.25H1.5V11.25a0.75,0.75,0,0,0,0.75,0.75H8.25a0.75,0.75,0,0,0,0.75,-0.75V9.529453125l-1.5,-1.159453125Z" fill="#FFFFFF"/>
    </svg>