<svg version="1.1" xmlns="http://www.w3.org/2000/svg" xlink="http://www.w3.org/1999/xlink" x="0px" y="0px" width="15px" height="15px" viewBox="0 0 15 15" style="enable-background:new 0 0 15 15;" space="preserve"><path d="M3.75,7.5A3.75,3.75,0,1,0,7.5,11.25A3.75,3.75,0,0,0,3.75,7.5Zm11.103515625,-1.6072265625L11.72080078125,0.5358398437499999a1.0916015625,1.0916015625,0,0,0,-1.8791015625,0L6.708984375,5.8927734375C6.291796874999999,6.60703125,6.8138671875000005,7.5,7.649121093749999,7.5H13.913378906250001C14.7486328125,7.5,15.270703125,6.60703125,14.853515625,5.8927734375ZM14.0625,8.4375H9.375a0.9375,0.9375,0,0,0,-0.9375,0.9375V14.0625a0.9375,0.9375,0,0,0,0.9375,0.9375H14.0625a0.9375,0.9375,0,0,0,0.9375,-0.9375V9.375A0.9375,0.9375,0,0,0,14.0625,8.4375Z" fill="#FFFFFF"/></svg>