<svg version="1.1" xmlns="http://www.w3.org/2000/svg" xlink="http://www.w3.org/1999/xlink" x="0px" y="0px" width="15px" height="13.333333333333332px" viewBox="0 0 15 13.333333333333332" style="enable-background:new 0 0 15 15;" space="preserve"><path d="M4.166666666666667,11.666666666666668c-0.6666666666666667,0,-1.3333333333333335,-0.5833333333333334,-1.6666666666666667,-0.8333333333333334c-1.6666666666666667,-1.1666666666666667,-2.166666666666667,-1.5833333333333333,-2.5,-1.8333333333333335V12.5c0,0.46015625000000004,0.3731770833333333,0.8333333333333334,0.8333333333333334,0.8333333333333334h6.666666666666667c0.46015625000000004,0,0.8333333333333334,-0.3731770833333333,0.8333333333333334,-0.8333333333333334V9.000000000000002c-0.33333333333333337,0.25,-0.8333333333333334,0.6666666666666667,-2.5,1.8333333333333335c-0.33333333333333337,0.25,-1,0.8333333333333334,-1.6666666666666667,0.8333333333333334zm3.3333333333333335,-5H0.8333333333333334c-0.46015625000000004,0,-0.8333333333333334,0.3731770833333333,-0.8333333333333334,0.8333333333333334v0.4166666666666667c0.6666666666666667,0.5,0.5833333333333334,0.5,3,2.2500000000000004c0.25,0.16666666666666669,0.75,0.6666666666666667,1.1666666666666667,0.6666666666666667s0.9166666666666667,-0.5,1.1666666666666667,-0.5833333333333334c2.4166666666666665,-1.7500000000000002,2.3333333333333335,-1.7500000000000002,3,-2.2500000000000004V7.5c0,-0.46015625000000004,-0.3731770833333333,-0.8333333333333334,-0.8333333333333334,-0.8333333333333334zm6.666666666666667,-2.5H5.833333333333334c-0.46015625000000004,0,-0.8333333333333334,0.3731770833333333,-0.8333333333333334,0.8333333333333334v0.8333333333333334h2.5c0.86484375,0,1.5778645833333336,0.6619791666666668,1.6591145833333334,1.5057291666666668l0.007552083333333333,-0.005729166666666667V10.833333333333334h5c0.46015625000000004,0,0.8333333333333334,-0.3731770833333333,0.8333333333333334,-0.8333333333333334V5c0,-0.46015625000000004,-0.3731770833333333,-0.8333333333333334,-0.8333333333333334,-0.8333333333333334zm-0.8333333333333334,3.3333333333333335h-1.6666666666666667v-1.6666666666666667h1.6666666666666667v1.6666666666666667zm-9.166666666666668,-2.5c0,-0.9190104166666667,0.74765625,-1.6666666666666667,1.6666666666666667,-1.6666666666666667h5.833333333333334V0.8333333333333334c0,-0.46015625000000004,-0.3731770833333333,-0.8333333333333334,-0.8333333333333334,-0.8333333333333334H2.5C2.03984375,0,1.6666666666666667,0.3731770833333333,1.6666666666666667,0.8333333333333334v5h2.5v-0.8333333333333334z" fill="#FFFFFF"/></svg>