<svg version="1.1" xmlns="http://www.w3.org/2000/svg" xlink="http://www.w3.org/1999/xlink" x="0px" y="0px" width="15px" height="12px" viewBox="0 0 15 12" style="enable-background:new 0 0 15 15;" space="preserve">
    <path d="M3.357421875,5.1752343750000005l-0.29109375,1.0867968749999999c-0.070546875,0.263671875,-0.085078125,0.536484375,-0.056484375,0.806015625l-0.8250000000000001,0.67921875c-0.153984375,0.126796875,-0.38226562499999994,-0.010078125,-0.34265625,-0.205546875l0.361875,-1.7971875000000002c0.02484375,-0.12328125,-0.06234375,-0.24093749999999997,-0.1875,-0.252890625l-1.8248437499999999,-0.176953125c-0.19851562500000003,-0.01921875,-0.263203125,-0.277265625,-0.09703124999999999,-0.38765625l1.5269531250000001,-1.0148437499999998c0.10453124999999999,-0.069609375,0.12609375,-0.21445312500000002,0.046406249999999996,-0.311484375L0.50296875,2.1848437499999998c-0.126796875,-0.153984375,0.010078125,-0.38203125000000004,0.20578124999999997,-0.34265625l1.7971875000000002,0.361875c0.12328125,0.02484375,0.24093749999999997,-0.06234375,0.25312500000000004,-0.1875l0.176953125,-1.8248437499999999c0.01921875,-0.19875,0.277265625,-0.263203125,0.38789062500000004,-0.09703124999999999l1.0148437499999998,1.5267187500000001c0.069609375,0.10453124999999999,0.21445312500000002,0.12609375,0.311484375,0.046406249999999996l1.415625,-1.165078125c0.153984375,-0.126796875,0.38203125000000004,0.010078125,0.34265625,0.205546875L6.1429687500000005,2.02453125c-0.06351562499999999,0.07148437499999999,-0.127265625,0.142734375,-0.185390625,0.22031250000000002l-0.7535156249999999,1.007109375l-0.251015625,0.335625c-0.767109375,0.2053125,-1.38703125,0.809296875,-1.595625,1.5876562499999998zm11.591484375,3.105703125l-0.29109375,1.0865624999999999c-0.073359375,0.27375,-0.21984375,0.506484375,-0.41132812500000004,0.688125a1.5674062500000001,1.5674062500000001,0,0,1,-0.2053125,0.1640625l-0.327890625,1.224140625c-0.02671875,0.10007812499999999,-0.07265625,0.18984374999999998,-0.13242187500000002,0.26671875c-0.17976562499999998,0.230625,-0.48609375,0.3440625,-0.78609375,0.263671875L12.0703125,11.780156250000001c-0.400078125,-0.107109375,-0.6375,-0.5184375,-0.530390625,-0.918515625l0.19406249999999997,-0.724453125l-5.795625,-1.5529687500000002l-0.19406249999999997,0.724453125c-0.107109375,0.400078125,-0.5184375,0.6375,-0.918515625,0.530390625l-0.724453125,-0.19406249999999997c-0.30000000000000004,-0.08039062500000001,-0.50859375,-0.33187500000000003,-0.54890625,-0.621328125c-0.013359375,-0.0965625,-0.008203124999999999,-0.19734374999999998,0.018515625,-0.2971875l0.327890625,-1.224140625a1.56140625,1.56140625,0,0,1,-0.095859375,-0.24492187499999998c-0.07500000000000001,-0.252890625,-0.085546875,-0.5278125,-0.0121875,-0.8015625000000001l0.29109375,-1.0867968749999999c0.124453125,-0.46406250000000004,0.45375,-0.816328125,0.864609375,-0.989296875a1.5078749999999999,1.5078749999999999,0,0,1,0.433359375,-0.110625l0.424921875,-0.567890625l0.7535156249999999,-1.007109375c0.08085937500000001,-0.10804687500000001,0.168515625,-0.20859375000000002,0.26249999999999996,-0.30093749999999997c0.1875,-0.18492187499999999,0.399140625,-0.3384375,0.62671875,-0.457265625c0.11390625000000001,-0.05953125,0.231796875,-0.11039062499999999,0.35273437500000004,-0.152109375c0.24210937500000002,-0.08390625,0.49664062500000006,-0.131953125,0.755625,-0.1415625c0.25898437500000004,-0.009609375,0.5228906249999999,0.01921875,0.7835156249999999,0.08906249999999999l2.8753125,0.7703906249999999c0.260625,0.06984375,0.5034375,0.17671875,0.7230468750000001,0.314765625a2.604140625,2.604140625,0,0,1,0.813046875,0.80859375c0.20671875,0.3253125,0.343125,0.699375,0.3909375,1.101328125l0.14906250000000001,1.248984375l0.084140625,0.704296875a1.5114843749999998,1.5114843749999998,0,0,1,0.53296875,0.7014843749999999c0.10289062499999999,0.2784375,0.12398437500000001,0.5903906250000001,0.041015625,0.899765625zM5.99015625,5.49234375c-0.43476562500000004,-0.116484375,-0.801796875,0.09468750000000001,-0.918046875,0.528046875c-0.11624999999999999,0.433359375,0.09632812500000001,0.7996874999999999,0.5308593749999999,0.9161718750000001c0.43476562500000004,0.116484375,1.06734375,0.363515625,1.183359375,-0.06984375c0.11624999999999999,-0.433359375,-0.361640625,-1.257890625,-0.796171875,-1.3743750000000001zm6.811171875,0.660234375l-0.14906250000000001,-1.248984375c-0.013593749999999998,-0.114140625,-0.044296875,-0.22335937499999997,-0.08953124999999999,-0.32484375c-0.1359375,-0.304453125,-0.40312499999999996,-0.539296875,-0.73640625,-0.6285937500000001l-2.8753125,-0.7703906249999999a1.1251875,1.1251875,0,0,0,-1.1920312499999999,0.412734375l-0.7535156249999999,1.007109375l4.03125,1.08l1.764609375,0.47296875zm0.433359375,1.280859375c-0.43476562500000004,-0.116484375,-1.2609374999999998,0.358828125,-1.376953125,0.791953125c-0.11601562500000001,0.433359375,0.5552343750000001,0.53578125,0.99,0.652265625c0.43476562500000004,0.116484375,0.801796875,-0.09468750000000001,0.918046875,-0.528046875c0.11601562500000001,-0.433125,-0.09632812500000001,-0.7996874999999999,-0.53109375,-0.9161718750000001z" fill="#FFFFFF"/>
    </svg>