<svg version="1.1" xmlns="http://www.w3.org/2000/svg" xlink="http://www.w3.org/1999/xlink" x="0px" y="0px" width="15px" height="12px" viewBox="0 0 15 12" style="enable-background:new 0 0 15 15;" space="preserve">
    <path d="M14.25,7.5h-1.5v1.5h0.525c0.12421875,0,0.225,0.084375,0.225,0.1875v0.375c0,0.10312500000000001,-0.10078125,0.1875,-0.225,0.1875H1.725c-0.12421875,0,-0.225,-0.084375,-0.225,-0.1875v-0.375c0,-0.10312500000000001,0.10078125,-0.1875,0.225,-0.1875H2.25v-1.5H0.75c-0.41484375,0,-0.75,0.33515625000000004,-0.75,0.75v2.25c0,0.41484375,0.33515625000000004,0.75,0.75,0.75h13.5c0.41484375,0,0.75,-0.33515625000000004,0.75,-0.75v-2.25c0,-0.41484375,-0.33515625000000004,-0.75,-0.75,-0.75zm-2.25,1.5V1.50703125c0,-0.41953125,-0.33984375,-0.7570312499999999,-0.7570312499999999,-0.7570312499999999H3.7593750000000004C3.33984375,0.75,3,1.08984375,3,1.50703125V9h9zM4.95,4.734375l0.59765625,-0.59296875c0.09843750000000001,-0.09843750000000001,0.2578125,-0.09843750000000001,0.35625,0.0023437500000000003l0.96796875,0.9750000000000001l2.23125,-2.2125c0.09843750000000001,-0.09843750000000001,0.2578125,-0.09843750000000001,0.35625,0.0023437500000000003l0.59296875,0.59765625c0.09843750000000001,0.09843750000000001,0.09843750000000001,0.2578125,-0.0023437500000000003,0.35625L7.04296875,6.84375c-0.09843750000000001,0.09843750000000001,-0.2578125,0.09843750000000001,-0.35625,-0.0023437500000000003l-1.73671875,-1.7507812500000002c-0.10078125,-0.09843750000000001,-0.09843750000000001,-0.2578125,0,-0.35625z" fill="#FFFFFF"/>
    </svg>