<svg version="1.1" xmlns="http://www.w3.org/2000/svg" xlink="http://www.w3.org/1999/xlink" x="0px" y="0px" width="15px" height="24px" viewBox="0 0 15 24" style="enable-background:new 0 0 15 15;" space="preserve">
    <path d="M12.75,0H2.25C1.0078125,0,0,1.0078125,0,2.25v19.5c0,1.2421875,1.0078125,2.25,2.25,2.25h10.5c1.2421875,0,2.25,-1.0078125,2.25,-2.25V2.25c0,-1.2421875,-1.0078125,-2.25,-2.25,-2.25zM7.5,22.5c-0.8296874999999999,0,-1.5,-0.6703125000000001,-1.5,-1.5s0.6703125000000001,-1.5,1.5,-1.5s1.5,0.6703125000000001,1.5,1.5s-0.6703125000000001,1.5,-1.5,1.5zm5.25,-5.0625c0,0.30937499999999996,-0.25312500000000004,0.5625,-0.5625,0.5625H2.8125c-0.30937499999999996,0,-0.5625,-0.25312500000000004,-0.5625,-0.5625V2.8125c0,-0.30937499999999996,0.25312500000000004,-0.5625,0.5625,-0.5625h9.375c0.30937499999999996,0,0.5625,0.25312500000000004,0.5625,0.5625v14.625z" fill="#FFFFFF"/>
    </svg>