<svg version="1.1" xmlns="http://www.w3.org/2000/svg" xlink="http://www.w3.org/1999/xlink" x="0px" y="0px" width="15px" height="13.333333333333332px" viewBox="0 0 15 13.333333333333332" style="enable-background:new 0 0 15 15;" space="preserve"><path d="M2.916666666666667,0.8333333333333334C1.3046875,0.8333333333333334,0,2.1380208333333335,0,3.75v5.833333333333334c0,1.6119791666666667,1.3046875,2.916666666666667,2.916666666666667,2.916666666666667s2.916666666666667,-1.3046875,2.916666666666667,-2.916666666666667V3.75c0,-1.6119791666666667,-1.3046875,-2.916666666666667,-2.916666666666667,-2.916666666666667zm1.25,5.833333333333334H1.6666666666666667V3.75c0,-0.6901041666666667,0.5598958333333334,-1.25,1.25,-1.25s1.25,0.5598958333333334,1.25,1.25v2.916666666666667zm3.638020833333333,-0.7734375c-0.09114583333333334,-0.09114583333333334,-0.24479166666666669,-0.08072916666666667,-0.32031250000000006,0.020833333333333336c-1.1796875,1.6276041666666667,-1.0520833333333333,3.9088541666666665,0.4140625,5.375c1.4661458333333333,1.4661458333333333,3.7473958333333335,1.5937500000000002,5.375,0.4140625c0.10416666666666667,-0.07552083333333333,0.11197916666666667,-0.22916666666666669,0.020833333333333336,-0.32031250000000006L7.8046875,5.893229166666667zm5.984375000000001,-0.4947916666666667c-1.4661458333333333,-1.4661458333333333,-3.7473958333333335,-1.5937500000000002,-5.375,-0.4140625c-0.10416666666666667,0.07552083333333333,-0.11197916666666667,0.22916666666666669,-0.020833333333333336,0.32031250000000006l5.489583333333334,5.489583333333334c0.09114583333333334,0.09114583333333334,0.24479166666666669,0.08072916666666667,0.32031250000000006,-0.020833333333333336c1.1796875,-1.6302083333333335,1.0546875,-3.9088541666666665,-0.4140625,-5.375z" fill="#FFFFFF"/></svg>