<svg version="1.1" xmlns="http://www.w3.org/2000/svg" xlink="http://www.w3.org/1999/xlink" x="0px" y="0px" width="15px" height="15px" viewBox="0 0 15 15" style="enable-background:new 0 0 15 15;" space="preserve"><path d="M13.55859375,1.45224609375a4.9640625,4.9640625,0,0,0,-7.0166015625,0C5.5025390624999995,2.490234375,4.69130859375,3.75,4.69130859375,5.625v2.51455078125l-1.1900390625,1.18916015625c-0.2841796875,0.28388671875,-0.703125,0.32431640625,-1.0775390625,0.17578125a1.7674804687499999,1.7674804687499999,0,0,0,-1.904296875,2.8921875C0.966796875,12.843457031249999,1.5890625,12.9697265625,2.16357421875,12.83818359375c-0.1318359375,0.57421875,-0.0052734374999999995,1.1961914062499999,0.4423828125,1.6435546875a1.76806640625,1.76806640625,0,0,0,2.89453125,-1.904296875c-0.14912109375,-0.37294921875000003,-0.10898437500000001,-0.791015625,0.17578125,-1.07666015625L6.866015625,10.3125h2.51630859375a5.50400390625,5.50400390625,0,0,0,1.81318359375,-0.29296875c-1.161328125,-1.28583984375,-1.1668945312499999,-3.22939453125,0.03076171875,-4.4258789062499995c1.0072265625,-1.006640625,2.541796875,-1.1560546875,3.7716796875000003,-0.4921875c0.0380859375,-1.3171875,-0.43388671875,-2.644921875,-1.43935546875,-3.64921875z" fill="#FFFFFF"/></svg>