<svg version="1.1" xmlns="http://www.w3.org/2000/svg" xlink="http://www.w3.org/1999/xlink" x="0px" y="0px" width="16.875px" height="15px" viewBox="0 0 16.875 15" style="enable-background:new 0 0 15 15;" space="preserve">
    <path d="M16.773046875,7.072265625C15.184277343749999,3.9723632812500003,12.03896484375,1.875,8.4375,1.875S1.68984375,3.973828125,0.101953125,7.07255859375a0.94775390625,0.94775390625,0,0,0,0,0.85517578125C1.69072265625,11.027636718750001,4.8360351562499995,13.125,8.4375,13.125s6.7476562499999995,-2.098828125,8.335546874999999,-5.19755859375a0.94775390625,0.94775390625,0,0,0,0,-0.85517578125zM8.4375,11.71875a4.21875,4.21875,0,1,1,4.21875,-4.21875a4.2166992187500005,4.2166992187500005,0,0,1,-4.21875,4.21875zm0,-7.03125a2.79228515625,2.79228515625,0,0,0,-0.74150390625,0.11103515625a1.40185546875,1.40185546875,0,0,1,-1.9599609375000002,1.9599609375000002A2.8060546875,2.8060546875,0,1,0,8.4375,4.6875z" fill="#FFFFFF"/>
    </svg>