<svg version="1.1" xmlns="http://www.w3.org/2000/svg" xlink="http://www.w3.org/1999/xlink" x="0px" y="0px" width="15px" height="15px" viewBox="0 0 15 15" style="enable-background:new 0 0 15 15;" space="preserve">
    <path d="M13.53515625,7.079296875l-0.64453125,-2.4855468750000003c-0.28125,-1.03125,-1.21875,-1.78125,-2.25,-1.78125H10.3125V1.875c0,-0.51767578125,-0.41982421875,-0.9375,-0.9375,-0.9375H5.625c-0.51767578125,0,-0.9375,0.41982421875,-0.9375,0.9375v0.9375h-0.328125c-1.03125,0,-1.96875,0.75,-2.25,1.78125l-0.64453125,2.4855468750000003C0.62724609375,7.266796875,0,8.01181640625,0,8.90625v1.40625c0,0.69228515625,0.37939453125,1.290234375,0.9375,1.61484375V13.125c0,0.51767578125,0.41982421875,0.9375,0.9375,0.9375h0.9375c0.51767578125,0,0.9375,-0.41982421875,0.9375,-0.9375v-0.9375h7.5v0.9375c0,0.51767578125,0.41982421875,0.9375,0.9375,0.9375h0.9375c0.51767578125,0,0.9375,-0.41982421875,0.9375,-0.9375v-1.19765625c0.55810546875,-0.32490234375,0.9375,-0.9228515625,0.9375,-1.61484375v-1.40625c0,-0.8944335937500001,-0.62724609375,-1.639453125,-1.46484375,-1.826953125zM2.8125,10.3125c-0.51767578125,0,-0.9375,-0.41982421875,-0.9375,-0.9375s0.41982421875,-0.9375,0.9375,-0.9375s0.9375,0.41982421875,0.9375,0.9375s-0.41982421875,0.9375,-0.9375,0.9375zm0.60205078125,-3.28125l0.50390625,-1.944140625c0.06533203125,-0.2390625,0.28095703125,-0.39960937500000004,0.4412109375,-0.39960937500000004h6.28125c0.16025390625,0,0.37587890625,0.160546875,0.43505859375,0.37675781249999996L11.58544921875,7.03125h-8.1708984375zM12.1875,10.3125c-0.51767578125,0,-0.9375,-0.41982421875,-0.9375,-0.9375s0.41982421875,-0.9375,0.9375,-0.9375s0.9375,0.41982421875,0.9375,0.9375s-0.41982421875,0.9375,-0.9375,0.9375z" fill="#FFFFFF"/>
    </svg>