<svg version="1.1" xmlns="http://www.w3.org/2000/svg" xlink="http://www.w3.org/1999/xlink" x="0px" y="0px" width="16.875px" height="15px" viewBox="0 0 16.875 15" style="enable-background:new 0 0 15 15;" space="preserve">
    <path d="M14.0625,5.625H10.71416015625L7.63505859375,0.2361328125A0.46916015624999996,0.46916015624999996,0,0,0,7.22783203125,0h-1.9189453125c-0.31142578125000003,0,-0.5361328125,0.29794921875,-0.45058593750000003,0.59736328125L6.2947265625,5.625H3.28125l-1.265625,-1.6875c-0.0884765625,-0.11806640625,-0.22763671875,-0.1875,-0.375,-0.1875H0.46904296875000007C0.1640625,3.75,-0.059765625,4.0365234375,0.01435546875,4.332421875L0.9375,7.5L0.01435546875,10.667578125C-0.059765625,10.9634765625,0.1640625,11.25,0.46904296875000007,11.25H1.640625c0.14765625,0,0.2865234375,-0.06943359375000001,0.375,-0.1875L3.28125,9.375h3.0134765625l-1.43642578125,5.02734375c-0.085546875,0.2994140625,0.13916015625,0.59765625,0.45058593750000003,0.59765625h1.9189453125c0.16816406250000002,0,0.3234375,-0.090234375,0.40693359375000004,-0.2361328125L10.71416015625,9.375H14.0625c1.03564453125,0,2.8125,-0.83935546875,2.8125,-1.875s-1.77685546875,-1.875,-2.8125,-1.875z" fill="#FFFFFF"/>
    </svg>