<svg version="1.1" xmlns="http://www.w3.org/2000/svg" xlink="http://www.w3.org/1999/xlink" x="0px" y="0px" width="13.125px" height="15px" viewBox="0 0 13.125 15" style="enable-background:new 0 0 15 15;" space="preserve"><path d="M13.125,11.25c-0.8208984375,0,-0.9158203125000001,-0.9375,-2.1826171875,-0.9375c-1.27236328125,0,-1.371826171875,0.9375,-2.18994140625,0.9375c-0.811376953125,0,-0.92150390625,-0.9375,-2.18994140625,-0.9375c-1.25513671875,0,-1.3833398437500002,0.9375,-2.1826171875,0.9375c-0.8246484374999999,0,-0.9141210937500001,-0.9375,-2.18994140625,-0.9375c-1.2757910156249999,0,-1.366787109375,0.9375,-2.18994140625,0.9375v-2.34375c0,-0.7763671875,0.6298828125,-1.40625,1.40625,-1.40625h0.46875V3.28125h1.875v4.21875h1.875V3.28125h1.875v4.21875h1.875V3.28125h1.875v4.21875h0.46875c0.7763671875,0,1.40625,0.6298828125,1.40625,1.40625v2.34375zm0,3.75H0v-2.8125c1.2701953125,0,1.370126953125,-0.9375,2.18994140625,-0.9375c0.818876953125,0,0.915615234375,0.9375,2.18994140625,0.9375c1.2551660156250002,0,1.383310546875,-0.9375,2.1826171875,-0.9375c0.8246484374999999,0,0.914091796875,0.9375,2.18994140625,0.9375c1.270224609375,0,1.370126953125,-0.9375,2.18994140625,-0.9375c0.8053125,0,0.9155859375,0.9375,2.1826171875,0.9375v2.8125zM2.8125,2.8125c-0.52001953125,0,-0.9375,-0.41748046875,-0.9375,-0.9375c0,-0.908203125,0.9375,-0.673828125,0.9375,-1.875c0.3515625,0,0.9375,0.8642578125,0.9375,1.640625s-0.41748046875,1.171875,-0.9375,1.171875zm3.75,0c-0.52001953125,0,-0.9375,-0.41748046875,-0.9375,-0.9375c0,-0.908203125,0.9375,-0.673828125,0.9375,-1.875c0.3515625,0,0.9375,0.8642578125,0.9375,1.640625s-0.41748046875,1.171875,-0.9375,1.171875zm3.75,0c-0.52001953125,0,-0.9375,-0.41748046875,-0.9375,-0.9375c0,-0.908203125,0.9375,-0.673828125,0.9375,-1.875c0.3515625,0,0.9375,0.8642578125,0.9375,1.640625s-0.41748046875,1.171875,-0.9375,1.171875z" fill="#FFFFFF"/></svg>