<svg version="1.1" xmlns="http://www.w3.org/2000/svg" xlink="http://www.w3.org/1999/xlink" x="0px" y="0px" width="15px" height="13.333333333333332px" viewBox="0 0 15 13.333333333333332" style="enable-background:new 0 0 15 15;" space="preserve">
    <path d="M5,12.916666666666666c0,0.22916666666666666,0.1875,0.41666666666666663,0.41666666666666663,0.41666666666666663h0.8333333333333333c0.22916666666666666,0,0.41666666666666663,-0.1875,0.41666666666666663,-0.41666666666666663V8.333333333333332h-1.6666666666666665v4.583333333333333zm0.8333333333333333,-7.083333333333333h-1.3255208333333333l-1.1770833333333333,-1.1796875C3.015625,4.338541666666666,2.5963541666666665,4.166666666666666,2.153645833333333,4.166666666666666H1.6666666666666665c-0.4453125,0,-0.8645833333333334,0.17447916666666666,-1.1796875,0.4895833333333333C0.17447916666666666,4.971354166666666,0,5.390625,0,5.8359375L0.005208333333333333,8.333333333333332L0,12.5c0,0.4609375,0.3723958333333333,0.8333333333333333,0.8307291666666666,0.8333333333333333c0.4583333333333333,0,0.8333333333333333,-0.3723958333333333,0.8333333333333333,-0.8333333333333333l0.0026041666666666665,-2.622395833333333c0.0234375,0.013020833333333332,0.041666666666666664,0.033854166666666664,0.06510416666666666,0.04427083333333333l0.7578125,1.1197916666666665v1.4583333333333333c0,0.4609375,0.3723958333333333,0.8333333333333333,0.8333333333333333,0.8333333333333333s0.8333333333333333,-0.3723958333333333,0.8333333333333333,-0.8333333333333333v-1.4713541666666665c0,-0.2578125,-0.05989583333333333,-0.515625,-0.17447916666666666,-0.7447916666666666l-1.0729166666666665,-1.5963541666666665V6.588541666666666l0.5442708333333333,0.5442708333333333c0.23697916666666666,0.23697916666666666,0.5494791666666666,0.3671875,0.8828125,0.3671875H5.833333333333333c0.4609375,0,0.8333333333333333,-0.3723958333333333,0.8333333333333333,-0.8333333333333333s-0.3723958333333333,-0.8333333333333333,-0.8333333333333333,-0.8333333333333333zM1.6666666666666665,3.333333333333333c0.6901041666666666,0,1.25,-0.5598958333333333,1.25,-1.25S2.356770833333333,0.8333333333333333,1.6666666666666665,0.8333333333333333S0.41666666666666663,1.3932291666666665,0.41666666666666663,2.083333333333333s0.5598958333333333,1.25,1.25,1.25zm5.833333333333333,-2.5l0.8203125,5.809895833333333l-0.8046875,4.026041666666666c-0.11197916666666666,0.5625,0.33854166666666663,0.9973958333333333,0.8177083333333333,0.9973958333333333c0.3958333333333333,0,0.7291666666666666,-0.23697916666666666,0.8411458333333331,-0.7916666666666666c0.0234375,0.4401041666666666,0.3802083333333333,0.7916666666666666,0.8255208333333333,0.7916666666666666c0.4609375,0,0.8333333333333333,-0.3723958333333333,0.8333333333333333,-0.8333333333333333c0,0.4609375,0.3723958333333333,0.8333333333333333,0.8333333333333333,0.8333333333333333s0.8333333333333333,-0.3723958333333333,0.8333333333333333,-0.8333333333333333V0H7.5v0.8333333333333333zm-2.5,0v4.166666666666666h1.6666666666666665V0h-0.8333333333333333c-0.4609375,0,-0.8333333333333333,0.3723958333333333,-0.8333333333333333,0.8333333333333333zM14.166666666666666,0h-0.8333333333333333v12.916666666666666c0,0.22916666666666666,0.1875,0.41666666666666663,0.41666666666666663,0.41666666666666663h0.8333333333333333c0.22916666666666666,0,0.41666666666666663,-0.1875,0.41666666666666663,-0.41666666666666663V0.8333333333333333c0,-0.4609375,-0.3723958333333333,-0.8333333333333333,-0.8333333333333333,-0.8333333333333333z" fill="#FFFFFF"/>
    </svg>