<svg version="1.1" xmlns="http://www.w3.org/2000/svg" xlink="http://www.w3.org/1999/xlink" x="0px" y="0px" width="18.75px" height="15px" viewBox="0 0 18.75 15" style="enable-background:new 0 0 15 15;" space="preserve">
    <path d="M15.0263671875,5.625c-0.4365234375,-0.0029296875,-0.8525390625,0.0673828125,-1.2421875,0.2021484375L12.8203125,4.21875H15.234375c0.3896484375,0,0.703125,-0.3134765625,0.703125,-0.703125V2.578125c0,-0.3896484375,-0.3134765625,-0.703125,-0.703125,-0.703125h-1.3271484375c-0.19921875,0,-0.3896484375,0.0849609375,-0.521484375,0.2314453125l-1.0986328125,1.2216796875l-0.66796875,-1.11328125C11.490234375,2.00390625,11.26171875,1.875,11.015625,1.875h-2.34375c-0.2578125,0,-0.46875,0.2109375,-0.46875,0.46875v0.46875c0,0.2578125,0.2109375,0.46875,0.46875,0.46875h1.9453125000000002l0.5625,0.9375H6.6767578125c-0.5185546875,-0.6767578125,-1.3154296875,-1.171875,-2.9267578125,-1.171875H2.1240234375C1.728515625,3.046875,1.3974609375,3.369140625,1.40625,3.7646484375c0.005859375,0.380859375,0.3193359375,0.6884765625,0.703125,0.6884765625h1.640625c0.7177734375,0,1.1337890625,0.3193359375,1.400390625,0.7265625l-0.3310546875,0.6005859375c-0.380859375,-0.1142578125,-0.7880859375,-0.1669921875,-1.2099609375,-0.15234375C1.6376953125,5.6982421875,0.046875,7.3125,0,9.287109375c-0.046875,2.1123046875,1.6494140625,3.837890625,3.75,3.837890625c1.74609375,0,3.2138671875,-1.1953125,3.6328125,-2.8125h2.466796875c0.4013671875,0,0.720703125,-0.333984375,0.703125,-0.7353515625c-0.0615234375,-1.3798828125,0.5126953125,-2.7451171875,1.646484375,-3.662109375l0.3662109375,0.609375c-0.80859375,0.6943359375,-1.3212890625,1.7255859375,-1.3125,2.876953125c0.0146484375,2.0390625,1.67578125,3.7060546875,3.71484375,3.7236328125c2.09765625,0.0205078125,3.8027343750000004,-1.6845703125,3.7851562499999996,-3.7822265625c-0.0205078125,-2.0390625,-1.6875,-3.703125,-3.7265625,-3.7177734375zM3.75,11.71875c-1.2919921875,0,-2.34375,-1.0517578125,-2.34375,-2.34375s1.0517578125,-2.34375,2.34375,-2.34375c0.123046875,0,0.24609375,0.0087890625,0.3662109375,0.029296875L2.900390625,9.26953125c-0.2578125,0.46875,0.08203125,1.04296875,0.615234375,1.04296875h2.3818359375c-0.36328125,0.826171875,-1.189453125,1.40625,-2.1474609375,1.40625zm13.5908203125,-2.21484375c-0.064453125,1.189453125,-1.025390625,2.150390625,-2.2119140625,2.2119140625c-1.3505859375,0.0732421875,-2.47265625,-1.0048828125,-2.47265625,-2.3408203125c0,-0.626953125,0.24609375,-1.1953125,0.6474609375,-1.6142578125l1.447265625,2.4140625c0.1318359375,0.22265625,0.421875,0.29296875,0.64453125,0.1611328125l0.4013671875,-0.24023437499999997c0.22265625,-0.1318359375,0.29296875,-0.421875,0.1611328125,-0.64453125l-1.423828125,-2.3701171875c0.15234375,-0.0322265625,0.3076171875,-0.046875,0.4658203125,-0.046875c1.3359375,-0.0029296875,2.4111328125,1.119140625,2.3408203125,2.4697265625z" fill="#FFFFFF"/>
    </svg>