<svg version="1.1" xmlns="http://www.w3.org/2000/svg" xlink="http://www.w3.org/1999/xlink" x="0px" y="0px" width="13.125px" height="15px" viewBox="0 0 13.125 15" style="enable-background:new 0 0 15 15;" space="preserve">
    <path d="M13.125,10.546875V0.703125c0,-0.3896484375,-0.3134765625,-0.703125,-0.703125,-0.703125H2.8125C1.259765625,0,0,1.259765625,0,2.8125v9.375c0,1.552734375,1.259765625,2.8125,2.8125,2.8125h9.609375c0.3896484375,0,0.703125,-0.3134765625,0.703125,-0.703125v-0.46875c0,-0.2197265625,-0.1025390625,-0.4189453125,-0.2607421875,-0.5478515625c-0.123046875,-0.451171875,-0.123046875,-1.7373046875,0,-2.1884765625c0.158203125,-0.1259765625,0.2607421875,-0.3251953125,0.2607421875,-0.544921875zM3.75,3.92578125c0,-0.0966796875,0.0791015625,-0.17578125,0.17578125,-0.17578125h6.2109375c0.0966796875,0,0.17578125,0.0791015625,0.17578125,0.17578125v0.5859375c0,0.0966796875,-0.0791015625,0.17578125,-0.17578125,0.17578125H3.92578125c-0.0966796875,0,-0.17578125,-0.0791015625,-0.17578125,-0.17578125v-0.5859375zm0,1.875c0,-0.0966796875,0.0791015625,-0.17578125,0.17578125,-0.17578125h6.2109375c0.0966796875,0,0.17578125,0.0791015625,0.17578125,0.17578125v0.5859375c0,0.0966796875,-0.0791015625,0.17578125,-0.17578125,0.17578125H3.92578125c-0.0966796875,0,-0.17578125,-0.0791015625,-0.17578125,-0.17578125v-0.5859375zm7.423828125,7.32421875H2.8125c-0.5185546875,0,-0.9375,-0.4189453125,-0.9375,-0.9375c0,-0.515625,0.421875,-0.9375,0.9375,-0.9375h8.361328125c-0.0556640625,0.5009765625,-0.0556640625,1.3740234375,0,1.875z" fill="#FFFFFF"/>
    </svg>