<svg version="1.1" xmlns="http://www.w3.org/2000/svg" xlink="http://www.w3.org/1999/xlink" x="0px" y="0px" width="15px" height="12px" viewBox="0 0 15 12" style="enable-background:new 0 0 15 15;" space="preserve">
    <path d="M14.625,5.25h-0.375v-1.5c0,-0.41414062500000004,-0.335859375,-0.75,-0.75,-0.75h-1.7249999999999999L9.82546875,0.56296875A1.5005859375000001,1.5005859375000001,0,0,0,8.6540625,0H6c-0.41414062500000004,0,-0.75,0.335859375,-0.75,0.75v2.25H1.125c-0.2071875,0,-0.375,0.1678125,-0.375,0.375v1.875H0.375c-0.2071875,0,-0.375,0.1678125,-0.375,0.375v0.75c0,0.2071875,0.1678125,0.375,0.375,0.375h0.391875c0.684609375,-0.9058593749999999,1.7601562499999999,-1.5,2.9831250000000002,-1.5s2.298515625,0.5941406250000001,2.9831250000000002,1.5h1.5339843750000002c0.684609375,-0.9058593749999999,1.7601562499999999,-1.5,2.9831250000000002,-1.5s2.298515625,0.5941406250000001,2.9831250000000002,1.5H14.625c0.2071875,0,0.375,-0.1678125,0.375,-0.375v-0.75c0,-0.2071875,-0.1678125,-0.375,-0.375,-0.375zm-7.875,-2.25V1.5h1.9040624999999998l1.2000000000000002,1.5H6.75zm7.125,5.25h-0.12187500000000001c-0.051562500000000004,-0.17179687500000002,-0.118828125,-0.33468749999999997,-0.20273437500000002,-0.489609375l0.086015625,-0.086015625c0.146484375,-0.146484375,0.146484375,-0.38390625,0,-0.530390625l-0.530390625,-0.530390625c-0.146484375,-0.146484375,-0.38390625,-0.146484375,-0.530390625,0l-0.086015625,0.086015625A2.5980468749999996,2.5980468749999996,0,0,0,12,6.496874999999999V6.375c0,-0.2071875,-0.1678125,-0.375,-0.375,-0.375h-0.75c-0.2071875,0,-0.375,0.1678125,-0.375,0.375v0.12187500000000001c-0.17179687500000002,0.051562500000000004,-0.33468749999999997,0.118828125,-0.489609375,0.20273437500000002l-0.086015625,-0.086015625c-0.146484375,-0.146484375,-0.38390625,-0.146484375,-0.530390625,0l-0.530390625,0.530390625c-0.146484375,0.146484375,-0.146484375,0.38390625,0,0.530390625l0.086015625,0.086015625A2.5980468749999996,2.5980468749999996,0,0,0,8.746875,8.25H8.625c-0.2071875,0,-0.375,0.1678125,-0.375,0.375v0.75c0,0.2071875,0.1678125,0.375,0.375,0.375h0.12187500000000001c0.051562500000000004,0.17179687500000002,0.118828125,0.33468749999999997,0.20273437500000002,0.489609375l-0.086015625,0.086015625c-0.146484375,0.146484375,-0.146484375,0.38390625,0,0.530390625l0.530390625,0.530390625c0.146484375,0.146484375,0.38390625,0.146484375,0.530390625,0l0.086015625,-0.086015625c0.15492187500000001,0.08367187499999999,0.318046875,0.151171875,0.48984374999999997,0.20273437500000002v0.12187500000000001c0,0.2071875,0.1678125,0.375,0.375,0.375h0.75c0.2071875,0,0.375,-0.1678125,0.375,-0.375v-0.12187500000000001c0.17179687500000002,-0.051562500000000004,0.33468749999999997,-0.118828125,0.48984374999999997,-0.20273437500000002l0.086015625,0.086015625c0.146484375,0.146484375,0.38390625,0.146484375,0.530390625,0l0.530390625,-0.530390625c0.146484375,-0.146484375,0.146484375,-0.38390625,0,-0.530390625l-0.086015625,-0.086015625a2.5980468749999996,2.5980468749999996,0,0,0,0.20273437500000002,-0.489609375h0.12187500000000001c0.2071875,0,0.375,-0.1678125,0.375,-0.375v-0.75c-0.00046875,-0.2071875,-0.16828125,-0.375,-0.37546875,-0.375zm-2.625,1.875c-0.621328125,0,-1.125,-0.503671875,-1.125,-1.125s0.503671875,-1.125,1.125,-1.125s1.125,0.503671875,1.125,1.125s-0.503671875,1.125,-1.125,1.125zm-4.875,-1.875h-0.12187500000000001c-0.051562500000000004,-0.17179687500000002,-0.118828125,-0.33468749999999997,-0.20273437500000002,-0.489609375l0.086015625,-0.086015625c0.146484375,-0.146484375,0.146484375,-0.38390625,0,-0.530390625l-0.530390625,-0.530390625c-0.146484375,-0.146484375,-0.38390625,-0.146484375,-0.530390625,0l-0.086015625,0.086015625A2.5980468749999996,2.5980468749999996,0,0,0,4.5,6.496874999999999V6.375c0,-0.2071875,-0.1678125,-0.375,-0.375,-0.375h-0.75c-0.2071875,0,-0.375,0.1678125,-0.375,0.375v0.12187500000000001c-0.17179687500000002,0.051562500000000004,-0.33468749999999997,0.118828125,-0.489609375,0.20273437500000002l-0.086015625,-0.086015625c-0.146484375,-0.146484375,-0.38390625,-0.146484375,-0.530390625,0L1.36359375,7.143750000000001c-0.146484375,0.146484375,-0.146484375,0.38390625,0,0.530390625l0.086015625,0.086015625a2.5980468749999996,2.5980468749999996,0,0,0,-0.20273437500000002,0.489609375H1.125c-0.2071875,0,-0.375,0.1678125,-0.375,0.375v0.75c0,0.2071875,0.1678125,0.375,0.375,0.375h0.12187500000000001c0.051562500000000004,0.17179687500000002,0.118828125,0.33468749999999997,0.20273437500000002,0.489609375l-0.086015625,0.086015625c-0.146484375,0.146484375,-0.146484375,0.38390625,0,0.530390625l0.530390625,0.530390625c0.146484375,0.146484375,0.38390625,0.146484375,0.530390625,0l0.086015625,-0.086015625c0.15492187500000001,0.08367187499999999,0.318046875,0.151171875,0.48984374999999997,0.20273437500000002v0.12187500000000001c0,0.2071875,0.1678125,0.375,0.375,0.375h0.75c0.2071875,0,0.375,-0.1678125,0.375,-0.375v-0.12187500000000001c0.17179687500000002,-0.051562500000000004,0.33468749999999997,-0.118828125,0.48984374999999997,-0.20273437500000002l0.086015625,0.086015625c0.146484375,0.146484375,0.38390625,0.146484375,0.530390625,0l0.530390625,-0.530390625c0.146484375,-0.146484375,0.146484375,-0.38390625,0,-0.530390625l-0.086015625,-0.086015625a2.5980468749999996,2.5980468749999996,0,0,0,0.20273437500000002,-0.489609375h0.12187500000000001c0.2071875,0,0.375,-0.1678125,0.375,-0.375v-0.75C6.75,8.4178125,6.5821875,8.25,6.375,8.25zm-2.625,1.875c-0.621328125,0,-1.125,-0.503671875,-1.125,-1.125s0.503671875,-1.125,1.125,-1.125s1.125,0.503671875,1.125,1.125s-0.503671875,1.125,-1.125,1.125z" fill="#FFFFFF"/>
    </svg>