<svg version="1.1" xmlns="http://www.w3.org/2000/svg" xlink="http://www.w3.org/1999/xlink" x="0px" y="0px" width="15px" height="12px" viewBox="0 0 15 12" style="enable-background:new 0 0 15 15;" space="preserve"><path d="M14.360156250000001,8.21953125l-0.21796875000000002,-0.17343750000000002c-0.16171875000000002,-0.12890625,-0.3984375,-0.10312500000000001,-0.52734375,0.05859375l-0.234375,0.29296875c-0.12890625,0.16171875000000002,-0.10312500000000001,0.3984375,0.05859375,0.52734375l0.21796875000000002,0.17343750000000002c0.13828125000000002,0.11015625000000001,0.21562499999999998,0.27421874999999996,0.21562499999999998,0.44999999999999996c0,0.31875,-0.2578125,0.5765625000000001,-0.5765625000000001,0.5765625000000001H1.125c-0.20625000000000002,0,-0.375,0.16875,-0.375,0.375v0.375c0,0.20625000000000002,0.16875,0.375,0.375,0.375h12.09375c0.9140625,0,1.7273437500000002,-0.68671875,1.7789062500000001,-1.6007812499999998c0.032812499999999994,-0.5578125,-0.20390624999999998,-1.0851562499999998,-0.6375,-1.4296875zM0.75,5.25c0,1.396875,0.9585937499999999,2.559375,2.25,2.89453125V9.375h1.5v-1.125h4.5v1.125h1.5v-1.125c1.2421875,0,2.25,-1.0078125,2.25,-2.25v-2.25c0.41484374999999996,0,0.75,-0.33515625000000004,0.75,-0.75s-0.33515625000000004,-0.75,-0.75,-0.75h-2.25v1.5c0,0.8273437499999999,-0.67265625,1.5,-1.5,1.5h-0.48515624999999996c-1.5421874999999998,0,-2.9507812500000004,-0.8718750000000001,-3.6398437500000003,-2.25c-0.6890624999999999,-1.3781249999999998,-2.0999999999999996,-2.25,-3.6398437500000003,-2.25H0.75C0.33515625000000004,0.75,0,1.0851562499999998,0,1.5s0.33515625000000004,0.75,0.75,0.75v3z" fill="#FFFFFF"/></svg>