<svg version="1.1" xmlns="http://www.w3.org/2000/svg" xlink="http://www.w3.org/1999/xlink" x="0px" y="0px" width="15px" height="12px" viewBox="0 0 15 12" style="enable-background:new 0 0 15 15;" space="preserve">
    <path d="M14.880703125,3.63C10.72828125,-0.210703125,4.2700781249999995,-0.209296875,0.119296875,3.63c-0.15609375,0.144375,-0.159140625,0.38882812499999997,-0.008203124999999999,0.53859375l0.8025,0.796171875c0.14390624999999999,0.14296874999999998,0.37546875,0.146015625,0.5249999999999999,0.008906250000000001c3.42,-3.133125,8.70234375,-3.133828125,12.123046875,0c0.14953125,0.13710937499999998,0.38109375,0.133828125,0.5249999999999999,-0.008906250000000001l0.8025,-0.796171875c0.150703125,-0.14976562499999999,0.14765625,-0.39421875,-0.0084375,-0.53859375zM7.5,8.25c-0.8285156250000001,0,-1.5,0.6714843749999999,-1.5,1.5s0.6714843749999999,1.5,1.5,1.5s1.5,-0.6714843749999999,1.5,-1.5s-0.6714843749999999,-1.5,-1.5,-1.5zm4.750078125,-1.959140625c-2.7014062500000002,-2.388984375,-6.801796874999999,-2.38640625,-9.50015625,0c-0.16171875000000002,0.14296874999999998,-0.166875,0.39117187500000006,-0.013359375,0.5425781249999999l0.8071875,0.796640625c0.140625,0.13874999999999998,0.36703125000000003,0.148125,0.516796875,0.018750000000000003c1.9675781250000002,-1.7008593749999998,4.91578125,-1.697109375,6.878671875,0c0.14976562499999999,0.129375,0.37617187500000004,0.120234375,0.516796875,-0.018750000000000003l0.8071875,-0.796640625c0.15375,-0.15140625,0.14835937500000002,-0.39984374999999994,-0.013125000000000001,-0.5425781249999999z" fill="#FFFFFF"/>
    </svg>