<svg version="1.1" xmlns="http://www.w3.org/2000/svg" xlink="http://www.w3.org/1999/xlink" x="0px" y="0px" width="11.25px" height="15px" viewBox="0 0 11.25 15" style="enable-background:new 0 0 15 15;" space="preserve">
    <path d="M9.84375,4.6875H1.40625c-0.7766601562500001,0,-1.40625,0.6295898437499999,-1.40625,1.40625v6.5625c0,0.7766601562500001,0.6295898437499999,1.40625,1.40625,1.40625h0.46875v0.46875c0,0.258984375,0.209765625,0.46875,0.46875,0.46875h0.9375c0.258984375,0,0.46875,-0.209765625,0.46875,-0.46875v-0.46875h3.75v0.46875c0,0.258984375,0.209765625,0.46875,0.46875,0.46875h0.9375c0.258984375,0,0.46875,-0.209765625,0.46875,-0.46875v-0.46875h0.46875c0.7766601562500001,0,1.40625,-0.6295898437499999,1.40625,-1.40625V6.09375c0,-0.7766601562500001,-0.6295898437499999,-1.40625,-1.40625,-1.40625zm-0.46875,6.328125c0,0.1294921875,-0.1048828125,0.234375,-0.234375,0.234375H2.109375c-0.1294921875,0,-0.234375,-0.1048828125,-0.234375,-0.234375v-0.46875c0,-0.1294921875,0.1048828125,-0.234375,0.234375,-0.234375h7.03125c0.1294921875,0,0.234375,0.1048828125,0.234375,0.234375v0.46875zm0,-2.8125c0,0.1294921875,-0.1048828125,0.234375,-0.234375,0.234375H2.109375c-0.1294921875,0,-0.234375,-0.1048828125,-0.234375,-0.234375v-0.46875c0,-0.1294921875,0.1048828125,-0.234375,0.234375,-0.234375h7.03125c0.1294921875,0,0.234375,0.1048828125,0.234375,0.234375v0.46875zM4.21875,1.40625h2.8125v2.34375h1.40625V1.40625c0,-0.7766601562500001,-0.6295898437499999,-1.40625,-1.40625,-1.40625h-2.8125c-0.7766601562500001,0,-1.40625,0.6295898437499999,-1.40625,1.40625v2.34375h1.40625V1.40625z" fill="#FFFFFF"/>
    </svg>