<svg version="1.1" xmlns="http://www.w3.org/2000/svg" xlink="http://www.w3.org/1999/xlink" x="0px" y="0px" width="13.125px" height="15px" viewBox="0 0 13.125 15" style="enable-background:new 0 0 15 15;" space="preserve">
    <path d="M1.55859375,13.681640625a1.40625,1.40625,0,0,0,1.4033203125,1.318359375h7.201171875a1.40625,1.40625,0,0,0,1.4033203125,-1.318359375L12.1875,3.75H0.9375zm2.05400390625,-5.150390625l2.6185546874999996,-2.7615234375a0.45146484375,0.45146484375,0,0,1,0.6626953125,0l2.6185546874999996,2.7615234375c0.2953125,0.31113281249999997,0.0861328125,0.84375,-0.331640625,0.84375H7.5v3.28125a0.46875,0.46875,0,0,1,-0.46875,0.46875h-0.9375a0.46875,0.46875,0,0,1,-0.46875,-0.46875V9.375h-1.68076171875c-0.4177734375,0,-0.626953125,-0.5326171875,-0.331640625,-0.84375zM12.65625,0.9375H9.140625l-0.275390625,-0.5478515625A0.703125,0.703125,0,0,0,8.2353515625,0H4.88671875a0.6949218749999999,0.6949218749999999,0,0,0,-0.626953125,0.3896484375L3.984375,0.9375H0.46875A0.46875,0.46875,0,0,0,0,1.40625v0.9375a0.46875,0.46875,0,0,0,0.46875,0.46875h12.1875a0.46875,0.46875,0,0,0,0.46875,-0.46875V1.40625a0.46875,0.46875,0,0,0,-0.46875,-0.46875z" fill="#FFFFFF"/>
    </svg>