<svg version="1.1" xmlns="http://www.w3.org/2000/svg" xlink="http://www.w3.org/1999/xlink" x="0px" y="0px" width="15px" height="15px" viewBox="0 0 15 15" style="enable-background:new 0 0 15 15;" space="preserve">
    <path d="M14.72548828125,6.28798828125l-1.32568359375,-1.32568359375c-0.17578125,-0.17578125,-0.41425781250000004,-0.27451171874999997,-0.66298828125,-0.27451171874999997H11.25V2.34375c0,-0.7766601562500001,-0.6295898437499999,-1.40625,-1.40625,-1.40625H5.15625c-0.7766601562500001,0,-1.40625,0.6295898437499999,-1.40625,1.40625v2.34375H2.26318359375c-0.24873046875000002,0,-0.4869140625,0.09873046875000001,-0.66298828125,0.27451171874999997L0.27451171874999997,6.28798828125c-0.17578125,0.17578125,-0.27451171874999997,0.41425781250000004,-0.27451171874999997,0.66298828125V9.375h3.75v-0.46875c0,-0.258984375,0.209765625,-0.46875,0.46875,-0.46875h0.9375c0.258984375,0,0.46875,0.209765625,0.46875,0.46875v0.46875h3.75v-0.46875c0,-0.258984375,0.209765625,-0.46875,0.46875,-0.46875h0.9375c0.258984375,0,0.46875,0.209765625,0.46875,0.46875v0.46875h3.75v-2.42431640625c0,-0.2484375,-0.09873046875000001,-0.4869140625,-0.27451171874999997,-0.6626953125zM9.375,4.6875H5.625V2.8125h3.75v1.875zm1.875,6.09375c0,0.258984375,-0.209765625,0.46875,-0.46875,0.46875h-0.9375c-0.258984375,0,-0.46875,-0.209765625,-0.46875,-0.46875v-0.46875H5.625v0.46875c0,0.258984375,-0.209765625,0.46875,-0.46875,0.46875h-0.9375c-0.258984375,0,-0.46875,-0.209765625,-0.46875,-0.46875v-0.46875H0v2.8125c0,0.51767578125,0.41982421875,0.9375,0.9375,0.9375h13.125c0.51767578125,0,0.9375,-0.41982421875,0.9375,-0.9375v-2.8125H11.25v0.46875z" fill="#FFFFFF"/>
    </svg>