<svg version="1.1" xmlns="http://www.w3.org/2000/svg" xlink="http://www.w3.org/1999/xlink" x="0px" y="0px" width="16.875px" height="15px" viewBox="0 0 16.875 15" style="enable-background:new 0 0 15 15;" space="preserve">
    <path d="M9.84375,2.8125c0.7763671875,0,1.40625,-0.6298828125,1.40625,-1.40625S10.6201171875,0,9.84375,0s-1.40625,0.6298828125,-1.40625,1.40625s0.6298828125,1.40625,1.40625,1.40625zm6.328125,9.375c-0.38671875,0,-0.703125,0.3134765625,-0.703125,0.703125c0,0.38671875,-0.31640625,0.703125,-0.703125,0.703125h-2.0361328125L13.4765625,8.3671875c0.3427734375,-0.1376953125,0.5888671875,-0.474609375,0.5888671875,-0.8671875c0,-0.5185546875,-0.4189453125,-0.9375,-0.9375,-0.9375h-1.2890625L11.07421875,5.00390625c-0.3662109375,-0.7470703125,-1.0400390625,-1.294921875,-1.810546875,-1.4912109375L7.177734375,2.8916015625c-0.8291015625,-0.19921875,-1.693359375,-0.0146484375,-2.3671875,0.5009765625l-1.1630859375,0.890625c-0.41015625,0.3134765625,-0.4892578125,0.90234375,-0.1728515625,1.3154296875c0.0205078125,0.0263671875,0.0498046875,0.0380859375,0.0703125,0.0615234375L1.9599609375000002,13.59375H0.703125c-0.38671875,0,-0.703125,0.3134765625,-0.703125,0.703125s0.31640625,0.703125,0.703125,0.703125h14.0625c1.1630859375,0,2.109375,-0.9462890624999999,2.109375,-2.109375c0,-0.38671875,-0.31640625,-0.703125,-0.703125,-0.703125zm-7.6318359375,1.40625h-2.8388671875l1.2626953125,-2.666015625l-0.64453125,-0.380859375c-0.3544921875,-0.2109375,-0.6416015625,-0.49511718749999994,-0.8642578125,-0.814453125L3.6240234375,13.59375H2.9150390625l1.5322265625,-7.658203124999999c0.12011718749999999,-0.029296875,0.2373046875,-0.0849609375,0.3427734375,-0.1640625l1.1630859375,-0.890625c0.2255859375,-0.1728515625,0.509765625,-0.234375,0.7412109375,-0.1787109375l0.4306640625,0.12890625l-1.0986328125,2.560546875c-0.369140625,0.8642578125,-0.0380859375,1.875,0.7705078125,2.3525390625l2.490234375,1.470703125l-0.7470703125,2.37890625zm3.240234375,0h-1.27734375l0.69140625,-2.2119140625c0.1728515625,-0.609375,-0.0849609375,-1.2626953125,-0.6328125,-1.59375L8.7685546875,8.73046875l0.9169921875,-2.2939453125l0.5947265625,1.212890625c0.234375,0.4775390625,0.7294921875,0.7880859375,1.2626953125,0.7880859375h0.9755859374999999l-0.73828125,5.15625z" fill="#FFFFFF"/>
    </svg>