<svg version="1.1" xmlns="http://www.w3.org/2000/svg" xlink="http://www.w3.org/1999/xlink" x="0px" y="0px" width="15px" height="15px" viewBox="0 0 15 15" style="enable-background:new 0 0 15 15;" space="preserve"><path d="M13.359375,6.5625H9.140625c-0.3896484375,0,-0.703125,-0.3134765625,-0.703125,-0.703125V1.640625c0,-0.2841796875,0.169921875,-0.5419921875,0.43359375,-0.650390625s0.5654296875,-0.0498046875,0.767578125,0.15234375l1.171875,1.171875L12.9580078125,0.1669921875C13.06640625,0.05859375,13.2099609375,0,13.359375,0s0.29296875,0.05859375,0.4013671875,0.1669921875l1.0751953125,1.0751953125C14.94140625,1.34765625,15,1.4912109375,15,1.640625s-0.05859375,0.29296875,-0.1669921875,0.4013671875L12.685546875,4.189453125l1.171875,1.171875c0.2021484375,0.2021484375,0.2607421875,0.50390625,0.15234375,0.767578125s-0.3662109375,0.43359375,-0.650390625,0.43359375zm0,1.875c0.2841796875,0,0.5419921875,0.169921875,0.650390625,0.43359375s0.0498046875,0.5654296875,-0.15234375,0.767578125l-1.171875,1.171875l2.150390625,2.150390625c0.10546875,0.10546875,0.1669921875,0.2490234375,0.1669921875,0.4013671875s-0.05859375,0.29296875,-0.1669921875,0.4013671875l-1.0751953125,1.0751953125C13.65234375,14.94140625,13.5087890625,15,13.359375,15s-0.29296875,-0.05859375,-0.4013671875,-0.1669921875L10.810546875,12.685546875l-1.171875,1.171875c-0.2021484375,0.2021484375,-0.50390625,0.2607421875,-0.767578125,0.15234375s-0.43359375,-0.3662109375,-0.43359375,-0.650390625V9.140625c0,-0.3896484375,0.3134765625,-0.703125,0.703125,-0.703125H13.359375zm-7.5,0c0.3896484375,0,0.703125,0.3134765625,0.703125,0.703125V13.359375c0,0.2841796875,-0.169921875,0.5419921875,-0.43359375,0.650390625s-0.5654296875,0.0498046875,-0.767578125,-0.15234375l-1.171875,-1.171875L2.0419921875,14.8330078125C1.93359375,14.94140625,1.7900390625,15,1.640625,15s-0.29296875,-0.05859375,-0.4013671875,-0.1669921875L0.1669921875,13.7607421875C0.05859375,13.65234375,0,13.5087890625,0,13.359375s0.05859375,-0.29296875,0.1669921875,-0.4013671875L2.314453125,10.810546875L1.142578125,9.638671875c-0.2021484375,-0.2021484375,-0.2607421875,-0.50390625,-0.15234375,-0.767578125s0.3662109375,-0.43359375,0.650390625,-0.43359375H5.859375zM1.640625,6.5625c-0.2841796875,0,-0.5419921875,-0.169921875,-0.650390625,-0.43359375s-0.0498046875,-0.5654296875,0.15234375,-0.767578125l1.171875,-1.171875L0.1669921875,2.0419921875C0.05859375,1.93359375,0,1.7900390625,0,1.640625s0.05859375,-0.29296875,0.1669921875,-0.4013671875L1.2392578125,0.1669921875C1.34765625,0.05859375,1.4912109375,0,1.640625,0s0.29296875,0.05859375,0.4013671875,0.1669921875L4.189453125,2.314453125l1.171875,-1.171875c0.2021484375,-0.2021484375,0.50390625,-0.2607421875,0.767578125,-0.15234375s0.43359375,0.3662109375,0.43359375,0.650390625V5.859375c0,0.3896484375,-0.3134765625,0.703125,-0.703125,0.703125H1.640625z" fill="#FFFFFF"/></svg>