<svg version="1.1" xmlns="http://www.w3.org/2000/svg" xlink="http://www.w3.org/1999/xlink" x="0px" y="0px" width="15px" height="12px" viewBox="0 0 15 12" style="enable-background:new 0 0 15 15;" space="preserve"><path d="M14.833124999999999,9.391640624999999L12.75,8.25v-1.5l1.2928125,-0.41460937500000006c0.276328125,-0.13828125000000002,0.276328125,-0.5325,0,-0.67078125L11.25,4.5v-1.5l0.6400781249999999,-0.38203125000000004c0.1809375,-0.1809375,0.13148437500000001,-0.48609375,-0.0975,-0.60046875L7.5,0L3.2074218749999996,2.017265625c-0.228984375,0.114375,-0.2784375,0.41953124999999997,-0.0975,0.60046875L3.75,3v1.5L0.9571875000000001,5.6646093749999995c-0.276328125,0.13828125000000002,-0.276328125,0.5325,0,0.67078125L2.25,6.75v1.5L0.166875,9.391640624999999c-0.12703124999999998,0.08484375,-0.18046875,0.225703125,-0.1640625,0.358359375c0.014531249999999999,0.117421875,0.08367187499999999,0.228515625,0.20437500000000003,0.288984375L1.5,10.5v1.125c0,0.2071875,0.1678125,0.375,0.375,0.375h0.75c0.2071875,0,0.375,-0.1678125,0.375,-0.375v-1.125h3.75v1.125c0,0.2071875,0.1678125,0.375,0.375,0.375h0.75c0.2071875,0,0.375,-0.1678125,0.375,-0.375v-1.125h3.75v1.125c0,0.2071875,0.1678125,0.375,0.375,0.375h0.75c0.2071875,0,0.375,-0.1678125,0.375,-0.375v-1.125l1.292578125,-0.46101562500000004c0.1209375,-0.06046875,0.18984374999999998,-0.1715625,0.20437500000000003,-0.288984375c0.016640625,-0.13289062499999998,-0.036796875,-0.27375,-0.163828125,-0.358359375zM5.25,3h4.5v1.5H5.25v-1.5zm-1.5,5.25v-1.5h7.5v1.5H3.75z" fill="#FFFFFF"/></svg>