<svg version="1.1" xmlns="http://www.w3.org/2000/svg" xlink="http://www.w3.org/1999/xlink" x="0px" y="0px" width="15px" height="13.333333333333332px" viewBox="0 0 15 13.333333333333332" style="enable-background:new 0 0 15 15;" space="preserve">
    <path d="M13.527135416666667,7.516953125000001c-1.0812239583333332,0,-1.5494791666666665,0.8227343749999999,-2.1369270833333336,0.8227343749999999C9.828359375,8.3396875,11.25,3.75,11.25,3.75s-5.111666666666666,2.083333333333333,-5.111666666666666,-0.085859375c0,-0.9329947916666665,0.9449999999999998,-1.2044270833333333,0.9449999999999998,-2.2391927083333334C7.083333333333333,0.5004166666666666,6.351171874999999,0,5.482786458333333,0c-0.9024479166666667,0,-1.72828125,0.4919531249999999,-1.72828125,1.4673437499999997c0,1.0771874999999997,0.8258072916666666,1.5436718749999998,0.8258072916666666,2.12890625C4.5803385416666655,5.409348958333333,0,4.34265625,0,4.34265625v8.678046875s4.6519531249999995,1.0689322916666666,4.6519531249999995,-0.7464062499999999c0,-0.5852343749999999,-1.0416666666666665,-1.044453125,-1.0416666666666665,-2.121640625c0,-0.9754166666666667,0.76171875,-1.4673437499999997,1.6556510416666665,-1.4673437499999997c0.8769010416666667,0,1.6090624999999998,0.5004166666666666,1.6090624999999998,1.424921875c0,1.034765625,-0.9449999999999998,1.3061979166666666,-0.9449999999999998,2.2391927083333334c0,1.5834114583333332,3.376953125,0.6700520833333333,4.719531249999999,0.6700520833333333c0,0,-0.904296875,-3.1276302083333327,0.672578125,-3.1276302083333327c0.9365104166666667,0,1.2089322916666667,0.9414583333333333,2.2476041666666666,0.9414583333333333C14.497708333333334,10.833333333333332,15,10.10390625,15,9.230286458333332c0,-0.8905989583333334,-0.4938020833333333,-1.7133333333333332,-1.4728645833333334,-1.7133333333333332z" fill="#FFFFFF"/>
    </svg>