<svg version="1.1" xmlns="http://www.w3.org/2000/svg" xlink="http://www.w3.org/1999/xlink" x="0px" y="0px" width="15px" height="12px" viewBox="0 0 15 12" style="enable-background:new 0 0 15 15;" space="preserve">
    <path d="M3.357421875,5.1752343750000005l-0.29109375000000004,1.0867968749999999c-0.070546875,0.263671875,-0.085078125,0.536484375,-0.05648437500000001,0.8060156250000001l-0.8250000000000001,0.67921875c-0.15398437500000003,0.126796875,-0.382265625,-0.010078125,-0.34265625,-0.205546875l0.361875,-1.7971875000000002c0.02484375,-0.12328125,-0.06234375000000001,-0.2409375,-0.1875,-0.252890625l-1.8248437500000003,-0.17695312500000002c-0.19851562500000003,-0.01921875,-0.26320312500000004,-0.277265625,-0.09703125,-0.38765625000000004l1.5269531250000004,-1.01484375c0.10453125000000002,-0.06960937500000001,0.12609375,-0.21445312500000002,0.04640625,-0.31148437500000004L0.5029687500000001,2.18484375c-0.126796875,-0.15398437500000003,0.010078125,-0.38203125000000004,0.20578125,-0.34265625l1.7971875000000002,0.361875c0.12328125,0.02484375,0.2409375,-0.06234375000000001,0.253125,-0.1875l0.17695312500000002,-1.8248437500000003c0.01921875,-0.19875,0.277265625,-0.26320312500000004,0.38789062500000004,-0.09703125l1.01484375,1.5267187500000001c0.06960937500000001,0.10453125000000002,0.21445312500000002,0.12609375,0.31148437500000004,0.04640625l1.4156250000000001,-1.165078125c0.15398437500000003,-0.126796875,0.38203125000000004,0.010078125,0.34265625,0.205546875L6.142968750000001,2.02453125c-0.063515625,0.071484375,-0.127265625,0.142734375,-0.18539062500000003,0.22031250000000002l-0.753515625,1.007109375l-0.251015625,0.33562500000000006c-0.767109375,0.2053125,-1.3870312500000002,0.8092968750000001,-1.595625,1.58765625zm11.591484375,3.105703125l-0.29109375000000004,1.0865625c-0.07335937499999999,0.27375,-0.21984375000000003,0.506484375,-0.41132812500000004,0.688125a1.5674062500000003,1.5674062500000003,0,0,1,-0.2053125,0.1640625l-0.327890625,1.224140625c-0.02671875,0.100078125,-0.07265625,0.18984375,-0.132421875,0.26671875000000006c-0.179765625,0.230625,-0.48609375,0.3440625,-0.78609375,0.263671875L12.0703125,11.780156250000001c-0.40007812500000006,-0.10710937500000002,-0.6375000000000001,-0.5184375,-0.530390625,-0.918515625l0.1940625,-0.724453125l-5.795625,-1.5529687500000002l-0.1940625,0.724453125c-0.10710937500000002,0.40007812500000006,-0.5184375,0.6375000000000001,-0.918515625,0.530390625l-0.724453125,-0.1940625c-0.30000000000000004,-0.08039062500000001,-0.5085937500000001,-0.33187500000000003,-0.54890625,-0.6213281250000001c-0.013359375,-0.09656250000000001,-0.008203125,-0.19734375,0.018515625000000004,-0.2971875l0.327890625,-1.224140625a1.56140625,1.56140625,0,0,1,-0.095859375,-0.244921875c-0.07500000000000001,-0.252890625,-0.08554687500000001,-0.5278125,-0.012187500000000002,-0.8015625000000001l0.29109375000000004,-1.0867968749999999c0.124453125,-0.46406250000000004,0.45375,-0.816328125,0.8646093750000001,-0.989296875a1.507875,1.507875,0,0,1,0.433359375,-0.110625l0.424921875,-0.567890625l0.753515625,-1.007109375c0.08085937500000001,-0.10804687500000001,0.16851562500000003,-0.20859375000000002,0.2625,-0.3009375c0.1875,-0.184921875,0.399140625,-0.3384375,0.62671875,-0.45726562500000006c0.11390625000000001,-0.05953125000000001,0.23179687500000004,-0.11039062500000002,0.35273437500000004,-0.15210937500000002c0.242109375,-0.08390625000000002,0.49664062500000006,-0.131953125,0.7556250000000001,-0.1415625c0.258984375,-0.009609375,0.5228906249999999,0.01921875,0.783515625,0.0890625l2.8753125,0.770390625c0.260625,0.06984375000000001,0.5034375,0.17671875,0.7230468750000001,0.314765625a2.6041406250000003,2.6041406250000003,0,0,1,0.813046875,0.80859375c0.20671875000000003,0.32531250000000006,0.34312500000000007,0.6993750000000001,0.3909375,1.101328125l0.14906250000000001,1.248984375l0.084140625,0.704296875a1.511484375,1.511484375,0,0,1,0.53296875,0.701484375c0.102890625,0.27843750000000006,0.123984375,0.5903906250000001,0.041015625,0.8997656250000001zM5.990156250000001,5.49234375c-0.43476562500000004,-0.116484375,-0.801796875,0.09468750000000001,-0.9180468750000002,0.5280468750000001c-0.11625000000000002,0.433359375,0.09632812500000001,0.7996875,0.530859375,0.9161718750000001c0.43476562500000004,0.116484375,1.06734375,0.363515625,1.183359375,-0.06984375000000001c0.11625000000000002,-0.433359375,-0.361640625,-1.2578906250000002,-0.796171875,-1.3743750000000001zm6.811171875000001,0.660234375l-0.14906250000000001,-1.248984375c-0.01359375,-0.114140625,-0.044296875,-0.223359375,-0.08953125,-0.32484375c-0.13593750000000002,-0.304453125,-0.403125,-0.5392968750000001,-0.73640625,-0.6285937500000001l-2.8753125,-0.770390625a1.1251875,1.1251875,0,0,0,-1.19203125,0.412734375l-0.753515625,1.007109375l4.03125,1.0799999999999998l1.7646093750000003,0.47296875zm0.433359375,1.2808593750000001c-0.43476562500000004,-0.116484375,-1.2609375,0.35882812500000005,-1.376953125,0.791953125c-0.11601562500000001,0.433359375,0.5552343750000001,0.53578125,0.9900000000000001,0.6522656250000001c0.43476562500000004,0.116484375,0.801796875,-0.09468750000000001,0.9180468750000002,-0.5280468750000001c0.11601562500000001,-0.433125,-0.09632812500000001,-0.7996875,-0.53109375,-0.9161718750000001z" fill="#FFFFFF"/>
    </svg>