<svg version="1.1" xmlns="http://www.w3.org/2000/svg" xlink="http://www.w3.org/1999/xlink" x="0px" y="0px" width="15px" height="12px" viewBox="0 0 15 12" style="enable-background:new 0 0 15 15;" space="preserve">
    <path d="M12.375,10.5H2.625c-0.20625000000000002,0,-0.375,0.16875,-0.375,0.375v0.75c0,0.20625000000000002,0.16875,0.375,0.375,0.375h9.75c0.20625000000000002,0,0.375,-0.16875,0.375,-0.375v-0.75c0,-0.20625000000000002,-0.16875,-0.375,-0.375,-0.375zm1.5,-7.5c-0.62109375,0,-1.125,0.50390625,-1.125,1.125c0,0.16640624999999998,0.037500000000000006,0.32109374999999996,0.10312500000000001,0.46406250000000004L11.15625,5.606249999999999c-0.3609375,0.21562499999999998,-0.8273437499999999,0.09375,-1.0359375000000002,-0.271875L8.21015625,1.9921875C8.4609375,1.7859375000000002,8.625,1.4765625,8.625,1.125c0,-0.62109375,-0.50390625,-1.125,-1.125,-1.125s-1.125,0.50390625,-1.125,1.125c0,0.3515625,0.1640625,0.6609375,0.41484374999999996,0.8671875l-1.91015625,3.3421874999999996c-0.20859375000000002,0.365625,-0.6773437499999999,0.48750000000000004,-1.0359375000000002,0.271875l-1.6945312499999998,-1.0171875c0.06328125000000001,-0.140625,0.10312500000000001,-0.29765624999999996,0.10312500000000001,-0.46406250000000004c0,-0.62109375,-0.50390625,-1.125,-1.125,-1.125S0,3.50390625,0,4.125s0.50390625,1.125,1.125,1.125c0.060937500000000006,0,0.12187500000000001,-0.009375000000000001,0.18046875,-0.018750000000000003L3,9.75h9l1.6945312499999998,-4.518750000000001c0.05859375,0.009375000000000001,0.11953124999999999,0.018750000000000003,0.18046875,0.018750000000000003c0.62109375,0,1.125,-0.50390625,1.125,-1.125s-0.50390625,-1.125,-1.125,-1.125z" fill="#FFFFFF"/>
    </svg>