<svg version="1.1" xmlns="http://www.w3.org/2000/svg" xlink="http://www.w3.org/1999/xlink" x="0px" y="0px" width="11.25px" height="15px" viewBox="0 0 11.25 15" style="enable-background:new 0 0 15 15;" space="preserve">
    <path d="M5.625,4.6875c1.294921875,0,2.34375,-1.048828125,2.34375,-2.34375S6.919921875,0,5.625,0s-2.34375,1.048828125,-2.34375,2.34375s1.048828125,2.34375,2.34375,2.34375zm-1.564453125,7.2890625l0.75,-0.9375l-1.8017578125,-1.5L1.6640625,11.220703125c-0.333984375,0.416015625,-0.3427734375,1.0078125,-0.0234375,1.435546875l1.40625,1.875c0.2314453125,0.3076171875,0.5830078125,0.46875,0.9375,0.46875c0.24316406250000003,0,0.4921875,-0.076171875,0.703125,-0.234375c0.5185546875,-0.38671875,0.62109375,-1.1220703125,0.234375,-1.640625l-0.861328125,-1.1484375zm4.1806640625,-2.4375l-1.8017578125,1.5l0.75,0.9375L6.328125,13.125c-0.38671875,0.5185546875,-0.2841796875,1.25390625,0.234375,1.640625c0.2109375,0.158203125,0.45703125,0.234375,0.703125,0.234375c0.357421875,0,0.708984375,-0.1611328125,0.9375,-0.46875l1.40625,-1.875c0.3193359375,-0.427734375,0.310546875,-1.01953125,-0.0234375,-1.435546875l-1.3447265625,-1.681640625zM11.0361328125,4.248046875c-0.3720703125,-0.5302734375,-1.1015625,-0.65625,-1.6318359375,-0.287109375l-1.189453125,0.8349609375c-1.5439453125,1.083984375,-3.638671875,1.083984375,-5.1796875,0L1.845703125,3.9638671875000004C1.3154296875,3.591796875,0.5859375,3.720703125,0.2138671875,4.248046875C-0.158203125,4.7783203125,-0.029296875,5.5078125,0.498046875,5.8798828125l1.189453125,0.8349609375c0.498046875,0.3486328125,1.037109375,0.6123046875,1.59375,0.8173828125V8.4375h4.6875v-0.90234375c0.556640625,-0.205078125,1.095703125,-0.46875,1.59375,-0.8173828125l1.189453125,-0.8349609375c0.5302734375,-0.375,0.65625,-1.1044921875,0.2841796875,-1.634765625z" fill="#FFFFFF"/>
    </svg>