<svg version="1.1" xmlns="http://www.w3.org/2000/svg" xlink="http://www.w3.org/1999/xlink" x="0px" y="0px" width="18.75px" height="15px" viewBox="0 0 18.75 15" style="enable-background:new 0 0 15 15;" space="preserve">
    <path d="M8.1708984375,14.9853515625l-1.787109375,-0.5185546875c-0.1875,-0.052734375,-0.29296875,-0.2490234375,-0.24023437499999997,-0.4365234375L10.142578125,0.2548828125c0.052734375,-0.1875,0.2490234375,-0.29296875,0.4365234375,-0.24023437499999997l1.787109375,0.5185546875c0.1875,0.052734375,0.29296875,0.2490234375,0.24023437499999997,0.4365234375L8.607421875,14.7451171875c-0.0556640625,0.1875,-0.2490234375,0.2958984375,-0.4365234375,0.24023437499999997zm-3.33984375,-3.287109375l1.2744140625,-1.359375c0.134765625,-0.1435546875,0.1259765625,-0.3720703125,-0.0234375,-0.50390625L3.427734375,7.5l2.654296875,-2.3349609375c0.1494140625,-0.1318359375,0.1611328125,-0.3603515625,0.0234375,-0.50390625l-1.2744140625,-1.359375c-0.1318359375,-0.140625,-0.3544921875,-0.1494140625,-0.498046875,-0.0146484375L0.111328125,7.2421875c-0.1494140625,0.1376953125,-0.1494140625,0.375,0,0.5126953125l4.2216796875,3.9580078125c0.1435546875,0.134765625,0.3662109375,0.12890625,0.498046875,-0.0146484375zm9.5859375,0.017578125l4.2216796875,-3.9580078125c0.1494140625,-0.1376953125,0.1494140625,-0.375,0,-0.5126953125L14.4169921875,3.2841796875c-0.140625,-0.1318359375,-0.36328125,-0.1259765625,-0.498046875,0.0146484375L12.64453125,4.658203125c-0.134765625,0.1435546875,-0.1259765625,0.3720703125,0.0234375,0.50390625L15.322265625,7.5l-2.654296875,2.3349609375c-0.1494140625,0.1318359375,-0.1611328125,0.3603515625,-0.0234375,0.50390625l1.2744140625,1.359375c0.1318359375,0.1435546875,0.3544921875,0.1494140625,0.498046875,0.017578125z" fill="#FFFFFF"/>
    </svg>