<svg version="1.1" xmlns="http://www.w3.org/2000/svg" xlink="http://www.w3.org/1999/xlink" x="0px" y="0px" width="15px" height="13.333333333333332px" viewBox="0 0 15 13.333333333333332" style="enable-background:new 0 0 15 15;" space="preserve">
    <path d="M15,5.625v0.4166666666666667c0,0.3451822916666667,-0.2798177083333333,0.625,-0.625,0.625h-0.20833333333333334l-0.6800260416666667,4.760104166666667C13.398671875000002,12.042578125,12.871276041666667,12.5,12.24921875,12.5H2.75078125c-0.6220572916666667,0,-1.1494531250000002,-0.45742187500000003,-1.2374479166666668,-1.073229166666667L0.8333333333333334,6.666666666666667h-0.20833333333333334c-0.3451822916666667,0,-0.625,-0.2798177083333333,-0.625,-0.625v-0.4166666666666667c0,-0.3451822916666667,0.2798177083333333,-0.625,0.625,-0.625h1.753671875l2.7807291666666667,-3.823463541666667c0.270703125,-0.3721875,0.7918489583333334,-0.45450520833333335,1.1640885416666666,-0.18380208333333334c0.37221354166666665,0.270703125,0.45450520833333335,0.7918750000000001,0.18380208333333334,1.1640885416666666L4.439505208333333,5h6.120989583333333L8.492708333333335,2.156796875c-0.270703125,-0.3721875,-0.18838541666666667,-0.8933854166666666,0.183828125,-1.1640885416666666c0.37216145833333336,-0.270703125,0.8933854166666666,-0.18841145833333334,1.1640885416666666,0.18380208333333334L12.621328125,5H14.375c0.3451822916666667,0,0.625,0.2798177083333333,0.625,0.625zM8.125,10.208333333333334V7.291666666666667c0,-0.3451822916666667,-0.2798177083333333,-0.625,-0.625,-0.625s-0.625,0.2798177083333333,-0.625,0.625v2.916666666666667c0,0.3451822916666667,0.2798177083333333,0.625,0.625,0.625s0.625,-0.2798177083333333,0.625,-0.625zm2.916666666666667,0V7.291666666666667c0,-0.3451822916666667,-0.2798177083333333,-0.625,-0.625,-0.625s-0.625,0.2798177083333333,-0.625,0.625v2.916666666666667c0,0.3451822916666667,0.2798177083333333,0.625,0.625,0.625s0.625,-0.2798177083333333,0.625,-0.625zm-5.833333333333334,0V7.291666666666667c0,-0.3451822916666667,-0.2798177083333333,-0.625,-0.625,-0.625s-0.625,0.2798177083333333,-0.625,0.625v2.916666666666667c0,0.3451822916666667,0.2798177083333333,0.625,0.625,0.625s0.625,-0.2798177083333333,0.625,-0.625z" fill="#FFFFFF"/>
    </svg>