<svg version="1.1" xmlns="http://www.w3.org/2000/svg" xlink="http://www.w3.org/1999/xlink" x="0px" y="0px" width="14.53125px" height="15px" viewBox="0 0 14.53125 15" style="enable-background:new 0 0 15 15;" space="preserve">
    <path d="M7.265625,0.234375C3.251953125,0.234375,0,3.486328125,0,7.5s3.251953125,7.265625,7.265625,7.265625s7.265625,-3.251953125,7.265625,-7.265625S11.279296875,0.234375,7.265625,0.234375zm0.703125,5.841796875c0.0966796875,-1.2333984375,0.9433593750000001,-2.091796875,1.640625,-2.091796875s1.5439453125,0.8583984375,1.640625,2.091796875c0.0205078125,0.251953125,-0.31640625,0.3486328125,-0.4365234375,0.1318359375l-0.2783203125,-0.498046875c-0.2255859375,-0.4013671875,-0.5625,-0.6328125,-0.9228515625,-0.6328125s-0.697265625,0.2314453125,-0.9228515625,0.6328125l-0.2783203125,0.498046875c-0.123046875,0.216796875,-0.462890625,0.12011718749999999,-0.4423828125,-0.1318359375zm-4.6875,0c0.0966796875,-1.2333984375,0.9433593750000001,-2.091796875,1.640625,-2.091796875s1.5439453125,0.8583984375,1.640625,2.091796875c0.0205078125,0.251953125,-0.31640625,0.3486328125,-0.4365234375,0.1318359375l-0.2783203125,-0.498046875c-0.2255859375,-0.4013671875,-0.5625,-0.6328125,-0.9228515625,-0.6328125s-0.697265625,0.2314453125,-0.9228515625,0.6328125l-0.2783203125,0.498046875c-0.1259765625,0.216796875,-0.462890625,0.1171875,-0.4423828125,-0.1318359375zM11.6865234375,8.96484375C11.42578125,11.044921875,9.650390625,12.65625,7.5,12.65625h-0.46875c-2.150390625,0,-3.92578125,-1.611328125,-4.1865234375,-3.69140625c-0.03515625,-0.2783203125,0.1845703125,-0.52734375,0.4658203125,-0.52734375h7.91015625c0.28125,0,0.5009765625,0.24609375,0.4658203125,0.52734375z" fill="#FFFFFF"/>
    </svg>