<svg version="1.1" xmlns="http://www.w3.org/2000/svg" xlink="http://www.w3.org/1999/xlink" x="0px" y="0px" width="18.75px" height="15px" viewBox="0 0 18.75 15" style="enable-background:new 0 0 15 15;" space="preserve">
    <path d="M17.361445312500003,6.1008984375C16.398486328125,5.6494921875,15.110654296875001,5.390625,13.828125,5.390625H5.4587988281249995c-0.145078125,-0.19204101562499998,-0.310107421875,-0.35091796875,-0.48984374999999997,-0.46875H11.015625C6.713583984375,4.035556640625001,6.427822265625,0.9375,2.812587890625,0.9375H2.8125v3.75H2.34375V0.9375c-0.7766601562500001,0,-1.40625,0.83947265625,-1.40625,1.875v1.875c-0.679599609375,0,-0.9375,0.29390625,-0.9375,0.703125v1.171875c0,0.409658203125,0.25836914062500005,0.703125,0.9375,0.703125v0.46875c-0.679599609375,0,-0.9375,0.29390625,-0.9375,0.703125v1.171875c0,0.409658203125,0.25836914062500005,0.703125,0.9375,0.703125v1.875c0,1.0355273437499999,0.6295898437499999,1.875,1.40625,1.875V10.3125h0.46875v3.75h0.000087890625c3.615234375,0,3.90099609375,-3.098056640625,8.203037109375,-3.984375H4.96892578125c0.17973632812499998,-0.11783203125000001,0.344765625,-0.276708984375,0.48984374999999997,-0.46875H13.828125c1.282529296875,0,2.570361328125,-0.2588671875,3.5333203125,-0.7102734374999999C18.230917968750003,8.491552734375,18.75,7.968515625,18.75,7.5s-0.51908203125,-0.9915527343749999,-1.3885546875,-1.3991015625zM14.296875,8.671875a0.234375,0.234375,0,0,1,-0.234375,-0.234375v-1.875a0.234375,0.234375,0,0,1,0.234375,-0.234375c0.934833984375,0,0.93580078125,2.34375,0,2.34375z" fill="#FFFFFF"/>
    </svg>