<svg version="1.1" xmlns="http://www.w3.org/2000/svg" xlink="http://www.w3.org/1999/xlink" x="0px" y="0px" width="15px" height="12px" viewBox="0 0 15 12" style="enable-background:new 0 0 15 15;" space="preserve">
    <path d="M4.5,3.75h0.75V0.75h-0.75c-0.8285156250000001,0,-1.5,0.6714843749999999,-1.5,1.5s0.6714843749999999,1.5,1.5,1.5zM0,9.75c0,0.8285156250000001,0.6714843749999999,1.5,1.5,1.5h0.75V8.25H1.5c-0.8285156250000001,0,-1.5,0.6714843749999999,-1.5,1.5zm7.909218749999999,-3c-0.8182031249999999,0,-1.785,0.3075,-2.454609375,0.75c-0.581015625,0.38390625,-1.0434375,0.75,-2.454609375,0.75v3l1.348359375,0.37429687500000003c0.614296875,0.170625,1.242421875,0.3075,1.882265625,0.35273437500000004c0.766171875,0.054140625,1.5374999999999999,0.015703125000000002,2.28703125,-0.1453125C11.083593749999999,11.28046875,12,10.05984375,12,9c0,-1.5,-1.9729687500000002,-2.25,-4.09078125,-2.25zM11.51765625,0.168515625C10.768125,0.0075,9.996796875,-0.031171875,9.230625,0.023203124999999998c-0.63984375,0.045234375,-1.26796875,0.182109375,-1.882265625,0.3525L6,0.75v3c1.4109375000000002,0,1.87359375,0.36609375,2.454609375,0.75c0.6696093750000001,0.4425,1.6364062499999998,0.75,2.454609375,0.75C13.02703125,5.25,15,4.5,15,3c0,-1.05984375,-0.9164062500000001,-2.28046875,-3.48234375,-2.831484375z" fill="#FFFFFF"/>
    </svg>