<svg version="1.1" xmlns="http://www.w3.org/2000/svg" xlink="http://www.w3.org/1999/xlink" x="0px" y="0px" width="15px" height="17.142857142857142px" viewBox="0 0 15 17.142857142857142" style="enable-background:new 0 0 15 15;" space="preserve">
    <path d="M15,12.857142857142858c-0.9381696428571428,0,-1.0466517857142856,-1.0714285714285714,-2.494419642857143,-1.0714285714285714c-1.4541294642857143,0,-1.5678013392857144,1.0714285714285714,-2.5027901785714284,1.0714285714285714c-0.9272879464285714,0,-1.0531473214285714,-1.0714285714285714,-2.5027901785714284,-1.0714285714285714c-1.4344419642857142,0,-1.5809598214285716,1.0714285714285714,-2.494419642857143,1.0714285714285714c-0.9424553571428571,0,-1.0447098214285715,-1.0714285714285714,-2.5027901785714284,-1.0714285714285714c-1.458046875,0,-1.5620424107142856,1.0714285714285714,-2.5027901785714284,1.0714285714285714v-2.6785714285714284c0,-0.8872767857142857,0.7198660714285714,-1.6071428571428572,1.6071428571428572,-1.6071428571428572h0.5357142857142857V3.75h2.142857142857143v4.821428571428571h2.142857142857143V3.75h2.142857142857143v4.821428571428571h2.142857142857143V3.75h2.142857142857143v4.821428571428571h0.5357142857142857c0.8872767857142857,0,1.6071428571428572,0.7198660714285714,1.6071428571428572,1.6071428571428572v2.6785714285714284zm0,4.285714285714286H0v-3.2142857142857144c1.4516517857142857,0,1.565859375,-1.0714285714285714,2.5027901785714284,-1.0714285714285714c0.9358593749999999,0,1.0464174107142856,1.0714285714285714,2.5027901785714284,1.0714285714285714c1.4344754464285716,0,1.5809263392857142,-1.0714285714285714,2.494419642857143,-1.0714285714285714c0.9424553571428571,0,1.0446763392857144,1.0714285714285714,2.5027901785714284,1.0714285714285714c1.4516852678571428,0,1.565859375,-1.0714285714285714,2.5027901785714284,-1.0714285714285714c0.9203571428571428,0,1.0463839285714285,1.0714285714285714,2.494419642857143,1.0714285714285714v3.2142857142857144zM3.2142857142857144,3.2142857142857144c-0.5943080357142857,0,-1.0714285714285714,-0.4771205357142857,-1.0714285714285714,-1.0714285714285714c0,-1.0379464285714286,1.0714285714285714,-0.7700892857142857,1.0714285714285714,-2.142857142857143c0.4017857142857143,0,1.0714285714285714,0.9877232142857143,1.0714285714285714,1.875s-0.4771205357142857,1.3392857142857142,-1.0714285714285714,1.3392857142857142zm4.285714285714286,0c-0.5943080357142857,0,-1.0714285714285714,-0.4771205357142857,-1.0714285714285714,-1.0714285714285714c0,-1.0379464285714286,1.0714285714285714,-0.7700892857142857,1.0714285714285714,-2.142857142857143c0.4017857142857143,0,1.0714285714285714,0.9877232142857143,1.0714285714285714,1.875s-0.4771205357142857,1.3392857142857142,-1.0714285714285714,1.3392857142857142zm4.285714285714286,0c-0.5943080357142857,0,-1.0714285714285714,-0.4771205357142857,-1.0714285714285714,-1.0714285714285714c0,-1.0379464285714286,1.0714285714285714,-0.7700892857142857,1.0714285714285714,-2.142857142857143c0.4017857142857143,0,1.0714285714285714,0.9877232142857143,1.0714285714285714,1.875s-0.4771205357142857,1.3392857142857142,-1.0714285714285714,1.3392857142857142z" fill="#FFFFFF"/>
    </svg>