<svg version="1.1" xmlns="http://www.w3.org/2000/svg" xlink="http://www.w3.org/1999/xlink" x="0px" y="0px" width="18.75px" height="15px" viewBox="0 0 18.75 15" style="enable-background:new 0 0 15 15;" space="preserve">
    <path d="M18.28125,6.5625h-0.46875v-1.875c0,-0.51767578125,-0.41982421875,-0.9375,-0.9375,-0.9375h-2.15625L12.2818359375,0.7037109375A1.8757324218750002,1.8757324218750002,0,0,0,10.817578125,0H7.5c-0.51767578125,0,-0.9375,0.41982421875,-0.9375,0.9375v2.8125H1.40625c-0.258984375,0,-0.46875,0.209765625,-0.46875,0.46875v2.34375H0.46875c-0.258984375,0,-0.46875,0.209765625,-0.46875,0.46875v0.9375c0,0.258984375,0.209765625,0.46875,0.46875,0.46875h0.48984374999999997c0.8557617187500001,-1.13232421875,2.2001953125,-1.875,3.72890625,-1.875s2.87314453125,0.74267578125,3.72890625,1.875h1.91748046875c0.8557617187500001,-1.13232421875,2.2001953125,-1.875,3.72890625,-1.875s2.87314453125,0.74267578125,3.72890625,1.875H18.28125c0.258984375,0,0.46875,-0.209765625,0.46875,-0.46875v-0.9375c0,-0.258984375,-0.209765625,-0.46875,-0.46875,-0.46875zm-9.84375,-2.8125V1.875h2.380078125l1.5,1.875H8.4375zm8.90625,6.5625h-0.15234375c-0.064453125,-0.21474609375,-0.14853515625000002,-0.418359375,-0.25341796875,-0.61201171875l0.10751953125,-0.10751953125c0.18310546875,-0.18310546875,0.18310546875,-0.4798828125,0,-0.66298828125l-0.66298828125,-0.66298828125c-0.18310546875,-0.18310546875,-0.4798828125,-0.18310546875,-0.66298828125,0l-0.10751953125,0.10751953125A3.24755859375,3.24755859375,0,0,0,15,8.12109375V7.96875c0,-0.258984375,-0.209765625,-0.46875,-0.46875,-0.46875h-0.9375c-0.258984375,0,-0.46875,0.209765625,-0.46875,0.46875v0.15234375c-0.21474609375,0.064453125,-0.418359375,0.14853515625000002,-0.61201171875,0.25341796875l-0.10751953125,-0.10751953125c-0.18310546875,-0.18310546875,-0.4798828125,-0.18310546875,-0.66298828125,0l-0.66298828125,0.66298828125c-0.18310546875,0.18310546875,-0.18310546875,0.4798828125,0,0.66298828125l0.10751953125,0.10751953125A3.24755859375,3.24755859375,0,0,0,10.93359375,10.3125H10.78125c-0.258984375,0,-0.46875,0.209765625,-0.46875,0.46875v0.9375c0,0.258984375,0.209765625,0.46875,0.46875,0.46875h0.15234375c0.064453125,0.21474609375,0.14853515625000002,0.418359375,0.25341796875,0.61201171875l-0.10751953125,0.10751953125c-0.18310546875,0.18310546875,-0.18310546875,0.4798828125,0,0.66298828125l0.66298828125,0.66298828125c0.18310546875,0.18310546875,0.4798828125,0.18310546875,0.66298828125,0l0.10751953125,-0.10751953125c0.19365234375,0.10458984375,0.39755859375,0.18896484375,0.6123046875,0.25341796875v0.15234375c0,0.258984375,0.209765625,0.46875,0.46875,0.46875h0.9375c0.258984375,0,0.46875,-0.209765625,0.46875,-0.46875v-0.15234375c0.21474609375,-0.064453125,0.418359375,-0.14853515625000002,0.6123046875,-0.25341796875l0.10751953125,0.10751953125c0.18310546875,0.18310546875,0.4798828125,0.18310546875,0.66298828125,0l0.66298828125,-0.66298828125c0.18310546875,-0.18310546875,0.18310546875,-0.4798828125,0,-0.66298828125l-0.10751953125,-0.10751953125a3.24755859375,3.24755859375,0,0,0,0.25341796875,-0.61201171875h0.15234375c0.258984375,0,0.46875,-0.209765625,0.46875,-0.46875v-0.9375c-0.0005859375,-0.258984375,-0.21035156249999998,-0.46875,-0.46933593749999997,-0.46875zm-3.28125,2.34375c-0.7766601562500001,0,-1.40625,-0.6295898437499999,-1.40625,-1.40625s0.6295898437499999,-1.40625,1.40625,-1.40625s1.40625,0.6295898437499999,1.40625,1.40625s-0.6295898437499999,1.40625,-1.40625,1.40625zm-6.09375,-2.34375h-0.15234375c-0.064453125,-0.21474609375,-0.14853515625000002,-0.418359375,-0.25341796875,-0.61201171875l0.10751953125,-0.10751953125c0.18310546875,-0.18310546875,0.18310546875,-0.4798828125,0,-0.66298828125l-0.66298828125,-0.66298828125c-0.18310546875,-0.18310546875,-0.4798828125,-0.18310546875,-0.66298828125,0l-0.10751953125,0.10751953125A3.24755859375,3.24755859375,0,0,0,5.625,8.12109375V7.96875c0,-0.258984375,-0.209765625,-0.46875,-0.46875,-0.46875h-0.9375c-0.258984375,0,-0.46875,0.209765625,-0.46875,0.46875v0.15234375c-0.21474609375,0.064453125,-0.418359375,0.14853515625000002,-0.61201171875,0.25341796875l-0.10751953125,-0.10751953125c-0.18310546875,-0.18310546875,-0.4798828125,-0.18310546875,-0.66298828125,0L1.7044921875,8.9296875c-0.18310546875,0.18310546875,-0.18310546875,0.4798828125,0,0.66298828125l0.10751953125,0.10751953125a3.24755859375,3.24755859375,0,0,0,-0.25341796875,0.61201171875H1.40625c-0.258984375,0,-0.46875,0.209765625,-0.46875,0.46875v0.9375c0,0.258984375,0.209765625,0.46875,0.46875,0.46875h0.15234375c0.064453125,0.21474609375,0.14853515625000002,0.418359375,0.25341796875,0.61201171875l-0.10751953125,0.10751953125c-0.18310546875,0.18310546875,-0.18310546875,0.4798828125,0,0.66298828125l0.66298828125,0.66298828125c0.18310546875,0.18310546875,0.4798828125,0.18310546875,0.66298828125,0l0.10751953125,-0.10751953125c0.19365234375,0.10458984375,0.39755859375,0.18896484375,0.6123046875,0.25341796875v0.15234375c0,0.258984375,0.209765625,0.46875,0.46875,0.46875h0.9375c0.258984375,0,0.46875,-0.209765625,0.46875,-0.46875v-0.15234375c0.21474609375,-0.064453125,0.418359375,-0.14853515625000002,0.6123046875,-0.25341796875l0.10751953125,0.10751953125c0.18310546875,0.18310546875,0.4798828125,0.18310546875,0.66298828125,0l0.66298828125,-0.66298828125c0.18310546875,-0.18310546875,0.18310546875,-0.4798828125,0,-0.66298828125l-0.10751953125,-0.10751953125a3.24755859375,3.24755859375,0,0,0,0.25341796875,-0.61201171875h0.15234375c0.258984375,0,0.46875,-0.209765625,0.46875,-0.46875v-0.9375C8.4375,10.522265625000001,8.227734374999999,10.3125,7.96875,10.3125zm-3.28125,2.34375c-0.7766601562500001,0,-1.40625,-0.6295898437499999,-1.40625,-1.40625s0.6295898437499999,-1.40625,1.40625,-1.40625s1.40625,0.6295898437499999,1.40625,1.40625s-0.6295898437499999,1.40625,-1.40625,1.40625z" fill="#FFFFFF"/>
    </svg>