<svg version="1.1" xmlns="http://www.w3.org/2000/svg" xlink="http://www.w3.org/1999/xlink" x="0px" y="0px" width="15px" height="12px" viewBox="0 0 15 12" style="enable-background:new 0 0 15 15;" space="preserve">
    <path d="M0,11.25c0,0.41414062500000004,0.335859375,0.75,0.75,0.75h1.5c0.41414062500000004,0,0.75,-0.335859375,0.75,-0.75V3.75H0v7.5zm13.5740625,-4.5c0.41859375,-0.407578125,0.6759375,-0.8751562500000001,0.6759375,-1.380703125c0,-1.2389062499999999,-0.979453125,-2.198203125,-2.060625,-2.8804687500000004c-0.98296875,-0.620390625,-1.889765625,-1.353984375,-2.6240625,-2.2551562499999998L9.375,0l-0.1903125,0.23367187500000003c-0.734296875,0.9011718750000001,-1.6408593750000002,1.6350000000000002,-2.6240625,2.2551562499999998C5.479453125,3.1710937500000003,4.5,4.1303906249999995,4.5,5.369296875c0,0.5055468750000001,0.25734375,0.973125,0.6759375,1.380703125h8.398125zM14.25,7.5H4.5c-0.41414062500000004,0,-0.75,0.335859375,-0.75,0.75v3c0,0.41414062500000004,0.335859375,0.75,0.75,0.75h0.75v-1.5c0,-0.41414062500000004,0.335859375,-0.75,0.75,-0.75s0.75,0.335859375,0.75,0.75v1.5h1.5v-1.6875c0,-1.125,1.125,-1.6875,1.125,-1.6875s1.125,0.5625,1.125,1.6875v1.6875h1.5v-1.5c0,-0.41414062500000004,0.335859375,-0.75,0.75,-0.75s0.75,0.335859375,0.75,0.75v1.5h0.75c0.41414062500000004,0,0.75,-0.335859375,0.75,-0.75V8.25c0,-0.41414062500000004,-0.335859375,-0.75,-0.75,-0.75zM1.5,0S0,0.75,0,2.25v0.75h3V2.25c0,-1.5,-1.5,-2.25,-1.5,-2.25z" fill="#FFFFFF"/>
    </svg>