<svg version="1.1" xmlns="http://www.w3.org/2000/svg" xlink="http://www.w3.org/1999/xlink" x="0px" y="0px" width="15px" height="20px" viewBox="0 0 15 20" style="enable-background:new 0 0 15 15;" space="preserve">
    <path d="M3.162109375,18.446484375c-0.16718750000000002,0.6703125,0.23984375,1.348828125,0.909375,1.516015625c0.10195312499999999,0.025781250000000002,0.20390624999999998,0.037109375,0.3046875,0.037109375c0.559765625,0,1.069140625,-0.37890625,1.21171875,-0.946484375l0.9859374999999999,-3.944140625l-2.06171875,-2.06171875l-1.35,5.39921875zm0.581640625,-7.6609375L5.3515625,4.5703125c0.085546875,-0.32890625,-0.12265625000000001,-0.662109375,-0.465625,-0.74453125c-1.7140625,-0.41093749999999996,-3.451171875,0.588671875,-3.8796874999999997,2.233203125L0.019140625,9.8921875c-0.085546875,0.32890625,0.12265625000000001,0.662109375,0.465625,0.74453125l2.4828125,0.595703125c0.34335937499999997,0.08203125,0.690625,-0.11796875,0.7761718750000001,-0.44687499999999997zM14.375,6.25h-0.625c-0.3453125,0,-0.625,0.2796875,-0.625,0.625v0.625h-1.357421875l-1.82734375,-1.82734375C9.50703125,5.2386718750000005,8.930078125000001,5,8.316796875,5c-1.05546875,0,-1.971484375,0.71484375,-2.227734375,1.7390625000000002l-1.0515625000000002,4.2078125a1.25046875,1.25046875,0,0,0,0.32890625,1.187109375L8.75,15.517578125V18.75c0,0.6902343750000001,0.559765625,1.25,1.25,1.25s1.25,-0.559765625,1.25,-1.25v-3.232421875c0,-0.667578125,-0.26015625,-1.2953124999999999,-0.732421875,-1.767578125l-1.82890625,-1.82890625c0.005859375,-0.01953125,0.019140625,-0.034765625,0.02421875,-0.055078125l0.776953125,-3.1082031249999997l0.876171875,0.876171875c0.234375,0.234375,0.55234375,0.36640625000000004,0.8835937500000001,0.36640625000000004h1.875v9.375c0,0.3453125,0.2796875,0.625,0.625,0.625h0.625c0.3453125,0,0.625,-0.2796875,0.625,-0.625V6.875c0.000390625,-0.3453125,-0.279296875,-0.625,-0.624609375,-0.625zM9.375,3.75c1.035546875,0,1.875,-0.8394531249999999,1.875,-1.875S10.410546875,0,9.375,0s-1.875,0.8394531249999999,-1.875,1.875s0.8394531249999999,1.875,1.875,1.875z" fill="#FFFFFF"/>
    </svg>