<svg version="1.1" xmlns="http://www.w3.org/2000/svg" xlink="http://www.w3.org/1999/xlink" x="0px" y="0px" width="15px" height="15px" viewBox="0 0 15 15" style="enable-background:new 0 0 15 15;" space="preserve">
    <path d="M12.65625,2.8125c0.7763671875,0,1.40625,-0.6298828125,1.40625,-1.40625S13.4326171875,0,12.65625,0s-1.40625,0.6298828125,-1.40625,1.40625s0.6298828125,1.40625,1.40625,1.40625zm0.84375,4.5c0.169921875,0.1259765625,0.3662109375,0.1875,0.5625,0.1875c0.2841796875,0,0.5654296875,-0.12890625,0.75,-0.375c0.310546875,-0.4130859375,0.228515625,-1.001953125,-0.1875,-1.3125l-3.263671875,-2.4462890625c-0.404296875,-0.3017578125,-0.8525390625,-0.5390625,-1.330078125,-0.697265625l-1.8662109375,-0.62109375l-0.7646484375,-1.5263671875C7.1689453125,0.05859375,6.6064453125,-0.12890625,6.1435546875,0.1025390625c-0.462890625,0.2314453125,-0.650390625,0.7939453125,-0.4189453125,1.2568359375l0.8525390625,1.7021484375c0.1669921875,0.333984375,0.45703125,0.5830078125,0.8115234375,0.703125l0.48046874999999994,0.1611328125l-1.20703125,0.603515625c-0.638671875,0.3193359375,-1.037109375,0.9609374999999999,-1.037109375,1.67578125v1.5556640625l-2.1708984375,0.7236328125c-0.4921875,0.1640625,-0.755859375,0.6943359375,-0.591796875,1.1865234375c0.0498046875,0.15234375,0.1435546875,0.275390625,0.2548828125,0.3779296875l-1.1337890625,-0.4130859375c-0.2841796875,-0.1025390625,-0.509765625,-0.310546875,-0.638671875,-0.5859375c-0.1640625,-0.3515625,-0.5830078125,-0.50390625,-0.9345703125,-0.33984375s-0.50390625,0.5830078125,-0.33984375,0.9345703125c0.287109375,0.615234375,0.7939453125,1.0810546875,1.4326171875,1.3125l10.6875,3.8876953124999996c0.2841796875,0.1025390625,0.5771484375,0.1552734375,0.8701171875,0.1552734375c0.3662109375,0,0.7294921875,-0.0791015625,1.0693359375,-0.24023437499999997c0.3515625,-0.1640625,0.50390625,-0.5830078125,0.33984375,-0.9345703125S13.88671875,13.3212890625,13.53515625,13.4853515625c-0.2724609375,0.12890625,-0.580078125,0.140625,-0.8642578125,0.0380859375l-2.66015625,-0.9697265625c0.2548828125,-0.12011718749999999,0.45703125,-0.345703125,0.521484375,-0.6416015625l0.6416015625,-2.98828125c0.1142578125,-0.533203125,-0.09375,-1.08984375,-0.5302734375,-1.41796875l-1.5234375,-1.142578125l1.93359375,-0.8935546875l2.4462890625,1.8427734375zm-4.23046875,1.5146484375l-0.5771484375,2.6953125c-0.0439453125,0.2080078125,-0.0029296875,0.4072265625,0.08203125,0.5859375l-4.962890625,-1.8046875c0.0791015625,-0.005859375,0.158203125,-0.01171875,0.234375,-0.0380859375l2.490234375,-0.83203125c0.57421875,-0.1904296875,0.9609374999999999,-0.7265625,0.9609374999999999,-1.3330078125V7.5l1.7724609375,1.3271484375z" fill="#FFFFFF"/>
    </svg>