<svg version="1.1" xmlns="http://www.w3.org/2000/svg" xlink="http://www.w3.org/1999/xlink" x="0px" y="0px" width="15px" height="13.333333333333332px" viewBox="0 0 15 13.333333333333332" style="enable-background:new 0 0 15 15;" space="preserve">
    <path d="M14.583333333333334,11.666666666666668h-0.4166666666666667V2.5H0.8333333333333334v9.166666666666668H0.4171875c-0.23020833333333335,0,-0.4166666666666667,0.18645833333333334,-0.4166666666666667,0.4166666666666667v0.8333333333333334c0,0.23020833333333335,0.18645833333333334,0.4166666666666667,0.4166666666666667,0.4166666666666667H4.583333333333334c0.23020833333333335,0,0.4166666666666667,-0.18645833333333334,0.4166666666666667,-0.4166666666666667V8.333333333333334c0,-1.3807291666666668,1.1192708333333332,-2.5,2.5,-2.5s2.5,1.1192708333333332,2.5,2.5l0.0005208333333333333,4.166666666666667v0.4166666666666667c0,0.23020833333333335,0.18645833333333334,0.4166666666666667,0.4166666666666667,0.4166666666666667H14.583333333333334c0.23020833333333335,0,0.4166666666666667,-0.18645833333333334,0.4166666666666667,-0.4166666666666667v-0.8333333333333334c0,-0.23020833333333335,-0.18645833333333334,-0.4166666666666667,-0.4166666666666667,-0.4166666666666667zm0,-11.666666666666668H0.4166666666666667C0.18645833333333334,0,0,0.18645833333333334,0,0.4166666666666667v0.8333333333333334c0,0.23020833333333335,0.18645833333333334,0.4166666666666667,0.4166666666666667,0.4166666666666667h14.166666666666668c0.23020833333333335,0,0.4166666666666667,-0.18645833333333334,0.4166666666666667,-0.4166666666666667V0.4166666666666667c0,-0.23020833333333335,-0.18645833333333334,-0.4166666666666667,-0.4166666666666667,-0.4166666666666667z" fill="#FFFFFF"/>
    </svg>