<svg version="1.1" xmlns="http://www.w3.org/2000/svg" xlink="http://www.w3.org/1999/xlink" x="0px" y="0px" width="13.125px" height="15px" viewBox="0 0 13.125 15" style="enable-background:new 0 0 15 15;" space="preserve"><path d="M10.3125,9.375c-0.66234375,0,-1.2711035156250001,0.229072265625,-1.75166015625,0.612158203125l-3.00251953125,-1.8765820312500001a2.828642578125,2.828642578125,0,0,0,0,-1.221181640625l3.00251953125,-1.8765820312500001C9.041396484375,5.395927734375,9.65015625,5.625,10.3125,5.625c1.553291015625,0,2.8125,-1.259208984375,2.8125,-2.8125S11.865791015625,0,10.3125,0s-2.8125,1.259208984375,-2.8125,2.8125c0,0.20970703125,0.023144531250000003,0.41396484375000003,0.0666796875,0.610576171875L4.56416015625,5.299658203125C4.083603515625,4.916572265625,3.4748437500000002,4.6875,2.8125,4.6875c-1.553291015625,0,-2.8125,1.259208984375,-2.8125,2.8125s1.259208984375,2.8125,2.8125,2.8125c0.66234375,0,1.2711035156250001,-0.229072265625,1.75166015625,-0.612158203125l3.00251953125,1.8765820312500001A2.821318359375,2.821318359375,0,0,0,7.5,12.1875c0,1.553291015625,1.259208984375,2.8125,2.8125,2.8125s2.8125,-1.259208984375,2.8125,-2.8125s-1.259208984375,-2.8125,-2.8125,-2.8125z" fill="#FFFFFF"/></svg>