<svg version="1.1" xmlns="http://www.w3.org/2000/svg" xlink="http://www.w3.org/1999/xlink" x="0px" y="0px" width="15px" height="12px" viewBox="0 0 15 12" style="enable-background:new 0 0 15 15;" space="preserve"><path d="M4.443984375,7.27921875c0.08296875000000001,0.07640625,0.357890625,0.22078124999999998,0.806015625,0.22078124999999998s0.72328125,-0.144375,0.806015625,-0.22078124999999998c0.37546875,-0.346171875,0.80859375,-0.52921875,1.25296875,-0.52921875h0.38203125000000004c0.444375,0,0.8777343750000001,0.183046875,1.25296875,0.52921875c0.08296875000000001,0.07640625,0.357890625,0.22078124999999998,0.806015625,0.22078124999999998s0.72328125,-0.144375,0.806015625,-0.22078124999999998c0.34828125,-0.321328125,0.7471875,-0.495,1.1575781250000001,-0.519375l-2.6446875,-1.8890624999999999l0.421875,-0.30140625c0.0853125,-0.06046875,0.19406249999999997,-0.0825,0.29578125,-0.061171875l2.3519531249999996,0.504609375c0.607265625,0.129609375,1.205625,-0.25710937500000003,1.3359375,-0.8643750000000001c0.130078125,-0.6075,-0.25664062499999996,-1.205625,-0.8643750000000001,-1.3359375L10.258125,2.3078906249999998c-0.720234375,-0.15421875000000002,-1.47703125,0.0028125,-2.075625,0.43078125l-1.87546875,1.339921875c-0.24328125,0.17320312499999999,-0.45375,0.38531250000000006,-0.62625,0.6314062500000001L4.072265625,7.0078125c0.128203125,0.075703125,0.25359375,0.162421875,0.37171875,0.27140625zM14.625,8.25h-0.375c-0.6103125,0,-1.0734374999999998,-0.19734374999999998,-1.314609375,-0.41953124999999997c-0.20859375000000002,-0.19242187500000002,-0.46078125000000003,-0.33046875,-0.744609375,-0.33046875h-0.38203125000000004c-0.283828125,0,-0.536015625,0.13804687499999999,-0.744609375,0.33046875C10.8234375,8.05265625,10.360312500000001,8.25,9.75,8.25s-1.0734374999999998,-0.19734374999999998,-1.314609375,-0.41953124999999997c-0.20859375000000002,-0.19242187500000002,-0.46078125000000003,-0.33046875,-0.744609375,-0.33046875h-0.38203125000000004c-0.283828125,0,-0.536015625,0.13804687499999999,-0.744609375,0.33046875C6.323437500000001,8.05265625,5.8603125,8.25,5.25,8.25s-1.0734374999999998,-0.19734374999999998,-1.314609375,-0.41953124999999997c-0.20859375000000002,-0.19242187500000002,-0.46078125000000003,-0.33046875,-0.744609375,-0.33046875h-0.38203125000000004c-0.283828125,0,-0.536015625,0.13804687499999999,-0.744609375,0.33046875C1.8234374999999998,8.05265625,1.3603125,8.25,0.75,8.25H0.375c-0.2071875,0,-0.375,0.1678125,-0.375,0.375v0.75c0,0.2071875,0.1678125,0.375,0.375,0.375h0.375c0.9051562499999999,0,1.704375,-0.285703125,2.25,-0.74625c0.545625,0.46078125000000003,1.3448437500000001,0.74625,2.25,0.74625s1.704375,-0.285703125,2.25,-0.74625c0.545625,0.46078125000000003,1.3448437500000001,0.74625,2.25,0.74625s1.704375,-0.285703125,2.25,-0.74625c0.545625,0.46078125000000003,1.3448437500000001,0.74625,2.25,0.74625h0.375c0.2071875,0,0.375,-0.1678125,0.375,-0.375v-0.75c0,-0.2071875,-0.1678125,-0.375,-0.375,-0.375zm-12,-2.25c1.03546875,0,1.875,-0.8395312500000001,1.875,-1.875s-0.8395312500000001,-1.875,-1.875,-1.875s-1.875,0.8395312500000001,-1.875,1.875s0.8395312500000001,1.875,1.875,1.875z" fill="#FFFFFF"/></svg>