<svg version="1.1" xmlns="http://www.w3.org/2000/svg" xlink="http://www.w3.org/1999/xlink" x="0px" y="0px" width="15px" height="13.333333333333332px" viewBox="0 0 15 13.333333333333332" style="enable-background:new 0 0 15 15;" space="preserve">
    <path d="M14.583333333333334,4.166666666666667c0.27083333333333337,0,0.46875,-0.25520833333333337,0.40364583333333337,-0.5182291666666666l-0.625,-2.5C14.315104166666668,0.9635416666666667,14.1484375,0.8333333333333334,13.958333333333334,0.8333333333333334h-2.5755208333333335l0.6666666666666667,3.3333333333333335H14.583333333333334zM7.083333333333334,0.8333333333333334H4.466145833333334l-0.6666666666666667,3.3333333333333335H7.083333333333334V0.8333333333333334zm3.4505208333333335,0H7.916666666666667v3.3333333333333335h3.2838541666666665L10.533854166666668,0.8333333333333334zM0.4166666666666667,4.166666666666667h2.5338541666666665l0.6666666666666667,-3.3333333333333335H1.0416666666666667c-0.19010416666666666,0,-0.3567708333333333,0.13020833333333334,-0.40364583333333337,0.3151041666666667l-0.625,2.5C-0.052083333333333336,3.911458333333333,0.14583333333333334,4.166666666666667,0.4166666666666667,4.166666666666667zm14.166666666666668,1.6666666666666667h-0.5208333333333334l0.10416666666666667,-0.8333333333333334H0.8333333333333334l0.10416666666666667,0.8333333333333334H0.4166666666666667c-0.22916666666666669,0,-0.4166666666666667,0.1875,-0.4166666666666667,0.4166666666666667v0.8333333333333334c0,0.22916666666666669,0.1875,0.4166666666666667,0.4166666666666667,0.4166666666666667h0.7291666666666667l0.5208333333333334,4.166666666666667v0.4166666666666667c0,0.22916666666666669,0.1875,0.4166666666666667,0.4166666666666667,0.4166666666666667h0.8333333333333334c0.22916666666666669,0,0.4166666666666667,-0.1875,0.4166666666666667,-0.4166666666666667v-0.4166666666666667h8.333333333333334v0.4166666666666667c0,0.22916666666666669,0.1875,0.4166666666666667,0.4166666666666667,0.4166666666666667h0.8333333333333334c0.22916666666666669,0,0.4166666666666667,-0.1875,0.4166666666666667,-0.4166666666666667v-0.4166666666666667l0.5208333333333334,-4.166666666666667h0.7291666666666667c0.22916666666666669,0,0.4166666666666667,-0.1875,0.4166666666666667,-0.4166666666666667v-0.8333333333333334c0,-0.22916666666666669,-0.1875,-0.4166666666666667,-0.4166666666666667,-0.4166666666666667z" fill="#FFFFFF"/>
    </svg>