<svg version="1.1" xmlns="http://www.w3.org/2000/svg" xlink="http://www.w3.org/1999/xlink" x="0px" y="0px" width="15px" height="13.333333333333332px" viewBox="0 0 15 13.333333333333332" style="enable-background:new 0 0 15 15;" space="preserve">
    <path d="M14.583333333333334,1.6666666666666667c0.23020833333333335,0,0.4166666666666667,-0.18645833333333334,0.4166666666666667,-0.4166666666666667V0.4166666666666667c0,-0.23020833333333335,-0.18645833333333334,-0.4166666666666667,-0.4166666666666667,-0.4166666666666667H0.4166666666666667C0.18645833333333334,0,0,0.18645833333333334,0,0.4166666666666667v0.8333333333333334c0,0.23020833333333335,0.18645833333333334,0.4166666666666667,0.4166666666666667,0.4166666666666667h0.4161458333333334v10H0.4166666666666667c-0.23020833333333335,0,-0.4166666666666667,0.18645833333333334,-0.4166666666666667,0.4166666666666667v0.8333333333333334c0,0.23020833333333335,0.18645833333333334,0.4166666666666667,0.4166666666666667,0.4166666666666667h6.25v-2.0833333333333335c0,-0.22916666666666669,0.1875,-0.4166666666666667,0.4166666666666667,-0.4166666666666667h0.8333333333333334c0.22916666666666669,0,0.4166666666666667,0.1875,0.4166666666666667,0.4166666666666667v2.0833333333333335h6.25c0.23020833333333335,0,0.4166666666666667,-0.18645833333333334,0.4166666666666667,-0.4166666666666667v-0.8333333333333334c0,-0.23020833333333335,-0.18645833333333334,-0.4166666666666667,-0.4166666666666667,-0.4166666666666667h-0.4166666666666667V1.6666666666666667h0.4166666666666667zm-7.916666666666667,1.1666666666666667c0,-0.16666666666666669,0.16666666666666669,-0.33333333333333337,0.33333333333333337,-0.33333333333333337h1c0.16666666666666669,0,0.33333333333333337,0.16666666666666669,0.33333333333333337,0.33333333333333337v1c0,0.16666666666666669,-0.16666666666666669,0.33333333333333337,-0.33333333333333337,0.33333333333333337h-1c-0.16666666666666669,0,-0.33333333333333337,-0.16666666666666669,-0.33333333333333337,-0.33333333333333337v-1zm0,2.5c0,-0.16666666666666669,0.16666666666666669,-0.33333333333333337,0.33333333333333337,-0.33333333333333337h1c0.16666666666666669,0,0.33333333333333337,0.16666666666666669,0.33333333333333337,0.33333333333333337v1c0,0.16666666666666669,-0.16666666666666669,0.33333333333333337,-0.33333333333333337,0.33333333333333337h-1c-0.16666666666666669,0,-0.33333333333333337,-0.16666666666666669,-0.33333333333333337,-0.33333333333333337v-1zm-3.3333333333333335,-2.5c0,-0.16666666666666669,0.16666666666666669,-0.33333333333333337,0.33333333333333337,-0.33333333333333337h1c0.16666666666666669,0,0.33333333333333337,0.16666666666666669,0.33333333333333337,0.33333333333333337v1c0,0.16666666666666669,-0.16666666666666669,0.33333333333333337,-0.33333333333333337,0.33333333333333337h-1c-0.16666666666666669,0,-0.33333333333333337,-0.16666666666666669,-0.33333333333333337,-0.33333333333333337v-1zM4.666666666666667,6.666666666666667h-1c-0.16666666666666669,0,-0.33333333333333337,-0.16666666666666669,-0.33333333333333337,-0.33333333333333337v-1c0,-0.16666666666666669,0.16666666666666669,-0.33333333333333337,0.33333333333333337,-0.33333333333333337h1c0.16666666666666669,0,0.33333333333333337,0.16666666666666669,0.33333333333333337,0.33333333333333337v1c0,0.16666666666666669,-0.16666666666666669,0.33333333333333337,-0.33333333333333337,0.33333333333333337zM5,10c0,-1.3807291666666668,1.1192708333333332,-2.5,2.5,-2.5s2.5,1.1192708333333332,2.5,2.5H5zm6.666666666666667,-3.666666666666667c0,0.16666666666666669,-0.16666666666666669,0.33333333333333337,-0.33333333333333337,0.33333333333333337h-1c-0.16666666666666669,0,-0.33333333333333337,-0.16666666666666669,-0.33333333333333337,-0.33333333333333337v-1c0,-0.16666666666666669,0.16666666666666669,-0.33333333333333337,0.33333333333333337,-0.33333333333333337h1c0.16666666666666669,0,0.33333333333333337,0.16666666666666669,0.33333333333333337,0.33333333333333337v1zm0,-2.5c0,0.16666666666666669,-0.16666666666666669,0.33333333333333337,-0.33333333333333337,0.33333333333333337h-1c-0.16666666666666669,0,-0.33333333333333337,-0.16666666666666669,-0.33333333333333337,-0.33333333333333337v-1c0,-0.16666666666666669,0.16666666666666669,-0.33333333333333337,0.33333333333333337,-0.33333333333333337h1c0.16666666666666669,0,0.33333333333333337,0.16666666666666669,0.33333333333333337,0.33333333333333337v1z" fill="#FFFFFF"/>
    </svg>