<svg version="1.1" xmlns="http://www.w3.org/2000/svg" xlink="http://www.w3.org/1999/xlink" x="0px" y="0px" width="15px" height="15px" viewBox="0 0 15 15" style="enable-background:new 0 0 15 15;" space="preserve"><path d="M4.374990234375,6.328125v2.34375c0,0.38833007812500003,-0.31479492187499997,0.703125,-0.703125,0.703125H0.703125c-0.38833007812500003,0,-0.703125,-0.31479492187499997,-0.703125,-0.703125v-2.34375c0,-0.38833007812500003,0.31479492187499997,-0.703125,0.703125,-0.703125h2.968740234375c0.38833007812500003,0,0.703125,0.31479492187499997,0.703125,0.703125zM0,11.015625v2.34375c0,0.38833007812500003,0.31479492187499997,0.703125,0.703125,0.703125h2.968740234375c0.38833007812500003,0,0.703125,-0.31479492187499997,0.703125,-0.703125v-2.34375c0,-0.38833007812500003,-0.31479492187499997,-0.703125,-0.703125,-0.703125H0.703125c-0.38833007812500003,0,-0.703125,0.31479492187499997,-0.703125,0.703125zM3.671865234375,0.9375H0.703125C0.31479492187499997,0.9375,0,1.252294921875,0,1.640625v2.34375c0,0.38833007812500003,0.31479492187499997,0.703125,0.703125,0.703125h2.968740234375c0.38833007812500003,0,0.703125,-0.31479492187499997,0.703125,-0.703125V1.640625c0,-0.38833007812500003,-0.31479492187499997,-0.703125,-0.703125,-0.703125zm2.34375,13.125H14.296875c0.38833007812500003,0,0.703125,-0.31479492187499997,0.703125,-0.703125v-2.34375c0,-0.38833007812500003,-0.31479492187499997,-0.703125,-0.703125,-0.703125H6.015615234375c-0.38833007812500003,0,-0.703125,0.31479492187499997,-0.703125,0.703125v2.34375c0,0.38833007812500003,0.31479492187499997,0.703125,0.703125,0.703125zm-0.703125,-12.421875v2.34375c0,0.38833007812500003,0.31479492187499997,0.703125,0.703125,0.703125H14.296875c0.38833007812500003,0,0.703125,-0.31479492187499997,0.703125,-0.703125V1.640625c0,-0.38833007812500003,-0.31479492187499997,-0.703125,-0.703125,-0.703125H6.015615234375c-0.38833007812500003,0,-0.703125,0.31479492187499997,-0.703125,0.703125zm0.703125,7.734375H14.296875c0.38833007812500003,0,0.703125,-0.31479492187499997,0.703125,-0.703125v-2.34375c0,-0.38833007812500003,-0.31479492187499997,-0.703125,-0.703125,-0.703125H6.015615234375c-0.38833007812500003,0,-0.703125,0.31479492187499997,-0.703125,0.703125v2.34375c0,0.38833007812500003,0.31479492187499997,0.703125,0.703125,0.703125z" fill="#FFFFFF"/></svg>