<svg version="1.1" xmlns="http://www.w3.org/2000/svg" xlink="http://www.w3.org/1999/xlink" x="0px" y="0px" width="18.75px" height="15px" viewBox="0 0 18.75 15" style="enable-background:new 0 0 15 15;" space="preserve">
    <path d="M7.5,9.84375h-0.0005859375c0,-0.4740234375,0.0392578125,-0.25576171875000003,-2.49169921875,-5.317675781249999c-0.51708984375,-1.03388671875,-1.9977539062499998,-1.0359375,-2.5157226562500004,0C-0.060351562500000004,9.63134765625,0.0005859375,9.38466796875,0.0005859375,9.84375H0c0,1.2943359375,1.6790039062500002,2.34375,3.75,2.34375s3.75,-1.0494140625,3.75,-2.34375zM3.75,5.15625l2.109375,4.21875H1.640625l2.109375,-4.21875zm14.999414062500001,4.6875c0,-0.4740234375,0.0392578125,-0.25576171875000003,-2.49169921875,-5.317675781249999c-0.51708984375,-1.03388671875,-1.9977539062499998,-1.0359375,-2.5157226562500004,0c-2.5523437500000004,5.105273437499999,-2.4914062500000003,4.85859375,-2.4914062500000003,5.317675781249999H11.25c0,1.2943359375,1.6790039062500002,2.34375,3.75,2.34375s3.75,-1.0494140625,3.75,-2.34375h-0.0005859375zM12.890625,9.375l2.109375,-4.21875l2.109375,4.21875H12.890625zm2.578125,3.75H10.3125V4.48974609375c0.6887695312500001,-0.30146484375,1.205859375,-0.922265625,1.35908203125,-1.67724609375H15.46875c0.258984375,0,0.46875,-0.209765625,0.46875,-0.46875V1.40625c0,-0.258984375,-0.209765625,-0.46875,-0.46875,-0.46875H11.239453124999999C10.81171875,0.371484375,10.139355468749999,0,9.375,0s-1.43671875,0.371484375,-1.864453125,0.9375H3.28125c-0.258984375,0,-0.46875,0.209765625,-0.46875,0.46875v0.9375c0,0.258984375,0.209765625,0.46875,0.46875,0.46875h3.79716796875c0.15322265625,0.7546875000000001,0.67001953125,1.37578125,1.35908203125,1.67724609375V13.125H3.28125c-0.258984375,0,-0.46875,0.209765625,-0.46875,0.46875v0.9375c0,0.258984375,0.209765625,0.46875,0.46875,0.46875h12.1875c0.258984375,0,0.46875,-0.209765625,0.46875,-0.46875v-0.9375c0,-0.258984375,-0.209765625,-0.46875,-0.46875,-0.46875z" fill="#FFFFFF"/>
    </svg>