<svg version="1.1" xmlns="http://www.w3.org/2000/svg" xlink="http://www.w3.org/1999/xlink" x="0px" y="0px" width="15px" height="12px" viewBox="0 0 15 12" style="enable-background:new 0 0 15 15;" space="preserve"><path d="M12.021093749999999,4.5c-0.34921875,-0.0023437500000000003,-0.6820312500000001,0.053906249999999996,-0.9937499999999999,0.16171875000000002L10.256250000000001,3.375H12.1875c0.31171875000000004,0,0.5625,-0.25078124999999996,0.5625,-0.5625V2.0625c0,-0.31171875000000004,-0.25078124999999996,-0.5625,-0.5625,-0.5625h-1.0617187499999998c-0.159375,0,-0.31171875000000004,0.06796875,-0.41718750000000004,0.18515625000000002l-0.87890625,0.9773437500000001l-0.534375,-0.890625C9.1921875,1.6031250000000001,9.009374999999999,1.5,8.8125,1.5h-1.875c-0.20625000000000002,0,-0.375,0.16875,-0.375,0.375v0.375c0,0.20625000000000002,0.16875,0.375,0.375,0.375h1.5562500000000001l0.44999999999999996,0.75H5.34140625c-0.41484374999999996,-0.5414062500000001,-1.05234375,-0.9375,-2.3414062500000004,-0.9375H1.69921875C1.3828125,2.4375,1.1179687500000002,2.6953125,1.125,3.01171875c0.004687500000000001,0.3046875,0.25546875,0.55078125,0.5625,0.55078125h1.3125c0.57421875,0,0.9070312500000001,0.25546875,1.1203124999999998,0.58125l-0.26484375000000004,0.48046875c-0.3046875,-0.09140625,-0.6304687499999999,-0.13359375,-0.9679687499999999,-0.12187500000000001C1.31015625,4.55859375,0.037500000000000006,5.85,0,7.4296875c-0.037500000000000006,1.6898437499999999,1.3195312499999998,3.0703125,3,3.0703125c1.396875,0,2.57109375,-0.9562499999999999,2.90625,-2.25h1.9734375000000002c0.32109374999999996,0,0.5765625000000001,-0.2671875,0.5625,-0.5882812500000001c-0.049218750000000006,-1.10390625,0.41015625,-2.19609375,1.3171875000000002,-2.9296875l0.29296875,0.48750000000000004c-0.6468750000000001,0.55546875,-1.05703125,1.38046875,-1.0499999999999998,2.3015625c0.01171875,1.6312499999999999,1.3406250000000002,2.96484375,2.971875,2.9789062499999996c1.6781249999999999,0.016406249999999997,3.0421875000000003,-1.34765625,3.0281249999999997,-3.0257812499999996c-0.016406249999999997,-1.6312499999999999,-1.35,-2.9625000000000004,-2.98125,-2.9742187500000004zM3,9.375c-1.03359375,0,-1.875,-0.8414062499999999,-1.875,-1.875s0.8414062499999999,-1.875,1.875,-1.875c0.09843750000000001,0,0.19687500000000002,0.007031249999999999,0.29296875,0.0234375L2.3203125,7.4156249999999995c-0.20625000000000002,0.375,0.06562499999999999,0.8343750000000001,0.4921875,0.8343750000000001h1.9054687499999998c-0.290625,0.6609375,-0.9515625000000001,1.125,-1.7179687499999998,1.125zm10.872656249999999,-1.7718749999999999c-0.051562500000000004,0.9515625000000001,-0.8203125,1.7203125000000001,-1.76953125,1.76953125c-1.08046875,0.05859375,-1.9781250000000001,-0.8039062499999999,-1.9781250000000001,-1.8726562500000001c0,-0.5015624999999999,0.19687500000000002,-0.9562499999999999,0.5179687500000001,-1.29140625l1.1578125,1.9312500000000001c0.10546875,0.17812499999999998,0.3375,0.234375,0.515625,0.12890625l0.32109374999999996,-0.19218749999999998c0.17812499999999998,-0.10546875,0.234375,-0.3375,0.12890625,-0.515625l-1.1390625,-1.8960937500000001c0.12187500000000001,-0.025781250000000002,0.24609375,-0.037500000000000006,0.37265625,-0.037500000000000006c1.06875,-0.0023437500000000003,1.9289062499999998,0.8953125000000001,1.8726562500000001,1.9757812499999998z" fill="#FFFFFF"/></svg>