<svg version="1.1" xmlns="http://www.w3.org/2000/svg" xlink="http://www.w3.org/1999/xlink" x="0px" y="0px" width="15px" height="12px" viewBox="0 0 15 12" style="enable-background:new 0 0 15 15;" space="preserve">
    <path d="M13.875,4.5H11.09203125c0.297421875,0.693515625,0.166875,1.5281250000000002,-0.3984375,2.0934375L7.5,9.78703125V10.875c0,0.621328125,0.503671875,1.125,1.125,1.125h5.25c0.621328125,0,1.125,-0.503671875,1.125,-1.125V5.625c0,-0.621328125,-0.503671875,-1.125,-1.125,-1.125zM11.25,8.8125c-0.310546875,0,-0.5625,-0.251953125,-0.5625,-0.5625c0,-0.31078125,0.251953125,-0.5625,0.5625,-0.5625s0.5625,0.25171875,0.5625,0.5625c0,0.310546875,-0.251953125,0.5625,-0.5625,0.5625zm-1.0867968749999999,-4.375781249999999L6.063281249999999,0.336796875c-0.44906250000000003,-0.44906250000000003,-1.177265625,-0.44906250000000003,-1.6263281250000001,0L0.336796875,4.436718750000001c-0.44906250000000003,0.44906250000000003,-0.44906250000000003,1.177265625,0,1.6263281250000001L4.436718750000001,10.163203124999999c0.44906250000000003,0.44906250000000003,1.177265625,0.44906250000000003,1.6263281250000001,0L10.163203124999999,6.063281249999999c0.44906250000000003,-0.44929687500000004,0.44906250000000003,-1.1775,0,-1.6265625000000001zM2.25,5.8125c-0.310546875,0,-0.5625,-0.251953125,-0.5625,-0.5625c0,-0.31078125,0.251953125,-0.5625,0.5625,-0.5625s0.5625,0.25171875,0.5625,0.5625c0,0.310546875,-0.251953125,0.5625,-0.5625,0.5625zm3,3c-0.310546875,0,-0.5625,-0.251953125,-0.5625,-0.5625c0,-0.31078125,0.251953125,-0.5625,0.5625,-0.5625s0.5625,0.25171875,0.5625,0.5625c0,0.310546875,-0.251953125,0.5625,-0.5625,0.5625zm0,-3c-0.310546875,0,-0.5625,-0.251953125,-0.5625,-0.5625c0,-0.31078125,0.251953125,-0.5625,0.5625,-0.5625s0.5625,0.25171875,0.5625,0.5625c0,0.310546875,-0.251953125,0.5625,-0.5625,0.5625zm0,-3c-0.310546875,0,-0.5625,-0.251953125,-0.5625,-0.5625c0,-0.31078125,0.251953125,-0.5625,0.5625,-0.5625s0.5625,0.25171875,0.5625,0.5625c0,0.310546875,-0.251953125,0.5625,-0.5625,0.5625zm3,3c-0.310546875,0,-0.5625,-0.251953125,-0.5625,-0.5625c0,-0.31078125,0.251953125,-0.5625,0.5625,-0.5625s0.5625,0.25171875,0.5625,0.5625c0,0.310546875,-0.251953125,0.5625,-0.5625,0.5625z" fill="#FFFFFF"/>
    </svg>