<svg version="1.1" xmlns="http://www.w3.org/2000/svg" xlink="http://www.w3.org/1999/xlink" x="0px" y="0px" width="13.125px" height="15px" viewBox="0 0 13.125 15" style="enable-background:new 0 0 15 15;" space="preserve">
    <path d="M11.71875,6.5625h-0.703125v-2.109375C11.015625,1.998046875,9.017578125,0,6.5625,0S2.109375,1.998046875,2.109375,4.453125v2.109375H1.40625c-0.7763671875,0,-1.40625,0.6298828125,-1.40625,1.40625v5.625c0,0.7763671875,0.6298828125,1.40625,1.40625,1.40625h10.3125c0.7763671875,0,1.40625,-0.6298828125,1.40625,-1.40625V7.96875c0,-0.7763671875,-0.6298828125,-1.40625,-1.40625,-1.40625zm-3.046875,0H4.453125v-2.109375c0,-1.1630859375,0.9462890624999999,-2.109375,2.109375,-2.109375s2.109375,0.9462890624999999,2.109375,2.109375v2.109375z" fill="#FFFFFF"/>
    </svg>