<svg version="1.1" xmlns="http://www.w3.org/2000/svg" xlink="http://www.w3.org/1999/xlink" x="0px" y="0px" width="15px" height="15px" viewBox="0 0 15 15" style="enable-background:new 0 0 15 15;" space="preserve"><path d="M0,11.8740234375V13.125c0,1.0341796875,2.51953125,1.875,5.625,1.875s5.625,-0.8408203125,5.625,-1.875v-1.2509765625C10.0400390625,12.7265625,7.828125,13.125,5.625,13.125S1.2099609375,12.7265625,0,11.8740234375zM9.375,3.75c3.10546875,0,5.625,-0.8408203125,5.625,-1.875S12.48046875,0,9.375,0S3.75,0.8408203125,3.75,1.875s2.51953125,1.875,5.625,1.875zM0,8.80078125V10.3125c0,1.0341796875,2.51953125,1.875,5.625,1.875s5.625,-0.8408203125,5.625,-1.875v-1.51171875c-1.2099609375,0.99609375,-3.4248046875,1.51171875,-5.625,1.51171875S1.2099609375,9.796875,0,8.80078125zm12.1875,0.322265625c1.6787109375,-0.3251953125,2.8125,-0.9287109375,2.8125,-1.623046875v-1.2509765625c-0.6796875,0.48046874999999994,-1.6787109375,0.80859375,-2.8125,1.0107421875v1.86328125zM5.625,4.6875C2.51953125,4.6875,0,5.736328125,0,7.03125s2.51953125,2.34375,5.625,2.34375s5.625,-1.048828125,5.625,-2.34375s-2.51953125,-2.34375,-5.625,-2.34375zm6.4248046875,1.6494140625c1.7578125,-0.31640625,2.9501953125,-0.9375,2.9501953125,-1.6494140625v-1.2509765625c-1.0400390625,0.7353515625,-2.8271484375,1.130859375,-4.7080078125,1.224609375c0.8642578125,0.4189453125,1.5,0.9814453125,1.7578125,1.67578125z" fill="#FFFFFF"/></svg>