<svg version="1.1" xmlns="http://www.w3.org/2000/svg" xlink="http://www.w3.org/1999/xlink" x="0px" y="0px" width="16.875px" height="15px" viewBox="0 0 16.875 15" style="enable-background:new 0 0 15 15;" space="preserve">
    <path d="M16.40625,4.6875c0.3046875,0,0.52734375,-0.287109375,0.4541015625,-0.5830078125l-0.703125,-2.8125C16.1044921875,1.083984375,15.916992187499998,0.9375,15.703125,0.9375h-2.8974609375l0.75,3.75H16.40625zM7.96875,0.9375H5.0244140625l-0.75,3.75H7.96875V0.9375zm3.8818359375,0H8.90625v3.75h3.6943359375L11.8505859375,0.9375zM0.46875,4.6875h2.8505859375l0.75,-3.75H1.171875c-0.2138671875,0,-0.4013671875,0.146484375,-0.4541015625,0.3544921875l-0.703125,2.8125C-0.05859375,4.400390625,0.1640625,4.6875,0.46875,4.6875zm15.9375,1.875h-0.5859375l0.1171875,-0.9375H0.9375l0.1171875,0.9375H0.46875c-0.2578125,0,-0.46875,0.2109375,-0.46875,0.46875v0.9375c0,0.2578125,0.2109375,0.46875,0.46875,0.46875h0.8203125l0.5859375,4.6875v0.46875c0,0.2578125,0.2109375,0.46875,0.46875,0.46875h0.9375c0.2578125,0,0.46875,-0.2109375,0.46875,-0.46875v-0.46875h9.375v0.46875c0,0.2578125,0.2109375,0.46875,0.46875,0.46875h0.9375c0.2578125,0,0.46875,-0.2109375,0.46875,-0.46875v-0.46875l0.5859375,-4.6875h0.8203125c0.2578125,0,0.46875,-0.2109375,0.46875,-0.46875v-0.9375c0,-0.2578125,-0.2109375,-0.46875,-0.46875,-0.46875z" fill="#FFFFFF"/>
    </svg>