<svg version="1.1" xmlns="http://www.w3.org/2000/svg" xlink="http://www.w3.org/1999/xlink" x="0px" y="0px" width="15px" height="15px" viewBox="0 0 15 15" style="enable-background:new 0 0 15 15;" space="preserve"><path d="M7.5,8.4375c2.3291015625,0,4.21875,-1.8896484375,4.21875,-4.21875S9.8291015625,0,7.5,0S3.28125,1.8896484375,3.28125,4.21875s1.8896484375,4.21875,4.21875,4.21875zm3.75,0.9375h-1.6142578125c-0.650390625,0.298828125,-1.3740234375,0.46875,-2.1357421875,0.46875s-1.482421875,-0.169921875,-2.1357421875,-0.46875H3.75C1.6787109375,9.375,0,11.0537109375,0,13.125v0.46875c0,0.7763671875,0.6298828125,1.40625,1.40625,1.40625h12.1875c0.7763671875,0,1.40625,-0.6298828125,1.40625,-1.40625v-0.46875c0,-2.0712890625,-1.6787109375,-3.75,-3.75,-3.75z" fill="#FFFFFF"/></svg>