<svg version="1.1" xmlns="http://www.w3.org/2000/svg" xlink="http://www.w3.org/1999/xlink" x="0px" y="0px" width="15px" height="12px" viewBox="0 0 15 12" style="enable-background:new 0 0 15 15;" space="preserve">
    <path d="M14.8125,8.25h-1.125c-0.10312500000000001,0,-0.1875,0.084375,-0.1875,0.1875v3.375c0,0.10312500000000001,0.084375,0.1875,0.1875,0.1875h1.125c0.10312500000000001,0,0.1875,-0.084375,0.1875,-0.1875V8.4375c0,-0.10312500000000001,-0.084375,-0.1875,-0.1875,-0.1875zM12.967968749999999,2.0414062499999996c-0.13359375,-0.08906249999999999,-0.21796875000000002,-0.234375,-0.21796875000000002,-0.39375000000000004V0.1875c0,-0.10312500000000001,-0.084375,-0.1875,-0.1875,-0.1875h-1.125c-0.10312500000000001,0,-0.1875,0.084375,-0.1875,0.1875v1.4601562499999998c0,0.515625,0.23906249999999998,1.0171875,0.6703125000000001,1.2984375c0.9890625000000001,0.63984375,1.5796875000000001,1.7296874999999998,1.5796875000000001,2.90625V6.5625c0,0.10312500000000001,0.084375,0.1875,0.1875,0.1875h1.125c0.10312500000000001,0,0.1875,-0.084375,0.1875,-0.1875v-0.71015625c0,-1.53515625,-0.7593749999999999,-2.9578125,-2.03203125,-3.8109374999999996zM10.125,8.25H1.125c-0.62109375,0,-1.125,0.50390625,-1.125,1.125v1.5c0,0.62109375,0.50390625,1.125,1.125,1.125h9c0.20625000000000002,0,0.375,-0.16875,0.375,-0.375V8.625c0,-0.20625000000000002,-0.16875,-0.375,-0.375,-0.375zm-0.75,2.625H5.25v-1.5h4.125v1.5zm2.05546875,-7.5562499999999995C10.8703125,2.9296875,10.5,2.32734375,10.5,1.6476562499999998V0.1875c0,-0.10312500000000001,-0.084375,-0.1875,-0.1875,-0.1875h-1.125c-0.10312500000000001,0,-0.1875,0.084375,-0.1875,0.1875v1.5562500000000001c0,1.0242187500000002,0.5765625000000001,1.9124999999999999,1.4132812499999998,2.50078125c0.5249999999999999,0.36796874999999996,0.8367187500000001,0.9656250000000001,0.8367187500000001,1.6078124999999999V6.5625c0,0.10312500000000001,0.084375,0.1875,0.1875,0.1875h1.125c0.10312500000000001,0,0.1875,-0.084375,0.1875,-0.1875v-0.71015625c0,-1.0148437499999998,-0.4921875,-1.9546875000000001,-1.3195312499999998,-2.5335937499999996zM12.5625,8.25h-1.125c-0.10312500000000001,0,-0.1875,0.084375,-0.1875,0.1875v3.375c0,0.10312500000000001,0.084375,0.1875,0.1875,0.1875h1.125c0.10312500000000001,0,0.1875,-0.084375,0.1875,-0.1875V8.4375c0,-0.10312500000000001,-0.084375,-0.1875,-0.1875,-0.1875z" fill="#FFFFFF"/>
    </svg>