<svg version="1.1" xmlns="http://www.w3.org/2000/svg" xlink="http://www.w3.org/1999/xlink" x="0px" y="0px" width="15px" height="12px" viewBox="0 0 15 12" style="enable-background:new 0 0 15 15;" space="preserve">
    <path d="M14.625,9.75h-0.375c-0.6103125,0,-1.0734375,-0.19734375,-1.314609375,-0.41953125c-0.20859375000000002,-0.19242187500000002,-0.46078125,-0.33046875000000003,-0.744609375,-0.33046875000000003h-0.38203125000000004c-0.283828125,0,-0.536015625,0.13804687499999999,-0.744609375,0.33046875000000003C10.8234375,9.55265625,10.360312500000001,9.75,9.75,9.75s-1.0734375,-0.19734375,-1.314609375,-0.41953125c-0.20859375000000002,-0.19242187500000002,-0.46078125,-0.33046875000000003,-0.744609375,-0.33046875000000003h-0.38203125000000004c-0.283828125,0,-0.536015625,0.13804687499999999,-0.744609375,0.33046875000000003C6.323437500000001,9.55265625,5.8603125,9.75,5.25,9.75s-1.0734375,-0.19734375,-1.314609375,-0.41953125c-0.20859375000000002,-0.19242187500000002,-0.46078125,-0.33046875000000003,-0.744609375,-0.33046875000000003h-0.38203125000000004c-0.283828125,0,-0.536015625,0.13804687499999999,-0.744609375,0.33046875000000003C1.8234375,9.55265625,1.3603125,9.75,0.75,9.75H0.375c-0.2071875,0,-0.375,0.16781250000000003,-0.375,0.375v0.75c0,0.2071875,0.16781250000000003,0.375,0.375,0.375h0.375c0.90515625,0,1.704375,-0.285703125,2.25,-0.7462500000000001c0.5456250000000001,0.46078125,1.3448437500000001,0.7462500000000001,2.25,0.7462500000000001s1.704375,-0.285703125,2.25,-0.7462500000000001c0.5456250000000001,0.46078125,1.3448437500000001,0.7462500000000001,2.25,0.7462500000000001s1.704375,-0.285703125,2.25,-0.7462500000000001c0.5456250000000001,0.46078125,1.3448437500000001,0.7462500000000001,2.25,0.7462500000000001h0.375c0.2071875,0,0.375,-0.16781250000000003,0.375,-0.375v-0.75c0,-0.2071875,-0.16781250000000003,-0.375,-0.375,-0.375zm-9.375,-0.75v-2.25h4.5v2.25c0.44812500000000005,0,0.72328125,-0.144375,0.8060156250000001,-0.22078125000000004c0.21492187500000004,-0.19828125000000002,0.45,-0.33609375,0.693984375,-0.42351562500000006V3c0,-0.41343750000000007,0.3365625,-0.75,0.75,-0.75s0.75,0.3365625,0.75,0.75v0.375c0,0.2071875,0.16781250000000003,0.375,0.375,0.375h0.75c0.2071875,0,0.375,-0.16781250000000003,0.375,-0.375v-0.375c0,-1.24078125,-1.0092187500000003,-2.25,-2.25,-2.25s-2.25,1.0092187500000003,-2.25,2.25v2.25H5.25v-2.25c0,-0.41343750000000007,0.3365625,-0.75,0.75,-0.75s0.75,0.3365625,0.75,0.75v0.375c0,0.2071875,0.16781250000000003,0.375,0.375,0.375h0.75c0.2071875,0,0.375,-0.16781250000000003,0.375,-0.375v-0.375c0,-1.24078125,-1.0092187500000003,-2.25,-2.25,-2.25s-2.25,1.0092187500000003,-2.25,2.25v5.35546875c0.24398437500000003,0.08742187500000001,0.47906250000000006,0.22546875,0.693984375,0.42351562500000006c0.082734375,0.076640625,0.357890625,0.221015625,0.8060156250000001,0.221015625z" fill="#FFFFFF"/>
    </svg>