<svg version="1.1" xmlns="http://www.w3.org/2000/svg" xlink="http://www.w3.org/1999/xlink" x="0px" y="0px" width="15px" height="15px" viewBox="0 0 15 15" style="enable-background:new 0 0 15 15;" space="preserve">
    <path d="M12.1875,3.75V0.9375c0,-0.51767578125,-0.41982421875,-0.9375,-0.9375,-0.9375H0.9375C0.41982421875,0,0,0.41982421875,0,0.9375v2.8125c0,0.51767578125,0.41982421875,0.9375,0.9375,0.9375h10.3125c0.51767578125,0,0.9375,-0.41982421875,0.9375,-0.9375zm0.9375,-1.875v3.75c0,0.51767578125,-0.41982421875,0.9375,-0.9375,0.9375H7.5c-1.03564453125,0,-1.875,0.83935546875,-1.875,1.875v0.9375c-0.51767578125,0,-0.9375,0.41982421875,-0.9375,0.9375v3.75c0,0.51767578125,0.41982421875,0.9375,0.9375,0.9375h1.875c0.51767578125,0,0.9375,-0.41982421875,0.9375,-0.9375V10.3125c0,-0.51767578125,-0.41982421875,-0.9375,-0.9375,-0.9375v-0.9375h4.6875c1.5533203125000001,0,2.8125,-1.2591796874999999,2.8125,-2.8125v-1.875c0,-1.03564453125,-0.83935546875,-1.875,-1.875,-1.875z" fill="#FFFFFF"/>
    </svg>