<svg version="1.1" xmlns="http://www.w3.org/2000/svg" xlink="http://www.w3.org/1999/xlink" x="0px" y="0px" width="18.75px" height="15px" viewBox="0 0 18.75 15" style="enable-background:new 0 0 15 15;" space="preserve">
    <path d="M3.75,2.8125c0.7763671875,0,1.40625,-0.6298828125,1.40625,-1.40625S4.5263671875,0,3.75,0S2.34375,0.6298828125,2.34375,1.40625s0.6298828125,1.40625,1.40625,1.40625zm11.25,0c0.7763671875,0,1.40625,-0.6298828125,1.40625,-1.40625S15.7763671875,0,15,0s-1.40625,0.6298828125,-1.40625,1.40625s0.6298828125,1.40625,1.40625,1.40625zm3.6826171875,10.9013671875l-1.2890625,-3.22265625l-1.2041015625,1.359375l-0.05859375,0.533203125l0.8115234375,2.02734375c0.146484375,0.3662109375,0.498046875,0.5888671875,0.8701171875,0.5888671875c0.1171875,0,0.234375,-0.0205078125,0.3486328125,-0.0673828125c0.48046874999999994,-0.193359375,0.71484375,-0.73828125,0.521484375,-1.21875zm-1.001953125,-6.146484375L17.138671875,5.2177734375c-0.134765625,-0.5859375,-0.544921875,-1.078125,-1.0986328125,-1.3154296875c-0.5419921875,-0.234375,-1.142578125,-0.1962890625,-1.6435546875,0.0966796875c-0.6650390625,0.392578125,-1.1630859375,1.0107421875,-1.4091796875,1.740234375L12.65625,6.732421875L12.1875,7.03125v-2.8125c0,-0.2578125,-0.2109375,-0.46875,-0.46875,-0.46875H7.03125c-0.2578125,0,-0.46875,0.2109375,-0.46875,0.46875v2.8125l-0.47167968750000006,-0.298828125l-0.3310546875,-0.9931640625c-0.24316406250000003,-0.732421875,-0.744140625,-1.34765625,-1.4091796875,-1.740234375c-0.50390625,-0.29296875,-1.1015625,-0.3310546875,-1.6435546875,-0.0966796875c-0.5537109375,0.2373046875,-0.9638671875,0.7294921875,-1.0986328125,1.3154296875l-0.5390625,2.349609375c-0.134765625,0.5859375,0.0205078125,1.20703125,0.421875,1.6611328125l1.96875,2.2236328125l0.2958984375,2.712890625C3.80859375,14.642578125,4.212890625,15,4.6875,15c0.03515625,0,0.0673828125,-0.0029296875,0.1025390625,-0.005859375c0.515625,-0.0556640625,0.884765625,-0.5185546875,0.8291015625,-1.0341796875l-0.2958984375,-2.71875c-0.0439453125,-0.380859375,-0.2021484375,-0.7353515625,-0.45703125,-1.025390625l-1.2685546875,-1.435546875l0.515625,-2.0595703125l0.19921875,0.59765625c0.12011718749999999,0.3662109375,0.3486328125,0.685546875,0.7177734375,0.955078125l1.4970703125,0.9521484375c0.134765625,0.0849609375,0.3544921875,0.134765625,0.50390625,0.146484375h4.6875c0.1494140625,-0.01171875,0.369140625,-0.0615234375,0.50390625,-0.146484375l1.4970703125,-0.9521484375c0.369140625,-0.26953125,0.59765625,-0.5859375,0.7177734375,-0.955078125l0.19921875,-0.59765625l0.515625,2.0595703125l-1.2685546875,1.435546875c-0.2548828125,0.2900390625,-0.4130859375,0.64453125,-0.45703125,1.025390625l-0.2958984375,2.71875c-0.0556640625,0.515625,0.31640625,0.978515625,0.8291015625,1.0341796875c0.03515625,0.0029296875,0.0673828125,0.005859375,0.1025390625,0.005859375c0.47167968750000006,0,0.87890625,-0.3544921875,0.931640625,-0.8349609375l0.2958984375,-2.712890625l1.96875,-2.2236328125c0.3984375,-0.4541015625,0.556640625,-1.0751953125,0.421875,-1.6611328125zM1.3564453125,10.4912109375l-1.2890625,3.22265625c-0.193359375,0.48046874999999994,0.041015625,1.025390625,0.521484375,1.21875c0.4921875,0.193359375,1.0283203125,-0.0498046875,1.21875,-0.521484375l0.8115234375,-2.02734375l-0.05859375,-0.533203125l-1.2041015625,-1.359375z" fill="#FFFFFF"/>
    </svg>