<svg version="1.1" xmlns="http://www.w3.org/2000/svg" xlink="http://www.w3.org/1999/xlink" x="0px" y="0px" width="16.875px" height="15px" viewBox="0 0 16.875 15" style="enable-background:new 0 0 15 15;" space="preserve">
    <path d="M6.29970703125,2.08154296875L3.6931640625,4.6875H0.703125c-0.3884765625,0,-0.703125,0.3146484375,-0.703125,0.703125v4.21875c0,0.38818359375,0.3146484375,0.703125,0.703125,0.703125h2.9900390625l2.60654296875,2.60595703125c0.44033203125,0.44033203125,1.20029296875,0.13095703125,1.20029296875,-0.49716796874999997V2.5787109375c0,-0.6287109375000001,-0.7605468750000001,-0.9369140625,-1.20029296875,-0.49716796874999997zm6.8355468749999995,-1.4964843749999999c-0.32724609375,-0.21474609375,-0.7669921875,-0.12421875,-0.98173828125,0.20361328125c-0.2150390625,0.32724609375,-0.1236328125,0.7669921875,0.20361328125,0.98173828125c1.94150390625,1.27412109375,3.1001953125,3.416015625,3.1001953125,5.7298828125000005c0,2.3138671875,-1.15869140625,4.45576171875,-3.1001953125,5.7298828125000005c-0.32724609375,0.21445312500000002,-0.41865234375,0.6544921875,-0.20361328125,0.9814453125c0.20625,0.31376953125,0.64248046875,0.4265625,0.98173828125,0.20361328125C15.476660156249999,12.8783203125,16.875,10.29287109375,16.875,7.5S15.476660156249999,2.12197265625,13.13525390625,0.5850585937499999zM14.0625,7.5c0,-1.86123046875,-0.9392578125000001,-3.5724609375,-2.51279296875,-4.577343750000001c-0.32783203125,-0.2091796875,-0.7625976562500001,-0.1119140625,-0.9703124999999999,0.2185546875s-0.11074218749999999,0.7678710937500001,0.21708984375,0.97734375C11.961035156249999,4.86240234375,12.65625,6.12626953125,12.65625,7.5s-0.69521484375,2.63759765625,-1.8597656249999999,3.3814453125c-0.32783203125,0.2091796875,-0.4248046875,0.64658203125,-0.21708984375,0.97734375c0.19072265624999998,0.30351562499999996,0.61875,0.44355468750000004,0.9703124999999999,0.2185546875C13.1232421875,11.0724609375,14.0625,9.3615234375,14.0625,7.5zm-4.15341796875,-2.2520507812500004c-0.3392578125,-0.18544921875,-0.76728515625,-0.06328125000000001,-0.95537109375,0.27685546875c-0.18720703125,0.34013671874999996,-0.06328125000000001,0.767578125,0.27685546875,0.95537109375C9.608789062500001,6.687890625,9.84375,7.07900390625,9.84375,7.5c0,0.42128906250000003,-0.2349609375,0.8121093749999999,-0.612890625,1.0198242187500002c-0.34013671874999996,0.18779296875,-0.4640625,0.615234375,-0.27685546875,0.95537109375c0.18837890624999998,0.3416015625,0.61669921875,0.462890625,0.95537109375,0.27685546875c0.82705078125,-0.45556640625,1.3409179687500001,-1.318359375,1.3409179687500001,-2.2523437499999996s-0.5138671874999999,-1.796484375,-1.3412109375,-2.2517578125z" fill="#FFFFFF"/>
    </svg>