<svg version="1.1" xmlns="http://www.w3.org/2000/svg" xlink="http://www.w3.org/1999/xlink" x="0px" y="0px" width="18.75px" height="15px" viewBox="0 0 18.75 15" style="enable-background:new 0 0 15 15;" space="preserve">
    <path d="M17.34375,5.625H13.8650390625c0.37177734375,0.86689453125,0.20859375,1.91015625,-0.498046875,2.616796875L9.375,12.2337890625V13.59375c0,0.7766601562500001,0.6295898437499999,1.40625,1.40625,1.40625h6.5625c0.7766601562500001,0,1.40625,-0.6295898437499999,1.40625,-1.40625V7.03125c0,-0.7766601562500001,-0.6295898437499999,-1.40625,-1.40625,-1.40625zM14.0625,11.015625c-0.38818359375,0,-0.703125,-0.31494140625,-0.703125,-0.703125c0,-0.3884765625,0.31494140625,-0.703125,0.703125,-0.703125s0.703125,0.3146484375,0.703125,0.703125c0,0.38818359375,-0.31494140625,0.703125,-0.703125,0.703125zm-1.35849609375,-5.4697265625L7.5791015625,0.42099609374999997c-0.561328125,-0.561328125,-1.4715820312499999,-0.561328125,-2.03291015625,0L0.42099609374999997,5.5458984375c-0.561328125,0.561328125,-0.561328125,1.4715820312499999,0,2.03291015625L5.5458984375,12.70400390625c0.561328125,0.561328125,1.4715820312499999,0.561328125,2.03291015625,0L12.70400390625,7.5791015625c0.561328125,-0.56162109375,0.561328125,-1.471875,0,-2.033203125zM2.8125,7.265625c-0.38818359375,0,-0.703125,-0.31494140625,-0.703125,-0.703125c0,-0.3884765625,0.31494140625,-0.703125,0.703125,-0.703125s0.703125,0.3146484375,0.703125,0.703125c0,0.38818359375,-0.31494140625,0.703125,-0.703125,0.703125zm3.75,3.75c-0.38818359375,0,-0.703125,-0.31494140625,-0.703125,-0.703125c0,-0.3884765625,0.31494140625,-0.703125,0.703125,-0.703125s0.703125,0.3146484375,0.703125,0.703125c0,0.38818359375,-0.31494140625,0.703125,-0.703125,0.703125zm0,-3.75c-0.38818359375,0,-0.703125,-0.31494140625,-0.703125,-0.703125c0,-0.3884765625,0.31494140625,-0.703125,0.703125,-0.703125s0.703125,0.3146484375,0.703125,0.703125c0,0.38818359375,-0.31494140625,0.703125,-0.703125,0.703125zm0,-3.75c-0.38818359375,0,-0.703125,-0.31494140625,-0.703125,-0.703125c0,-0.3884765625,0.31494140625,-0.703125,0.703125,-0.703125s0.703125,0.3146484375,0.703125,0.703125c0,0.38818359375,-0.31494140625,0.703125,-0.703125,0.703125zm3.75,3.75c-0.38818359375,0,-0.703125,-0.31494140625,-0.703125,-0.703125c0,-0.3884765625,0.31494140625,-0.703125,0.703125,-0.703125s0.703125,0.3146484375,0.703125,0.703125c0,0.38818359375,-0.31494140625,0.703125,-0.703125,0.703125z" fill="#FFFFFF"/>
    </svg>