<svg version="1.1" xmlns="http://www.w3.org/2000/svg" xlink="http://www.w3.org/1999/xlink" x="0px" y="0px" width="13.125px" height="15px" viewBox="0 0 13.125 15" style="enable-background:new 0 0 15 15;" space="preserve"><path d="M0.46875,4.6875h1.40625v8.90625a0.46875,0.46875,0,0,0,0.46875,0.46875h0.9375a0.46875,0.46875,0,0,0,0.46875,-0.46875V4.6875h1.40625c0.41630859375,0,0.6263671875,-0.5050781249999999,0.33134765625,-0.80009765625l-2.34375,-2.8125a0.46875,0.46875,0,0,0,-0.6626953125,0l-2.34375,2.8125C-0.15673828125,4.181835937500001,0.0521484375,4.6875,0.46875,4.6875zm11.71875,3.75H8.4375a0.46875,0.46875,0,0,0,-0.46875,0.46875v0.9375a0.46875,0.46875,0,0,0,0.46875,0.46875h1.640625l-1.7947265625,2.06396484375A0.9375,0.9375,0,0,0,7.96875,13.07724609375V13.59375a0.46875,0.46875,0,0,0,0.46875,0.46875h3.75a0.46875,0.46875,0,0,0,0.46875,-0.46875v-0.9375a0.46875,0.46875,0,0,0,-0.46875,-0.46875h-1.640625l1.7947265625,-2.06396484375A0.9375,0.9375,0,0,0,12.65625,9.42275390625V8.90625a0.46875,0.46875,0,0,0,-0.46875,-0.46875zm0.9099609375,-2.5013671874999996l-1.7364257812500001,-4.6875A0.46875,0.46875,0,0,0,10.91953125,0.9375h-1.2140624999999998a0.46875,0.46875,0,0,0,-0.44150390625,0.31113281249999997l-1.7364257812500001,4.6875A0.46875,0.46875,0,0,0,7.96875,6.5625h0.72744140625a0.46875,0.46875,0,0,0,0.44619140625000003,-0.324609375l0.1294921875,-0.378515625h2.080078125l0.12919921875,0.378515625A0.46875,0.46875,0,0,0,11.928515625000001,6.5625H12.65625a0.46875,0.46875,0,0,0,0.4412109375,-0.6263671875zM9.832324218750001,4.21875L10.3125,2.8125l0.48017578125000004,1.40625z" fill="#FFFFFF"/></svg>