<svg version="1.1" xmlns="http://www.w3.org/2000/svg" xlink="http://www.w3.org/1999/xlink" x="0px" y="0px" width="10.3125px" height="15px" viewBox="0 0 10.3125 15" style="enable-background:new 0 0 15 15;" space="preserve">
    <path d="M5.15625,10.3125c1.5533203125000001,0,2.8125,-1.2591796874999999,2.8125,-2.8125V2.8125c0,-1.5533203125000001,-1.2591796874999999,-2.8125,-2.8125,-2.8125S2.34375,1.2591796874999999,2.34375,2.8125v4.6875c0,1.5533203125000001,1.2591796874999999,2.8125,2.8125,2.8125zm4.6875,-4.6875h-0.46875c-0.258984375,0,-0.46875,0.209765625,-0.46875,0.46875v1.40625c0,2.19140625,-1.8893554687499998,3.9498046875,-4.12470703125,3.7318359374999996C2.8333007812499997,11.041699218749999,1.40625,9.290332031250001,1.40625,7.3330078125V6.09375c0,-0.258984375,-0.209765625,-0.46875,-0.46875,-0.46875H0.46875c-0.258984375,0,-0.46875,0.209765625,-0.46875,0.46875v1.1765625c0,2.626171875,1.87412109375,4.96728515625,4.453125,5.32294921875V13.59375H2.8125c-0.258984375,0,-0.46875,0.209765625,-0.46875,0.46875v0.46875c0,0.258984375,0.209765625,0.46875,0.46875,0.46875h4.6875c0.258984375,0,0.46875,-0.209765625,0.46875,-0.46875v-0.46875c0,-0.258984375,-0.209765625,-0.46875,-0.46875,-0.46875h-1.640625v-0.9893554687500001C8.37041015625,12.25986328125,10.3125,10.1044921875,10.3125,7.5v-1.40625c0,-0.258984375,-0.209765625,-0.46875,-0.46875,-0.46875z" fill="#FFFFFF"/>
    </svg>