<svg version="1.1" xmlns="http://www.w3.org/2000/svg" xlink="http://www.w3.org/1999/xlink" x="0px" y="0px" width="15px" height="20px" viewBox="0 0 15 20" style="enable-background:new 0 0 15 15;" space="preserve">
    <path d="M10,5.625V1.25c0,-0.6903515625,0.5596484375,-1.25,1.25,-1.25s1.25,0.5596484375,1.25,1.25v4.375h-2.5zm4.375,0.625H0.625c-0.3451953125,0,-0.625,0.2798046875,-0.625,0.625v1.25c0,0.3451953125,0.2798046875,0.625,0.625,0.625h0.625v1.25c0,3.0236718750000002,2.1472265625,5.5457421875,5,6.12484375V20h2.5v-3.87515625c2.8527734375000002,-0.5791015625,5,-3.101171875,5,-6.12484375v-1.25h0.625c0.3451953125,0,0.625,-0.2798046875,0.625,-0.625v-1.25c0,-0.3451953125,-0.2798046875,-0.625,-0.625,-0.625zm-9.375,-0.625V1.25c0,-0.6903515625,-0.5596484375,-1.25,-1.25,-1.25S2.5,0.5596484375,2.5,1.25v4.375h2.5z" fill="#FFFFFF"/>
    </svg>