<svg version="1.1" xmlns="http://www.w3.org/2000/svg" xlink="http://www.w3.org/1999/xlink" x="0px" y="0px" width="13.125px" height="15px" viewBox="0 0 13.125 15" style="enable-background:new 0 0 15 15;" space="preserve"><path d="M10.27880859375,3.779296875c0.7608398437499999,0.13681640625,1.3848632812500001,0.54697265625,1.8726562500000001,1.23046875c0.42919921875,0.60556640625,0.721875,1.3672851562500001,0.8777343750000001,2.28515625c0.13681640625,0.83994140625,0.12656250000000002,1.6795898437499999,-0.029296875,2.51953125c-0.23408203125000002,1.3866210937499999,-0.7022460937499999,2.548828125,-1.4044921874999998,3.486328125c-0.8390625,1.1329101562500001,-1.89228515625,1.69921875,-3.1602539062500004,1.69921875c-0.3123046875,0,-0.6533203125,-0.09755859375,-1.02421875,-0.29296875c-0.2537109375,-0.15615234375,-0.53642578125,-0.234375,-0.8487304687499999,-0.234375s-0.5947265625,0.07822265625,-0.8487304687499999,0.234375c-0.3708984375,0.19541015625,-0.7119140625,0.29296875,-1.02421875,0.29296875c-1.26796875,0,-2.32119140625,-0.56630859375,-3.1602539062500004,-1.69921875c-0.7022460937499999,-0.9375,-1.17041015625,-2.09970703125,-1.4044921874999998,-3.486328125c-0.15585937500000002,-0.83994140625,-0.16611328125,-1.6795898437499999,-0.029296875,-2.51953125c0.15585937500000002,-0.91787109375,0.44853515625,-1.6795898437499999,0.8777343750000001,-2.28515625c0.48779296874999994,-0.68349609375,1.11181640625,-1.0936523437499999,1.8726562500000001,-1.23046875c0.46816406250000003,-0.07822265625,1.11181640625,-0.00966796875,1.9312500000000001,0.205078125c0.7022460937499999,0.19541015625,1.297265625,0.42978515625,1.78505859375,0.703125c0.48779296874999994,-0.27333984375,1.0828125,-0.50771484375,1.78505859375,-0.703125c0.8197265625,-0.21474609375,1.463671875,-0.28330078125,1.9318359374999998,-0.205078125zm-1.6095703124999998,-1.201171875c-0.273046875,0.25400390625,-0.63427734375,0.439453125,-1.0828125,0.556640625c-0.3123046875,0.09755859375,-0.6533203125,0.146484375,-1.02421875,0.146484375l-0.43886718750000003,-0.029296875c-0.038964843750000006,-0.27333984375,-0.038964843750000006,-0.5859375,0,-0.9375c0.07822265625,-0.703125,0.30234375,-1.2401367187499999,0.6729492187499999,-1.611328125c0.273046875,-0.25400390625,0.63427734375,-0.439453125,1.0828125,-0.556640625c0.3123046875,-0.09755859375,0.6533203125,-0.146484375,1.02421875,-0.146484375l0.43886718750000003,0.029296875l0.029296875,0.439453125c0,0.37119140625,-0.048925781249999994,0.71279296875,-0.14619140625000002,1.025390625c-0.11689453125,0.44912109375,-0.30205078125,0.81064453125,-0.5560546875,1.083984375z" fill="#FFFFFF"/></svg>