<svg version="1.1" xmlns="http://www.w3.org/2000/svg" xlink="http://www.w3.org/1999/xlink" x="0px" y="0px" width="16.875px" height="15px" viewBox="0 0 16.875 15" style="enable-background:new 0 0 15 15;" space="preserve">
    <path d="M16.87265625,2.244140625c-0.00029296875,-0.23818359375000003,-0.0884765625,-0.46494140624999997,-0.2513671875,-0.638671875c-0.11074218749999999,-0.11806640625,-0.2513671875,-0.26718749999999997,-0.40107421875,-0.4248046875c0.3240234375,-0.200390625,0.5712890625,-0.5124023437499999,0.6498046875,-0.8982421875C16.89990234375,0.13710937499999998,16.785937500000003,0,16.6376953125,0H13.12265625c-2.07099609375,0,-3.75,1.6790039062500002,-3.75,3.75H4.6875c-0.844921875,0,-1.59375,0.38027343750000003,-2.109375,0.97001953125V4.6875c-1.42177734375,0,-2.578125,1.15634765625,-2.578125,2.578125v1.640625c0,0.258984375,0.209765625,0.46875,0.46875,0.46875h0.46875c0.258984375,0,0.46875,-0.209765625,0.46875,-0.46875v-1.640625c0,-0.3873046875,0.20126953125,-0.71455078125,0.49160156250000003,-0.928125c-0.00615234375,0.0755859375,-0.022851562500000002,0.14794921875,-0.022851562500000002,0.22499999999999998c0,0.809765625,0.346875,1.533984375,0.8947265624999999,2.0472656249999996l-0.7535156249999999,2.009765625a1.873388671875,1.873388671875,0,0,0,-0.06328125000000001,1.11298828125l0.72802734375,2.9124023437499997A0.46822265625,0.46822265625,0,0,0,3.1353515625,15h1.9324218749999997c0.30498046875,0,0.52880859375,-0.2865234375,0.45468749999999997,-0.582421875l-0.77080078125,-3.0837890625l0.6984375,-1.86298828125L9.375,10.125V14.53125c0,0.258984375,0.209765625,0.46875,0.46875,0.46875h1.875c0.258984375,0,0.46875,-0.209765625,0.46875,-0.46875V9.3228515625c0.5783203124999999,-0.59150390625,0.9375,-1.39892578125,0.9375,-2.2916015625c0,-0.0064453125,-0.00205078125,-0.0123046875,-0.00234375,-0.01875V4.01044921875l0.46875,0.20830078125l0.5537109375,1.1044921875c0.21826171875,0.43564453124999997,0.73388671875,0.63134765625,1.18623046875,0.45029296874999997l0.9536132812499999,-0.38144531249999997a0.937412109375,0.937412109375,0,0,0,0.589453125,-0.8712890624999999l-0.0017578124999999998,-2.2766601562499997zm-1.875,0.568359375c-0.258984375,0,-0.46875,-0.209765625,-0.46875,-0.46875s0.209765625,-0.46875,0.46875,-0.46875s0.46875,0.209765625,0.46875,0.46875s-0.209765625,0.46875,-0.46875,0.46875z" fill="#FFFFFF"/>
    </svg>