<svg version="1.1" xmlns="http://www.w3.org/2000/svg" xlink="http://www.w3.org/1999/xlink" x="0px" y="0px" width="14.53125px" height="15px" viewBox="0 0 14.53125 15" style="enable-background:new 0 0 15 15;" space="preserve">
    <path d="M7.265625,0.234375C3.251953125,0.234375,0,3.4863281250000004,0,7.5s3.251953125,7.265625,7.265625,7.265625s7.265625,-3.251953125,7.265625,-7.265625S11.279296875,0.234375,7.265625,0.234375zm2.34375,4.218750000000001c0.6972656250000001,0,1.5439453125000002,0.8583984375,1.640625,2.0917968750000004c0.0205078125,0.251953125,-0.31640625000000006,0.34863281250000006,-0.4365234375,0.13183593750000003l-0.2783203125,-0.49804687500000006c-0.22558593750000003,-0.4013671875,-0.5625,-0.6328125000000001,-0.9228515625,-0.6328125000000001s-0.6972656250000001,0.2314453125,-0.9228515625,0.6328125000000001l-0.2783203125,0.49804687500000006c-0.12011718749999999,0.2138671875,-0.45703125,0.1171875,-0.4365234375,-0.13183593750000003c0.0908203125,-1.2333984375,0.9375,-2.0917968750000004,1.634765625,-2.0917968750000004zm-4.6875,0c0.6972656250000001,0,1.5439453125000002,0.8583984375,1.640625,2.0917968750000004c0.0205078125,0.251953125,-0.31640625000000006,0.34863281250000006,-0.4365234375,0.13183593750000003l-0.2783203125,-0.49804687500000006c-0.22558593750000003,-0.4013671875,-0.5625,-0.6328125000000001,-0.9228515625,-0.6328125000000001s-0.6972656250000001,0.2314453125,-0.9228515625,0.6328125000000001l-0.2783203125,0.49804687500000006c-0.123046875,0.21679687500000003,-0.45703125,0.1171875,-0.4365234375,-0.13183593750000003c0.0908203125,-1.2333984375,0.9375,-2.0917968750000004,1.634765625,-2.0917968750000004zm2.34375,8.203125c-1.775390625,0,-3.9404296875,-1.1220703125,-4.212890625000001,-2.7333984375c-0.05859375,-0.34863281250000006,0.275390625,-0.6328125000000001,0.6064453125,-0.5244140624999999C4.5439453125,9.682617187500002,5.859375,9.84375,7.265625,9.84375s2.7216796875,-0.1611328125,3.6064453125,-0.4453125c0.333984375,-0.10839843750000001,0.6621093750000001,0.1787109375,0.6064453125,0.5244140624999999c-0.27246093750000006,1.611328125,-2.4375,2.7333984375,-4.212890625000001,2.7333984375z" fill="#FFFFFF"/>
    </svg>