<svg version="1.1" xmlns="http://www.w3.org/2000/svg" xlink="http://www.w3.org/1999/xlink" x="0px" y="0px" width="15px" height="12px" viewBox="0 0 15 12" style="enable-background:new 0 0 15 15;" space="preserve"><path d="M6.75,8.205468750000001l0,0.044531249999999994H6c-0.41484374999999996,0,-0.75,0.33515625000000004,-0.75,0.75v1.5v0.5625c0,0.5179687500000001,-0.41953124999999997,0.9375,-0.9375,0.9375H3.75H3.0023437499999996c-0.03515625,0,-0.0703125,-0.0023437500000000003,-0.10546875,-0.004687500000000001c-0.028124999999999997,0.0023437500000000003,-0.056249999999999994,0.004687500000000001,-0.084375,0.004687500000000001H2.4375c-0.5179687500000001,0,-0.9375,-0.41953124999999997,-0.9375,-0.9375V8.4375c0,-0.02109375,0,-0.044531249999999994,0.0023437500000000003,-0.06562499999999999V6.7406250000000005H0.75c-0.421875,0,-0.75,-0.328125,-0.75,-0.7523437500000001c0,-0.2109375,0.0703125,-0.3984375,0.234375,-0.5625L6.2437499999999995,0.1875c0.1640625,-0.1640625,0.3515625,-0.1875,0.515625,-0.1875s0.3515625,0.046875,0.4921875,0.1640625L10.48359375,3.0023437499999996c-0.28828125000000004,-0.0234375,-0.5859375,0.0703125,-0.8156249999999999,0.27421874999999996c-0.8296874999999999,0.7406250000000001,-1.5374999999999999,1.5867187500000002,-2.04609375,2.409375C7.132031250000001,6.48046875,6.75,7.3804687499999995,6.75,8.205468750000001zM10.62890625,3.8390625000000003c0.46171874999999996,0.41718750000000004,0.8953125000000001,0.8671875,1.30078125,1.3523437500000002c0.18515625000000002,-0.23203125000000002,0.39375000000000004,-0.48515624999999996,0.62109375,-0.69140625c0.13124999999999998,-0.11953124999999999,0.3375,-0.11953124999999999,0.46875,0c0.57890625,0.53203125,1.06875,1.2351562500000002,1.415625,1.9007812499999999c0.33984375,0.65625,0.5671875,1.3289062500000002,0.5671875,1.8023437500000001C15,10.263281249999999,13.328906250000001,12,11.25,12c-2.10234375,0,-3.75,-1.7390625000000002,-3.75,-3.7945312500000004c0,-0.6187499999999999,0.29765624999999996,-1.3734375,0.7593749999999999,-2.1234374999999996c0.46875,-0.7593749999999999,1.12734375,-1.5492187499999999,1.9078125000000001,-2.2453125c0.13124999999999998,-0.1171875,0.33281249999999996,-0.1171875,0.46406250000000004,0zM12.421875,10.1484375c0.703125,-0.4921875,0.890625,-1.4765625,0.46875,-2.25c-0.046875,-0.09375,-0.09375,-0.1875,-0.1640625,-0.28125l-0.84375,0.984375s-1.359375,-1.734375,-1.453125,-1.8515625c-0.703125,0.8671875,-1.0546875,1.359375,-1.0546875,1.921875c0,1.1484375,0.84375,1.828125,1.8984375,1.828125c0.421875,0,0.796875,-0.1171875,1.1484375,-0.3515625z" fill="#FFFFFF"/></svg>