<svg version="1.1" xmlns="http://www.w3.org/2000/svg" xlink="http://www.w3.org/1999/xlink" x="0px" y="0px" width="15px" height="15px" viewBox="0 0 15 15" style="enable-background:new 0 0 15 15;" space="preserve">
    <path d="M13.7490234375,0.5654296875l0.685546875,0.685546875c0.732421875,0.732421875,0.732421875,1.9189453125,0,2.6513671875l-1.65234375,1.65234375L9.4423828125,2.2177734375l1.65234375,-1.65234375c0.732421875,-0.732421875,1.9189453125,-0.732421875,2.6513671875,0zM1.3154296875,10.34765625L8.7802734375,2.8798828125L12.1201171875,6.2197265625L4.65234375,13.6845703125c-0.1962890625,0.1962890625,-0.4423828125,0.33984375,-0.708984375,0.416015625l-3.046875,0.8701171875c-0.24609375,0.0703125,-0.509765625,0.0029296875,-0.69140625,-0.1787109375s-0.2490234375,-0.4453125,-0.1787109375,-0.69140625l0.8701171875,-3.046875c0.076171875,-0.26953125,0.2197265625,-0.5126953125,0.416015625,-0.708984375zM7.306640625,3.029296875L3.029296875,7.306640625L0.46875,4.7431640625c-0.5478515625,-0.5478515625,-0.5478515625,-1.4384765625,0,-1.9892578125000002L2.7568359375,0.46875c0.5478515625,-0.5478515625,1.4384765625,-0.5478515625,1.9892578125000002,0l0.580078125,0.580078125c-0.0087890625,0.0087890625,-0.0205078125,0.017578125,-0.029296875,0.0263671875l-1.875,1.875c-0.181640625,0.181640625,-0.181640625,0.48046874999999994,0,0.662109375s0.48046874999999994,0.181640625,0.662109375,0l1.875,-1.875c0.0087890625,-0.0087890625,0.017578125,-0.0205078125,0.0263671875,-0.029296875l1.3212890625,1.3212890625zM11.970703125,7.693359375000001l1.3212890625,1.3212890625c-0.0087890625,0.0087890625,-0.0205078125,0.017578125,-0.029296875,0.0263671875l-1.875,1.875c-0.181640625,0.181640625,-0.181640625,0.48046874999999994,0,0.662109375s0.48046874999999994,0.181640625,0.662109375,0l1.875,-1.875c0.0087890625,-0.0087890625,0.017578125,-0.0205078125,0.0263671875,-0.029296875L14.53125,10.2568359375c0.5478515625,0.5478515625,0.5478515625,1.4384765625,0,1.9892578125000002L12.2431640625,14.53125c-0.5478515625,0.5478515625,-1.4384765625,0.5478515625,-1.9892578125000002,0l-2.560546875,-2.560546875L11.970703125,7.693359375000001z" fill="#FFFFFF"/>
    </svg>