<svg version="1.1" xmlns="http://www.w3.org/2000/svg" xlink="http://www.w3.org/1999/xlink" x="0px" y="0px" width="16.875px" height="15px" viewBox="0 0 16.875 15" style="enable-background:new 0 0 15 15;" space="preserve">
    <path d="M16.40625,13.125h-0.46875V2.8125H0.9375v10.3125H0.46933593749999997c-0.258984375,0,-0.46875,0.209765625,-0.46875,0.46875v0.9375c0,0.258984375,0.209765625,0.46875,0.46875,0.46875H5.15625c0.258984375,0,0.46875,-0.209765625,0.46875,-0.46875V9.375c0,-1.5533203125000001,1.2591796874999999,-2.8125,2.8125,-2.8125s2.8125,1.2591796874999999,2.8125,2.8125l0.0005859375,4.6875v0.46875c0,0.258984375,0.209765625,0.46875,0.46875,0.46875H16.40625c0.258984375,0,0.46875,-0.209765625,0.46875,-0.46875v-0.9375c0,-0.258984375,-0.209765625,-0.46875,-0.46875,-0.46875zm0,-13.125H0.46875C0.209765625,0,0,0.209765625,0,0.46875v0.9375c0,0.258984375,0.209765625,0.46875,0.46875,0.46875h15.9375c0.258984375,0,0.46875,-0.209765625,0.46875,-0.46875V0.46875c0,-0.258984375,-0.209765625,-0.46875,-0.46875,-0.46875z" fill="#FFFFFF"/>
    </svg>