<svg version="1.1" xmlns="http://www.w3.org/2000/svg" xlink="http://www.w3.org/1999/xlink" x="0px" y="0px" width="15px" height="13.333333333333332px" viewBox="0 0 15 13.333333333333332" style="enable-background:new 0 0 15 15;" space="preserve">
    <path d="M8.75,11.666666666666666H0.41666666666666663c-0.23020833333333332,0,-0.41666666666666663,0.18645833333333334,-0.41666666666666663,0.41666666666666663v0.8333333333333333c0,0.23020833333333332,0.18645833333333334,0.41666666666666663,0.41666666666666663,0.41666666666666663h8.333333333333332c0.23020833333333332,0,0.41666666666666663,-0.18645833333333334,0.41666666666666663,-0.41666666666666663v-0.8333333333333333c0,-0.23020833333333332,-0.18645833333333334,-0.41666666666666663,-0.41666666666666663,-0.41666666666666663zm5.416666666666666,-8.333333333333332V2.083333333333333c0,-0.23020833333333332,-0.18645833333333334,-0.41666666666666663,-0.41666666666666663,-0.41666666666666663s-0.41666666666666663,0.18645833333333334,-0.41666666666666663,0.41666666666666663v1.25h-0.8333333333333333V2.083333333333333c0,-0.23020833333333332,-0.18645833333333334,-0.41666666666666663,-0.41666666666666663,-0.41666666666666663s-0.41666666666666663,0.18645833333333334,-0.41666666666666663,0.41666666666666663v1.25h-0.41666666666666663c-0.23020833333333332,0,-0.41666666666666663,0.18645833333333334,-0.41666666666666663,0.41666666666666663v0.8333333333333333c0,0.9312499999999999,0.6151041666666667,1.7106770833333331,1.4583333333333333,1.97734375v3.085677083333333c0,0.36328125,-0.24739583333333331,0.7010416666666667,-0.6057291666666667,0.76015625C11.229687499999999,10.481770833333332,10.833333333333332,10.129947916666667,10.833333333333332,9.6875v-0.7291666666666666c0,-1.265625,-1.0260416666666665,-2.2916666666666665,-2.2916666666666665,-2.2916666666666665h-0.20833333333333331V1.6666666666666665c0,-0.9205729166666666,-0.74609375,-1.6666666666666665,-1.6666666666666665,-1.6666666666666665H2.5C1.5794270833333333,0,0.8333333333333333,0.74609375,0.8333333333333333,1.6666666666666665v9.166666666666666h7.5V7.916666666666666h0.20833333333333331c0.5752604166666667,0,1.0416666666666665,0.4664062499999999,1.0416666666666665,1.0416666666666665v0.6408854166666665c0,1.0330729166666668,0.7531249999999999,1.9572916666666664,1.7815104166666664,2.0575520833333334C12.544531249999999,11.772135416666666,13.541666666666666,10.844010416666666,13.541666666666666,9.6875V6.560677083333333c0.8432291666666667,-0.26666666666666666,1.4583333333333333,-1.04609375,1.4583333333333333,-1.97734375v-0.8333333333333333c0,-0.23020833333333332,-0.18645833333333334,-0.41666666666666663,-0.41666666666666663,-0.41666666666666663h-0.41666666666666663zm-7.393489583333334,1.24375l-2.4401041666666665,3.6197916666666665c-0.057291666666666664,0.08671875,-0.16171875,0.13645833333333335,-0.2705729166666667,0.13645833333333335c-0.1997395833333333,0,-0.35078125,-0.16354166666666667,-0.30390625,-0.33645833333333336L4.358072916666666,5.833333333333333H2.8125c-0.18880208333333331,0,-0.33463541666666663,-0.14557291666666664,-0.30963541666666666,-0.30963541666666666l0.41666666666666663,-2.786458333333333C2.9401041666666665,2.6015625,3.072395833333333,2.5,3.2291666666666665,2.5h1.7708333333333333c0.20520833333333333,0,0.35468749999999993,0.17031249999999998,0.3020833333333333,0.34401041666666665L5,4.166666666666666h1.5026041666666665c0.24062499999999998,0,0.39088541666666665,0.2286458333333333,0.2705729166666667,0.41041666666666665z" fill="#FFFFFF"/>
    </svg>