<svg version="1.1" xmlns="http://www.w3.org/2000/svg" xlink="http://www.w3.org/1999/xlink" x="0px" y="0px" width="9.375px" height="15px" viewBox="0 0 9.375 15" style="enable-background:new 0 0 15 15;" space="preserve"><path d="M0.234375,8.433984375c0,1.512890625,0.6486328125,2.16298828125,1.640625,2.478515625V12.1875h5.625v-1.2750000000000001c0.9919921875,-0.31552734374999997,1.640625,-0.966796875,1.640625,-2.478515625c0,-0.89677734375,-0.31435546875000003,-1.9658203124999998,-0.78193359375,-3.0046875L5.419921875,8.36865234375a0.234375,0.234375,0,0,1,-0.33134765625,0l-0.33134765625,-0.33134765625a0.234375,0.234375,0,0,1,0,-0.33134765625L7.9180664062499995,4.5439453125c-0.609375,-1.11064453125,-1.36142578125,-2.1123046875,-2.0762695312500004,-2.7125976562500003C6.251953125,1.73115234375,6.5625,1.37841796875,6.5625,0.9375a0.9375,0.9375,0,0,0,-0.9375,-0.9375h-1.875a0.9375,0.9375,0,0,0,-0.9375,0.9375c0,0.439453125,0.310546875,0.79365234375,0.720703125,0.8938476562500001C1.9866210937500002,3.12890625,0.234375,6.2841796875,0.234375,8.433984375zM8.90625,13.125H0.46875a0.46875,0.46875,0,0,0,-0.46875,0.46875v0.9375a0.46875,0.46875,0,0,0,0.46875,0.46875h8.4375a0.46875,0.46875,0,0,0,0.46875,-0.46875v-0.9375a0.46875,0.46875,0,0,0,-0.46875,-0.46875z" fill="#FFFFFF"/></svg>