<svg version="1.1" xmlns="http://www.w3.org/2000/svg" xlink="http://www.w3.org/1999/xlink" x="0px" y="0px" width="15px" height="12px" viewBox="0 0 15 12" style="enable-background:new 0 0 15 15;" space="preserve"><path d="M12.375,5.25H6.375c-0.20625000000000002,0,-0.375,0.16875,-0.375,0.375v3.375H1.5V3.375c0,-0.20625000000000002,-0.16875,-0.375,-0.375,-0.375H0.375c-0.20625000000000002,0,-0.375,0.16875,-0.375,0.375v8.25c0,0.20625000000000002,0.16875,0.375,0.375,0.375h0.75c0.20625000000000002,0,0.375,-0.16875,0.375,-0.375v-1.125h12v1.125c0,0.20625000000000002,0.16875,0.375,0.375,0.375h0.75c0.20625000000000002,0,0.375,-0.16875,0.375,-0.375V7.875c0,-1.45078125,-1.17421875,-2.625,-2.625,-2.625zM3.1875,2.25h2.9554687499999996l0.6468750000000001,1.2937500000000002c0.13828125000000002,0.27656250000000004,0.53203125,0.27656250000000004,0.6703125000000001,0L8.625,1.2140624999999998L9.142968750000001,2.25H12c0.20625000000000002,0,0.375,-0.16875,0.375,-0.375s-0.16875,-0.375,-0.375,-0.375H9.607031249999999L8.96015625,0.20625000000000002C8.821874999999999,-0.0703125,8.428125000000001,-0.0703125,8.28984375,0.20625000000000002L7.125,2.5359375l-0.46640624999999997,-0.9328124999999999c-0.032812499999999994,-0.06328125000000001,-0.09609374999999999,-0.10312500000000001,-0.16875,-0.10312500000000001H3.1875c-0.10312500000000001,0,-0.1875,0.084375,-0.1875,0.1875v0.375c0,0.10312500000000001,0.084375,0.1875,0.1875,0.1875zm0.5625,6c0.8273437499999999,0,1.5,-0.67265625,1.5,-1.5s-0.67265625,-1.5,-1.5,-1.5s-1.5,0.67265625,-1.5,1.5s0.67265625,1.5,1.5,1.5z" fill="#FFFFFF"/></svg>