<svg version="1.1" xmlns="http://www.w3.org/2000/svg" xlink="http://www.w3.org/1999/xlink" x="0px" y="0px" width="13.125px" height="15px" viewBox="0 0 13.125 15" style="enable-background:new 0 0 15 15;" space="preserve">
    <path d="M12.1875,6.09375H7.96875V1.875c0,-0.51767578125,-0.41982421875,-0.9375,-0.9375,-0.9375h-0.9375c-0.51767578125,0,-0.9375,0.41982421875,-0.9375,0.9375v4.21875H0.9375c-0.51767578125,0,-0.9375,0.41982421875,-0.9375,0.9375v0.9375c0,0.51767578125,0.41982421875,0.9375,0.9375,0.9375h4.21875v4.21875c0,0.51767578125,0.41982421875,0.9375,0.9375,0.9375h0.9375c0.51767578125,0,0.9375,-0.41982421875,0.9375,-0.9375V8.90625h4.21875c0.51767578125,0,0.9375,-0.41982421875,0.9375,-0.9375v-0.9375c0,-0.51767578125,-0.41982421875,-0.9375,-0.9375,-0.9375z" fill="#FFFFFF"/>
    </svg>