<svg version="1.1" xmlns="http://www.w3.org/2000/svg" xlink="http://www.w3.org/1999/xlink" x="0px" y="0px" width="13.125px" height="15px" viewBox="0 0 13.125 15" style="enable-background:new 0 0 15 15;" space="preserve">
    <path d="M11.2470703125,9.0322265625l0.7001953125,-1.833984375c0.1171875,-0.3076171875,-0.1083984375,-0.6357421875,-0.439453125,-0.6357421875h-1.7138671875c0.322265625,-0.5537109375,0.521484375,-1.189453125,0.521484375,-1.875v-0.0087890625c1.1484375,-0.228515625,1.875,-0.5595703125,1.875,-0.9287109375c0,-0.3896484375,-0.7998046875,-0.7353515625,-2.0537109375,-0.966796875c-0.26953125,-0.9609374999999999,-0.791015625,-1.927734375,-1.189453125,-2.42578125c-0.2783203125,-0.3486328125,-0.7587890625,-0.45703125,-1.1572265625,-0.2578125l-0.80859375,0.404296875c-0.263671875,0.1318359375,-0.57421875,0.1318359375,-0.837890625,0L5.3349609375,0.099609375c-0.3984375,-0.19921875,-0.87890625,-0.0908203125,-1.1572265625,0.2578125c-0.3955078125,0.498046875,-0.919921875,1.46484375,-1.189453125,2.42578125c-1.2509765625,0.2314453125,-2.05078125,0.5771484375,-2.05078125,0.966796875c0,0.369140625,0.7265625,0.7001953125,1.875,0.9287109375v0.0087890625c0,0.685546875,0.19921875,1.3212890625,0.521484375,1.875H1.6494140625c-0.3369140625,0,-0.5625,0.3427734375,-0.4306640625,0.6533203125l0.755859375,1.763671875C0.7998046875,9.662109375,0,10.9189453125,0,12.375v1.3125C0,14.4111328125,0.5888671875,15,1.3125,15h10.5c0.7236328125,0,1.3125,-0.5888671875,1.3125,-1.3125v-1.3125c0,-1.41796875,-0.755859375,-2.6484375,-1.8779296874999998,-3.3427734375zM5.15625,14.0625l-1.21875,-5.625l1.453125,0.9375l0.703125,1.171875l-0.9375,3.515625zm2.8125,0l-0.9375,-3.515625l0.703125,-1.171875l1.453125,-0.9375L7.96875,14.0625zm1.2216796875,-8.7451171875c-0.1142578125,0.3486328125,-0.205078125,0.720703125,-0.4833984375,0.978515625c-0.2958984375,0.2724609375,-1.40625,0.65625,-1.875,-0.732421875c-0.08203125,-0.24609375,-0.451171875,-0.24609375,-0.5361328125,0c-0.498046875,1.470703125,-1.640625,0.94921875,-1.875,0.732421875c-0.2783203125,-0.2578125,-0.3720703125,-0.6298828125,-0.4833984375,-0.978515625c-0.0234375,-0.0732421875,-0.1845703125,-0.1669921875,-0.1845703125,-0.169921875v-0.31640625c0.8291015625,0.10546875,1.787109375,0.169921875,2.8125,0.169921875s1.9833984375,-0.0615234375,2.8125,-0.169921875v0.31640625c-0.0029296875,0.0029296875,-0.1640625,0.09375,-0.1875,0.169921875z" fill="#FFFFFF"/>
    </svg>