<svg version="1.1" xmlns="http://www.w3.org/2000/svg" xlink="http://www.w3.org/1999/xlink" x="0px" y="0px" width="15px" height="15px" viewBox="0 0 15 15" style="enable-background:new 0 0 15 15;" space="preserve">
    <path d="M15,5.156279296875C15,8.003994140625,12.69146484375,10.3125,9.84375,10.3125c-0.3287109375,0,-0.65009765625,-0.031113281250000003,-0.961728515625,-0.089912109375l-0.7034765625,0.79142578125A0.7030957031249999,0.7030957031249999,0,0,1,7.6530175781250005,11.25H6.5625v1.171875c0,0.38833007812500003,-0.31479492187499997,0.703125,-0.703125,0.703125h-1.171875v1.171875c0,0.38833007812500003,-0.31479492187499997,0.703125,-0.703125,0.703125H0.703125c-0.38833007812500003,0,-0.703125,-0.31479492187499997,-0.703125,-0.703125v-2.286884765625c0,-0.18647460937500002,0.074091796875,-0.36533203125,0.205927734375,-0.497197265625l4.7402929687499995,-4.7402929687499995C4.7785546875,6.26408203125,4.6875,5.720830078124999,4.6875,5.15625C4.6875,2.30853515625,6.996005859375,0.000029296875,9.843720703125001,0C12.69984375,-0.000029296875,15,2.300126953125,15,5.156279296875zM9.84375,3.75c0,0.7766601562500001,0.6295898437499999,1.40625,1.40625,1.40625s1.40625,-0.6295898437499999,1.40625,-1.40625s-0.6295898437499999,-1.40625,-1.40625,-1.40625s-1.40625,0.6295898437499999,-1.40625,1.40625z" fill="#FFFFFF"/>
    </svg>