<svg version="1.1" xmlns="http://www.w3.org/2000/svg" xlink="http://www.w3.org/1999/xlink" x="0px" y="0px" width="15px" height="15px" viewBox="0 0 15 15" style="enable-background:new 0 0 15 15;" space="preserve"><path d="M14.949609375,13.062304687500001l-2.13955078125,-8.55849609375c-0.111328125,-0.44501953125,-0.48164062500000004,-0.7535156249999999,-0.90439453125,-0.7535156249999999h-1.76513671875c0.10458984375,-0.29443359375,0.172265625,-0.6070312499999999,0.172265625,-0.9375c0,-1.5533203125000001,-1.2591796874999999,-2.8125,-2.8125,-2.8125s-2.8125,1.2591796874999999,-2.8125,2.8125c0,0.33046875,0.0673828125,0.64306640625,0.172265625,0.9375h-1.76513671875c-0.42275390625,0,-0.793359375,0.3087890625,-0.90439453125,0.7535156249999999L0.050390625,13.062304687500001C-0.19365234375,14.03818359375,0.4798828125,15,1.40712890625,15h12.18603515625c0.926953125,0,1.60048828125,-0.96181640625,1.3564453125,-1.9376953125zM7.5,3.75c-0.516796875,0,-0.9375,-0.42070312499999996,-0.9375,-0.9375s0.42070312499999996,-0.9375,0.9375,-0.9375s0.9375,0.42070312499999996,0.9375,0.9375s-0.42070312499999996,0.9375,-0.9375,0.9375z" fill="#FFFFFF"/></svg>