<svg version="1.1" xmlns="http://www.w3.org/2000/svg" xlink="http://www.w3.org/1999/xlink" x="0px" y="0px" width="15px" height="15px" viewBox="0 0 15 15" style="enable-background:new 0 0 15 15;" space="preserve"><path d="M3.75,14.0625h7.5V2.34375c0,-0.7763671875,-0.6298828125,-1.40625,-1.40625,-1.40625H5.15625c-0.7763671875,0,-1.40625,0.6298828125,-1.40625,1.40625v11.71875zm1.875,-11.25h3.75v0.9375H5.625V2.8125zm9.375,2.34375v7.5c0,0.7763671875,-0.6298828125,1.40625,-1.40625,1.40625h-1.40625V3.75h1.40625c0.7763671875,0,1.40625,0.6298828125,1.40625,1.40625zM2.8125,14.0625H1.40625c-0.7763671875,0,-1.40625,-0.6298828125,-1.40625,-1.40625V5.15625c0,-0.7763671875,0.6298828125,-1.40625,1.40625,-1.40625h1.40625v10.3125z" fill="#FFFFFF"/></svg>