<svg version="1.1" xmlns="http://www.w3.org/2000/svg" xlink="http://www.w3.org/1999/xlink" x="0px" y="0px" width="15px" height="15px" viewBox="0 0 15 15" style="enable-background:new 0 0 15 15;" space="preserve">
    <path d="M8.4375,3.8244140625V3.28125h0.46875c0.258984375,0,0.46875,-0.209765625,0.46875,-0.46875V2.34375c0,-0.258984375,-0.209765625,-0.46875,-0.46875,-0.46875h-2.8125c-0.258984375,0,-0.46875,0.209765625,-0.46875,0.46875v0.46875c0,0.258984375,0.209765625,0.46875,0.46875,0.46875h0.46875v0.5431640624999999C3.38349609375,4.28056640625,0.9375,7.0072265625000005,0.9375,10.3125h13.125c0,-3.3052734375,-2.44599609375,-6.03193359375,-5.625,-6.4880859375zM14.53125,11.25H0.46875c-0.258984375,0,-0.46875,0.209765625,-0.46875,0.46875v0.9375c0,0.258984375,0.209765625,0.46875,0.46875,0.46875h14.0625c0.258984375,0,0.46875,-0.209765625,0.46875,-0.46875v-0.9375c0,-0.258984375,-0.209765625,-0.46875,-0.46875,-0.46875z" fill="#FFFFFF"/>
    </svg>