<svg version="1.1" xmlns="http://www.w3.org/2000/svg" xlink="http://www.w3.org/1999/xlink" x="0px" y="0px" width="11.25px" height="15px" viewBox="0 0 11.25 15" style="enable-background:new 0 0 15 15;" space="preserve"><path d="M3.515625,2.109375c0,-1.164990234375,0.944384765625,-2.109375,2.109375,-2.109375s2.109375,0.944384765625,2.109375,2.109375c0,1.1649609375,-0.944384765625,2.109375,-2.109375,2.109375s-2.109375,-0.9444140624999999,-2.109375,-2.109375zm7.459775390625,0.040224609375c-0.36609375,-0.36612304687499997,-0.9597070312500001,-0.36612304687499997,-1.32580078125,0L7.111669921875,4.6875H4.13830078125L1.6004003906250002,2.149599609375c-0.36609375,-0.36612304687499997,-0.9597070312500001,-0.36612304687499997,-1.32580078125,0c-0.36612304687499997,0.36612304687499997,-0.36612304687499997,0.9597070312500001,0,1.325830078125L3.046875,6.24767578125V14.0625c0,0.5177636718749999,0.419736328125,0.9375,0.9375,0.9375h0.46875c0.5177636718749999,0,0.9375,-0.419736328125,0.9375,-0.9375V10.78125h0.46875v3.28125c0,0.5177636718749999,0.419736328125,0.9375,0.9375,0.9375h0.46875c0.5177636718749999,0,0.9375,-0.419736328125,0.9375,-0.9375V6.24767578125l2.772275390625,-2.772275390625c0.36612304687499997,-0.36612304687499997,0.36612304687499997,-0.9596777343749999,0,-1.32580078125z" fill="#FFFFFF"/></svg>