<svg version="1.1" xmlns="http://www.w3.org/2000/svg" xlink="http://www.w3.org/1999/xlink" x="0px" y="0px" width="15px" height="13.333333333333332px" viewBox="0 0 15 13.333333333333332" style="enable-background:new 0 0 15 15;" space="preserve">
    <path d="M10.833333333333332,5c0,-2.302083333333333,-2.4244791666666665,-4.166666666666666,-5.416666666666666,-4.166666666666666S0,2.6979166666666665,0,5c0,0.8932291666666666,0.3671875,1.7161458333333335,0.9895833333333333,2.395833333333333c-0.3489583333333333,0.7864583333333333,-0.9244791666666666,1.4114583333333333,-0.9322916666666666,1.4192708333333333c-0.057291666666666664,0.05989583333333333,-0.07291666666666666,0.1484375,-0.0390625,0.2265625S0.125,9.166666666666666,0.20833333333333331,9.166666666666666c0.953125,0,1.7421875,-0.3203125,2.309895833333333,-0.6510416666666666c0.8385416666666667,0.40885416666666663,1.8307291666666665,0.6510416666666666,2.8984375,0.6510416666666666c2.9921875,0,5.416666666666666,-1.8645833333333333,5.416666666666666,-4.166666666666666zm3.177083333333333,5.729166666666666c0.6223958333333333,-0.6770833333333333,0.9895833333333333,-1.5026041666666665,0.9895833333333333,-2.395833333333333c0,-1.7421875,-1.3932291666666665,-3.234375,-3.3671875,-3.856770833333333c0.0234375,0.171875,0.033854166666666664,0.34635416666666663,0.033854166666666664,0.5234375c0,2.7578125,-2.8046875,5,-6.25,5c-0.28125,0,-0.5546875,-0.020833333333333332,-0.8255208333333333,-0.049479166666666664C5.411458333333333,11.447916666666666,7.338541666666666,12.5,9.583333333333332,12.5c1.0677083333333333,0,2.059895833333333,-0.23958333333333331,2.8984375,-0.6510416666666666c0.5677083333333333,0.33072916666666663,1.3567708333333333,0.6510416666666666,2.309895833333333,0.6510416666666666c0.08333333333333333,0,0.15885416666666666,-0.049479166666666664,0.19010416666666666,-0.125c0.033854166666666664,-0.07552083333333333,0.018229166666666664,-0.1640625,-0.0390625,-0.2265625c-0.0078125,-0.0078125,-0.5833333333333333,-0.6302083333333333,-0.9322916666666666,-1.4192708333333333z" fill="#FFFFFF"/>
    </svg>