<svg version="1.1" xmlns="http://www.w3.org/2000/svg" xlink="http://www.w3.org/1999/xlink" x="0px" y="0px" width="15px" height="13.333333333333332px" viewBox="0 0 15 13.333333333333332" style="enable-background:new 0 0 15 15;" space="preserve">
    <path d="M14.166666666666668,2.5H10.833333333333334V0.8333333333333334c0,-0.4609375,-0.37239583333333337,-0.8333333333333334,-0.8333333333333334,-0.8333333333333334H5c-0.4609375,0,-0.8333333333333334,0.37239583333333337,-0.8333333333333334,0.8333333333333334v1.6666666666666667H0.8333333333333334c-0.4609375,0,-0.8333333333333334,0.37239583333333337,-0.8333333333333334,0.8333333333333334v9.583333333333334c0,0.22916666666666669,0.1875,0.4166666666666667,0.4166666666666667,0.4166666666666667h14.166666666666668c0.22916666666666669,0,0.4166666666666667,-0.1875,0.4166666666666667,-0.4166666666666667V3.3333333333333335c0,-0.4609375,-0.37239583333333337,-0.8333333333333334,-0.8333333333333334,-0.8333333333333334zM4.166666666666667,11.354166666666668c0,0.171875,-0.14062500000000003,0.3125,-0.3125,0.3125h-1.0416666666666667c-0.171875,0,-0.3125,-0.14062500000000003,-0.3125,-0.3125v-1.0416666666666667c0,-0.171875,0.14062500000000003,-0.3125,0.3125,-0.3125h1.0416666666666667c0.171875,0,0.3125,0.14062500000000003,0.3125,0.3125v1.0416666666666667zm0,-3.3333333333333335c0,0.171875,-0.14062500000000003,0.3125,-0.3125,0.3125h-1.0416666666666667c-0.171875,0,-0.3125,-0.14062500000000003,-0.3125,-0.3125v-1.0416666666666667c0,-0.171875,0.14062500000000003,-0.3125,0.3125,-0.3125h1.0416666666666667c0.171875,0,0.3125,0.14062500000000003,0.3125,0.3125v1.0416666666666667zm4.166666666666667,3.3333333333333335c0,0.171875,-0.14062500000000003,0.3125,-0.3125,0.3125h-1.0416666666666667c-0.171875,0,-0.3125,-0.14062500000000003,-0.3125,-0.3125v-1.0416666666666667c0,-0.171875,0.14062500000000003,-0.3125,0.3125,-0.3125h1.0416666666666667c0.171875,0,0.3125,0.14062500000000003,0.3125,0.3125v1.0416666666666667zm0,-3.3333333333333335c0,0.171875,-0.14062500000000003,0.3125,-0.3125,0.3125h-1.0416666666666667c-0.171875,0,-0.3125,-0.14062500000000003,-0.3125,-0.3125v-1.0416666666666667c0,-0.171875,0.14062500000000003,-0.3125,0.3125,-0.3125h1.0416666666666667c0.171875,0,0.3125,0.14062500000000003,0.3125,0.3125v1.0416666666666667zm0.4166666666666667,-4.427083333333334c0,0.0859375,-0.07031250000000001,0.15625,-0.15625,0.15625h-0.6770833333333334v0.6770833333333334c0,0.0859375,-0.07031250000000001,0.15625,-0.15625,0.15625h-0.5208333333333334c-0.0859375,0,-0.15625,-0.07031250000000001,-0.15625,-0.15625v-0.6770833333333334h-0.6770833333333334c-0.0859375,0,-0.15625,-0.07031250000000001,-0.15625,-0.15625v-0.5208333333333334c0,-0.0859375,0.07031250000000001,-0.15625,0.15625,-0.15625h0.6770833333333334V2.2395833333333335c0,-0.0859375,0.07031250000000001,-0.15625,0.15625,-0.15625h0.5208333333333334c0.0859375,0,0.15625,0.07031250000000001,0.15625,0.15625v0.6770833333333334h0.6770833333333334c0.0859375,0,0.15625,0.07031250000000001,0.15625,0.15625v0.5208333333333334zm3.75,7.760416666666667c0,0.171875,-0.14062500000000003,0.3125,-0.3125,0.3125h-1.0416666666666667c-0.171875,0,-0.3125,-0.14062500000000003,-0.3125,-0.3125v-1.0416666666666667c0,-0.171875,0.14062500000000003,-0.3125,0.3125,-0.3125h1.0416666666666667c0.171875,0,0.3125,0.14062500000000003,0.3125,0.3125v1.0416666666666667zm0,-3.3333333333333335c0,0.171875,-0.14062500000000003,0.3125,-0.3125,0.3125h-1.0416666666666667c-0.171875,0,-0.3125,-0.14062500000000003,-0.3125,-0.3125v-1.0416666666666667c0,-0.171875,0.14062500000000003,-0.3125,0.3125,-0.3125h1.0416666666666667c0.171875,0,0.3125,0.14062500000000003,0.3125,0.3125v1.0416666666666667z" fill="#FFFFFF"/>
    </svg>