<svg version="1.1" xmlns="http://www.w3.org/2000/svg" xlink="http://www.w3.org/1999/xlink" x="0px" y="0px" width="15px" height="12px" viewBox="0 0 15 12" style="enable-background:new 0 0 15 15;" space="preserve">
    <path d="M2.4375,2.25H1.3125c-0.31171875000000004,0,-0.5625,0.25078125,-0.5625,0.5625v2.4375H0.1875c-0.10312500000000001,0,-0.1875,0.084375,-0.1875,0.1875v1.125c0,0.10312500000000001,0.084375,0.1875,0.1875,0.1875h0.5625v2.4375c0,0.31171875000000004,0.25078125,0.5625,0.5625,0.5625h1.125c0.31171875000000004,0,0.5625,-0.25078125,0.5625,-0.5625V2.8125c0,-0.31171875000000004,-0.25078125,-0.5625,-0.5625,-0.5625zm12.375,3h-0.5625V2.8125c0,-0.31171875000000004,-0.25078125,-0.5625,-0.5625,-0.5625h-1.125c-0.31171875000000004,0,-0.5625,0.25078125,-0.5625,0.5625v6.375c0,0.31171875000000004,0.25078125,0.5625,0.5625,0.5625h1.125c0.31171875000000004,0,0.5625,-0.25078125,0.5625,-0.5625V6.75h0.5625c0.10312500000000001,0,0.1875,-0.084375,0.1875,-0.1875v-1.125c0,-0.10312500000000001,-0.084375,-0.1875,-0.1875,-0.1875zM10.6875,0.75h-1.125c-0.31171875000000004,0,-0.5625,0.25078125,-0.5625,0.5625v3.9375H6V1.3125c0,-0.31171875000000004,-0.25078125,-0.5625,-0.5625,-0.5625h-1.125c-0.31171875000000004,0,-0.5625,0.25078125,-0.5625,0.5625v9.375c0,0.31171875000000004,0.25078125,0.5625,0.5625,0.5625h1.125c0.31171875000000004,0,0.5625,-0.25078125,0.5625,-0.5625V6.75h3v3.9375c0,0.31171875000000004,0.25078125,0.5625,0.5625,0.5625h1.125c0.31171875000000004,0,0.5625,-0.25078125,0.5625,-0.5625V1.3125c0,-0.31171875000000004,-0.25078125,-0.5625,-0.5625,-0.5625z" fill="#FFFFFF"/>
    </svg>