<svg version="1.1" xmlns="http://www.w3.org/2000/svg" xlink="http://www.w3.org/1999/xlink" x="0px" y="0px" width="15px" height="17.142857142857142px" viewBox="0 0 15 17.142857142857142" style="enable-background:new 0 0 15 15;" space="preserve">
    <path d="M13.392857142857142,0c-0.8872767857142857,0,-1.6071428571428572,0.7198660714285714,-1.6071428571428572,1.6071428571428572s0.7198660714285714,1.6071428571428572,1.6071428571428572,1.6071428571428572s1.6071428571428572,-0.7198660714285714,1.6071428571428572,-1.6071428571428572s-0.7198660714285714,-1.6071428571428572,-1.6071428571428572,-1.6071428571428572zm0,15c-0.29464285714285715,0,-0.5357142857142857,0.24107142857142858,-0.5357142857142857,0.5357142857142857s-0.24107142857142858,0.5357142857142857,-0.5357142857142857,0.5357142857142857h-3.2142857142857144c-0.29464285714285715,0,-0.5357142857142857,0.24107142857142858,-0.5357142857142857,0.5357142857142857s0.24107142857142858,0.5357142857142857,0.5357142857142857,0.5357142857142857h3.2142857142857144c0.8872767857142857,0,1.6071428571428572,-0.7198660714285714,1.6071428571428572,-1.6071428571428572c0,-0.29464285714285715,-0.24107142857142858,-0.5357142857142857,-0.5357142857142857,-0.5357142857142857zm-9.448660714285714,0.28794642857142855c-0.20758928571428573,0.20758928571428573,-0.5491071428571428,0.2109375,-0.7566964285714286,0l-2.2734375,-2.2734375c-0.20758928571428573,-0.20758928571428573,-0.5491071428571428,-0.20758928571428573,-0.7566964285714286,0s-0.20758928571428573,0.5491071428571428,0,0.7566964285714286l2.2734375,2.2734375c0.31473214285714285,0.31473214285714285,0.7265625,0.46875,1.1383928571428572,0.46875s0.8236607142857143,-0.15736607142857142,1.1350446428571428,-0.46875c0.20758928571428573,-0.20758928571428573,0.20758928571428573,-0.5491071428571428,0,-0.7566964285714286s-0.5491071428571428,-0.2109375,-0.7600446428571428,0zm1.8783482142857142,-6.020089285714286l-3.1372767857142856,3.1372767857142856c-0.4185267857142857,0.4185267857142857,-0.4185267857142857,1.0982142857142856,0,1.5133928571428572c0.20758928571428573,0.20758928571428573,0.48214285714285715,0.31473214285714285,0.7566964285714286,0.31473214285714285s0.5491071428571428,-0.10379464285714286,0.7566964285714286,-0.31473214285714285l3.077008928571429,-3.077008928571429l-1.0111607142857142,-1.0111607142857142c-0.16741071428571427,-0.16741071428571427,-0.31473214285714285,-0.35825892857142855,-0.4419642857142857,-0.5625zM4.285714285714286,5.357142857142857h3.532366071428571l-0.6729910714285715,0.5758928571428571c-0.45200892857142855,0.38504464285714285,-0.7232142857142857,0.9508928571428571,-0.7466517857142857,1.5435267857142858c-0.023437499999999997,0.5959821428571429,0.2042410714285714,1.1785714285714286,0.6261160714285714,1.5970982142857144l2.6183035714285716,2.6183035714285716V14.464285714285714c0,0.5926339285714285,0.47879464285714285,1.0714285714285714,1.0714285714285714,1.0714285714285714s1.0714285714285714,-0.47879464285714285,1.0714285714285714,-1.0714285714285714v-2.9933035714285716c0,-0.421875,-0.17075892857142855,-0.8370535714285714,-0.47209821428571425,-1.1350446428571428l-2.0424107142857144,-2.0424107142857144c0.016741071428571428,-0.013392857142857144,0.040178571428571425,-0.020089285714285712,0.056919642857142856,-0.036830357142857144l2.7555803571428568,-2.7555803571428568c0.38504464285714285,-0.38504464285714285,0.49888392857142855,-0.9575892857142857,0.29129464285714285,-1.4598214285714286c-0.20758928571428573,-0.5022321428571428,-0.6930803571428571,-0.8270089285714285,-1.2388392857142856,-0.8270089285714285H4.285714285714286c-0.5926339285714285,0,-1.0714285714285714,0.47879464285714285,-1.0714285714285714,1.0714285714285714s0.47879464285714285,1.0714285714285714,1.0714285714285714,1.0714285714285714z" fill="#FFFFFF"/>
    </svg>