<svg version="1.1" xmlns="http://www.w3.org/2000/svg" xlink="http://www.w3.org/1999/xlink" x="0px" y="0px" width="15px" height="30px" viewBox="0 0 15 30" style="enable-background:new 0 0 15 15;" space="preserve">
    <path d="M11.25,22.5c0,2.0710546874999998,-1.6789453125,3.75,-3.75,3.75c-2.0710546874999998,0,-3.75,-1.6789453125,-3.75,-3.75c0,-1.38779296875,0.754453125,-2.5985742187499996,1.875,-3.24708984375V9.375c0,-1.0355273437499999,0.83947265625,-1.875,1.875,-1.875s1.875,0.83947265625,1.875,1.875v9.87791015625c1.1205468749999998,0.6485156249999999,1.875,1.859296875,1.875,3.24708984375zm1.875,-4.96013671875c1.16671875,1.32205078125,1.875,3.0582421875000003,1.875,4.96013671875c0,4.14234375,-3.35759765625,7.5,-7.5,7.5c-0.017519531249999998,0,-0.03568359375,-0.00005859375,-0.05326171875,-0.00017578125C3.32748046875,29.97123046875,-0.020917968749999998,26.580234375,0.0001171875,22.460917968750003C0.0097265625,20.57431640625,0.71630859375,18.85283203125,1.875,17.53986328125V5.625c0,-3.10658203125,2.51841796875,-5.625,5.625,-5.625s5.625,2.51841796875,5.625,5.625v11.91486328125zM12.1875,22.5c0,-2.01205078125,-1.1349609375,-3.0580078124999996,-1.875,-3.8966015625V5.625c0,-1.55080078125,-1.26169921875,-2.8125,-2.8125,-2.8125S4.6875,4.0741992187500005,4.6875,5.625v12.9783984375c-0.746015625,0.8453906250000001,-1.86474609375,1.880859375,-1.8749414062499998,3.8718749999999997c-0.013125,2.570859375,2.08376953125,4.694296875,4.65369140625,4.712109375L7.5,27.1875c2.5846875000000002,0,4.6875,-2.1028124999999998,4.6875,-4.6875z" fill="#FFFFFF"/>
    </svg>