<svg version="1.1" xmlns="http://www.w3.org/2000/svg" xlink="http://www.w3.org/1999/xlink" x="0px" y="0px" width="15px" height="12px" viewBox="0 0 15 12" style="enable-background:new 0 0 15 15;" space="preserve">
    <path d="M0,5.25v6.375c0,0.2071875,0.1678125,0.375,0.375,0.375h1.875V4.5H0.75c-0.41414062500000004,0,-0.75,0.335859375,-0.75,0.75zm8.4375,-1.125h-0.5625v-0.9375c0,-0.10359375,-0.08390625,-0.1875,-0.1875,-0.1875h-0.375c-0.10359375,0,-0.1875,0.08390625,-0.1875,0.1875v1.5c0,0.10359375,0.08390625,0.1875,0.1875,0.1875h1.125c0.10359375,0,0.1875,-0.08390625,0.1875,-0.1875v-0.375c0,-0.10359375,-0.08390625,-0.1875,-0.1875,-0.1875zm3.228515625,-1.4990625l-3.75,-2.500078125a0.75046875,0.75046875,0,0,0,-0.83203125,0l-3.75,2.500078125A0.750046875,0.750046875,0,0,0,3,3.24984375V12h3V8.625c0,-0.2071875,0.1678125,-0.375,0.375,-0.375h2.25c0.2071875,0,0.375,0.1678125,0.375,0.375v3.375h3V3.250078125c0,-0.25078124999999996,-0.12539062499999998,-0.48515624999999996,-0.333984375,-0.624140625zM7.5,6c-1.03546875,0,-1.875,-0.8395312500000001,-1.875,-1.875s0.8395312500000001,-1.875,1.875,-1.875s1.875,0.8395312500000001,1.875,1.875s-0.8395312500000001,1.875,-1.875,1.875zm6.75,-1.5h-1.5v7.5h1.875c0.2071875,0,0.375,-0.1678125,0.375,-0.375V5.25c0,-0.41414062500000004,-0.335859375,-0.75,-0.75,-0.75z" fill="#FFFFFF"/>
    </svg>