<svg version="1.1" xmlns="http://www.w3.org/2000/svg" xlink="http://www.w3.org/1999/xlink" x="0px" y="0px" width="15px" height="12px" viewBox="0 0 15 12" style="enable-background:new 0 0 15 15;" space="preserve">
    <path d="M14.625,10.5H12V1.1906249999999998C12,0.53390625,11.495390625,0,10.875,0H4.124765625c-0.620390625,0,-1.125,0.53390625,-1.125,1.1906249999999998V10.5H0.375c-0.2071875,0,-0.375,0.1678125,-0.375,0.375v0.75c0,0.2071875,0.1678125,0.375,0.375,0.375h14.25c0.2071875,0,0.375,-0.1678125,0.375,-0.375v-0.75c0,-0.2071875,-0.1678125,-0.375,-0.375,-0.375zM9.749765625,6.75c-0.41414062500000004,0,-0.75,-0.335859375,-0.75,-0.75s0.335859375,-0.75,0.75,-0.75s0.75,0.335859375,0.75,0.75c0.000234375,0.41414062500000004,-0.335625,0.75,-0.75,0.75z" fill="#FFFFFF"/>
    </svg>