<svg version="1.1" xmlns="http://www.w3.org/2000/svg" xlink="http://www.w3.org/1999/xlink" x="0px" y="0px" width="15px" height="15px" viewBox="0 0 15 15" style="enable-background:new 0 0 15 15;" space="preserve"><path d="M14.724902343750001,6.8355468749999995L8.164453125,0.27509765625000004c-0.36679687499999997,-0.36679687499999997,-0.96181640625,-0.36679687499999997,-1.32890625,0L0.27509765625000004,6.8355468749999995c-0.36679687499999997,0.36708984375,-0.36679687499999997,0.96181640625,0,1.32890625l6.5604492187500005,6.5604492187500005c0.36679687499999997,0.36708984375,0.96181640625,0.36708984375,1.32890625,0l6.5604492187500005,-6.5604492187500005c0.36679687499999997,-0.36708984375,0.36679687499999997,-0.96181640625,0,-1.32890625zm-2.9583984375,0.36796875l-2.4670898437499997,2.27724609375c-0.15,0.13857421875,-0.39345703125,0.0322265625,-0.39345703125,-0.172265625V7.734375h-2.8125v1.875c0,0.1294921875,-0.1048828125,0.234375,-0.234375,0.234375h-0.9375c-0.1294921875,0,-0.234375,-0.1048828125,-0.234375,-0.234375v-2.34375c0,-0.51767578125,0.41982421875,-0.9375,0.9375,-0.9375h3.28125v-1.5741210937499999c0,-0.20419921875,0.24316406250000003,-0.31083984374999996,0.39345703125,-0.172265625l2.4670898437499997,2.27724609375c0.10048828125,0.09287109375,0.10048828125,0.25166015625,0,0.34453125z" fill="#FFFFFF"/></svg>