<svg version="1.1" xmlns="http://www.w3.org/2000/svg" xlink="http://www.w3.org/1999/xlink" x="0px" y="0px" width="11.25px" height="15px" viewBox="0 0 11.25 15" style="enable-background:new 0 0 15 15;" space="preserve">
    <path d="M10.78125,1.40625c0.2578125,0,0.46875,-0.2109375,0.46875,-0.46875V0.46875c0,-0.2578125,-0.2109375,-0.46875,-0.46875,-0.46875H0.46875C0.2109375,0,0,0.2109375,0,0.46875v0.46875c0,0.2578125,0.2109375,0.46875,0.46875,0.46875h0.46875v4.5908203125C0.345703125,6.29296875,0,6.6474609375,0,7.03125c0,1.96875,1.013671875,3.697265625,2.54296875,4.7021484375l-0.626953125,2.056640625C1.7314453125,14.390625,2.1826171875,15,2.8125,15h5.625c0.6298828125,0,1.0810546875,-0.609375,0.896484375,-1.2099609375l-0.626953125,-2.056640625C10.236328125,10.728515625,11.25,9,11.25,7.03125c0,-0.3837890625,-0.345703125,-0.73828125,-0.9375,-1.0341796875V1.40625h0.46875zM2.34375,2.109375c0,-0.12890625,0.10546875,-0.234375,0.234375,-0.234375h1.40625c0.12890625,0,0.234375,0.10546875,0.234375,0.234375v0.46875c0,0.12890625,-0.10546875,0.234375,-0.234375,0.234375H2.578125c-0.12890625,0,-0.234375,-0.10546875,-0.234375,-0.234375V2.109375zm3.28125,5.859375c-2.2587890625,0,-4.08984375,-0.4189453125,-4.08984375,-0.9375s1.8310546875,-0.9375,4.08984375,-0.9375s4.08984375,0.4189453125,4.08984375,0.9375s-1.8310546875,0.9375,-4.08984375,0.9375z" fill="#FFFFFF"/>
    </svg>