<svg version="1.1" xmlns="http://www.w3.org/2000/svg" xlink="http://www.w3.org/1999/xlink" x="0px" y="0px" width="15px" height="12px" viewBox="0 0 15 12" style="enable-background:new 0 0 15 15;" space="preserve">
    <path d="M3,2.25c0.62109375,0,1.125,-0.50390625,1.125,-1.125S3.62109375,0,3,0S1.875,0.50390625,1.875,1.125s0.50390625,1.125,1.125,1.125zm9,0c0.62109375,0,1.125,-0.50390625,1.125,-1.125S12.62109375,0,12,0s-1.125,0.50390625,-1.125,1.125s0.50390625,1.125,1.125,1.125zm2.94609375,8.721093750000001l-1.03125,-2.578125l-0.9632812500000001,1.0875l-0.046875,0.42656249999999996l0.64921875,1.6218750000000002c0.1171875,0.29296875,0.3984375,0.47109375000000003,0.69609375,0.47109375000000003c0.09375,0,0.1875,-0.016406249999999997,0.27890625,-0.053906249999999996c0.38437499999999997,-0.15468749999999998,0.5718749999999999,-0.590625,0.41718750000000004,-0.9750000000000001zm-0.8015625000000001,-4.917187500000001L13.7109375,4.17421875c-0.10781249999999999,-0.46875,-0.43593750000000003,-0.8624999999999999,-0.87890625,-1.05234375c-0.43359375,-0.1875,-0.9140625,-0.15703125,-1.31484375,0.07734374999999999c-0.53203125,0.3140625,-0.9304687500000001,0.80859375,-1.12734375,1.3921875L10.125,5.385937500000001L9.75,5.625v-2.25c0,-0.20625000000000002,-0.16875,-0.375,-0.375,-0.375H5.625c-0.20625000000000002,0,-0.375,0.16875,-0.375,0.375v2.25l-0.37734375000000003,-0.23906249999999998l-0.26484375000000004,-0.7945312499999999c-0.19453125000000002,-0.5859375,-0.5953124999999999,-1.078125,-1.12734375,-1.3921875c-0.40312499999999996,-0.234375,-0.8812500000000001,-0.26484375000000004,-1.31484375,-0.07734374999999999c-0.44296874999999997,0.18984374999999998,-0.7710937499999999,0.5835937499999999,-0.87890625,1.05234375l-0.43124999999999997,1.8796875000000002c-0.10781249999999999,0.46875,0.016406249999999997,0.9656250000000001,0.3375,1.3289062500000002l1.5750000000000002,1.7789062500000001l0.23671874999999998,2.1703124999999996C3.046875,11.7140625,3.3703125000000003,12,3.75,12c0.028124999999999997,0,0.053906249999999996,-0.0023437500000000003,0.08203125,-0.004687500000000001c0.41250000000000003,-0.044531249999999994,0.7078125,-0.41484374999999996,0.66328125,-0.8273437499999999l-0.23671874999999998,-2.175c-0.03515625,-0.3046875,-0.16171875000000002,-0.5882812500000001,-0.365625,-0.8203125l-1.0148437499999998,-1.1484375l0.41250000000000003,-1.6476562499999998l0.159375,0.47812499999999997c0.09609374999999999,0.29296875,0.27890625,0.5484374999999999,0.57421875,0.7640625000000001l1.19765625,0.76171875c0.10781249999999999,0.06796875,0.28359375,0.10781249999999999,0.40312499999999996,0.1171875h3.75c0.11953124999999999,-0.009375000000000001,0.2953125,-0.049218750000000006,0.40312499999999996,-0.1171875l1.19765625,-0.76171875c0.2953125,-0.21562499999999998,0.47812499999999997,-0.46875,0.57421875,-0.7640625000000001l0.159375,-0.47812499999999997l0.41250000000000003,1.6476562499999998l-1.0148437499999998,1.1484375c-0.20390624999999998,0.23203125000000002,-0.33046875,0.515625,-0.365625,0.8203125l-0.23671874999999998,2.175c-0.044531249999999994,0.41250000000000003,0.25312500000000004,0.7828124999999999,0.66328125,0.8273437499999999c0.028124999999999997,0.0023437500000000003,0.053906249999999996,0.004687500000000001,0.08203125,0.004687500000000001c0.37734375000000003,0,0.703125,-0.28359375,0.7453125,-0.66796875l0.23671874999999998,-2.1703124999999996l1.5750000000000002,-1.7789062500000001c0.31875,-0.36328125,0.4453125,-0.8601562500000001,0.3375,-1.3289062500000002zM1.0851562499999998,8.392968750000001l-1.03125,2.578125c-0.15468749999999998,0.38437499999999997,0.032812499999999994,0.8203125,0.41718750000000004,0.9750000000000001c0.39375000000000004,0.15468749999999998,0.8226562500000001,-0.03984375,0.9750000000000001,-0.41718750000000004l0.64921875,-1.6218750000000002l-0.046875,-0.42656249999999996l-0.9632812500000001,-1.0875z" fill="#FFFFFF"/>
    </svg>