<svg version="1.1" xmlns="http://www.w3.org/2000/svg" xlink="http://www.w3.org/1999/xlink" x="0px" y="0px" width="15px" height="15px" viewBox="0 0 15 15" style="enable-background:new 0 0 15 15;" space="preserve">
    <path d="M14.86259765625,5.44072265625l-5.302734375,-5.302734375a0.46875,0.46875,0,0,0,-0.6626953125,0L8.232421875,0.80009765625a0.46875,0.46875,0,0,0,0,0.66298828125l5.302734375,5.302734375a0.46875,0.46875,0,0,0,0.66298828125,0l0.6626953125,-0.66298828125a0.46875,0.46875,0,0,0,0.0017578124999999998,-0.662109375zm-5.2599609375,1.94560546875l-1.98896484375,-1.98896484375l1.6142578125,-1.6142578125l-1.32568359375,-1.32568359375l-3.21298828125,3.21298828125a2.81484375,2.81484375,0,0,0,-0.75205078125,1.35615234375L3.12451171875,10.5498046875l-2.98828125,2.98828125a0.46875,0.46875,0,0,0,0,0.66298828125l0.6626953125,0.6626953125a0.46875,0.46875,0,0,0,0.66298828125,0l2.98828125,-2.98828125l3.52294921875,-0.81298828125a2.8089843749999996,2.8089843749999996,0,0,0,1.35615234375,-0.75146484375l3.21328125,-3.21328125L11.21689453125,5.771484375zm-1.59873046875,1.59873046875a0.9375,0.9375,0,0,1,-0.45263671875,0.2501953125l-2.3232421875,0.53671875l0.5361328125,-2.3232421875a0.9439453124999999,0.9439453124999999,0,0,1,0.25078125,-0.45263671875l0.27275390625,-0.27275390625l1.98896484375,1.98896484375z" fill="#FFFFFF"/>
    </svg>