<svg version="1.1" xmlns="http://www.w3.org/2000/svg" xlink="http://www.w3.org/1999/xlink" x="0px" y="0px" width="15px" height="12px" viewBox="0 0 15 12" style="enable-background:new 0 0 15 15;" space="preserve">
    <path d="M6,7.875h-0.00046875c0,-0.37921875,0.031406250000000004,-0.20460937500000004,-1.993359375,-4.254140625c-0.413671875,-0.827109375,-1.598203125,-0.82875,-2.0125781250000006,0C-0.048281250000000005,7.705078125,0.00046875,7.507734375,0.00046875,7.875H0c0,1.0354687500000002,1.3432031250000003,1.875,3,1.875s3,-0.83953125,3,-1.875zM3,4.125l1.6875,3.375H1.3125l1.6875,-3.375zm11.999531250000002,3.75c0,-0.37921875,0.031406250000000004,-0.20460937500000004,-1.993359375,-4.254140625c-0.413671875,-0.827109375,-1.598203125,-0.82875,-2.0125781250000006,0c-2.0418750000000006,4.08421875,-1.9931250000000003,3.886875,-1.9931250000000003,4.254140625H9c0,1.0354687500000002,1.3432031250000003,1.875,3,1.875s3,-0.83953125,3,-1.875h-0.00046875zM10.3125,7.5l1.6875,-3.375l1.6875,3.375H10.3125zm2.0625,3H8.25V3.591796875c0.5510156250000001,-0.241171875,0.9646875,-0.7378125,1.0872656250000001,-1.341796875H12.375c0.2071875,0,0.375,-0.16781250000000003,0.375,-0.375V1.125c0,-0.2071875,-0.16781250000000003,-0.375,-0.375,-0.375H8.991562499999999C8.649375000000001,0.2971875,8.111484375,0,7.5,0s-1.149375,0.2971875,-1.4915625000000001,0.75H2.625c-0.2071875,0,-0.375,0.16781250000000003,-0.375,0.375v0.75c0,0.2071875,0.16781250000000003,0.375,0.375,0.375h3.0377343750000003c0.12257812500000001,0.6037500000000001,0.536015625,1.100625,1.0872656250000001,1.341796875V10.5H2.625c-0.2071875,0,-0.375,0.16781250000000003,-0.375,0.375v0.75c0,0.2071875,0.16781250000000003,0.375,0.375,0.375h9.75c0.2071875,0,0.375,-0.16781250000000003,0.375,-0.375v-0.75c0,-0.2071875,-0.16781250000000003,-0.375,-0.375,-0.375z" fill="#FFFFFF"/>
    </svg>