<svg version="1.1" xmlns="http://www.w3.org/2000/svg" xlink="http://www.w3.org/1999/xlink" x="0px" y="0px" width="15px" height="15px" viewBox="0 0 15 15" style="enable-background:new 0 0 15 15;" space="preserve">
    <path d="M14.31328125,0.68671875a2.34375,2.34375,0,0,0,-3.3140625000000004,0l-10.3125,10.3125a2.34375,2.34375,0,1,0,3.3140625000000004,3.3140625000000004l10.3125,-10.3125a2.34375,2.34375,0,0,0,0,-3.3140625000000004zm-1.46279296875,2.78876953125c-0.57421875,0.57392578125,-1.0992187500000001,0.66416015625,-1.52138671875,0.7365234375C10.95,4.27734375,10.67578125,4.32421875,10.3125,4.6875s-0.41015625,0.6375000000000001,-0.47548828125000003,1.01689453125c-0.07265625,0.421875,-0.16259765625,0.94716796875,-0.73681640625,1.5210937500000001s-1.0992187500000001,0.66416015625,-1.5210937500000001,0.73681640625C7.19970703125,8.02734375,6.92578125,8.07421875,6.5625,8.4375s-0.41015625,0.63720703125,-0.47548828125000003,1.0166015625c-0.07236328125000001,0.421875,-0.1623046875,0.94716796875,-0.7365234375,1.5210937500000001s-1.09951171875,0.664453125,-1.52138671875,0.73681640625C3.45,11.77734375,3.17578125,11.82421875,2.8125,12.1875a0.46875,0.46875,0,0,1,-0.66298828125,-0.66298828125c0.57421875,-0.57392578125,1.0992187500000001,-0.66416015625,1.5210937500000001,-0.7365234375c0.380859375,-0.06503906250000001,0.6533203125,-0.1119140625,1.01689453125,-0.47548828125000003s0.41015625,-0.63720703125,0.47519531249999997,-1.0166015625c0.07265625,-0.421875,0.16259765625,-0.94716796875,0.73681640625,-1.5210937500000001s1.0992187500000001,-0.66416015625,1.5210937500000001,-0.7365234375c0.380859375,-0.06503906250000001,0.6533203125,-0.11220703125,1.0166015625,-0.47548828125000003s0.41015625,-0.6375000000000001,0.47578124999999993,-1.01689453125c0.07236328125000001,-0.421875,0.1623046875,-0.94716796875,0.7365234375,-1.5210937500000001s1.0992187500000001,-0.664453125,1.5210937500000001,-0.73681640625C11.55,3.22265625,11.823925781249999,3.1760742187499997,12.1875,2.8125a0.46875,0.46875,0,0,1,0.66298828125,0.66298828125zM0.92109375,9.4388671875L9.4388671875,0.92109375l-0.3380859375,-0.33837890625c-0.732421875,-0.732421875,-1.87060546875,-0.7810546875,-2.5426757812500003,-0.10898437500000001L0.47373046875,6.55810546875c-0.6720703125,0.6720703125,-0.62314453125,1.81025390625,0.10898437500000001,2.5423828125zm13.1578125,-3.877734375L5.5611328124999995,14.07890625l0.3380859375,0.33837890625c0.732421875,0.732421875,1.87060546875,0.7810546875,2.5426757812500003,0.10898437500000001l6.0843750000000005,-6.0843750000000005c0.6720703125,-0.6720703125,0.62314453125,-1.81025390625,-0.10898437500000001,-2.5426757812500003z" fill="#FFFFFF"/>
    </svg>