<svg version="1.1" xmlns="http://www.w3.org/2000/svg" xlink="http://www.w3.org/1999/xlink" x="0px" y="0px" width="18.75px" height="15px" viewBox="0 0 18.75 15" style="enable-background:new 0 0 15 15;" space="preserve">
    <path d="M18.28125,13.125H0.46875c-0.258984375,0,-0.46875,0.209765625,-0.46875,0.46875v0.9375c0,0.258984375,0.209765625,0.46875,0.46875,0.46875h17.8125c0.258984375,0,0.46875,-0.209765625,0.46875,-0.46875v-0.9375c0,-0.258984375,-0.209765625,-0.46875,-0.46875,-0.46875zM2.35986328125,9.998144531249999c0.183984375,0.200390625,0.4423828125,0.3140625,0.71279296875,0.31376953125l3.8244140625,-0.0052734374999999995a1.9224609375000001,1.9224609375000001,0,0,0,0.868359375,-0.20859375l8.52421875,-4.32568359375c0.7833984374999999,-0.39755859375,1.48564453125,-0.9650390624999999,1.9634765625,-1.7083007812500002c0.53642578125,-0.834375,0.5947265625,-1.43818359375,0.38291015625,-1.86474609375c-0.21123046875,-0.42685546875,-0.7248046874999999,-0.74033203125,-1.70654296875,-0.80419921875c-0.87451171875,-0.056835937499999996,-1.7443359375,0.1734375,-2.527734375,0.570703125l-2.88603515625,1.46455078125l-6.4072265625,-2.4041015625a0.521455078125,0.521455078125,0,0,0,-0.52734375,-0.032519531250000004L2.6548828125000004,1.9713867187500003c-0.31259765625,0.15849609375,-0.38818359375,0.57568359375,-0.15146484375,0.8358398437500001l4.5767578125,2.8740234375l-3.0237304687499997,1.5345703125l-2.11962890625,-1.06845703125a0.5216015625,0.5216015625,0,0,0,-0.47080078125,0.0005859375L0.29033203125,6.7447265625c-0.305859375,0.1552734375,-0.38642578125,0.56015625,-0.16318359375000002,0.82265625l2.2327148437499997,2.43076171875z" fill="#FFFFFF"/>
    </svg>