<svg version="1.1" xmlns="http://www.w3.org/2000/svg" xlink="http://www.w3.org/1999/xlink" x="0px" y="0px" width="15px" height="12px" viewBox="0 0 15 12" style="enable-background:new 0 0 15 15;" space="preserve"><path d="M11.670492187499999,5.2954921875L6.704507812500001,0.3295078125A1.125,1.125,0,0,0,5.909015625,0H1.125C0.503671875,0,0,0.503671875,0,1.125v4.784015625a1.125,1.125,0,0,0,0.3295078125,0.7954921875000001l4.965984375,4.965984375c0.4393125,0.4393359375,1.1516250000000001,0.439359375,1.5909843750000001,0l4.784015625,-4.784015625c0.4393359375,-0.4393359375,0.4393359375,-1.1516484375,0,-1.5909843750000001zM2.625,3.75c-0.621328125,0,-1.125,-0.503671875,-1.125,-1.125s0.503671875,-1.125,1.125,-1.125s1.125,0.503671875,1.125,1.125s-0.503671875,1.125,-1.125,1.125zm12.0454921875,3.1364765625000004L9.8864765625,11.670492187499999c-0.4393359375,0.4393359375,-1.1516484375,0.4393359375,-1.5909843750000001,0l-0.0084375,-0.0084375L12.3665625,7.582546875c0.3984140625,-0.3984140625,0.6178125,-0.9281250000000001,0.6178125,-1.4915625000000001s-0.219421875,-1.0931484375,-0.6178125,-1.4915625000000001L7.7671171875,0h1.1418984374999999a1.125,1.125,0,0,1,0.7954921875000001,0.3295078125l4.965984375,4.965984375c0.4393359375,0.4393359375,0.4393359375,1.1516484375,0,1.5909843750000001z" fill="#FFFFFF"/></svg>