<svg version="1.1" xmlns="http://www.w3.org/2000/svg" xlink="http://www.w3.org/1999/xlink" x="0px" y="0px" width="15px" height="15px" viewBox="0 0 15 15" style="enable-background:new 0 0 15 15;" space="preserve"><path d="M7.5,0.234375C3.486328125,0.234375,0.234375,3.486328125,0.234375,7.5s3.251953125,7.265625,7.265625,7.265625s7.265625,-3.251953125,7.265625,-7.265625S11.513671875,0.234375,7.5,0.234375zm1.6728515625,10.2568359375L6.5888671875,8.61328125c-0.0908203125,-0.0673828125,-0.1435546875,-0.1728515625,-0.1435546875,-0.2841796875V3.3984375c0,-0.193359375,0.158203125,-0.3515625,0.3515625,-0.3515625h1.40625c0.193359375,0,0.3515625,0.158203125,0.3515625,0.3515625v4.0341796875l1.8603515625,1.353515625c0.158203125,0.1142578125,0.1904296875,0.333984375,0.076171875,0.4921875l-0.826171875,1.13671875c-0.1142578125,0.1552734375,-0.333984375,0.1904296875,-0.4921875,0.076171875z" fill="#FFFFFF"/></svg>