<svg version="1.1" xmlns="http://www.w3.org/2000/svg" xlink="http://www.w3.org/1999/xlink" x="0px" y="0px" width="15px" height="12px" viewBox="0 0 15 12" style="enable-background:new 0 0 15 15;" space="preserve">
    <path d="M14.625,10.5H0.375c-0.2071875,0,-0.375,0.1678125,-0.375,0.375v0.75c0,0.2071875,0.1678125,0.375,0.375,0.375h14.25c0.2071875,0,0.375,-0.1678125,0.375,-0.375v-0.75c0,-0.2071875,-0.1678125,-0.375,-0.375,-0.375zM1.8878906249999998,7.998515625c0.1471875,0.1603125,0.35390625,0.25125000000000003,0.570234375,0.251015625l3.05953125,-0.00421875a1.53796875,1.53796875,0,0,0,0.6946875,-0.166875l6.819374999999999,-3.4605468750000004c0.62671875,-0.318046875,1.188515625,-0.77203125,1.57078125,-1.366640625c0.42914062499999994,-0.6675,0.47578125000000004,-1.150546875,0.306328125,-1.491796875c-0.168984375,-0.341484375,-0.57984375,-0.592265625,-1.365234375,-0.643359375c-0.6996093750000001,-0.04546875,-1.39546875,0.13874999999999998,-2.0221875000000002,0.4565625l-2.3088281250000002,1.171640625l-5.125781249999999,-1.92328125a0.4171640625,0.4171640625,0,0,0,-0.421875,-0.026015625L2.12390625,1.577109375c-0.250078125,0.126796875,-0.310546875,0.46054687499999997,-0.121171875,0.668671875l3.6614062499999998,2.2992187499999996l-2.418984375,1.2276562500000001l-1.6957031249999999,-0.854765625a0.41728124999999994,0.41728124999999994,0,0,0,-0.376640625,0.00046875L0.232265625,5.39578125c-0.2446875,0.12421874999999999,-0.309140625,0.448125,-0.130546875,0.658125l1.786171875,1.944609375z" fill="#FFFFFF"/>
    </svg>