<svg version="1.1" xmlns="http://www.w3.org/2000/svg" xlink="http://www.w3.org/1999/xlink" x="0px" y="0px" width="18.75px" height="15px" viewBox="0 0 18.75 15" style="enable-background:new 0 0 15 15;" space="preserve">
    <path d="M12.7353515625,1.875h-2.5166015625c-0.234375,0,-0.4599609375,0.087890625,-0.6328125,0.24609375l-2.8798828125,2.63671875c-0.0029296875,0.0029296875,-0.005859375,0.0087890625,-0.0087890625,0.01171875c-0.48632812500000006,0.45703125,-0.4775390625,1.1865234375,-0.0615234375,1.640625c0.3720703125,0.4072265625,1.154296875,0.515625,1.6435546875,0.0791015625c0.0029296875,-0.0029296875,0.0087890625,-0.0029296875,0.01171875,-0.005859375l2.3408203125,-2.14453125c0.1904296875,-0.1728515625,0.4892578125,-0.1611328125,0.662109375,0.029296875c0.17578125,0.1904296875,0.1611328125,0.48632812500000006,-0.029296875,0.662109375l-0.7646484375,0.7001953125L14.765625,9.193359375c0.0849609375,0.0703125,0.1611328125,0.146484375,0.2314453125,0.2255859375V3.75l-1.599609375,-1.599609375c-0.1728515625,-0.17578125,-0.4130859375,-0.275390625,-0.662109375,-0.275390625zM15.9375,3.7558593749999996v6.5595703125c0,0.5185546875,0.4189453125,0.9375,0.9375,0.9375h1.875V3.7558593749999996h-2.8125zm1.40625,6.5595703125c-0.2578125,0,-0.46875,-0.2109375,-0.46875,-0.46875s0.2109375,-0.46875,0.46875,-0.46875s0.46875,0.2109375,0.46875,0.46875s-0.2109375,0.46875,-0.46875,0.46875zM0,11.25h1.875c0.5185546875,0,0.9375,-0.4189453125,0.9375,-0.9375V3.7558593749999996H0V11.25zm1.40625,-1.8720703125c0.2578125,0,0.46875,0.2109375,0.46875,0.46875s-0.2109375,0.46875,-0.46875,0.46875s-0.46875,-0.2109375,-0.46875,-0.46875c0,-0.2607421875,0.2109375,-0.46875,0.46875,-0.46875zm12.7705078125,0.544921875L9.802734375,6.3720703125l-0.87890625,0.8056640625c-0.8701171875,0.7939453125,-2.203125,0.7177734375,-2.9794921875,-0.12890625c-0.7880859375,-0.861328125,-0.7265625,-2.1943359375,0.12890625,-2.9794921875L8.4697265625,1.875h-2.455078125c-0.2490234375,0,-0.48632812500000006,0.099609375,-0.662109375,0.275390625L3.75,3.75v6.5595703125h0.5361328125l2.6513671875,2.3994140625c0.802734375,0.6533203125,1.9833984375,0.5302734375,2.63671875,-0.2724609375l0.005859375,-0.005859375l0.5244140625,0.4541015625c0.4658203125,0.380859375,1.154296875,0.3076171875,1.5322265625,-0.158203125l0.919921875,-1.130859375l0.158203125,0.12890625c0.4013671875,0.3251953125,0.9931640625,0.2666015625,1.318359375,-0.1376953125l0.2783203125,-0.3427734375c0.328125,-0.404296875,0.2666015625,-0.9931640625,-0.134765625,-1.3212890625z" fill="#FFFFFF"/>
    </svg>