<svg version="1.1" xmlns="http://www.w3.org/2000/svg" xlink="http://www.w3.org/1999/xlink" x="0px" y="0px" width="15px" height="13.333333333333332px" viewBox="0 0 15 13.333333333333332" style="enable-background:new 0 0 15 15;" space="preserve">
    <path d="M12.5,5H9.523697916666666L6.78671875,0.20989583333333336A0.41703125,0.41703125,0,0,0,6.424739583333333,0h-1.7057291666666667c-0.2768229166666667,0,-0.47656250000000006,0.26484375,-0.4005208333333334,0.5309895833333333L5.5953125,5H2.916666666666667l-1.1250000000000002,-1.5c-0.07864583333333333,-0.10494791666666668,-0.20234375,-0.16666666666666669,-0.33333333333333337,-0.16666666666666669H0.4169270833333334C0.14583333333333334,3.3333333333333335,-0.053125000000000006,3.5880208333333337,0.012760416666666666,3.8510416666666667L0.8333333333333334,6.666666666666667L0.012760416666666666,9.482291666666667C-0.053125000000000006,9.7453125,0.14583333333333334,10,0.4169270833333334,10H1.4583333333333335c0.13125,0,0.2546875,-0.06171875,0.33333333333333337,-0.16666666666666669L2.916666666666667,8.333333333333334h2.6786458333333334l-1.2768229166666667,4.46875c-0.07604166666666667,0.26614583333333336,0.12369791666666667,0.53125,0.4005208333333334,0.53125h1.7057291666666667c0.1494791666666667,0,0.2875,-0.08020833333333334,0.36171875000000003,-0.20989583333333336L9.523697916666666,8.333333333333334H12.5c0.9205729166666667,0,2.5,-0.74609375,2.5,-1.6666666666666667s-1.5794270833333333,-1.6666666666666667,-2.5,-1.6666666666666667z" fill="#FFFFFF"/>
    </svg>