<svg version="1.1" xmlns="http://www.w3.org/2000/svg" xlink="http://www.w3.org/1999/xlink" x="0px" y="0px" width="15px" height="15px" viewBox="0 0 15 15" style="enable-background:new 0 0 15 15;" space="preserve"><path d="M7.5,4.6875c-1.5498046875,0,-2.8125,1.2626953125,-2.8125,2.8125s1.2626953125,2.8125,2.8125,2.8125s2.8125,-1.2626953125,2.8125,-2.8125s-1.2626953125,-2.8125,-2.8125,-2.8125zm7.21875,2.3583984375l-2.7744140625,-1.3857421875l0.9814453125,-2.94140625c0.1318359375,-0.3984375,-0.24609375,-0.7763671875,-0.6416015625,-0.6416015625l-2.94140625,0.9814453125l-1.388671875,-2.77734375c-0.1875,-0.375,-0.720703125,-0.375,-0.908203125,0l-1.3857421875,2.7744140625L2.7158203125,2.07421875c-0.3984375,-0.1318359375,-0.7763671875,0.24609375,-0.6416015625,0.6416015625l0.9814453125,2.94140625l-2.7744140625,1.388671875c-0.375,0.1875,-0.375,0.720703125,0,0.908203125l2.7744140625,1.3857421875l-0.9814453125,2.9443359375c-0.1318359375,0.3984375,0.24609375,0.7763671875,0.6416015625,0.6416015625l2.94140625,-0.9814453125l1.3857421875,2.7744140625c0.1875,0.375,0.720703125,0.375,0.908203125,0l1.3857421875,-2.7744140625l2.94140625,0.9814453125c0.3984375,0.1318359375,0.7763671875,-0.24609375,0.6416015625,-0.6416015625l-0.9814453125,-2.94140625l2.7744140625,-1.3857421875c0.380859375,-0.1904296875,0.380859375,-0.7236328125,0.005859375,-0.9111328125zm-4.5673828125,3.10546875c-1.4619140625,1.4619140625,-3.8408203125,1.4619140625,-5.302734375,0c-1.4619140625,-1.4619140625,-1.4619140625,-3.8408203125,0,-5.302734375c1.4619140625,-1.4619140625,3.8408203125,-1.4619140625,5.302734375,0c1.4619140625,1.4619140625,1.4619140625,3.8408203125,0,5.302734375z" fill="#FFFFFF"/></svg>