<svg version="1.1" xmlns="http://www.w3.org/2000/svg" xlink="http://www.w3.org/1999/xlink" x="0px" y="0px" width="14.53125px" height="15px" viewBox="0 0 14.53125 15" style="enable-background:new 0 0 15 15;" space="preserve">
    <path d="M7.265625,0.234375C3.251953125,0.234375,0,3.4863281250000004,0,7.5s3.251953125,7.265625,7.265625,7.265625s7.265625,-3.251953125,7.265625,-7.265625S11.279296875,0.234375,7.265625,0.234375zM3.28125,6.544921875000001c0.0966796875,-1.2333984375,0.9433593750000001,-2.0917968750000004,1.640625,-2.0917968750000004s1.5439453125000002,0.8583984375,1.640625,2.0917968750000004c0.0205078125,0.251953125,-0.31640625000000006,0.34863281250000006,-0.4365234375,0.13183593750000003l-0.2783203125,-0.49804687500000006c-0.22558593750000003,-0.4013671875,-0.5625,-0.6328125000000001,-0.9228515625,-0.6328125000000001s-0.6972656250000001,0.2314453125,-0.9228515625,0.6328125000000001l-0.2783203125,0.49804687500000006c-0.1259765625,0.21679687500000003,-0.462890625,0.1171875,-0.4423828125,-0.13183593750000003zm7.34765625,3.59765625C9.793945312500002,11.14453125,8.5693359375,11.71875,7.265625,11.71875s-2.5283203125,-0.57421875,-3.36328125,-1.576171875c-0.3955078125,-0.47753906250000006,0.322265625,-1.0751953125000002,0.7207031250000001,-0.6005859375c0.65625,0.7880859375,1.6171875,1.2363281250000002,2.642578125,1.2363281250000002s1.986328125,-0.45117187500000006,2.642578125,-1.2363281250000002c0.3984375,-0.474609375,1.1162109375,0.1259765625,0.7207031250000001,0.6005859375zm0.181640625,-3.4658203125l-0.2783203125,-0.49804687500000006c-0.22558593750000003,-0.4013671875,-0.5625,-0.6328125000000001,-0.9228515625,-0.6328125000000001s-0.6972656250000001,0.2314453125,-0.9228515625,0.6328125000000001l-0.2783203125,0.49804687500000006c-0.12011718749999999,0.2138671875,-0.45703125,0.1171875,-0.4365234375,-0.13183593750000003c0.0966796875,-1.2333984375,0.9433593750000001,-2.0917968750000004,1.640625,-2.0917968750000004s1.5439453125000002,0.8583984375,1.640625,2.0917968750000004c0.017578125,0.251953125,-0.322265625,0.34863281250000006,-0.4423828125,0.13183593750000003z" fill="#FFFFFF"/>
    </svg>