<svg version="1.1" xmlns="http://www.w3.org/2000/svg" xlink="http://www.w3.org/1999/xlink" x="0px" y="0px" width="15px" height="12px" viewBox="0 0 15 12" style="enable-background:new 0 0 15 15;" space="preserve"><path d="M9.97734375,6c-0.39609374999999997,0,-0.7687499999999999,-0.2109375,-0.9703124999999999,-0.5484374999999999L7.5,2.953125l-1.5046875000000002,2.4984374999999996c-0.20390624999999998,0.33984375,-0.5765625000000001,0.55078125,-0.97265625,0.55078125c-0.10546875,0,-0.2109375,-0.014062499999999999,-0.31171875000000004,-0.044531249999999994L1.5,5.0390625v4.171875c0,0.34453124999999996,0.234375,0.64453125,0.5671875,0.7265625l5.067187499999999,1.26796875c0.23906249999999998,0.05859375,0.48984374999999997,0.05859375,0.7265625,0L12.932812499999999,9.9375c0.33281249999999996,-0.084375,0.5671875,-0.38437499999999997,0.5671875,-0.7265625V5.0390625l-3.2109375,0.9164062500000001c-0.10078124999999999,0.030468750000000003,-0.20625000000000002,0.044531249999999994,-0.31171875000000004,0.044531249999999994zm4.9828125,-2.6296875L13.753124999999999,0.9609375c-0.07265625,-0.1453125,-0.22968750000000002,-0.22968750000000002,-0.39140624999999996,-0.20859375000000002L7.5,1.5l2.14921875,3.5648437499999996c0.08906249999999999,0.14765625,0.2671875,0.21796875000000002,0.43359375,0.17109375l4.63828125,-1.32421875c0.23203125000000002,-0.06796875,0.34453124999999996,-0.32578125,0.23906249999999998,-0.5414062500000001zM1.2468750000000002,0.9609375L0.03984375,3.3703125000000003c-0.10781249999999999,0.21562499999999998,0.007031249999999999,0.47343749999999996,0.23671874999999998,0.5390625l4.63828125,1.32421875c0.16640624999999998,0.046875,0.34453124999999996,-0.0234375,0.43359375,-0.17109375L7.5,1.5L1.6359374999999998,0.7523437500000001c-0.16171875000000002,-0.018750000000000003,-0.31640625,0.06328125000000001,-0.38906250000000003,0.20859375000000002z" fill="#FFFFFF"/></svg>