<svg version="1.1" xmlns="http://www.w3.org/2000/svg" xlink="http://www.w3.org/1999/xlink" x="0px" y="0px" width="15px" height="15px" viewBox="0 0 15 15" style="enable-background:new 0 0 15 15;" space="preserve"><path d="M4.2421875,0.498046875c-0.3310546875,-0.521484375,-1.08984375,-0.66796875,-1.58203125,-0.275390625C1.0341796875,1.5205078125,0,3.45703125,0,5.625h7.5L4.2421875,0.498046875zM14.53125,2.8125h-1.40625c-1.0341796875,0,-1.875,0.8408203125,-1.875,1.875v1.875H0c0,1.482421875,0.673828125,2.82421875,1.7666015625,3.8291015624999996C0.7529296875,10.65234375,0,11.5634765625,0,12.65625c0,1.294921875,1.048828125,2.34375,2.34375,2.34375s2.34375,-1.048828125,2.34375,-2.34375c0,-0.2607421875,-0.052734375,-0.50390625,-0.12890625,-0.73828125c0.6328125,0.1728515625,1.306640625,0.26953125,2.00390625,0.26953125s1.3740234375,-0.0966796875,2.00390625,-0.26953125c-0.0791015625,0.234375,-0.12890625,0.4775390625,-0.12890625,0.73828125c0,1.294921875,1.048828125,2.34375,2.34375,2.34375s2.34375,-1.048828125,2.34375,-2.34375c0,-1.0927734375,-0.7529296875,-2.00390625,-1.7666015625,-2.2646484375C12.451171875,9.38671875,13.125,8.044921875,13.125,6.5625v-1.875h1.40625c0.2578125,0,0.46875,-0.2109375,0.46875,-0.46875v-0.9375c0,-0.2578125,-0.2109375,-0.46875,-0.46875,-0.46875zM2.34375,13.59375c-0.515625,0,-0.9375,-0.421875,-0.9375,-0.9375s0.421875,-0.9375,0.9375,-0.9375s0.9375,0.421875,0.9375,0.9375s-0.421875,0.9375,-0.9375,0.9375zm9.375,-0.9375c0,0.515625,-0.421875,0.9375,-0.9375,0.9375s-0.9375,-0.421875,-0.9375,-0.9375s0.421875,-0.9375,0.9375,-0.9375s0.9375,0.421875,0.9375,0.9375z" fill="#FFFFFF"/></svg>