<svg version="1.1" xmlns="http://www.w3.org/2000/svg" xlink="http://www.w3.org/1999/xlink" x="0px" y="0px" width="15px" height="13.333333333333332px" viewBox="0 0 15 13.333333333333332" style="enable-background:new 0 0 15 15;" space="preserve"><path d="M7.5,0.8333333333333334C3.3578125,0.8333333333333334,0,4.191145833333334,0,8.333333333333334c0,1.375,0.37109375,2.6630208333333334,1.0171875000000001,3.770833333333334c0.14609375000000002,0.2505208333333333,0.4244791666666667,0.3958333333333333,0.7145833333333333,0.3958333333333333h11.536458333333334c0.2901041666666667,0,0.5684895833333333,-0.1453125,0.7145833333333333,-0.3958333333333333C14.62890625,10.996354166666666,15,9.708333333333334,15,8.333333333333334c0,-4.1421875,-3.3578125,-7.5,-7.5,-7.5zm0,1.6666666666666667c0.3830729166666667,0,0.6921875,0.2638020833333334,0.7895833333333334,0.6158854166666666c-0.028906250000000005,0.058854166666666666,-0.06875,0.11015625000000001,-0.08984375000000001,0.17369791666666667l-0.2401041666666667,0.7205729166666668c-0.13359375,0.09088541666666668,-0.28567708333333336,0.15651041666666668,-0.45937500000000003,0.15651041666666668c-0.46015625000000004,0,-0.8333333333333334,-0.3731770833333333,-0.8333333333333334,-0.8333333333333334S7.03984375,2.5,7.5,2.5zM2.5,10c-0.46015625000000004,0,-0.8333333333333334,-0.3731770833333333,-0.8333333333333334,-0.8333333333333334s0.3731770833333333,-0.8333333333333334,0.8333333333333334,-0.8333333333333334s0.8333333333333334,0.3731770833333333,0.8333333333333334,0.8333333333333334s-0.3731770833333333,0.8333333333333334,-0.8333333333333334,0.8333333333333334zm1.25,-4.166666666666667c-0.46015625000000004,0,-0.8333333333333334,-0.3731770833333333,-0.8333333333333334,-0.8333333333333334s0.3731770833333333,-0.8333333333333334,0.8333333333333334,-0.8333333333333334s0.8333333333333334,0.3731770833333333,0.8333333333333334,0.8333333333333334s-0.3731770833333333,0.8333333333333334,-0.8333333333333334,0.8333333333333334zm6.426302083333334,-1.8856770833333334l-1.5971354166666667,4.791666666666667C8.935677083333333,9.045052083333333,9.166666666666668,9.493229166666667,9.166666666666668,10c0,0.30520833333333336,-0.08802083333333334,0.5872395833333334,-0.23125000000000004,0.8333333333333334H6.064583333333333c-0.14322916666666669,-0.24609375,-0.23125000000000004,-0.5281250000000001,-0.23125000000000004,-0.8333333333333334c0,-0.8838541666666666,0.6901041666666667,-1.5997395833333334,1.5598958333333333,-1.6559895833333336l1.5973958333333336,-4.791927083333333c0.10859375,-0.32708333333333334,0.46171875,-0.5065104166666666,0.790625,-0.39505208333333336c0.32734375000000004,0.10911458333333335,0.5039062500000001,0.46328125,0.39505208333333336,0.790625zm0.38177083333333334,1.4895833333333335l0.4041666666666667,-1.2122395833333333c0.09036458333333335,-0.033593750000000006,0.18567708333333333,-0.05807291666666667,0.2877604166666667,-0.05807291666666667c0.46015625000000004,0,0.8333333333333334,0.3731770833333333,0.8333333333333334,0.8333333333333334s-0.3731770833333333,0.8333333333333334,-0.8333333333333334,0.8333333333333334c-0.2963541666666667,-0.00026041666666666666,-0.5440104166666667,-0.16354166666666667,-0.6919270833333334,-0.3963541666666667zM12.5,10c-0.46015625000000004,0,-0.8333333333333334,-0.3731770833333333,-0.8333333333333334,-0.8333333333333334s0.3731770833333333,-0.8333333333333334,0.8333333333333334,-0.8333333333333334s0.8333333333333334,0.3731770833333333,0.8333333333333334,0.8333333333333334s-0.3731770833333333,0.8333333333333334,-0.8333333333333334,0.8333333333333334z" fill="#FFFFFF"/></svg>