<svg version="1.1" xmlns="http://www.w3.org/2000/svg" xlink="http://www.w3.org/1999/xlink" x="0px" y="0px" width="15px" height="20px" viewBox="0 0 15 20" style="enable-background:new 0 0 15 15;" space="preserve">
    <path d="M14.375,1.875c0.34375,0,0.625,-0.28125,0.625,-0.625V0.625c0,-0.34375,-0.28125,-0.625,-0.625,-0.625H0.625C0.28125,0,0,0.28125,0,0.625v0.625c0,0.34375,0.28125,0.625,0.625,0.625h0.625v6.12109375C0.4609375,8.390625,0,8.86328125,0,9.375c0,2.625,1.3515625,4.9296875,3.390625,6.26953125l-0.8359375,2.7421875C2.30859375,19.1875,2.91015625,20,3.75,20h7.5c0.83984375,0,1.44140625,-0.8125,1.1953125,-1.61328125l-0.8359375,-2.7421875C13.6484375,14.3046875,15,12,15,9.375c0,-0.51171875,-0.4609375,-0.984375,-1.25,-1.37890625V1.875h0.625zM3.125,2.8125c0,-0.171875,0.140625,-0.3125,0.3125,-0.3125h1.875c0.171875,0,0.3125,0.140625,0.3125,0.3125v0.625c0,0.171875,-0.140625,0.3125,-0.3125,0.3125H3.4375c-0.171875,0,-0.3125,-0.140625,-0.3125,-0.3125V2.8125zm4.375,7.8125c-3.01171875,0,-5.453125,-0.55859375,-5.453125,-1.25s2.44140625,-1.25,5.453125,-1.25s5.453125,0.55859375,5.453125,1.25s-2.44140625,1.25,-5.453125,1.25z" fill="#FFFFFF"/>
    </svg>