<svg version="1.1" xmlns="http://www.w3.org/2000/svg" xlink="http://www.w3.org/1999/xlink" x="0px" y="0px" width="15px" height="12px" viewBox="0 0 15 12" style="enable-background:new 0 0 15 15;" space="preserve">
    <path d="M14.880703125,3.63C10.728281250000002,-0.210703125,4.270078125,-0.209296875,0.119296875,3.63c-0.15609375000000003,0.144375,-0.159140625,0.388828125,-0.008203125,0.53859375l0.8025000000000001,0.796171875c0.14390624999999999,0.14296875,0.37546875,0.146015625,0.525,0.008906250000000001c3.42,-3.133125,8.70234375,-3.1338281250000004,12.123046875,0c0.14953125,0.137109375,0.38109375000000006,0.13382812500000002,0.525,-0.008906250000000001l0.8025000000000001,-0.796171875c0.150703125,-0.14976562499999999,0.14765625000000002,-0.39421875000000006,-0.008437499999999999,-0.53859375zM7.5,8.25c-0.8285156250000001,0,-1.5,0.671484375,-1.5,1.5s0.671484375,1.5,1.5,1.5s1.5,-0.671484375,1.5,-1.5s-0.671484375,-1.5,-1.5,-1.5zm4.750078125,-1.9591406250000003c-2.7014062500000002,-2.388984375,-6.801796875,-2.38640625,-9.50015625,0c-0.16171875000000002,0.14296875,-0.166875,0.39117187500000006,-0.013359375,0.542578125l0.8071875,0.7966406250000001c0.140625,0.13875,0.36703125000000003,0.14812500000000003,0.516796875,0.018750000000000003c1.9675781250000002,-1.700859375,4.915781250000001,-1.697109375,6.878671875000001,0c0.14976562499999999,0.129375,0.37617187500000004,0.120234375,0.516796875,-0.018750000000000003l0.8071875,-0.7966406250000001c0.15375,-0.15140625000000002,0.14835937500000002,-0.39984375,-0.013125000000000001,-0.542578125z" fill="#FFFFFF"/>
    </svg>