<svg version="1.1" xmlns="http://www.w3.org/2000/svg" xlink="http://www.w3.org/1999/xlink" x="0px" y="0px" width="15px" height="13.333333333333332px" viewBox="0 0 15 13.333333333333332" style="enable-background:new 0 0 15 15;" space="preserve">
    <path d="M14.909375,6.286458333333334C13.497135416666666,3.5309895833333336,10.701302083333333,1.6666666666666667,7.5,1.6666666666666667S1.5020833333333334,3.5322916666666666,0.090625,6.28671875a0.8424479166666667,0.8424479166666667,0,0,0,0,0.7601562500000001C1.5028645833333334,9.80234375,4.298697916666667,11.666666666666668,7.5,11.666666666666668s5.997916666666667,-1.865625,7.409375,-4.620052083333333a0.8424479166666667,0.8424479166666667,0,0,0,0,-0.7601562500000001zM7.5,10.416666666666668a3.75,3.75,0,1,1,3.75,-3.75a3.7481770833333337,3.7481770833333337,0,0,1,-3.75,3.75zm0,-6.25a2.4820312500000004,2.4820312500000004,0,0,0,-0.6591145833333333,0.09869791666666668a1.24609375,1.24609375,0,0,1,-1.7421875000000002,1.7421875000000002A2.4942708333333337,2.4942708333333337,0,1,0,7.5,4.166666666666667z" fill="#FFFFFF"/>
    </svg>