<svg version="1.1" xmlns="http://www.w3.org/2000/svg" xlink="http://www.w3.org/1999/xlink" x="0px" y="0px" width="15px" height="12px" viewBox="0 0 15 12" style="enable-background:new 0 0 15 15;" space="preserve"><path d="M1.1765625000000002,8.803125000000001c0.053906249999999996,0.19921875,0.26015625,0.31875,0.45937500000000003,0.26484375000000004l5.071875,-1.359375c0.19921875,-0.053906249999999996,0.31875,-0.26015625,0.26484375000000004,-0.45937500000000003l-1.1648437500000002,-4.34765625c-0.053906249999999996,-0.19921875,-0.26015625,-0.31875,-0.45937500000000003,-0.26484375000000004L3.5390625,3.1242187500000003l0.58125,2.17265625l-1.4484374999999998,0.38671875l-0.58125,-2.17265625l-1.8117187499999998,0.48515624999999996C0.0796875,4.050000000000001,-0.03984375,4.25625,0.014062499999999999,4.45546875l1.1625,4.34765625zM9,0c-0.41484374999999996,0,-0.75,0.33515625000000004,-0.75,0.75v7.5843750000000005L0.13828125000000002,10.546875c-0.10078124999999999,0.028124999999999997,-0.159375,0.13124999999999998,-0.13124999999999998,0.22968750000000002l0.2953125,1.0851562499999998c0.028124999999999997,0.10078124999999999,0.13124999999999998,0.159375,0.22968750000000002,0.13124999999999998l9.22734375,-2.5171875000000004C9.815625,10.877343750000001,10.959375000000001,12,12.375,12c1.45078125,0,2.625,-1.17421875,2.625,-2.625V0H9zm3.375,10.5c-0.62109375,0,-1.125,-0.50390625,-1.125,-1.125s0.50390625,-1.125,1.125,-1.125s1.125,0.50390625,1.125,1.125s-0.50390625,1.125,-1.125,1.125z" fill="#FFFFFF"/></svg>