<svg version="1.1" xmlns="http://www.w3.org/2000/svg" xlink="http://www.w3.org/1999/xlink" x="0px" y="0px" width="15px" height="12px" viewBox="0 0 15 12" style="enable-background:new 0 0 15 15;" space="preserve"><path d="M7.260937500000001,0.08690625C7.399218749999999,-0.02896875,7.600781250000001,-0.02896875,7.739062499999999,0.08690625L10.575,2.44921875C11.00390625,2.80546875,11.25,3.3328124999999997,11.25,3.8695312499999996V12H9V9C9,8.17265625,8.32734375,7.5,7.5,7.5C6.672656249999999,7.5,6,8.17265625,6,9V12H3.75V3.8695312499999996C3.75,3.3328124999999997,3.99609375,2.80546875,4.425000000000001,2.44921875L7.260937500000001,0.08690625zM7.6429687500000005,2.91328125C7.5914062499999995,2.7867187500000004,7.4085937500000005,2.7867187500000004,7.3359375,2.91328125L6.965624999999999,3.5718750000000004L6.2085937499999995,3.5648437499999996C6.063281249999999,3.5648437499999996,5.971875000000001,3.7218750000000003,6.0445312499999995,3.8484374999999997L6.428906250000001,4.47890625L6.0445312499999995,5.151562500000001C5.971875000000001,5.278124999999999,6.063281249999999,5.43515625,6.2085937499999995,5.43515625L6.965624999999999,5.428125L7.3359375,6.086718749999999C7.4085937500000005,6.2132812500000005,7.5914062499999995,6.2132812500000005,7.6429687500000005,6.086718749999999L8.034375,5.428125L8.791406250000001,5.43515625C8.93671875,5.43515625,9.028125,5.278124999999999,8.955468750000001,5.151562500000001L8.57109375,4.47890625L8.955468750000001,3.8484374999999997C9.028125,3.7218750000000003,8.93671875,3.5648437499999996,8.791406250000001,3.5648437499999996L8.034375,3.5718750000000004L7.6429687500000005,2.91328125zM12,5.73046875L12.658593750000001,4.999218750000001C12.728906250000001,4.91953125,12.83203125,4.875,12.9375,4.875C13.04296875,4.875,13.146093749999999,4.91953125,13.216406249999999,4.999218750000001L14.711718750000001,6.660937499999999C14.896875000000001,6.8460937500000005,15,7.1343749999999995,15,7.413281250000001V10.5C15,11.32734375,14.327343749999999,12,13.5,12H12V5.73046875zM3,5.73046875V12H1.5C0.6714843749999999,12,0,11.32734375,0,10.5V7.413281250000001C0,7.1343749999999995,0.10286718750000001,6.8460937500000005,0.28875,6.660937499999999L1.7838281249999999,4.999218750000001C1.8548437500000001,4.91953125,1.95609375,4.875,2.0625,4.875C2.16890625,4.875,2.27015625,4.91953125,2.341171875,4.999218750000001L3,5.73046875z" fill="#FFFFFF"/></svg>