<svg version="1.1" xmlns="http://www.w3.org/2000/svg" xlink="http://www.w3.org/1999/xlink" x="0px" y="0px" width="15px" height="12px" viewBox="0 0 15 12" style="enable-background:new 0 0 15 15;" space="preserve">
    <path d="M6.53671875,11.98828125l-1.4296875,-0.41484375c-0.15000000000000002,-0.0421875,-0.234375,-0.19921875,-0.19218749999999998,-0.34921875L8.114062500000001,0.20390625c0.0421875,-0.15000000000000002,0.19921875,-0.234375,0.34921875,-0.19218749999999998l1.4296875,0.41484375c0.15000000000000002,0.0421875,0.234375,0.19921875,0.19218749999999998,0.34921875L6.885937500000001,11.79609375c-0.04453125,0.15000000000000002,-0.19921875,0.23671875,-0.34921875,0.19218749999999998zm-2.671875,-2.6296875l1.01953125,-1.0875000000000001c0.1078125,-0.11484375000000001,0.10078125,-0.29765625,-0.018750000000000003,-0.403125L2.7421875,6l2.1234375,-1.8679687500000002c0.11953125,-0.10546875,0.12890625,-0.28828125,0.018750000000000003,-0.403125l-1.01953125,-1.0875000000000001c-0.10546875,-0.1125,-0.28359375000000003,-0.11953125,-0.3984375,-0.01171875L0.0890625,5.79375c-0.11953125,0.11015625000000001,-0.11953125,0.30000000000000004,0,0.41015625l3.37734375,3.16640625c0.11484375000000001,0.1078125,0.29296875,0.10312500000000001,0.3984375,-0.01171875zm7.66875,0.0140625l3.37734375,-3.16640625c0.11953125,-0.11015625000000001,0.11953125,-0.30000000000000004,0,-0.41015625L11.533593750000001,2.62734375c-0.1125,-0.10546875,-0.290625,-0.10078125,-0.3984375,0.01171875L10.115625000000001,3.7265625c-0.1078125,0.11484375000000001,-0.10078125,0.29765625,0.018750000000000003,0.403125L12.2578125,6l-2.1234375,1.8679687500000002c-0.11953125,0.10546875,-0.12890625,0.28828125,-0.018750000000000003,0.403125l1.01953125,1.0875000000000001c0.10546875,0.11484375000000001,0.28359375000000003,0.11953125,0.3984375,0.0140625z" fill="#FFFFFF"/>
    </svg>