<svg version="1.1" xmlns="http://www.w3.org/2000/svg" xlink="http://www.w3.org/1999/xlink" x="0px" y="0px" width="15px" height="13.333333333333332px" viewBox="0 0 15 13.333333333333332" style="enable-background:new 0 0 15 15;" space="preserve">
    <path d="M2.9166666666666665,0.8333333333333333C1.3046875,0.8333333333333333,0,2.138020833333333,0,3.75v5.833333333333333c0,1.6119791666666665,1.3046875,2.9166666666666665,2.9166666666666665,2.9166666666666665s2.9166666666666665,-1.3046875,2.9166666666666665,-2.9166666666666665V3.75c0,-1.6119791666666665,-1.3046875,-2.9166666666666665,-2.9166666666666665,-2.9166666666666665zm1.25,5.833333333333333H1.6666666666666665V3.75c0,-0.6901041666666666,0.5598958333333333,-1.25,1.25,-1.25s1.25,0.5598958333333333,1.25,1.25v2.9166666666666665zm3.638020833333333,-0.7734375c-0.09114583333333333,-0.09114583333333333,-0.24479166666666666,-0.08072916666666666,-0.3203125,0.020833333333333332c-1.1796875,1.6276041666666665,-1.0520833333333333,3.9088541666666665,0.4140625,5.375c1.4661458333333333,1.4661458333333333,3.747395833333333,1.59375,5.375,0.4140625c0.10416666666666666,-0.07552083333333333,0.11197916666666666,-0.22916666666666666,0.020833333333333332,-0.3203125L7.8046875,5.893229166666666zm5.984375,-0.49479166666666663c-1.4661458333333333,-1.4661458333333333,-3.747395833333333,-1.59375,-5.375,-0.4140625c-0.10416666666666666,0.07552083333333333,-0.11197916666666666,0.22916666666666666,-0.020833333333333332,0.3203125l5.489583333333333,5.489583333333333c0.09114583333333333,0.09114583333333333,0.24479166666666666,0.08072916666666666,0.3203125,-0.020833333333333332c1.1796875,-1.6302083333333333,1.0546875,-3.9088541666666665,-0.4140625,-5.375z" fill="#FFFFFF"/>
    </svg>