<svg version="1.1" xmlns="http://www.w3.org/2000/svg" xlink="http://www.w3.org/1999/xlink" x="0px" y="0px" width="15px" height="12px" viewBox="0 0 15 12" style="enable-background:new 0 0 15 15;" space="preserve">
    <path d="M13.875,4.5H11.09203125c0.297421875,0.6935156250000001,0.166875,1.5281250000000002,-0.3984375,2.0934375L7.5,9.78703125V10.875c0,0.6213281250000001,0.503671875,1.125,1.125,1.125h5.25c0.6213281250000001,0,1.125,-0.503671875,1.125,-1.125V5.625c0,-0.6213281250000001,-0.503671875,-1.125,-1.125,-1.125zM11.25,8.8125c-0.310546875,0,-0.5625,-0.251953125,-0.5625,-0.5625c0,-0.31078125,0.251953125,-0.5625,0.5625,-0.5625s0.5625,0.25171875,0.5625,0.5625c0,0.310546875,-0.251953125,0.5625,-0.5625,0.5625zm-1.0867968749999999,-4.37578125L6.06328125,0.336796875c-0.4490625,-0.4490625,-1.177265625,-0.4490625,-1.626328125,0L0.336796875,4.43671875c-0.4490625,0.4490625,-0.4490625,1.177265625,0,1.626328125L4.43671875,10.163203125c0.4490625,0.4490625,1.177265625,0.4490625,1.626328125,0L10.163203125,6.06328125c0.4490625,-0.44929687500000004,0.4490625,-1.1775,0,-1.6265625000000001zM2.25,5.8125c-0.310546875,0,-0.5625,-0.251953125,-0.5625,-0.5625c0,-0.31078125,0.251953125,-0.5625,0.5625,-0.5625s0.5625,0.25171875,0.5625,0.5625c0,0.310546875,-0.251953125,0.5625,-0.5625,0.5625zm3,3c-0.310546875,0,-0.5625,-0.251953125,-0.5625,-0.5625c0,-0.31078125,0.251953125,-0.5625,0.5625,-0.5625s0.5625,0.25171875,0.5625,0.5625c0,0.310546875,-0.251953125,0.5625,-0.5625,0.5625zm0,-3c-0.310546875,0,-0.5625,-0.251953125,-0.5625,-0.5625c0,-0.31078125,0.251953125,-0.5625,0.5625,-0.5625s0.5625,0.25171875,0.5625,0.5625c0,0.310546875,-0.251953125,0.5625,-0.5625,0.5625zm0,-3c-0.310546875,0,-0.5625,-0.251953125,-0.5625,-0.5625c0,-0.31078125,0.251953125,-0.5625,0.5625,-0.5625s0.5625,0.25171875,0.5625,0.5625c0,0.310546875,-0.251953125,0.5625,-0.5625,0.5625zm3,3c-0.310546875,0,-0.5625,-0.251953125,-0.5625,-0.5625c0,-0.31078125,0.251953125,-0.5625,0.5625,-0.5625s0.5625,0.25171875,0.5625,0.5625c0,0.310546875,-0.251953125,0.5625,-0.5625,0.5625z" fill="#FFFFFF"/>
    </svg>