<svg version="1.1" xmlns="http://www.w3.org/2000/svg" xlink="http://www.w3.org/1999/xlink" x="0px" y="0px" width="15px" height="13.333333333333332px" viewBox="0 0 15 13.333333333333332" style="enable-background:new 0 0 15 15;" space="preserve">
    <path d="M14.223958333333332,0.25260416666666663c-0.14583333333333331,-0.3255208333333333,-0.5625,-0.33854166666666663,-0.7369791666666666,-0.03125C12.6796875,1.625,11.234375,2.5,9.583333333333332,2.5h-2.083333333333333C4.739583333333333,2.5,2.5,4.739583333333333,2.5,7.5c0,0.18229166666666666,0.020833333333333332,0.3567708333333333,0.0390625,0.5338541666666666C4.200520833333333,6.84375,6.598958333333333,5.833333333333333,10,5.833333333333333c0.22916666666666666,0,0.41666666666666663,0.1875,0.41666666666666663,0.41666666666666663s-0.1875,0.41666666666666663,-0.41666666666666663,0.41666666666666663C3.453125,6.666666666666666,0.6770833333333333,10.6796875,0.0625,12.1875c-0.171875,0.42447916666666663,0.03125,0.9088541666666666,0.45572916666666663,1.0833333333333333c0.42708333333333326,0.17708333333333331,0.9114583333333333,-0.028645833333333332,1.0885416666666665,-0.4505208333333333c0.0390625,-0.09375,0.5442708333333333,-1.2473958333333333,1.8723958333333333,-2.359375c0.84375,1.1432291666666665,2.4479166666666665,2.234375,4.5546875,2.0104166666666665C12.122395833333332,12.174479166666666,15,8.5078125,15,4.018229166666666c0,-1.3072916666666665,-0.28125,-2.661458333333333,-0.7760416666666666,-3.765625z" fill="#FFFFFF"/>
    </svg>