<svg version="1.1" xmlns="http://www.w3.org/2000/svg" xlink="http://www.w3.org/1999/xlink" x="0px" y="0px" width="15px" height="16px" viewBox="0 0 15 16" style="enable-background:new 0 0 15 15;" space="preserve">
    <path d="M14.928125,5.815625L9.671875,0.571875c-0.096875,-0.096875,-0.25625,-0.096875,-0.353125,0l-1.0625,1.059375c-0.096875,0.096875,-0.096875,0.25625,0,0.353125l0.35,0.346875L1.03125,9.890625c-1.2125,1.209375,-1.409375,3.1875,-0.29375,4.484375c0.64375,0.75,1.546875,1.125,2.45,1.121875c0.825,0,1.65,-0.3125,2.278125,-0.940625l7.696875,-7.678125l0.35,0.346875c0.096875,0.096875,0.25625,0.096875,0.353125,0l1.0625,-1.059375c0.096875,-0.09375,0.096875,-0.253125,0,-0.35zM9.9375,8H5.03125l4.625,-4.615625l2.453125,2.446875L9.9375,8z" fill="#FFFFFF"/>
    </svg>