<svg version="1.1" xmlns="http://www.w3.org/2000/svg" xlink="http://www.w3.org/1999/xlink" x="0px" y="0px" width="15px" height="15px" viewBox="0 0 15 15" style="enable-background:new 0 0 15 15;" space="preserve">
    <path d="M14.79638671875,0.5595703125a0.46552734375000004,0.46552734375000004,0,0,0,-0.357421875,-0.357421875C13.49560546875,0,12.7576171875,0,12.022265625000001,0c-3.0234375,0,-4.8369140625,1.6171875,-6.19013671875,3.75H2.7793945312500004A1.40625,1.40625,0,0,0,1.5234375,4.526074218750001l-1.4478515625000001,2.89453125A0.703125,0.703125,0,0,0,0.70517578125,8.4375h3.04013671875l-0.6583007812499999,0.6583007812499999a0.9375,0.9375,0,0,0,0,1.32568359375l1.4912109375,1.49150390625a0.9375,0.9375,0,0,0,1.3259765625,0L6.5625,11.254687500000001V14.296875a0.703125,0.703125,0,0,0,1.0166015625,0.6295898437499999l2.8916015625,-1.44697265625a1.40361328125,1.40361328125,0,0,0,0.7763671875,-1.2568359375V9.16376953125c2.1266601562500003,-1.3564453125,3.75,-3.17578125,3.75,-6.18427734375c0.0029296875,-0.73828125,0.0029296875,-1.4765625,-0.20068359375,-2.419921875zM11.25,4.921875a1.171875,1.171875,0,1,1,1.171875,-1.171875a1.171875,1.171875,0,0,1,-1.171875,1.171875z" fill="#FFFFFF"/>
    </svg>