<svg version="1.1" xmlns="http://www.w3.org/2000/svg" xlink="http://www.w3.org/1999/xlink" x="0px" y="0px" width="14.53125px" height="15px" viewBox="0 0 14.53125 15" style="enable-background:new 0 0 15 15;" space="preserve">
    <path d="M7.265625,0.234375C3.25283203125,0.234375,0,3.48720703125,0,7.5s3.25283203125,7.265625,7.265625,7.265625s7.265625,-3.25283203125,7.265625,-7.265625S11.27841796875,0.234375,7.265625,0.234375zm0,11.015625c-0.51767578125,0,-0.9375,-0.41982421875,-0.9375,-0.9375s0.41982421875,-0.9375,0.9375,-0.9375s0.9375,0.41982421875,0.9375,0.9375s-0.41982421875,0.9375,-0.9375,0.9375zm0,-3.75c-1.5533203125000001,0,-2.8125,1.2591796874999999,-2.8125,2.8125s1.2591796874999999,2.8125,2.8125,2.8125c-3.1066406250000003,0,-5.625,-2.5183593749999997,-5.625,-5.625S4.158984375,1.875,7.265625,1.875c1.5533203125000001,0,2.8125,1.2591796874999999,2.8125,2.8125s-1.2591796874999999,2.8125,-2.8125,2.8125zm0,-3.75c-0.51767578125,0,-0.9375,0.41982421875,-0.9375,0.9375s0.41982421875,0.9375,0.9375,0.9375s0.9375,-0.41982421875,0.9375,-0.9375s-0.41982421875,-0.9375,-0.9375,-0.9375z" fill="#FFFFFF"/>
    </svg>