<svg version="1.1" xmlns="http://www.w3.org/2000/svg" xlink="http://www.w3.org/1999/xlink" x="0px" y="0px" width="15px" height="12px" viewBox="0 0 15 12" style="enable-background:new 0 0 15 15;" space="preserve"><path d="M14.625,9.75h-0.375c-0.6103125,0,-1.0734374999999998,-0.19734374999999998,-1.314609375,-0.41953124999999997c-0.20859375000000002,-0.19242187500000002,-0.46078125000000003,-0.33046875,-0.744609375,-0.33046875h-0.38203125000000004c-0.283828125,0,-0.536015625,0.13804687499999999,-0.744609375,0.33046875C10.8234375,9.55265625,10.360312500000001,9.75,9.75,9.75s-1.0734374999999998,-0.19734374999999998,-1.314609375,-0.41953124999999997c-0.20859375000000002,-0.19242187500000002,-0.46078125000000003,-0.33046875,-0.744609375,-0.33046875h-0.38203125000000004c-0.283828125,0,-0.536015625,0.13804687499999999,-0.744609375,0.33046875C6.323437500000001,9.55265625,5.8603125,9.75,5.25,9.75s-1.0734374999999998,-0.19734374999999998,-1.314609375,-0.41953124999999997c-0.20859375000000002,-0.19242187500000002,-0.46078125000000003,-0.33046875,-0.744609375,-0.33046875h-0.38203125000000004c-0.283828125,0,-0.536015625,0.13804687499999999,-0.744609375,0.33046875C1.8234374999999998,9.55265625,1.3603125,9.75,0.75,9.75H0.375c-0.2071875,0,-0.375,0.1678125,-0.375,0.375v0.75c0,0.2071875,0.1678125,0.375,0.375,0.375h0.375c0.9051562499999999,0,1.704375,-0.285703125,2.25,-0.74625c0.545625,0.46078125000000003,1.3448437500000001,0.74625,2.25,0.74625s1.704375,-0.285703125,2.25,-0.74625c0.545625,0.46078125000000003,1.3448437500000001,0.74625,2.25,0.74625s1.704375,-0.285703125,2.25,-0.74625c0.545625,0.46078125000000003,1.3448437500000001,0.74625,2.25,0.74625h0.375c0.2071875,0,0.375,-0.1678125,0.375,-0.375v-0.75c0,-0.2071875,-0.1678125,-0.375,-0.375,-0.375zm-9.375,-0.75v-2.25h4.5v2.25c0.448125,0,0.72328125,-0.144375,0.806015625,-0.22078124999999998c0.21492187499999998,-0.19828125000000002,0.44999999999999996,-0.33609374999999997,0.693984375,-0.423515625V3c0,-0.4134375,0.3365625,-0.75,0.75,-0.75s0.75,0.3365625,0.75,0.75v0.375c0,0.2071875,0.1678125,0.375,0.375,0.375h0.75c0.2071875,0,0.375,-0.1678125,0.375,-0.375v-0.375c0,-1.24078125,-1.00921875,-2.25,-2.25,-2.25s-2.25,1.00921875,-2.25,2.25v2.25H5.25v-2.25c0,-0.4134375,0.3365625,-0.75,0.75,-0.75s0.75,0.3365625,0.75,0.75v0.375c0,0.2071875,0.1678125,0.375,0.375,0.375h0.75c0.2071875,0,0.375,-0.1678125,0.375,-0.375v-0.375c0,-1.24078125,-1.00921875,-2.25,-2.25,-2.25s-2.25,1.00921875,-2.25,2.25v5.35546875c0.243984375,0.087421875,0.47906250000000006,0.22546875,0.693984375,0.423515625c0.082734375,0.076640625,0.357890625,0.221015625,0.806015625,0.221015625z" fill="#FFFFFF"/></svg>