<svg version="1.1" xmlns="http://www.w3.org/2000/svg" xlink="http://www.w3.org/1999/xlink" x="0px" y="0px" width="10.312499999999998px" height="15px" viewBox="0 0 10.312499999999998 15" style="enable-background:new 0 0 15 15;" space="preserve">
    <path d="M5.156249999999998,10.312499999999996c1.5533203124999997,0,2.8124999999999996,-1.2591796874999996,2.8124999999999996,-2.8124999999999996V2.8124999999999996c0,-1.5533203124999997,-1.2591796874999996,-2.8124999999999996,-2.8124999999999996,-2.8124999999999996S2.3437499999999996,1.2591796874999996,2.3437499999999996,2.8124999999999996v4.687499999999999c0,1.5533203124999997,1.2591796874999996,2.8124999999999996,2.8124999999999996,2.8124999999999996zm4.687499999999999,-4.687499999999999h-0.4687499999999999c-0.25898437499999993,0,-0.4687499999999999,0.20976562499999996,-0.4687499999999999,0.4687499999999999v1.4062499999999998c0,2.1914062499999996,-1.8893554687499994,3.9498046874999986,-4.124707031249999,3.731835937499999C2.833300781249999,11.041699218749997,1.4062499999999998,9.29033203125,1.4062499999999998,7.333007812499999V6.093749999999999c0,-0.25898437499999993,-0.20976562499999996,-0.4687499999999999,-0.4687499999999999,-0.4687499999999999H0.4687499999999999c-0.25898437499999993,0,-0.4687499999999999,0.20976562499999996,-0.4687499999999999,0.4687499999999999v1.1765624999999997c0,2.6261718749999994,1.8741210937499995,4.967285156249999,4.453124999999999,5.322949218749999V13.593749999999996H2.8124999999999996c-0.25898437499999993,0,-0.4687499999999999,0.20976562499999996,-0.4687499999999999,0.4687499999999999v0.4687499999999999c0,0.25898437499999993,0.20976562499999996,0.4687499999999999,0.4687499999999999,0.4687499999999999h4.687499999999999c0.25898437499999993,0,0.4687499999999999,-0.20976562499999996,0.4687499999999999,-0.4687499999999999v-0.4687499999999999c0,-0.25898437499999993,-0.20976562499999996,-0.4687499999999999,-0.4687499999999999,-0.4687499999999999h-1.6406249999999996v-0.9893554687499999C8.370410156249998,12.259863281249999,10.312499999999996,10.104492187499996,10.312499999999996,7.499999999999998v-1.4062499999999998c0,-0.25898437499999993,-0.20976562499999996,-0.4687499999999999,-0.4687499999999999,-0.4687499999999999z" fill="#FFFFFF"/>
    </svg>