<svg version="1.1" xmlns="http://www.w3.org/2000/svg" xlink="http://www.w3.org/1999/xlink" x="0px" y="0px" width="16.875px" height="15px" viewBox="0 0 16.875 15" style="enable-background:new 0 0 15 15;" space="preserve">
    <path d="M6.4136718749999995,9.855175781249999c1.02216796875,-1.02216796875,1.294921875,-1.7490234375,1.58349609375,-2.51953125c0.31083984374999996,-0.8288085937499999,0.63251953125,-1.6857421875,1.79794921875,-2.8517578125000003s2.02294921875,-1.4874023437500001,2.85205078125,-1.7982421875c0.699609375,-0.263671875,1.36640625,-0.51796875,2.2497070312500003,-1.32919921875L13.79326171875,0.26103515625a0.908203125,0.908203125,0,0,0,-1.1771484375,-0.08291015625c-0.39960937500000004,0.2958984375,-0.73681640625,0.42158203125000004,-1.201171875,0.5947265625C7.236328125,2.3296875,6.130664062499999,5.60419921875,5.87841796875,6.2724609375c-0.87158203125,2.30947265625,-2.62353515625,2.773828125,-2.8921875,2.8737304687500003c-0.7283203125,0.2712890625,-1.6034179687499999,0.5970703125,-2.66806640625,1.475390625C-0.087890625,10.95703125,-0.10634765624999999,11.572265625,0.26572265625,11.941699218750001l1.04765625,1.04033203125C2.34375,12.026953124999999,3.134765625,11.72314453125,3.896484375,11.437207031249999c0.76962890625,-0.28828125,1.4958984375000002,-0.56015625,2.5171875,-1.58203125zm10.1953125,-6.796875l-1.04736328125,-1.04033203125c-1.0309570312499998,0.9559570312500001,-1.8216796875,1.259765625,-2.58544921875,1.54658203125c-0.7693359375000001,0.28857421875,-1.4958984375000002,0.561328125,-2.51806640625,1.58203125s-1.2946289062499998,1.7487304687499998,-1.58203125,2.51953125C8.56435546875,8.49609375,8.242382812499999,9.3521484375,7.07666015625,10.517578125s-2.021484375,1.4862304687499999,-2.8505859375,1.796484375c-0.6990234375,0.263671875,-1.36552734375,0.5173828125,-2.24765625,1.3280273437499999l1.10390625,1.09658203125a0.908203125,0.908203125,0,0,0,1.1771484375,0.0826171875c0.3984375,-0.2947265625,0.73505859375,-0.4201171875,1.1994140624999998,-0.5929687499999999c4.166015625,-1.552734375,5.2734375,-4.8076171875,5.5353515625,-5.49873046875C11.865234375,6.4212890625000005,13.6171875,5.9560546875,13.88671875,5.8552734375c0.72861328125,-0.27158203124999997,1.6037109375,-0.59765625,2.66923828125,-1.47685546875c0.40693359375000004,-0.333984375,0.42539062499999997,-0.9506835937500001,0.0533203125,-1.31982421875z" fill="#FFFFFF"/>
    </svg>