<svg version="1.1" xmlns="http://www.w3.org/2000/svg" xlink="http://www.w3.org/1999/xlink" x="0px" y="0px" width="15px" height="12px" viewBox="0 0 15 12" style="enable-background:new 0 0 15 15;" space="preserve"><path d="M14.625,10.5h-1.875V2.658984375C12.75,2.020078125,12.245390625,1.5,11.625,1.5H9v1.5h2.25v9h3.375c0.2071875,0,0.375,-0.1678125,0.375,-0.375v-0.75c0,-0.2071875,-0.1678125,-0.375,-0.375,-0.375zM7.318125,0.023671875000000002l-4.5,1.16578125C2.4841406249999998,1.2759375,2.25,1.5867187500000002,2.25,1.9434375V10.5H0.375c-0.2071875,0,-0.375,0.1678125,-0.375,0.375v0.75c0,0.2071875,0.1678125,0.375,0.375,0.375h7.875V0.7776562499999999c0,-0.50578125,-0.45843749999999994,-0.8767968749999999,-0.931875,-0.753984375zM6.1875,6.75c-0.310546875,0,-0.5625,-0.335859375,-0.5625,-0.75s0.251953125,-0.75,0.5625,-0.75s0.5625,0.335859375,0.5625,0.75s-0.251953125,0.75,-0.5625,0.75z" fill="#FFFFFF"/></svg>