<svg version="1.1" xmlns="http://www.w3.org/2000/svg" xlink="http://www.w3.org/1999/xlink" x="0px" y="0px" width="15px" height="12px" viewBox="0 0 15 12" style="enable-background:new 0 0 15 15;" space="preserve">
    <path d="M2.625,0C2.00390625,0,1.5,0.50390625,1.5,1.125V2.25H0.375c-0.20625000000000002,0,-0.375,0.16875,-0.375,0.375s0.16875,0.375,0.375,0.375H1.5H6.375c0.20625000000000002,0,0.375,0.16875,0.375,0.375s-0.16875,0.375,-0.375,0.375H1.5H1.125c-0.20625000000000002,0,-0.375,0.16875,-0.375,0.375s0.16875,0.375,0.375,0.375H1.5H5.625c0.20625000000000002,0,0.375,0.16875,0.375,0.375s-0.16875,0.375,-0.375,0.375H1.5H0.375c-0.20625000000000002,0,-0.375,0.16875,-0.375,0.375s0.16875,0.375,0.375,0.375H1.5H4.875c0.20625000000000002,0,0.375,0.16875,0.375,0.375s-0.16875,0.375,-0.375,0.375H1.5V9.75c0,1.2421875,1.0078125,2.25,2.25,2.25s2.25,-1.0078125,2.25,-2.25H9c0,1.2421875,1.0078125,2.25,2.25,2.25s2.25,-1.0078125,2.25,-2.25h0.75c0.41484374999999996,0,0.75,-0.33515625000000004,0.75,-0.75s-0.33515625000000004,-0.75,-0.75,-0.75V6.75V6V5.561718750000001c0,-0.3984375,-0.15703125,-0.7804687499999999,-0.43828124999999996,-1.0617187499999998L12,2.68828125c-0.28125,-0.28125,-0.66328125,-0.43828124999999996,-1.0617187499999998,-0.43828124999999996H9.75V1.125c0,-0.62109375,-0.50390625,-1.125,-1.125,-1.125H2.625zM12.75,5.561718750000001V6H9.75V3.75h1.1882812500000002L12.75,5.561718750000001zM3.75,10.875c-0.62109375,0,-1.125,-0.50390625,-1.125,-1.125s0.50390625,-1.125,1.125,-1.125s1.125,0.50390625,1.125,1.125s-0.50390625,1.125,-1.125,1.125zm8.625,-1.125c0,0.62109375,-0.50390625,1.125,-1.125,1.125s-1.125,-0.50390625,-1.125,-1.125s0.50390625,-1.125,1.125,-1.125s1.125,0.50390625,1.125,1.125z" fill="#FFFFFF"/>
    </svg>