<svg version="1.1" xmlns="http://www.w3.org/2000/svg" xlink="http://www.w3.org/1999/xlink" x="0px" y="0px" width="16.875px" height="15px" viewBox="0 0 16.875 15" style="enable-background:new 0 0 15 15;" space="preserve">
    <path d="M12.1875,5.625c0,-2.58984375,-2.7275390625,-4.6875,-6.09375,-4.6875S0,3.03515625,0,5.625c0,1.0048828125,0.4130859375,1.9306640625000002,1.11328125,2.6953125c-0.392578125,0.884765625,-1.0400390625,1.587890625,-1.048828125,1.5966796875c-0.064453125,0.0673828125,-0.08203125,0.1669921875,-0.0439453125,0.2548828125S0.140625,10.3125,0.234375,10.3125c1.072265625,0,1.9599609375000002,-0.3603515625,2.5986328125,-0.732421875c0.9433593750000001,0.4599609375,2.0595703125,0.732421875,3.2607421875,0.732421875c3.3662109375,0,6.09375,-2.09765625,6.09375,-4.6875zm3.57421875,6.4453125c0.7001953125,-0.76171875,1.11328125,-1.6904296875,1.11328125,-2.6953125c0,-1.9599609375000002,-1.5673828125,-3.638671875,-3.7880859375000004,-4.3388671875c0.0263671875,0.193359375,0.0380859375,0.3896484375,0.0380859375,0.5888671875c0,3.1025390625,-3.1552734375,5.625,-7.03125,5.625c-0.31640625,0,-0.6240234375,-0.0234375,-0.9287109375,-0.0556640625C6.087890625,12.87890625,8.255859375,14.0625,10.78125,14.0625c1.201171875,0,2.3173828125,-0.26953125,3.2607421875,-0.732421875c0.638671875,0.3720703125,1.5263671875,0.732421875,2.5986328125,0.732421875c0.09375,0,0.1787109375,-0.0556640625,0.2138671875,-0.140625c0.0380859375,-0.0849609375,0.0205078125,-0.1845703125,-0.0439453125,-0.2548828125c-0.0087890625,-0.0087890625,-0.65625,-0.708984375,-1.048828125,-1.5966796875z" fill="#FFFFFF"/>
    </svg>