<svg version="1.1" xmlns="http://www.w3.org/2000/svg" xlink="http://www.w3.org/1999/xlink" x="0px" y="0px" width="18.75px" height="15px" viewBox="0 0 18.75 15" style="enable-background:new 0 0 15 15;" space="preserve">
    <path d="M6.5625,5.625c-1.0341796875,0,-1.875,0.8408203125,-1.875,1.875s0.8408203125,1.875,1.875,1.875s1.875,-0.8408203125,1.875,-1.875s-0.8408203125,-1.875,-1.875,-1.875zm11.71875,6.5625H11.150390625c1.2158203125,-1.1923828125,1.9746093750000002,-2.8505859375,1.9746093750000002,-4.6875c0,-3.6240234375,-2.9384765625,-6.5625,-6.5625,-6.5625S0,3.8759765625000004,0,7.5s2.9384765625,6.5625,6.5625,6.5625h11.71875c0.2578125,0,0.46875,-0.2109375,0.46875,-0.46875v-0.9375c0,-0.2578125,-0.2109375,-0.46875,-0.46875,-0.46875zm-11.71875,-1.875c-1.552734375,0,-2.8125,-1.259765625,-2.8125,-2.8125s1.259765625,-2.8125,2.8125,-2.8125s2.8125,1.259765625,2.8125,2.8125s-1.259765625,2.8125,-2.8125,2.8125z" fill="#FFFFFF"/>
    </svg>