<svg version="1.1" xmlns="http://www.w3.org/2000/svg" xlink="http://www.w3.org/1999/xlink" x="0px" y="0px" width="16.875px" height="15px" viewBox="0 0 16.875 15" style="enable-background:new 0 0 15 15;" space="preserve">
    <path d="M11.794921875,2.4375l2.642578125,2.642578125c0.111328125,0.111328125,0.111328125,0.29296875,0,0.404296875L8.0390625,11.8828125l-2.71875,0.3017578125c-0.36328125,0.041015625,-0.6708984375,-0.2666015625,-0.6298828125,-0.6298828125l0.3017578125,-2.71875L11.390625,2.4375c0.111328125,-0.111328125,0.29296875,-0.111328125,0.404296875,0zm4.74609375,-0.6708984375l-1.4296875,-1.4296875c-0.4453125,-0.4453125,-1.1689453125,-0.4453125,-1.6171875,0l-1.037109375,1.037109375c-0.111328125,0.111328125,-0.111328125,0.29296875,0,0.404296875l2.642578125,2.642578125c0.111328125,0.111328125,0.29296875,0.111328125,0.404296875,0l1.037109375,-1.037109375c0.4453125,-0.4482421875,0.4453125,-1.171875,0,-1.6171875zM11.25,10.142578125V13.125H1.875V3.75h6.732421875c0.09375,0,0.181640625,-0.0380859375,0.2490234375,-0.1025390625l1.171875,-1.171875c0.22265625,-0.22265625,0.064453125,-0.6005859375,-0.2490234375,-0.6005859375H1.40625C0.6298828125,1.875,0,2.5048828125,0,3.28125v10.3125c0,0.7763671875,0.6298828125,1.40625,1.40625,1.40625h10.3125c0.7763671875,0,1.40625,-0.6298828125,1.40625,-1.40625V8.970703125c0,-0.3134765625,-0.3779296875,-0.46875,-0.6005859375,-0.2490234375l-1.171875,1.171875c-0.064453125,0.0673828125,-0.1025390625,0.1552734375,-0.1025390625,0.2490234375z" fill="#FFFFFF"/>
    </svg>