<svg version="1.1" xmlns="http://www.w3.org/2000/svg" xlink="http://www.w3.org/1999/xlink" x="0px" y="0px" width="18.75px" height="15px" viewBox="0 0 18.75 15" style="enable-background:new 0 0 15 15;" space="preserve">
    <path d="M3.046875,2.8125H1.640625c-0.3896484375,0,-0.703125,0.3134765625,-0.703125,0.703125v3.046875H0.234375c-0.12890625,0,-0.234375,0.10546875,-0.234375,0.234375v1.40625c0,0.12890625,0.10546875,0.234375,0.234375,0.234375h0.703125v3.046875c0,0.3896484375,0.3134765625,0.703125,0.703125,0.703125h1.40625c0.3896484375,0,0.703125,-0.3134765625,0.703125,-0.703125V3.515625c0,-0.3896484375,-0.3134765625,-0.703125,-0.703125,-0.703125zm15.46875,3.75h-0.703125V3.515625c0,-0.3896484375,-0.3134765625,-0.703125,-0.703125,-0.703125h-1.40625c-0.3896484375,0,-0.703125,0.3134765625,-0.703125,0.703125v7.96875c0,0.3896484375,0.3134765625,0.703125,0.703125,0.703125h1.40625c0.3896484375,0,0.703125,-0.3134765625,0.703125,-0.703125V8.4375h0.703125c0.12890625,0,0.234375,-0.10546875,0.234375,-0.234375v-1.40625c0,-0.12890625,-0.10546875,-0.234375,-0.234375,-0.234375zM13.359375,0.9375h-1.40625c-0.3896484375,0,-0.703125,0.3134765625,-0.703125,0.703125v4.921875H7.5V1.640625c0,-0.3896484375,-0.3134765625,-0.703125,-0.703125,-0.703125h-1.40625c-0.3896484375,0,-0.703125,0.3134765625,-0.703125,0.703125v11.71875c0,0.3896484375,0.3134765625,0.703125,0.703125,0.703125h1.40625c0.3896484375,0,0.703125,-0.3134765625,0.703125,-0.703125V8.4375h3.75v4.921875c0,0.3896484375,0.3134765625,0.703125,0.703125,0.703125h1.40625c0.3896484375,0,0.703125,-0.3134765625,0.703125,-0.703125V1.640625c0,-0.3896484375,-0.3134765625,-0.703125,-0.703125,-0.703125z" fill="#FFFFFF"/>
    </svg>