<svg version="1.1" xmlns="http://www.w3.org/2000/svg" xlink="http://www.w3.org/1999/xlink" x="0px" y="0px" width="15px" height="12px" viewBox="0 0 15 12" style="enable-background:new 0 0 15 15;" space="preserve">
    <path d="M0.429375,5.99484375L4.5,5.2490625l-2.1393750000000002,1.609921875c-0.23625000000000002,0.23625000000000002,-0.06890625,0.6400781249999999,0.265078125,0.6400781249999999h5.219531249999999c-0.22125,-0.6187499999999999,-0.345234375,-1.276640625,-0.345234375,-1.95421875v-0.990703125l-2.806171875,-2.0531249999999996c-0.5582812500000001,-0.3721875,-1.295859375,-0.328359375,-1.80609375,0.107578125L0.136171875,5.3353125c-0.29015625,0.24210937500000002,-0.08085937500000001,0.71296875,0.293203125,0.65953125zm13.051640625000001,0.7992187500000001l-2.35921875,-1.179140625A1.1248125,1.1248125,0,0,1,10.5,4.608984375v-0.859921875h1.5l0.658359375,0.530390625c0.140625,0.140625,0.33140625,0.219609375,0.530390625,0.219609375h0.725859375a0.75,0.75,0,0,0,0.67078125,-0.41460937500000006l0.335390625,-0.67078125a0.7501171875000001,0.7501171875000001,0,0,0,-0.07078125,-0.785390625l-1.746796875,-2.32921875C12.96140625,0.11015625000000001,12.73921875,0,12.503203125,0H6.93796875c-0.167109375,0,-0.25078124999999996,0.200859375,-0.13265625,0.318984375L8.25,1.4990625L6.85359375,2.08125c-0.13828125000000002,0.06914062500000001,-0.13828125000000002,0.26625,0,0.335390625L8.25,2.9990625v2.54578125c0,1.689375,0.844453125,3.2669531249999997,2.25,4.20421875c-4.584140625,0.159609375,-8.075625,0.961171875,-10.174218750000001,1.427578125C0.13546875,11.218828125,0,11.387812499999999,0,11.5828125C0,11.8125,0.186328125,12,0.41625,12h11.6971875c1.483359375,0.000234375,2.803359375,-1.1146875,2.8825781249999998,-2.5959375000000002c0.059062500000000004,-1.108125,-0.532734375,-2.1187500000000004,-1.5150000000000001,-2.61zM11.46515625,1.552734375l1.069921875,0.26742187500000003c-0.064453125,0.25570312500000003,-0.29226562500000003,0.442734375,-0.565546875,0.42796875c-0.30375,-0.016640625,-0.6058593750000001,-0.29367187499999997,-0.504375,-0.695390625z" fill="#FFFFFF"/>
    </svg>