<svg version="1.1" xmlns="http://www.w3.org/2000/svg" xlink="http://www.w3.org/1999/xlink" x="0px" y="0px" width="18.75px" height="15px" viewBox="0 0 18.75 15" style="enable-background:new 0 0 15 15;" space="preserve">
    <path d="M17.8125,9.375h-1.875v1.875h0.65625c0.1552734375,0,0.28125,0.10546875,0.28125,0.234375v0.46875c0,0.12890625,-0.1259765625,0.234375,-0.28125,0.234375H2.15625c-0.1552734375,0,-0.28125,-0.10546875,-0.28125,-0.234375v-0.46875c0,-0.12890625,0.1259765625,-0.234375,0.28125,-0.234375H2.8125v-1.875H0.9375c-0.5185546875,0,-0.9375,0.4189453125,-0.9375,0.9375v2.8125c0,0.5185546875,0.4189453125,0.9375,0.9375,0.9375h16.875c0.5185546875,0,0.9375,-0.4189453125,0.9375,-0.9375v-2.8125c0,-0.5185546875,-0.4189453125,-0.9375,-0.9375,-0.9375zm-2.8125,1.875V1.8837890625c0,-0.5244140625,-0.4248046875,-0.9462890624999999,-0.9462890624999999,-0.9462890624999999H4.69921875C4.1748046875,0.9375,3.75,1.3623046875,3.75,1.8837890625V11.25h11.25zM6.1875,5.91796875l0.7470703125,-0.7412109375c0.123046875,-0.123046875,0.322265625,-0.123046875,0.4453125,0.0029296875l1.2099609375,1.21875l2.7890625,-2.765625c0.123046875,-0.123046875,0.322265625,-0.123046875,0.4453125,0.0029296875l0.7412109375,0.7470703125c0.123046875,0.123046875,0.123046875,0.322265625,-0.0029296875,0.4453125L8.8037109375,8.5546875c-0.123046875,0.123046875,-0.322265625,0.123046875,-0.4453125,-0.0029296875l-2.1708984375,-2.1884765625c-0.1259765625,-0.123046875,-0.123046875,-0.322265625,0,-0.4453125z" fill="#FFFFFF"/>
    </svg>