<svg version="1.1" xmlns="http://www.w3.org/2000/svg" xlink="http://www.w3.org/1999/xlink" x="0px" y="0px" width="10.3125px" height="15px" viewBox="0 0 10.3125 15" style="enable-background:new 0 0 15 15;" space="preserve">
    <path d="M6.0123046875,0.64716796875c-0.23261718750000002,-0.8431640625000001,-1.4484374999999998,-0.882421875,-1.7121093749999998,0C2.92998046875,5.26904296875,0,6.525,0,9.782519531250001C0,12.66650390625,2.30625,15,5.15625,15s5.15625,-2.33349609375,5.15625,-5.21748046875c0,-3.27392578125,-2.9235351562500003,-4.4923828125,-4.3001953125,-9.1353515625zM5.15625,13.125c-1.80908203125,0,-3.28125,-1.47216796875,-3.28125,-3.28125c0,-0.258984375,0.209765625,-0.46875,0.46875,-0.46875s0.46875,0.209765625,0.46875,0.46875c0,1.29228515625,1.05146484375,2.34375,2.34375,2.34375c0.258984375,0,0.46875,0.209765625,0.46875,0.46875s-0.209765625,0.46875,-0.46875,0.46875z" fill="#FFFFFF"/>
    </svg>