<svg version="1.1" xmlns="http://www.w3.org/2000/svg" xlink="http://www.w3.org/1999/xlink" x="0px" y="0px" width="15px" height="13.333333333333332px" viewBox="0 0 15 13.333333333333332" style="enable-background:new 0 0 15 15;" space="preserve">
    <path d="M14.375,1.6666666666666667H2.291666666666667c-0.3451822916666667,0,-0.625,0.2798177083333333,-0.625,0.625v0.20833333333333334H0.625c-0.3451822916666667,0,-0.625,0.2798177083333333,-0.625,0.625v7.083333333333334c0,0.8054166666666667,0.6529166666666667,1.4583333333333335,1.4583333333333335,1.4583333333333335h12.291666666666668c0.6903645833333334,0,1.25,-0.5596354166666666,1.25,-1.25V2.291666666666667c0,-0.3451822916666667,-0.2798177083333333,-0.625,-0.625,-0.625zM1.4583333333333335,10.416666666666668a0.20833333333333334,0.20833333333333334,0,0,1,-0.20833333333333334,-0.20833333333333334V3.75h0.4166666666666667v6.458333333333334a0.20833333333333334,0.20833333333333334,0,0,1,-0.20833333333333334,0.20833333333333334zm6.145833333333334,-0.4166666666666667H3.6458333333333335c-0.172578125,0,-0.3125,-0.139921875,-0.3125,-0.3125v-0.20833333333333334c0,-0.172578125,0.139921875,-0.3125,0.3125,-0.3125h3.9583333333333335c0.172578125,0,0.3125,0.139921875,0.3125,0.3125v0.20833333333333334c0,0.172578125,-0.139921875,0.3125,-0.3125,0.3125zm5.416666666666667,0H9.0625c-0.172578125,0,-0.3125,-0.139921875,-0.3125,-0.3125v-0.20833333333333334c0,-0.172578125,0.139921875,-0.3125,0.3125,-0.3125h3.9583333333333335c0.172578125,0,0.3125,0.139921875,0.3125,0.3125v0.20833333333333334c0,0.172578125,-0.139921875,0.3125,-0.3125,0.3125zm-5.416666666666667,-2.5H3.6458333333333335c-0.172578125,0,-0.3125,-0.139921875,-0.3125,-0.3125v-0.20833333333333334c0,-0.172578125,0.139921875,-0.3125,0.3125,-0.3125h3.9583333333333335c0.172578125,0,0.3125,0.139921875,0.3125,0.3125v0.20833333333333334c0,0.172578125,-0.139921875,0.3125,-0.3125,0.3125zm5.416666666666667,0H9.0625c-0.172578125,0,-0.3125,-0.139921875,-0.3125,-0.3125v-0.20833333333333334c0,-0.172578125,0.139921875,-0.3125,0.3125,-0.3125h3.9583333333333335c0.172578125,0,0.3125,0.139921875,0.3125,0.3125v0.20833333333333334c0,0.172578125,-0.139921875,0.3125,-0.3125,0.3125zm0,-2.5H3.6458333333333335c-0.172578125,0,-0.3125,-0.139921875,-0.3125,-0.3125v-1.0416666666666667c0,-0.172578125,0.139921875,-0.3125,0.3125,-0.3125h9.375c0.172578125,0,0.3125,0.139921875,0.3125,0.3125v1.0416666666666667c0,0.172578125,-0.139921875,0.3125,-0.3125,0.3125z" fill="#FFFFFF"/>
    </svg>