<svg version="1.1" xmlns="http://www.w3.org/2000/svg" xlink="http://www.w3.org/1999/xlink" x="0px" y="0px" width="15px" height="13.333333333333332px" viewBox="0 0 15 13.333333333333332" style="enable-background:new 0 0 15 15;" space="preserve">
    <path d="M14.997916666666665,1.9947916666666665c-0.00026041666666666666,-0.21171875,-0.07864583333333332,-0.41328124999999993,-0.22343749999999996,-0.5677083333333333c-0.09843749999999998,-0.10494791666666667,-0.22343749999999996,-0.23749999999999996,-0.35651041666666666,-0.37760416666666663c0.28802083333333334,-0.17812499999999998,0.5078125,-0.4554687499999999,0.5776041666666666,-0.7984374999999999C15.022135416666666,0.12187499999999997,14.920833333333334,0,14.7890625,0H11.664583333333333c-1.8408854166666664,0,-3.333333333333333,1.4924479166666667,-3.333333333333333,3.333333333333333H4.166666666666666c-0.7510416666666667,0,-1.4166666666666665,0.3380208333333333,-1.875,0.8622395833333333V4.166666666666666c-1.2638020833333334,0,-2.2916666666666665,1.0278645833333333,-2.2916666666666665,2.2916666666666665v1.4583333333333333c0,0.23020833333333332,0.18645833333333334,0.41666666666666663,0.41666666666666663,0.41666666666666663h0.41666666666666663c0.23020833333333332,0,0.41666666666666663,-0.18645833333333334,0.41666666666666663,-0.41666666666666663v-1.4583333333333333c0,-0.34427083333333336,0.17890625,-0.63515625,0.4369791666666667,-0.825c-0.00546875,0.0671875,-0.0203125,0.13151041666666666,-0.0203125,0.19999999999999996c0,0.7197916666666667,0.3083333333333333,1.3635416666666667,0.7953124999999999,1.8197916666666663l-0.6697916666666666,1.7864583333333333a1.6652343749999998,1.6652343749999998,0,0,0,-0.05625000000000001,0.9893229166666666l0.6471354166666666,2.588802083333333A0.4161979166666666,0.4161979166666666,0,0,0,2.7869791666666663,13.333333333333332h1.717708333333333c0.27109375,0,0.4700520833333333,-0.25468749999999996,0.4041666666666666,-0.5177083333333333l-0.6851562499999999,-2.7411458333333334l0.6208333333333333,-1.6559895833333333L8.333333333333332,9V12.916666666666666c0,0.23020833333333332,0.18645833333333334,0.41666666666666663,0.41666666666666663,0.41666666666666663h1.6666666666666665c0.23020833333333332,0,0.41666666666666663,-0.18645833333333334,0.41666666666666663,-0.41666666666666663V8.286979166666667c0.5140624999999999,-0.52578125,0.8333333333333333,-1.2434895833333333,0.8333333333333333,-2.0369791666666663c0,-0.005729166666666666,-0.0018229166666666667,-0.0109375,-0.0020833333333333333,-0.016666666666666666V3.5648437499999996l0.41666666666666663,0.18515625l0.4921875,0.9817708333333333c0.19401041666666666,0.3872395833333333,0.65234375,0.5611979166666666,1.0544270833333333,0.4002604166666666l0.8476562499999999,-0.33906249999999993a0.8332552083333332,0.8332552083333332,0,0,0,0.5239583333333333,-0.7744791666666666l-0.0015624999999999997,-2.0236979166666664zm-1.6666666666666665,0.5052083333333333c-0.23020833333333332,0,-0.41666666666666663,-0.18645833333333334,-0.41666666666666663,-0.41666666666666663s0.18645833333333334,-0.41666666666666663,0.41666666666666663,-0.41666666666666663s0.41666666666666663,0.18645833333333334,0.41666666666666663,0.41666666666666663s-0.18645833333333334,0.41666666666666663,-0.41666666666666663,0.41666666666666663z" fill="#FFFFFF"/>
    </svg>