<svg version="1.1" xmlns="http://www.w3.org/2000/svg" xlink="http://www.w3.org/1999/xlink" x="0px" y="0px" width="15px" height="13.333333333333332px" viewBox="0 0 15 13.333333333333332" style="enable-background:new 0 0 15 15;" space="preserve">
    <path d="M14.583333333333332,4.166666666666666c0.2708333333333333,0,0.46875,-0.2552083333333333,0.4036458333333333,-0.5182291666666666l-0.625,-2.5C14.315104166666666,0.9635416666666666,14.148437499999998,0.8333333333333333,13.958333333333332,0.8333333333333333h-2.575520833333333l0.6666666666666666,3.333333333333333H14.583333333333332zM7.083333333333333,0.8333333333333333H4.466145833333333l-0.6666666666666666,3.333333333333333H7.083333333333333V0.8333333333333333zm3.450520833333333,0H7.916666666666666v3.333333333333333h3.2838541666666665L10.533854166666666,0.8333333333333333zM0.41666666666666663,4.166666666666666h2.5338541666666665l0.6666666666666666,-3.333333333333333H1.0416666666666665c-0.19010416666666666,0,-0.3567708333333333,0.13020833333333331,-0.4036458333333333,0.31510416666666663l-0.625,2.5C-0.05208333333333333,3.911458333333333,0.14583333333333331,4.166666666666666,0.41666666666666663,4.166666666666666zm14.166666666666666,1.6666666666666665h-0.5208333333333333l0.10416666666666666,-0.8333333333333333H0.8333333333333333l0.10416666666666666,0.8333333333333333H0.41666666666666663c-0.22916666666666666,0,-0.41666666666666663,0.1875,-0.41666666666666663,0.41666666666666663v0.8333333333333333c0,0.22916666666666666,0.1875,0.41666666666666663,0.41666666666666663,0.41666666666666663h0.7291666666666666l0.5208333333333333,4.166666666666666v0.41666666666666663c0,0.22916666666666666,0.1875,0.41666666666666663,0.41666666666666663,0.41666666666666663h0.8333333333333333c0.22916666666666666,0,0.41666666666666663,-0.1875,0.41666666666666663,-0.41666666666666663v-0.41666666666666663h8.333333333333332v0.41666666666666663c0,0.22916666666666666,0.1875,0.41666666666666663,0.41666666666666663,0.41666666666666663h0.8333333333333333c0.22916666666666666,0,0.41666666666666663,-0.1875,0.41666666666666663,-0.41666666666666663v-0.41666666666666663l0.5208333333333333,-4.166666666666666h0.7291666666666666c0.22916666666666666,0,0.41666666666666663,-0.1875,0.41666666666666663,-0.41666666666666663v-0.8333333333333333c0,-0.22916666666666666,-0.1875,-0.41666666666666663,-0.41666666666666663,-0.41666666666666663z" fill="#FFFFFF"/>
    </svg>