<svg version="1.1" xmlns="http://www.w3.org/2000/svg" xlink="http://www.w3.org/1999/xlink" x="0px" y="0px" width="15px" height="13.333333333333332px" viewBox="0 0 15 13.333333333333332" style="enable-background:new 0 0 15 15;" space="preserve">
    <path d="M4.768229166666667,6.127604166666667c0.8776041666666667,0.5390625,1.6380208333333333,1.2526041666666667,2.234375,2.096354166666667c0.18229166666666669,0.2578125,0.34895833333333337,0.5286458333333334,0.49739583333333337,0.8072916666666667c0.1484375,-0.28125000000000006,0.3151041666666667,-0.5494791666666667,0.49739583333333337,-0.8072916666666667c0.5963541666666666,-0.84375,1.3567708333333335,-1.5572916666666667,2.234375,-2.096354166666667C11.395833333333334,5.411458333333334,12.763020833333334,5,14.21875,5h0.2578125c0.2890625,0,0.5234375000000001,0.234375,0.5234375000000001,0.5234375000000001C15,9.377604166666668,11.877604166666668,12.5,8.023437500000002,12.5H7.5H6.9765625C3.1223958333333335,12.5,0,9.377604166666668,0,5.5234375C0,5.234375,0.234375,5,0.5234375000000001,5H0.78125c1.4557291666666667,0,2.822916666666667,0.41145833333333337,3.9869791666666665,1.1276041666666667zM7.8515625,0.9791666666666667c0.4088541666666667,0.44010416666666663,1.5911458333333335,1.8697916666666667,2.197916666666667,4.286458333333333c-0.9895833333333334,0.5625000000000001,-1.8593750000000002,1.3229166666666667,-2.549479166666667,2.2291666666666665c-0.6901041666666667,-0.90625,-1.5598958333333333,-1.6640625,-2.549479166666667,-2.2291666666666665c0.6041666666666666,-2.4166666666666665,1.7864583333333333,-3.8463541666666665,2.197916666666667,-4.286458333333333C7.239583333333334,0.8828125,7.3671875,0.8333333333333334,7.5,0.8333333333333334s0.2604166666666667,0.049479166666666664,0.3515625,0.14583333333333334z" fill="#FFFFFF"/>
    </svg>