<svg version="1.1" xmlns="http://www.w3.org/2000/svg" xlink="http://www.w3.org/1999/xlink" x="0px" y="0px" width="15px" height="12px" viewBox="0 0 15 12" style="enable-background:new 0 0 15 15;" space="preserve"><path d="M2.70421875,3.2085937500000004l2.393203125,0.8714062499999999c0.824765625,-1.91109375,2.020546875,-3.381796875,3.2578125,-4.071093749999999c-2.2471875,-0.11460937499999999,-4.42453125,0.86625,-5.824921875,2.6203125c-0.156796875,0.19687500000000002,-0.06234375,0.49335937500000004,0.17390624999999998,0.579375zm3.099609375,1.12875l5.5893749999999995,2.035078125c0.838125,-2.84484375,0.43828124999999996,-5.42953125,-0.9991406250000001,-5.9526562499999995c-0.17343750000000002,-0.06328125000000001,-0.354609375,-0.09375,-0.541171875,-0.09375c-1.35984375,0.000234375,-3.0063281250000005,1.621171875,-4.0490625,4.011328125zM12.2221875,1.41796875c0.14578125,0.38203125000000004,0.253828125,0.8109375000000001,0.30937499999999996,1.293515625c0.13453125,1.1692968750000001,-0.03328125,2.536640625,-0.44414062499999996,3.9135937499999995l2.40515625,0.875625c0.236484375,0.086015625,0.49945312499999994,-0.08039062500000001,0.5055468750000001,-0.332109375c0.05437499999999999,-2.242734375,-0.9822656249999999,-4.3931249999999995,-2.7759375,-5.750625zM13.125,10.49953125H7.5248437500000005L9.046875,6.31640625l-1.4095312500000001,-0.5132812499999999l-1.7085937500000001,4.696171875H0.375c-0.2071875,0,-0.375,0.1678125,-0.375,0.375234375v0.750234375C0,11.831953125,0.1678125,12,0.375,12h12.75c0.2071875,0,0.375,-0.16804687499999998,0.375,-0.375234375v-0.750234375c0,-0.2071875,-0.1678125,-0.375,-0.375,-0.375z" fill="#FFFFFF"/></svg>