<svg version="1.1" xmlns="http://www.w3.org/2000/svg" xlink="http://www.w3.org/1999/xlink" x="0px" y="0px" width="15px" height="15.483870967741936px" viewBox="0 0 15 15.483870967741936" style="enable-background:new 0 0 15 15;" space="preserve">
    <path d="M7.5,0.24193548387096775C3.3568548387096775,0.24193548387096775,0,3.5987903225806455,0,7.741935483870968s3.3568548387096775,7.5,7.5,7.5s7.5,-3.3568548387096775,7.5,-7.5S11.643145161290322,0.24193548387096775,7.5,0.24193548387096775zm0.7258064516129032,6.030241935483871c0.09979838709677419,-1.2731854838709677,0.9737903225806452,-2.1592741935483875,1.6935483870967742,-2.1592741935483875s1.5937500000000002,0.8860887096774194,1.6935483870967742,2.1592741935483875c0.021169354838709676,0.2600806451612903,-0.3266129032258065,0.35987903225806456,-0.45060483870967744,0.13608870967741937l-0.2872983870967742,-0.5141129032258065c-0.23286290322580647,-0.41431451612903225,-0.5806451612903226,-0.653225806451613,-0.9526209677419355,-0.653225806451613s-0.7197580645161291,0.23891129032258066,-0.9526209677419355,0.653225806451613l-0.2872983870967742,0.5141129032258065c-0.12701612903225806,0.22379032258064518,-0.4778225806451613,0.12399193548387095,-0.4566532258064516,-0.13608870967741937zm-4.838709677419355,0c0.09979838709677419,-1.2731854838709677,0.9737903225806452,-2.1592741935483875,1.6935483870967742,-2.1592741935483875s1.5937500000000002,0.8860887096774194,1.6935483870967742,2.1592741935483875c0.021169354838709676,0.2600806451612903,-0.3266129032258065,0.35987903225806456,-0.45060483870967744,0.13608870967741937l-0.2872983870967742,-0.5141129032258065c-0.23286290322580647,-0.41431451612903225,-0.5806451612903226,-0.653225806451613,-0.9526209677419355,-0.653225806451613s-0.7197580645161291,0.23891129032258066,-0.9526209677419355,0.653225806451613l-0.2872983870967742,0.5141129032258065c-0.13004032258064516,0.22379032258064518,-0.4778225806451613,0.12096774193548387,-0.4566532258064516,-0.13608870967741937zM12.063508064516128,9.254032258064516C11.794354838709678,11.401209677419356,9.961693548387096,13.064516129032258,7.741935483870968,13.064516129032258h-0.4838709677419355c-2.2197580645161294,0,-4.05241935483871,-1.6633064516129032,-4.321572580645162,-3.810483870967742c-0.036290322580645164,-0.2872983870967742,0.1905241935483871,-0.5443548387096775,0.48084677419354843,-0.5443548387096775h8.165322580645162c0.2903225806451613,0,0.5171370967741936,0.2540322580645161,0.48084677419354843,0.5443548387096775z" fill="#FFFFFF"/>
    </svg>