<svg version="1.1" xmlns="http://www.w3.org/2000/svg" xlink="http://www.w3.org/1999/xlink" x="0px" y="0px" width="15px" height="15px" viewBox="0 0 15 15" style="enable-background:new 0 0 15 15;" space="preserve">
    <path d="M7.625,12.875L4.875,10.125L10.125,4.875L12.875,7.625z" fill="#FFFFFF"/> <path d="M4.875,10.125L2.125,7.375L7.375,2.125L10.125,4.875z" fill="#FFFFFF"/> <path d="M5,10.25L7.625,7.625L10.25,5" fill="#FFFFFF"/> <path d="M5,10.25L7.625,7.625L10.25,5" fill="#FFFFFF"/> <path d="M5.75,10C5.75,10.41425,5.41425,10.75,5,10.75C4.58575,10.75,4.25,10.41425,4.25,10C4.25,9.58575,4.58575,9.25,5,9.25C5.41425,9.25,5.75,9.58575,5.75,10z" fill="#FFFFFF"/> <path d="M5.5,10C5.5,10.27625,5.27625,10.5,5,10.5C4.72375,10.5,4.5,10.27625,4.5,10C4.5,9.72375,4.72375,9.5,5,9.5C5.27625,9.5,5.5,9.72375,5.5,10z" fill="#FFFFFF"/> <path d="M10.75,5C10.75,5.41425,10.41425,5.75,10,5.75C9.58575,5.75,9.25,5.41425,9.25,5C9.25,4.58575,9.58575,4.25,10,4.25C10.41425,4.25,10.75,4.58575,10.75,5z" fill="#FFFFFF"/> <path d="M10.5,5C10.5,5.27625,10.27625,5.5,10,5.5C9.72375,5.5,9.5,5.27625,9.5,5C9.5,4.72375,9.72375,4.5,10,4.5C10.27625,4.5,10.5,4.72375,10.5,5z" fill="#FFFFFF"/> <path d="M8.25,7.5C8.25,7.91425,7.91425,8.25,7.5,8.25C7.08575,8.25,6.75,7.91425,6.75,7.5C6.75,7.08575,7.08575,6.75,7.5,6.75C7.91425,6.75,8.25,7.08575,8.25,7.5z" fill="#FFFFFF"/> <path d="M8,7.5C8,7.77625,7.77625,8,7.5,8C7.22375,8,7,7.77625,7,7.5C7,7.22375,7.22375,7,7.5,7C7.77625,7,8,7.22375,8,7.5z" fill="#FFFFFF"/>
    </svg>