<svg version="1.1" xmlns="http://www.w3.org/2000/svg" xlink="http://www.w3.org/1999/xlink" x="0px" y="0px" width="15px" height="15px" viewBox="0 0 15 15" style="enable-background:new 0 0 15 15;" space="preserve"><path d="M7.625 12.875 4.875 10.125 10.125 4.875 12.875 7.625zM4.875 10.125 2.125 7.375 7.375 2.125 10.125 4.875zM5 10.25 7.625 7.625 10.25 5M5 10.25 7.625 7.625 10.25 5M5.75 10C5.75 10.41425 5.41425 10.75 5 10.75 4.58575 10.75 4.25 10.41425 4.25 10 4.25 9.58575 4.58575 9.25 5 9.25 5.41425 9.25 5.75 9.58575 5.75 10zM5.5 10C5.5 10.27625 5.27625 10.5 5 10.5 4.72375 10.5 4.5 10.27625 4.5 10 4.5 9.72375 4.72375 9.5 5 9.5 5.27625 9.5 5.5 9.72375 5.5 10zM10.75 5C10.75 5.41425 10.41425 5.75 10 5.75 9.58575 5.75 9.25 5.41425 9.25 5 9.25 4.58575 9.58575 4.25 10 4.25 10.41425 4.25 10.75 4.58575 10.75 5zM10.5 5C10.5 5.27625 10.27625 5.5 10 5.5 9.72375 5.5 9.5 5.27625 9.5 5 9.5 4.72375 9.72375 4.5 10 4.5 10.27625 4.5 10.5 4.72375 10.5 5zM8.25 7.5C8.25 7.91425 7.91425 8.25 7.5 8.25 7.08575 8.25 6.75 7.91425 6.75 7.5 6.75 7.08575 7.08575 6.75 7.5 6.75 7.91425 6.75 8.25 7.08575 8.25 7.5zM8 7.5C8 7.77625 7.77625 8 7.5 8 7.22375 8 7 7.77625 7 7.5 7 7.22375 7.22375 7 7.5 7 7.77625 7 8 7.22375 8 7.5z" fill="#FFFFFF"/></svg>