<svg version="1.1" xmlns="http://www.w3.org/2000/svg" xlink="http://www.w3.org/1999/xlink" x="0px" y="0px" width="13.5px" height="15px" viewBox="0 0 13.5 15" style="enable-background:new 0 0 15 15;" space="preserve">
    <path d="M1.9576271,4.2635593L0.45762712,10.863559H2.7076271l0.9,-6.5999997zm2.1,0l-0.75,6.5999997h2.85l0.15,-6.5999997zm2.55,0l0.15,6.5999997h2.7l-0.75,-6.5999997zm2.55,0l0.8999999,6.5999997h2.4l-1.65,-6.5999997z" fill="#FFFFFF"/> <path d="m9.9826271,6.0635593l-0.225,-1.2h0.8624999l0.225,1.2zm-1.425,3.9l-0.15,-1.2h-0.9l0.15,1.2zm-7.05,0l0.15,-1.2h0.9l-0.15,1.2zm2.925,-3.9l0.0936,-1.2h0.8628l-0.0939,1.2z" fill="#FFFFFF"/>
    </svg>