<svg version="1.1" xmlns="http://www.w3.org/2000/svg" xlink="http://www.w3.org/1999/xlink" x="0px" y="0px" width="13.5px" height="15px" viewBox="0 0 13.5 15" style="enable-background:new 0 0 15 15;" space="preserve">
    <path d="M5.3554108,4.2635593L0.43983051,11.473078H4.0445894L4.3211727,10.817667H4.9660968L4.7000001,11.473078H8.3047589L8.6835863,8.9743236C8.2130014,8.5342154,7.6493482,7.9315652,7.6493482,7.5406128V6.8852021L8.9293653,7.3767601L9.4006056,4.2635593H7.6493482L7.2498754,5.2466753H6.6865499L7.1066682,4.2635593ZM6.5535015,5.5743807H7.116827L6.7071953,6.5574967H6.133711ZM5.990176,6.8852021H6.574147L6.1746742,7.8683181H5.5805444ZM5.4373371,8.1960235H6.0416258L5.642153,9.1791395H5.0175466ZM4.8841705,9.5068448H5.5091046L5.0994729,10.489962H4.46438Z" fill="#FFFFFF"/> <path d="M7.1577902,10.489962L7.5674219,9.1791395H6.5843058L6.1746742,10.489962ZM4.5361474,6.5574967L5.1915581,5.410528H6.1746742L5.5192635,6.5574967Z" fill="#FFFFFF"/> <path d="m10.270991,11.473078v-1.310822c0,-1.4589447,-2.6216428,-1.9098672,-2.6216428,-3.2770539c0,-0.9831161,0.1228895,-2.6216428,0.1228895,-2.6216428h1.6385267c0,0,-0.1228895,1.3095106,-0.1228895,1.9662321c0,0.6554107,2.8166271,1.3344161,3.2770531,2.6216427l0.65541,2.6216439z" fill="#FFFFFF"/>
    </svg>