<svg version="1.1" xmlns="http://www.w3.org/2000/svg" xlink="http://www.w3.org/1999/xlink" x="0px" y="0px" width="13.5px" height="15px" viewBox="0 0 13.5 15" style="enable-background:new 0 0 15 15;" space="preserve"><path d="M1.9354391 4.2635593.49322034 10.609323H2.9449923L3.8103235 4.2635593Zm2.3075501 0-.7211094 6.3457637H5.9736517L6.2620955 4.2635593Zm3.1728813 0 .2884438 6.3457637H9.8676425L9.1465331 4.2635593Zm2.1633282 0 .8653313 6.3457637h2.740215l-1.58644-6.3457637zM10.516641 5.9942219 10.300308 4.8404468h.829276l.216332 1.1537751zM9.1465331 9.7439911 9.0023112 8.5902157H8.1369799l.1442219 1.1537754zm-7.6437596 0 .1442218-1.1537754H2.5123266L2.3681047 9.7439911ZM4.8919876 5.9942219 4.9819821 4.8404468h.8295642l-.090283 1.1537751z" fill="#FFFFFF"/></svg>