<svg version="1.1" xmlns="http://www.w3.org/2000/svg" xlink="http://www.w3.org/1999/xlink" x="0px" y="0px" width="13.5px" height="15px" viewBox="0 0 13.5 15" style="enable-background:new 0 0 15 15;" space="preserve">
    <path d="M4.6705049,6.0613486L3.8636192,7.7452838H3.4075535L3.1268976,8.0259396V8.5872513H3.5214997L3.4075535,8.8679072v1.4032788v0.280656v0c0,0,0.1706387,0.170639,0.2806558,0.280657h0.2806559h1.1226234l0.5613118,0.280655h2.2452468l0.5613117,-0.280655h1.122624h0.2806556l0.2806555,-0.280657v0v-0.280656v-1.4032788L10.029348,8.5872513H10.42395V8.0259396L10.143294,7.7452838H9.6872282L8.8803427,6.0613486ZM4.9511607,6.9033162H8.5996868L9.0206706,8.0259396L8.7400147,8.3065955H4.8108328L4.5301769,8.0259396ZM4.2495211,9.1485631H5.0914886L5.3721445,9.7098747V9.9905305H4.2495211L3.9688652,9.7098747V9.4292188Zm4.2098378,0H9.3013261L9.5819829,9.4292188V9.7098747L9.3013261,9.9905305H8.178703V9.7098747ZM3.6882093,11.113154v0.561311l0.2806559,0.280656h0.8419676l0.2806558,-0.280656v-0.561311zm4.7711496,0v0.561311l0.2806558,0.280656h0.8419682l0.2806556,-0.280656v-0.561311z" fill="#FFFFFF"/> <path d="m10.143294,5.219381l1.122624,0.4209838v5.0167232l1.96459,0.736722V7.9206936L12.38854,7.6049558V6.4823324l0.280657,0.1052464l0.561311,0.2104919V6.4823324V3.8161017Z" fill="#FFFFFF"/> <path d="m10.704605,11.007908v0.420984l1.40328,0.526229h1.122623z" fill="#FFFFFF"/> <path d="m2.8462418,11.007908v0.420984L1.4429624,11.955121H0.32033898Z" fill="#FFFFFF"/> <path d="M3.4075535,5.219381L2.28493,5.6403648V10.657088L0.32033898,11.39381V7.9206936L1.1623066,7.6049558V6.4823324L0.8816507,6.5875784L0.32033898,6.7980702V6.4823324V3.8161017Z" fill="#FFFFFF"/>
    </svg>