<svg version="1.1" xmlns="http://www.w3.org/2000/svg" xlink="http://www.w3.org/1999/xlink" x="0px" y="0px" width="13.5px" height="15px" viewBox="0 0 13.5 15" style="enable-background:new 0 0 15 15;" space="preserve">
    <path d="M4.18311,5.6847217L3.4430499,7.2291951H3.0247551L2.7673428,7.4866074V8.0014318H3.1292643L3.0247549,8.2588441v1.2870613v0.2574122v0c0,0,0.1565065,0.1565066,0.2574122,0.2574124h0.2574124h1.0296489l0.5148245,0.257412H7.143351L7.6581755,10.06073H8.6878244H8.9452367L9.2026488,9.8033176v0V9.5459054V8.2588441L9.0981396,8.0014318H9.4600617V7.4866074L9.2026488,7.2291951H8.784354L8.0442939,5.6847217ZM4.4405224,6.4569585H7.7868815L8.1729999,7.4866074L7.9155877,7.7440196H4.3118162L4.054404,7.4866074ZM3.7969917,8.5162563H4.5692284L4.8266407,9.0310808V9.2884931H3.7969917L3.5395795,9.0310808V8.7736686Zm3.8611838,0H8.4304122L8.6878244,8.7736686V9.0310808L8.4304122,9.2884931H7.4007632V9.0310808ZM3.2821672,10.318142v0.514825l0.2574123,0.257412h0.7722367l0.2574122,-0.257412v-0.514825zm4.3760083,0v0.514825l0.2574122,0.257412h0.7722367l0.2574123,-0.257412v-0.514825z" fill="#FFFFFF"/> <path d="m2.5099306,10.221612v0.386119L1.2228693,11.090379H0.19322034Z" fill="#FFFFFF"/> <path d="M3.0247551,4.9124849L1.995106,5.2986033V9.8998471L0.19322034,10.575554V7.3900778L0.96545706,7.1004889V6.0708401L0.70804486,6.1673691L0.19322034,6.3604282V6.0708401V3.6254237Z" fill="#FFFFFF"/> <path d="m11.261946,4.1402482l-0.257411,0.2574122v0.5148245l0.257411,0.2574123h0.514825L12.034183,4.9124849V4.3976604L11.776771,4.1402482ZM11.004535,5.4273094L10.747122,5.6847217L9.4600617,6.9717829h0.6435293l0.643531,-0.6435306v1.1583551v1.8018857h0.257413L11.261946,9.0310808V7.4866074h0.563219l0.209018,1.0296489h0.514825h0.514824L13.321245,8.2588441V8.0014318H12.444498L12.291596,7.2291951V5.6847217L12.034183,5.4273094ZM9.8461796,8.2588441c-0.2131372,0,-0.3861179,0.1729811,-0.3861179,0.3861184c0,0.2131373,0.1729807,0.3861183,0.3861179,0.3861183c0.2131374,0,0.3861184,-0.172981,0.3861184,-0.3861183c0,-0.2131373,-0.172981,-0.3861184,-0.3861184,-0.3861184z" fill="#FFFFFF"/> <path d="m9.7174732,10.221612v0.386119l1.2870618,0.482648h1.029648z" fill="#FFFFFF"/>
    </svg>