<svg version="1.1" xmlns="http://www.w3.org/2000/svg" xlink="http://www.w3.org/1999/xlink" x="0px" y="0px" width="13.5px" height="15px" viewBox="0 0 13.5 15" style="enable-background:new 0 0 15 15;" space="preserve"><path d="m8.0389831 4.2-2.7 6.6h3.3l.3468-2.2875C8.5549831 8.1096 8.0389831 7.5579 8.0389831 7.2V6.6l1.1718.45.4314-2.85zM10.438983 10.8V9.6c0-1.3356-2.3999999-1.7484-2.3999999-3 0-.9.1125-2.4.1125-2.4h1.5c0 0-.1125 1.1988-.1125 1.8 0 .6 2.5784999 1.2216 2.9999999 2.4l.6 2.4zM3.5389831 10.8l3.4077-6.6h-1.6077l-5.10000005 6.6zM7.5889831 9.9l.375-1.2h-.9l-.375 1.2zm-3-3.6.6-1.05h.9l-.6 1.05z" fill="#FFFFFF"/></svg>