<svg version="1.1" xmlns="http://www.w3.org/2000/svg" xlink="http://www.w3.org/1999/xlink" x="0px" y="0px" width="13.5px" height="15px" viewBox="0 0 13.5 15" style="enable-background:new 0 0 15 15;" space="preserve"><path d="m7.4211864 4.0728814-2.7 6.5999996h3.3l.3468-2.2874996c-.4308-.4029-.9468-.9546-.9468-1.3125v-.6l1.1718.45.4314-2.85zM4.1211864 10.672881l2.8077-6.5999996h-1.6077L.82118644 10.672881ZM6.9711864 9.7728814l.375-1.2h-.9l-.375 1.2zm-2.4-3.6.6-1.05h.9l-.6 1.05zM9.8211864 10.672881V9.4728814c0-1.3356-2.4-1.7484-2.4-3 0-.9.1125-2.4.1125-2.4h1.5c0 0-.1125 1.1988-.1125 1.8 0 .6 2.5784996 1.2216 2.9999996 2.4l.6 2.3999996z" fill="#FFFFFF"/></svg>