<svg version="1.1" xmlns="http://www.w3.org/2000/svg" xlink="http://www.w3.org/1999/xlink" x="0px" y="0px" width="13.5px" height="15px" viewBox="0 0 13.5 15" style="enable-background:new 0 0 15 15;" space="preserve">
    <path d="M2.2860555,3.7550848L0.91271186,11.308475H3.3160632l0.096477,-0.686672h0.665385l-0.075191,0.686672H6.4060855L6.5777535,3.7550848H4.8610748L4.7429672,4.7850925H4.2066765L4.3460709,3.7550848Zm4.6350347,0l0.1716679,7.5533902h2.4033513l-0.07519,-0.686672h0.6653846l0.09648,0.686672h2.403352L11.041121,3.7550848H9.1527735L9.2921679,4.7850925H8.7558772L8.6377697,3.7550848ZM4.1637596,5.1284284H4.7000502L4.5929294,6.1584361h-0.579551zm4.6350346,0H9.3350849L9.485466,6.1584361H8.905915ZM3.9704614,6.501772h0.579551L4.4319049,7.5317797H3.8310671Zm4.9783706,0H9.528383L9.6677774,7.5317797H9.0669396ZM3.7881501,7.8751156H4.3889879L4.2708804,8.9051233H3.6487557Zm5.3217064,0H9.7106944L9.8500887,8.9051233H9.2279641ZM3.594852,9.2484592H4.2389501L4.1208426,10.278467h-0.665385zm5.6650423,0H9.9039924L10.043386,10.278467H9.3780019Z" fill="#FFFFFF"/> <path d="M2.9727273,10.278467L3.1443953,8.9051233H2.1143876L1.9427196,10.278467ZM10.869453,5.8151002L10.611951,4.4417566H9.6248604l0.257502,1.3733436zM8.8094376,10.278467L8.6377697,8.9051233H7.607762L7.7794299,10.278467ZM5.1185767,5.8151002L5.2256975,4.4417566h0.987434L6.1056674,5.8151002Z" fill="#FFFFFF"/>
    </svg>