<svg version="1.1" xmlns="http://www.w3.org/2000/svg" xlink="http://www.w3.org/1999/xlink" x="0px" y="0px" width="13.5px" height="15px" viewBox="0 0 13.5 15" style="enable-background:new 0 0 15 15;" space="preserve"><path d="M1.9576271 4.2635593.45762712 10.863559H2.7076271l.9-6.5999997zm2.1 0-.75 6.5999997h2.85l.15-6.5999997zm2.55 0 .15 6.5999997h2.7l-.75-6.5999997zm2.55 0 .8999999 6.5999997h2.4l-1.65-6.5999997zM9.9826271 6.0635593l-.225-1.2h.8624999l.225 1.2zm-1.425 3.9-.15-1.2h-.9l.15 1.2zm-7.05 0 .15-1.2h.9l-.15 1.2zm2.925-3.9.0936-1.2h.8628l-.0939 1.2z" fill="#FFFFFF"/></svg>