<svg version="1.1" xmlns="http://www.w3.org/2000/svg" xlink="http://www.w3.org/1999/xlink" x="0px" y="0px" width="13.5px" height="15px" viewBox="0 0 13.5 15" style="enable-background:new 0 0 15 15;" space="preserve">
    <path d="m7.4211864,4.0728814l-2.7,6.5999996h3.3l0.3468,-2.2874996c-0.4308,-0.4029,-0.9468,-0.9546,-0.9468,-1.3125v-0.6l1.1718,0.45l0.4314,-2.85z" fill="#FFFFFF"/> <path d="m4.1211864,10.672881l2.8077,-6.5999996h-1.6077L0.82118644,10.672881Z" fill="#FFFFFF"/> <path d="m6.9711864,9.7728814l0.375,-1.2h-0.9l-0.375,1.2zm-2.4,-3.6l0.6,-1.05h0.9l-0.6,1.05z" fill="#FFFFFF"/> <path d="M9.8211864,10.672881V9.4728814c0,-1.3356,-2.4,-1.7484,-2.4,-3c0,-0.9,0.1125,-2.4,0.1125,-2.4h1.5c0,0,-0.1125,1.1988,-0.1125,1.8c0,0.6,2.5784996,1.2216,2.9999996,2.4l0.6,2.3999996z" fill="#FFFFFF"/>
    </svg>