<svg version="1.1" xmlns="http://www.w3.org/2000/svg" xlink="http://www.w3.org/1999/xlink" x="0px" y="0px" width="13.5px" height="15px" viewBox="0 0 13.5 15" style="enable-background:new 0 0 15 15;" space="preserve"><path d="M3.4889179,2.7838983L2.2047262,5.4639505H1.4788787L1.0322034,5.9106258V6.8039765H1.660229L1.4788787,7.2506519v2.2333767v0.4466749v0c0,0,0.2715787,0.2715795,0.4466754,0.4466755h0.4466753h1.7867015l0.8933507,0.446675h3.5734029l0.8933507,-0.446675h1.7867018h0.446675l0.446676,-0.4466755v0V9.4840286V7.2506519L12.017737,6.8039765h0.628026V5.9106258L12.199088,5.4639505h-0.725849l-1.28419,-2.6800522zm0.4466754,1.340026H9.7423729L10.412386,5.9106258L9.965711,6.3573012H3.7122556L3.2655802,5.9106258ZM2.8189048,7.6973272h1.3400261l0.4466754,0.8933505v0.446676H2.8189048L2.3722294,8.5906777V8.1440028Zm6.7001304,0h1.3400258l0.446676,0.4466756v0.4466749l-0.446676,0.446676H9.0723598V8.5906777ZM1.9255541,10.824054v0.893351l0.4466753,0.446676h1.3400262l0.4466753,-0.446676v-0.893351zm7.5934811,0v0.893351l0.4466758,0.446676h1.340026l0.446675,-0.446676v-0.893351z" fill="#FFFFFF"/></svg>