<svg version="1.1" xmlns="http://www.w3.org/2000/svg" xlink="http://www.w3.org/1999/xlink" x="0px" y="0px" width="13.5px" height="15px" viewBox="0 0 13.5 15" style="enable-background:new 0 0 15 15;" space="preserve">
    <path d="M2.8904469,1.8483051L0.97395996,12.388983H6.244299l0.014853,-0.958243h0.9285379l0.014853,0.958243H12.472881L10.316833,1.8483051H6.9629816l0.029706,1.4373652H6.4536752L6.4838598,1.8483051ZM6.4388224,3.764792H7.008019L7.037724,5.2021572H6.4091168ZM6.3942641,5.6812789H7.0530564L7.082762,7.1186441H6.3640794ZM6.3492266,7.5977658H7.0976148L7.1277994,9.035131H6.319042Zm-0.045037,1.9164869h0.838463l0.030185,1.4373653h-0.898354z" fill="#FFFFFF"/> <path d="M9.1190293,10.951618L8.8794685,9.035131h1.4373645l0.239561,1.916487zM3.489349,4.7230355L3.638835,2.8065486H5.0167891L4.866824,4.7230355Z" fill="#FFFFFF"/>
    </svg>