<svg version="1.1" xmlns="http://www.w3.org/2000/svg" xlink="http://www.w3.org/1999/xlink" x="0px" y="0px" width="13.5px" height="15px" viewBox="0 0 13.5 15" style="enable-background:new 0 0 15 15;" space="preserve">
    <path d="M4.859801,4.2457627L4.0767502,5.8799558H3.6341562L3.3617907,6.1523213v0.544731H3.7447366L3.6341562,6.9694178v1.3618276v0.2723655v0c0,0,0.1655983,0.1655982,0.2723655,0.2723655h0.2723656h1.089462l0.544731,0.2723655H7.9920044L8.5367355,8.8759764h1.0894621h0.272365L10.170929,8.6036109v0v-0.2723655v-1.3618276l-0.11058,-0.2723655h0.382945V6.1523213L10.170929,5.8799558H9.7283346L8.9452836,4.2457627Zm0.2723656,0.8170965h3.540752l0.408548,1.0894621l-0.272366,0.2723655H4.9959838L4.7236183,6.1523213ZM4.4512528,7.2417833H5.2683493L5.5407148,7.7865144V8.0588799H4.4512528L4.1788873,7.7865144V7.5141488Zm4.0854827,0h0.8170961l0.272366,0.2723655V7.7865144L9.3538316,8.0588799H8.2643699V7.7865144ZM3.9065217,9.1483419v0.544731L4.1788873,9.9654387H4.9959838L5.2683493,9.6930729v-0.544731zm4.6302138,0v0.544731l0.2723651,0.2723658h0.817097l0.272365,-0.2723658v-0.544731z" fill="#FFFFFF"/> <path d="m10.71566,9.0462049v0.4085482l1.361828,0.5106856h1.089462z" fill="#FFFFFF"/> <path d="M3.0894252,9.0462049V9.4547531L1.7275976,9.9654387H0.63813559Z" fill="#FFFFFF"/>
    </svg>