<svg version="1.1" xmlns="http://www.w3.org/2000/svg" xlink="http://www.w3.org/1999/xlink" x="0px" y="0px" width="13.5px" height="15px" viewBox="0 0 13.5 15" style="enable-background:new 0 0 15 15;" space="preserve"><path d="M4.3738349.06864407V1.4270224L3.6946457 2.7854006V4.1437789L3.0154566 5.5021572V6.8605355L2.3362674 8.2189137V9.577292L1.6570782 10.93567v1.358379l-.67918916 1.358378v1.358378H6.4114022 11.844915V13.652427L11.165726 12.294049V10.93567L10.486537 9.577292V8.2189137L9.8073478 6.8605355V5.5021572L9.1281588 4.1437789V2.7854006L8.4489697 1.4270224V.06864407H6.4114022ZM1.6570782 12.294049V10.93567h9.5086478v1.358379zM11.844915 15.010805V13.652427H.97788904v1.358378zM10.486537 9.577292V8.2189137H2.3362674V9.577292ZM9.8073478 6.8605355V5.5021572H3.0154566V6.8605355ZM9.1281588 4.1437789V2.7854006H3.6946457V4.1437789ZM8.4489697 1.4270224V.06864407H4.3738349V1.4270224Z" fill="#FFFFFF"/></svg>