<svg version="1.1" xmlns="http://www.w3.org/2000/svg" xlink="http://www.w3.org/1999/xlink" x="0px" y="0px" width="13.5px" height="15px" viewBox="0 0 13.5 15" style="enable-background:new 0 0 15 15;" space="preserve">
    <path d="M4.975984,2.1661017L4.3825712,3.6265105H3.5457569L3.3481151,4.1133133H4.1849292L3.5764256,5.5737221H2.7245205L2.5113008,6.060525H3.3787836L2.7853709,7.5209337H1.9027972L1.6900643,8.0077366H2.5877289L1.9943161,9.4681451H1.0664697L0.86834095,9.9549479H1.7966741L1.1881705,11.415357H0.24474638l-0.21273283,0.486802h0.95802818l-0.395284,0.973606H5.9495898L6.512334,9.1638932C5.813285,8.5101172,4.975984,7.6148866,4.975984,7.0341308V6.060525L6.8774361,6.7907294L7.5774587,2.1661017Z" fill="#FFFFFF"/> <path d="M4.2457796,11.415357L4.8542832,9.4681451H3.3938745L2.7853709,11.415357Z" fill="#FFFFFF"/> <path d="m8.8704073,12.875765v-1.947211c0,-2.1672469,-3.8944233,-2.8370873,-3.8944233,-4.868029c0,-1.4604088,0.182551,-3.8944233,0.182551,-3.8944233h2.4340146c0,0,-0.1825511,1.9452644,-0.1825511,2.9208174c0,0.9736059,4.1840715,1.9822615,4.8680285,3.8944233l0.973607,3.8944226z" fill="#FFFFFF"/>
    </svg>