<svg version="1.1" xmlns="http://www.w3.org/2000/svg" xlink="http://www.w3.org/1999/xlink" x="0px" y="0px" width="15px" height="15px" viewBox="0 0 15 15" style="enable-background:new 0 0 15 15;" space="preserve"><path d="M5.25 5.25 9.75 5.25 9.75 9.75 5.25 9.75zM5.25 5.25 9.75 5.25 9.75 9.75 5.25 9.75zM10.5 5.125C10.5 5.60825 10.10825 6 9.625 6 9.14175 6 8.75 5.60825 8.75 5.125 8.75 4.64175 9.14175 4.25 9.625 4.25 10.10825 4.25 10.5 4.64175 10.5 5.125zM10.25 5.125C10.25 5.47025 9.97025 5.75 9.625 5.75 9.27975 5.75 9 5.47025 9 5.125 9 4.77975 9.27975 4.5 9.625 4.5 9.97025 4.5 10.25 4.77975 10.25 5.125zM6 9.625C6 10.10825 5.60825 10.5 5.125 10.5 4.64175 10.5 4.25 10.10825 4.25 9.625 4.25 9.14175 4.64175 8.75 5.125 8.75 5.60825 8.75 6 9.14175 6 9.625zM5.75 9.625C5.75 9.97025 5.47025 10.25 5.125 10.25 4.77975 10.25 4.5 9.97025 4.5 9.625 4.5 9.27975 4.77975 9 5.125 9 5.47025 9 5.75 9.27975 5.75 9.625zM6 5.125C6 5.60825 5.60825 6 5.125 6 4.64175 6 4.25 5.60825 4.25 5.125 4.25 4.64175 4.64175 4.25 5.125 4.25 5.60825 4.25 6 4.64175 6 5.125zM5.75 5.125C5.75 5.47025 5.47025 5.75 5.125 5.75 4.77975 5.75 4.5 5.47025 4.5 5.125 4.5 4.77975 4.77975 4.5 5.125 4.5 5.47025 4.5 5.75 4.77975 5.75 5.125zM10.5 9.625C10.5 10.10825 10.10825 10.5 9.625 10.5 9.14175 10.5 8.75 10.10825 8.75 9.625 8.75 9.14175 9.14175 8.75 9.625 8.75 10.10825 8.75 10.5 9.14175 10.5 9.625zM10.25 9.625C10.25 9.97025 9.97025 10.25 9.625 10.25 9.27975 10.25 9 9.97025 9 9.625 9 9.27975 9.27975 9 9.625 9 9.97025 9 10.25 9.27975 10.25 9.625z" fill="#FFFFFF"/></svg>