<svg version="1.1" xmlns="http://www.w3.org/2000/svg" xlink="http://www.w3.org/1999/xlink" x="0px" y="0px" width="13.5px" height="15px" viewBox="0 0 13.5 15" style="enable-background:new 0 0 15 15;" space="preserve"><path d="M2.6512183 2.1300317V2.5392743H3.4697034V2.1300317Zm1.6369702 0V2.5392743H5.1066738V2.1300317Zm4.0924252 0V2.5392743H9.1991001V2.1300317Zm1.6369703 0V2.5392743H10.83607V2.1300317ZM2.7789021 4.1762446C2.5067557 5.6220987 1.5327583 6.4270789.60500527 6.4270789H.19576274v.4092426h.40924253c.42643083 0 .85204313-.12441 1.22772793-.3707739v.3707739h.4092424c1.1782096 0 2.2978971-1.0141032 2.5831392-2.6600769H4.4158723C4.143726 5.6220987 3.1697287 6.4270789 2.2419756 6.4270789H1.8838885C2.5227161 5.9850968 3.0133979 5.2030343 3.1881446 4.1762446Zm5.883271 0c.2852417 1.6459737 1.4049299 2.6600769 2.5831379 2.6600769h.409244V6.4655476c.375685.2463641.801297.3707739 1.227727.3707739h.409243V6.4270789h-.409243c-.927753 0-1.90175-.8049802-2.173896-2.2508343h-.409243c.174747 1.0267897.66543 1.8088522 1.304256 2.2508343h-.358088c-.927752 0-1.9017491-.8049802-2.1738949-2.2508343zM5.9251589 2.1300317V2.9485168H2.2419756V3.7670019H5.9251589V12.770339H7.5621293V3.7670019H11.245311V2.9485168H7.5621293V2.1300317Z" fill="#FFFFFF"/></svg>