<svg version="1.1" xmlns="http://www.w3.org/2000/svg" xlink="http://www.w3.org/1999/xlink" x="0px" y="0px" width="15px" height="16.666666666666668px" viewBox="0 0 15 16.666666666666668" style="enable-background:new 0 0 15 15;" space="preserve">
    <path d="M5.5,5C5.039666666666666,5,4.666666666666666,5.746333333333333,4.666666666666666,6.666666666666666C4.666666666666666,7.587,5.039666666666666,8.333333333333332,5.5,8.333333333333332L9,8.333333333333332L9,5L5.5,5zM10.333333333333332,5L10.333333333333332,8.333333333333332L15.166666666666666,8.333333333333332L15.166666666666666,5L10.333333333333332,5z" fill="#FFFFFF"/> <path d="M16,6.666666666666666C16,7.587,15.626999999999999,8.333333333333332,15.166666666666666,8.333333333333332C14.706333333333333,8.333333333333332,14.333333333333332,7.587,14.333333333333332,6.666666666666666C14.333333333333332,5.746333333333333,14.706333333333333,5,15.166666666666666,5C15.626999999999999,5,16,5.746333333333333,16,6.666666666666666z" fill="#FFFFFF"/> <path d="M9.333333333333332,4L9.333333333333332,8.666666666666666L8.666666666666666,12L9.333333333333332,12L9.864666666666666,9.333333333333332L11.468666666666666,9.333333333333332L12,12L12.666666666666666,12L12,8.666666666666666L11.666666666666666,8.666666666666666L10,8.666666666666666L10,4L9.333333333333332,4zM11.333333333333332,4L11.333333333333332,4.666666666666666L12,4.666666666666666L12,4L11.333333333333332,4zM7.333333333333333,5C7,5,6.5,5.746333333333333,6.5,6.666666666666666C6.5,7.587,7,8.333333333333332,7.333333333333333,8.333333333333332L8,8.333333333333332C7.539666666666666,8.333333333333332,7,7.587,7,6.666666666666666C7,5.746333333333333,7.539666666666666,5,8,5L7.333333333333333,5zM12.333333333333332,5C12,5,11.5,5.746333333333333,11.5,6.666666666666666C11.5,7.587,12,8.333333333333332,12.333333333333332,8.333333333333332L13,8.333333333333332C12.539666666666665,8.333333333333332,12,7.587,12,6.666666666666666C12,5.746333333333333,12.539666666666665,5,13,5L12.333333333333332,5zM15.166666666666666,5C14.706333333333333,5,14.333333333333332,5.746333333333333,14.333333333333332,6.666666666666666C14.333333333333332,7.587,14.706333333333333,8.333333333333332,15.166666666666666,8.333333333333332C15.626999999999999,8.333333333333332,16,7.587,16,6.666666666666666C16,5.746333333333333,15.626999999999999,5,15.166666666666666,5z" fill="#FFFFFF"/>
    </svg>