<svg version="1.1" xmlns="http://www.w3.org/2000/svg" xlink="http://www.w3.org/1999/xlink" x="0px" y="0px" width="13.499999999999998px" height="15px" viewBox="0 0 13.499999999999998 15" style="enable-background:new 0 0 15 15;" space="preserve">
    <path d="M4.949999999999999,4.5C4.535699999999999,4.5,4.199999999999999,5.1716999999999995,4.199999999999999,5.999999999999999C4.199999999999999,6.828299999999999,4.535699999999999,7.499999999999998,4.949999999999999,7.499999999999998L8.1,7.499999999999998L8.1,4.5L4.949999999999999,4.5zM9.299999999999997,4.5L9.299999999999997,7.499999999999998L13.649999999999999,7.499999999999998L13.649999999999999,4.5L9.299999999999997,4.5z" fill="#FFFFFF"/> <path d="M14.399999999999999,5.999999999999999C14.399999999999999,6.828299999999999,14.064299999999998,7.499999999999998,13.649999999999999,7.499999999999998C13.235699999999998,7.499999999999998,12.899999999999997,6.828299999999999,12.899999999999997,5.999999999999999C12.899999999999997,5.1716999999999995,13.235699999999998,4.5,13.649999999999999,4.5C14.064299999999998,4.5,14.399999999999999,5.1716999999999995,14.399999999999999,5.999999999999999z" fill="#FFFFFF"/> <path d="M8.399999999999999,3.5999999999999996L8.399999999999999,7.799999999999999L7.799999999999999,10.799999999999999L8.399999999999999,10.799999999999999L8.8782,8.399999999999999L10.321799999999998,8.399999999999999L10.799999999999999,10.799999999999999L11.399999999999999,10.799999999999999L10.799999999999999,7.799999999999999L10.499999999999998,7.799999999999999L9,7.799999999999999L9,3.5999999999999996L8.399999999999999,3.5999999999999996zM10.199999999999998,3.5999999999999996L10.199999999999998,4.199999999999999L10.799999999999999,4.199999999999999L10.799999999999999,3.5999999999999996L10.199999999999998,3.5999999999999996zM6.599999999999999,4.5C6.299999999999999,4.5,5.85,5.1716999999999995,5.85,5.999999999999999C5.85,6.828299999999999,6.299999999999999,7.499999999999998,6.599999999999999,7.499999999999998L7.199999999999999,7.499999999999998C6.785699999999999,7.499999999999998,6.299999999999999,6.828299999999999,6.299999999999999,5.999999999999999C6.299999999999999,5.1716999999999995,6.785699999999999,4.5,7.199999999999999,4.5L6.599999999999999,4.5zM11.099999999999998,4.5C10.799999999999999,4.5,10.35,5.1716999999999995,10.35,5.999999999999999C10.35,6.828299999999999,10.799999999999999,7.499999999999998,11.099999999999998,7.499999999999998L11.7,7.499999999999998C11.285699999999999,7.499999999999998,10.799999999999999,6.828299999999999,10.799999999999999,5.999999999999999C10.799999999999999,5.1716999999999995,11.285699999999999,4.5,11.7,4.5L11.099999999999998,4.5zM13.649999999999999,4.5C13.235699999999998,4.5,12.899999999999997,5.1716999999999995,12.899999999999997,5.999999999999999C12.899999999999997,6.828299999999999,13.235699999999998,7.499999999999998,13.649999999999999,7.499999999999998C14.064299999999998,7.499999999999998,14.399999999999999,6.828299999999999,14.399999999999999,5.999999999999999C14.399999999999999,5.1716999999999995,14.064299999999998,4.5,13.649999999999999,4.5z" fill="#FFFFFF"/>
    </svg>