<svg version="1.1" xmlns="http://www.w3.org/2000/svg" xlink="http://www.w3.org/1999/xlink" x="0px" y="0px" width="13.5px" height="15px" viewBox="0 0 13.5 15" style="enable-background:new 0 0 15 15;" space="preserve"><path d="M1.3775922 4.77667c-.51240191 0-.92759221.8307515-.92759221 1.8551844 0 1.0244328.4151903 1.8551844.92759221 1.8551844H5.2734795V4.77667Zm5.3800349 0V8.4870388H12.137662V4.77667ZM13.065254 6.6318544c0 1.0244328-.41519 1.8551844-.927592 1.8551844-.512402 0-.927592-.8307516-.927592-1.8551844 0-1.0244329.41519-1.8551844.927592-1.8551844.512402 0 .927592.8307515.927592 1.8551844zM5.6445164 3.6635593V8.8580757L4.9024426 12.568444H5.6445164L6.2359492 9.6001495h1.7854295l.5914328 2.9682945h.742074L8.6128115 8.8580757H8.2417746 6.3865902V3.6635593Zm2.2262213 0V4.4056331H8.6128115V3.6635593ZM3.4182951 4.77667c-.3710369 0-.9275922.8307515-.9275922 1.8551844 0 1.0244328.5565553 1.8551844.9275922 1.8551844h.7420738c-.512402 0-1.1131107-.8307516-1.1131107-1.8551844 0-1.0244329.6007087-1.8551844 1.1131107-1.8551844zm5.5655533 0c-.3710369 0-.9275922.8307515-.9275922 1.8551844 0 1.0244328.5565553 1.8551844.9275922 1.8551844h.7420741c-.512402 0-1.113111-.8307516-1.113111-1.8551844 0-1.0244329.600709-1.8551844 1.113111-1.8551844zm3.1538136 0c-.512402 0-.927592.8307515-.927592 1.8551844 0 1.0244328.41519 1.8551844.927592 1.8551844.512402 0 .927592-.8307516.927592-1.8551844 0-1.0244329-.41519-1.8551844-.927592-1.8551844z" fill="#FFFFFF"/></svg>