<svg version="1.1" xmlns="http://www.w3.org/2000/svg" xlink="http://www.w3.org/1999/xlink" x="0px" y="0px" width="13.5px" height="15px" viewBox="0 0 13.5 15" style="enable-background:new 0 0 15 15;" space="preserve"><path d="M1.4512339 11.141108 2.07062 11.554032 2.4835441 11.141108 2.7804365 9.9023363H1.7481263ZM11.064518 9.9023363l.296893 1.2387717.412923.412924.619386-.412924-.296892-1.2387717zM3.179734 8.2506401 3.3746341 7.424792H2.3419111L2.1482497 8.2506401H1.1415409c-.22875992 0-.35759219.1911838-.412924.4129243l-.1032307.412924c-.055332.22174.18416419.412924.4129241.412924h4.868374C5.7774391 9.063688 5.5866682 8.6301173 5.305054 8.2506401ZM2.4835441 9.0764884c-.1139671 0-.2064621-.092493-.2064621-.2064626 0-.1139637.092495-.2064614.2064621-.2064614.1139672 0 .206462.092493.206462.2064614 0 .1139637-.092495.2064626-.206462.2064626zM1.4512339 7.011868H12.187258c.228761 0 .468256-.1911839.412924-.412924L12.496952 6.1860199C12.44162 5.9642798 12.312787 5.7730959 12.084028 5.7730959H11.116134L10.922473 4.9472479H9.8901624l.1936606.825848H3.7607181L3.9556182 4.9472479H2.9224823L2.7288209 5.7730959H1.554465c-.2287599 0-.3575923.1911839-.4129241.412924L1.0383102 6.598944C.9829781 6.8206841 1.2224743 7.011868 1.4512339 7.011868ZM10.742024 6.1860199c.113964 0 .206463.092495.206463.206462 0 .1139671-.09249.2064621-.206463.2064621-.113963 0-.206461-.092495-.206461-.2064621 0-.1139672.09249-.206462.206461-.206462zm-7.8455559 0c.1139671 0 .206462.092495.206462.206462 0 .1139671-.092495.2064621-.206462.2064621-.1139672 0-.206462-.092495-.206462-.2064621 0-.1139672.092495-.206462.206462-.206462zM1.864158 4.5343238h9.910176c.228761 0 .468256-.1911839.412924-.412924L12.084028 3.7084757C12.028696 3.4867355 11.899863 3.2955517 11.671104 3.2955517H10.522762L10.3291 2.4697037 9.7097149 2.0567796 9.2967906 2.4697037 9.490452 3.2955517H4.3545029L4.5481642 2.4697037 4.1352402 2.0567796 3.5158542 2.4697037 3.3221927 3.2955517H1.967389c-.2287599 0-.3575922.1911838-.412924.412924L1.4512343 4.1213998c-.055332.2217401.1841642.412924.4129237.412924zM10.3291 3.7084757c.113964 0 .206463.092495.206463.206462 0 .1139672-.09249.2064621-.206463.2064621-.113963 0-.206461-.092495-.206461-.2064621 0-.1139671.09249-.206462.206461-.206462zm-7.0197078 0c.1139671 0 .206462.092495.206462.206462 0 .1139672-.092496.2064621-.206462.2064621-.1139672 0-.2064621-.092495-.2064621-.2064621 0-.1139671.092495-.206462.2064621-.206462zM13.012693 9.0764884 12.909459 8.6635644C12.854131 8.4418239 12.725298 8.2506401 12.496539 8.2506401H11.696292L11.502631 7.424792H10.47032l.193663.8258481H8.9115325L8.7814614 8.3683235C8.332613 8.7738143 8.0898137 9.1698087 7.9514841 9.4894124h4.6486979c.228348 0 .467843-.191184.412511-.412924zm-1.857745 0c-.113963 0-.206461-.092493-.206461-.2064626 0-.1139637.09249-.2064614.206461-.2064614.113964 0 .206463.092493.206463.2064614 0 .1139637-.09249.2064626-.206463.2064626zM4.5093494 9.7474897c1.2544632 1.2709803.9819333 1.8106713.9819333 1.8106713 0 0 .087127.01611.6891702.01611C6.2295907 10.282227 5.2336181 9.9799673 4.5093494 9.7474909ZM7.2230861 11.566833C7.2420806 10.735205 7.1140742 10.068744 6.913806 9.534421 6.7110603 8.9939034 6.4339883 8.5921283 6.1569163 8.2956488 5.6300251 7.7320075 5.1056116 7.5523856 5.1056116 7.5523856c.2580776.2176109.4657783.472385.6400323.7432632.2527095.3931035.4273763.8217191.5454726 1.2387722.3022604 1.065757.2489933 2.03778.2489933 2.03778 0 0 .2361925-.0054.6829763-.0054zM8.2876043 8.2506401C7.5426893 8.5838698 7.2800696 9.4167377 7.2800696 9.4167377l.019408.072672.1804478.6771953c0 0-.0004129-.2741818.1540207-.6771953C7.7664947 9.142553 8.0167267 8.699899 8.481679 8.2506374 8.515951 8.2176034 8.548159 8.1845704 8.5849097 8.1515354 8.4775499 8.1746594 8.3792736 8.2093444 8.2876045 8.2506374ZM7.6525271 11.569724l.65242-.0037c0 0-.094972-.977804.8241963-1.7863099C8.4131331 9.9853586 7.7313956 10.638604 7.6525271 11.569748Z" fill="#FFFFFF"/></svg>