<svg version="1.1" xmlns="http://www.w3.org/2000/svg" xlink="http://www.w3.org/1999/xlink" x="0px" y="0px" width="15px" height="15px" viewBox="0 0 15 15" style="enable-background:new 0 0 15 15;" space="preserve"><path d="M7.25 5.5 6.672 5.789 7.88275 7 8.75 7 9.25 7.5 9.25 9 7.75 9 10 11.5 12.25 9 10.75 9 10.75 7.5 10.42975 6.8515 10.25 6.5 9.75 6 8.75 5.5zM5.711 6.586 5.25 7.5 5.25 9.078C5.58575 9.55625 6.06675 9.93 6.63275 10.11725L6.75 10 6.75 7.625zM7.5 3.75C5.4275 3.75 3.75 5.4275 3.75 7.5 3.75 9.5725 5.4275 11.25 7.5 11.25 8.07675 11.25 8.6215 11.115 9.10925 10.88275L8.578 10.289C8.24375 10.41975 7.8805 10.5 7.5 10.5 5.8445 10.5 4.5 9.15525 4.5 7.5 4.5 6.85975 4.7055 6.26025 5.04675 5.7735L5.13275 5.65625 5.23425 5.75775 8.2265 8.75 9 8.75 9 8.46875 5.7655 5.2345 5.65625 5.125 5.78125 5.039C6.268 4.69775 6.85975 4.5 7.5 4.5 8.59625 4.5 9.55475 5.08975 10.078 5.96875L10.453 6.3515 11 7.4375 11 8.75 11.03125 8.75C11.16925 8.359 11.25 7.9385 11.25 7.5 11.25 5.4275 9.5725 3.75 7.5 3.75z" fill="#FFFFFF"/></svg>