<svg version="1.1" xmlns="http://www.w3.org/2000/svg" xlink="http://www.w3.org/1999/xlink" x="0px" y="0px" width="15px" height="15px" viewBox="0 0 15 15" style="enable-background:new 0 0 15 15;" space="preserve"><path d="M9.24225 11.36725 8.50775 12.38275 5.75775 10.38275 6.49225 9.36725zM8.53125 11.3515 9.21875 12.3985 12.21875 10.3985 11.53125 9.3515zM2.78125 11.35475 3.46875 12.39375 6.46875 10.39375 5.78125 9.35475zM9.09375 11.57025 8.65625 12.17975 5.90625 10.17975 6.34375 9.57025zM8.664 11.5625 9.086 12.1875 12.086 10.1875 11.664 9.5625zM2.914 11.56575 3.336 12.19075 6.336 10.19075 5.914 9.56575zM12.5 9.875C12.5 10.22025 12.22025 10.5 11.875 10.5 11.52975 10.5 11.25 10.22025 11.25 9.875 11.25 9.52975 11.52975 9.25 11.875 9.25 12.22025 9.25 12.5 9.52975 12.5 9.875zM3.75 11.875C3.75 12.22025 3.47025 12.5 3.125 12.5 2.77975 12.5 2.5 12.22025 2.5 11.875 2.5 11.52975 2.77975 11.25 3.125 11.25 3.47025 11.25 3.75 11.52975 3.75 11.875zM6.75 9.875C6.75 10.22025 6.47025 10.5 6.125 10.5 5.77975 10.5 5.5 10.22025 5.5 9.875 5.5 9.52975 5.77975 9.25 6.125 9.25 6.47025 9.25 6.75 9.52975 6.75 9.875zM9.5 11.875C9.5 12.22025 9.22025 12.5 8.875 12.5 8.52975 12.5 8.25 12.22025 8.25 11.875 8.25 11.52975 8.52975 11.25 8.875 11.25 9.22025 11.25 9.5 11.52975 9.5 11.875zM12.25 9.875C12.25 10.082 12.082 10.25 11.875 10.25 11.668 10.25 11.5 10.082 11.5 9.875 11.5 9.668 11.668 9.5 11.875 9.5 12.082 9.5 12.25 9.668 12.25 9.875zM9.25 11.875C9.25 12.082 9.082 12.25 8.875 12.25 8.668 12.25 8.5 12.082 8.5 11.875 8.5 11.668 8.668 11.5 8.875 11.5 9.082 11.5 9.25 11.668 9.25 11.875zM6.5 9.875C6.5 10.082 6.332 10.25 6.125 10.25 5.918 10.25 5.75 10.082 5.75 9.875 5.75 9.668 5.918 9.5 6.125 9.5 6.332 9.5 6.5 9.668 6.5 9.875zM3.5 11.875C3.5 12.082 3.332 12.25 3.125 12.25 2.918 12.25 2.75 12.082 2.75 11.875 2.75 11.668 2.918 11.5 3.125 11.5 3.332 11.5 3.5 11.668 3.5 11.875zM9.24225 7.86725 8.50775 8.88275 5.75775 6.88275 6.49225 5.86725zM8.53125 7.8515 9.21875 8.8985 12.21875 6.8985 11.53125 5.8515zM2.78125 7.85475 3.46875 8.89375 6.46875 6.89375 5.78125 5.85475zM9.09375 8.07025 8.65625 8.67975 5.90625 6.67975 6.34375 6.07025zM8.664 8.0625 9.086 8.6875 12.086 6.6875 11.664 6.0625zM2.914 8.06575 3.336 8.69075 6.336 6.69075 5.914 6.06575zM12.5 6.375C12.5 6.72025 12.22025 7 11.875 7 11.52975 7 11.25 6.72025 11.25 6.375 11.25 6.02975 11.52975 5.75 11.875 5.75 12.22025 5.75 12.5 6.02975 12.5 6.375zM3.75 8.375C3.75 8.72025 3.47025 9 3.125 9 2.77975 9 2.5 8.72025 2.5 8.375 2.5 8.02975 2.77975 7.75 3.125 7.75 3.47025 7.75 3.75 8.02975 3.75 8.375zM6.75 6.375C6.75 6.72025 6.47025 7 6.125 7 5.77975 7 5.5 6.72025 5.5 6.375 5.5 6.02975 5.77975 5.75 6.125 5.75 6.47025 5.75 6.75 6.02975 6.75 6.375zM9.5 8.375C9.5 8.72025 9.22025 9 8.875 9 8.52975 9 8.25 8.72025 8.25 8.375 8.25 8.02975 8.52975 7.75 8.875 7.75 9.22025 7.75 9.5 8.02975 9.5 8.375zM12.25 6.375C12.25 6.582 12.082 6.75 11.875 6.75 11.668 6.75 11.5 6.582 11.5 6.375 11.5 6.168 11.668 6 11.875 6 12.082 6 12.25 6.168 12.25 6.375zM9.25 8.375C9.25 8.582 9.082 8.75 8.875 8.75 8.668 8.75 8.5 8.582 8.5 8.375 8.5 8.168 8.668 8 8.875 8 9.082 8 9.25 8.168 9.25 8.375zM6.5 6.375C6.5 6.582 6.332 6.75 6.125 6.75 5.918 6.75 5.75 6.582 5.75 6.375 5.75 6.168 5.918 6 6.125 6 6.332 6 6.5 6.168 6.5 6.375zM3.5 8.375C3.5 8.582 3.332 8.75 3.125 8.75 2.918 8.75 2.75 8.582 2.75 8.375 2.75 8.168 2.918 8 3.125 8 3.332 8 3.5 8.168 3.5 8.375zM9.24225 4.36725 8.50775 5.38275 5.75775 3.38275 6.49225 2.36725zM8.53125 4.3515 9.21875 5.3985 12.21875 3.3985 11.53125 2.3515zM2.78125 4.35475 3.46875 5.39375 6.46875 3.39375 5.78125 2.35475zM9.09375 4.57025 8.65625 5.17975 5.90625 3.17975 6.34375 2.57025zM8.664 4.5625 9.086 5.1875 12.086 3.1875 11.664 2.5625zM2.914 4.56575 3.336 5.19075 6.336 3.19075 5.914 2.56575zM12.5 2.875C12.5 3.22025 12.22025 3.5 11.875 3.5 11.52975 3.5 11.25 3.22025 11.25 2.875 11.25 2.52975 11.52975 2.25 11.875 2.25 12.22025 2.25 12.5 2.52975 12.5 2.875zM3.75 4.875C3.75 5.22025 3.47025 5.5 3.125 5.5 2.77975 5.5 2.5 5.22025 2.5 4.875 2.5 4.52975 2.77975 4.25 3.125 4.25 3.47025 4.25 3.75 4.52975 3.75 4.875zM6.75 2.875C6.75 3.22025 6.47025 3.5 6.125 3.5 5.77975 3.5 5.5 3.22025 5.5 2.875 5.5 2.52975 5.77975 2.25 6.125 2.25 6.47025 2.25 6.75 2.52975 6.75 2.875zM9.5 4.875C9.5 5.22025 9.22025 5.5 8.875 5.5 8.52975 5.5 8.25 5.22025 8.25 4.875 8.25 4.52975 8.52975 4.25 8.875 4.25 9.22025 4.25 9.5 4.52975 9.5 4.875zM12.25 2.875C12.25 3.082 12.082 3.25 11.875 3.25 11.668 3.25 11.5 3.082 11.5 2.875 11.5 2.668 11.668 2.5 11.875 2.5 12.082 2.5 12.25 2.668 12.25 2.875zM9.25 4.875C9.25 5.082 9.082 5.25 8.875 5.25 8.668 5.25 8.5 5.082 8.5 4.875 8.5 4.668 8.668 4.5 8.875 4.5 9.082 4.5 9.25 4.668 9.25 4.875zM6.5 2.875C6.5 3.082 6.332 3.25 6.125 3.25 5.918 3.25 5.75 3.082 5.75 2.875 5.75 2.668 5.918 2.5 6.125 2.5 6.332 2.5 6.5 2.668 6.5 2.875zM3.5 4.875C3.5 5.082 3.332 5.25 3.125 5.25 2.918 5.25 2.75 5.082 2.75 4.875 2.75 4.668 2.918 4.5 3.125 4.5 3.332 4.5 3.5 4.668 3.5 4.875z" fill="#FFFFFF"/></svg>