<svg version="1.1" xmlns="http://www.w3.org/2000/svg" xlink="http://www.w3.org/1999/xlink" x="0px" y="0px" width="15px" height="15px" viewBox="0 0 15 15" style="enable-background:new 0 0 15 15;" space="preserve"><path d="M11.5,7.5C11.5,5.29075,9.70925,3.5,7.5,3.5C5.29075,3.5,3.5,5.29075,3.5,7.5C3.5,9.70925,5.29075,11.5,7.5,11.5C9.70925,11.5,11.5,9.70925,11.5,7.5zM10.75,7.875L9.01275,10.46825L7.125,7.875L8.34125,7.875L8.34125,6.6255L7.8575,6.17375L6.953,6.17375L6.375,6.75L6.375,9.75C5.75,9.75,5.08225,9.25425,5.08225,8.5C5.08225,7.75,5.06025,6.9675,5.08225,6.468C5.125,5.5,6.64325,4.855,6.64325,4.855C6.64325,4.855,7.43025,4.71825,8.089,4.85925C8.873,5,9.63775,5.988,9.628,6.468C9.63775,7.238,9.628,7.875,9.628,7.875L10.75,7.875z" fill="#FFFFFF"/></svg>