<svg version="1.1" xmlns="http://www.w3.org/2000/svg" xlink="http://www.w3.org/1999/xlink" x="0px" y="0px" width="15px" height="15px" viewBox="0 0 15 15" style="enable-background:new 0 0 15 15;" space="preserve"><path d="M9.24225 8.11725 8.50775 9.13275 5.75775 7.13275 6.49225 6.11725zM8.53125 8.1015 9.21875 9.1485 12.21875 7.1485 11.53125 6.1015zM2.78125 8.10475 3.46875 9.14375 6.46875 7.14375 5.78125 6.10475zM9.09375 8.32025 8.65625 8.92975 5.90625 6.92975 6.34375 6.32025zM8.664 8.3125 9.086 8.9375 12.086 6.9375 11.664 6.3125zM2.914 8.31575 3.336 8.94075 6.336 6.94075 5.914 6.31575zM12.5 6.625C12.5 6.97025 12.22025 7.25 11.875 7.25 11.52975 7.25 11.25 6.97025 11.25 6.625 11.25 6.27975 11.52975 6 11.875 6 12.22025 6 12.5 6.27975 12.5 6.625zM3.75 8.625C3.75 8.97025 3.47025 9.25 3.125 9.25 2.77975 9.25 2.5 8.97025 2.5 8.625 2.5 8.27975 2.77975 8 3.125 8 3.47025 8 3.75 8.27975 3.75 8.625zM6.75 6.625C6.75 6.97025 6.47025 7.25 6.125 7.25 5.77975 7.25 5.5 6.97025 5.5 6.625 5.5 6.27975 5.77975 6 6.125 6 6.47025 6 6.75 6.27975 6.75 6.625zM9.5 8.625C9.5 8.97025 9.22025 9.25 8.875 9.25 8.52975 9.25 8.25 8.97025 8.25 8.625 8.25 8.27975 8.52975 8 8.875 8 9.22025 8 9.5 8.27975 9.5 8.625zM12.25 6.625C12.25 6.832 12.082 7 11.875 7 11.668 7 11.5 6.832 11.5 6.625 11.5 6.418 11.668 6.25 11.875 6.25 12.082 6.25 12.25 6.418 12.25 6.625zM9.25 8.625C9.25 8.832 9.082 9 8.875 9 8.668 9 8.5 8.832 8.5 8.625 8.5 8.418 8.668 8.25 8.875 8.25 9.082 8.25 9.25 8.418 9.25 8.625zM6.5 6.625C6.5 6.832 6.332 7 6.125 7 5.918 7 5.75 6.832 5.75 6.625 5.75 6.418 5.918 6.25 6.125 6.25 6.332 6.25 6.5 6.418 6.5 6.625zM3.5 8.625C3.5 8.832 3.332 9 3.125 9 2.918 9 2.75 8.832 2.75 8.625 2.75 8.418 2.918 8.25 3.125 8.25 3.332 8.25 3.5 8.418 3.5 8.625z" fill="#FFFFFF"/></svg>