<svg version="1.1" xmlns="http://www.w3.org/2000/svg" xlink="http://www.w3.org/1999/xlink" x="0px" y="0px" width="15px" height="15px" viewBox="0 0 15 15" style="enable-background:new 0 0 15 15;" space="preserve">
    <path d="M6.7265,5C6.74,5.08075,6.75,5.1655,6.75,5.25C6.75,5.3345,6.74,5.41925,6.7265,5.5L8.7735,5.5C8.75675,5.41875,8.75,5.33625,8.75,5.25C8.75,5.16375,8.75675,5.08125,8.7735,5L6.7265,5zM6.46875,6.10925C6.37125,6.247,6.2545,6.37075,6.11725,6.46875L7.961,8.30475C8.05275,8.16875,8.17575,8.04375,8.3125,7.953L6.46875,6.10925zM5,6.7265L5,8.7735C5.08125,8.75675,5.16375,8.75,5.25,8.75C5.33625,8.75,5.41875,8.75675,5.5,8.7735L5.5,6.7265C5.41925,6.74,5.3345,6.75,5.25,6.75C5.1655,6.75,5.08075,6.74,5,6.7265z" fill="#FFFFFF"/> <path d="M10,4.25C10.55225,4.25,11,4.69775,11,5.25C11,5.80225,10.55225,6.25,10,6.25C9.44775,6.25,9,5.80225,9,5.25C9,4.69775,9.44775,4.25,10,4.25z" fill="#FFFFFF"/> <path d="M10,4.5C10.41425,4.5,10.75,4.83575,10.75,5.25C10.75,5.66425,10.41425,6,10,6C9.58575,6,9.25,5.66425,9.25,5.25C9.25,4.83575,9.58575,4.5,10,4.5z" fill="#FFFFFF"/> <path d="M10,5C10.138,5,10.25,5.112,10.25,5.25C10.25,5.388,10.138,5.5,10,5.5C9.862,5.5,9.75,5.388,9.75,5.25C9.75,5.112,9.862,5,10,5z" fill="#FFFFFF"/> <path d="M6.25,10C6.25,10.55225,5.80225,11,5.25,11C4.69775,11,4.25,10.55225,4.25,10C4.25,9.44775,4.69775,9,5.25,9C5.80225,9,6.25,9.44775,6.25,10z" fill="#FFFFFF"/> <path d="M6,10C6,10.41425,5.66425,10.75,5.25,10.75C4.83575,10.75,4.5,10.41425,4.5,10C4.5,9.58575,4.83575,9.25,5.25,9.25C5.66425,9.25,6,9.58575,6,10z" fill="#FFFFFF"/> <path d="M5.5,10C5.5,10.138,5.388,10.25,5.25,10.25C5.112,10.25,5,10.138,5,10C5,9.862,5.112,9.75,5.25,9.75C5.388,9.75,5.5,9.862,5.5,10z" fill="#FFFFFF"/> <path d="M10,9C10,9.55225,9.55225,10,9,10C8.44775,10,8,9.55225,8,9C8,8.44775,8.44775,8,9,8C9.55225,8,10,8.44775,10,9z" fill="#FFFFFF"/> <path d="M9.75,9C9.75,9.41425,9.41425,9.75,9,9.75C8.58575,9.75,8.25,9.41425,8.25,9C8.25,8.58575,8.58575,8.25,9,8.25C9.41425,8.25,9.75,8.58575,9.75,9z" fill="#FFFFFF"/> <path d="M9.25,9C9.25,9.138,9.138,9.25,9,9.25C8.862,9.25,8.75,9.138,8.75,9C8.75,8.862,8.862,8.75,9,8.75C9.138,8.75,9.25,8.862,9.25,9z" fill="#FFFFFF"/> <path d="M6.5,5.25C6.5,5.94025,5.94025,6.5,5.25,6.5C4.55975,6.5,4,5.94025,4,5.25C4,4.55975,4.55975,4,5.25,4C5.94025,4,6.5,4.55975,6.5,5.25z" fill="#FFFFFF"/> <path d="M6.25,5.25C6.25,5.80225,5.80225,6.25,5.25,6.25C4.69775,6.25,4.25,5.80225,4.25,5.25C4.25,4.69775,4.69775,4.25,5.25,4.25C5.80225,4.25,6.25,4.69775,6.25,5.25z" fill="#FFFFFF"/> <path d="M5.75,5.25C5.75,5.52625,5.52625,5.75,5.25,5.75C4.97375,5.75,4.75,5.52625,4.75,5.25C4.75,4.97375,4.97375,4.75,5.25,4.75C5.52625,4.75,5.75,4.97375,5.75,5.25z" fill="#FFFFFF"/>
    </svg>