<svg version="1.1" xmlns="http://www.w3.org/2000/svg" xlink="http://www.w3.org/1999/xlink" x="0px" y="0px" width="15px" height="15px" viewBox="0 0 15 15" style="enable-background:new 0 0 15 15;" space="preserve">
    <path d="M7.25,5.5L6.672,5.789L7.88275,7L8.75,7L9.25,7.5L9.25,9L7.75,9L10,11.5L12.25,9L10.75,9L10.75,7.5L10.42975,6.8515L10.25,6.5L9.75,6L8.75,5.5zM5.711,6.586L5.25,7.5L5.25,9.078C5.58575,9.55625,6.06675,9.93,6.63275,10.11725L6.75,10L6.75,7.625z" fill="#FFFFFF"/> <path d="M7.5,3.75C5.4275,3.75,3.75,5.4275,3.75,7.5C3.75,9.5725,5.4275,11.25,7.5,11.25C8.07675,11.25,8.6215,11.115,9.10925,10.88275L8.578,10.289C8.24375,10.41975,7.8805,10.5,7.5,10.5C5.8445,10.5,4.5,9.15525,4.5,7.5C4.5,6.85975,4.7055,6.26025,5.04675,5.7735L5.13275,5.65625L5.23425,5.75775L8.2265,8.75L9,8.75L9,8.46875L5.7655,5.2345L5.65625,5.125L5.78125,5.039C6.268,4.69775,6.85975,4.5,7.5,4.5C8.59625,4.5,9.55475,5.08975,10.078,5.96875L10.453,6.3515L11,7.4375L11,8.75L11.03125,8.75C11.16925,8.359,11.25,7.9385,11.25,7.5C11.25,5.4275,9.5725,3.75,7.5,3.75z" fill="#FFFFFF"/>
    </svg>