<svg version="1.1" xmlns="http://www.w3.org/2000/svg" xlink="http://www.w3.org/1999/xlink" x="0px" y="0px" width="15px" height="15px" viewBox="0 0 15 15" style="enable-background:new 0 0 15 15;" space="preserve"><path d="M9.75 4.25 9.75 5.75 7.25 5.75 6.836 5.953 8.13275 7.25 9.75 7.25 9.75 8.75 12.25 6.5zM5.8125 6.6875 5.75 6.75 5.25 7.5 5.25 9.078C5.6085 9.58875 6.134 9.97475 6.75 10.1485L6.75 7.75 6.8125 7.6875zM7.5 3.75C5.4275 3.75 3.75 5.4275 3.75 7.5 3.75 9.5725 5.4275 11.25 7.5 11.25 9.49325 11.25 11.1205 9.69675 11.24225 7.7345L10.289 8.59375C10.20075 8.817 10.089 9.02525 9.95325 9.21875L9.86725 9.336 5.76575 5.2345 5.65625 5.125 5.78125 5.039C6.268 4.69775 6.85975 4.5 7.5 4.5 8.27 4.5 8.9685 4.79575 9.5 5.2735L9.5 4.336C8.92025 3.9685 8.238 3.75 7.5 3.75zM5.13275 5.65625 5.2345 5.75775 9.2345 9.75775 9.34375 9.86725 9.21875 9.953C8.732 10.2945 8.14025 10.5 7.5 10.5 5.84475 10.5 4.5 9.15525 4.5 7.5 4.5 6.85975 4.7055 6.26025 5.047 5.7735z" fill="#FFFFFF"/></svg>