<svg version="1.1" xmlns="http://www.w3.org/2000/svg" xlink="http://www.w3.org/1999/xlink" x="0px" y="0px" width="15px" height="15px" viewBox="0 0 15 15" style="enable-background:new 0 0 15 15;" space="preserve">
    <path d="M5,4.25L2.5,6.5L5,8.75L5,7.25L6.375,7.25L5,5.875L5,4.25zM6.63275,5.75L9.5,8.61725L9.5,7.75L9,6.75L8.5,6.25L7.5,5.75L6.63275,5.75zM8,8.875L8,10.203C8.3385,10.1325,8.65275,9.9895,8.9375,9.8125L8,8.875z" fill="#FFFFFF"/> <path d="M7.5,3.75C6.653,3.75,5.8775,4.035,5.25,4.50775L5.25,5.7735L9.34375,9.86725L9.21875,9.953C8.732,10.2945,8.14025,10.5,7.5,10.5C6.38175,10.5,5.4065,9.88525,4.8905,8.9765L3.78125,7.9845C4.019,9.82725,5.592,11.25,7.5,11.25C9.5725,11.25,11.25,9.5725,11.25,7.5C11.25,5.4275,9.5725,3.75,7.5,3.75zM7.5,4.5C9.15525,4.5,10.5,5.84475,10.5,7.5C10.5,8.14025,10.2945,8.732,9.953,9.21875L9.86725,9.336L5.65625,5.125L5.78125,5.039C6.268,4.69775,6.85975,4.5,7.5,4.5z" fill="#FFFFFF"/>
    </svg>