<svg version="1.1" xmlns="http://www.w3.org/2000/svg" xlink="http://www.w3.org/1999/xlink" x="0px" y="0px" width="15px" height="15px" viewBox="0 0 15 15" style="enable-background:new 0 0 15 15;" space="preserve"><path d="M7.5,3.625C5.36,3.625,3.625,5.36,3.625,7.5C3.625,9.64,5.36,11.375,7.5,11.375C9.64,11.375,11.375,9.64,11.375,7.5C11.375,5.36,9.64,3.625,7.5,3.625zM7.5,4.625C9.08775,4.625,10.375,5.91225,10.375,7.5C10.375,8.1135,10.179,8.6815,9.8515,9.1485L5.8515,5.1485C6.3185,4.821,6.8865,4.625,7.5,4.625zM5.1485,5.8515L9.1485,9.8515C8.6815,10.179,8.1135,10.375,7.5,10.375C5.91225,10.375,4.625,9.08775,4.625,7.5C4.625,6.8865,4.821,6.3185,5.1485,5.8515z" fill="#FFFFFF"/></svg>