<svg version="1.1" xmlns="http://www.w3.org/2000/svg" xlink="http://www.w3.org/1999/xlink" x="0px" y="0px" width="15px" height="15px" viewBox="0 0 15 15" style="enable-background:new 0 0 15 15;" space="preserve"><path d="M7.5 3.75 5.25 6.25 7.13275 6.25 8.25 7.36725 8.25 6.25 9.75 6.25 7.5 3.75zM6.75 7.625 6.75 10.1485C6.98825 10.21575 7.24 10.25 7.5 10.25 7.76275 10.25 8.01175 10.208 8.25 10.13275L8.25 9.125 6.75 7.625zM7.11725 3.76575C5.22525 3.9575 3.75 5.557 3.75 7.5 3.75 9.5725 5.4275 11.25 7.5 11.25 9.5725 11.25 11.25 9.5725 11.25 7.5 11.25 5.5465 9.7585 3.94325 7.8515 3.76575L8.7735 4.789C9.79075 5.2695 10.5 6.3015 10.5 7.5 10.5 8.14025 10.2945 8.732 9.953 9.21875L9.86725 9.336 9.7655 9.2345 7.03125 6.5 6.75 6.5 5.9765 6.5 9.2345 9.75775 9.34375 9.86725 9.21875 9.953C8.732 10.2945 8.14025 10.5 7.5 10.5 5.84475 10.5 4.5 9.15525 4.5 7.5 4.5 6.85975 4.7055 6.26025 5.047 5.7735L5.13275 5.65625 5.2345 5.75775 5.297 5.82025 5.797 5.2655 5.7655 5.2345 5.65625 5.125 5.78125 5.039C5.922 4.9405 6.06975 4.8545 6.2265 4.78125L7.1485 3.76575C7.13825 3.7665 7.1275 3.7645 7.11725 3.76575z" fill="#FFFFFF"/></svg>