<svg version="1.1" xmlns="http://www.w3.org/2000/svg" xlink="http://www.w3.org/1999/xlink" x="0px" y="0px" width="13.5px" height="15px" viewBox="0 0 13.5 15" style="enable-background:new 0 0 15 15;" space="preserve"><path d="M3.9658413,2.1838983L3.292002,2.6331245L3.0813149,3.531577H1.6074036c-0.2488713,0,-0.3890299,0.2079918,-0.4492262,0.4492262L1.0458708,4.4300295C0.98567452,4.671264,1.2462257,4.8792557,1.495097,4.8792557h10.78143c0.248871,0,0.509423,-0.2079917,0.449226,-0.4492262L12.613447,3.9808032C12.55325,3.7395688,12.413092,3.531577,12.16422,3.531577H10.914922L10.704235,2.6331245L10.030396,2.1838983L9.5811693,2.6331245L9.7918564,3.531577H4.2043805L4.4150676,2.6331245ZM3.0673889,3.9808032c0.1239864,0,0.2246131,0.1006267,0.2246131,0.2246132c0,0.1239864,-0.1006267,0.2246131,-0.2246131,0.2246131c-0.1239865,0,-0.2246132,-0.1006267,-0.2246132,-0.2246131c0,-0.1239865,0.1006267,-0.2246132,0.2246132,-0.2246132zm7.6368461,0c0.123987,0,0.224613,0.1006267,0.224613,0.2246132c0,0.1239864,-0.100626,0.2246131,-0.224613,0.2246131c-0.123986,0,-0.224613,-0.1006267,-0.224613,-0.2246131c0,-0.1239865,0.100627,-0.2246132,0.224613,-0.2246132zM2.6460146,5.328482L2.4357768,6.2269344H1.1581774c-0.24887134,0,-0.38902992,0.2079918,-0.44922624,0.4492263L0.59664461,7.1253869C0.53644829,7.3666214,0.79699951,7.5746131,1.0458708,7.5746131H12.725753c0.248872,0,0.509423,-0.2079917,0.449227,-0.4492262L13.062673,6.6761607C13.002477,6.4349262,12.862318,6.2269344,12.613447,6.2269344H11.56046L11.350223,5.328482h-1.123066l0.210238,0.8984524H3.5588424L3.7690802,5.328482Zm-0.027852,1.3476787c0.1239865,0,0.2246131,0.1006266,0.2246131,0.2246131c0,0.1239864,-0.1006266,0.2246131,-0.2246131,0.2246131c-0.1239864,0,-0.2246131,-0.1006267,-0.2246131,-0.2246131c0,-0.1239865,0.1006267,-0.2246131,0.2246131,-0.2246131zm8.5352984,0c0.123987,0,0.224614,0.1006266,0.224614,0.2246131c0,0.1239864,-0.100627,0.2246131,-0.224614,0.2246131c-0.123986,0,-0.224613,-0.1006267,-0.224613,-0.2246131c0,-0.1239865,0.100627,-0.2246131,0.224613,-0.2246131zM2.0144026,8.0238394L1.8041647,8.9222918H0.70895116c-0.24887133,0,-0.38902991,0.2079918,-0.44922623,0.4492263L0.14741837,9.8207443C0.08722206,10.061979,0.34777327,10.26997,0.59664461,10.26997H13.17498c0.248871,0,0.509422,-0.207991,0.449226,-0.4492257L13.511899,9.3715181C13.451703,9.1302836,13.311544,8.9222918,13.062673,8.9222918h-0.8706L11.981835,8.0238394h-1.123066l0.210238,0.8984524H2.9272303L3.1374681,8.0238394Zm0.1545338,1.3476787c0.1239864,0,0.2246131,0.1006266,0.2246131,0.2246131c0,0.1239864,-0.1006267,0.2246131,-0.2246131,0.2246131c-0.1239865,0,-0.2246131,-0.1006267,-0.2246131,-0.2246131c0,-0.1239865,0.1006266,-0.2246131,0.2246131,-0.2246131zm9.4337516,0c0.123986,0,0.224613,0.1006266,0.224613,0.2246131c0,0.1239864,-0.100627,0.2246131,-0.224613,0.2246131c-0.123987,0,-0.224613,-0.1006267,-0.224613,-0.2246131c0,-0.1239865,0.100626,-0.2246131,0.224613,-0.2246131zM1.3688645,10.719197L1.0458708,12.066876L1.7197102,12.516102L2.1689364,12.066876L2.49193,10.719197Zm10.1354425,0l0.322994,1.347679l0.449226,0.449226l0.673839,-0.449226l-0.322993,-1.347679z" fill="#FFFFFF"/></svg>