<svg version="1.1" xmlns="http://www.w3.org/2000/svg" xlink="http://www.w3.org/1999/xlink" x="0px" y="0px" width="15px" height="15px" viewBox="0 0 15 15" style="enable-background:new 0 0 15 15;" space="preserve">
    <path d="M7.5,3.5C5.29075,3.5,3.5,5.29075,3.5,7.5C3.5,9.70925,5.29075,11.5,7.5,11.5C9.70925,11.5,11.5,9.70925,11.5,7.5C11.5,5.29075,9.70925,3.5,7.5,3.5zM7,4.5L7,4.94525L7,6L8.5,6L9,6.25L9.75,7L10,7.5L10,8.6405C9.70425,9.288,9.166,9.79425,8.5,10.05475L8.5,8L8,7.5L7,7.5L7,9L5.25775,7.42975L4.5,6.75L7,4.5z" fill="#FFFFFF"/>
    </svg>