<svg version="1.1" xmlns="http://www.w3.org/2000/svg" xlink="http://www.w3.org/1999/xlink" x="0px" y="0px" width="13.5px" height="15px" viewBox="0 0 13.5 15" style="enable-background:new 0 0 15 15;" space="preserve">
    <path d="M1.4512339,11.141108L2.07062,11.554032L2.4835441,11.141108L2.7804365,9.9023363H1.7481263Z" fill="#FFFFFF"/> <path d="m11.064518,9.9023363l0.296893,1.2387717l0.412923,0.412924l0.619386,-0.412924l-0.296892,-1.2387717z" fill="#FFFFFF"/> <path d="M3.179734,8.2506401L3.3746341,7.424792H2.3419111L2.1482497,8.2506401H1.1415409c-0.22875992,0,-0.35759219,0.1911838,-0.412924,0.4129243l-0.1032307,0.412924c-0.055332,0.22174,0.18416419,0.412924,0.4129241,0.412924h4.868374C5.7774391,9.063688,5.5866682,8.6301173,5.305054,8.2506401ZM2.4835441,9.0764884c-0.1139671,0,-0.2064621,-0.092493,-0.2064621,-0.2064626c0,-0.1139637,0.092495,-0.2064614,0.2064621,-0.2064614c0.1139672,0,0.206462,0.092493,0.206462,0.2064614c0,0.1139637,-0.092495,0.2064626,-0.206462,0.2064626z" fill="#FFFFFF"/> <path d="M1.4512339,7.011868H12.187258c0.228761,0,0.468256,-0.1911839,0.412924,-0.412924L12.496952,6.1860199C12.44162,5.9642798,12.312787,5.7730959,12.084028,5.7730959H11.116134L10.922473,4.9472479H9.8901624l0.1936606,0.825848H3.7607181L3.9556182,4.9472479H2.9224823L2.7288209,5.7730959H1.554465c-0.2287599,0,-0.3575923,0.1911839,-0.4129241,0.412924L1.0383102,6.598944C0.9829781,6.8206841,1.2224743,7.011868,1.4512339,7.011868ZM10.742024,6.1860199c0.113964,0,0.206463,0.092495,0.206463,0.206462c0,0.1139671,-0.09249,0.2064621,-0.206463,0.2064621c-0.113963,0,-0.206461,-0.092495,-0.206461,-0.2064621c0,-0.1139672,0.09249,-0.206462,0.206461,-0.206462zm-7.8455559,0c0.1139671,0,0.206462,0.092495,0.206462,0.206462c0,0.1139671,-0.092495,0.2064621,-0.206462,0.2064621c-0.1139672,0,-0.206462,-0.092495,-0.206462,-0.2064621c0,-0.1139672,0.092495,-0.206462,0.206462,-0.206462z" fill="#FFFFFF"/> <path d="m1.864158,4.5343238h9.910176c0.228761,0,0.468256,-0.1911839,0.412924,-0.412924L12.084028,3.7084757C12.028696,3.4867355,11.899863,3.2955517,11.671104,3.2955517H10.522762L10.3291,2.4697037L9.7097149,2.0567796L9.2967906,2.4697037L9.490452,3.2955517H4.3545029L4.5481642,2.4697037L4.1352402,2.0567796L3.5158542,2.4697037L3.3221927,3.2955517H1.967389c-0.2287599,0,-0.3575922,0.1911838,-0.412924,0.412924L1.4512343,4.1213998c-0.055332,0.2217401,0.1841642,0.412924,0.4129237,0.412924zM10.3291,3.7084757c0.113964,0,0.206463,0.092495,0.206463,0.206462c0,0.1139672,-0.09249,0.2064621,-0.206463,0.2064621c-0.113963,0,-0.206461,-0.092495,-0.206461,-0.2064621c0,-0.1139671,0.09249,-0.206462,0.206461,-0.206462zm-7.0197078,0c0.1139671,0,0.206462,0.092495,0.206462,0.206462c0,0.1139672,-0.092496,0.2064621,-0.206462,0.2064621c-0.1139672,0,-0.2064621,-0.092495,-0.2064621,-0.2064621c0,-0.1139671,0.092495,-0.206462,0.2064621,-0.206462z" fill="#FFFFFF"/> <path d="M13.012693,9.0764884L12.909459,8.6635644C12.854131,8.4418239,12.725298,8.2506401,12.496539,8.2506401H11.696292L11.502631,7.424792H10.47032l0.193663,0.8258481H8.9115325L8.7814614,8.3683235C8.332613,8.7738143,8.0898137,9.1698087,7.9514841,9.4894124h4.6486979c0.228348,0,0.467843,-0.191184,0.412511,-0.412924zm-1.857745,0c-0.113963,0,-0.206461,-0.092493,-0.206461,-0.2064626c0,-0.1139637,0.09249,-0.2064614,0.206461,-0.2064614c0.113964,0,0.206463,0.092493,0.206463,0.2064614c0,0.1139637,-0.09249,0.2064626,-0.206463,0.2064626z" fill="#FFFFFF"/> <path d="m4.5093494,9.7474897c1.2544632,1.2709803,0.9819333,1.8106713,0.9819333,1.8106713c0,0,0.087127,0.01611,0.6891702,0.01611C6.2295907,10.282227,5.2336181,9.9799673,4.5093494,9.7474909Z" fill="#FFFFFF"/> <path d="M7.2230861,11.566833C7.2420806,10.735205,7.1140742,10.068744,6.913806,9.534421C6.7110603,8.9939034,6.4339883,8.5921283,6.1569163,8.2956488C5.6300251,7.7320075,5.1056116,7.5523856,5.1056116,7.5523856c0.2580776,0.2176109,0.4657783,0.472385,0.6400323,0.7432632c0.2527095,0.3931035,0.4273763,0.8217191,0.5454726,1.2387722c0.3022604,1.065757,0.2489933,2.03778,0.2489933,2.03778c0,0,0.2361925,-0.0054,0.6829763,-0.0054z" fill="#FFFFFF"/> <path d="M8.2876043,8.2506401C7.5426893,8.5838698,7.2800696,9.4167377,7.2800696,9.4167377l0.019408,0.072672l0.1804478,0.6771953c0,0,-0.0004129,-0.2741818,0.1540207,-0.6771953C7.7664947,9.142553,8.0167267,8.699899,8.481679,8.2506374C8.515951,8.2176034,8.548159,8.1845704,8.5849097,8.1515354C8.4775499,8.1746594,8.3792736,8.2093444,8.2876045,8.2506374Z" fill="#FFFFFF"/> <path d="m7.6525271,11.569724l0.65242,-0.0037c0,0,-0.094972,-0.977804,0.8241963,-1.7863099C8.4131331,9.9853586,7.7313956,10.638604,7.6525271,11.569748Z" fill="#FFFFFF"/>
    </svg>