<svg version="1.1" xmlns="http://www.w3.org/2000/svg" xlink="http://www.w3.org/1999/xlink" x="0px" y="0px" width="15px" height="15px" viewBox="0 0 15 15" style="enable-background:new 0 0 15 15;" space="preserve"><path d="M7.5,3.5C5.29075,3.5,3.5,5.29075,3.5,7.5C3.5,9.70925,5.29075,11.5,7.5,11.5C9.70925,11.5,11.5,9.70925,11.5,7.5C11.5,5.29075,9.70925,3.5,7.5,3.5zM8,4.5L10.5,6.75L9.74225,7.42975L8,9L8,7.5L7,7.5L6.5,8L6.5,10.05475C5.834,9.79425,5.29575,9.288,5,8.6405L5,7.5L5.25,7L6,6.25L6.5,6L8,6L8,4.94525L8,4.5z" fill="#FFFFFF"/></svg>