<svg version="1.1" xmlns="http://www.w3.org/2000/svg" xlink="http://www.w3.org/1999/xlink" x="0px" y="0px" width="13.5px" height="15px" viewBox="0 0 13.5 15" style="enable-background:new 0 0 15 15;" space="preserve"><path d="M9.6330014 6.64412 9.0022898 6.695482 9.3196044 7.2165046h3.2327776c.241142 0 .493601-.2015317.435274-.4352737L12.878838 6.3459575C12.820511 6.1122155 12.684705 5.9106838 12.443564 5.9106838H11.423282L11.219139 5.0401363h-1.088184l.204143.8705475H9.1050144l.077914.1079479zM11.028489 6.3459575c.120136 0 .217637.097501.217637.2176368 0 .1201356-.0975.2176369-.217637.2176369-.120136 0-.217637-.097501-.217637-.2176369 0-.1201355.0975-.2176368.217637-.2176368zM8.6762698 4.6048626h3.4404032c.241142 0 .493601-.2015317.435274-.4352737L12.443129 3.7343152C12.384802 3.5005732 12.248996 3.2990415 12.007855 3.2990415H10.797359L10.593215 2.428494 9.9403047 1.9932203 9.505031 2.428494 9.7091743 3.2990415H7.9624209L8.5339353 4.3450042ZM10.593215 3.7343152c.120136 0 .217637.097501.217637.2176368 0 .1201356-.0975.2176369-.217637.2176369-.120135 0-.217637-.097501-.217637-.2176369 0-.1201355.0975-.2176368.217637-.2176368zM5.9862782 3.2990415H4.2952399L4.4993832 2.428494 4.0641095 1.9932203 3.4111989 2.428494 3.2070556 3.2990415H1.7789225c-.2411416 0-.376947.2015317-.4352737.4352737L1.2348304 4.1695889c-.058327.233742.194132.4352737.4352737.4352737h3.6027605l.15104-.2763988zM3.1935621 4.1695889c-.1201356 0-.2176369-.097501-.2176369-.2176369 0-.1201355.097501-.2176368.2176369-.2176368.1201355 0 .2176368.097501.2176368.2176368 0 .1201356-.097501.2176369-.2176368.2176369zM3.0568861 8.5223261 3.2623353 7.6517786H2.1737158L1.9695724 8.5223261H.90837506c-.24114163 0-.37694703.2015317-.43527371.4352737L.36428292 9.3928735C.30595624 9.6266155.558415 9.8281472.79955664 9.8281472H3.8077333L4.4998185 8.5223261ZM2.3230146 9.3928735c-.1201355 0-.2176368-.097501-.2176368-.2176369 0-.1201355.097501-.2176368.2176368-.2176368.1201356 0 .2176369.097501.2176369.2176368 0 .1201356-.097501.2176369-.2176369.2176369zM11.368438 10.263421l.312962 1.305821.435273.435274.652911-.435274-.312962-1.305821zM4.3244032 6.6275796 4.7753468 6.001656 4.8406378 5.9106838H3.6693163L3.8747654 5.0401363H2.7857106L2.5815672 5.9106838H1.3436488c-.2411417 0-.37694706.2015317-.43527374.4352737L.79955664 6.7812312c-.0583267.233742.19413207.4352737.43527376.4352737h3.3942644l.32602-.537563zM2.7582884 6.7812312c-.1201356 0-.2176369-.097501-.2176369-.2176369 0-.1201355.097501-.2176368.2176369-.2176368.1201355 0 .2176368.097501.2176368.2176368 0 .1201356-.097501.2176369-.2176368.2176369zM13.422059 9.3928735 13.313241 8.9575998C13.254914 8.7238578 13.119109 8.5223261 12.877967 8.5223261h-.84356L11.830263 7.6517786h-1.088184l.204143.8705475H9.4506218l.6912142 1.3058211h2.844949c.241142 0 .493601-.2015317.435274-.4352737zm-1.958296 0c-.120136 0-.217637-.097501-.217637-.2176369 0-.1201355.0975-.2176368.217637-.2176368.120135 0 .217637.097501.217637.2176368 0 .1201356-.0975.2176369-.217637.2176369zM1.2348304 11.569242l.6529105.435274.4352737-.435274.3129618-1.305821H1.5477922ZM7.3517319 10.113252 9.8079815 10.126745 9.6499771 9.8281472 8.9587625 8.5223261 8.6031438 7.8506987 9.1681291 7.8045597 8.8103341 7.2165049 8.2636303 6.3181 8.8294862 6.271961 8.5691925 5.9106838 7.6281307 4.6048626 7.6242132 4.5996393 8.1522003 4.553065 7.4662089 3.2990415 6.9843609 2.4167416 6.9730438 2.469845V2.4010718L6.4824903 3.2990415 5.8065102 4.5369599 6.3340619 4.5830989 6.3183921 4.6048626 5.3773303 5.9106838 5.128789 6.2554206 5.693339 6.3011243 5.1374945 7.2165049 4.7905813 7.7880193 5.3555666 7.8345936 4.9912425 8.5223261 4.3000279 9.8281472 4.1502937 10.11064l.9893772-.01349-.00131.0039 1.5103998.0083v.21807.218508 1.468613h.7073239l-.00348-1.464696-.0004352-.218507z" fill="#FFFFFF"/></svg>