<svg version="1.1" xmlns="http://www.w3.org/2000/svg" xlink="http://www.w3.org/1999/xlink" x="0px" y="0px" width="13.5px" height="15px" viewBox="0 0 13.5 15" style="enable-background:new 0 0 15 15;" space="preserve">
    <path d="M9.6330014,6.64412L9.0022898,6.695482L9.3196044,7.2165046h3.2327776c0.241142,0,0.493601,-0.2015317,0.435274,-0.4352737L12.878838,6.3459575C12.820511,6.1122155,12.684705,5.9106838,12.443564,5.9106838H11.423282L11.219139,5.0401363h-1.088184l0.204143,0.8705475H9.1050144l0.077914,0.1079479zM11.028489,6.3459575c0.120136,0,0.217637,0.097501,0.217637,0.2176368c0,0.1201356,-0.0975,0.2176369,-0.217637,0.2176369c-0.120136,0,-0.217637,-0.097501,-0.217637,-0.2176369c0,-0.1201355,0.0975,-0.2176368,0.217637,-0.2176368z" fill="#FFFFFF"/> <path d="m8.6762698,4.6048626h3.4404032c0.241142,0,0.493601,-0.2015317,0.435274,-0.4352737L12.443129,3.7343152C12.384802,3.5005732,12.248996,3.2990415,12.007855,3.2990415H10.797359L10.593215,2.428494L9.9403047,1.9932203L9.505031,2.428494L9.7091743,3.2990415H7.9624209L8.5339353,4.3450042ZM10.593215,3.7343152c0.120136,0,0.217637,0.097501,0.217637,0.2176368c0,0.1201356,-0.0975,0.2176369,-0.217637,0.2176369c-0.120135,0,-0.217637,-0.097501,-0.217637,-0.2176369c0,-0.1201355,0.0975,-0.2176368,0.217637,-0.2176368z" fill="#FFFFFF"/> <path d="M5.9862782,3.2990415H4.2952399L4.4993832,2.428494L4.0641095,1.9932203L3.4111989,2.428494L3.2070556,3.2990415H1.7789225c-0.2411416,0,-0.376947,0.2015317,-0.4352737,0.4352737L1.2348304,4.1695889c-0.058327,0.233742,0.194132,0.4352737,0.4352737,0.4352737h3.6027605l0.15104,-0.2763988zM3.1935621,4.1695889c-0.1201356,0,-0.2176369,-0.097501,-0.2176369,-0.2176369c0,-0.1201355,0.097501,-0.2176368,0.2176369,-0.2176368c0.1201355,0,0.2176368,0.097501,0.2176368,0.2176368c0,0.1201356,-0.097501,0.2176369,-0.2176368,0.2176369z" fill="#FFFFFF"/> <path d="M3.0568861,8.5223261L3.2623353,7.6517786H2.1737158L1.9695724,8.5223261H0.90837506c-0.24114163,0,-0.37694703,0.2015317,-0.43527371,0.4352737L0.36428292,9.3928735C0.30595624,9.6266155,0.558415,9.8281472,0.79955664,9.8281472H3.8077333L4.4998185,8.5223261ZM2.3230146,9.3928735c-0.1201355,0,-0.2176368,-0.097501,-0.2176368,-0.2176369c0,-0.1201355,0.097501,-0.2176368,0.2176368,-0.2176368c0.1201356,0,0.2176369,0.097501,0.2176369,0.2176368c0,0.1201356,-0.097501,0.2176369,-0.2176369,0.2176369z" fill="#FFFFFF"/> <path d="m11.368438,10.263421l0.312962,1.305821l0.435273,0.435274l0.652911,-0.435274l-0.312962,-1.305821z" fill="#FFFFFF"/> <path d="M4.3244032,6.6275796L4.7753468,6.001656L4.8406378,5.9106838H3.6693163L3.8747654,5.0401363H2.7857106L2.5815672,5.9106838H1.3436488c-0.2411417,0,-0.37694706,0.2015317,-0.43527374,0.4352737L0.79955664,6.7812312c-0.0583267,0.233742,0.19413207,0.4352737,0.43527376,0.4352737h3.3942644l0.32602,-0.537563zM2.7582884,6.7812312c-0.1201356,0,-0.2176369,-0.097501,-0.2176369,-0.2176369c0,-0.1201355,0.097501,-0.2176368,0.2176369,-0.2176368c0.1201355,0,0.2176368,0.097501,0.2176368,0.2176368c0,0.1201356,-0.097501,0.2176369,-0.2176368,0.2176369z" fill="#FFFFFF"/> <path d="M13.422059,9.3928735L13.313241,8.9575998C13.254914,8.7238578,13.119109,8.5223261,12.877967,8.5223261h-0.84356L11.830263,7.6517786h-1.088184l0.204143,0.8705475H9.4506218l0.6912142,1.3058211h2.844949c0.241142,0,0.493601,-0.2015317,0.435274,-0.4352737zm-1.958296,0c-0.120136,0,-0.217637,-0.097501,-0.217637,-0.2176369c0,-0.1201355,0.0975,-0.2176368,0.217637,-0.2176368c0.120135,0,0.217637,0.097501,0.217637,0.2176368c0,0.1201356,-0.0975,0.2176369,-0.217637,0.2176369z" fill="#FFFFFF"/> <path d="m1.2348304,11.569242l0.6529105,0.435274l0.4352737,-0.435274l0.3129618,-1.305821H1.5477922Z" fill="#FFFFFF"/> <path d="M7.3517319,10.113252L9.8079815,10.126745L9.6499771,9.8281472L8.9587625,8.5223261L8.6031438,7.8506987L9.1681291,7.8045597L8.8103341,7.2165049L8.2636303,6.3181L8.8294862,6.271961L8.5691925,5.9106838L7.6281307,4.6048626L7.6242132,4.5996393L8.1522003,4.553065L7.4662089,3.2990415L6.9843609,2.4167416L6.9730438,2.469845V2.4010718L6.4824903,3.2990415L5.8065102,4.5369599L6.3340619,4.5830989L6.3183921,4.6048626L5.3773303,5.9106838L5.128789,6.2554206L5.693339,6.3011243L5.1374945,7.2165049L4.7905813,7.7880193L5.3555666,7.8345936L4.9912425,8.5223261L4.3000279,9.8281472L4.1502937,10.11064l0.9893772,-0.01349l-0.00131,0.0039l1.5103998,0.0083v0.21807v0.218508v1.468613h0.7073239l-0.00348,-1.464696l-0.0004352,-0.218507z" fill="#FFFFFF"/>
    </svg>