<svg version="1.1" xmlns="http://www.w3.org/2000/svg" xlink="http://www.w3.org/1999/xlink" x="0px" y="0px" width="15px" height="15px" viewBox="0 0 15 15" style="enable-background:new 0 0 15 15;" space="preserve">
    <path d="M9.24225,8.11725L8.50775,9.13275L5.75775,7.13275L6.49225,6.11725z" fill="#FFFFFF"/> <path d="M8.53125,8.1015L9.21875,9.1485L12.21875,7.1485L11.53125,6.1015z" fill="#FFFFFF"/> <path d="M2.78125,8.10475L3.46875,9.14375L6.46875,7.14375L5.78125,6.10475z" fill="#FFFFFF"/> <path d="M9.09375,8.32025L8.65625,8.92975L5.90625,6.92975L6.34375,6.32025z" fill="#FFFFFF"/> <path d="M8.664,8.3125L9.086,8.9375L12.086,6.9375L11.664,6.3125z" fill="#FFFFFF"/> <path d="M2.914,8.31575L3.336,8.94075L6.336,6.94075L5.914,6.31575z" fill="#FFFFFF"/> <path d="M12.5,6.625C12.5,6.97025,12.22025,7.25,11.875,7.25C11.52975,7.25,11.25,6.97025,11.25,6.625C11.25,6.27975,11.52975,6,11.875,6C12.22025,6,12.5,6.27975,12.5,6.625z" fill="#FFFFFF"/> <path d="M3.75,8.625C3.75,8.97025,3.47025,9.25,3.125,9.25C2.77975,9.25,2.5,8.97025,2.5,8.625C2.5,8.27975,2.77975,8,3.125,8C3.47025,8,3.75,8.27975,3.75,8.625z" fill="#FFFFFF"/> <path d="M6.75,6.625C6.75,6.97025,6.47025,7.25,6.125,7.25C5.77975,7.25,5.5,6.97025,5.5,6.625C5.5,6.27975,5.77975,6,6.125,6C6.47025,6,6.75,6.27975,6.75,6.625z" fill="#FFFFFF"/> <path d="M9.5,8.625C9.5,8.97025,9.22025,9.25,8.875,9.25C8.52975,9.25,8.25,8.97025,8.25,8.625C8.25,8.27975,8.52975,8,8.875,8C9.22025,8,9.5,8.27975,9.5,8.625z" fill="#FFFFFF"/> <path d="M12.25,6.625C12.25,6.832,12.082,7,11.875,7C11.668,7,11.5,6.832,11.5,6.625C11.5,6.418,11.668,6.25,11.875,6.25C12.082,6.25,12.25,6.418,12.25,6.625z" fill="#FFFFFF"/> <path d="M9.25,8.625C9.25,8.832,9.082,9,8.875,9C8.668,9,8.5,8.832,8.5,8.625C8.5,8.418,8.668,8.25,8.875,8.25C9.082,8.25,9.25,8.418,9.25,8.625z" fill="#FFFFFF"/> <path d="M6.5,6.625C6.5,6.832,6.332,7,6.125,7C5.918,7,5.75,6.832,5.75,6.625C5.75,6.418,5.918,6.25,6.125,6.25C6.332,6.25,6.5,6.418,6.5,6.625z" fill="#FFFFFF"/> <path d="M3.5,8.625C3.5,8.832,3.332,9,3.125,9C2.918,9,2.75,8.832,2.75,8.625C2.75,8.418,2.918,8.25,3.125,8.25C3.332,8.25,3.5,8.418,3.5,8.625z" fill="#FFFFFF"/>
    </svg>