<svg version="1.1" xmlns="http://www.w3.org/2000/svg" xlink="http://www.w3.org/1999/xlink" x="0px" y="0px" width="13.5px" height="15px" viewBox="0 0 13.5 15" style="enable-background:new 0 0 15 15;" space="preserve">
    <path d="m2.9568952,2.0389831c0,0,0.2532388,0.8737923,0.1628302,1.3016949c-0.1050823,0.4955908,-0.783857,1.3016949,-0.783857,1.3016949c0,0,-0.6792481,0.8061042,-0.7843304,1.3016949c-0.090409,0.4279027,0.1628302,1.301695,0.1628302,1.301695c0,0,0.2532388,0.8737923,0.1628302,1.3016953c-0.1050823,0.49559,-0.783857,1.301694,-0.783857,1.301694c0,0,-0.67924803,0.8061049,-0.78433031,1.3016949c-0.0904086,0.427903,0.1628302,1.301695,0.1628302,1.301695H13.252119c0,0,-0.679248,-0.806104,-0.783857,-1.301695c-0.09041,-0.427902,0.16283,-1.3016949,0.16283,-1.3016949c0,0,0.252766,-0.873792,0.162357,-1.301694c-0.104609,-0.495591,-0.783857,-1.3016953,-0.783857,-1.3016953c0,0,-0.679248,-0.8061042,-0.783857,-1.301695c-0.09041,-0.4279026,0.16283,-1.3016949,0.16283,-1.3016949c0,0,0.252766,-0.8737923,0.162357,-1.3016949C11.446313,2.8450873,10.767065,2.0389831,10.767065,2.0389831ZM5.7969568,2.9856703H7.6903312L8.6370184,3.9323575L9.5837057,9.6124811L7.6903312,10.559168H5.7969568L3.9035824,9.6124811L4.8502696,3.9323575ZM7.785,6.7724192L8.1636748,8.6657931H5.3236132L5.7022881,6.7724192ZM7.5009938,5.3523883L7.6903312,6.2990755H5.7969568L5.9862943,5.3523883ZM7.2169876,3.9323575L7.4063251,4.8790447H6.080963L6.2703004,3.9323575Z" fill="#FFFFFF"/>
    </svg>