<svg version="1.1" xmlns="http://www.w3.org/2000/svg" xlink="http://www.w3.org/1999/xlink" x="0px" y="0px" width="13.499999999999998px" height="15px" viewBox="0 0 13.499999999999998 15" style="enable-background:new 0 0 15 15;" space="preserve">
    <path d="M6.599999999999999,4.199999999999999C6.599999999999999,4.199999999999999,6.7604999999999995,4.753799999999999,6.7032,5.0249999999999995C6.636599999999999,5.339099999999999,6.206399999999999,5.85,6.206399999999999,5.85C6.206399999999999,5.85,5.775899999999999,6.360899999999998,5.709299999999999,6.674999999999999C5.651999999999999,6.946199999999999,5.812499999999999,7.499999999999998,5.812499999999999,7.499999999999998C5.812499999999999,7.499999999999998,5.973,8.053799999999999,5.9157,8.325C5.849099999999999,8.6391,5.418899999999999,9.149999999999999,5.418899999999999,9.149999999999999C5.418899999999999,9.149999999999999,4.9883999999999995,9.6609,4.921799999999998,9.974999999999998C4.864499999999999,10.2462,5.0249999999999995,10.799999999999999,5.0249999999999995,10.799999999999999L13.124999999999998,10.799999999999999C13.124999999999998,10.799999999999999,12.694499999999998,10.289099999999998,12.628199999999998,9.974999999999998C12.570899999999998,9.703799999999998,12.731399999999999,9.149999999999999,12.731399999999999,9.149999999999999C12.731399999999999,9.149999999999999,12.891599999999999,8.596199999999998,12.834299999999997,8.325C12.767999999999999,8.0109,12.337499999999999,7.499999999999998,12.337499999999999,7.499999999999998C12.337499999999999,7.499999999999998,11.906999999999998,6.989099999999999,11.840699999999998,6.674999999999999C11.783399999999999,6.4037999999999995,11.9439,5.85,11.9439,5.85C11.9439,5.85,12.104099999999999,5.296199999999999,12.046799999999998,5.0249999999999995C11.9805,4.710899999999999,11.549999999999997,4.199999999999999,11.549999999999997,4.199999999999999zM8.399999999999999,4.799999999999999L9.599999999999998,4.799999999999999L10.199999999999998,5.3999999999999995L10.799999999999999,9L9.599999999999998,9.599999999999998L8.399999999999999,9.599999999999998L7.199999999999999,9L7.799999999999999,5.3999999999999995zM9.66,7.199999999999999L9.899999999999999,8.399999999999999L8.1,8.399999999999999L8.339999999999998,7.199999999999999zM9.479999999999999,6.299999999999999L9.599999999999998,6.899999999999999L8.399999999999999,6.899999999999999L8.519999999999998,6.299999999999999zM9.299999999999997,5.3999999999999995L9.419999999999998,5.999999999999999L8.579999999999998,5.999999999999999L8.7,5.3999999999999995z" fill="#FFFFFF"/>
    </svg>