<svg version="1.1" xmlns="http://www.w3.org/2000/svg" xlink="http://www.w3.org/1999/xlink" x="0px" y="0px" width="13.5px" height="15px" viewBox="0 0 13.5 15" style="enable-background:new 0 0 15 15;" space="preserve">
    <path d="m1.0424129,11.308474c0,0,-0.21525839,-0.79025,-0.13855249,-1.177241c0.088754,-0.4482072,0.66424899,-1.1772405,0.66424899,-1.1772405c0,0,0.5758968,-0.7290333,0.6646507,-1.1772411c0.076706,-0.3869912,-0.1385525,-1.1772411,-0.1385525,-1.1772411c0,0,-0.2152586,-0.7902498,-0.1385526,-1.1772411c0.088754,-0.4482078,0.6646507,-1.177241,0.6646507,-1.177241c0,0,0.5754951,-0.7290333,0.6642491,-1.1772411C3.3612608,2.6807957,3.1460022,1.8905459,3.1460022,1.8905459h6.6264265c0,0,0.5754953,0.7290334,0.6646513,1.1772412c0.0767,0.3869912,-0.138553,1.1772411,-0.138553,1.1772411c0,0,-0.21566,0.7902498,-0.138954,1.177241c0.08916,0.4482078,0.664651,1.1772411,0.664651,1.1772411c0,0,0.575896,0.7290333,0.66465,1.1772411c0.07671,0.3869913,-0.138553,1.1772411,-0.138553,1.1772411c0,0,-0.21566,0.7902498,-0.138954,1.1772405c0.08916,0.448208,0.66465,1.177241,0.66465,1.177241z" fill="#FFFFFF"/> <path d="M1.5259413,7.7806043C1.4399985,8.1230743,1.1962263,8.3512451,0.98217271,8.2900286C0.76771741,8.228812,0.66410417,7.901325,0.75004691,7.5588548C0.83598971,7.2163847,1.0797619,6.988214,1.2938155,7.0494305C1.5082708,7.110647,1.611884,7.4381341,1.5259413,7.7806043ZM2.262077,3.4958747C2.4837611,3.0861948,2.4299465,2.6105894,2.1419982,2.433361C1.8540497,2.2561328,1.4404001,2.4440633,1.218716,2.8537432C0.99703191,3.2634231,1.0508466,3.7390286,1.3387949,3.9162568C1.6267433,4.0934851,2.0403929,3.9055546,2.262077,3.4958747Zm8.683832,1.694371c-0.08594,-0.3424702,0.01807,-0.6699572,0.232125,-0.7311737c0.214456,-0.061217,0.457826,0.1669542,0.543768,0.5094243c0.08635,0.3424702,-0.01767,0.6699572,-0.231723,0.7311738c-0.214455,0.061216,-0.457827,-0.1669543,-0.54417,-0.5094244zm1.155407,4.7269439c-0.221684,-0.4096797,-0.167869,-0.8852851,0.120079,-1.0625134c0.28835,-0.1772283,0.701598,0.010702,0.923283,0.4203821c0.221684,0.40968,0.168271,0.8852857,-0.120079,1.0625137c-0.287949,0.177227,-0.701598,-0.0107,-0.923283,-0.4203824z" fill="#FFFFFF"/>
    </svg>