<svg version="1.1" xmlns="http://www.w3.org/2000/svg" xlink="http://www.w3.org/1999/xlink" x="0px" y="0px" width="13.5px" height="15px" viewBox="0 0 13.5 15" style="enable-background:new 0 0 15 15;" space="preserve">
    <path d="m2.1053515,13.914407c0,0,-0.3172021,-1.092455,-0.2041693,-1.627436c0.1307868,-0.619611,0.9788291,-1.627438,0.9788291,-1.627438c0,0,0.8486341,-1.0078263,0.9794208,-1.6274354C3.9724652,8.4971141,3.6552628,7.404661,3.6552628,7.404661c0,0,-0.3172021,-1.0924537,-0.2041693,-1.6274365c0.1307868,-0.6196093,0.9794208,-1.6274364,0.9794208,-1.6274364c0,0,0.8480424,-1.007827,0.9788291,-1.6274363C5.5223763,1.9873689,5.2051741,0.89491524,5.2051741,0.89491524H7.868252c0,0,0.8480417,1.00782696,0.9794205,1.62743656c0.113038,0.5349826,-0.2041687,1.6274363,-0.2041687,1.6274363c0,0,-0.3177937,1.0924538,-0.2047619,1.6274364c0.1313787,0.6196095,0.9794217,1.6274365,0.9794217,1.6274365c0,0,0.8486334,1.0078274,0.9794214,1.6274366c0.113037,0.5349823,-0.204171,1.6274354,-0.204171,1.6274354c0,0,-0.3177935,1.092455,-0.2047605,1.627438c0.1313785,0.619609,0.9794215,1.627436,0.9794215,1.627436z" fill="#FFFFFF"/> <path d="M2.8178729,9.0374236C2.6912287,9.5108601,2.332009,9.8262863,2.0165823,9.7416595C1.7005638,9.6570337,1.5478807,9.2043101,1.6745249,8.7308739C1.8011688,8.2574377,2.1603885,7.9420109,2.4758152,8.0266375C2.7918338,8.1112634,2.9445169,8.5639874,2.8178729,9.0374236ZM3.9026332,3.1141467C4.2293041,2.5477989,4.1500035,1.8903146,3.7256865,1.6453114C3.3013693,1.4003083,2.6918204,1.6601063,2.3651496,2.2264542C2.0384788,2.7928021,2.1177792,3.4502863,2.5420962,3.6952896C2.9664134,3.9402927,3.5759624,3.6804947,3.9026332,3.1141467Zm5.6948436,2.3423249c-0.1266436,-0.4734361,0.02663,-0.9261592,0.3420573,-1.0107859c0.3160189,-0.084627,0.6746469,0.2308,0.8012909,0.7042361c0.127236,0.4734361,-0.02604,0.9261593,-0.341465,1.0107859c-0.316019,0.084627,-0.6746467,-0.2308,-0.8018832,-0.7042361zm1.7025942,6.5346004c-0.32667,-0.566348,-0.247369,-1.223832,0.176947,-1.468835c0.424909,-0.245003,1.033867,0.01479,1.360537,0.581143c0.326672,0.566347,0.247962,1.223832,-0.176946,1.468836c-0.424317,0.245002,-1.033866,-0.01479,-1.360538,-0.581144z" fill="#FFFFFF"/>
    </svg>