<svg version="1.1" xmlns="http://www.w3.org/2000/svg" xlink="http://www.w3.org/1999/xlink" x="0px" y="0px" width="13.5px" height="15px" viewBox="0 0 13.5 15" style="enable-background:new 0 0 15 15;" space="preserve"><path d="M1.0424129 11.308474c0 0-.21525839-.79025-.13855249-1.177241.088754-.4482072.66424899-1.1772405.66424899-1.1772405 0 0 .5758968-.7290333.6646507-1.1772411.076706-.3869912-.1385525-1.1772411-.1385525-1.1772411 0 0-.2152586-.7902498-.1385526-1.1772411.088754-.4482078.6646507-1.177241.6646507-1.177241 0 0 .5754951-.7290333.6642491-1.1772411C3.3612608 2.6807957 3.1460022 1.8905459 3.1460022 1.8905459h6.6264265c0 0 .5754953.7290334.6646513 1.1772412.0767.3869912-.138553 1.1772411-.138553 1.1772411 0 0-.21566.7902498-.138954 1.177241.08916.4482078.664651 1.1772411.664651 1.1772411 0 0 .575896.7290333.66465 1.1772411.07671.3869913-.138553 1.1772411-.138553 1.1772411 0 0-.21566.7902498-.138954 1.1772405.08916.448208.66465 1.177241.66465 1.177241zM1.5259413 7.7806043C1.4399985 8.1230743 1.1962263 8.3512451.98217271 8.2900286.76771741 8.228812.66410417 7.901325.75004691 7.5588548.83598971 7.2163847 1.0797619 6.988214 1.2938155 7.0494305 1.5082708 7.110647 1.611884 7.4381341 1.5259413 7.7806043ZM2.262077 3.4958747C2.4837611 3.0861948 2.4299465 2.6105894 2.1419982 2.433361 1.8540497 2.2561328 1.4404001 2.4440633 1.218716 2.8537432.99703191 3.2634231 1.0508466 3.7390286 1.3387949 3.9162568 1.6267433 4.0934851 2.0403929 3.9055546 2.262077 3.4958747Zm8.683832 1.694371c-.08594-.3424702.01807-.6699572.232125-.7311737.214456-.061217.457826.1669542.543768.5094243.08635.3424702-.01767.6699572-.231723.7311738-.214455.061216-.457827-.1669543-.54417-.5094244zm1.155407 4.7269439c-.221684-.4096797-.167869-.8852851.120079-1.0625134.28835-.1772283.701598.010702.923283.4203821.221684.40968.168271.8852857-.120079 1.0625137-.287949.177227-.701598-.0107-.923283-.4203824z" fill="#FFFFFF"/></svg>