<svg version="1.1" xmlns="http://www.w3.org/2000/svg" xlink="http://www.w3.org/1999/xlink" x="0px" y="0px" width="15px" height="16.666666666666668px" viewBox="0 0 15 16.666666666666668" style="enable-background:new 0 0 15 15;" space="preserve">
    <path d="M7.333333333333333,4.666666666666666C7.333333333333333,4.666666666666666,7.511666666666667,5.282,7.448,5.583333333333333C7.374,5.932333333333333,6.895999999999999,6.5,6.895999999999999,6.5C6.895999999999999,6.5,6.417666666666666,7.067666666666666,6.343666666666666,7.416666666666666C6.279999999999999,7.718,6.458333333333333,8.333333333333332,6.458333333333333,8.333333333333332C6.458333333333333,8.333333333333332,6.636666666666667,8.948666666666666,6.573,9.25C6.499,9.599,6.020999999999999,10.166666666666666,6.020999999999999,10.166666666666666C6.020999999999999,10.166666666666666,5.542666666666666,10.734333333333334,5.468666666666666,11.083333333333332C5.404999999999999,11.384666666666668,5.583333333333333,12,5.583333333333333,12L14.583333333333332,12C14.583333333333332,12,14.104999999999999,11.432333333333332,14.031333333333333,11.083333333333332C13.967666666666666,10.781999999999998,14.146,10.166666666666666,14.146,10.166666666666666C14.146,10.166666666666666,14.324,9.551333333333332,14.260333333333332,9.25C14.186666666666667,8.901,13.708333333333332,8.333333333333332,13.708333333333332,8.333333333333332C13.708333333333332,8.333333333333332,13.229999999999999,7.765666666666666,13.156333333333333,7.416666666666666C13.092666666666666,7.115333333333333,13.271,6.5,13.271,6.5C13.271,6.5,13.449,5.884666666666666,13.385333333333332,5.583333333333333C13.311666666666667,5.234333333333333,12.833333333333332,4.666666666666666,12.833333333333332,4.666666666666666zM9.333333333333332,5.333333333333333L10.666666666666666,5.333333333333333L11.333333333333332,6L12,10L10.666666666666666,10.666666666666666L9.333333333333332,10.666666666666666L8,10L8.666666666666666,6zM10.733333333333334,8L11,9.333333333333332L9,9.333333333333332L9.266666666666666,8zM10.533333333333333,7L10.666666666666666,7.666666666666666L9.333333333333332,7.666666666666666L9.466666666666665,7zM10.333333333333332,6L10.466666666666665,6.666666666666666L9.533333333333333,6.666666666666666L9.666666666666666,6z" fill="#FFFFFF"/>
    </svg>