<svg version="1.1" xmlns="http://www.w3.org/2000/svg" xlink="http://www.w3.org/1999/xlink" x="0px" y="0px" width="15px" height="15px" viewBox="0 0 15 15" style="enable-background:new 0 0 15 15;" space="preserve"><path d="m10.456122,4.834245c0.530643,0.3717823,0.84552,0.9759286,0.84552,1.6263105V7.179224c0,0.1048009,0.08488,0.1896849,0.189685,0.1896849h1.138109c0.104801,0,0.189685,-0.084884,0.189685,-0.1896849V6.4605555c0,-1.0252466,-0.49816,-1.9777017,-1.335856,-2.5621681C10.918716,3.5045542,10.542903,2.8956658,10.542903,2.2073469V0.72993904c0,-0.1048008,-0.08488,-0.1896848,-0.189685,-0.1896848H9.2151085c-0.1048008,0,-0.1896848,0.084884,-0.1896848,0.1896848V2.3043233c0,1.0359164,0.5823325,1.9354968,1.4306983,2.5299217zM4.5434077,9.0518877C2.9087985,9.3148383,1.3358369,9.8985935,-0.07944915,10.783236C1.903943,12.022826,4.1955731,12.680085,6.5343874,12.680085H8.6344358L5.9617762,9.5619029C5.6122819,9.1540804,5.073814,8.9665295,4.5434077,9.0518877ZM13.039155,2.6052109c-0.134439,-0.0901,-0.220034,-0.2361576,-0.220034,-0.397864V0.72993904c0,-0.1048008,-0.08488,-0.1896848,-0.189685,-0.1896848h-1.138109c-0.104801,0,-0.189685,0.084884,-0.189685,0.1896848V2.2073469c0,0.5221076,0.241137,1.0292775,0.679072,1.3133305c0.999402,0.648248,1.597146,1.7507912,1.597146,2.9398781V7.179224c0,0.1048009,0.08488,0.1896849,0.189685,0.1896849h1.138109c0.104801,0,0.189685,-0.084884,0.189685,-0.1896849V6.4605555c0,-1.5516221,-0.768461,-2.9920414,-2.056184,-3.8553446zM8.4774716,8.8875732c-0.8156449,0.00142,-2.0583178,0.00356,-2.0915126,0.00403l2.7931094,3.2585478a1.5171706,1.5171706,0,0,0,1.1520986,0.529933H12.42837L9.6317039,9.4175053A1.5164118,1.5164118,0,0,0,8.4774716,8.8875732Zm6.0488134,-0.00119h-4.362752l2.797614,3.2637648a1.5171706,1.5171706,0,0,0,1.152099,0.529933h0.413039c0.314165,0,0.569054,-0.25489,0.569054,-0.569055V9.4554422c0,-0.3144026,-0.254889,-0.5690545,-0.569054,-0.5690545z" fill="#FFFFFF"/></svg>