<svg version="1.1" xmlns="http://www.w3.org/2000/svg" xlink="http://www.w3.org/1999/xlink" x="0px" y="0px" width="15px" height="15px" viewBox="0 0 15 15" style="enable-background:new 0 0 15 15;" space="preserve"><path d="M15.046719,6.4476881C14.964276,4.872431,13.550523,3.6914434,11.973186,3.6914434h-0.243688c-1.373701,0,-2.7112518,-0.4226173,-3.8423056,-1.2025737C6.7951494,1.7357007,5.3894594,1.4064494,3.9026269,1.7424626C3.4342369,1.8480519,0.0694234,2.8134398,0.07150398,6.6042515C0.07254427,8.4494635,1.077463,10.05801,2.5679366,10.921709v1.924274c0,0.229904,0.1862116,0.416116,0.4161154,0.416116h0.4161155c0.2299038,0,0.4161154,-0.186212,0.4161154,-0.416116v-1.411151c0.3994709,0.102988,0.8166266,0.162805,1.2483464,0.162805c0.1414792,0,0.277757,-0.01898,0.4161154,-0.03069v1.279035c0,0.229904,0.1862117,0.416116,0.4161155,0.416116h0.4161154c0.2299038,0,0.4161155,-0.186212,0.4161155,-0.416116v-1.545608c0.3703427,-0.131596,0.7250812,-0.296222,1.0491311,-0.5074c1.18957,-0.775275,2.5364838,-1.2759143,3.9564778,-1.2759143c0.662664,0,0.416375,-0.00806,0.599466,-0.020286l1.935197,3.5484243c0.07438,0.136018,0.21586,0.216901,0.365401,0.216901c0.03407,0,0.06866,-0.0042,0.102729,-0.013c0.184391,-0.04681,0.313387,-0.212999,0.313387,-0.403112c0,0,0.0036,-6.2479735,-0.0042,-6.3982952zm-2.908647,0.7807366c-0.344596,0,-0.624174,-0.2795776,-0.624174,-0.6241732c0,-0.3448557,0.279578,-0.6241732,0.624174,-0.6241732c0.344595,0,0.624173,0.2793175,0.624173,0.6241732c0,0.3445956,-0.279578,0.6241732,-0.624173,0.6241732zM14.218649,11.21403L13.182001,9.3134232C13.57523,9.1618011,13.929189,8.9337178,14.218649,8.6377557Z" fill="#FFFFFF"/></svg>