<svg version="1.1" xmlns="http://www.w3.org/2000/svg" xlink="http://www.w3.org/1999/xlink" x="0px" y="0px" width="15px" height="15px" viewBox="0 0 15 15" style="enable-background:new 0 0 15 15;" space="preserve"><path d="M7.1663138,10.967955H0.49258475c-0.31592956,0,-0.5720339,-0.256104,-0.5720339,-0.572033V3.9128707c0,-0.3159295,0.25610434,-0.5720338,0.5720339,-0.5720338H7.1663138ZM4.2900317,9.2370287a0.28601695,0.28601695,0,0,0,0.2744571,0.2055031h0.5449339c0.1959215,0,0.3338532,-0.1925369,0.2708103,-0.3780428L4.0108315,5.0351298A0.28601695,0.28601695,0,0,0,3.7400211,4.8411388H2.9656541A0.28604079,0.28604079,0,0,0,2.6948437,5.0351298L1.3254184,9.064489c-0.063043,0.1855059,0.074889,0.3780428,0.2708104,0.3780428H2.1397801A0.28601695,0.28601695,0,0,0,2.4147139,9.2353365L2.6320392,8.4772248H4.067153ZM3.3592611,5.8901536c0,0,0.1029661,0.5019836,0.186626,0.791552l0.2574153,0.894542H2.8959136l0.2638507,-0.894542c0.08366,-0.2895922,0.186626,-0.791552,0.186626,-0.791552zM14.602755,10.967955H7.9290257V3.3408369h6.6737293c0.315929,0,0.572033,0.2561043,0.572033,0.5720338v6.4830513c0,0.315929,-0.256104,0.572033,-0.572033,0.572033zM13.744703,5.5336335H12.21928V5.1522776c0,-0.1579529,-0.128064,-0.286017,-0.286017,-0.286017h-0.381356c-0.157953,0,-0.286017,0.1280641,-0.286017,0.286017V5.5336335H9.7404663c-0.1579529,0,-0.2860169,0.1280641,-0.2860169,0.2860169v0.381356c0,0.1579528,0.128064,0.286017,0.2860169,0.286017H12.460154C12.310877,6.8278364,12.066451,7.1775636,11.744563,7.5168274C11.588207,7.3524153,11.449084,7.185286,11.330673,7.0178946C11.243938,6.8952887,11.078382,6.8587977,10.949436,6.9357601l-0.173517,0.1035858l-0.154878,0.092455c-0.14196,0.084756,-0.183361,0.2722166,-0.08902,0.4079793c0.144558,0.2080535,0.312188,0.4131993,0.500148,0.6131729c-0.193585,0.1483951,-0.401401,0.2918322,-0.622158,0.4281671c-0.131591,0.081277,-0.175924,0.2515994,-0.0992,0.3858849l0.189272,0.3312071c0.08013,0.1402199,0.260633,0.186531,0.398183,0.1019176c0.303464,-0.1866501,0.585644,-0.3855269,0.844775,-0.5932709c0.260204,0.2088166,0.542622,0.4076218,0.843655,0.5930326c0.137621,0.084756,0.318265,0.038563,0.398445,-0.1017743l0.18934,-0.3313744c0.07658,-0.1340232,0.03265,-0.3041313,-0.09856,-0.3854319A7.4540069,7.4540069,0,0,1,12.454791,8.151833c0.501101,-0.5344942,0.852521,-1.1032869,1.018053,-1.6648574h0.271859c0.157953,0,0.286017,-0.128064,0.286017,-0.2860169V5.8196028c0,-0.1579052,-0.128064,-0.2859693,-0.286017,-0.2859693z" fill="#FFFFFF"/></svg>