<svg version="1.1" xmlns="http://www.w3.org/2000/svg" xlink="http://www.w3.org/1999/xlink" x="0px" y="0px" width="10.312499999999998px" height="15px" viewBox="0 0 10.312499999999998 15" style="enable-background:new 0 0 15 15;" space="preserve"><path d="M2.8142578124999993,13.311035156249996c0.00029296874999999993,0.18427734374999996,0.05478515624999999,0.36474609374999994,0.15703124999999996,0.5182617187499999l0.5006835937499998,0.7526367187499998a0.9372070312499997,0.9372070312499997,0,0,0,0.7804687499999999,0.41835937499999987h1.8079101562499995a0.9372070312499997,0.9372070312499997,0,0,0,0.7804687499999999,-0.41835937499999987l0.5006835937499998,-0.7526367187499998a0.9371777343749997,0.9371777343749997,0,0,0,0.15703124999999996,-0.5182617187499999l0.0011718749999999997,-1.1235351562499998H2.8127929687499993l0.0014648437499999996,1.1235351562499998zM0,5.156249999999998c0,1.2999023437499995,0.4819335937499999,2.485839843749999,1.2761718749999997,3.391992187499999c0.48398437499999986,0.5522460937499999,1.2410156249999997,1.7059570312499994,1.5295898437499995,2.6791992187499996c0.0011718749999999997,0.007617187499999999,0.0020507812499999997,0.015234374999999998,0.0032226562499999994,0.02285156249999999h4.694531249999999c0.0011718749999999997,-0.007617187499999999,0.0020507812499999997,-0.014941406249999997,0.0032226562499999994,-0.02285156249999999c0.2885742187499999,-0.9732421874999998,1.0456054687499998,-2.1269531249999996,1.5295898437499995,-2.6791992187499996C9.830566406249998,7.642089843749998,10.312499999999996,6.456152343749999,10.312499999999996,5.156249999999998C10.312499999999996,2.3030273437499993,7.995410156249999,-0.008789062499999998,5.140136718749998,0C2.1515624999999994,0.009082031249999997,0,2.4307617187499995,0,5.156249999999998zm5.156249999999998,-2.3437499999999996c-1.2922851562499995,0,-2.3437499999999996,1.0514648437499998,-2.3437499999999996,2.3437499999999996c0,0.25898437499999993,-0.20976562499999996,0.4687499999999999,-0.4687499999999999,0.4687499999999999s-0.4687499999999999,-0.20976562499999996,-0.4687499999999999,-0.4687499999999999c0,-1.8093749999999995,1.4718749999999996,-3.281249999999999,3.281249999999999,-3.281249999999999c0.25898437499999993,0,0.4687499999999999,0.20976562499999996,0.4687499999999999,0.4687499999999999s-0.20976562499999996,0.4687499999999999,-0.4687499999999999,0.4687499999999999z" fill="#FFFFFF"/></svg>