<svg version="1.1" xmlns="http://www.w3.org/2000/svg" xlink="http://www.w3.org/1999/xlink" x="0px" y="0px" width="15px" height="15px" viewBox="0 0 15 15" style="enable-background:new 0 0 15 15;" space="preserve"><path d="M11.9676,10.2275a3.8116,3.8116,0,0,1,-1.9122,0.9831L3.7678,4.9338A4.0283,4.0283,0,0,1,4.7725,3.0324C7.03,0.7745,9.98,0.2235,12.3781,2.6219S14.2255,7.97,11.9676,10.2275Zm-6.987,1.6093A3.8422,3.8422,0,0,1,6.149,11.278A4.5328,4.5328,0,0,1,8,11.4452L3.5456,7a4.4126,4.4126,0,0,1,0.1572,1.9223a3.6639,3.6639,0,0,1,-0.5208,1.1159c-1.072,1.263,-2.132,1.727,-2.132,2.1879A1.8378,1.8378,0,0,0,2.7739,13.95C3.2348,13.95,3.6917,12.9368,4.9806,11.8368Z" fill="#FFFFFF"/></svg>