<svg version="1.1" xmlns="http://www.w3.org/2000/svg" xlink="http://www.w3.org/1999/xlink" x="0px" y="0px" width="15px" height="15px" viewBox="0 0 15 15" style="enable-background:new 0 0 15 15;" space="preserve"><path d="m11.9807 9.4807-.7208-.7208C10.3425 9.8168 9.006 10.5 7.5 10.5c-2.757 0-5-2.243-5-5 0-1.506.6832-2.8425 1.7401-3.7599L3.5193 1.0193C2.2831 2.1183 1.5 3.7158 1.5 5.5c0 3.1449 2.4208 5.72 5.5 5.9747V13H6.5C6.2239 13 6 13.2238 6 13.5 6 13.7761 6.2239 14 6.5 14h2C8.7761 14 9 13.7761 9 13.5 9 13.2238 8.7761 13 8.5 13H8v-1.5273C9.5806 11.341 10.9858 10.5997 11.9807 9.4807zM7.5 9C9.433 9 11 7.433 11 5.5S9.433 2 7.5 2 4 3.567 4 5.5 5.567 9 7.5 9zM8.5 4l.3638-.5915c.3463.2263.6249.5394.8235.9042L9.5 5h-1V4zM6.6563 3.1563 7.5 4v1L8 6h1.5.4396C9.7708 6.826 9.2026 7.5041 8.4381 7.8144L8 7H6.5L5.0504 5C5.2251 4.1396 5.8452 3.4486 6.6563 3.1563z" fill="#FFFFFF"/></svg>