<svg version="1.1" xmlns="http://www.w3.org/2000/svg" xlink="http://www.w3.org/1999/xlink" x="0px" y="0px" width="15px" height="15px" viewBox="0 0 15 15" style="enable-background:new 0 0 15 15;" space="preserve">
    <path d="M7.5,14.941l-0.4,-0.495c-0.973,-1.189,-4.9,-6.556,-4.9,-9.16A5.066,5.066,0,0,1,7.036,0q0.222,-0.01,0.445,0a5.066,5.066,0,0,1,5.286,4.836q0.01,0.225,0,0.45c0,2.213,-2.669,6.111,-4.678,8.851ZM7.481,0.986a4.077,4.077,0,0,0,-4.3,4.3c0,1.832,2.759,6.038,4.286,8.034c1.25,-1.71,4.315,-5.989,4.315,-8.034a4.077,4.077,0,0,0,-4.3,-4.3Z" fill="#FFFFFF"/>
    </svg>