<svg version="1.1" xmlns="http://www.w3.org/2000/svg" xlink="http://www.w3.org/1999/xlink" x="0px" y="0px" width="15px" height="15px" viewBox="0 0 15 15" style="enable-background:new 0 0 15 15;" space="preserve"><path d="M7.5 6c-2.5 0-3 2.28-3 3.47l0 0c-.6097.2059-1.1834.5062-1.7.89-.871.6614-1.0492 1.8998-.4 2.78.6799.8542 1.9081 1.0297 2.8.4.6779-.4601 1.4808-.701 2.3-.69.8192-.011 1.6221.2299 2.3.69.8575.6854 2.1072.5515 2.8-.3.6888-.8134.5878-2.0313-.2256-2.7201-.0243-.0206-.0491-.0406-.0744-.0599l-.1-.1c-.5333-.3564-1.1032-.6548-1.7-.89l0 0C10.5 8.29 10 6 7.5 6zM2.08 4.3c-.7348.3676-1.0652 1.2371-.76 2 .064.8282.7809 1.4517 1.61 1.4.7348-.3676 1.0652-1.2371.76-2C3.626 4.8718 2.9091 4.2483 2.08 4.3zM12.93 4.3c.7348.3676 1.0653 1.2371.76 2-.064.8282-.7809 1.4517-1.61 1.4-.7348-.3676-1.0653-1.2371-.76-2C11.384 4.8718 12.1009 4.2483 12.93 4.3zM5.08 1.3c-.68.09-1 .94-.76 1.87C4.4301 3.9951 5.1003 4.6321 5.93 4.7c.68-.09 1-.94.76-1.87C6.5799 2.0049 5.9097 1.3679 5.08 1.3zM9.93 1.3c.68.09 1 .94.76 1.87C10.5791 3.9986 9.9036 4.6365 9.07 4.7c-.68-.08-1-.94-.76-1.87C8.4209 2.0014 9.0964 1.3634 9.93 1.3z" fill="#FFFFFF"/></svg>