<svg version="1.1" xmlns="http://www.w3.org/2000/svg" xlink="http://www.w3.org/1999/xlink" x="0px" y="0px" width="15px" height="15px" viewBox="0 0 15 15" style="enable-background:new 0 0 15 15;" space="preserve"><path d="M15,8.1c0,1.376,-1.363,0.694,-1.363,0.694L12.5,9H11a5.309,5.309,0,0,1,-1.5,2a3.272,3.272,0,0,1,-0.523,1.125c-0.077,0.091,-0.061,0.2,-0.068,0.33L9,14.755a0.264,0.264,0,0,1,-0.266,0.25A0.242,0.242,0,0,1,8.5,14.8L8,11.5H4v3.253A0.247,0.247,0,0,1,3.753,15h0a0.25,0.25,0,0,1,-0.241,-0.2L3,12v-0.5a8.2,8.2,0,0,1,-1.426,-0.1A1.886,1.886,0,0,1,0.9,12.826c-0.128,0.083,-0.148,0.211,-0.133,0.386c0,0,0.19,1.532,0.19,1.538a0.25,0.25,0,0,1,-0.25,0.25a0.238,0.238,0,0,1,-0.23,-0.174l-0.427,-1.7a0.35,0.35,0,0,1,0.055,-0.3c0.437,-0.68,-0.049,-2.55,-0.049,-2.55A1.354,1.354,0,0,1,0,9.922V7.5A2.027,2.027,0,0,1,2.736,5.586s0.1,0.03,0.142,0.049a15.15,15.15,0,0,0,3.814,0.038l0.179,-0.062a1.842,1.842,0,0,1,1.26,0a0.972,0.972,0,0,1,0.227,0.089a1.994,1.994,0,0,1,0.287,0.171A1.8,1.8,0,0,0,9.5,6h1V5l0.5,0.5c0.5,-1.5,2.5,-1,2.5,-1a1.687,1.687,0,0,0,-1.5,1l2.5,2a0.613,0.613,0,0,1,0.186,-0.069A0.318,0.318,0,0,1,15,7.752V8.1Z" fill="#FFFFFF"/></svg>