<svg version="1.1" xmlns="http://www.w3.org/2000/svg" xlink="http://www.w3.org/1999/xlink" x="0px" y="0px" width="15px" height="15px" viewBox="0 0 15 15" style="enable-background:new 0 0 15 15;" space="preserve"><path d="M4.908,12a1.5,1.5,0,1,1,-2.816,0Zm8.65,-6C13.539,6,13,6,13,6V3h0.351a0.282,0.282,0,0,0,0.223,-0.148l0.268,-0.536a0.334,0.334,0,0,0,0.009,-0.066A0.25,0.25,0,0,0,13.6,2H13V1.7a0.215,0.215,0,0,0,-0.2,-0.2H9.25a0.25,0.25,0,0,0,0,0.5H12V6.6L7.6,10H6V7.5A0.5,0.5,0,0,0,5.5,7H5V5H6.75a0.25,0.25,0,0,0,0,-0.5L2.266,4.034c-0.006,0,-0.01,-0.007,-0.016,-0.007a0.25,0.25,0,0,0,-0.25,0.25V4.75A0.25,0.25,0,0,0,2.25,5H3V7H2.5A1.538,1.538,0,0,0,1,8.5v2a0.472,0.472,0,0,0,0.442,0.5C1.461,11,7.5,11,7.5,11L10,10h3.5a0.472,0.472,0,0,0,0.5,-0.442C14,9.539,14,6.5,14,6.5A0.472,0.472,0,0,0,13.558,6ZM12.5,11A1.5,1.5,0,1,0,14,12.5A1.538,1.538,0,0,0,12.5,11Z" fill="#FFFFFF"/></svg>