<svg version="1.1" xmlns="http://www.w3.org/2000/svg" xlink="http://www.w3.org/1999/xlink" x="0px" y="0px" width="15px" height="15px" viewBox="0 0 15 15" style="enable-background:new 0 0 15 15;" space="preserve"><path d="M13,4a1,1,0,0,0,-1,-1a1,1,0,0,0,-2,0V5.0673A3.4808,3.4808,0,0,0,4.3583,9H2a1,1,0,0,0,0,2a1,1,0,0,0,1,1a1,1,0,0,0,2,0V9.9326A3.4807,3.4807,0,0,0,10.6417,6H13a1,1,0,0,0,0,-2ZM7.5,9.9925A2.484,2.484,0,0,1,6.3184,5.319a1.0809,1.0809,0,0,1,0.5459,0.307A2.1243,2.1243,0,0,1,7.25,7.0117l0.001,0.9561A2.5821,2.5821,0,0,0,7.76,9.7031a1.5462,1.5462,0,0,0,0.2591,0.2333A2.4861,2.4861,0,0,1,7.5,9.9925ZM8.6815,9.681a1.0813,1.0813,0,0,1,-0.5458,-0.307A2.1243,2.1243,0,0,1,7.75,7.9883l-0.001,-0.9561A2.5821,2.5821,0,0,0,7.24,5.2969a1.5557,1.5557,0,0,0,-0.2592,-0.2334A2.4843,2.4843,0,0,1,8.6815,9.681Z" fill="#FFFFFF"/></svg>