<svg version="1.1" xmlns="http://www.w3.org/2000/svg" xlink="http://www.w3.org/1999/xlink" x="0px" y="0px" width="15px" height="15px" viewBox="0 0 15 15" style="enable-background:new 0 0 15 15;" space="preserve">
    <path d="M1.0417,11l12,1.495V13h-12Zm12,-4l-1,1v0.5833L4.2381,5.3318l0.0624,-0.1248L5.652,3.8447h0.8311a0.35,0.35,0,0,0,0,-0.6992H5.5065a0.3518,0.3518,0,0,0,-0.248,0.1025L3.7643,4.7529a0.3714,0.3714,0,0,0,-0.0654,0.0909l-0.109,0.218L1.0417,4c0,2,-0.0293,3.9578,2.8595,4.4994C5.321,8.7656,12.0417,10,12.0417,10l2,-2Z" fill="#FFFFFF"/>
    </svg>