<svg version="1.1" xmlns="http://www.w3.org/2000/svg" xlink="http://www.w3.org/1999/xlink" x="0px" y="0px" width="15px" height="15px" viewBox="0 0 15 15" style="enable-background:new 0 0 15 15;" space="preserve">
    <path d="M15,11a1,1,0,0,1,-1,1l0,0v0H9.4142a1,1,0,0,1,-0.7071,-0.2929L7.146,10.146A0.4984,0.4984,0,0,0,6.7935,10H3.3343a1.0023,1.0023,0,0,1,-0.6015,-0.2006L1.3857,8.7888A1.0134,1.0134,0,0,1,1,8a0.9953,0.9953,0,0,1,0.4719,-0.8444L5,5L6.0385,3.3076h0A0.5,0.5,0,0,1,7,3.5V7L8,8H9l5.4115,-0.9922a0.5,0.5,0,0,1,0.3555,0.915L13,9l1.6313,1.2243A0.99,0.99,0,0,1,15,11ZM5.5,11H3.2247a3.0035,3.0035,0,0,1,-1.44,-0.3679L0.74,10.0612a0.5,0.5,0,0,0,-0.48,0.8775l1.2687,0.6934A3.0032,3.0032,0,0,0,2.969,12H5.5a0.5,0.5,0,0,0,0,-1Z" fill="#FFFFFF"/>
    </svg>