<svg version="1.1" xmlns="http://www.w3.org/2000/svg" xlink="http://www.w3.org/1999/xlink" x="0px" y="0px" width="15px" height="15px" viewBox="0 0 15 15" style="enable-background:new 0 0 15 15;" space="preserve"><path d="M13.6368,3.9994h-1.6387V1.3608C11.99804,1.16148,11.83642,0.99994,11.6371,1l0,0h-0.278c-0.19932,0,-0.3609,0.16158,-0.3609,0.3609l0,0v2.6385H9.36c-0.19932,0,-0.3609,0.16158,-0.3609,0.3609l0,0l0,0v5.6381h-3.637c-0.20042,0,-0.3629,0.16248,-0.3629,0.3629v3.2745c0.00055,0.20003,0.16287,0.3619,0.3629,0.3619h8.2747c0.19932,0,0.3609,-0.16158,0.3609,-0.3609l0,0V4.36c0,-0.19932,-0.16158,-0.3609,-0.3609,-0.3609l0,0L13.6368,3.9994zM6.9989,11.9981h-1v-1h1V11.9981zM8.9989,11.9981h-1v-1h1V11.9981zM10.9989,11.9981h-1v-1h1V11.9981zM10.9989,9.9981h-1v-1h1V9.9981zM10.9989,7.9981h-1v-1h1V7.9981zM10.9989,5.9981h-1v-1h1V5.9981zM12.9989,11.9971h-1v-1h1V11.9971zM12.9989,9.9971h-1v-1h1V9.9971zM12.9989,7.9971h-1v-1h1V7.9971zM12.9989,5.9971h-1v-1h1V5.9971zM7.9987,1.3608C7.99864,1.16152,7.83708,1,7.6378,1H5.36C5.16068,1,4.9991,1.16158,4.9991,1.3609l0,0V3H3.36C3.16138,3.00049,3.00049,3.16138,3,3.36l0,0v0.6394H1.3608C1.16164,3.99945,1.00017,4.16084,1,4.36l0,0v9.2765c0,0.19932,0.16158,0.3609,0.3609,0.3609h2.6385V8.9986h3.9993V1.3608zM3,11.9981H2v-1h1V11.9981zM3,9.9981H2v-1h1V9.9981zM3,7.9981H2v-1h1V7.9981zM3,5.9981H2v-1h1V5.9981zM5,7.9981H4v-1h1V7.9981zM5,5.9981H4v-1h1V5.9981zM7,7.9981H6v-1h1V7.9981zM7,5.9981H6v-1h1V5.9981zM7,3.9981H6V3h1v1V3.9981z" fill="#FFFFFF"/></svg>