<svg version="1.1" xmlns="http://www.w3.org/2000/svg" xlink="http://www.w3.org/1999/xlink" x="0px" y="0px" width="15px" height="15px" viewBox="0 0 15 15" style="enable-background:new 0 0 15 15;" space="preserve"><path d="M8.911,3.854A0.248,0.248,0,0,1,9,4.044V7.75A0.25,0.25,0,0,1,8.75,8H6.25A0.25,0.25,0,0,1,6,7.75V6H5V7.75A0.25,0.25,0,0,1,4.75,8H2.25A0.25,0.25,0,0,1,2,7.75v-3.7a0.248,0.248,0,0,1,0.089,-0.19L5.343,1.132a0.245,0.245,0,0,1,0.315,0ZM7.752,9.5a0.248,0.248,0,0,0,-0.138,0.042L5,11.5H4v-2a0.5,0.5,0,0,0,-1,0v2H2v-2a0.5,0.5,0,0,0,-1,0v4.25a0.25,0.25,0,0,0,0.25,0.25h6.5A0.25,0.25,0,0,0,8,13.75v-4A0.248,0.248,0,0,0,7.752,9.5ZM14,6.245v6.5a0.253,0.253,0,0,1,-0.253,0.253H10.253A0.253,0.253,0,0,1,10,12.747V6.25A0.249,0.249,0,0,1,10.25,6H11V5.249A0.249,0.249,0,0,1,11.249,5h1.5A0.253,0.253,0,0,1,13,5.253V6h0.755A0.245,0.245,0,0,1,14,6.245ZM13,11H11v1h2Zm0,-2H11v1h2Zm0,-2H11V8h2Z" fill="#FFFFFF"/></svg>