<svg version="1.1" xmlns="http://www.w3.org/2000/svg" xlink="http://www.w3.org/1999/xlink" x="0px" y="0px" width="15px" height="15px" viewBox="0 0 15 15" style="enable-background:new 0 0 15 15;" space="preserve"><path d="M3.66,7.0016H2.03a5.3231,5.3231,0,0,1,1.01,-2.71A8.7122,8.7122,0,0,1,3.66,7.0016Zm1.075,0h2.34v-4.97a5.4585,5.4585,0,0,0,-3.24,1.44A9.2947,9.2947,0,0,1,4.735,7.0016Zm3.19,-4.97v4.97h2.34a9.2947,9.2947,0,0,1,0.9,-3.53A5.4585,5.4585,0,0,0,7.925,2.0316Zm4.035,2.26a8.7122,8.7122,0,0,0,-0.62,2.71h1.63A5.3231,5.3231,0,0,0,11.96,4.2916ZM14,8.7516a0.7555,0.7555,0,0,1,-0.75,0.75H11.72l-0.76,1.52v2.38a0.392,0.392,0,0,1,-0.24,0.35a0.5863,0.5863,0,0,1,-0.14,0.02a0.3274,0.3274,0,0,1,-0.26,-0.11l-1.02,-1.01l-1.59,1.06a0.3975,0.3975,0,0,1,-0.42,0l-1.59,-1.06l-1.02,1.01a0.3709,0.3709,0,0,1,-0.4,0.09a0.392,0.392,0,0,1,-0.24,-0.35v-2.38l-0.76,-1.52H1.75a0.75,0.75,0,0,1,0,-1.5h11.5A0.749,0.749,0,0,1,14,8.75Zm-7.14,0.75H4.12l0.63,1.27a0.3175,0.3175,0,0,1,0.04,0.16v1.56l0.56,-0.55Zm1.98,2.55L7.5,9.8916l-1.34,2.16l1.34,0.9Zm2.05,-2.55H8.14l1.51,2.44l0.56,0.55v-1.56a0.3175,0.3175,0,0,1,0.04,-0.16Z" fill="#FFFFFF"/></svg>