<svg version="1.1" xmlns="http://www.w3.org/2000/svg" xlink="http://www.w3.org/1999/xlink" x="0px" y="0px" width="15px" height="15px" viewBox="0 0 15 15" style="enable-background:new 0 0 15 15;" space="preserve"><path d="M5.44 8.17c.7156.0006 1.414-.2194 2-.63C7.9037 7.8634 8.4391 8.0693 9 8.14h.44L8 13.7c-.1082.2541-.4019.3723-.656.264C7.2252 13.9134 7.1306 13.8188 7.08 13.7L5.44 8.17zM11.44 4.67c0 1.1046-.8954 2-2 2s-2-.8954-2-2l0 0 0 0 0 0c0 1.1046-.8954 2-2 2s-2-.8954-2-2 .8954-2 2-2h.12C5.1756 1.6345 5.7035.4834 6.739.099s2.1866.1435 2.571 1.179c.1667.449.1667.9429 0 1.3919h.13C10.5446 2.67 11.44 3.5654 11.44 4.67z" fill="#FFFFFF"/></svg>