<svg version="1.1" xmlns="http://www.w3.org/2000/svg" xlink="http://www.w3.org/1999/xlink" x="0px" y="0px" width="15px" height="15px" viewBox="0 0 15 15" style="enable-background:new 0 0 15 15;" space="preserve">
    <path d="M0,8.842V13h2v-1c0.036,-1.089,0.911,-1.964,2,-2c1.089,0.036,1.964,0.911,2,2v1h3v-1c0.036,-1.089,0.911,-1.964,2,-2c1.089,0.036,1.964,0.911,2,2v1h2V8.842C10.6,3.082,3.071,4.4,0,8.842zM9.5,5.734c0.514,0.121,1.016,0.289,1.5,0.5V9H9.5V5.734zM9,5.634V9H7.5V5.506C8.003,5.506,8.505,5.549,9,5.634zM3.5,6.477C3.98,6.229,4.482,6.026,5,5.871V9H3.5V6.477zM5.5,9V5.73C5.993,5.615,6.495,5.543,7,5.515V9H5.5zM3,6.744V9H0.5C1.176,8.094,2.032,7.328,3,6.744zM11.5,9V6.5l-0.053,-0.053C12.649,7.05,13.694,7.924,14.5,9H11.5z" fill="#FFFFFF"/>
    </svg>