<svg version="1.1" xmlns="http://www.w3.org/2000/svg" xlink="http://www.w3.org/1999/xlink" x="0px" y="0px" width="15px" height="15px" viewBox="0 0 15 15" style="enable-background:new 0 0 15 15;" space="preserve"><path d="M13.91,7.94a5.9086,5.9086,0,0,1,-0.13,0.94a8.8218,8.8218,0,0,0,-2.17,-1.49a8.89,8.89,0,0,0,-1.4,-0.56a8.6142,8.6142,0,0,0,-1.82,-0.35a0.221,0.221,0,0,0,-0.08,-0.01A7.32,7.32,0,0,1,7.5,4.59c-0.01,-0.01,-0.01,-0.01,0,-0.02a7.7573,7.7573,0,0,1,1.52,0.15a7.0987,7.0987,0,0,1,1.56,0.5a6.8585,6.8585,0,0,1,1.4,0.78A7.4165,7.4165,0,0,1,13.91,7.94Zm-1.87,-5a6.2232,6.2232,0,0,0,-1.85,-1.27a4.2725,4.2725,0,0,0,-0.98,-0.36a5.6412,5.6412,0,0,0,-1.55,-0.23a1.2882,1.2882,0,0,0,-0.32,0A7.4263,7.4263,0,0,0,7.21,2.5c0,0.2,0.01,0.39,0.02,0.58a2.28,2.28,0,0,1,0.26,-0.01a2.6438,2.6438,0,0,1,0.28,0.01a8.2865,8.2865,0,0,1,1.49,0.16a8.9879,8.9879,0,0,1,1.35,0.37a8.7922,8.7922,0,0,1,1.53,0.7a10.18,10.18,0,0,1,1.39,0.97A6.4588,6.4588,0,0,0,12.04,2.94ZM4.01,8.76a9.4084,9.4084,0,0,1,-0.62,-1.37a9.1038,9.1038,0,0,1,-0.37,-1.41a9.1748,9.1748,0,0,1,-0.16,-1.67V4.28a8.455,8.455,0,0,1,0.1,-1.34A6.28,6.28,0,0,0,1.47,5.3a6.2222,6.2222,0,0,0,-0.4,2.2c0,0.15,0.01,0.3,0.02,0.44a5.9086,5.9086,0,0,0,0.13,0.94a5.7343,5.7343,0,0,0,0.41,1.23c0.22,-0.05,0.44,-0.11,0.65,-0.17a8.0188,8.0188,0,0,0,1.9,-0.88C4.12,8.96,4.06,8.86,4.01,8.76Zm2.6,-2.28a9,9,0,0,1,-0.63,-1.76a9.135,9.135,0,0,1,-0.24,-1.48c-0.02,-0.25,-0.03,-0.49,-0.03,-0.74a9.3777,9.3777,0,0,1,0.08,-1.19a4.2725,4.2725,0,0,0,-0.98,0.36a7.7038,7.7038,0,0,0,-0.42,1.94c-0.02,0.22,-0.03,0.44,-0.03,0.67a7.2659,7.2659,0,0,0,0.06,0.93a7.4258,7.4258,0,0,0,0.37,1.63a6.4705,6.4705,0,0,0,0.59,1.28A8.0174,8.0174,0,0,0,6.65,6.55A0.2522,0.2522,0,0,1,6.61,6.48ZM12.7,9.93s0,-0.01,-0.01,0a7.0128,7.0128,0,0,0,-1.7,-1.16c-0.06,0.1,-0.11,0.19,-0.17,0.29a8.783,8.783,0,0,1,-0.88,1.22a8.9125,8.9125,0,0,1,-1.06,1.07a10.4181,10.4181,0,0,1,-1.38,0.98a8.9933,8.9933,0,0,1,-2.64,1.02a6.2985,6.2985,0,0,0,5.28,0a5.9674,5.9674,0,0,0,2.42,-1.89a4.8258,4.8258,0,0,0,0.65,-1.03A6.0315,6.0315,0,0,0,12.7,9.93Zm-5.17,-2c-0.01,0.01,-0.02,0.03,-0.03,0.04a9.26,9.26,0,0,1,-1.25,1.4a9.5925,9.5925,0,0,1,-1.19,0.91a9.2683,9.2683,0,0,1,-2.62,1.18a6.0989,6.0989,0,0,0,0.53,0.61a7.7353,7.7353,0,0,0,3.15,-0.72a7.3839,7.3839,0,0,0,1.38,-0.82A7.6429,7.6429,0,0,0,8.75,9.37a7.7441,7.7441,0,0,0,0.82,-1.15A7.3414,7.3414,0,0,0,7.53,7.93Z" fill="#FFFFFF"/></svg>