<svg version="1.1" xmlns="http://www.w3.org/2000/svg" xlink="http://www.w3.org/1999/xlink" x="0px" y="0px" width="15px" height="15px" viewBox="0 0 15 15" style="enable-background:new 0 0 15 15;" space="preserve">
    <path d="M5.3608,1.67l-0.01,4.02a4.4523,4.4523,0,0,0,-1.1,-0.11c-0.37,0.1,-0.74,0.63,-1.1,0.76A4.2019,4.2019,0,0,1,5.3608,1.67Zm2.41,-0.64l2.03,3.45a3.1832,3.1832,0,0,1,0.84,-0.61c0.36,-0.1,0.94,0.17,1.34,0.11A4.2018,4.2018,0,0,0,7.7708,1.03ZM1.0008,13h13c-0.66,-0.66,-2.64,-1.11,-4.34,-1.33l-1.87,-7c0.52,-0.05,1.15,0.03,1.53,0l-2.11,-3.6h-0.01a6.1743,6.1743,0,0,0,-0.7,0.14a4.3792,4.3792,0,0,0,-0.64,0.22l-0.01,4.15c0.35,-0.17,0.84,-0.54,1.3,-0.74l1.8,6.74c-0.58,-0.05,-1.09,-0.08,-1.45,-0.08C6.0308,11.5,2.0008,12,1.0008,13Z" fill="#FFFFFF"/>
    </svg>