<svg version="1.1" xmlns="http://www.w3.org/2000/svg" xlink="http://www.w3.org/1999/xlink" x="0px" y="0px" width="15px" height="15px" viewBox="0 0 15 15" style="enable-background:new 0 0 15 15;" space="preserve"><path d="M10.651,7.121a0.251,0.251,0,0,0,-0.314,0L8.092,8.929A0.247,0.247,0,0,0,8,9.122v4.625A0.253,0.253,0,0,0,8.253,14H9.747A0.253,0.253,0,0,0,10,13.747h0V12h1v1.747a0.253,0.253,0,0,0,0.253,0.253h1.494A0.253,0.253,0,0,0,13,13.747h0V9.12a0.25,0.25,0,0,0,-0.094,-0.2ZM10,11H9V10h1Zm2,0H11V10h1ZM5.71,1.815a0.252,0.252,0,0,0,-0.42,0L2.042,5.936A0.252,0.252,0,0,0,2,6.076v7.671A0.252,0.252,0,0,0,2.251,14h2.5A0.252,0.252,0,0,0,5,13.748V12H6v1.748A0.252,0.252,0,0,0,6.252,14H7V8a0.5,0.5,0,0,1,0.188,-0.391L9,6C9,5.95,5.71,1.815,5.71,1.815ZM4,10H3V9H4ZM4,7H3V6H4Zm2,3H5V9H6ZM6,7H5V6H6Z" fill="#FFFFFF"/></svg>