<svg version="1.1" xmlns="http://www.w3.org/2000/svg" xlink="http://www.w3.org/1999/xlink" x="0px" y="0px" width="15px" height="15px" viewBox="0 0 15 15" style="enable-background:new 0 0 15 15;" space="preserve">
    <path d="M6.554,9.639a0.5,0.5,0,0,0,0.707,0.707L9.928,7.669a0.25,0.25,0,0,0,0,-0.354h0L7.261,4.639a0.5,0.5,0,0,0,-0.707,0.707L8.2,7H1.5a0.5,0.5,0,0,0,0,1H8.2ZM12,1H5.5a0.5,0.5,0,0,0,0,1h6a0.5,0.5,0,0,1,0.5,0.5v10a0.5,0.5,0,0,1,-0.5,0.5H5.25a0.5,0.5,0,0,0,0,1H12a1,1,0,0,0,1,-1V2A1,1,0,0,0,12,1Z" fill="#FFFFFF"/>
    </svg>