<svg version="1.1" xmlns="http://www.w3.org/2000/svg" xlink="http://www.w3.org/1999/xlink" x="0px" y="0px" width="15px" height="15px" viewBox="0 0 15 15" style="enable-background:new 0 0 15 15;" space="preserve"><path d="M3,1C2.4477,1,2,1.4477,2,2L2,10C2,10.5523,2.4477,11,3,11L12,11C12.5523,11,13,10.5523,13,10L13,2C13,1.4477,12.5523,1,12,1L3,1zM5.75,1.5L5.7597656,1.5L9.2597656,1.5C9.3978656,1.5,9.5097656,1.6119,9.5097656,1.75C9.5097656,1.8881,9.3978656,2,9.2597656,2L5.75,2C5.6119,2,5.5,1.8881,5.5,1.75C5.5,1.6119,5.6119,1.5,5.75,1.5zM3.5,3L7,3L7,7L3.5,7C3.2239,7,3,6.7761,3,6.5L3,3.5C3,3.2239,3.2239,3,3.5,3zM8,3L11.5,3C11.7761,3,12,3.2239,12,3.5L12,6.5C12,6.7761,11.7761,7,11.5,7L8,7L8,3zM5,8C5.5523,8,6,8.4477,6,9C6,9.5523,5.5523,10,5,10C4.4477,10,4,9.5523,4,9C4,8.4477,4.4477,8,5,8zM10,8C10.5523,8,11,8.4477,11,9C11,9.5523,10.5523,10,10,10C9.4477,10,9,9.5523,9,9C9,8.4477,9.4477,8,10,8zM10.445312,11.994141C10.380597,11.999652,10.314981,12.018581,10.253906,12.050781C10.030606,12.168381,9.9302313,12.433922,10.019531,12.669922L10.189453,13L4.8105469,13L4.9394531,12.730469C5.0371531,12.472169,4.9067375,12.183637,4.6484375,12.085938C4.4124375,11.996738,4.1468969,12.097113,4.0292969,12.320312L3.0292969,14.320312C3.0080969,14.377912,2.9986,14.4387,3,14.5C3,14.7761,3.2239,15,3.5,15C3.6802,14.999,3.8450875,14.899434,3.9296875,14.740234L3.9296875,14.689453L4,14.689453L4.3105469,14L10.689453,14L11,14.689453L11,14.740234C11.0846,14.899434,11.249488,14.999,11.429688,15C11.705787,15,11.929688,14.7761,11.929688,14.5C11.949587,14.4212,11.949587,14.338566,11.929688,14.259766L10.929688,12.259766C10.833163,12.076541,10.639459,11.977608,10.445312,11.994141z" fill="#FFFFFF"/></svg>