<svg version="1.1" xmlns="http://www.w3.org/2000/svg" xlink="http://www.w3.org/1999/xlink" x="0px" y="0px" width="15px" height="15px" viewBox="0 0 15 15" style="enable-background:new 0 0 15 15;" space="preserve"><path d="M6,1a2,2,0,0,0,-2,2v3.5a0.5,0.5,0,0,0,0.5,0.5h2a0.5,0.5,0,0,0,0.5,-0.5v-2a0.5,0.5,0,0,1,0.5,-0.5H14V1Zm1,14H4a0.5,0.5,0,0,1,-0.48,-0.38L2,8.62a0.5,0.5,0,0,1,0.365,-0.606A0.558,0.558,0,0,1,2.5,8h6a0.5,0.5,0,0,1,0.514,0.485A0.47,0.47,0,0,1,9,8.62l-1.5,6A0.5,0.5,0,0,1,7,15Zm-3.35,-4h3.71l0.5,-2H3.14Z" fill="#FFFFFF"/></svg>