<svg version="1.1" xmlns="http://www.w3.org/2000/svg" xlink="http://www.w3.org/1999/xlink" x="0px" y="0px" width="15px" height="15px" viewBox="0 0 15 15" style="enable-background:new 0 0 15 15;" space="preserve"><path d="m10.9252 9.0103-.3636-2.1802C10.4824 6.3491 10.0713 6 9.583 6H5.417C4.9302 6 4.5186 6.3486 4.4385 6.8291L4.0746 9.0117C3.4776 9.0436 3 9.5277 3 10.1327V13h1c0 .5522.4477 1 1 1s1-.4478 1-1h3c0 .5522.4477 1 1 1s1-.4478 1-1h1v-2.8744C12 9.522 11.5219 9.0383 10.9252 9.0103zM4.75 12C4.3358 12 4 11.6642 4 11.25c0-.4142.3358-.75.75-.75s.75.3358.75.75C5.5 11.6642 5.1642 12 4.75 12zM5.0887 9 5.417 7l4.1582-.0068L9.9098 9H5.0887zM10.25 12c-.4142 0-.75-.3358-.75-.75 0-.4142.3358-.75.75-.75S11 10.8358 11 11.25C11 11.6642 10.6642 12 10.25 12zM12 2H5.7889C5.4029 1.1177 4.5247.5 3.5.5S1.5971 1.1177 1.2111 2H3.5L4 3 3.5 4H1.2111C1.5972 4.8821 2.4754 5.5 3.5 5.5S5.4028 4.8821 5.7889 4H12c.5527 0 1-.4478 1-1S12.5527 2 12 2z" fill="#FFFFFF"/></svg>