<svg version="1.1" xmlns="http://www.w3.org/2000/svg" xlink="http://www.w3.org/1999/xlink" x="0px" y="0px" width="15px" height="15px" viewBox="0 0 15 15" style="enable-background:new 0 0 15 15;" space="preserve"><path d="M7 6.5v-1c0-.5523-.4477-1-1-1s-1 .4477-1 1v3L7 6.5zM4.65 10.56 5 3c0-.5523.4477-1 1-1s1 .4477 1 1S6.5523 4 6 4 5 3.5523 5 3L4.65 10.56zM14 6 14 6c0 .5523-.4477 1-1 1h-1.58c-.2658-.0015-.5213.1028-.71.29l-5.42 5.42c-.1863.1847-.4377.2889-.7.29H2c-.5523 0-1-.4477-1-1l0 0c0-.5523.4477-1 1-1h1.59c.2623-.0011.5137-.1053.7-.29l5.42-5.42C9.8987 5.1028 10.1542 4.9985 10.42 5H13C13.5523 5 14 5.4477 14 6z" fill="#FFFFFF"/></svg>