<svg version="1.1" xmlns="http://www.w3.org/2000/svg" xlink="http://www.w3.org/1999/xlink" x="0px" y="0px" width="15px" height="15px" viewBox="0 0 15 15" style="enable-background:new 0 0 15 15;" space="preserve">
    <path d="M6.176,4.176a0.249,0.249,0,0,0,-0.352,0l-4.4,4.4A0.25,0.25,0,0,0,1.6,9H3v4.751A0.249,0.249,0,0,0,3.249,14h3.5A0.249,0.249,0,0,0,7,13.753H7V8.323a0.249,0.249,0,0,1,0.073,-0.176L8.5,6.5ZM6,12H5V11H6Zm0,-2H5V9H6Zm6.75,-4h-0.5a0.25,0.25,0,0,0,-0.25,0.25V8L10.676,6.176a0.249,0.249,0,0,0,-0.352,0L8.056,8.932A0.246,0.246,0,0,0,8,9.088v4.66A0.249,0.249,0,0,0,8.246,14h1.5A0.253,0.253,0,0,0,10,13.748h0V12h1v1.747a0.253,0.253,0,0,0,0.253,0.253h1.5A0.25,0.25,0,0,0,13,13.751V6.25A0.25,0.25,0,0,0,12.75,6ZM10,11H9V10h1Zm2,0H11V10h1Z" fill="#FFFFFF"/>
    </svg>