<svg version="1.1" xmlns="http://www.w3.org/2000/svg" xlink="http://www.w3.org/1999/xlink" x="0px" y="0px" width="15px" height="15px" viewBox="0 0 15 15" style="enable-background:new 0 0 15 15;" space="preserve"><path d="M11.5039 1H10C9.2616 1 8.6238 1.4047 8.2774 2H3.5l-1 1 1 1 1-1 1 1 1-1 1 1h.7774C8.6238 4.5953 9.2616 5 10 5h1.4982C11.7753 5 12 4.7753 12 4.4982V1.4961C12 1.2221 11.7779 1 11.5039 1zM11 3.5C11 3.7761 10.7761 4 10.5 4S10 3.7761 10 3.5v-1C10 2.2238 10.2239 2 10.5 2S11 2.2238 11 2.5V3.5zM10.9252 9.0103l-.3636-2.1802C10.4824 6.3491 10.0713 6 9.583 6H5.417C4.9302 6 4.5186 6.3486 4.4385 6.8291L4.0746 9.0117C3.4776 9.0436 3 9.5277 3 10.1327V13h1c0 .5522.4477 1 1 1s1-.4478 1-1h3c0 .5522.4477 1 1 1s1-.4478 1-1h1v-2.8744C12 9.522 11.5219 9.0383 10.9252 9.0103zM4.75 12C4.3358 12 4 11.6642 4 11.25c0-.4142.3358-.75.75-.75s.75.3358.75.75C5.5 11.6642 5.1642 12 4.75 12zM5.0887 9 5.417 7l4.1582-.0068L9.9098 9H5.0887zM10.25 12c-.4142 0-.75-.3358-.75-.75 0-.4142.3358-.75.75-.75S11 10.8358 11 11.25C11 11.6642 10.6642 12 10.25 12z" fill="#FFFFFF"/></svg>