<svg version="1.1" xmlns="http://www.w3.org/2000/svg" xlink="http://www.w3.org/1999/xlink" x="0px" y="0px" width="15px" height="15px" viewBox="0 0 15 15" style="enable-background:new 0 0 15 15;" space="preserve"><path d="M2.9982,3.0687s0.1875,-1.062,1,-1.062H5.0043V1.7276a0.5,0.5,0,0,1,0.5,-0.5H9.4882a0.5,0.5,0,0,1,0.5,0.5v0.2791h1.01a0.8324,0.8324,0,0,1,0.6373,0.2937a1.7589,1.7589,0,0,1,0.3627,0.7683s0.3108,1.5719,0.5921,2.9181h-0.938L11,3L3.982,2.9956L3.3336,5.9868H2.382Zm11,4.9144a1,1,0,0,1,-0.9992,1l-1.0008,3.973s-0.1875,1.0417,-1,1.0417h-7c-0.8125,0,-1,-1.0417,-1,-1.0417L1.9822,8.98a0.9985,0.9985,0,0,1,0.016,-1.9968h11A1,1,0,0,1,13.9982,7.9831ZM5.0327,12.13L5.03,11.0051L4.6392,9.4686a0.5373,0.5373,0,1,0,-1.0649,0.1445L3.78,11.0075l0.1874,1.2672A0.5373,0.5373,0,1,0,5.0327,12.13Zm2,-2.5967A0.5332,0.5332,0,0,0,6.4994,9l-0.0039,0.0008L6.4886,9a0.4992,0.4992,0,0,0,-0.3575,0.1509a0.529,0.529,0,0,0,-0.1648,0.3828v2.68a0.5332,0.5332,0,1,0,1.0663,0Zm1.998,0A0.5314,0.5314,0,0,0,8.694,9.04a0.4992,0.4992,0,0,0,-0.393,0a0.5312,0.5312,0,0,0,-0.3366,0.4934v2.68a0.5331,0.5331,0,1,0,1.0662,0Zm2.3857,0.08a0.5373,0.5373,0,1,0,-1.0649,-0.1445L9.96,10.9938L9.9579,12.13a0.5373,0.5373,0,1,0,1.0649,0.1446Z" fill="#FFFFFF"/></svg>