<svg version="1.1" xmlns="http://www.w3.org/2000/svg" xlink="http://www.w3.org/1999/xlink" x="0px" y="0px" width="15px" height="15px" viewBox="0 0 15 15" style="enable-background:new 0 0 15 15;" space="preserve">
    <path d="M7.875,11.49a0.51,0.51,0,0,0,0.72,0l0.72,-0.72l2.18,2.16l-0.37,0.37a2.24,2.24,0,0,1,-1.44,0.7H8.24a2.24,2.24,0,0,1,-1.45,-0.7L1.72,8.23A2.24,2.24,0,0,1,1,6.78V5.33a2.24,2.24,0,0,1,0.72,-1.45l0.36,-0.36L4.26,5.69l-0.73,0.73a0.51,0.51,0,0,0,0,0.72Zm4.72,0.38a1,1,0,0,0,0.036,-1.414h0l-0.036,-0.036l-0.72,-0.72a1,1,0,0,0,-1.414,-0.036h0l-0.036,0.036ZM5.315,4.62a1,1,0,0,0,0.036,-1.414h0L4.595,2.45a1,1,0,0,0,-1.414,-0.036h0L3.14,2.45ZM10,2V4H8V5h2V7h1V5h2V4H11V2Z" fill="#FFFFFF"/>
    </svg>