<svg version="1.1" xmlns="http://www.w3.org/2000/svg" xlink="http://www.w3.org/1999/xlink" x="0px" y="0px" width="15px" height="15px" viewBox="0 0 15 15" style="enable-background:new 0 0 15 15;" space="preserve"><path d="M2.3926,8.9315L1.0245,8.3148A14.0478,14.0478,0,0,1,8.7637,0.9994l0.027,0.07L9.3022,2.4l-0.0037,0.0013a12.6131,12.6131,0,0,0,-6.9057,6.53Zm10.9631,4.96L3.42,9.413a11.6038,11.6038,0,0,1,6.354,-6.0088l0.0033,-0.0013l0.8163,2.1222c-0.0281,-0.0022,-0.0521,-0.0162,-0.0808,-0.0162a1.062,1.062,0,1,0,0.7642,1.7932L13.69,13.575A0.2487,0.2487,0,0,1,13.3557,13.891Zm-4.93,-5.3727a0.9245,0.9245,0,1,0,-0.9245,0.9244A0.9245,0.9245,0,0,0,8.4255,8.5183Zm3.0169,2.03a0.9252,0.9252,0,1,0,-0.9252,0.9252A0.9252,0.9252,0,0,0,11.4424,10.5478Z" fill="#FFFFFF"/></svg>