<svg version="1.1" xmlns="http://www.w3.org/2000/svg" xlink="http://www.w3.org/1999/xlink" x="0px" y="0px" width="15px" height="15px" viewBox="0 0 15 15" style="enable-background:new 0 0 15 15;" space="preserve"><path d="M12.300781,0.300781L2.699219,0.300781C2.039062,0.300781,1.5,0.839844,1.5,1.5L1.5,13.5C1.5,14.160156,2.039062,14.699219,2.699219,14.699219L12.300781,14.699219C12.960938,14.699219,13.5,14.160156,13.5,13.5L13.5,1.5C13.5,0.839844,12.960938,0.300781,12.300781,0.300781ZM5.101562,12.300781C5.101562,12.628906,4.828125,12.898438,4.5,12.898438L3.300781,12.898438C2.96875,12.898438,2.699219,12.628906,2.699219,12.300781L2.699219,12C2.699219,11.671875,2.96875,11.398438,3.300781,11.398438L4.5,11.398438C4.828125,11.398438,5.101562,11.671875,5.101562,12ZM5.101562,9.898438C5.101562,10.230469,4.828125,10.5,4.5,10.5L3.300781,10.5C2.96875,10.5,2.699219,10.230469,2.699219,9.898438L2.699219,9.601562C2.699219,9.269531,2.96875,9,3.300781,9L4.5,9C4.828125,9,5.101562,9.269531,5.101562,9.601562ZM5.101562,7.5C5.101562,7.828125,4.828125,8.101562,4.5,8.101562L3.300781,8.101562C2.96875,8.101562,2.699219,7.828125,2.699219,7.5L2.699219,7.199219C2.699219,6.871094,2.96875,6.601562,3.300781,6.601562L4.5,6.601562C4.828125,6.601562,5.101562,6.871094,5.101562,7.199219ZM8.699219,12.300781C8.699219,12.628906,8.429688,12.898438,8.101562,12.898438L6.898438,12.898438C6.570312,12.898438,6.300781,12.628906,6.300781,12.300781L6.300781,12C6.300781,11.671875,6.570312,11.398438,6.898438,11.398438L8.101562,11.398438C8.429688,11.398438,8.699219,11.671875,8.699219,12ZM8.699219,9.898438C8.699219,10.230469,8.429688,10.5,8.101562,10.5L6.898438,10.5C6.570312,10.5,6.300781,10.230469,6.300781,9.898438L6.300781,9.601562C6.300781,9.269531,6.570312,9,6.898438,9L8.101562,9C8.429688,9,8.699219,9.269531,8.699219,9.601562ZM8.699219,7.5C8.699219,7.828125,8.429688,8.101562,8.101562,8.101562L6.898438,8.101562C6.570312,8.101562,6.300781,7.828125,6.300781,7.5L6.300781,7.199219C6.300781,6.871094,6.570312,6.601562,6.898438,6.601562L8.101562,6.601562C8.429688,6.601562,8.699219,6.871094,8.699219,7.199219ZM12.300781,12.300781C12.300781,12.628906,12.03125,12.898438,11.699219,12.898438L10.5,12.898438C10.171875,12.898438,9.898438,12.628906,9.898438,12.300781L9.898438,12C9.898438,11.671875,10.171875,11.398438,10.5,11.398438L11.699219,11.398438C12.03125,11.398438,12.300781,11.671875,12.300781,12ZM12.300781,9.898438C12.300781,10.230469,12.03125,10.5,11.699219,10.5L10.5,10.5C10.171875,10.5,9.898438,10.230469,9.898438,9.898438L9.898438,9.601562C9.898438,9.269531,10.171875,9,10.5,9L11.699219,9C12.03125,9,12.300781,9.269531,12.300781,9.601562ZM12.300781,7.5C12.300781,7.828125,12.03125,8.101562,11.699219,8.101562L10.5,8.101562C10.171875,8.101562,9.898438,7.828125,9.898438,7.5L9.898438,7.199219C9.898438,6.871094,10.171875,6.601562,10.5,6.601562L11.699219,6.601562C12.03125,6.601562,12.300781,6.871094,12.300781,7.199219ZM12.300781,4.800781C12.300781,5.128906,12.03125,5.398438,11.699219,5.398438L3.300781,5.398438C2.96875,5.398438,2.699219,5.128906,2.699219,4.800781L2.699219,2.398438C2.699219,2.070312,2.96875,1.800781,3.300781,1.800781L11.699219,1.800781C12.03125,1.800781,12.300781,2.070312,12.300781,2.398438ZM12.300781,4.800781" fill="#FFFFFF"/></svg>