<svg version="1.1" xmlns="http://www.w3.org/2000/svg" xlink="http://www.w3.org/1999/xlink" x="0px" y="0px" width="15px" height="15px" viewBox="0 0 15 15" style="enable-background:new 0 0 15 15;" space="preserve">
    <path d="M10.503906,7.664062C10.40625,7.273438,9.910156,6.96875,9.539062,7.148438L8.101562,7.800781L8.101562,5.226562L10.628906,1.25C10.8125,0.960938,10.742188,0.578125,10.445312,0.390625C10.15625,0.207031,9.773438,0.292969,9.609375,0.578125L7.492188,3.953125L6.210938,3.957031C6.128906,3.957031,6.050781,3.96875,5.96875,4.003906L3.757812,4.863281L2.617188,3.148438C2.433594,2.863281,2.042969,2.777344,1.753906,2.960938C1.460938,3.148438,1.375,3.535156,1.5625,3.828125L2.984375,5.964844C3.144531,6.210938,3.480469,6.324219,3.769531,6.207031L5.398438,5.578125L5.398438,8.398438L3.179688,13.316406C3.011719,13.691406,3.195312,14.105469,3.585938,14.324219C3.976562,14.539062,4.429688,14.414062,4.589844,14.039062L6.375,9.964844C6.53125,10.011719,6.703125,10.03125,6.878906,10.03125C7.039062,10.03125,7.195312,10,7.335938,9.949219L9.339844,9.015625L9.78125,10.773438C9.878906,11.164062,10.277344,11.402344,10.671875,11.304688C11.066406,11.207031,11.300781,10.8125,11.203125,10.421875ZM8.699219,6.625L8.699219,7.09375C11.699219,5.585938,12.863281,0.429688,12.863281,0L12.445312,0C12.285156,1.074219,11.101562,5.378906,8.699219,6.625ZM6.574219,3.730469C7.1875,3.730469,7.683594,3.238281,7.683594,2.628906C7.683594,2.019531,7.1875,1.523438,6.574219,1.523438C5.957031,1.523438,5.460938,2.019531,5.460938,2.628906C5.460938,3.238281,5.957031,3.730469,6.574219,3.730469ZM7.5,15L8.101562,15L8.101562,10.03125L7.5,10.5ZM7.5,15" fill="#FFFFFF"/>
    </svg>