<svg version="1.1" xmlns="http://www.w3.org/2000/svg" xlink="http://www.w3.org/1999/xlink" x="0px" y="0px" width="15px" height="15px" viewBox="0 0 15 15" style="enable-background:new 0 0 15 15;" space="preserve"><path d="M14.414062,10.894531C14.570312,10.945312,14.699219,10.851562,14.699219,10.683594L14.699219,9.636719C14.699219,9.472656,14.582031,9.269531,14.441406,9.183594L8.957031,5.914062C8.816406,5.832031,8.699219,5.625,8.699219,5.460938L8.699219,1.800781C8.699219,1.636719,8.648438,1.375,8.585938,1.222656C8.585938,1.222656,8.261719,0.410156,7.6875,0.320312C7.625,0.308594,7.566406,0.300781,7.503906,0.300781L7.5,0.300781C7.425781,0.300781,7.355469,0.308594,7.285156,0.320312L7.21875,0.335938L7.121094,0.367188C6.644531,0.527344,6.398438,1.21875,6.398438,1.21875C6.34375,1.371094,6.300781,1.636719,6.300781,1.800781L6.300781,5.460938C6.300781,5.625,6.183594,5.832031,6.042969,5.914062L0.558594,9.183594C0.417969,9.269531,0.300781,9.472656,0.300781,9.636719L0.300781,10.683594C0.300781,10.851562,0.429688,10.945312,0.585938,10.894531L6.015625,9.128906C6.171875,9.078125,6.300781,9.171875,6.300781,9.335938L6.300781,12.199219C6.300781,12.363281,6.191406,12.578125,6.058594,12.679688L5.339844,13.21875C5.207031,13.316406,5.101562,13.535156,5.101562,13.699219L5.101562,14.398438C5.101562,14.566406,5.230469,14.664062,5.386719,14.617188L7.210938,14.09375C7.371094,14.046875,7.628906,14.046875,7.789062,14.09375L9.613281,14.617188C9.769531,14.664062,9.898438,14.566406,9.898438,14.398438L9.898438,13.699219C9.898438,13.535156,9.792969,13.316406,9.660156,13.21875L8.941406,12.675781C8.808594,12.578125,8.699219,12.363281,8.699219,12.199219L8.699219,9.335938C8.699219,9.171875,8.828125,9.078125,8.984375,9.128906ZM14.414062,10.894531" fill="#FFFFFF"/></svg>