<svg version="1.1" xmlns="http://www.w3.org/2000/svg" xlink="http://www.w3.org/1999/xlink" x="0px" y="0px" width="15px" height="15px" viewBox="0 0 15 15" style="enable-background:new 0 0 15 15;" space="preserve">
    <path d="M12.347656,7.5L2.742188,7.5C2.460938,7.5,2.230469,7.257812,2.230469,6.984375C2.230469,6.941406,2.242188,6.886719,2.25,6.847656L2.761719,3.277344C2.804688,3.046875,3.011719,3,3.261719,3L11.828125,3C12.078125,3,12.289062,3.042969,12.332031,3.273438L12.84375,6.90625C12.851562,6.949219,12.859375,6.976562,12.859375,7.019531C12.859375,7.292969,12.628906,7.5,12.347656,7.5ZM11.964844,11.503906C11.421875,11.503906,10.984375,11.078125,10.984375,10.546875C10.984375,10.019531,11.421875,9.59375,11.964844,9.59375C12.5,9.59375,12.941406,10.019531,12.941406,10.546875C12.941406,11.078125,12.5,11.503906,11.964844,11.503906ZM3.113281,11.503906C2.578125,11.503906,2.136719,11.078125,2.136719,10.546875C2.136719,10.019531,2.578125,9.59375,3.113281,9.59375C3.65625,9.59375,4.09375,10.019531,4.09375,10.546875C4.09375,11.078125,3.65625,11.503906,3.113281,11.503906ZM4.800781,0.898438L10.800781,0.898438L10.800781,1.800781L4.800781,1.800781C4.199219,1.800781,4.199219,0.898438,4.800781,0.898438ZM13.261719,2.277344C13.085938,1.433594,12.574219,1.09375,11.738281,0.753906C10.90625,0.414062,8.972656,0.0078125,7.519531,0.0078125C6.0625,0.0078125,4.121094,0.414062,3.285156,0.753906C2.453125,1.09375,1.949219,1.433594,1.773438,2.277344L1.199219,6.976562L1.199219,13.5L2.101562,13.5L2.101562,14.101562C2.101562,15.300781,3.601562,15.300781,3.601562,14.101562L3.601562,13.5L11.101562,13.5L11.101562,14.101562C11.101562,15.300781,12.898438,15.300781,12.898438,14.101562L12.898438,13.5L13.800781,13.5L13.800781,6.976562ZM13.261719,2.277344" fill="#FFFFFF"/>
    </svg>