<svg version="1.1" xmlns="http://www.w3.org/2000/svg" xlink="http://www.w3.org/1999/xlink" x="0px" y="0px" width="15px" height="15px" viewBox="0 0 15 15" style="enable-background:new 0 0 15 15;" space="preserve">
    <path d="M8.800781,4.082031C9.371094,4.082031,9.832031,3.578125,9.832031,2.953125C9.832031,2.332031,9.371094,1.824219,8.800781,1.824219C8.230469,1.824219,7.765625,2.332031,7.765625,2.953125C7.765625,3.578125,8.230469,4.082031,8.800781,4.082031ZM11.664062,13.945312L10.199219,9L10.199219,5.101562C10.199219,4.570312,9.597656,4.5,9.597656,4.5L7.628906,4.5C7.628906,4.5,7.371094,4.648438,7.199219,4.800781L6.230469,5.242188L5.035156,3.914062C4.839844,3.660156,4.496094,3.613281,4.265625,3.828125C4.03125,4.039062,4.019531,4.421875,4.210938,4.675781L5.738281,6.34375C5.839844,6.464844,5.984375,6.542969,6.144531,6.542969C6.265625,6.542969,6.089844,6.5,6.179688,6.433594L7.199219,6L7.199219,9L5.648438,13.933594C5.535156,14.382812,5.921875,14.839844,6.332031,14.960938C6.738281,15.082031,7.230469,14.816406,7.34375,14.367188L8.722656,9.933594L10.109375,14.378906C10.21875,14.828125,10.675781,15.089844,11.085938,14.972656C11.492188,14.851562,11.777344,14.390625,11.664062,13.945312ZM3.941406,5.242188C3.992188,5.300781,4.082031,5.300781,4.136719,5.242188L4.15625,5.226562C4.207031,5.164062,4.210938,5.070312,4.15625,5.011719L3.855469,4.675781C3.800781,4.617188,3.710938,4.617188,3.65625,4.675781L3.640625,4.691406C3.585938,4.753906,3.585938,4.847656,3.640625,4.90625ZM6.796875,1.449219L5.035156,3.535156L5.25,3.773438L7.214844,1.917969L8.523438,0.601562C8.574219,0.539062,8.609375,0.457031,8.609375,0.363281C8.609375,0.164062,8.460938,0,8.28125,0C8.195312,0,8.117188,0.0351562,8.058594,0.09375ZM6.796875,1.449219" fill="#FFFFFF"/>
    </svg>