<svg version="1.1" xmlns="http://www.w3.org/2000/svg" xlink="http://www.w3.org/1999/xlink" x="0px" y="0px" width="15px" height="15px" viewBox="0 0 15 15" style="enable-background:new 0 0 15 15;" space="preserve"><path d="M11.351562,4.445312C11.449219,6.003906,10.691406,7.101562,10.691406,7.101562C10.789062,5.898438,10.304688,4.234375,10.304688,4.234375C9.886719,4.152344,9.222656,4.242188,9.222656,4.242188C9.316406,5.539062,8.65625,6.671875,8.171875,7.085938C8.410156,5.648438,8.027344,4.5625,8.027344,4.5625C7.367188,4.394531,6.425781,4.496094,6.425781,4.496094C6.628906,6.027344,5.785156,7.152344,5.785156,7.152344C5.925781,6.085938,5.355469,4.71875,5.355469,4.71875C4.871094,4.6875,4.101562,4.84375,4.101562,4.84375C4.507812,5.570312,4.183594,7.167969,4.183594,7.167969C3.960938,5.859375,3.214844,5.089844,3.214844,5.089844C-1.058594,6.910156,0.0664062,9.417969,2.15625,10.164062C4.128906,10.867188,10.480469,11.214844,13.320312,9.980469C16.164062,8.746094,14.164062,5.28125,11.351562,4.445312ZM11.351562,4.445312" fill="#FFFFFF"/></svg>