<svg version="1.1" xmlns="http://www.w3.org/2000/svg" xlink="http://www.w3.org/1999/xlink" x="0px" y="0px" width="15px" height="15px" viewBox="0 0 15 15" style="enable-background:new 0 0 15 15;" space="preserve"><path d="M10.40625,7.742188C9.972656,7.398438,9.324219,7.128906,8.460938,6.925781L7.800781,6.769531L7.800781,3.941406L7.890625,3.976562C8.453125,4.261719,8.753906,4.800781,8.796875,5.398438L11.050781,5.398438C11.007812,4.199219,10.566406,3.3125,9.71875,2.6875C9.15625,2.269531,8.515625,2,7.800781,1.867188L7.800781,0.300781L5.699219,0.300781L5.699219,1.816406C4.730469,1.9375,3.957031,2.25,3.394531,2.757812C2.652344,3.425781,2.28125,4.257812,2.28125,5.265625C2.28125,6.367188,2.660156,7.175781,3.417969,7.695312C3.839844,7.988281,4.605469,8.261719,5.699219,8.515625L5.699219,11.578125C5.300781,11.46875,4.988281,11.289062,4.765625,11.027344C4.554688,10.769531,4.410156,10.5,4.339844,9.898438L2.101562,9.898438C2.101562,11.101562,2.523438,11.960938,3.371094,12.628906C3.980469,13.109375,4.761719,13.402344,5.699219,13.53125L5.699219,14.699219L7.800781,14.699219L7.800781,13.550781C8.800781,13.429688,9.605469,13.109375,10.21875,12.589844C11.011719,11.910156,11.40625,11.058594,11.40625,10.03125C11.40625,9.03125,11.074219,8.269531,10.40625,7.742188ZM5,5.996094C4.636719,5.796875,4.453125,5.496094,4.453125,5.09375C4.453125,4.660156,4.636719,4.316406,5.007812,4.074219C5.203125,3.945312,5.433594,3.851562,5.699219,3.789062L5.699219,6.253906C5.375,6.160156,5.140625,6.074219,5,5.996094ZM8.144531,11.515625C8.039062,11.554688,7.921875,11.582031,7.800781,11.609375L7.800781,9C8.160156,9.105469,8.445312,9.222656,8.65625,9.347656C8.980469,9.550781,9.144531,9.839844,9.144531,10.210938C9.144531,10.847656,8.8125,11.285156,8.144531,11.515625ZM8.144531,11.515625" fill="#FFFFFF"/></svg>