<svg version="1.1" xmlns="http://www.w3.org/2000/svg" xlink="http://www.w3.org/1999/xlink" x="0px" y="0px" width="15px" height="15px" viewBox="0 0 15 15" style="enable-background:new 0 0 15 15;" space="preserve"><path d="M1.199219 12 2.667969 12C3.21875 12 3.59375 12.195312 3.59375 12.738281 3.59375 13.023438 3.453125 13.230469 3.203125 13.355469 3.554688 13.453125 3.734375 13.761719 3.734375 14.125 3.734375 14.714844 3.234375 15 2.707031 15L1.199219 15ZM1.800781 13.199219 2.585938 13.199219C2.808594 13.199219 2.976562 13.136719 2.976562 12.894531 2.976562 12.617188 2.761719 12.601562 2.539062 12.601562L1.800781 12.601562ZM1.800781 14.398438 2.621094 14.398438C2.875 14.398438 3.097656 14.269531 3.097656 13.964844 3.097656 13.667969 2.910156 13.5 2.636719 13.5L1.800781 13.5ZM4.199219 12.898438 4.800781 12.898438 4.800781 13.199219 4.804688 13.199219C4.914062 12.898438 5.246094 12.765625 5.527344 12.765625 5.566406 12.765625 5.699219 12.789062 5.699219 12.800781L5.699219 13.339844C5.398438 13.324219 5.5 13.320312 5.433594 13.320312 5.007812 13.320312 4.800781 13.625 4.800781 13.996094L4.800781 15 4.199219 15ZM5.949219 13.5C5.980469 12.898438 6.4375 12.789062 6.90625 12.789062 7.328125 12.789062 7.800781 12.875 7.800781 13.378906L7.800781 14.476562C7.800781 14.664062 7.882812 15 7.933594 15L7.351562 15C7.332031 15 7.3125 14.835938 7.308594 14.769531 7.125 14.960938 6.855469 15.015625 6.601562 15.015625 6.203125 15.015625 5.886719 14.808594 5.886719 14.375 5.886719 13.898438 6.242188 13.785156 6.601562 13.734375 6.957031 13.683594 7.285156 13.691406 7.285156 13.453125 7.285156 13.207031 7.117188 13.175781 6.910156 13.175781 6.691406 13.175781 6.550781 13.199219 6.527344 13.5ZM7.199219 13.914062C7.199219 13.996094 6.941406 14 6.761719 14.035156 6.582031 14.070312 6.441406 14.132812 6.441406 14.34375 6.441406 14.558594 6.578125 14.613281 6.765625 14.613281 7.21875 14.613281 7.199219 14.253906 7.199219 14.128906ZM9.050781 12.511719 8.46875 12.511719 8.46875 12.035156 9.050781 12.035156ZM8.398438 12.898438 9 12.898438 9 15 8.398438 15ZM9.601562 12 10.199219 12 10.199219 15 9.601562 15ZM10.800781 12 11.398438 12 11.398438 15 10.800781 15ZM12.507812 14.101562C12.527344 14.398438 12.703125 14.652344 13.027344 14.652344 13.257812 14.652344 13.445312 14.398438 13.480469 14.398438L13.992188 14.398438C13.828125 14.699219 13.480469 15.054688 13.007812 15.054688 12.34375 15.054688 11.933594 14.570312 11.933594 13.917969 11.933594 13.289062 12.367188 12.828125 13.007812 12.828125 13.722656 12.828125 14.070312 13.5 14.03125 14.101562ZM13.449219 13.800781C13.398438 13.5 13.273438 13.351562 12.992188 13.351562 12.621094 13.351562 12.515625 13.5 12.507812 13.800781ZM5.398438 9.75C5.398438 10.328125 4.929688 10.800781 4.351562 10.800781 3.769531 10.800781 3.300781 10.328125 3.300781 9.75 3.300781 9.171875 3.769531 8.699219 4.351562 8.699219 4.929688 8.699219 5.398438 9.171875 5.398438 9.75ZM5.398438 5.550781C5.398438 6.128906 4.929688 6.601562 4.351562 6.601562 3.769531 6.601562 3.300781 6.128906 3.300781 5.550781 3.300781 4.96875 3.769531 4.5 4.351562 4.5 4.929688 4.5 5.398438 4.96875 5.398438 5.550781ZM5.398438 1.351562C5.398438 1.929688 4.929688 2.398438 4.351562 2.398438 3.769531 2.398438 3.300781 1.929688 3.300781 1.351562 3.300781.769531 3.769531.300781 4.351562.300781 4.929688.300781 5.398438.769531 5.398438 1.351562ZM11.699219 9.75C11.699219 10.328125 11.230469 10.800781 10.648438 10.800781 10.070312 10.800781 9.601562 10.328125 9.601562 9.75 9.601562 9.171875 10.070312 8.699219 10.648438 8.699219 11.230469 8.699219 11.699219 9.171875 11.699219 9.75ZM11.699219 5.550781C11.699219 6.128906 11.230469 6.601562 10.648438 6.601562 10.070312 6.601562 9.601562 6.128906 9.601562 5.550781 9.601562 4.96875 10.070312 4.5 10.648438 4.5 11.230469 4.5 11.699219 4.96875 11.699219 5.550781ZM11.699219 1.351562C11.699219 1.929688 11.230469 2.398438 10.648438 2.398438 10.070312 2.398438 9.601562 1.929688 9.601562 1.351562 9.601562.769531 10.070312.300781 10.648438.300781 11.230469.300781 11.699219.769531 11.699219 1.351562ZM11.699219 1.351562" fill="#FFFFFF"/></svg>