<svg version="1.1" xmlns="http://www.w3.org/2000/svg" xlink="http://www.w3.org/1999/xlink" x="0px" y="0px" width="15px" height="15px" viewBox="0 0 15 15" style="enable-background:new 0 0 15 15;" space="preserve"><path d="M12.78125,11.152344C13.332031,10.96875,13.628906,10.382812,13.445312,9.835938L13.046875,9.964844C13.15625,10.292969,12.972656,10.644531,12.648438,10.753906L2.136719,14.308594L2.273438,14.699219ZM3.101562,5.011719C3.679688,4.84375,4.007812,4.242188,3.839844,3.667969C3.671875,3.09375,3.066406,2.765625,2.488281,2.933594C1.910156,3.101562,1.578125,3.703125,1.75,4.277344C1.917969,4.851562,2.523438,5.179688,3.101562,5.011719ZM2.65625,6.511719C2.082031,5.425781,3.730469,4.542969,4.339844,5.597656L5.523438,7.835938L7.78125,7.199219C8.15625,7.09375,8.671875,7.496094,8.671875,7.972656L8.683594,11.15625C8.6875,11.945312,7.503906,11.949219,7.503906,11.152344C7.5,10.410156,7.480469,8.832031,7.480469,8.832031L5.125,9.53125C4.609375,9.679688,4.183594,9.425781,3.984375,9.046875ZM6.300781,7.019531L6.300781,0.300781L5.699219,0.300781L5.699219,7.144531ZM1.574219,7.964844C1.25,7.332031,2.085938,6.914062,2.410156,7.546875L3.429688,9.523438C3.648438,9.933594,4.082031,10.214844,4.582031,10.214844C4.738281,10.214844,4.882812,10.175781,5.023438,10.144531L6.308594,9.773438C6.988281,9.566406,7.253906,10.460938,6.566406,10.660156L5.214844,11.050781C5.015625,11.113281,4.796875,11.144531,4.570312,11.144531C3.703125,11.144531,2.949219,10.65625,2.582031,9.941406ZM1.574219,7.964844" fill="#FFFFFF"/></svg>