<svg version="1.1" xmlns="http://www.w3.org/2000/svg" xlink="http://www.w3.org/1999/xlink" x="0px" y="0px" width="15px" height="15px" viewBox="0 0 15 15" style="enable-background:new 0 0 15 15;" space="preserve">
    <path d="M11.101562,2.101562L2.699219,2.101562L2.699219,10.199219C2.699219,10.859375,3.238281,11.398438,3.898438,11.398438L9.898438,11.398438C10.558594,11.398438,11.101562,10.859375,11.101562,10.199219L11.101562,8.699219C12.921875,8.699219,14.398438,7.222656,14.398438,5.398438C14.398438,3.578125,12.921875,2.101562,11.101562,2.101562ZM11.101562,7.199219L11.101562,3.601562C12.09375,3.601562,12.898438,4.40625,12.898438,5.398438C12.898438,6.394531,12.09375,7.199219,11.101562,7.199219ZM0.601562,12L0.601562,12.691406C0.601562,13.257812,1.21875,13.5,1.980469,13.5L13.019531,13.5C13.777344,13.5,14.398438,13.257812,14.398438,12.691406L14.398438,12ZM0.601562,12" fill="#FFFFFF"/>
    </svg>