<svg version="1.1" xmlns="http://www.w3.org/2000/svg" xlink="http://www.w3.org/1999/xlink" x="0px" y="0px" width="15px" height="15px" viewBox="0 0 15 15" style="enable-background:new 0 0 15 15;" space="preserve"><path d="M2.324219,6.539062L3.367188,6.539062L3.367188,13.261719L4.9375,13.261719L4.9375,7.5L6.503906,7.5L6.503906,13.261719L8.074219,13.261719L8.074219,7.5L9.644531,7.5L9.644531,13.261719L11.210938,13.261719L11.210938,6.539062L12.257812,6.539062C12.546875,6.539062,12.78125,6.324219,12.78125,6.058594C12.78125,5.898438,12.695312,5.757812,12.5625,5.671875L12.554688,5.667969L12.542969,5.660156L7.550781,3.074219L7.550781,2.320312C8.472656,2.742188,9.230469,2.011719,10.425781,2.453125L10.425781,0.78125C9.230469,0.339844,8.472656,1.070312,7.550781,0.648438L7.550781,0.539062C7.550781,0.40625,7.433594,0.300781,7.289062,0.300781C7.144531,0.300781,7.027344,0.40625,7.027344,0.539062L7.027344,3.074219L2.039062,5.65625L2.023438,5.664062L2.015625,5.671875C1.886719,5.757812,1.800781,5.898438,1.800781,6.058594C1.800781,6.324219,2.035156,6.539062,2.324219,6.539062ZM2.84375,13.742188L1.800781,14.699219L12.78125,14.699219L11.734375,13.742188ZM2.84375,13.742188" fill="#FFFFFF"/></svg>