<svg version="1.1" xmlns="http://www.w3.org/2000/svg" xlink="http://www.w3.org/1999/xlink" x="0px" y="0px" width="15px" height="15px" viewBox="0 0 15 15" style="enable-background:new 0 0 15 15;" space="preserve">
    <path d="M5.230469,3.867188C5.96875,3.867188,6.566406,3.269531,6.566406,2.53125C6.566406,1.796875,5.96875,1.199219,5.230469,1.199219C4.492188,1.199219,3.894531,1.796875,3.894531,2.53125C3.894531,3.269531,4.492188,3.867188,5.230469,3.867188ZM0.300781,11.148438C0.601562,11.148438,0.914062,11.078125,1.183594,10.957031C1.460938,10.828125,1.773438,10.753906,2.097656,10.753906C2.421875,10.753906,2.734375,10.828125,3.011719,10.957031C3.28125,11.078125,3.585938,11.148438,3.902344,11.148438C4.214844,11.148438,4.515625,11.078125,4.785156,10.957031C5.0625,10.828125,5.375,10.753906,5.699219,10.753906C6.023438,10.753906,6.335938,10.828125,6.613281,10.957031C6.882812,11.078125,7.1875,11.148438,7.5,11.148438C7.8125,11.148438,8.117188,11.078125,8.386719,10.957031C8.664062,10.828125,8.976562,10.753906,9.300781,10.753906C9.625,10.753906,9.9375,10.828125,10.214844,10.957031C10.484375,11.078125,10.785156,11.148438,11.101562,11.148438C11.417969,11.148438,11.71875,11.078125,11.988281,10.957031C12.265625,10.828125,12.574219,10.753906,12.898438,10.753906C13.179688,10.753906,13.449219,10.808594,13.691406,10.902344C14.089844,10.46875,14.335938,9.894531,14.335938,9.265625C14.335938,7.921875,13.246094,6.835938,11.902344,6.835938L11.628906,6.863281C11.332031,8.074219,10.117188,8.125,10.117188,8.125L4.558594,8.125L4.09375,7.851562L5.214844,5.976562L6.441406,6.683594C7.175781,7.160156,7.558594,6.492188,7.558594,6.492188L8.789062,4.492188C9.320312,3.625,8.1875,2.929688,7.65625,3.800781L6.796875,5.203125L4.75,4.074219C3.332031,3.285156,2.734375,4.589844,2.734375,4.589844L1.125,7.335938C0.851562,7.90625,1.09375,8.152344,1.09375,8.152344L0.300781,8.152344ZM14.699219,13.800781C14.386719,13.800781,14.082031,13.730469,13.816406,13.609375C13.539062,13.480469,13.226562,13.40625,12.898438,13.40625C12.574219,13.40625,12.265625,13.480469,11.988281,13.609375C11.71875,13.730469,11.417969,13.800781,11.101562,13.800781C10.785156,13.800781,10.484375,13.730469,10.214844,13.609375C9.9375,13.480469,9.625,13.40625,9.300781,13.40625C8.976562,13.40625,8.664062,13.480469,8.386719,13.609375C8.117188,13.730469,7.8125,13.800781,7.5,13.800781C7.1875,13.800781,6.882812,13.730469,6.613281,13.609375C6.335938,13.480469,6.023438,13.40625,5.699219,13.40625C5.375,13.40625,5.0625,13.480469,4.785156,13.609375C4.515625,13.730469,4.214844,13.800781,3.902344,13.800781C3.585938,13.800781,3.28125,13.730469,3.011719,13.609375C2.734375,13.480469,2.425781,13.40625,2.097656,13.40625C1.773438,13.40625,1.460938,13.480469,1.1875,13.609375C0.917969,13.730469,0.613281,13.800781,0.300781,13.800781L0.300781,12.476562C0.613281,12.476562,0.917969,12.402344,1.1875,12.28125C1.460938,12.15625,1.773438,12.078125,2.097656,12.078125C2.425781,12.078125,2.738281,12.15625,3.011719,12.28125C3.28125,12.402344,3.585938,12.476562,3.902344,12.476562C4.214844,12.476562,4.515625,12.402344,4.785156,12.28125C5.0625,12.15625,5.375,12.078125,5.699219,12.078125C6.023438,12.078125,6.335938,12.15625,6.613281,12.28125C6.882812,12.402344,7.1875,12.476562,7.5,12.476562C7.8125,12.476562,8.117188,12.402344,8.386719,12.28125C8.664062,12.15625,8.976562,12.078125,9.300781,12.078125C9.625,12.078125,9.9375,12.15625,10.214844,12.28125C10.484375,12.402344,10.785156,12.476562,11.101562,12.476562C11.417969,12.476562,11.71875,12.402344,11.988281,12.28125C12.265625,12.15625,12.574219,12.078125,12.898438,12.078125C13.226562,12.078125,13.539062,12.15625,13.816406,12.28125C14.082031,12.402344,14.386719,12.476562,14.699219,12.476562ZM14.699219,13.800781" fill="#FFFFFF"/>
    </svg>