<svg version="1.1" xmlns="http://www.w3.org/2000/svg" xlink="http://www.w3.org/1999/xlink" x="0px" y="0px" width="15px" height="15px" viewBox="0 0 15 15" style="enable-background:new 0 0 15 15;" space="preserve"><path d="M14.207031,4.425781C14.230469,4.511719,14.203125,4.609375,14.152344,4.683594L12.535156,7.089844C12.472656,7.183594,12.347656,7.234375,12.242188,7.234375C12.210938,7.234375,12.128906,7.226562,12.097656,7.21875L10.800781,6.898438L10.800781,12.601562C10.800781,12.773438,10.675781,12.898438,10.5,12.898438L4.199219,12.898438C4.023438,12.898438,3.898438,12.773438,3.898438,12.601562L3.898438,6.898438L2.734375,7.222656C2.601562,7.261719,2.484375,7.210938,2.410156,7.09375L0.804688,4.691406C0.753906,4.613281,0.738281,4.527344,0.761719,4.441406C0.78125,4.351562,0.847656,4.289062,0.925781,4.246094L4.199219,2.699219L5.699219,2.699219C5.878906,2.699219,6,2.824219,6,3C6,3.617188,6.867188,4.054688,7.484375,4.054688C8.101562,4.054688,9,3.621094,9,3C9,2.824219,9.121094,2.699219,9.300781,2.699219L10.800781,2.699219L14.039062,4.21875C14.125,4.261719,14.183594,4.335938,14.207031,4.425781ZM14.207031,4.425781" fill="#FFFFFF"/></svg>