<svg version="1.1" xmlns="http://www.w3.org/2000/svg" xlink="http://www.w3.org/1999/xlink" x="0px" y="0px" width="15px" height="15px" viewBox="0 0 15 15" style="enable-background:new 0 0 15 15;" space="preserve">
    <path d="M12.089844,2.007812C12.089844,1.394531,11.59375,0.898438,10.984375,0.898438C10.375,0.898438,9.878906,1.394531,9.878906,2.007812C9.878906,2.621094,10.375,3.117188,10.984375,3.117188C11.59375,3.117188,12.089844,2.621094,12.089844,2.007812ZM12.089844,2.007812" fill="#FFFFFF"/> <path d="M3.976562,12.660156L0.300781,8.960938L0.300781,9.605469L3.726562,13.054688C4.117188,13.480469,4.792969,12.984375,4.792969,12.984375L4.46875,12.640625C4.46875,12.640625,4.152344,12.847656,3.984375,12.671875ZM0.300781,5.699219L4.199219,5.699219L4.199219,6L0.300781,6ZM14.269531,4.648438L14.699219,4.851562L10.425781,13.5L9.953125,13.5ZM7.179688,3.941406L5.460938,5.929688C5.359375,6.058594,5.203125,6.136719,5.03125,6.136719C4.722656,6.136719,4.472656,5.886719,4.472656,5.578125C4.472656,5.410156,4.546875,5.261719,4.660156,5.160156L6.515625,3.019531C6.617188,2.894531,6.769531,2.816406,6.945312,2.816406L9.628906,2.816406C9.824219,2.816406,10.003906,2.898438,10.132812,3.019531L11.84375,4.738281L13.261719,3.320312C13.363281,3.234375,13.492188,3.183594,13.632812,3.183594C13.949219,3.183594,14.207031,3.441406,14.207031,3.757812C14.207031,3.898438,14.15625,4.023438,14.078125,4.125L12.367188,5.851562C11.847656,6.371094,11.429688,5.929688,11.429688,5.929688L10.382812,4.875L8.742188,6.773438L10.242188,8.28125C10.242188,8.28125,10.558594,8.574219,10.378906,9.164062L9.535156,12.925781C9.46875,13.253906,9.179688,13.5,8.835938,13.5C8.441406,13.5,8.121094,13.179688,8.121094,12.785156C8.121094,12.722656,8.128906,12.660156,8.144531,12.601562L8.835938,9.515625L7.128906,7.851562L5.660156,9.492188C5.660156,9.492188,5.421875,9.785156,4.792969,9.765625L1.816406,9.769531C1.484375,9.777344,1.179688,9.546875,1.105469,9.210938C1.019531,8.824219,1.257812,8.445312,1.640625,8.359375C1.703125,8.34375,1.761719,8.339844,1.820312,8.34375L4.382812,8.347656L8.171875,3.945312ZM7.179688,3.941406" fill="#FFFFFF"/> <path d="M13.746094,13.550781C13.746094,13.839844,13.507812,14.101562,13.21875,14.101562L4.5,14.101562L4.5,14.398438L13.21875,14.398438C13.703125,14.402344,14.097656,14.027344,14.101562,13.539062ZM13.746094,13.550781" fill="#FFFFFF"/>
    </svg>