<svg version="1.1" xmlns="http://www.w3.org/2000/svg" xlink="http://www.w3.org/1999/xlink" x="0px" y="0px" width="15px" height="15px" viewBox="0 0 15 15" style="enable-background:new 0 0 15 15;" space="preserve"><path d="M3.4375,0.300781C3.03125,0.300781,2.699219,0.636719,2.699219,1.058594L2.699219,13.941406C2.699219,14.320312,3.070312,14.699219,3.4375,14.699219C3.808594,14.699219,4.175781,14.320312,4.175781,13.941406L4.175781,6.171875C4.429688,6.0625,4.675781,5.984375,4.914062,5.984375C6.390625,5.984375,8.570312,7.878906,10.085938,7.878906C10.730469,7.878906,11.652344,7.617188,12.300781,7.121094L12.300781,1.816406C11.566406,2.378906,10.824219,2.953125,10.085938,2.953125C8.609375,2.953125,6.398438,1.058594,4.914062,1.058594C4.667969,1.058594,4.421875,1.101562,4.175781,1.152344L4.175781,1.058594C4.175781,0.636719,3.847656,0.300781,3.4375,0.300781ZM3.4375,0.300781" fill="#FFFFFF"/></svg>