<svg version="1.1" xmlns="http://www.w3.org/2000/svg" xlink="http://www.w3.org/1999/xlink" x="0px" y="0px" width="15px" height="15px" viewBox="0 0 15 15" style="enable-background:new 0 0 15 15;" space="preserve"><path d="M7.523438,2.265625C8.054688,2.265625,8.484375,1.839844,8.484375,1.308594C8.484375,0.78125,8.054688,0.351562,7.523438,0.351562C6.992188,0.351562,6.5625,0.78125,6.5625,1.308594C6.5625,1.839844,6.992188,2.265625,7.523438,2.265625ZM13.550781,13.25C13.285156,13.125,12.984375,13.054688,12.671875,13.054688C12.363281,13.054688,12.066406,13.125,11.796875,13.25C11.542969,13.363281,11.253906,13.429688,10.953125,13.429688C10.648438,13.429688,10.359375,13.363281,10.101562,13.25C9.835938,13.125,9.539062,13.054688,9.226562,13.054688C8.914062,13.054688,8.613281,13.125,8.347656,13.25C8.089844,13.363281,7.800781,13.429688,7.5,13.429688C7.195312,13.429688,6.910156,13.363281,6.648438,13.25C6.382812,13.125,6.085938,13.054688,5.773438,13.054688C5.464844,13.054688,5.164062,13.125,4.898438,13.25C4.640625,13.363281,4.351562,13.429688,4.050781,13.429688C3.75,13.429688,3.457031,13.363281,3.203125,13.25C2.9375,13.125,2.636719,13.054688,2.328125,13.054688C2.015625,13.054688,1.714844,13.125,1.449219,13.25C1.191406,13.363281,0.902344,13.429688,0.601562,13.429688L0.601562,14.699219C0.902344,14.699219,1.191406,14.636719,1.449219,14.519531C1.714844,14.394531,2.015625,14.324219,2.328125,14.324219C2.636719,14.324219,2.9375,14.394531,3.203125,14.519531C3.457031,14.636719,3.75,14.699219,4.050781,14.699219C4.351562,14.699219,4.640625,14.636719,4.898438,14.519531C5.164062,14.394531,5.464844,14.324219,5.773438,14.324219C6.085938,14.324219,6.382812,14.394531,6.648438,14.519531C6.910156,14.636719,7.195312,14.699219,7.5,14.699219C7.800781,14.699219,8.089844,14.636719,8.347656,14.519531C8.613281,14.394531,8.914062,14.324219,9.226562,14.324219C9.539062,14.324219,9.835938,14.394531,10.101562,14.519531C10.359375,14.636719,10.648438,14.699219,10.953125,14.699219C11.253906,14.699219,11.542969,14.636719,11.796875,14.519531C12.066406,14.394531,12.363281,14.324219,12.671875,14.324219C12.984375,14.324219,13.285156,14.394531,13.550781,14.519531C13.808594,14.636719,14.097656,14.699219,14.398438,14.699219L14.398438,13.429688C14.097656,13.429688,13.808594,13.363281,13.550781,13.25ZM13.628906,0.3125C13.558594,0.285156,13.453125,0.300781,13.398438,0.355469L9.882812,3.894531C9.828125,3.867188,9.757812,3.898438,9.691406,3.898438L8.363281,3.898438C8.136719,3.601562,6.9375,2.429688,6.9375,2.429688C6.875,2.367188,6.796875,2.308594,6.714844,2.289062C6.441406,2.050781,6.027344,2.042969,5.761719,2.304688L3.707031,4.367188C3.628906,4.445312,3.601562,4.546875,3.601562,4.664062L3.601562,6L0.601562,6L0.601562,6.601562L3.601562,6.601562L3.601562,10.058594C3.601562,10.484375,3.921875,10.832031,4.347656,10.832031C4.773438,10.832031,5.101562,10.484375,5.101562,10.058594L5.101562,6.601562L7.199219,6.601562L7.199219,11.101562L0.601562,11.101562L0.601562,12L7.800781,12L7.800781,6.601562L8.699219,6.601562L8.699219,6L5.101562,6L5.101562,5.753906L7.042969,3.824219L7.835938,4.636719C7.921875,4.726562,8.042969,4.800781,8.171875,4.800781L9.691406,4.800781C9.953125,4.800781,10.199219,4.761719,10.199219,4.5C10.199219,4.4375,10.21875,4.253906,10.199219,4.199219C11.03125,3.371094,13.199219,1.335938,13.5,0.921875L13.5,12L13.800781,12L13.800781,0.484375C13.800781,0.410156,13.695312,0.34375,13.628906,0.3125ZM13.628906,0.3125" fill="#FFFFFF"/></svg>