<svg version="1.1" xmlns="http://www.w3.org/2000/svg" xlink="http://www.w3.org/1999/xlink" x="0px" y="0px" width="15px" height="15px" viewBox="0 0 15 15" style="enable-background:new 0 0 15 15;" space="preserve"><path d="M12.898438,3.601562L0,3.601562L0,11.398438L15,11.398438L15,3.601562ZM14.398438,9.382812C13.703125,9.574219,13.175781,10.101562,12.980469,10.800781L2.019531,10.800781C1.824219,10.101562,1.296875,9.574219,0.601562,9.382812L0.601562,5.617188C1.296875,5.425781,1.824219,4.898438,2.019531,4.199219L12.988281,4.199219C13.191406,4.878906,13.722656,5.410156,14.398438,5.613281ZM8.136719,8.117188C8.066406,8.074219,8.101562,8.035156,7.800781,8L7.800781,8.871094L7.964844,8.839844C8.1875,8.761719,8.296875,8.613281,8.296875,8.402344C8.296875,8.28125,8.242188,8.183594,8.136719,8.117188ZM6.785156,6.699219C6.785156,6.832031,6.84375,6.933594,6.964844,7C7.011719,7.023438,7.089844,7.054688,7.199219,7.085938L7.199219,6.261719C7.113281,6.285156,7.035156,6.316406,6.96875,6.355469C6.847656,6.4375,6.785156,6.554688,6.785156,6.699219ZM7.5,4.5C6.007812,4.5,4.800781,5.84375,4.800781,7.5C4.800781,9.15625,6.007812,10.5,7.5,10.5C8.992188,10.5,10.199219,9.15625,10.199219,7.5C10.199219,5.84375,8.992188,4.5,7.5,4.5ZM8.65625,9.195312C8.453125,9.371094,8.101562,9.476562,7.800781,9.515625L7.800781,9.898438L7.199219,9.898438L7.199219,9.511719C6.886719,9.46875,6.628906,9.421875,6.421875,9.257812C6.140625,9.035156,6,8.699219,6,8.398438L6.746094,8.398438C6.769531,8.398438,6.816406,8.640625,6.890625,8.726562C6.960938,8.8125,7.066406,8.824219,7.199219,8.859375L7.199219,7.839844C6.835938,7.753906,6.582031,7.664062,6.4375,7.566406C6.1875,7.394531,6.0625,7.121094,6.0625,6.753906C6.0625,6.421875,6.183594,6.140625,6.429688,5.917969C6.621094,5.75,6.875,5.644531,7.199219,5.605469L7.199219,5.101562L7.800781,5.101562L7.800781,5.621094C8.101562,5.667969,8.304688,5.804688,8.488281,5.945312C8.773438,6.152344,8.96875,6.300781,8.984375,6.898438L8.230469,6.898438C8.21875,6.601562,8.066406,6.46875,7.878906,6.375C7.871094,6.371094,7.800781,6.316406,7.800781,6.3125L7.800781,7.257812L8.070312,7.308594C8.359375,7.375,8.625,7.46875,8.769531,7.582031C8.992188,7.757812,9.078125,8.011719,9.078125,8.34375C9.078125,8.6875,8.921875,8.96875,8.65625,9.195312ZM8.65625,9.195312" fill="#FFFFFF"/></svg>