<?xml version="1.0" encoding="UTF-8" standalone="no"?>
<svg
   version="1.1"
   xlink="http://www.w3.org/1999/xlink"
   x="0px"
   y="0px"
   width="15px"
   height="15px"
   viewBox="0 0 15 15"
   style="enable-background:new 0 0 15 15;"
   space="preserve"
   id="svg3"
   sodipodi:docname="mi-grocery-or-supermarket.svg"
   inkscape:version="1.3 (0e150ed6c4, 2023-07-21)"
   xmlns:inkscape="http://www.inkscape.org/namespaces/inkscape"
   xmlns:sodipodi="http://sodipodi.sourceforge.net/DTD/sodipodi-0.dtd"
   xmlns="http://www.w3.org/2000/svg"
   xmlns:svg="http://www.w3.org/2000/svg">
  <defs
     id="defs3" />
  <sodipodi:namedview
     id="namedview3"
     pagecolor="#ffffff"
     bordercolor="#000000"
     borderopacity="0.25"
/>

  <path
     id="path4"
     style="fill:#000000"
     d="M 0.6015625 1.8007812 C 0.26953216 1.8007812 0 2.0703121 0 2.3984375 C 0 2.7304679 0.26953216 3 0.6015625 3 L 2.171875 3 L 3.7773438 9.1640625 L 3.1445312 10.183594 C 3.0312505 10.371094 3.0273449 10.601562 3.1328125 10.792969 C 3.2382813 10.980469 3.4375004 11.101562 3.65625 11.101562 L 14.101562 11.101562 C 14.429687 11.101562 14.699219 10.832031 14.699219 10.5 C 14.699219 10.167969 14.429687 9.8984375 14.101562 9.8984375 L 4.7304688 9.8984375 L 4.9296875 9.5742188 C 5.0156243 9.4375 5.042969 9.2695306 5 9.109375 L 4.8046875 8.359375 L 13.5 7.90625 C 13.832031 7.890625 14.101562 7.6054679 14.101562 7.2734375 L 14.101562 3.3007812 C 14.101562 2.9687509 13.828125 2.6992187 13.5 2.6992188 L 3.3359375 2.6992188 L 3.21875 2.25 C 3.1484382 1.9843756 2.9101552 1.8007813 2.6367188 1.8007812 L 0.6015625 1.8007812 z " />
</svg>
