<svg version="1.1" xmlns="http://www.w3.org/2000/svg" xlink="http://www.w3.org/1999/xlink" x="0px" y="0px" width="15px" height="15px" viewBox="0 0 15 15" style="enable-background:new 0 0 15 15;" space="preserve"><path d="M5.386719,13.460938C5.5,13.582031,5.496094,13.773438,5.375,13.886719L4.722656,14.496094C4.601562,14.609375,4.410156,14.601562,4.296875,14.480469L0.503906,10.390625C0.390625,10.269531,0.398438,10.078125,0.519531,9.964844L1.171875,9.359375C1.292969,9.246094,1.484375,9.253906,1.59375,9.375ZM10.230469,5.765625C10.34375,5.886719,10.335938,6.078125,10.214844,6.191406L6.113281,10.023438C5.992188,10.136719,5.804688,10.128906,5.691406,10.007812L4.710938,8.953125C4.601562,8.832031,4.605469,8.640625,4.726562,8.527344L8.828125,4.695312C8.949219,4.582031,9.136719,4.589844,9.25,4.710938ZM6.785156,12.15625C6.894531,12.277344,6.890625,12.46875,6.769531,12.582031L6.117188,13.191406C5.996094,13.304688,5.804688,13.296875,5.691406,13.175781L1.898438,9.085938C1.789062,8.964844,1.792969,8.773438,1.914062,8.664062L2.566406,8.054688C2.6875,7.941406,2.878906,7.949219,2.988281,8.070312ZM13.101562,5.914062C13.214844,6.035156,13.207031,6.226562,13.085938,6.339844L12.433594,6.949219C12.3125,7.058594,12.125,7.054688,12.011719,6.933594L8.21875,2.84375C8.105469,2.722656,8.113281,2.53125,8.234375,2.417969L8.886719,1.808594C9.007812,1.695312,9.199219,1.703125,9.308594,1.824219ZM14.496094,4.613281C14.609375,4.734375,14.601562,4.925781,14.480469,5.035156L13.828125,5.644531C13.710938,5.757812,13.519531,5.75,13.40625,5.628906L9.613281,1.539062C9.5,1.417969,9.507812,1.226562,9.628906,1.113281L10.28125,0.503906C10.402344,0.390625,10.589844,0.398438,10.703125,0.519531ZM14.496094,4.613281" fill="#FFFFFF"/></svg>