<svg version="1.1" xmlns="http://www.w3.org/2000/svg" xlink="http://www.w3.org/1999/xlink" x="0px" y="0px" width="15px" height="15px" viewBox="0 0 15 15" style="enable-background:new 0 0 15 15;" space="preserve">
    <path d="M0.6015625,1.8007812C0.26953216,1.8007812,0,2.0703121,0,2.3984375C0,2.7304679,0.26953216,3,0.6015625,3L2.171875,3L3.7773438,9.1640625L3.1445312,10.183594C3.0312505,10.371094,3.0273449,10.601562,3.1328125,10.792969C3.2382813,10.980469,3.4375004,11.101562,3.65625,11.101562L14.101562,11.101562C14.429687,11.101562,14.699219,10.832031,14.699219,10.5C14.699219,10.167969,14.429687,9.8984375,14.101562,9.8984375L4.7304688,9.8984375L4.9296875,9.5742188C5.0156243,9.4375,5.042969,9.2695306,5,9.109375L4.8046875,8.359375L13.5,7.90625C13.832031,7.890625,14.101562,7.6054679,14.101562,7.2734375L14.101562,3.3007812C14.101562,2.9687509,13.828125,2.6992187,13.5,2.6992188L3.3359375,2.6992188L3.21875,2.25C3.1484382,1.9843756,2.9101552,1.8007813,2.6367188,1.8007812L0.6015625,1.8007812z" fill="#FFFFFF"/>
    </svg>