<svg version="1.1" xmlns="http://www.w3.org/2000/svg" xlink="http://www.w3.org/1999/xlink" x="0px" y="0px" width="15px" height="15px" viewBox="0 0 15 15" style="enable-background:new 0 0 15 15;" space="preserve">
    <path d="M10.644531,4.511719C10.570312,4.511719,10.5,4.460938,10.5,4.386719L10.5,2.53125C10.5,2.460938,10.460938,2.398438,10.386719,2.398438L4.613281,2.398438C4.539062,2.398438,4.5,2.460938,4.5,2.53125L4.5,4.386719C4.5,4.460938,4.417969,4.5,4.34375,4.5L0.433594,4.5C0.359375,4.5,0.300781,4.582031,0.300781,4.652344L0.300781,6.714844C0.300781,6.785156,0.359375,6.898438,0.433594,6.898438L6.730469,6.898438C6.804688,6.898438,6.898438,6.785156,6.898438,6.714844L6.898438,6.273438C6.898438,6.199219,6.925781,6,7.003906,6L8,6C8.074219,6,8.101562,6.199219,8.101562,6.273438L8.101562,6.714844C8.101562,6.785156,8.195312,6.898438,8.269531,6.898438L14.5625,6.898438C14.640625,6.898438,14.699219,6.785156,14.699219,6.714844L14.699219,4.652344C14.699219,4.578125,14.640625,4.5,14.566406,4.5L10.65625,4.5ZM5.429688,4.5C5.351562,4.5,5.398438,4.460938,5.398438,4.386719L5.398438,3.332031C5.398438,3.261719,5.351562,3.300781,5.429688,3.300781L9.570312,3.300781C9.648438,3.300781,9.601562,3.261719,9.601562,3.332031L9.601562,4.386719C9.601562,4.460938,9.648438,4.5,9.570312,4.5ZM8.117188,8.914062C8.117188,8.984375,8.074219,9,8,9L7.003906,9C6.925781,9,6.898438,9.03125,6.898438,8.960938L6.898438,7.476562C6.898438,7.40625,6.804688,7.199219,6.730469,7.199219L0.433594,7.199219C0.359375,7.199219,0.300781,7.40625,0.300781,7.476562L0.300781,11.867188C0.300781,11.941406,0.359375,12,0.433594,12L14.566406,12C14.640625,12,14.699219,11.941406,14.699219,11.867188L14.699219,7.476562C14.699219,7.40625,14.640625,7.199219,14.566406,7.199219L8.269531,7.199219C8.195312,7.199219,8.101562,7.40625,8.101562,7.476562L8.101562,8.960938ZM8.117188,8.914062" fill="#FFFFFF"/>
    </svg>