<svg version="1.1" xmlns="http://www.w3.org/2000/svg" xlink="http://www.w3.org/1999/xlink" x="0px" y="0px" width="15px" height="15px" viewBox="0 0 15 15" style="enable-background:new 0 0 15 15;" space="preserve"><path d="M13.53125,3.023438C13.695312,2.859375,13.925781,2.679688,14.164062,2.464844L14.382812,2.28125L13.785156,1.613281L13.59375,1.792969C12.769531,2.542969,12.273438,2.996094,12.03125,3.921875C11.789062,4.84375,11.78125,5.777344,11.804688,6.648438C11.832031,7.550781,11.867188,8.144531,12.117188,8.804688L12.210938,9.046875C12.453125,9.65625,12.820312,10.570312,12.820312,11.75C12.820312,13.175781,12.242188,13.898438,11.101562,13.898438C10.066406,13.898438,9.507812,13.207031,9.445312,11.84375C9.414062,11.238281,9.582031,10.488281,9.761719,9.699219C9.914062,9.035156,10.066406,8.34375,10.144531,7.613281C10.230469,6.804688,10.125,6.230469,9.8125,5.882812C9.414062,5.4375,8.804688,5.398438,8.265625,5.398438L8.101562,5.398438L8.101562,1.242188C8.101562,0.882812,7.839844,0.601562,7.480469,0.601562L1.289062,0.601562C0.929688,0.601562,0.601562,0.882812,0.601562,1.242188L0.601562,14.398438L8.101562,14.398438L8.101562,6.300781L8.265625,6.300781C8.632812,6.300781,9.015625,6.339844,9.144531,6.484375C9.214844,6.5625,9.320312,6.816406,9.25,7.5C9.179688,8.175781,9.03125,8.847656,8.882812,9.488281C8.691406,10.339844,8.511719,11.152344,8.546875,11.882812C8.632812,13.734375,9.566406,14.800781,11.101562,14.800781C12.738281,14.800781,13.71875,13.660156,13.71875,11.75C13.71875,10.398438,13.300781,9.34375,13.046875,8.710938L12.957031,8.480469C12.777344,8.003906,12.734375,7.5625,12.710938,6.792969C13,6.785156,13.351562,6.777344,13.507812,6.777344C13.867188,6.777344,14.046875,6.566406,14.125,6.203125C14.167969,5.988281,14.101562,5.710938,14.101562,5.203125L14.101562,5.066406C14.101562,3.726562,13.894531,3.34375,13.53125,3.023438ZM7.199219,5.699219L1.5,5.699219L1.5,1.800781L7.199219,1.800781ZM13.199219,5.203125C13.199219,5.464844,13.269531,5.714844,13.261719,5.875C13.082031,5.878906,12.875,5.882812,12.664062,5.886719C12.671875,5.308594,12.738281,4.71875,12.882812,4.152344C12.925781,4,12.914062,3.867188,12.972656,3.742188C13.132812,3.898438,13.199219,4.128906,13.199219,5.070312ZM13.199219,5.203125" fill="#FFFFFF"/></svg>