<svg version="1.1" xmlns="http://www.w3.org/2000/svg" xlink="http://www.w3.org/1999/xlink" x="0px" y="0px" width="15px" height="15px" viewBox="0 0 15 15" style="enable-background:new 0 0 15 15;" space="preserve"><path d="M3.765625,14.84375C3.664062,15.023438,3.371094,15.050781,3.117188,14.90625L1.511719,13.992188C1.257812,13.847656,1.132812,13.585938,1.234375,13.40625L8.058594,2.59375C9.039062,1.007812,5.609375,1.148438,4.765625,1.613281C5.402344,0.472656,7.433594,0.09375,8.75,0L9.132812,0.0234375C9.875,0.394531,10.941406,0.953125,11.644531,1.417969C12.160156,2.226562,12.703125,2.65625,13.476562,2.652344C14.480469,3.425781,12.910156,5.527344,11.921875,4.554688C11.925781,4.070312,10.53125,2.828125,9.554688,3.851562ZM3.765625,14.84375" fill="#FFFFFF"/></svg>