<svg version="1.1" xmlns="http://www.w3.org/2000/svg" xlink="http://www.w3.org/1999/xlink" x="0px" y="0px" width="15px" height="15px" viewBox="0 0 15 15" style="enable-background:new 0 0 15 15;" space="preserve">
    <path d="M10.554688,0.300781C9.875,0.300781,9.328125,0.859375,9.328125,1.542969C9.328125,2.226562,9.875,2.78125,10.554688,2.78125C11.234375,2.78125,11.785156,2.226562,11.785156,1.542969C11.785156,0.859375,11.234375,0.300781,10.554688,0.300781ZM1.269531,8.863281C1.164062,8.6875,0.941406,8.636719,0.773438,8.742188C0.601562,8.851562,0.550781,9.078125,0.65625,9.25C0.761719,9.417969,0.984375,9.472656,1.160156,9.367188C1.324219,9.257812,1.378906,9.03125,1.269531,8.863281ZM1.523438,9.875C1.417969,9.707031,1.195312,9.652344,1.019531,9.761719C0.851562,9.867188,0.800781,10.09375,0.90625,10.261719C1.015625,10.4375,1.238281,10.488281,1.40625,10.378906C1.578125,10.273438,1.628906,10.046875,1.523438,9.875ZM1.773438,10.890625C1.671875,10.714844,1.441406,10.664062,1.273438,10.773438C1.101562,10.878906,1.050781,11.105469,1.15625,11.28125C1.261719,11.449219,1.488281,11.5,1.660156,11.394531C1.828125,11.285156,1.882812,11.058594,1.773438,10.890625ZM2.023438,11.902344C1.917969,11.734375,1.695312,11.683594,1.527344,11.785156C1.355469,11.894531,1.304688,12.121094,1.410156,12.292969C1.515625,12.464844,1.738281,12.515625,1.910156,12.410156C2.078125,12.300781,2.132812,12.078125,2.023438,11.902344ZM7.925781,13.96875C7.730469,14.03125,7.625,14.238281,7.6875,14.433594C7.75,14.625,7.957031,14.730469,8.144531,14.671875C8.335938,14.609375,8.441406,14.402344,8.382812,14.210938C8.320312,14.015625,8.117188,13.910156,7.925781,13.96875ZM8.957031,13.976562C8.765625,14.035156,8.664062,14.246094,8.722656,14.433594C8.785156,14.628906,8.992188,14.738281,9.179688,14.675781C9.371094,14.613281,9.476562,14.40625,9.414062,14.214844C9.351562,14.023438,9.152344,13.914062,8.957031,13.976562ZM9.996094,13.980469C9.804688,14.042969,9.695312,14.246094,9.761719,14.441406C9.820312,14.632812,10.027344,14.742188,10.21875,14.679688C10.40625,14.621094,10.511719,14.414062,10.449219,14.21875C10.390625,14.027344,10.1875,13.917969,9.996094,13.980469ZM11.03125,13.984375C10.839844,14.046875,10.734375,14.253906,10.792969,14.445312C10.859375,14.636719,11.0625,14.742188,11.253906,14.683594C11.441406,14.621094,11.546875,14.417969,11.488281,14.222656C11.425781,14.027344,11.21875,13.925781,11.03125,13.984375ZM13.5,5.101562L11.351562,5.101562L10.289062,3.363281C10.109375,2.972656,9.722656,2.703125,9.269531,2.683594C9.179688,2.679688,9.101562,2.691406,9.019531,2.710938L3.625,3.992188C3.296875,4.070312,3.09375,4.398438,3.171875,4.730469C3.242188,5.058594,3.566406,5.261719,3.890625,5.1875L7.496094,4.53125L4.757812,9.300781L1.828125,9.300781L2.476562,11.667969C2.496094,11.746094,2.496094,11.660156,2.523438,11.699219C2.613281,11.851562,2.808594,11.847656,2.953125,11.757812C3.035156,11.710938,3.085938,11.601562,3.101562,11.515625L3.488281,10.308594L3.503906,10.253906L5.308594,10.242188C5.667969,10.242188,5.976562,10.144531,6.15625,9.839844L6.988281,8.449219L8.835938,10.34375L8.054688,13.5L10.765625,13.5C10.941406,13.5,11.085938,13.316406,11.085938,13.144531C11.085938,13.003906,11,12.890625,10.894531,12.832031L9.722656,12.167969L10.285156,9.925781C10.285156,9.925781,10.425781,9.449219,9.984375,9.011719L8.472656,7.480469C8.472656,7.480469,9.28125,6.140625,9.796875,5.277344L10.5,6.300781L13.488281,6.300781C13.824219,6.300781,14.097656,6.039062,14.101562,5.703125C14.101562,5.363281,13.832031,5.101562,13.5,5.101562ZM13.5,5.101562" fill="#FFFFFF"/>
    </svg>