<svg version="1.1" xmlns="http://www.w3.org/2000/svg" xlink="http://www.w3.org/1999/xlink" x="0px" y="0px" width="15px" height="15px" viewBox="0 0 15 15" style="enable-background:new 0 0 15 15;" space="preserve"><path d="M13.089844,2.941406C13.816406,2.941406,14.398438,2.347656,14.398438,1.621094C14.398438,0.890625,13.816406,0.300781,13.089844,0.300781C12.367188,0.300781,11.785156,0.890625,11.785156,1.621094C11.785156,2.347656,12.367188,2.941406,13.089844,2.941406ZM9.300781,14.398438L12.898438,14.398438C12.898438,14.398438,13.199219,14.367188,13.199219,14.101562L13.199219,13.800781L13.5,13.800781C13.5,13.800781,13.625,14.613281,12.941406,14.699219L9.300781,14.699219ZM0.898438,11.699219L3.300781,14.101562C3.300781,14.101562,3.496094,14.175781,3.6875,13.984375L3.875,13.792969L4.199219,14.101562C4.199219,14.101562,3.660156,14.886719,3.117188,14.460938L0.601562,11.917969ZM10.171875,10.726562L10.175781,13.117188C10.175781,13.566406,10.492188,13.929688,10.9375,13.929688C11.347656,13.929688,11.699219,13.453125,11.699219,13.117188L11.699219,9.789062C11.699219,9.558594,11.648438,9.347656,11.492188,9.199219L9.578125,7.253906L12.15625,4.664062C12.636719,4.058594,12.390625,3.328125,12.390625,3.328125C12.125,2.519531,11.21875,2.492188,11.21875,2.492188L4.609375,2.492188C4.257812,2.492188,3.972656,2.777344,3.972656,3.136719C3.972656,3.492188,4.257812,3.78125,4.609375,3.78125L9.175781,3.789062L7.253906,5.71875C6.976562,6.003906,6.839844,6.320312,6.839844,6.738281C6.839844,7.140625,6.996094,7.5,7.261719,7.761719ZM6.851562,8.125C6.789062,8.066406,6.734375,8,6.683594,7.933594L2.871094,11.789062C2.582031,12.023438,2.488281,12.4375,2.660156,12.78125C2.859375,13.171875,3.339844,13.328125,3.730469,13.128906C3.78125,13.097656,3.832031,13.066406,3.875,13.027344L7.789062,9.070312ZM6.851562,8.125" fill="#FFFFFF"/></svg>