<svg version="1.1" xmlns="http://www.w3.org/2000/svg" xlink="http://www.w3.org/1999/xlink" x="0px" y="0px" width="15px" height="15px" viewBox="0 0 15 15" style="enable-background:new 0 0 15 15;" space="preserve"><path d="M12.433594,9.246094C12.132812,9.246094,11.847656,9.316406,11.597656,9.441406C11.34375,9.554688,11.070312,9.621094,10.78125,9.621094C10.492188,9.621094,10.214844,9.554688,9.964844,9.441406C9.710938,9.316406,9.425781,9.246094,9.128906,9.246094C8.832031,9.246094,8.546875,9.316406,8.289062,9.441406C8.042969,9.554688,7.769531,9.621094,7.476562,9.621094C7.1875,9.621094,6.910156,9.554688,6.664062,9.441406C6.410156,9.316406,6.125,9.246094,5.824219,9.246094C5.527344,9.246094,5.238281,9.316406,4.988281,9.441406C4.738281,9.554688,4.460938,9.621094,4.171875,9.621094C3.882812,9.621094,3.609375,9.554688,3.359375,9.441406C3.105469,9.316406,2.824219,9.246094,2.523438,9.246094C2.222656,9.246094,1.953125,9.316406,1.699219,9.441406C1.449219,9.554688,1.199219,9.621094,0.898438,9.621094L0.898438,10.882812C1.199219,10.882812,1.449219,10.816406,1.699219,10.703125C1.953125,10.582031,2.230469,10.507812,2.53125,10.507812C2.832031,10.507812,3.109375,10.582031,3.363281,10.703125C3.574219,10.800781,3.804688,10.851562,4.042969,10.871094L3.03125,11.914062C2.710938,11.707031,2.28125,11.746094,2.003906,12.035156L0.84375,13.238281C0.519531,13.570312,0.519531,14.113281,0.84375,14.449219C1.167969,14.78125,1.691406,14.78125,2.011719,14.449219L3.171875,13.246094C3.433594,12.972656,3.480469,12.566406,3.316406,12.242188L4.710938,10.800781C4.804688,10.769531,4.898438,10.746094,4.988281,10.703125C5.242188,10.582031,5.527344,10.507812,5.824219,10.507812C6.125,10.507812,6.410156,10.582031,6.664062,10.703125C6.910156,10.816406,7.191406,10.882812,7.480469,10.882812C7.769531,10.882812,8.042969,10.816406,8.289062,10.703125C8.546875,10.582031,8.832031,10.507812,9.128906,10.507812C9.425781,10.507812,9.714844,10.582031,9.964844,10.703125C10.214844,10.816406,10.492188,10.882812,10.78125,10.882812C11.070312,10.882812,11.347656,10.816406,11.597656,10.703125C11.851562,10.582031,12.136719,10.507812,12.433594,10.507812C12.734375,10.507812,13.023438,10.582031,13.277344,10.703125C13.523438,10.816406,13.800781,10.882812,14.101562,10.882812L14.101562,9.621094C13.800781,9.621094,13.523438,9.554688,13.277344,9.441406C13.023438,9.316406,12.730469,9.246094,12.433594,9.246094ZM12.996094,3.066406L14.15625,1.863281C14.480469,1.527344,14.480469,0.988281,14.15625,0.652344C13.832031,0.316406,13.308594,0.316406,12.984375,0.652344L11.824219,1.855469C11.546875,2.144531,11.511719,2.585938,11.714844,2.917969L10.273438,4.414062L7.40625,3.3125C7.332031,3.269531,7.25,3.234375,7.164062,3.203125C6.539062,3.011719,5.878906,3.378906,5.691406,4.027344L4.808594,7.09375L4.792969,7.199219L0.898438,7.199219L0.898438,8.820312C1.199219,8.820312,1.320312,8.769531,1.515625,8.683594C1.832031,8.53125,2.183594,8.449219,2.53125,8.449219C2.878906,8.449219,3.226562,8.53125,3.539062,8.679688C3.746094,8.773438,3.957031,8.820312,4.175781,8.820312C4.394531,8.820312,4.605469,8.773438,4.804688,8.683594C5.125,8.53125,5.476562,8.449219,5.824219,8.449219C6.175781,8.449219,6.523438,8.527344,6.839844,8.679688C7.042969,8.773438,7.261719,8.820312,7.480469,8.820312C7.695312,8.820312,7.910156,8.773438,8.109375,8.683594C8.429688,8.53125,8.78125,8.449219,9.128906,8.449219C9.484375,8.449219,9.824219,8.527344,10.144531,8.679688C10.347656,8.773438,10.566406,8.820312,10.78125,8.820312C10.996094,8.820312,11.214844,8.773438,11.410156,8.683594C11.730469,8.53125,12.085938,8.449219,12.433594,8.449219C12.492188,8.449219,12.730469,8.464844,12.96875,8.304688C13.390625,8.113281,13.546875,8.003906,13.914062,7.769531C14.21875,7.578125,14.457031,7.199219,13.800781,7.199219L8.101562,7.199219L9.859375,5.460938L10.085938,5.546875C10.367188,5.652344,10.683594,5.503906,10.789062,5.210938C10.859375,5.003906,10.804688,4.777344,10.664062,4.628906L12.027344,3.214844C12.339844,3.382812,12.730469,3.339844,12.996094,3.066406ZM7.601562,7.199219L7.25,7.199219L7.957031,4.742188L9.425781,5.308594ZM7.589844,1.773438L7.4375,2.078125C7.339844,2.285156,7.136719,2.398438,6.902344,2.398438L6.546875,2.398438C6.753906,2.699219,7.144531,2.890625,7.523438,2.890625C8.140625,2.890625,8.699219,2.367188,8.699219,1.726562L8.699219,1.800781L7.644531,1.800781ZM6.902344,2.101562C7.023438,2.101562,7.132812,2.023438,7.183594,1.914062L7.332031,1.644531C7.386719,1.519531,7.503906,1.5,7.644531,1.5L8.800781,1.5C8.648438,0.898438,8.105469,0.367188,7.464844,0.367188C6.707031,0.367188,6.089844,0.972656,6.089844,1.761719C6.089844,1.886719,6.105469,2.101562,6.136719,2.101562ZM6.902344,2.101562" fill="#FFFFFF"/></svg>