<svg version="1.1" xmlns="http://www.w3.org/2000/svg" xlink="http://www.w3.org/1999/xlink" x="0px" y="0px" width="15px" height="15px" viewBox="0 0 15 15" style="enable-background:new 0 0 15 15;" space="preserve">
    <path d="M6.640625,1.277344C6.644531,0.660156,6.140625,0.152344,5.519531,0.15625C4.890625,0.152344,4.378906,0.660156,4.382812,1.277344C4.378906,1.910156,4.890625,2.414062,5.519531,2.417969C6.140625,2.414062,6.644531,1.910156,6.640625,1.277344ZM9.890625,7.46875L6.273438,3.078125C6.085938,2.796875,5.035156,2.679688,4.59375,3.039062L2.832031,6.242188L3.265625,8.949219C3.707031,9.65625,4.582031,8.941406,4.335938,8.554688L4.039062,6.636719L4.800781,5.101562L4.800781,8.699219L3,13.5C2.6875,14.546875,4.191406,15.109375,4.5,14.101562L6.601562,8.699219L6.601562,6L5.71875,4.78125C5.675781,4.730469,5.683594,4.648438,5.734375,4.605469C5.789062,4.5625,5.867188,4.566406,5.910156,4.621094L8.921875,8.179688C9.40625,8.84375,10.375,8.136719,9.890625,7.46875ZM8.507812,13.558594L6.730469,9.132812L6,11.101562L7.042969,14.152344C7.460938,15.132812,8.9375,14.558594,8.507812,13.558594ZM13.222656,14.570312L13.226562,14.582031C13.296875,14.667969,13.421875,14.675781,13.507812,14.605469C13.582031,14.542969,13.59375,14.429688,13.542969,14.347656L10.195312,8.53125L10.183594,8.519531C10.117188,8.441406,9.992188,8.429688,9.910156,8.5C9.835938,8.5625,9.828125,8.671875,9.875,8.753906ZM13.222656,14.570312" fill="#FFFFFF"/>
    </svg>