<svg version="1.1" xmlns="http://www.w3.org/2000/svg" xlink="http://www.w3.org/1999/xlink" x="0px" y="0px" width="15px" height="15px" viewBox="0 0 15 15" style="enable-background:new 0 0 15 15;" space="preserve"><path d="M12.949219,6.300781L12.300781,6.300781L12.300781,3.710938C12.300781,2.007812,10.589844,0.300781,8.886719,0.300781L6.042969,0.300781C4.339844,0.300781,2.699219,2.007812,2.699219,3.710938L2.699219,6.300781L1.984375,6.300781C1.78125,6.300781,1.5,6.617188,1.5,6.796875L1.5,14.433594C1.5,14.613281,1.78125,14.699219,1.984375,14.699219L12.949219,14.699219C13.152344,14.699219,13.5,14.613281,13.5,14.433594L13.5,6.796875C13.5,6.617188,13.152344,6.300781,12.949219,6.300781ZM8.914062,13.5L6.019531,13.5L6.625,10.511719C6.257812,10.25,6.019531,9.757812,6.019531,9.277344C6.019531,8.484375,6.667969,7.808594,7.464844,7.808594C8.265625,7.808594,8.914062,8.4375,8.914062,9.230469C8.914062,9.710938,8.671875,10.257812,8.308594,10.519531ZM10.199219,6.300781L4.800781,6.300781L4.800781,3.710938C4.800781,2.9375,5.308594,2.398438,6.074219,2.398438L8.859375,2.398438C9.625,2.398438,10.199219,2.9375,10.199219,3.710938ZM10.199219,6.300781" fill="#FFFFFF"/></svg>