<svg version="1.1" xmlns="http://www.w3.org/2000/svg" xlink="http://www.w3.org/1999/xlink" x="0px" y="0px" width="15px" height="15px" viewBox="0 0 15 15" style="enable-background:new 0 0 15 15;" space="preserve"><path d="M1.800781,3.300781L1.800781,13.421875C1.800781,13.863281,2.171875,14.398438,2.628906,14.398438L12.59375,14.398438C13.050781,14.398438,13.5,13.863281,13.5,13.421875L13.5,3.300781ZM7.636719,11.332031C5.878906,11.332031,4.453125,9.953125,4.453125,8.253906C4.453125,6.554688,5.878906,5.175781,7.636719,5.175781C9.394531,5.175781,10.820312,6.554688,10.820312,8.253906C10.820312,9.953125,9.394531,11.332031,7.636719,11.332031ZM12.59375,0.300781L2.628906,0.300781C2.171875,0.300781,1.800781,0.609375,1.800781,1.050781L1.800781,2.699219L13.5,2.699219L13.5,1.050781C13.5,0.609375,13.050781,0.300781,12.59375,0.300781ZM5.699219,2.101562L2.398438,2.101562L2.398438,0.898438L5.699219,0.898438ZM11.445312,2.015625C11.070312,2.015625,10.765625,1.722656,10.765625,1.359375C10.765625,0.996094,11.070312,0.703125,11.445312,0.703125C11.820312,0.703125,12.121094,0.996094,12.121094,1.359375C12.121094,1.722656,11.820312,2.015625,11.445312,2.015625ZM11.445312,2.015625" fill="#FFFFFF"/></svg>