<svg version="1.1" xmlns="http://www.w3.org/2000/svg" xlink="http://www.w3.org/1999/xlink" x="0px" y="0px" width="15px" height="15px" viewBox="0 0 15 15" style="enable-background:new 0 0 15 15;" space="preserve"><path d="M7.535156,3.101562C7.09375,3.101562,6.726562,2.734375,6.726562,2.285156C6.726562,1.832031,7.09375,1.46875,7.535156,1.46875C7.984375,1.46875,8.347656,1.832031,8.347656,2.285156C8.347656,2.734375,7.984375,3.101562,7.535156,3.101562ZM14.085938,10.242188L13.652344,7.535156C13.605469,7.28125,13.382812,7.089844,13.121094,7.089844C12.964844,7.089844,12.820312,7.15625,12.71875,7.265625L10.726562,9.144531C10.695312,9.171875,10.664062,9.207031,10.632812,9.246094C10.445312,9.5,10.5,9.863281,10.753906,10.058594C10.804688,10.09375,10.859375,10.117188,10.910156,10.140625L11.410156,10.308594C10.929688,11.675781,9.546875,12.910156,8.101562,13.199219L8.101562,4.199219C8.808594,3.898438,9.507812,3.105469,9.507812,2.285156C9.507812,1.1875,8.625,0.300781,7.535156,0.300781C6.449219,0.300781,5.5625,1.1875,5.5625,2.285156C5.5625,3.105469,6.195312,3.898438,6.898438,4.199219L6.898438,13.199219C5.421875,12.933594,4.078125,11.699219,3.585938,10.304688L4.089844,10.140625C4.140625,10.117188,4.195312,10.09375,4.246094,10.058594C4.5,9.863281,4.554688,9.5,4.363281,9.246094C4.335938,9.203125,4.308594,9.171875,4.273438,9.144531L2.28125,7.265625C2.183594,7.15625,2.035156,7.089844,1.878906,7.089844C1.613281,7.089844,1.390625,7.28125,1.347656,7.535156L0.914062,10.242188C0.902344,10.285156,0.898438,10.332031,0.898438,10.378906C0.898438,10.699219,1.160156,10.957031,1.476562,10.957031C1.539062,10.957031,1.59375,10.953125,1.648438,10.933594L2.117188,10.78125C2.859375,13.054688,4.988281,14.699219,7.5,14.699219C10.011719,14.699219,12.140625,13.054688,12.886719,10.777344L13.351562,10.933594C13.40625,10.949219,13.464844,10.957031,13.523438,10.957031C13.839844,10.957031,14.101562,10.699219,14.101562,10.378906C14.101562,10.332031,14.097656,10.285156,14.085938,10.242188ZM14.085938,10.242188" fill="#FFFFFF"/></svg>