<svg version="1.1" xmlns="http://www.w3.org/2000/svg" xlink="http://www.w3.org/1999/xlink" x="0px" y="0px" width="15px" height="15px" viewBox="0 0 15 15" style="enable-background:new 0 0 15 15;" space="preserve"><path d="M14.40625,7.996094C13.988281,9.953125,12.550781,11.558594,10.652344,12.1875C10.070312,12.382812,9.46875,12.480469,8.859375,12.480469C6.414062,12.480469,4.253906,10.921875,3.480469,8.605469C3,7.171875,3.113281,5.636719,3.789062,4.285156C4.46875,2.933594,5.632812,1.925781,7.066406,1.445312C8.417969,1,9.886719,1.074219,11.179688,1.652344L11.460938,1.125C9.582031,-0.0351562,7.242188,-0.3125,5.136719,0.386719C3.234375,1.019531,1.691406,2.355469,0.796875,4.144531C-0.101562,5.933594,-0.246094,7.96875,0.386719,9.867188C1.410156,12.9375,4.273438,15,7.511719,15C8.316406,15,9.113281,14.871094,9.882812,14.613281C12.753906,13.660156,14.761719,11.09375,15,8.082031ZM10.710938,4.382812L9.203125,1.566406L8.441406,4.707031L5.3125,5.324219L8.175781,6.949219L7.683594,10.1875L10.113281,7.976562L13.128906,9.421875L11.589844,6.414062L14.027344,4.0625ZM10.710938,4.382812" fill="#FFFFFF"/></svg>