<svg version="1.1" xmlns="http://www.w3.org/2000/svg" xlink="http://www.w3.org/1999/xlink" x="0px" y="0px" width="15px" height="15px" viewBox="0 0 15 15" style="enable-background:new 0 0 15 15;" space="preserve"><path d="M2.558594,9.238281C1.964844,9.238281,1.480469,9.722656,1.480469,10.320312C1.480469,10.917969,1.964844,11.398438,2.558594,11.398438C3.152344,11.398438,3.632812,10.917969,3.632812,10.320312C3.632812,9.722656,3.152344,9.238281,2.558594,9.238281ZM2.558594,10.875C2.261719,10.875,2.019531,10.632812,2.019531,10.335938C2.019531,10.039062,2.261719,9.796875,2.558594,9.796875C2.855469,9.796875,3.097656,10.039062,3.097656,10.335938C3.097656,10.632812,2.855469,10.875,2.558594,10.875ZM12.019531,9.238281C11.425781,9.238281,10.945312,9.722656,10.945312,10.320312C10.945312,10.917969,11.425781,11.398438,12.019531,11.398438C12.613281,11.398438,13.097656,10.917969,13.097656,10.320312C13.097656,9.722656,12.613281,9.238281,12.019531,9.238281ZM12.019531,10.875C11.722656,10.875,11.480469,10.632812,11.480469,10.335938C11.480469,10.039062,11.722656,9.796875,12.019531,9.796875C12.316406,9.796875,12.558594,10.039062,12.558594,10.335938C12.558594,10.632812,12.316406,10.875,12.019531,10.875ZM14.402344,4.199219L4.9375,4.199219C4.773438,4.199219,4.640625,4.332031,4.640625,4.5L4.640625,7.210938L4.042969,7.210938L4.042969,5.546875C4.042969,5.378906,3.910156,5.246094,3.746094,5.246094L1.714844,5.246094C1.363281,5.246094,1.046875,5.507812,0.988281,5.882812L0.988281,5.863281L0.671875,7.660156L0.671875,7.667969C0.457031,7.703125,0.300781,7.890625,0.300781,8.109375L0.308594,8.203125L0.300781,8.203125L0.746094,10.222656L1.210938,10.222656L1.210938,10.203125C1.210938,9.480469,1.804688,8.894531,2.535156,8.894531C3.265625,8.894531,3.859375,9.480469,3.859375,10.203125L3.859375,10.222656L10.675781,10.222656L10.675781,10.203125C10.675781,9.480469,11.269531,8.894531,12,8.894531C12.730469,8.894531,13.320312,9.480469,13.320312,10.203125L13.320312,10.222656L14.699219,10.222656L14.699219,4.5C14.699219,4.335938,14.566406,4.199219,14.402344,4.199219ZM3,5.734375L3,7.210938L1.214844,7.210938L1.4375,5.957031C1.453125,5.808594,1.585938,5.695312,1.714844,5.695312L3,5.695312ZM3,5.734375" fill="#FFFFFF"/></svg>