<svg version="1.1" xmlns="http://www.w3.org/2000/svg" xlink="http://www.w3.org/1999/xlink" x="0px" y="0px" width="15px" height="15px" viewBox="0 0 15 15" style="enable-background:new 0 0 15 15;" space="preserve"><path d="M12.664062,3.898438L10.960938,3.898438L12.675781,2.257812L10.980469,0.601562L8.582031,0.601562L10.300781,2.242188L8.539062,3.898438L6.503906,3.898438L8.253906,2.257812L6.523438,0.601562L4.085938,0.601562L5.800781,2.242188L4.039062,3.898438L2.3125,3.898438L4.066406,2.257812L2.332031,0.601562L0.601562,0.601562L0.601562,14.398438L14.398438,14.398438L14.398438,0.601562L12.707031,0.601562L14.398438,2.25ZM12.601562,12.601562L2.398438,12.601562L2.398438,10.800781L12.601562,10.800781ZM12.601562,9.300781L2.398438,9.300781L2.398438,7.5L12.601562,7.5ZM12.601562,9.300781" fill="#FFFFFF"/></svg>