<svg version="1.1" xmlns="http://www.w3.org/2000/svg" xlink="http://www.w3.org/1999/xlink" x="0px" y="0px" width="15px" height="15px" viewBox="0 0 15 15" style="enable-background:new 0 0 15 15;" space="preserve"><path d="M5.398438 14.101562C5.398438 14.46875 5.628906 14.699219 6 14.699219 6.371094 14.699219 6.601562 14.46875 6.601562 14.101562L6.601562 8.398438 7.199219 8.398438 7.199219 14.101562C7.199219 14.46875 7.429688 14.699219 7.800781 14.699219 8.167969 14.699219 8.398438 14.46875 8.398438 14.101562L8.398438 4.5 8.699219 4.5 8.699219 8.042969C8.699219 8.761719 9.601562 8.761719 9.601562 8.042969L9.601562 4.398438C9.601562 3.605469 9.027344 3 8.101562 3L5.699219 3C4.855469 3 4.199219 3.515625 4.199219 4.375L4.199219 8.101562C4.199219 8.699219 5.101562 8.699219 5.101562 8.101562L5.101562 4.5 5.398438 4.5ZM8.101562 1.386719C8.101562 2.070312 7.546875 2.625 6.863281 2.625 6.179688 2.625 5.625 2.070312 5.625 1.386719 5.625.703125 6.179688.148438 6.863281.148438 7.546875.148438 8.101562.703125 8.101562 1.386719ZM8.101562 1.386719" fill="#FFFFFF"/></svg>