<svg version="1.1" xmlns="http://www.w3.org/2000/svg" xlink="http://www.w3.org/1999/xlink" x="0px" y="0px" width="15px" height="15px" viewBox="0 0 15 15" style="enable-background:new 0 0 15 15;" space="preserve"><path d="M14.101562,2.699219L9.601562,2.699219C9.601562,2.699219,9.300781,5.101562,9.898438,7.5C10.140625,7.902344,10.738281,8.117188,11.398438,8.171875L11.398438,11.101562L11.300781,11.101562L10.199219,12L13.5,12L12.425781,11.101562L12.300781,11.101562L12.300781,8.152344C12.9375,8.070312,13.519531,7.847656,13.800781,7.5C14.398438,5.398438,14.101562,2.699219,14.101562,2.699219ZM13.800781,4.5L9.898438,4.5L9.898438,3L13.800781,3ZM6.449219,11.101562L4.800781,11.101562L4.800781,8.550781L8.101562,3.601562L0.300781,3.601562L3.601562,8.550781L3.601562,11.101562L1.949219,11.101562C1.703125,11.101562,1.5,11.300781,1.5,11.550781C1.5,11.796875,1.703125,12,1.949219,12L6.449219,12C6.699219,12,6.898438,11.796875,6.898438,11.550781C6.898438,11.300781,6.699219,11.101562,6.449219,11.101562ZM6.449219,11.101562" fill="#FFFFFF"/></svg>