<svg version="1.1" xmlns="http://www.w3.org/2000/svg" xlink="http://www.w3.org/1999/xlink" x="0px" y="0px" width="15px" height="15px" viewBox="0 0 15 15" style="enable-background:new 0 0 15 15;" space="preserve">
    <path d="M3.601562,0.300781L6.300781,0.300781L6.300781,2.398438L3.601562,2.398438ZM9.21875,8.945312C8.953125,8.945312,8.699219,8.679688,8.699219,8.414062L8.699219,3L12.957031,3L14.703125,10.464844L14.699219,10.90625L14.699219,14.222656C14.699219,14.476562,14.488281,14.699219,14.234375,14.699219L10.210938,14.699219C9.960938,14.699219,9.898438,14.476562,9.898438,14.222656L9.898438,9L9.300781,9M5.785156,8.953125C6.042969,8.953125,6.300781,8.695312,6.300781,8.429688L6.300781,3L2.046875,3L0.296875,10.46875L0.300781,10.921875L0.300781,14.234375C0.300781,14.492188,0.511719,14.699219,0.765625,14.699219L4.785156,14.699219C5.042969,14.699219,5.101562,14.492188,5.101562,14.234375L5.101562,9L5.699219,9" fill="#FFFFFF"/> <path d="M6.898438,3L8.101562,3L8.101562,8.101562L6.898438,8.101562ZM8.699219,0.300781L11.699219,0.300781L11.699219,2.398438L8.699219,2.398438ZM8.699219,0.300781" fill="#FFFFFF"/>
    </svg>