<svg version="1.1" xmlns="http://www.w3.org/2000/svg" xlink="http://www.w3.org/1999/xlink" x="0px" y="0px" width="15px" height="15px" viewBox="0 0 15 15" style="enable-background:new 0 0 15 15;" space="preserve"><path d="M3.601562.300781 6.300781.300781 6.300781 2.398438 3.601562 2.398438ZM9.21875 8.945312C8.953125 8.945312 8.699219 8.679688 8.699219 8.414062L8.699219 3 12.957031 3 14.703125 10.464844 14.699219 10.90625 14.699219 14.222656C14.699219 14.476562 14.488281 14.699219 14.234375 14.699219L10.210938 14.699219C9.960938 14.699219 9.898438 14.476562 9.898438 14.222656L9.898438 9 9.300781 9M5.785156 8.953125C6.042969 8.953125 6.300781 8.695312 6.300781 8.429688L6.300781 3 2.046875 3 .296875 10.46875.300781 10.921875.300781 14.234375C.300781 14.492188.511719 14.699219.765625 14.699219L4.785156 14.699219C5.042969 14.699219 5.101562 14.492188 5.101562 14.234375L5.101562 9 5.699219 9M6.898438 3 8.101562 3 8.101562 8.101562 6.898438 8.101562ZM8.699219.300781 11.699219.300781 11.699219 2.398438 8.699219 2.398438ZM8.699219.300781" fill="#FFFFFF"/></svg>