<svg version="1.1" xmlns="http://www.w3.org/2000/svg" xlink="http://www.w3.org/1999/xlink" x="0px" y="0px" width="15px" height="15px" viewBox="0 0 15 15" style="enable-background:new 0 0 15 15;" space="preserve"><path d="M3.835938,10.410156C1.976562,10.410156,0.539062,9.363281,0.539062,7.414062C0.539062,5.445312,1.929688,4.308594,3.835938,4.308594C5.742188,4.308594,7.132812,5.445312,7.132812,7.414062C7.132812,9.363281,5.699219,10.410156,3.835938,10.410156ZM3.835938,8.871094C4.507812,8.871094,4.839844,8.296875,4.839844,7.425781C4.839844,6.742188,4.699219,5.851562,3.835938,5.851562C2.976562,5.851562,2.832031,6.742188,2.832031,7.425781C2.832031,8.296875,3.164062,8.871094,3.835938,8.871094ZM12.019531,6.601562C12.011719,6.300781,11.921875,6.1875,11.777344,6.042969C11.636719,5.890625,11.4375,5.832031,11.179688,5.832031C10.324219,5.832031,10.183594,6.734375,10.183594,7.417969C10.183594,8.289062,10.511719,8.910156,11.179688,8.910156C11.777344,8.910156,12.011719,8.398438,12.074219,8.101562L14.390625,8.101562C14.191406,9.898438,12.78125,10.457031,11.179688,10.457031C9.320312,10.457031,7.890625,9.386719,7.890625,7.4375C7.890625,5.464844,9.277344,4.28125,11.179688,4.28125C12.726562,4.28125,14.179688,5.101562,14.34375,6.601562ZM12.019531,6.601562" fill="#FFFFFF"/></svg>