<svg version="1.1" xmlns="http://www.w3.org/2000/svg" xlink="http://www.w3.org/1999/xlink" x="0px" y="0px" width="15px" height="15px" viewBox="0 0 15 15" style="enable-background:new 0 0 15 15;" space="preserve"><path d="M8.574219,6.164062C8.574219,7.175781,7.738281,7.175781,7.285156,7.175781L6.722656,7.175781L6.722656,5.261719L7.429688,5.261719C7.824219,5.261719,8.574219,5.261719,8.574219,6.164062ZM12.894531,5.15625C12.976562,4.125,13.273438,3.183594,13.800781,2.316406L11.785156,0.300781C11.148438,0.847656,10.421875,1.152344,9.601562,1.207031C8.847656,1.273438,8.132812,1.128906,7.460938,0.777344C6.773438,1.121094,6.0625,1.261719,5.320312,1.207031C4.554688,1.136719,3.859375,0.863281,3.242188,0.382812L1.21875,2.398438C1.71875,3.277344,1.992188,4.195312,2.046875,5.15625C2.074219,5.597656,1.949219,6.203125,1.664062,6.988281C1.519531,7.425781,1.40625,7.804688,1.328125,8.117188C1.257812,8.433594,1.214844,8.6875,1.199219,8.878906C1.191406,9.714844,1.425781,10.472656,1.90625,11.144531C2.28125,11.632812,2.902344,12.175781,3.765625,12.765625C4.707031,13.246094,5.4375,13.558594,5.949219,13.691406L6.371094,13.886719C6.503906,13.953125,6.648438,14.015625,6.796875,14.082031C7.117188,14.273438,7.34375,14.484375,7.460938,14.699219C7.609375,14.464844,7.839844,14.261719,8.144531,14.082031C8.363281,13.988281,8.546875,13.90625,8.691406,13.835938C8.839844,13.769531,8.949219,13.722656,9.011719,13.691406C9.121094,13.636719,9.265625,13.574219,9.4375,13.507812C9.613281,13.4375,9.828125,13.355469,10.085938,13.261719C10.585938,13.085938,10.945312,12.917969,11.175781,12.765625C12.011719,12.175781,12.625,11.640625,13.011719,11.164062C13.511719,10.492188,13.753906,9.730469,13.742188,8.878906C13.710938,8.496094,13.550781,7.882812,13.257812,7.050781C12.976562,6.238281,12.851562,5.609375,12.894531,5.15625ZM9.1875,7.917969C8.710938,8.230469,8.050781,8.230469,7.707031,8.230469L6.765625,8.230469L6.765625,10.8125L5.347656,10.8125L5.347656,4.191406L7.359375,4.191406C8.296875,4.191406,9.078125,4.25,9.621094,4.914062C9.960938,5.335938,10.019531,5.8125,10.019531,6.152344C10.019531,6.925781,9.699219,7.578125,9.1875,7.917969ZM9.1875,7.917969" fill="#FFFFFF"/></svg>