<svg version="1.1" xmlns="http://www.w3.org/2000/svg" xlink="http://www.w3.org/1999/xlink" x="0px" y="0px" width="15px" height="15px" viewBox="0 0 15 15" style="enable-background:new 0 0 15 15;" space="preserve"><path d="M3.699219,6.601562L4.5,6.601562L4.5,11.398438L5.699219,11.398438L5.699219,7.199219L6.898438,7.199219L6.898438,11.398438L8.101562,11.398438L8.101562,7.199219L9.300781,7.199219L9.300781,11.398438L10.5,11.398438L10.5,6.601562L11.300781,6.601562C11.519531,6.601562,11.699219,6.378906,11.699219,6.179688C11.699219,6.058594,11.632812,5.925781,11.535156,5.859375L11.535156,5.84375L11.527344,5.832031L11.566406,5.824219L7.800781,3.882812L7.800781,3.3125C8.398438,3.632812,8.984375,3.085938,9.898438,3.414062L9.898438,2.160156C8.984375,1.832031,8.398438,2.378906,7.800781,2.058594L7.800781,1.980469C7.800781,1.878906,7.609375,1.800781,7.5,1.800781C7.390625,1.800781,7.199219,1.878906,7.199219,1.980469L7.199219,3.882812L3.433594,5.820312L3.511719,5.824219L3.601562,5.828125C3.300781,5.894531,3.367188,6.058594,3.367188,6.179688C3.367188,6.378906,3.480469,6.601562,3.699219,6.601562ZM4.199219,11.699219L3.300781,12.601562L11.699219,12.601562L10.800781,11.699219ZM10.800781,6.898438L10.800781,11.398438L11.066406,11.398438L11.183594,11.566406L11.984375,12.316406L12.265625,12.601562L14.699219,12.601562L14.699219,6.898438ZM12.601562,10.5L11.699219,10.5L11.699219,9.601562L12.601562,9.601562ZM12.601562,8.699219L11.699219,8.699219L11.699219,7.800781L12.601562,7.800781ZM13.800781,10.5L13.199219,10.5L13.199219,9.601562L13.800781,9.601562ZM13.800781,8.699219L13.199219,8.699219L13.199219,7.800781L13.800781,7.800781ZM3.933594,11.398438L4.199219,11.398438L4.199219,6.898438L0.300781,6.898438L0.300781,12.601562L2.734375,12.601562L3.015625,12.34375L3.816406,11.566406ZM1.800781,10.5L1.199219,10.5L1.199219,9.601562L1.800781,9.601562ZM1.800781,8.699219L1.199219,8.699219L1.199219,7.800781L1.800781,7.800781ZM3.300781,10.5L2.398438,10.5L2.398438,9.601562L3.300781,9.601562ZM3.300781,8.699219L2.398438,8.699219L2.398438,7.800781L3.300781,7.800781ZM3.300781,8.699219" fill="#FFFFFF"/></svg>