<svg version="1.1" xmlns="http://www.w3.org/2000/svg" xlink="http://www.w3.org/1999/xlink" x="0px" y="0px" width="15px" height="15px" viewBox="0 0 15 15" style="enable-background:new 0 0 15 15;" space="preserve">
    <path d="M10.53125,3.136719C11.09375,3.136719,11.550781,2.667969,11.550781,2.085938C11.550781,1.511719,11.09375,1.042969,10.53125,1.042969C9.972656,1.042969,9.515625,1.511719,9.515625,2.085938C9.515625,2.667969,9.96875,3.136719,10.53125,3.136719ZM11.289062,3.371094L9.804688,3.371094L7.269531,0.765625C7.074219,0.550781,6.746094,0.542969,6.535156,0.75C6.328125,0.953125,6.320312,1.289062,6.515625,1.503906L9.164062,4.230469L9.164062,13.261719C9.164062,13.585938,9.417969,13.847656,9.734375,13.847656C10.050781,13.847656,10.304688,13.585938,10.304688,13.261719L10.304688,8.363281L10.769531,8.363281L10.773438,13.261719C10.773438,13.589844,11.03125,13.851562,11.34375,13.851562C11.660156,13.851562,11.914062,13.589844,11.914062,13.261719L11.910156,4.230469L14.558594,1.503906C14.753906,1.292969,14.746094,0.953125,14.539062,0.75C14.328125,0.542969,14,0.554688,13.804688,0.765625ZM5.90625,7.355469C5.753906,7.191406,5.539062,7.097656,5.304688,7.097656L3.175781,7.097656C2.941406,7.097656,2.730469,7.191406,2.578125,7.355469L0.445312,9.550781C0.246094,9.765625,0.253906,10.105469,0.460938,10.308594C0.667969,10.511719,1,10.503906,1.195312,10.289062L2.851562,8.585938L2.851562,10.863281L0.992188,10.863281C0.652344,10.863281,0.375,11.144531,0.375,11.496094C0.375,11.679688,0.445312,11.84375,0.566406,11.960938L2.65625,14.113281C2.839844,14.390625,3.203125,14.480469,3.492188,14.308594C3.796875,14.128906,3.898438,13.734375,3.722656,13.421875L2.53125,12.199219L5.980469,12.199219L4.78125,13.425781C4.613281,13.734375,4.710938,14.132812,5.015625,14.3125C5.300781,14.484375,5.667969,14.394531,5.851562,14.117188L7.945312,11.964844C8.066406,11.847656,8.132812,11.683594,8.132812,11.5C8.132812,11.148438,7.859375,10.867188,7.515625,10.867188L5.660156,10.867188L5.660156,8.613281L7.289062,10.292969C7.484375,10.507812,7.8125,10.515625,8.023438,10.3125C8.230469,10.109375,8.238281,9.769531,8.039062,9.554688ZM4.261719,6.871094C4.824219,6.871094,5.277344,6.402344,5.277344,5.828125C5.277344,5.246094,4.824219,4.78125,4.261719,4.78125C3.703125,4.78125,3.246094,5.246094,3.246094,5.828125C3.246094,6.402344,3.703125,6.871094,4.261719,6.871094ZM4.261719,6.871094" fill="#FFFFFF"/>
    </svg>