<svg version="1.1" xmlns="http://www.w3.org/2000/svg" xlink="http://www.w3.org/1999/xlink" x="0px" y="0px" width="15px" height="15px" viewBox="0 0 15 15" style="enable-background:new 0 0 15 15;" space="preserve"><path d="M14.25,6.167969C14.183594,2.375,11.992188,0.867188,11.902344,0.808594L11.566406,0.574219L11.222656,0.808594C10.65625,1.195312,10.070312,1.390625,9.480469,1.390625C8.5,1.390625,7.832031,0.859375,7.804688,0.835938L7.421875,0.527344L7.042969,0.835938C7.015625,0.859375,6.351562,1.390625,5.371094,1.390625C4.78125,1.390625,4.195312,1.195312,3.625,0.808594L3.285156,0.578125L2.945312,0.808594C2.710938,0.96875,0.675781,2.480469,0.601562,6.148438C0.570312,6.464844,1.449219,12.5,7.425781,14.25C13.925781,12.339844,14.285156,6.566406,14.25,6.167969ZM1.804688,6.238281L1.804688,6.324219C1.816406,5.632812,1.914062,4.800781,2.101562,4.5L12.75,4.5C12.9375,4.800781,13.035156,5.632812,13.042969,6.332031L13.046875,6.328125C13.074219,6.519531,12.835938,11.953125,7.425781,13.042969C2.585938,11.976562,1.785156,6.417969,1.804688,6.238281ZM1.804688,6.238281" fill="#FFFFFF"/></svg>