<svg version="1.1" xmlns="http://www.w3.org/2000/svg" xlink="http://www.w3.org/1999/xlink" x="0px" y="0px" width="15px" height="15px" viewBox="0 0 15 15" style="enable-background:new 0 0 15 15;" space="preserve">
    <path d="M14.25,6.472656C14.179688,2.824219,12.066406,1.375,11.976562,1.320312L11.652344,1.09375L11.320312,1.316406C10.773438,1.691406,10.207031,1.878906,9.632812,1.878906C8.6875,1.878906,8.042969,1.367188,8.015625,1.347656L7.648438,1.050781L7.28125,1.347656C7.253906,1.367188,6.609375,1.878906,5.664062,1.878906C5.089844,1.878906,4.523438,1.691406,3.976562,1.316406L3.648438,1.09375L3.316406,1.320312C3.09375,1.472656,1.121094,2.929688,1.050781,6.453125C1.023438,6.761719,1.871094,12.566406,7.648438,14.25C13.933594,12.414062,14.28125,6.855469,14.25,6.472656ZM14.25,6.472656" fill="#FFFFFF"/>
    </svg>