<svg version="1.1" xmlns="http://www.w3.org/2000/svg" xlink="http://www.w3.org/1999/xlink" x="0px" y="0px" width="15px" height="15px" viewBox="0 0 15 15" style="enable-background:new 0 0 15 15;" space="preserve"><path d="M8.394531,9.21875C7.71875,9.21875,7.171875,9.773438,7.171875,10.460938C7.171875,11.144531,7.71875,11.699219,8.394531,11.699219C9.070312,11.699219,9.617188,11.144531,9.617188,10.460938C9.617188,9.773438,9.070312,9.21875,8.394531,9.21875ZM8.394531,11.117188C8.035156,11.117188,7.746094,10.820312,7.746094,10.460938C7.746094,10.097656,8.035156,9.800781,8.394531,9.800781C8.753906,9.800781,9.042969,10.097656,9.042969,10.460938C9.042969,10.820312,8.753906,11.117188,8.394531,11.117188ZM13.457031,3.75C13.023438,3.597656,10.230469,3.300781,8.390625,3.300781C6.554688,3.300781,3.589844,3.601562,3.152344,3.730469C3.109375,3.746094,1.800781,4.105469,1.800781,5.523438L1.800781,9.308594C1.800781,9.566406,1.894531,9.898438,2.039062,9.898438L0.300781,9.898438L0.300781,10.5L6.890625,10.5C6.890625,9.601562,7.566406,8.964844,8.402344,8.964844C9.242188,8.964844,9.917969,9.601562,9.917969,10.5L13.589844,10.5C14.203125,10.5,14.699219,9.929688,14.699219,9.308594L14.699219,5.324219C14.699219,4.699219,14.230469,4.015625,13.457031,3.75ZM6.011719,6.710938C6.011719,6.832031,5.925781,6.898438,5.8125,6.898438L3.835938,6.898438C3.71875,6.898438,3.601562,6.855469,3.601562,6.738281L3.601562,5.339844C3.601562,5.222656,3.71875,5.101562,3.835938,5.101562L5.808594,5.101562C5.925781,5.101562,6,5.222656,6,5.339844L6,6.738281ZM13.199219,6.738281C13.199219,6.855469,13.105469,6.898438,12.988281,6.898438L8.621094,6.898438C8.503906,6.898438,8.398438,6.855469,8.398438,6.738281L8.398438,5.339844C8.398438,5.222656,8.503906,5.101562,8.621094,5.101562L12.988281,5.101562C13.105469,5.101562,13.199219,5.222656,13.199219,5.339844ZM13.199219,6.738281" fill="#FFFFFF"/></svg>