<svg version="1.1" xmlns="http://www.w3.org/2000/svg" xlink="http://www.w3.org/1999/xlink" x="0px" y="0px" width="15px" height="15px" viewBox="0 0 15 15" style="enable-background:new 0 0 15 15;" space="preserve"><path d="M10.332031,5.265625C11.378906,5.265625,12.234375,4.425781,12.234375,3.382812C12.234375,2.34375,11.382812,1.5,10.332031,1.5C9.277344,1.5,8.421875,2.34375,8.421875,3.382812C8.421875,4.425781,9.277344,5.265625,10.332031,5.265625ZM14.699219,9.855469L14.699219,7.476562L12.128906,6.03125C11.695312,5.8125,11.210938,5.738281,10.726562,5.839844C10.53125,5.878906,10.34375,5.957031,10.132812,6.070312C10.109375,6.078125,9.347656,6.410156,8.90625,7.433594L7.136719,10.953125C7.136719,10.953125,5.390625,11.285156,4.664062,11.425781L4.484375,11.53125L4.03125,9.917969C3.84375,9.261719,4.542969,8.308594,4.570312,8.269531C5.03125,7.601562,5.15625,6.722656,4.914062,5.851562C4.695312,5.066406,4.191406,4.402344,3.535156,4.027344C3.023438,3.738281,2.449219,3.660156,1.925781,3.804688C1.519531,3.914062,1.15625,4.148438,0.878906,4.488281L0.660156,4.804688C0.285156,5.457031,0.199219,6.28125,0.417969,7.070312C0.636719,7.867188,1.132812,8.527344,1.792969,8.894531L1.949219,8.976562C1.972656,8.980469,3.054688,9.417969,3.242188,10.042969C3.242188,10.046875,3.527344,11.070312,3.761719,11.90625L3.582031,11.988281L3.617188,12.011719C3.566406,12.089844,3.472656,12.269531,3.480469,12.453125C3.480469,12.511719,3.484375,12.570312,3.496094,12.625C3.59375,13.144531,4.109375,13.488281,4.632812,13.382812L7.976562,12.742188C7.976562,12.742188,8.257812,12.65625,8.382812,12.570312C8.539062,12.460938,8.65625,12.226562,8.65625,12.226562L9.535156,10.480469C9.535156,10.480469,10.140625,13.304688,10.152344,13.355469L10.011719,13.5L14.574219,13.5L14.460938,12.839844C14.460938,12.832031,14.316406,12.207031,14.316406,12.207031C14.320312,12.210938,13.925781,10.445312,13.621094,9.066406C14.105469,9.34375,14.542969,9.589844,14.566406,9.601562ZM3.207031,8.410156C2.867188,8.5,2.503906,8.445312,2.160156,8.253906C1.675781,7.984375,1.300781,7.480469,1.144531,6.875C0.972656,6.269531,1.035156,5.652344,1.308594,5.175781L1.464844,4.953125C1.644531,4.734375,1.863281,4.585938,2.128906,4.511719C2.96875,4.289062,3.894531,4.976562,4.195312,6.050781C4.488281,7.121094,4.046875,8.183594,3.207031,8.410156ZM3.207031,8.410156" fill="#FFFFFF"/></svg>