<svg version="1.1" xmlns="http://www.w3.org/2000/svg" xlink="http://www.w3.org/1999/xlink" x="0px" y="0px" width="15px" height="15px" viewBox="0 0 15 15" style="enable-background:new 0 0 15 15;" space="preserve">
    <path d="M7.667969,0.890625L0,6.300781L1.800781,6.300781L1.800781,12.898438L3,12.898438L3,8.398438L5.398438,8.398438L5.398438,12.898438L13.5,12.898438L13.5,6.300781L15,6.300781ZM12.601562,11.101562L6.898438,11.101562L6.898438,8.398438L12.601562,8.398438ZM12.601562,7.5L2.699219,7.5L2.699219,5.101562L12.601562,5.101562ZM12,5.699219L12,6.898438L3.300781,6.898438L3.300781,5.699219L12,5.699219M12.300781,5.398438L3,5.398438L3,7.199219L12.300781,7.199219ZM12.300781,5.398438" fill="#FFFFFF"/>
    </svg>