<svg version="1.1" xmlns="http://www.w3.org/2000/svg" xlink="http://www.w3.org/1999/xlink" x="0px" y="0px" width="15px" height="15px" viewBox="0 0 15 15" style="enable-background:new 0 0 15 15;" space="preserve"><path d="M12.890625,10.046875C13.648438,10.046875,14.261719,9.410156,14.261719,8.625C14.261719,7.84375,13.648438,7.210938,12.890625,7.210938C12.132812,7.210938,11.523438,7.84375,11.523438,8.625C11.523438,9.410156,12.132812,10.046875,12.890625,10.046875ZM13.941406,13.214844C14.003906,13.238281,14.03125,13.246094,14.101562,13.246094C14.453125,13.246094,14.71875,12.953125,14.71875,12.589844C14.71875,12.316406,14.546875,12.078125,14.316406,11.984375L12.414062,11.21875L11.035156,8.679688C11.035156,8.679688,10.917969,8.402344,10.519531,8.246094L5.996094,6.371094L3.308594,1.65625C3.152344,1.386719,2.867188,1.199219,2.535156,1.199219C2.039062,1.199219,1.636719,1.617188,1.636719,2.132812C1.636719,2.296875,1.679688,2.449219,1.75,2.585938L5.085938,8.445312L2.972656,7.570312L2.441406,7.929688L10.894531,11.398438L10.890625,11.398438L11.238281,11.941406C11.238281,11.941406,11.375,12.234375,11.78125,12.402344L12.832031,12.816406C12.148438,13.523438,11.191406,13.214844,11.191406,13.214844L0.871094,8.921875L0.300781,9.273438L11.152344,13.683594C12.40625,14.15625,13.5,13.023438,13.5,13.023438L13.5,13.027344ZM13.941406,13.214844" fill="#FFFFFF"/></svg>