<svg version="1.1" xmlns="http://www.w3.org/2000/svg" xlink="http://www.w3.org/1999/xlink" x="0px" y="0px" width="15px" height="15px" viewBox="0 0 15 15" style="enable-background:new 0 0 15 15;" space="preserve"><path d="M7.5,0.300781L9.625,3.933594L13.800781,3.933594L11.710938,7.5L13.800781,11.066406L9.625,11.070312L7.5,14.699219L5.375,11.070312L1.199219,11.066406L3.289062,7.5L1.199219,3.933594L5.375,3.933594ZM4.777344,7.503906L6.125,9.898438L8.871094,9.898438L10.222656,7.503906L8.875,5.101562L6.128906,5.101562ZM10.363281,9.898438L11.574219,9.898438L10.96875,8.863281ZM3.425781,9.898438L4.636719,9.898438L4.03125,8.863281ZM6.898438,3.898438L8.109375,3.898438L7.503906,2.863281ZM10.96875,6.136719L11.574219,5.101562L10.363281,5.101562ZM4.03125,6.136719L4.636719,5.101562L3.425781,5.101562ZM7.503906,12.136719L8.109375,11.101562L6.898438,11.101562ZM7.503906,12.136719" fill="#FFFFFF"/></svg>