<svg version="1.1" xmlns="http://www.w3.org/2000/svg" xlink="http://www.w3.org/1999/xlink" x="0px" y="0px" width="15px" height="15px" viewBox="0 0 15 15" style="enable-background:new 0 0 15 15;" space="preserve">
    <path d="M12.769531,5.132812C12.851562,4.140625,13.152344,3.230469,13.675781,2.394531L11.65625,0.449219C11.019531,0.980469,10.292969,1.273438,9.46875,1.324219C8.714844,1.390625,8,1.25,7.324219,0.910156C6.632812,1.238281,5.921875,1.378906,5.179688,1.324219C4.410156,1.257812,3.714844,0.996094,3.09375,0.53125L1.070312,2.476562C1.570312,3.320312,1.847656,4.207031,1.898438,5.132812C1.925781,5.558594,1.800781,6.144531,1.515625,6.902344C1.367188,7.324219,1.257812,7.6875,1.179688,7.992188C1.109375,8.292969,1.066406,8.539062,1.050781,8.722656C1.039062,9.53125,1.273438,10.261719,1.757812,10.910156C2.132812,11.382812,2.757812,11.90625,3.621094,12.476562C4.5625,12.9375,5.296875,13.238281,5.808594,13.367188L6.230469,13.558594C6.367188,13.617188,6.507812,13.679688,6.65625,13.746094C6.980469,13.929688,7.207031,14.132812,7.324219,14.339844C7.472656,14.113281,7.703125,13.917969,8.011719,13.746094C8.226562,13.652344,8.410156,13.574219,8.558594,13.503906L8.878906,13.367188C8.988281,13.316406,9.132812,13.253906,9.304688,13.1875C9.480469,13.121094,9.695312,13.042969,9.953125,12.953125C10.453125,12.78125,10.816406,12.621094,11.046875,12.476562C11.886719,11.90625,12.496094,11.390625,12.886719,10.929688C13.386719,10.28125,13.628906,9.546875,13.617188,8.722656C13.589844,8.355469,13.425781,7.765625,13.132812,6.960938C12.851562,6.179688,12.726562,5.570312,12.769531,5.132812ZM12.769531,5.132812" fill="#FFFFFF"/>
    </svg>