<svg version="1.1" xmlns="http://www.w3.org/2000/svg" xlink="http://www.w3.org/1999/xlink" x="0px" y="0px" width="15px" height="15px" viewBox="0 0 15 15" style="enable-background:new 0 0 15 15;" space="preserve"><path d="M2.824219,10.640625C6.851562,12.339844,9.90625,13.332031,14.214844,14.699219C14.304688,14.710938,14.382812,14.652344,14.398438,14.558594C14.410156,14.46875,14.351562,14.382812,14.261719,14.367188C7.476562,12.222656,2.152344,9.84375,0.9375,9.292969C0.8125,9.242188,0.667969,9.300781,0.621094,9.421875C0.566406,9.546875,0.621094,9.683594,0.746094,9.734375C1.046875,9.867188,1.34375,10,1.632812,10.128906L0.675781,10.859375C0.566406,11.019531,0.617188,11.226562,0.773438,11.335938C0.894531,11.417969,1.0625,11.40625,1.179688,11.332031ZM13.9375,6.34375L10.800781,3.453125L10.871094,3.457031C11.507812,3.457031,12.019531,2.941406,12.019531,2.300781C12.019531,1.664062,11.507812,1.144531,10.871094,1.144531C10.234375,1.144531,9.722656,1.664062,9.722656,2.300781C9.722656,2.546875,9.796875,2.769531,9.925781,2.957031L7.800781,2.195312L6.652344,0.527344C6.566406,0.40625,6.429688,0.324219,6.269531,0.304688C5.972656,0.269531,5.699219,0.488281,5.664062,0.792969C5.648438,0.917969,5.679688,1.039062,5.742188,1.144531L6.910156,2.847656C6.964844,2.914062,7.035156,2.972656,7.113281,3.011719L8.472656,3.546875L6.242188,4.691406C5.933594,4.871094,5.710938,5.183594,5.648438,5.550781L5.660156,7.597656L3.597656,8.535156C3.367188,8.644531,3.203125,8.878906,3.191406,9.15625C3.175781,9.550781,3.480469,9.878906,3.875,9.898438C3.996094,9.90625,4.113281,9.878906,4.21875,9.828125L6.738281,8.679688C6.917969,8.585938,7.054688,8.410156,7.097656,8.199219L7.09375,6.925781L8.847656,8.5L8.523438,11.183594L8.519531,11.234375C8.503906,11.628906,8.808594,11.964844,9.203125,11.980469C9.574219,11.996094,9.886719,11.726562,9.9375,11.359375L10.316406,8.296875L10.320312,8.257812C10.324219,8.042969,10.242188,7.847656,10.097656,7.710938L8.476562,6.261719L10.921875,5.054688L13.1875,7.152344C13.289062,7.25,13.429688,7.3125,13.578125,7.3125C13.882812,7.308594,14.128906,7.058594,14.125,6.757812C14.125,6.59375,14.046875,6.445312,13.9375,6.34375ZM13.9375,6.34375" fill="#FFFFFF"/></svg>