<svg version="1.1" xmlns="http://www.w3.org/2000/svg" xlink="http://www.w3.org/1999/xlink" x="0px" y="0px" width="15px" height="15px" viewBox="0 0 15 15" style="enable-background:new 0 0 15 15;" space="preserve">
    <path d="M15,15L14.996094,7.480469C14.996094,3.347656,11.640625,0,7.503906,0C3.371094,0,0.015625,3.351562,0.015625,7.484375L0.0742188,15.011719L1.800781,15.007812L1.800781,7.484375C1.800781,4.261719,4.277344,1.652344,7.5,1.652344C10.722656,1.652344,13.199219,4.261719,13.199219,7.484375L13.199219,15ZM9.960938,12.277344L9.929688,12.226562L9.945312,12.207031L9.960938,12.191406C10.21875,12.082031,10.453125,11.953125,10.660156,11.796875C10.871094,11.640625,10.992188,11.410156,11.066406,11.109375C11.074219,11.074219,11.101562,10.992188,11.101562,10.867188L11.101562,4.609375C11.101562,4.460938,11.074219,4.304688,10.984375,4.144531C10.894531,3.984375,10.792969,3.835938,10.65625,3.707031C10.523438,3.582031,10.378906,3.492188,10.214844,3.40625C10.050781,3.324219,9.894531,3.300781,9.742188,3.300781L5.265625,3.300781C5.125,3.300781,4.972656,3.320312,4.804688,3.402344C4.640625,3.480469,4.488281,3.574219,4.351562,3.699219C4.214844,3.824219,4.109375,3.957031,4.023438,4.113281C3.933594,4.273438,3.898438,4.417969,3.898438,4.570312L3.898438,10.921875C3.898438,11.027344,3.917969,11.140625,3.96875,11.253906C4.023438,11.371094,4.082031,11.480469,4.164062,11.582031C4.242188,11.683594,4.328125,11.777344,4.421875,11.863281C4.515625,11.949219,4.605469,12.015625,4.695312,12.070312C4.738281,12.085938,4.816406,12.117188,4.925781,12.152344C5.039062,12.1875,5.089844,12.207031,5.082031,12.222656L3.25,15L4.316406,15L5.65625,13.199219L9.34375,13.199219L10.679688,15L11.761719,15ZM6,3.898438C6,3.734375,6.136719,3.601562,6.300781,3.601562L8.699219,3.601562C8.863281,3.601562,9,3.734375,9,3.898438L9,4.199219C9,4.363281,8.863281,4.5,8.699219,4.5L6.300781,4.5C6.136719,4.5,6,4.363281,6,4.199219ZM4.820312,5.367188C4.859375,5.28125,4.890625,5.203125,4.953125,5.132812C5.015625,5.058594,5.078125,4.957031,5.164062,4.914062C5.246094,4.867188,5.324219,4.800781,5.414062,4.800781L9.570312,4.800781C9.652344,4.800781,9.730469,4.863281,9.8125,4.898438C9.890625,4.933594,9.964844,5.007812,10.03125,5.070312C10.097656,5.132812,10.125,5.210938,10.167969,5.28125C10.207031,5.351562,10.199219,5.441406,10.199219,5.519531L10.199219,6.9375C10.199219,7.019531,10.203125,7.09375,10.160156,7.167969C10.117188,7.246094,10.070312,7.316406,10,7.371094C9.925781,7.429688,9.859375,7.445312,9.777344,7.476562C9.699219,7.515625,9.625,7.5,9.546875,7.5L5.441406,7.5C5.429688,7.5,5.410156,7.527344,5.375,7.519531L5.292969,7.507812C5.140625,7.484375,5.050781,7.410156,4.933594,7.277344C4.816406,7.140625,4.800781,7.003906,4.800781,6.84375L4.800781,5.628906C4.800781,5.539062,4.78125,5.449219,4.820312,5.367188ZM5.957031,11.148438C5.816406,11.289062,5.644531,11.363281,5.441406,11.363281C5.234375,11.363281,5.070312,11.289062,4.9375,11.148438C4.808594,11.003906,4.746094,10.832031,4.746094,10.625C4.746094,10.4375,4.8125,10.277344,4.945312,10.140625C5.078125,10,5.246094,9.929688,5.441406,9.929688C5.644531,9.929688,5.816406,9.996094,5.957031,10.125C6.09375,10.253906,6.164062,10.425781,6.164062,10.640625C6.164062,10.835938,6.09375,11.007812,5.957031,11.148438ZM9.015625,11.148438C8.878906,11.003906,8.808594,10.832031,8.808594,10.625C8.808594,10.421875,8.882812,10.253906,9.03125,10.125C9.175781,9.996094,9.347656,9.929688,9.546875,9.929688C9.75,9.929688,9.917969,10,10.046875,10.140625C10.175781,10.277344,10.238281,10.4375,10.238281,10.625C10.238281,10.832031,10.175781,11.003906,10.039062,11.148438C9.90625,11.289062,9.734375,11.359375,9.53125,11.359375C9.324219,11.363281,9.15625,11.289062,9.015625,11.148438ZM9.015625,11.148438" fill="#FFFFFF"/>
    </svg>