<svg version="1.1" xmlns="http://www.w3.org/2000/svg" xlink="http://www.w3.org/1999/xlink" x="0px" y="0px" width="15px" height="15px" viewBox="0 0 15 15" style="enable-background:new 0 0 15 15;" space="preserve"><path d="M12.710938 2.265625C12.710938 1.640625 12.195312 1.132812 11.558594 1.132812 10.921875 1.132812 10.40625 1.640625 10.40625 2.265625 10.40625 2.894531 10.921875 3.402344 11.558594 3.402344 12.195312 3.402344 12.710938 2.894531 12.710938 2.265625ZM14.210938 6.535156 10.964844 3.597656C10.855469 3.492188 10.730469 3.410156 10.589844 3.351562L8.0625 2.464844 6.914062.824219C6.824219.707031 6.6875.625 6.527344.601562 6.226562.570312 5.953125.785156 5.917969 1.082031 5.902344 1.207031 5.933594 1.328125 6 1.429688L7.171875 3.097656C7.226562 3.167969 7.292969 3.222656 7.375 3.257812L8.734375 3.789062 6.496094 4.914062C6.1875 5.089844 5.964844 5.394531 5.902344 5.753906L5.917969 7.765625 3.851562 8.683594C3.617188 8.789062 3.449219 9.019531 3.4375 9.292969 3.433594 9.453125 3.484375 9.601562 3.570312 9.722656L2.457031 9.304688C2.246094 9.226562 2.082031 9.058594 2.011719 8.847656 1.882812 8.472656 1.472656 8.273438 1.09375 8.398438.714844 8.523438.511719 8.929688.636719 9.300781.847656 9.917969 1.324219 10.40625 1.941406 10.636719L11.613281 14.257812C12.234375 14.488281 12.917969 14.4375 13.484375 14.113281 13.832031 13.917969 13.949219 13.484375 13.753906 13.144531 13.554688 12.800781 13.109375 12.683594 12.765625 12.878906 12.574219 12.988281 12.339844 13.007812 12.128906 12.925781L9.730469 12.027344C9.980469 11.941406 10.167969 11.726562 10.203125 11.460938L10.582031 8.453125 10.585938 8.410156C10.59375 8.199219 10.511719 8.007812 10.363281 7.875L8.738281 6.453125 11.1875 5.265625 13.460938 7.328125C13.5625 7.425781 13.699219 7.484375 13.851562 7.484375 14.160156 7.480469 14.402344 7.238281 14.398438 6.9375 14.398438 6.777344 14.324219 6.632812 14.210938 6.535156ZM9.109375 8.644531 8.785156 11.285156 8.78125 11.332031C8.777344 11.46875 8.8125 11.597656 8.875 11.707031L4.316406 10.003906C4.371094 9.988281 4.421875 9.972656 4.464844 9.949219L6.996094 8.824219C7.175781 8.730469 7.3125 8.558594 7.359375 8.355469L7.351562 7.105469ZM9.109375 8.644531" fill="#FFFFFF"/></svg>