<svg version="1.1" xmlns="http://www.w3.org/2000/svg" xlink="http://www.w3.org/1999/xlink" x="0px" y="0px" width="15px" height="15px" viewBox="0 0 15 15" style="enable-background:new 0 0 15 15;" space="preserve"><path d="M6.207031,3.71875C6.800781,3.71875,7.28125,3.222656,7.28125,2.605469C7.28125,1.996094,6.800781,1.5,6.207031,1.5C5.613281,1.5,5.128906,1.996094,5.128906,2.605469C5.128906,3.222656,5.613281,3.71875,6.207031,3.71875ZM7.472656,12.601562L12.589844,12.601562C12.589844,12.601562,12.921875,12.660156,13.578125,12.117188L14.699219,11.273438L14.699219,12.269531L13.554688,13.148438C13.554688,13.148438,13.214844,13.433594,12.644531,13.5L7.042969,13.5ZM0.34375,13.5L5.464844,13.5L5.890625,12.601562L0.726562,12.601562L0.300781,13.5ZM6.746094,5.105469C6.746094,4.472656,6.21875,3.957031,5.625,3.957031C5.03125,3.957031,4.5,4.472656,4.5,5.105469L4.5,7.914062C4.5,8.269531,4.761719,8.699219,5,8.699219L2.59375,8.699219L1.292969,11.273438C1.265625,11.332031,1.253906,11.453125,1.253906,11.523438C1.25,11.753906,1.585938,12,1.800781,12L10.5,12C10.5,12,10.894531,12.035156,11.464844,11.554688L13.769531,9.730469L12.898438,8.101562C12.898438,8.101562,12.703125,7.703125,11.96875,7.585938L10.230469,7.269531L9.296875,5.605469L9.257812,5.589844C9.121094,5.425781,9,5.40625,8.699219,5.546875L8.699219,5.550781C8.699219,5.660156,8.546875,5.835938,8.605469,5.992188L9.300781,7.226562L9.300781,7.234375L8.390625,8.8125L6.601562,8.097656L6.601562,7.5L8.125,7.5C8.195312,7.5,8.261719,7.445312,8.328125,7.414062C8.59375,7.308594,8.722656,6.96875,8.621094,6.691406C8.546875,6.472656,8.355469,6.332031,8.15625,6.328125L6.746094,6.320312L6.746094,5.105469" fill="#FFFFFF"/></svg>