<svg version="1.1" xmlns="http://www.w3.org/2000/svg" xlink="http://www.w3.org/1999/xlink" x="0px" y="0px" width="15px" height="15px" viewBox="0 0 15 15" style="enable-background:new 0 0 15 15;" space="preserve">
    <path d="M10.390625,11.34375L10.359375,11.277344L10.375,11.253906L10.394531,11.230469C10.707031,11.097656,10.996094,10.9375,11.25,10.746094C11.507812,10.554688,11.679688,10.273438,11.765625,9.90625L11.832031,9.609375L11.832031,1.953125C11.832031,1.765625,11.777344,1.574219,11.667969,1.378906C11.558594,1.183594,11.421875,1.003906,11.257812,0.847656C11.09375,0.691406,10.914062,0.558594,10.710938,0.453125C10.507812,0.351562,10.316406,0.300781,10.128906,0.300781L4.648438,0.300781C4.476562,0.300781,4.285156,0.347656,4.085938,0.445312C3.882812,0.542969,3.695312,0.671875,3.527344,0.824219C3.359375,0.976562,3.21875,1.148438,3.109375,1.335938C3,1.53125,2.945312,1.71875,2.945312,1.902344L2.945312,9.675781C2.945312,9.804688,2.980469,9.941406,3.046875,10.082031C3.109375,10.226562,3.191406,10.359375,3.289062,10.484375C3.386719,10.609375,3.496094,10.726562,3.609375,10.828125C3.726562,10.929688,3.835938,11.015625,3.945312,11.082031C4,11.101562,4.09375,11.136719,4.234375,11.179688C4.367188,11.222656,4.429688,11.257812,4.421875,11.277344L2.175781,14.679688L3.484375,14.679688L5.121094,12.308594L9.640625,12.308594L11.273438,14.679688L12.601562,14.679688ZM6.089844,0.953125C6.089844,0.898438,6.113281,0.84375,6.171875,0.78125C6.222656,0.722656,6.277344,0.691406,6.332031,0.691406L8.429688,0.691406C8.449219,0.691406,8.496094,0.714844,8.558594,0.757812C8.625,0.800781,8.65625,0.84375,8.65625,0.886719L8.65625,1.6875C8.65625,1.742188,8.628906,1.792969,8.574219,1.835938C8.519531,1.882812,8.46875,1.902344,8.429688,1.902344L6.316406,1.902344L6.25,1.851562C6.21875,1.832031,6.183594,1.800781,6.144531,1.761719C6.105469,1.726562,6.089844,1.683594,6.089844,1.640625ZM3.976562,3.195312C3.976562,3.085938,4.003906,2.980469,4.050781,2.875C4.101562,2.773438,4.164062,2.675781,4.238281,2.589844C4.316406,2.5,4.40625,2.433594,4.507812,2.378906C4.613281,2.324219,4.71875,2.296875,4.828125,2.296875L9.917969,2.296875C10.015625,2.296875,10.113281,2.320312,10.210938,2.359375C10.308594,2.402344,10.398438,2.464844,10.480469,2.539062C10.5625,2.617188,10.628906,2.699219,10.679688,2.785156C10.726562,2.871094,10.75,2.964844,10.75,3.0625L10.75,4.796875C10.75,4.898438,10.722656,4.988281,10.667969,5.082031C10.613281,5.179688,10.542969,5.261719,10.457031,5.332031C10.367188,5.402344,10.277344,5.460938,10.179688,5.5C10.082031,5.546875,9.984375,5.566406,9.886719,5.566406L4.863281,5.566406L4.777344,5.550781C4.734375,5.539062,4.703125,5.53125,4.679688,5.519531C4.496094,5.488281,4.332031,5.386719,4.191406,5.222656C4.046875,5.058594,3.976562,4.878906,3.976562,4.683594ZM5.492188,9.953125C5.324219,10.128906,5.113281,10.214844,4.863281,10.214844C4.609375,10.214844,4.40625,10.128906,4.246094,9.953125C4.089844,9.777344,4.011719,9.566406,4.011719,9.3125C4.011719,9.085938,4.09375,8.886719,4.257812,8.71875C4.417969,8.546875,4.621094,8.460938,4.863281,8.460938C5.113281,8.460938,5.324219,8.542969,5.492188,8.699219C5.660156,8.859375,5.746094,9.066406,5.746094,9.332031C5.746094,9.570312,5.660156,9.777344,5.492188,9.953125ZM9.238281,9.953125C9.070312,9.777344,8.984375,9.566406,8.984375,9.3125C8.984375,9.0625,9.074219,8.859375,9.253906,8.699219C9.433594,8.542969,9.644531,8.460938,9.886719,8.460938C10.132812,8.460938,10.339844,8.546875,10.5,8.71875C10.65625,8.886719,10.734375,9.085938,10.734375,9.3125C10.734375,9.566406,10.652344,9.777344,10.488281,9.953125C10.324219,10.128906,10.121094,10.214844,9.867188,10.214844C9.617188,10.214844,9.40625,10.128906,9.238281,9.953125ZM9.238281,9.953125" fill="#FFFFFF"/>
    </svg>