<svg version="1.1" xmlns="http://www.w3.org/2000/svg" xlink="http://www.w3.org/1999/xlink" x="0px" y="0px" width="15px" height="15px" viewBox="0 0 15 15" style="enable-background:new 0 0 15 15;" space="preserve"><path d="M1.742188,7.261719C1.4375,7.261719,1.191406,7.511719,1.191406,7.8125C1.191406,8.117188,1.441406,8.359375,1.742188,8.359375C2.046875,8.359375,2.289062,8.117188,2.289062,7.8125C2.289062,7.511719,2.046875,7.261719,1.742188,7.261719ZM9.390625,2.683594C10.046875,2.683594,10.582031,2.152344,10.582031,1.496094C10.582031,0.835938,10.046875,0.300781,9.390625,0.300781C8.726562,0.300781,8.191406,0.835938,8.191406,1.496094C8.191406,2.152344,8.726562,2.683594,9.390625,2.683594ZM14.527344,13.308594L12.585938,11.019531C12.585938,11.019531,11.976562,7.488281,11.976562,7.480469L11.886719,7.082031C11.890625,7.085938,11.644531,5.964844,11.453125,5.09375C11.757812,5.265625,12.03125,5.425781,12.042969,5.429688C12.058594,5.464844,13.074219,7.390625,13.074219,7.390625C13.152344,7.53125,13.28125,7.636719,13.433594,7.683594C13.589844,7.734375,13.753906,7.71875,13.898438,7.640625C14.039062,7.570312,14.144531,7.441406,14.191406,7.285156C14.246094,7.132812,14.226562,6.96875,14.152344,6.828125L13.039062,4.710938C13.039062,4.710938,12.996094,4.632812,12.9375,4.574219C12.855469,4.496094,12.679688,4.398438,12.679688,4.398438L10.519531,3.167969C10.242188,3.03125,9.941406,2.984375,9.636719,3.050781C9.511719,3.074219,9.398438,3.121094,9.265625,3.195312C9.25,3.199219,8.773438,3.410156,8.496094,4.058594L7.382812,6.289062L5.632812,6.625L5.59375,6.640625L4.015625,5.527344C3.660156,5.277344,3.617188,4.535156,3.613281,4.507812C3.570312,3.996094,3.277344,3.515625,2.808594,3.183594C2.386719,2.886719,1.875,2.757812,1.40625,2.835938C1.039062,2.898438,0.730469,3.085938,0.535156,3.363281C0.378906,3.578125,0.300781,3.835938,0.300781,4.113281L0.320312,4.355469C0.402344,4.824219,0.691406,5.261719,1.113281,5.5625C1.542969,5.863281,2.050781,5.992188,2.515625,5.914062L2.628906,5.890625C2.636719,5.882812,3.339844,5.667969,3.683594,5.902344C3.683594,5.90625,4.863281,6.734375,5.179688,6.957031C5.144531,7.007812,5.085938,7.121094,5.089844,7.238281C5.089844,7.273438,5.09375,7.3125,5.101562,7.347656C5.164062,7.675781,5.484375,7.894531,5.8125,7.828125L7.910156,7.417969C7.910156,7.417969,8.089844,7.367188,8.167969,7.308594C8.265625,7.242188,8.339844,7.097656,8.339844,7.097656L8.890625,5.988281C8.890625,5.988281,9.269531,7.777344,9.277344,7.808594C9.234375,7.851562,7.554688,9.625,7.554688,9.625L7.492188,9.664062C7.328125,9.8125,7.199219,10.007812,7.199219,10.21875L7.199219,13.972656C7.199219,14.375,7.550781,14.699219,7.953125,14.699219C8.351562,14.699219,8.699219,14.375,8.699219,13.972656L8.699219,10.835938C9,10.675781,10.152344,9.324219,10.496094,8.96875C10.535156,9.179688,10.871094,11.082031,10.871094,11.082031C10.902344,11.25,10.984375,11.402344,11.105469,11.527344C11.105469,11.53125,13.414062,14.25,13.414062,14.25C13.542969,14.394531,13.71875,14.484375,13.914062,14.503906C14.105469,14.519531,14.292969,14.457031,14.445312,14.332031C14.613281,14.191406,14.699219,13.984375,14.699219,13.777344C14.699219,13.609375,14.644531,13.445312,14.527344,13.308594ZM3.007812,5.113281C2.878906,5.292969,2.683594,5.410156,2.4375,5.453125C2.09375,5.511719,1.710938,5.414062,1.390625,5.179688C1.0625,4.949219,0.84375,4.621094,0.785156,4.28125L0.769531,4.109375C0.769531,3.929688,0.820312,3.769531,0.917969,3.632812C1.234375,3.1875,1.960938,3.160156,2.539062,3.566406C3.113281,3.976562,3.324219,4.671875,3.007812,5.113281ZM3.007812,5.113281" fill="#FFFFFF"/></svg>