<svg version="1.1" xmlns="http://www.w3.org/2000/svg" xlink="http://www.w3.org/1999/xlink" x="0px" y="0px" width="15px" height="15px" viewBox="0 0 15 15" style="enable-background:new 0 0 15 15;" space="preserve">
    <path d="M8.101562,1.386719C8.101562,2.070312,7.546875,2.625,6.863281,2.625C6.179688,2.625,5.625,2.070312,5.625,1.386719C5.625,0.703125,6.179688,0.148438,6.863281,0.148438C7.546875,0.148438,8.101562,0.703125,8.101562,1.386719ZM8.101562,1.386719" fill="#FFFFFF"/> <path d="M6.601562,3L5.699219,3C4.855469,3,4.199219,3.515625,4.199219,4.375L4.199219,8.101562C4.199219,8.699219,5.101562,8.699219,5.101562,8.101562L5.101562,4.5L5.398438,4.5L5.398438,14.101562C5.398438,14.46875,5.628906,14.699219,6,14.699219C6.371094,14.699219,6.601562,14.46875,6.601562,14.101562ZM10.5,7.5L9.292969,4.394531C9.191406,3.695312,8.488281,3,7.683594,3L6.898438,3L6.898438,10.136719C7.050781,10.136719,7.199219,10.15625,7.199219,10.199219L7.199219,14.101562C7.199219,14.410156,7.476562,14.699219,7.800781,14.699219C8.125,14.699219,8.398438,14.410156,8.398438,14.101562L8.398438,10.199219L9.5625,10.199219C9.667969,10.199219,9.875,10.003906,9.875,9.898438C9.875,9.875,9.882812,9.621094,9.875,9.601562L8.101562,4.730469L8.089844,4.679688C8.089844,4.609375,8.152344,4.550781,8.226562,4.550781C8.289062,4.550781,8.339844,4.59375,8.355469,4.648438L9.5625,7.800781C9.640625,7.980469,9.96875,8.101562,10.1875,8.101562C10.476562,8.101562,10.507812,7.53125,10.5,7.5ZM10.5,7.5" fill="#FFFFFF"/>
    </svg>