<svg version="1.1" xmlns="http://www.w3.org/2000/svg" xlink="http://www.w3.org/1999/xlink" x="0px" y="0px" width="15px" height="15px" viewBox="0 0 15 15" style="enable-background:new 0 0 15 15;" space="preserve"><path d="M5.035156,2.699219C5.699219,2.699219,6.234375,2.160156,6.234375,1.5C6.234375,0.835938,5.699219,0.300781,5.035156,0.300781C4.375,0.300781,3.835938,0.835938,3.835938,1.5C3.835938,2.160156,4.375,2.699219,5.035156,2.699219ZM5.882812,13.703125C3.839844,13.703125,2.179688,12.023438,2.179688,9.941406C2.179688,8.800781,2.6875,7.785156,3.476562,7.09375L3.414062,5.917969C2.089844,6.757812,1.199219,8.238281,1.199219,9.941406C1.199219,12.566406,3.292969,14.699219,5.882812,14.699219C7.785156,14.699219,9.46875,13.359375,10.199219,11.699219L9.488281,10.71875C9.136719,12.417969,7.660156,13.703125,5.882812,13.703125ZM13.199219,11.398438L12.601562,11.398438L10.199219,8.101562C10.070312,7.871094,9.601562,7.199219,9,7.199219L6.300781,7.199219L6.300781,6L8.699219,6C9.011719,6,9.347656,5.867188,9.347656,5.546875C9.347656,5.230469,9.019531,5.101562,8.699219,5.101562L6.300781,5.101562L6.300781,3.898438C6.257812,3.234375,5.699219,3,5.101562,3.015625C4.5,3.027344,4.199219,3.300781,4.199219,3.898438L4.199219,8.101562C4.257812,8.773438,4.742188,9,5.398438,9L9,9L11.101562,11.699219C11.234375,11.921875,11.699219,12.601562,11.699219,12.601562L13.199219,12.601562C13.507812,12.601562,13.800781,12.320312,13.800781,12C13.800781,11.683594,13.519531,11.398438,13.199219,11.398438ZM13.199219,11.398438" fill="#FFFFFF"/></svg>