<svg version="1.1" xmlns="http://www.w3.org/2000/svg" xlink="http://www.w3.org/1999/xlink" x="0px" y="0px" width="15px" height="15px" viewBox="0 0 15 15" style="enable-background:new 0 0 15 15;" space="preserve"><path d="M14.398438,14.699219C14.097656,14.699219,13.808594,14.632812,13.550781,14.511719C13.28125,14.390625,12.984375,14.316406,12.675781,14.316406C12.363281,14.316406,12.0625,14.390625,11.800781,14.511719C11.542969,14.632812,11.25,14.699219,10.949219,14.699219C10.648438,14.699219,10.355469,14.632812,10.097656,14.511719C9.832031,14.390625,9.535156,14.316406,9.222656,14.316406C8.914062,14.316406,8.613281,14.390625,8.347656,14.511719C8.089844,14.632812,7.800781,14.699219,7.496094,14.699219C7.195312,14.699219,6.90625,14.632812,6.648438,14.511719C6.382812,14.390625,6.085938,14.316406,5.773438,14.316406C5.464844,14.316406,5.164062,14.390625,4.898438,14.511719C4.640625,14.632812,4.351562,14.699219,4.050781,14.699219C3.746094,14.699219,3.457031,14.632812,3.199219,14.511719C2.9375,14.390625,2.636719,14.316406,2.324219,14.316406C2.015625,14.316406,1.71875,14.390625,1.449219,14.511719C1.191406,14.632812,0.902344,14.699219,0.601562,14.699219L0.601562,13.417969C0.902344,13.417969,1.191406,13.347656,1.449219,13.230469C1.71875,13.109375,2.015625,13.035156,2.324219,13.035156C2.636719,13.035156,2.9375,13.109375,3.199219,13.230469C3.457031,13.347656,3.746094,13.417969,4.050781,13.417969C4.351562,13.417969,4.636719,13.347656,4.898438,13.230469C5.164062,13.109375,5.464844,13.035156,5.773438,13.035156C6.085938,13.035156,6.382812,13.109375,6.648438,13.230469C6.90625,13.347656,7.195312,13.417969,7.496094,13.417969C7.800781,13.417969,8.089844,13.347656,8.347656,13.230469C8.613281,13.109375,8.914062,13.035156,9.222656,13.035156C9.535156,13.035156,9.832031,13.109375,10.097656,13.230469C10.355469,13.347656,10.648438,13.417969,10.949219,13.417969C11.25,13.417969,11.542969,13.347656,11.800781,13.230469C12.0625,13.109375,12.363281,13.035156,12.675781,13.035156C12.984375,13.035156,13.28125,13.109375,13.550781,13.230469C13.808594,13.347656,14.097656,13.417969,14.398438,13.417969ZM8.828125,12.050781C8.957031,12.023438,9.089844,12.007812,9.222656,12.007812C9.535156,12.007812,9.832031,12.082031,10.097656,12.203125C10.355469,12.320312,10.648438,12.390625,10.949219,12.390625C11.25,12.390625,11.542969,12.320312,11.800781,12.203125C11.980469,12.121094,12.175781,12.054688,12.386719,12.027344C12.273438,8.585938,8.707031,5.515625,8.539062,5.355469C8.363281,5.195312,8.203125,4.847656,8.316406,4.433594L9.167969,1.597656C9.316406,1.160156,9.242188,0.570312,9.035156,0.394531C8.914062,0.296875,8.660156,0.230469,8.488281,0.425781L6.183594,3.058594C5.675781,3.597656,6.097656,4.175781,6.089844,4.171875C5.304688,3.886719,4.386719,4.078125,3.828125,4.308594L1.921875,5.28125C1.734375,5.363281,1.652344,5.605469,1.75,5.765625C2.066406,6.273438,3.117188,6.277344,5.300781,6.039062C8.828125,5.660156,8.832031,11.347656,8.828125,12.050781ZM8.828125,12.050781" fill="#FFFFFF"/></svg>