<svg version="1.1" xmlns="http://www.w3.org/2000/svg" xlink="http://www.w3.org/1999/xlink" x="0px" y="0px" width="15px" height="15px" viewBox="0 0 15 15" style="enable-background:new 0 0 15 15;" space="preserve"><path d="M14.398438,14.699219C14.101562,14.699219,13.808594,14.632812,13.550781,14.515625C13.285156,14.394531,12.988281,14.324219,12.675781,14.324219C12.367188,14.324219,12.066406,14.394531,11.800781,14.515625C11.542969,14.632812,11.253906,14.699219,10.949219,14.699219C10.648438,14.699219,10.359375,14.632812,10.101562,14.515625C9.835938,14.394531,9.535156,14.324219,9.222656,14.324219C8.914062,14.324219,8.617188,14.394531,8.351562,14.515625C8.09375,14.632812,7.800781,14.699219,7.5,14.699219C7.199219,14.699219,6.910156,14.632812,6.652344,14.515625C6.382812,14.394531,6.085938,14.324219,5.773438,14.324219C5.464844,14.324219,5.167969,14.394531,4.902344,14.515625C4.640625,14.632812,4.351562,14.699219,4.050781,14.699219C3.746094,14.699219,3.457031,14.632812,3.199219,14.515625C2.933594,14.394531,2.636719,14.324219,2.324219,14.324219C2.011719,14.324219,1.714844,14.394531,1.449219,14.515625C1.191406,14.632812,0.902344,14.699219,0.601562,14.699219L0.601562,13.445312C0.902344,13.445312,1.191406,13.378906,1.449219,13.261719C1.714844,13.144531,2.011719,13.074219,2.324219,13.074219C2.636719,13.074219,2.933594,13.144531,3.199219,13.261719C3.457031,13.378906,3.746094,13.445312,4.050781,13.445312C4.351562,13.445312,4.640625,13.378906,4.898438,13.261719C5.167969,13.144531,5.464844,13.074219,5.773438,13.074219C6.085938,13.074219,6.382812,13.144531,6.652344,13.261719C6.90625,13.378906,7.199219,13.445312,7.5,13.445312C7.800781,13.445312,8.089844,13.378906,8.347656,13.261719C8.617188,13.144531,8.914062,13.074219,9.222656,13.074219C9.535156,13.074219,9.835938,13.144531,10.101562,13.261719C10.359375,13.378906,10.648438,13.445312,10.949219,13.445312C11.25,13.445312,11.539062,13.378906,11.800781,13.261719C12.066406,13.144531,12.363281,13.074219,12.675781,13.074219C12.988281,13.074219,13.285156,13.144531,13.550781,13.261719C13.808594,13.378906,14.101562,13.445312,14.398438,13.445312ZM2.082031,7.445312C2.542969,7.445312,2.917969,7.074219,2.917969,6.621094C2.917969,6.167969,2.542969,5.800781,2.082031,5.800781C1.621094,5.800781,1.246094,6.167969,1.246094,6.621094C1.246094,7.074219,1.621094,7.445312,2.082031,7.445312ZM5.753906,11.101562L3.363281,11.101562C3.011719,11.101562,2.707031,10.929688,2.570312,10.632812L1.683594,8.667969C1.667969,8.597656,1.660156,8.539062,1.660156,8.46875C1.660156,7.992188,2.050781,7.613281,2.53125,7.613281L4.476562,7.609375L5.808594,7.015625C5.828125,7.003906,5.882812,6.992188,5.941406,6.992188C6.171875,6.992188,6.359375,7.175781,6.359375,7.398438C6.359375,7.539062,6.285156,7.664062,6.179688,7.738281L4.730469,8.347656C4.632812,8.421875,4.453125,8.398438,4.453125,8.398438L3.578125,8.398438L4.3125,10.199219L5.925781,10.199219C6.085938,10.199219,6.199219,10.1875,6.296875,10.269531L7.882812,11.71875C8.101562,11.921875,8.113281,12.246094,7.910156,12.464844C7.699219,12.679688,7.355469,12.648438,7.132812,12.445312ZM13.207031,8.484375C13.238281,8.535156,13.3125,8.554688,13.382812,8.554688C13.515625,8.554688,13.625,8.449219,13.625,8.3125C13.625,8.25,13.59375,8.191406,13.566406,8.136719C12.070312,5.332031,8.035156,6.164062,7.539062,6.347656C7.457031,6.378906,7.410156,6.46875,7.410156,6.5625C7.410156,6.691406,7.519531,6.800781,7.652344,6.800781C7.695312,6.800781,7.714844,6.796875,7.75,6.789062C11.710938,5.914062,13,8.128906,13.207031,8.484375ZM13.894531,8.738281L8.835938,11.878906L4.226562,0.300781C8.351562,0.835938,13.59375,3.988281,13.894531,8.738281ZM13.894531,8.738281" fill="#FFFFFF"/></svg>