<svg version="1.1" xmlns="http://www.w3.org/2000/svg" xlink="http://www.w3.org/1999/xlink" x="0px" y="0px" width="15px" height="15px" viewBox="0 0 15 15" style="enable-background:new 0 0 15 15;" space="preserve">
    <path d="M10.699219,8.863281C11.195312,8.039062,11.488281,7.078125,11.488281,6.046875C11.488281,3.039062,9.054688,0.601562,6.042969,0.601562C3.039062,0.601562,0.601562,3.039062,0.601562,6.046875C0.601562,9.050781,3.039062,11.488281,6.046875,11.488281C7.078125,11.488281,8.039062,11.195312,8.859375,10.699219L12.5625,14.398438L14.398438,12.5625ZM6.046875,9.414062C4.183594,9.410156,2.679688,7.90625,2.675781,6.050781C2.679688,4.1875,4.183594,2.683594,6.046875,2.679688C7.90625,2.683594,9.410156,4.1875,9.414062,6.050781C9.410156,7.902344,7.902344,9.410156,6.046875,9.414062ZM8.398438,5.398438L6.601562,5.398438L6.601562,3.601562L5.398438,3.601562L5.398438,5.398438L3.601562,5.398438L3.601562,6.601562L5.398438,6.601562L5.398438,8.398438L6.601562,8.398438L6.601562,6.601562L8.398438,6.601562ZM8.398438,5.398438" fill="#FFFFFF"/>
    </svg>