<svg version="1.1" xmlns="http://www.w3.org/2000/svg" xlink="http://www.w3.org/1999/xlink" x="0px" y="0px" width="15px" height="15px" viewBox="0 0 15 15" style="enable-background:new 0 0 15 15;" space="preserve"><path d="m4.6239407,9.4067797h0.3515625v0.4608051c0,0.2545952,0.2097656,0.4608052,0.46875,0.4608052h1.171875c0.2589844,0,0.46875,-0.20621,0.46875,-0.4608052V9.4067797h0.3515625c0.5176758,0,0.9375,-0.4127086,0.9375,-0.9216102V2.0338983c0,-0.5089016,-0.4198242,-0.9216101,-0.9375,-0.9216101V0.65148305c0,-0.25459481,-0.2097656,-0.46080508,-0.46875,-0.46080508h-1.875c-0.2589844,0,-0.46875,0.20621027,-0.46875,0.46080508V1.1122882c-0.5176758,0,-0.9375,0.4127085,-0.9375,0.9216101v6.4512712c0,0.5089016,0.4198242,0.9216102,0.9375,0.9216102zm8.9062503,3.6864413h-0.03779c0.894431,-0.979499,1.44404,-2.269465,1.44404,-3.6864413c0,-3.0493777,-2.523047,-5.529661,-5.6250003,-5.529661V5.720339c2.0677733,0,3.7500003,1.6537143,3.7500003,3.6864407c0,2.0327263,-1.682227,3.6864413,-3.7500003,3.6864413h-7.96875c-0.77666018,0,-1.40625002,0.618918,-1.40625002,1.382415c0,0.254595,0.20976563,0.460805,0.46875,0.460805H14.467691c0.258984,0,0.46875,-0.20621,0.46875,-0.460805c0,-0.763497,-0.62959,-1.382415,-1.40625,-1.382415zM2.9833157,12.17161h6.09375c0.1294922,0,0.234375,-0.103105,0.234375,-0.230402V11.480403C9.3114407,11.353105,9.2065579,11.25,9.0770657,11.25h-6.09375c-0.1294922,0,-0.234375,0.103105,-0.234375,0.230403v0.460805c0,0.127297,0.1048828,0.230402,0.234375,0.230402z" fill="#FFFFFF"/></svg>