<svg version="1.1" xmlns="http://www.w3.org/2000/svg" xlink="http://www.w3.org/1999/xlink" x="0px" y="0px" width="15px" height="20px" viewBox="0 0 15 20" style="enable-background:new 0 0 15 15;" space="preserve">
    <path d="M14.375,17.5H0.625c-0.3453125,0,-0.625,0.2796875,-0.625,0.625v1.25c0,0.3453125,0.2796875,0.625,0.625,0.625h13.75c0.3453125,0,0.625,-0.2796875,0.625,-0.625v-1.25c0,-0.3453125,-0.2796875,-0.625,-0.625,-0.625zm-3.08046875,-13.56484375a1.248828125,1.248828125,0,0,0,-0.35976562500000003,-0.759375L7.941796875,0.18320312500000002c-0.244140625,-0.244140625,-0.6398437499999999,-0.244140625,-0.8839843749999999,0l-2.9921875,2.992578125a1.248828125,1.248828125,0,0,0,-0.35976562500000003,0.759375L2.5,16.25h10l-1.20546875,-12.31484375zM9.375,12c0,0.25,-0.25,0.5,-0.5,0.5h-2.75c-0.25,0,-0.5,-0.25,-0.5,-0.5v-1.5c0,-0.25,0.25,-0.5,0.5,-0.5h2.75c0.25,0,0.5,0.25,0.5,0.5v1.5z" fill="#FFFFFF"/>
    </svg>