<svg version="1.1" xmlns="http://www.w3.org/2000/svg" xlink="http://www.w3.org/1999/xlink" x="0px" y="0px" width="11.25px" height="15px" viewBox="0 0 11.25 15" style="enable-background:new 0 0 15 15;" space="preserve"><path d="M10.78125,13.125H0.46875c-0.25898437500000004,0,-0.46875,0.20976562499999998,-0.46875,0.46875v0.9375c0,0.25898437500000004,0.20976562499999998,0.46875,0.46875,0.46875h10.3125c0.25898437500000004,0,0.46875,-0.20976562499999998,0.46875,-0.46875v-0.9375c0,-0.25898437500000004,-0.20976562499999998,-0.46875,-0.46875,-0.46875zm-2.3103515625,-10.1736328125a0.9366210937499999,0.9366210937499999,0,0,0,-0.26982421875,-0.56953125L5.956347656249999,0.13740234375000002c-0.18310546875,-0.18310546875,-0.4798828125,-0.18310546875,-0.66298828125,0l-2.244140625,2.24443359375a0.9366210937499999,0.9366210937499999,0,0,0,-0.26982421875,0.56953125L1.875,12.1875h7.5l-0.9041015625000001,-9.2361328125zM7.03125,9c0,0.1875,-0.1875,0.375,-0.375,0.375h-2.0625c-0.1875,0,-0.375,-0.1875,-0.375,-0.375v-1.125c0,-0.1875,0.1875,-0.375,0.375,-0.375h2.0625c0.1875,0,0.375,0.1875,0.375,0.375v1.125z" fill="#FFFFFF"/></svg>