<svg version="1.1" xmlns="http://www.w3.org/2000/svg" xlink="http://www.w3.org/1999/xlink" x="0px" y="0px" width="15px" height="15px" viewBox="0 0 15 15" style="enable-background:new 0 0 15 15;" space="preserve"><path d="M14.6935546875,1.78447265625c0.5044921874999999,-0.5044921874999999,0.36650390625,-1.35498046875,-0.27158203124999997,-1.6740234375a1.0457812499999999,1.0457812499999999,0,0,0,-1.09482421875,0.09873046875000001L7.35615234375,4.6875h4.43466796875l2.902734375,-2.9030273437500003zM14.53125,5.625H0.46875c-0.258984375,0,-0.46875,0.209765625,-0.46875,0.46875v0.9375c0,0.258984375,0.209765625,0.46875,0.46875,0.46875h0.46875c0,2.3724609375,1.470703125,4.39775390625,3.5487304687499996,5.2242187499999995c-0.373828125,0.49423828125,-0.6363281249999999,1.078125,-0.73095703125,1.7194335937499998c-0.0427734375,0.290625,0.176953125,0.5560546875,0.47080078125,0.5560546875h6.5478515625c0.29384765625,0,0.5135742187500001,-0.2654296875,0.47080078125,-0.5560546875c-0.09433593750000001,-0.64130859375,-0.3568359375,-1.2251953125,-0.73095703125,-1.7194335937499998C12.591796875,11.897753906250001,14.0625,9.872460937500001,14.0625,7.5h0.46875c0.258984375,0,0.46875,-0.209765625,0.46875,-0.46875v-0.9375c0,-0.258984375,-0.209765625,-0.46875,-0.46875,-0.46875z" fill="#FFFFFF"/></svg>