<svg version="1.1" xmlns="http://www.w3.org/2000/svg" xlink="http://www.w3.org/1999/xlink" x="0px" y="0px" width="12px" height="15px" viewBox="0 0 12 15" style="enable-background:new 0 0 15 15;" space="preserve">
    <path d="M0,11.393008000000002C0,11.728181600000001,0.271818392,12,0.606991528,12H1.8209745600000002c0.33517312000000005,0,0.60699152,-0.2718184,0.60699152,-0.606992V5.323093200000001H0ZM10.985788,7.751059360000001c0.3387768,-0.32986200000000004,0.5470512000000001,-0.7082832800000001,0.5470512000000001,-1.11743352c0,-1.00267408,-0.7926936000000001,-1.7790541600000003,-1.6677096,-2.3312268C9.069591200000001,3.8003032,8.3357008,3.20658968,7.741418160000001,2.4772513600000003L7.58739408,2.2881356L7.43337,2.4772513600000003C6.839087360000001,3.20658968,6.105386320000001,3.8004929599999997,5.3096584,4.30239904C4.43464216,4.85457168,3.6419491200000005,5.63095176,3.6419491200000005,6.6336258400000006c0,0.40915024000000005,0.208274,0.7875715200000001,0.54705112,1.11743352zm0.5470512000000001,0.6069918400000001H3.6419491200000005c-0.33517312000000005,0,-0.60699152,0.2718184,-0.60699152,0.6069912000000001V11.393008000000002C3.0349576000000003,11.728181600000001,3.306776,12,3.6419491200000005,12h0.60699152v-1.2139832000000002c0,-0.3351736,0.2718184,-0.6069912000000001,0.6069916000000001,-0.6069912000000001c0.33517312000000005,0,0.60699152,0.27181760000000005,0.60699152,0.6069912000000001V12h1.21398304v-1.3657312c0,-0.9104872,0.9104872800000001,-1.3657304000000001,0.9104872800000001,-1.3657304000000001c0,0,0.9104875200000001,0.45524319999999996,0.9104875200000001,1.3657304000000001V12h1.2139832000000002v-1.2139832000000002c0,-0.3351736,0.27181760000000005,-0.6069912000000001,0.6069912000000001,-0.6069912000000001c0.33517280000000005,0,0.6069912000000001,0.27181760000000005,0.6069912000000001,0.6069912000000001V12h0.606992c0.33517280000000005,0,0.6069912000000001,-0.2718184,0.6069912000000001,-0.606992v-2.4279656000000003c0,-0.33517280000000005,-0.2718184,-0.6069912000000001,-0.6069912000000001,-0.6069912000000001zM1.21398304,2.2881356C1.21398304,2.2881356,0,2.89512712,0,4.10911016V4.71610168H2.42796608V4.10911016c0,-1.21398304,-1.21398304,-1.8209745600000002,-1.21398304,-1.8209745600000002z" fill="#FFFFFF"/>
    </svg>