<svg version="1.1" xmlns="http://www.w3.org/2000/svg" xlink="http://www.w3.org/1999/xlink" x="0px" y="0px" width="15px" height="15px" viewBox="0 0 15 15" style="enable-background:new 0 0 15 15;" space="preserve"><path d="M8.229797249999999,0.41200060714285713C7.61516475,1.0266331071428572,7.1184185357142855,1.9079072142857143,6.964285714285714,2.6785714285714284C6.8800503214285715,3.0997483928571428,6.842207142857142,4.098820607142857,6.830357142857142,4.586919642857143C7.053271178571428,4.717724571428572,7.2762699642857145,4.820907857142856,7.5,4.988705357142857C7.736940214285714,4.81100025,7.967154107142857,4.6897337142857145,8.203125,4.5534375C8.221912821428571,4.130542714285714,8.244003107142857,3.2442702857142858,8.303571428571429,2.946428571428571C8.417295750000001,2.3778070714285717,8.710501178571429,1.8062966785714285,9.167297249999999,1.3495006071428572zM0.5357142857142857,1.0714285714285714C1.1099095714285714,3.2142857142857144,3.593304107142857,4.285714285714286,5.892857142857142,3.2142857142857144C4.925054678571429,1.0714285714285714,3.2142857142857144,0.38793222857142856,0.5357142857142857,1.0714285714285714zM2.142857142857143,5.625C1.4845641428571428,6.315072642857143,1.0714285714285714,7.5,1.0714285714285714,8.571428571428571c0,2.142857142857143,2.142857142857143,5.892857142857142,4.285714285714286,5.892857142857142c0.6038135357142856,0,1.0714285714285714,-0.26785714285714285,2.142857142857143,-0.8035714285714286c1.0714285714285714,0.5357142857142857,1.539043607142857,0.8035714285714286,2.142857142857143,0.8035714285714286c2.142857142857143,0,4.285714285714286,-3.75,4.285714285714286,-5.892857142857142C13.928571428571429,7.5,13.578995357142857,6.315072642857143,12.857142857142858,5.625C11.76187607142857,4.577952321428571,9.642857142857142,4.553303571428571,7.5,6.160446428571428C5.357142857142857,4.645819821428572,3.2142857142857144,4.440640071428572,2.142857142857143,5.625z" fill="#FFFFFF"/></svg>