<svg version="1.1" xmlns="http://www.w3.org/2000/svg" xlink="http://www.w3.org/1999/xlink" x="0px" y="0px" width="15px" height="15px" viewBox="0 0 15 15" style="enable-background:new 0 0 15 15;" space="preserve"><path d="M0.42971412857142854,7.5C0.4158682285714285,6.428571428571429,2.142857142857143,4.285714285714286,4.285714285714286,4.285714285714286C5.357142857142857,4.319921892857143,6.428571428571429,5.9863170000000006,7.5,5.93500575C8.571428571428571,6.060433285714286,9.642857142857142,4.280013107142857,10.714285714285714,4.285714285714286C12.857142857142858,4.285714285714286,14.5408425,6.428571428571429,14.544100714285713,7.5C14.213427857142857,7.5,13.757126785714286,7.5,13.426453928571428,7.5C12.857142857142858,6.428571428571429,11.785714285714285,5.8793253214285714,10.714285714285714,5.83452975C9.642857142857142,5.948554821428571,8.571428571428571,7.505701178571428,7.5,7.5C6.428571428571429,7.528506214285714,5.357142857142857,6.0091486071428575,4.285714285714286,5.935032321428571C3.2142857142857144,5.905711607142857,2.142857142857143,6.428571428571429,1.6922124642857144,7.5C1.3216309285714285,7.5,0.8002956428571428,7.5,0.42971412857142854,7.5zM9.642857142857142,2.142857142857143C9.642857142857142,3.3263244642857144,8.683467321428571,4.285714285714286,7.5,4.285714285714286C6.316532678571428,4.285714285714286,5.357142857142857,3.3263244642857144,5.357142857142857,2.142857142857143C5.357142857142857,0.9593898214285714,6.316532678571428,0,7.5,0C8.482444714285714,0,9.33904339285714,0.6680847535714286,9.578327142857143,1.620944142857143M3.2142857142857144,13.928571428571429L1.0714285714285714,8.571428571428571C1.8426706071428571,8.725677,2.5571003571428568,9.53302157142857,3.2142857142857144,9.642857142857142C3.648326464285714,9.715398214285715,4.959175607142857,8.533071964285714,5.357142857142857,8.571428571428571C6.359583535714285,8.668044642857144,6.724327714285714,9.553893642857144,7.5,9.642857142857142C8.312081678571428,9.735996428571429,8.64612942857143,8.778046071428571,9.642857142857142,8.571428571428571c0.48136542857142856,-0.09978535714285713,1.4768421428571428,1.0143775714285714,2.142857142857143,1.0714285714285714c0.8228217857142857,0.07048285714285714,1.3413889285714284,-0.9111350357142857,2.142857142857143,-1.0714285714285714l-2.142857142857143,5.357142857142857c-1.0714285714285714,1.0714285714285714,-2.142857142857143,1.0714285714285714,-4.285714285714286,1.0714285714285714c-2.142857142857143,0,-3.2142857142857144,0,-4.285714285714286,-1.0714285714285714z" fill="#FFFFFF"/></svg>