<svg version="1.1" xmlns="http://www.w3.org/2000/svg" xlink="http://www.w3.org/1999/xlink" x="0px" y="0px" width="14.999999000000066px" height="15px" viewBox="0 0 14.999999000000066 15" style="enable-background:new 0 0 15 15;" space="preserve">
    <path d="M5,0C4,0,2.9999999999999996,0.46875,2,1.46875c-1,1,-2,2,-2,2.9999999999999996c0.66666667,0,1.3333333,0.37499999999999994,2,0.37499999999999994c1.5237901,0,1.9342025,-1.3092025,2.9999999999999996,-2.375C5.5389586,2.1175528,5.9898446,1.7619014,7.46875,1.9375C9.0284017,2.2709486,11.999999999999998,3.4600154,14,4.875C12.391103,3.2253627,10.510265,1.4108539,8,0.46875C7,-0.0261194,5.999999999999999,0,5,0Zm7.34375,5.15625l-4.03125,1.75C4.9738455,7.4535704,1.1352801,6.1709309,1.25,6.3125C1.294552,6.367479,1.331618,6.4143303,1.375,6.46875L1.375,6.5L0,10L2.59375,8L2.9999999999999996,11.999999999999998L4.96875,8.8125c0.1817584,0.031016999999999996,0.3580292,0.072019,0.5625,0.09374999999999999L7,11.999999999999998L8.09375,8.90625C8.430848,8.847145,8.7302067,8.734821,9.03125,8.625L11,11L11.03125,7.34375C11.08839,7.285104,11.133409,7.2170497,11.1875,7.15625L14,9L12.125,5.71875c0.07989,-0.1809565,0.15928,-0.3770034,0.21875,-0.5625z" fill="#FFFFFF"/>
    </svg>