<svg version="1.1" xmlns="http://www.w3.org/2000/svg" xlink="http://www.w3.org/1999/xlink" x="0px" y="0px" width="15px" height="15px" viewBox="0 0 15 15" style="enable-background:new 0 0 15 15;" space="preserve"><path d="M8.4375,0C7.733257500000001,0.46023571875,7.265625,1.263892125,7.265625,2.16796875c0,0.99768675,0.5771756250000001,1.8565371562500002,1.40625,2.28515625l0,7.265625c0,0.8228943750000001,0.48861187500000003,1.40625,1.171875,1.40625c0.6832621875,0,1.171875,-0.5657175,1.171875,-1.40625l0,-7.265625C11.844699375000001,4.02450590625,12.421875,3.1656555,12.421875,2.16796875C12.421875,1.263892125,11.9542425,0.46023571875,11.25,0L11.25,1.40625L9.84375,2.8125L8.4375,1.40625C8.4375,1.40625,8.4375,-0.00217753125,8.4375,0zM3.75,0C3.2320378124999998,0,2.8125,0.35667309375,2.8125,0.703125l-1.40625,0l-1.171875,1.640625l1.171875,1.640625l1.40625,0l0,7.96875C2.8125,12.595215,3.1657949999999997,13.125,3.75,13.125C4.334205,13.125,4.6875,12.629777812499999,4.6875,11.953125l0,-7.96875l1.875,0l0,-3.28125l-1.875,0C4.6875,0.34919709375,4.334205,0,3.75,0zm6.09375,11.25C10.102633125,11.25,10.3125,11.459866875,10.3125,11.71875C10.3125,11.977633125,10.102633125,12.1875,9.84375,12.1875C9.5848659375,12.1875,9.375,11.977633125,9.375,11.71875C9.375,11.459866875,9.5848659375,11.25,9.84375,11.25z" fill="#FFFFFF"/></svg>