<svg version="1.1" xmlns="http://www.w3.org/2000/svg" xlink="http://www.w3.org/1999/xlink" x="0px" y="0px" width="15px" height="15px" viewBox="0 0 15 15" style="enable-background:new 0 0 15 15;" space="preserve"><path d="M5.4161622,2.7823087L0.12711864,5.9557391c0,2.1156174,0.26445218,5.2890439,1.32226086,5.2890439h3.9667827c1.0578087,0,1.3222609,-3.7023309,1.3222609,-3.7023309c0.5469082,-0.2644521,1.0398048,-0.2644521,1.5867131,0c0,0,0.2644521,3.7023309,1.3222609,3.7023309h3.9667819c1.057809,0,1.322261,-3.1734265,1.322261,-5.2890439L9.6473971,2.7823087c-0.5062567,-0.2922873,-0.923192,0.7892554,0,1.3222651L12.820823,5.9557391H2.242736L5.4161622,4.1045738c0.9758285,-0.5634005,0.3860684,-1.5451602,0,-1.3222651zM1.4493795,7.278H5.4161622L4.8872578,9.9225218H1.9782839Zm8.1980176,0h3.9667819l-0.528904,2.6445218h-2.908974z" fill="#FFFFFF"/></svg>