<svg version="1.1" xmlns="http://www.w3.org/2000/svg" xlink="http://www.w3.org/1999/xlink" x="0px" y="0px" width="13.125px" height="15px" viewBox="0 0 13.125 15" style="enable-background:new 0 0 15 15;" space="preserve"><path d="M11.71875,0.9375H1.40625C0.6298828125,0.9375,0,1.5673828125,0,2.34375v10.3125c0,0.7763671875,0.6298828125,1.40625,1.40625,1.40625h10.3125c0.7763671875,0,1.40625,-0.6298828125,1.40625,-1.40625V2.34375c0,-0.7763671875,-0.6298828125,-1.40625,-1.40625,-1.40625zM7.031249999999999,9.375h-1.40625v1.40625c0,0.2578125,-0.2109375,0.46875,-0.46875,0.46875h-0.9375c-0.2578125,0,-0.46875,-0.2109375,-0.46875,-0.46875V4.21875c0,-0.2578125,0.2109375,-0.46875,0.46875,-0.46875h2.8125c1.5498046874999998,0,2.8125,1.2626953125,2.8125,2.8125s-1.2626953125,2.8125,-2.8125,2.8125zm0,-3.75h-1.40625v1.875h1.40625c0.515625,0,0.9375,-0.421875,0.9375,-0.9375s-0.421875,-0.9375,-0.9375,-0.9375z" fill="#FFFFFF"/></svg>