<svg version="1.1" xmlns="http://www.w3.org/2000/svg" xlink="http://www.w3.org/1999/xlink" x="0px" y="0px" width="14.999999px" height="15px" viewBox="0 0 14.999999 15" style="enable-background:new 0 0 15 15;" space="preserve"><path d="m2.6044846,10.904168c-0.1585494,0.284742,-0.2847427,0.713169,-0.2847427,0.983119c0,0.06268,0,0.142381,0.01553,0.252957L0.35370092,8.7323083C0.29027026,8.6217337,0.24303125,8.4630929,0.24303125,8.3201658c0,-0.1431172,0.0472401,-0.3170978,0.11066967,-0.4278592L1.3050097,6.2278268L0.24303125,5.6259656L3.6988454,5.5619928L5.3788492,8.5893812L4.3013444,7.9712608L2.6044909,10.904168ZM4.1266044,1.2985565C4.4275346,0.77491413,4.9193639,0.48960515,5.5212249,0.48960515c0.650381,0,1.1577613,0.30156795,1.5220949,0.91895605L7.582394,2.3119905L5.7114646,5.546469L2.6840765,3.7867515L4.1266044,1.2985565Zm0.221311,12.3476875c-0.9034291,0,-1.6483131,-0.744978,-1.6483131,-1.648385c0,-0.253689,0.1113072,-0.682093,0.2698566,-0.951309l0.5067186,-0.903429l3.7573821,0l0,3.503148l-2.8856442,0zM7.3604391,1.2027734C7.1229145,0.7911731,6.8058198,0.50513198,6.4252946,0.34648812l3.8991054,0c0.348807,0,0.618026,0.14311703,0.777236,0.41287779L12.068493,2.407749L13.114378,1.789062L11.433618,4.8014661L7.9946316,4.7530201L9.0566097,4.1511587L7.3604391,1.2027735ZM13.36871,10.174904c0.475003,0,0.871714,-0.126831,1.204359,-0.3799772l-1.966047,3.4234342c-0.158549,0.269218,-0.44329099999999994,0.427859,-0.776029,0.427859l-1.8554026,0l0,1.220527l-1.7751464,-2.963958l1.7751464,-2.9647174l0,1.2368104l3.3931196,0zm1.5208169999999999,-2.8533838c0.143022,0.2536917,0.222614,0.5229071,0.222614,0.8083814c0,0.5707864,-0.364999,1.1731931,-0.871717,1.4579597c-0.23814,0.1275903,-0.571449,0.2070869,-0.903429,0.2070869l-1.047093,0l-1.869722,-3.2344754l3.027484,-1.7279072l1.441863,2.4889546z" fill="#FFFFFF"/></svg>