<svg version="1.1" xmlns="http://www.w3.org/2000/svg" xlink="http://www.w3.org/1999/xlink" x="0px" y="0px" width="15px" height="15px" viewBox="0 0 15 15" style="enable-background:new 0 0 15 15;" space="preserve"><path d="M353.90625 315.9375c-.0129375.001875-.02578125.0046875-.0384375.0075-.0354375.0028125-.07050000000000001.00946875-.1043625.020156249999999997-.02071875.0065625-.040875.014531249999999999-.06046875.0238125-.0399375.019125000000000003-.076875.04378125-.10985625.07321875-.0065625.00375-.01228125.008437499999999999-.01828125.012843750000000001l-5.625 5.625-.9375.9375c-.0879375.0879375-.13730625000000002.2071125-.137325.331425v1.875c.000028125.258871875.20987812500000003.468721875.46875.46875h.179446875l-.5987625 1.19750625c-.0324375.064875-.0493125.13627499999999998-.04940625.20874375v1.875c0 .25888125.20986875.46875.46875.46875.25888125 0 .46875-.20986875.46875-.46875v-1.7651343750000001L348.570553125 325.3125h2.23389375L351.5625 326.828615625V328.59375c0 .25888125.20986875.46875.46875.46875.25888125 0 .46875-.20986875.46875-.46875v-1.875c-.000121875-.07246875-.0170625-.14391562500000002-.04940625-.20874375L351.851803125 325.3125H352.03125c.258871875-.000028125.468721875-.20987812500000003.46875-.46875v-1.875c-.000018750000000000002-.12431249999999999-.04940625-.243525-.137325-.331425l-.69946875-.699459375 2.155153125-4.31030625 1.51794375 4.552003125000001c.0046875.010593749999999999.010593749999999999.021.0165.031125.01134375.028124999999999997.0255.055125.04209375.08053125.009375.013312500000000001.01884375.026156250000000002.029249999999999998.0384375.0193125.02278125.04078125.04359375.064125.06225.011156250000000001.00965625.02278125.01884375.03478125.02746875.028218749999999997.01846875.05821875.033749999999999995.08971875.045750000000000006.0125625.005625.02540625.010312499999999999.0384375.014624999999999999.042187499999999996.01275.08596875000000001.01959375.130003125.020156249999999997.0009375.000009375000000000001.0028125.000009375000000000001.00375 0 .18940312499999998.001875.357703125.114065625.43029375.289303125.07303124999999999.176409375.0324375.375853125-.102534375.510871875-.13501875000000002.135009375-.3344625.175603125-.510871875.102534375C355.425403125 323.329640625 355.3125 323.159690625 355.3125 322.96875c0-.25888125-.20986875-.46875-.46875-.46875-.25888125 0-.46875.20986875-.46875.46875 0 .56743125.3436875 1.08290625.8679187500000001 1.30005.524240625.21714375 1.131365625.095446875 1.532596875-.305784375.40123125000000004-.40123125000000004.522928125-1.00835625.305784375-1.532596875-.17077499999999998-.412275-.5266968750000001-.712546875-.9466593750000001-.822140625l-1.78344375-5.350340624999999c-.0028125-.0046875-.0046875-.008437499999999999-.0075-.012843750000000001-.01340625-.03890625-.031875-.07584375-.0549375-.10985625-.0009375-.0009375-.0028125-.0028125-.00375-.00375-.014343749999999999-.020156249999999997-.030281250000000003-.039093750000000003-.047625-.05671875-.0065625-.0046875-.013312500000000001-.008437499999999999-.020156249999999997-.012843750000000001-.030375-.02746875-.06421875-.05090625-.10070625-.0695625-.01303125-.008437499999999999-.02653125-.015281249999999998-.040312499999999994-.021937500000000002-.04396875-.01725-.09028125-.02775-.137325-.031125-.005625.000515625-.010968750000000001.0009375-.0165.001875-.005625-.0009375-.010968750000000001-.0028125-.0165-.00375zm-1.71020625 2.841796875L350.804446875 321.5625h-1.39160625zM353.90625 315.9375c-.0129375.001875-.02578125.0046875-.0384375.0075-.0354375.0028125-.07050000000000001.00946875-.1043625.020156249999999997-.02071875.0065625-.040875.014531249999999999-.06046875.0238125-.0399375.019125000000000003-.076875.04378125-.10985625.07321875-.0065625.00375-.01228125.008437499999999999-.01828125.012843750000000001l-5.625 5.625-.9375.9375c-.0879375.0879375-.13730625000000002.2071125-.137325.331425v1.875c.000028125.258871875.20987812500000003.468721875.46875.46875h.179446875l-.5987625 1.19750625c-.0324375.064875-.0493125.13627499999999998-.04940625.20874375v1.875c0 .25888125.20986875.46875.46875.46875.25888125 0 .46875-.20986875.46875-.46875v-1.7651343750000001L348.570553125 325.3125h2.23389375L351.5625 326.828615625V328.59375c0 .25888125.20986875.46875.46875.46875.25888125 0 .46875-.20986875.46875-.46875v-1.875c-.000121875-.07246875-.0170625-.14391562500000002-.04940625-.20874375L351.851803125 325.3125H352.03125c.258871875-.000028125.468721875-.20987812500000003.46875-.46875v-1.875c-.000018750000000000002-.12431249999999999-.04940625-.243525-.137325-.331425l-.69946875-.699459375 2.155153125-4.31030625 1.51794375 4.552003125000001c.0046875.010593749999999999.010593749999999999.021.0165.031125.01134375.028124999999999997.0255.055125.04209375.08053125.009375.013312500000000001.01884375.026156250000000002.029249999999999998.0384375.0193125.02278125.04078125.04359375.064125.06225.011156250000000001.00965625.02278125.01884375.03478125.02746875.028218749999999997.01846875.05821875.033749999999999995.08971875.045750000000000006.0125625.005625.02540625.010312499999999999.0384375.014624999999999999.042187499999999996.01275.08596875000000001.01959375.130003125.020156249999999997.0009375.000009375000000000001.0028125.000009375000000000001.00375 0 .18940312499999998.001875.357703125.114065625.43029375.289303125.07303124999999999.176409375.0324375.375853125-.102534375.510871875-.13501875000000002.135009375-.3344625.175603125-.510871875.102534375C355.425403125 323.329640625 355.3125 323.159690625 355.3125 322.96875c0-.25888125-.20986875-.46875-.46875-.46875-.25888125 0-.46875.20986875-.46875.46875 0 .56743125.3436875 1.08290625.8679187500000001 1.30005.524240625.21714375 1.131365625.095446875 1.532596875-.305784375.40123125000000004-.40123125000000004.522928125-1.00835625.305784375-1.532596875-.17077499999999998-.412275-.5266968750000001-.712546875-.9466593750000001-.822140625l-1.78344375-5.350340624999999c-.0028125-.0046875-.0046875-.008437499999999999-.0075-.012843750000000001-.01340625-.03890625-.031875-.07584375-.0549375-.10985625-.0009375-.0009375-.0028125-.0028125-.00375-.00375-.014343749999999999-.020156249999999997-.030281250000000003-.039093750000000003-.047625-.05671875-.0065625-.0046875-.013312500000000001-.008437499999999999-.020156249999999997-.012843750000000001-.030375-.02746875-.06421875-.05090625-.10070625-.0695625-.01303125-.008437499999999999-.02653125-.015281249999999998-.040312499999999994-.021937500000000002-.04396875-.01725-.09028125-.02775-.137325-.031125-.005625.000515625-.010968750000000001.0009375-.0165.001875-.005625-.0009375-.010968750000000001-.0028125-.0165-.00375zm-1.71020625 2.841796875L350.804446875 321.5625h-1.39160625z" fill="#FFFFFF"/></svg>