<svg version="1.1" xmlns="http://www.w3.org/2000/svg" xlink="http://www.w3.org/1999/xlink" x="0px" y="0px" width="15px" height="15px" viewBox="0 0 15 15" style="enable-background:new 0 0 15 15;" space="preserve"><path d="M332.34375 316.875a.468796875.468796875 0 0 0-.459590625.37719375L331.77245625 317.8125H331.40625a.46875.46875 0 0 0-.46875.46875.46875.46875 0 0 0 .46875.46875h.177609375l-.6372 3.18969375a.468796875.468796875 0 0 0-.001875.0238125.46875.46875 0 0 0-.00375.031125A.468796875.468796875 0 0 0 330.9375 322.03125v4.6875a.46875.46875 0 0 0 .00375.01828125.46875.46875 0 0 0 .029249999999999998.151978125.46875.46875 0 0 0 .010968750000000001.021937500000000002.46875.46875 0 0 0 .093375.1391625.46875.46875 0 0 0 .1391625.093375.46875.46875 0 0 0 .021937500000000002.010968750000000001.46875.46875 0 0 0 .151978125.029249999999999998.46875.46875 0 0 0 .01828125.00375.46875.46875 0 0 0 .01828125-.00375.46875.46875 0 0 0 .151978125-.029249999999999998.46875.46875 0 0 0 .021937500000000002-.010968750000000001.46875.46875 0 0 0 .1391625-.093375L332.8125 325.975340625V326.71875a.46875.46875 0 0 0 .46875.46875.46875.46875 0 0 0 .46875-.46875v-1.8548625a.46875.46875 0 0 0 0-.040312499999999994v-.897225a.46875.46875 0 0 0 0-.040312499999999994V322.03125a.468796875.468796875 0 0 0-.009375-.09159375L333.10364062499997 318.75H334.6875v.46875a.468796875.468796875 0 0 0 .46875.46875h1.40625v3.28125a.46875.46875 0 0 0 .347896875.45226875A.46875.46875 0 0 0 337.03125 323.4375c.190940625 0 .360890625.112903125.43395937500000004.289303125.07303124999999999.176409375.0324375.375853125-.102534375.510871875-.13501875000000002.135009375-.3344625.175603125-.510871875.102534375C336.675403125 324.267140625 336.5625 324.097190625 336.5625 323.90625a.46875.46875 0 0 0-.46875-.46875.46875.46875 0 0 0-.46875.46875c0 .56743125.3436875 1.08290625.8679187500000001 1.30005.524240625.21714375 1.131365625.095446875 1.532596875-.305784375.40123125000000004-.40123125000000004.522928125-1.00835625.305784375-1.532596875-.154884375-.37392187499999996-.4622625-.65450625-.8312999999999999-.785521875V319.6875h1.40625a.468796875.468796875 0 0 0 .46875-.46875V318.75h1.5838593749999998l-.6372 3.18969375a.468796875.468796875 0 0 0-.001875.0238125.46875.46875 0 0 0-.00375.031125A.468796875.468796875 0 0 0 340.3125 322.03125v4.6875a.46875.46875 0 0 0 .00375.01828125.46875.46875 0 0 0 .029249999999999998.151978125.46875.46875 0 0 0 .010968750000000001.021937500000000002.46875.46875 0 0 0 .093375.1391625.46875.46875 0 0 0 .1391625.093375.46875.46875 0 0 0 .021937500000000002.010968750000000001.46875.46875 0 0 0 .151978125.029249999999999998.46875.46875 0 0 0 .01828125.00375.46875.46875 0 0 0 .01828125-.00375.46875.46875 0 0 0 .151978125-.029249999999999998.46875.46875 0 0 0 .021937500000000002-.010968750000000001.46875.46875 0 0 0 .1391625-.093375L342.1875 325.975340625V326.71875a.46875.46875 0 0 0 .46875.46875.46875.46875 0 0 0 .46875-.46875v-1.8548625a.46875.46875 0 0 0 0-.040312499999999994v-.897225a.46875.46875 0 0 0 0-.040312499999999994V322.03125a.468796875.468796875 0 0 0-.009375-.09159375L342.47864062499997 318.75H342.65625a.46875.46875 0 0 0 .46875-.46875.46875.46875 0 0 0-.46875-.46875h-.36620625l-.111703125-.56030625A.468796875.468796875 0 0 0 341.71875 316.875a.468796875.468796875 0 0 0-.459590625.37719375L341.14745625 317.8125H339.375v-.46875a.468796875.468796875 0 0 0-.46875-.46875h-3.75a.468796875.468796875 0 0 0-.46875.46875v.46875h-1.77245625l-.111703125-.56030625A.468796875.468796875 0 0 0 332.34375 316.875Zm0 2.858278125.46875 2.34375v.69763125l-.8972156250000001-.8972156250000001zm9.375 0 .46875 2.34375v.69763125l-.8972156250000001-.8972156250000001zm-9.84375 3.4295625.9375.9375v.54931875l-.9375.9375zm9.375 0 .9375.9375v.54931875l-.9375.9375zM332.34375 316.875a.468796875.468796875 0 0 0-.459590625.37719375L331.77245625 317.8125H331.40625a.46875.46875 0 0 0-.46875.46875.46875.46875 0 0 0 .46875.46875h.177609375l-.6372 3.18969375a.468796875.468796875 0 0 0-.001875.0238125.46875.46875 0 0 0-.00375.031125A.468796875.468796875 0 0 0 330.9375 322.03125v4.6875a.46875.46875 0 0 0 .00375.01828125.46875.46875 0 0 0 .029249999999999998.151978125.46875.46875 0 0 0 .010968750000000001.021937500000000002.46875.46875 0 0 0 .093375.1391625.46875.46875 0 0 0 .1391625.093375.46875.46875 0 0 0 .021937500000000002.010968750000000001.46875.46875 0 0 0 .151978125.029249999999999998.46875.46875 0 0 0 .01828125.00375.46875.46875 0 0 0 .01828125-.00375.46875.46875 0 0 0 .151978125-.029249999999999998.46875.46875 0 0 0 .021937500000000002-.010968750000000001.46875.46875 0 0 0 .1391625-.093375L332.8125 325.975340625V326.71875a.46875.46875 0 0 0 .46875.46875.46875.46875 0 0 0 .46875-.46875v-1.8548625a.46875.46875 0 0 0 0-.040312499999999994v-.897225a.46875.46875 0 0 0 0-.040312499999999994V322.03125a.468796875.468796875 0 0 0-.009375-.09159375L333.10364062499997 318.75H334.6875v.46875a.468796875.468796875 0 0 0 .46875.46875h1.40625v3.28125a.46875.46875 0 0 0 .347896875.45226875A.46875.46875 0 0 0 337.03125 323.4375c.190940625 0 .360890625.112903125.43395937500000004.289303125.07303124999999999.176409375.0324375.375853125-.102534375.510871875-.13501875000000002.135009375-.3344625.175603125-.510871875.102534375C336.675403125 324.267140625 336.5625 324.097190625 336.5625 323.90625a.46875.46875 0 0 0-.46875-.46875.46875.46875 0 0 0-.46875.46875c0 .56743125.3436875 1.08290625.8679187500000001 1.30005.524240625.21714375 1.131365625.095446875 1.532596875-.305784375.40123125000000004-.40123125000000004.522928125-1.00835625.305784375-1.532596875-.154884375-.37392187499999996-.4622625-.65450625-.8312999999999999-.785521875V319.6875h1.40625a.468796875.468796875 0 0 0 .46875-.46875V318.75h1.5838593749999998l-.6372 3.18969375a.468796875.468796875 0 0 0-.001875.0238125.46875.46875 0 0 0-.00375.031125A.468796875.468796875 0 0 0 340.3125 322.03125v4.6875a.46875.46875 0 0 0 .00375.01828125.46875.46875 0 0 0 .029249999999999998.151978125.46875.46875 0 0 0 .010968750000000001.021937500000000002.46875.46875 0 0 0 .093375.1391625.46875.46875 0 0 0 .1391625.093375.46875.46875 0 0 0 .021937500000000002.010968750000000001.46875.46875 0 0 0 .151978125.029249999999999998.46875.46875 0 0 0 .01828125.00375.46875.46875 0 0 0 .01828125-.00375.46875.46875 0 0 0 .151978125-.029249999999999998.46875.46875 0 0 0 .021937500000000002-.010968750000000001.46875.46875 0 0 0 .1391625-.093375L342.1875 325.975340625V326.71875a.46875.46875 0 0 0 .46875.46875.46875.46875 0 0 0 .46875-.46875v-1.8548625a.46875.46875 0 0 0 0-.040312499999999994v-.897225a.46875.46875 0 0 0 0-.040312499999999994V322.03125a.468796875.468796875 0 0 0-.009375-.09159375L342.47864062499997 318.75H342.65625a.46875.46875 0 0 0 .46875-.46875.46875.46875 0 0 0-.46875-.46875h-.36620625l-.111703125-.56030625A.468796875.468796875 0 0 0 341.71875 316.875a.468796875.468796875 0 0 0-.459590625.37719375L341.14745625 317.8125H339.375v-.46875a.468796875.468796875 0 0 0-.46875-.46875h-3.75a.468796875.468796875 0 0 0-.46875.46875v.46875h-1.77245625l-.111703125-.56030625A.468796875.468796875 0 0 0 332.34375 316.875Zm0 2.858278125.46875 2.34375v.69763125l-.8972156250000001-.8972156250000001zm9.375 0 .46875 2.34375v.69763125l-.8972156250000001-.8972156250000001zm-9.84375 3.4295625.9375.9375v.54931875l-.9375.9375zm9.375 0 .9375.9375v.54931875l-.9375.9375z" fill="#FFFFFF"/></svg>