<svg version="1.1" xmlns="http://www.w3.org/2000/svg" xlink="http://www.w3.org/1999/xlink" x="0px" y="0px" width="15px" height="15px" viewBox="0 0 15 15" style="enable-background:new 0 0 15 15;" space="preserve">
    <path d="m353.90625,315.9375c-0.0129375,0.001875,-0.02578125,0.0046875,-0.0384375,0.0075c-0.0354375,0.0028125,-0.07050000000000001,0.00946875,-0.1043625,0.020156249999999997c-0.02071875,0.0065625,-0.040875,0.014531249999999999,-0.06046875,0.0238125c-0.0399375,0.019125000000000003,-0.076875,0.04378125,-0.10985625,0.07321875c-0.0065625,0.00375,-0.01228125,0.008437499999999999,-0.01828125,0.012843750000000001l-5.625,5.625l-0.9375,0.9375c-0.0879375,0.0879375,-0.13730625000000002,0.2071125,-0.137325,0.331425v1.875c0.000028125,0.258871875,0.20987812500000003,0.468721875,0.46875,0.46875h0.179446875l-0.5987625,1.19750625c-0.0324375,0.064875,-0.0493125,0.13627499999999998,-0.04940625,0.20874375v1.875c0,0.25888125,0.20986875,0.46875,0.46875,0.46875c0.25888125,0,0.46875,-0.20986875,0.46875,-0.46875v-1.7651343750000001L348.570553125,325.3125h2.23389375L351.5625,326.828615625V328.59375c0,0.25888125,0.20986875,0.46875,0.46875,0.46875c0.25888125,0,0.46875,-0.20986875,0.46875,-0.46875v-1.875c-0.000121875,-0.07246875,-0.0170625,-0.14391562500000002,-0.04940625,-0.20874375L351.851803125,325.3125H352.03125c0.258871875,-0.000028125,0.468721875,-0.20987812500000003,0.46875,-0.46875v-1.875c-0.000018750000000000002,-0.12431249999999999,-0.04940625,-0.243525,-0.137325,-0.331425l-0.69946875,-0.699459375l2.155153125,-4.31030625l1.51794375,4.552003125000001c0.0046875,0.010593749999999999,0.010593749999999999,0.021,0.0165,0.031125c0.01134375,0.028124999999999997,0.0255,0.055125,0.04209375,0.08053125c0.009375,0.013312500000000001,0.01884375,0.026156250000000002,0.029249999999999998,0.0384375c0.0193125,0.02278125,0.04078125,0.04359375,0.064125,0.06225c0.011156250000000001,0.00965625,0.02278125,0.01884375,0.03478125,0.02746875c0.028218749999999997,0.01846875,0.05821875,0.033749999999999995,0.08971875,0.045750000000000006c0.0125625,0.005625,0.02540625,0.010312499999999999,0.0384375,0.014624999999999999c0.042187499999999996,0.01275,0.08596875000000001,0.01959375,0.130003125,0.020156249999999997c0.0009375,0.000009375000000000001,0.0028125,0.000009375000000000001,0.00375,0c0.18940312499999998,0.001875,0.357703125,0.114065625,0.43029375,0.289303125c0.07303124999999999,0.176409375,0.0324375,0.375853125,-0.102534375,0.510871875c-0.13501875000000002,0.135009375,-0.3344625,0.175603125,-0.510871875,0.102534375C355.425403125,323.329640625,355.3125,323.159690625,355.3125,322.96875c0,-0.25888125,-0.20986875,-0.46875,-0.46875,-0.46875c-0.25888125,0,-0.46875,0.20986875,-0.46875,0.46875c0,0.56743125,0.3436875,1.08290625,0.8679187500000001,1.30005c0.524240625,0.21714375,1.131365625,0.095446875,1.532596875,-0.305784375c0.40123125000000004,-0.40123125000000004,0.522928125,-1.00835625,0.305784375,-1.532596875c-0.17077499999999998,-0.412275,-0.5266968750000001,-0.712546875,-0.9466593750000001,-0.822140625l-1.78344375,-5.350340624999999c-0.0028125,-0.0046875,-0.0046875,-0.008437499999999999,-0.0075,-0.012843750000000001c-0.01340625,-0.03890625,-0.031875,-0.07584375,-0.0549375,-0.10985625c-0.0009375,-0.0009375,-0.0028125,-0.0028125,-0.00375,-0.00375c-0.014343749999999999,-0.020156249999999997,-0.030281250000000003,-0.039093750000000003,-0.047625,-0.05671875c-0.0065625,-0.0046875,-0.013312500000000001,-0.008437499999999999,-0.020156249999999997,-0.012843750000000001c-0.030375,-0.02746875,-0.06421875,-0.05090625,-0.10070625,-0.0695625c-0.01303125,-0.008437499999999999,-0.02653125,-0.015281249999999998,-0.040312499999999994,-0.021937500000000002c-0.04396875,-0.01725,-0.09028125,-0.02775,-0.137325,-0.031125c-0.005625,0.000515625,-0.010968750000000001,0.0009375,-0.0165,0.001875c-0.005625,-0.0009375,-0.010968750000000001,-0.0028125,-0.0165,-0.00375zm-1.71020625,2.841796875L350.804446875,321.5625h-1.39160625z" fill="#FFFFFF"/> <path d="m353.90625,315.9375c-0.0129375,0.001875,-0.02578125,0.0046875,-0.0384375,0.0075c-0.0354375,0.0028125,-0.07050000000000001,0.00946875,-0.1043625,0.020156249999999997c-0.02071875,0.0065625,-0.040875,0.014531249999999999,-0.06046875,0.0238125c-0.0399375,0.019125000000000003,-0.076875,0.04378125,-0.10985625,0.07321875c-0.0065625,0.00375,-0.01228125,0.008437499999999999,-0.01828125,0.012843750000000001l-5.625,5.625l-0.9375,0.9375c-0.0879375,0.0879375,-0.13730625000000002,0.2071125,-0.137325,0.331425v1.875c0.000028125,0.258871875,0.20987812500000003,0.468721875,0.46875,0.46875h0.179446875l-0.5987625,1.19750625c-0.0324375,0.064875,-0.0493125,0.13627499999999998,-0.04940625,0.20874375v1.875c0,0.25888125,0.20986875,0.46875,0.46875,0.46875c0.25888125,0,0.46875,-0.20986875,0.46875,-0.46875v-1.7651343750000001L348.570553125,325.3125h2.23389375L351.5625,326.828615625V328.59375c0,0.25888125,0.20986875,0.46875,0.46875,0.46875c0.25888125,0,0.46875,-0.20986875,0.46875,-0.46875v-1.875c-0.000121875,-0.07246875,-0.0170625,-0.14391562500000002,-0.04940625,-0.20874375L351.851803125,325.3125H352.03125c0.258871875,-0.000028125,0.468721875,-0.20987812500000003,0.46875,-0.46875v-1.875c-0.000018750000000000002,-0.12431249999999999,-0.04940625,-0.243525,-0.137325,-0.331425l-0.69946875,-0.699459375l2.155153125,-4.31030625l1.51794375,4.552003125000001c0.0046875,0.010593749999999999,0.010593749999999999,0.021,0.0165,0.031125c0.01134375,0.028124999999999997,0.0255,0.055125,0.04209375,0.08053125c0.009375,0.013312500000000001,0.01884375,0.026156250000000002,0.029249999999999998,0.0384375c0.0193125,0.02278125,0.04078125,0.04359375,0.064125,0.06225c0.011156250000000001,0.00965625,0.02278125,0.01884375,0.03478125,0.02746875c0.028218749999999997,0.01846875,0.05821875,0.033749999999999995,0.08971875,0.045750000000000006c0.0125625,0.005625,0.02540625,0.010312499999999999,0.0384375,0.014624999999999999c0.042187499999999996,0.01275,0.08596875000000001,0.01959375,0.130003125,0.020156249999999997c0.0009375,0.000009375000000000001,0.0028125,0.000009375000000000001,0.00375,0c0.18940312499999998,0.001875,0.357703125,0.114065625,0.43029375,0.289303125c0.07303124999999999,0.176409375,0.0324375,0.375853125,-0.102534375,0.510871875c-0.13501875000000002,0.135009375,-0.3344625,0.175603125,-0.510871875,0.102534375C355.425403125,323.329640625,355.3125,323.159690625,355.3125,322.96875c0,-0.25888125,-0.20986875,-0.46875,-0.46875,-0.46875c-0.25888125,0,-0.46875,0.20986875,-0.46875,0.46875c0,0.56743125,0.3436875,1.08290625,0.8679187500000001,1.30005c0.524240625,0.21714375,1.131365625,0.095446875,1.532596875,-0.305784375c0.40123125000000004,-0.40123125000000004,0.522928125,-1.00835625,0.305784375,-1.532596875c-0.17077499999999998,-0.412275,-0.5266968750000001,-0.712546875,-0.9466593750000001,-0.822140625l-1.78344375,-5.350340624999999c-0.0028125,-0.0046875,-0.0046875,-0.008437499999999999,-0.0075,-0.012843750000000001c-0.01340625,-0.03890625,-0.031875,-0.07584375,-0.0549375,-0.10985625c-0.0009375,-0.0009375,-0.0028125,-0.0028125,-0.00375,-0.00375c-0.014343749999999999,-0.020156249999999997,-0.030281250000000003,-0.039093750000000003,-0.047625,-0.05671875c-0.0065625,-0.0046875,-0.013312500000000001,-0.008437499999999999,-0.020156249999999997,-0.012843750000000001c-0.030375,-0.02746875,-0.06421875,-0.05090625,-0.10070625,-0.0695625c-0.01303125,-0.008437499999999999,-0.02653125,-0.015281249999999998,-0.040312499999999994,-0.021937500000000002c-0.04396875,-0.01725,-0.09028125,-0.02775,-0.137325,-0.031125c-0.005625,0.000515625,-0.010968750000000001,0.0009375,-0.0165,0.001875c-0.005625,-0.0009375,-0.010968750000000001,-0.0028125,-0.0165,-0.00375zm-1.71020625,2.841796875L350.804446875,321.5625h-1.39160625z" fill="#FFFFFF"/>
    </svg>