<svg version="1.1" xmlns="http://www.w3.org/2000/svg" xlink="http://www.w3.org/1999/xlink" x="0px" y="0px" width="15px" height="15px" viewBox="0 0 15 15" style="enable-background:new 0 0 15 15;" space="preserve">
    <path d="m332.34375,316.875a0.468796875,0.468796875,0,0,0,-0.459590625,0.37719375L331.77245625,317.8125H331.40625a0.46875,0.46875,0,0,0,-0.46875,0.46875a0.46875,0.46875,0,0,0,0.46875,0.46875h0.177609375l-0.6372,3.18969375a0.468796875,0.468796875,0,0,0,-0.001875,0.0238125a0.46875,0.46875,0,0,0,-0.00375,0.031125A0.468796875,0.468796875,0,0,0,330.9375,322.03125v4.6875a0.46875,0.46875,0,0,0,0.00375,0.01828125a0.46875,0.46875,0,0,0,0.029249999999999998,0.151978125a0.46875,0.46875,0,0,0,0.010968750000000001,0.021937500000000002a0.46875,0.46875,0,0,0,0.093375,0.1391625a0.46875,0.46875,0,0,0,0.1391625,0.093375a0.46875,0.46875,0,0,0,0.021937500000000002,0.010968750000000001a0.46875,0.46875,0,0,0,0.151978125,0.029249999999999998a0.46875,0.46875,0,0,0,0.01828125,0.00375a0.46875,0.46875,0,0,0,0.01828125,-0.00375a0.46875,0.46875,0,0,0,0.151978125,-0.029249999999999998a0.46875,0.46875,0,0,0,0.021937500000000002,-0.010968750000000001a0.46875,0.46875,0,0,0,0.1391625,-0.093375L332.8125,325.975340625V326.71875a0.46875,0.46875,0,0,0,0.46875,0.46875a0.46875,0.46875,0,0,0,0.46875,-0.46875v-1.8548625a0.46875,0.46875,0,0,0,0,-0.040312499999999994v-0.897225a0.46875,0.46875,0,0,0,0,-0.040312499999999994V322.03125a0.468796875,0.468796875,0,0,0,-0.009375,-0.09159375L333.10364062499997,318.75H334.6875v0.46875a0.468796875,0.468796875,0,0,0,0.46875,0.46875h1.40625v3.28125a0.46875,0.46875,0,0,0,0.347896875,0.45226875A0.46875,0.46875,0,0,0,337.03125,323.4375c0.190940625,0,0.360890625,0.112903125,0.43395937500000004,0.289303125c0.07303124999999999,0.176409375,0.0324375,0.375853125,-0.102534375,0.510871875c-0.13501875000000002,0.135009375,-0.3344625,0.175603125,-0.510871875,0.102534375C336.675403125,324.267140625,336.5625,324.097190625,336.5625,323.90625a0.46875,0.46875,0,0,0,-0.46875,-0.46875a0.46875,0.46875,0,0,0,-0.46875,0.46875c0,0.56743125,0.3436875,1.08290625,0.8679187500000001,1.30005c0.524240625,0.21714375,1.131365625,0.095446875,1.532596875,-0.305784375c0.40123125000000004,-0.40123125000000004,0.522928125,-1.00835625,0.305784375,-1.532596875c-0.154884375,-0.37392187499999996,-0.4622625,-0.65450625,-0.8312999999999999,-0.785521875V319.6875h1.40625a0.468796875,0.468796875,0,0,0,0.46875,-0.46875V318.75h1.5838593749999998l-0.6372,3.18969375a0.468796875,0.468796875,0,0,0,-0.001875,0.0238125a0.46875,0.46875,0,0,0,-0.00375,0.031125A0.468796875,0.468796875,0,0,0,340.3125,322.03125v4.6875a0.46875,0.46875,0,0,0,0.00375,0.01828125a0.46875,0.46875,0,0,0,0.029249999999999998,0.151978125a0.46875,0.46875,0,0,0,0.010968750000000001,0.021937500000000002a0.46875,0.46875,0,0,0,0.093375,0.1391625a0.46875,0.46875,0,0,0,0.1391625,0.093375a0.46875,0.46875,0,0,0,0.021937500000000002,0.010968750000000001a0.46875,0.46875,0,0,0,0.151978125,0.029249999999999998a0.46875,0.46875,0,0,0,0.01828125,0.00375a0.46875,0.46875,0,0,0,0.01828125,-0.00375a0.46875,0.46875,0,0,0,0.151978125,-0.029249999999999998a0.46875,0.46875,0,0,0,0.021937500000000002,-0.010968750000000001a0.46875,0.46875,0,0,0,0.1391625,-0.093375L342.1875,325.975340625V326.71875a0.46875,0.46875,0,0,0,0.46875,0.46875a0.46875,0.46875,0,0,0,0.46875,-0.46875v-1.8548625a0.46875,0.46875,0,0,0,0,-0.040312499999999994v-0.897225a0.46875,0.46875,0,0,0,0,-0.040312499999999994V322.03125a0.468796875,0.468796875,0,0,0,-0.009375,-0.09159375L342.47864062499997,318.75H342.65625a0.46875,0.46875,0,0,0,0.46875,-0.46875a0.46875,0.46875,0,0,0,-0.46875,-0.46875h-0.36620625l-0.111703125,-0.56030625A0.468796875,0.468796875,0,0,0,341.71875,316.875a0.468796875,0.468796875,0,0,0,-0.459590625,0.37719375L341.14745625,317.8125H339.375v-0.46875a0.468796875,0.468796875,0,0,0,-0.46875,-0.46875h-3.75a0.468796875,0.468796875,0,0,0,-0.46875,0.46875v0.46875h-1.77245625l-0.111703125,-0.56030625A0.468796875,0.468796875,0,0,0,332.34375,316.875Zm0,2.858278125l0.46875,2.34375v0.69763125l-0.8972156250000001,-0.8972156250000001zm9.375,0l0.46875,2.34375v0.69763125l-0.8972156250000001,-0.8972156250000001zm-9.84375,3.4295625l0.9375,0.9375v0.54931875l-0.9375,0.9375zm9.375,0l0.9375,0.9375v0.54931875l-0.9375,0.9375z" fill="#FFFFFF"/> <path d="m332.34375,316.875a0.468796875,0.468796875,0,0,0,-0.459590625,0.37719375L331.77245625,317.8125H331.40625a0.46875,0.46875,0,0,0,-0.46875,0.46875a0.46875,0.46875,0,0,0,0.46875,0.46875h0.177609375l-0.6372,3.18969375a0.468796875,0.468796875,0,0,0,-0.001875,0.0238125a0.46875,0.46875,0,0,0,-0.00375,0.031125A0.468796875,0.468796875,0,0,0,330.9375,322.03125v4.6875a0.46875,0.46875,0,0,0,0.00375,0.01828125a0.46875,0.46875,0,0,0,0.029249999999999998,0.151978125a0.46875,0.46875,0,0,0,0.010968750000000001,0.021937500000000002a0.46875,0.46875,0,0,0,0.093375,0.1391625a0.46875,0.46875,0,0,0,0.1391625,0.093375a0.46875,0.46875,0,0,0,0.021937500000000002,0.010968750000000001a0.46875,0.46875,0,0,0,0.151978125,0.029249999999999998a0.46875,0.46875,0,0,0,0.01828125,0.00375a0.46875,0.46875,0,0,0,0.01828125,-0.00375a0.46875,0.46875,0,0,0,0.151978125,-0.029249999999999998a0.46875,0.46875,0,0,0,0.021937500000000002,-0.010968750000000001a0.46875,0.46875,0,0,0,0.1391625,-0.093375L332.8125,325.975340625V326.71875a0.46875,0.46875,0,0,0,0.46875,0.46875a0.46875,0.46875,0,0,0,0.46875,-0.46875v-1.8548625a0.46875,0.46875,0,0,0,0,-0.040312499999999994v-0.897225a0.46875,0.46875,0,0,0,0,-0.040312499999999994V322.03125a0.468796875,0.468796875,0,0,0,-0.009375,-0.09159375L333.10364062499997,318.75H334.6875v0.46875a0.468796875,0.468796875,0,0,0,0.46875,0.46875h1.40625v3.28125a0.46875,0.46875,0,0,0,0.347896875,0.45226875A0.46875,0.46875,0,0,0,337.03125,323.4375c0.190940625,0,0.360890625,0.112903125,0.43395937500000004,0.289303125c0.07303124999999999,0.176409375,0.0324375,0.375853125,-0.102534375,0.510871875c-0.13501875000000002,0.135009375,-0.3344625,0.175603125,-0.510871875,0.102534375C336.675403125,324.267140625,336.5625,324.097190625,336.5625,323.90625a0.46875,0.46875,0,0,0,-0.46875,-0.46875a0.46875,0.46875,0,0,0,-0.46875,0.46875c0,0.56743125,0.3436875,1.08290625,0.8679187500000001,1.30005c0.524240625,0.21714375,1.131365625,0.095446875,1.532596875,-0.305784375c0.40123125000000004,-0.40123125000000004,0.522928125,-1.00835625,0.305784375,-1.532596875c-0.154884375,-0.37392187499999996,-0.4622625,-0.65450625,-0.8312999999999999,-0.785521875V319.6875h1.40625a0.468796875,0.468796875,0,0,0,0.46875,-0.46875V318.75h1.5838593749999998l-0.6372,3.18969375a0.468796875,0.468796875,0,0,0,-0.001875,0.0238125a0.46875,0.46875,0,0,0,-0.00375,0.031125A0.468796875,0.468796875,0,0,0,340.3125,322.03125v4.6875a0.46875,0.46875,0,0,0,0.00375,0.01828125a0.46875,0.46875,0,0,0,0.029249999999999998,0.151978125a0.46875,0.46875,0,0,0,0.010968750000000001,0.021937500000000002a0.46875,0.46875,0,0,0,0.093375,0.1391625a0.46875,0.46875,0,0,0,0.1391625,0.093375a0.46875,0.46875,0,0,0,0.021937500000000002,0.010968750000000001a0.46875,0.46875,0,0,0,0.151978125,0.029249999999999998a0.46875,0.46875,0,0,0,0.01828125,0.00375a0.46875,0.46875,0,0,0,0.01828125,-0.00375a0.46875,0.46875,0,0,0,0.151978125,-0.029249999999999998a0.46875,0.46875,0,0,0,0.021937500000000002,-0.010968750000000001a0.46875,0.46875,0,0,0,0.1391625,-0.093375L342.1875,325.975340625V326.71875a0.46875,0.46875,0,0,0,0.46875,0.46875a0.46875,0.46875,0,0,0,0.46875,-0.46875v-1.8548625a0.46875,0.46875,0,0,0,0,-0.040312499999999994v-0.897225a0.46875,0.46875,0,0,0,0,-0.040312499999999994V322.03125a0.468796875,0.468796875,0,0,0,-0.009375,-0.09159375L342.47864062499997,318.75H342.65625a0.46875,0.46875,0,0,0,0.46875,-0.46875a0.46875,0.46875,0,0,0,-0.46875,-0.46875h-0.36620625l-0.111703125,-0.56030625A0.468796875,0.468796875,0,0,0,341.71875,316.875a0.468796875,0.468796875,0,0,0,-0.459590625,0.37719375L341.14745625,317.8125H339.375v-0.46875a0.468796875,0.468796875,0,0,0,-0.46875,-0.46875h-3.75a0.468796875,0.468796875,0,0,0,-0.46875,0.46875v0.46875h-1.77245625l-0.111703125,-0.56030625A0.468796875,0.468796875,0,0,0,332.34375,316.875Zm0,2.858278125l0.46875,2.34375v0.69763125l-0.8972156250000001,-0.8972156250000001zm9.375,0l0.46875,2.34375v0.69763125l-0.8972156250000001,-0.8972156250000001zm-9.84375,3.4295625l0.9375,0.9375v0.54931875l-0.9375,0.9375zm9.375,0l0.9375,0.9375v0.54931875l-0.9375,0.9375z" fill="#FFFFFF"/>
    </svg>