<svg version="1.1" xmlns="http://www.w3.org/2000/svg" xlink="http://www.w3.org/1999/xlink" x="0px" y="0px" width="15px" height="18.461538461538463px" viewBox="0 0 15 18.461538461538463" style="enable-background:new 0 0 15 15;" space="preserve">
    <path d="M9.807692307692307,3.4615384615384612c0.955889423076923,0,1.7307692307692306,-0.7748798076923076,1.7307692307692306,-1.7307692307692306S10.76358173076923,0,9.807692307692307,0s-1.7307692307692306,0.7748798076923076,-1.7307692307692306,1.7307692307692306s0.7748798076923076,1.7307692307692306,1.7307692307692306,1.7307692307692306zM4.099399038461538,11.447235576923077l-0.5336538461538461,1.2447115384615384H1.1538461538461537c-0.6371394230769231,0,-1.1538461538461537,0.5167067307692307,-1.1538461538461537,1.1538461538461537s0.5167067307692307,1.1538461538461537,1.1538461538461537,1.1538461538461537h2.792668269230769c0.6941105769230769,0,1.3189903846153845,-0.4124999999999999,1.5905048076923076,-1.048918269230769l0.31694711538461534,-0.7399038461538461l-0.38473557692307686,-0.2271634615384615c-0.6245192307692308,-0.3688701923076923,-1.0838942307692305,-0.9147836538461538,-1.3698317307692307,-1.536418269230769zM13.846153846153845,8.0765625h-1.5876201923076922l-0.9396634615384614,-1.9200721153846152c-0.4507211538461538,-0.9212740384615384,-1.2782451923076923,-1.5948317307692306,-2.2276442307692306,-1.836778846153846l-2.562980769230769,-0.7622596153846153c-1.0204326923076923,-0.24519230769230765,-2.0830528846153844,-0.019831730769230768,-2.914903846153846,0.6180288461538461l-1.4304086538461538,1.096514423076923c-0.505889423076923,0.3876201923076923,-0.6018028846153846,1.1116586538461537,-0.21346153846153845,1.6175480769230768s1.1120192307692307,0.6007211538461538,1.6175480769230768,0.21346153846153845l1.4311298076923076,-1.096514423076923c0.2765625,-0.21237980769230766,0.6288461538461538,-0.28846153846153844,0.9111778846153845,-0.22139423076923073l0.5300480769230769,0.15757211538461538l-1.3507211538461537,3.1510817307692305c-0.45504807692307686,1.0629807692307691,-0.04723557692307692,2.3080528846153845,0.9483173076923076,2.895793269230769l3.0641826923076922,1.809014423076923l-0.9905048076923075,3.163341346153846c-0.19038461538461537,0.6079326923076922,0.14819711538461539,1.2551682692307693,0.7561298076923075,1.4455528846153847c0.11502403846153846,0.036057692307692304,0.23112980769230768,0.05336538461538461,0.3454326923076923,0.05336538461538461c0.49074519230769226,0,0.9457932692307691,-0.3162259615384615,1.1004807692307692,-0.8094951923076922l1.1408653846153844,-3.6439903846153845c0.21310096153846153,-0.7489182692307691,-0.10420673076923076,-1.5533653846153843,-0.7802884615384615,-1.9611778846153844l-2.2081730769230767,-1.3031249999999999l1.128966346153846,-2.8225961538461535l0.730889423076923,1.4938701923076922c0.28846153846153844,0.5891826923076923,0.8985576923076923,0.9695913461538461,1.5544471153846153,0.9695913461538461H13.846153846153845c0.6371394230769231,0,1.1538461538461537,-0.5167067307692307,1.1538461538461537,-1.1538461538461537s-0.5167067307692307,-1.1534855769230767,-1.1538461538461537,-1.1534855769230767z" fill="#FFFFFF"/>
    </svg>