<svg version="1.1" xmlns="http://www.w3.org/2000/svg" xlink="http://www.w3.org/1999/xlink" x="0px" y="0px" width="12.187499999999998px" height="15px" viewBox="0 0 12.187499999999998 15" style="enable-background:new 0 0 15 15;" space="preserve">
    <path d="M7.968749999999998,2.8124999999999996c0.7766601562499998,0,1.4062499999999998,-0.6295898437499998,1.4062499999999998,-1.4062499999999998S8.74541015625,0,7.968749999999998,0s-1.4062499999999998,0.6295898437499998,-1.4062499999999998,1.4062499999999998s0.6295898437499998,1.4062499999999998,1.4062499999999998,1.4062499999999998zM3.330761718749999,9.300878906249999l-0.43359374999999994,1.0113281249999997H0.9374999999999998c-0.5176757812499999,0,-0.9374999999999998,0.41982421874999987,-0.9374999999999998,0.9374999999999998s0.41982421874999987,0.9374999999999998,0.9374999999999998,0.9374999999999998h2.2690429687499996c0.5639648437499999,0,1.0716796874999999,-0.3351562499999999,1.2922851562499997,-0.8522460937499997l0.25751953124999993,-0.6011718749999999l-0.3125976562499999,-0.18457031249999994c-0.5074218749999999,-0.29970703125,-0.8806640624999997,-0.7432617187499998,-1.1129882812499998,-1.2483398437499997zM11.249999999999998,6.562207031249999h-1.2899414062499999l-0.7634765624999997,-1.5600585937499996c-0.3662109374999999,-0.7485351562499999,-1.0385742187499998,-1.2958007812499996,-1.8099609374999996,-1.4923828124999996l-2.0824218749999996,-0.6193359374999998c-0.8291015624999999,-0.19921874999999994,-1.6924804687499997,-0.016113281249999997,-2.3683593749999994,0.5021484374999999l-1.1622070312499997,0.8909179687499998c-0.41103515624999987,0.31494140624999994,-0.4889648437499999,0.9032226562499998,-0.17343749999999997,1.3142578124999997s0.9035156249999998,0.48808593749999984,1.3142578124999997,0.17343749999999997l1.1627929687499998,-0.8909179687499998c0.22470703124999997,-0.17255859374999996,0.5109374999999999,-0.23437499999999994,0.7403320312499998,-0.17988281249999993l0.4306640624999999,0.12802734374999997l-1.0974609374999997,2.5602539062499994c-0.3697265624999999,0.8636718749999998,-0.03837890624999999,1.8752929687499997,0.7705078124999998,2.3528320312499997l2.4896484374999996,1.4698242187499997l-0.8047851562499998,2.5702148437499996c-0.15468749999999998,0.49394531249999984,0.12041015624999998,1.01982421875,0.6143554687499998,1.1745117187499998c0.09345703124999999,0.029296874999999993,0.18779296874999996,0.04335937499999999,0.2806640625,0.04335937499999999c0.3987304687499999,0,0.7684570312499998,-0.2569335937499999,0.8941406249999999,-0.6577148437499998l0.9269531249999997,-2.9607421874999993c0.17314453124999998,-0.6084960937499998,-0.08466796874999998,-1.2621093749999996,-0.6339843749999999,-1.5934570312499996l-1.7941406249999996,-1.0587890624999998l0.9172851562499997,-2.293359374999999l0.5938476562499998,1.2137695312499999c0.23437499999999994,0.4787109374999999,0.7300781249999999,0.7877929687499998,1.2629882812499997,0.7877929687499998H11.249999999999998c0.5176757812499999,0,0.9374999999999998,-0.41982421874999987,0.9374999999999998,-0.9374999999999998s-0.41982421874999987,-0.9372070312499997,-0.9374999999999998,-0.9372070312499997z" fill="#FFFFFF"/>
    </svg>