<svg version="1.1" xmlns="http://www.w3.org/2000/svg" xlink="http://www.w3.org/1999/xlink" x="0px" y="0px" width="15px" height="18.75px" viewBox="0 0 15 18.75" style="enable-background:new 0 0 15 15;" space="preserve">
    <path d="M22.8515625,12.890625h-0.5859375V8.931884765625c0,-0.465087890625,-0.186767578125,-0.911865234375,-0.516357421875,-1.241455078125L18.0908203125,4.031982421875c-0.32958984375,-0.32958984375,-0.7763671875,-0.516357421875,-1.241455078125,-0.516357421875H15.234375V1.7578125c0,-0.970458984375,-0.787353515625,-1.7578125,-1.7578125,-1.7578125H4.1015625C3.131103515625,0,2.34375,0.787353515625,2.34375,1.7578125v1.7578125H0.29296875c-0.1611328125,0,-0.29296875,0.1318359375,-0.29296875,0.29296875v0.5859375c0,0.1611328125,0.1318359375,0.29296875,0.29296875,0.29296875h9.9609375c0.1611328125,0,0.29296875,0.1318359375,0.29296875,0.29296875v0.5859375c0,0.1611328125,-0.1318359375,0.29296875,-0.29296875,0.29296875H1.46484375c-0.1611328125,0,-0.29296875,0.1318359375,-0.29296875,0.29296875v0.5859375c0,0.1611328125,0.1318359375,0.29296875,0.29296875,0.29296875h7.6171875c0.1611328125,0,0.29296875,0.1318359375,0.29296875,0.29296875v0.5859375c0,0.1611328125,-0.1318359375,0.29296875,-0.29296875,0.29296875H0.29296875c-0.1611328125,0,-0.29296875,0.1318359375,-0.29296875,0.29296875v0.5859375c0,0.1611328125,0.1318359375,0.29296875,0.29296875,0.29296875h7.6171875c0.1611328125,0,0.29296875,0.1318359375,0.29296875,0.29296875v0.5859375c0,0.1611328125,-0.1318359375,0.29296875,-0.29296875,0.29296875H2.34375v4.6875c0,1.94091796875,1.57470703125,3.515625,3.515625,3.515625s3.515625,-1.57470703125,3.515625,-3.515625h4.6875c0,1.94091796875,1.57470703125,3.515625,3.515625,3.515625s3.515625,-1.57470703125,3.515625,-3.515625h1.7578125c0.322265625,0,0.5859375,-0.263671875,0.5859375,-0.5859375v-1.171875c0,-0.322265625,-0.263671875,-0.5859375,-0.5859375,-0.5859375zM5.859375,16.9921875c-0.970458984375,0,-1.7578125,-0.787353515625,-1.7578125,-1.7578125s0.787353515625,-1.7578125,1.7578125,-1.7578125s1.7578125,0.787353515625,1.7578125,1.7578125s-0.787353515625,1.7578125,-1.7578125,1.7578125zm11.71875,0c-0.970458984375,0,-1.7578125,-0.787353515625,-1.7578125,-1.7578125s0.787353515625,-1.7578125,1.7578125,-1.7578125s1.7578125,0.787353515625,1.7578125,1.7578125s-0.787353515625,1.7578125,-1.7578125,1.7578125zm2.9296875,-7.6171875H15.234375V5.2734375h1.614990234375l3.658447265625,3.658447265625V9.375z" fill="#FFFFFF"/>
    </svg>