<svg version="1.1" xmlns="http://www.w3.org/2000/svg" xlink="http://www.w3.org/1999/xlink" x="0px" y="0px" width="12px" height="15px" viewBox="0 0 12 15" style="enable-background:new 0 0 15 15;" space="preserve">
    <path d="M18.28125,10.3125h-0.46875V7.1455078125c0,-0.3720703125,-0.1494140625,-0.7294921875,-0.4130859375,-0.9931640625L14.47265625,3.2255859375c-0.263671875,-0.263671875,-0.62109375,-0.4130859375,-0.9931640625,-0.4130859375H12.1875V1.40625c0,-0.7763671875,-0.6298828125,-1.40625,-1.40625,-1.40625H3.28125C2.5048828125,0,1.875,0.6298828125,1.875,1.40625v1.40625H0.234375c-0.12890625,0,-0.234375,0.10546875,-0.234375,0.234375v0.46875c0,0.12890625,0.10546875,0.234375,0.234375,0.234375h7.96875c0.12890625,0,0.234375,0.10546875,0.234375,0.234375v0.46875c0,0.12890625,-0.10546875,0.234375,-0.234375,0.234375H1.171875c-0.12890625,0,-0.234375,0.10546875,-0.234375,0.234375v0.46875c0,0.12890625,0.10546875,0.234375,0.234375,0.234375h6.09375c0.12890625,0,0.234375,0.10546875,0.234375,0.234375v0.46875c0,0.12890625,-0.10546875,0.234375,-0.234375,0.234375H0.234375c-0.12890625,0,-0.234375,0.10546875,-0.234375,0.234375v0.46875c0,0.12890625,0.10546875,0.234375,0.234375,0.234375h6.09375c0.12890625,0,0.234375,0.10546875,0.234375,0.234375v0.46875c0,0.12890625,-0.10546875,0.234375,-0.234375,0.234375H1.875v3.75c0,1.552734375,1.259765625,2.8125,2.8125,2.8125s2.8125,-1.259765625,2.8125,-2.8125h3.75c0,1.552734375,1.259765625,2.8125,2.8125,2.8125s2.8125,-1.259765625,2.8125,-2.8125h1.40625c0.2578125,0,0.46875,-0.2109375,0.46875,-0.46875v-0.9375c0,-0.2578125,-0.2109375,-0.46875,-0.46875,-0.46875zM4.6875,13.59375c-0.7763671875,0,-1.40625,-0.6298828125,-1.40625,-1.40625s0.6298828125,-1.40625,1.40625,-1.40625s1.40625,0.6298828125,1.40625,1.40625s-0.6298828125,1.40625,-1.40625,1.40625zm9.375,0c-0.7763671875,0,-1.40625,-0.6298828125,-1.40625,-1.40625s0.6298828125,-1.40625,1.40625,-1.40625s1.40625,0.6298828125,1.40625,1.40625s-0.6298828125,1.40625,-1.40625,1.40625zm2.34375,-6.09375H12.1875V4.21875h1.2919921875l2.9267578125,2.9267578125V7.5z" fill="#FFFFFF"/>
    </svg>