<svg version="1.1" xmlns="http://www.w3.org/2000/svg" xlink="http://www.w3.org/1999/xlink" x="0px" y="0px" width="13.333333333333332px" height="15px" viewBox="0 0 13.333333333333332 15" style="enable-background:new 0 0 15 15;" space="preserve">
    <path d="M16.875,6.328125v0.46875c0,0.38833007812500003,-0.31479492187499997,0.703125,-0.703125,0.703125h-0.234375l-0.765029296875,5.3551171875C15.073505859374999,13.547900390625,14.480185546875001,14.0625,13.78037109375,14.0625H3.0946289062499996c-0.6998144531249999,0,-1.293134765625,-0.514599609375,-1.39212890625,-1.2073828125000001L0.9375,7.5h-0.234375c-0.38833007812500003,0,-0.703125,-0.31479492187499997,-0.703125,-0.703125v-0.46875c0,-0.38833007812500003,0.31479492187499997,-0.703125,0.703125,-0.703125h1.9728808593749998l3.1283203125,-4.301396484374999c0.30454101562499997,-0.4187109375,0.8908300781249999,-0.511318359375,1.309599609375,-0.20677734375c0.41874023437499996,0.30454101562499997,0.511318359375,0.8908593749999999,0.20677734375,1.309599609375L4.9944433593749995,5.625h6.886113281249999L9.554296875,2.426396484375c-0.30454101562499997,-0.4187109375,-0.21193359374999998,-1.0050585937499998,0.20680664062499998,-1.309599609375c0.418681640625,-0.30454101562499997,1.0050585937499998,-0.21196289062499998,1.309599609375,0.20677734375L14.198994140625,5.625H16.171875c0.38833007812500003,0,0.703125,0.31479492187499997,0.703125,0.703125zM9.140625,11.484375V8.203125c0,-0.38833007812500003,-0.31479492187499997,-0.703125,-0.703125,-0.703125s-0.703125,0.31479492187499997,-0.703125,0.703125v3.28125c0,0.38833007812500003,0.31479492187499997,0.703125,0.703125,0.703125s0.703125,-0.31479492187499997,0.703125,-0.703125zm3.28125,0V8.203125c0,-0.38833007812500003,-0.31479492187499997,-0.703125,-0.703125,-0.703125s-0.703125,0.31479492187499997,-0.703125,0.703125v3.28125c0,0.38833007812500003,0.31479492187499997,0.703125,0.703125,0.703125s0.703125,-0.31479492187499997,0.703125,-0.703125zm-6.5625,0V8.203125c0,-0.38833007812500003,-0.31479492187499997,-0.703125,-0.703125,-0.703125s-0.703125,0.31479492187499997,-0.703125,0.703125v3.28125c0,0.38833007812500003,0.31479492187499997,0.703125,0.703125,0.703125s0.703125,-0.31479492187499997,0.703125,-0.703125z" fill="#FFFFFF"/>
    </svg>