<svg version="1.1" xmlns="http://www.w3.org/2000/svg" xlink="http://www.w3.org/1999/xlink" x="0px" y="0px" width="15px" height="15px" viewBox="0 0 15 15" style="enable-background:new 0 0 15 15;" space="preserve"><path d="M7.5,0C3.357421875,0,0,2.9384765625,0,6.5625c0,2.0537109375,1.0810546875,3.884765625,2.7685546875,5.0888671875c0.28125,0.2021484375,0.4453125,0.5302734375,0.3955078125,0.8759765625l-0.275390625,1.939453125c-0.041015625,0.28125,0.17578125,0.533203125,0.4599609375,0.533203125H5.625v-1.640625c0,-0.12890625,0.10546875,-0.234375,0.234375,-0.234375h0.46875c0.12890625,0,0.234375,0.10546875,0.234375,0.234375v1.640625h1.875v-1.640625c0,-0.12890625,0.10546875,-0.234375,0.234375,-0.234375h0.46875c0.12890625,0,0.234375,0.10546875,0.234375,0.234375v1.640625h2.2763671875c0.2841796875,0,0.5009765625,-0.251953125,0.4599609375,-0.533203125l-0.275390625,-1.939453125c-0.0498046875,-0.3427734375,0.111328125,-0.673828125,0.3955078125,-0.8759765625C13.9189453125,10.447265625,15,8.6162109375,15,6.5625C15,2.9384765625,11.642578125,0,7.5,0zm-2.8125,9.375c-1.0341796875,0,-1.875,-0.8408203125,-1.875,-1.875s0.8408203125,-1.875,1.875,-1.875s1.875,0.8408203125,1.875,1.875s-0.8408203125,1.875,-1.875,1.875zm5.625,0c-1.0341796875,0,-1.875,-0.8408203125,-1.875,-1.875s0.8408203125,-1.875,1.875,-1.875s1.875,0.8408203125,1.875,1.875s-0.8408203125,1.875,-1.875,1.875z" fill="#FFFFFF"/></svg>