<svg version="1.1" xmlns="http://www.w3.org/2000/svg" xlink="http://www.w3.org/1999/xlink" x="0px" y="0px" width="13.125px" height="15px" viewBox="0 0 13.125 15" style="enable-background:new 0 0 15 15;" space="preserve"><path d="M13.03171875,8.837080078125a0.7066406249999999,0.7066406249999999,0,0,0,0.077958984375,-0.49740234375000003c-0.079833984375,-0.37986328124999996,-0.449384765625,-0.622412109375,-0.82541015625,-0.5417578125l-2.5607519531249996,0.7337695312499999L7.734374999999999,7.5l1.989140625,-1.031689453125l2.5607519531249996,0.7337695312499999c0.376025390625,0.080654296875,0.745576171875,-0.16189453125,0.82541015625,-0.5417578125c0.079833984375,-0.37986328124999996,-0.160283203125,-0.7531640624999999,-0.536279296875,-0.8338183593749999l-1.390927734375,-0.20909179687499999l1.554990234375,-0.9069140625c0.332900390625,-0.194150390625,0.4469824218749999,-0.6241992187500001,0.254765625,-0.9604980468749998c-0.19221679687499998,-0.33629882812499995,-0.617900390625,-0.4515234375,-0.9508007812499999,-0.257373046875l-1.554990234375,0.9069140625l0.5162402343749999,-1.32140625c0.11885742187500001,-0.36931640625,-0.08109374999999999,-0.76599609375,-0.446689453125,-0.8860839843749999c-0.36556640625,-0.12008789062500001,-0.758291015625,0.081943359375,-0.8771484375,0.45123046875l-0.651328125,2.60712890625l-1.7689453125,1.031689453125V4.21875l1.909423828125,-1.8733886718750001c0.25716796875,-0.2886328125,0.23399414062499999,-0.733212890625,-0.05173828125,-0.9929882812499999c-0.285732421875,-0.25977539062500005,-0.7258300781249999,-0.23636718749999996,-0.98296875,0.052265625l-0.8747167968749999,1.112314453125V0.703125c0,-0.388330078125,-0.311630859375,-0.703125,-0.69603515625,-0.703125s-0.69603515625,0.31479492187499997,-0.69603515625,0.703125v1.813828125l-0.8747167968749999,-1.112314453125c-0.257197265625,-0.2886328125,-0.697236328125,-0.31207031249999995,-0.98296875,-0.052265625c-0.285732421875,0.25977539062500005,-0.30887695312499996,0.70435546875,-0.05173828125,0.9929882812499999L5.866464843749999,4.21875v2.063408203125l-1.7689453125,-1.031689453125l-0.651328125,-2.60712890625c-0.11885742187500001,-0.369287109375,-0.5115820312499999,-0.571318359375,-0.8771484375,-0.45123046875c-0.36556640625,0.12008789062500001,-0.565546875,0.5167968749999999,-0.446689453125,0.8860839843749999l0.5162109375,1.32140625l-1.554990234375,-0.9069140625c-0.332900390625,-0.194150390625,-0.758583984375,-0.07892578125,-0.9508007812499999,0.257373046875s-0.07813476562499999,0.766318359375,0.254765625,0.9604980468749998l1.554990234375,0.9069140625l-1.390927734375,0.20909179687499999C0.175576171875,5.9072460937499995,-0.06454101562499999,6.280517578125,0.015322265625000001,6.660380859375c0.079833984375,0.379833984375,0.449384765625,0.622412109375,0.82541015625,0.5417578125l2.5607519531249996,-0.7337695312499999L5.390625,7.5l-1.989140625,1.031689453125l-2.5607226562500003,-0.733740234375c-0.376025390625,-0.080654296875,-0.745576171875,0.16189453125,-0.82541015625,0.5417578125c-0.079833984375,0.379892578125,0.16025390624999997,0.7531640624999999,0.536279296875,0.8338183593749999l1.390927734375,0.20909179687499999l-1.554990234375,0.9069140625C0.054667968750000004,10.483681640625,-0.059384765625,10.913701171875001,0.132802734375,11.25s0.617900390625,0.4515234375,0.9508007812499999,0.257373046875l1.554990234375,-0.9069140625l-0.5162109375,1.32140625a0.707724609375,0.707724609375,0,0,0,0.05923828124999998,0.5691796875c0.08293945312499999,0.145107421875,0.217265625,0.26100585937500004,0.387421875,0.316875c0.36556640625,0.12008789062500001,0.758291015625,-0.081943359375,0.8771484375,-0.45123046875l0.651328125,-2.60712890625l1.7689453125,-1.031689453125V10.78125l-1.909423828125,1.8733886718750001c-0.25716796875,0.2886328125,-0.23399414062499999,0.733212890625,0.05173828125,0.9929882812499999c0.28576171875,0.25980468749999996,0.72580078125,0.23636718749999996,0.98296875,-0.052265625l0.8747167968749999,-1.112314453125V14.296875c0,0.388330078125,0.311630859375,0.703125,0.69603515625,0.703125s0.69603515625,-0.31479492187499997,0.69603515625,-0.703125v-1.813828125l0.8747167968749999,1.112314453125A0.6911132812499999,0.6911132812499999,0,0,0,8.65083984375,13.828125a0.68947265625,0.68947265625,0,0,0,0.46538085937499996,-0.18049804687499998c0.285732421875,-0.25977539062500005,0.30890625,-0.70435546875,0.05173828125,-0.9929882812499999L7.25853515625,10.78125v-2.063408203125l1.7689453125,1.031689453125l0.651328125,2.60712890625c0.11885742187500001,0.369287109375,0.5115820312499999,0.571318359375,0.8771484375,0.45123046875c0.36559570312499995,-0.12008789062500001,0.565546875,-0.5167968749999999,0.446689453125,-0.8860839843749999l-0.5162402343749999,-1.32140625l1.554990234375,0.9069140625c0.332900390625,0.194150390625,0.758583984375,0.07892578125,0.9508007812499999,-0.257373046875s0.07813476562499999,-0.766318359375,-0.254765625,-0.9604980468749998l-1.554990234375,-0.9069140625l1.390927734375,-0.20909179687499999c0.2009765625,-0.04303710937500001,0.36310546875,-0.169716796875,0.45834960937499997,-0.33635742187499995z" fill="#FFFFFF"/></svg>