<svg version="1.1" xmlns="http://www.w3.org/2000/svg" xlink="http://www.w3.org/1999/xlink" x="0px" y="0px" width="15px" height="15px" viewBox="0 0 15 15" style="enable-background:new 0 0 15 15;" space="preserve"><path d="M6.2888671875,9.11162109375L8.4375,7.5V2.8125H3.75v5.15625l-2.53857421875,1.89287109375c-1.154296875,0.866015625,-1.5779296875,2.4732421875,-0.8557617187500001,3.7224609375C0.89033203125,14.50927734375,1.8536132812500001,15,2.81484375,15c0.5868164062500001,0,1.17919921875,-0.18310546875,1.6851562500000001,-0.5625l0.6404296875,-0.48017578125000004c-0.87451171875,-1.6224609375,-0.3966796875,-3.6867187500000003,1.1484375,-4.845703125zM8.4375,0.9375c0,-0.32373046875,0.08994140625,-0.6240234375,0.2349609375,-0.8900390625C8.595703125,0.026953125,8.52099609375,0,8.4375,0H4.6875c-0.51767578125,0,-0.9375,0.41982421875,-0.9375,0.9375v0.9375h4.6875V0.9375zM14.0625,0H10.3125c-0.51767578125,0,-0.9375,0.41982421875,-0.9375,0.9375v0.9375h5.625V0.9375c0,-0.51767578125,-0.41982421875,-0.9375,-0.9375,-0.9375zM9.375,7.96875l-2.5233398437499996,1.89287109375c-1.154296875,0.866015625,-1.5779296875,2.4732421875,-0.8557617187500001,3.7224609375c0.53466796875,0.9251953125,1.48271484375,1.4159179687499999,2.4439453125,1.4159179687499999c0.5868164062500001,0,1.17919921875,-0.18310546875,1.6851562500000001,-0.5625l3.375,-2.53125A3.749912109375,3.749912109375,0,0,0,15,8.90625V2.8125H9.375v5.15625z" fill="#FFFFFF"/></svg>