<svg version="1.1" xmlns="http://www.w3.org/2000/svg" xlink="http://www.w3.org/1999/xlink" x="0px" y="0px" width="12px" height="15px" viewBox="0 0 12 15" style="enable-background:new 0 0 15 15;" space="preserve">
    <path d="M12.655664062500001,13.125292968750001l-1.4053710937500001,0.00146484375V12.1875h-3.75v0.9436523437500001l-1.4056640624999999,0.00146484375c-0.2583984375,0.00029296875000000004,-0.46787109375,0.209765625,-0.46816406250000003,0.46845703125000004l-0.00146484375,0.9295898437500001c-0.00029296875000000004,0.25927734375,0.21005859375000002,0.46962890625000003,0.4693359375,0.4693359375l6.561328125,-0.007617187500000001c0.2583984375,-0.00029296875000000004,0.46787109375,-0.209765625,0.46816406250000003,-0.46816406250000003l0.0011718750000000002,-0.9295898437500001c0.00029296875000000004,-0.25927734375,-0.21005859375000002,-0.46962890625000003,-0.4693359375,-0.4693359375zM17.14453125,0.7833984374999999C17.0677734375,0.33134765625,16.66962890625,0,16.2029296875,0H2.54677734375C2.080078125,0,1.6819335937500002,0.33134765625,1.60517578125,0.7833984374999999C-0.09726562500000001,10.815234375000003,0.0011718750000000002,10.197656250000001,0.00087890625,10.3125c-0.00087890625,0.507421875,0.41865234375000004,0.9375,0.955078125,0.9375h16.8380859375c0.53408203125,0,0.9524414062500001,-0.4265625,0.95478515625,-0.93134765625c0.0005859375000000001,-0.11953125,0.09814453125,0.49658203125,-1.6042968750000002,-9.53525390625zM7.6122070312500005,1.875h3.52529296875l0.28623046874999997,2.8125H7.3259765625l0.28623046874999997,-2.8125zm-2.20224609375,7.5H2.0827148437500003L2.6396484375,6.09375h3.1045898437500004l-0.33427734375,3.28125zm0.47724609375000004,-4.6875H2.8781250000000003l0.47724609375000004,-2.8125h2.8180664062500003l-0.28623046874999997,2.8125zm0.9615234375,4.6875l0.333984375,-3.28125h4.38427734375l0.333984375,3.28125H6.84873046875zm5.7275390625,-7.5h2.8180664062500003l0.47724609375000004,2.8125H12.8625l-0.28623046874999997,-2.8125zm0.7634765625000001,7.5l-0.333984375,-3.28125H16.1103515625l0.5569335937500001,3.28125H13.339746093750001z" fill="#FFFFFF"/>
    </svg>