<svg version="1.1" xmlns="http://www.w3.org/2000/svg" xlink="http://www.w3.org/1999/xlink" x="0px" y="0px" width="15px" height="15px" viewBox="0 0 15 15" style="enable-background:new 0 0 15 15;" space="preserve">
    <path d="M7,12L7,5.3662178C6.70109931,5.19331309,6.5,4.87014118,6.5,4.5L6.5,2.37889111L1.56201737,2.99613894C1.2880074,3.03039018,1.03811231,2.83602734,1.00386106,2.56201737C0.969609815,2.2880074,1.16397266,2.03811231,1.43798263,2.00386106L6.50836479,1.37006329C6.5720596,0.879166667,6.99175024,0.5,7.5,0.5C7.92155795,0.5,8.28219118,0.760849702,8.42929732,1.12994673L13.4379826,0.503861062C13.7119926,0.469609815,13.9618877,0.663972663,13.9961389,0.937982633C14.0303902,1.2119926,13.8360273,1.46188769,13.5620174,1.49613894L8.5,2.12889111L8.5,4.5C8.5,4.87014118,8.29890069,5.19331309,8,5.3662178L8,12L12.5279955,12C12.7497998,12,12.9450925,12.1461255,13.0076782,12.3589168C13.0855963,12.6238383,12.9340001,12.9017647,12.6690786,12.9796828L7.5,14.5L2.33092135,12.9796828C2.11812998,12.9170971,1.97200451,12.7218043,1.97200451,12.5C1.97200451,12.2238576,2.19586214,12,2.47200451,12L7,12Z" fill="#FFFFFF"/>
    </svg>