<svg version="1.1" xmlns="http://www.w3.org/2000/svg" xlink="http://www.w3.org/1999/xlink" x="0px" y="0px" width="15px" height="15px" viewBox="0 0 15 15" style="enable-background:new 0 0 15 15;" space="preserve">
    <path d="M10.6452,4.5102c-0.0744,0,-0.1452,-0.0501,-0.1452,-0.12329999999999999v-1.8539999999999999c0,-0.0732,-0.0402,-0.1329,-0.1149,-0.1329h-5.770499999999999c-0.0747,0,-0.1146,0.0597,-0.1146,0.1329v1.8539999999999999c0,0.0732,-0.08070000000000001,0.11309999999999999,-0.1557,0.11309999999999999h-3.9095999999999997c-0.07379999999999999,0,-0.1347,0.0801,-0.1347,0.1524v2.061c0,0.0726,0.0609,0.1866,0.1347,0.1866h6.2958c0.0747,0,0.16949999999999998,-0.11399999999999999,0.16949999999999998,-0.1866v-0.4395c0,-0.0732,0.0276,-0.2739,0.10200000000000001,-0.2739h0.9963c0.0744,0,0.1017,0.20070000000000002,0.1017,0.2739v0.4395c0,0.0726,0.0948,0.1866,0.16889999999999997,0.1866h6.2955c0.075,0,0.1356,-0.11399999999999999,0.1356,-0.1866v-2.061c0,-0.0726,-0.0606,-0.1524,-0.1353,-0.1524h-3.9093l-0.0102,0.0102zm-5.217299999999999,-0.0102c-0.0744,0,-0.027899999999999998,-0.0399,-0.027899999999999998,-0.1128v-1.0538999999999998c0,-0.0735,-0.0465,-0.033299999999999996,0.027899999999999998,-0.033299999999999996h4.1442c0.0744,0,0.027899999999999998,-0.0402,0.027899999999999998,0.033299999999999996v1.0538999999999998c0,0.07289999999999999,0.0465,0.1128,-0.027899999999999998,0.1128h-4.1442zm2.6885999999999997,4.4136c0,0.0726,-0.0438,0.08639999999999999,-0.1182,0.08639999999999999h-0.9963c-0.0744,0,-0.10200000000000001,0.0321,-0.10200000000000001,-0.0405v-1.4813999999999998c0,-0.0726,-0.0948,-0.2781,-0.1692,-0.2781h-6.296099999999999c-0.07379999999999999,0,-0.1347,0.20550000000000002,-0.1347,0.2781v4.3887c0,0.07289999999999999,0.0609,0.13319999999999999,0.1347,0.13319999999999999h14.13c0.0747,0,0.1353,-0.0603,0.1353,-0.1329v-4.389c0,-0.0726,-0.0606,-0.2781,-0.1353,-0.2781h-6.2958c-0.0741,0,-0.16889999999999997,0.20550000000000002,-0.16889999999999997,0.2781v1.4813999999999998l0.0165,-0.045899999999999996z" fill="#FFFFFF"/>
    </svg>