<svg version="1.1" xmlns="http://www.w3.org/2000/svg" xlink="http://www.w3.org/1999/xlink" x="0px" y="0px" width="15px" height="15px" viewBox="0 0 15 15" style="enable-background:new 0 0 15 15;" space="preserve">
    <path d="M12,0C13,0,13,0,13,1L13,14C13,15,13,15,12,15L3,15C2,15,2,15,2,14L2,1C2,0,2,0,3,0L12,0zM10,12L4,12L4,13L10,13L10,12zM12,9L11,9L11,9.75L12,9.75L12,9zM10,2L4,2L4,10L10,10L10,2zM12,7.5L11,7.5L11,8.25L12,8.25L12,7.5zM12,6L11,6L11,6.75L12,6.75L12,6zM12,4.5L11,4.5L11,5.25L12,5.25L12,4.5z" fill="#FFFFFF"/> <path d="M6.5,4C6.5,4,6.481,5.481,6.481,5.481C6.481,5.481,5,5.5,5,5.5C4.75,5.5,4.75,6.5,5,6.5C5,6.5,6.481,6.519,6.481,6.519C6.481,6.519,6.5,8,6.5,8C6.5,8.25,7.5,8.25,7.5,8C7.5,8,7.519,6.519,7.519,6.519C7.519,6.519,9,6.5,9,6.5C9.25,6.5,9.25,5.5,9,5.5C9,5.5,7.519,5.481,7.519,5.481C7.519,5.481,7.5,4,7.5,4C7.5,3.75,6.5,3.75,6.5,4z" fill="#FFFFFF"/>
    </svg>