<svg version="1.1" xmlns="http://www.w3.org/2000/svg" xlink="http://www.w3.org/1999/xlink" x="0px" y="0px" width="15px" height="15px" viewBox="0 0 15 15" style="enable-background:new 0 0 15 15;" space="preserve">
    <path d="M11,0C12,0,12,0,12,1L12,14C12,15,12,15,11,15C11,15,4,15,4,15C3,15,3,15,3,14L3,1C3,0,3,0,4,0L11,0zM6.25,8C6.25,8,5.5,8,5.5,8C5,8,5,8.5,5,8.5C5,8.5,5,13.5,5,13.5C5,14,5.5,14,5.5,14L9.5,14C9.5,14,10,14,10,13.5C10,13.5,10,8.5,10,8.5C10,8,9.5,8,9.5,8L8.75,8C8.75,8,8.5,8.984,8.5,8.984C8.5,9.234,6.5,9.234,6.5,8.984C6.5,8.984,6.25,8,6.25,8zM10.5,1L4.5,1C4.5,1,4,1,4,1.5C4,1.5,4,5.5,4,5.5C4,5.5,4,6,4.5,6C4.5,6,10.5,6,10.5,6C10.5,6,11,6,11,5.5C11,5.5,11,1.5,11,1.5C11,1,10.5,1,10.5,1z" fill="#FFFFFF"/> <path d="M6.25,11.5C6.25,11.75,8.75,11.75,8.75,11.5C8.75,11.5,8.5,13.5,8.5,13.5C8.5,14,6.5,14,6.5,13.5C6.5,13.5,6.25,11.5,6.25,11.5zM6.782,9.991L6.3,10.566L6.875,11.048L7.357,10.473L6.782,9.991zM7.643,10.591L7.5,11.327L8.236,11.47L8.379,10.734L7.643,10.591zM7.2,9.731L7.54,10.4L8.209,10.059L7.868,9.391L7.2,9.731z" fill="#FFFFFF"/> <path d="M7.5,1.25L7.687,1.374L7.687,1.968L8.054,1.777L8.25,1.891L8.25,2.078L7.687,2.367L7.687,2.757L8.063,2.545L8.063,2.97L8.438,2.774L8.438,2.163L8.574,2.081L8.719,2.163L8.719,2.553L9.266,2.265L9.469,2.379L9.469,2.6L8.954,2.897L9.281,3.08L9.281,3.292L9.11,3.385L8.61,3.089L8.266,3.309L8.598,3.518L8.255,3.717L8.609,3.903L9.114,3.624L9.281,3.737L9.281,3.939L8.97,4.116L9.469,4.413L9.469,4.647L9.233,4.744L8.719,4.464L8.719,4.834L8.577,4.933L8.438,4.834L8.438,4.272L8.063,4.065L8.063,4.455L7.687,4.243L7.687,4.633L8.156,4.913L8.156,5.135L8.002,5.219L7.687,5.032L7.687,5.627L7.5,5.75L7.313,5.627L7.313,5.032L6.998,5.219L6.844,5.122L6.844,4.913L7.313,4.633L7.313,4.243L6.938,4.472L6.938,4.058L6.562,4.255L6.562,4.816L6.408,4.932L6.282,4.827L6.282,4.452L5.759,4.744L5.531,4.65L5.531,4.413L6.064,4.116L5.719,3.945L5.719,3.727L5.918,3.622L6.407,3.91L6.746,3.714L6.737,3.709L6.394,3.509L6.728,3.3L6.393,3.105L5.905,3.391L5.719,3.3L5.719,3.084L6.051,2.899L5.531,2.612L5.531,2.375L5.749,2.271L6.282,2.571L6.282,2.188L6.421,2.083L6.602,2.193L6.598,2.766L6.942,2.965L6.945,2.561L7.313,2.757L7.313,2.367L6.844,2.087L6.844,1.879L6.998,1.78L7.313,1.968L7.313,1.374L7.5,1.25z" fill="#FFFFFF"/>
    </svg>