<svg version="1.1" xmlns="http://www.w3.org/2000/svg" xlink="http://www.w3.org/1999/xlink" x="0px" y="0px" width="15px" height="15px" viewBox="0 0 15 15" style="enable-background:new 0 0 15 15;" space="preserve"><path d="M12.947999999999999,6.3h-0.648v-2.5896c0,-1.7034,-1.7087999999999999,-3.4104,-3.4122,-3.4104h-2.8443c-1.7025,0,-3.3434999999999997,1.707,-3.3434999999999997,3.4104v2.5896h-0.717c-0.2031,0,-0.483,0.3186,-0.483,0.49799999999999994v7.6373999999999995c0,0.17939999999999998,0.2799,0.2646,0.483,0.2646h10.964999999999998c0.20370000000000002,0,0.552,-0.08519999999999998,0.552,-0.2646v-7.6373999999999995c0,-0.17939999999999998,-0.3483,-0.49799999999999994,-0.552,-0.49799999999999994zm-4.0341,7.199999999999999h-2.8952999999999998l0.6074999999999999,-2.9901c-0.36719999999999997,-0.2601,-0.6074999999999999,-0.7503,-0.6074999999999999,-1.2315c0,-0.7928999999999999,0.6483,-1.4682,1.4475,-1.4682s1.4477999999999998,0.6266999999999999,1.4477999999999998,1.419c0,0.4815,-0.2403,1.0287,-0.6069,1.2891l0.6069,2.9817zm1.2861,-7.199999999999999h-5.3999999999999995v-2.5896c0,-0.7734,0.5079,-1.3104,1.2722999999999998,-1.3104h2.7866999999999997c0.7644,0,1.341,0.537,1.341,1.3104v2.5896z" fill="#FFFFFF"/></svg>