<svg version="1.1" xmlns="http://www.w3.org/2000/svg" xlink="http://www.w3.org/1999/xlink" x="0px" y="0px" width="15px" height="15px" viewBox="0 0 15 15" style="enable-background:new 0 0 15 15;" space="preserve"><path d="M5.79,12.43L5.5,13L9.5,13L9.21,12.43L10.5,12L12,15L10.5,15L10,14L5,14L4.5,15L3,15L4.5,12L5.79,12.43ZM12,1.8L12,5L12.71,5.71C12.89,5.89,13,6.15,13,6.41L13,9.08C13,9.48,12.75,9.85,12.38,10L7.5,12L2.62,10C2.25,9.85,2,9.48,2,9.08L2,6.41C2,6.15,2.11,5.89,2.29,5.71L3,5L3,1.8C3,1.33,3.33,0.93,3.78,0.83L7.28,0.05C7.43,0.02,7.57,0.02,7.72,0.05L11.22,0.83C11.67,0.93,12,1.33,12,1.8ZM4,2.42L4,3.5C4,3.78,4.22,4,4.5,4L6.5,4C6.78,4,7,3.78,7,3.5L7,2.09C7,1.81,6.78,1.59,6.5,1.59C6.47,1.59,6.44,1.59,6.42,1.6L4.42,1.93C4.18,1.97,4,2.18,4,2.42ZM8,2.09L8,3.5C8,3.78,8.22,4,8.5,4L10.5,4C10.78,4,11,3.78,11,3.5L11,2.42C11,2.18,10.82,1.97,10.58,1.93L8.58,1.6C8.31,1.55,8.05,1.74,8.01,2.01C8,2.04,8,2.06,8,2.09ZM7.5,8C8.05,8,8.5,7.55,8.5,7C8.5,6.45,8.05,6,7.5,6C6.95,6,6.5,6.45,6.5,7C6.5,7.55,6.95,8,7.5,8Z" fill="#FFFFFF"/></svg>