<svg version="1.1" xmlns="http://www.w3.org/2000/svg" xlink="http://www.w3.org/1999/xlink" x="0px" y="0px" width="15px" height="15px" viewBox="0 0 15 15" style="enable-background:new 0 0 15 15;" space="preserve">
    <path d="M9.214,0C10.477,0,11.5,1.033,11.5,2.308L11.5,12.692C11.5,13.967,10.477,15,9.214,15L5.786,15C4.523,15,3.5,13.967,3.5,12.692L3.5,2.308C3.5,1.033,4.523,0,5.786,0L9.214,0zM7.5,10.5C6.672,10.5,6,11.172,6,12C6,12.829,6.672,13.5,7.5,13.5C8.329,13.5,9,12.829,9,12C9,11.172,8.329,10.5,7.5,10.5zM7.5,6C6.672,6,6,6.672,6,7.5C6,8.329,6.672,9,7.5,9C8.329,9,9,8.329,9,7.5C9,6.672,8.329,6,7.5,6zM7.5,1.5C6.672,1.5,6,2.172,6,3C6,3.829,6.672,4.5,7.5,4.5C8.329,4.5,9,3.829,9,3C9,2.172,8.329,1.5,7.5,1.5z" fill="#FFFFFF"/>
    </svg>