<svg version="1.1" xmlns="http://www.w3.org/2000/svg" xlink="http://www.w3.org/1999/xlink" x="0px" y="0px" width="15px" height="15px" viewBox="0 0 15 15" style="enable-background:new 0 0 15 15;" space="preserve"><path d="m3.9779999999999998 12.660599999999999-3.678-3.6999.0015.6462 3.4233 3.4461c.3933.4275 1.0671-.0669 1.0671-.0669l-.3231-.3471s-.31829999999999997.20939999999999998-.483.0312l-.0078-.0096zm-3.678-6.9606h3.9v.3h-3.9zm13.971-1.0517999999999998.429.2031-4.273499999999999 8.6487h-.47309999999999997zm-7.0916999999999994-.708-1.7198999999999998 1.9913999999999998c-.10110000000000001.126-.2562.2046-.4293.2046-.3084 0-.5562-.2502-.5562-.558 0-.1668.0717-.3156.1875-.4173l1.8537-2.142c.10260000000000001-.12269999999999999.2562-.2013.429-.2013l2.6844-.0015c.1974 0 .37379999999999997.0804.5043.2046l1.7115 1.7166000000000001 1.4181000000000001-1.4187c.09960000000000001-.08489999999999999.2289-.1359.3687-.1359.31829999999999997 0 .5745.2586.5745.576 0 .1389-.0474.26489999999999997-.129.36479999999999996l-1.71 1.728c-.5187.5205-.9369000000000001.0786-.9369000000000001.0786l-1.0488-1.0569-1.6401 1.9014 1.5027000000000001 1.5069s.31649999999999995.2946.1356.882l-.8421 3.7638c-.0669.3273-.35579999999999995.5727-.6999000000000001.5727-.39449999999999996 0-.7149-.3204-.7149-.7166999999999999 0-.0624.0063-.12269999999999999.0231-.1803l.6918-3.0891-1.7066999999999999-1.6629-1.4685 1.6413s-.2382.2946-.8682.2718l-2.9778.0051c-.333.0063-.6348-.2229-.7098-.5598-.08819999999999999-.38609999999999994.15-.7658999999999999.5352-.8507999999999999.0603-.0135.1206-.0198.17939999999999998-.0165l2.562.0063 3.7874999999999996-4.4034-.9908999999999999-.0048zM13.7475 13.5504c-.0009.29009999999999997-.2412.5496-.5295.5496h-8.718v.3h8.7168c.4851.0026999999999999997.8807999999999999-.37170000000000003.8832-.8592l-.3525.0096z" fill="#FFFFFF"/></svg>