<svg version="1.1" xmlns="http://www.w3.org/2000/svg" xlink="http://www.w3.org/1999/xlink" x="0px" y="0px" width="15px" height="15px" viewBox="0 0 15 15" style="enable-background:new 0 0 15 15;" space="preserve"><path d="M7.5,4C8.052,4,8.5,4.448,8.5,5L8.5,14C8.5,14,8.5,15,7.5,15C6.5,15,6.5,14,6.5,14L6.5,5C6.5,4.448,6.948,4,7.5,4zM4.705,2.529C4.478,2.562,4.581,2.521,4.396,2.646C3.201,3.842,3.201,6.158,4.396,7.354C4.592,7.549,4.908,7.549,5.103,7.354C5.299,7.158,5.299,6.842,5.103,6.646C4.299,5.842,4.299,4.158,5.103,3.354C5.299,3.158,5.299,2.842,5.103,2.646L4.938,2.537L4.705,2.529zM9.955,2.529C9.728,2.562,9.831,2.521,9.646,2.646C9.451,2.842,9.451,3.158,9.646,3.354C10.451,4.158,10.451,5.842,9.646,6.646C9.451,6.842,9.451,7.158,9.646,7.354C9.842,7.549,10.158,7.549,10.353,7.354C11.549,6.158,11.549,3.842,10.353,2.646L10.188,2.537L9.955,2.529zM12.16,0.526C11.718,0.553,11.884,0.473,11.625,0.669C11.443,0.875,11.462,1.191,11.669,1.374C13.703,3.175,13.703,6.825,11.669,8.626C11.462,8.809,11.443,9.125,11.625,9.331C11.809,9.538,12.125,9.557,12.331,9.374C14.816,7.175,14.816,2.825,12.331,0.626L12.16,0.526zM2.84,0.526L2.669,0.626C0.184,2.825,0.184,7.175,2.669,9.374C2.875,9.557,3.191,9.538,3.374,9.331C3.557,9.125,3.538,8.809,3.331,8.626C1.297,6.825,1.297,3.175,3.331,1.374C3.538,1.191,3.557,0.875,3.374,0.669C3.116,0.473,3.282,0.553,2.84,0.526z" fill="#FFFFFF"/></svg>