<svg version="1.1" xmlns="http://www.w3.org/2000/svg" xlink="http://www.w3.org/1999/xlink" x="0px" y="0px" width="15px" height="15px" viewBox="0 0 15 15" style="enable-background:new 0 0 15 15;" space="preserve"><path d="M3.75,1.5C1.5,1.5,0.75,3.5,0.75,6C0.75,8,1.75,8,1.75,6C1.75,3.5,2.75,2.5,3.75,2.5C5.5,2.5,6.5,5.75,6.5,7C6.5,7,6.25,6.75,5.5,6.75C4.25,6.75,3.5,7.75,3.5,9.5C3.5,10.75,4.25,10.75,4.25,9.5C4.25,8.25,5,7.75,5.5,7.75C6,7.75,6.75,8,7,10C7.283,11.98,7.715,11.984,7.966,10C8.25,8,8.75,7.75,9.5,7.75C10,7.75,10.5,8.25,10.5,9C10.5,10.5,11.25,10.5,11.25,9C11.25,7.25,10.25,6.75,9.5,6.75C8.75,6.75,8.5,7,8.5,7C8.75,5.25,9.5,3,11,3C12.5,3,13.25,5,13.25,6.75C13.25,8.5,14.25,8.5,14.25,6.75C14.25,3.5,12.75,2,11,2C8.75,2,7.75,4.5,7.5,6C7.25,4,6.25,1.5,3.75,1.5zM14,11.508C14.276,11.508,14.5,11.731,14.5,12.008C14.5,12.284,14.276,12.508,14,12.508L14,12.508C13.767,12.544,13.555,12.66,13.4,12.838C13.129,13.126,12.783,13.334,12.4,13.438C11.788,13.619,11.127,13.48,10.64,13.068L10.25,12.718C10.246,12.714,10.243,12.71,10.239,12.706C9.935,12.409,9.448,12.414,9.15,12.718C9,12.838,8.88,12.978,8.73,13.088C8.002,13.666,6.964,13.636,6.27,13.018L5.88,12.668C5.595,12.413,5.165,12.413,4.88,12.668C4.69,12.818,4.52,12.998,4.33,13.138C3.631,13.652,2.672,13.628,2,13.078L1.64,12.818C1.476,12.634,1.246,12.522,1,12.508L1,12.508C0.724,12.508,0.5,12.284,0.5,12.008C0.5,11.731,0.724,11.508,1,11.508L1.06,11.508C1.297,11.494,1.534,11.55,1.74,11.668C2.018,11.84,2.283,12.034,2.53,12.248C2.733,12.467,3.038,12.563,3.33,12.498C3.439,12.463,3.541,12.409,3.63,12.338C3.78,12.218,3.92,12.078,4.07,11.948C4.776,11.356,5.804,11.356,6.51,11.948C6.67,12.078,6.82,12.228,6.98,12.358C7.265,12.612,7.695,12.612,7.98,12.358C8.14,12.228,8.29,12.078,8.45,11.948C9.158,11.351,10.192,11.351,10.9,11.948C11.05,12.078,11.19,12.218,11.34,12.338C11.625,12.592,12.055,12.592,12.34,12.338L12.81,11.928C13.142,11.647,13.565,11.498,14,11.508L14,11.508z" fill="#FFFFFF"/></svg>