<svg version="1.1" xmlns="http://www.w3.org/2000/svg" xlink="http://www.w3.org/1999/xlink" x="0px" y="0px" width="15px" height="15px" viewBox="0 0 15 15" style="enable-background:new 0 0 15 15;" space="preserve">
    <path d="M2.55,2.1275999999999997l2.8695,0.7917l1.5927,-1.1193l0.5540999999999999,0.1365l-1.5777,1.1226l8.6955,2.4159l-0.6363,2.3646l-8.7279,-2.4093c-3.3813,-1.0197,-2.7647999999999997,-3.3027,-2.7647999999999997,-3.3027" fill="#FFFFFF"/> <path d="M10.1871,8.177399999999999c-0.0105,-0.1974,-0.048,-0.38549999999999995,-0.11249999999999999,-0.5630999999999999l3.9843,1.1091l-0.1278,0.49169999999999997l-3.7439999999999998,-1.0377zm-3.6198,-0.9995999999999999c0.1074,-0.1563,0.2346,-0.2973,0.3792,-0.41939999999999994l-6.6465000000000005,-1.8359999999999999v0.5288999999999999l6.2673,1.7265zm1.6458,1.7508000000000001c0.3573,0,0.6474,-0.29069999999999996,0.6474,-0.648c0,-0.3585,-0.29009999999999997,-0.6486,-0.6474,-0.6486c-0.3585,0,-0.6483,0.29009999999999997,-0.6483,0.6486c0,0.3573,0.2898,0.648,0.6483,0.648zm6.4869,3.9713999999999996c-0.31529999999999997,0,-0.6153000000000001,-0.07139999999999999,-0.8829,-0.1944c-0.2784,-0.126,-0.5889,-0.2016,-0.9141,-0.2016c-0.324,0,-0.6363,0.0756,-0.9105,0.2016c-0.2715,0.12299999999999998,-0.5709,0.1944,-0.8865,0.1944c-0.31529999999999997,0,-0.6159,-0.07139999999999999,-0.8865,-0.1944c-0.276,-0.126,-0.5859,-0.2016,-0.9105,-0.2016c-0.32580000000000003,0,-0.6357,0.0756,-0.9135,0.2016c-0.26789999999999997,0.12299999999999998,-0.5715,0.1944,-0.8853,0.1944c-0.31349999999999995,0,-0.6153000000000001,-0.07139999999999999,-0.8846999999999999,-0.1944c-0.2778,-0.126,-0.5901,-0.2016,-0.9138,-0.2016c-0.324,0,-0.636,0.0756,-0.9105,0.2016c-0.2694,0.12299999999999998,-0.5727,0.1944,-0.8867999999999999,0.1944c-0.31349999999999995,0,-0.6153000000000001,-0.07139999999999999,-0.8865,-0.1944c-0.2748,-0.126,-0.5868,-0.2016,-0.9107999999999999,-0.2016c-0.3237,0,-0.6357,0.0756,-0.9119999999999999,0.2016c-0.2691,0.12299999999999998,-0.5727,0.1944,-0.8846999999999999,0.1944l-0.0204,-5.2815l7.2681,2.0058c-0.501,-0.2421,-0.849,-0.75,-0.849,-1.3437c0,-0.8261999999999999,0.6680999999999999,-1.4949,1.4937,-1.4949c0.8232,0,1.4931,0.6687,1.4931,1.4949c0,0.8255999999999999,-0.6696000000000001,1.494,-1.4931,1.494l-0.147,-0.0141l6.623399999999999,1.8264l0.010799999999999999,1.3131z" fill="#FFFFFF"/>
    </svg>