<svg version="1.1" xmlns="http://www.w3.org/2000/svg" xlink="http://www.w3.org/1999/xlink" x="0px" y="0px" width="15px" height="15px" viewBox="0 0 15 15" style="enable-background:new 0 0 15 15;" space="preserve"><path d="M12.669899999999998,7.592999999999999c0.10409999999999998,-0.1281,0.3174,-0.2754,0.47369999999999995,-0.327l1.2881999999999998,-0.5258999999999999c0.14759999999999998,-0.0741,0.2682,-0.2697,0.2682,-0.43439999999999995v-3.6747c0,-0.165,-0.1263,-0.348,-0.2805,-0.4065c0,0,-2.6949,-1.0245,-4.500299999999999,-1.0245c-1.68,0,-4.0026,0.8858999999999999,-4.0026,0.8858999999999999c-0.1542,0.0588,-0.4143,0.12329999999999999,-0.5781,0.1437l-4.7406,0.5094c-0.1638,0.0201,-0.2979,0.17159999999999997,-0.2979,0.3366v2.4941999999999998c0,0.165,0.1326,0.32489999999999997,0.2949,0.35519999999999996l4.7385,0.7646999999999999c0.1626,0.027,0.4215,0.099,0.5748,0.15990000000000001l3.2451,0.8301c0.16290000000000002,0.0246,0.34079999999999994,0.1722,0.39449999999999996,0.32849999999999996l1.9077,5.5083c0.054,0.1563,0.22619999999999998,0.2406,0.38249999999999995,0.1881l2.0168999999999997,-0.6783c0.1563,-0.0525,0.2403,-0.2229,0.1863,-0.3792l-1.3241999999999998,-3.8199c-0.054,-0.1563,-0.09960000000000001,-0.2928,-0.1017,-0.30389999999999995l-0.0024,-0.011399999999999999c-0.1587,-0.6522,0.056999999999999995,-0.9189,0.056999999999999995,-0.9189zm-2.3022,-1.9827c-0.7529999999999999,0,-1.3611,-0.6,-1.3611,-1.3395c0,-0.7398,0.6081,-1.3395,1.3611,-1.3395c0.7505999999999999,0,1.3605,0.6,1.3605,1.3395s-0.6099,1.3395,-1.3605,1.3395z" fill="#FFFFFF"/></svg>