<svg version="1.1" xmlns="http://www.w3.org/2000/svg" xlink="http://www.w3.org/1999/xlink" x="0px" y="0px" width="15px" height="15px" viewBox="0 0 15 15" style="enable-background:new 0 0 15 15;" space="preserve"><path d="M2,3L3.5,3C3.77614237,3,4,3.22385763,4,3.5C4,3.77614237,3.77614237,4,3.5,4L2,4L2,3ZM2,2L2,6L5,6L5,2L2,2ZM2,1L5,1C5.55228475,1,6,1.44771525,6,2L6,6C6,6.55228475,5.55228475,7,5,7L2,7C1.44771525,7,1,6.55228475,1,6L1,2C1,1.44771525,1.44771525,1,2,1ZM3,7.5L4,7.5L4,14L3,14L3,7.5ZM13,8C13.5523,8,14,8.4477,14,9L14,12L13,12L13,13C13,13.5523,12.5523,14,12,14C11.4477,14,11,13.5523,11,13L11,12L8,12L8,13C8,13.5523,7.5523,14,7,14C6.4477,14,6,13.5523,6,13L6,12L5,12L5,9C5,8.4477,5.4477,8,6,8L6.89,5.34C6.9582,5.1381,7.1469,5.0016,7.36,5L11.64,5C11.8531,5.0016,12.0418,5.1381,12.11,5.34L13,8ZM7,11C7.5523,11,8,10.5523,8,10C8,9.4477,7.5523,9,7,9C6.4477,9,6,9.4477,6,10C6,10.5523,6.4477,11,7,11ZM7,8L12,8L11.38,6L7.62,6L7,8ZM12,11C12.5523,11,13,10.5523,13,10C13,9.4477,12.5523,9,12,9C11.4477,9,11,9.4477,11,10C11,10.5523,11.4477,11,12,11Z" fill="#FFFFFF"/></svg>