<svg version="1.1" xmlns="http://www.w3.org/2000/svg" xlink="http://www.w3.org/1999/xlink" x="0px" y="0px" width="15px" height="15px" viewBox="0 0 15 15" style="enable-background:new 0 0 15 15;" space="preserve"><path d="M15,3C15,3,15,13,15,13L0.045,13C2.195,12.952,4.838,10.924,4.838,10.924C4.838,10.924,4.336,11.041,3.55,10.588C3.4,10.458,3.26,10.318,3.11,10.198C2.825,9.944,2.395,9.944,2.11,10.198L1.64,10.608C1.322,10.872,0.923,11.017,0.51,11.018C0.234,11.024,0.006,10.804,0,10.528C0,10.525,0,10.522,0,10.518C0,10.242,0.224,10.018,0.5,10.018C0.759,9.996,0.999,9.874,1.17,9.678C1.441,9.389,1.788,9.182,2.17,9.078C2.782,8.897,3.443,9.036,3.93,9.448L4.32,9.798C4.618,10.102,5.105,10.107,5.409,9.809C5.413,9.806,5.416,9.802,5.42,9.798C5.56,9.678,5.69,9.548,5.84,9.428C6.556,9.042,6.85,9.12,6.85,9.12L8.128,7.691L7.94,7.578C7.78,7.448,7.63,7.298,7.47,7.168C7.185,6.914,6.755,6.914,6.47,7.168C6.31,7.298,6.16,7.448,6,7.578C5.292,8.175,4.258,8.175,3.55,7.578C3.4,7.448,3.26,7.308,3.11,7.188C2.825,6.934,2.395,6.934,2.11,7.188L1.64,7.598L1.112,7.907L0.51,8.018C0.51,8.018,0.02,8.036,0.01,7.518C0,7,0.234,7.018,0.51,7.018C0.769,6.996,1.009,6.874,1.18,6.678C1.451,6.389,1.798,6.182,2.18,6.078C2.792,5.897,3.453,6.036,3.94,6.448L4.27,6.788C4.568,7.092,5.055,7.097,5.359,6.799C5.363,6.796,5.366,6.792,5.37,6.788C5.51,6.668,5.64,6.538,5.79,6.418C6.518,5.84,7.556,5.869,8.25,6.488L8.64,6.828L8.799,6.924C10.426,4.835,12.351,3.275,15,3z" fill="#FFFFFF"/></svg>