<svg version="1.1" xmlns="http://www.w3.org/2000/svg" xlink="http://www.w3.org/1999/xlink" x="0px" y="0px" width="15px" height="15px" viewBox="0 0 15 15" style="enable-background:new 0 0 15 15;" space="preserve"><path d="M5,2L3.5,2C3.22385763,2,3,1.77614237,3,1.5C3,1.22385763,3.22385763,1,3.5,1L7.5,1C7.77614237,1,8,1.22385763,8,1.5C8,1.77614237,7.77614237,2,7.5,2L6,2L6,3L7,3C8.1045695,3,9,3.8954305,9,5L9,8L13.1961161,8.83922323C13.6635403,8.93270807,14,9.34312288,14,9.8198039L14,10.00001L10.5,10.00001C10.2238576,10.00001,10,10.2238676,10,10.50001C10,10.7761524,10.2238576,11.00001,10.5,11.00001L14,11.00001L14,12.00001L10.4999988,12.0000012C10.2238571,12.0000012,10,12.2238583,10,12.5C10,12.7761424,10.2238576,13,10.5,13L14,13C14,13.5522847,13.5522847,14,13,14L7,14C5.66666667,13.3333467,5,12.33335,5,11.00001C5,9.66667,5.66666667,8.66666667,7,8L7,5C5.6887,5.00002,4,5.00002,4,5.00002L4,7L4.5,7C4.77614237,7,5,7.22385763,5,7.5L5,8L1,8L1,7.5C1,7.22385763,1.22385763,7,1.5,7L2,7L2,5.00002C2,4.00002,3,3,4,3L5,3L5,2Z" fill="#FFFFFF"/></svg>