<svg version="1.1" xmlns="http://www.w3.org/2000/svg" xlink="http://www.w3.org/1999/xlink" x="0px" y="0px" width="15px" height="15px" viewBox="0 0 15 15" style="enable-background:new 0 0 15 15;" space="preserve"><path d="M6 .5C6 .5 6 2 6 2 6 2 8.5 2 8.5 2 9 2 9 2.5 9 2.5L9 12.5C9 12.5 9 13 8.5 13 8.5 13 6 13 6 13L6 14.5C6 15 3 15 3 14.5L3 13C3 13 .5 13 .5 13 0 13 0 12.5 0 12.5L0 2.5C0 2.5 0 2 .5 2 .5 2 3 2 3 2 3 2 3 .5 3 .5 3 0 6 0 6 .5zM8 3.5C8 3 7.5 3 7.5 3L1.5 3C1.5 3 1 3 1 3.5 1 3.5 1 11.5 1 11.5 1 12 1.5 12 1.5 12L7.5 12C7.5 12 8 12 8 11.5 8 11.5 8 3.5 8 3.5zM5 4.5C5 7.5 5 10.5 5 10.5 5 11 4.5 11 4.5 11L2.5 11C2.5 11 2 11 2 10.5 2 7.5 2 4.5 2 4.5 2 4 2.5 4 2.5 4L4.5 4C4.5 4 5 4 5 4.5zM4 8.25C4 8 3.75 8 3.75 8L3.25 8C3.25 8 3 8 3 8.25 3 8.25 3 9.75 3 9.75 3 10 3.25 10 3.25 10L3.75 10C3.75 10 4 10 4 9.75 4 9.75 4 8.25 4 8.25zM6 4.5C6 4.5 6 6.5 6 6.5 6 6.75 6.25 6.75 6.25 6.75L6.75 6.75C6.75 6.75 7 6.75 7 6.5 7 6.5 7 4.5 7 4.5 7 4.25 6.75 4.25 6.75 4.25L6.25 4.25C6.25 4.25 6 4.25 6 4.5zM6.5 8.875C6.776 8.875 7 9.224 7 9.5 7 9.776 6.776 10.125 6.5 10.125 6.224 10.125 6 9.776 6 9.5 6 9.224 6.224 8.875 6.5 8.875zM7.625 9.5C7.625 8.875 7.125 8.25 6.5 8.25 5.875 8.25 5.375 8.875 5.375 9.5 5.375 10.125 5.875 10.75 6.5 10.75 7.125 10.75 7.625 10.125 7.625 9.5zM11.5 2C11.5 2 10 8 10 8 10 8 12 8 12 8 12 8 11 13 11 13 11 13 15 6 15 6 15 6 13 6 13 6 13 6 14.5 2 14.5 2 14.5 2 11.5 2 11.5 2z" fill="#FFFFFF"/></svg>