<svg version="1.1" xmlns="http://www.w3.org/2000/svg" xlink="http://www.w3.org/1999/xlink" x="0px" y="0px" width="15px" height="15px" viewBox="0 0 15 15" style="enable-background:new 0 0 15 15;" space="preserve"><path d="M2.24828177 10.5462199C1.94661285 10.6833421 1.59090235 10.5499507 1.45378011 10.2482818 1.31665788 9.94661285 1.45004932 9.59090235 1.75171823 9.45378011L12.7517182 4.45378011C13.0533871 4.31665788 13.4090977 4.45004932 13.5462199 4.75171823 13.6833421 5.05338715 13.5499507 5.40909765 13.2482818 5.54621989L2.24828177 10.5462199ZM2 5 2 10 13 10 13 5 2 5ZM2 4 13 4C13.5522847 4 14 4.44771525 14 5L14 10C14 10.5522847 13.5522847 11 13 11L2 11C1.44771525 11 1 10.5522847 1 10L1 5C1 4.44771525 1.44771525 4 2 4Z" fill="#FFFFFF"/></svg>