<svg version="1.1" xmlns="http://www.w3.org/2000/svg" xlink="http://www.w3.org/1999/xlink" x="0px" y="0px" width="15px" height="15px" viewBox="0 0 15 15" style="enable-background:new 0 0 15 15;" space="preserve">
    <path d="M3.9779999999999998,12.660599999999999l-3.678,-3.6999l0.0015,0.6462l3.4233,3.4461c0.3933,0.4275,1.0671,-0.0669,1.0671,-0.0669l-0.3231,-0.3471s-0.31829999999999997,0.20939999999999998,-0.483,0.0312l-0.0078,-0.0096zm-3.678,-6.9606h3.9v0.3h-3.9zm13.971,-1.0517999999999998l0.429,0.2031l-4.273499999999999,8.6487h-0.47309999999999997zm-7.0916999999999994,-0.708l-1.7198999999999998,1.9913999999999998c-0.10110000000000001,0.126,-0.2562,0.2046,-0.4293,0.2046c-0.3084,0,-0.5562,-0.2502,-0.5562,-0.558c0,-0.1668,0.0717,-0.3156,0.1875,-0.4173l1.8537,-2.142c0.10260000000000001,-0.12269999999999999,0.2562,-0.2013,0.429,-0.2013l2.6844,-0.0015c0.1974,0,0.37379999999999997,0.0804,0.5043,0.2046l1.7115,1.7166000000000001l1.4181000000000001,-1.4187c0.09960000000000001,-0.08489999999999999,0.2289,-0.1359,0.3687,-0.1359c0.31829999999999997,0,0.5745,0.2586,0.5745,0.576c0,0.1389,-0.0474,0.26489999999999997,-0.129,0.36479999999999996l-1.71,1.728c-0.5187,0.5205,-0.9369000000000001,0.0786,-0.9369000000000001,0.0786l-1.0488,-1.0569l-1.6401,1.9014l1.5027000000000001,1.5069s0.31649999999999995,0.2946,0.1356,0.882l-0.8421,3.7638c-0.0669,0.3273,-0.35579999999999995,0.5727,-0.6999000000000001,0.5727c-0.39449999999999996,0,-0.7149,-0.3204,-0.7149,-0.7166999999999999c0,-0.0624,0.0063,-0.12269999999999999,0.0231,-0.1803l0.6918,-3.0891l-1.7066999999999999,-1.6629l-1.4685,1.6413s-0.2382,0.2946,-0.8682,0.2718l-2.9778,0.0051c-0.333,0.0063,-0.6348,-0.2229,-0.7098,-0.5598c-0.08819999999999999,-0.38609999999999994,0.15,-0.7658999999999999,0.5352,-0.8507999999999999c0.0603,-0.0135,0.1206,-0.0198,0.17939999999999998,-0.0165l2.562,0.0063l3.7874999999999996,-4.4034l-0.9908999999999999,-0.0048z" fill="#FFFFFF"/> <path d="M13.7475,13.5504c-0.0009,0.29009999999999997,-0.2412,0.5496,-0.5295,0.5496h-8.718v0.3h8.7168c0.4851,0.0026999999999999997,0.8807999999999999,-0.37170000000000003,0.8832,-0.8592l-0.3525,0.0096z" fill="#FFFFFF"/>
    </svg>