<svg version="1.1" xmlns="http://www.w3.org/2000/svg" xlink="http://www.w3.org/1999/xlink" x="0px" y="0px" width="15px" height="15px" viewBox="0 0 15 15" style="enable-background:new 0 0 15 15;" space="preserve">
    <path d="M4,7L4,14L2,14L2,7.78L1,8.16L1,6L14,1L14,3.14L4,7ZM6.75,7L12.25,7C12.6655,7,13,7.3345,13,7.75C13,8.1655,12.6655,8.5,12.25,8.5L11,8.5L11.4609,10L13.25,10C13.6655,10,14,10.3345,14,10.75C14,11.1655,13.6655,11.5,13.25,11.5L11.9238,11.5L13,14L12,14L10.9239,11.5L8.0762,11.5L7,14L6,14L7.0762,11.5L5.75,11.5C5.3345,11.5,5,11.1655,5,10.75C5,10.3345,5.3345,10,5.75,10L7.5391,10L8,8.5L6.75,8.5C6.3345,8.5,6,8.1655,6,7.75C6,7.3345,6.3345,7,6.75,7ZM9,8.5L8.5391,10L10.4609,10L10,8.5L9,8.5Z" fill="#FFFFFF"/>
    </svg>