<svg version="1.1" xmlns="http://www.w3.org/2000/svg" xlink="http://www.w3.org/1999/xlink" x="0px" y="0px" width="15px" height="15px" viewBox="0 0 15 15" style="enable-background:new 0 0 15 15;" space="preserve">
    <path d="M2.75,9.75C2,9.75,1.5,10.25,1.5,11C1.5,11.75,2,12.25,2.75,12.25C3.5,12.25,4,11.75,4,11C4,10.25,3.5,9.75,2.75,9.75zM11.75,9.75C11,9.75,10.5,10.25,10.5,11C10.5,11.75,11,12.25,11.75,12.25C12.5,12.25,13,11.75,13,11C13,10.25,12.5,9.75,11.75,9.75zM14.5,3C14.5,3,5.5,3,5.5,3C4.91,3,5,3.5,5,3.5C5,3.5,5,7,5,7L4.25,7L4.25,4.5C4.25,4,3.75,4,3.75,4C3.75,4,2,4,2,4C0.5,4,0.5,6,0.5,7C0.5,7,0,7,0,7.5C0,7.5,0,11,0,11L1,11C1,9.75,1.75,9.25,2.75,9.25C3.75,9.25,4.5,9.75,4.5,11C4.5,11,10,11,10,11C10,9.75,10.75,9.25,11.75,9.25C12.75,9.25,13.5,9.75,13.5,11C13.5,11,15,11,15,11C15,11,15,3.5,15,3.5C15,3.5,15,3,14.5,3zM3,5L3,7C3,7,1.5,7,1.5,7C1.5,6,1.5,5,2,5C2,5,3,5,3,5z" fill="#FFFFFF"/>
    </svg>