<svg version="1.1" xmlns="http://www.w3.org/2000/svg" xlink="http://www.w3.org/1999/xlink" x="0px" y="0px" width="15px" height="15px" viewBox="0 0 15 15" style="enable-background:new 0 0 15 15;" space="preserve">
    <path d="M0,0C0,1.071,0.701,1.756,1.071,2.126C1.442,2.496,1.974,2.353,1.974,2.632C1.974,2.632,2.143,3.198,2.679,3.198L4.018,3.198C4.018,3.506,4.286,3.733,4.286,3.733C4.286,3.733,4.018,3.884,4.018,4.269L2.679,4.269C2.143,4.269,2.143,4.537,2.143,4.805C2.143,5.37,2.143,5.876,2.143,5.876C2.143,6.133,2.39,6.412,2.679,6.412C2.967,6.412,4.018,6.412,4.018,6.412L4.018,7.483L3.214,7.483C3.214,7.918,3.504,8.267,4.018,8.555C4.018,8.894,4.018,14.448,4.018,14.448C4.018,15.153,5.625,15.214,5.625,14.448L5.625,6.412L9.375,6.412L9.375,14.448C9.375,15.189,10.982,15.137,10.982,14.448C10.982,14.448,10.982,8.894,10.982,8.555C11.496,8.221,11.786,7.92,11.786,7.483L10.982,7.483L10.982,6.412C10.982,6.412,12.033,6.412,12.321,6.412C12.558,6.412,12.857,6.133,12.857,5.876C12.857,5.876,12.857,5.34,12.857,4.805C12.857,4.269,12.563,4.269,12.321,4.269L10.982,4.269C11.008,3.986,10.714,3.733,10.714,3.733C10.714,3.733,10.982,3.506,10.982,3.198L12.321,3.198C12.857,3.198,12.857,2.662,12.857,2.662C12.857,2.409,13.482,2.513,13.929,2.126C14.376,1.739,15,1.071,15,0C8.571,1.071,5.357,1.071,0,0zM5.625,3.198C5.625,3.198,6.696,3.198,6.696,3.198L6.696,4.269L5.625,4.269C5.625,3.961,5.357,3.733,5.357,3.733C5.357,3.733,5.625,3.531,5.625,3.198zM8.304,3.198L9.375,3.198C9.375,3.481,9.643,3.733,9.643,3.733C9.643,3.733,9.375,3.986,9.375,4.269L8.304,4.269z" fill="#FFFFFF"/>
    </svg>