<svg version="1.1" xmlns="http://www.w3.org/2000/svg" xlink="http://www.w3.org/1999/xlink" x="0px" y="0px" width="15px" height="15px" viewBox="0 0 15 15" style="enable-background:new 0 0 15 15;" space="preserve"><path d="M14.71,5.29C15.07,5.65,15.1,6.22,14.79,6.61L14.71,6.71L11,10.41L11,14L9,14L9,11L2,11L2,14L0,14L0,10C0,9.49,0.39,9.06,0.88,9.01L1,9L9.58,9L13.29,5.29C13.68,4.9,14.32,4.9,14.71,5.29ZM12.06,3.69C12.61,4.24,12.64,5.11,12.16,5.7L12.06,5.81L9.56,8.31C9.09,8.78,8.37,8.88,7.79,8.57L7.67,8.5L5.44,7.01L2.74,8.55C2.07,8.94,1.22,8.74,0.78,8.12L0.7,7.99C0.31,7.32,0.51,6.47,1.13,6.03L1.26,5.95L4.76,3.95C5.2,3.69,5.75,3.69,6.2,3.92L6.33,4L8.31,5.32L9.94,3.69C10.53,3.1,11.47,3.1,12.06,3.69ZM13,0.75C13.83,0.75,14.5,1.42,14.5,2.25C14.5,3.08,13.83,3.75,13,3.75C12.17,3.75,11.5,3.08,11.5,2.25C11.5,1.42,12.17,0.75,13,0.75Z" fill="#FFFFFF"/></svg>