<svg version="1.1" xmlns="http://www.w3.org/2000/svg" xlink="http://www.w3.org/1999/xlink" x="0px" y="0px" width="15px" height="15px" viewBox="0 0 15 15" style="enable-background:new 0 0 15 15;" space="preserve"><path d="M11,8.92305898L12.1063391,13.3484152C12.190057,13.6832871,11.9864566,14.0226211,11.6515848,14.1063391C11.3167129,14.190057,10.9773789,13.9864566,10.8936609,13.6515848L9.89656138,9.66318655C9.40736429,9.83742075,8.81676908,9.9440562,8.12477575,9.98309291C8.12492494,9.98871044,8.125,9.99434646,8.125,10L8.125,13.5C8.125,13.845178,7.84517797,14.125,7.5,14.125C7.15482203,14.125,6.875,13.845178,6.875,13.5L6.875,10C6.875,9.99434646,6.87507506,9.98871044,6.87522425,9.98309291C6.18323092,9.9440562,5.59263571,9.83742075,5.10343862,9.66318655L4.10633906,13.6515848C4.02262111,13.9864566,3.68328705,14.190057,3.34841523,14.1063391C3.01354342,14.0226211,2.80994298,13.6832871,2.89366094,13.3484152L4,8.92305898L4,4.5L11,4.5L11,8.92305898ZM7.5,1L12,3L12,4L3,4L3,3L7.5,1Z" fill="#FFFFFF"/></svg>