<svg version="1.1" xmlns="http://www.w3.org/2000/svg" xlink="http://www.w3.org/1999/xlink" x="0px" y="0px" width="15px" height="15px" viewBox="0 0 15 15" style="enable-background:new 0 0 15 15;" space="preserve">
    <path d="M7.5,3C6.16666667,5.25,6.16666667,8.25,7.5,12C7.26744186,12,6.26744186,12,4.5,12C4.5,6.54545455,5.5,3.54545455,7.5,3ZM4.5,3C3.16666667,5.25,3.16666667,8.25,4.5,12C4.26744186,12,3.26744186,12,1.5,12C1.5,6.54545455,2.5,3.54545455,4.5,3ZM10.5,3C9.16666667,5.25,9.16666667,8.25,10.5,12C10.2674419,12,9.26744186,12,7.5,12C7.5,6.54545455,8.5,3.54545455,10.5,3ZM13.5,3C12.1666667,5.25,12.1666667,8.25,13.5,12C13.2674419,12,12.2674419,12,10.5,12C10.5,6.54545455,11.5,3.54545455,13.5,3Z" fill="#FFFFFF"/>
    </svg>