<svg version="1.1" xmlns="http://www.w3.org/2000/svg" xlink="http://www.w3.org/1999/xlink" x="0px" y="0px" width="15px" height="15px" viewBox="0 0 15 15" style="enable-background:new 0 0 15 15;" space="preserve">
    <path d="M11,6C11.5523,6,12,6.4477,12,7L12,10L11,10L11,11C11,11.5523,10.5523,12,10,12C9.4477,12,9,11.5523,9,11L9,10L6,10L6,11C6,11.5523,5.5523,12,5,12C4.4477,12,4,11.5523,4,11L4,10L3,10L3,7C3,6.4477,3.4477,6,4,6L4.89,3.34C4.9582,3.1381,5.1469,3.0016,5.36,3L9.64,3C9.8531,3.0016,10.0418,3.1381,10.11,3.34L11,6ZM5,9C5.5523,9,6,8.5523,6,8C6,7.4477,5.5523,7,5,7C4.4477,7,4,7.4477,4,8C4,8.5523,4.4477,9,5,9ZM5,6L10,6L9.38,4L5.62,4L5,6ZM10,9C10.5523,9,11,8.5523,11,8C11,7.4477,10.5523,7,10,7C9.4477,7,9,7.4477,9,8C9,8.5523,9.4477,9,10,9ZM11.5,13L11,12L13,12L14,14L1,14L2,12L4,12L3.5,13L11.5,13ZM11.5,2L3.5,2L4,3L2,3L1,1L14,1L13,3L11,3L11.5,2Z" fill="#FFFFFF"/>
    </svg>