<svg version="1.1" xmlns="http://www.w3.org/2000/svg" xlink="http://www.w3.org/1999/xlink" x="0px" y="0px" width="15px" height="15px" viewBox="0 0 15 15" style="enable-background:new 0 0 15 15;" space="preserve">
    <path d="M1.5,1L1.5,1C1.77614237,1,2,1.22385763,2,1.5L2,13.5C2,13.7761424,1.77614237,14,1.5,14L1.5,14C1.22385763,14,1,13.7761424,1,13.5L1,1.5C1,1.22385763,1.22385763,1,1.5,1ZM13.5,1L13.5,1C13.7761424,1,14,1.22385763,14,1.5L14,13.5C14,13.7761424,13.7761424,14,13.5,14L13.5,14C13.2238576,14,13,13.7761424,13,13.5L13,1.5C13,1.22385763,13.2238576,1,13.5,1ZM9,3.24957148C9,3.94034967,8.44,4.5,7.7496,4.5C7.06,4.5,6.5,3.94034967,6.5,3.24957148C6.5,2.55965033,7.06,2,7.7496,2C8.44,2,9,2.55965033,9,3.24957148ZM6.5,4.75L7.2504,4.75L11.5,7.72942857L11.5,8.41692857L11,8.41692857L8.5,6.64042857L8.5,8.41692857L9.5,10.25L10.5,12.5419286L10,13L9.5,13L8.5,10.7080714L6.5,7.95807143L6.5,5.82407143L5.2504,6.8125L4.2504,8.41692857L3.5,8.41692857L3.5,7.95807143L4.2504,6.58307143L6.5,4.75ZM6.9216,9.51928571L5.7656,13L5.2496,13L4.7496,12.5419286L6.156,8.67464286L6.9216,9.51928571Z" fill="#FFFFFF"/>
    </svg>