<svg version="1.1" xmlns="http://www.w3.org/2000/svg" xlink="http://www.w3.org/1999/xlink" x="0px" y="0px" width="15px" height="15px" viewBox="0 0 15 15" style="enable-background:new 0 0 15 15;" space="preserve"><path d="M10.3851,2.6205c0.6342,0,1.1463,-0.5202,1.1463,-1.1603999999999999c0,-0.6399,-0.5121,-1.1601,-1.1463,-1.1601c-0.6348,0,-1.1507999999999998,0.5202,-1.1507999999999998,1.1603999999999999c0,0.6399,0.516,1.1601,1.1507999999999998,1.1601zm3.0839999999999996,4.4258999999999995c-0.2001,0.46529999999999994,-0.6273000000000001,0.32549999999999996,-0.6273000000000001,0.32549999999999996l-1.7988000000000002,-0.6849c-0.1803,-0.06509999999999999,-0.31889999999999996,-0.21569999999999998,-0.3669,-0.40049999999999997l-0.4068,-1.1979l-0.6348,1.7628000000000001l1.8666,1.9748999999999999c0.2337,0.41459999999999997,0.1989,0.7188,0.1989,0.7188v2.7246s1.2188999999999999,0.5442,1.2188999999999999,1.2149999999999999c0,0.6711,-0.5322,1.2153,-1.1973,1.2153c-0.0948,0,-0.1833,-0.0102,-0.2748,-0.0342l-3.9468,-0.8862v-0.5889l3,-0.6642v-2.4813l-2.0157,-2.0094l-0.31589999999999996,2.1054c-0.0504,0.2673,-0.24569999999999997,0.5169,-0.3549,0.6402l-1.386,1.6188c-0.0201,-0.0174,-0.0483,-0.0174,-0.07529999999999999,-0.0138l0.0735,0.0138c0.35879999999999995,0.28409999999999996,0.5454,0.7595999999999999,0.4335,1.2356999999999998c-0.1518,0.6537,-0.8037,1.0574999999999999,-1.4486999999999999,0.9036c-0.0948,-0.0237,-0.183,-0.0549,-0.26789999999999997,-0.0957l-3.6426,-1.7874l0.1359,-0.5718l3.3405,0.048l1.5881999999999998,-1.8513l0.49139999999999995,-3.6422999999999996l1.0311,-2.7555l-1.4274,0.8283l-0.8517,1.6842c-0.258,0.534,-0.7226999999999999,0.2532,-0.7226999999999999,0.2532c-0.4209,-0.243,-0.258,-0.6537,-0.258,-0.6537l0.8721,-1.7798999999999998c0.2343,-0.4518,0.4209,-0.5202,0.4209,-0.5202l2.0382,-1.1261999999999999c0.44430000000000003,-0.3081,0.9602999999999999,-0.0684,0.9602999999999999,-0.0684l1.1739,0.4485c0.5871,0.21239999999999998,0.6111,0.5442,0.6111,0.5442l0.7263,2.3447999999999998l1.5642,0.5577s0.4209,0.1815,0.2748,0.6504zm-1.8323999999999998,7.1025l0.0921,0.0069c0.3666,0,0.6507,-0.30119999999999997,0.6507,-0.6711c0,-0.3693,-0.37949999999999995,-0.6705,-0.6795,-0.6705v0.1404c0,0.3525,-0.27,0.6399,-0.6204,0.6399c-0.3084,0,-0.546,-0.2259,-0.6029999999999999,-0.5202l-1.8434999999999997,0.4107l3.0036,0.6639zm-6.1884,-0.16770000000000002l0.0846,0.0276c0.3597,0.08519999999999998,0.7161,-0.1374,0.8009999999999999,-0.4965c0.0642,-0.2739,-0.0477,-0.5478,-0.2616,-0.7017l-0.2715,0.3186c-0.2307,0.2667,-0.6312,0.2973,-0.8958,0.0648c-0.156,-0.1371,-0.21689999999999998,-0.33149999999999996,-0.20669999999999997,-0.5235l-2.0208,-0.0345l2.7708,1.3452z" fill="#FFFFFF"/></svg>