<svg version="1.1" xmlns="http://www.w3.org/2000/svg" xlink="http://www.w3.org/1999/xlink" x="0px" y="0px" width="15px" height="15px" viewBox="0 0 15 15" style="enable-background:new 0 0 15 15;" space="preserve">
    <path d="M2,3C2,1.9,2.9,1,4,1L11,1C12.1,1,13,1.9,13,3L13,11C13,12,12,12,12,12L12,13C12,13.55,11.55,14,11,14C10.45,14,10,13.55,10,13L10,12L5,12L5,13C5,13.55,4.55,14,4,14C3.45,14,3,13.55,3,13L3,12C2,12,2,11,2,11L2,3ZM3.5,4C3.22,4,3,4.22,3,4.5L3,7.5C3,7.78,3.22,8,3.5,8L6.5,8C6.78,8,7,7.78,7,7.5L7,4.5C7,4.22,6.78,4,6.5,4L3.5,4ZM8.5,4C8.22,4,8,4.22,8,4.5L8,7.5C8,7.78,8.22,8,8.5,8L11.5,8C11.78,8,12,7.78,12,7.5L12,4.5C12,4.22,11.78,4,11.5,4L8.5,4ZM3,2.5C3,2.91,3.34,3.25,3.75,3.25C4.16,3.25,4.5,2.91,4.5,2.5C4.5,2.09,4.16,1.75,3.75,1.75C3.34,1.75,3,2.09,3,2.5ZM10.5,2.5C10.5,2.91,10.84,3.25,11.25,3.25C11.66,3.25,12,2.91,12,2.5C12,2.09,11.66,1.75,11.25,1.75C10.84,1.75,10.5,2.09,10.5,2.5ZM8.5,2.5C8.5,2.91,8.84,3.25,9.25,3.25C9.66,3.25,10,2.91,10,2.5C10,2.09,9.66,1.75,9.25,1.75C8.84,1.75,8.5,2.09,8.5,2.5ZM5,2.5C5,2.91,5.34,3.25,5.75,3.25C6.16,3.25,6.5,2.91,6.5,2.5C6.5,2.09,6.16,1.75,5.75,1.75C5.34,1.75,5,2.09,5,2.5ZM4,9C3.45,9,3,9.45,3,10C3,10.55,3.45,11,4,11C4.55,11,5,10.55,5,10C5,9.45,4.55,9,4,9ZM11,9C10.45,9,10,9.45,10,10C10,10.55,10.45,11,11,11C11.55,11,12,10.55,12,10C12,9.45,11.55,9,11,9Z" fill="#FFFFFF"/>
    </svg>