<svg version="1.1" xmlns="http://www.w3.org/2000/svg" xlink="http://www.w3.org/1999/xlink" x="0px" y="0px" width="15px" height="15px" viewBox="0 0 15 15" style="enable-background:new 0 0 15 15;" space="preserve"><path d="M1,3L14,3L14,12L1,12L1,3ZM2,4L2,11L13,11L13,4L2,4ZM2,4L3,4C3,4.55228475,2.55228475,5,2,5L2,4ZM2,10C2.55228475,10,3,10.4477153,3,11L2,11L2,10ZM13,10L13,11L12,11C12,10.4477153,12.4477153,10,13,10ZM12,4L13,4L13,5C12.4477153,5,12,4.55228475,12,4ZM4.5,5L5.5,5C5.77614237,5,6,5.22385763,6,5.5C6,5.77614237,5.77614237,6,5.5,6L4.5,6C4.22385763,6,4,5.77614237,4,5.5C4,5.22385763,4.22385763,5,4.5,5ZM7.5,5L10.5,5C10.7761424,5,11,5.22385763,11,5.5C11,5.77614237,10.7761424,6,10.5,6L7.5,6C7.22385763,6,7,5.77614237,7,5.5C7,5.22385763,7.22385763,5,7.5,5ZM4.5,9L5.5,9C5.77614237,9,6,9.22385763,6,9.5C6,9.77614237,5.77614237,10,5.5,10L4.5,10C4.22385763,10,4,9.77614237,4,9.5C4,9.22385763,4.22385763,9,4.5,9ZM7.5,9L10.5,9C10.7761424,9,11,9.22385763,11,9.5C11,9.77614237,10.7761424,10,10.5,10L7.5,10C7.22385763,10,7,9.77614237,7,9.5C7,9.22385763,7.22385763,9,7.5,9ZM4.5,7L7.5,7C7.77614237,7,8,7.22385763,8,7.5C8,7.77614237,7.77614237,8,7.5,8L4.5,8C4.22385763,8,4,7.77614237,4,7.5C4,7.22385763,4.22385763,7,4.5,7ZM9.5,7L10.5,7C10.7761424,7,11,7.22385763,11,7.5C11,7.77614237,10.7761424,8,10.5,8L9.5,8C9.22385763,8,9,7.77614237,9,7.5C9,7.22385763,9.22385763,7,9.5,7Z" fill="#FFFFFF"/></svg>