<svg version="1.1" xmlns="http://www.w3.org/2000/svg" xlink="http://www.w3.org/1999/xlink" x="0px" y="0px" width="15px" height="15px" viewBox="0 0 15 15" style="enable-background:new 0 0 15 15;" space="preserve">
    <path d="M6,0.5C6,0.5,6,2,6,2C6,2,8.5,2,8.5,2C9,2,9,2.5,9,2.5L9,12.5C9,12.5,9,13,8.5,13C8.5,13,6,13,6,13L6,14.5C6,15,3,15,3,14.5L3,13C3,13,0.5,13,0.5,13C0,13,0,12.5,0,12.5L0,2.5C0,2.5,0,2,0.5,2C0.5,2,3,2,3,2C3,2,3,0.5,3,0.5C3,0,6,0,6,0.5zM4.5,3.75C2.25,3.75,0.75,5.25,0.75,7.5C0.75,9.75,2.25,11.25,4.5,11.25C6.75,11.25,8.25,9.75,8.25,7.5C8.25,5.25,6.75,3.75,4.5,3.75z" fill="#FFFFFF"/> <path d="M4.5,4.5C6.2,4.5,7.5,5.9,7.5,7.5C7.5,9.1,6.2,10.5,4.5,10.5C2.8,10.5,1.5,9.2,1.5,7.5C1.5,5.8,2.8,4.5,4.5,4.5zM3.9,8.2C3.9,8.2,2.75,9,2.75,9C2.75,9,3.3,9.8,4.5,9.8C5.7,9.8,6.25,9,6.25,9C6.25,9,5.1,8.2,5.1,8.2C4.725,8.45,4.275,8.45,3.9,8.2zM4.1,5.2C3.1,5.4,2.2,6.4,2.2,7.5C2.2,8.125,2.375,8.375,2.375,8.375C2.375,8.375,3.6,7.6,3.6,7.6C3.6,7.6,3.5,7,4.1,6.7C4.1,6.7,4.1,5.2,4.1,5.2zM4.9,5.2C4.9,5.2,4.9,6.7,4.9,6.7C5.5,7,5.4,7.6,5.4,7.6C5.4,7.6,6.625,8.375,6.625,8.375C6.625,8.375,6.8,8.1,6.8,7.5C6.8,6.4,5.9,5.4,4.9,5.2z" fill="#FFFFFF"/> <path d="M12,4.75C13.5,4.75,14.75,6,14.75,7.5C14.75,9,13.5,10.25,12,10.25C10.5,10.25,9.25,9,9.25,7.5C9.25,6,10.5,4.75,12,4.75zM12,5.125C10.75,5.125,9.625,6.25,9.625,7.5C9.625,8.75,10.75,9.875,12,9.875C13.25,9.875,14.375,8.75,14.375,7.5C14.375,6.25,13.25,5.125,12,5.125zM10.295,7.323C10.385,7.333,10.823,7.377,10.93,7.39C11.038,7.403,10.996,7.717,10.897,7.708C10.798,7.698,10.368,7.654,10.262,7.641C10.156,7.628,10.206,7.314,10.295,7.323zM13.054,7.324C13.183,7.307,13.542,7.276,13.683,7.263C13.825,7.25,13.831,7.584,13.703,7.597C13.574,7.61,13.234,7.642,13.099,7.655C12.964,7.668,12.926,7.34,13.054,7.324zM11.941,7.363C11.975,7.265,12.258,7.352,12.223,7.467C12.187,7.587,12.068,7.968,12.031,8.07C11.994,8.172,11.679,8.098,11.722,7.985C11.765,7.872,11.91,7.449,11.941,7.363zM12.74,8.258C12.849,8.297,13.248,8.449,13.336,8.486C13.423,8.524,13.318,8.829,13.222,8.784C13.103,8.745,12.736,8.604,12.626,8.556C12.516,8.507,12.632,8.218,12.74,8.258zM10.984,8.287C11.013,8.357,11.181,8.818,11.209,8.91C11.237,9.002,10.955,9.117,10.915,9.015C10.874,8.912,10.751,8.522,10.713,8.42C10.676,8.318,10.956,8.218,10.984,8.287zM11.761,8.792C11.865,8.831,12.263,8.956,12.368,8.99C12.473,9.024,12.384,9.33,12.27,9.293C12.156,9.256,11.768,9.134,11.663,9.096C11.558,9.057,11.658,8.754,11.761,8.792zM14,6.625C13.75,7,13.375,7,13,6.625C12.625,7,12.375,7,12,6.625C11.625,7,11.375,7,11,6.625C10.625,7,10.375,7,10,6.625C9.888,7.031,9.875,7.5,9.875,7.5C9.875,8.625,10.75,9.625,12,9.625C13.25,9.625,14.125,8.625,14.125,7.5C14.125,7.5,14.125,7,14,6.625z" fill="#FFFFFF"/>
    </svg>