<svg version="1.1" xmlns="http://www.w3.org/2000/svg" xlink="http://www.w3.org/1999/xlink" x="0px" y="0px" width="15px" height="15px" viewBox="0 0 15 15" style="enable-background:new 0 0 15 15;" space="preserve">
    <path d="M0.0885,8.2743c0.12299999999999998,0.9524999999999999,0.9350999999999999,1.6878,1.9215,1.6878c0.9851999999999999,0,1.7967,-0.7353,1.92,-1.6878h-3.8415zm10.466099999999999,3.8997c0,0.16590000000000002,-0.1338,0.30089999999999995,-0.2994,0.30089999999999995h-5.596799999999999c-0.16440000000000002,0,-0.3,-0.135,-0.3,-0.30089999999999995c0,-0.1647,0.1353,-0.2979,0.3,-0.2979h5.5965c0.1656,0,0.29969999999999997,0.13319999999999999,0.29969999999999997,0.2979zm-6.1635,0.4542h6.1311v0.8661h-6.1311zm6.6789000000000005,-4.353899999999999c0.12269999999999999,0.9524999999999999,0.9357,1.6878,1.9205999999999999,1.6878c0.9855,0,1.7973,-0.7353,1.9197,-1.6878h-3.8403zm3.7346999999999997,-0.6026999999999999l-1.5729,-2.1666h0.8409c0.2046,0,0.3693,-0.16770000000000002,0.3693,-0.375c0,-0.20550000000000002,-0.165,-0.3714,-0.3693,-0.3714h-4.4544c-0.2655,-0.7323,-0.9062999999999999,-1.2825,-1.6902000000000001,-1.4196v-1.1690999999999998c0,-0.20789999999999997,-0.1668,-0.37379999999999997,-0.3735,-0.37379999999999997l-0.0348,0.0039l-0.0348,-0.0039c-0.20669999999999997,0,-0.3729,0.16590000000000002,-0.3729,0.37379999999999997v1.1684999999999999c-0.7838999999999999,0.1371,-1.4244,0.6872999999999999,-1.6895999999999998,1.4196h-4.4553c-0.2031,0,-0.3687,0.16590000000000002,-0.3687,0.3714c0,0.20759999999999998,0.1656,0.375,0.3687,0.375h0.8024999999999999l-1.5732,2.1666h-0.1965v0.4002h4.0194v-0.4002h-0.1974l-1.5726,-2.166h3.6507c0,-0.0846,0.0093,-0.16770000000000002,0.0219,-0.24719999999999998c0.012899999999999998,-0.0375,0.021599999999999998,-0.0756,0.021599999999999998,-0.1149c0.1374,-0.579,0.5898,-1.0389,1.1684999999999999,-1.1799v4.1091h-0.0156c-0.0321,1.5456,-0.7674,2.8935,-1.8581999999999999,3.651h4.5642c-1.0911,-0.7575,-1.8258,-2.1054,-1.8597,-3.651h-0.0144v-4.1091c0.5778,0.141,1.0317,0.6009,1.1682,1.1799c0.0012,0.0393,0.0093,0.0774,0.0225,0.1149c0.012,0.0798,0.0195,0.1626,0.0195,0.24719999999999998h3.6125999999999996l-1.5732,2.1666h-0.1962v0.4002h4.0182v-0.4002h-0.1953zm-12.9552,0h-1.2554999999999998l1.2554999999999998,-1.7294999999999998v1.7294999999999998zm0.3213,0v-1.7294999999999998l1.2554999999999998,1.7294999999999998h-1.2554999999999998zm10.6596,0h-1.2561l1.2561,-1.7294999999999998v1.7294999999999998zm0.31980000000000003,0v-1.7294999999999998l1.2570000000000001,1.7294999999999998h-1.2570000000000001zm-10.7679,-3.4344c0,0.20370000000000002,-0.1668,0.37170000000000003,-0.372,0.37170000000000003c-0.2061,0,-0.3735,-0.168,-0.3735,-0.37170000000000003c0,-0.2058,0.16740000000000002,-0.37379999999999997,0.3735,-0.37379999999999997c0.20520000000000002,-0.0003,0.372,0.168,0.372,0.37379999999999997zm10.9812,-0.0198c0,0.20729999999999998,-0.1668,0.37170000000000003,-0.3726,0.37170000000000003c-0.20669999999999997,0,-0.3726,-0.16440000000000002,-0.3726,-0.37170000000000003c0,-0.2058,0.16590000000000002,-0.3735,0.3726,-0.3735c0.2058,0,0.3726,0.16770000000000002,0.3726,0.3735z" fill="#FFFFFF"/>
    </svg>