<svg version="1.1" xmlns="http://www.w3.org/2000/svg" xlink="http://www.w3.org/1999/xlink" x="0px" y="0px" width="15px" height="15px" viewBox="0 0 15 15" style="enable-background:new 0 0 15 15;" space="preserve"><path d="M12 0C13 0 13 0 13 1L13 14C13 15 13 15 12 15L3 15C2 15 2 15 2 14L2 1C2 0 2 0 3 0L12 0zM10 12 4 12 4 13 10 13 10 12zM12 9 11 9 11 9.75 12 9.75 12 9zM10 2 4 2 4 10 10 10 10 2zM12 7.5 11 7.5 11 8.25 12 8.25 12 7.5zM12 6 11 6 11 6.75 12 6.75 12 6zM12 4.5 11 4.5 11 5.25 12 5.25 12 4.5zM9.5 3.5 9.5 3.75 4.5 3.75 4.5 3.5 4.75 3.5C4.75 3.5 4.75 2.75 4.75 2.75 4.75 2.5 5.25 2.5 5.25 2.75 5.25 2.75 5.25 3.5 5.25 3.5L6 3.5C6 3.5 6 2.75 6 2.75 6 2.5 6.5 2.5 6.5 2.75 6.5 2.75 6.5 3.5 6.5 3.5L7.25 3.5C7.25 3.5 7.25 2.75 7.25 2.75 7.25 2.5 7.75 2.5 7.75 2.75 7.75 2.75 7.75 3.5 7.75 3.5L8.5 3.5C8.5 3.5 8.5 2.75 8.5 2.75 8.5 2.5 9 2.5 9 2.75 9 2.75 9 3.5 9 3.5L9.5 3.5zM9.5 5.5 9 5.5C9 5.5 9 4.75 9 4.75 9 4.5 8.5 4.5 8.5 4.75 8.5 4.75 8.5 5.5 8.5 5.5L7.75 5.5C7.75 5.5 7.75 4.75 7.75 4.75 7.75 4.5 7.25 4.5 7.25 4.75 7.25 4.75 7.25 5.5 7.25 5.5L6.5 5.5C6.5 5.5 6.5 4.75 6.5 4.75 6.5 4.5 6 4.5 6 4.75 6 4.75 6 5.5 6 5.5L5.25 5.5C5.25 5.5 5.25 4.75 5.25 4.75 5.25 4.5 4.75 4.5 4.75 4.75 4.75 4.75 4.75 5.5 4.75 5.5L4.5 5.5 4.5 5.75 9.5 5.75 9.5 5.5zM9.5 7.5 9 7.5C9 7.5 9 6.75 9 6.75 9 6.5 8.5 6.5 8.5 6.75 8.5 6.75 8.5 7.5 8.5 7.5L7.75 7.5C7.75 7.5 7.75 6.75 7.75 6.75 7.75 6.5 7.25 6.5 7.25 6.75 7.25 6.75 7.25 7.5 7.25 7.5L6.5 7.5C6.5 7.5 6.5 6.75 6.5 6.75 6.5 6.5 6 6.5 6 6.75 6 6.75 6 7.5 6 7.5L5.25 7.5C5.25 7.5 5.25 6.75 5.25 6.75 5.25 6.5 4.75 6.5 4.75 6.75 4.75 6.75 4.75 7.5 4.75 7.5L4.5 7.5 4.5 7.75 9.5 7.75 9.5 7.5zM9.5 9.5 9 9.5C9 9.5 9 8.75 9 8.75 9 8.5 8.5 8.5 8.5 8.75 8.5 8.75 8.5 9.5 8.5 9.5L7.75 9.5C7.75 9.5 7.75 8.75 7.75 8.75 7.75 8.5 7.25 8.5 7.25 8.75 7.25 8.75 7.25 9.5 7.25 9.5L6.5 9.5C6.5 9.5 6.5 8.75 6.5 8.75 6.5 8.5 6 8.5 6 8.75 6 8.75 6 9.5 6 9.5L5.25 9.5C5.25 9.5 5.25 8.75 5.25 8.75 5.25 8.5 4.75 8.5 4.75 8.75 4.75 8.75 4.75 9.5 4.75 9.5L4.5 9.5 4.5 9.75 9.5 9.75 9.5 9.5z" fill="#FFFFFF"/></svg>