<svg version="1.1" xmlns="http://www.w3.org/2000/svg" xlink="http://www.w3.org/1999/xlink" x="0px" y="0px" width="15px" height="15px" viewBox="0 0 15 15" style="enable-background:new 0 0 15 15;" space="preserve"><path d="M7.60787639,10.8615985L7.7801961,10L4.2198039,10L4.54640572,11.6330091C5.03093714,12.0288678,5.51546857,11.9845314,6,11.5C6.5359588,10.9640412,7.07191759,10.7512407,7.60787639,10.8615985L7.60787639,10.8615985ZM9,2L9,3L10,3C11.1045695,3,12,3.8954305,12,5L12,14L10,14L10,5L7,5.00002L7,7L7.5,7C7.77614237,7,8,7.22385763,8,7.5L8,8L4,8L4,7.5C4,7.22385763,4.22385763,7,4.5,7L5,7L5,5.00002C5,4.00002,6,3,7,3L8,3L8,2L6.5,2C6.22385763,2,6,1.77614237,6,1.5C6,1.22385763,6.22385763,1,6.5,1L10.5,1C10.7761424,1,11,1.22385763,11,1.5C11,1.77614237,10.7761424,2,10.5,2L9,2ZM3,9L9,9L8.16077677,13.1961161C8.06729193,13.6635403,7.65687712,14,7.1801961,14L4.8198039,14C4.34312288,14,3.93270807,13.6635403,3.83922323,13.1961161L3,9Z" fill="#FFFFFF"/></svg>