<svg version="1.1" xmlns="http://www.w3.org/2000/svg" xlink="http://www.w3.org/1999/xlink" x="0px" y="0px" width="15px" height="15px" viewBox="0 0 15 15" style="enable-background:new 0 0 15 15;" space="preserve">
    <path d="M2.125,3.125L2.125,14.125L0.875,14.125L0.875,1.5C0.875,1.15482203,1.15482203,0.875,1.5,0.875C1.84517797,0.875,2.125,1.15482203,2.125,1.5L2.125,1.875L12.875,1.875L12.875,1.5C12.875,1.15482203,13.154822,0.875,13.5,0.875C13.845178,0.875,14.125,1.15482203,14.125,1.5L14.125,14.125L12.875,14.125L12.875,3.125L11,3.125L11,4L10.6464466,4L8.64644661,6L6.85355339,6L8.85355339,4L10,4L10,3.125L5,3.125L5,4L5.64644661,4L3.64644661,6L3.5,6C3.22385763,6,3,5.77614237,3,5.5L3,4.5C3,4.22385763,3.22385763,4,3.5,4L4,4L4,3.125L2.125,3.125ZM8.14644661,4L6.14644661,6L4.35355339,6L6.35355339,4L8.14644661,4ZM11.3535534,4L11.5,4C11.7761424,4,12,4.22385763,12,4.5L12,5.5C12,5.77614237,11.7761424,6,11.5,6L9.35355339,6L11.3535534,4L11.3535534,4Z" fill="#FFFFFF"/>
    </svg>