<svg version="1.1" xmlns="http://www.w3.org/2000/svg" xlink="http://www.w3.org/1999/xlink" x="0px" y="0px" width="15px" height="15px" viewBox="0 0 15 15" style="enable-background:new 0 0 15 15;" space="preserve">
    <path d="M3.72,11.35C4.14,11.53,4.59,11.68,5.08,11.8L5.56,11.9L5.81,11.97L6.13,12.06L6.93,12.31L7.97,12.65L8.68,12.9L8.72,12.94C9.24,13.41,9.57,14.06,9.63,14.76L9.64,15L2.78,15L2.78,14.19C2.78,13.25,3.06,12.34,3.56,11.57L3.72,11.35ZM11.01,3.59L11.01,5.32L12.38,8.08L11.01,8.08C11.01,9.54,9.89,10.74,8.47,10.84L8.26,10.85L8.26,12.02L7.11,11.64L6.47,11.44L6.12,11.34L5.83,11.26L5.15,11.1C4.79,11.01,4.46,10.91,4.15,10.78L4.15,7.67L11.01,3.59ZM12.78,0.96L12.95,1.26C13.05,1.42,12.99,1.63,12.83,1.73L2.73,7.61C2.57,7.7,2.36,7.65,2.26,7.48L2.09,7.18C1.9,6.85,2.02,6.43,2.34,6.24L11.85,0.7C12.17,0.51,12.59,0.63,12.78,0.96ZM9.57,1.22L3.93,4.51C3.48,2.65,3.96,1.3,5.38,0.47C6.8,-0.35,8.19,-0.1,9.57,1.22Z" fill="#FFFFFF"/>
    </svg>