<svg version="1.1" xmlns="http://www.w3.org/2000/svg" xlink="http://www.w3.org/1999/xlink" x="0px" y="0px" width="15px" height="15px" viewBox="0 0 15 15" style="enable-background:new 0 0 15 15;" space="preserve">
    <path d="M9.11985493,8.875C9.12878434,8.84905996,9.13952483,8.82340784,9.15212862,8.79820027L10.9381596,5.22613828C10.9962259,5.10679247,11.0926086,5.00492444,11.2204915,4.94098301C11.5292281,4.78661473,11.9046487,4.91175494,12.059017,5.2204915C12.0599896,5.22235842,12.0609198,5.22424616,12.0618404,5.22613828L14.0267568,9.15597114C14.0320567,9.16657092,14.0370271,9.1772493,14.041672,9.18799464C14.0946733,9.27981195,14.125,9.38636439,14.125,9.5C14.125,9.84517797,13.845178,10.125,13.5,10.125L1.5,10.125C1.15482203,10.125,0.875,9.84517797,0.875,9.5C0.875,9.38636439,0.905326667,9.27981195,0.958328039,9.18799464C0.962972875,9.1772493,0.967943296,9.16657092,0.973243185,9.15597114L2.93815962,5.22613828C2.99622591,5.10679247,3.09260863,5.00492444,3.2204915,4.94098301C3.52922806,4.78661473,3.90464871,4.91175494,4.05901699,5.2204915C4.05998957,5.22235842,4.06091979,5.22424616,4.06184038,5.22613828L5.84787138,8.79820027C5.86047517,8.82340784,5.87121566,8.84905996,5.88014507,8.875L9.11985493,8.875L9.11985493,8.875ZM10.5112712,8.875L12.4887288,8.875L11.5,6.89754249L10.5112712,8.875L10.5112712,8.875ZM2.51127124,8.875L4.48872876,8.875L3.5,6.89754249L2.51127124,8.875L2.51127124,8.875Z" fill="#FFFFFF"/>
    </svg>