<svg version="1.1" xmlns="http://www.w3.org/2000/svg" xlink="http://www.w3.org/1999/xlink" x="0px" y="0px" width="15px" height="15px" viewBox="0 0 15 15" style="enable-background:new 0 0 15 15;" space="preserve"><path d="M7.50069391,9.79861218L9.58551979,8.40872826L7.5,6.74031242L5.41448021,8.40872826L7.49930609,9.79861218L7.50069391,9.79861218ZM8.40208173,10.3995374L10.6665731,11.9091983L10.2452724,9.17074363L8.40208173,10.3995374L8.40208173,10.3995374ZM6.59791827,10.3995374L4.75472763,9.17074363L4.33342691,11.9091983L6.59791827,10.3995374L6.59791827,10.3995374ZM5.38851518,5.05112457L5.02048871,7.44329661L6.69960947,6.1L5.38851518,5.05112457L5.38851518,5.05112457ZM5.54985247,4.00243216C5.64270865,4.01164778,5.73405478,4.0469314,5.81234752,4.1095656L7.5,5.45968758L9.18765248,4.1095656C9.26594522,4.0469314,9.35729135,4.01164778,9.45014753,4.00243216L9.44977335,4L5.55022665,4L5.54985247,4.00243216L5.54985247,4.00243216ZM9.97951129,7.44329661L9.61148482,5.05112457L8.30039053,6.1L9.97951129,7.44329661L9.97951129,7.44329661ZM14,3L14,5L13,5L13,4L10.4615385,4L12,14L7.5,11L3,14L4.53846154,4L2,4L2,5L1,5L1,3L4.69230769,3L5,1L10,1L10.3076923,3L14,3ZM5.7040728,3L9.2959272,3L9.14208104,2L5.85791896,2L5.7040728,3L5.7040728,3Z" fill="#FFFFFF"/></svg>