<svg version="1.1" xmlns="http://www.w3.org/2000/svg" xlink="http://www.w3.org/1999/xlink" x="0px" y="0px" width="15px" height="15px" viewBox="0 0 15 15" style="enable-background:new 0 0 15 15;" space="preserve">
    <path d="M14.399999999999999,12.299999999999999c-0.3,0,-0.5562,-0.0678,-0.8201999999999999,-0.1845c-0.2748,-0.12329999999999999,-0.5556,-0.1956,-0.8769,-0.1956c-0.31980000000000003,0,-0.6156,0.07229999999999999,-0.8862,0.1956c-0.2676,0.1167,-0.5577,0.1845,-0.8690999999999999,0.1845c-0.3096,0,-0.6051,-0.0678,-0.8724,-0.1845c-0.2727,-0.12329999999999999,-0.5775,-0.1956,-0.8973,-0.1956c-0.321,0,-0.6273000000000001,0.07229999999999999,-0.9021,0.1956c-0.264,0.11699999999999999,-0.5630999999999999,0.1845,-0.873,0.1845c-0.30989999999999995,0,-0.6089999999999999,-0.0678,-0.8735999999999999,-0.1845c-0.2745,-0.12329999999999999,-0.5808,-0.1956,-0.9005999999999998,-0.1956c-0.3216,0,-0.6297,0.07229999999999999,-0.9005999999999998,0.1956c-0.2661,0.1167,-0.564,0.1845,-0.8738999999999999,0.1845c-0.3114,0,-0.6093000000000001,-0.0678,-0.8769,-0.1845c-0.2712,-0.12329999999999999,-0.5793,-0.1956,-0.8990999999999999,-0.1956c-0.31980000000000003,0,-0.6297,0.07229999999999999,-0.9024,0.1956c-0.26639999999999997,0.1167,-0.5757,0.1845,-0.8757,0.1845v-1.281c0.3,0,0.6093000000000001,-0.069,0.8754000000000001,-0.1863c0.273,-0.12299999999999998,0.5817,-0.1956,0.9015,-0.1956c0.31980000000000003,0,0.6285000000000001,0.0726,0.8997,0.1956c0.26789999999999997,0.1173,0.5658,0.1863,0.8772,0.1863c0.3102,0,0.6077999999999999,-0.069,0.8738999999999999,-0.1863c0.2709,-0.12299999999999998,0.5793,-0.1956,0.9009,-0.1956c0.31980000000000003,0,0.6261,0.0726,0.9005999999999998,0.1956c0.2643,0.1173,0.564,0.1863,0.8738999999999999,0.1863s0.6096,-0.069,0.8735999999999999,-0.1863c0.2748,-0.12299999999999998,0.5813999999999999,-0.1956,0.9027,-0.1956c0.31980000000000003,0,0.6264,0.0726,0.8990999999999999,0.1956c0.2676,0.1173,0.5660999999999999,0.1863,0.8757,0.1863c0.3114,0,0.6077999999999999,-0.069,0.8754000000000001,-0.1863c0.2706,-0.12299999999999998,0.5793,-0.1956,0.8990999999999999,-0.1956c0.3213,0,0.5763,0.0726,0.8511000000000001,0.1956c0.264,0.1173,0.5202,0.1863,0.8201999999999999,0.1863v1.281zm-14.0916,-5.3999999999999995l-0.0051,2.973c0.30989999999999995,0,0.6077999999999999,-0.0933,0.8738999999999999,-0.2103c0.273,-0.12359999999999999,0.5811,-0.20909999999999998,0.9005999999999998,-0.20909999999999998c0.31980000000000003,0,0.6279,0.0657,0.8990999999999999,0.1893c0.26789999999999997,0.1173,0.5655,0.1812,0.8769,0.1812c0.3102,0,0.6077999999999999,-0.0687,0.8738999999999999,-0.1857c0.2709,-0.12359999999999999,0.5793,-0.1968,0.9005999999999998,-0.1968c0.31980000000000003,0,0.6261,0.0717,0.9005999999999998,0.1953c0.2643,0.1173,0.564,0.1842,0.8738999999999999,0.1842s0.6096,-0.0675,0.8735999999999999,-0.1845c0.2748,-0.12359999999999999,0.5813999999999999,-0.1959,0.9027,-0.1959c0.31980000000000003,0,0.6264,0.07229999999999999,0.8990999999999999,0.1959c0.2676,0.1173,0.5660999999999999,0.1842,0.8757,0.1842c0.0876,0,0.17159999999999997,-0.0183,0.25739999999999996,-0.027899999999999998c0.1563,-0.0327,0.3147,-0.0477,0.46649999999999997,-0.10679999999999999l0.0102,-0.0051c1.128,-0.4476,2.1008999999999998,-1.5033,2.7084,-2.3298l0.3036,-0.4512h-14.3916zm8.0328,-3.3h2.1132c0.0237,0,0.5706,-0.0843,0.7541999999999999,0.31589999999999996l0.7940999999999999,1.7841h-2.7068999999999996l-0.9545999999999999,-2.1zm-5.6411999999999995,1.9145999999999999c0,0.1398,-0.1152,0.18539999999999998,-0.2565,0.18539999999999998h-1.1619c-0.14159999999999998,0,-0.3816,-0.045599999999999995,-0.3816,-0.18539999999999998v-1.7187c0,-0.138,0.24,-0.1959,0.3816,-0.1959h1.1616c0.14159999999999998,0,0.2568,0.0579,0.2568,0.1959v1.7187zm4.8,0c0,0.1398,-0.12539999999999998,0.18539999999999998,-0.2685,0.18539999999999998h-1.1601c-0.14309999999999998,0,-0.3714,-0.045599999999999995,-0.3714,-0.18539999999999998v-1.7187c0,-0.138,0.2283,-0.1959,0.3714,-0.1959h1.1601c0.14309999999999998,0,0.2685,0.0579,0.2685,0.1959v1.7187zm-2.4,0c0,0.1398,-0.1248,0.18539999999999998,-0.2676,0.18539999999999998h-1.1532c-0.1434,0,-0.3792,-0.045599999999999995,-0.3792,-0.18539999999999998v-1.7187c0,-0.138,0.2358,-0.1959,0.3792,-0.1959h1.1532c0.14279999999999998,0,0.2676,0.0579,0.2676,0.1959v1.7187zm6.463500000000001,-2.1231c-0.3453,-0.7505999999999999,-1.2798,-0.6915,-1.2798,-0.6915h-9.9822l-0.0015,3.5999999999999996h12.5145l-1.251,-2.9085z" fill="#FFFFFF"/>
    </svg>