<svg version="1.1" xmlns="http://www.w3.org/2000/svg" xlink="http://www.w3.org/1999/xlink" x="0px" y="0px" width="15px" height="15px" viewBox="0 0 15 15" style="enable-background:new 0 0 15 15;" space="preserve"><path d="M11.5 2C11.5 2 10 8 10 8 10 8 12 8 12 8 12 8 11 13 11 13 11 13 15 6 15 6 15 6 13 6 13 6 13 6 14.5 2 14.5 2 14.5 2 11.5 2 11.5 2zM2.5 0C3.25 0 4 .75 4 1.5 4 2.25 3.25 3 2.5 3 1.75 3 1 2.25 1 1.5 1 .75 1.75 0 2.5 0zM2.5 1C2.25 1 2 1.25 2 1.5 2 1.75 2.25 2 2.5 2 2.75 2 3 1.75 3 1.5 3 1.25 2.75 1 2.5 1zM2.5 13C2.75 13 3 13.25 3 13.5 3 13.75 2.75 14 2.5 14 2.25 14 2 13.75 2 13.5 2 13.25 2.25 13 2.5 13zM2.5 12C1.75 12 1 12.75 1 13.5 1 14.25 1.75 15 2.5 15 3.25 15 4 14.25 4 13.5 4 12.75 3.25 12 2.5 12zM3 10.25C3 10.25 2 10.25 2 10.25 2 10.25 2 11.5 2 11.5 2 12 3 12 3 11.5 3 11.5 3 10.25 3 10.25zM2 3.5C2 3.5 2 7.35 2 7.35 2 7.6 3 7.6 3 7.35 3 7.35 3 3.5 3 3.5 3 3 2 3 2 3.5zM7.5 5C7.75 5 8 5.25 8 5.5 8 5.75 7.75 6 7.5 6 7.25 6 7 5.75 7 5.5 7 5.25 7.25 5 7.5 5zM7.5 4C6.75 4 6 4.75 6 5.5 6 6.25 6.75 7 7.5 7 8.25 7 9 6.25 9 5.5 9 4.75 8.25 4 7.5 4zM7.5 9C7.75 9 8 9.25 8 9.5 8 9.75 7.75 10 7.5 10 7.25 10 7 9.75 7 9.5 7 9.25 7.25 9 7.5 9zM7.5 8C6.75 8 6 8.75 6 9.5 6 10.25 6.75 11 7.5 11 8.25 11 9 10.25 9 9.5 9 8.75 8.25 8 7.5 8zM.25 8.25C.25 8.25 0 8.25 0 9 0 9.75 1 10 2.25 10 2.25 10 5.5 10 5.5 10 6 10 6 9 5.5 9 5.5 9 2.25 9 2.25 9 1.25 9 .75 8.75.25 8.25zM1.75 5C.75 5 0 5.75 0 6.75 0 8 1 8.75 2.25 8.75 3 8.75 4.75 8.813 4.75 7.5 4.75 6.5 4 6.25 3.25 6.25L3.25 7.25C3.25 7.25 3.75 7.25 3.75 7.5 3.75 7.79 2.75 7.75 2.25 7.75 1.5 7.75 1 7.25 1 6.75 1 6.25 1.25 6 1.75 6L1.75 5zM5.5 5C5.5 4.994 3.25 5 3.25 5L3.25 6C3.25 6 5.5 6 5.5 6 6 6 6 5 5.5 5zM1.25 6.75C1.25 7 1.5 7.25 1.75 7.25 1.75 7.25 1.75 6.25 1.75 6.25 1.5 6.25 1.25 6.5 1.25 6.75z" fill="#FFFFFF"/></svg>