<svg version="1.1" xmlns="http://www.w3.org/2000/svg" xlink="http://www.w3.org/1999/xlink" x="0px" y="0px" width="15px" height="15px" viewBox="0 0 15 15" style="enable-background:new 0 0 15 15;" space="preserve"><path d="M12.779699999999998,11.151c0.5517,-0.18059999999999998,0.8487,-0.7671,0.6672,-1.3143l-0.3999,0.1278c0.10919999999999999,0.32789999999999997,-0.0726,0.6815999999999999,-0.3996,0.7898999999999999l-10.509,3.5523l0.1353,0.3933l10.506,-3.549zm-9.6768,-6.138599999999999c0.5766,-0.1671,0.9065999999999999,-0.7701,0.7383,-1.3437c-0.1686,-0.5733,-0.7746,-0.9012,-1.353,-0.7341c-0.5781,0.1671,-0.9117,0.7701,-0.7398,1.3437c0.1686,0.5736,0.7731,0.9015,1.3544999999999998,0.7341zm-0.4461,1.5009c-0.5751,-1.0877999999999999,1.0752,-1.9691999999999998,1.683,-0.9141l1.185,2.2352999999999996l2.2563,-0.6363c0.3732,-0.105,0.8889,0.2985,0.8889,0.7734l0.0126,3.1856999999999998c0.0036,0.7896,-1.179,0.7928999999999999,-1.179,-0.0063c-0.0036,-0.741,-0.0231,-2.3202,-0.0231,-2.3202l-2.3544,0.7011000000000001c-0.5154,0.14759999999999998,-0.9416999999999999,-0.10769999999999999,-1.143,-0.4848l-1.3263,-2.5338zm3.6431999999999998,0.5049v-6.7181999999999995h-0.6v6.846zm-4.7268,0.9470999999999999c-0.3237,-0.6324,0.5121,-1.0517999999999998,0.8358,-0.41939999999999994l1.0191,1.9793999999999998c0.22139999999999999,0.4095,0.6543,0.6885,1.1532,0.6885c0.1551,0,0.30029999999999996,-0.0396,0.4425,-0.069l1.284,-0.3732c0.6807,-0.2034,0.9447,0.6875999999999999,0.258,0.8883l-1.3505999999999998,0.3894c-0.2013,0.0624,-0.41939999999999994,0.0948,-0.6440999999999999,0.0948c-0.8687999999999999,0,-1.6202999999999999,-0.4881,-1.9902,-1.2024l-1.0077,-1.9764z" fill="#FFFFFF"/></svg>