<svg version="1.1" xmlns="http://www.w3.org/2000/svg" xlink="http://www.w3.org/1999/xlink" x="0px" y="0px" width="15px" height="15px" viewBox="0 0 15 15" style="enable-background:new 0 0 15 15;" space="preserve"><path d="M13.7784,8.6847l-0.0327,-0.08819999999999999c-0.10260000000000001,-0.2766,-0.22949999999999998,-0.6204,-0.5547,-0.8151c-0.22649999999999998,-0.1356,-0.4899,-0.1827,-0.7221,-0.2241c-0.1194,-0.021299999999999996,-0.23249999999999998,-0.042,-0.3294,-0.07139999999999999l-0.08519999999999998,-0.03l-0.0135,-0.0045c-0.9324,-0.7488,-2.8203,-0.7692,-3.9962999999999997,-1.8282c-1.6854,-1.5168,-3.0381,-3.0420000000000003,-4.5594,-5.3232l-1.9008,1.5210000000000001c-0.132,0.10559999999999999,-0.384,0.1902,-0.384,0.5703c0,0.18989999999999999,0.1932,0.219,0.4209,0.1485l1.0721999999999998,-0.3387l3.0066,4.1832v2.2818c0,0.528,-0.0087,1.0086,0.4392,1.2816l-1.1292,4.7523h0.7605000000000001l0.7146,-2.2566l0.7149,-1.116v3.3726000000000003h0.8999999999999999v-3.7523999999999997s-0.0105,-0.7605000000000001,0.75,-0.7605000000000001l0.75,0.7605000000000001v3.7523999999999997h0.6v-3l1.6548,3h0.7605000000000001c-0.3804,-1.2,-0.9153,-1.0911,-0.9153,-2.2317v-0.7605000000000001c0,-0.7974,0.8999999999999999,-1.5210000000000001,0.8999999999999999,-2.2815v-0.7598999999999999c0,-0.18059999999999998,-0.0234,-0.34049999999999997,-0.0645,-0.4851c0.1326,0.027,0.25439999999999996,0.0597,0.3471,0.11549999999999999c0.1437,0.0861,0.22319999999999998,0.30089999999999995,0.3,0.5085l0.0348,0.0936c0.0591,0.1545,0.2322,0.2322,0.387,0.17339999999999997l0.0003,-0.0003c0.1551,-0.0594,0.2328,-0.23249999999999998,0.1737,-0.3873z" fill="#FFFFFF"/></svg>