<svg version="1.1" xmlns="http://www.w3.org/2000/svg" xlink="http://www.w3.org/1999/xlink" x="0px" y="0px" width="15px" height="15px" viewBox="0 0 15 15" style="enable-background:new 0 0 15 15;" space="preserve"><path d="M6 .5C6 .5 6 2 6 2 6 2 8.5 2 8.5 2 9 2 9 2.5 9 2.5L9 12.5C9 12.5 9 13 8.5 13 8.5 13 6 13 6 13L6 14.5C6 15 3 15 3 14.5L3 13C3 13 .5 13 .5 13 0 13 0 12.5 0 12.5L0 2.5C0 2.5 0 2 .5 2 .5 2 3 2 3 2 3 2 3 .5 3 .5 3 0 6 0 6 .5zM8 3.5C8 3 7.5 3 7.5 3L1.5 3C1.5 3 1 3 1 3.5 1 3.5 1 11.5 1 11.5 1 12 1.5 12 1.5 12L7.5 12C7.5 12 8 12 8 11.5 8 11.5 8 3.5 8 3.5zM5 4.5C5 7.5 5 10.5 5 10.5 5 11 4.5 11 4.5 11L2.5 11C2.5 11 2 11 2 10.5 2 7.5 2 4.5 2 4.5 2 4 2.5 4 2.5 4L4.5 4C4.5 4 5 4 5 4.5zM4 8.25C4 8 3.75 8 3.75 8L3.25 8C3.25 8 3 8 3 8.25 3 8.25 3 9.75 3 9.75 3 10 3.25 10 3.25 10L3.75 10C3.75 10 4 10 4 9.75 4 9.75 4 8.25 4 8.25zM6 4.5C6 4.5 6 6.5 6 6.5 6 6.75 6.25 6.75 6.25 6.75L6.75 6.75C6.75 6.75 7 6.75 7 6.5 7 6.5 7 4.5 7 4.5 7 4.25 6.75 4.25 6.75 4.25L6.25 4.25C6.25 4.25 6 4.25 6 4.5zM6.5 8.875C6.776 8.875 7 9.224 7 9.5 7 9.776 6.776 10.125 6.5 10.125 6.224 10.125 6 9.776 6 9.5 6 9.224 6.224 8.875 6.5 8.875zM7.625 9.5C7.625 8.875 7.125 8.25 6.5 8.25 5.875 8.25 5.375 8.875 5.375 9.5 5.375 10.125 5.875 10.75 6.5 10.75 7.125 10.75 7.625 10.125 7.625 9.5zM14 9.35C14.25 10.5 14.25 12 14.25 12 14 12.25 10.5 12.25 10.25 12 10.25 12 10.25 10.5 10.5 9.35 11.25 10 13.5 10 14 9.35zM14 3.5C14 3.25 15 3.25 15 3.5 15 5 13.5 6.5 12.3 9 12 8.75 11.75 8.4 11.75 8.4 12.75 6 14 4.75 14 3.5zM14 6.5C13.75 7 13.5 7.25 13.36 7.5 13.36 8 13.21 8.26 12.6 9.15 12.5 9.5 13.25 9.5 13.5 9.25 14 8.5 14.25 8 14 6.5zM13.5 3.5C13.5 3.25 12.5 3.25 12.5 3.5 12.5 4.5 12.5 5 12.8 5.8 12.95 5.65 13.25 5 13.4 4.75 13.375 4.34 13.375 4 13.5 3.5zM10.5 3.5C10.5 5 11 5.85 12.25 6.75 12.1 7 12 7.25 11.8 7.65 10.5 6.612 9.5 5.25 9.5 3.5 9.5 3.25 10.5 3.25 10.5 3.5zM10.75 7C10.5 8 10.75 8.5 11.1 9.15 11.25 9.3 11.75 9.5 12.3 9.32 11.4 8.5 11.35 8.2 11.5 7.75 11.25 7.5 11 7.25 10.75 7zM12 3.5C12 3.25 11 3.25 11 3.5 11.25 4.25 11.5 4.75 11.4 5.56 11.5 5.85 11.85 6.161 12.15 6.312 12.5 5.25 12.22 4.387 12 3.5z" fill="#FFFFFF"/></svg>