<svg version="1.1" xmlns="http://www.w3.org/2000/svg" xlink="http://www.w3.org/1999/xlink" x="0px" y="0px" width="15px" height="15px" viewBox="0 0 15 15" style="enable-background:new 0 0 15 15;" space="preserve">
    <path d="M10.553700000000001,0.3c-0.6768,0,-1.2261,0.5577,-1.2261,1.2417c0,0.6867,0.5493,1.2410999999999999,1.2261,1.2410999999999999c0.6807,0,1.2321,-0.5544,1.2321,-1.2410999999999999c0,-0.6839999999999999,-0.5517,-1.2417,-1.2321,-1.2417zm-9.2826,8.562c-0.10619999999999999,-0.17279999999999998,-0.3294,-0.2253,-0.4992,-0.1185c-0.17129999999999998,0.10769999999999999,-0.2229,0.3327,-0.1164,0.5057999999999999c0.10679999999999999,0.16949999999999998,0.3291,0.22169999999999998,0.5027999999999999,0.1167c0.16770000000000002,-0.1083,0.219,-0.333,0.1128,-0.504zm0.2526,1.0128c-0.10619999999999999,-0.16949999999999998,-0.3294,-0.222,-0.5025,-0.1143c-0.168,0.10559999999999999,-0.2193,0.3321,-0.11309999999999999,0.5015999999999999c0.1065,0.1755,0.3297,0.2253,0.49739999999999995,0.1185c0.17129999999999998,-0.108,0.22319999999999998,-0.3333,0.1182,-0.5057999999999999zm0.2511,1.0161c-0.10469999999999999,-0.17459999999999998,-0.33240000000000003,-0.22499999999999998,-0.5007,-0.1173c-0.17309999999999998,0.10679999999999999,-0.2229,0.33149999999999996,-0.1161,0.5057999999999999c0.10469999999999999,0.1692,0.3321,0.2208,0.5004,0.11399999999999999c0.17159999999999997,-0.1065,0.2229,-0.3333,0.1164,-0.5025zm0.2496,1.0128c-0.10619999999999999,-0.16949999999999998,-0.3294,-0.22169999999999998,-0.4971,-0.1188c-0.17339999999999997,0.111,-0.22319999999999998,0.3357,-0.1185,0.507c0.1065,0.17279999999999998,0.3297,0.22499999999999998,0.5025,0.1173c0.168,-0.10769999999999999,0.2196,-0.333,0.11309999999999999,-0.5055zm5.9007,2.0643c-0.1929,0.0648,-0.29969999999999997,0.2703,-0.2379,0.46409999999999996c0.06359999999999999,0.1947,0.2682,0.2985,0.45809999999999995,0.2385c0.1911,-0.06269999999999999,0.2973,-0.2688,0.2376,-0.4602c-0.062099999999999995,-0.1938,-0.2667,-0.2994,-0.4578,-0.2424zm1.0332,0.009c-0.192,0.058499999999999996,-0.2961,0.2673,-0.2349,0.45809999999999995c0.061799999999999994,0.195,0.2676,0.3024,0.4578,0.2397c0.1893,-0.06119999999999999,0.2955,-0.2697,0.2343,-0.4614c-0.063,-0.1914,-0.2637,-0.2991,-0.4572,-0.2364zm1.0394999999999999,0.0032999999999999995c-0.1944,0.061799999999999994,-0.30119999999999997,0.2673,-0.2376,0.46199999999999997c0.06119999999999999,0.1911,0.2661,0.2985,0.4578,0.2361c0.1896,-0.058499999999999996,0.29519999999999996,-0.2661,0.2319,-0.46109999999999995c-0.0576,-0.1917,-0.2628,-0.3,-0.45209999999999995,-0.237zm1.0317,0.0042c-0.1893,0.06269999999999999,-0.2958,0.2688,-0.2349,0.4608c0.0633,0.1932,0.2685,0.2985,0.4578,0.2373c0.1908,-0.063,0.29519999999999996,-0.2661,0.2349,-0.45929999999999993c-0.061799999999999994,-0.1947,-0.2676,-0.2988,-0.4578,-0.2388zm2.4699,-8.8845h-2.1468l-1.0617,-1.7361c-0.1833,-0.39209999999999995,-0.5673,-0.6617999999999999,-1.0209,-0.6800999999999999c-0.0885,-0.0045,-0.1686,0.0087,-0.24989999999999998,0.026699999999999998l-5.3964,1.2818999999999998c-0.3264,0.0771,-0.531,0.40409999999999996,-0.45299999999999996,0.7365c0.0732,0.3294,0.39449999999999996,0.5330999999999999,0.7206,0.45869999999999994l3.6032999999999995,-0.6564l-2.7386999999999997,4.7688h-2.9295l0.6486,2.3678999999999997c0.0219,0.0768,0.0219,-0.0078,0.047099999999999996,0.0327c0.09119999999999999,0.15059999999999998,0.28619999999999995,0.1473,0.432,0.0555c0.0798,-0.047099999999999996,0.13169999999999998,-0.1554,0.1464,-0.2412l0.38789999999999997,-1.2057l0.0147,-0.0552l1.8051,-0.0105c0.3594,0,0.6672,-0.1005,0.8499,-0.405l0.8303999999999999,-1.3899l1.8482999999999998,1.8969l-0.7833,3.1545h2.7129c0.17459999999999998,0,0.3177,-0.1827,0.3177,-0.3567c0,-0.1377,-0.0843,-0.25229999999999997,-0.189,-0.3108l-1.1712,-0.6648000000000001l0.5622,-2.2424999999999997s0.1395,-0.47669999999999996,-0.30269999999999997,-0.9132l-1.512,-1.5309s0.8079,-1.3416000000000001,1.3256999999999999,-2.2035l0.7029,1.0224h2.9883c0.3369,0,0.6083999999999999,-0.26189999999999997,0.6117,-0.5979c0.003,-0.34019999999999995,-0.26789999999999997,-0.6021,-0.6005999999999999,-0.6021z" fill="#FFFFFF"/>
    </svg>