<svg version="1.1" xmlns="http://www.w3.org/2000/svg" xlink="http://www.w3.org/1999/xlink" x="0px" y="0px" width="15px" height="15px" viewBox="0 0 15 15" style="enable-background:new 0 0 15 15;" space="preserve">
    <path d="M9.0444,14.692199999999998c0.2244,0,0.4062,-0.189,0.4062,-0.4233c0,-0.2316,-0.1815,-0.4197,-0.4062,-0.4197c-0.22499999999999998,0,-0.4065,0.1881,-0.4065,0.4197c0,0.2343,0.1815,0.4233,0.4065,0.4233zm-0.7017,-12.171c0.5963999999999999,0,1.0812,-0.4989,1.0812,-1.1124c-0.0003,-0.6132,-0.4848,-1.1088,-1.0812,-1.1088c-0.5961,0,-1.0812,0.49559999999999993,-1.0812,1.1088c0,0.6134999999999999,0.4851,1.1124,1.0812,1.1124zm-5.8629,9.7182c-0.051000000000000004,0.0984,-0.0798,0.21,-0.0798,0.33089999999999997c0,0.3906,0.3096,0.7091999999999999,0.6920999999999999,0.7091999999999999c0.2745,0,0.5103,-0.1641,0.6219,-0.40049999999999997l2.3583,-4.17l-0.9791999999999998,-1.0074l-2.6133,4.5378zm5.1099000000000006,-0.1872c-0.1113,0.2364,-0.3474,0.4008,-0.6216,0.4008c-0.37949999999999995,0,-0.6885,-0.3186,-0.6885,-0.7091999999999999c0,-0.1212,0.028499999999999998,-0.23249999999999998,0.0798,-0.3312l1.0269,-1.8567l-2.0028,-2.0477999999999996c-0.7686,-0.7938,-0.21989999999999998,-1.6533,-0.21989999999999998,-1.6533l1.0778999999999999,-1.9586999999999999l-2.8589999999999995,0.0032999999999999995c-0.3156,0,-0.5676,-0.2799,-0.5676,-0.6014999999999999c-0.0003,-0.31829999999999997,0.2517,-0.5979,0.5673,-0.5979h8.652899999999999c0.31289999999999996,0,0.5649,0.2802,0.5649,0.6014999999999999c0,0.3216,-0.252,0.5985,-0.5649,0.5985h-3.3006l-1.575,2.8374l1.6038,1.6304999999999998c0.5619,0.5547,0.198,1.1778,0.198,1.1778l-1.3716,2.5065zm2.6103,1.1478c0,0.16590000000000002,-0.1341,0.3,-0.3,0.3h-5.1c-0.1656,0,-0.3,-0.1341,-0.3,-0.3c0,-0.16590000000000002,0.1344,-0.3,0.3,-0.3h5.1c0.16590000000000002,0,0.3,0.1341,0.3,0.3z" fill="#FFFFFF"/>
    </svg>