<svg version="1.1" xmlns="http://www.w3.org/2000/svg" xlink="http://www.w3.org/1999/xlink" x="0px" y="0px" width="15px" height="15px" viewBox="0 0 15 15" style="enable-background:new 0 0 15 15;" space="preserve">
    <path d="M12,3L5.7889,3C5.4029,2.1177,4.5247,1.5,3.5,1.5C2.4753,1.5,1.5971,2.1177,1.2111,3L3.5,3L4,4L3.5,5L1.2111,5C1.5972,5.8821,2.4754,6.5,3.5,6.5C4.5246,6.5,5.4028,5.8821,5.7889,5L12,5C12.5527,5,13,4.5522,13,4C13,3.4478,12.5527,3,12,3Z" fill="#FFFFFF"/> <path d="M13,10C12.9255166,11.8269383,11.9255166,12.7661825,10,12.8177325L3,12.8177325L2,10L10.0184465,10L8,8.5L9,8L12,10L13,10ZM5,9.49884545L2,9.49884545L2,8L4,8C4.55228475,8,5,8.44771525,5,9L5,9.49884545Z" fill="#FFFFFF"/>
    </svg>