<svg version="1.1" xmlns="http://www.w3.org/2000/svg" xlink="http://www.w3.org/1999/xlink" x="0px" y="0px" width="15px" height="15px" viewBox="0 0 15 15" style="enable-background:new 0 0 15 15;" space="preserve">
    <path d="M12.4215,6.566400000000001l-0.7377,-3.0798c-0.1293,-0.5373,-0.6738,-0.8747999999999999,-1.2141,-0.7422000000000001c-0.4752,0.1161,-0.7062,0.4452,-0.7998,0.6768c-0.11069999999999999,0.2733,-0.6048,1.5116999999999998,-0.7202999999999999,1.7676c-0.0405,0.08879999999999999,-0.126,0.1356,-0.1434,0.1434c-0.0981,0.0435,-1.08,0.4578,-1.08,0.4578v0.0018c-0.1938,0.0909,-0.3282,0.28469999999999995,-0.3282,0.5109c0,0.31289999999999996,0.2562,0.5667,0.5720999999999999,0.5667c0.0681,0,0.1329,-0.0141,0.1938,-0.035699999999999996v0.0021l1.3034999999999999,-0.5418c0.1788,-0.0834,0.2661,-0.189,0.3549,-0.3429c0.0372,-0.0648,0.1503,-0.336,0.2424,-0.5586l0.7866,3.2895l-0.0009,5.0969999999999995c-0.0015,0.5064,0.3483,0.9192,0.8595,0.9209999999999999c0.5117999999999999,0.0018,0.8817,-0.40709999999999996,0.885,-0.9144c0,0,0.0051,-5.7321,0.0051,-6.0159c-0.0006,-0.2829,-0.11309999999999999,-0.9552,-0.1785,-1.2033z" fill="#FFFFFF"/> <path d="M5.1392999999999995,11.1306v1.284c0.1665,-0.030599999999999995,0.30119999999999997,-0.10679999999999999,0.4059,-0.2289c0.10379999999999999,-0.12209999999999999,0.1557,-0.26489999999999997,0.1557,-0.4293c0,-0.147,-0.0435,-0.2739,-0.1305,-0.3807c-0.08819999999999999,-0.10559999999999999,-0.2319,-0.1872,-0.4311,-0.24509999999999998zm-0.7932,-1.9941c-0.078,0.105,-0.1173,0.22139999999999999,-0.1173,0.34859999999999997c0,0.11699999999999999,0.035699999999999996,0.2244,0.10619999999999999,0.324c0.07139999999999999,0.1002,0.17909999999999998,0.1812,0.3222,0.2424v-1.1391c-0.1305,0.0438,-0.2346,0.1188,-0.3111,0.2241zm3.0509999999999997,-1.5252h0.0012l-1.7924999999999998,-3.5961l-0.0003,0.0032999999999999995c-0.13169999999999998,-0.2724,-0.4113,-0.46049999999999996,-0.7365,-0.46049999999999996h-1.6521c-0.45089999999999997,-0.0003,-0.8169,0.36210000000000003,-0.8169,0.8091v10.332899999999999h5.0898v-6.6831000000000005c-0.0006,-0.1452,-0.0339,-0.28259999999999996,-0.09269999999999999,-0.4056zm-1.2456,5.0306999999999995c-0.243,0.2721,-0.5801999999999999,0.4389,-1.0112999999999999,0.5001v0.6159h-0.4821v-0.5993999999999999c-0.3834,-0.045899999999999996,-0.6939000000000001,-0.1878,-0.9339,-0.4245c-0.2388,-0.2373,-0.39149999999999996,-0.5718,-0.4578,-1.0041l0.867,-0.09269999999999999c0.0351,0.17579999999999998,0.1014,0.3273,0.1995,0.45509999999999995c0.0969,0.12719999999999998,0.20550000000000002,0.2193,0.32489999999999997,0.2763v-1.3794c-0.43379999999999996,-0.12299999999999998,-0.7526999999999999,-0.30929999999999996,-0.9545999999999999,-0.5574c-0.2031,-0.24899999999999997,-0.30449999999999994,-0.5510999999999999,-0.30449999999999994,-0.9069c0,-0.36,0.1143,-0.6624,0.3444,-0.9075c0.2292,-0.24449999999999997,0.534,-0.3858,0.9149999999999999,-0.4227v-0.3261h0.4821v0.3261c0.35159999999999997,0.0414,0.6321,0.1605,0.8403,0.3567c0.20759999999999998,0.1959,0.34049999999999997,0.4596,0.39840000000000003,0.7887l-0.8403,0.10859999999999999c-0.051300000000000005,-0.2586,-0.18389999999999998,-0.43470000000000003,-0.39840000000000003,-0.5267999999999999v1.287c0.5313,0.14309999999999998,0.8934000000000001,0.32789999999999997,1.0863,0.5547c0.1923,0.2274,0.2889,0.5187,0.2889,0.8742c0,0.3972,-0.1212,0.7317,-0.3639,1.0041z" fill="#FFFFFF"/>
    </svg>