<svg version="1.1" xmlns="http://www.w3.org/2000/svg" xlink="http://www.w3.org/1999/xlink" x="0px" y="0px" width="15px" height="15px" viewBox="0 0 15 15" style="enable-background:new 0 0 15 15;" space="preserve">
    <path d="M11,5.5C12.5,5.5,14,6,14,7.5C14,9,12.5,9.5,11,9.5C9.5,9.5,8,9,8,7.5C7.5,7.25,7.5,7.25,7,7.5C7,9,5.5,9.5,4,9.5C2.5,9.5,1,9,1,7.5C1,6,2.5,5.5,4,5.5C5.5,5.5,6.5,6,6.691,6.598C7,6.25,8,6.25,8.309,6.598C8.5,6,9.5,5.5,11,5.5L11,5.5zM11,6.75C10.586,6.75,10.25,7.086,10.25,7.5C10.25,7.914,10.586,8.25,11,8.25C11.414,8.25,11.75,7.914,11.75,7.5C11.75,7.086,11.414,6.75,11,6.75zM4,6.75C3.586,6.75,3.25,7.086,3.25,7.5C3.25,7.914,3.586,8.25,4,8.25C4.414,8.25,4.75,7.914,4.75,7.5C4.75,7.086,4.414,6.75,4,6.75z" fill="#FFFFFF"/>
    </svg>