<svg version="1.1" xmlns="http://www.w3.org/2000/svg" xlink="http://www.w3.org/1999/xlink" x="0px" y="0px" width="15px" height="15px" viewBox="0 0 15 15" style="enable-background:new 0 0 15 15;" space="preserve"><path d="M14,7L14,13.5C14,13.5,14,13.5,14,13.5C14,13.78,13.77,14,13.5,14L8,13.98L14,7ZM7,13.5L7,9L2,9C1.45,9,1,8.55,1,8C1,7.45,1.45,7,2,7L12.5,7L7,13.5ZM13,4C13.09,4.43,12.99,6.5,10.5,6.5C8,6.5,7.98,4.44,8.07,4L10.5,5L13,4ZM14,2.75L10.5,4.25L7,2.75L7,1C7.92,0.95,8.59,0.87,9,0.75C9.41,0.63,9.9,0.38,10.46,0C11.04,0.37,11.55,0.62,12,0.75C12.45,0.88,13.11,0.96,14,1L14,2.75ZM11.5,2.01C11.44,1.94,11.38,1.88,11.3,1.82C10.75,1.38,9.94,1.46,9.5,2.01L9.5,2.01L10.11,2.77C10.13,2.8,10.16,2.83,10.19,2.85C10.4,3.02,10.72,2.99,10.89,2.77L11.5,2.01Z" fill="#FFFFFF"/></svg>