<svg version="1.1" xmlns="http://www.w3.org/2000/svg" xlink="http://www.w3.org/1999/xlink" x="0px" y="0px" width="15px" height="15px" viewBox="0 0 15 15" style="enable-background:new 0 0 15 15;" space="preserve"><path d="M14.5,6.5C14.5,9,14,11,12.5,11C12.5,11,2.5,11,2.5,11C1,11,0.5,9,0.5,6.5C6.5,9.5,8.5,9.5,14.5,6.5zM7.5,5.5C7.875,5.5,8.25,5.875,8.25,6.25C8.25,6.625,7.875,7,7.5,7C7.125,7,6.75,6.625,6.75,6.25C6.75,5.875,7.125,5.5,7.5,5.5zM13,4.5L2,4.5C1,4.5,0.5,5,0.5,6C6.5,9,8.5,9,14.5,6C14.5,5,14,4.5,13,4.5z" fill="#FFFFFF"/></svg>