<svg version="1.1" xmlns="http://www.w3.org/2000/svg" xlink="http://www.w3.org/1999/xlink" x="0px" y="0px" width="15px" height="15px" viewBox="0 0 15 15" style="enable-background:new 0 0 15 15;" space="preserve"><path d="M7.5 0C11.625 0 15 3.375 15 7.5 15 11.625 11.642 15 7.5 15 3.358 15 0 11.625 0 7.5 0 3.375 3.375 0 7.5 0zM7.5.5C3.625.5.5 3.625.5 7.5.5 11.375 3.625 14.5 7.5 14.5L7.5 14.5C11.375 14.5 14.5 11.375 14.5 7.5 14.5 3.625 11.375.5 7.5.5zM11 3C11.5 3 11.5 4 11 4L9.5 4C9.25 4 7.75 3.25 8.25 3L11 3zM6.75 3C7.25 3.25 5.75 4 5.5 4L4 4C3.5 4 3.5 3 4 3L6.75 3zM4 5C4.5 5 3.75 6 3.5 6 3.5 6 2.5 6 2.5 6 2 6 2 5 2.5 5 2.5 5 4 5 4 5zM12.5 5C13 5 13 6 12.5 6L11.5 6C11.25 6 10.5 5 11 5L12.5 5zM13 7C13.5 7 13.5 8 13 8L12 8C11.5 8 11.5 7 12 7L13 7zM3 7C3.5 7 3.5 8 3 8L2 8C1.5 8 1.5 7 2 7L3 7zM3.5 9C3.75 9 4.5 10 4 10 4 10 2.5 10 2.5 10 2 10 2 9 2.5 9 2.5 9 3.5 9 3.5 9zM12.5 9C13 9 13 10 12.5 10L11 10C10.5 10 11.25 9 11.5 9L12.5 9zM7.5 4C9.367 4 11 5.633 11 7.5 11 9.367 9.367 11 7.5 11 5.633 11 4 9.367 4 7.5 4 5.633 5.633 4 7.5 4zM11 11C11.5 11 11.5 12 11 12L8.25 12C7.75 11.75 9.25 11 9.5 11L11 11zM5.5 11C5.75 11 7.25 11.75 6.75 12L4 12C3.5 12 3.5 11 4 11L5.5 11zM8.75 1.125C8.75 1.125 8.5 2 7.5 2 6.5 2 6.25 1.125 6.25 1.125 3.125 1.75 1 4.5 1 7.5 1 10.5 3.125 13.25 6.25 13.875 6.25 13.875 6.5 13 7.5 13 8.448 13 8.75 13.875 8.75 13.875 11.875 13.25 14 10.5 14 7.5 14 4.5 11.875 1.75 8.75 1.125zM9.5 9C9.5 10 8.75 10.5 7.75 10.5 9.25 9 7.5 9 7.25 8 7 8.75 6.25 9.75 7.25 10.5 6.5 10.5 5.5 10.25 5.5 9 5.5 8.25 6.25 7.5 6.25 5.75 6.5 6.5 7 6.75 7 6.75 7 5.25 8.25 4.5 8.25 4.5 8 6 9.25 6.25 9 7 8.75 8 9.5 8.5 9.5 9z" fill="#FFFFFF"/></svg>