<svg version="1.1" xmlns="http://www.w3.org/2000/svg" xlink="http://www.w3.org/1999/xlink" x="0px" y="0px" width="15px" height="15px" viewBox="0 0 15 15" style="enable-background:new 0 0 15 15;" space="preserve"><path d="M3.62368257,11.634222L10.8825204,8.17764287L10.5511934,5.85835368L4.00337835,8.97635155L3.62368257,11.634222ZM4.21559905,7.49080664L10.3660071,4.56204963L10.0765384,2.535769L4.56241797,5.06307421L4.21559905,7.49080664L4.21559905,7.49080664ZM4.73057566,3.88597037L8.84542011,2L5,2L4.73057566,3.88597037L4.73057566,3.88597037ZM11.104744,9.73320772L5.29446287,12.5L11.5,12.5L11.104744,9.73320772ZM4.0054518,1.42590795C4.02355332,1.30404757,4.08562391,1.19653132,4.17501415,1.1200086C4.26878334,1.041372,4.38504107,0.997821511,4.50821927,1L10.4917807,1C10.494524,0.999951484,10.4972638,0.999925649,10.4999999,0.999922342C10.7509671,1,10.9587483,1.18490108,10.9945482,1.42590795L12.9916484,13.4085088C12.9946759,13.4248813,12.9969057,13.4415335,12.998296,13.4584236C13.0197084,13.7157626,12.8407745,13.9501011,12.5821995,13.993197C12.5513752,13.9983343,12.52074,14.0005339,12.4905802,14L2.50941983,14C2.47925998,14.0005339,2.44862483,13.9983343,2.41780051,13.993197C2.14541535,13.9477994,1.96140551,13.6901857,2.00680304,13.4178005C2.00723969,13.4146851,2.00778153,13.411592,2.00835165,13.4085088L4.0054518,1.42590795Z" fill="#FFFFFF"/></svg>