<svg version="1.1" xmlns="http://www.w3.org/2000/svg" xlink="http://www.w3.org/1999/xlink" x="0px" y="0px" width="15px" height="15px" viewBox="0 0 15 15" style="enable-background:new 0 0 15 15;" space="preserve">
    <path d="M12,10.9443577L12,14L11,14L11,10.9500178C10.3698959,10.8184493,9.83183233,10.4361982,9.49486952,9.91232438C9.16108306,10.4233231,8.63467521,10.8057722,8,10.9443577L8,14L7,14L7,10.9500178C6.36989587,10.8184493,5.83183233,10.4361982,5.49486952,9.91232438C5.16108306,10.4233231,4.63467521,10.8057722,4,10.9443577L4,14L3,14L3,10.9500178C1.92657352,10.7258818,1.12026271,9.77422663,1.12026271,8.63424752C1.12026271,8.50208702,1.13133726,8.37015893,1.15337013,8.23984795C1.96943171,3.4132821,2.77046984,1,3.5564748,1C4.22456841,1,4.87894906,2.74354099,5.51961676,6.23062298C6.20942657,2.74354066,6.88838125,1,7.5564748,1C8.22456841,1,8.87894906,2.74354099,9.51961676,6.23062298C10.2094266,2.74354066,10.8883812,1,11.5564748,1C12.3421346,1,13.1088305,3.41116287,13.8565627,8.2334886L13.8566039,8.23348221C14.0519501,9.49332244,13.2289433,10.6760098,12,10.9443577Z" fill="#FFFFFF"/>
    </svg>