<svg version="1.1" xmlns="http://www.w3.org/2000/svg" xlink="http://www.w3.org/1999/xlink" x="0px" y="0px" width="15px" height="15px" viewBox="0 0 15 15" style="enable-background:new 0 0 15 15;" space="preserve"><path d="M8,9.75C7.25,9.75,6.75,10.25,6.75,11C6.75,11.75,7.25,12.25,8,12.25C8.75,12.25,9.25,11.75,9.25,11C9.25,10.25,8.75,9.75,8,9.75zM13.5,3.5C7,3,3,3.5,3,3.5C3,3.5,1.5,3.5,1.5,5L1.5,9C1.5,10,2.5,10,2.5,10C2.5,10,0.5,10,0.5,10C0,10,0,11,0.5,11C0.5,11,6.25,11,6.25,11C6.25,9.75,7,9.25,8,9.25C9,9.25,9.75,9.75,9.75,11L14,11C14,11,15,11,15,10C15,10,15,5,15,5C15,3.5,13.5,3.5,13.5,3.5zM5.75,7C5.75,7,3.25,7,3.25,7C2.75,7,2.75,5,3.25,5C3.25,5,5.75,5,5.75,5C6.25,5,6.25,7,5.75,7zM12.75,7C12.75,7,8.25,7,8.25,7C7.75,7,7.75,5,8.25,5C8.25,5,12.75,5,12.75,5C13.25,5,13.25,7,12.75,7z" fill="#FFFFFF"/></svg>