<svg version="1.1" xmlns="http://www.w3.org/2000/svg" xlink="http://www.w3.org/1999/xlink" x="0px" y="0px" width="15px" height="15px" viewBox="0 0 15 15" style="enable-background:new 0 0 15 15;" space="preserve">
    <path d="M7.94951074,12C8.59778577,11.3647415,9.00001937,10.4793441,9.00001937,9.5L9.00001937,5.11622901C8.701108,4.94332706,8.5,4.62014917,8.5,4.25L8.5,2.12889111L1.56201737,2.99613894C1.2880074,3.03039018,1.03811231,2.83602734,1.00386106,2.56201737C0.969609815,2.2880074,1.16397266,2.03811231,1.43798263,2.00386106L8.50836479,1.12006329C8.5720596,0.629166667,8.99175024,0.25,9.5,0.25C9.92155795,0.25,10.2821912,0.510849702,10.4292973,0.879946726L13.4379826,0.503861062C13.7119926,0.469609815,13.9618877,0.663972663,13.9961389,0.937982633C14.0303902,1.2119926,13.8360273,1.46188769,13.5620174,1.49613894L10.5,1.87889111L10.5,4.25C10.5,4.62013318,10.2989094,4.94329913,10.0000194,5.1162066L10.0000194,9.5C10.0000194,11.9852814,7.98530075,14,5.50001937,14L3.5,14C2.94771525,14,2.5,13.5522847,2.5,13C2.5,12.4477153,2.94771525,12,3.5,12L7.94951074,12L7.94951074,12Z" fill="#FFFFFF"/>
    </svg>