<svg version="1.1" xmlns="http://www.w3.org/2000/svg" xlink="http://www.w3.org/1999/xlink" x="0px" y="0px" width="15px" height="15px" viewBox="0 0 15 15" style="enable-background:new 0 0 15 15;" space="preserve"><path d="M5,7L14,7L14,8C12.6666667,8,11.6666667,8.33333333,11,9C10.3333333,9.66666667,10,10.3333333,10,11L6,11C6,10.3597108,5.74564609,9.74564609,5.29289322,9.29289322L5,9L5,7ZM1,7L4.5,7L4.5,9C3.16666667,9,2,8.33333333,1,7ZM6,11.5L10,11.5L12,13L12,14L10,14C9.33333333,13.3333333,8.66666667,13,8,13C7.33333333,13,6.66666667,13.3333333,6,14L4,14L4,13L6,11.5ZM9,3L9,1.5C9,1.22385763,9.22385763,1,9.5,1L11.5,1C11.7761424,1,12,1.22385763,12,1.5L12,5.5C12,5.77614237,11.7761424,6,11.5,6L9.5,6C9.22385763,6,9,5.77614237,9,5.5L9,4L3.5,4C3.22385763,4,3,3.77614237,3,3.5C3,3.22385763,3.22385763,3,3.5,3L9,3Z" fill="#FFFFFF"/></svg>