<svg version="1.1" xmlns="http://www.w3.org/2000/svg" xlink="http://www.w3.org/1999/xlink" x="0px" y="0px" width="15px" height="15px" viewBox="0 0 15 15" style="enable-background:new 0 0 15 15;" space="preserve"><path d="M11 0C12 0 12 0 12 1L12 14C12 15 12 15 11 15 11 15 4 15 4 15 3 15 3 15 3 14L3 1C3 0 3 0 4 0L11 0zM6.25 8C6.25 8 5.5 8 5.5 8 5 8 5 8.5 5 8.5 5 8.5 5 13.5 5 13.5 5 14 5.5 14 5.5 14L9.5 14C9.5 14 10 14 10 13.5 10 13.5 10 8.5 10 8.5 10 8 9.5 8 9.5 8L8.75 8C8.75 8 8.5 8.984 8.5 8.984 8.5 9.234 6.5 9.234 6.5 8.984 6.5 8.984 6.25 8 6.25 8zM10.5 1 4.5 1C4.5 1 4 1 4 1.5 4 1.5 4 5.5 4 5.5 4 5.5 4 6 4.5 6 4.5 6 10.5 6 10.5 6 10.5 6 11 6 11 5.5 11 5.5 11 1.5 11 1.5 11 1 10.5 1 10.5 1zM6.5 11C6.5 11.25 8.5 11.25 8.5 11 8.5 11 8.25 13.5 8.25 13.5 8.25 14 6.75 14 6.75 13.5 6.75 13.5 6.5 11 6.5 11zM7.751 9.507C7.819 9.502 7.879 9.554 7.885 9.623 7.889 9.68 7.889 9.68 7.894 9.748 7.899 9.816 7.847 9.876 7.779 9.882 7.71 9.887 7.65 9.835 7.645 9.766 7.64 9.699 7.64 9.699 7.635 9.641 7.63 9.573 7.682 9.513 7.751 9.507zM7.788 10.006C7.857 10.001 7.917 10.053 7.922 10.121 7.926 10.184 7.926 10.184 7.931 10.246 7.936 10.315 7.885 10.375 7.816 10.38 7.747 10.385 7.687 10.334 7.682 10.265 7.677 10.203 7.677 10.203 7.673 10.14 7.667 10.071 7.719 10.011 7.788 10.006zM7.825 10.505C7.756 10.51 7.705 10.57 7.71 10.639 7.717 10.74 7.717 10.74 7.719 10.763 7.724 10.832 7.784 10.884 7.853 10.879 7.922 10.874 7.974 10.814 7.968 10.745 7.967 10.721 7.967 10.721 7.959 10.62 7.954 10.551 7.894 10.5 7.825 10.505zM7.249 9.508C7.318 9.513 7.37 9.573 7.365 9.642 7.36 9.699 7.36 9.699 7.355 9.766 7.35 9.835 7.29 9.887 7.221 9.882 7.153 9.876 7.101 9.816 7.106 9.748 7.111 9.68 7.111 9.68 7.115 9.623 7.121 9.554 7.181 9.502 7.249 9.508zM7.212 10.006C7.281 10.011 7.333 10.071 7.327 10.14 7.323 10.203 7.323 10.203 7.318 10.265 7.313 10.334 7.253 10.385 7.184 10.38 7.115 10.375 7.064 10.315 7.069 10.246 7.074 10.184 7.074 10.184 7.078 10.121 7.083 10.053 7.143 10.001 7.212 10.006zM7.175 10.505C7.106 10.5 7.046 10.551 7.041 10.62 7.033 10.721 7.033 10.721 7.031 10.745 7.026 10.814 7.078 10.874 7.147 10.879 7.216 10.884 7.276 10.832 7.281 10.763 7.283 10.74 7.283 10.74 7.29 10.639 7.295 10.57 7.244 10.51 7.175 10.505zM8.75 2.5C8.75 2.5 8.25 5.5 8.25 5.5 8.25 5.5 6.75 5.5 6.75 5.5 6.75 5.5 6.25 2.5 6.25 2.5L8 2.5C8 2.5 8.5 1.25 8.5 1.25 8.547 1.125 8.781 1.156 8.75 1.25 8.75 1.25 8.25 2.5 8.25 2.5 8.25 2.5 8.75 2.5 8.75 2.5z" fill="#FFFFFF"/></svg>