<svg version="1.1" xmlns="http://www.w3.org/2000/svg" xlink="http://www.w3.org/1999/xlink" x="0px" y="0px" width="15px" height="15px" viewBox="0 0 15 15" style="enable-background:new 0 0 15 15;" space="preserve">
    <path d="M7.5,14.7c-3.9701999999999997,0,-7.199999999999999,-3.2300999999999997,-7.199999999999999,-7.199999999999999c0,-3.9701999999999997,3.2298,-7.199999999999999,7.199999999999999,-7.199999999999999c3.9699,0,7.199999999999999,3.2298,7.199999999999999,7.199999999999999c0,3.9699,-3.2300999999999997,7.199999999999999,-7.199999999999999,7.199999999999999zm0,-13.2c-3.3084000000000002,0,-6,2.6915999999999998,-6,6s2.6915999999999998,6,6,6s6,-2.6915999999999998,6,-6s-2.6915999999999998,-6,-6,-6zm0.0135,0.975s-2.1134999999999997,3.6212999999999997,-2.1134999999999997,4.725v0.6c0,1.1034,2.1197999999999997,4.8,2.1197999999999997,4.8s2.0802,-3.6198,2.0802,-4.723199999999999v-0.6786c0,-1.1037,-2.0865,-4.723199999999999,-2.0865,-4.723199999999999zm-0.0135,6.225c-0.6627,0,-1.2,-0.5373,-1.2,-1.2s0.5373,-1.2,1.2,-1.2s1.2,0.5373,1.2,1.2s-0.5373,1.2,-1.2,1.2z" fill="#FFFFFF"/>
    </svg>