<svg version="1.1" xmlns="http://www.w3.org/2000/svg" xlink="http://www.w3.org/1999/xlink" x="0px" y="0px" width="15px" height="15px" viewBox="0 0 15 15" style="enable-background:new 0 0 15 15;" space="preserve">
    <path d="M11.5,2C11.5,2,10,8,10,8C10,8,12,8,12,8C12,8,11,13,11,13C11,13,15,6,15,6C15,6,13,6,13,6C13,6,14.5,2,14.5,2C14.5,2,11.5,2,11.5,2z" fill="#FFFFFF"/> <path d="M4.5,0C5.25,0,6,0.75,6,1.5C6,2.25,5.25,3,4.5,3C3.75,3,3,2.25,3,1.5C3,0.75,3.75,0,4.5,0zM4.5,1C4.25,1,4,1.25,4,1.5C4,1.75,4.25,2,4.5,2C4.75,2,5,1.75,5,1.5C5,1.25,4.75,1,4.5,1zM4.5,13C4.75,13,5,13.25,5,13.5C5,13.75,4.75,14,4.5,14C4.25,14,4,13.75,4,13.5C4,13.25,4.25,13,4.5,13zM4.5,12C3.75,12,3,12.75,3,13.5C3,14.25,3.75,15,4.5,15C5.25,15,6,14.25,6,13.5C6,12.75,5.25,12,4.5,12zM4.5,7C4.75,7,5,7.25,5,7.5C5,7.75,4.75,8,4.5,8C4.25,8,4,7.75,4,7.5C4,7.25,4.25,7,4.5,7zM4.5,6C3.75,6,3,6.75,3,7.5C3,8.25,3.75,9,4.5,9C5.25,9,6,8.25,6,7.5C6,6.75,5.25,6,4.5,6zM7.75,3.25C7.75,3.25,5.25,5.75,5.25,5.75C5,6,6,7,6.25,6.75C6.25,6.75,8.75,4.25,8.75,4.25C9,4,8,3,7.75,3.25zM2.75,8.25C2.75,8.25,0.25,10.75,0.25,10.75C0,11,1,12,1.25,11.75C1.25,11.75,3.75,9.25,3.75,9.25C4,9,3,8,2.75,8.25z" fill="#FFFFFF"/>
    </svg>