<svg version="1.1" xmlns="http://www.w3.org/2000/svg" xlink="http://www.w3.org/1999/xlink" x="0px" y="0px" width="15px" height="15px" viewBox="0 0 15 15" style="enable-background:new 0 0 15 15;" space="preserve"><path d="m2.55 2.1275999999999997 2.8695.7917 1.5927-1.1193.5540999999999999.1365-1.5777 1.1226 8.6955 2.4159-.6363 2.3646-8.7279-2.4093c-3.3813-1.0197-2.7647999999999997-3.3027-2.7647999999999997-3.3027M10.1871 8.177399999999999c-.0105-.1974-.048-.38549999999999995-.11249999999999999-.5630999999999999l3.9843 1.1091-.1278.49169999999999997-3.7439999999999998-1.0377zm-3.6198-.9995999999999999c.1074-.1563.2346-.2973.3792-.41939999999999994l-6.6465000000000005-1.8359999999999999v.5288999999999999l6.2673 1.7265zm1.6458 1.7508000000000001c.3573 0 .6474-.29069999999999996.6474-.648 0-.3585-.29009999999999997-.6486-.6474-.6486-.3585 0-.6483.29009999999999997-.6483.6486 0 .3573.2898.648.6483.648zm6.4869 3.9713999999999996c-.31529999999999997 0-.6153000000000001-.07139999999999999-.8829-.1944-.2784-.126-.5889-.2016-.9141-.2016-.324 0-.6363.0756-.9105.2016-.2715.12299999999999998-.5709.1944-.8865.1944-.31529999999999997 0-.6159-.07139999999999999-.8865-.1944-.276-.126-.5859-.2016-.9105-.2016-.32580000000000003 0-.6357.0756-.9135.2016-.26789999999999997.12299999999999998-.5715.1944-.8853.1944-.31349999999999995 0-.6153000000000001-.07139999999999999-.8846999999999999-.1944-.2778-.126-.5901-.2016-.9138-.2016-.324 0-.636.0756-.9105.2016-.2694.12299999999999998-.5727.1944-.8867999999999999.1944-.31349999999999995 0-.6153000000000001-.07139999999999999-.8865-.1944-.2748-.126-.5868-.2016-.9107999999999999-.2016-.3237 0-.6357.0756-.9119999999999999.2016-.2691.12299999999999998-.5727.1944-.8846999999999999.1944l-.0204-5.2815 7.2681 2.0058c-.501-.2421-.849-.75-.849-1.3437 0-.8261999999999999.6680999999999999-1.4949 1.4937-1.4949.8232 0 1.4931.6687 1.4931 1.4949 0 .8255999999999999-.6696000000000001 1.494-1.4931 1.494l-.147-.0141 6.623399999999999 1.8264.010799999999999999 1.3131z" fill="#FFFFFF"/></svg>