<svg version="1.1" xmlns="http://www.w3.org/2000/svg" xlink="http://www.w3.org/1999/xlink" x="0px" y="0px" width="15px" height="15px" viewBox="0 0 15 15" style="enable-background:new 0 0 15 15;" space="preserve">
    <path d="M10.89,4.512C11.327,4.585,11.17,4.488,11.407,4.709C11.567,4.934,11.515,5.246,11.291,5.407C10.853,5.719,10.853,5.719,9.541,6.657C8.228,7.594,8.228,7.594,7.791,7.907C7.629,8.023,7.413,8.031,7.243,7.929C6.878,7.71,7.112,7.851,6.54,7.507C5.941,7.147,5.342,6.788,4.743,6.429C4.506,6.287,4.429,5.98,4.571,5.743C4.713,5.506,5.02,5.429,5.257,5.571C5.622,5.79,5.387,5.649,5.96,5.993C7.195,6.734,6.689,6.431,7.476,6.903C7.971,6.549,8.465,6.196,8.959,5.843C10.272,4.906,10.272,4.906,10.709,4.593L10.89,4.512zM7.5,1.5C10.814,1.5,13.5,4.186,13.5,7.5C13.5,10.814,10.814,13.5,7.5,13.5C4.186,13.5,1.5,10.814,1.5,7.5C1.5,4.186,4.186,1.5,7.5,1.5zM7.5,0C3.358,0,0,3.358,0,7.5C0,11.642,3.358,15,7.5,15C11.642,15,15,11.642,15,7.5C15,3.358,11.642,0,7.5,0z" fill="#FFFFFF"/>
    </svg>