<svg version="1.1" xmlns="http://www.w3.org/2000/svg" xlink="http://www.w3.org/1999/xlink" x="0px" y="0px" width="15px" height="15px" viewBox="0 0 15 15" style="enable-background:new 0 0 15 15;" space="preserve"><path d="M9.214,1.5C10.476,1.5,11.5,2.533,11.5,3.808L11.5,11.192C11.5,12.466,10.477,13.5,9.214,13.5L5.786,13.499C4.523,13.5,3.5,12.466,3.5,11.192L3.5,3.808C3.5,2.533,4.523,1.5,5.786,1.5L9.214,1.5zM7.5,8.5C6.672,8.5,6,9.171,6,10C6,10.828,6.672,11.5,7.5,11.5C8.328,11.5,9,10.828,9,10C9,9.171,8.328,8.5,7.5,8.5zM7.5,3.5C6.671,3.5,6,4.172,6,5C6,5.828,6.671,6.5,7.5,6.5C8.328,6.5,9,5.828,9,5C9,4.172,8.328,3.5,7.5,3.5z" fill="#FFFFFF"/></svg>