<svg version="1.1" xmlns="http://www.w3.org/2000/svg" xlink="http://www.w3.org/1999/xlink" x="0px" y="0px" width="15px" height="15px" viewBox="0 0 15 15" style="enable-background:new 0 0 15 15;" space="preserve">
    <path d="M11,0C12,0,12,0,12,1L12,14C12,15,12,15,11,15C11,15,4,15,4,15C3,15,3,15,3,14L3,1C3,0,3,0,4,0L11,0zM4.5,8C4.5,8,4,8,4,8.5C4,8.5,4,13.5,4,13.5C4,14,4.5,14,4.5,14L10.5,14C10.5,14,11,14,11,13.5C11,13.5,11,8.5,11,8.5C11,8,10.5,8,10.5,8C10.5,8,4.5,8,4.5,8zM10.5,1L4.5,1C4.5,1,4,1,4,1.5C4,1.5,4,5.5,4,5.5C4,5.5,4,6,4.5,6C4.5,6,10.5,6,10.5,6C10.5,6,11,6,11,5.5C11,5.5,11,1.5,11,1.5C11,1,10.5,1,10.5,1z" fill="#FFFFFF"/> <path d="M7.5,2C9.167,2,10.5,2.5,10.5,3.5C10.5,4.5,9.167,5,7.5,5C5.833,5,4.5,4.5,4.5,3.5C4.5,2.5,5.833,2,7.5,2zM7.255,4.37C7.186,4.368,7.128,4.422,7.125,4.49C7.123,4.56,7.176,4.618,7.245,4.62C7.329,4.623,7.414,4.625,7.5,4.625C7.569,4.625,7.625,4.569,7.625,4.5C7.625,4.431,7.569,4.375,7.5,4.375C7.417,4.375,7.336,4.373,7.255,4.37zM8.16,4.34C8.08,4.349,7.999,4.356,7.916,4.361C7.847,4.366,7.795,4.426,7.8,4.494C7.804,4.563,7.864,4.615,7.933,4.611C8.019,4.605,8.104,4.598,8.187,4.588C8.256,4.581,8.305,4.519,8.298,4.451C8.29,4.382,8.228,4.333,8.16,4.34zM6.525,4.296C6.457,4.284,6.393,4.329,6.381,4.398C6.369,4.466,6.414,4.53,6.482,4.542C6.565,4.556,6.649,4.569,6.736,4.58C6.804,4.588,6.867,4.539,6.875,4.471C6.884,4.402,6.835,4.34,6.766,4.331C6.684,4.321,6.604,4.309,6.525,4.296zM8.929,4.191C8.854,4.213,8.776,4.234,8.695,4.252C8.628,4.267,8.585,4.334,8.6,4.401C8.616,4.469,8.683,4.511,8.75,4.496C8.836,4.476,8.92,4.455,9,4.431C9.066,4.412,9.104,4.342,9.084,4.276C9.065,4.21,8.996,4.172,8.929,4.191zM5.821,4.107C5.757,4.082,5.685,4.114,5.66,4.178C5.635,4.243,5.667,4.315,5.731,4.34C5.809,4.37,5.891,4.398,5.977,4.424C6.043,4.444,6.113,4.407,6.132,4.34C6.152,4.274,6.115,4.205,6.049,4.185C5.969,4.161,5.893,4.135,5.821,4.107zM9.712,3.852L9.619,3.875C9.562,3.917,9.496,3.958,9.423,3.997C9.362,4.029,9.338,4.105,9.371,4.166C9.403,4.227,9.479,4.25,9.54,4.218C9.624,4.173,9.7,4.126,9.768,4.076C9.823,4.035,9.835,3.957,9.794,3.901L9.712,3.852zM5.138,3.685L5.047,3.713C4.994,3.758,4.987,3.836,5.031,3.889C5.086,3.956,5.155,4.02,5.237,4.08C5.293,4.12,5.371,4.108,5.412,4.052C5.453,3.997,5.441,3.919,5.385,3.878C5.319,3.83,5.265,3.78,5.223,3.73L5.138,3.685zM9.996,3.197L9.901,3.203C9.839,3.234,9.813,3.308,9.843,3.37C9.875,3.514,9.874,3.529,9.871,3.544C9.859,3.612,9.905,3.677,9.973,3.688C10.041,3.7,10.106,3.654,10.118,3.586C10.123,3.557,10.125,3.528,10.125,3.494C10.124,3.415,10.104,3.337,10.068,3.261L9.996,3.197zM5.198,2.993L5.109,3.027C5.031,3.101,4.971,3.18,4.932,3.262C4.902,3.325,4.928,3.399,4.99,3.429C5.052,3.459,5.127,3.433,5.157,3.371C5.183,3.318,5.224,3.263,5.281,3.208C5.332,3.16,5.333,3.081,5.285,3.031L5.198,2.993zM9.303,2.711L9.234,2.777C9.206,2.84,9.234,2.914,9.297,2.942C9.373,2.976,9.443,3.012,9.506,3.05C9.565,3.085,9.642,3.066,9.677,3.007C9.713,2.948,9.694,2.871,9.634,2.836C9.563,2.793,9.484,2.752,9.399,2.714L9.303,2.711zM5.846,2.618C5.761,2.647,5.679,2.679,5.603,2.713C5.54,2.741,5.512,2.815,5.54,2.878C5.568,2.941,5.642,2.969,5.705,2.941C5.774,2.91,5.849,2.881,5.927,2.854C5.993,2.832,6.028,2.761,6.005,2.695C5.983,2.63,5.912,2.595,5.846,2.618zM8.647,2.482C8.579,2.469,8.513,2.512,8.5,2.58C8.486,2.648,8.53,2.714,8.597,2.727C8.679,2.744,8.758,2.762,8.834,2.782C8.9,2.8,8.969,2.76,8.986,2.693C9.004,2.626,8.964,2.558,8.898,2.54C8.817,2.519,8.733,2.5,8.647,2.482zM6.655,2.431C6.569,2.443,6.484,2.457,6.402,2.473C6.334,2.486,6.29,2.551,6.303,2.619C6.316,2.687,6.381,2.731,6.449,2.718C6.527,2.703,6.607,2.69,6.689,2.679C6.758,2.669,6.806,2.606,6.796,2.538C6.787,2.469,6.724,2.422,6.655,2.431zM7.884,2.386C7.815,2.382,7.756,2.435,7.752,2.503C7.748,2.572,7.801,2.632,7.869,2.635C7.952,2.64,8.034,2.647,8.113,2.655C8.182,2.662,8.243,2.612,8.25,2.543C8.257,2.475,8.207,2.413,8.139,2.406C8.055,2.398,7.97,2.391,7.884,2.386zM7.363,2.376C7.278,2.378,7.193,2.381,7.109,2.386C7.04,2.391,6.987,2.45,6.991,2.519C6.996,2.588,7.055,2.64,7.124,2.636C7.204,2.631,7.286,2.628,7.369,2.626C7.438,2.625,7.492,2.568,7.491,2.499C7.49,2.43,7.433,2.375,7.363,2.376z" fill="#FFFFFF"/> <path d="M7.5,8.5C8.917,8.5,10,9.667,10,11C10,12.333,8.917,13.5,7.5,13.5C6.083,13.5,5,12.417,5,11C5,9.583,6.083,8.5,7.5,8.5zM7,11.583C7,11.583,6.042,12.25,6.042,12.25C6.042,12.25,6.5,12.917,7.5,12.917C8.5,12.917,8.958,12.25,8.958,12.25C8.958,12.25,8,11.583,8,11.583C7.688,11.792,7.313,11.792,7,11.583zM7.167,9.083C6.333,9.25,5.583,10.083,5.583,11C5.583,11.521,5.729,11.729,5.729,11.729C5.729,11.729,6.75,11.083,6.75,11.083C6.75,11.083,6.667,10.583,7.167,10.333C7.167,10.333,7.167,9.083,7.167,9.083zM7.833,9.083C7.833,9.083,7.833,10.333,7.833,10.333C8.333,10.583,8.25,11.083,8.25,11.083C8.25,11.083,9.271,11.729,9.271,11.729C9.271,11.729,9.417,11.5,9.417,11C9.417,10.083,8.667,9.25,7.833,9.083z" fill="#FFFFFF"/>
    </svg>