<svg version="1.1" xmlns="http://www.w3.org/2000/svg" xlink="http://www.w3.org/1999/xlink" x="0px" y="0px" width="15px" height="14.999921874999998px" viewBox="0 0 15 14.999921874999998" style="enable-background:new 0 0 15 15;" space="preserve"><path d="M1.24375 11.25H5.00625A.30625.30625 0 0 0 5.3125 10.943750000000001V5.3125a.30625.30625 0 0 0-.5625-.16875L.990625 10.774999999999999A.30625.30625 0 0 0 1.24375 11.25ZM6.25 11.25H13.746875000000001a.3125.3125 0 0 0 .315625-.31875C13.931249999999999 5.1875 10.262500000000001.2375 6.259375 0a.309375.309375 0 0 0-.321875.3125V10.9375A.3125.3125 0 0 0 6.25 11.25ZM14.375 12.1875H.625a.625.625 0 0 0-.625.625 2.1875 2.1875 0 0 0 2.1875 2.1875H12.8125a2.1875 2.1875 0 0 0 2.1875-2.1875A.625.625 0 0 0 14.375 12.1875Z" fill="#FFFFFF"/></svg>