<svg version="1.1" xmlns="http://www.w3.org/2000/svg" xlink="http://www.w3.org/1999/xlink" x="0px" y="0px" width="15px" height="15px" viewBox="0 0 15 15" style="enable-background:new 0 0 15 15;" space="preserve"><path d="M8.8827,13.0314c0.10319999999999999,-0.0174,0.20639999999999997,-0.0237,0.31289999999999996,-0.0237c0.3216,0,0.63,0.0732,0.9036,0.2004c0.2661,0.1158,0.5637,0.186,0.8754000000000001,0.186s0.6134999999999999,-0.0702,0.8795999999999999,-0.186c0.2724,-0.12719999999999998,0.5808,-0.2004,0.8999999999999999,-0.2004c0.32280000000000003,0,0.5651999999999999,0.0732,0.8375999999999999,0.2004c0.2661,0.1158,0.5082,0.186,0.8081999999999999,0.186v1.3058999999999998c-0.3,0,-0.5424,-0.0702,-0.8081999999999999,-0.1908c-0.2724,-0.1218,-0.5480999999999999,-0.1968,-0.8709,-0.1968c-0.3192,0,-0.6108,0.075,-0.8832,0.1968c-0.26639999999999997,0.1206,-0.5595,0.1908,-0.8712,0.1908s-0.6053999999999999,-0.0702,-0.8712,-0.1908c-0.2736,-0.1218,-0.5799,-0.1968,-0.9015,-0.1968c-0.3192,0,-0.6273000000000001,0.075,-0.9038999999999999,0.1968c-0.2658,0.1206,-0.5633999999999999,0.1908,-0.8750999999999999,0.1908c-0.312,0,-0.6096,-0.0702,-0.8754000000000001,-0.1908c-0.2724,-0.1218,-0.5799,-0.1968,-0.9024,-0.1968c-0.32280000000000003,0,-0.6312,0.075,-0.9041999999999999,0.1968c-0.2655,0.1206,-0.5637,0.1908,-0.8735999999999999,0.1908c-0.312,0,-0.6099,-0.0702,-0.8754000000000001,-0.1908c-0.2766,-0.1218,-0.5853,-0.1968,-0.9041999999999999,-0.1968c-0.32249999999999995,0,-0.6312,0.075,-0.9036,0.1968c-0.2661,0.1206,-0.564,0.1908,-0.876,0.1908v-1.3058999999999998c0.312,0,0.6099,-0.0702,0.876,-0.186c0.2724,-0.12719999999999998,0.5811,-0.2004,0.9036,-0.2004c0.31889999999999996,0,0.6273000000000001,0.0732,0.9041999999999999,0.2004c0.2655,0.1158,0.5637,0.186,0.8754000000000001,0.186c0.30989999999999995,0,0.6081,-0.0702,0.8735999999999999,-0.186c0.1566,-0.0702,0.3192,-0.12719999999999998,0.48929999999999996,-0.1581l8.2944,-1.4679c0.2688,-0.0633,0.6345000000000001,-0.24929999999999997,0.7617,-0.5697c0.0252,-0.0609,0.11309999999999999,-0.0783,0.1875,-0.075c0.1353,0.0078,0.2343,0.12359999999999999,0.2343,0.2577c0,0.21119999999999997,-0.1635,0.8024999999999999,-1.0697999999999999,0.9851999999999999l-4.7475,0.8511000000000001zm-7.1967,-10.3491c0.6627,0,1.2018,-0.5348999999999999,1.2018,-1.1930999999999998c0,-0.6579,-0.5390999999999999,-1.1892,-1.2018,-1.1892c-0.6624,0,-1.1979,0.5313,-1.1979,1.1892c0,0.6585,0.5355,1.1930999999999998,1.1979,1.1930999999999998zm3.4896,9.6282c0.0606,0.2643,0.38309999999999994,0.5175,0.72,0.5175l-0.0039,0.0036c0.4209,0,0.7649999999999999,-0.3381,0.7649999999999999,-0.7598999999999999l-0.0141,-0.12359999999999999l-0.9138,-3.8952c-0.078,-0.24989999999999998,-0.31589999999999996,-0.486,-0.5604,-0.5847l-1.3448999999999998,-0.8021999999999999l-0.6132,-2.625l3.7794,-0.0069c0.3087,0,0.5570999999999999,-0.2085,0.5570999999999999,-0.5151c0,-0.306,-0.24839999999999998,-0.5187,-0.5570999999999999,-0.5187h-5.4563999999999995c-0.5450999999999999,0,-0.7974,0.34979999999999994,-0.7332,0.6875999999999999l0.7728,3.4617c0.0606,0.3273,0.2763,0.5925,0.5676,0.7371l0.0174,0.0021l2.2494,1.3107l0.7683,3.1109999999999998zm2.6243999999999996,-8.7105h6.8999999999999995v0.3h-6.8999999999999995z" fill="#FFFFFF"/></svg>