<svg version="1.1" xmlns="http://www.w3.org/2000/svg" xlink="http://www.w3.org/1999/xlink" x="0px" y="0px" width="15px" height="15px" viewBox="0 0 15 15" style="enable-background:new 0 0 15 15;" space="preserve"><path d="M7,7.5L11.75,7.5L10.7,2L4.3,2L3.25,7.5L4,7.5L7,7.5ZM11,7L8,7L8,6C8,5.44771525,8.44771525,5,9,5L10,5C10.5522847,5,11,5.44771525,11,6L11,7ZM7,7L4,7L4,6C4,5.44771525,4.44771525,5,5,5L6,5C6.55228475,5,7,5.44771525,7,6L7,7L7,7ZM9.5,4.499032C8.94771525,4.499032,8.5,4.05153344,8.5,3.499516C8.5,2.94749856,8.94771525,2.5,9.5,2.5C10.0522847,2.5,10.5,2.94749856,10.5,3.499516C10.5,4.05153344,10.0522847,4.499032,9.5,4.499032ZM5.5,4.499032C4.94771525,4.499032,4.5,4.05153344,4.5,3.499516C4.5,2.94749856,4.94771525,2.5,5.5,2.5C6.05228475,2.5,6.5,2.94749856,6.5,3.499516C6.5,4.05153344,6.05228475,4.499032,5.5,4.499032ZM14,9L14,12.5L13,12.5L13,13.5C13,14.0523,12.5523,14.5,12,14.5C11.4477,14.5,11,14.0523,11,13.5L11,12.5L4,12.5L4,13.5C4,14.0523,3.5523,14.5,3,14.5C2.4477,14.5,2,14.0523,2,13.5L2,12.5L1,12.5L1,9C0.9994,8.3059,1.475,7.702,2.15,7.54L3.56,1.28C3.6425,1.1115,3.8124,1.0034,4,1L11,1C11.2019,1.001,11.3833,1.1233,11.46,1.31L12.85,7.55C13.5213,7.7111,13.996,8.3096,14,9ZM3,11C3.5523,11,4,10.5523,4,10C4,9.4477,3.5523,9,3,9C2.4477,9,2,9.4477,2,10C2,10.5523,2.4477,11,3,11ZM12,11C12.5523,11,13,10.5523,13,10C13,9.4477,12.5523,9,12,9C11.4477,9,11,9.4477,11,10C11,10.5523,11.4477,11,12,11Z" fill="#FFFFFF"/></svg>