<svg version="1.1" xmlns="http://www.w3.org/2000/svg" xlink="http://www.w3.org/1999/xlink" x="0px" y="0px" width="15px" height="15px" viewBox="0 0 15 15" style="enable-background:new 0 0 15 15;" space="preserve"><path d="M14,8L14,7.24L13.38,6L1.62,6L1,7.24L1,8L2.5,8L2.5,6L3.5,6L3.5,8L5,8L5,6L6,6L6,10L9,10L9,6L10,6L10,8L11.5,8L11.5,6L12.5,6L12.5,8L14,8L14,8ZM14,11L13.5,11C13.5,11.55,13.05,12,12.5,12C11.95,12,11.5,11.55,11.5,11L11,11C11,11.55,10.55,12,10,12C9.45,12,9,11.55,9,11L6,11C6,11.55,5.55,12,5,12C4.45,12,4,11.55,4,11L3.5,11C3.5,11.55,3.05,12,2.5,12C1.95,12,1.5,11.55,1.5,11L1,11C0.45,11,0,10.55,0,10L0,7.24C0,7.08,0.04,6.93,0.11,6.79L0.72,5.55C0.89,5.21,1.24,5,1.62,5L7.22,5L5.53,3.08C5.3,2.83,5.33,2.43,5.59,2.2C5.6,2.19,5.61,2.18,5.62,2.17C5.71,2.07,5.85,2,6,2L9,2C9.28,2,9.5,2.22,9.5,2.5C9.5,2.78,9.28,3,9,3L7.13,3L8.89,5L13.38,5C13.76,5,14.11,5.21,14.28,5.55L14.89,6.79C14.96,6.93,15,7.08,15,7.24L15,10C15,10.55,14.55,11,14,11L14,11ZM7,6L8,6L8,10L7,10L7,6Z" fill="#FFFFFF"/></svg>