<svg version="1.1" xmlns="http://www.w3.org/2000/svg" xlink="http://www.w3.org/1999/xlink" x="0px" y="0px" width="15px" height="15px" viewBox="0 0 15 15" style="enable-background:new 0 0 15 15;" space="preserve"><path d="M6.8999999999999995,14.3067v-1.9025999999999998l-1.0071,0.5976l-0.4929,-0.3102v-0.6687l1.5,-0.8958v-1.2504l-1.2,0.7353v-1.3248l-1.2,0.6282v1.797l-0.4959,0.369l-0.40409999999999996,-0.3333v-1.2035999999999998l-1.6722,0.9365999999999999l-0.7278,-0.29969999999999997v-0.7586999999999999l1.7054999999999998,-0.951l-1.1055,-0.5466v-0.696l0.6369,-0.3381l1.5642,0.9204l1.0836,-0.6252l-0.0246,-0.0195l-1.0995,-0.6369l1.0704,-0.6684l-1.0731,-0.6249l-1.5639,0.9156l-0.594,-0.29069999999999996v-0.6920999999999999l1.0626,-0.5933999999999999l-1.6625999999999999,-0.9158999999999999v-0.7586999999999999l0.6963,-0.3342l1.7037,0.9591v-1.2227999999999999l0.4455,-0.3381l0.5829,0.354l-0.0168,1.8315000000000001l1.1018999999999999,0.6365999999999999l0.0099,-1.2933l1.1766,0.6297v-1.2501l-1.5,-0.8964v-0.6642l0.4929,-0.315l1.0071,0.5976v-1.8984l0.5982,-0.3972l0.6017999999999999,0.3972v1.8984l1.1718,-0.6093000000000001l0.6282,0.3657v0.5976l-1.7999999999999998,0.9239999999999999v1.2501l1.2,-0.6800999999999999v1.3601999999999999l1.2,-0.6252v-1.9571999999999998l0.4365,-0.2598l0.46349999999999997,0.2595v1.2501l1.7526,-0.9239999999999999l0.6474,0.3654v0.7077l-1.6485,0.951l1.0485,0.5861999999999999v0.6762l-0.549,0.2988l-1.5980999999999999,-0.9473999999999999l-1.1037,0.7038l1.0647,0.6684l-1.0977,0.6365999999999999l1.1316,0.5976l1.6167,-0.8958l0.5355,0.36479999999999996v0.6449999999999999l-0.9959999999999999,0.5660999999999999l1.596,0.951v0.747l-0.7565999999999999,0.3111l-1.6434,-0.8964v1.1864999999999999l-0.45599999999999996,0.3147l-0.444,-0.3147v-1.8005999999999998l-1.2,-0.6639v1.2504l-1.2,-0.6803999999999999v1.2504l1.5,0.8958v0.7077l-0.4941,0.2712l-1.0059,-0.597v1.9025999999999998l-0.6017999999999999,0.393l-0.5982,-0.3933zm-0.43979999999999997,-6.779100000000001l0.5658,0.8724h1.0541999999999998l0.4839,-0.8724l-0.5112,-0.9276h-1.0541999999999998l-0.5385,0.9276z" fill="#FFFFFF"/></svg>