<svg version="1.1" xmlns="http://www.w3.org/2000/svg" xlink="http://www.w3.org/1999/xlink" x="0px" y="0px" width="15px" height="15px" viewBox="0 0 15 15" style="enable-background:new 0 0 15 15;" space="preserve">
    <path d="M6,0.5C6,0.5,6,2,6,2C6,2,8.5,2,8.5,2C9,2,9,2.5,9,2.5L9,12.5C9,12.5,9,13,8.5,13C8.5,13,6,13,6,13L6,14.5C6,15,3,15,3,14.5L3,13C3,13,0.5,13,0.5,13C0,13,0,12.5,0,12.5L0,2.5C0,2.5,0,2,0.5,2C0.5,2,3,2,3,2C3,2,3,0.5,3,0.5C3,0,6,0,6,0.5zM4.5,4C2.5,4,1,5.5,1,7.5C1,9.5,2.5,11,4.5,11C6.5,11,8,9.5,8,7.5C8,5.5,6.5,4,4.5,4z" fill="#FFFFFF"/> <path d="M3,9C3,9,6,9,6,9C6.5,9,6.5,10,6,10C6,10,3,10,3,10C2.5,10,2.5,9,3,9zM2.5,5.5C2.25,5.75,3.6,7.1,3.6,7.1C3.6,7.1,3.5,7.3,3.5,7.5C3.5,8,3.875,8.5,4.5,8.5C5.125,8.5,5.5,8,5.5,7.5C5.5,7,5.125,6.5,4.5,6.5C4.2,6.5,4.1,6.6,4.1,6.6C4.1,6.6,2.75,5.25,2.5,5.5z" fill="#FFFFFF"/> <path d="M14,9.35C14.25,10.5,14.25,12,14.25,12C14,12.25,10.5,12.25,10.25,12C10.25,12,10.25,10.5,10.5,9.35C11.25,10,13.5,10,14,9.35z" fill="#FFFFFF"/> <path d="M14,3.5C14,3.25,15,3.25,15,3.5C15,5,13.5,6.5,12.3,9C12,8.75,11.75,8.4,11.75,8.4C12.75,6,14,4.75,14,3.5zM14,6.5C13.75,7,13.5,7.25,13.36,7.5C13.36,8,13.21,8.26,12.6,9.15C12.5,9.5,13.25,9.5,13.5,9.25C14,8.5,14.25,8,14,6.5zM13.5,3.5C13.5,3.25,12.5,3.25,12.5,3.5C12.5,4.5,12.5,5,12.8,5.8C12.95,5.65,13.25,5,13.4,4.75C13.375,4.34,13.375,4,13.5,3.5zM10.5,3.5C10.5,5,11,5.85,12.25,6.75C12.1,7,12,7.25,11.8,7.65C10.5,6.612,9.5,5.25,9.5,3.5C9.5,3.25,10.5,3.25,10.5,3.5zM10.75,7C10.5,8,10.75,8.5,11.1,9.15C11.25,9.3,11.75,9.5,12.3,9.32C11.4,8.5,11.35,8.2,11.5,7.75C11.25,7.5,11,7.25,10.75,7zM12,3.5C12,3.25,11,3.25,11,3.5C11.25,4.25,11.5,4.75,11.4,5.56C11.5,5.85,11.85,6.161,12.15,6.312C12.5,5.25,12.22,4.387,12,3.5z" fill="#FFFFFF"/>
    </svg>