<svg version="1.1" xmlns="http://www.w3.org/2000/svg" xlink="http://www.w3.org/1999/xlink" x="0px" y="0px" width="15px" height="15px" viewBox="0 0 15 15" style="enable-background:new 0 0 15 15;" space="preserve"><path d="M11.5 2C11.5 2 10 8 10 8 10 8 12 8 12 8 12 8 11 13 11 13 11 13 15 6 15 6 15 6 13 6 13 6 13 6 14.5 2 14.5 2 14.5 2 11.5 2 11.5 2zM1 3.5C1 3 2 3 2 3.5 2 3.5 2 4.75 2 4.75 3 4.75 2.75 3.75 3 3.75 3.25 3.75 3 4.75 4 4.75 5 4.75 4.75 3.75 5 3.75 5.25 3.75 5 4.75 6 4.75 7 4.75 6.75 3.75 7 3.75 7.25 3.75 7 4.75 8 4.75 8 4.75 8 3.5 8 3.5 8 3 9 3 9 3.5 9 3.5 9 5 9 5 9 5 9 6 8 6 7 6 7 5 7 5 7 5 7 6 6 6 5 6 5 5 5 5 5 5 5 6 4 6 3 6 3 5 3 5 3 5 3 6 2 6 1 6 1 5 1 5 1 5 1 3.5 1 3.5zM1 11.5C1 11.5 1 10 1 10 1 10 1 9 2 9 3 9 3 10 3 10 3 10 3 9 4 9 5 9 5 10 5 10 5 10 5 9 6 9 7 9 7 10 7 10 7 10 7 9 8 9 9 9 9 10 9 10 9 10 9 11.5 9 11.5 9 12 8 12 8 11.5 8 11.5 8 10.25 8 10.25 7 10.25 7.25 11.25 7 11.25 6.75 11.25 7 10.25 6 10.25 5 10.25 5.25 11.25 5 11.25 4.75 11.25 5 10.25 4 10.25 3 10.25 3.25 11.25 3 11.25 2.75 11.25 3 10.25 2 10.25 2 10.25 2 11.5 2 11.5 2 12 1 12 1 11.5zM1 7 1 8 9 8 9 7 1 7zM8.5 1C8.75 1 9 1.25 9 1.5 9 1.75 8.75 2 8.5 2 8.25 2 8 1.75 8 1.5 8 1.25 8.25 1 8.5 1zM8.5 0C7.75 0 7 .75 7 1.5 7 2.25 7.75 3 8.5 3 9.25 3 10 2.25 10 1.5 10 .75 9.25 0 8.5 0zM1.5 1C1.75 1 2 1.25 2 1.5 2 1.75 1.75 2 1.5 2 1.25 2 1 1.75 1 1.5 1 1.25 1.25 1 1.5 1zM1.5 0C.75 0 0 .75 0 1.5 0 2.25.75 3 1.5 3 2.25 3 3 2.25 3 1.5 3 .75 2.25 0 1.5 0zM8.5 13C8.75 13 9 13.25 9 13.5 9 13.75 8.75 14 8.5 14 8.25 14 8 13.75 8 13.5 8 13.25 8.25 13 8.5 13zM8.5 12C7.75 12 7 12.75 7 13.5 7 14.25 7.75 15 8.5 15 9.25 15 10 14.25 10 13.5 10 12.75 9.25 12 8.5 12zM1.5 13C1.75 13 2 13.25 2 13.5 2 13.75 1.75 14 1.5 14 1.25 14 1 13.75 1 13.5 1 13.25 1.25 13 1.5 13zM1.5 12C.75 12 0 12.75 0 13.5 0 14.25.75 15 1.5 15 2.25 15 3 14.25 3 13.5 3 12.75 2.25 12 1.5 12z" fill="#FFFFFF"/></svg>