<svg version="1.1" xmlns="http://www.w3.org/2000/svg" xlink="http://www.w3.org/1999/xlink" x="0px" y="0px" width="15px" height="15px" viewBox="0 0 15 15" style="enable-background:new 0 0 15 15;" space="preserve"><path d="M11 8C12 8.5 14 8.5 15 8 15 8 15 14 15 14 15 15 11 15 11 14 11 14 11 8 11 8zM11.5 4.5C11.5 4.5 11.5 7.5 11.5 7.5 11.5 8 14.5 8 14.5 7.5 14.5 7.5 14.5 4.5 14.5 4.5 14 5 12 5 11.5 4.5zM12 2C12 2 12 4 12 4 12 4.5 14 4.5 14 4 14 4 14 .5 14 .5 14 .5 12 1.5 12 2zM7 5C8.5 5 8.5 7 10 7 10 7 8 10 5 10 2 10 0 7 0 7 1.5 7 1.5 5 3 5 4 5 5 6 5 6 5 6 6 5 7 5zM8 7C6.5 7.5 3.5 7.5 2 7 4.5 8.5 5.5 8.5 8 7z" fill="#FFFFFF"/></svg>