<svg version="1.1" xmlns="http://www.w3.org/2000/svg" xlink="http://www.w3.org/1999/xlink" x="0px" y="0px" width="15px" height="15px" viewBox="0 0 15 15" style="enable-background:new 0 0 15 15;" space="preserve"><path d="M10.530299999999999,3.1362c0.5637,0,1.0197,-0.4689,1.0197,-1.0485c0,-0.576,-0.45629999999999993,-1.0452,-1.0197,-1.0452c-0.5595,0,-1.0161,0.4689,-1.0161,1.0452c0,0.5796,0.45629999999999993,1.0485,1.0161,1.0485zm0.7577999999999999,0.2346h-1.4852999999999998l-2.5314,-2.6043c-0.19770000000000001,-0.21389999999999998,-0.5262,-0.2241,-0.7343999999999999,-0.0174c-0.20789999999999997,0.2034,-0.2181,0.5415,-0.0198,0.7554l2.6454,2.7249v9.0306c0,0.3276,0.255,0.5895,0.57,0.5895c0.3186,0,0.5733,-0.26189999999999997,0.5733,-0.5895v-4.8981h0.4626l0.0036,4.8984c0,0.3276,0.258,0.5895,0.573,0.5895c0.31589999999999996,0,0.5703,-0.26189999999999997,0.5703,-0.5895l-0.0032999999999999995,-9.030299999999999l2.6457,-2.7249c0.19770000000000001,-0.21389999999999998,0.1875,-0.552,-0.0204,-0.7554c-0.20759999999999998,-0.20669999999999997,-0.5364,-0.1968,-0.7343999999999999,0.0174l-2.5148999999999995,2.6037zm-5.3816999999999995,3.9839999999999995c-0.1542,-0.1623,-0.3657,-0.2586,-0.6,-0.2586h-2.1297c-0.2346,0,-0.4458,0.0966,-0.5967,0.2586l-2.1363,2.1975c-0.19770000000000001,0.21389999999999998,-0.1908,0.5517,0.0171,0.7554c0.20759999999999998,0.2034,0.54,0.1965,0.7343999999999999,-0.0174l1.6562999999999999,-1.704v2.2763999999999998h-1.8576c-0.3417,0,-0.6174,0.28259999999999996,-0.6174,0.6348c0,0.1827,0.0672,0.345,0.1881,0.46229999999999993l2.0922,2.1522c0.1845,0.2796,0.5466,0.3693,0.8351999999999999,0.1965c0.3048,-0.17909999999999998,0.4059,-0.5757,0.2313,-0.8858999999999999l-1.1937,-1.2249l0.0234,0.0032999999999999995h3.4269l-1.197,1.2246c-0.17099999999999999,0.31049999999999994,-0.0705,0.7071000000000001,0.23099999999999998,0.8862c0.28859999999999997,0.17279999999999998,0.6543,0.0834,0.8387999999999999,-0.1962l2.0922,-2.1522c0.1203,-0.1176,0.1878,-0.2799,0.1878,-0.46229999999999993c0,-0.35219999999999996,-0.2751,-0.6345000000000001,-0.6168,-0.6345000000000001h-1.8546v-2.2527l1.6263,1.6797c0.198,0.21419999999999997,0.5262,0.2211,0.7341,0.0174c0.20789999999999997,-0.2034,0.21509999999999999,-0.5415,0.0171,-0.7551l-2.1323999999999996,-2.2011zm-1.6428,-0.483c0.5598,0,1.0125,-0.4686,1.0125,-1.0452c0,-0.5796,-0.45269999999999994,-1.0452,-1.0125,-1.0452c-0.5604,0,-1.0167,0.4656,-1.0167,1.0452c0,0.5766,0.4566,1.0452,1.0167,1.0452z" fill="#FFFFFF"/></svg>