<svg version="1.1" xmlns="http://www.w3.org/2000/svg" xlink="http://www.w3.org/1999/xlink" x="0px" y="0px" width="15px" height="15px" viewBox="0 0 15 15" style="enable-background:new 0 0 15 15;" space="preserve"><path d="M1.9296,6.465c-0.06509999999999999,0.1335,-0.11249999999999999,0.2814,-0.1374,0.44039999999999996c-0.011099999999999999,0.0789,-0.0183,0.1587,-0.0183,0.2379l0.0579,3.6374999999999997l-1.2615,2.7072c-0.0435,0.0798,-0.0759,0.17279999999999998,-0.09029999999999999,0.2706c-0.069,0.4476,0.2391,0.8627999999999999,0.6885,0.9315c0.348,0.054,0.6812999999999999,-0.12269999999999999,0.8409,-0.41579999999999995l1.3878000000000001,-2.9592c0.0288,-0.0687,0.054599999999999996,-0.141,0.06509999999999999,-0.22019999999999998l0.0075,-0.11159999999999999l-0.010799999999999999,-2.2488l2.1327,0.9276l0.3444,2.1978c0.0687,0.3213,0.3333,0.5781,0.6777,0.6317999999999999c0.44939999999999997,0.0648,0.8661,-0.2421,0.9353999999999999,-0.6855c0.0105,-0.0759,0.0105,-0.1518,0.0032999999999999995,-0.2238l-0.4203,-2.6531999999999996c-0.0507,-0.2562,-0.2208,-0.4764,-0.4602,-0.5886l-1.9062,-0.8435999999999999l1.2138,-2.1042l0.6021,0.7617c0.06149999999999999,0.0684,0.14129999999999998,0.1263,0.2316,0.1623l2.2944,0.6675c0.3048,0.06509999999999999,0.6165,-0.0933,0.7355999999999999,-0.3858c0.1341,-0.3321,-0.024900000000000002,-0.7074,-0.3549,-0.8409l-0.0327,-0.010799999999999999l-1.9934999999999998,-0.5847l-1.5006,-1.7937c-0.22469999999999998,-0.2382,-0.5256,-0.4077,-0.8733,-0.46229999999999993c-0.6089999999999999,-0.09,-1.1870999999999998,0.1986,-1.4916,0.6894l-1.6671,2.8695zm6.5817,5.2152l-0.1449,1.0898999999999999l-3.9468,0.9561l0.0381,0.6738h9.6258c0.3411,0,0.6165,-0.2736,0.6165,-0.6129l-0.010799999999999999,-12.9207l-1.3188,-0.3066l-0.7577999999999999,3.3969l-1.2669,0.5304l-1.1235,3.1323000000000003l1.0674,2.3967l-0.3006,0.9201l-2.4777,0.744zm-2.6799,-8.9331c0.6777,0,1.2285,-0.5484,1.2285,-1.2234c-0.0003,-0.6747,-0.5508,-1.2236999999999998,-1.2285,-1.2236999999999998s-1.2288,0.549,-1.2288,1.2236999999999998c-0.0003,0.6749999999999999,0.5508,1.2234,1.2288,1.2234zm-2.4446999999999997,0.1914c0.09419999999999999,-0.16590000000000002,0.0396,-0.38249999999999995,-0.1305,-0.4764l-0.5946,-0.3465c-0.17009999999999997,-0.0939,-0.3843,-0.0396,-0.4821,0.1299l-1.8336,3.1512c-0.09419999999999999,0.16590000000000002,-0.0399,0.37889999999999996,0.13019999999999998,0.4764l0.5982,0.34319999999999995c0.1665,0.0972,0.3807,0.0396,0.4782,-0.1266l1.8341999999999998,-3.1512z" fill="#FFFFFF"/></svg>