<svg version="1.1" xmlns="http://www.w3.org/2000/svg" xlink="http://www.w3.org/1999/xlink" x="0px" y="0px" width="15px" height="15px" viewBox="0 0 15 15" style="enable-background:new 0 0 15 15;" space="preserve">
    <path d="M7.5,0C8.32842712,-1.52179594e-16,9,0.671572875,9,1.5C9,2.32842712,8.32842712,3,7.5,3C6.67157288,3,6,2.32842712,6,1.5C6,0.671572875,6.67157288,1.52179594e-16,7.5,0ZM8,13L11.4666667,13L12.8,11L14,11L12,14L8,14L8,15L7,15L7,14L3,14L1,11L2.2,11L3.53333333,13L7,13L7,4L4,4L4,3L11,3L11,4L8,4L8,13Z" fill="#FFFFFF"/> <path d="M3,3L4,3C4.11111111,5.66666667,4.44444444,7.66666667,5,9C5.55555556,10.3333333,6.38888889,11.6666667,7.5,13L6.33333333,13C5.22222222,11.6666667,4.38888889,10.3333333,3.83333333,9C3.27777778,7.66666667,3,5.66666667,3,3Z" fill="#FFFFFF"/> <path d="M12,3C12,5.66666667,11.7222222,7.66666667,11.1666667,9C10.6111111,10.3333333,9.77777778,11.6666667,8.66666667,13L7.5,13C8.61111111,11.6666667,9.44444444,10.3333333,10,9C10.5555556,7.66666667,10.8888889,5.66666667,11,3L12,3Z" fill="#FFFFFF"/> <path d="M5,3L6,3C6,5.66666667,6.16666667,7.66666667,6.5,9L7.5,13L7,13C6.33333333,11.6666667,5.83333333,10.3333333,5.5,9C5.16666667,7.66666667,5,5.66666667,5,3Z" fill="#FFFFFF"/> <path d="M10,3C10,5.66666667,9.83333333,7.66666667,9.5,9C9.16666667,10.3333333,8.66666667,11.6666667,8,13L7.5,13C7.83333333,11.6666667,8.16666667,10.3333333,8.5,9C8.83333333,7.66666667,9,5.66666667,9,3L10,3Z" fill="#FFFFFF"/>
    </svg>