<svg version="1.1" xmlns="http://www.w3.org/2000/svg" xlink="http://www.w3.org/1999/xlink" x="0px" y="0px" width="15px" height="15px" viewBox="0 0 15 15" style="enable-background:new 0 0 15 15;" space="preserve">
    <path d="M14.668199999999999,4.5462l-1.1804999999999999,9.2538h-3.9873l-1.1757,-9.299999999999999h4.8678l0.9621,-3.3230999999999997l0.5454,0.16440000000000002l-0.9230999999999999,3.198l0.8913,0.0069zm-6.9072000000000005,5.3538s0.14909999999999998,-1.2,-1.9184999999999999,-1.2h-3.2928c-2.0646,0,-1.9184999999999999,1.2,-1.9184999999999999,1.2h7.1297999999999995zm-7.1297999999999995,2.6999999999999997s-0.14609999999999998,1.2,1.9184999999999999,1.2h3.2931c2.0676,0,1.9184999999999999,-1.2,1.9184999999999999,-1.2h-7.1301zm6.8205,-0.6c0.3384,0,0.6117,-0.3342,0.6117,-0.7497c0,-0.4179,-0.2733,-0.7503,-0.6117,-0.7503h-6.5397c-0.3369,0,-0.612,0.33240000000000003,-0.612,0.7503c0,0.4155,0.2751,0.7497,0.612,0.7497h6.5397z" fill="#FFFFFF"/>
    </svg>