<svg version="1.1" xmlns="http://www.w3.org/2000/svg" xlink="http://www.w3.org/1999/xlink" x="0px" y="0px" width="15px" height="15px" viewBox="0 0 15 15" style="enable-background:new 0 0 15 15;" space="preserve"><path d="M6 .5C6 .5 6 2 6 2 6 2 8.5 2 8.5 2 9 2 9 2.5 9 2.5L9 12.5C9 12.5 9 13 8.5 13 8.5 13 6 13 6 13L6 14.5C6 15 3 15 3 14.5L3 13C3 13 .5 13 .5 13 0 13 0 12.5 0 12.5L0 2.5C0 2.5 0 2 .5 2 .5 2 3 2 3 2 3 2 3 .5 3 .5 3 0 6 0 6 .5zM4.5 4C2.5 4 1 5.5 1 7.5 1 9.5 2.5 11 4.5 11 6.5 11 8 9.5 8 7.5 8 5.5 6.5 4 4.5 4zM3 9C3 9 6 9 6 9 6.5 9 6.5 10 6 10 6 10 3 10 3 10 2.5 10 2.5 9 3 9zM2.5 5.5C2.25 5.75 3.6 7.1 3.6 7.1 3.6 7.1 3.5 7.3 3.5 7.5 3.5 8 3.875 8.5 4.5 8.5 5.125 8.5 5.5 8 5.5 7.5 5.5 7 5.125 6.5 4.5 6.5 4.2 6.5 4.1 6.6 4.1 6.6 4.1 6.6 2.75 5.25 2.5 5.5zM15 9C15 10.75 13.5 11.25 12.5 11.25 14.5 9.25 12.5 9.25 12 8 11.75 9 11 10.25 12 11.25 11 11.25 10 10.75 10 9.25 10 8.25 10.75 6.5 10.75 4.5 11 5.25 11.75 6 11.75 6 11.75 4.25 13.25 2.5 13.25 2.5 13 4.5 14 5.25 13.75 6.25 13.5 7.5 15 8.25 15 9z" fill="#FFFFFF"/></svg>