<svg version="1.1" xmlns="http://www.w3.org/2000/svg" xlink="http://www.w3.org/1999/xlink" x="0px" y="0px" width="15px" height="15px" viewBox="0 0 15 15" style="enable-background:new 0 0 15 15;" space="preserve">
    <path d="M7.5462,5.2041c1.1859,0,2.1431999999999998,-0.9651,2.1431999999999998,-2.1549c0,-1.1874,-0.957,-2.1492,-2.1431999999999998,-2.1492c-1.1844,0,-2.1458999999999997,0.9621,-2.1458999999999997,2.1492c0,1.1895,0.9618,2.1549,2.1458999999999997,2.1549zm2.0852999999999997,0.4959c0.9813,0,1.3932,0.8382,1.3932,0.8382l3.1671,4.3635c0.1311,0.1947,0.20819999999999997,0.4329,0.20819999999999997,0.69c0,0.6779999999999999,-0.5484,1.2291,-1.2243000000000002,1.2291c-0.1617,0,-0.31829999999999997,-0.0351,-0.45569999999999994,-0.0885l-1.92,-0.5322v1.8999h-6.6v-1.8999l-1.9205999999999999,0.5330999999999999c-0.135,0.05279999999999999,-0.2904,0.08879999999999999,-0.45269999999999994,0.08879999999999999c-0.6752999999999999,0,-1.2264,-0.549,-1.2264,-1.2269999999999999c0,-0.2568,0.0759,-0.4911,0.2118,-0.6863999999999999l3.165,-4.3704s0.4116,-0.8382,1.3886999999999998,-0.8382h4.2657zm-2.1297,7.0764000000000005l2.4738,-0.8220000000000001l-0.0537,-0.015c-1.7115,-0.5015999999999999,-1.0554,-2.7683999999999997,0.6519,-2.2611l0.22619999999999998,0.0804v-2.5563000000000002l-3.2967,1.0869l-3.3032999999999997,-1.0869v2.5563000000000002l0.22619999999999998,-0.08070000000000001c1.7064,-0.507,2.3693999999999997,1.7595,0.6591,2.2611l-0.06,0.015l2.4765,0.8223z" fill="#FFFFFF"/>
    </svg>