<svg version="1.1" xmlns="http://www.w3.org/2000/svg" xlink="http://www.w3.org/1999/xlink" x="0px" y="0px" width="15px" height="15px" viewBox="0 0 15 15" style="enable-background:new 0 0 15 15;" space="preserve">
    <path d="M4,10.9443577L4,14L3,14L3,10.9500178C1.92657352,10.7258818,1.12026271,9.77422663,1.12026271,8.63424752C1.12026271,8.50208702,1.13133726,8.37015893,1.15337013,8.23984795C1.96943171,3.4132821,2.77046984,1,3.5564748,1C4.34213456,1,5.10883051,3.41116287,5.85656266,8.2334886L5.85660386,8.23348221C6.05195007,9.49332244,5.22894332,10.6760098,4,10.9443577ZM6,11L14,11L14,14L13,14L13,12L7,12L7,14L6,14L6,11ZM7,8L13,8L13,10.5L7,10.5L7,8Z" fill="#FFFFFF"/>
    </svg>