<svg version="1.1" xmlns="http://www.w3.org/2000/svg" xlink="http://www.w3.org/1999/xlink" x="0px" y="0px" width="15px" height="15px" viewBox="0 0 15 15" style="enable-background:new 0 0 15 15;" space="preserve"><path d="M6.4479,2.4002999999999997l-0.1626,0.291c-0.10619999999999999,0.21539999999999998,-0.32580000000000003,0.3087,-0.5769,0.3087h-0.3822c0.2193,0.3,0.5703,0.5457,0.9771,0.5457c0.6654,0,1.1966999999999999,-0.5027999999999999,1.1966999999999999,-1.1663999999999999v0.0207h-0.9954c-0.024900000000000002,0,-0.049800000000000004,-0.0246,-0.0567,0.0003zm-0.7394999999999999,0.29969999999999997c0.1311,0,0.24749999999999997,-0.045599999999999995,0.30089999999999995,-0.1584l0.159,-0.2844c0.0603,-0.1305,0.1878,-0.1572,0.3363,-0.1572h1.2458999999999998c-0.16290000000000002,-0.6,-0.7466999999999999,-1.1543999999999999,-1.4373,-1.1543999999999999c-0.8175,0,-1.4793,0.6053999999999999,-1.4793,1.4244c0,0.1308,0.0141,0.33,0.0495,0.33h0.825zm4.0968,6.6c1.1097,0,4.0083,-0.3399,4.8063,-1.1028c-0.35910000000000003,-1.1028,-1.7748000000000002,-1.191,-3.0738,-0.6294c-0.22319999999999998,0.0966,-0.5202,0.168,-0.8601,0.2316l-0.2655,-1.0278c0.21209999999999998,-0.1095,0.35219999999999996,-0.3339,0.3393,-0.5861999999999999c-0.0135,-0.3444,-0.3024,-0.6134999999999999,-0.6468,-0.5993999999999999l-0.195,-0.7526999999999999c0.1917,-0.14459999999999998,0.2925,-0.38849999999999996,0.2355,-0.6372c-0.078,-0.3372,-0.4125,-0.5508,-0.7505999999999999,-0.4749c0,0,-2.7483,0.0246,-3.6102,0.25589999999999996c-0.8601,0.2313,-1.1502,1.6767,-1.1502,1.6767l-0.7557,2.4461999999999997h-3.5784000000000002v1.2h9.5052zm-2.4705,-4.2588l2.1323999999999996,-0.08789999999999999l0.16979999999999998,0.6531c-0.5766,0.0282,-1.6014,0.0813,-2.5164,0.1323l0.21419999999999997,-0.6975zm-0.5946,1.9488l3.2172,-0.14459999999999998l0.2673,1.0238999999999998c-1.3131,0.1887,-3.0155999999999996,0.21569999999999998,-3.8208,0.219l0.3363,-1.0983zm6.0117,3.6926999999999994s1.9482,-0.0246,1.9482,-1.926c0,-0.0762,-0.0075,-0.1335,-0.0141,-0.20400000000000001c-1.2159,0.8786999999999999,-4.464899999999999,1.0473,-4.8755999999999995,1.0473h-9.510299999999999v1.4711999999999998c0.2301,0,0.4674,-0.053399999999999996,0.6759000000000001,-0.14459999999999998c0.34349999999999997,-0.1587,0.7257,-0.2436,1.101,-0.2436c0.375,0,0.7538999999999999,0.08489999999999999,1.0898999999999999,0.2403c0.2229,0.099,0.45299999999999996,0.1482,0.6867,0.1482c0.2373,0,0.46709999999999996,-0.0492,0.6795,-0.14459999999999998c0.34679999999999994,-0.1587,0.7254,-0.2436,1.1007,-0.2436c0.3786,0,0.7503,0.0813,1.0937999999999999,0.2403c0.21569999999999998,0.099,0.45269999999999994,0.1482,0.6867,0.1482c0.2334,0,0.46349999999999997,-0.0492,0.6791999999999999,-0.14459999999999998c0.34349999999999997,-0.1587,0.726,-0.2436,1.0974,-0.2436c0.38189999999999996,0,0.7505999999999999,0.0813,1.0935,0.2403c0.2196,0.099,0.45629999999999993,0.1482,0.6867,0.1482l0.08310000000000001,-0.0036l0.2835,1.0869c-0.12239999999999998,0.021,-0.24419999999999997,0.035699999999999996,-0.3702,0.035699999999999996c-0.3111,0,-0.6123,-0.0675,-0.8778,-0.1875c-0.2724,-0.12719999999999998,-0.5801999999999999,-0.201,-0.9024,-0.201c-0.3216,0,-0.63,0.07379999999999999,-0.9024,0.201c-0.2655,0.12,-0.5630999999999999,0.1875,-0.8744999999999999,0.1875s-0.6123,-0.0675,-0.8778,-0.1875c-0.2724,-0.12719999999999998,-0.5801999999999999,-0.201,-0.9024,-0.201s-0.63,0.07379999999999999,-0.9024,0.201c-0.2655,0.12,-0.5628,0.1875,-0.8742,0.1875c-0.3078,0,-0.6086999999999999,-0.0675,-0.8742,-0.1875c-0.2727,-0.12719999999999998,-0.5805,-0.201,-0.9024,-0.201c-0.3186,0,-0.6266999999999999,0.07379999999999999,-0.8990999999999999,0.201c-0.2688,0.1194,-0.5663999999999999,0.18689999999999998,-0.8778,0.18689999999999998v1.3095c0.3114,0,0.6089999999999999,-0.0669,0.8778,-0.18689999999999998c0.2724,-0.12719999999999998,0.5805,-0.2016,0.8990999999999999,-0.2016c0.32189999999999996,0,0.6297,0.0744,0.9024,0.2016c0.2655,0.12,0.5663999999999999,0.18689999999999998,0.8742,0.18689999999999998c0.3114,0,0.6086999999999999,-0.0669,0.8742,-0.18689999999999998c0.2724,-0.12719999999999998,0.5805,-0.2016,0.9024,-0.2016c0.32249999999999995,0,0.63,0.0744,0.9024,0.2016c0.2655,0.12,0.5663999999999999,0.18689999999999998,0.8778,0.18689999999999998s0.6089999999999999,-0.0669,0.8744999999999999,-0.18689999999999998c0.2724,-0.12719999999999998,0.5808,-0.2016,0.9024,-0.2016c0.3222,0,0.63,0.0744,0.9024,0.2016c0.2655,0.12,0.5667,0.18689999999999998,0.8778,0.18689999999999998c0.30749999999999994,0,0.6093000000000001,-0.0669,0.8742,-0.18689999999999998c0.273,-0.12719999999999998,0.5808,-0.2016,0.9029999999999999,-0.2016c0.3216,0,0.5676,0.0744,0.84,0.2016c0.2655,0.12,0.5154,0.18689999999999998,0.8154,0.18689999999999998v-1.3095c-0.3,0,-0.5498999999999999,-0.0675,-0.8154,-0.1875c-0.2724,-0.12719999999999998,-0.5493,-0.201,-0.8709,-0.201c-0.3222,0,-0.6144,0.07379999999999999,-0.8874000000000001,0.201l-0.0564,0.0246l-0.2685,-1.0446l0.147,-0.0564c0.34379999999999994,-0.1587,0.7283999999999999,-0.24389999999999998,1.1034,-0.24389999999999998z" fill="#FFFFFF"/></svg>