<svg version="1.1" xmlns="http://www.w3.org/2000/svg" xlink="http://www.w3.org/1999/xlink" x="0px" y="0px" width="15px" height="15px" viewBox="0 0 15 15" style="enable-background:new 0 0 15 15;" space="preserve"><path d="M12,6C13.3325991,7.4078518,13.9992658,8.14736526,14,8.21854036C13.9961832,8.30801629,13.9562724,8.95758657,13.889378,9.01713196C13.8447818,9.0568289,13.3326558,9.01245157,12.353,8.884C12.3088968,8.91400126,11.072671,8.8200443,11,8.5C10.9950249,10.1136356,10.9950249,10.946969,11,11L11.5,12L11.5,14L10,14L10,12C9.66666667,11.3333333,9.16666667,11,8.5,11C7.5,11,6.98633155,11.890031,7,12L7,14L5.5,14L5.5,12L6,11.014L6,9L4.5,12C4.49520146,12.1350463,4.53665263,9.51447138,4.5,9.5C4.5,8.01713196,5.23074385,8,5.5,8C5.76925615,8,6,8,6.2,8.446C6.37890739,8.17677034,6.6769218,8.01062731,7,8L9,8.01713196L12,5L12,6ZM4,7L4,14L2,14L2,7.78L1,8.16L1,6L14,1L14,3.14L4,7Z" fill="#FFFFFF"/></svg>