<svg version="1.1" xmlns="http://www.w3.org/2000/svg" xlink="http://www.w3.org/1999/xlink" x="0px" y="0px" width="15px" height="15px" viewBox="0 0 15 15" style="enable-background:new 0 0 15 15;" space="preserve">
    <path d="M7.5,15C11.634,15,15,11.605,15,7.5C15,3.395,11.654,0,7.5,0C3.346,0,0,3.364,0,7.5C0,11.636,3.366,15,7.5,15zM7.5,13.929C3.943,13.929,1.071,11.057,1.071,7.5C1.071,3.943,3.943,1.071,7.5,1.071C10.714,1.071,11.786,6.942,7.5,7.5C3.214,8.058,4.377,13.929,7.5,13.929zM7.5,11.786C6.908,11.786,6.429,11.306,6.429,10.714C6.429,10.123,6.908,9.643,7.5,9.643C8.092,9.643,8.571,10.123,8.571,10.714C8.571,11.306,8.092,11.786,7.5,11.786zM7.5,5.357C8.092,5.357,8.571,4.877,8.571,4.286C8.571,3.694,8.092,3.214,7.5,3.214C6.908,3.214,6.429,3.694,6.429,4.286C6.429,4.877,6.908,5.357,7.5,5.357z" fill="#FFFFFF"/>
    </svg>