<svg version="1.1" xmlns="http://www.w3.org/2000/svg" xlink="http://www.w3.org/1999/xlink" x="0px" y="0px" width="15px" height="15px" viewBox="0 0 15 15" style="enable-background:new 0 0 15 15;" space="preserve"><path d="M3 1.5C3.25 1.75 3 2 3 3 3 4.5 3 5 3.5 5.5 4 6 4 6.5 4 8 4 8 4 13.5 4 13.5 4 14.5 0 14.5 0 13.5 0 13.5 0 8 0 8 0 6.5 0 6 .5 5.5 1 5 1 4.5 1 3 1 2 .75 1.75 1 1.5 1.25 1.75 2.75 1.75 3 1.5zM1 .5C.75.75 1 .75 1 1 1.25 1.25 2.75 1.25 3 1 3 .75 3.25.75 3 .5 2.5.5 1.5.5 1 .5zM8.5 1.5C8.75 1.75 8.5 2 8.5 3 8.5 4.5 8.5 5 9 5.5 9.5 6 9.5 6.5 9.5 8 9.5 8 9.5 13.5 9.5 13.5 9.5 14.5 5.5 14.5 5.5 13.5 5.5 13.5 5.5 8 5.5 8 5.5 6.5 5.5 6 6 5.5 6.5 5 6.5 4.5 6.5 3 6.5 2 6.25 1.75 6.5 1.5 6.75 1.75 8.25 1.75 8.5 1.5zM6.5.5C6.25.75 6.5.75 6.5 1 6.75 1.25 8.25 1.25 8.5 1 8.5.75 8.75.75 8.5.5 8 .5 7 .5 6.5.5zM14 1.5C14.25 1.75 14 2 14 3 14 4.5 14 5 14.5 5.5 15 6 15 6.5 15 8 15 8 15 13.5 15 13.5 15 14.5 11 14.5 11 13.5 11 13.5 11 8 11 8 11 6.5 11 6 11.5 5.5 12 5 12 4.5 12 3 12 2 11.75 1.75 12 1.5 12.25 1.75 13.75 1.75 14 1.5zM12 .5C11.75.75 12 .75 12 1 12.25 1.25 13.75 1.25 14 1 14 .75 14.25.75 14 .5 13.5.5 12.5.5 12 .5z" fill="#FFFFFF"/></svg>