<svg version="1.1" xmlns="http://www.w3.org/2000/svg" xlink="http://www.w3.org/1999/xlink" x="0px" y="0px" width="15px" height="15px" viewBox="0 0 15 15" style="enable-background:new 0 0 15 15;" space="preserve">
    <path d="M7.79,12.43L7.5,13L11.5,13L11.21,12.43L12.5,12L14,15L12.5,15L12,14L7,14L6.5,15L5,15L6.5,12L7.79,12.43ZM14,1.8L14,5L14.71,5.71C14.89,5.89,15,6.15,15,6.41L15,9.08C15,9.48,14.75,9.85,14.38,10L9.5,12L4.62,10C4.25,9.85,4,9.48,4,9.08L4,6.41C4,6.15,4.11,5.89,4.29,5.71L5,5L5,1.8C5,1.33,5.33,0.93,5.78,0.83L9.28,0.05C9.43,0.02,9.57,0.02,9.72,0.05L13.22,0.83C13.67,0.93,14,1.33,14,1.8ZM6,2.42L6,3.5C6,3.78,6.22,4,6.5,4L8.5,4C8.78,4,9,3.78,9,3.5L9,2.09C9,1.81,8.78,1.59,8.5,1.59C8.47,1.59,8.44,1.59,8.42,1.6L6.42,1.93C6.18,1.97,6,2.18,6,2.42ZM10,2.09L10,3.5C10,3.78,10.22,4,10.5,4L12.5,4C12.78,4,13,3.78,13,3.5L13,2.42C13,2.18,12.82,1.97,12.58,1.93L10.58,1.6C10.31,1.55,10.05,1.74,10.01,2.01C10,2.04,10,2.06,10,2.09ZM9.5,8C10.05,8,10.5,7.55,10.5,7C10.5,6.45,10.05,6,9.5,6C8.95,6,8.5,6.45,8.5,7C8.5,7.55,8.95,8,9.5,8ZM1.5,7.87L1.5,9L1.47,9.16L0.97,10.66C0.89,10.92,0.6,11.06,0.34,10.97C0.08,10.89,-0.06,10.6,0.03,10.34L0.5,8.92L0.5,7.87C0.2,7.69,0,7.37,0,7L0,5.25C0,4.7,0.45,4.25,1,4.25C1.21,4.25,1.4,4.31,1.57,4.43L2.41,4.88L3.15,4.15C3.34,3.95,3.66,3.95,3.85,4.15C4.05,4.34,4.05,4.66,3.85,4.85L2.85,5.85C2.7,6.01,2.46,6.05,2.26,5.94L2,5.8L2,6.94L3.22,7.55C3.39,7.64,3.5,7.81,3.5,8L3.5,9.5C3.5,9.78,3.28,10,3,10C2.72,10,2.5,9.78,2.5,9.5L2.5,8.31L1.55,7.83C1.53,7.85,1.52,7.86,1.5,7.87ZM1,4C0.45,4,0,3.55,0,3C0,2.45,0.45,2,1,2C1.55,2,2,2.45,2,3C2,3.55,1.55,4,1,4Z" fill="#FFFFFF"/>
    </svg>