<svg version="1.1" xmlns="http://www.w3.org/2000/svg" xlink="http://www.w3.org/1999/xlink" x="0px" y="0px" width="15px" height="15px" viewBox="0 0 15 15" style="enable-background:new 0 0 15 15;" space="preserve">
    <path d="M5.44065643,6.48232914C6.36229413,3.49634271,7.43651977,2.00490096,8.66333333,2.00800389C9.30484496,1.96893603,10.525814,2.19492866,11.02,2.62626219C9.95883721,2.67350988,9.00356589,3.69966058,8.66333333,4.75607977C8.53590416,5.15174627,8.36100106,6.19283453,8.13862404,7.87934456C7.7682557,8.61942676,7.41066678,9.47168298,7.06393713,10.4349598C6.55552844,8.79081276,6.01919011,7.47214592,5.44065643,6.48232914L5.44065643,6.48232914ZM7.77279159,13.003661L7.72733284,12.8229798C7.62857811,12.4304674,7.52893366,12.0513115,7.4282801,11.6855402C8.88744826,7.22988839,10.4955409,5.00367959,12.2525581,5.00691382C12.8940698,4.97848094,13.525814,5.1372608,14.02,5.45117755C12.9588372,5.48556356,12.0346512,6.01512593,11.6944186,6.78396874C11.4675969,7.29653061,11.08,9.36976135,10.5316279,13.003661L7.77279159,13.003661L7.77279159,13.003661ZM1,5.45349075C1.42358804,5.139574,1.96508306,4.98079414,2.51495017,5.00922702C4.1627907,5.00568822,5.65780731,7.6712706,7,13.0059742L4,13.0059742C3.52996678,9.37207455,3.18777409,7.29884381,2.99335548,6.78628194C2.70172757,6.01743913,1.90956811,5.48787676,1,5.45349075Z" fill="#FFFFFF"/>
    </svg>