<svg version="1.1" xmlns="http://www.w3.org/2000/svg" xlink="http://www.w3.org/1999/xlink" x="0px" y="0px" width="15px" height="15px" viewBox="0 0 15 15" style="enable-background:new 0 0 15 15;" space="preserve"><path d="M4.538,2C3.385,2,2,2.595,2,4.197L2,8.559L2,11.6C2,11.6,2,12.4,2.846,12.4L2.846,13.2C2.846,13.2,2.846,14,3.692,14C4.538,14,4.538,13.2,4.538,13.2L4.538,12.4L10.462,12.4L10.462,13.2C10.462,13.2,10.462,14,11.308,14C12.154,14,12.154,13.2,12.154,13.2L12.154,12.4C12.154,12.4,13,12.4,13,11.6L13,4.197C13,2.56,11.954,2,10.8,2L4.538,2zM4.75,3.2L10.25,3.2C10.367,3.2,10.462,3.289,10.462,3.4C10.462,3.511,10.367,3.6,10.25,3.6L4.75,3.6C4.633,3.6,4.538,3.511,4.538,3.4C4.538,3.289,4.633,3.2,4.75,3.2zM3.692,4.4L11.308,4.4C12.154,4.4,12.154,5.173,12.154,5.173L12.154,7.6C12.154,7.6,12.154,8.4,11.308,8.4L3.692,8.4C2.846,8.4,2.846,7.6,2.846,7.6L2.846,5.2C2.846,5.2,2.846,4.4,3.692,4.4zM3.692,10C4.16,10,4.538,10.358,4.538,10.8C4.538,11.242,4.16,11.6,3.692,11.6C3.225,11.6,2.846,11.242,2.846,10.8C2.846,10.358,3.225,10,3.692,10zM11.308,10C11.775,10,12.154,10.358,12.154,10.8C12.154,11.242,11.775,11.6,11.308,11.6C10.84,11.6,10.462,11.242,10.462,10.8C10.462,10.358,10.84,10,11.308,10zM10,0L10,0.5L8,0.5L8,1.5L7,1.5L7,0.5L5,0.5L5,0z" fill="#FFFFFF"/></svg>