<svg version="1.1" xmlns="http://www.w3.org/2000/svg" xlink="http://www.w3.org/1999/xlink" x="0px" y="0px" width="15px" height="15px" viewBox="0 0 15 15" style="enable-background:new 0 0 15 15;" space="preserve"><path d="M2 1 4.2 1C5.3 1 5.3 2.08333333 5.3 3.16666667 5.3 6.46485761 2.07152475 11.8333333 7.5 11.8333333 12.9374242 11.8333333 9.7 6.45512245 9.7 3.16666667 9.7 2.08333333 9.7 1 10.8 1L13 1 13 2.08333333C13 2.80555556 12.6666667 3.11111111 12 3 11.9509264 3.4759243 11.9509264 3.80925763 12 4 12.5087962 5.97762088 13 7.77384515 13 9.66666667 13 12.9166667 10.2814604 14 7.5 14 4.71853964 14 2 12.9166667 2 9.66666667 2 7.88958928 2.55152605 5.85182305 3 4 3.06554606 3.72934947 3.06554606 3.39601614 3 3 2.33333333 3.11111111 2 2.80555556 2 2.08333333L2 1ZM7.5 5C8.05228475 5 8.55228475 4.83333333 9 4.5L8 11 7 11 6 4.5C6.44771525 4.83333333 6.94771525 5 7.5 5ZM7.5 4.5C8.32842712 4.5 9 4.05228475 9 3.5 9 2.94771525 8.25 2.5 7.5 2.5 6.75 2.5 6 2.94771525 6 3.5 6 4.05228475 6.67157288 4.5 7.5 4.5Z" fill="#FFFFFF"/></svg>