<svg version="1.1" xmlns="http://www.w3.org/2000/svg" xlink="http://www.w3.org/1999/xlink" x="0px" y="0px" width="15px" height="15px" viewBox="0 0 15 15" style="enable-background:new 0 0 15 15;" space="preserve"><path d="M11 0C12 0 12 0 12 1L12 14C12 15 12 15 11 15 11 15 4 15 4 15 3 15 3 15 3 14L3 1C3 0 3 0 4 0L11 0zM6.25 8C6.25 8 5.5 8 5.5 8 5 8 5 8.5 5 8.5 5 8.5 5 13.5 5 13.5 5 14 5.5 14 5.5 14L9.5 14C9.5 14 10 14 10 13.5 10 13.5 10 8.5 10 8.5 10 8 9.5 8 9.5 8L8.75 8C8.75 8 8.5 8.984 8.5 8.984 8.5 9.234 6.5 9.234 6.5 8.984 6.5 8.984 6.25 8 6.25 8zM10.5 1 4.5 1C4.5 1 4 1 4 1.5 4 1.5 4 5.5 4 5.5 4 5.5 4 6 4.5 6 4.5 6 10.5 6 10.5 6 10.5 6 11 6 11 5.5 11 5.5 11 1.5 11 1.5 11 1 10.5 1 10.5 1zM6.25 11.5C6.25 11.75 8.75 11.75 8.75 11.5 8.75 11.5 8.5 13.5 8.5 13.5 8.5 14 6.5 14 6.5 13.5 6.5 13.5 6.25 11.5 6.25 11.5zM6.782 9.991 6.3 10.566 6.875 11.048 7.357 10.473 6.782 9.991zM7.643 10.591 7.5 11.327 8.236 11.47 8.379 10.734 7.643 10.591zM7.2 9.731 7.54 10.4 8.209 10.059 7.868 9.391 7.2 9.731zM7.5 1.25 7.687 1.374 7.687 1.968 8.054 1.777 8.25 1.891 8.25 2.078 7.687 2.367 7.687 2.757 8.063 2.545 8.063 2.97 8.438 2.774 8.438 2.163 8.574 2.081 8.719 2.163 8.719 2.553 9.266 2.265 9.469 2.379 9.469 2.6 8.954 2.897 9.281 3.08 9.281 3.292 9.11 3.385 8.61 3.089 8.266 3.309 8.598 3.518 8.255 3.717 8.609 3.903 9.114 3.624 9.281 3.737 9.281 3.939 8.97 4.116 9.469 4.413 9.469 4.647 9.233 4.744 8.719 4.464 8.719 4.834 8.577 4.933 8.438 4.834 8.438 4.272 8.063 4.065 8.063 4.455 7.687 4.243 7.687 4.633 8.156 4.913 8.156 5.135 8.002 5.219 7.687 5.032 7.687 5.627 7.5 5.75 7.313 5.627 7.313 5.032 6.998 5.219 6.844 5.122 6.844 4.913 7.313 4.633 7.313 4.243 6.938 4.472 6.938 4.058 6.562 4.255 6.562 4.816 6.408 4.932 6.282 4.827 6.282 4.452 5.759 4.744 5.531 4.65 5.531 4.413 6.064 4.116 5.719 3.945 5.719 3.727 5.918 3.622 6.407 3.91 6.746 3.714 6.737 3.709 6.394 3.509 6.728 3.3 6.393 3.105 5.905 3.391 5.719 3.3 5.719 3.084 6.051 2.899 5.531 2.612 5.531 2.375 5.749 2.271 6.282 2.571 6.282 2.188 6.421 2.083 6.602 2.193 6.598 2.766 6.942 2.965 6.945 2.561 7.313 2.757 7.313 2.367 6.844 2.087 6.844 1.879 6.998 1.78 7.313 1.968 7.313 1.374 7.5 1.25z" fill="#FFFFFF"/></svg>