<svg version="1.1" xmlns="http://www.w3.org/2000/svg" xlink="http://www.w3.org/1999/xlink" x="0px" y="0px" width="15px" height="15px" viewBox="0 0 15 15" style="enable-background:new 0 0 15 15;" space="preserve"><path d="M12 0C13 0 13 0 13 1L13 14C13 15 13 15 12 15L3 15C2 15 2 15 2 14L2 1C2 0 2 0 3 0L12 0zM10 12 4 12 4 13 10 13 10 12zM12 9 11 9 11 9.75 12 9.75 12 9zM10 2 4 2 4 10 10 10 10 2zM12 7.5 11 7.5 11 8.25 12 8.25 12 7.5zM12 6 11 6 11 6.75 12 6.75 12 6zM12 4.5 11 4.5 11 5.25 12 5.25 12 4.5zM5 3.75C5 3.75 5 3.75 5 3.75 5 4.253 6.5 4.35 7 4.35 7.5 4.35 9 4.247 9 3.75 9 3.75 9 8.75 9 8.75 9 9.75 5 9.75 5 8.75 5 8.75 5 3.75 5 3.75zM7.902 3.258C8.148 3.258 8.348 3.325 8.348 3.407 8.348 3.489 8.148 3.556 7.902 3.555 7.656 3.556 7.457 3.489 7.457 3.407 7.457 3.325 7.656 3.258 7.902 3.258zM9 3.25C9 2.75 7 2.75 7 2.75 7 2.75 5 2.75 5 3.25 5 3.75 6 4 7 4 8 4 9 3.75 9 3.25z" fill="#FFFFFF"/></svg>