<svg version="1.1" xmlns="http://www.w3.org/2000/svg" xlink="http://www.w3.org/1999/xlink" x="0px" y="0px" width="15px" height="15px" viewBox="0 0 15 15" style="enable-background:new 0 0 15 15;" space="preserve"><path d="M9.561,13.065L10.288,15L11.5,15L10.773,13.065zM4.212,13.065L3.5,15L4.712,15L5.424,13.065zM9.345,9.677L8.483,10.645L8.483,11.129L10.207,11.129L10.638,10.645L10.638,9.677L9.345,9.677zM4.604,9.677L4.604,10.645L5.035,11.129L6.759,11.129L6.759,10.645L5.897,9.677L4.604,9.677zM5.035,4.839L4.604,5.323L4.604,7.258L5.897,7.258L9.345,7.258L10.638,7.258L10.638,5.323L10.207,4.839L9.345,4.839L5.897,4.839L5.035,4.839zM5.897,2.419L5.897,3.387L9.345,3.387L9.345,2.419L5.897,2.419zM5.897,1.935L9.345,1.935L11.5,4.839L11.5,11.613L10.638,12.581L4.604,12.581L3.742,11.613L3.742,4.839L5.897,1.935zM10.045,0L10.045,0.484L8.106,0.484L8.106,1.452L7.136,1.452L7.136,0.484L5.197,0.484L5.197,0z" fill="#FFFFFF"/></svg>