<svg version="1.1" xmlns="http://www.w3.org/2000/svg" xlink="http://www.w3.org/1999/xlink" x="0px" y="0px" width="15px" height="15px" viewBox="0 0 15 15" style="enable-background:new 0 0 15 15;" space="preserve">
    <path d="M2.5,4C3.32842712,4,4,4.67157288,4,5.5C4,6.32842712,3.32842712,7,2.5,7C1.67157288,7,1,6.32842712,1,5.5C1,4.67157288,1.67157288,4,2.5,4Z" fill="#FFFFFF"/> <path d="M11.5,1C12.3284271,1,13,1.67157288,13,2.5C13,3.32842712,12.3284271,4,11.5,4C10.6715729,4,10,3.32842712,10,2.5C10,1.67157288,10.6715729,1,11.5,1Z" fill="#FFFFFF"/> <path d="M7,9L7,6L5.84550265,6L4.47843915,9L7,9ZM8,9L10.5215608,9L9.15449735,6L8,6L8,9ZM8,5L8.69880952,5L7.5,2.36923077L6.30119048,5L7,5L8,5ZM7,13L7,10L4.02275132,10L2.65568783,13L7,13ZM8,13L12.3443122,13L10.9772487,10L8,10L8,13ZM2.2,14L1,14L7.5,0L14,14L12.8,14L2.2,14Z" fill="#FFFFFF"/>
    </svg>