<svg version="1.1" xmlns="http://www.w3.org/2000/svg" xlink="http://www.w3.org/1999/xlink" x="0px" y="0px" width="15px" height="15px" viewBox="0 0 15 15" style="enable-background:new 0 0 15 15;" space="preserve">
    <path d="M11.5039,1L10,1C9.2616,1,8.6238,1.4047,8.2774,2L3.5,2L2.5,3L3.5,4L4.5,3L5.5,4L6.5,3L7.5,4L8.2774,4C8.6238,4.5953,9.2616,5,10,5L11.4982,5C11.7753,5,12,4.7753,12,4.4982L12,1.4961C12,1.2221,11.7779,1,11.5039,1ZM11,3.5C11,3.7761,10.7761,4,10.5,4C10.2239,4,10,3.7761,10,3.5L10,2.5C10,2.2238,10.2239,2,10.5,2C10.7761,2,11,2.2238,11,2.5L11,3.5Z" fill="#FFFFFF"/> <path d="M8.5,6.00007308C7.8239,5.9900733,7.8239,7.00965124,8.5,7.00005145L9,7.00005145L9,7.71103606L6.252,9.28130209L5.7383,8.00002981L6.4531,8.00002981C7.1292,8.01002959,7.1292,6.99045165,6.4531,7.00005145L4.4258,7.00005145C3.7497,6.99005166,3.7497,8.0096296,4.4258,8.00002981L4.6602,8.00002981L5.0918,9.07810649C4.9011,9.0311075,4.7047,9.00010817,4.5,9.00010817C3.1252,9.00010817,2,10.1252838,2,11.5000541C2,12.8748243,3.1252,14,4.5,14C5.8748,14,7,12.8747243,7,11.5000541C7,11.0287643,6.8601,10.5922737,6.6309,10.2148819L9.1016,8.80281244L9.5039,9.21100361C8.6216,9.59809524,8,10.4791762,8,11.5000541C8,12.8748243,9.1252,14,10.5,14C11.8748,14,13,12.8748243,13,11.5000541C13,10.2041821,11.9966,9.14260509,10.7305,9.02350767L10,8.29302347L10,6.50006226C10,6.22396824,9.7761,6.00007308,9.5,6.00007308L8.5,6.00007308ZM4.5,9.99998654C5.3344,9.99998654,6,10.6656721,6,11.4999541C6,12.334236,5.3344,12.9999216,4.5,12.9999216C3.6656,12.9999216,3,12.334336,3,11.4999541C3,10.6655721,3.6656,9.99998654,4.5,9.99998654ZM10.5,9.99998654C11.3344,9.99998654,12,10.6656721,12,11.4999541C12,12.334236,11.3344,12.9999216,10.5,12.9999216C9.6656,12.9999216,9,12.334336,9,11.4999541C9,10.6655721,9.6656,9.99998654,10.5,9.99998654Z" fill="#FFFFFF"/>
    </svg>