<svg version="1.1" xmlns="http://www.w3.org/2000/svg" xlink="http://www.w3.org/1999/xlink" x="0px" y="0px" width="15px" height="15px" viewBox="0 0 15 15" style="enable-background:new 0 0 15 15;" space="preserve">
    <path d="M5,4L10,4L10,3L5,3L5,4ZM4,4L4,3C4,2.44771525,4.44771525,2,5,2L10,2C10.5522847,2,11,2.44771525,11,3L11,4L13,4C13.5522847,4,14,4.44771525,14,5L14,12C14,12.5522847,13.5522847,13,13,13L2,13C1.44771525,13,1,12.5522847,1,12L1,5C1,4.44771525,1.44771525,4,2,4L4,4ZM8.5,7.5L8.5,5.5C8.5,5.22385763,8.27614237,5,8,5L7,5C6.72385763,5,6.5,5.22385763,6.5,5.5L6.5,7.5L4.5,7.5C4.22385763,7.5,4,7.72385763,4,8L4,9C4,9.27614237,4.22385763,9.5,4.5,9.5L6.5,9.5L6.5,11.5C6.5,11.7761424,6.72385763,12,7,12L8,12C8.27614237,12,8.5,11.7761424,8.5,11.5L8.5,9.5L10.5,9.5C10.7761424,9.5,11,9.27614237,11,9L11,8C11,7.72385763,10.7761424,7.5,10.5,7.5L8.5,7.5Z" fill="#FFFFFF"/>
    </svg>