<svg version="1.1" xmlns="http://www.w3.org/2000/svg" xlink="http://www.w3.org/1999/xlink" x="0px" y="0px" width="15px" height="15px" viewBox="0 0 15 15" style="enable-background:new 0 0 15 15;" space="preserve"><path d="M14.28125 3.96875c-.03125-.125-.09375-.25-.1875-.3125L9.53125.09375c-.1875-.125-.4375-.125-.625 0L4.34375 3.65625c-.09375.0625-.15625.1875-.1875.3125l-.25 1.78125.96875-.75c.53125-.40625 1.25-.40625 1.78125 0l1.78125 1.375.625.46875.84375.65625.40625.3125.90625.71875c.28125.21875.46875.5.53125.84375H15L14.28125 3.96875zM10.65625 9.28125 9.0625 8.03125 8.78125 7.8125 8.4375 7.5625l-2.34375-1.8125c-.09375-.0625-.1875-.09375-.3125-.09375-.125 0-.21875.03125-.3125.09375L3.75 7.0625l-2.84375 2.1875c-.09375.0625-.15625.1875-.1875.3125L0 15h5.625v-3.03125c0-.0625.03125-.09375.09375-.09375 0 0 0 0 0 0 .03125 0 .0625.03125.09375.03125L7.5 15h4.0625l-.71875-5.40625C10.8125 9.46875 10.75 9.34375 10.65625 9.28125z" fill="#FFFFFF"/></svg>