<svg version="1.1" xmlns="http://www.w3.org/2000/svg" xlink="http://www.w3.org/1999/xlink" x="0px" y="0px" width="15px" height="14.999921874999998px" viewBox="0 0 15 14.999921874999998" style="enable-background:new 0 0 15 15;" space="preserve">
    <path d="M1.24375,11.25H5.00625A0.30625,0.30625,0,0,0,5.3125,10.943750000000001V5.3125a0.30625,0.30625,0,0,0,-0.5625,-0.16875L0.990625,10.774999999999999A0.30625,0.30625,0,0,0,1.24375,11.25Z" fill="#FFFFFF"/> <path d="M6.25,11.25H13.746875000000001a0.3125,0.3125,0,0,0,0.315625,-0.31875C13.931249999999999,5.1875,10.262500000000001,0.2375,6.259375,0a0.309375,0.309375,0,0,0,-0.321875,0.3125V10.9375A0.3125,0.3125,0,0,0,6.25,11.25Z" fill="#FFFFFF"/> <path d="M14.375,12.1875H0.625a0.625,0.625,0,0,0,-0.625,0.625a2.1875,2.1875,0,0,0,2.1875,2.1875H12.8125a2.1875,2.1875,0,0,0,2.1875,-2.1875A0.625,0.625,0,0,0,14.375,12.1875Z" fill="#FFFFFF"/>
    </svg>