<svg version="1.1" xmlns="http://www.w3.org/2000/svg" xlink="http://www.w3.org/1999/xlink" x="0px" y="0px" width="15px" height="15px" viewBox="0 0 15 15" style="enable-background:new 0 0 15 15;" space="preserve"><path d="M9 .5C9 .5 9 1 9 1 9 1 12.5 1 12.5 1 13 1 13 1.5 13 1.5L13 13.5C13 13.5 13 14 12.5 14 12.5 14 9 14 9 14L9 14.5C9 15 6 15 6 14.5L6 14C6 14 2.5 14 2.5 14 2 14 2 13.5 2 13.5L2 1.5C2 1.5 2 1 2.5 1 2.5 1 6 1 6 1 6 1 6 .5 6 .5 6 0 9 0 9 .5zM7.5 3C5 3 3 5 3 7.5 3 10 5 12 7.5 12 10 12 12 10 12 7.5 12 5 10 3 7.5 3zM7.5 4C7.75 4 10 7 10 8.5 10 10 8.5 11 7.5 11 6.5 11 5 10 5 8.5 5 7 7.25 4 7.5 4zM5.5 8.5C5.5 9.5 6.5 10.5 7.5 10.5 6.5 10 6 9.5 5.5 8.5z" fill="#FFFFFF"/></svg>