<svg version="1.1" xmlns="http://www.w3.org/2000/svg" xlink="http://www.w3.org/1999/xlink" x="0px" y="0px" width="15px" height="15px" viewBox="0 0 15 15" style="enable-background:new 0 0 15 15;" space="preserve">
    <path d="M14.399999999999999,14.7c-0.3018,0,-0.5913,-0.069,-0.849,-0.1866c-0.26789999999999997,-0.12449999999999999,-0.5667,-0.1971,-0.876,-0.1971c-0.31229999999999997,0,-0.6117,0.0726,-0.876,0.1971c-0.2577,0.1176,-0.5502,0.1866,-0.8487,0.1866c-0.30269999999999997,0,-0.5943,-0.069,-0.8523000000000001,-0.1866c-0.26489999999999997,-0.12449999999999999,-0.5637,-0.1971,-0.876,-0.1971c-0.30929999999999996,0,-0.6083999999999999,0.0726,-0.873,0.1971c-0.25739999999999996,0.1176,-0.5496,0.1866,-0.852,0.1866c-0.3024,0,-0.591,-0.069,-0.8487,-0.1866c-0.26489999999999997,-0.12449999999999999,-0.5628,-0.1971,-0.8754000000000001,-0.1971c-0.30929999999999996,0,-0.6086999999999999,0.0726,-0.8763,0.1971c-0.2577,0.1176,-0.546,0.1866,-0.8469,0.1866c-0.3024,0,-0.591,-0.069,-0.8487,-0.1866c-0.2643,-0.12449999999999999,-0.5637,-0.1971,-0.876,-0.1971c-0.30929999999999996,0,-0.6081,0.0726,-0.876,0.1971c-0.258,0.1176,-0.5466,0.1866,-0.849,0.1866v-1.2828c0.3024,0,0.591,-0.0693,0.8487,-0.1875c0.2682,-0.1203,0.5667,-0.1932,0.876,-0.1932c0.3126,0,0.6117,0.0726,0.876,0.1932c0.2577,0.1182,0.5463,0.1875,0.8487,0.1875c0.30089999999999995,0,0.5892,-0.0693,0.8472,-0.1875c0.2676,-0.1203,0.567,-0.1932,0.8763,-0.1932c0.3126,0,0.6105,0.0726,0.8754000000000001,0.1932c0.2577,0.1182,0.5463,0.1875,0.8487,0.1875c0.3021,0,0.5943,-0.0693,0.852,-0.1875c0.2646,-0.1203,0.5637,-0.1932,0.873,-0.1932c0.31229999999999997,0,0.6111,0.0726,0.876,0.1932c0.2577,0.1182,0.5496,0.1875,0.8523000000000001,0.1875c0.2985,0,0.591,-0.0693,0.8487,-0.1875c0.2643,-0.1203,0.5637,-0.1932,0.876,-0.1932c0.30929999999999996,0,0.6081,0.0726,0.876,0.1932c0.2577,0.1182,0.5472,0.1875,0.849,0.1875v1.2828zm-5.5733999999999995,-2.649c0.1308,-0.0276,0.2613,-0.0414,0.39540000000000003,-0.0414c0.31229999999999997,0,0.6111,0.07229999999999999,0.876,0.1932c0.2577,0.1182,0.5496,0.1872,0.8523000000000001,0.1872c0.2985,0,0.591,-0.069,0.8487,-0.1872c0.18209999999999998,-0.08220000000000001,0.378,-0.1485,0.5877,-0.17609999999999998c-0.1137,-3.4419,-3.6804,-6.5127,-3.8484,-6.6717c-0.1752,-0.1593,-0.3369,-0.5082,-0.22319999999999998,-0.9201l0.8517,-2.8358999999999996c0.1515,-0.4395,0.0759,-1.0272,-0.1335,-1.2035999999999998c-0.1203,-0.0969,-0.37470000000000003,-0.16620000000000001,-0.5468999999999999,0.0312l-2.3046,2.6316c-0.5052,0.5397,-0.08220000000000001,1.1172,-0.0924,1.1139c-0.7838999999999999,-0.2838,-1.7043,-0.0936,-2.2626,0.138l-1.9038,0.9722999999999999c-0.189,0.0795,-0.2712,0.3213,-0.17159999999999997,0.4839c0.3162,0.5087999999999999,1.3640999999999999,0.5121,3.5475,0.2733c3.5277,-0.3807,3.5313000000000003,5.3094,3.5277,6.0114z" fill="#FFFFFF"/>
    </svg>