<svg version="1.1" xmlns="http://www.w3.org/2000/svg" xlink="http://www.w3.org/1999/xlink" x="0px" y="0px" width="15px" height="15px" viewBox="0 0 15 15" style="enable-background:new 0 0 15 15;" space="preserve"><path d="M7.5 0C11.625 0 15 3.375 15 7.5 15 11.625 11.642 15 7.5 15 3.358 15 0 11.625 0 7.5 0 3.375 3.375 0 7.5 0zM7.5.5C3.625.5.5 3.625.5 7.5.5 11.375 3.625 14.5 7.5 14.5L7.5 14.5C11.375 14.5 14.5 11.375 14.5 7.5 14.5 3.625 11.375.5 7.5.5zM8.75 1.125C11.875 1.75 14 4.5 14 7.5 14 10.5 11.875 13.25 8.75 13.875 8.75 13.875 8.448 13 7.5 13 6.5 13 6.25 13.875 6.25 13.875 3.125 13.25 1 10.5 1 7.5 1 4.5 3.125 1.75 6.25 1.125 6.25 1.125 6.5 2 7.5 2 8.5 2 8.75 1.125 8.75 1.125zM11 11 8.25 11C7.75 11 7.75 12 8.25 12L11 12C11.5 12 11.5 11 11 11zM6.75 11 4 11C3.5 11 3.5 12 4 12L6.75 12C7.25 12 7.25 11 6.75 11zM6.75 9 3 9C2.5 9 2.5 10 3 10L6.75 10C7.25 10 7.25 9 6.75 9zM12 9 8.25 9C7.75 9 7.75 10 8.25 10L12 10C12.5 10 12.5 9 12 9zM12.5 7 8.25 7C7.75 7 7.75 8 8.25 8L12.5 8C13 8 13 7 12.5 7zM6.75 7 2.5 7C2 7 2 8 2.5 8L6.75 8C7.25 8 7.25 7 6.75 7zM6.75 5 3 5C2.5 5 2.5 6 3 6L6.75 6C7.25 6 7.25 5 6.75 5zM12 5 8.25 5C7.75 5 7.75 6 8.25 6L12 6C12.5 6 12.5 5 12 5zM11 3 8.25 3C7.75 3 7.75 4 8.25 4L11 4C11.5 4 11.5 3 11 3zM6.75 3 4 3C3.5 3 3.5 4 4 4L6.75 4C7.25 4 7.25 3 6.75 3z" fill="#FFFFFF"/></svg>