<svg version="1.1" xmlns="http://www.w3.org/2000/svg" xlink="http://www.w3.org/1999/xlink" x="0px" y="0px" width="15px" height="15px" viewBox="0 0 15 15" style="enable-background:new 0 0 15 15;" space="preserve"><path d="M5.1,6.3h0.8046c0.2412,0,0.39540000000000003,-0.35459999999999997,0.39540000000000003,-0.594v-2.5332000000000003c0,-0.2397,-0.1542,-0.17279999999999998,-0.39540000000000003,-0.17279999999999998h-0.8046v3.3zm0,4.8h0.8046c0.2412,0,0.39540000000000003,0.2784,0.39540000000000003,0.5184v2.5326c0,0.2382,-0.1542,0.549,-0.39540000000000003,0.549h-0.8046v-3.5999999999999996zm-1.062,-2.4c-0.0069,-2.3150999999999997,0.42839999999999995,-2.4,0.6765,-2.4h0.08549999999999999v-3.3h-0.10260000000000001c-0.4419,0,-2.5974,0.7263,-2.5974,5.8496999999999995c0,5.1237,2.1555,5.8503,2.5974,5.8503h0.10260000000000001v-3.5999999999999996h-0.08549999999999999c-0.2481,0,-0.6699,-0.0861,-0.6765,-2.4zm2.9208000000000003,-4.986299999999999c0.14609999999999998,0.17489999999999997,0.2241,0.396,0.2241,0.6237c0,0.22769999999999999,-0.078,0.4488,-0.2241,0.624l0.47909999999999997,0.3942c0.2343,-0.28559999999999997,0.36419999999999997,-0.6474,0.36419999999999997,-1.0182c0,-0.3705,-0.1299,-0.7329,-0.36419999999999997,-1.0182l-0.47909999999999997,0.39449999999999996zm1.5402,2.7792c0.5232,-0.573,0.8124,-1.3158,0.8124,-2.0928c0,-0.7734,-0.28559999999999997,-1.5162,-0.8091,-2.0874l-0.4659,0.4062c0.4215,0.45899999999999996,0.6560999999999999,1.0554,0.6560999999999999,1.6812c0,0.6273000000000001,-0.2343,1.2258,-0.6629999999999999,1.6865999999999999l0.4695,0.4062zm1.0601999999999998,1.1373c0.8127,-0.8583000000000001,1.2615,-1.9836,1.2615,-3.1653c0,-1.1781,-0.4449,-2.3001,-1.251,-3.1584l-0.45899999999999996,0.41819999999999996c0.7002,0.7431,1.0880999999999998,1.7172,1.0880999999999998,2.7405c0,1.0269,-0.38789999999999997,2.0025,-1.095,2.7471l0.45539999999999997,0.4179zm1.0644,1.1376c1.098,-1.146,1.7034,-2.6519999999999997,1.7034,-4.2399c0,-1.5825,-0.6012,-3.0839999999999996,-1.6934999999999998,-4.2279l-0.4482,0.42839999999999995c0.9822,1.0284,1.5228,2.3781,1.5228,3.7994999999999997c0,1.428,-0.5438999999999999,2.7813000000000003,-1.5330000000000001,3.8090999999999995l0.4485,0.43079999999999996z" fill="#FFFFFF"/></svg>