<svg version="1.1" xmlns="http://www.w3.org/2000/svg" xlink="http://www.w3.org/1999/xlink" x="0px" y="0px" width="15px" height="15px" viewBox="0 0 15 15" style="enable-background:new 0 0 15 15;" space="preserve">
    <path d="M2,1L4.2,1C5.3,1,5.3,2.08,5.3,3.17C5.3,6.46,2.07,11.83,7.5,11.83C12.94,11.83,9.7,6.46,9.7,3.17C9.7,2.08,9.7,1,10.8,1L13,1L13,2.08C13,2.81,12.67,3.11,12,3C11.95,3.48,11.95,3.81,12,4C12.51,5.98,13,7.77,13,9.67C13,12.92,10.28,14,7.5,14C4.72,14,2,12.92,2,9.67C2,7.89,2.55,5.85,3,4C3.07,3.73,3.07,3.4,3,3C2.33,3.11,2,2.81,2,2.08L2,1Z" fill="#FFFFFF"/>
    </svg>