<svg version="1.1" xmlns="http://www.w3.org/2000/svg" xlink="http://www.w3.org/1999/xlink" x="0px" y="0px" width="15px" height="15px" viewBox="0 0 15 15" style="enable-background:new 0 0 15 15;" space="preserve">
    <path d="M6.639600000000001,1.2785999999999997c0.006599999999999999,-0.6168,-0.5004,-1.1274,-1.1187,-1.1208c-0.6317999999999999,-0.006599999999999999,-1.1423999999999999,0.504,-1.1391,1.1208c-0.0032999999999999995,0.6315,0.5073,1.1373,1.1391,1.1387999999999998c0.618,-0.0015,1.1253,-0.5073,1.1187,-1.1387999999999998zm3.2526,6.188999999999999l-3.6186,-4.3899c-0.1881,-0.279,-1.2366,-0.3963,-1.68,-0.0402l-1.7607,3.2037l0.4332,2.7080999999999995c0.44039999999999996,0.7071000000000001,1.3139999999999998,-0.0084,1.0686,-0.3948l-0.2955,-1.9184999999999999l0.7608,-1.536v3.5999999999999996l-1.7999999999999998,4.8c-0.3126,1.0482,1.1906999999999999,1.6095,1.5,0.6l2.1,-5.3999999999999995v-2.6999999999999997l-0.8810999999999999,-1.2186000000000001c-0.0438,-0.052199999999999996,-0.0372,-0.1311,0.0168,-0.17639999999999997c0.0537,-0.0438,0.1311,-0.036899999999999995,0.17489999999999997,0.015l3.0102,3.5597999999999996c0.4845,0.6620999999999999,1.4553,-0.042,0.9713999999999999,-0.7122zm-1.3845,6.0893999999999995l-1.7774999999999999,-4.4229l-0.7302000000000001,1.9659l1.0431,3.0507c0.4197,0.9824999999999999,1.8947999999999998,0.4077,1.4646,-0.5937zm4.7139,1.0149l0.006599999999999999,0.0102c0.0705,0.084,0.195,0.0924,0.279,0.0234c0.07379999999999999,-0.0639,0.0876,-0.17639999999999997,0.036899999999999995,-0.2568l-3.3498,-5.8161l-0.0099,-0.0117c-0.0675,-0.081,-0.1917,-0.09269999999999999,-0.2757,-0.0219c-0.07379999999999999,0.0639,-0.08070000000000001,0.17129999999999998,-0.033299999999999996,0.2568l3.3462,5.8161z" fill="#FFFFFF"/>
    </svg>