<svg version="1.1" xmlns="http://www.w3.org/2000/svg" xlink="http://www.w3.org/1999/xlink" x="0px" y="0px" width="15px" height="15px" viewBox="0 0 15 15" style="enable-background:new 0 0 15 15;" space="preserve">
    <path d="M7.5,0.5C7.888,0.5,8.203,0.82,8.203,1.214L8.203,1.178C9.382,1.407,9.872,2.149,10.265,3.214L10.453,3.214C10.686,3.214,10.875,3.47,10.875,3.786C10.875,4.101,10.686,4.357,10.453,4.357L9.75,4.357L9.75,6.357L11.438,6.357C11.748,6.357,12,6.613,12,6.929L12,8.643C12,8.958,11.748,9.214,11.438,9.214L9.75,9.214L9.75,13.071L10.312,13.071C10.701,13.071,11.016,13.391,11.016,13.786C11.016,14.18,10.701,14.5,10.312,14.5L4.687,14.5C4.299,14.5,3.984,14.18,3.984,13.786C3.984,13.391,4.299,13.071,4.688,13.071L5.25,13.071L5.25,9.214L3.562,9.214C3.252,9.214,3,8.958,3,8.643L3,6.928C3,6.613,3.252,6.357,3.562,6.357L5.25,6.357L5.25,4.357L4.547,4.357C4.314,4.357,4.125,4.101,4.125,3.786C4.125,3.47,4.314,3.214,4.547,3.214L4.698,3.214C5.08,1.92,5.63,1.614,6.797,1.178L6.797,1.214C6.797,0.82,7.112,0.5,7.5,0.5z" fill="#FFFFFF"/>
    </svg>