<svg version="1.1" xmlns="http://www.w3.org/2000/svg" xlink="http://www.w3.org/1999/xlink" x="0px" y="0px" width="14.99996250009375px" height="15px" viewBox="0 0 14.99996250009375 15" style="enable-background:new 0 0 15 15;" space="preserve">
    <path d="M14.374964062589841,8.12497968755078a0.6249984375039062,0.6249984375039062,0,0,0,-0.6249984375039062,0.6249984375039062v0.9374976562558592l-3.749990625023437,-2.812492968767578V5.46248634378414A0.7781230546923632,0.7781230546923632,0,0,0,8.749978125054685,4.846862882842792V3.3218666953332616a0.9374976562558592,0.9374976562558592,0,0,0,-0.06562483593791014,-0.34687413281466795L7.843730390674023,0.2312494218764453a0.3687490781273046,0.3687490781273046,0,0,0,-0.6843732890667772,0L6.315609210976972,2.9749925625185933A0.9374976562558592,0.9374976562558592,0,0,0,6.249984375039062,3.3218666953332616v1.524996187509531a0.7781230546923632,0.7781230546923632,0,0,0,-1.2499968750078123,0.6156234609413476v1.4124964687588277l-3.749990625023437,2.812492968767578v-0.9374976562558592a0.6249984375039062,0.6249984375039062,0,0,0,-1.2499968750078123,0v4.374989062527343a0.6249984375039062,0.6249984375039062,0,0,0,1.2499968750078123,0v-0.6249984375039062l4.999987500031249,-1.2499968750078123v1.5624960937597654l-1.3906215234461912,1.1906220234449412a0.5843735390661523,0.5843735390661523,0,0,0,0.4124989687525781,0.9968725078187303l2.224994437513906,-0.3124992187519531l2.231244421888945,0.3124992187519531a0.5843735390661523,0.5843735390661523,0,0,0,0.4124989687525781,-0.9968725078187303L8.749978125054685,12.812467968830076v-1.5624960937597654l4.999987500031249,1.2499968750078123v0.6249984375039062a0.6249984375039062,0.6249984375039062,0,1,0,1.2499968750078123,0v-4.374989062527343A0.6249984375039062,0.6249984375039062,0,0,0,14.374964062589841,8.12497968755078Z" fill="#FFFFFF"/>
    </svg>