<svg version="1.1" xmlns="http://www.w3.org/2000/svg" xlink="http://www.w3.org/1999/xlink" x="0px" y="0px" width="15px" height="15px" viewBox="0 0 15 15" style="enable-background:new 0 0 15 15;" space="preserve">
    <path d="M7.6731,2.6814c0.6891,0.0507,1.2918,-0.44039999999999996,1.3464,-1.0944c0.0552,-0.6572999999999999,-0.45899999999999996,-1.2324,-1.1481,-1.2831c-0.69,-0.0501,-1.2927,0.438,-1.3461,1.0953c-0.0537,0.6569999999999999,0.4608,1.2308999999999999,1.1478,1.2822zm5.1617999999999995,9.618599999999999l-0.41639999999999994,-3.5999999999999996h-0.6755999999999999c0.0063,-0.3,0.005399999999999999,-0.3333,-0.015299999999999998,-0.5154c-0.0201,-0.1863,-0.0792,-0.32249999999999995,-0.1755,-0.3654c0.0789,-0.084,0.1314,-0.1908,0.14159999999999998,-0.3111c0.015299999999999998,-0.1896,-0.0735,-0.3669,-0.222,-0.4725l-1.7196,-1.1303999999999998l-1.2659999999999998,-2.3838c-0.20969999999999997,-0.312,-0.5649,-0.5637,-0.9935999999999999,-0.5997c-0.3294,-0.022799999999999997,-0.6324,0.0861,-0.8775,0.2481l-2.5122,1.9445999999999999c-0.0828,0.06659999999999999,-0.1449,0.1542,-0.17309999999999998,0.2595l-0.5853,2.3552999999999997l-0.044399999999999995,0.0699v0.0009h-0.0048c-0.0981,0,-0.1875,0.0936,-0.22169999999999998,0.2175c-0.033,0.1215,-0.0735,0.282,-0.0735,0.4119v0.2706h-0.6522l-0.41639999999999994,3.5999999999999996h1.6826999999999999l-0.7377,1.1804999999999999c-0.048,0.0915,-0.10439999999999999,0.2208,-0.1143,0.34559999999999996c-0.0363,0.447,0.3117,0.8355,0.7781999999999999,0.8712c0.3333,0.022199999999999998,0.6201,-0.1386,0.7944,-0.39540000000000003l1.245,-2.0019h0.16290000000000002l-0.025500000000000002,-0.2211l0.3453,-0.5556c0.0375,-0.0744,0.1566,-0.2565,0.16979999999999998,-0.3429l0.42179999999999995,-1.833l1.8003,1.8819l0.5651999999999999,2.8292999999999995c0.09029999999999999,0.33449999999999996,0.37889999999999996,0.6105,0.7629,0.6386999999999999c0.46709999999999996,0.035399999999999994,0.876,-0.2943,0.9132,-0.7404l-0.0051,-0.16440000000000002l-0.29519999999999996,-1.4925h2.4396zm-9.5478,-3.9029999999999996c0.0168,-0.1419,0.0699,-0.2226,0.1635,-0.2226l0.0351,-0.0006c0.0945,0.1143,0.2349,0.1926,0.3969,0.2058c0.1857,0.0144,0.3525,-0.0657,0.4659,-0.18989999999999999c0.0252,0.021299999999999996,0.0453,0.053399999999999996,0.0591,0.0978c0.024900000000000002,0.0861,0.0393,0.1848,0.0393,0.2661c0,0.0486,-0.0024,0.1464,-0.005699999999999999,0.1464h-1.1627999999999998c-0.0039,0,-0.0026999999999999997,-0.1929,0.0087,-0.303zm1.7192999999999998,0.303h-0.3555c0.0075,-0.3,0.005399999999999999,-0.3333,-0.0141,-0.5154c-0.0168,-0.156,-0.0609,-0.2766,-0.1308,-0.3384l0.44370000000000004,-1.9325999999999999l0.8750999999999999,-0.6771l-0.8184,3.4635zm6.527399999999999,0h-1.1637c-0.0048,0,-0.0032999999999999995,-0.1929,0.0087,-0.303c0.0156,-0.1419,0.0696,-0.2226,0.1635,-0.2226c0.1347,0,0.2568,-0.0042,0.36510000000000004,-0.006599999999999999c0.1089,-0.0039,0.25739999999999996,-0.0093,0.44430000000000003,-0.0093c0.0717,0,0.1203,0.04259999999999999,0.1473,0.1293c0.025799999999999997,0.0861,0.0396,0.1848,0.0396,0.2661l-0.0048,0.14609999999999998zm-3.7638,-0.6849l0.564,-2.3808l0.47429999999999994,0.8949c0.0375,0.06149999999999999,0.0819,0.1122,0.1404,0.15990000000000001l1.6941,1.1109h-0.25589999999999996c-0.0981,0,-0.1341,0.0936,-0.168,0.2175c-0.0321,0.1215,-0.0189,0.282,-0.0189,0.4119v0.2706h-0.7595999999999999l-0.12269999999999999,1.059l-1.5476999999999999,-1.7438999999999998z" fill="#FFFFFF"/>
    </svg>