<svg version="1.1" xmlns="http://www.w3.org/2000/svg" xlink="http://www.w3.org/1999/xlink" x="0px" y="0px" width="6.25px" height="15px" viewBox="0 0 6.25 15" style="enable-background:new 0 0 15 15;" space="preserve">
    <path d="M0.3125,4.6875H5.9375a0.3125,0.3125,0,0,0,0.3125,-0.3125a1.875,1.875,0,0,0,-1.875,-1.875V1.25a0.625,0.625,0,0,0,0,-1.25H1.875A0.625,0.625,0,0,0,1.875,1.25V2.5a1.875,1.875,0,0,0,-1.875,1.875A0.3125,0.3125,0,0,0,0.3125,4.6875Z" fill="#FFFFFF"/> <path d="M0.3125,5.625H5.9375A0.3125,0.3125,0,0,1,6.25,5.9375V6.5625A0.3125,0.3125,0,0,1,5.9375,6.875H0.3125A0.3125,0.3125,0,0,1,0,6.5625V5.9375A0.3125,0.3125,0,0,1,0.3125,5.625z" fill="#FFFFFF"/> <path d="M0.3125,7.8125H5.9375A0.3125,0.3125,0,0,1,6.25,8.125V8.75A0.3125,0.3125,0,0,1,5.9375,9.0625H0.3125A0.3125,0.3125,0,0,1,0,8.75V8.125A0.3125,0.3125,0,0,1,0.3125,7.8125z" fill="#FFFFFF"/> <path d="M5.9375,10H0.3125a0.3125,0.3125,0,0,0,-0.3125,0.3125V14.375a0.625,0.625,0,0,0,0.625,0.625H5.625a0.625,0.625,0,0,0,0.625,-0.625V10.3125A0.3125,0.3125,0,0,0,5.9375,10Z" fill="#FFFFFF"/>
    </svg>