<svg version="1.1" xmlns="http://www.w3.org/2000/svg" xlink="http://www.w3.org/1999/xlink" x="0px" y="0px" width="15px" height="15px" viewBox="0 0 15 15" style="enable-background:new 0 0 15 15;" space="preserve">
    <path d="M1,2L14,2L14,13L1,13L1,2ZM2,3L2,12L13,12L13,3L2,3Z" fill="#FFFFFF"/> <path d="M8.40909091,3.75006644C7.79445455,3.74097572,7.79445455,4.66786476,8.40909091,4.65913768L8.86363636,4.65913768L8.86363636,5.30548733L6.36545455,6.7330019L5.89845455,5.56820892L6.54827273,5.56820892C7.16290909,5.57729963,7.16290909,4.65041059,6.54827273,4.65913768L4.70527273,4.65913768C4.09063636,4.65004696,4.09063636,5.576936,4.70527273,5.56820892L4.91836364,5.56820892L5.31072727,6.54827862C5.13736364,6.50555228,4.95881818,6.47737107,4.77272727,6.47737107C3.52290909,6.47737107,2.5,7.50025803,2.5,8.75004917C2.5,9.99984031,3.52290909,11.0227273,4.77272727,11.0227273C6.02254545,11.0227273,7.04545455,9.99974941,7.04545455,8.75004917C7.04545455,8.32160389,6.91827273,7.9247943,6.70990909,7.58171081L8.956,6.29801131L9.32172727,6.66909419C8.51963636,7.02099567,7.95454545,7.82197834,7.95454545,8.75004917C7.95454545,9.99984031,8.97745455,11.0227273,10.2272727,11.0227273C11.4770909,11.0227273,12.5,9.99984031,12.5,8.75004917C12.5,7.57198375,11.5878182,6.60691372,10.4368182,6.49864333L9.77272727,5.83456679L9.77272727,4.20460206C9.77272727,3.95360749,9.56918182,3.75006644,9.31818182,3.75006644L8.40909091,3.75006644ZM4.77272727,7.3863514C5.53127273,7.3863514,6.13636364,7.99152013,6.13636364,8.74995826C6.13636364,9.5083964,5.53127273,10.1135651,4.77272727,10.1135651C4.01418182,10.1135651,3.40909091,9.50848731,3.40909091,8.74995826C3.40909091,7.99142922,4.01418182,7.3863514,4.77272727,7.3863514ZM10.2272727,7.3863514C10.9858182,7.3863514,11.5909091,7.99152013,11.5909091,8.74995826C11.5909091,9.5083964,10.9858182,10.1135651,10.2272727,10.1135651C9.46872727,10.1135651,8.86363636,9.50848731,8.86363636,8.74995826C8.86363636,7.99142922,9.46872727,7.3863514,10.2272727,7.3863514Z" fill="#FFFFFF"/>
    </svg>