<svg version="1.1" xmlns="http://www.w3.org/2000/svg" xlink="http://www.w3.org/1999/xlink" x="0px" y="0px" width="15px" height="15px" viewBox="0 0 15 15" style="enable-background:new 0 0 15 15;" space="preserve"><path d="M6.00462162,10L6,10.0051993L6,14L5,14L5,11.1301993L2.74740932,13.6643638C2.3804913,14.0771466,1.74841893,14.1143273,1.33563616,13.7474093C0.922853393,13.3804913,0.885672665,12.7484189,1.25259068,12.3356362L5,8.11980068L5,4L4,4L4,3L7.5,1L11,3L11,4L10,4L10,8L12.5,12L12.9999946,12C13.5522824,12,14,12.4477176,14,13.0000054L14,13.0000054C14,13.5522907,13.5522843,14.0000064,12.9999989,14.0000064C12.9999975,14.0000064,12.9999961,14.0000064,12.9999946,14.0000064L11.5,14L10,11.6L10,14L9,14L9,10L6.00462162,10ZM6.58932291,7.69201544C6.59636906,7.6971675,6.60336559,7.70242422,6.61031047,7.70778573C6.85921883,7.89144502,7.16693223,8,7.5,8C8.32842712,8,9,7.32842712,9,6.5C9,5.67157288,8.32842712,5,7.5,5C6.67157288,5,6,5.67157288,6,6.5C6,6.98593476,6.23106835,7.41790062,6.58932291,7.69201544L6.58932291,7.69201544Z" fill="#FFFFFF"/></svg>