<svg version="1.1" xmlns="http://www.w3.org/2000/svg" xlink="http://www.w3.org/1999/xlink" x="0px" y="0px" width="15px" height="15px" viewBox="0 0 15 15" style="enable-background:new 0 0 15 15;" space="preserve"><path d="M7.5,1C8.15427497,1.96288406,8.65427497,2.62955073,9,3C10.0367609,4.11090399,11,4.8334221,11,5.5C11,6.5,10.6666667,7.16666667,10,7.5L5,7.5C4.33333333,7.16666667,4,6.5,4,5.5C4,4.76897433,4.7530701,4.2654242,6,3C6.30586444,2.68959902,6.80586444,2.02293235,7.5,1ZM5,8L10,8L10,14L5,14L5,8ZM7.5,9C7.22385763,9,7,9.22385763,7,9.5L7,11L8,11L8,9.5C8,9.22385763,7.77614237,9,7.5,9Z" fill="#FFFFFF"/></svg>