<svg version="1.1" xmlns="http://www.w3.org/2000/svg" xlink="http://www.w3.org/1999/xlink" x="0px" y="0px" width="15px" height="15px" viewBox="0 0 15 15" style="enable-background:new 0 0 15 15;" space="preserve">
    <path d="M14.1,14.7c-0.28559999999999997,0,-0.5651999999999999,-0.066,-0.8115,-0.17909999999999998c-0.25289999999999996,-0.1191,-0.5385,-0.189,-0.8382,-0.189c-0.2958,0,-0.5813999999999999,0.0696,-0.8343,0.189c-0.2502,0.11309999999999999,-0.5267999999999999,0.17909999999999998,-0.8154,0.17909999999999998c-0.28619999999999995,0,-0.5651999999999999,-0.066,-0.8124,-0.17909999999999998c-0.25229999999999997,-0.1191,-0.5385,-0.189,-0.8375999999999999,-0.189c-0.2961,0,-0.5817,0.0696,-0.8355,0.189c-0.24839999999999998,0.11309999999999999,-0.5262,0.17909999999999998,-0.8136,0.17909999999999998c-0.28919999999999996,0,-0.5651999999999999,-0.066,-0.8136,-0.17909999999999998c-0.25289999999999996,-0.1191,-0.5390999999999999,-0.189,-0.8361,-0.189c-0.2991,0,-0.5853,0.0696,-0.8382,0.189c-0.24689999999999998,0.11309999999999999,-0.5244,0.17909999999999998,-0.8139,0.17909999999999998c-0.2874,0,-0.5651999999999999,-0.066,-0.813,-0.17909999999999998c-0.2532,-0.1191,-0.5390999999999999,-0.189,-0.8367,-0.189c-0.2976,0,-0.5835,0.0696,-0.8367,0.189c-0.2481,0.11309999999999999,-0.5241,0.17909999999999998,-0.8132999999999999,0.17909999999999998v-1.2306000000000001c0.28919999999999996,0,0.5651999999999999,-0.066,0.8132999999999999,-0.17909999999999998c0.2532,-0.1161,0.5390999999999999,-0.1857,0.8367,-0.1857c0.2973,0,0.5831999999999999,0.0696,0.8367,0.1857c0.2481,0.11309999999999999,0.5256,0.17909999999999998,0.813,0.17909999999999998c0.2895,0,0.567,-0.066,0.8136,-0.17909999999999998c0.25289999999999996,-0.1161,0.5390999999999999,-0.1857,0.8382,-0.1857c0.297,0,0.5831999999999999,0.0696,0.8361,0.1857c0.24869999999999998,0.11309999999999999,0.5244,0.17909999999999998,0.8136,0.17909999999999998c0.2874,0,0.5651999999999999,-0.066,0.8136,-0.17909999999999998c0.25379999999999997,-0.1161,0.5394,-0.1857,0.8355,-0.1857c0.2991,0,0.5853,0.0696,0.8375999999999999,0.1857c0.24719999999999998,0.11309999999999999,0.5262,0.17909999999999998,0.8124,0.17909999999999998c0.28859999999999997,0,0.5651999999999999,-0.066,0.8154,-0.17909999999999998c0.25289999999999996,-0.1161,0.5385,-0.1857,0.8343,-0.1857c0.29969999999999997,0,0.5853,0.0696,0.8382,0.1857c0.24629999999999996,0.11309999999999999,0.5258999999999999,0.17909999999999998,0.8115,0.17909999999999998v1.2306000000000001zm-5.3999999999999995,-14.399999999999999v9.299999999999999h-7.4139zm0.8999999999999999,2.1357c0,1.0383,4.754099999999999,3.8643,4.4079,7.1643h-4.4079v-7.1643zm3.4580999999999995,7.7642999999999995h-10.0581v1.8599999999999999c0.3,0.03,0.25379999999999997,0.0633,0.3561,0.11309999999999999c0.2481,0.1095,0.5412,0.1755,0.8286,0.1755c0.2895,0,0.5748,-0.066,0.8214,-0.1755c0.25289999999999996,-0.1194,0.543,-0.189,0.8421,-0.189c0.297,0,0.585,0.0693,0.8379,0.189c0.24869999999999998,0.1095,0.5253,0.1755,0.8144999999999999,0.1755c0.2874,0,0.5655,-0.066,0.8139,-0.1755c0.25379999999999997,-0.1194,0.5397,-0.189,0.8358,-0.189c0.2991,0,0.5856,0.0693,0.8379,0.189c0.24719999999999998,0.1095,0.5262,0.1755,0.8124,0.1755c0.0561,0,0.108,-0.013199999999999998,0.1608,-0.0198l0.0135,0.006599999999999999l0.0984,-0.0165c0.0657,-0.0099,0.1311,-0.0168,0.1971,-0.033c0.591,-0.12269999999999999,0.9732000000000001,-0.6017999999999999,0.9732000000000001,-0.6017999999999999l1.1504999999999999,-1.4841h-0.336z" fill="#FFFFFF"/>
    </svg>