<svg version="1.1" xmlns="http://www.w3.org/2000/svg" xlink="http://www.w3.org/1999/xlink" x="0px" y="0px" width="15px" height="15px" viewBox="0 0 15 15" style="enable-background:new 0 0 15 15;" space="preserve"><path d="M4.091,12.449L5.606,12.449L5.227,13.132L9.773,13.132L9.394,12.449L10.909,12.449L12.045,14.5L10.53,14.5L10.152,13.816L4.848,13.816L4.47,14.5L2.955,14.5L4.091,12.449zM9.722,9.357L8.611,10.234L8.611,10.673L10.833,10.673L11.389,10.234L11.389,9.357L9.722,9.357zM3.611,9.357L3.611,10.234L4.167,10.673L6.389,10.673L6.389,10.234L5.278,9.357L3.611,9.357zM4.167,4.97L3.611,5.409L3.611,7.164L5.278,7.164L9.722,7.164L11.389,7.164L11.389,5.409L10.833,4.97L9.722,4.97L5.278,4.97L4.167,4.97zM5.278,2.777L5.278,3.654L9.722,3.654L9.722,2.777L5.278,2.777zM5.278,2.338L9.722,2.338L12.5,4.97L12.5,11.112L11.389,11.989L3.611,11.989L2.5,11.112L2.5,4.97L5.278,2.338zM9.773,0.5L9.773,0.96L7.955,0.96L7.955,1.879L7.045,1.879L7.045,0.96L5.227,0.96L5.227,0.5z" fill="#FFFFFF"/></svg>