<svg version="1.1" xmlns="http://www.w3.org/2000/svg" xlink="http://www.w3.org/1999/xlink" x="0px" y="0px" width="8.998050000000001px" height="15px" viewBox="0 0 8.998050000000001 15" style="enable-background:new 0 0 15 15;" space="preserve"><path d="M5.7405 2.16v.69H1.6335v-.69h.396V.2535l0 0C2.0294999999999996.11249999999999999 2.772 0 3.6854999999999998 0s1.6544999999999999.11249999999999999 1.6544999999999999.2535l0 0v1.9065H5.7405zM7.7955 4.719l-1.9874999999999998-1.389H1.6019999999999999L.1335 5.0655 0 15h8.946l.0525-6.140999999999999L7.7955 4.719zM6.511499999999999 9.141l-.7815-2.6984999999999997c-.018-1.2855.6795-1.2405 1.116-.9225.303.22499999999999998.393.618.393.618l.3615 2.973C7.116 10.107 6.511499999999999 9.141 6.511499999999999 9.141z" fill="#FFFFFF"/></svg>