<svg version="1.1" xmlns="http://www.w3.org/2000/svg" xlink="http://www.w3.org/1999/xlink" x="0px" y="0px" width="15px" height="15px" viewBox="0 0 15 15" style="enable-background:new 0 0 15 15;" space="preserve"><path d="M5.6565,3.1790999999999996c0.6726,0,1.2123000000000002,-0.5562,1.2123000000000002,-1.2413999999999998c0,-0.6855,-0.5397,-1.2417,-1.2123000000000002,-1.2417c-0.6675,0,-1.2126,0.5562,-1.2126,1.2417c0,0.6851999999999999,0.5450999999999999,1.2413999999999998,1.2126,1.2413999999999998zm0.34349999999999997,0.4209h-3.5999999999999996c-0.6,0,-0.6,0.8999999999999999,0,0.8999999999999999h3.5999999999999996c0.6,0,0.6,-0.8999999999999999,0,-0.8999999999999999zm5.7,0.3762c0,-1.3760999999999999,-0.4815,-2.6906999999999996,-1.359,-3.7266c0.0039,-0.0036,-0.22139999999999999,-0.2496,-0.22139999999999999,-0.2496l-3.414,3.4943999999999997l-0.0582,0.0576l0.0324,0.0438c0.0525,0.0957,0.0816,0.20220000000000002,0.0936,0.3084c0.0036,0.0438,0,0.0891,-0.0051,0.1344c-0.006599999999999999,0.0924,-0.024,0.183,-0.06269999999999999,0.2688l-0.0036,0.0087l-0.0219,0.052199999999999996l-0.022199999999999998,0.0438c-0.15,0.2358,-0.4068,0.38789999999999997,-0.7188,0.38789999999999997h-2.0391v4.8l-0.6560999999999999,4.5699c-0.0717,0.37649999999999995,0.21509999999999999,0.7428,0.5829,0.8160000000000001c0.36779999999999996,0.0771,0.8982,-0.20550000000000002,0.9732000000000001,-0.5859l0.6,-5.1h0.3l1.017,5.1384c0.075,0.3804,0.6005999999999999,0.6245999999999999,0.9716999999999999,0.5475c0.36479999999999996,-0.0732,0.5681999999999999,-0.4395,0.4965,-0.8160000000000001l-0.9851999999999999,-4.8792v-4.0836l2.7978,2.7405s0.2859,-0.24749999999999997,0.2859,-0.25079999999999997c0.8733,-1.035,1.4163,-2.3499,1.4163,-3.7205999999999997zm-0.6183,0.5237999999999999c-0.1002,0.8999999999999999,-0.6245999999999999,1.9884,-1.2818999999999998,2.7845999999999997c-0.6074999999999999,-0.6201,-1.9998,-1.788,-2.5998,-2.5532999999999997v-0.2313h3.8817zm0,-0.8999999999999999h-3.9111000000000002c0.7185,-0.8999999999999999,2.0619,-2.1099,2.7503999999999995,-2.8125c0.6603,0.7949999999999999,1.0641,1.6125,1.1607,2.8125z" fill="#FFFFFF"/></svg>