<svg version="1.1" xmlns="http://www.w3.org/2000/svg" xlink="http://www.w3.org/1999/xlink" x="0px" y="0px" width="15px" height="15px" viewBox="0 0 15 15" style="enable-background:new 0 0 15 15;" space="preserve">
    <path d="M7.5,0C11.642,0,15,3.358,15,7.5C15,11.642,11.642,15,7.5,15C3.358,15,0,11.642,0,7.5C0,3.358,3.358,0,7.5,0zM7.208,11.116C7.115,10.882,6.354,11.155,6.419,11.382C6.484,11.609,6.834,12.777,6.925,13.037C7.016,13.297,7.834,13.035,7.753,12.783C7.672,12.531,7.302,11.351,7.208,11.116zM3.505,11.309C3.24,11.215,2.999,12.06,3.234,12.163C3.469,12.266,4.668,12.646,4.881,12.698C5.094,12.75,5.391,11.984,5.147,11.875C4.988,11.804,3.771,11.402,3.505,11.309zM9.697,10.981C9.469,10.891,9.118,11.656,9.387,11.789C9.688,11.922,10.754,12.332,11.002,12.408C11.25,12.484,11.608,11.733,11.312,11.601C11.016,11.469,9.925,11.071,9.697,10.981zM11.318,9.233C11.047,9.188,10.912,10.037,11.198,10.089C11.484,10.141,12.67,10.316,12.913,10.33C13.156,10.344,13.285,9.509,13.033,9.473C12.781,9.438,11.589,9.278,11.318,9.233zM7.5,5.192C6.225,5.192,5.192,6.225,5.192,7.5C5.192,8.775,6.225,9.808,7.5,9.808C8.775,9.808,9.808,8.775,9.808,7.5C9.808,6.225,8.775,5.192,7.5,5.192zM2.643,8.655C2.422,8.641,2.307,9.485,2.552,9.516C2.797,9.547,3.986,9.675,4.274,9.697C4.562,9.719,4.589,8.859,4.365,8.836C4.141,8.812,2.864,8.669,2.643,8.655zM12.739,6.371C12.645,6.636,12.199,7.855,12.123,8.068C12.047,8.281,12.861,8.536,12.954,8.307C13.047,8.078,13.422,6.938,13.5,6.672C13.578,6.406,12.833,6.105,12.739,6.371zM2.736,5.569C2.543,5.73,1.599,6.605,1.422,6.766C1.245,6.926,1.799,7.583,1.97,7.44C2.141,7.297,3.033,6.457,3.235,6.26C3.438,6.062,2.928,5.409,2.736,5.569zM11.713,3.533C11.588,3.346,10.859,3.688,10.992,3.938C11.125,4.188,11.707,5.248,11.83,5.452C11.953,5.656,12.705,5.238,12.587,5.033C12.469,4.828,11.838,3.721,11.713,3.533zM7.958,3.471C7.766,3.406,7.458,4.195,7.69,4.293C7.922,4.391,9.08,4.752,9.337,4.829C9.594,4.906,9.835,4.09,9.605,4.006C9.375,3.922,8.15,3.536,7.958,3.471zM2.656,3.531C2.281,3.516,2.308,4.388,2.568,4.405C2.828,4.422,4.074,4.523,4.295,4.527C4.562,4.531,4.688,3.641,4.406,3.625C4.208,3.614,3.031,3.547,2.656,3.531zM5.094,1.484C4.938,1.375,4.34,1.988,4.553,2.158C4.766,2.328,5.709,3.087,5.917,3.223C6.125,3.359,6.65,2.723,6.45,2.541C6.25,2.359,5.25,1.594,5.094,1.484zM9.435,1.156C9.188,1.188,7.966,1.385,7.725,1.427C7.484,1.469,7.611,2.312,7.86,2.281C8.109,2.25,9.343,2.069,9.57,2.011C9.797,1.953,9.682,1.125,9.435,1.156z" fill="#FFFFFF"/>
    </svg>