<svg version="1.1" xmlns="http://www.w3.org/2000/svg" xlink="http://www.w3.org/1999/xlink" x="0px" y="0px" width="15px" height="15px" viewBox="0 0 15 15" style="enable-background:new 0 0 15 15;" space="preserve"><path d="M12.9,1.7999999999999998v-1.2h-10.799999999999999v1.2h-2.1v12.9h1.2v-11.7h0.8999999999999999v1.2h10.799999999999999v-1.2h0.8999999999999999v11.7h1.2v-12.9zm-0.2844,6.8999999999999995l-1.9575,-3.3375c-0.0777,-0.14429999999999998,-0.273,-0.2625,-0.43379999999999996,-0.2625h-5.4489c-0.1608,0,-0.3561,0.1182,-0.4335,0.2625l-1.9571999999999998,3.3375c-0.3216,0,-0.5847,0.27,-0.5847,0.6v3c0,0.33,0.2631,0.6,0.5847,0.6h0.6153000000000001v0.8999999999999999c0,0.49499999999999994,0.3639,0.8999999999999999,0.846,0.8999999999999999h0.2925c0.4821,0,0.9615,-0.405,0.9615,-0.8999999999999999v-0.8999999999999999h4.8v0.8999999999999999c0,0.49499999999999994,0.47909999999999997,0.8999999999999999,0.9615,0.8999999999999999h0.2925c0.4821,0,0.846,-0.405,0.846,-0.8999999999999999v-0.8999999999999999h0.6156c0.3213,0,0.5843999999999999,-0.27,0.5843999999999999,-0.6v-3c0,-0.33,-0.2631,-0.6,-0.5843999999999999,-0.6zm-9.2079,2.4c-0.40349999999999997,0,-0.7308,-0.3357,-0.7308,-0.75s0.3273,-0.75,0.7308,-0.75c0.4038,0,0.7308,0.3357,0.7308,0.75s-0.327,0.75,-0.7308,0.75zm0.4383,-2.4l1.3308,-2.4318c0.072,-0.14759999999999998,0.2625,-0.2682,0.423,-0.2682h3.8000999999999996c0.1608,0,0.3513,0.1206,0.423,0.2682l1.3311,2.4318h-7.308zm7.7463,2.4c-0.40349999999999997,0,-0.7308,-0.3357,-0.7308,-0.75s0.3273,-0.75,0.7308,-0.75c0.4038,0,0.7311,0.3357,0.7311,0.75s-0.3276,0.75,-0.7311,0.75z" fill="#FFFFFF"/></svg>