<svg version="1.1" xmlns="http://www.w3.org/2000/svg" xlink="http://www.w3.org/1999/xlink" x="0px" y="0px" width="15px" height="15px" viewBox="0 0 15 15" style="enable-background:new 0 0 15 15;" space="preserve">
    <path d="M9.16148352,7L7.5,7C7.22385763,7,7,6.77614237,7,6.5C7,6.22385763,7.22385763,6,7.5,6L9.48835319,6C9.51924472,5.99928477,9.54992437,6.00146076,9.58002126,6.006369C9.66130594,6.01944402,9.73603759,6.05211288,9.79921726,6.09937663C9.84824393,6.13517294,9.89376358,6.18424599,9.92860573,6.24237217C9.94434062,6.26849356,9.95775511,6.29617076,9.96856386,6.32511845L11.0385165,9L11.5,9C12.8807119,9,14,10.1192881,14,11.5C14,12.8807119,12.8807119,14,11.5,14C10.1192881,14,9,12.8807119,9,11.5C9,11.3287671,9.01721513,11.161555,9.05000906,11L8,11C8,11.5522847,7.55228475,12,7,12L5.94999094,12C5.71835578,13.1411202,4.70947896,14,3.5,14C2.11928813,14,1,12.8807119,1,11.5C1,10.290521,1.85887984,9.28164422,3,9.05000906L3,9L6,9L9.60134865,8.09966284L9.16148352,7ZM4.91464715,12L4,12C3.44771525,12,3,11.5522847,3,11L3,10.0853529C2.41740381,10.2912711,2,10.8468906,2,11.5C2,12.3284271,2.67157288,13,3.5,13C4.15310941,13,4.70872894,12.5825962,4.91464715,12L4.91464715,12ZM10.5105282,10.3726118C10.197549,10.647522,10,11.050691,10,11.5C10,12.3284271,10.6715729,13,11.5,13C12.3284271,13,13,12.3284271,13,11.5C13,10.6715729,12.3284271,10,11.5,10C11.4795699,10,11.4592351,10.0004084,11.4390035,10.0012176L11.9642383,11.3143047C12.066795,11.5706964,11.9420871,11.8616816,11.6856953,11.9642383C11.4293036,12.066795,11.1383184,11.9420871,11.0357617,11.6856953L10.5105282,10.3726118L10.5105282,10.3726118ZM5,8.49884545L2,8.49884545L2,7L4,7C4.55228475,7,5,7.44771525,5,8L5,8.49884545ZM11.5039,1C11.7779,1,12,1.2221,12,1.4961L12,4.4982C12,4.7753,11.7753,5,11.4982,5L10,5C9.2616,5,8.6238,4.5953,8.2774,4L7.5,4L6.5,3L5.5,4L4.5,3L3.5,4L2.5,3L3.5,2L8.2774,2C8.6238,1.4047,9.2616,1,10,1L11.5039,1ZM11,3.5L11,2.5C11,2.2238,10.7761,2,10.5,2C10.2239,2,10,2.2238,10,2.5L10,3.5C10,3.7761,10.2239,4,10.5,4C10.7761,4,11,3.7761,11,3.5Z" fill="#FFFFFF"/>
    </svg>