<svg version="1.1" xmlns="http://www.w3.org/2000/svg" xlink="http://www.w3.org/1999/xlink" x="0px" y="0px" width="15px" height="15px" viewBox="0 0 15 15" style="enable-background:new 0 0 15 15;" space="preserve"><path d="M11.5039 2 10 2C9.2616 2 8.6238 2.4047 8.2774 3L3.5 3 2.5 4 3.5 5 4.5 4 5.5 5 6.5 4 7.5 5 8.2774 5C8.6238 5.5953 9.2616 6 10 6L11.4982 6C11.7753 6 12 5.7753 12 5.4982L12 2.4961C12 2.2221 11.7779 2 11.5039 2ZM11 4.5C11 4.7761 10.7761 5 10.5 5 10.2239 5 10 4.7761 10 4.5L10 3.5C10 3.2238 10.2239 3 10.5 3 10.7761 3 11 3.2238 11 3.5L11 4.5ZM13 10C12.9255166 11.8269383 11.9255166 12.7661825 10 12.8177325L3 12.8177325 2 10 10.0184465 10 8 8.5 9 8 12 10 13 10ZM5 9.49884545 2 9.49884545 2 8 4 8C4.55228475 8 5 8.44771525 5 9L5 9.49884545Z" fill="#FFFFFF"/></svg>