<svg version="1.1" xmlns="http://www.w3.org/2000/svg" xlink="http://www.w3.org/1999/xlink" x="0px" y="0px" width="15px" height="15px" viewBox="0 0 15 15" style="enable-background:new 0 0 15 15;" space="preserve">
    <path d="M12,0C13,0,13,0,13,1L13,14C13,15,13,15,12,15L3,15C2,15,2,15,2,14L2,1C2,0,2,0,3,0L12,0zM10,12L4,12L4,13L10,13L10,12zM12,9L11,9L11,9.75L12,9.75L12,9zM10,2L4,2L4,10L10,10L10,2zM12,7.5L11,7.5L11,8.25L12,8.25L12,7.5zM12,6L11,6L11,6.75L12,6.75L12,6zM12,4.5L11,4.5L11,5.25L12,5.25L12,4.5z" fill="#FFFFFF"/> <path d="M8.75,6.25C8.75,6.25,8.75,7.5,8.75,7.5C8.75,7.5,9.25,7.5,9.25,7.5C9.25,7.5,9.25,6.25,9.25,6.25C9.25,6.25,8.75,6.25,8.75,6.25zM8.552,4.388C8.511,4.36,8.484,4.315,8.484,4.265L8.484,3.809C8.484,3.776,8.458,3.75,8.426,3.75L8.074,3.75C8.042,3.75,8.016,3.776,8.016,3.809L8.016,4.265C8.016,4.426,8.09,4.583,8.225,4.671C8.534,4.871,8.719,5.211,8.719,5.579L8.719,5.801C8.719,5.833,8.745,5.859,8.777,5.859L9.129,5.859C9.161,5.859,9.187,5.833,9.187,5.801L9.187,5.579C9.187,5.099,8.95,4.655,8.552,4.388zM7.5,6.25C7.5,6.25,4.5,6.25,4.5,6.25C4.25,6.25,4.25,7.5,4.5,7.5C4.5,7.5,7.5,7.5,7.5,7.5C7.75,7.5,7.75,6.25,7.5,6.25zM7.35,7.1L6,7.1L6,6.65L7.35,6.65L7.35,7.1zM8.072,4.787C7.897,4.666,7.781,4.477,7.781,4.265L7.781,3.809C7.781,3.776,7.755,3.75,7.723,3.75L7.371,3.75C7.339,3.75,7.312,3.776,7.312,3.809L7.312,4.295C7.312,4.615,7.493,4.893,7.754,5.076C7.918,5.191,8.016,5.378,8.016,5.579L8.016,5.801C8.016,5.833,8.042,5.859,8.074,5.859L8.426,5.859C8.458,5.859,8.484,5.833,8.484,5.801L8.484,5.579C8.484,5.262,8.331,4.968,8.072,4.787zM8.5,6.25C8.5,6.25,8,6.25,8,6.25C8,6.25,8,7.5,8,7.5C8,7.5,8.5,7.5,8.5,7.5C8.5,7.5,8.5,6.25,8.5,6.25z" fill="#FFFFFF"/>
    </svg>