<svg version="1.1" xmlns="http://www.w3.org/2000/svg" xlink="http://www.w3.org/1999/xlink" x="0px" y="0px" width="15px" height="15px" viewBox="0 0 15 15" style="enable-background:new 0 0 15 15;" space="preserve">
    <path d="M1.7999999999999998,3.3v10.122c0,0.441,0.37110000000000004,0.9779999999999999,0.828,0.9779999999999999h9.9654c0.45569999999999994,0,0.9065999999999999,-0.537,0.9065999999999999,-0.9779999999999999v-10.122h-11.7zm5.838,8.0328c-1.758,0,-3.1833,-1.3782,-3.1833,-3.0789s1.4253,-3.0789,3.1833,-3.0789s3.1833,1.3782,3.1833,3.0789c0,1.7009999999999998,-1.4253,3.0789,-3.1833,3.0789zm4.9554,-11.0328h-9.9654c-0.4569,0,-0.828,0.30989999999999995,-0.828,0.7515v1.6485h11.7v-1.6485c0,-0.4416,-0.45089999999999997,-0.7515,-0.9065999999999999,-0.7515zm-6.893400000000001,1.7999999999999998h-3.3v-1.2h3.3v1.2zm5.7438,-0.084c-0.37470000000000003,0,-0.6774,-0.29369999999999996,-0.6774,-0.6564c0,-0.36210000000000003,0.30269999999999997,-0.6557999999999999,0.6774,-0.6557999999999999s0.6783,0.29369999999999996,0.6783,0.6557999999999999c-0.0003,0.3624,-0.3036,0.6564,-0.6783,0.6564z" fill="#FFFFFF"/>
    </svg>