<svg version="1.1" xmlns="http://www.w3.org/2000/svg" xlink="http://www.w3.org/1999/xlink" x="0px" y="0px" width="15px" height="15px" viewBox="0 0 15 15" style="enable-background:new 0 0 15 15;" space="preserve"><path d="M10,3.75C10,3.05964406,10.5596441,2.5,11.25,2.5C11.9403559,2.5,12.5,3.05964406,12.5,3.75C12.5,4.44035594,11.9403559,5,11.25,5C10.5596441,5,10,4.44035594,10,3.75ZM10.6,7.3L9.765,6.195L8.6,7.395L9.356,8.147C9.44827756,8.24133288,9.49996484,8.36803849,9.5,8.5L9.5,11.015C9.49585786,11.2911424,9.26864237,11.5116421,8.9925,11.5075C8.71635763,11.5033579,8.49585787,11.2761424,8.5,11L8.5,8.707L7.146,7.354C6.95080903,7.15875007,6.95080903,6.84224993,7.146,6.647L9.146,4.647C9.24358017,4.55000701,9.3764496,4.49693145,9.514,4.5C9.66643336,4.50431563,9.80856441,4.57795866,9.9,4.7L11.25,6.5L13.014,6.5C13.1926328,6.50250086,13.3563621,6.60011121,13.4435127,6.75606218C13.5306633,6.91201315,13.5279949,7.10261207,13.4365127,7.25606218C13.3450305,7.40951229,13.1786328,7.50250086,13,7.5L11,7.5C10.8426213,7.5,10.6944272,7.42590292,10.6,7.3ZM8.07865879,9.61058036C8.02800942,9.73026531,8,9.86186168,8,10L8,11C8,11.316052,8.14661989,11.5978591,8.37555164,11.7811133C8.04753235,12.7792878,7.10793185,13.5,6,13.5C4.61928813,13.5,3.5,12.3807119,3.5,11C3.5,9.61928813,4.61928813,8.5,6,8.5C6.86655335,8.5,7.63013224,8.94088608,8.07865879,9.61058036L8.07865879,9.61058036ZM9.62444836,11.7811133C9.85338011,11.5978591,10,11.316052,10,11L10,10C10,9.86186168,9.97199058,9.73026531,9.92134121,9.61058036C10.3698678,8.94088608,11.1334466,8.5,12,8.5C13.3807119,8.5,14.5,9.61928813,14.5,11C14.5,12.3807119,13.3807119,13.5,12,13.5C10.8920682,13.5,9.95246765,12.7792878,9.62444836,11.7811133L9.62444836,11.7811133ZM6,9.5C5.17157288,9.5,4.5,10.1715729,4.5,11C4.5,11.8284271,5.17157288,12.5,6,12.5C6.82842712,12.5,7.5,11.8284271,7.5,11C7.5,10.1715729,6.82842712,9.5,6,9.5ZM12,9.5C11.1715729,9.5,10.5,10.1715729,10.5,11C10.5,11.8284271,11.1715729,12.5,12,12.5C12.8284271,12.5,13.5,11.8284271,13.5,11C13.5,10.1715729,12.8284271,9.5,12,9.5ZM6.62164474,6.61360667C6.58379019,6.74399554,6.54324194,6.87405288,6.5,7.0037787C6.44860923,7.15795101,6.3713454,7.28849979,6.27429148,7.4012401L4.5,6.14042857L4.5,7.91692857L4.66807486,8.2250218C4.23772875,8.38903781,3.82927809,8.58202194,3.56122879,8.91726101L2.5,7.45807143L2.5,5.5L1.2504,7.91692857L0.5,7.91692857L0.5,7.45807143L1.2504,5.5L2.5,4.25L3.2504,4.25L6.62164474,6.61360667L6.62164474,6.61360667ZM1.7656,12.5L1.2496,12.5L0.7496,12.0419286L2.156,8.17464286L2.9216,9.01928571L1.7656,12.5L1.7656,12.5ZM5,2.74957148C5,3.44034967,4.44,4,3.7496,4C3.06,4,2.5,3.44034967,2.5,2.74957148C2.5,2.05965033,3.06,1.5,3.7496,1.5C4.44,1.5,5,2.05965033,5,2.74957148Z" fill="#FFFFFF"/></svg>