<svg version="1.1" xmlns="http://www.w3.org/2000/svg" xlink="http://www.w3.org/1999/xlink" x="0px" y="0px" width="15px" height="15px" viewBox="0 0 15 15" style="enable-background:new 0 0 15 15;" space="preserve"><path d="M14.1693,12.299999999999999h-4.8693v1.2h4.919099999999999c0.40440000000000004,0,0.4809,-0.3525,0.4809,-0.3525v-0.291s-0.0036,-0.5565,-0.5307,-0.5565zm-0.6735,-0.237c0.6642,0,1.2042,-0.5406,1.2042,-1.2066000000000001c0,-0.6680999999999999,-0.54,-1.2068999999999999,-1.2042,-1.2068999999999999c-0.6632999999999999,0,-1.2018,0.5390999999999999,-1.2018,1.2068999999999999c0,0.6657,0.5385,1.2066000000000001,1.2018,1.2066000000000001zm-2.5362,-0.063c0.6317999999999999,0,1.14,-0.4452,1.14,-1.0761c-0.0003,-0.6297,-0.5103,-0.96,-1.1373,-0.9648l-1.6623,0.21059999999999998v1.8302999999999998h1.6596zm-5.4027,-7.8201c0.7377,0,1.3344,-0.6,1.3344,-1.3400999999999998c0,-0.7401,-0.5967,-1.3398,-1.3344,-1.3398c-0.7371,0,-1.3347,0.5997,-1.3347,1.3398s0.5976,1.3400999999999998,1.3347,1.3400999999999998zm-1.3625999999999998,4.336799999999999l-0.012,-0.0174l-0.6048,-1.4082l-0.0009,2.8089h1.8075l0.3948,-0.42l-1.0707,-0.4122c-0.25379999999999997,-0.0954,-0.4341,-0.3114,-0.5139,-0.5510999999999999zm0.38309999999999994,-0.1263c0.058499999999999996,0.1314,0.1668,0.2379,0.303,0.2868l2.0631,0.7646999999999999c0.264,0.1167,0.5723999999999999,-0.0045,0.6882,-0.2694c0.1158,-0.2667,-0.0045,-0.5771999999999999,-0.2688,-0.6932999999999999l-1.9034999999999997,-0.7188l-0.588,-1.4102999999999999l0.3834,-0.14279999999999998l0.49829999999999997,1.2084l1.4469,0.5364v-1.4766l0.768,0.4569l0.3828,1.9284c0.0939,0.2754,0.3912,0.4203,0.6654,0.3252c0.2715,-0.09419999999999999,0.41579999999999995,-0.39449999999999996,0.32249999999999995,-0.6687l-0.429,-1.8573c-0.0282,-0.10409999999999998,-0.08789999999999999,-0.195,-0.1686,-0.2631c-0.21989999999999998,-0.2436,-1.332,-1.4870999999999999,-1.4111999999999998,-1.5702c-0.1161,-0.1164,-0.3816,-0.3267,-0.8832,-0.3267h-1.7999999999999998c-1.023,0,-1.2198,1.044,-1.0107,1.575l0.9413999999999999,2.3154zm4.4226,1.8095999999999999h-8.1099c-0.29519999999999996,0,-0.5901,0.1665,-0.5901,0.5327999999999999v2.7672h8.7v-3.3z" fill="#FFFFFF"/></svg>