<svg version="1.1" xmlns="http://www.w3.org/2000/svg" xlink="http://www.w3.org/1999/xlink" x="0px" y="0px" width="15px" height="15px" viewBox="0 0 15 15" style="enable-background:new 0 0 15 15;" space="preserve">
    <path d="M9,14L9,11L6,11L6,14L1,14L1,6L4,6L4,5L7,5L7,1.5L9,0.5L11,1.5L13,0.5L13,3.5L11,4.5L9,3.5L8,4L8,5L11,5L11,6L14,6L14,14L9,14ZM12,8L12,10L13,10L13,8L12,8ZM10,8L10,10L11,10L11,8L10,8ZM10,11L10,13L11,13L11,11L10,11ZM12,11L12,13L13,13L13,11L12,11ZM4,11L4,13L5,13L5,11L4,11ZM2,11L2,13L3,13L3,11L2,11ZM8,8L8,10L9,10L9,8L8,8ZM6,8L6,10L7,10L7,8L6,8ZM4,8L4,10L5,10L5,8L4,8ZM2,8L2,10L3,10L3,8L2,8Z" fill="#FFFFFF"/>
    </svg>