<svg version="1.1" xmlns="http://www.w3.org/2000/svg" xlink="http://www.w3.org/1999/xlink" x="0px" y="0px" width="15px" height="15px" viewBox="0 0 15 15" style="enable-background:new 0 0 15 15;" space="preserve"><path d="M5,4L10,4L10,3L5,3L5,4ZM4,4L4,3C4,2.44771525,4.44771525,2,5,2L10,2C10.5522847,2,11,2.44771525,11,3L11,4L13,4C13.5522847,4,14,4.44771525,14,5L14,12C14,12.5522847,13.5522847,13,13,13L2,13C1.44771525,13,1,12.5522847,1,12L1,5C1,4.44771525,1.44771525,4,2,4L4,4ZM7,8L7,6L2,12L8,9L8,11L13,5L7,8Z" fill="#FFFFFF"/></svg>