<svg version="1.1" xmlns="http://www.w3.org/2000/svg" xlink="http://www.w3.org/1999/xlink" x="0px" y="0px" width="15px" height="15px" viewBox="0 0 15 15" style="enable-background:new 0 0 15 15;" space="preserve">
    <path d="M4.61813924,4.76372153L3.63186076,6.73627847L10.5945114,5.18902278L9.80548861,3.61097722L4.61813924,4.76372153L4.61813924,4.76372153ZM5.19436076,3.61127847L9.34451139,2.68902278L9,2L6,2L5.19436076,3.61127847ZM3.05563924,7.88872153L3,8L12,8L11.0554886,6.11097722L3.05563924,7.88872153ZM12,12.9949472C12.1439862,12.9763154,12.2836182,12.9172561,12.4,12.817769L12.87,12.4165781C13.1895,12.1629471,13.5886,12.024683,14,12.0251723L14,13.0036867C13.7374,13.0226699,13.4931,13.1422444,13.32,13.3363817C13.0483,13.6184874,12.7022,13.821627,12.32,13.9234903C11.7053,14.1010907,11.0405,13.9650772,10.55,13.56144L10.16,13.2189599C9.8557,12.9228615,9.3643,12.9228615,9.06,13.2189599C8.92,13.3363817,8.79,13.4635885,8.64,13.5810103C7.9072,14.1540284,6.8586,14.1250643,6.16,13.5125143L5.77,13.1700342C5.4836,12.9252099,5.0564,12.9252099,4.77,13.1700342C4.58,13.3168114,4.41,13.4831588,4.22,13.629936C3.5157,14.1402313,2.5468,14.116062,1.87,13.5712251L1.56,13.3070262C1.4153,13.1448864,1.2172,13.0375433,1,13.0036867L1,12.0251723C1.2585,11.9938598,1.5205,12.0417092,1.75,12.1621643C2.0282,12.3306645,2.2924,12.5203985,2.54,12.7297027C2.69832485,12.8985244,2.9189203,12.9927108,3.14713932,12.995833C3.19394644,12.9943122,3.24071732,12.991111,3.28735205,12.9862268C3.30827804,12.9830538,3.32917458,12.9790928,3.35,12.9743313C3.4625,12.9417468,3.5677,12.8886134,3.66,12.817769C3.82,12.7003473,3.95,12.5633552,4.11,12.4361484C4.8206,11.859999,5.8494,11.859999,6.56,12.4361484C6.72,12.5633552,6.87,12.7101324,7.03,12.8373393C7.3164,13.0821636,7.7436,13.0821636,8.03,12.8373393C8.19,12.7101324,8.34,12.5633552,8.5,12.4361484C9.2123,11.8546172,10.2477,11.8546172,10.96,12.4361484C11.11,12.5633552,11.25,12.7003473,11.4,12.817769C11.5270882,12.9264083,11.6819012,12.9868395,11.8398335,12.9990628C11.8932136,12.9974073,11.9466489,12.9935547,12,12.9874766L12,12.9949472L12,12.9949472ZM1,8L5,1L10,1L14,8L14,10L12,10L12,11.9949472C11.7896554,12.0221657,11.5700182,11.9631063,11.4,11.817769C11.25,11.7003473,11.11,11.5633552,10.96,11.4361484C10.6774049,11.205434,10.343954,11.0662523,10,11.0186034L10,10L5,10L5,11.0327635C4.68119616,11.0878889,4.37368988,11.2223505,4.11,11.4361484C3.95,11.5633552,3.82,11.7003473,3.66,11.817769C3.5677,11.8886134,3.4625,11.9417468,3.35,11.9743313C3.23311808,12.0010552,3.11399588,12.0025617,3,11.9810655L3,10L1,10L1,8Z" fill="#FFFFFF"/>
    </svg>