<svg version="1.1" xmlns="http://www.w3.org/2000/svg" xlink="http://www.w3.org/1999/xlink" x="0px" y="0px" width="15px" height="15px" viewBox="0 0 15 15" style="enable-background:new 0 0 15 15;" space="preserve"><path d="M10.572678,4.3812659L7.0885648,5.25229419C6.88764171,5.30252496,6.68404127,5.1803647,6.6338105,4.97944161C6.58357973,4.77851852,6.70573999,4.57491809,6.90666308,4.52468732L8.46873816,4.13416855L5.06588573,3.02776104L3.76031658,5.40431089L7.49761394,6.29280283L12.2137527,6.29280283L11.6769182,4.22536269L10.572678,4.3812659L10.572678,4.3812659ZM13.9927798,8.01977471L13.6352368,11.5006013L12.6632955,11.3960729C12.6068752,11.9453473,12.1260022,12.3437974,11.589199,12.2860663C11.0523959,12.2283352,10.6629926,11.7362904,10.7194129,11.187016L8.92876304,9.48617619L3.91582387,10.4553167L3.81366872,11.4498386C3.75724844,11.9991131,3.27637546,12.3975631,2.73957229,12.339832C2.20276911,12.282101,1.81336586,11.7900561,1.86978614,11.2407817L1.97194129,10.2462598L1,10.1417313L1.35754301,6.66090469C1.42786573,5.97054433,1.9518125,5.41966629,2.62442201,5.32911046L4.327885,2.23435421C4.4252833,2.07540087,4.6014591,1.98565244,4.78414261,2.0018806L9.54169392,3.51904481C9.73782671,3.54114363,11.947681,2.89627016,12.0031565,3.08996473L13.0231723,6.45751023C13.6591793,6.68789767,14.0594199,7.33273868,13.9927798,8.01977471ZM3.30292948,9.27771986C3.74234903,9.32390471,4.18196918,8.96790734,4.62178991,8.20972774L3.55379779,8.08429358L3.55379779,6.89086731C2.72074236,7.1634425,2.28112222,7.51943987,2.23493736,7.95885943C2.16566008,8.61798876,2.64380015,9.20844257,3.30292948,9.27771986ZM11.8474807,9.53980534C12.3994355,9.59753641,12.7836086,9.4176013,13,9C12.8536343,8.7545867,12.5044741,8.60301452,11.9525193,8.54528345C11.1245871,8.45868684,10.429944,8.61111448,10.4009376,8.8857517C10.3719312,9.16038892,11.0195485,9.45320874,11.8474807,9.53980534ZM6.59523622,12.0102451C6.452854,11.8289367,6.27142272,11.6499026,6,11.5C5,10.9477153,7.4986749,11,7.9986749,11C8.4986749,11,10,10.9477153,10,11.5C10,12.0522847,8.98759578,13,7.88302628,13C7.78037964,13,7.68918506,12.9918157,7.60739801,12.976525C7.41584306,12.991772,7.21176504,13,7,13C5.8954305,13,5,12.7761424,5,12.5C5,12.2585252,5.68471457,12.0570312,6.59523622,12.0102451L6.59523622,12.0102451Z" fill="#FFFFFF"/></svg>