<svg version="1.1" xmlns="http://www.w3.org/2000/svg" xlink="http://www.w3.org/1999/xlink" x="0px" y="0px" width="15px" height="15px" viewBox="0 0 15 15" style="enable-background:new 0 0 15 15;" space="preserve"><path d="M11,5C11.5523,5,12,5.4477,12,6L12,9L11,9L11,10C11,10.5523,10.5523,11,10,11C9.4477,11,9,10.5523,9,10L9,9L6,9L6,10C6,10.5523,5.5523,11,5,11C4.4477,11,4,10.5523,4,10L4,9L3,9L3,6C3,5.4477,3.4477,5,4,5L4.89,2.34C4.9582,2.1381,5.1469,2.0016,5.36,2L9.64,2C9.8531,2.0016,10.0418,2.1381,10.11,2.34L11,5ZM5,8C5.5523,8,6,7.5523,6,7C6,6.4477,5.5523,6,5,6C4.4477,6,4,6.4477,4,7C4,7.5523,4.4477,8,5,8ZM5,5L10,5L9.38,3L5.62,3L5,5ZM10,8C10.5523,8,11,7.5523,11,7C11,6.4477,10.5523,6,10,6C9.4477,6,9,6.4477,9,7C9,7.5523,9.4477,8,10,8ZM11.5,12L11,11L13,11L14,13L1,13L2,11L4,11L3.5,12L11.5,12Z" fill="#FFFFFF"/></svg>