<svg version="1.1" xmlns="http://www.w3.org/2000/svg" xlink="http://www.w3.org/1999/xlink" x="0px" y="0px" width="15px" height="15px" viewBox="0 0 15 15" style="enable-background:new 0 0 15 15;" space="preserve"><path d="M9.5 0C9.5 0 10 0 10 .5L10 5C10 5 11.5 5 11.5 5 11.5 5 12 5 12 5.5 12 5.5 12 14.5 12 14.5 12 15 11.5 15 11.5 15 11.5 15 3.5 15 3.5 15 3.5 15 3 15 3 14.5 3 14.5 3 5.5 3 5.5 3 5 3.5 5 3.5 5L5 5 5 .5C5 0 5.5 0 5.5 0L9.5 0zM10.5 6 4.5 6 4.5 10 10.5 10 10.5 6zM8.5 4C8.5 4 6.5 4 6.5 4 6 4 6 4.5 6.5 4.5 6.5 4.5 7 4.5 7 4.5 7 4.5 7 5.75 7 5.75 7 5.75 8 5.75 8 5.75 8 5.75 8 4.5 8 4.5 8 4.5 8.5 4.5 8.5 4.5 9 4.5 9 4 8.5 4zM8.5 1 6.5 1 6.5 2.5 8.5 2.5 8.5 1zM5.5 8 7.25 8 7.25 8.25 5.5 8.25 5.5 8zM5.5 9 5.5 9.25 7.25 9.25 7.25 9 5.5 9zM5.5 6.5 5.5 7 9.5 7 9.5 6.5 5.5 6.5zM5.5 8.5 5.5 8.75 7.25 8.75 7.25 8.5 5.5 8.5zM5.5 7.5 5.5 7.75 7.25 7.75 7.25 7.5 5.5 7.5zM7.75 8 7.75 8.25 9.5 8.25 9.5 8 7.75 8zM7.75 9 7.75 9.25 9.5 9.25 9.5 9 7.75 9zM7.75 8.5 7.75 8.75 9.5 8.75 9.5 8.5 7.75 8.5zM7.75 7.5 7.75 7.75 9.5 7.75 9.5 7.5 7.75 7.5z" fill="#FFFFFF"/></svg>