<svg version="1.1" xmlns="http://www.w3.org/2000/svg" xlink="http://www.w3.org/1999/xlink" x="0px" y="0px" width="15px" height="15px" viewBox="0 0 15 15" style="enable-background:new 0 0 15 15;" space="preserve">
    <path d="M5.999998,12L7,12C7.55228475,12,8,12.4477153,8,13L8,14L2,14L2,13C2,12.4477153,2.44771525,12,3,12L4,12L4,4C4,2.34314575,5.34314575,1,7,1L13,1L13,3C13,4.1045695,12.1045695,5,11,5L10,5C8.8954305,5,8,4.1045695,8,3L7.5,3C6.6715635,3,5.99998302,3.67158048,5.99998302,4.50001698L5.999998,12ZM9,2L9,3C9,3.55228475,9.44771525,4,10,4L11,4C11.5522847,4,12,3.55228475,12,3L12,2L9,2L9,2Z" fill="#FFFFFF"/>
    </svg>