<svg version="1.1" xmlns="http://www.w3.org/2000/svg" xlink="http://www.w3.org/1999/xlink" x="0px" y="0px" width="15px" height="15px" viewBox="0 0 15 15" style="enable-background:new 0 0 15 15;" space="preserve"><path d="M11 0C12 0 12 0 12 1L12 14C12 15 12 15 11 15 11 15 4 15 4 15 3 15 3 15 3 14L3 1C3 0 3 0 4 0L11 0zM6.25 8C6.25 8 5.5 8 5.5 8 5 8 5 8.5 5 8.5 5 8.5 5 13.5 5 13.5 5 14 5.5 14 5.5 14L9.5 14C9.5 14 10 14 10 13.5 10 13.5 10 8.5 10 8.5 10 8 9.5 8 9.5 8L8.75 8C8.75 8 8.5 8.984 8.5 8.984 8.5 9.234 6.5 9.234 6.5 8.984 6.5 8.984 6.25 8 6.25 8zM10.5 1 4.5 1C4.5 1 4 1 4 1.5 4 1.5 4 5.5 4 5.5 4 5.5 4 6 4.5 6 4.5 6 10.5 6 10.5 6 10.5 6 11 6 11 5.5 11 5.5 11 1.5 11 1.5 11 1 10.5 1 10.5 1zM8.75 5C8.861 5 9 5.14 9 5.25 9 5.36 8.861 5.5 8.75 5.5L5.75 5.5C5.64 5.5 5.5 5.36 5.5 5.25 5.5 5.14 5.64 5 5.75 5L8.75 5zM9.5 2.75C9.75 2.75 9.9 2.879 9.9 3.1 9.9 3.321 9.75 3.5 9.5 3.5L8.894 3.5C9 3.25 9 2.75 9 2.75L9.5 2.75zM9 1.5 5.5 1.5 5.5 3C5.5 4 6.25 4.75 7.25 4.75 7.75 4.75 8.5 4.5 8.75 4L9.5 4C10 4 10.25 3.542 10.25 3.1 10.25 2.658 10 2.25 9.5 2.25L9 2.25 9 1.5zM6.5 11.5C6.5 11.75 8.5 11.75 8.5 11.5 8.5 11.5 8.199 13.5 8.199 13.5 8.199 14 6.75 14 6.75 13.5 6.75 13.5 6.5 11.5 6.5 11.5zM7.69 11.5C8.235 11.318 8.417 11.136 8.417 10.773 8.417 10.591 8.235 10.409 7.871 10.227 7.508 10.045 7.326 9.864 7.326 9.5 7.144 9.864 7.326 10.409 7.69 10.591 8.599 10.955 7.69 11.5 7.69 11.5zM6.942 11.5C7.226 11.419 7.405 11.42 7.397 11.136 7.397 10.977 7.3 10.9 7.136 10.773 6.972 10.645 6.8 10.6 6.761 10.227 6.579 10.409 6.699 10.773 6.942 10.955 7.429 11.198 6.942 11.5 6.942 11.5z" fill="#FFFFFF"/></svg>