<svg version="1.1" xmlns="http://www.w3.org/2000/svg" xlink="http://www.w3.org/1999/xlink" x="0px" y="0px" width="15px" height="15px" viewBox="0 0 15 15" style="enable-background:new 0 0 15 15;" space="preserve">
    <path d="M9.471,9.0471s-0.5630999999999999,-1.4079,-1.1094,-2.7521999999999998c0,0,-0.183,-0.8079,-0.0399,-1.8801c0,0,0.3888,-1.6389,0.1725,-2.4137999999999997c0,0,-0.3321,-0.6639,-1.0221,-0.7101c0,0,-0.9521999999999999,0.0672,-1.1300999999999999,0.9935999999999999c0,0,-0.0465,0.534,0.1014,1.1502c0,0,0.5330999999999999,2.0391,-0.05159999999999999,3.3699c0,0,-0.8157,1.7043,-0.8805,2.0946c0,0,-0.3054,1.6698,-0.0048,2.8994999999999997c0,0,0.6312,2.1039,1.0932,2.8008c0,0,0.9372,0.2391,1.7412,-0.021299999999999996c0,0,0.9639,-1.5606,1.1564999999999999,-2.9709c0.0006,0,0.2412,-1.4900999999999998,-0.026399999999999996,-2.5602zm3.0027,-0.9911999999999999s-0.5628,-1.4082,-1.1115,-2.7519c0,0,-0.1827,-0.8081999999999999,-0.0402,-1.8785999999999998c0,0,0.3894,-1.6389,0.1725,-2.4156c0,0,-0.3306,-0.6639,-1.0211999999999999,-0.7095c0,0,-0.9524999999999999,0.0669,-1.1300999999999999,0.993c0,0,-0.0468,0.5343,0.1029,1.1504999999999999c0,0,0.5334,2.0408999999999997,-0.053099999999999994,3.3695999999999997c0,0,-0.1266,0.2673,-0.2844,0.6099c0.5121,1.2585,1.0041,2.4879,1.0041,2.4879l0.0078,0.021299999999999996l0.0051,0.021c0.2814,1.1193,0.042,2.6241,0.033299999999999996,2.6799c-0.09119999999999999,0.6702,-0.34379999999999994,1.3554,-0.5931,1.914l0.036899999999999995,0.0609s0.9362999999999999,0.2394,1.7412,-0.022799999999999997c0,0,0.9632999999999999,-1.5585,1.1562,-2.9696999999999996c0,-0.0003,0.2415,-1.4900999999999998,-0.026399999999999996,-2.5599zm-6.7062,-1.3791c0.031799999999999995,-0.0699,0.0582,-0.147,0.08310000000000001,-0.2226c-0.1464,-0.3636,-0.306,-0.7541999999999999,-0.46349999999999997,-1.1436c0,0,-0.1848,-0.81,-0.0402,-1.8801c0,0,0.38909999999999995,-1.6374,0.17309999999999998,-2.4141c0,0,-0.3321,-0.6642,-1.0224,-0.7098c0,0,-0.9531,0.0687,-1.1298,0.9911999999999999c0,0,-0.0462,0.5364,0.10319999999999999,1.1507999999999998c0,0,0.5334,2.0403,-0.053099999999999994,3.3710999999999998c0,0,-0.8157,1.7046000000000001,-0.8807999999999999,2.0946c0,0,-0.30569999999999997,1.6701,-0.0048,2.8994999999999997c0,0,0.6312,2.1042,1.0929,2.7992999999999997c0,0,0.9375,0.2412,1.7412,-0.021599999999999998l0.0501,-0.0834c-0.294,-0.7734,-0.5346,-1.5696,-0.5529,-1.6338c-0.3126,-1.2816,-0.0117,-2.9613,0,-3.0255c0.0678,-0.41519999999999996,0.7677,-1.89,0.9038999999999999,-2.172z" fill="#FFFFFF"/>
    </svg>