<svg version="1.1" xmlns="http://www.w3.org/2000/svg" xlink="http://www.w3.org/1999/xlink" x="0px" y="0px" width="15px" height="15px" viewBox="0 0 15 15" style="enable-background:new 0 0 15 15;" space="preserve"><path d="M11.5,4.24957148C11.5,4.94034967,10.94,5.5,10.2496,5.5C9.56,5.5,9,4.94034967,9,4.24957148C9,3.55965033,9.56,3,10.2496,3C10.94,3,11.5,3.55965033,11.5,4.24957148ZM9,5.75L9.7504,5.75L14,8.72942857L14,9.41692857L13.5,9.41692857L11,7.64042857L11,9.41692857L12,11.25L13,13.5419286L12.5,14L12,14L11,11.7080714L9,8.95807143L9,6.82407143L7.7504,7.8125L6.7504,9.41692857L6,9.41692857L6,8.95807143L6.7504,7.58307143L9,5.75ZM9.4216,10.5192857L8.2656,14L7.7496,14L7.2496,13.5419286L8.656,9.67464286L9.4216,10.5192857ZM2,3L3.5,3C3.77614237,3,4,3.22385763,4,3.5C4,3.77614237,3.77614237,4,3.5,4L2,4L2,3ZM2,2L2,6L5,6L5,2L2,2ZM2,1L5,1C5.55228475,1,6,1.44771525,6,2L6,6C6,6.55228475,5.55228475,7,5,7L2,7C1.44771525,7,1,6.55228475,1,6L1,2C1,1.44771525,1.44771525,1,2,1ZM3,7.5L4,7.5L4,14L3,14L3,7.5Z" fill="#FFFFFF"/></svg>