<svg version="1.1" xmlns="http://www.w3.org/2000/svg" xlink="http://www.w3.org/1999/xlink" x="0px" y="0px" width="15px" height="15px" viewBox="0 0 15 15" style="enable-background:new 0 0 15 15;" space="preserve"><path d="M9 4C11.5 4 12.5 5 12.5 7.5 12.5 9 11.5 13 11.5 13 11 15 9.5 15 7.5 15 5.5 15 4 15 3.5 13 3.5 13 2.5 9 2.5 7.5 2.5 5 3.5 4 6 4L9 4zM7 5C3 5 3.5 7.5 4 10 4 7.5 4 6 7 5zM8.5 0C9.5 0 9.75 1 9.75 1.5L11 1.5C11 1 11.5.5 12.5.5 13.5.5 14.5 1 14.5 1.75 14.5 2.5 13.5 3 12.5 3 11.5 3 11 2.5 11 2L9.75 2C9.75 2.5 9.5 3.5 8.5 3.5 7.5 3.5 7.5 3.5 6.5 3.5 5.5 3.5 5.5 2.5 5.5 2.25 6.25 2.25 6.25 1.25 5.5 1.25 5.5 1 5.5 0 6.5 0L8.5 0zM3.755.927 4.25.997C4.387 1.017 4.482 1.144 4.462 1.28 4.443 1.417 4.316 1.512 4.179 1.492L3.684 1.422C3.548 1.402 3.453 1.276 3.472 1.139 3.492 1.002 3.619.907 3.755.927zM2.27.715C2.134.695 2.007.79 1.987.927 1.968 1.064 2.063 1.19 2.2 1.21L2.695 1.28C2.831 1.3 2.958 1.205 2.977 1.068 2.997.932 2.902.805 2.765.785L2.27.715zM.785.503C.649.483.522.578.503.715.483.851.578.978.715.997L1.21 1.068C1.346 1.088 1.473.993 1.492.856 1.512.719 1.417.593 1.28.573L.785.502zM1.21 2.427.715 2.498C.578 2.517.483 2.644.503 2.78.522 2.917.649 3.012.785 2.992L1.28 2.922C1.417 2.902 1.512 2.776 1.492 2.639 1.473 2.502 1.346 2.407 1.21 2.427zM2.695 2.215 2.2 2.285C2.063 2.305 1.968 2.432 1.987 2.568 2.007 2.705 2.134 2.8 2.27 2.78L2.765 2.71C2.902 2.69 2.997 2.564 2.977 2.427 2.958 2.29 2.831 2.195 2.695 2.215zM4.179 2.003 3.684 2.073C3.548 2.093 3.453 2.219 3.472 2.356 3.492 2.493 3.619 2.588 3.755 2.568L4.25 2.498C4.387 2.478 4.482 2.351 4.462 2.215 4.443 2.078 4.316 1.983 4.179 2.003z" fill="#FFFFFF"/></svg>