<svg version="1.1" xmlns="http://www.w3.org/2000/svg" xlink="http://www.w3.org/1999/xlink" x="0px" y="0px" width="15px" height="15px" viewBox="0 0 15 15" style="enable-background:new 0 0 15 15;" space="preserve"><path d="M8.5,3.50007308L9.5,3.50007308C9.7761,3.50007308,10,3.72396824,10,4.00006226L10,5.79302347L10.7305,6.52350767C11.9966,6.64260509,13,7.70418212,13,9.00005409C13,10.3748243,11.8748,11.5,10.5,11.5C9.1252,11.5,8,10.3748243,8,9.00005409C8,7.97917617,8.6216,7.09809524,9.5039,6.71100361L9.1016,6.30281244L6.6309,7.71488189C6.8601,8.09227373,7,8.52876428,7,9.00005409C7,10.3747243,5.8748,11.5,4.5,11.5C3.1252,11.5,2,10.3748243,2,9.00005409C2,7.62528383,3.1252,6.50010817,4.5,6.50010817C4.7047,6.50010817,4.9011,6.5311075,5.0918,6.57810649L4.6602,5.50002981L4.4258,5.50002981C3.7497,5.5096296,3.7497,4.49005166,4.4258,4.50005145L6.4531,4.50005145C7.1292,4.49045165,7.1292,5.51002959,6.4531,5.50002981L5.7383,5.50002981L6.252,6.78130209L9,5.21103606L9,4.50005145L8.5,4.50005145C7.8239,4.50965124,7.8239,3.4900733,8.5,3.50007308ZM4.5,7.49998654C3.6656,7.49998654,3,8.16557214,3,8.99995409C3,9.83433604,3.6656,10.4999216,4.5,10.4999216C5.3344,10.4999216,6,9.83423604,6,8.99995409C6,8.16567214,5.3344,7.49998654,4.5,7.49998654ZM10.5,7.49998654C9.6656,7.49998654,9,8.16557214,9,8.99995409C9,9.83433604,9.6656,10.4999216,10.5,10.4999216C11.3344,10.4999216,12,9.83423604,12,8.99995409C12,8.16567214,11.3344,7.49998654,10.5,7.49998654ZM11.5,13L11,12L13,12L14,14L1,14L2,12L4,12L3.5,13L11.5,13ZM11.5,2L3.5,2L4,3L2,3L1,1L14,1L13,3L11,3L11.5,2Z" fill="#FFFFFF"/></svg>