<svg version="1.1" xmlns="http://www.w3.org/2000/svg" xlink="http://www.w3.org/1999/xlink" x="0px" y="0px" width="15px" height="15px" viewBox="0 0 15 15" style="enable-background:new 0 0 15 15;" space="preserve">
    <path d="M1.7427,7.263c-0.30329999999999996,0,-0.5514,0.2481,-0.5514,0.5505c0,0.3021,0.24839999999999998,0.546,0.5514,0.546c0.303,0,0.5478,-0.24389999999999998,0.5478,-0.546c0,-0.3024,-0.24479999999999996,-0.5505,-0.5478,-0.5505zm7.6464,-4.5777c0.6572999999999999,0,1.194,-0.5313,1.194,-1.1906999999999999s-0.5367,-1.1946,-1.194,-1.1946c-0.6608999999999999,0,-1.1979,0.5352,-1.1979,1.1946c0,0.6594,0.537,1.1906999999999999,1.1979,1.1906999999999999zm5.1392999999999995,10.6236l-1.9431,-2.2878s-0.6069,-3.5321999999999996,-0.6069,-3.5397l-0.0909,-0.40049999999999997c0.0036,0.0039,-0.24419999999999997,-1.1141999999999999,-0.4341,-1.9880999999999998c0.303,0.17459999999999998,0.5766,0.3312,0.5913,0.3387c0.0147,0.0324,1.0295999999999998,1.959,1.0295999999999998,1.959c0.0774,0.1425,0.2058,0.2481,0.3585,0.2949c0.1569,0.0474,0.3216,0.033,0.46409999999999996,-0.0438c0.1425,-0.0726,0.24839999999999998,-0.2001,0.29519999999999996,-0.3567c0.052199999999999996,-0.1527,0.0363,-0.3171,-0.0405,-0.45869999999999994l-1.1127,-2.1162s-0.044399999999999995,-0.0765,-0.10260000000000001,-0.1344c-0.0804,-0.0801,-0.2565,-0.1785,-0.2565,-0.1785l-2.1614999999999998,-1.2275999999999998c-0.2742,-0.1383,-0.5771999999999999,-0.18539999999999998,-0.8807999999999999,-0.12c-0.1248,0.025500000000000002,-0.2409,0.07289999999999999,-0.372,0.14579999999999999c-0.015299999999999998,0.0032999999999999995,-0.49379999999999996,0.2145,-0.7709999999999999,0.8634000000000001l-1.11,2.2287l-1.7499,0.3387l-0.0402,0.0144l-1.5797999999999999,-1.1144999999999998c-0.3543,-0.24749999999999997,-0.3978,-0.9905999999999999,-0.402,-1.0197c-0.0435,-0.5097,-0.336,-0.9905999999999999,-0.8034,-1.3221c-0.4233,-0.2985,-0.9350999999999999,-0.4257,-1.4028,-0.34979999999999994c-0.3654,0.062099999999999995,-0.6755999999999999,0.25139999999999996,-0.873,0.5286c-0.153,0.2148,-0.2334,0.4734,-0.2334,0.75l0.0219,0.2409c0.08070000000000001,0.4692,0.369,0.9062999999999999,0.7928999999999999,1.2086999999999999c0.42719999999999997,0.3021,0.9350999999999999,0.4299,1.4024999999999999,0.34979999999999994l0.1098,-0.0219c0.010799999999999999,-0.0072,0.7122,-0.2226,1.0554,0.011099999999999999c0,0.0032999999999999995,1.1814,0.8337,1.4957999999999998,1.056c-0.0327,0.051000000000000004,-0.09119999999999999,0.1635,-0.0876,0.2805c0,0.0366,0.0039,0.0726,0.011099999999999999,0.1089c0.062099999999999995,0.3282,0.38309999999999994,0.5466,0.7122,0.4812l2.0961,-0.4083s0.17939999999999998,-0.054599999999999996,0.2562,-0.1095c0.099,-0.069,0.17159999999999997,-0.2145,0.17159999999999997,-0.2145l0.5514,-1.1073s0.3804,1.788,0.3867,1.8207c-0.0435,0.0438,-1.7196,1.8174,-1.7196,1.8174l-0.0645,0.0366c-0.1653,0.1488,-0.2919,0.3453,-0.2919,0.5535v3.7577999999999996c0,0.40140000000000003,0.3501,0.7254,0.7517999999999999,0.7254c0.39840000000000003,0,0.7482000000000001,-0.324,0.7482000000000001,-0.7254v-3.1388999999999996c0.3,-0.15990000000000001,1.4532,-1.5108,1.7964,-1.8687c0.036899999999999995,0.21119999999999997,0.3756,2.1168,0.3756,2.1168c0.0294,0.16770000000000002,0.1137,0.3204,0.2343,0.44370000000000004c0,0.0042,2.3097,2.7213,2.3097,2.7213c0.1284,0.14459999999999998,0.30389999999999995,0.2364,0.4971,0.25439999999999996c0.1938,0.0147,0.3807,-0.0468,0.5307,-0.17039999999999997c0.16770000000000002,-0.1425,0.25589999999999996,-0.3501,0.25589999999999996,-0.5544c0,-0.1671,-0.054299999999999994,-0.3312,-0.17129999999999998,-0.4695zm-11.521799999999999,-8.1942c-0.1278,0.1785,-0.32489999999999997,0.2949,-0.5697,0.3387c-0.34349999999999997,0.0579,-0.7272,-0.0402,-1.0482,-0.2733c-0.32489999999999997,-0.2298,-0.5445,-0.5570999999999999,-0.6026999999999999,-0.8994000000000001l-0.015,-0.17129999999999998c0,-0.1785,0.0477,-0.3384,0.1464,-0.477c0.3177,-0.444,1.0443,-0.47309999999999997,1.6212,-0.0654c0.5739,0.40800000000000003,0.7857000000000001,1.1034,0.46799999999999997,1.5476999999999999z" fill="#FFFFFF"/>
    </svg>