<svg version="1.1" xmlns="http://www.w3.org/2000/svg" xlink="http://www.w3.org/1999/xlink" x="0px" y="0px" width="6.875px" height="15px" viewBox="0 0 6.875 15" style="enable-background:new 0 0 15 15;" space="preserve">
    <path d="M0,13.421875V14.53125a0.46875,0.46875,0,0,0,0.9375,0V14.0625H5.9375v0.46875a0.46875,0.46875,0,0,0,0.9375,0V2.5H0ZM5.3125,7.8125a0.3125,0.3125,0,0,1,0.625,0v0.9375a0.3125,0.3125,0,0,1,-0.625,0Z" fill="#FFFFFF"/> <path d="M5,0H1.875A1.875,1.875,0,0,0,0,1.875H6.875A1.875,1.875,0,0,0,5,0Z" fill="#FFFFFF"/>
    </svg>