<svg version="1.1" xmlns="http://www.w3.org/2000/svg" xlink="http://www.w3.org/1999/xlink" x="0px" y="0px" width="15px" height="15px" viewBox="0 0 15 15" style="enable-background:new 0 0 15 15;" space="preserve">
    <path d="M8,7.41018243L8,6L7.64064474,6C7.36450237,6,7.14064474,5.77614237,7.14064474,5.5C7.14064474,5.4590541,7.14567437,5.41826323,7.15562065,5.37854373L8.01665202,1.9400967C8.08373046,1.67222528,8.35526097,1.50945043,8.62313238,1.57652887C8.80225759,1.62138413,8.94207842,1.76131366,8.98679445,1.94047367L9.8449866,5.3789207C9.91185685,5.64684416,9.74887102,5.91824809,9.48094755,5.98511834C9.44134648,5.99500226,9.40068415,6,9.35986826,6L9,6L9,7.46922823C9.02359208,7.47886775,9.04703989,7.48912361,9.07032237,7.5L9.92420688,7.89889127C10.0684416,7.9662704,10.2153009,8.02788241,10.364436,8.08358102L11,8.3209499L11,7L10.6406447,7C10.3645024,7,10.1406447,6.77614237,10.1406447,6.5C10.1406447,6.4590541,10.1456744,6.41826323,10.1556206,6.37854373L11.016652,2.9400967C11.0837305,2.67222528,11.355261,2.50945043,11.6231324,2.57652887C11.8022576,2.62138413,11.9420784,2.76131366,11.9867945,2.94047367L12.8449866,6.3789207C12.9118568,6.64684416,12.748871,6.91824809,12.4809476,6.98511834C12.4413465,6.99500226,12.4006841,7,12.3598683,7L12,7L12,8.69442746L12.4919146,8.87814651C12.7078016,8.95877547,12.9081295,9.07610957,13.0840536,9.22496842L13.4090909,9.5C13.7838572,9.81710998,14,10.2831368,14,10.774063L14,11.0251723C13.5886,11.024683,13.1895,11.1629471,12.87,11.4165781L12.4,11.817769C12.1136,12.0625933,11.6864,12.0625933,11.4,11.817769C11.25,11.7003473,11.11,11.5633552,10.96,11.4361484C10.2477,10.8546172,9.2123,10.8546172,8.5,11.4361484C8.34,11.5633552,8.19,11.7101324,8.03,11.8373393C7.7436,12.0821636,7.3164,12.0821636,7.03,11.8373393C6.87,11.7101324,6.72,11.5633552,6.56,11.4361484C5.8494,10.859999,4.8206,10.859999,4.11,11.4361484C3.95,11.5633552,3.82,11.7003473,3.66,11.817769C3.5677,11.8886134,3.4625,11.9417468,3.35,11.9743313C3.0547,12.0418488,2.7451,11.9484007,2.54,11.7297027C2.2924,11.5203985,2.0282,11.3306645,1.75,11.1621643C1.67321647,11.1218638,1.592795,11.0896905,1.51008382,11.0658899C1.86063127,10.4486209,2.37501856,9.93298822,3,9.58175127L3,7.5L6,7.5L6,8.93334639C6.3183365,8.79397173,6.74079414,8.4360197,7.26737294,7.85949031C7.46955365,7.63813671,7.72490364,7.48614577,8,7.41018243ZM14,12.0251723L14,13.0036867C13.7374,13.0226699,13.4931,13.1422444,13.32,13.3363817C13.0483,13.6184874,12.7022,13.821627,12.32,13.9234903C11.7053,14.1010907,11.0405,13.9650772,10.55,13.56144L10.16,13.2189599C10.0258668,13.0884419,9.85538039,13.0154552,9.68058924,13L9.53941075,13C9.36461961,13.0154552,9.19413321,13.0884419,9.06,13.2189599C8.92,13.3363817,8.79,13.4635885,8.64,13.5810103C7.9072,14.1540284,6.8586,14.1250643,6.16,13.5125143L5.77,13.1700342C5.66574928,13.0809172,5.54284273,13.0242391,5.41486193,13L5.12513807,13C4.99715727,13.0242391,4.87425072,13.0809172,4.77,13.1700342C4.58,13.3168114,4.41,13.4831588,4.22,13.629936C3.5157,14.1402313,2.5468,14.116062,1.87,13.5712251L1.56,13.3070262C1.4153,13.1448864,1.2172,13.0375433,1,13.0036867L1,12.0251723C1.2585,11.9938598,1.5205,12.0417092,1.75,12.1621643C2.0282,12.3306645,2.2924,12.5203985,2.54,12.7297027C2.69832485,12.8985244,2.9189203,12.9927108,3.14713932,12.995833C3.19394644,12.9943122,3.24071732,12.991111,3.28735205,12.9862268C3.30827804,12.9830538,3.32917458,12.9790928,3.35,12.9743313C3.4625,12.9417468,3.5677,12.8886134,3.66,12.817769C3.82,12.7003473,3.95,12.5633552,4.11,12.4361484C4.37661104,12.2199821,4.68801466,12.0849195,5.01059926,12.0309607C5.15163389,11.9808999,5.30462074,11.9730341,5.44941138,12.0073631C5.84554763,12.0304218,6.23587508,12.1733502,6.56,12.4361484C6.72,12.5633552,6.87,12.7101324,7.03,12.8373393C7.11185,12.9073074,7.2051999,12.9572794,7.3034766,12.9872553C7.48969881,13.000343,7.677629,12.9869352,7.86096636,12.9468578C7.92085509,12.9184943,7.97776899,12.8819881,8.03,12.8373393C8.19,12.7101324,8.34,12.5633552,8.5,12.4361484C8.75905565,12.2246519,9.06084763,12.0900744,9.37429048,12.0324158C9.47526134,12.0011828,9.58143673,11.9905417,9.68595396,12.0004926C10.1374677,11.9903929,10.5918814,12.1356115,10.96,12.4361484C11.11,12.5633552,11.25,12.7003473,11.4,12.817769C11.5270882,12.9264083,11.6819012,12.9868395,11.8398335,12.9990628C11.9322631,12.9961962,12.0248583,12.9867424,12.1168954,12.9705532C12.2187008,12.9409464,12.3154814,12.8900183,12.4,12.817769L12.87,12.4165781C13.1413289,12.2011871,13.4700647,12.0689977,13.8149889,12.0343331C13.875121,12.0185735,13.9370344,12.0082385,14,12.0036867L14,12.0251723L14,12.0251723ZM7.35054412,13L7.70945668,13C7.59162812,13.0279434,7.46837189,13.0279434,7.35054491,13L7.35054412,13ZM4.5,4L7,7L2,7L4.5,4Z" fill="#FFFFFF"/>
    </svg>