<svg version="1.1" xmlns="http://www.w3.org/2000/svg" xlink="http://www.w3.org/1999/xlink" x="0px" y="0px" width="15px" height="15px" viewBox="0 0 15 15" style="enable-background:new 0 0 15 15;" space="preserve">
    <path d="M5,6L5,13L4,13L4,12L2,12L2,13L1,13L1,2.45454545C1,2.17840308,1.22385763,1.95454545,1.5,1.95454545C1.77614237,1.95454545,2,2.17840308,2,2.45454545L2,4L4,4L4,2.45454545C4,2.17840308,4.22385763,1.95454545,4.5,1.95454545C4.77614237,1.95454545,5,2.17840308,5,2.45454545L5,4L5.01396473,4C5.62768662,4,6.20743079,4.28177612,6.58660141,4.7643569L11.4860353,11L13,11C13.5522847,11,14,11.4477153,14,12C14,12.5522847,13.5522847,13,13,13L10.5139647,13L5.01396473,6L5,6ZM2,11L4,11L4,10L2,10L2,11ZM2,9L4,9L4,8L2,8L2,9ZM2,7L4,7L4,6L2,6L2,7Z" fill="#FFFFFF"/>
    </svg>