<svg version="1.1" xmlns="http://www.w3.org/2000/svg" xlink="http://www.w3.org/1999/xlink" x="0px" y="0px" width="15px" height="15px" viewBox="0 0 15 15" style="enable-background:new 0 0 15 15;" space="preserve"><path d="M9,11L9,14L7,14L7,11L1,11L1,7C1,5.34314575,2.34314575,4,4,4L7,4L7,1L10,1L10,3L8,3L8,4L11,4C12.6568542,4,14,5.34314575,14,7L14,11L9,11ZM4,5C2.8954305,5,2,5.8954305,2,7L2,10L6,10L6,7C6,5.8954305,5.1045695,5,4,5ZM3.5,6L4.5,6C4.77614237,6,5,6.22385763,5,6.5C5,6.77614237,4.77614237,7,4.5,7L3.5,7C3.22385763,7,3,6.77614237,3,6.5C3,6.22385763,3.22385763,6,3.5,6Z" fill="#FFFFFF"/></svg>