<svg version="1.1" xmlns="http://www.w3.org/2000/svg" xlink="http://www.w3.org/1999/xlink" x="0px" y="0px" width="15px" height="15px" viewBox="0 0 15 15" style="enable-background:new 0 0 15 15;" space="preserve"><path d="M15,12c-0.3,0,-0.6021,-0.07079999999999999,-0.8627999999999999,-0.1911c-0.26789999999999997,-0.12719999999999998,-0.5703,-0.20220000000000002,-0.8832,-0.20220000000000002c-0.3171,0,-0.6189,0.075,-0.8874000000000001,0.20220000000000002c-0.264,0.12,-0.5562,0.1911,-0.8624999999999999,0.1911c-0.3024,0,-0.5985,-0.07079999999999999,-0.8589,-0.1911c-0.2685,-0.12719999999999998,-0.5706,-0.20220000000000002,-0.8867999999999999,-0.20220000000000002c-0.31349999999999995,0,-0.6162,0.075,-0.8835,0.20220000000000002c-0.26489999999999997,0.1203,-0.5570999999999999,0.1911,-0.8630999999999999,0.1911c-0.306,0,-0.5985,-0.07079999999999999,-0.8592,-0.1911c-0.26789999999999997,-0.12719999999999998,-0.5706,-0.20220000000000002,-0.8862,-0.20220000000000002c-0.3168,0,-0.6156,0.075,-0.8838,0.20220000000000002c-0.264,0.1203,-0.5559,0.1911,-0.8622,0.1911c-0.30629999999999996,0,-0.5963999999999999,-0.07079999999999999,-0.8574,-0.1911c-0.2712,-0.12719999999999998,-0.5706,-0.20220000000000002,-0.8870999999999999,-0.20220000000000002s-0.5304,0.075,-0.8019,0.20220000000000002c-0.2607,0.1203,-0.474,0.1911,-0.774,0.1911v-1.3134c0.3,0,0.5133,-0.07079999999999999,0.774,-0.1911c0.2712,-0.12389999999999998,0.528,-0.1989,0.8444999999999999,-0.1989s0.5943,0.075,0.8658,0.1989c0.261,0.12,0.5406,0.1911,0.8469,0.1911s0.5928,-0.07079999999999999,0.8571000000000001,-0.1911c0.2682,-0.12389999999999998,0.5643,-0.1989,0.8810999999999999,-0.1989c0.3156,0,0.6168,0.075,0.8846999999999999,0.1989c0.2607,0.12,0.5523,0.1911,0.8583000000000001,0.1911c0.306,0,0.5979,-0.07079999999999999,0.8624999999999999,-0.1911c0.2676,-0.12389999999999998,0.5697,-0.1989,0.8832,-0.1989c0.3162,0,0.6185999999999999,0.075,0.8867999999999999,0.1989c0.26039999999999996,0.12,0.5565,0.1911,0.8589,0.1911c0.30629999999999996,0,0.5985,-0.07079999999999999,0.8624999999999999,-0.1911c0.2685,-0.12389999999999998,0.5703,-0.1989,0.8874000000000001,-0.1989c0.31289999999999996,0,0.6156,0.075,0.8832,0.1989c0.2607,0.12,0.5628,0.1911,0.8627999999999999,0.1911v1.3134zm-3.5136,-5.4858l2.5397999999999996,0.2019l-0.1917,-1.3208999999999997l-1.8644999999999998,-0.1341c-0.504,-0.024900000000000002,-0.43139999999999995,0.48869999999999997,-0.43139999999999995,0.48869999999999997l-0.052199999999999996,0.7644zm-4.7097,-0.30089999999999995c0.46649999999999997,0,0.8421,-0.3822,0.8421,-0.8564999999999999c0,-0.4746,-0.37529999999999997,-0.8564999999999999,-0.8421,-0.8564999999999999c-0.4659,0,-0.8406,0.3822,-0.8406,0.8564999999999999s0.37470000000000003,0.8564999999999999,0.8406,0.8564999999999999zm-5.1972000000000005,3.3015000000000003c0.10769999999999999,-0.031799999999999995,0.21239999999999998,-0.0741,0.3096,-0.1203c0.2715,-0.12719999999999998,0.5706,-0.2019,0.8870999999999999,-0.2019s0.6159,0.0747,0.8870999999999999,0.2019c0.261,0.1203,0.5510999999999999,0.1911,0.8574,0.1911c0.30629999999999996,0,0.5982,-0.0705,0.8624999999999999,-0.1911c0.2682,-0.12719999999999998,0.567,-0.2019,0.8838,-0.2019c0.3156,0,0.6183,0.0747,0.8862,0.2019c0.2607,0.1203,0.5532,0.1911,0.8592,0.1911c0.306,0,0.5982,-0.0705,0.8627999999999999,-0.1911c0.2676,-0.12719999999999998,0.57,-0.2019,0.8835,-0.2019c0.3162,0,0.6185999999999999,0.0747,0.8867999999999999,0.2019c0.26039999999999996,0.1203,0.5565,0.1911,0.8589,0.1911c0.30629999999999996,0,0.5985,-0.0705,0.8624999999999999,-0.1911c0.2685,-0.12719999999999998,0.5703,-0.2019,0.8874000000000001,-0.2019c0.31289999999999996,0,0.6156,0.0747,0.8832,0.2019c0.2607,0.1203,0.5532,0.1911,0.8595,0.1911l-0.28559999999999997,-2.3421l-10.5564,-0.8994000000000001l1.5933,-1.6356l-0.6992999999999999,-0.06359999999999999l-1.5912,1.6392l-3.4575,-0.2904c-0.021,1.2,1.2936,3.1953,1.5792,3.5211z" fill="#FFFFFF"/></svg>