<svg version="1.1" xmlns="http://www.w3.org/2000/svg" xlink="http://www.w3.org/1999/xlink" x="0px" y="0px" width="15px" height="15px" viewBox="0 0 15 15" style="enable-background:new 0 0 15 15;" space="preserve">
    <path d="M4.944,3.5664c0.6396000000000001,-0.0771,1.0935,-0.6692999999999999,1.0178999999999998,-1.3208999999999997c-0.0756,-0.6519,-0.6567,-1.1141999999999999,-1.2962999999999998,-1.0374c-0.6396000000000001,0.0813,-1.0917,0.6692999999999999,-1.0161,1.3208999999999997c0.0792,0.6522,0.6548999999999999,1.1144999999999998,1.2945,1.0374zm9.5826,5.598599999999999c-0.061799999999999994,-0.0315,-4.8141,-2.4909000000000003,-4.8141,-2.4909000000000003l-1.2066000000000001,-1.5836999999999999l-0.0747,-0.017699999999999997c-0.1647,-0.1539,-0.3312,-0.1398,-0.6312,0.0282v0.0036c0,0.126,-0.06659999999999999,0.3117,0.0165,0.4626l0.9239999999999999,1.1769l0.0183,0.010799999999999999l-0.735,1.734l-1.9655999999999998,-0.5013l-0.084,-0.7185l1.6197,-0.19920000000000002c0.07229999999999999,-0.0032999999999999995,0.1482,-0.0246,0.21689999999999998,-0.063c0.2685,-0.1434,0.37170000000000003,-0.48360000000000003,0.2307,-0.7565999999999999c-0.11009999999999999,-0.2103,-0.33,-0.32249999999999995,-0.5466,-0.2979l-1.6497,0.2031l-0.1479,-1.2470999999999999c-0.0789,-0.6483,-0.6603,-1.1141999999999999,-1.2962999999999998,-1.0371c-0.6375,0.08070000000000001,-1.095,0.6732,-1.0194,1.3245l0.34379999999999994,2.8833c0.0414,0.36810000000000004,0.2562,0.6867,0.5415,0.8724l-2.5911,0.31529999999999997l-0.8079,2.0388l0.09269999999999999,-0.0312c0.3336,-0.1578,0.705,-0.2421,1.0695,-0.2421c0.3645,0,0.7323,0.084,1.0626,0.2382c0.20969999999999997,0.0978,0.4401,0.147,0.6636000000000001,0.147c0.2253,0,0.45209999999999995,-0.0492,0.6585,-0.1434c0.3336,-0.1578,0.7014,-0.2421,1.0695,-0.2421c0.3645,0,0.7314,0.084,1.0584,0.2382c0.213,0.0978,0.44339999999999996,0.147,0.6672,0.147c0.2268,0,0.4502999999999999,-0.0492,0.66,-0.1434c0.3336,-0.1578,0.7052999999999999,-0.2421,1.0695,-0.2421s0.7323,0.084,1.059,0.2382c0.0792,0.0348,0.1653,0.0594,0.2511,0.084c1.3239,-0.35459999999999997,3.669,-1.0371,4.301399999999999,-1.6152c0.18539999999999998,-0.16740000000000002,0.22019999999999998,-0.4512,-0.0243,-0.5736zm-14.2266,4.635c0.30269999999999997,0,0.5949,-0.0699,0.8529,-0.189c0.2646,-0.1263,0.564,-0.1995,0.8769,-0.1995s0.6086999999999999,0.0732,0.8769,0.1995c0.2577,0.1191,0.5466,0.189,0.8492999999999999,0.189c0.30089999999999995,0,0.5898,-0.0699,0.8511000000000001,-0.189c0.2646,-0.1263,0.5637,-0.1995,0.8769,-0.1995c0.3096,0,0.6086999999999999,0.0732,0.876,0.1995c0.258,0.1188,0.5468999999999999,0.189,0.8495999999999999,0.189c0.3024,0,0.5913,-0.0699,0.8526,-0.189c0.2652,-0.1263,0.564,-0.1995,0.8772,-0.1995c0.30929999999999996,0,0.6086999999999999,0.0732,0.8733,0.1995c0.261,0.1191,0.5498999999999999,0.189,0.8523000000000001,0.189c0.303,0,0.5916,-0.0699,0.8495999999999999,-0.189c0.2685,-0.1263,0.5676,-0.1995,0.8769,-0.1995c0.3126,0,0.6017999999999999,0.0732,0.8661,0.1995c0.258,0.1191,0.5424,0.189,0.8423999999999999,0.189v-1.2999c-0.3,0,-0.5843999999999999,-0.0693,-0.8427,-0.1887c-0.2643,-0.1266,-0.5586,-0.1965,-0.8712,-0.1965c-0.30929999999999996,0,-0.606,0.0699,-0.8742,0.1965c-0.258,0.1191,-0.5454,0.1887,-0.8483999999999999,0.1887c-0.3024,0,-0.5903999999999999,-0.0693,-0.8517,-0.1887c-0.2646,-0.1266,-0.5637,-0.1965,-0.873,-0.1965c-0.3132,0,-0.612,0.0699,-0.8772,0.1965c-0.2613,0.1191,-0.5498999999999999,0.1887,-0.8523000000000001,0.1887c-0.30269999999999997,0,-0.5913,-0.0693,-0.8492999999999999,-0.1887c-0.2673,-0.1266,-0.5663999999999999,-0.1965,-0.876,-0.1965c-0.31289999999999996,0,-0.6123,0.0699,-0.8769,0.1965c-0.2613,0.1191,-0.5502,0.1887,-0.8511000000000001,0.1887c-0.30269999999999997,0,-0.5916,-0.0693,-0.8492999999999999,-0.1887c-0.2682,-0.1266,-0.564,-0.1965,-0.8769,-0.1965s-0.6123,0.0699,-0.8769,0.1965c-0.258,0.1194,-0.5502,0.1887,-0.8529,0.1887v1.2999z" fill="#FFFFFF"/>
    </svg>