<svg version="1.1" xmlns="http://www.w3.org/2000/svg" xlink="http://www.w3.org/1999/xlink" x="0px" y="0px" width="15px" height="15px" viewBox="0 0 15 15" style="enable-background:new 0 0 15 15;" space="preserve"><path d="M6.421,2.083C6.421,2.083,8.132,5.139,10.702,2.625C11.056,3.167,11.772,4.25,11.772,4.25C11.772,4.25,8.087,6.802,6.421,2.083zM1.07,4.25C1.379,4.91,1.777,5.72,2.14,6.417C2.68,5.333,4.281,5.333,4.281,5.333C5.351,5.333,6.136,5.758,6.136,6.446C6.136,7.134,5.351,7.5,4.281,7.5C4.281,7.5,4.281,8.583,4.281,9.125C5.684,8.856,6.424,9.98,6.081,10.758C5.431,12.23,1.61,12.404,0,9.667C0,13.987,3.683,14,4.281,14C6.421,14,7.492,11.833,7.492,9.667C8.049,10.255,8.942,10.258,9.632,9.667C10.6,8.838,10.979,7.489,12.308,7.5C13.928,7.513,13.913,10.75,12.843,11.833C11.772,12.917,9.21,12.532,8.562,10.75C8.562,11.833,8.562,14.001,11.772,14C14.983,13.998,15.634,10.334,14.448,7.5C13.715,5.748,12.343,5.279,10.863,5.743C9.72,6.102,9.772,6.615,9.097,7.5C8.744,7.929,8.562,8.583,7.492,8.583C7.12,8.583,6.666,8.286,6.421,8.042C7.746,7.083,7.551,5.239,6.421,4.25C4.936,2.95,2.312,3.216,1.07,4.25zM7.492,2.083L8.562,1L9.632,2.083L8.562,3.167z" fill="#FFFFFF"/></svg>