<svg version="1.1" xmlns="http://www.w3.org/2000/svg" xlink="http://www.w3.org/1999/xlink" x="0px" y="0px" width="15px" height="15px" viewBox="0 0 15 15" style="enable-background:new 0 0 15 15;" space="preserve">
    <path d="M1,2L14,2L14,10.5L1,10.5L1,2ZM2.5,3C2.22385763,3,2,3.22385763,2,3.5C2,3.77614237,2.22385763,4,2.5,4L5.5,4C5.77614237,4,6,3.77614237,6,3.5C6,3.22385763,5.77614237,3,5.5,3L2.5,3ZM2.5,5C2.22385763,5,2,5.22385763,2,5.5C2,5.77614237,2.22385763,6,2.5,6L3.5,6C3.77614237,6,4,5.77614237,4,5.5C4,5.22385763,3.77614237,5,3.5,5L2.5,5ZM5.5,5C5.22385763,5,5,5.22385763,5,5.5C5,5.77614237,5.22385763,6,5.5,6L9.5,6C9.77614237,6,10,5.77614237,10,5.5C10,5.22385763,9.77614237,5,9.5,5L5.5,5ZM2.5,7C2.22385763,7,2,7.22385763,2,7.5C2,7.77614237,2.22385763,8,2.5,8L7.5,8C7.77614237,8,8,7.77614237,8,7.5C8,7.22385763,7.77614237,7,7.5,7L2.5,7ZM6,11L9,11L9,14L6,14L6,11ZM10,11L13,11L13,12L10,12L10,11ZM2,11L5,11L5,12L2,12L2,11Z" fill="#FFFFFF"/>
    </svg>