<svg version="1.1" xmlns="http://www.w3.org/2000/svg" xlink="http://www.w3.org/1999/xlink" x="0px" y="0px" width="8.998050000000001px" height="15px" viewBox="0 0 8.998050000000001 15" style="enable-background:new 0 0 15 15;" space="preserve">
    <path d="M5.7405,2.16v0.69H1.6335v-0.69h0.396V0.2535l0,0C2.0294999999999996,0.11249999999999999,2.772,0,3.6854999999999998,0s1.6544999999999999,0.11249999999999999,1.6544999999999999,0.2535l0,0v1.9065H5.7405z" fill="#FFFFFF"/> <path d="M7.7955,4.719l-1.9874999999999998,-1.389H1.6019999999999999L0.1335,5.0655L0,15h8.946l0.0525,-6.140999999999999L7.7955,4.719zM6.511499999999999,9.141l-0.7815,-2.6984999999999997c-0.018,-1.2855,0.6795,-1.2405,1.116,-0.9225c0.303,0.22499999999999998,0.393,0.618,0.393,0.618l0.3615,2.973C7.116,10.107,6.511499999999999,9.141,6.511499999999999,9.141z" fill="#FFFFFF"/>
    </svg>