<svg version="1.1" xmlns="http://www.w3.org/2000/svg" xlink="http://www.w3.org/1999/xlink" x="0px" y="0px" width="15px" height="15px" viewBox="0 0 15 15" style="enable-background:new 0 0 15 15;" space="preserve"><path d="M5.430000000000001,7.3629l-2.7612,-1.5570000000000002l0.9596999999999999,-1.683l2.7617999999999996,1.5561zm5.511,1.4364000000000001l-4.6655999999999995,-2.6279999999999997l-0.47969999999999996,0.8423999999999999l4.665,2.6283zm0.5663999999999999,0.31949999999999995l-0.4812,0.8418l2.4059999999999997,1.3542l0.4812,-0.8409zm-0.648,0.8418c-0.036899999999999995,0.0657,-0.1377,0.0813,-0.2253,0.033299999999999996c-0.08729999999999999,-0.0492,-0.126,-0.1425,-0.08879999999999999,-0.20909999999999998l0.5625,-0.9855c0.0387,-0.0669,0.1395,-0.08310000000000001,0.22619999999999998,-0.033299999999999996c0.0861,0.0492,0.1251,0.14459999999999998,0.08789999999999999,0.2115l-0.5625,0.9831zm3.5496000000000003,0.5397c-0.0957,-0.05279999999999999,-0.2013,-0.0774,-0.30329999999999996,-0.0744l-0.6153000000000001,1.0776c0.0495,0.09029999999999999,0.12329999999999999,0.1692,0.2205,0.222c0.2712,0.1536,0.6123,0.06509999999999999,0.7614,-0.1956l0.1578,-0.279c0.1494,-0.2625,0.051000000000000004,-0.597,-0.2211,-0.7505999999999999zm-7.7517,-5.1456c-0.07229999999999999,0.1308,-0.237,0.17459999999999998,-0.3675,0.10260000000000001l-2.4168,-1.3625999999999998c-0.1308,-0.0726,-0.17489999999999997,-0.2361,-0.1017,-0.3669c0.0735,-0.1284,0.2385,-0.17429999999999998,0.369,-0.1002l2.4162,1.3607999999999998c0.1296,0.0741,0.17579999999999998,0.2379,0.1008,0.3663zm0.3387,-0.5916c-0.0744,0.1305,-0.2391,0.17459999999999998,-0.36810000000000004,0.10200000000000001l-2.4176999999999995,-1.3623c-0.1299,-0.0726,-0.1755,-0.2364,-0.10110000000000001,-0.36510000000000004c0.0726,-0.1305,0.2376,-0.17579999999999998,0.369,-0.1023l2.4168,1.3611c0.1305,0.0735,0.17489999999999997,0.2376,0.10110000000000001,0.3666zm-2.0423999999999998,3.5832c-0.0744,0.129,-0.2391,0.17279999999999998,-0.3687,0.1002l-2.4185999999999996,-1.3625999999999998c-0.1296,-0.072,-0.17489999999999997,-0.2361,-0.1014,-0.3669c0.0735,-0.1266,0.2406,-0.17429999999999998,0.3687,-0.1002l2.4173999999999998,1.3625999999999998c0.1299,0.07229999999999999,0.17489999999999997,0.2364,0.10260000000000001,0.3669zm0.33779999999999993,-0.5937c-0.0735,0.1305,-0.2382,0.17429999999999998,-0.3702,0.1005l-2.4168,-1.3611c-0.129,-0.0741,-0.17489999999999997,-0.2379,-0.1017,-0.3669c0.0747,-0.13019999999999998,0.2394,-0.17429999999999998,0.3693,-0.1005l2.4164999999999996,1.3611c0.1296,0.07379999999999999,0.17639999999999997,0.2382,0.1029,0.3669zm-4.0557,2.4237h4.2612v0.4899h-4.2612zm5.1918,1.0218c-0.027299999999999998,-0.1635,-0.1686,-0.2889,-0.34049999999999997,-0.2889h-5.4402c-0.17159999999999997,0,-0.3138,0.12539999999999998,-0.34049999999999997,0.2889h-0.0063v0.8021999999999999h6.1338v-0.8021999999999999h-0.0063z" fill="#FFFFFF"/></svg>