<svg version="1.1" xmlns="http://www.w3.org/2000/svg" xlink="http://www.w3.org/1999/xlink" x="0px" y="0px" width="15px" height="15px" viewBox="0 0 15 15" style="enable-background:new 0 0 15 15;" space="preserve">
    <path d="M2.8248,10.6395c4.0257,1.7019,7.0833,2.6942999999999997,11.390099999999999,4.0587c0.08819999999999999,0.0135,0.16949999999999998,-0.0477,0.183,-0.1398c0.0135,-0.0885,-0.047099999999999996,-0.174,-0.1356,-0.1911c-6.7839,-2.1452999999999998,-12.1092,-4.5225,-13.3242,-5.0751c-0.12569999999999998,-0.0507,-0.2718,0.0069,-0.31889999999999996,0.13019999999999998c-0.051000000000000004,0.1263,0.0032999999999999995,0.2625,0.12539999999999998,0.3102c0.3021,0.1362,0.6005999999999999,0.2691,0.8892,0.39540000000000003l-0.957,0.7332c-0.10859999999999999,0.1602,-0.06119999999999999,0.36510000000000004,0.0984,0.474c0.1188,0.0819,0.28859999999999997,0.0717,0.4038,-0.0036l1.6458,-0.6920999999999999zm11.111399999999998,-4.2957l-3.1335,-2.8926l0.0693,0.0069c0.6345000000000001,0,1.1469,-0.5184,1.1469,-1.1562s-0.5124,-1.1559,-1.1469,-1.1559c-0.6380999999999999,0,-1.1504999999999999,0.5184,-1.1504999999999999,1.1562c0,0.2436,0.0759,0.4692,0.20400000000000001,0.6560999999999999l-2.1246,-0.7617l-1.1472,-1.6677c-0.08819999999999999,-0.12299999999999998,-0.2241,-0.2049,-0.3828,-0.2253c-0.2985,-0.0339,-0.5736,0.1842,-0.6072,0.48779999999999996c-0.0135,0.1263,0.0171,0.24899999999999997,0.078,0.3513l1.1697,1.7052c0.054299999999999994,0.0681,0.12239999999999998,0.126,0.20370000000000002,0.1638l1.3575000000000002,0.5355l-2.2287,1.146c-0.312,0.17729999999999999,-0.5327999999999999,0.4911,-0.5937,0.8562l0.0102,2.0499l-2.0616,0.9341999999999999c-0.2307,0.11249999999999999,-0.3969,0.3444,-0.40709999999999996,0.6209999999999999c-0.0168,0.3957,0.28859999999999997,0.7263,0.6822,0.7437c0.12209999999999999,0.0063,0.2409,-0.0204,0.3429,-0.072l2.5223999999999998,-1.1454c0.18,-0.0957,0.3156,-0.2694,0.3597,-0.4812l-0.0032999999999999995,-1.2755999999999998l1.7508000000000001,1.5759l-0.32249999999999995,2.6837999999999997l-0.0032999999999999995,0.051300000000000005c-0.0171,0.39540000000000003,0.2889,0.7298999999999999,0.6822,0.747c0.3696,0.0135,0.6851999999999999,-0.25589999999999996,0.7362000000000001,-0.6206999999999999l0.37679999999999997,-3.063l0.0032999999999999995,-0.041100000000000005c0.006599999999999999,-0.2148,-0.0777,-0.4092,-0.2205,-0.5454l-1.6218,-1.4496l2.4435,-1.2075l2.2671,2.0976c0.1017,0.099,0.2409,0.1602,0.3903,0.1602c0.3054,-0.0032999999999999995,0.5496,-0.25229999999999997,0.5466,-0.5559c-0.0009,-0.1638,-0.0759,-0.31049999999999994,-0.1881,-0.41279999999999994z" fill="#FFFFFF"/>
    </svg>