<svg version="1.1" xmlns="http://www.w3.org/2000/svg" xlink="http://www.w3.org/1999/xlink" x="0px" y="0px" width="15px" height="15px" viewBox="0 0 15 15" style="enable-background:new 0 0 15 15;" space="preserve">
    <path d="M7.75,12.5L7.5,13L11.5,13L11.25,12.5L12.75,12.5L14,15L12.5,15L12,14L7,14L6.5,15L5,15L6.25,12.5L7.75,12.5ZM14.07,8.45C12.43,10.82,10.9,12,9.5,12C8.1,12,6.57,10.82,4.93,8.45L4.93,8.45C4.37,7.64,4.24,6.59,4.6,5.66C4.87,4.97,5,4.42,5,4C5,3,6.35,0,9.5,0C13.13,0,14,3,14,4C14,4.42,14.13,4.97,14.4,5.66L14.4,5.66C14.76,6.59,14.63,7.64,14.07,8.45ZM7.04,2.76L7.83,4.69C7.91,4.88,8.09,5,8.29,5L10.71,5C10.91,5,11.09,4.88,11.17,4.69L11.96,2.76C12.03,2.59,12,2.4,11.89,2.26C11.24,1.42,10.44,1,9.5,1C8.56,1,7.76,1.42,7.11,2.26L7.11,2.26C7,2.4,6.97,2.59,7.04,2.76ZM9.5,11C10.05,11,10.5,10.55,10.5,10C10.5,9.45,10.05,9,9.5,9C8.95,9,8.5,9.45,8.5,10C8.5,10.55,8.95,11,9.5,11ZM2,7.87L2,9L1.97,9.16L1.47,10.66C1.39,10.92,1.1,11.06,0.84,10.97C0.58,10.89,0.44,10.6,0.53,10.34L1,8.92L1,7.87C0.7,7.69,0.5,7.37,0.5,7L0.5,5.25C0.5,4.7,0.95,4.25,1.5,4.25C1.71,4.25,1.9,4.31,2.07,4.43L2.91,4.88L3.65,4.15C3.84,3.95,4.16,3.95,4.35,4.15C4.55,4.34,4.55,4.66,4.35,4.85L3.35,5.85C3.2,6.01,2.96,6.05,2.76,5.94L2.5,5.8L2.5,6.94L3.72,7.55C3.89,7.64,4,7.81,4,8L4,9.5C4,9.78,3.78,10,3.5,10C3.22,10,3,9.78,3,9.5L3,8.31L2.05,7.83C2.03,7.85,2.02,7.86,2,7.87ZM1.5,4C0.95,4,0.5,3.55,0.5,3C0.5,2.45,0.95,2,1.5,2C2.05,2,2.5,2.45,2.5,3C2.5,3.55,2.05,4,1.5,4Z" fill="#FFFFFF"/>
    </svg>