<svg version="1.1" xmlns="http://www.w3.org/2000/svg" xlink="http://www.w3.org/1999/xlink" x="0px" y="0px" width="15px" height="15px" viewBox="0 0 15 15" style="enable-background:new 0 0 15 15;" space="preserve"><path d="M12.5 3.5C12.75 3.5 15 6.5 15 8.5 15 10 13.5 11 12.5 11 11.5 11 10 10 10 8.5 10 6.5 12.25 3.5 12.5 3.5zM10.5 8.5C10.5 9.5 11.5 10.5 12.5 10.5 11.5 10 11 9.5 10.5 8.5zM6 .5C6 .5 6 2 6 2 6 2 8.5 2 8.5 2 9 2 9 2.5 9 2.5L9 12.5C9 12.5 9 13 8.5 13 8.5 13 6 13 6 13L6 14.5C6 15 3 15 3 14.5L3 13C3 13 .5 13 .5 13 0 13 0 12.5 0 12.5L0 2.5C0 2.5 0 2 .5 2 .5 2 3 2 3 2 3 2 3 .5 3 .5 3 0 6 0 6 .5zM4.5 3.75C2.25 3.75.75 5.25.75 7.5.75 9.75 2.25 11.25 4.5 11.25 6.75 11.25 8.25 9.75 8.25 7.5 8.25 5.25 6.75 3.75 4.5 3.75zM4.5 4.5C6.2 4.5 7.5 5.9 7.5 7.5 7.5 9.1 6.2 10.5 4.5 10.5 2.8 10.5 1.5 9.2 1.5 7.5 1.5 5.8 2.8 4.5 4.5 4.5zM3.9 8.2C3.9 8.2 2.75 9 2.75 9 2.75 9 3.3 9.8 4.5 9.8 5.7 9.8 6.25 9 6.25 9 6.25 9 5.1 8.2 5.1 8.2 4.725 8.45 4.275 8.45 3.9 8.2zM4.1 5.2C3.1 5.4 2.2 6.4 2.2 7.5 2.2 8.125 2.375 8.375 2.375 8.375 2.375 8.375 3.6 7.6 3.6 7.6 3.6 7.6 3.5 7 4.1 6.7 4.1 6.7 4.1 5.2 4.1 5.2zM4.9 5.2C4.9 5.2 4.9 6.7 4.9 6.7 5.5 7 5.4 7.6 5.4 7.6 5.4 7.6 6.625 8.375 6.625 8.375 6.625 8.375 6.8 8.1 6.8 7.5 6.8 6.4 5.9 5.4 4.9 5.2z" fill="#FFFFFF"/></svg>