<svg version="1.1" xmlns="http://www.w3.org/2000/svg" xlink="http://www.w3.org/1999/xlink" x="0px" y="0px" width="15px" height="15px" viewBox="0 0 15 15" style="enable-background:new 0 0 15 15;" space="preserve">
    <path d="M2,2C2.552,2,3,2.448,3,3L3,3.555L12.384,12L13,12C13.552,12,14,12.448,14,13C14,13.552,13.552,14,13,14L2,14C1.448,14,1,13.552,1,13C1,12.448,1.448,12,2,12L2.5,12L4.874,8L3,6.208C2.956,6.732,2.428,6.914,2,7C1.448,7,1,6.552,1,6L1,3C1,2.448,1.448,2,2,2zM6.389,9.295L4.75,12L9.394,12L6.389,9.295z" fill="#FFFFFF"/>
    </svg>