<svg version="1.1" xmlns="http://www.w3.org/2000/svg" xlink="http://www.w3.org/1999/xlink" x="0px" y="0px" width="15px" height="15px" viewBox="0 0 15 15" style="enable-background:new 0 0 15 15;" space="preserve"><path d="M9 .5C9 .5 9 1 9 1 9 1 12.5 1 12.5 1 13 1 13 1.5 13 1.5L13 13.5C13 13.5 13 14 12.5 14 12.5 14 9 14 9 14L9 14.5C9 15 6 15 6 14.5L6 14C6 14 2.5 14 2.5 14 2 14 2 13.5 2 13.5L2 1.5C2 1.5 2 1 2.5 1 2.5 1 6 1 6 1 6 1 6 .5 6 .5 6 0 9 0 9 .5zM7.5 3C5 3 3 5 3 7.5 3 10 5 12 7.5 12 10 12 12 10 12 7.5 12 5 10 3 7.5 3zM4.403 7.089C4.567 7.106 5.371 7.188 5.568 7.211 5.766 7.235 5.688 7.811 5.507 7.794 5.326 7.776 4.536 7.695 4.342 7.671 4.148 7.648 4.24 7.071 4.403 7.089zM9.465 7.089C9.702 7.059 10.36 7.002 10.619 6.978 10.878 6.955 10.89 7.567 10.654 7.591 10.419 7.614 9.794 7.673 9.547 7.697 9.299 7.72 9.229 7.12 9.465 7.089zM7.422 7.162C7.485 6.982 8.003 7.14 7.94 7.352 7.874 7.572 7.654 8.271 7.587 8.458 7.52 8.645 6.941 8.51 7.02 8.303 7.099 8.096 7.366 7.319 7.422 7.162zM8.889 8.803C9.088 8.876 9.821 9.153 9.981 9.223 10.142 9.292 9.948 9.851 9.772 9.769 9.553 9.696 8.88 9.439 8.679 9.35 8.478 9.261 8.69 8.731 8.889 8.803zM5.667 8.858C5.719 8.984 6.027 9.83 6.079 9.999 6.131 10.168 5.614 10.38 5.539 10.192 5.464 10.004 5.238 9.288 5.17 9.101 5.102 8.914 5.615 8.731 5.667 8.858zM7.093 9.784C7.282 9.854 8.013 10.084 8.206 10.146 8.398 10.208 8.235 10.771 8.026 10.703 7.816 10.634 7.104 10.411 6.912 10.341 6.719 10.27 6.903 9.714 7.093 9.784zM11.25 5.75C10.5 6.5 10.125 6.5 9.375 5.75 8.625 6.5 8.25 6.5 7.5 5.75 6.75 6.5 6.375 6.5 5.625 5.75 4.875 6.5 4.5 6.5 3.75 5.75 3.5 6.5 3.5 7.25 3.5 7.5 3.5 9.5 5.25 11.5 7.5 11.5 9.75 11.5 11.5 9.5 11.5 7.5 11.5 7.5 11.5 6.5 11.25 5.75z" fill="#FFFFFF"/></svg>