<svg version="1.1" xmlns="http://www.w3.org/2000/svg" xlink="http://www.w3.org/1999/xlink" x="0px" y="0px" width="15px" height="15px" viewBox="0 0 15 15" style="enable-background:new 0 0 15 15;" space="preserve">
    <path d="M10.502699999999999,7.6626c-0.0981,-0.38789999999999997,-0.5919,-0.6942,-0.963,-0.5147999999999999l-1.4397,0.6522v-2.5751999999999997l2.5299,-3.9729c0.18359999999999999,-0.29009999999999997,0.1128,-0.6747,-0.1827,-0.8607c-0.2919,-0.1827,-0.672,-0.0978,-0.8361,0.186l-2.1201,3.3765l-1.2783,0.0032999999999999995c-0.0819,0,-0.1632,0.013199999999999998,-0.24539999999999998,0.045599999999999995l-2.2098,0.8607l-1.1384999999999998,-1.7145c-0.1872,-0.2868,-0.5741999999999999,-0.37170000000000003,-0.8661,-0.186s-0.37709999999999994,0.5736,-0.18989999999999999,0.8637l1.4207999999999998,2.1380999999999997c0.1608,0.24779999999999996,0.49859999999999993,0.3585,0.7838999999999999,0.2412l1.6322999999999999,-0.6291v2.8232999999999997l-2.2191,4.9161c-0.16740000000000002,0.37529999999999997,0.0162,0.7875,0.4068,1.0062c0.3906,0.21869999999999998,0.8403,0.09119999999999999,1.0026,-0.2835l1.7852999999999999,-4.0746c0.1572,0.045599999999999995,0.32789999999999997,0.0657,0.5019,0.0657c0.1608,0,0.31829999999999997,-0.0294,0.45929999999999993,-0.0816l2.0042999999999997,-0.9324l0.4392,1.7571c0.0978,0.39089999999999997,0.49679999999999996,0.6291,0.891,0.5313c0.3936,-0.0978,0.6294,-0.4925999999999999,0.531,-0.8835l-0.6995999999999999,-2.7582zm-1.8027,-1.0362v0.4659c3,-1.5053999999999998,4.1634,-6.6617999999999995,4.1634,-7.092299999999999h-0.4197c-0.1575,1.0755,-1.3437,5.3778,-3.7436999999999996,6.6264zm-2.1275999999999997,-2.8973999999999998c0.6137999999999999,0,1.1124,-0.49199999999999994,1.1124,-1.1016c0,-0.6093000000000001,-0.49859999999999993,-1.1052,-1.1124,-1.1052c-0.6137999999999999,0,-1.1124,0.49559999999999993,-1.1124,1.1052s0.49859999999999993,1.1016,1.1124,1.1016zm0.9276,11.270999999999999h0.6v-4.970400000000001l-0.6,0.4704z" fill="#FFFFFF"/>
    </svg>