<svg version="1.1" xmlns="http://www.w3.org/2000/svg" xlink="http://www.w3.org/1999/xlink" x="0px" y="0px" width="15px" height="15px" viewBox="0 0 15 15" style="enable-background:new 0 0 15 15;" space="preserve"><path d="M11,1L11,2C11.55,2,12,2.45,12,3L12,3.88C12.91,4.61,13.5,5.74,13.5,7C13.5,7.69,13.33,8.34,13.02,8.91L13.44,9.71C13.7,10.19,13.52,10.8,13.03,11.06C12.98,11.08,12.93,11.11,12.88,11.12L9.5,12.25L6.12,11.12C5.6,10.95,5.32,10.38,5.49,9.86C5.51,9.81,5.53,9.75,5.56,9.71L5.98,8.91C5.67,8.34,5.5,7.69,5.5,7C5.5,5.74,6.09,4.61,7,3.88L7,3C7,2.45,7.45,2,8,2L8,1L7.5,1C7.22,1,7,0.78,7,0.5C7,0.22,7.22,0,7.5,0L11.5,0C11.78,0,12,0.22,12,0.5C12,0.78,11.78,1,11.5,1L11,1ZM7.79,12.43L7.5,13L11.5,13L11.21,12.43L12.5,12L14,15L12.5,15L12,14L7,14L6.5,15L5,15L6.5,12L7.79,12.43ZM9.5,8C10.05,8,10.5,7.55,10.5,7C10.5,6.45,10.05,6,9.5,6C8.95,6,8.5,6.45,8.5,7C8.5,7.55,8.95,8,9.5,8ZM3,8.87L3,10L2.97,10.16L2.47,11.66C2.39,11.92,2.1,12.06,1.84,11.97C1.58,11.89,1.44,11.6,1.53,11.34L2,9.92L2,8.87C1.7,8.69,1.5,8.37,1.5,8L1.5,6.25C1.5,5.7,1.95,5.25,2.5,5.25C2.71,5.25,2.9,5.31,3.07,5.43L3.91,5.88L4.65,5.15C4.84,4.95,5.16,4.95,5.35,5.15C5.55,5.34,5.55,5.66,5.35,5.85L4.35,6.85C4.2,7.01,3.96,7.05,3.76,6.94L3.5,6.8L3.5,7.94L4.72,8.55C4.89,8.64,5,8.81,5,9L5,10.5C5,10.78,4.78,11,4.5,11C4.22,11,4,10.78,4,10.5L4,9.31L3.05,8.83C3.03,8.85,3.02,8.86,3,8.87ZM2.5,5C1.95,5,1.5,4.55,1.5,4C1.5,3.45,1.95,3,2.5,3C3.05,3,3.5,3.45,3.5,4C3.5,4.55,3.05,5,2.5,5Z" fill="#FFFFFF"/></svg>