<svg version="1.1" xmlns="http://www.w3.org/2000/svg" xlink="http://www.w3.org/1999/xlink" x="0px" y="0px" width="15px" height="15px" viewBox="0 0 15 15" style="enable-background:new 0 0 15 15;" space="preserve"><path d="M4,7L4,14L2,14L2,7.78L1,8.16L1,6L14,1L14,3.14L4,7ZM10.1042905,11.3905016L7.80073798,11.3905016L8.82775816,13.0837637C8.99903447,13.3666026,8.90432961,13.7315607,8.61584369,13.9004052C8.33019862,14.0677745,7.95584895,13.9759759,7.78006737,13.6932618L6.67915382,11.8687451L6.67915382,13.4024337C6.67915382,13.7330358,6.40636685,13.9999995,6.07205632,13.9999995C5.9098704,14.0002111,5.75426732,13.9373163,5.63959973,13.8252005C5.52493213,13.7130846,5.46063015,13.5609681,5.46088979,13.4024337L5.46088979,9.48977783L4.63048457,9.0236256C4.54829394,8.97924737,4.48783204,8.90440459,4.46272499,8.81596437C4.43761794,8.72752414,4.44997842,8.63292842,4.49702078,8.55349597C4.59077096,8.39010405,4.8069172,8.33028383,4.97781596,8.42415066L5.5035331,8.7168879L9.59891848,8.7168879L11.5264937,9.63694193L11.5264937,11.1396067C11.5264937,11.2749977,11.5059859,11.3905016,11.3225546,11.3905016L11.3225546,13.4022746C11.3225546,13.7328767,11.0536738,13.9998404,10.7154571,13.9998404C10.3772403,13.9998404,10.1042905,13.7328767,10.1042905,13.4022746L10.1042905,11.3905016ZM9.78641883,8.30657848L9.78625607,8.30689667L9.78625607,6L13.45,7.70503529L12.9324209,8.79643606L11.5224247,8.79643606L11.5224247,9.11510599L9.78641883,8.30657848Z" fill="#FFFFFF"/></svg>