<svg version="1.1" xmlns="http://www.w3.org/2000/svg" xlink="http://www.w3.org/1999/xlink" x="0px" y="0px" width="15px" height="15px" viewBox="0 0 15 15" style="enable-background:new 0 0 15 15;" space="preserve"><path d="M7.5 0C8.32842712-1.52179594e-16 9 .671572875 9 1.5 9 2.32842712 8.32842712 3 7.5 3 6.67157288 3 6 2.32842712 6 1.5 6 .671572875 6.671572881.52179594e-16 7.5 0ZM8 13 11.4666667 13 12.8 11 14 11 12 14 8 14 8 15 7 15 7 14 3 14 1 11 2.2 11 3.53333333 13 7 13 7 4 4 4 4 3 11 3 11 4 8 4 8 13ZM3 3 4 3C4.11111111 5.66666667 4.44444444 7.66666667 5 9 5.55555556 10.3333333 6.38888889 11.6666667 7.5 13L6.33333333 13C5.22222222 11.6666667 4.38888889 10.3333333 3.83333333 9 3.27777778 7.66666667 3 5.66666667 3 3ZM12 3C12 5.66666667 11.7222222 7.66666667 11.1666667 9 10.6111111 10.3333333 9.77777778 11.6666667 8.66666667 13L7.5 13C8.61111111 11.6666667 9.44444444 10.3333333 10 9 10.5555556 7.66666667 10.8888889 5.66666667 11 3L12 3ZM5 3 6 3C6 5.66666667 6.16666667 7.66666667 6.5 9L7.5 13 7 13C6.33333333 11.6666667 5.83333333 10.3333333 5.5 9 5.16666667 7.66666667 5 5.66666667 5 3ZM10 3C10 5.66666667 9.83333333 7.66666667 9.5 9 9.16666667 10.3333333 8.66666667 11.6666667 8 13L7.5 13C7.83333333 11.6666667 8.16666667 10.3333333 8.5 9 8.83333333 7.66666667 9 5.66666667 9 3L10 3Z" fill="#FFFFFF"/></svg>