<svg version="1.1" xmlns="http://www.w3.org/2000/svg" xlink="http://www.w3.org/1999/xlink" x="0px" y="0px" width="15px" height="15px" viewBox="0 0 15 15" style="enable-background:new 0 0 15 15;" space="preserve">
    <path d="M12,13.8291548L12,11.8910074L3,9.0794175L3,11.0190662L12,13.8291548ZM5.07605865,9.08181955C4.76622311,8.75514187,2.7087867,6.53115148,4.78468481,4.60651554C6.51510827,3.0016514,6.76715065,1.65350548,6.18440298,1C6.18440298,1,10.5885627,2.69253866,7.99814491,6.61807536C7.55474296,7.28464195,6.44736185,8.071761,7.02625664,9.69449032L5.07605865,9.08196967L5.07605865,9.08181955ZM7.78045735,9.61432217C7.68574079,9.28509233,7.26352966,8.56793274,8.55167493,7.14142021C9.24037673,6.381174,9.49916164,5.25386579,9.56144982,4.82975529C9.56144982,4.82975529,11.8426742,6.05269479,9.57300845,9.04533854L7.78045735,9.61432217L7.78045735,9.61432217ZM8.26495666,10.0734124L12,8.90692088L12,10.8450683L11.3666833,11.0402342L8.26495666,10.0734124ZM6.73600656,12.8360607L3,14L3,12.0618526L3.63540366,11.868188L6.73600656,12.8360607Z" fill="#FFFFFF"/>
    </svg>