<svg version="1.1" xmlns="http://www.w3.org/2000/svg" xlink="http://www.w3.org/1999/xlink" x="0px" y="0px" width="15px" height="15px" viewBox="0 0 15 15" style="enable-background:new 0 0 15 15;" space="preserve">
    <path d="M5,1L10,1C10.5,1,11,1.5,11,2L11,13C11,13.5,10.5,14,10,14L5,14C4.5,14,4,13.5,4,13L4,2C4,1.5,4.5,1,5,1zM7.5,2.5C6.395,2.5,5.5,3.395,5.5,4.5C5.5,5.605,6.395,6.5,7.5,6.5C8.605,6.5,9.5,5.605,9.5,4.5C9.5,3.395,8.605,2.5,7.5,2.5zM7.5,3.5C8.052,3.5,8.5,3.948,8.5,4.5C8.5,5.052,8.052,5.5,7.5,5.5C6.948,5.5,6.5,5.052,6.5,4.5C6.5,3.948,6.948,3.5,7.5,3.5zM7.5,8C6.119,8,5,9.119,5,10.5C5,11.881,6.119,13,7.5,13C8.881,13,10,11.881,10,10.5C10,9.119,8.881,8,7.5,8zM7.5,9C8.328,9,9,9.672,9,10.5C9,11.328,8.328,12,7.5,12C6.672,12,6,11.328,6,10.5C6,9.672,6.672,9,7.5,9z" fill="#FFFFFF"/>
    </svg>