<svg version="1.1" xmlns="http://www.w3.org/2000/svg" xlink="http://www.w3.org/1999/xlink" x="0px" y="0px" width="15px" height="15px" viewBox="0 0 15 15" style="enable-background:new 0 0 15 15;" space="preserve"><path d="M10,2C10.55,2,11,2.45,11,3L11,4L13,4C13.55,4,14,4.45,14,5L14,12C14,12.55,13.55,13,13,13L2,13C1.45,13,1,12.55,1,12L1,5C1,4.45,1.45,4,2,4L4,4L4,3C4,2.45,4.45,2,5,2L10,2ZM8.25,5L6.75,5L6.75,7.2L4.84,6.1L4.09,7.4L6,8.5L4.09,9.6L4.84,10.9L6.75,9.8L6.75,12L8.25,12L8.25,9.8L10.16,10.9L10.91,9.6L9,8.5L10.91,7.4L10.16,6.1L8.25,7.2L8.25,5ZM10,3L5,3L5,4L10,4L10,3Z" fill="#FFFFFF"/></svg>