<svg version="1.1" xmlns="http://www.w3.org/2000/svg" xlink="http://www.w3.org/1999/xlink" x="0px" y="0px" width="15px" height="15px" viewBox="0 0 15 15" style="enable-background:new 0 0 15 15;" space="preserve"><path d="M9,9L9,11.5L6,11.5L6,9L4.72552869,9C4.44938632,9,4.22552869,8.77614237,4.22552869,8.5C4.22552869,8.43916885,4.23662922,8.3788483,4.25828482,8.32200234L5.86305121,5.03086187C5.94684202,4.85901921,6.12128874,4.75,6.31247137,4.75L8.68752863,4.75C8.87871126,4.75,9.05315798,4.85901921,9.13694879,5.03086187L10.7417152,8.32200234C10.8400206,8.580054,10.7105206,8.86893847,10.452469,8.96724387C10.395623,8.98889947,10.3353025,9,10.2744713,9L9,9ZM11,12L11,13L12,13L12,14L3,14L3,13L4,13L4,12L11,12ZM7.5,1C8.32842712,1,9,1.67157288,9,2.5C9,3.32842712,8.32842712,4,7.5,4C6.67157288,4,6,3.32842712,6,2.5C6,1.67157288,6.67157288,1,7.5,1Z" fill="#FFFFFF"/></svg>