<svg version="1.1" xmlns="http://www.w3.org/2000/svg" xlink="http://www.w3.org/1999/xlink" x="0px" y="0px" width="15px" height="15px" viewBox="0 0 15 15" style="enable-background:new 0 0 15 15;" space="preserve">
    <path d="M14.28125,3.96875c-0.03125,-0.125,-0.09375,-0.25,-0.1875,-0.3125L9.53125,0.09375c-0.1875,-0.125,-0.4375,-0.125,-0.625,0L4.34375,3.65625c-0.09375,0.0625,-0.15625,0.1875,-0.1875,0.3125l-0.25,1.78125l0.96875,-0.75c0.53125,-0.40625,1.25,-0.40625,1.78125,0l1.78125,1.375l0.625,0.46875l0.84375,0.65625l0.40625,0.3125l0.90625,0.71875c0.28125,0.21875,0.46875,0.5,0.53125,0.84375H15L14.28125,3.96875z" fill="#FFFFFF"/> <path d="M10.65625,9.28125L9.0625,8.03125L8.78125,7.8125L8.4375,7.5625l-2.34375,-1.8125c-0.09375,-0.0625,-0.1875,-0.09375,-0.3125,-0.09375c-0.125,0,-0.21875,0.03125,-0.3125,0.09375L3.75,7.0625l-2.84375,2.1875c-0.09375,0.0625,-0.15625,0.1875,-0.1875,0.3125L0,15h5.625v-3.03125c0,-0.0625,0.03125,-0.09375,0.09375,-0.09375c0,0,0,0,0,0c0.03125,0,0.0625,0.03125,0.09375,0.03125L7.5,15h4.0625l-0.71875,-5.40625C10.8125,9.46875,10.75,9.34375,10.65625,9.28125z" fill="#FFFFFF"/>
    </svg>