<svg version="1.1" xmlns="http://www.w3.org/2000/svg" xlink="http://www.w3.org/1999/xlink" x="0px" y="0px" width="15px" height="15px" viewBox="0 0 15 15" style="enable-background:new 0 0 15 15;" space="preserve"><path d="M14,7.5L14,11L1,11L1,7.5C1,5.56700338,2.56700338,4,4.5,4L10.5,4C12.4329966,4,14,5.56700338,14,7.5ZM6,10L7,10L7,7.5C7,6.11928813,5.88071187,5,4.5,5C3.11928813,5,2,6.11928813,2,7.5L2,10L3,10L3,7.5C3,6.67157288,3.67157288,6,4.5,6C5.32842712,6,6,6.67157288,6,7.5L6,10L6,10Z" fill="#FFFFFF"/></svg>