<svg version="1.1" xmlns="http://www.w3.org/2000/svg" xlink="http://www.w3.org/1999/xlink" x="0px" y="0px" width="15px" height="15px" viewBox="0 0 15 15" style="enable-background:new 0 0 15 15;" space="preserve"><path d="M2.625 13.5C1.714 13.5.975 12.762.975 11.85.975 10.939 1.714 10.2 2.625 10.2 3.536 10.2 4.275 10.939 4.275 11.85 4.275 12.762 3.536 13.5 2.625 13.5zM10.875 13.5C9.964 13.5 9.225 12.762 9.225 11.85 9.225 10.939 9.964 10.2 10.875 10.2 11.786 10.2 12.525 10.939 12.525 11.85 12.525 12.762 11.786 13.5 10.875 13.5zM12.525 2 12.525 6.5 13.575 6.5C14.125 6.5 14.5 10.45 14.5 11 14.5 11.55 14.05 11.5 13.5 11.5 12.95 11.5 12.525 9.65 10.875 9.65 9.225 9.65 8.778 12 8 12 7.45 12 6.05 12 5.5 12 4.95 12 4.275 9.65 2.625 9.65 1.525 9.65 1.525 10.2.975 10.2.425 10.2.5 9.55.5 9 .5 8.45.95 7.5 1.5 7.5L2.5 7.5 4 3 3 3C2.724 3 2.5 2.776 2.5 2.5 2.5 2.224 2.724 2 3 2L12.525 2zM11.5 3 5 3 3.5 7.5 4.5 7.5 5.435 6.784 5.131 6.408C5.044 6.3 5.042 6.174 5.168 6.056 5.294 5.938 5.463 6.014 5.519 6.093 5.575 6.172 6.463 7.259 6.463 7.259 6.55 7.366 6.534 7.523 6.426 7.61 6.319 7.697 6.162 7.681 6.075 7.573L5.718 7.133 4.922 7.703C5.485 7.956 5.768 9.185 6 10 6 10 8 10 8 10 8 10 9 9 9 9 9 9 9.575 6.5 10.575 6.5 11.291 6.5 11.016 6.5 11.5 6.5L11.5 3z" fill="#FFFFFF"/></svg>