<svg version="1.1" xmlns="http://www.w3.org/2000/svg" xlink="http://www.w3.org/1999/xlink" x="0px" y="0px" width="15px" height="15px" viewBox="0 0 15 15" style="enable-background:new 0 0 15 15;" space="preserve">
    <path d="M12,0C13,0,13,0,13,1L13,14C13,15,13,15,12,15L3,15C2,15,2,15,2,14L2,1C2,0,2,0,3,0L12,0zM10,12L4,12L4,13L10,13L10,12zM12,9L11,9L11,9.75L12,9.75L12,9zM10,2L4,2L4,10L10,10L10,2zM12,7.5L11,7.5L11,8.25L12,8.25L12,7.5zM12,6L11,6L11,6.75L12,6.75L12,6zM12,4.5L11,4.5L11,5.25L12,5.25L12,4.5z" fill="#FFFFFF"/> <path d="M9,5.5C9,5.5,8.25,9.5,8.25,9.5C8.25,9.75,5.75,9.75,5.75,9.5C5.75,9.5,5,5.5,5,5.5C5.25,5.75,8.75,5.75,9,5.5zM7.25,5C8,4.75,8.25,4.5,8.25,4C8.25,3.75,8,3.5,7.5,3.25C7,3,6.75,2.75,6.75,2.25C6.5,2.75,6.75,3.5,7.25,3.75C8.5,4.25,7.25,5,7.25,5zM6,5C6.39,4.888,6.611,4.89,6.6,4.5C6.6,4.281,6.625,4.156,6.266,4C5.942,3.859,5.75,3.5,5.75,3.25C5.5,3.5,5.665,4,6,4.25C6.669,4.585,6,5,6,5z" fill="#FFFFFF"/>
    </svg>