<svg version="1.1" xmlns="http://www.w3.org/2000/svg" xlink="http://www.w3.org/1999/xlink" x="0px" y="0px" width="15px" height="15px" viewBox="0 0 15 15" style="enable-background:new 0 0 15 15;" space="preserve">
    <path d="M4,8.51C4,8.64,3.95,8.76,3.85,8.85L2.85,9.85C2.7,10.01,2.46,10.05,2.26,9.94L2,9.8L2,10.94L3.22,11.55C3.39,11.64,3.5,11.81,3.5,12L3.5,13.5C3.5,13.78,3.28,14,3,14C2.72,14,2.5,13.78,2.5,13.5L2.5,12.31L1.55,11.83C1.53,11.85,1.52,11.86,1.5,11.87L1.5,13L1.47,13.16L0.97,14.66C0.89,14.92,0.6,15.06,0.34,14.97C0.08,14.89,-0.06,14.6,0.03,14.34L0.5,12.92L0.5,11.87C0.2,11.69,0,11.37,0,11L0,9.25C0,8.7,0.45,8.25,1,8.25C1.21,8.25,1.4,8.31,1.57,8.43L2.41,8.88L3.15,8.15C3.34,7.95,3.66,7.95,3.85,8.15C3.95,8.24,4,8.36,4,8.49L4,4.16C4,4.05,4.02,3.95,4.05,3.85L4.77,1.68C4.91,1.28,5.29,1,5.72,1L7.5,1L7.5,2L6.01,2L6.01,4L13.5,4L12.99,2L11.5,2L11.5,1L13.28,1C13.71,1,14.09,1.28,14.23,1.68L14.95,3.85C14.98,3.95,15,4.05,15,4.16L15,13C15,14.1,14.1,15,13,15L6,15C4.9,15,4,14.1,4,13L4,8.51ZM5,7.5L5.01,10.5C5.01,10.78,5.24,11,5.51,11L8.51,11C8.78,11,9.01,10.78,9.01,10.5C9.01,10.5,9.01,10.5,9.01,10.5L8.99,7.5C8.99,7.22,8.77,7,8.49,7L5.5,7C5.22,7,5,7.22,5,7.5C5,7.5,5,7.5,5,7.5ZM11,13C11,13.55,11.45,14,12,14C12.55,14,13,13.55,13,13C13,12.45,12.55,12,12,12C11.45,12,11,12.45,11,13ZM8,13C8,12.45,7.55,12,7,12C6.45,12,6,12.45,6,13C6,13.55,6.45,14,7,14C7.55,14,8,13.55,8,13ZM7,5.5L7,5.51C7.01,5.78,7.23,6,7.5,6L11.51,6C11.78,6,12,5.78,12,5.51C12,5.51,12,5.5,12,5.5L12,5.49C11.99,5.22,11.77,5,11.5,5L7.49,5C7.22,5,7,5.22,7,5.49C7,5.49,7,5.5,7,5.5ZM10,7.5L10.01,10.5C10.01,10.78,10.24,11,10.51,11L13.51,11C13.78,11,14.01,10.78,14.01,10.5C14.01,10.5,14.01,10.5,14.01,10.5L13.99,7.5C13.99,7.22,13.77,7,13.49,7L10.5,7C10.22,7,10,7.22,10,7.5C10,7.5,10,7.5,10,7.5ZM8,0.5C8,0.5,8,0.5,8,0.5C8,0.22,8.22,0,8.5,0L10.5,0C10.77,0,10.99,0.22,11,0.5L11,2.5C11,2.5,11,2.5,11,2.5C11,2.78,10.78,3,10.5,3L8.51,3C8.23,3,8.01,2.78,8.01,2.5L8,0.5ZM1,8C0.45,8,0,7.55,0,7C0,6.45,0.45,6,1,6C1.55,6,2,6.45,2,7C2,7.55,1.55,8,1,8Z" fill="#FFFFFF"/>
    </svg>