<svg version="1.1" xmlns="http://www.w3.org/2000/svg" xlink="http://www.w3.org/1999/xlink" x="0px" y="0px" width="15px" height="15px" viewBox="0 0 15 15" style="enable-background:new 0 0 15 15;" space="preserve">
    <path d="M2,11L6,11L6,9C6,8.44771525,6.44771525,8,7,8L13,8L13,7L2,7L2,11ZM2,12L2,14L1,14L1,1.5C1,1.22385763,1.22385763,1,1.5,1C1.77614237,1,2,1.22385763,2,1.5L2,6L6,6L6,4C6,3.44771525,6.44771525,3,7,3L12,3C13.1045695,3,14,3.8954305,14,5L14,14L13,14L13,12.0000098L6,12L3.49999356,12.0000144L3.49616028,12L2,12ZM4,5.5C3.17157288,5.5,2.5,4.82842712,2.5,4C2.5,3.17157288,3.17157288,2.5,4,2.5C4.82842712,2.5,5.5,3.17157288,5.5,4C5.5,4.82842712,4.82842712,5.5,4,5.5ZM4,10.5C3.17157288,10.5,2.5,9.82842712,2.5,9C2.5,8.17157288,3.17157288,7.5,4,7.5C4.82842712,7.5,5.5,8.17157288,5.5,9C5.5,9.82842712,4.82842712,10.5,4,10.5Z" fill="#FFFFFF"/>
    </svg>