<svg version="1.1" xmlns="http://www.w3.org/2000/svg" xlink="http://www.w3.org/1999/xlink" x="0px" y="0px" width="15px" height="15px" viewBox="0 0 15 15" style="enable-background:new 0 0 15 15;" space="preserve"><path d="M7 3C7 3 7 6 7 6 7 6.5 6 6.5 6 6 6 6 2.5 6 2.5 6 1.5 6 1 5.5 1 4.5 1 4.5 1 1 1 1 .5 1 .5 0 1 0 1.5 0 4 0 4 0 4.5 0 4.5 1 4 1 4 1 4 2.5 4 2.5 4 2.5 4 3 4.5 3 4.5 3 6 3 6 3 6 2.5 7 2.5 7 3zM14 10C14.5 10 14.5 9 14 9 14 9 14 4.5 14 4.5 14 3.5 13.5 3 12.5 3 12.5 3 9 3 9 3 9 2.5 8 2.5 8 3 8 3 8 6 8 6 8 6.5 9 6.5 9 6 9 6 10.5 6 10.5 6 11 6 11 6.5 11 6.5 11 6.5 11 9 11 9 10.5 9 10.5 10 11 10 11 10 14 10 14 10zM12.5 10.5C12.75 10.5 14.25 12.25 14.25 13.5 14.25 14.5 13.25 15 12.5 15 11.75 15 10.75 14.5 10.75 13.5 10.75 12.25 12.25 10.5 12.5 10.5zM11.15 13.5C11.15 14.1 11.75 14.7 12.5 14.7 11.75 14.4 11.45 14.1 11.15 13.5z" fill="#FFFFFF"/></svg>