<svg version="1.1" xmlns="http://www.w3.org/2000/svg" xlink="http://www.w3.org/1999/xlink" x="0px" y="0px" width="15px" height="15px" viewBox="0 0 15 15" style="enable-background:new 0 0 15 15;" space="preserve"><path d="M2,1L13,1C13.55,1,14,1.45,14,2L14,13C14,13.55,13.55,14,13,14L2,14C1.45,14,1,13.55,1,13L1,2C1,1.45,1.45,1,2,1ZM13,6C13,5.45,12.55,5,12,5L3,5C2.45,5,2,5.45,2,6L2,11C2,11.55,2.45,12,3,12L12,12C12.55,12,13,11.55,13,11L13,6ZM9,5L10,5L10,4C10,3.45,9.55,3,9,3L6,3C5.45,3,5,3.45,5,4L5,5L6,5L6,4L9,4L9,5ZM3.5,6L5.5,6C5.78,6,6,6.22,6,6.5L6,10.5C6,10.78,5.78,11,5.5,11L3.5,11C3.22,11,3,10.78,3,10.5L3,6.5C3,6.22,3.22,6,3.5,6ZM9,6L11,6C11.55,6,12,6.45,12,7C12,7.55,11.55,8,11,8L9,8L9,6ZM8,6L8.5,6L8.5,8L8,8C7.45,8,7,7.55,7,7C7,6.45,7.45,6,8,6ZM8,9L8.5,9L8.5,11L8,11C7.45,11,7,10.55,7,10C7,9.45,7.45,9,8,9ZM9,9L11,9C11.55,9,12,9.45,12,10C12,10.55,11.55,11,11,11L9,11L9,9Z" fill="#FFFFFF"/></svg>