<svg version="1.1" xmlns="http://www.w3.org/2000/svg" xlink="http://www.w3.org/1999/xlink" x="0px" y="0px" width="15px" height="15px" viewBox="0 0 15 15" style="enable-background:new 0 0 15 15;" space="preserve"><path d="m12.4215 6.566400000000001-.7377-3.0798c-.1293-.5373-.6738-.8747999999999999-1.2141-.7422000000000001-.4752.1161-.7062.4452-.7998.6768-.11069999999999999.2733-.6048 1.5116999999999998-.7202999999999999 1.7676-.0405.08879999999999999-.126.1356-.1434.1434-.0981.0435-1.08.4578-1.08.4578v.0018c-.1938.0909-.3282.28469999999999995-.3282.5109 0 .31289999999999996.2562.5667.5720999999999999.5667.0681 0 .1329-.0141.1938-.035699999999999996v.0021l1.3034999999999999-.5418c.1788-.0834.2661-.189.3549-.3429.0372-.0648.1503-.336.2424-.5586l.7866 3.2895-.0009 5.0969999999999995c-.0015.5064.3483.9192.8595.9209999999999999.5117999999999999.0018.8817-.40709999999999996.885-.9144 0 0 .0051-5.7321.0051-6.0159-.0006-.2829-.11309999999999999-.9552-.1785-1.2033zM5.1392999999999995 11.1306v1.284c.1665-.030599999999999995.30119999999999997-.10679999999999999.4059-.2289.10379999999999999-.12209999999999999.1557-.26489999999999997.1557-.4293 0-.147-.0435-.2739-.1305-.3807-.08819999999999999-.10559999999999999-.2319-.1872-.4311-.24509999999999998zm-.7932-1.9941c-.078.105-.1173.22139999999999999-.1173.34859999999999997 0 .11699999999999999.035699999999999996.2244.10619999999999999.324.07139999999999999.1002.17909999999999998.1812.3222.2424v-1.1391c-.1305.0438-.2346.1188-.3111.2241zm3.0509999999999997-1.5252h.0012l-1.7924999999999998-3.5961-.0003.0032999999999999995c-.13169999999999998-.2724-.4113-.46049999999999996-.7365-.46049999999999996h-1.6521c-.45089999999999997-.0003-.8169.36210000000000003-.8169.8091v10.332899999999999h5.0898v-6.6831000000000005c-.0006-.1452-.0339-.28259999999999996-.09269999999999999-.4056zm-1.2456 5.0306999999999995c-.243.2721-.5801999999999999.4389-1.0112999999999999.5001v.6159h-.4821v-.5993999999999999c-.3834-.045899999999999996-.6939000000000001-.1878-.9339-.4245-.2388-.2373-.39149999999999996-.5718-.4578-1.0041l.867-.09269999999999999c.0351.17579999999999998.1014.3273.1995.45509999999999995.0969.12719999999999998.20550000000000002.2193.32489999999999997.2763v-1.3794c-.43379999999999996-.12299999999999998-.7526999999999999-.30929999999999996-.9545999999999999-.5574-.2031-.24899999999999997-.30449999999999994-.5510999999999999-.30449999999999994-.9069 0-.36.1143-.6624.3444-.9075.2292-.24449999999999997.534-.3858.9149999999999999-.4227v-.3261h.4821v.3261c.35159999999999997.0414.6321.1605.8403.3567.20759999999999998.1959.34049999999999997.4596.39840000000000003.7887l-.8403.10859999999999999c-.051300000000000005-.2586-.18389999999999998-.43470000000000003-.39840000000000003-.5267999999999999v1.287c.5313.14309999999999998.8934000000000001.32789999999999997 1.0863.5547.1923.2274.2889.5187.2889.8742 0 .3972-.1212.7317-.3639 1.0041z" fill="#FFFFFF"/></svg>