<svg version="1.1" xmlns="http://www.w3.org/2000/svg" xlink="http://www.w3.org/1999/xlink" x="0px" y="0px" width="15px" height="15px" viewBox="0 0 15 15" style="enable-background:new 0 0 15 15;" space="preserve"><path d="M8.5 13C8.75 13 9 13.25 9 13.5 9 13.75 8.75 14 8.5 14L8.25 14C8.25 14 8 14.5 7.5 14.5 7 14.5 6.75 14 6.75 14L6.5 14C6.25 14 6 13.75 6 13.5 6 13.25 6.25 13 6.5 13L8.5 13zM8.5 11.75 6.5 11.75C6.25 11.75 6 12 6 12.25 6 12.5 6.25 12.75 6.5 12.75L8.5 12.75C8.75 12.75 9 12.5 9 12.25 9 12 8.75 11.75 8.5 11.75zM7.5 1.3C10 1.3 11.2 2.5 11.2 4 11.2 7 9.25 8 8.75 9 8.25 10 8.25 10.8 7.75 10.8L7.2 10.8C6.7 10.8 6.75 10 6.25 9 5.75 8 3.8 7 3.8 4 3.8 2.5 5 1.3 7.5 1.3zM7.5.5C5.5.5 3 1.5 3 4 3 6 4 7.5 5 8.5 6 9.5 6 11.5 6.5 11.5 6.5 11.5 8.5 11.5 8.5 11.5 9 11.5 9 9.5 10 8.5 11 7.5 12 6 12 4 12 1.5 9.5.5 7.5.5zM7.5 4C8.25 5.25 8.75 5.25 9.75 4.25 9.75 4.25 8.75 8.5 8.75 8.5 8.75 8.75 8.25 8.75 8.25 8.5 8.25 8.5 9 5.25 9 5.25 8.5 5.5 8.25 5.5 7.5 4.75 6.75 5.5 6.5 5.5 6 5.25L6.75 8.5C6.75 8.75 6.25 8.75 6.25 8.5 6.25 8.5 5.25 4.25 5.25 4.25 6.25 5.25 6.75 5.25 7.5 4z" fill="#FFFFFF"/></svg>