<svg version="1.1" xmlns="http://www.w3.org/2000/svg" xlink="http://www.w3.org/1999/xlink" x="0px" y="0px" width="15px" height="15px" viewBox="0 0 15 15" style="enable-background:new 0 0 15 15;" space="preserve">
    <path d="M2.7809999999999997,5.7h1.1747999999999998l0.18059999999999998,5.3999999999999995h-1.5116999999999998l0.1563,-5.3999999999999995zm-0.981,5.7h11.4v0.6h0.8999999999999999v0.8999999999999999h0.6v0.6h-14.399999999999999v-0.6h0.6v-0.8999999999999999h0.8999999999999999v-0.6zm12,-7.256399999999999l-6.2994,-2.6435999999999997l-6.300599999999999,2.6435999999999997v0.3564h12.6v-0.3564zm-11.4,0.6564h10.2v0.6h-10.2v-0.6zm8.6208,0.8999999999999999h1.1742l0.18209999999999998,5.3999999999999995h-1.5138l0.1575,-5.3999999999999995zm-2.7455999999999996,0h1.1742l0.18,5.3999999999999995h-1.5123l0.1581,-5.3999999999999995zm-2.7462,0h1.1744999999999999l0.1788,5.3999999999999995h-1.5116999999999998l0.1584,-5.3999999999999995z" fill="#FFFFFF"/>
    </svg>