<svg version="1.1" xmlns="http://www.w3.org/2000/svg" xlink="http://www.w3.org/1999/xlink" x="0px" y="0px" width="15px" height="15px" viewBox="0 0 15 15" style="enable-background:new 0 0 15 15;" space="preserve"><path d="M11.5 2C11.5 2 10 8 10 8 10 8 12 8 12 8 12 8 11 13 11 13 11 13 15 6 15 6 15 6 13 6 13 6 13 6 14.5 2 14.5 2 14.5 2 11.5 2 11.5 2zM3 1.5C3 .75 3.75 0 4.5 0 5.25 0 6 .75 6 1.5 6 2.25 5.25 3 4.5 3 3.75 3 3 2.25 3 1.5zM4.5 1C4.25 1 4 1.25 4 1.5 4 1.75 4.25 2 4.5 2 4.75 2 5 1.75 5 1.5 5 1.25 4.75 1 4.5 1zM4.5 13C4.75 13 5 13.25 5 13.5 5 13.75 4.75 14 4.5 14 4.25 14 4 13.75 4 13.5 4 13.25 4.25 13 4.5 13zM3 13.5C3 14.25 3.75 15 4.5 15 5.25 15 6 14.25 6 13.5 6 12.75 5.25 12 4.5 12 3.75 12 3 12.75 3 13.5zM4 3.5C4 3.5 4 11.5 4 11.5 4 12 5 12 5 11.5 5 11.5 5 3.5 5 3.5 5 3 4 3 4 3.5z" fill="#FFFFFF"/></svg>