<svg version="1.1" xmlns="http://www.w3.org/2000/svg" xlink="http://www.w3.org/1999/xlink" x="0px" y="0px" width="15px" height="15px" viewBox="0 0 15 15" style="enable-background:new 0 0 15 15;" space="preserve">
    <path d="M13.798499999999999,2.0475C8.898,2.007,7.8405000000000005,0.729,5.754,0.729c-2.4825,0,-3.939,0.6825,-4.5645,1.068c-0.46349999999999997,0.24899999999999997,-0.3555,-0.23099999999999998,-0.3555,-0.39749999999999996c0,-0.168,0.276,-0.33149999999999996,0.276,-0.33149999999999996c0.5745,-0.372,2.0505,-1.1175,4.644,-1.1175c2.0894999999999997,0,3.15,1.284,8.0685,1.3184999999999998c0,0,0.375,-0.0375,0.375,0.297C14.1975,1.9004999999999999,14.173499999999999,2.0475,13.798499999999999,2.0475z" fill="#FFFFFF"/> <path d="M14.1975,14.468999999999998c0,-0.33449999999999996,-0.375,-0.297,-0.375,-0.297c-4.9185,-0.036,-5.979,-1.3184999999999998,-8.0685,-1.3184999999999998c-2.5934999999999997,0,-4.0695,0.7454999999999999,-4.644,1.1175c0,0,-0.276,0.1635,-0.276,0.33149999999999996c0,0.1665,-0.108,0.6465,0.3555,0.396c0.6255,-0.38249999999999995,2.082,-1.065,4.5645,-1.0665c2.0865,0,3.144,1.281,8.0445,1.32C14.173499999999999,14.9505,14.1975,14.8035,14.1975,14.468999999999998z" fill="#FFFFFF"/> <path d="M14.1975,3.159c0,-0.33449999999999996,-0.375,-0.297,-0.375,-0.297c-4.9185,-0.036,-5.979,-1.3184999999999998,-8.0685,-1.3184999999999998c-2.5934999999999997,0,-4.0695,0.7454999999999999,-4.644,1.1175c0,0,-0.276,0.1635,-0.276,0.33149999999999996v9.6975c0,0.1665,-0.108,0.6465,0.3555,0.39749999999999996c0.6255,-0.38549999999999995,2.082,-1.0665,4.5645,-1.0665c2.0865,0,3.144,1.2779999999999998,8.0445,1.3184999999999998c0.375,0,0.399,-0.147,0.399,-0.4815V3.159z" fill="#FFFFFF"/>
    </svg>