<svg version="1.1" xmlns="http://www.w3.org/2000/svg" xlink="http://www.w3.org/1999/xlink" x="0px" y="0px" width="15px" height="15px" viewBox="0 0 15 15" style="enable-background:new 0 0 15 15;" space="preserve">
    <path d="M8.5,13C8.75,13,9,13.25,9,13.5C9,13.75,8.75,14,8.5,14L8.25,14C8.25,14,8,14.5,7.5,14.5C7,14.5,6.75,14,6.75,14L6.5,14C6.25,14,6,13.75,6,13.5C6,13.25,6.25,13,6.5,13L8.5,13zM8.5,11.75L6.5,11.75C6.25,11.75,6,12,6,12.25C6,12.5,6.25,12.75,6.5,12.75L8.5,12.75C8.75,12.75,9,12.5,9,12.25C9,12,8.75,11.75,8.5,11.75zM7.5,1.3C10,1.3,11.2,2.5,11.2,4C11.2,7,9.25,8,8.75,9C8.25,10,8.25,10.8,7.75,10.8L7.2,10.8C6.7,10.8,6.75,10,6.25,9C5.75,8,3.8,7,3.8,4C3.8,2.5,5,1.3,7.5,1.3zM7.5,0.5C5.5,0.5,3,1.5,3,4C3,6,4,7.5,5,8.5C6,9.5,6,11.5,6.5,11.5C6.5,11.5,8.5,11.5,8.5,11.5C9,11.5,9,9.5,10,8.5C11,7.5,12,6,12,4C12,1.5,9.5,0.5,7.5,0.5z" fill="#FFFFFF"/>
    </svg>