<svg version="1.1" xmlns="http://www.w3.org/2000/svg" xlink="http://www.w3.org/1999/xlink" x="0px" y="0px" width="15px" height="15px" viewBox="0 0 15 15" style="enable-background:new 0 0 15 15;" space="preserve"><path d="M7.7363281,0.72851562C7.0459281,0.72851562,6.4863281,1.2881156,6.4863281,1.9785156C6.4863281,1.9785156,6.5273436,1.9992969,6.5273438,2.0292969C6.0159437,1.5905969,5.2453406,1.6486562,4.8066406,2.1601562C4.6585406,2.3328563,4.5620436,2.5426781,4.5273438,2.7675781C4.3690438,2.7170781,4.2032094,2.6951187,4.0371094,2.6992188C3.2087094,2.6923187,2.5303375,3.3571469,2.5234375,4.1855469C2.5217375,4.3853469,2.5608187,4.5827781,2.6367188,4.7675781C1.8442188,4.9890781,1.3820156,5.8129687,1.6035156,6.6054688C1.7437156,7.1071688,2.1350188,7.4984719,2.6367188,7.6386719C2.8900187,8.4215714,3.7307719,8.8509562,4.5136719,8.5976562C5.0489719,8.4244563,5.4410437,7.9641031,5.5273438,7.4082031C5.7103437,7.5673031,5.9350813,7.6693187,6.1757812,7.6992188L6.2011719,10.402344C6.2070328,10.73366,6.2414839,11.036295,6.2949219,11.3125C6.3752117,11.36146,6.4533879,11.41267,6.5273438,11.474609C6.6873438,11.604609,6.8380469,11.754766,6.9980469,11.884766C7.2463824,12.106846,7.6002594,12.122379,7.8769531,11.957031C7.8831099,11.866628,7.902813,11.805156,7.9023438,11.701172L7.9257812,10.699219C8.6638812,9.8077185,9.6187649,9.1193188,10.697266,8.6992188C11.498466,8.8871187,12.300381,8.3889901,12.488281,7.5878906C12.516681,7.4667906,12.529844,7.34315,12.527344,7.21875C12.530244,7.16545,12.530244,7.1118938,12.527344,7.0585938C13.147544,6.7644937,13.538645,6.1355187,13.527344,5.4492188C13.538644,4.7629187,13.147544,4.1319906,12.527344,3.8378906C12.474844,3.1884906,11.928744,2.6918187,11.277344,2.6992188C11.178544,2.7071186,11.080128,2.7259125,10.986328,2.7578125C10.925628,2.0978125,10.341541,1.6131281,9.6816406,1.6738281C9.4229406,1.6976281,9.1789281,1.8043156,8.9863281,1.9785156C8.9863281,1.2881156,8.4267281,0.72851563,7.7363281,0.72851562zM7.9257812,6.5175781C8.1960814,6.9982781,8.7043594,7.2975281,9.2558594,7.2988281L9.5371094,7.2988281C9.5527094,7.7379281,9.7596687,8.1469687,10.105469,8.4179688C9.2897685,8.7919687,8.5508812,9.3151844,7.9257812,9.9589844L7.9257812,6.5175781zM9.6757812,11.992188C9.2401812,11.992188,8.8030188,12.141053,8.4492188,12.439453C8.2892187,12.569453,8.1404688,12.719609,7.9804688,12.849609C7.6957688,13.104209,7.2651687,13.104209,6.9804688,12.849609C6.8204688,12.719609,6.6697656,12.569453,6.5097656,12.439453C5.8038656,11.848253,4.7762125,11.848253,4.0703125,12.439453C3.9203125,12.569453,3.7808594,12.710078,3.6308594,12.830078C3.5416594,12.901578,3.4391781,12.956034,3.3300781,12.990234C3.0378781,13.055434,2.7323969,12.960134,2.5292969,12.740234C2.2817969,12.526234,2.0185344,12.332256,1.7402344,12.160156C1.5338344,12.042256,1.2979469,11.9865,1.0605469,12L1,12C0.7239,12,0.5,12.2239,0.5,12.5C0.5,12.7761,0.7239,13,1,13C1.246,13.0145,1.476825,13.126547,1.640625,13.310547L2,13.570312C2.6717,14.120313,3.6308781,14.145559,4.3300781,13.630859C4.5200781,13.490859,4.6908594,13.310156,4.8808594,13.160156C5.1655594,12.905556,5.5961594,12.905556,5.8808594,13.160156L6.2695312,13.509766C6.9632312,14.128666,8.0026688,14.158478,8.7304688,13.580078C8.8804688,13.470078,9.0003906,13.330938,9.1503906,13.210938C9.4479906,12.907137,9.9344813,12.901619,10.238281,13.199219L10.25,13.210938L10.640625,13.560547C11.127225,13.972947,11.788891,14.111288,12.400391,13.929688C12.782891,13.826087,13.128991,13.618778,13.400391,13.330078C13.555291,13.152878,13.7674,13.036,14,13C14.2761,13,14.5,12.7761,14.5,12.5C14.5,12.2239,14.2761,12,14,12C13.5654,11.99,13.142647,12.139322,12.810547,12.419922L12.339844,12.830078C12.055144,13.084678,11.624544,13.084678,11.339844,12.830078C11.189844,12.710078,11.050391,12.569453,10.900391,12.439453C10.546591,12.141053,10.111381,11.992188,9.6757812,11.992188z" fill="#FFFFFF"/></svg>