<svg version="1.1" xmlns="http://www.w3.org/2000/svg" xlink="http://www.w3.org/1999/xlink" x="0px" y="0px" width="15px" height="15px" viewBox="0 0 15 15" style="enable-background:new 0 0 15 15;" space="preserve">
    <path d="M7.5,3.1846438C6.47481862,4.04610743,5.29872864,4.5,4,4.5C3.58112103,4.5,3.12872115,4.41515312,2.61992999,4.26381954C3.05558504,8.14471464,4.67879253,10.7828911,7.5,12.3223156L7.5,3.1846438L7.5,3.1846438ZM1,2C1,2,3,3,4,3C5.33333333,3,6.5,2.33333333,7.5,1C8.5,2.33333333,9.66666667,3,11,3C12,3,14,2,14,2C14,8,11.8333333,12,7.5,14C3.16666667,12,1,8,1,2Z" fill="#FFFFFF"/>
    </svg>