<svg version="1.1" xmlns="http://www.w3.org/2000/svg" xlink="http://www.w3.org/1999/xlink" x="0px" y="0px" width="15px" height="15px" viewBox="0 0 15 15" style="enable-background:new 0 0 15 15;" space="preserve">
    <path d="M0.3,1.5l2.2851,2.3678999999999997l0.8781,-0.7992l-0.7949999999999999,-1.5614999999999999zm10.300799999999999,6.6324c0.43170000000000003,0.1206,0.8964,-0.12719999999999998,1.0188,-0.5727c0.1185,-0.43739999999999996,-0.1335,-0.8973,-0.5693999999999999,-1.0214999999999999l-0.3381,-0.0945l-0.4389,1.5905999999999998l0.3276,0.0981zm-0.2661,-1.791l-2.7345,-0.7809c-0.18,-0.0474,-0.3615,0.0624,-0.4122,0.24449999999999997l-0.2556,0.9267c-0.0501,0.18239999999999998,0.0468,0.3684,0.2304,0.4233l2.7365999999999997,0.7737l0.4353,-1.5873000000000002zm0.43139999999999995,2.6343c-0.2085,-0.20070000000000002,-0.46769999999999995,-0.36119999999999997,-0.7692,-0.4452l-3.3159,-0.9410999999999999l-2.037,-3.6630000000000003c-0.108,-0.1896,-0.2808,-0.3393,-0.504,-0.40140000000000003c-0.44639999999999996,-0.1275,-0.9107999999999999,0.1386,-1.0329,0.591c-0.06119999999999999,0.21539999999999998,-0.0324,0.4341,0.0648,0.6201l2.5482,4.531199999999999s0.20879999999999999,0.3393,0.7341,0.5147999999999999l4.6326,1.3173l2.1486,2.2106999999999997c0.072,0.0765,0.16590000000000002,0.1347,0.2772,0.168c0.324,0.09119999999999999,0.6620999999999999,-0.10619999999999999,0.756,-0.4311c0.06149999999999999,-0.22949999999999998,-0.0105,-0.4704,-0.17279999999999998,-0.6201l-3.3297,-3.4511999999999996zm2.4732,0.9158999999999999l0.4815,0.6384l0.9791999999999998,-1.0838999999999999l-0.8274,-0.4674c0.0786,-0.5873999999999999,-0.2814,-1.1562,-0.8571000000000001,-1.3202999999999998c-0.6333000000000001,-0.17909999999999998,-1.2921,0.1932,-1.4679,0.8355c-0.18059999999999998,0.6459,0.1905,1.3095,0.8238,1.4886c0.3024,0.08729999999999999,0.6083999999999999,0.0399,0.8678999999999999,-0.0909z" fill="#FFFFFF"/>
    </svg>