<svg version="1.1" xmlns="http://www.w3.org/2000/svg" xlink="http://www.w3.org/1999/xlink" x="0px" y="0px" width="15px" height="15px" viewBox="0 0 15 15" style="enable-background:new 0 0 15 15;" space="preserve">
    <path d="M9,8.2C9,8.2,10,14,10,14C10,14,11.5,14,11.5,14C12,14,12,15,11.5,15C11.5,15,3.5,15,3.5,15C3,15,3,14,3.5,14C3.5,14,5,14,5,14C5,14,6,8.2,6,8.2C7,8.875,8,8.875,9,8.2zM8.4,12L6.6,12L6.3,14L8.7,14L8.4,12zM8,9.25C8,9.25,7,9.25,7,9.25L6.75,11L8.25,11C8.25,11,8,9.25,8,9.25zM9.75,6.625C9.734,7,9.562,7.594,9.25,7.9C9.25,7.9,13,9.38,13,9.38L13,14.625C13,15.125,14,15.125,14,14.625L14,9.75C14.75,10,15.25,8.7,14.5,8.45C14.5,8.45,9.75,6.625,9.75,6.625zM3.5,1C0,1,-1,9.5,1.25,9.5C2,9.5,3.239,5.602,3.239,5.602C3.239,5.602,5.25,6.35,5.25,6.35C5.25,5.944,5.5,5.375,5.766,5.094C5.766,5.094,3.712,4.306,3.712,4.306C3.712,4.306,4.5,1.854,4.5,1.5C4.5,1.25,4,1,3.5,1zM7.5,8C8.375,8,9,7.375,9,6.5C9,5.625,8.375,5,7.5,5C6.625,5,6,5.641,6,6.516C6,7.391,6.625,8,7.5,8z" fill="#FFFFFF"/>
    </svg>