<svg version="1.1" xmlns="http://www.w3.org/2000/svg" xlink="http://www.w3.org/1999/xlink" x="0px" y="0px" width="15px" height="15px" viewBox="0 0 15 15" style="enable-background:new 0 0 15 15;" space="preserve"><path d="M5.75,12.5L5.5,13L9.5,13L9.25,12.5L10.75,12.5L12,15L10.5,15L10,14L5,14L4.5,15L3,15L4.25,12.5L5.75,12.5ZM13,2L13,10C13,11.1,12.1,12,11,12L4,12C2.9,12,2,11.1,2,10L2,2C2,0.9,2.9,0,4,0L11,0C12.1,0,13,0.9,13,2ZM9,9.5C9,10.05,9.45,10.5,10,10.5C10.55,10.5,11,10.05,11,9.5C11,8.95,10.55,8.5,10,8.5C9.45,8.5,9,8.95,9,9.5ZM6,9.5C6,8.95,5.55,8.5,5,8.5C4.45,8.5,4,8.95,4,9.5C4,10.05,4.45,10.5,5,10.5C5.55,10.5,6,10.05,6,9.5ZM3,3.5L3.01,6.5C3.01,6.78,3.24,7,3.51,7L6.51,7C6.78,7,7.01,6.78,7.01,6.5C7.01,6.5,7.01,6.5,7.01,6.5L6.99,3.5C6.99,3.22,6.77,3,6.49,3L3.5,3C3.22,3,3,3.22,3,3.5C3,3.5,3,3.5,3,3.5ZM8,3.5L8.01,6.5C8.01,6.78,8.24,7,8.51,7L11.51,7C11.78,7,12.01,6.78,12.01,6.5C12.01,6.5,12.01,6.5,12.01,6.5L11.99,3.5C11.99,3.22,11.77,3,11.49,3L8.5,3C8.22,3,8,3.22,8,3.5C8,3.5,8,3.5,8,3.5ZM4,1.5C4,1.78,4.22,2,4.5,2L10.5,2C10.78,2,11,1.78,11,1.5C11,1.22,10.78,1,10.5,1C10.5,1,10.5,1,10.5,1L4.5,1C4.22,1,4,1.22,4,1.5Z" fill="#FFFFFF"/></svg>