<svg version="1.1" xmlns="http://www.w3.org/2000/svg" xlink="http://www.w3.org/1999/xlink" x="0px" y="0px" width="15px" height="15px" viewBox="0 0 15 15" style="enable-background:new 0 0 15 15;" space="preserve">
    <path d="M6,6L5.25,6C5.11,6,5,5.89,5,5.75L5,5.25C5,5.11,5.11,5,5.25,5L6,5L6,4L5.25,4C5.11,4,5,3.89,5,3.75L5,3.25C5,3.11,5.11,3,5.25,3L6,3L6,2L5.25,2C5.11,2,5,1.89,5,1.75L5,1.25C5,1.11,5.11,1,5.25,1L6,1L6,0L7,0L7,1L8,1L8,0L9,0L9,1L9.75,1C9.89,1,10,1.11,10,1.25L10,1.75C10,1.89,9.89,2,9.75,2L9,2L9,3L9.75,3C9.89,3,10,3.11,10,3.25L10,3.75C10,3.89,9.89,4,9.75,4L9,4L9,5L9.75,5C9.89,5,10,5.11,10,5.25L10,5.75C10,5.89,9.89,6,9.75,6L9,6L9,7L9.75,7C9.89,7,10,7.11,10,7.25L10,7.75C10,7.89,9.89,8,9.75,8L9,8L9,9L9.75,9C9.89,9,10,9.11,10,9.25L10,9.75C10,9.89,9.89,10,9.75,10L9,10L9,11L9.75,11C9.89,11,10,11.11,10,11.25L10,11.75C10,11.89,9.89,12,9.75,12L9,12L9,13L9.75,13C9.89,13,10,13.11,10,13.25L10,13.75C10,13.89,9.89,14,9.75,14L9,14L9,15L8,15L8,14L7,14L7,15L6,15L6,14L5.25,14C5.11,14,5,13.89,5,13.75L5,13.25C5,13.11,5.11,13,5.25,13L6,13L6,12L5.25,12C5.11,12,5,11.89,5,11.75L5,11.25C5,11.11,5.11,11,5.25,11L6,11L6,10L5.25,10C5.11,10,5,9.89,5,9.75L5,9.25C5,9.11,5.11,9,5.25,9L6,9L6,8L5.25,8C5.11,8,5,7.89,5,7.75L5,7.25C5,7.11,5.11,7,5.25,7L6,7L6,6ZM8,6L7,6L7,7L8,7L8,6ZM8,5L8,4L7,4L7,5L8,5ZM8,8L7,8L7,9L8,9L8,8ZM8,10L7,10L7,11L8,11L8,10ZM8,12L7,12L7,13L8,13L8,12ZM7,3L8,3L8,2L7,2L7,3ZM5,6L5,7L4,7L4,8L5,8L5,9L4,9L4,9.75C4,9.89,3.89,10,3.75,10L3.25,10C3.11,10,3,9.89,3,9.75L3,9L2,9L2,9.75C2,9.89,1.89,10,1.75,10L1.25,10C1.11,10,1,9.89,1,9.75L1,9L0,9L0,8L1,8L1,7L0,7L0,6L1,6L1,5.25C1,5.11,1.11,5,1.25,5L1.75,5C1.89,5,2,5.11,2,5.25L2,6L3,6L3,5.25C3,5.11,3.11,5,3.25,5L3.75,5C3.89,5,4,5.11,4,5.25L4,6L5,6ZM10,6L11,6L11,5.25C11,5.11,11.11,5,11.25,5L11.75,5C11.89,5,12,5.11,12,5.25L12,6L13,6L13,5.25C13,5.11,13.11,5,13.25,5L13.75,5C13.89,5,14,5.11,14,5.25L14,6L15,6L15,7L14,7L14,8L15,8L15,9L14,9L14,9.75C14,9.89,13.89,10,13.75,10L13.25,10C13.11,10,13,9.89,13,9.75L13,9L12,9L12,9.75C12,9.89,11.89,10,11.75,10L11.25,10C11.11,10,11,9.89,11,9.75L11,9L10,9L10,8L11,8L11,7L10,7L10,6ZM3,8L3,7L2,7L2,8L3,8ZM12,7L12,8L13,8L13,7L12,7Z" fill="#FFFFFF"/>
    </svg>