<svg version="1.1" xmlns="http://www.w3.org/2000/svg" xlink="http://www.w3.org/1999/xlink" x="0px" y="0px" width="15px" height="15px" viewBox="0 0 15 15" style="enable-background:new 0 0 15 15;" space="preserve">
    <path d="M0,2L8,7L8,14L0,14L0,2z" fill="#FFFFFF"/> <path d="M9,11L15,11L15,14L9,14L9,11z" fill="#FFFFFF"/> <path d="M8.225,2.243C8.225,2.243,9.5,1,9.5,1C9.5,1,12.32,4.068,12.32,4.068C12.32,4.068,14,2.5,14,2.5C14,2.5,14,7,14,7C14,7,9.5,7,9.5,7C9.5,7,10.991,5.314,10.991,5.314C10.991,5.314,8.225,2.243,8.225,2.243z" fill="#FFFFFF"/>
    </svg>