<svg version="1.1" xmlns="http://www.w3.org/2000/svg" xlink="http://www.w3.org/1999/xlink" x="0px" y="0px" width="15px" height="15px" viewBox="0 0 15 15" style="enable-background:new 0 0 15 15;" space="preserve"><path d="M12 0C13 0 13 0 13 1L13 14C13 15 13 15 12 15L3 15C2 15 2 15 2 14L2 1C2 0 2 0 3 0L12 0zM10 12 4 12 4 13 10 13 10 12zM12 9 11 9 11 9.75 12 9.75 12 9zM10 2 4 2 4 10 10 10 10 2zM12 7.5 11 7.5 11 8.25 12 8.25 12 7.5zM12 6 11 6 11 6.75 12 6.75 12 6zM12 4.5 11 4.5 11 5.25 12 5.25 12 4.5zM9 2.75 9 9.25C9 9.25 7.75 9.25 7.75 9.25 7.75 8.25 6.25 8.25 6.25 9.25 6.25 9.25 5 9.25 5 9.25 5 9.25 5 2.75 5 2.75L6.25 2.75C6.25 3.75 7.75 3.75 7.75 2.75zM8.25 4C8.25 4 5.75 4 5.75 4L5.75 8 8.25 8C8.25 8 8.25 4 8.25 4zM8 4.25 8 7.75 6 7.75 6 4.25 8 4.25z" fill="#FFFFFF"/></svg>