<svg version="1.1" xmlns="http://www.w3.org/2000/svg" xlink="http://www.w3.org/1999/xlink" x="0px" y="0px" width="15px" height="15px" viewBox="0 0 15 15" style="enable-background:new 0 0 15 15;" space="preserve">
    <path d="M7.666199999999999,10.8516c1.0803,5.0432999999999995,7.1757,0.9147,1.122,-2.5982999999999996c6.672,3.8724,6.6879,-5.3748,0.0135,-1.5053999999999998c6.6744,-3.8691,-1.2951,-8.4945,-1.2966,-0.7526999999999999c0.0015,-7.7418,-7.9692,-3.12,-1.2981,0.7526999999999999c-6.671099999999999,-3.8729999999999998,-6.6789000000000005,5.374499999999999,-0.005699999999999999,1.5048c-6.057,3.5112,0.0246,7.6446,1.1052,2.5911l0.3597,0.0078zm-0.9639,-3.3507000000000002c0,-0.4458,0.3594,-0.8064,0.8021999999999999,-0.8064c0.4431,0,0.8019,0.3606,0.8019,0.8064c0,0.4452,-0.35879999999999995,0.8064,-0.8019,0.8064c-0.4425,-0.0003,-0.8021999999999999,-0.36119999999999997,-0.8021999999999999,-0.8064z" fill="#FFFFFF"/>
    </svg>