<svg version="1.1" xmlns="http://www.w3.org/2000/svg" xlink="http://www.w3.org/1999/xlink" x="0px" y="0px" width="15px" height="15px" viewBox="0 0 15 15" style="enable-background:new 0 0 15 15;" space="preserve"><path d="M5.2311000000000005,3.8655c0.7392,0,1.335,-0.5979,1.335,-1.3337999999999999c0,-0.7355999999999999,-0.5961,-1.3316999999999999,-1.335,-1.3316999999999999c-0.7377,0,-1.3353,0.5961,-1.3353,1.3316999999999999c-0.0003,0.7358999999999999,0.5976,1.3337999999999999,1.3353,1.3337999999999999zm-4.9311,7.284599999999999c0.3,0,0.6146999999999999,-0.072,0.8841,-0.1929c0.2766,-0.1278,0.5901,-0.2028,0.9144,-0.2028c0.3246,0,0.6375,0.075,0.9125999999999999,0.2028c0.2712,0.1206,0.5739,0.1911,0.8895,0.1911c0.3141,0,0.6165,-0.0702,0.8862,-0.1911c0.2748,-0.1278,0.5873999999999999,-0.2028,0.9138,-0.2028c0.3243,0,0.6348,0.075,0.9132,0.2028c0.2682,0.1206,0.5720999999999999,0.1911,0.8862,0.1911c0.3141,0,0.618,-0.0702,0.8858999999999999,-0.1911c0.2784,-0.1278,0.5895,-0.2028,0.9153,-0.2028c0.3246,0,0.6351,0.075,0.9117,0.2028c0.2712,0.1206,0.5739,0.1911,0.8883,0.1911c0.315,0,0.6165,-0.0702,0.8877,-0.1911c0.2748,-0.1278,0.5871,-0.2028,0.9113999999999999,-0.2028c0.2784,0,0.5484,0.053099999999999994,0.792,0.1482c0.3966,-0.4323,0.6426,-1.008,0.6426,-1.6383c0,-1.3422,-1.0893,-2.4288,-2.433,-2.4288l-0.2727,0.0291c-0.2991,1.2110999999999998,-1.5131999999999999,1.2621,-1.5131999999999999,1.2621l-5.556,-0.0015l-0.4644,-0.2727l1.1199,-1.875l1.2261,0.7068c0.7341,0.4749,1.1163,-0.1908,1.1163,-0.1908l1.2293999999999998,-1.9998c0.5343,-0.8687999999999999,-0.5991,-1.5654,-1.1300999999999999,-0.6932999999999999l-0.8607,1.4016l-2.0454,-1.1292c-1.4174999999999998,-0.7887,-2.0181,0.5177999999999999,-2.0181,0.5177999999999999l-1.6065,2.7455999999999996c-0.2733,0.5706,-0.0312,0.8157,-0.0312,0.8157l-0.7952999999999999,-0.0012v2.9993999999999996zm14.399999999999999,2.6499c-0.3144,0,-0.6165,-0.0696,-0.8844,-0.1908c-0.2781,-0.1278,-0.5892,-0.2025,-0.9153,-0.2025c-0.3243,0,-0.6365999999999999,0.0747,-0.9113999999999999,0.2025c-0.2712,0.1212,-0.5727,0.1908,-0.8877,0.1908c-0.3144,0,-0.6171,-0.0696,-0.8883,-0.1908c-0.2766,-0.1278,-0.5871,-0.2025,-0.9117,-0.2025c-0.32580000000000003,0,-0.6369,0.0747,-0.9153,0.2025c-0.26789999999999997,0.1212,-0.5718,0.1908,-0.8858999999999999,0.1908c-0.3138,0,-0.618,-0.0696,-0.8862,-0.1908c-0.2784,-0.1278,-0.5889,-0.2025,-0.9132,-0.2025c-0.3261,0,-0.6386999999999999,0.0747,-0.9135,0.2025c-0.2697,0.1212,-0.5720999999999999,0.1908,-0.8862,0.1908c-0.31589999999999996,0,-0.6183,-0.0696,-0.8895,-0.1908c-0.2751,-0.1278,-0.5873999999999999,-0.2025,-0.9119999999999999,-0.2025c-0.3243,0,-0.6369,0.0747,-0.9132,0.2025c-0.2697,0.1212,-0.5720999999999999,0.1908,-0.8862,0.1908v-1.3251c0.3141,0,0.6165,-0.07139999999999999,0.8862,-0.1926c0.2766,-0.1275,0.5889,-0.2025,0.9132,-0.2025c0.3246,0,0.6372,0.075,0.9119999999999999,0.2025c0.2712,0.12090000000000001,0.5736,0.1926,0.8895,0.1926c0.3141,0,0.6165,-0.07139999999999999,0.8862,-0.1926c0.2748,-0.1275,0.5873999999999999,-0.2025,0.9135,-0.2025c0.3243,0,0.6348,0.075,0.9132,0.2025c0.2682,0.12090000000000001,0.5720999999999999,0.1926,0.8862,0.1926c0.3141,0,0.618,-0.07139999999999999,0.8858999999999999,-0.1926c0.2784,-0.1275,0.5895,-0.2025,0.9153,-0.2025c0.3246,0,0.6351,0.075,0.9117,0.2025c0.2712,0.12090000000000001,0.5739,0.1926,0.8883,0.1926c0.315,0,0.6165,-0.07139999999999999,0.8877,-0.1926c0.2748,-0.1275,0.5871,-0.2025,0.9113999999999999,-0.2025c0.3261,0,0.6372,0.075,0.9153,0.2025c0.2682,0.12090000000000001,0.57,0.1926,0.8844,0.1926v1.3251z" fill="#FFFFFF"/></svg>