<svg version="1.1" xmlns="http://www.w3.org/2000/svg" xlink="http://www.w3.org/1999/xlink" x="0px" y="0px" width="15px" height="15px" viewBox="0 0 15 15" style="enable-background:new 0 0 15 15;" space="preserve"><path d="M11.9766,8.4261c0.1389,0.0681,0.3081,0.0669,0.37589999999999996,-0.0032999999999999995c0.0687,-0.0699,0.0093,-0.1803,-0.1314,-0.24509999999999998l-2.4534000000000002,-1.1363999999999999c-0.1407,-0.0654,-0.37709999999999994,-0.0819,-0.5247,-0.0375l-0.8775,0.2631c-0.14909999999999998,0.0447,-0.34349999999999997,0.0813,-0.43170000000000003,0.0813c-0.08819999999999999,0,-0.1617,-0.12419999999999999,-0.1617,-0.2766v-2.6757c0,-0.15209999999999999,0.12689999999999999,-0.2769,0.2823,-0.2769h6.362699999999999c0.156,0,0.28259999999999996,-0.12449999999999999,0.28259999999999996,-0.2769v-0.8985c0,-0.1524,-0.12209999999999999,-0.3126,-0.2706,-0.3561l-6.7005,-1.9551c-0.1485,-0.0435,-0.39209999999999995,-0.0435,-0.5406,0.0006l-6.6183,1.9542c-0.1482,0.0435,-0.2697,0.2043,-0.2697,0.3564v0.8982c0,0.1524,0.12689999999999999,0.2769,0.282,0.2769h6.279c0.1554,0,0.2823,0.1248,0.2823,0.2769v2.6771999999999996c0,0.15209999999999999,-0.12689999999999999,0.2769,-0.2823,0.2772h-0.11399999999999999c-0.1554,0.0003,-0.3732,-0.08669999999999999,-0.4848,-0.1929l-1.5138,-1.4457c-0.1119,-0.1065,-0.3297,-0.1932,-0.4851,-0.1932h-0.7002c-0.1548,0,-0.3417,-0.0915,-0.41459999999999997,-0.2028c-0.07229999999999999,-0.11159999999999999,-0.2409,-0.20220000000000002,-0.3744,-0.20220000000000002s-0.17459999999999998,0.10439999999999999,-0.0906,0.2328l0.013199999999999998,0.0201c0.084,0.1281,0.0843,0.33899999999999997,0.0018,0.46769999999999995l-0.7572,1.1772c-0.08220000000000001,0.1293,-0.0567,0.31829999999999997,0.0588,0.4206l0.0537,0.0483c0.11549999999999999,0.10200000000000001,0.3213,0.1284,0.45899999999999996,0.0573l0.8112,-0.4221c0.138,-0.07139999999999999,0.31829999999999997,-0.024900000000000002,0.402,0.10319999999999999l0.8901,1.3625999999999998c0.0843,0.1284,0.0561,0.3144,-0.0624,0.41279999999999994l-0.40709999999999996,0.3399c-0.1185,0.0984,-0.1875,0.30029999999999996,-0.1533,0.44939999999999997l0.5277,2.2956c0.0342,0.14909999999999998,0.1857,0.24,0.3363,0.2025l0.3669,-0.0906c0.1509,-0.0378,0.24569999999999997,-0.1896,0.21269999999999997,-0.3384l-0.3573,-1.5525c-0.0342,-0.1485,0.0603,-0.30389999999999995,0.21059999999999998,-0.34379999999999994l0.9021,-0.24180000000000001c0.1494,-0.0402,0.3993,-0.07229999999999999,0.5547,-0.07229999999999999h0.11399999999999999c0.1554,0,0.2823,0.12449999999999999,0.2823,0.276v2.7531c0,0.1518,-0.12689999999999999,0.2763,-0.2823,0.2763h-6.279c-0.1551,0,-0.282,0.12419999999999999,-0.282,0.2772v0.8976c0,0.1539,0.12689999999999999,0.2781,0.282,0.2781h13.7184c0.1554,0,0.282,-0.12419999999999999,0.282,-0.2775v-0.8976c0,-0.153,-0.12689999999999999,-0.2772,-0.282,-0.2772h-6.245699999999999c-0.1557,0,-0.2823,-0.12449999999999999,-0.2823,-0.2763v-2.7531c0,-0.1515,0.12689999999999999,-0.276,0.2823,-0.276h0.3252c0.1554,0,0.40349999999999997,0.0321,0.5544,0.07229999999999999l0.9021,0.24180000000000001c0.15059999999999998,0.0399,0.24539999999999998,0.195,0.21059999999999998,0.34379999999999994l-0.3564,1.5525c-0.0348,0.1488,0.0606,0.3006,0.2115,0.3384l0.3675,0.0906c0.1509,0.0375,0.30119999999999997,-0.053399999999999996,0.336,-0.2025l0.5283,-2.2956c0.0351,-0.14909999999999998,-0.0315,-0.348,-0.1464,-0.4446c-0.1146,-0.0954,-0.21569999999999998,-0.2988,-0.22469999999999998,-0.4506l-0.045899999999999996,-0.8120999999999999c-0.0093,-0.1518,0.0978,-0.2205,0.237,-0.15209999999999999l1.0227,0.5019z" fill="#FFFFFF"/></svg>