<svg version="1.1" xmlns="http://www.w3.org/2000/svg" xlink="http://www.w3.org/1999/xlink" x="0px" y="0px" width="15px" height="15px" viewBox="0 0 15 15" style="enable-background:new 0 0 15 15;" space="preserve"><path d="M2.5 4C3.32842712 4 4 4.67157288 4 5.5 4 6.32842712 3.32842712 7 2.5 7 1.67157288 7 1 6.32842712 1 5.5 1 4.67157288 1.67157288 4 2.5 4ZM11.5 1C12.3284271 1 13 1.67157288 13 2.5 13 3.32842712 12.3284271 4 11.5 4 10.6715729 4 10 3.32842712 10 2.5 10 1.67157288 10.6715729 1 11.5 1ZM7 9 7 6 5.84550265 6 4.47843915 9 7 9ZM8 9 10.5215608 9 9.15449735 6 8 6 8 9ZM8 5 8.69880952 5 7.5 2.36923077 6.30119048 5 7 5 8 5ZM7 13 7 10 4.02275132 10 2.65568783 13 7 13ZM8 13 12.3443122 13 10.9772487 10 8 10 8 13ZM2.2 14 1 14 7.5 0 14 14 12.8 14 2.2 14Z" fill="#FFFFFF"/></svg>