<svg version="1.1" xmlns="http://www.w3.org/2000/svg" xlink="http://www.w3.org/1999/xlink" x="0px" y="0px" width="15px" height="15px" viewBox="0 0 15 15" style="enable-background:new 0 0 15 15;" space="preserve">
    <path d="M7.6521,6.771599999999999c-0.4536,0,-0.8223,0.3687,-0.8223,0.8220000000000001c0,0.4532999999999999,0.3687,0.8220000000000001,0.8223,0.8220000000000001c0.4532999999999999,0,0.8223,-0.3687,0.8223,-0.8220000000000001c0,-0.4532999999999999,-0.369,-0.8220000000000001,-0.8223,-0.8220000000000001zm4.8951,-5.5497c0,-0.34349999999999997,-0.2784,-0.6219,-0.6216,-0.6219h-8.903699999999999c-0.34349999999999997,0,-0.6219,0.2784,-0.6219,0.6219v12.5568c0,0.34319999999999995,0.2784,0.6213000000000001,0.6219,0.6213000000000001h8.903699999999999c0.34349999999999997,0,0.6216,-0.2781,0.6216,-0.6213000000000001v-12.5568zm-4.8951,10.3026c-2.1675,0,-3.9309,-1.7631,-3.9309,-3.9309c0,-2.1672,1.7634,-3.9306,3.9309,-3.9306c2.1672,0,3.9303,1.7634,3.9303,3.9306c-0.0003,2.1677999999999997,-1.7634,3.9309,-3.9303,3.9309z" fill="#FFFFFF"/>
    </svg>