<svg version="1.1" xmlns="http://www.w3.org/2000/svg" xlink="http://www.w3.org/1999/xlink" x="0px" y="0px" width="15px" height="15px" viewBox="0 0 15 15" style="enable-background:new 0 0 15 15;" space="preserve">
    <path d="M8.57,0C9,0,9,0.5,9,0.5L9,1.5C9,1.5,9.5,1.5,9.5,1.5C10,1.5,10,2,10,2L12,2C13,2,13,2,13,3L13,7.5C13,7.5,13.499,7.5,13.5,8C13.5,8,14,8,14,8L14,4.5C13.625,4.391,13.5,4.125,13.5,3.75C13.5,3.375,13.875,3,14.25,3C14.625,3,15,3.375,15,3.75C15,4.125,14.828,4.359,14.5,4.5C14.5,4.5,14.5,8.75,14.5,8.75C14.5,9,14.25,9,14.25,9L13.5,9C13.5,9.5,13,9.5,13,9.5L13,14C13,15,13,15,12,15C12,15,3,15,3,15C2,15,2,15,2,14L2,3C2,2,2,2,3,2L5,2C5,2,5,1.5,5.5,1.5C5.5,1.5,6,1.5,6,1.5L6,0.5C6,0.5,6,0,6.5,0L8.57,0zM10,13L5,13L5,14L10,14L10,13zM10,10L9,10L9,11L10,11L10,10zM6,10L5,10L5,11L6,11L6,10zM8,10L7,10L7,11L8,11L8,10zM12,4L9.25,4L9.25,9L12,9L12,4zM8.825,4L6.125,4L6.125,9L8.825,9L8.825,4zM5.75,4L3,4C3,4,3,9,3,9L5.75,9L5.75,4zM7,0.325C6.5,0.325,6.5,0.5,6.5,0.75C6.5,0.75,6.5,1.5,6.5,1.5C6.75,0.75,7.25,0.5,8,0.325C8,0.325,7,0.325,7,0.325z" fill="#FFFFFF"/> <path d="M9.5,4.75C9.5,4.75,10,4.75,10,4.75C10,5,11.375,4.75,11.375,4.75C11.375,4.75,11.875,4.75,11.625,5C11.375,5.25,10.875,7,11.125,8C11.125,8,10,8,10,8C10,6.75,10.625,5.75,10.625,5.75C10.625,5.75,10,5.5,10,5.75C10,5.75,9.5,5.75,9.5,5.75C9.5,5.75,9.5,4.75,9.5,4.75z" fill="#FFFFFF"/> <path d="M6.325,4.75C6.325,4.75,6.825,4.75,6.825,4.75C6.825,5,8.25,4.75,8.25,4.75C8.25,4.75,8.75,4.75,8.5,5C8.25,5.25,7.75,7,8,8C8,8,6.825,8,6.825,8C6.825,6.75,7.5,5.75,7.5,5.75C7.5,5.75,6.825,5.5,6.825,5.75C6.825,5.75,6.325,5.75,6.325,5.75C6.325,5.75,6.325,4.75,6.325,4.75z" fill="#FFFFFF"/> <path d="M3.25,4.75C3.25,4.75,3.75,4.75,3.75,4.75C3.75,5,5.125,4.75,5.125,4.75C5.125,4.75,5.625,4.75,5.375,5C5.125,5.25,4.625,7,4.875,8C4.875,8,3.75,8,3.75,8C3.75,6.75,4.375,5.75,4.375,5.75C4.375,5.75,3.75,5.5,3.75,5.75C3.75,5.75,3.25,5.75,3.25,5.75C3.25,5.75,3.25,4.75,3.25,4.75z" fill="#FFFFFF"/>
    </svg>