<svg version="1.1" xmlns="http://www.w3.org/2000/svg" xlink="http://www.w3.org/1999/xlink" x="0px" y="0px" width="15px" height="15px" viewBox="0 0 15 15" style="enable-background:new 0 0 15 15;" space="preserve">
    <path d="M9.75,8C9.75,6.75735931,10.7573593,5.75,12,5.75L14.25,5.75L14.25,7.25L12,7.25C11.5857864,7.25,11.25,7.58578644,11.25,8L11.25,9.75L8,9.75C7.58578644,9.75,7.25,10.0857864,7.25,10.5L7.25,12.25L4,12.25C3.58578644,12.25,3.25,12.5857864,3.25,13L3.25,14.25L1.75,14.25L1.75,13C1.75,11.7573593,2.75735931,10.75,4,10.75L5.75,10.75L5.75,10.5C5.75,9.25735931,6.75735931,8.25,8,8.25L9.75,8.25L9.75,8ZM8,3L11,3C11,3,11,5,6.02247325,6C5.52247325,6.1,4,7,4,7.93363852C4.66666667,8.64454617,5,9.33333333,5,10C5,10.6666667,4.33333333,10.3333333,3,9C1.66666667,10.3333333,1,10.6666667,1,10C1,9.33333333,1.33333333,8.66666667,2,8C2,6.05279966,2,5,3.5,3C5,1,9,1,10,1C10.6666667,1,10,1.66666667,8,3Z" fill="#FFFFFF"/>
    </svg>