<svg version="1.1" xmlns="http://www.w3.org/2000/svg" xlink="http://www.w3.org/1999/xlink" x="0px" y="0px" width="15px" height="15px" viewBox="0 0 15 15" style="enable-background:new 0 0 15 15;" space="preserve"><path d="M5,15C4,15,3.5,14.5,3,12C2.4,9,1.5,2.5,2.5,2.5C3,2.5,3.25,4,3.5,5C3.8,6.2,4,7,4,7C4,2,4,1,4.5,1C5.5,1,5.5,5,6,6.5C6.5,4,6,0,7,0C7,0,7,0,7,0C7,0,7,0,7,0C8,0,8,3.5,8,4.5C8,5.6,8,6.5,8,6.5C8,6.5,8,6.5,8,6.5C8.17,5.8,8.4,4.8,8.5,4C8.72,2.4,8.8,1,9.5,1C10.5,1,10,4,10,7.5C10,8.3,10.5,10,10.5,10C10.5,10,13.3,6.5,14,8C14.5,9,13,10.3,12,11.5C11.4,12.2,11,13,11,13C11,13,10,15,8.5,15C7,15,6,15,5,15z" fill="#FFFFFF"/></svg>