<svg version="1.1" xmlns="http://www.w3.org/2000/svg" xlink="http://www.w3.org/1999/xlink" x="0px" y="0px" width="15px" height="15px" viewBox="0 0 15 15" style="enable-background:new 0 0 15 15;" space="preserve"><path d="M12.9984126,5.76234817L13.5881717,6.19126392C14.3714165,6.76089649,13.9684801,8,13,8L13,9C13.5522847,9,14,9.44771525,14,10C14,10.5522847,13.5522847,11,13,11L13,12C13.5522847,12,14,12.4477153,14,13C14,13.5522847,13.5522847,14,13,14L9,14L9,10L6,10L6,14L2,14C1.44771525,14,1,13.5522847,1,13C1,12.4477153,1.44771525,12,2,12L2,11C1.44771525,11,1,10.5522847,1,10C1,9.44771525,1.44771525,9,2,9L2,8C1.03151992,8,0.628583518,6.76089649,1.4118283,6.19126392L6.9118283,2.19126392C7.26247881,1.93624536,7.73752119,1.93624536,8.0881717,2.19126392L11,4.30895723L11,1L13,1L12.9984126,5.76234817L12.9984126,5.76234817ZM3,8L3,9L12,9L12,8L3,8ZM12,11L10,11L10,12L12,12L12,11ZM3,11L3,12L5,12L5,11L3,11ZM7.5,4.23649732L5.07518381,6L9.92481619,6L7.5,4.23649732Z" fill="#FFFFFF"/></svg>