<svg version="1.1" xmlns="http://www.w3.org/2000/svg" xlink="http://www.w3.org/1999/xlink" x="0px" y="0px" width="15px" height="15px" viewBox="0 0 15 15" style="enable-background:new 0 0 15 15;" space="preserve"><path d="M5.0349,2.6999999999999997c0.6657,0,1.2,-0.5415,1.2,-1.2c0,-0.6657,-0.5343,-1.2,-1.2,-1.2c-0.6617999999999999,0,-1.2,0.5346,-1.2,1.2c0,0.6585,0.5382,1.2,1.2,1.2zm0.8472,11.0025c-2.0436,0,-3.7008,-1.6803,-3.7008,-3.7611c0,-1.1391,0.5067,-2.1555,1.2972,-2.8467000000000002l-0.0657,-1.1766c-1.3235999999999999,0.8406,-2.2128,2.3192999999999997,-2.2128,4.0233c0,2.6256,2.0949,4.7585999999999995,4.682099999999999,4.7585999999999995c1.9038,0,3.5865,-1.3413,4.3179,-3l-0.7128,-0.9815999999999999c-0.35219999999999996,1.6995,-1.827,2.9840999999999998,-3.6050999999999997,2.9840999999999998zm7.3179,-2.3024999999999998h-0.6l-2.4,-3.3c-0.1299,-0.2283,-0.6,-0.8999999999999999,-1.2,-0.8999999999999999h-2.6999999999999997v-1.2h2.4c0.3108,0,0.6462,-0.1323,0.6462,-0.4518c0,-0.3171,-0.3267,-0.4482,-0.6462,-0.4482h-2.4v-1.2c-0.04409999999999999,-0.6654,-0.6,-0.8999999999999999,-1.197,-0.8862c-0.6029999999999999,0.0138,-0.9029999999999999,0.28619999999999995,-0.9029999999999999,0.8862v4.2c0.056999999999999995,0.6738,0.5420999999999999,0.8999999999999999,1.2,0.8999999999999999h3.5999999999999996l2.1,2.6999999999999997c0.1353,0.2238,0.6,0.8999999999999999,0.6,0.8999999999999999h1.5c0.3096,0,0.6,-0.2814,0.6,-0.6c0,-0.3171,-0.2808,-0.6,-0.6,-0.6z" fill="#FFFFFF"/></svg>