<svg version="1.1" xmlns="http://www.w3.org/2000/svg" xlink="http://www.w3.org/1999/xlink" x="0px" y="0px" width="15px" height="15px" viewBox="0 0 15 15" style="enable-background:new 0 0 15 15;" space="preserve"><path d="M9,1C8.5,2,8,2.5,7.5,2.5C7,2.5,6.5,2,6,1C5,1.33333333,4.5,2,4.5,3C4.5,4.5,6,5,6,7.5C6,9.16666667,4.33333333,10.3333333,1,11C1,11.6666667,1.33333333,12.3333333,2,13C3,14,4,13,5,13C6,13,6,14,7.5,14C9,14,9,13,10,13C11,13,12,14,13,13C13.6666667,12.3333333,14,11.6666667,14,11C10.6666667,10.3333333,9,9.16666667,9,7.5C9,5,10.5,4.5,10.5,3C10.5,2,10,1.33333333,9,1Z" fill="#FFFFFF"/></svg>