<svg version="1.1" xmlns="http://www.w3.org/2000/svg" xlink="http://www.w3.org/1999/xlink" x="0px" y="0px" width="15px" height="15px" viewBox="0 0 15 15" style="enable-background:new 0 0 15 15;" space="preserve"><path d="M0 6.5C0 8 1 9.5 2 9.5 3.5 9.5 4 9.5 4 8.5 4 7.5 2.5 7.5 2.5 6 2.5 5 2.5 4 1 4 .5 4 0 5 0 6.5zM5.5 8.5C5.5 9 5 9.5 4.5 9.5 4 9.5 4 9.5 4 9 4 8 3.5 7.5 4.5 7.5 5 7.5 5.5 8 5.5 8.5zM9 0C13 0 15 2 15 5 15 7.5 13 8.5 12.5 11 12 12.5 11 15 9 15 7 15 6.5 13.5 5.5 12 4.5 10.5 5.5 10 6 10.5 6.5 11 7.5 14 9 14 10 14 11 12 11.5 10.5 12 8 14 7 14 5 14 2.5 12.5 1 9 1 6.5 1 5.5 2.5 5.5 4 5.5 5 4.5 5 4.5 4 4.5 1.5 6 0 9 0zM9.5 2.5C7.5 2.5 6.5 3.5 6.5 5 6.5 6 6.5 7 7 7.5 7.5 8 8 8.5 7.5 9 7 9.5 8 10.5 9 9 9.5 8 9 7.5 8.5 7 8 6.5 7.5 6 7.5 5 7.5 4.5 8 3 9.5 3 10.5 3 12 3.5 12 5 12 6.5 11 7.5 11.5 7.5 12 7.5 12.5 6 12.5 5 12.5 3 10.5 2.5 9.5 2.5z" fill="#FFFFFF"/></svg>