<svg version="1.1" xmlns="http://www.w3.org/2000/svg" xlink="http://www.w3.org/1999/xlink" x="0px" y="0px" width="15px" height="15px" viewBox="0 0 15 15" style="enable-background:new 0 0 15 15;" space="preserve"><path d="M4,7L4,14L2,14L2,7.78L1,8.16L1,6L14,1L14,3.14L4,7ZM6.8252265,11.6593965C5.81720368,11.6593965,5,10.8400563,5,9.8297849C5,8.81934029,5.81720368,8,6.8252265,8C7.83273078,8,8.65010731,8.81934029,8.65010731,9.8297849C8.65010731,10.8400563,7.83273078,11.6593965,6.8252265,11.6593965ZM14,14L11.5,14L11.5,8.7131847L14,8.7131847L14,14ZM9.21435465,12.1976246L9.21089778,9.47850293C9.21089778,8.98159704,9.61293157,8.5784241,10.1086465,8.5784241C10.6047071,8.5784241,11.0067409,8.98159704,11.0067409,9.47850293L11.0067409,13.0978767C11.0067409,13.5947826,10.6047071,13.9977823,10.1086465,13.9977823L5.93897187,13.9977823C5.4430841,13.9977823,5.04105031,13.5947826,5.04105031,13.0978767C5.04105031,12.6006243,5.4430841,12.1971048,5.93897187,12.1971048L9.21435465,12.1976246Z" fill="#FFFFFF"/></svg>