<svg version="1.1" xmlns="http://www.w3.org/2000/svg" xlink="http://www.w3.org/1999/xlink" x="0px" y="0px" width="15px" height="15px" viewBox="0 0 15 15" style="enable-background:new 0 0 15 15;" space="preserve">
    <path d="M11.5,2C11.5,2,9.5,2,9.5,2C9,2,9,3,9.5,3C9.5,3,11.5,3,11.5,3C12,3,12,4,11.5,4C11.5,4,9.5,4,9.5,4C9,4,9,5,9.5,5C9.5,5,11.5,5,11.5,5C12,5,12,6,11.5,6C11.5,6,9.5,6,9.5,6C9,6,9,7,9.5,7C9.5,7,11.5,7,11.5,7C12,7,12,8,11.5,8C11.5,8,9.5,8,9.5,8C9,8,9,9,9.5,9C9.5,9,11.5,9,11.5,9C12,9,12,10,11.5,10C11.5,10,9.5,10,9.5,10C9,10,9,11,9.5,11C9.5,11,11.5,11,11.5,11C12,11,12,12,11.5,12C11.5,12,9.5,12,9.5,12C9,12,9,13,9.5,13C9.5,13,11.5,13,11.5,13C12,13,12,14,11.5,14C11.5,14,9.5,14,9.5,14C9,14,9,15,9.5,15C9.5,15,13.5,15,13.5,15C14,15,14,14,14,14L14,1C14,1,14,0,13.5,0L9.5,0C9,0,9,1,9.5,1C9.5,1,11.5,1,11.5,1C12,1,12,2,11.5,2z" fill="#FFFFFF"/> <path d="M5.9,10.171C7,9.5,8,10.531,8,11.5C8,12.112,7.75,12.637,7.218,12.883C7.09,13.544,7.247,13.723,7.407,14.025C7.572,14.35,7.169,14.75,6.831,14.437C6.542,14.171,6.389,13.5,6.401,13.031C5.664,12.991,5,12.357,5,11.5C5,11.5,4.75,7.5,4.75,7.5C4.75,7.5,4.25,7.5,4.25,7.5C4.25,7.5,4,11.5,4,11.5C4,12.265,3.392,13,2.5,13C1.615,13,1,12.35,1,11.5C1,10.545,2,9.5,3.172,10.171C3.25,10.25,4,0,4.5,0C5,0,5.9,10.171,5.9,10.171zM2.5,10.75C2,10.75,1.75,11,1.75,11.5C1.75,12,2,12.25,2.5,12.25C3,12.25,3.25,11.75,3.25,11.5C3.25,11,3,10.75,2.5,10.75zM6.5,10.75C6,10.75,5.75,11,5.75,11.5C5.75,11.75,6,12.25,6.5,12.25C7,12.25,7.25,12,7.25,11.5C7.25,11,7,10.75,6.5,10.75z" fill="#FFFFFF"/>
    </svg>