<svg version="1.1" xmlns="http://www.w3.org/2000/svg" xlink="http://www.w3.org/1999/xlink" x="0px" y="0px" width="15px" height="15px" viewBox="0 0 15 15" style="enable-background:new 0 0 15 15;" space="preserve">
    <path d="M4.833,0L3.833,1L6.5,3.667L7.167,2.333L4.833,0zM3.667,1.167L3.167,1.667L6,4.5L6.5,4L3.667,1.167zM11.667,1.167L8.833,4L9.333,4.5L12.167,1.667L11.667,1.167zM12.333,1.833L9.667,4.5L11,5.167L13.333,2.833L12.333,1.833zM7.667,3.167L4.552,6.281L4.333,6.167L2,8.5L3,9.5L4.271,8.229L4.229,8.604L3.167,9.667L3.667,10.167L4.094,9.74L3.667,13.333C2,13.667,1,15,1,15L14.333,15C14.333,15,13.333,13.667,11.667,13.333L11.333,10.5L11.5,10.333L11.292,10.156L11.24,9.74L11.667,10.167L12.167,9.667L11.104,8.604L10.833,6.333L7.667,3.167zM7.167,7L8.167,7L8.5,9L6.833,9L7.167,7z" fill="#FFFFFF"/>
    </svg>