<svg version="1.1" xmlns="http://www.w3.org/2000/svg" xlink="http://www.w3.org/1999/xlink" x="0px" y="0px" width="15px" height="15px" viewBox="0 0 15 15" style="enable-background:new 0 0 15 15;" space="preserve">
    <path d="M6.2148,7.199999999999999h-5.267099999999999c-0.1536,0,-0.2799,-0.09419999999999999,-0.2799,-0.24449999999999997l0.0096,-0.056999999999999995l0.2805,-1.8018c0.0234,-0.12719999999999998,0.1377,0.0032999999999999995,0.2751,0.0032999999999999995h4.6971c0.1362,0,0.25139999999999996,-0.12359999999999999,0.2745,0.0036l0.2808,1.9197l0.0099,-0.011399999999999999c0,0.14909999999999998,-0.12719999999999998,0.1881,-0.2805,0.1881zm-0.21089999999999998,2.2706999999999997c-0.2961,0,-0.5373,-0.2343,-0.5373,-0.525c0,-0.28919999999999996,0.2409,-0.522,0.5373,-0.522c0.2946,0,0.5355,0.2328,0.5355,0.522c0,0.29069999999999996,-0.2406,0.525,-0.5355,0.525zm-4.8530999999999995,0c-0.29369999999999996,0,-0.5346,-0.2343,-0.5346,-0.525c0,-0.28919999999999996,0.2406,-0.522,0.5346,-0.522c0.2979,0,0.5382,0.2328,0.5382,0.522c0,0.29069999999999996,-0.2403,0.525,-0.5382,0.525zm0.6492,-5.870699999999999h3.3v0.8999999999999999h-3.3c-0.3,0,-0.3,-0.8999999999999999,0,-0.8999999999999999zm5.0094,0.8109c-0.0957,-0.4626,-0.4236,-0.6486,-0.8817,-0.8349c-0.4572,-0.1857,-1.5399,-0.40800000000000003,-2.3364,-0.40800000000000003c-0.7998,0,-1.8764999999999998,0.2226,-2.3337,0.40800000000000003c-0.45749999999999996,0.1863,-0.7904999999999999,0.3723,-0.8862,0.8349l-0.3714,2.5758v3.5133h0.5355c0,1.5,1.0083,1.5,1.0083,0h4.0323c0,1.5,1.008,1.5,1.008,0h0.6159v-3.5133l-0.3906,-2.5758zm6.6183,6.117299999999999l-0.024,-0.0435l0.012,-0.0165l0.012,-0.0165c0.2244,-0.09269999999999999,0.4287,-0.207,0.6113999999999999,-0.3423c0.18209999999999998,-0.1368,0.2784,-0.336,0.3417,-0.5997c0.0063,-0.030599999999999995,0.0192,-0.10200000000000001,0.0192,-0.21089999999999998v-5.4525c0,-0.13169999999999998,-0.012899999999999998,-0.2682,-0.09029999999999999,-0.4068c-0.078,-0.14129999999999998,-0.1617,-0.2676,-0.279,-0.37979999999999997c-0.1161,-0.111,-0.28409999999999996,-0.20550000000000002,-0.4287,-0.2799c-0.1251,-0.0642,-0.402,-0.0984,-0.402,-0.1065v0.026699999999999998h0.0405h-3.9023999999999996h-0.0381v-0.021599999999999998c-0.3,0.0138,-0.2268,0.045,-0.3306,0.0954c-0.144,0.0702,-0.29369999999999996,0.1596,-0.4137,0.2685c-0.12,0.108,-0.2403,0.2307,-0.318,0.366c-0.0777,0.1377,-0.1377,0.2706,-0.1377,0.4038v5.5338c0,0.093,0.036899999999999995,0.1902,0.0819,0.2913c0.0474,0.10110000000000001,0.11159999999999999,0.1956,0.1812,0.28409999999999996c0.0696,0.09119999999999999,0.1494,0.1725,0.2313,0.24569999999999997c0.0813,0.0735,0.1626,0.1341,0.2406,0.18059999999999998c0.0375,0.015899999999999997,0.10709999999999999,0.0399,0.20520000000000002,0.07079999999999999c0.0954,0.030899999999999997,0.141,0.048,0.1338,0.0633l-1.5966,2.4183h0.9318l1.1658,-1.7999999999999998h3.2165999999999997l1.1646,1.7999999999999998h0.9438l-1.5722999999999998,-2.3718zm-2.7006,-7.5282h1.0683c0.2349,0,0.4275,0.0648,0.4275,0.3c0,0.2349,-0.1926,0.3,-0.4275,0.3h-1.0683c-0.2352,0,-0.4275,-0.06509999999999999,-0.4275,-0.3c0,-0.2352,0.1923,-0.3,0.4275,-0.3zm2.7729,2.7453c0,0.4722,-0.38249999999999995,0.8547,-0.8547,0.8547h-3.0906c-0.4722,0,-0.8547,-0.38249999999999995,-0.8547,-0.8547v-0.6909c0,-0.4719,0.38249999999999995,-0.8543999999999999,0.8547,-0.8543999999999999h3.0909c0.4719,0,0.8543999999999999,0.38249999999999995,0.8543999999999999,0.8547v0.6906zm-3.5622000000000003,3.7988999999999997c-0.1203,0.12419999999999999,-0.2709,0.186,-0.4485,0.186c-0.17909999999999998,0,-0.32489999999999997,-0.061799999999999994,-0.4383,-0.186c-0.1122,-0.12389999999999998,-0.1686,-0.2766,-0.1686,-0.45539999999999997c0,-0.16290000000000002,0.058499999999999996,-0.30449999999999994,0.1755,-0.4245c0.1161,-0.1206,0.2601,-0.1815,0.43139999999999995,-0.1815c0.17759999999999998,0,0.3282,0.0576,0.4485,0.1686c0.1203,0.11399999999999999,0.18059999999999998,0.26189999999999997,0.18059999999999998,0.44999999999999996c0,0.17099999999999999,-0.0603,0.31889999999999996,-0.18059999999999998,0.44279999999999997zm2.6685,0c-0.1203,-0.12389999999999998,-0.1812,-0.2766,-0.1812,-0.45539999999999997c0,-0.17909999999999998,0.0639,-0.3237,0.1926,-0.43770000000000003c0.12869999999999998,-0.11069999999999999,0.2781,-0.1686,0.44939999999999997,-0.1686c0.17729999999999999,0,0.3237,0.0609,0.4365,0.1815c0.1122,0.12,0.1692,0.2616,0.1692,0.4245c0,0.1788,-0.0588,0.3312,-0.1752,0.45539999999999997c-0.1173,0.12419999999999999,-0.2643,0.186,-0.44370000000000004,0.186c-0.1782,0.0006,-0.3276,-0.06119999999999999,-0.4476,-0.1857z" fill="#FFFFFF"/>
    </svg>