<svg version="1.1" xmlns="http://www.w3.org/2000/svg" xlink="http://www.w3.org/1999/xlink" x="0px" y="0px" width="15px" height="15px" viewBox="0 0 15 15" style="enable-background:new 0 0 15 15;" space="preserve">
    <path d="M7.5,4L7.5,4L7.5,5L4,5C3,5,2,6.00002,2,7.00002L2,9L1.5,9C1.22385763,9,1,9.22385763,1,9.5L1,10L5,10L5,9.5C5,9.22385763,4.77614237,9,4.5,9L4,9L4,7.00002C4,7.00002,5.6887,7.00002,7,7L7,13L4.5,13C4.22385763,13,4,13.2238576,4,13.5L4,14L12,14L12,13.5C12,13.2238576,11.7761424,13,11.5,13L9,13L9,5L9,4C9,4,11,4,11,7C11,10,14,11,14,11L14,9.5C14,9.5,12,9,12,6C12,1,8.5,1,7.5,1C7.5,1,7.5,1,7.5,1L7.5,1C6.67157288,1,6,1.67157288,6,2.5L6,2.5C6,3.32842712,6.67157288,4,7.5,4Z" fill="#FFFFFF"/>
    </svg>