<svg version="1.1" xmlns="http://www.w3.org/2000/svg" xlink="http://www.w3.org/1999/xlink" x="0px" y="0px" width="15px" height="15px" viewBox="0 0 15 15" style="enable-background:new 0 0 15 15;" space="preserve">
    <path d="M4,9.42352393L4,8.01675631C3.72428874,7.94057198,3.39095541,7.74609766,3,7.43333333C1,5.83333333,3.83580273,0.5,4.50023716,0.5C5.16993367,0.5,8,5.83333333,6,7.43333333C5.60991162,7.74540404,5.27657829,7.93937901,5,8.01525826L5,9.07091567C5.23522038,9.02439196,5.47839803,9,5.72727273,9C6.05954237,9,6.5729091,8.6198301,7.26737294,7.85949031C7.72511208,7.35834357,8.45538322,7.21273181,9.07032237,7.5L9.86716195,7.87224279C10.0493686,7.95736044,10.2271806,8.05158505,10.3999245,8.1545598L11.676389,8.91547559C11.7707571,8.97172955,11.8603296,9.03566351,11.9441974,9.10662858L12.4090909,9.5C12.7838572,9.81710998,13,10.2831368,13,10.774063L13,11.3225712C12.9553926,11.351877,12.9120083,11.3832304,12.87,11.4165781L12.4,11.817769C12.1136,12.0625933,11.6864,12.0625933,11.4,11.817769C11.25,11.7003473,11.11,11.5633552,10.96,11.4361484C10.2477,10.8546172,9.2123,10.8546172,8.5,11.4361484C8.34,11.5633552,8.19,11.7101324,8.03,11.8373393C7.7436,12.0821636,7.3164,12.0821636,7.03,11.8373393C6.87,11.7101324,6.72,11.5633552,6.56,11.4361484C5.8494,10.859999,4.8206,10.859999,4.11,11.4361484C3.95,11.5633552,3.82,11.7003473,3.66,11.817769C3.5677,11.8886134,3.4625,11.9417468,3.35,11.9743313C3.0547,12.0418488,2.7451,11.9484007,2.54,11.7297027C2.43491626,11.640872,2.32684247,11.5555664,2.21597739,11.4739131C2.53251613,10.5872035,3.17540201,9.85552882,4,9.42352393L4,9.42352393ZM9.68058925,13L9.53941075,13C9.36461961,13.0154552,9.19413321,13.0884419,9.06,13.2189599C8.92,13.3363817,8.79,13.4635885,8.64,13.5810103C7.9072,14.1540284,6.8586,14.1250643,6.16,13.5125143L5.77,13.1700342C5.66574928,13.0809172,5.54284273,13.0242391,5.41486193,13L5.12513807,13C4.99715727,13.0242391,4.87425072,13.0809172,4.77,13.1700342C4.58,13.3168114,4.41,13.4831588,4.22,13.629936C3.5157,14.1402313,2.5468,14.116062,1.87,13.5712251L1.56,13.3070262C1.4153,13.1448864,1.2172,13.0375433,1,13.0036867L1,12.0251723C1.2585,11.9938598,1.5205,12.0417092,1.75,12.1621643C2.0282,12.3306645,2.2924,12.5203985,2.54,12.7297027C2.69832485,12.8985244,2.9189203,12.9927108,3.14713932,12.995833C3.19394644,12.9943122,3.24071733,12.991111,3.28735205,12.9862268C3.30827804,12.9830538,3.32917458,12.9790928,3.35,12.9743313C3.4625,12.9417468,3.5677,12.8886134,3.66,12.817769C3.82,12.7003473,3.95,12.5633552,4.11,12.4361484C4.37661104,12.2199821,4.68801466,12.0849195,5.01059926,12.0309607C5.15163389,11.9808999,5.30462074,11.9730341,5.44941138,12.0073631C5.84554763,12.0304218,6.23587508,12.1733502,6.56,12.4361484C6.72,12.5633552,6.87,12.7101324,7.03,12.8373393C7.11185,12.9073074,7.2051999,12.9572794,7.3034766,12.9872553C7.48969881,13.000343,7.677629,12.9869352,7.86096636,12.9468578C7.92085509,12.9184943,7.97776899,12.8819881,8.03,12.8373393C8.19,12.7101324,8.34,12.5633552,8.5,12.4361484C8.75905565,12.2246519,9.06084763,12.0900744,9.37429048,12.0324158C9.47526134,12.0011828,9.58143673,11.9905417,9.68595396,12.0004926C10.1374677,11.9903929,10.5918814,12.1356115,10.96,12.4361484C11.11,12.5633552,11.25,12.7003473,11.4,12.817769C11.5270882,12.9264083,11.6819012,12.9868395,11.8398335,12.9990628C11.9322631,12.9961962,12.0248583,12.9867424,12.1168954,12.9705532C12.2187008,12.9409464,12.3154814,12.8900183,12.4,12.817769L12.87,12.4165781C13.1895,12.1629471,13.5886,12.024683,14,12.0251723L14,13.0036867C13.7374,13.0226699,13.4931,13.1422444,13.32,13.3363817C13.0483,13.6184874,12.7022,13.821627,12.32,13.9234903C11.7053,14.1010907,11.0405,13.9650772,10.55,13.56144L10.16,13.2189599C10.0258668,13.0884419,9.85538039,13.0154552,9.68058924,13L9.68058925,13ZM7.35054412,13L7.70945588,13C7.59162811,13.0279434,7.46837189,13.0279434,7.35054491,13L7.35054412,13Z" fill="#FFFFFF"/>
    </svg>