<svg version="1.1" xmlns="http://www.w3.org/2000/svg" xlink="http://www.w3.org/1999/xlink" x="0px" y="0px" width="15px" height="15px" viewBox="0 0 15 15" style="enable-background:new 0 0 15 15;" space="preserve"><path d="M13,1C14,1,14,1,14,2L14,13C14,14,14,14,13,14L2,14C1,14,1,14,1,13L1,2C1,1,1,1,2,1L13,1zM2,11L2,13L5.75,13L5.75,11L2,11zM10,11L6.25,11L6.25,13L10,13L10,11zM10,10.75L10,8.75L6.25,8.75L6.25,10.75L10,10.75zM2,8.75L2,10.75L5.75,10.75L5.75,8.75L2,8.75zM11.75,10L11,10L11,10.5L11.75,10.5L11.75,10zM13,10L12.25,10L12.25,10.5L13,10.5L13,10zM13,9L12.25,9L12.25,9.5L13,9.5L13,9zM11.75,9L11,9L11,9.5L11.75,9.5L11.75,9zM10,8.5L10,6.5L6.25,6.5L6.25,8.5L10,8.5zM2,6.5L2,8.5L5.75,8.5L5.75,6.5L2,6.5zM13,5L11,5L11,8L13,8L13,5zM10,6.25L10,4.25L6.25,4.25L6.25,6.25L10,6.25zM2,4.25L2,6.25L5.75,6.25L5.75,4.25L2,4.25zM10,4L10,2L6.25,2L6.25,4L10,4zM5.75,2L2,2L2,4L5.75,4L5.75,2z" fill="#FFFFFF"/></svg>