<svg version="1.1" xmlns="http://www.w3.org/2000/svg" xlink="http://www.w3.org/1999/xlink" x="0px" y="0px" width="15px" height="15px" viewBox="0 0 15 15" style="enable-background:new 0 0 15 15;" space="preserve">
    <path d="M11,11C11,11,2,11,2,11C1,11,1,9.5,2,9.5L6,9.5C7,9,7.5,9,8,9C8,9,10.5,9,10.5,9C10.5,10,10.5,10.5,11,11zM12.5,11C13.328,11,14,10.328,14,9.5C14,8.672,13.328,8,12.5,8C11.672,8,11,8.672,11,9.5C11,10.328,11.672,11,12.5,11z" fill="#FFFFFF"/> <path d="M14.5,12C15,12,15,14,14.5,14L0.5,14C0,14,0,12,0.5,12L14.5,12z" fill="#FFFFFF"/> <path d="M8.75,0C8.75,0,8.75,1.25,9,1.5C9.25,1.75,10.5,1.75,10.5,1.75C10.5,1.75,9.5,2.75,9.5,3C9.5,3.25,10.5,4.25,10.5,4.25C10.5,4.25,9.25,4.25,9,4.5C8.75,4.75,8.75,6,8.75,6C8.75,6,7.75,5,7.5,5C7.25,5,6.25,6,6.25,6C6.25,6,6.25,4.75,6,4.5C5.75,4.25,4.5,4.25,4.5,4.25C4.5,4.25,5.5,3.25,5.5,3C5.5,2.75,4.5,1.75,4.5,1.75C4.5,1.75,5.75,1.75,6,1.5C6.25,1.25,6.25,0,6.25,0C6.25,0,7.25,1,7.5,1C7.75,1,8.75,0,8.75,0zM7.5,1.75C6.75,1.75,6.25,2.25,6.25,3C6.25,3.75,6.75,4.25,7.5,4.25C8.25,4.25,8.75,3.75,8.75,3C8.75,2.25,8.25,1.75,7.5,1.75zM7.5,4C8.052,4,8.5,3.552,8.5,3C8.5,2.448,8.052,2,7.5,2C6.948,2,6.5,2.448,6.5,3C6.5,3.552,6.948,4,7.5,4z" fill="#FFFFFF"/> <path d="M5.139,5.292C5.332,5.411,5.285,5.524,5.208,5.639L4.208,7.139C4.131,7.254,3.976,7.285,3.861,7.208C3.746,7.131,3.715,6.976,3.792,6.861C3.792,6.861,4.69,5.516,4.792,5.361C4.875,5.236,5.047,5.236,5.139,5.292zM10.208,5.361C10.103,5.238,9.984,5.188,9.861,5.292C9.738,5.396,9.715,5.524,9.792,5.639L10.792,7.139C10.869,7.254,11.024,7.285,11.139,7.208C11.254,7.131,11.285,6.976,11.208,6.861C11.208,6.861,10.312,5.484,10.208,5.361zM7.5,6.25C7.362,6.25,7.25,6.362,7.25,6.5L7.25,8C7.25,8.138,7.362,8.25,7.5,8.25C7.638,8.25,7.75,8.138,7.75,8L7.75,6.5C7.75,6.362,7.638,6.25,7.5,6.25z" fill="#FFFFFF"/>
    </svg>