<svg version="1.1" xmlns="http://www.w3.org/2000/svg" xlink="http://www.w3.org/1999/xlink" x="0px" y="0px" width="15px" height="15px" viewBox="0 0 15 15" style="enable-background:new 0 0 15 15;" space="preserve">
    <path d="M13.251,5.5926c0.6354,0,1.149,-0.5196,1.149,-1.1592c0,-0.6389999999999999,-0.5136,-1.1556,-1.149,-1.1556c-0.6324,0,-1.1472,0.5163,-1.1472,1.1556s0.5147999999999999,1.1592,1.1472,1.1592zm-0.3237,7.931399999999999l-12.090300000000001,-7.1589l-0.237,0.4086l12.0849,7.160699999999999c0.5540999999999999,0.33149999999999996,1.2692999999999999,0.15059999999999998,1.5996,-0.41009999999999996l-0.40109999999999996,-0.24330000000000002c-0.1971,0.3351,-0.6273000000000001,0.4416,-0.9561,0.243zm1.1624999999999999,-5.3742l-2.0562,-1.2102l-0.2373,-3.1008c-0.035399999999999994,-0.37110000000000004,-0.2355,-0.7041,-0.5267999999999999,-0.9093l-2.9613,-1.7676c-0.6983999999999999,-0.47369999999999995,-1.6424999999999998,-0.2874,-2.1134999999999997,0.4206c-0.2592,0.3864,-0.3306,0.8750999999999999,-0.2034,1.2716999999999998l0.8034,2.6531999999999996l-2.4237,0.7794c-0.30329999999999996,0.12299999999999998,-0.5376,0.41009999999999996,-0.5781,0.7623c-0.06269999999999999,0.5163,0.3186,0.8583000000000001,0.8321999999999999,0.9192c0.11699999999999999,0.0141,0.1947,-0.0198,0.30329999999999996,-0.0474l3.3084000000000002,-1.1043c0.2427,-0.08879999999999999,0.5079,-0.33180000000000004,0.5337,-0.5436c0.0189,-0.1539,0.0678,-0.2838,0.035699999999999996,-0.3762l-0.5034,-1.8153l1.9895999999999998,1.1934l0.2406,1.7403c0.0207,0.30419999999999997,0.1581,0.5229,0.3903,0.6528l2.6001,1.5315c0.2844,0.1575,0.6437999999999999,0.05159999999999999,0.7995,-0.2391c0.1584,-0.288,0.051300000000000005,-0.6537,-0.2331,-0.8106z" fill="#FFFFFF"/>
    </svg>