<svg version="1.1" xmlns="http://www.w3.org/2000/svg" xlink="http://www.w3.org/1999/xlink" x="0px" y="0px" width="15px" height="15px" viewBox="0 0 15 15" style="enable-background:new 0 0 15 15;" space="preserve">
    <path d="M8,12C7.448,12,7,11.552,7,11C7,10.448,7.448,10,8,10C8.552,10,9,10.448,9,11C9,11.552,8.552,12,8,12zM6,10C6.552,10,7,9.552,7,9C7,8.448,6.552,8,6,8C5.448,8,5,8.448,5,9C5,9.552,5.448,10,6,10zM4,8C4.552,8,5,7.552,5,7C5,6.448,4.552,6,4,6C3.448,6,3,6.448,3,7C3,7.552,3.448,8,4,8zM8,8C8.552,8,9,7.552,9,7C9,6.448,8.552,6,8,6C7.448,6,7,6.448,7,7C7,7.552,7.448,8,8,8zM4,12C4.552,12,5,11.552,5,11C5,10.448,4.552,10,4,10C3.448,10,3,10.448,3,11C3,11.552,3.448,12,4,12zM10,5L10,13L2,13L2,5L10,5zM10,3.5L2,3.5C1.172,3.5,0.5,4.172,0.5,5L0.5,13C0.5,13.828,1.172,14.5,2,14.5L10,14.5C10.828,14.5,11.5,13.828,11.5,13L11.5,5C11.5,4.172,10.828,3.5,10,3.5zM13,1.25L5,1.25C4.586,1.25,4.25,1.586,4.25,2C4.25,2.414,4.586,2.75,5,2.75L12.25,2.75L12.25,10C12.25,10.414,12.586,10.75,13,10.75C13.414,10.75,13.75,10.414,13.75,10L13.75,2C13.75,1.586,13.414,1.25,13,1.25z" fill="#FFFFFF"/>
    </svg>