<svg version="1.1" xmlns="http://www.w3.org/2000/svg" xlink="http://www.w3.org/1999/xlink" x="0px" y="0px" width="15px" height="15px" viewBox="0 0 15 15" style="enable-background:new 0 0 15 15;" space="preserve"><path d="M12.4338,9.246c-0.2991,0,-0.5847,0.07139999999999999,-0.8379,0.1944c-0.2502,0.11249999999999999,-0.5258999999999999,0.18059999999999998,-0.8154,0.18059999999999998c-0.28859999999999997,0,-0.5646,-0.0681,-0.8144999999999999,-0.18059999999999998c-0.2535,-0.12299999999999998,-0.5390999999999999,-0.1944,-0.8379,-0.1944c-0.2958,0,-0.5817,0.07139999999999999,-0.8382,0.1944c-0.24689999999999998,0.11249999999999999,-0.5223,0.18059999999999998,-0.8115,0.18059999999999998c-0.2895,0,-0.5688,-0.0681,-0.8160000000000001,-0.18059999999999998c-0.2532,-0.12299999999999998,-0.5388,-0.1944,-0.8382,-0.1944c-0.2988,0,-0.5843999999999999,0.07139999999999999,-0.8375999999999999,0.1944c-0.24989999999999998,0.11249999999999999,-0.5256,0.18059999999999998,-0.8132999999999999,0.18059999999999998c-0.28919999999999996,0,-0.5651999999999999,-0.0681,-0.8151,-0.18059999999999998c-0.25289999999999996,-0.12299999999999998,-0.5355,-0.1944,-0.8343,-0.1944c-0.2994,0,-0.5706,0.07139999999999999,-0.8240999999999999,0.1944c-0.24929999999999997,0.1128,-0.49979999999999997,0.18059999999999998,-0.7998,0.18059999999999998v1.2635999999999998c0.3,0,0.5505,-0.0687,0.8004,-0.18089999999999998c0.2532,-0.12269999999999999,0.5318999999999999,-0.1941,0.8312999999999999,-0.1941c0.2988,0,0.5778,0.07139999999999999,0.8307,0.1941c0.21059999999999998,0.0954,0.4419,0.1494,0.6819000000000001,0.1671l-1.0128,1.0449c-0.3222,-0.20729999999999998,-0.75,-0.17009999999999997,-1.0292999999999999,0.1197l-1.1601,1.2018c-0.3222,0.3339,-0.32249999999999995,0.8747999999999999,0,1.212c0.3252,0.3339,0.8478,0.3339,1.1694,0l1.1603999999999999,-1.2015c0.2631,-0.2733,0.3087,-0.6812999999999999,0.14429999999999998,-1.005l1.395,-1.4436c0.0954,-0.0312,0.1872,-0.054599999999999996,0.276,-0.0954c0.2532,-0.12269999999999999,0.5390999999999999,-0.1941,0.8375999999999999,-0.1941c0.2994,0,0.585,0.07139999999999999,0.8382,0.1941c0.24719999999999998,0.1122,0.5265,0.18089999999999998,0.8160000000000001,0.18089999999999998c0.28919999999999996,0,0.5643,-0.0687,0.8115,-0.18089999999999998c0.2562,-0.12269999999999999,0.5424,-0.1941,0.8382,-0.1941c0.2988,0,0.5843999999999999,0.07139999999999999,0.8379,0.1941c0.24989999999999998,0.1122,0.5258999999999999,0.18089999999999998,0.8144999999999999,0.18089999999999998c0.2895,0,0.5651999999999999,-0.0687,0.8154,-0.18089999999999998c0.2532,-0.12269999999999999,0.5388,-0.1941,0.8379,-0.1941c0.2985,0,0.5883,0.07139999999999999,0.8444999999999999,0.1941c0.24599999999999997,0.11249999999999999,0.5211,0.18089999999999998,0.8211,0.18089999999999998v-1.2635999999999998c-0.3,0,-0.5751,-0.0681,-0.8214,-0.18059999999999998c-0.2565,-0.12269999999999999,-0.5463,-0.1944,-0.8447999999999999,-0.1944zm0.5619,-6.1788l1.1601,-1.2021c0.3252,-0.3369,0.3252,-0.8786999999999999,0,-1.2126c-0.3222,-0.3369,-0.8481,-0.3369,-1.17,0l-1.1598,1.2021c-0.2796,0.2895,-0.31529999999999997,0.7323,-0.11159999999999999,1.0626l-1.4427,1.497l-2.8655999999999997,-1.1000999999999999c-0.07529999999999999,-0.044399999999999995,-0.1545,-0.0816,-0.243,-0.10919999999999999c-0.6252,-0.1938,-1.2857999999999998,0.1737,-1.4732999999999998,0.8211l-0.8805,3.0675l-0.017699999999999997,0.1065h-3.8915999999999995v1.6220999999999999c0.3,0,0.4209,-0.051300000000000005,0.6149999999999999,-0.1395c0.3186,-0.1533,0.6672,-0.2352,1.0158,-0.2352c0.348,0,0.6966,0.0819,1.0089,0.2322c0.20669999999999997,0.0951,0.41879999999999995,0.1425,0.6357,0.1425c0.21869999999999998,0,0.4311,-0.047099999999999996,0.6285000000000001,-0.1395c0.32189999999999996,-0.1533,0.6735,-0.2352,1.0211999999999999,-0.2352c0.3519,0,0.6966,0.0783,1.0161,0.2322c0.2004,0.0951,0.4206,0.1425,0.6375,0.1425c0.21719999999999998,0,0.4299,-0.047099999999999996,0.6303,-0.1395c0.31889999999999996,-0.1533,0.6738,-0.2352,1.0191,-0.2352c0.35459999999999997,0,0.6966,0.0783,1.0149,0.2322c0.20400000000000001,0.0951,0.4245,0.1425,0.6375,0.1425c0.2175,0,0.4341,-0.047099999999999996,0.6312,-0.1395c0.31889999999999996,-0.1533,0.6738,-0.2352,1.0221,-0.2352c0.058499999999999996,0,0.2985,0.0189,0.5357999999999999,-0.14429999999999998c0.4203,-0.1905,0.5783999999999999,-0.2994,0.9459,-0.5327999999999999c0.303,-0.1923,0.5424,-0.5703,-0.11549999999999999,-0.5703h-5.7l1.7607,-1.7406l0.2235,0.08819999999999999c0.28259999999999996,0.10559999999999999,0.5979,-0.04409999999999999,0.7031999999999999,-0.3372c0.07229999999999999,-0.20729999999999998,0.0168,-0.4323,-0.1215,-0.582l1.3605,-1.4150999999999998c0.312,0.1707,0.7059000000000001,0.126,0.9692999999999999,-0.14609999999999998zm-5.3958,4.1328h-0.3513l0.7095,-2.4596999999999998l1.4658,0.5667l-1.8239999999999998,1.8929999999999998zm-0.0096,-5.4261l-0.1512,0.3048c-0.0987,0.20729999999999998,-0.3021,0.3213,-0.5357999999999999,0.3213h-0.3555c0.2043,0.3,0.5967,0.4895999999999999,0.9744,0.4895999999999999c0.6177,0,1.1778,-0.5223,1.1778,-1.1627999999999998v0.0732h-1.0569l-0.05279999999999999,-0.026099999999999998zm-0.6869999999999999,0.3261c0.1218,0,0.2304,-0.0759,0.2796,-0.1845l0.1479,-0.2691c0.055799999999999995,-0.1263,0.174,-0.1464,0.31229999999999997,-0.1464h1.1562c-0.1515,-0.6,-0.6932999999999999,-1.1346,-1.3337999999999999,-1.1346c-0.7598999999999999,0,-1.3745999999999998,0.6053999999999999,-1.3745999999999998,1.395c0,0.126,0.013199999999999998,0.33959999999999996,0.0462,0.33959999999999996h0.7661999999999999z" fill="#FFFFFF"/></svg>