<svg version="1.1" xmlns="http://www.w3.org/2000/svg" xlink="http://www.w3.org/1999/xlink" x="0px" y="0px" width="15px" height="15px" viewBox="0 0 15 15" style="enable-background:new 0 0 15 15;" space="preserve"><path d="M13.0899,2.9409c0.7251,0,1.3101,-0.5925,1.3101,-1.3206c0,-0.7295999999999999,-0.585,-1.3202999999999998,-1.3101,-1.3202999999999998c-0.7212,0,-1.3062,0.5907,-1.3062,1.3202999999999998c-0.0003,0.7281,0.585,1.3206,1.3062,1.3206zm-3.7898999999999994,11.459100000000001h3.5999999999999996s0.3,-0.030899999999999997,0.3,-0.3v-0.3h0.3s0.12329999999999999,0.8127,-0.5570999999999999,0.8999999999999999h-3.6429v-0.3zm-8.4,-2.6999999999999997l2.4,2.4s0.19770000000000001,0.0744,0.3873,-0.1152l0.1896,-0.1911l0.3231,0.30629999999999996s-0.5385,0.786,-1.0812,0.36210000000000003l-2.5188,-2.544l0.3,-0.2181zm9.2715,-0.9744l0.0042,2.3904c0,0.44939999999999997,0.3168,0.8132999999999999,0.762,0.8132999999999999c0.4083,0,0.7623,-0.4755,0.7623,-0.8132999999999999v-3.3263999999999996c0,-0.2316,-0.052199999999999996,-0.4419,-0.20639999999999997,-0.5901l-1.914,-1.9464000000000001l2.5758,-2.589c0.4821,-0.6072,0.2334,-1.3353,0.2334,-1.3353c-0.26489999999999997,-0.8076,-1.1706,-0.8355,-1.1706,-0.8355l-6.6087,-0.0018c-0.3513,0,-0.6377999999999999,0.28769999999999996,-0.6377999999999999,0.6440999999999999c0,0.3585,0.2874,0.6444,0.6389999999999999,0.6444l4.5636,0.0072l-1.9205999999999999,1.9313999999999998c-0.2757,0.28409999999999996,-0.4155,0.6036,-0.4155,1.0211999999999999c0,0.40109999999999996,0.1581,0.7595999999999999,0.4233,1.0214999999999999l2.9099999999999997,2.9643zm-3.3189,-2.5998c-0.0624,-0.0594,-0.1179,-0.12419999999999999,-0.16889999999999997,-0.1932l-3.8135999999999997,3.8574c-0.28859999999999997,0.23399999999999999,-0.38249999999999995,0.6462,-0.20939999999999998,0.9896999999999999c0.1986,0.3936,0.6789,0.5498999999999999,1.0686,0.3474c0.053399999999999996,-0.0282,0.1014,-0.06149999999999999,0.1473,-0.0984l3.9143999999999997,-3.9576l-0.9384,-0.9452999999999999z" fill="#FFFFFF"/></svg>