<svg version="1.1" xmlns="http://www.w3.org/2000/svg" xlink="http://www.w3.org/1999/xlink" x="0px" y="0px" width="15px" height="15px" viewBox="0 0 15 15" style="enable-background:new 0 0 15 15;" space="preserve"><path d="M8.5 9.5 10 11 11.5 9.5 14 9.5 14 10C14 11.105 13.105 12 12 12L3 12C1.895 12 1 11.105 1 10L1 9.5 8.5 9.5zM2.5 8C2.776 8 3 8.224 3 8.5 3 8.776 2.776 9 2.5 9L1.5 9C1.224 9 1 8.776 1 8.5 1 8.224 1.224 8 1.5 8L2.5 8zM6.5 8 4.5 8C4.224 8 4 8.224 4 8.5 4 8.776 4.224 9 4.5 9L6.5 9C6.776 9 7 8.776 7 8.5 7 8.224 6.776 8 6.5 8zM13.5 8 11.5 8C11.224 8 11 8.224 11 8.5 11 8.776 11.224 9 11.5 9L13.5 9C13.776 9 14 8.776 14 8.5 14 8.224 13.776 8 13.5 8zM9.5 8 8.5 8C8.224 8 8 8.224 8 8.5 8 8.776 8.224 9 8.5 9L9.5 9C9.776 9 10 8.776 10 8.5 10 8.224 9.776 8 9.5 8zM9.317 4 8.571 5.243C8.429 5.48 8.506 5.787 8.743 5.929 8.98 6.071 9.287 5.994 9.429 5.757L10.5 4 12 4C13.105 4 14 4.895 14 6L14 7.5 1 7.5 1 6C1 4.895 1.895 4 3 4L4.317 4 3.571 5.243C3.429 5.48 3.506 5.787 3.743 5.929 3.98 6.071 4.287 5.994 4.429 5.757L5.5 4 6.817 4 6.071 5.243C5.929 5.48 6.006 5.787 6.243 5.929 6.48 6.071 6.787 5.994 6.929 5.757L8 4 9.317 4z" fill="#FFFFFF"/></svg>