<svg version="1.1" xmlns="http://www.w3.org/2000/svg" xlink="http://www.w3.org/1999/xlink" x="0px" y="0px" width="15px" height="15px" viewBox="0 0 15 15" style="enable-background:new 0 0 15 15;" space="preserve">
    <path d="M13,11.5C13,13.5,12.5,15,11.5,15C11.5,15,3.5,15,3.5,15C2.5,15,2,13.5,2,11.5C6.5,14,8.5,14,13,11.5zM7.5,11C7.75,11,8,11.25,8,11.5C8,11.75,7.75,12,7.5,12C7.25,12,7,11.75,7,11.5C7,11.25,7.25,11,7.5,11zM12,10L3,10C2.5,10,2,10.5,2,11C6.5,13.5,8.5,13.5,13,11C13,10.5,12.5,10,12,10z" fill="#FFFFFF"/> <path d="M3.966,8.5C2.833,8.5,1.983,8.5,1.7,7.367C1.7,7.367,1.133,5.1,1.133,4.25C1.133,2.833,1.7,2.267,3.116,2.267C3.683,2.267,4.816,2.267,4.816,2.267C6.233,2.267,6.8,2.833,6.8,4.25C6.8,5.1,6.233,7.367,6.233,7.367C5.95,8.5,5.1,8.5,3.966,8.5zM4.533,0L3.4,0C2.833,0,2.833,0.567,2.833,0.708C3.258,0.708,3.258,1.275,2.833,1.275C2.833,1.417,2.833,1.983,3.4,1.983C3.966,1.983,3.966,1.983,4.533,1.983C5.1,1.983,5.241,1.417,5.241,1.133L5.95,1.133C5.95,1.417,6.233,1.7,6.8,1.7C7.366,1.7,7.933,1.417,7.933,0.992C7.933,0.567,7.366,0.283,6.8,0.283C6.233,0.283,5.95,0.567,5.95,0.85L5.241,0.85C5.241,0.567,5.1,0,4.533,0zM2.085,1.135C2.162,1.124,2.234,1.178,2.245,1.255C2.256,1.332,2.202,1.404,2.125,1.416L1.844,1.455C1.767,1.467,1.695,1.413,1.684,1.335C1.673,1.257,1.727,1.186,1.804,1.175L2.085,1.135zM1.244,1.255C1.321,1.244,1.393,1.298,1.403,1.375C1.415,1.453,1.361,1.524,1.283,1.536L1.003,1.575C0.926,1.587,0.854,1.533,0.842,1.455C0.832,1.378,0.886,1.306,0.963,1.295L1.244,1.255zM0.402,1.375C0.479,1.364,0.551,1.418,0.562,1.495C0.573,1.573,0.519,1.644,0.442,1.656L0.161,1.695C0.084,1.707,0.012,1.653,0.002,1.575C-0.01,1.498,0.044,1.426,0.122,1.416L0.402,1.375zM0.161,0.284L0.442,0.325C0.519,0.336,0.573,0.407,0.562,0.485C0.551,0.563,0.479,0.617,0.402,0.605L0.122,0.565C0.044,0.554,-0.01,0.482,0.002,0.405C0.012,0.328,0.084,0.274,0.161,0.285zM1.003,0.405L1.283,0.445C1.361,0.456,1.415,0.528,1.403,0.605C1.393,0.683,1.321,0.737,1.244,0.725L0.963,0.686C0.886,0.674,0.832,0.603,0.842,0.525C0.854,0.448,0.926,0.394,1.003,0.405zM1.844,0.525C1.767,0.514,1.695,0.568,1.684,0.645C1.673,0.723,1.727,0.794,1.804,0.806L2.085,0.845C2.162,0.857,2.234,0.803,2.245,0.725C2.256,0.648,2.202,0.576,2.125,0.565L1.844,0.525z" fill="#FFFFFF"/> <path d="M15,4C15,4,13.125,2,13.125,2C13.125,2,9.375,2,9.375,2C9.375,2,7.5,4,7.5,4C7.5,4,11.25,8.5,11.25,8.5C11.25,8.5,15,4,15,4zM12.797,4L13.125,2.5L14.531,4L12.797,4zM12.656,4.5L14.062,4.5L11.719,7.5L12.656,4.5zM12.422,4L11.578,2.5L12.797,2.5L12.422,4zM10.312,4.5L12.188,4.5L11.25,7.75L10.312,4.5zM10.453,4L11.25,2.5L12.047,4L10.453,4zM10.078,4L9.703,2.5L10.922,2.5L10.078,4zM10.781,7.5L8.438,4.5L9.844,4.5L10.781,7.5zM9.375,2.5L9.703,4L7.969,4L9.375,2.5z" fill="#FFFFFF"/>
    </svg>