<svg version="1.1" xmlns="http://www.w3.org/2000/svg" xlink="http://www.w3.org/1999/xlink" x="0px" y="0px" width="15px" height="15px" viewBox="0 0 15 15" style="enable-background:new 0 0 15 15;" space="preserve"><path d="M8,6.25L8,14.5C8,14.845,7.845,15,7.5,15C7.155,15,7,14.845,7,14.5L7,8L8,6.25zM3.5,0.5C3.68,0.771,6.75,4.5,6.75,4.5L5,8.75C4.841,9.142,5,9.981,5.25,9.75C5.664,9.368,8,5,8,5L12,3.8C12.524,3.655,12.882,3,12.5,3C11.946,3,7.854,3.456,7.854,3.456L4.5,0.5C4.123,0.154,3.303,0.202,3.5,0.5z" fill="#FFFFFF"/></svg>