<svg version="1.1" xmlns="http://www.w3.org/2000/svg" xlink="http://www.w3.org/1999/xlink" x="0px" y="0px" width="15px" height="15px" viewBox="0 0 15 15" style="enable-background:new 0 0 15 15;" space="preserve"><path d="M10.0006696,7.41043459C9.18660677,7.8045726,8.35328131,8,7.5,8C6.64671967,8,5.81339515,7.80457305,4.99933321,7.41043596C4.97025757,5.45516185,4,3.98501653,4,3C4,2.33333333,4.33333333,1.66666667,5,1L6,1C6.5,2,7,2.5,7.5,2.5C8,2.5,8.5,2,9,1L10,1C10.6666667,1.66666667,11,2.33333333,11,3C11,4.26311506,10.0298051,5.46341929,10.0006696,7.41043459L10.0006696,7.41043459ZM10.220489,8.41156398C10.6995797,9.37196927,11.9594167,10.2347813,14,11C14,11.6666667,13.6666667,12.3333333,13,13C12,14,11,13,10,13C9,13,9,14,7.5,14C6,14,6,13,5,13C4,13,3,14,2,13C1.33333333,12.3333333,1,11.6666667,1,11C3.04058326,10.2347813,4.30042026,9.37196927,4.77951101,8.41156398C5.65734768,8.80293829,6.56437083,9,7.5,9C8.43562917,9,9.34265232,8.80293829,10.220489,8.41156398L10.220489,8.41156398Z" fill="#FFFFFF"/></svg>