<svg version="1.1" xmlns="http://www.w3.org/2000/svg" xlink="http://www.w3.org/1999/xlink" x="0px" y="0px" width="15px" height="15px" viewBox="0 0 15 15" style="enable-background:new 0 0 15 15;" space="preserve">
    <path d="M0.7274999999999999,10.0842l-0.0135,-0.035699999999999996c0,-0.0291,0.0204,-0.0537,0.0507,-0.0537l1.4586,0.0039c0.0741,0,0.1314,-0.0609,0.1314,-0.1362c0,-0.0573,-0.027,-0.0969,-0.081,-0.129l-1.3241999999999998,-0.6696000000000001c-0.0234,-0.017699999999999997,-0.0405,-0.0462,-0.0405,-0.0789c0,-0.0252,0.0102,-0.0504,0.0237,-0.0648c0,0,3.4751999999999996,-3.2657999999999996,11.1624,-0.09960000000000001l2.1123,-1.0961999999999998c0.0201,-0.011099999999999999,0.04409999999999999,-0.0183,0.07079999999999999,-0.0183c0.08729999999999999,0,0.162,0.0792,0.162,0.1722c0,0.035699999999999996,-0.0102,0.0645,-0.024,0.0891l-1.2462,1.6472999999999998l1.2462,1.6479000000000001c0.0138,0.024900000000000002,0.024,0.056999999999999995,0.024,0.0891c0,0.0966,-0.0747,0.1755,-0.162,0.1755c-0.026699999999999998,0,-0.0507,-0.0072,-0.07079999999999999,-0.017699999999999997l-2.1123,-1.0995c0.0003,0.0003,-7.35,3.1086,-11.367600000000001,-0.32580000000000003zm2.3447999999999998,-0.6728999999999999c0.2796,0,0.5004,-0.237,0.5004,-0.5316c0,-0.29969999999999997,-0.2208,-0.5355,-0.5004,-0.5355c-0.276,0,-0.49679999999999996,0.2358,-0.49679999999999996,0.5355c0,0.2946,0.2208,0.5316,0.49679999999999996,0.5316zm6.5277,-5.511299999999999v1.7999999999999998h4.2509999999999994c0.46799999999999997,0,0.849,-0.4023,0.849,-0.8999999999999999c0,-0.5015999999999999,-0.381,-0.8999999999999999,-0.849,-0.8999999999999999h-4.2509999999999994zm-7.831199999999999,1.296l0.3876,-0.17189999999999997l0.2424,0.44070000000000004l0.39089999999999997,-0.30089999999999995l0.2796,0.4155l0.37410000000000004,-0.32249999999999995l0.30329999999999996,0.3942l0.3537,-0.34379999999999994l0.3216,0.3756l0.34049999999999997,-0.3615l0.34019999999999995,0.3615l0.34019999999999995,-0.3615l0.3369,0.3615l0.34049999999999997,-0.3615l0.33899999999999997,0.3615l0.34049999999999997,-0.3615l0.34019999999999995,0.3615l0.3369,-0.3615l0.34049999999999997,0.3615l0.34049999999999997,-0.3615l0.34019999999999995,0.3615l0.39809999999999995,-0.3615l0.4038,0.36179999999999995v-1.7832h-9v0.010799999999999999c0.3,0.519,0.9062999999999999,0.9596999999999999,1.4687999999999999,1.2852z" fill="#FFFFFF"/>
    </svg>