<svg version="1.1" xmlns="http://www.w3.org/2000/svg" xlink="http://www.w3.org/1999/xlink" x="0px" y="0px" width="15px" height="15px" viewBox="0 0 15 15" style="enable-background:new 0 0 15 15;" space="preserve"><path d="M9.16148352,5.000133L7.5,5.000133C7.22385763,5.000133,7,4.77627538,7,4.500133C7,4.22399063,7.22385763,4.000133,7.5,4.000133L9.48835319,4.000133C9.51924472,3.99941777,9.54992437,4.00159376,9.58002126,4.006502C9.66130594,4.01957702,9.73603759,4.05224588,9.79921726,4.09950964C9.84824393,4.13530594,9.89376358,4.184379,9.92860573,4.24250518C9.94434062,4.26862656,9.95775511,4.29630376,9.96856386,4.32525145L11.0385165,7.000133L11.5,7.000133C12.8807119,7.000133,14,8.11942113,14,9.500133C14,10.8808449,12.8807119,12.000133,11.5,12.000133C10.1192881,12.000133,9,10.8808449,9,9.500133C9,9.32890008,9.01721513,9.16168797,9.05000906,9.000133L8,9.000133C8,9.55241775,7.55228475,10.000133,7,10.000133L5.94999094,10.000133C5.71835578,11.1412532,4.70947896,12.000133,3.5,12.000133C2.11928813,12.000133,1,10.8808449,1,9.500133C1,8.29065405,1.85887984,7.28177723,3,7.05014206L3,7.000133L6,7.000133L9.60134865,6.09979584L9.16148352,5.000133ZM4.91464715,10.000133L4,10.000133C3.44771525,10.000133,3,9.55241775,3,9.000133L3,8.08548586C2.41740381,8.29140406,2,8.84702359,2,9.500133C2,10.3285601,2.67157288,11.000133,3.5,11.000133C4.15310941,11.000133,4.70872894,10.5827292,4.91464715,10.000133L4.91464715,10.000133ZM10.5105282,8.37274478C10.197549,8.64765497,10,9.05082397,10,9.500133C10,10.3285601,10.6715729,11.000133,11.5,11.000133C12.3284271,11.000133,13,10.3285601,13,9.500133C13,8.67170588,12.3284271,8.000133,11.5,8.000133C11.4795699,8.000133,11.4592351,8.00054144,11.4390035,8.0013506L11.9642383,9.31443766C12.066795,9.57082942,11.9420871,9.86181465,11.6856953,9.96437135C11.4293036,10.0669281,11.1383184,9.9422201,11.0357617,9.68582834L10.5105282,8.37274478L10.5105282,8.37274478ZM5,6.49897845L2,6.49897845L2,5.000133L4,5.000133C4.55228475,5.000133,5,5.44784825,5,6.000133L5,6.49897845Z" fill="#FFFFFF"/></svg>