<svg version="1.1" xmlns="http://www.w3.org/2000/svg" xlink="http://www.w3.org/1999/xlink" x="0px" y="0px" width="15px" height="15px" viewBox="0 0 15 15" style="enable-background:new 0 0 15 15;" space="preserve"><path d="M5,4L10,4L10,3L5,3L5,4ZM4,4L4,3C4,2.44771525,4.44771525,2,5,2L10,2C10.5522847,2,11,2.44771525,11,3L11,4L13,4C13.5522847,4,14,4.44771525,14,5L14,12C14,12.5522847,13.5522847,13,13,13L2,13C1.44771525,13,1,12.5522847,1,12L1,5C1,4.44771525,1.44771525,4,2,4L4,4ZM4,6C4,8.66666667,5.16666667,10.6666667,7.5,12C11,10,11,6,11,6C11,6,9,7.5,7.5,5C6.5,6.66666667,5.33333333,7,4,6ZM7.5,10.8145447L7.5,6.62876897C7.50706933,6.62180143,7.51412886,6.61479593,7.52117854,6.6077525C7.63284247,6.70842248,7.74798023,6.80024172,7.86653766,6.88323192C8.48461878,7.31588871,9.13135408,7.48260152,9.76517169,7.45031586C9.61504065,8.00015814,9.39659031,8.54184525,9.09918406,9.05168453C8.69608618,9.74270947,8.16945677,10.3370028,7.5,10.8145447L7.5,10.8145447Z" fill="#FFFFFF"/></svg>