<svg version="1.1" xmlns="http://www.w3.org/2000/svg" xlink="http://www.w3.org/1999/xlink" x="0px" y="0px" width="15px" height="15px" viewBox="0 0 15 15" style="enable-background:new 0 0 15 15;" space="preserve">
    <path d="M14.399999999999999,14.7c-0.2988,0,-0.591,-0.0681,-0.849,-0.1827c-0.26489999999999997,-0.1218,-0.5633999999999999,-0.1929,-0.876,-0.1929c-0.30929999999999996,0,-0.6081,0.07079999999999999,-0.873,0.1929c-0.2607,0.1146,-0.5498999999999999,0.1827,-0.852,0.1827c-0.3018,0,-0.591,-0.0681,-0.8492999999999999,-0.1827c-0.26489999999999997,-0.1218,-0.5637,-0.1929,-0.8763,-0.1929c-0.309,0,-0.6077999999999999,0.07079999999999999,-0.8744999999999999,0.1929c-0.2577,0.1146,-0.5478,0.1827,-0.8502,0.1827c-0.3006,0,-0.5913,-0.0681,-0.8487,-0.1827c-0.2667,-0.1218,-0.5637,-0.1929,-0.876,-0.1929c-0.3111,0,-0.6081,0.07079999999999999,-0.8744999999999999,0.1929c-0.2595,0.1146,-0.5484,0.1827,-0.8504999999999999,0.1827c-0.30269999999999997,0,-0.5913,-0.0681,-0.8502,-0.1827c-0.2643,-0.1218,-0.5637,-0.1929,-0.8747999999999999,-0.1929c-0.3126,0,-0.6102,0.07079999999999999,-0.8744999999999999,0.1929c-0.2592,0.1146,-0.5480999999999999,0.1827,-0.8504999999999999,0.1827v-1.2539999999999998c0.3024,0,0.5913,-0.0681,0.8502,-0.1827c0.2643,-0.1188,0.5622,-0.18989999999999999,0.8744999999999999,-0.18989999999999999c0.3111,0,0.6102,0.07079999999999999,0.8747999999999999,0.18989999999999999c0.2592,0.1149,0.5478,0.1827,0.8502,0.1827s0.591,-0.0681,0.8502,-0.1827c0.26639999999999997,-0.1188,0.5633999999999999,-0.18989999999999999,0.8744999999999999,-0.18989999999999999c0.3126,0,0.6096,0.07079999999999999,0.876,0.18989999999999999c0.25739999999999996,0.1149,0.5480999999999999,0.1827,0.8487,0.1827c0.3024,0,0.5925,-0.0681,0.8502,-0.1827c0.2667,-0.1188,0.5655,-0.18989999999999999,0.8744999999999999,-0.18989999999999999c0.3126,0,0.6113999999999999,0.07079999999999999,0.8763,0.18989999999999999c0.2583,0.1149,0.5475,0.1827,0.8492999999999999,0.1827c0.3021,0,0.5913,-0.0681,0.852,-0.1827c0.26489999999999997,-0.1188,0.5637,-0.18989999999999999,0.873,-0.18989999999999999c0.3126,0,0.6111,0.07079999999999999,0.876,0.18989999999999999c0.258,0.1149,0.5502,0.1827,0.849,0.1827v1.2539999999999998zm-12.318900000000001,-7.2561c0.46199999999999997,0,0.8367,-0.3684,0.8367,-0.8217c0,-0.45269999999999994,-0.37470000000000003,-0.8214,-0.8367,-0.8214c-0.4608,0,-0.8351999999999999,0.3687,-0.8351999999999999,0.8214c0,0.4536,0.3744,0.8217,0.8351999999999999,0.8217zm3.6747,3.6560999999999995h-2.3916c-0.3519,0,-0.6576000000000001,-0.16889999999999997,-0.7952999999999999,-0.4674l-0.8846999999999999,-1.9662c-0.0171,-0.0675,-0.025799999999999997,-0.12569999999999998,-0.025799999999999997,-0.1971c0,-0.4764,0.3918,-0.8574,0.8747999999999999,-0.8574l1.9427999999999999,-0.0012l1.3332,-0.594c0.0207,-0.013199999999999998,0.07529999999999999,-0.026099999999999998,0.1341,-0.026099999999999998c0.2283,0,0.41579999999999995,0.1863,0.41579999999999995,0.4095c0,0.1389,-0.07229999999999999,0.264,-0.1788,0.3384l-1.4499,0.6096c-0.0963,0.0741,-0.2784,0.051899999999999995,-0.2784,0.051899999999999995h-0.873l0.732,1.7999999999999998h1.6167c0.1596,0,0.2715,-0.0135,0.369,0.07079999999999999l1.5846,1.4477999999999998c0.22139999999999999,0.20220000000000002,0.2334,0.5267999999999999,0.027299999999999998,0.7464c-0.20759999999999998,0.2163,-0.555,0.1845,-0.7767,-0.0183l-1.3760999999999999,-1.3467zm7.4523,-2.6145c0.030599999999999995,0.051000000000000004,0.10559999999999999,0.07079999999999999,0.1752,0.07079999999999999c0.1329,0,0.2436,-0.1083,0.2436,-0.24330000000000002c0,-0.0645,-0.0315,-0.1218,-0.062099999999999995,-0.17639999999999997c-1.4946,-2.8059,-5.529599999999999,-1.971,-6.024299999999999,-1.7883c-0.08220000000000001,0.030599999999999995,-0.1305,0.1218,-0.1305,0.2133c0,0.1314,0.1098,0.24,0.2436,0.24c0.0414,0,0.061799999999999994,-0.0036,0.0978,-0.0135c3.9578999999999995,-0.8757,5.2467,1.3424999999999998,5.4567,1.6974zm0.6872999999999999,0.25379999999999997l-5.061,3.1407l-4.6076999999999995,-11.58c4.1232,0.5376,9.3657,3.6887999999999996,9.6687,8.4393z" fill="#FFFFFF"/>
    </svg>