<svg version="1.1" xmlns="http://www.w3.org/2000/svg" xlink="http://www.w3.org/1999/xlink" x="0px" y="0px" width="15px" height="15px" viewBox="0 0 15 15" style="enable-background:new 0 0 15 15;" space="preserve">
    <path d="M9,2.24957148C9,2.94034967,8.44,3.5,7.7496,3.5C7.06,3.5,6.5,2.94034967,6.5,2.24957148C6.5,1.55965033,7.06,1,7.7496,1C8.44,1,9,1.55965033,9,2.24957148ZM6.5,3.75L7.2504,3.75L11.5,6.72942857L11.5,7.41692857L11,7.41692857L8.5,5.64042857L8.5,7.41692857L9.5,9.25L10.5,11.5419286L10,12L9.5,12L8.5,9.70807143L6.5,6.95807143L6.5,4.82407143L5.2504,5.8125L4.2504,7.41692857L3.5,7.41692857L3.5,6.95807143L4.2504,5.58307143L6.5,3.75ZM6.9216,8.51928571L5.7656,12L5.2496,12L4.7496,11.5419286L6.156,7.67464286L6.9216,8.51928571ZM2,12.5L5,12.5L4,14L1,14L2,12.5ZM6.5,12.5L8.5,12.5L9.5,14L5.5,14L6.5,12.5ZM13,12.5L14,14L11,14L10,12.5L13,12.5Z" fill="#FFFFFF"/>
    </svg>