<svg version="1.1" xmlns="http://www.w3.org/2000/svg" xlink="http://www.w3.org/1999/xlink" x="0px" y="0px" width="15px" height="15px" viewBox="0 0 15 15" style="enable-background:new 0 0 15 15;" space="preserve">
    <path d="M9.375,1.958C9.375,2.764,8.675,3.417,7.812,3.417C6.95,3.417,6.25,2.764,6.25,1.958C6.25,1.153,6.95,0.5,7.812,0.5C8.675,0.5,9.375,1.153,9.375,1.958zM6.25,4L6.875,4L7.188,4L12.5,7.792L12.5,8.667L11.875,8.667L8.75,6.406L8.75,8.667L10,11L11.25,13.917L10.625,14.5L10,14.5L8.75,11.583L6.25,8.083L6.25,5.367L4.688,6.625L3.438,8.667L2.5,8.667L2.5,8.083L3.438,6.333L6.25,4zM6.777,10.07L5.332,14.5L4.687,14.5L4.062,13.917L5.82,8.995z" fill="#FFFFFF"/>
    </svg>