<svg version="1.1" xmlns="http://www.w3.org/2000/svg" xlink="http://www.w3.org/1999/xlink" x="0px" y="0px" width="15px" height="15px" viewBox="0 0 15 15" style="enable-background:new 0 0 15 15;" space="preserve"><path d="M14.1,14.400299999999998c-0.2889,0,-0.5655,-0.0657,-0.8118,-0.177c-0.2535,-0.1179,-0.5397,-0.1863,-0.8379,-0.1863c-0.2985,0,-0.5817,0.0687,-0.8382,0.1863c-0.24599999999999997,0.1113,-0.5217,0.177,-0.8118,0.177c-0.2889,0,-0.5655,-0.0657,-0.8120999999999999,-0.177c-0.2562,-0.1179,-0.5385,-0.1863,-0.8382,-0.1863c-0.2988,0,-0.5843999999999999,0.0687,-0.8382,0.1863c-0.24569999999999997,0.1113,-0.5223,0.177,-0.8112,0.177c-0.2898,0,-0.5658,-0.0657,-0.8154,-0.177c-0.2532,-0.1179,-0.5382,-0.1863,-0.8343,-0.1863c-0.2988,0,-0.585,0.0687,-0.8375999999999999,0.1863c-0.24659999999999999,0.1113,-0.5229,0.177,-0.8106,0.177c-0.2889,0,-0.5649,-0.0657,-0.8151,-0.177c-0.25289999999999996,-0.1179,-0.5388,-0.1863,-0.8346,-0.1863c-0.2994,0,-0.585,0.0687,-0.8382,0.1863c-0.24659999999999999,0.1113,-0.5258999999999999,0.177,-0.8151,0.177v-1.2153c0.2889,0,0.5685,-0.0657,0.8151,-0.177c0.2532,-0.1143,0.5390999999999999,-0.1833,0.8382,-0.1833c0.2955,0,0.5813999999999999,0.069,0.8346,0.1833c0.2502,0.1113,0.5262,0.177,0.8151,0.177c0.28769999999999996,0,0.5637,-0.0657,0.8106,-0.177c0.25289999999999996,-0.1143,0.5388,-0.1833,0.8375999999999999,-0.1833c0.2958,0,0.5811,0.069,0.8343,0.1833c0.2496,0.1113,0.5256,0.177,0.8154,0.177c0.2889,0,0.5651999999999999,-0.0657,0.8112,-0.177c0.25379999999999997,-0.1143,0.5394,-0.1833,0.8382,-0.1833c0.29969999999999997,0,0.5817,0.069,0.8382,0.1833c0.24659999999999999,0.1113,0.5232,0.177,0.8120999999999999,0.177c0.29009999999999997,0,0.5658,-0.0657,0.8118,-0.177c0.2562,-0.1143,0.5397,-0.1833,0.8382,-0.1833c0.29819999999999997,0,0.5843999999999999,0.069,0.8379,0.1833c0.24629999999999996,0.1113,0.5229,0.177,0.8118,0.177v1.2153zm-9.464699999999999,-5.9577c0.6146999999999999,0,1.1139,-0.4977,1.1139,-1.1106c0,-0.6125999999999999,-0.4992,-1.1073,-1.1139,-1.1073c-0.6132,0,-1.1124,0.4947,-1.1124,1.1073s0.4992,1.1106,1.1124,1.1106zm0.1578,3.8385c-0.17429999999999998,0.29819999999999997,-0.5589,0.3999,-0.8562,0.22319999999999998c-0.2988,-0.17339999999999997,-0.4008,-0.5570999999999999,-0.2268,-0.8555999999999999l2.5818,-4.4313c0.09419999999999999,-0.1671,0.23249999999999998,-0.3048,0.3966,-0.3963l3.3198000000000003,-2.0046l2.2544999999999997,-3.8252999999999995c0.21389999999999998,-0.3735,0.69,-0.501,1.0653,-0.2883c0.37079999999999996,0.2163,0.4992,0.6911999999999999,0.285,1.0614l-2.7011999999999996,4.5819c-0.0921,0.16740000000000002,-0.2301,0.3048,-0.39749999999999996,0.3963l-3.9176999999999995,2.4273l-1.8035999999999999,3.1113z" fill="#FFFFFF"/></svg>