<svg version="1.1" xmlns="http://www.w3.org/2000/svg" xlink="http://www.w3.org/1999/xlink" x="0px" y="0px" width="15px" height="15px" viewBox="0 0 15 15" style="enable-background:new 0 0 15 15;" space="preserve">
    <path d="M9.13015051,1.97988362C9.59372243,1.96831073,9.95246054,1.96517605,10.3208914,1.97259426C11.7610897,2.00159208,12.5906865,2.15834293,12.9047898,2.71424808C13.3685064,3.53494151,12.4668722,4.32558091,10.2236068,5.4472136C9.50383753,5.80709823,8.98625195,6.09414871,8.64655229,6.31959245C8.5959329,6.35318631,8.55030232,6.38483824,8.50960164,6.41410957C8.5966779,6.43470856,8.70004062,6.45659558,8.82198295,6.48037324C8.92544297,6.50054702,9.31678797,6.57331556,9.37637251,6.58465709C9.61678161,6.6304174,9.80993816,6.67031568,9.9984549,6.7145245C11.5872269,7.08710543,12.5,7.72989007,12.5,9L12.5,13L7.5,13L7.5,9L11.5,9C11.5,8.35001618,10.9544689,7.96584733,9.77014015,7.68811187C9.59750157,7.64762662,9.4171278,7.61036874,9.18938619,7.5670196C9.1337046,7.55642097,8.73922365,7.48306933,8.63059636,7.46188798C8.22413364,7.38263138,7.97689241,7.31844149,7.77536393,7.22474996C7.38725822,7.04431779,7.15888927,6.71062642,7.31284804,6.2844799C7.4825704,5.81470096,8.18528291,5.34834155,9.7763932,4.5527864C10.754346,4.06381003,11.4144982,3.65928557,11.7728536,3.34504522C11.9352676,3.20262506,11.9782255,3.15228551,12.0099224,3.17458636L12.0163196,3.18925692C11.8933484,3.10757482,11.2211372,2.99092303,10.3007609,2.97239162C9.90629218,2.96444915,9.51805913,2.96927199,8.98061962,2.98418268C8.79398428,2.98936068,8.66419826,2.99298442,8.57331114,2.99549709C7.60976484,4.39698454,4.75199446,8.3720657,-1.77635684e-15,14.9207406C3.91828832,6.13406611,6.02449131,1.48601553,6.31860895,0.976588823C6.75978542,0.212448761,7.6339746,-0.301691301,8.5,0.198308699C9.18785948,0.595444555,9.32422138,1.31693469,9.13015051,1.97988362L9.13015051,1.97988362ZM6,13.5L6,8.5C6,8.22385763,6.22385763,8,6.5,8C6.77614237,8,7,8.22385763,7,8.5L7,13.5C7,13.7761424,6.77614237,14,6.5,14C6.22385763,14,6,13.7761424,6,13.5ZM13,13.5L13,8.5C13,8.22385763,13.2238576,8,13.5,8C13.7761424,8,14,8.22385763,14,8.5L14,13.5C14,13.7761424,13.7761424,14,13.5,14C13.2238576,14,13,13.7761424,13,13.5ZM7.1830127,3.47939761L8.1830127,1.7473468C8.32108389,1.50820049,8.23914631,1.20240529,8,1.0643341C7.76085369,0.926262915,7.45505849,1.00820049,7.3169873,1.2473468L6.3169873,2.97939761C6.17891611,3.21854392,6.26085369,3.52433913,6.5,3.66241031C6.73914631,3.8004815,7.04494151,3.71854392,7.1830127,3.47939761L7.1830127,3.47939761Z" fill="#FFFFFF"/>
    </svg>