<svg version="1.1" xmlns="http://www.w3.org/2000/svg" xlink="http://www.w3.org/1999/xlink" x="0px" y="0px" width="15px" height="15px" viewBox="0 0 15 15" style="enable-background:new 0 0 15 15;" space="preserve"><path d="M8.6562,8.6196c0.38909999999999995,0.13169999999999998,0.8120999999999999,-0.066,0.948,-0.4461c0.1353,-0.3792,-0.0711,-0.7914,-0.46049999999999996,-0.9233999999999999c-0.3897,-0.132,-0.8127,0.0693,-0.948,0.4485c-0.1323,0.3777,0.0711,0.7928999999999999,0.46049999999999996,0.9209999999999999zm6.104399999999999,-4.7265s-2.5188,-0.29519999999999996,-7.749899999999999,-0.29519999999999996c-3.8586,0,-7.0107,0.29519999999999996,-7.0107,0.29519999999999996s1.3071,0.5607,1.0803,2.2989c0,0,1.8756,-0.2178,2.6613,1.347l3.5229,-1.0407l-0.2304,2.2895999999999996l-1.4900999999999998,0.3561c-0.132,0.0297,-0.2436,0.0924,-0.33480000000000004,0.17129999999999998l-3.2691,3.0741c-0.1929,0.17789999999999997,-0.1962,0.4782,-0.0099,0.6624c0.1827,0.18839999999999998,0.49079999999999996,0.195,0.6803999999999999,0.0168l2.4596999999999998,-2.3082l3.0135,-0.7188l-0.0204,0.0063l0.501,-0.12539999999999998l0.46049999999999996,0.5115c0.0711,0.0756,0.1725,0.1218,0.2811,0.1218l1.6218,0.0063c0.2034,0,0.3723,-0.16140000000000002,0.3723,-0.3627c0,-0.17489999999999997,-0.1251,-0.30989999999999995,-0.291,-0.34979999999999994l-1.2086999999999999,-4.0983l5.0346,-1.4856c0.2406,-0.10260000000000001,0.22019999999999998,-0.3414,-0.0744,-0.3726zm-4.1136,5.94c-0.369,0,-0.9855,-0.0032999999999999995,-1.1715,-0.0032999999999999995l-0.8738999999999999,-0.963l-0.0372,-0.026399999999999996c-0.17609999999999998,-0.201,-0.4569,-0.30629999999999996,-0.7377,-0.2409l-0.4371,0.1059l0.2337,-2.3127l1.845,-0.5438999999999999l1.1786999999999999,3.9843z" fill="#FFFFFF"/></svg>