<svg version="1.1" xmlns="http://www.w3.org/2000/svg" xlink="http://www.w3.org/1999/xlink" x="0px" y="0px" width="15px" height="15px" viewBox="0 0 15 15" style="enable-background:new 0 0 15 15;" space="preserve">
    <path d="M3.5,1C4.32842712,1,5,1.67157288,5,2.5L5,14L2,14L2,2.5C2,1.67157288,2.67157288,1,3.5,1Z" fill="#FFFFFF"/> <path d="M5,4.15C4.64101491,4.15,4.35,3.85898509,4.35,3.5C4.35,3.14101491,4.64101491,2.85,5,2.85L12.5,2.85C12.8589851,2.85,13.15,3.14101491,13.15,3.5C13.15,3.85898509,12.8589851,4.15,12.5,4.15L5,4.15Z" fill="#FFFFFF"/> <path d="M8.12125628,9.80884396C8.22682872,10.1519544,8.03426614,10.5156837,7.69115573,10.6212561C7.34804532,10.7268285,6.984316,10.534266,6.87874357,10.1911556L4.96718555,3.978592C4.86161312,3.63548159,5.0541757,3.27175228,5.39728611,3.16617984C5.74039652,3.06060741,6.10412583,3.25316999,6.20969826,3.5962804L8.12125628,9.80884396Z" fill="#FFFFFF"/> <path d="M11.3823116,6.97432155C11.6726358,7.18546641,11.7368233,7.59198741,11.5256785,7.8823116C11.3145336,8.1726358,10.9080126,8.23682332,10.6176884,8.02567845L5.36090385,4.20256242C5.07057965,3.99141755,5.00639213,3.58489656,5.217537,3.29457236C5.42868187,3.00424817,5.83520286,2.94006064,6.12552706,3.15120551L11.3823116,6.97432155Z" fill="#FFFFFF"/>
    </svg>