<svg version="1.1" xmlns="http://www.w3.org/2000/svg" xlink="http://www.w3.org/1999/xlink" x="0px" y="0px" width="15px" height="15px" viewBox="0 0 15 15" style="enable-background:new 0 0 15 15;" space="preserve">
    <path d="M11,13L4,13L4,4L5,4L5,3C5,2.44771525,5.44771525,2,6,2L9,2C9.55228475,2,10,2.44771525,10,3L10,4L11,4L11,13ZM12,13L12,4L13,4C13.5522847,4,14,4.44771525,14,5L14,12C14,12.5522847,13.5522847,13,13,13L12,13ZM3,13L2,13C1.44771525,13,1,12.5522847,1,12L1,5C1,4.44771525,1.44771525,4,2,4L3,4L3,13ZM6,4L9,4L9,3L6,3L6,4Z" fill="#FFFFFF"/>
    </svg>