<svg version="1.1" xmlns="http://www.w3.org/2000/svg" xlink="http://www.w3.org/1999/xlink" x="0px" y="0px" width="15px" height="15px" viewBox="0 0 15 15" style="enable-background:new 0 0 15 15;" space="preserve">
    <path d="M10.5,9C12,9,12.5,10,12.5,11C12.5,12,12,13,10.5,13L2,13C0.5,13,0,12,0,11C0,10,0.5,9,2,9L10.5,9zM10.75,10C10.198,10,9.75,10.448,9.75,11C9.75,11.552,10.198,12,10.75,12C11.302,12,11.75,11.552,11.75,11C11.75,10.448,11.302,10,10.75,10zM1.75,10C1.198,10,0.75,10.448,0.75,11C0.75,11.552,1.198,12,1.75,12C2.302,12,2.75,11.552,2.75,11C2.75,10.448,2.302,10,1.75,10L1.75,10zM7.75,10C7.198,10,6.75,10.448,6.75,11C6.75,11.552,7.198,12,7.75,12C8.302,12,8.75,11.552,8.75,11C8.75,10.448,8.302,10,7.75,10zM4.75,10C4.198,10,3.75,10.448,3.75,11C3.75,11.552,4.198,12,4.75,12C5.302,12,5.75,11.552,5.75,11C5.75,10.448,5.302,10,4.75,10zM14,9C14,5,15.5,5,14.5,5C13.5,5,12.5,5.5,12.5,9C12.5,12.5,13.5,13,14.5,13C15.5,13,14,13,14,9zM6.4,3C6.9,3,7,3.5,7,3.5C7,3.5,7.5,6,7.5,6L3,6L3,3C3,3,6.4,3,6.4,3zM7,2L2.5,2C2.5,2,2,2,2,2.5C2,2.5,2,6,2,6C2,6,1.5,6,1.5,6C1.5,6,1,6,1,6.454C1,6.5,1,8,1,8C1,8.5,1.5,8.5,1.5,8.5C1.5,8.5,12,8.5,12,8.5C12,8.5,12,6,11,6C11,6,8.75,6,8.75,6C8.75,6,7.85,2.65,7.85,2.65C7.85,2.65,7.75,2,7,2z" fill="#FFFFFF"/>
    </svg>