<svg version="1.1" xmlns="http://www.w3.org/2000/svg" xlink="http://www.w3.org/1999/xlink" x="0px" y="0px" width="15px" height="15px" viewBox="0 0 15 15" style="enable-background:new 0 0 15 15;" space="preserve">
    <path d="M14.3349,3.5648999999999997c-0.20639999999999997,-0.1626,-0.7598999999999999,-0.29309999999999997,-1.1742,-0.3903l-0.5607,-0.075v-1.3554l0.28709999999999997,-0.0045c0.2691,0.1365,0.6567,0.3603,0.6768,0.6603h1.0812c-0.0201,-0.6,-0.4758,-0.9785999999999999,-0.8814000000000001,-1.2792000000000001c-0.2691,-0.1995,-0.5637,-0.306,-1.1637,-0.3705v-0.7503h-0.6v0.7272c-0.6,0.0576,-0.7938,0.207,-1.0647,0.45089999999999997c-0.3543,0.31889999999999996,-0.5121,0.7191,-0.5121,1.2009c0,0.528,0.1509,0.9158999999999999,0.5136,1.1643c0.2028,0.1407,0.4632,0.2715,1.0632,0.3927v1.4685c-0.3,-0.053099999999999994,-0.3006,-0.0396,-0.4065,-0.1653c-0.10200000000000001,-0.1218,-0.1299,-0.4392,-0.1647,-0.4392h-1.0728c0,0.6,0.1623,0.8874000000000001,0.5685,1.2075c0.2928,0.2307,0.4755,0.2715,1.0755,0.3321v0.5604h0.6v-0.5508c0.6,-0.0579,1.1097,-0.21059999999999998,1.4028,-0.4608c0.3804,-0.32489999999999997,0.6915,-0.7332,0.6915,-1.2246c-0.0003,-0.4794,-0.0387,-0.8454,-0.3594,-1.0989zm-2.6295,-0.8358c-0.17459999999999998,-0.0951,-0.24180000000000001,-0.2391,-0.24180000000000001,-0.43139999999999995c0,-0.20939999999999998,0.0579,-0.3732,0.2349,-0.49019999999999997c0.0933,-0.06149999999999999,0.0015,-0.10619999999999999,0.30149999999999993,-0.1359v1.182c-0.3,-0.045599999999999995,-0.2286,-0.087,-0.2946,-0.12449999999999999zm1.3029,2.646c-0.0504,0.0174,-0.4083,0.0312,-0.4083,0.0435v-1.2501c0.6,0.05159999999999999,0.5538,0.10709999999999999,0.6534,0.16740000000000002c0.1563,0.0972,0.2349,0.2358,0.2349,0.41309999999999997c0,0.3048,-0.1605,0.5139,-0.48,0.6261zm-1.4523,3.6249h-0.16590000000000002l-1.8432,-3.3375c-0.0795,-0.14429999999999998,-0.2799,-0.2625,-0.4449,-0.2625h-5.592299999999999c-0.165,0,-0.3654,0.1182,-0.4449,0.2625l-1.8432,3.3375h-0.1656c-0.3303,0,-0.756,0.27,-0.756,0.6v3c0,0.33,0.4257,0.6,0.756,0.6h0.444v0.8999999999999999c0,0.49499999999999994,0.561,0.8999999999999999,1.056,0.8999999999999999h0.3c0.49499999999999994,0,0.744,-0.405,0.744,-0.8999999999999999v-0.8999999999999999h5.1v0.8999999999999999c0,0.49499999999999994,0.5607,0.8999999999999999,1.056,0.8999999999999999h0.3c0.49499999999999994,0,0.744,-0.405,0.744,-0.8999999999999999v-0.8999999999999999h0.756c0.33,0,0.444,-0.27,0.444,-0.6v-3c0,-0.33,-0.1143,-0.6,-0.444,-0.6zm-9.45,2.4c-0.4143,0,-0.75,-0.3357,-0.75,-0.75s0.3357,-0.75,0.75,-0.75s0.75,0.3357,0.75,0.75s-0.336,0.75,-0.75,0.75zm0.6,-2.4l1.2159,-2.4315c0.0735,-0.1479,0.2691,-0.2685,0.4341,-0.2685h3.9c0.165,0,0.3603,0.1206,0.4341,0.2685l1.2159,2.4315h-7.199999999999999zm7.8,2.4c-0.4143,0,-0.75,-0.3357,-0.75,-0.75s0.3357,-0.75,0.75,-0.75s0.75,0.3357,0.75,0.75s-0.336,0.75,-0.75,0.75z" fill="#FFFFFF"/>
    </svg>