<svg version="1.1" xmlns="http://www.w3.org/2000/svg" xlink="http://www.w3.org/1999/xlink" x="0px" y="0px" width="15px" height="15px" viewBox="0 0 15 15" style="enable-background:new 0 0 15 15;" space="preserve"><path d="M7.5,0C11.5,0,15,3.5,15,7.5C15,11.5,11.5,15,7.5,15C3.5,15,0,11.5,0,7.5C0,3.5,3.5,0,7.5,0zM7.5,1C4,1,1,4,1,7.5C1,11,4,14,7.5,14C11,14,14,11,14,7.5C14,4,11,1,7.5,1zM2.835,6.979C3.077,7.005,4.266,7.125,4.558,7.16C4.849,7.195,4.734,8.047,4.467,8.021C4.199,7.995,3.031,7.875,2.745,7.84C2.458,7.805,2.594,6.953,2.835,6.979zM10.318,6.98C10.667,6.935,11.641,6.85,12.024,6.816C12.407,6.781,12.424,7.686,12.076,7.721C11.728,7.756,10.804,7.843,10.439,7.878C10.073,7.913,9.968,7.025,10.318,6.98zM7.298,7.087C7.391,6.821,8.157,7.055,8.063,7.368C7.966,7.693,7.641,8.727,7.542,9.004C7.443,9.28,6.587,9.081,6.704,8.774C6.821,8.468,7.215,7.32,7.298,7.087zM9.466,9.513C9.76,9.621,10.844,10.031,11.081,10.133C11.318,10.236,11.031,11.062,10.771,10.94C10.448,10.834,9.453,10.453,9.156,10.321C8.859,10.19,9.172,9.406,9.466,9.513zM4.703,9.594C4.78,9.781,5.236,11.032,5.313,11.281C5.389,11.531,4.625,11.844,4.514,11.566C4.404,11.288,4.07,10.23,3.969,9.953C3.868,9.677,4.626,9.406,4.703,9.594zM6.811,10.963C7.091,11.067,8.172,11.406,8.456,11.498C8.74,11.59,8.5,12.422,8.19,12.321C7.88,12.22,6.828,11.891,6.543,11.786C6.258,11.682,6.531,10.859,6.811,10.963zM13,5C12,6,11.25,6,10.25,5C9.25,6,8.5,6,7.5,5C6.5,6,5.802,6,4.802,5C3.802,6,3,6,2,5C1.5,6,1.5,7,1.5,7.5C1.5,10.5,4,13.5,7.5,13.5C11,13.5,13.5,10.5,13.5,7.5C13.5,7,13.5,6,13,5z" fill="#FFFFFF"/></svg>