<svg version="1.1" xmlns="http://www.w3.org/2000/svg" xlink="http://www.w3.org/1999/xlink" x="0px" y="0px" width="15px" height="15px" viewBox="0 0 15 15" style="enable-background:new 0 0 15 15;" space="preserve"><path d="M10.5 10.25C11 12 10.75 14.5 10.75 14.5 10.25 15 4.75 15 4.25 14.5 4.25 14.5 4 12 4.5 10.25 5.5 11.25 9.5 11.25 10.5 10.25zM11 .5C11 0 12.5 0 12.5.5 12.5 3 9.5 5.25 7.5 9.75 7.25 9.75 6.5 8.75 6.5 8.75 8.5 4.5 11 2.5 11 .5zM10.25 5.75C9.75 6.5 9.5 6.75 9.25 7.25 9.25 8 9 8.5 8 10 7.75 10.5 9.25 10.5 9.5 10 10.5 8.75 10.75 8 10.25 5.75zM9.5.5C9.5 0 8 0 8 .477 7.75 2 8 3.25 8.5 4.5 8.75 4.25 9.25 3.5 9.5 3 9.25 2 9.25 1.5 9.5.5zM4 .5C4 3 5.5 4.5 7.5 6 7.25 6.5 7 7 6.65 7.5 4.5 5.75 2.5 3.5 2.5.5 2.5 0 4 0 4 .5zM5 6.5C4.75 8 4.5 9 5.5 10 5.75 10.25 6.75 10.5 7.5 10.25 6 9 6 8.5 6.25 7.75 6 7.5 5.5 7 5 6.5zM7 .5C7 0 5.5 0 5.5.5 5.75 1.75 6.25 2.75 6 4 6.25 4.5 6.75 5 7.25 5.25 7.75 3.5 7.25 2 7 .5z" fill="#FFFFFF"/></svg>