<svg version="1.1" xmlns="http://www.w3.org/2000/svg" xlink="http://www.w3.org/1999/xlink" x="0px" y="0px" width="15px" height="15px" viewBox="0 0 15 15" style="enable-background:new 0 0 15 15;" space="preserve">
    <path d="M13.5,1C14,1,14,1.4,14,1.4C14,1.4,14,1.8,13.5,1.8L12.5,1.8C11,4.4,11,4.4,10.084,6.082C10.5,6.5,10,8,9.5,9C8.793,10.414,8,11.5,7.378,11.345C8,11.5,8,12,8,12.5C8,13,8,14,7.5,14L7.3,14C7.286,14.219,7,14.5,6.5,14.5C6,14.5,5.698,14.219,5.7,14L3.5,14C3.435,14.395,3.062,14.5,2.75,14.5C2.469,14.5,2.075,14.369,2,14L1.5,14C0.5,14,0.5,13,1,12.5C1.5,12,2.015,12,3,12C3.5,12,4,11,5.5,11L5.5,11L6,11C5.5,10.5,6.194,9.112,7,7.5C7.5,6.5,8,5.51,9.456,5.75C12,1.01,12,1,12.5,1L13.5,1z" fill="#FFFFFF"/>
    </svg>