<svg version="1.1" xmlns="http://www.w3.org/2000/svg" xlink="http://www.w3.org/1999/xlink" x="0px" y="0px" width="15px" height="15px" viewBox="0 0 15 15" style="enable-background:new 0 0 15 15;" space="preserve">
    <path d="M6.2067,3.7179c0.594,0,1.0743,-0.4947,1.0743,-1.1106c0,-0.6093000000000001,-0.48029999999999995,-1.1073,-1.0743,-1.1073c-0.5943,0,-1.0767,0.49799999999999994,-1.0767,1.1073c0,0.6159,0.4824,1.1106,1.0767,1.1106zm1.2651,8.8821h5.1177s0.33089999999999997,0.06,0.9887999999999999,-0.48360000000000003l1.1217,-0.8442v0.9959999999999999l-1.1441999999999999,0.8814000000000001s-0.3399,0.28469999999999995,-0.9125999999999999,0.3504h-5.6004l0.429,-0.8999999999999999zm-7.128900000000001,0.8999999999999999h5.1201l0.4257,-0.8999999999999999h-5.1612l-0.4275,0.8999999999999999zm6.4044,-8.394599999999999c0,-0.6336,-0.5304,-1.1483999999999999,-1.1232,-1.1483999999999999c-0.5937,0,-1.1240999999999999,0.5147999999999999,-1.1240999999999999,1.1483999999999999v2.8077c0,0.3555,0.2598,0.7869,0.4992,0.7869h-2.4054l-1.3005,2.5749c-0.028499999999999998,0.0573,-0.041100000000000005,0.1797,-0.041100000000000005,0.24749999999999997c-0.0003,0.2304,0.3321,0.4776,0.5478,0.4776h8.7s0.3927,0.0345,0.9665999999999999,-0.447l2.3024999999999998,-1.8231l-0.8690999999999999,-1.6299s-0.1968,-0.3963,-0.9321,-0.5154l-1.7381999999999997,-0.31349999999999995l-0.9324,-1.6638l-0.0399,-0.0174c-0.1365,-0.16590000000000002,-0.25739999999999996,-0.1833,-0.5574,-0.041100000000000005v0.0036c0,0.1083,-0.1533,0.2844,-0.09269999999999999,0.4401l0.6927,1.2332999999999998v0.0099l-0.9110999999999999,1.575l-1.7889,-0.7119000000000001v-0.5988h1.5267000000000002c0.0672,0,0.1368,-0.0564,0.2031,-0.08669999999999999c0.2637,-0.10439999999999999,0.3936,-0.444,0.2919,-0.7221c-0.07529999999999999,-0.21689999999999998,-0.2667,-0.3579,-0.4659,-0.36119999999999997l-1.4115,-0.0096l0.003,-1.2149999999999999" fill="#FFFFFF"/>
    </svg>