<svg version="1.1" xmlns="http://www.w3.org/2000/svg" xlink="http://www.w3.org/1999/xlink" x="0px" y="0px" width="15px" height="15px" viewBox="0 0 15 15" style="enable-background:new 0 0 15 15;" space="preserve"><path d="M14.2128,6.5352l-3.2472,-2.9375999999999998c-0.1089,-0.1035,-0.2343,-0.1875,-0.37410000000000004,-0.24779999999999996l-2.5299,-0.8862l-1.1493,-1.6398c-0.08819999999999999,-0.1167,-0.2238,-0.2001,-0.3834,-0.2205c-0.30269999999999997,-0.033299999999999996,-0.5745,0.18059999999999998,-0.6123,0.4785c-0.0135,0.12689999999999999,0.0171,0.24749999999999997,0.0816,0.3477l1.1723999999999999,1.6695c0.054299999999999994,0.0699,0.12239999999999998,0.12359999999999999,0.20400000000000001,0.1605l1.3605,0.5286l-2.2371,1.1240999999999999c-0.3096,0.17729999999999999,-0.5337,0.4818,-0.5949,0.8432999999999999l0.0135,2.0109l-2.0654999999999997,0.9168c-0.2346,0.10679999999999999,-0.40140000000000003,0.33779999999999993,-0.4119,0.6083999999999999c-0.0069,0.1602,0.0435,0.3084,0.1299,0.4305l-1.1139,-0.417c-0.20909999999999998,-0.0789,-0.3723,-0.24569999999999997,-0.44339999999999996,-0.45809999999999995c-0.1275,-0.3735,-0.5390999999999999,-0.5741999999999999,-0.9182999999999999,-0.4482c-0.3792,0.12539999999999998,-0.5829,0.5300999999999999,-0.45569999999999994,0.9036c0.21089999999999998,0.6165,0.6869999999999999,1.104,1.3023,1.3344l9.6747,3.6191999999999998c0.6189,0.2331,1.3029,0.1812,1.8701999999999999,-0.14129999999999998c0.3471,-0.1959,0.4659,-0.6309,0.2688,-0.972c-0.20070000000000002,-0.3417,-0.6428999999999999,-0.4584,-0.9891,-0.2631c-0.1905,0.10859999999999999,-0.4257,0.1263,-0.6363,0.045899999999999996l-2.3988,-0.8978999999999999c0.24929999999999997,-0.0843,0.4386,-0.30149999999999993,0.4746,-0.5676l0.3777,-3.0078l0.003,-0.0405c0.0105,-0.21059999999999998,-0.075,-0.4047,-0.22139999999999999,-0.5382l-1.6248,-1.4187l2.4482999999999997,-1.1874l2.2743,2.0604c0.10260000000000001,0.0972,0.2385,0.1575,0.3912,0.1575c0.30629999999999996,-0.0032999999999999995,0.5510999999999999,-0.24779999999999996,0.5478,-0.5487c-0.0003,-0.1608,-0.0756,-0.3048,-0.1875,-0.40140000000000003zm-5.1039,2.1105l-0.3234,2.6403l-0.003,0.0462c-0.006,0.1371,0.0294,0.2652,0.0936,0.3756l-4.5579,-1.7058c0.05159999999999999,-0.0126,0.1023,-0.0288,0.1485,-0.05159999999999999l2.5305,-1.1247c0.1803,-0.0963,0.3162,-0.2667,0.3606,-0.47129999999999994l-0.006599999999999999,-1.2507l1.7577,1.5419999999999998z" fill="#FFFFFF"/></svg>