<svg version="1.1" xmlns="http://www.w3.org/2000/svg" xlink="http://www.w3.org/1999/xlink" x="0px" y="0px" width="15px" height="15px" viewBox="0 0 15 15" style="enable-background:new 0 0 15 15;" space="preserve">
    <path d="M8,2L8,3L9,3C10.1045695,3,11,3.8954305,11,5L11,14L9,14L9,5L6,5.00002L6,7L6.5,7C6.77614237,7,7,7.22385763,7,7.5L7,8L3,8L3,7.5C3,7.22385763,3.22385763,7,3.5,7L4,7L4,5.00002C4,4.00002,5,3,6,3L7,3L7,2L5.5,2C5.22385763,2,5,1.77614237,5,1.5C5,1.22385763,5.22385763,1,5.5,1L9.5,1C9.77614237,1,10,1.22385763,10,1.5C10,1.77614237,9.77614237,2,9.5,2L8,2Z" fill="#FFFFFF"/>
    </svg>