<svg version="1.1" xmlns="http://www.w3.org/2000/svg" xlink="http://www.w3.org/1999/xlink" x="0px" y="0px" width="15px" height="15px" viewBox="0 0 15 15" style="enable-background:new 0 0 15 15;" space="preserve"><path d="M11.5 2C11.5 2 10 8 10 8 10 8 12 8 12 8 12 8 11 13 11 13 11 13 15 6 15 6 15 6 13 6 13 6 13 6 14.5 2 14.5 2 14.5 2 11.5 2 11.5 2zM3.5 0C4.25 0 5 .75 5 1.5 5 2.25 4.25 3 3.5 3 2.75 3 2 2.25 2 1.5 2 .75 2.75 0 3.5 0zM3.5 1C3.25 1 3 1.25 3 1.5 3 1.75 3.25 2 3.5 2 3.75 2 4 1.75 4 1.5 4 1.25 3.75 1 3.5 1zM3.5 13C3.75 13 4 13.25 4 13.5 4 13.75 3.75 14 3.5 14 3.25 14 3 13.75 3 13.5 3 13.25 3.25 13 3.5 13zM3.5 12C2.75 12 2 12.75 2 13.5 2 14.25 2.75 15 3.5 15 4.25 15 5 14.25 5 13.5 5 12.75 4.25 12 3.5 12zM5.25 3.25C7.5 6.5 7.5 8.5 5.25 11.75 5 12.25 5.5 13.5 6 13 9 10 9 5 6 2 5.5 1.5 5 2.75 5.25 3.25z" fill="#FFFFFF"/></svg>