<svg version="1.1" xmlns="http://www.w3.org/2000/svg" xlink="http://www.w3.org/1999/xlink" x="0px" y="0px" width="15px" height="15px" viewBox="0 0 15 15" style="enable-background:new 0 0 15 15;" space="preserve"><path d="M15,5.5C15,5.5,11.5,1.5,11.5,1.5C11.5,1.5,3.5,1.5,3.5,1.5C3.5,1.5,0,5.5,0,5.5C0,5.5,7.5,14,7.5,14C7.5,14,15,5.5,15,5.5zM10.75,5.5L11.5,2.5L14,5.5L10.75,5.5zM10.5,6.25L13.25,6.25L8.5,12L10.5,6.25zM10,5.5L8,2.25L10.75,2.25L10,5.5zM5.5,6.25L9.5,6.25L7.5,12.5L5.5,6.25zM5.75,5.5L7.5,2.5L9.25,5.5L5.75,5.5zM5,5.5L4.25,2.25L7,2.25L5,5.5zM6.5,12L1.5,6.25L4.5,6.25L6.5,12zM3.5,2.5L4.25,5.5L1,5.5L3.5,2.5z" fill="#FFFFFF"/></svg>