<svg version="1.1" xmlns="http://www.w3.org/2000/svg" xlink="http://www.w3.org/1999/xlink" x="0px" y="0px" width="15px" height="15px" viewBox="0 0 15 15" style="enable-background:new 0 0 15 15;" space="preserve"><path d="M12.8919,10.0452c0.7551,0,1.3688999999999998,-0.6357,1.3688999999999998,-1.4214c0,-0.7815,-0.6141,-1.4142000000000001,-1.3688999999999998,-1.4142000000000001c-0.7586999999999999,0,-1.3695000000000002,0.6324,-1.3695000000000002,1.4142000000000001c-0.0003,0.7857000000000001,0.6105,1.4214,1.3695000000000002,1.4214zm1.0506,3.1701c0.06149999999999999,0.021599999999999998,0.0906,0.0321,0.159,0.0321c0.3504,0,0.6168,-0.2946,0.6168,-0.6572999999999999c0,-0.2736,-0.17309999999999998,-0.5115,-0.4038,-0.6074999999999999l-1.899,-0.7641l-1.3815000000000002,-2.5376999999999996s-0.1146,-0.2802,-0.5127,-0.4335l-4.524299999999999,-1.8764999999999998l-2.6883,-4.716c-0.1563,-0.27,-0.4431,-0.4548,-0.7725000000000001,-0.4548c-0.4977,0,-0.8994000000000001,0.4191,-0.8994000000000001,0.9345c0,0.1635,0.0414,0.31649999999999995,0.1134,0.45149999999999996l3.3375,5.8602l-2.1159,-0.8742l-0.5318999999999999,0.3576l8.453999999999999,3.4703999999999997h-0.0036l0.3465,0.5420999999999999s0.1371,0.2919,0.546,0.45869999999999994l1.05,0.41639999999999994c-0.6831,0.7071000000000001,-1.6407,0.3987,-1.6407,0.3987l-10.3224,-4.2951l-0.5697,0.3507l10.8522,4.4133c1.2528,0.4728,2.3478,-0.6612,2.3478,-0.6612v0.0036l0.4425,0.1881z" fill="#FFFFFF"/></svg>