<svg version="1.1" xmlns="http://www.w3.org/2000/svg" xlink="http://www.w3.org/1999/xlink" x="0px" y="0px" width="15px" height="15px" viewBox="0 0 15 15" style="enable-background:new 0 0 15 15;" space="preserve"><path d="M13 11.5C13 13.5 12.5 15 11.5 15 11.5 15 3.5 15 3.5 15 2.5 15 2 13.5 2 11.5 6.5 14 8.5 14 13 11.5zM7.5 11C7.75 11 8 11.25 8 11.5 8 11.75 7.75 12 7.5 12 7.25 12 7 11.75 7 11.5 7 11.25 7.25 11 7.5 11zM12 10 3 10C2.5 10 2 10.5 2 11 6.5 13.5 8.5 13.5 13 11 13 10.5 12.5 10 12 10zM3.966 8.5C2.833 8.5 1.983 8.5 1.7 7.367 1.7 7.367 1.133 5.1 1.133 4.25 1.133 2.833 1.7 2.267 3.116 2.267 3.683 2.267 4.816 2.267 4.816 2.267 6.233 2.267 6.8 2.833 6.8 4.25 6.8 5.1 6.233 7.367 6.233 7.367 5.95 8.5 5.1 8.5 3.966 8.5zM4.533 0 3.4 0C2.833 0 2.833.567 2.833.708 3.258.708 3.258 1.275 2.833 1.275 2.833 1.417 2.833 1.983 3.4 1.983 3.966 1.983 3.966 1.983 4.533 1.983 5.1 1.983 5.241 1.417 5.241 1.133L5.95 1.133C5.95 1.417 6.233 1.7 6.8 1.7 7.366 1.7 7.933 1.417 7.933.992 7.933.567 7.366.283 6.8.283 6.233.283 5.95.567 5.95.85L5.241.85C5.241.567 5.1 0 4.533 0zM2.085 1.135C2.162 1.124 2.234 1.178 2.245 1.255 2.256 1.332 2.202 1.404 2.125 1.416L1.844 1.455C1.767 1.467 1.695 1.413 1.684 1.335 1.673 1.257 1.727 1.186 1.804 1.175L2.085 1.135zM1.244 1.255C1.321 1.244 1.393 1.298 1.403 1.375 1.415 1.453 1.361 1.524 1.283 1.536L1.003 1.575C.926 1.587.854 1.533.842 1.455.832 1.378.886 1.306.963 1.295L1.244 1.255zM.402 1.375C.479 1.364.551 1.418.562 1.495.573 1.573.519 1.644.442 1.656L.161 1.695C.084 1.707.012 1.653.002 1.575-.01 1.498.044 1.426.122 1.416L.402 1.375zM.161.284.442.325C.519.336.573.407.562.485.551.563.479.617.402.605L.122.565C.044.554-.01.482.002.405.012.328.084.274.161.285zM1.003.405 1.283.445C1.361.456 1.415.528 1.403.605 1.393.683 1.321.737 1.244.725L.963.686C.886.674.832.603.842.525.854.448.926.394 1.003.405zM1.844.525C1.767.514 1.695.568 1.684.645 1.673.723 1.727.794 1.804.806L2.085.845C2.162.857 2.234.803 2.245.725 2.256.648 2.202.576 2.125.565L1.844.525zM15 4C15 4 13.125 2 13.125 2 13.125 2 9.375 2 9.375 2 9.375 2 7.5 4 7.5 4 7.5 4 11.25 8.5 11.25 8.5 11.25 8.5 15 4 15 4zM12.797 4 13.125 2.5 14.531 4 12.797 4zM12.656 4.5 14.062 4.5 11.719 7.5 12.656 4.5zM12.422 4 11.578 2.5 12.797 2.5 12.422 4zM10.312 4.5 12.188 4.5 11.25 7.75 10.312 4.5zM10.453 4 11.25 2.5 12.047 4 10.453 4zM10.078 4 9.703 2.5 10.922 2.5 10.078 4zM10.781 7.5 8.438 4.5 9.844 4.5 10.781 7.5zM9.375 2.5 9.703 4 7.969 4 9.375 2.5z" fill="#FFFFFF"/></svg>