<svg version="1.1" xmlns="http://www.w3.org/2000/svg" xlink="http://www.w3.org/1999/xlink" x="0px" y="0px" width="15px" height="15px" viewBox="0 0 15 15" style="enable-background:new 0 0 15 15;" space="preserve">
    <path d="M4,12.014L3,10.965L3,4.147L5.5,1L9.5,1L12,4.147L12,10.965L11,12.014L9.5,12.014L9.5,13.587L8.5,13.587L8.5,12.539L8,12.014L7,12.014L6.5,12.539L6.5,13.587L5.5,13.587L5.5,12.014L4,12.014zM11,8.343L9,8.343L8.5,9.392L8.5,9.916L10.5,9.916L11,9.392L11,8.343zM6,8.343L4,8.343L4,9.392L4.5,9.916L6.5,9.916L6.5,9.392L6,8.343zM10.5,4.147L4.5,4.147L4,4.671L4,6.769L11,6.769L11,4.671L10.5,4.147zM9.5,1.524L5.5,1.524L5.5,2.573L9.5,2.573L9.5,1.524zM8,12.539L7,12.539L7,14.112L6,14.112L6,14.636L9,14.636L9,14.112L8,14.112L8,12.539z" fill="#FFFFFF"/>
    </svg>