<svg version="1.1" xmlns="http://www.w3.org/2000/svg" xlink="http://www.w3.org/1999/xlink" x="0px" y="0px" width="15px" height="15px" viewBox="0 0 15 15" style="enable-background:new 0 0 15 15;" space="preserve"><path d="M8.57 0C9 0 9 .5 9 .5L9 1.5C9 1.5 9.5 1.5 9.5 1.5 10 1.5 10 2 10 2L12 2C13 2 13 2 13 3L13 7.5C13 7.5 13.499 7.5 13.5 8 13.5 8 14 8 14 8L14 4.5C13.625 4.391 13.5 4.125 13.5 3.75 13.5 3.375 13.875 3 14.25 3 14.625 3 15 3.375 15 3.75 15 4.125 14.828 4.359 14.5 4.5 14.5 4.5 14.5 8.75 14.5 8.75 14.5 9 14.25 9 14.25 9L13.5 9C13.5 9.5 13 9.5 13 9.5L13 14C13 15 13 15 12 15 12 15 3 15 3 15 2 15 2 15 2 14L2 3C2 2 2 2 3 2L5 2C5 2 5 1.5 5.5 1.5 5.5 1.5 6 1.5 6 1.5L6 .5C6 .5 6 0 6.5 0L8.57 0zM10 13 5 13 5 14 10 14 10 13zM10 10 9 10 9 11 10 11 10 10zM6 10 5 10 5 11 6 11 6 10zM8 10 7 10 7 11 8 11 8 10zM12 4 9.25 4 9.25 9 12 9 12 4zM8.825 4 6.125 4 6.125 9 8.825 9 8.825 4zM5.75 4 3 4C3 4 3 9 3 9L5.75 9 5.75 4zM7 .325C6.5.325 6.5.5 6.5.75 6.5.75 6.5 1.5 6.5 1.5 6.75.75 7.25.5 8 .325 8 .325 7 .325 7 .325zM9.5 4.75C9.5 4.75 10 4.75 10 4.75 10 5 11.375 4.75 11.375 4.75 11.375 4.75 11.875 4.75 11.625 5 11.375 5.25 10.875 7 11.125 8 11.125 8 10 8 10 8 10 6.75 10.625 5.75 10.625 5.75 10.625 5.75 10 5.5 10 5.75 10 5.75 9.5 5.75 9.5 5.75 9.5 5.75 9.5 4.75 9.5 4.75zM6.325 4.75C6.325 4.75 6.825 4.75 6.825 4.75 6.825 5 8.25 4.75 8.25 4.75 8.25 4.75 8.75 4.75 8.5 5 8.25 5.25 7.75 7 8 8 8 8 6.825 8 6.825 8 6.825 6.75 7.5 5.75 7.5 5.75 7.5 5.75 6.825 5.5 6.825 5.75 6.825 5.75 6.325 5.75 6.325 5.75 6.325 5.75 6.325 4.75 6.325 4.75zM3.25 4.75C3.25 4.75 3.75 4.75 3.75 4.75 3.75 5 5.125 4.75 5.125 4.75 5.125 4.75 5.625 4.75 5.375 5 5.125 5.25 4.625 7 4.875 8 4.875 8 3.75 8 3.75 8 3.75 6.75 4.375 5.75 4.375 5.75 4.375 5.75 3.75 5.5 3.75 5.75 3.75 5.75 3.25 5.75 3.25 5.75 3.25 5.75 3.25 4.75 3.25 4.75z" fill="#FFFFFF"/></svg>