<svg version="1.1" xmlns="http://www.w3.org/2000/svg" xlink="http://www.w3.org/1999/xlink" x="0px" y="0px" width="15px" height="15px" viewBox="0 0 15 15" style="enable-background:new 0 0 15 15;" space="preserve"><path d="M6 .5C6 .5 6 2 6 2 6 2 8.5 2 8.5 2 9 2 9 2.5 9 2.5L9 12.5C9 12.5 9 13 8.5 13 8.5 13 6 13 6 13L6 14.5C6 15 3 15 3 14.5L3 13C3 13 .5 13 .5 13 0 13 0 12.5 0 12.5L0 2.5C0 2.5 0 2 .5 2 .5 2 3 2 3 2 3 2 3 .5 3 .5 3 0 6 0 6 .5zM4.5 4C2.5 4 1 5.5 1 7.5 1 9.5 2.5 11 4.5 11 6.5 11 8 9.5 8 7.5 8 5.5 6.5 4 4.5 4zM3 9C3 9 6 9 6 9 6.5 9 6.5 10 6 10 6 10 3 10 3 10 2.5 10 2.5 9 3 9zM2.5 5.5C2.25 5.75 3.6 7.1 3.6 7.1 3.6 7.1 3.5 7.3 3.5 7.5 3.5 8 3.875 8.5 4.5 8.5 5.125 8.5 5.5 8 5.5 7.5 5.5 7 5.125 6.5 4.5 6.5 4.2 6.5 4.1 6.6 4.1 6.6 4.1 6.6 2.75 5.25 2.5 5.5zM12.5 3.5C12.75 3.5 15 6.5 15 8.5 15 10 13.5 11 12.5 11 11.5 11 10 10 10 8.5 10 6.5 12.25 3.5 12.5 3.5zM10.5 8.5C10.5 9.5 11.5 10.5 12.5 10.5 11.5 10 11 9.5 10.5 8.5z" fill="#FFFFFF"/></svg>