<svg version="1.1" xmlns="http://www.w3.org/2000/svg" xlink="http://www.w3.org/1999/xlink" x="0px" y="0px" width="15px" height="15px" viewBox="0 0 15 15" style="enable-background:new 0 0 15 15;" space="preserve">
    <path d="M2,4C2.55228475,4,3,4.44771525,3,5L3,11L1,11L1,5C1,4.44771525,1.44771525,4,2,4Z" fill="#FFFFFF"/> <path d="M13,4C13.5522847,4,14,4.44771525,14,5L14,11L12,11L12,5C12,4.44771525,12.4477153,4,13,4Z" fill="#FFFFFF"/> <path d="M0.653312377,6.02003143C0.366106947,5.82856115,0.288498279,5.44051781,0.479968566,5.15331238C0.671438853,4.86610695,1.05948219,4.78849828,1.34668762,4.97996857C3.24482196,6.24539146,5.29104973,6.875,7.5,6.875C9.70895027,6.875,11.755178,6.24539146,13.6533124,4.97996857C13.9405178,4.78849828,14.3285611,4.86610695,14.5200314,5.15331238C14.7115017,5.44051781,14.6338931,5.82856115,14.3466876,6.02003143C12.244822,7.42127521,9.95771639,8.125,7.5,8.125C5.04228361,8.125,2.75517804,7.42127521,0.653312377,6.02003143Z" fill="#FFFFFF"/>
    </svg>