<svg version="1.1" xmlns="http://www.w3.org/2000/svg" xlink="http://www.w3.org/1999/xlink" x="0px" y="0px" width="15px" height="15px" viewBox="0 0 15 15" style="enable-background:new 0 0 15 15;" space="preserve"><path d="M11.5039 1 10 1C9.2616 1 8.6238 1.4047 8.2774 2L3.5 2 2.5 3 3.5 4 4.5 3 5.5 4 6.5 3 7.5 4 8.2774 4C8.6238 4.5953 9.2616 5 10 5L11.4982 5C11.7753 5 12 4.7753 12 4.4982L12 1.4961C12 1.2221 11.7779 1 11.5039 1ZM11 3.5C11 3.7761 10.7761 4 10.5 4 10.2239 4 10 3.7761 10 3.5L10 2.5C10 2.2238 10.2239 2 10.5 2 10.7761 2 11 2.2238 11 2.5L11 3.5ZM12 14 12 8 3 8 3 14 1.5 14 1.5 6.5 13.5 6.5 13.5 14 12 14ZM4.5 9 10.5 9C10.7761424 9 11 9.22385763 11 9.5 11 9.77614237 10.7761424 10 10.5 10L4.5 10C4.22385763 10 4 9.77614237 4 9.5 4 9.22385763 4.22385763 9 4.5 9ZM4.5 13 10.5 13C10.7761424 13 11 13.2238576 11 13.5 11 13.7761424 10.7761424 14 10.5 14L4.5 14C4.22385763 14 4 13.7761424 4 13.5 4 13.2238576 4.22385763 13 4.5 13ZM4.5 11 10.5 11C10.7761424 11 11 11.2238576 11 11.5 11 11.7761424 10.7761424 12 10.5 12L4.5 12C4.22385763 12 4 11.7761424 4 11.5 4 11.2238576 4.22385763 11 4.5 11Z" fill="#FFFFFF"/></svg>