<svg version="1.1" xmlns="http://www.w3.org/2000/svg" xlink="http://www.w3.org/1999/xlink" x="0px" y="0px" width="15px" height="15px" viewBox="0 0 15 15" style="enable-background:new 0 0 15 15;" space="preserve"><path d="M5.547,1.671C5.801,1.986,5.989,2.328,6.109,2.697C6.23,3.066,6.267,3.811,6.267,3.811C6.267,3.811,6.173,4.548,6.027,4.9C5.877,5.251,5.662,5.57,5.377,5.854C5.191,6.04,4.5,6.5,4,6.5C4,6.5,4,12,4,13.5C4,15,2,15,2,13.5C2,12.5,2,6.5,2,6.5C1.5,6.5,1.11,5.999,0.932,5.827C0.629,5.525,0.399,5.178,0.241,4.787C0.083,4.395,0.002,4.002,0,3.604C-0.002,3.207,0.071,2.817,0.221,2.432C0.369,2.049,0.593,1.707,0.893,1.406C1.181,1.119,1.513,0.897,1.893,0.74C2.274,0.585,2.667,0.504,3.073,0.5L1.796,3.282L2.696,4.577L4.25,4.443zM15,0.5L13.5,0.5C13.5,1,13,1.5,12.5,1.5C12,1.5,11.077,1.5,10,1.5C8.5,1.5,7,3.553,7,5C8,4.053,8.385,4,10,4L10,13.5C10,15,12,15,12,13.5C12,12,12,4,12,4L12.5,4C13,4,13.5,4.5,13.5,5L15,5C15,5,15,0.5,15,0.5z" fill="#FFFFFF"/></svg>