<svg version="1.1" xmlns="http://www.w3.org/2000/svg" xlink="http://www.w3.org/1999/xlink" x="0px" y="0px" width="15px" height="15px" viewBox="0 0 15 15" style="enable-background:new 0 0 15 15;" space="preserve"><path d="M13,0.5C14,1,13,12.5,12.5,12.5C11,13,8.5,13,8.5,13C8.5,13,8.5,14.5,8.5,14.5C8.5,15,6.5,15,6.5,14.5C6.5,14.5,6.5,13,6.5,13C6.5,13,4,13,2.5,12.5C2,12.5,1,1,2,0.5C3,0,12,0,13,0.5zM5.667,6.111C5.667,6.111,5.451,6.107,5.225,6.22C4.999,6.333,4.75,6.62,4.75,7.028C4.75,8.861,4.75,9.167,4.444,9.167C4.444,9.167,4.139,9.167,4.139,9.472L4.139,10.694C4.139,10.694,4.139,11,4.444,11C4.75,11,4.75,10.694,4.75,10.694L4.75,9.778C4.966,9.778,5.172,9.694,5.361,9.595L5.361,10.694C5.361,10.694,5.361,11,5.667,11C5.972,11,5.972,10.694,5.972,10.694L5.972,9.167L7.806,9.167L8.211,10.384C8.417,11,8.722,11,8.722,11L9.028,11C9.028,11,9.333,11,9.333,10.694C9.333,10.389,9.028,10.389,9.028,10.389L9.028,8.861C9.028,8.317,8.641,8.094,8.417,7.944L7.499,7.333L5.361,7.333L5.361,7.028C5.361,6.824,5.417,6.806,5.497,6.766C5.577,6.726,5.667,6.722,5.667,6.722C6.08,6.728,6.08,6.105,5.667,6.111zM8.722,5.5C8.722,5.5,8.511,5.523,8.417,5.806L8.111,7.028L9.333,7.944L10.25,7.944C10.861,7.944,10.861,7.333,10.861,7.333L9.944,6.417C9.639,6.111,9.333,6.111,9.028,6.111L9.028,5.805C9.028,5.806,9.028,5.5,8.722,5.5zM10,1.5C10,1.5,5,1.5,5,1.5C4.391,1.5,4,3.5,4.5,3.5C4.5,3.5,10.5,3.5,10.5,3.5C11,3.5,10.5,1.5,10,1.5z" fill="#FFFFFF"/></svg>