<svg version="1.1" xmlns="http://www.w3.org/2000/svg" xlink="http://www.w3.org/1999/xlink" x="0px" y="0px" width="15px" height="15px" viewBox="0 0 15 15" style="enable-background:new 0 0 15 15;" space="preserve"><path d="M4,3C4,1.9,4.9,1,6,1L13,1C14.1,1,15,1.9,15,3L15,11C15,12,14,12,14,12L14,13C14,13.55,13.55,14,13,14C12.45,14,12,13.55,12,13L12,12L7,12L7,13C7,13.55,6.55,14,6,14C5.45,14,5,13.55,5,13L5,12C4,12,4,11,4,11L4,3ZM5.5,4C5.22,4,5,4.22,5,4.5L5,7.5C5,7.78,5.22,8,5.5,8L8.5,8C8.78,8,9,7.78,9,7.5L9,4.5C9,4.22,8.78,4,8.5,4L5.5,4ZM10.5,4C10.22,4,10,4.22,10,4.5L10,7.5C10,7.78,10.22,8,10.5,8L13.5,8C13.78,8,14,7.78,14,7.5L14,4.5C14,4.22,13.78,4,13.5,4L10.5,4ZM5,2.5C5,2.91,5.34,3.25,5.75,3.25C6.16,3.25,6.5,2.91,6.5,2.5C6.5,2.09,6.16,1.75,5.75,1.75C5.34,1.75,5,2.09,5,2.5ZM12.5,2.5C12.5,2.91,12.84,3.25,13.25,3.25C13.66,3.25,14,2.91,14,2.5C14,2.09,13.66,1.75,13.25,1.75C12.84,1.75,12.5,2.09,12.5,2.5ZM10.5,2.5C10.5,2.91,10.84,3.25,11.25,3.25C11.66,3.25,12,2.91,12,2.5C12,2.09,11.66,1.75,11.25,1.75C10.84,1.75,10.5,2.09,10.5,2.5ZM7,2.5C7,2.91,7.34,3.25,7.75,3.25C8.16,3.25,8.5,2.91,8.5,2.5C8.5,2.09,8.16,1.75,7.75,1.75C7.34,1.75,7,2.09,7,2.5ZM6,9C5.45,9,5,9.45,5,10C5,10.55,5.45,11,6,11C6.55,11,7,10.55,7,10C7,9.45,6.55,9,6,9ZM13,9C12.45,9,12,9.45,12,10C12,10.55,12.45,11,13,11C13.55,11,14,10.55,14,10C14,9.45,13.55,9,13,9ZM1.5,10.87L1.5,12L1.47,12.16L0.97,13.66C0.89,13.92,0.6,14.06,0.34,13.97C0.08,13.89,-0.06,13.6,0.03,13.34L0.5,11.92L0.5,10.87C0.2,10.69,0,10.37,0,10L0,8.25C0,7.7,0.45,7.25,1,7.25C1.21,7.25,1.4,7.31,1.57,7.43L2.41,7.88L3.15,7.15C3.34,6.95,3.66,6.95,3.85,7.15C4.05,7.34,4.05,7.66,3.85,7.85L2.85,8.85C2.7,9.01,2.46,9.05,2.26,8.94L2,8.8L2,9.94L3.22,10.55C3.39,10.64,3.5,10.81,3.5,11L3.5,12.5C3.5,12.78,3.28,13,3,13C2.72,13,2.5,12.78,2.5,12.5L2.5,11.31L1.55,10.83C1.53,10.85,1.52,10.86,1.5,10.87ZM1,7C0.45,7,0,6.55,0,6C0,5.45,0.45,5,1,5C1.55,5,2,5.45,2,6C2,6.55,1.55,7,1,7Z" fill="#FFFFFF"/></svg>