<svg version="1.1" xmlns="http://www.w3.org/2000/svg" xlink="http://www.w3.org/1999/xlink" x="0px" y="0px" width="15px" height="15px" viewBox="0 0 15 15" style="enable-background:new 0 0 15 15;" space="preserve">
    <path d="M4.34314575,9L8.82842712,9L3.05025253,14.7781746L2.34314575,14.0710678L5.87867966,10.5355339L5.52512627,10.1819805L5.35355339,10.3535534C3.82495791,11.8821489,2.17504209,11.8821489,0.646446609,10.3535534L0.292893219,10L1,9.29289322L1.35355339,9.64644661C2.49162458,10.7845178,3.50837542,10.7845178,4.64644661,9.64644661L4.81801948,9.47487373L4.34314575,9L4.34314575,9ZM4.17157288,8L6.17157288,6L11.8284271,6L9.82842712,8L4.17157288,8ZM7.17157288,5L9.41421356,2.75735931L11.6568542,5L7.17157288,5L7.17157288,5ZM9,0.999978381L14,0.98959236L14,5.98959236L9,0.999978381Z" fill="#FFFFFF"/>
    </svg>