<svg version="1.1" xmlns="http://www.w3.org/2000/svg" xlink="http://www.w3.org/1999/xlink" x="0px" y="0px" width="15px" height="15px" viewBox="0 0 15 15" style="enable-background:new 0 0 15 15;" space="preserve">
    <path d="M12,4.5C12,4.22385763,12.2238576,4,12.5,4C12.7761424,4,13,4.22385763,13,4.5L13,12.5C13,12.7761424,12.7761424,13,12.5,13C12.2238576,13,12,12.7761424,12,12.5L12,4.5Z" fill="#FFFFFF"/> <path d="M10,3.5C10,3.22385763,10.2238576,3,10.5,3C10.7761424,3,11,3.22385763,11,3.5L11,12.5C11,12.7761424,10.7761424,13,10.5,13C10.2238576,13,10,12.7761424,10,12.5L10,3.5Z" fill="#FFFFFF"/> <path d="M8,2.5C8,2.22385763,8.22385763,2,8.5,2C8.77614237,2,9,2.22385763,9,2.5L9,12.5C9,12.7761424,8.77614237,13,8.5,13C8.22385763,13,8,12.7761424,8,12.5L8,2.5Z" fill="#FFFFFF"/> <path d="M9.5,7C9.77614237,7,10,7.22385763,10,7.5C10,7.77614237,9.77614237,8,9.5,8L5.5,8C5.22385763,8,5,7.77614237,5,7.5C5,7.22385763,5.22385763,7,5.5,7L9.5,7Z" fill="#FFFFFF"/> <path d="M12.2763932,4.9472136L8.2763932,2.9472136C8.02940395,2.82371897,7.92929178,2.52338245,8.0527864,2.2763932C8.17628103,2.02940395,8.47661755,1.92929178,8.7236068,2.0527864L12.7236068,4.0527864C12.970596,4.17628103,13.0707082,4.47661755,12.9472136,4.7236068C12.823719,4.97059605,12.5233825,5.07070822,12.2763932,4.9472136Z" fill="#FFFFFF"/> <path d="M2,4.5C2,4.22385763,2.22385763,4,2.5,4C2.77614237,4,3,4.22385763,3,4.5L3,12.5C3,12.7761424,2.77614237,13,2.5,13C2.22385763,13,2,12.7761424,2,12.5L2,4.5Z" fill="#FFFFFF"/> <path d="M4,3.5C4,3.22385763,4.22385763,3,4.5,3C4.77614237,3,5,3.22385763,5,3.5L5,12.5C5,12.7761424,4.77614237,13,4.5,13C4.22385763,13,4,12.7761424,4,12.5L4,3.5Z" fill="#FFFFFF"/> <path d="M6,2.5C6,2.22385763,6.22385763,2,6.5,2C6.77614237,2,7,2.22385763,7,2.5L7,12.5C7,12.7761424,6.77614237,13,6.5,13C6.22385763,13,6,12.7761424,6,12.5L6,2.5Z" fill="#FFFFFF"/> <path d="M2.7236068,4.9472136C2.47661755,5.07070822,2.17628103,4.97059605,2.0527864,4.7236068C1.92929178,4.47661755,2.02940395,4.17628103,2.2763932,4.0527864L6.2763932,2.0527864C6.52338245,1.92929178,6.82371897,2.02940395,6.9472136,2.2763932C7.07070822,2.52338245,6.97059605,2.82371897,6.7236068,2.9472136L2.7236068,4.9472136Z" fill="#FFFFFF"/> <path d="M2,10L7,10L7,13L2,13L2,10ZM8,10L13,10L13,13L8,13L8,10Z" fill="#FFFFFF"/>
    </svg>