<svg version="1.1" xmlns="http://www.w3.org/2000/svg" xlink="http://www.w3.org/1999/xlink" x="0px" y="0px" width="15px" height="15px" viewBox="0 0 15 15" style="enable-background:new 0 0 15 15;" space="preserve">
    <path d="M10,8L10,14L5,14L5,8L10,8ZM11,8L12,8C12.5522847,8,13,8.44771525,13,9L13,13C13,13.5522847,12.5522847,14,12,14L11,14L11,8ZM4,8L4,14L3,14C2.44771525,14,2,13.5522847,2,13L2,9C2,8.44771525,2.44771525,8,3,8L4,8ZM9,8L9,7L6,7L6,8L5,8L5,7C5,6.44771525,5.44771525,6,6,6L9,6C9.55228475,6,10,6.44771525,10,7L10,8L9,8ZM11.5039,1C11.7779,1,12,1.2221,12,1.4961L12,4.4982C12,4.7753,11.7753,5,11.4982,5L10,5C9.2616,5,8.6238,4.5953,8.2774,4L7.5,4L6.5,3L5.5,4L4.5,3L3.5,4L2.5,3L3.5,2L8.2774,2C8.6238,1.4047,9.2616,1,10,1L11.5039,1ZM11,3.5L11,2.5C11,2.2238,10.7761,2,10.5,2C10.2239,2,10,2.2238,10,2.5L10,3.5C10,3.7761,10.2239,4,10.5,4C10.7761,4,11,3.7761,11,3.5Z" fill="#FFFFFF"/>
    </svg>