<svg version="1.1" xmlns="http://www.w3.org/2000/svg" xlink="http://www.w3.org/1999/xlink" x="0px" y="0px" width="15px" height="15px" viewBox="0 0 15 15" style="enable-background:new 0 0 15 15;" space="preserve"><path d="M12 0C13 0 13 0 13 1L13 14C13 15 13 15 12 15L3 15C2 15 2 15 2 14L2 1C2 0 2 0 3 0L12 0zM10 12 4 12 4 13 10 13 10 12zM12 9 11 9 11 9.75 12 9.75 12 9zM10 2 4 2 4 10 10 10 10 2zM12 7.5 11 7.5 11 8.25 12 8.25 12 7.5zM12 6 11 6 11 6.75 12 6.75 12 6zM12 4.5 11 4.5 11 5.25 12 5.25 12 4.5zM5 7.5C5 7.5 5.355 7 5.355 7 5.355 7 6.5 6.75 5.5 6.75 5.5 6.75 5.823 6.25 5.823 6.25 5.823 6.25 7 6 6 6 6 6 6.323 5.5 6.323 5.5 6.323 5.5 7.5 5.25 6.5 5.25 6.5 5.25 6.834 4.75 6.834 4.75 6.834 4.75 8 4.5 7 4.5 7 4.5 7.328 4 7.328 4 7.328 4 8.5 3.75 7.5 3.75 7.5 3.75 8 3 8 3 9 1.5 9.75 2.5 8.5 4.5 8.5 4.5 5.5 9 5.5 9 4.75 10 3.75 9.5 5 7.5z" fill="#FFFFFF"/></svg>