<svg version="1.1" xmlns="http://www.w3.org/2000/svg" xlink="http://www.w3.org/1999/xlink" x="0px" y="0px" width="15px" height="15px" viewBox="0 0 15 15" style="enable-background:new 0 0 15 15;" space="preserve"><path d="M8,6.46666667L13.1452979,11.2689447C13.5490486,11.6457787,13.5708689,12.2785676,13.1940349,12.6823183C13.0049089,12.8849533,12.7401613,13,12.4629797,13L2.53702032,13C1.98473557,13,1.53702032,12.5522847,1.53702032,12C1.53702032,11.7228184,1.65206701,11.4580708,1.85470207,11.2689447L7,6.46666667L7,5.5C7,5.22385763,7.22385763,5,7.5,5C8.32842712,5,9,4.32842712,9,3.5C9,2.67157288,8.32842712,2,7.5,2C6.67157288,2,6,2.67157288,6,3.5C6,3.77614237,5.77614237,4,5.5,4C5.22385763,4,5,3.77614237,5,3.5C5,2.11928813,6.11928813,1,7.5,1C8.88071187,1,10,2.11928813,10,3.5C10,4.70947896,9.14112016,5.71835578,8,5.94999094L8,6.46666667ZM7.49999304,7.5L3.40518812,11.1256526C3.29800753,11.2205532,3.23664556,11.3568434,3.23664556,11.5C3.23664556,11.7761424,3.46050319,12,3.73664556,12L11.2633405,12C11.4064971,12,11.5427873,11.938638,11.6376879,11.8314574C11.8207468,11.6247111,11.8015443,11.3087115,11.594798,11.1256526L7.49999304,7.5Z" fill="#FFFFFF"/></svg>