<svg version="1.1" xmlns="http://www.w3.org/2000/svg" xlink="http://www.w3.org/1999/xlink" x="0px" y="0px" width="15px" height="15px" viewBox="0 0 15 15" style="enable-background:new 0 0 15 15;" space="preserve">
    <path d="M5,5L14,5L14,6C12.6666667,6,11.6666667,6.33333333,11,7C10.3333333,7.66666667,10,8.33333333,10,9L6,9C6,8.35971075,5.74564609,7.74564609,5.29289322,7.29289322L5,7L5,5ZM1,5L4.5,5L4.5,7C3.16666667,7,2,6.33333333,1,5ZM6,9.5L10,9.5L12,11L12,12L10,12C9.33333333,11.3333333,8.66666667,11,8,11C7.33333333,11,6.66666667,11.3333333,6,12L4,12L4,11L6,9.5Z" fill="#FFFFFF"/>
    </svg>