<svg version="1.1" xmlns="http://www.w3.org/2000/svg" xlink="http://www.w3.org/1999/xlink" x="0px" y="0px" width="15px" height="15px" viewBox="0 0 15 15" style="enable-background:new 0 0 15 15;" space="preserve"><path d="M5.544,5.6625c0.699,-0.1188,1.2173999999999998,-0.7554,1.2962999999999998,-1.5159c0.0801,-0.7734,0.2607,-3.8814,-0.9059999999999999,-3.6837c-3.0263999999999998,0.5133,-2.814,5.610600000000001,-0.3903,5.1996zm3.9818999999999996,0c2.4231,0.41100000000000003,2.6355,-4.6863,-0.39089999999999997,-5.1998999999999995c-1.1663999999999999,-0.19770000000000001,-0.9861,2.9103,-0.9062999999999999,3.6837c0.0792,0.7608,0.5982,1.3974,1.2972,1.5162zm-5.2251,2.4015c0,-0.40440000000000004,-0.14429999999999998,-0.7709999999999999,-0.37679999999999997,-1.0377c-0.38249999999999995,-0.49979999999999997,-1.5984,-1.5105,-1.8969,-1.2515999999999998c-0.6231,0.5418,-0.6029999999999999,1.8753,-0.22769999999999999,2.8443c0.1929,0.5388,0.6588,0.9177,1.2033,0.9177c0.7166999999999999,0,1.2981,-0.6594,1.2981,-1.4727zm8.7411,-2.2893c-0.2979,-0.25889999999999996,-1.5138,0.7517999999999999,-1.8962999999999999,1.2515999999999998c-0.23249999999999998,0.2667,-0.37709999999999994,0.6333000000000001,-0.37709999999999994,1.0377c0,0.8132999999999999,0.582,1.4727,1.2981,1.4727c0.5448,0,1.011,-0.37889999999999996,1.2039,-0.9177c0.3744,-0.969,0.39509999999999995,-2.3024999999999998,-0.2286,-2.8443zm-2.4408,4.5831c-1.1028,-0.5498999999999999,-1.0686,-1.6089,-1.3194,-2.5751999999999997c-0.1995,-0.7706999999999999,-0.9059999999999999,-1.3407,-1.7469000000000001,-1.3407c-0.8229,0,-1.5171000000000001,0.5463,-1.7337,1.2936c-0.2685,0.9245999999999999,-0.10679999999999999,2.001,-1.3089000000000002,2.6151c-0.9764999999999999,0.31829999999999997,-1.3719000000000001,0.7827,-1.3719000000000001,1.8809999999999998c0,0.8922,0.7658999999999999,1.8474,1.7544,1.9662c1.1028,0.16620000000000001,1.9631999999999998,-0.051000000000000004,2.6601000000000004,-0.4482c0.6969,0.3972,1.5567,0.6141,2.6613,0.4482c0.9879,-0.1188,1.7541,-1.0704,1.7541,-1.9662c-0.0003,-1.1223,-0.3705,-1.5405,-1.3491,-1.8738000000000001zm-1.3011,1.3422h-1.1433l0.0015,1.2h-1.2468l0.0018,-1.2h-1.2131999999999998v-1.2h1.2135l-0.0018,-1.2h1.2468l-0.0015,1.2h1.143v1.2z" fill="#FFFFFF"/></svg>