<svg version="1.1" xmlns="http://www.w3.org/2000/svg" xlink="http://www.w3.org/1999/xlink" x="0px" y="0px" width="15px" height="15px" viewBox="0 0 15 15" style="enable-background:new 0 0 15 15;" space="preserve"><path d="M12.37,9.5C12.45,9.65,12.5,9.82,12.5,10C12.5,10.55,12.05,11,11.5,11C10.95,11,10.5,10.55,10.5,10C10.5,9.82,10.55,9.65,10.63,9.5L9.73,9.5C9.31,10.39,8.47,11,7.5,11C6.53,11,5.69,10.39,5.27,9.5L4.37,9.5C4.45,9.65,4.5,9.82,4.5,10C4.5,10.55,4.05,11,3.5,11C2.95,11,2.5,10.55,2.5,10C2.5,9.82,2.55,9.65,2.63,9.5L0.83,9.5L0.04,7.96C-0.04,7.8,0.02,7.61,0.17,7.53C0.22,7.51,0.27,7.5,0.32,7.5L0.63,7.5C0.76,7.5,0.88,7.55,0.98,7.64L1.86,8.5L5.02,7.94C5.21,6.57,6.57,5.5,7.5,5.5C8.43,5.5,9.79,6.57,9.98,7.94L13.14,8.5L14.02,7.64C14.12,7.55,14.24,7.5,14.37,7.5L14.68,7.5C14.86,7.5,15,7.64,15,7.81C15,7.86,14.98,7.91,14.96,7.96L14.17,9.5L12.37,9.5ZM7,5L7,3.5C7,3.22,7.22,3,7.5,3C7.78,3,8,3.22,8,3.5L8,5L7,5ZM7,6.5L6,7.5C6.56,7.83,7.06,8,7.5,8C7.94,8,8.44,7.83,9,7.5L8,6.5L7,6.5Z" fill="#FFFFFF"/></svg>