<svg version="1.1" xmlns="http://www.w3.org/2000/svg" xlink="http://www.w3.org/1999/xlink" x="0px" y="0px" width="15px" height="15px" viewBox="0 0 15 15" style="enable-background:new 0 0 15 15;" space="preserve">
    <path d="M5.388599999999999,13.462200000000001c0.1122,0.12090000000000001,0.10559999999999999,0.31229999999999997,-0.015,0.42479999999999996l-0.6516000000000001,0.6093000000000001c-0.1206,0.11249999999999999,-0.3111,0.1059,-0.4233,-0.015299999999999998l-3.7946999999999997,-4.0896c-0.1122,-0.12090000000000001,-0.10529999999999999,-0.312,0.015299999999999998,-0.42479999999999996l0.6525,-0.6083999999999999c0.1206,-0.1128,0.3111,-0.1059,0.4233,0.015299999999999998l3.7935,4.088699999999999zm4.842,-7.694999999999999c0.1122,0.12090000000000001,0.10529999999999999,0.31229999999999997,-0.015299999999999998,0.42479999999999996l-4.101,3.8309999999999995c-0.1206,0.11249999999999999,-0.3111,0.1059,-0.4233,-0.015299999999999998l-0.9788999999999999,-1.0563c-0.1122,-0.12090000000000001,-0.10529999999999999,-0.31229999999999997,0.015299999999999998,-0.42479999999999996l4.100099999999999,-3.8309999999999995c0.1203,-0.11249999999999999,0.3108,-0.1059,0.423,0.015299999999999998l0.9801,1.0563zm-3.4467000000000003,6.3909c0.1122,0.12090000000000001,0.10529999999999999,0.312,-0.015299999999999998,0.42479999999999996l-0.6525,0.6089999999999999c-0.1206,0.1128,-0.3111,0.1059,-0.4233,-0.015299999999999998l-3.7925999999999997,-4.0896c-0.1122,-0.12090000000000001,-0.10559999999999999,-0.31229999999999997,0.015,-0.42479999999999996l0.6512999999999999,-0.6086999999999999c0.1206,-0.11249999999999999,0.3111,-0.1059,0.4233,0.015299999999999998l3.7941,4.0893zm6.318899999999999,-6.2442c0.1122,0.12090000000000001,0.10529999999999999,0.31229999999999997,-0.0156,0.42479999999999996l-0.6522,0.6089999999999999c-0.1206,0.11249999999999999,-0.3111,0.1059,-0.4236,-0.015l-3.7931999999999997,-4.088699999999999c-0.11249999999999999,-0.12090000000000001,-0.10559999999999999,-0.312,0.015,-0.42479999999999996l0.654,-0.6105c0.1203,-0.11249999999999999,0.3108,-0.1059,0.423,0.015299999999999998l3.7925999999999997,4.089899999999999zm1.3932,-1.3019999999999998c0.1122,0.12090000000000001,0.10529999999999999,0.31229999999999997,-0.015299999999999998,0.4251l-0.6509999999999999,0.6086999999999999c-0.1203,0.1128,-0.3108,0.1059,-0.423,-0.015l-3.7925999999999997,-4.0905c-0.1122,-0.12090000000000001,-0.10559999999999999,-0.31229999999999997,0.015,-0.4251l0.6516000000000001,-0.6099c0.1203,-0.1128,0.31049999999999994,-0.10619999999999999,0.4227,0.015l3.7925999999999997,4.0916999999999994z" fill="#FFFFFF"/>
    </svg>