<svg version="1.1" xmlns="http://www.w3.org/2000/svg" xlink="http://www.w3.org/1999/xlink" x="0px" y="0px" width="15px" height="15px" viewBox="0 0 15 15" style="enable-background:new 0 0 15 15;" space="preserve"><path d="M10 0 10 15C10 15 0 15 0 15 0 15 0 0 0 0L10 0zM9 1 1 1 1 14C1 14 9 14 9 14L9 1zM2.5 4C2.5 4 7.5 4 7.5 4 8 4 8 5 7.5 5 7.5 5 2.5 5 2.5 5 2 5 2 4 2.5 4zM2.5 6C2.5 6 7.5 6 7.5 6 8 6 8 7 7.5 7 7.5 7 2.5 7 2.5 7 2 7 2 6 2.5 6zM2.5 8C2.5 8 7.5 8 7.5 8 8 8 8 9 7.5 9 7.5 9 2.5 9 2.5 9 2 9 2 8 2.5 8zM2.5 10C2.5 10 7.5 10 7.5 10 8 10 8 11 7.5 11 7.5 11 2.5 11 2.5 11 2 11 2 10 2.5 10zM11 13C11.5 13.5 13.5 13.5 14 13 14 13 13 15 12.5 15 12 15 11 13 11 13zM11 3C11 3.5 14 3.5 14 3 14 3 14 12 14 12 14 12.5 11 12.5 11 12 11 12 11 3 11 3zM12.5 0C11 0 11 .5 11 1 11 1 11 2 11 2 11 2.5 14 2.5 14 2 14 2 14 1 14 1 14 .5 14 0 12.5 0z" fill="#FFFFFF"/></svg>