<svg version="1.1" xmlns="http://www.w3.org/2000/svg" xlink="http://www.w3.org/1999/xlink" x="0px" y="0px" width="15px" height="15px" viewBox="0 0 15 15" style="enable-background:new 0 0 15 15;" space="preserve">
    <path d="M14.7,14.2185c-3.3,0.0483,-6.869999999999999,-0.5976,-9.5982,-2.775l0.022199999999999998,-0.06269999999999999c0,-0.0483,0.0654,-0.09,0.1176,-0.09l2.6942999999999997,0.0036c0.1329,0,0.24389999999999998,-0.10439999999999999,0.24389999999999998,-0.2364c0,-0.0969,-0.042899999999999994,-0.1632,-0.1437,-0.21539999999999998l-2.4267,-1.1529c-0.0489,-0.027899999999999998,-0.0759,-0.0765,-0.0759,-0.1353c0,-0.0453,-0.0756,-0.0834,-0.0477,-0.1113c0,0,2.9138999999999995,-2.601,9.2139,-2.5419v7.3172999999999995zm-5.5083,-4.1193c0.31829999999999997,0,0.5766,-0.2568,0.5766,-0.5723999999999999c0,-0.31649999999999995,-0.2583,-0.57,-0.5766,-0.57c-0.3147,0,-0.573,0.25379999999999997,-0.573,0.57c0,0.3156,0.2583,0.5723999999999999,0.573,0.5723999999999999zm-8.8917,-9.4992h2.6999999999999997v2.1h-2.6999999999999997zm5.3999999999999995,0h9v2.1h-9zm-1.5,3.15c-0.3,0.07289999999999999,-0.3897,0.2883,-0.3897,0.5378999999999999c0,0.2502,0.08969999999999999,0.4656,0.3897,0.5454v3.525c0,0.4548,-0.4326,0.8192999999999999,-0.8904,0.8192999999999999c-0.4542,0,-0.855,-0.36479999999999996,-0.855,-0.8192999999999999c0,-0.111,0.0039,-0.21869999999999998,0.045899999999999996,-0.3162l0.026399999999999996,0.027899999999999998l0.2859,0.2643l-0.18389999999999998,-1.6082999999999998l-0.4728,1.0838999999999999c-0.14309999999999998,0.3333,-0.1089,0.5484,-0.1089,0.5484c0,0.6564,0.5649,1.1913,1.2251999999999998,1.1913c0.6639,0,1.2269999999999999,-0.5348999999999999,1.2269999999999999,-1.1913v-3.5319c0.3,-0.0801,0.3843,-0.29159999999999997,0.3843,-0.5385c0,-0.24989999999999998,-0.0843,-0.46529999999999994,-0.3843,-0.5448v-3.1431h-0.3v3.15z" fill="#FFFFFF"/>
    </svg>