<svg version="1.1" xmlns="http://www.w3.org/2000/svg" xlink="http://www.w3.org/1999/xlink" x="0px" y="0px" width="15px" height="15px" viewBox="0 0 15 15" style="enable-background:new 0 0 15 15;" space="preserve"><path d="M6.5 1C8 1 9 1.5 9.5 2 9.5 2.5 5.5 7.5 5 7.5 4.5 7.5 4.115 7.112 4 6.5 3.237 8.121 2 12 1.5 14 1.5 14.5 0 14.5 0 14 0 13.5 1.468 5.369 3.5 3 4.468 1.869 5.5 1 6.5 1zM13.642 10.139C13.844 10.328 14.009 10.471 14.184 10.657 14.359 10.844 13.864 11.353 13.666 11.2 13.469 11.047 13.388 10.958 13.124 10.682 12.859 10.406 13.439 9.951 13.642 10.139zM12.014 8.586C11.762 8.327 11.281 8.938 11.496 9.128 11.711 9.319 11.828 9.438 12.039 9.646 12.249 9.855 12.781 9.312 12.557 9.104 12.332 8.895 12.266 8.844 12.014 8.586zM10.386 7.032C10.21 6.861 9.707 7.415 9.869 7.575 10.125 7.828 10.234 7.922 10.411 8.093 10.588 8.263 11.156 7.766 10.929 7.55 10.702 7.335 10.562 7.203 10.386 7.032zM8.759 5.479C8.516 5.25 7.969 5.766 8.241 6.021 8.513 6.277 8.594 6.375 8.784 6.539 8.973 6.703 9.469 6.156 9.301 5.997 9.134 5.837 8.968 5.675 8.759 5.479zM11.533 12.515C11.285 12.171 10.766 12.766 10.949 12.987 11.133 13.208 11.25 13.359 11.421 13.57 11.592 13.781 12.203 13.344 12.004 13.099 11.805 12.854 11.797 12.844 11.533 12.515zM10.119 10.765C9.938 10.547 9.313 10.937 9.536 11.236 9.759 11.535 9.781 11.531 10.007 11.82 10.233 12.108 10.75 11.547 10.59 11.348 10.431 11.15 10.278 10.956 10.119 10.765zM8.705 9.015C8.457 8.714 7.906 9.219 8.122 9.486 8.338 9.753 8.422 9.875 8.593 10.069 8.765 10.264 9.406 9.906 9.177 9.598 9.01 9.368 8.938 9.297 8.705 9.015zM7.292 7.264C6.938 6.953 6.437 7.406 6.708 7.736 6.979 8.065 7 8.109 7.179 8.319 7.359 8.529 7.969 8.094 7.763 7.848 7.557 7.602 7.422 7.422 7.292 7.264zM13.868 6.331C13.579 6.136 13.266 6.812 13.428 6.939 13.591 7.065 13.812 7.219 14.037 7.378 14.261 7.537 14.641 6.906 14.476 6.77 14.311 6.633 14.221 6.569 13.868 6.331zM12.043 5.013C11.812 4.859 11.375 5.484 11.604 5.621 11.844 5.812 11.984 5.891 12.212 6.06 12.44 6.23 12.844 5.578 12.651 5.452 12.469 5.312 12.295 5.181 12.043 5.013zM10.219 3.696C9.984 3.523 9.563 4.141 9.78 4.304 9.998 4.467 10.188 4.609 10.388 4.743 10.589 4.877 11.047 4.312 10.827 4.135 10.635 3.98 10.484 3.891 10.219 3.696z" fill="#FFFFFF"/></svg>