<svg version="1.1" xmlns="http://www.w3.org/2000/svg" xlink="http://www.w3.org/1999/xlink" x="0px" y="0px" width="15px" height="15px" viewBox="0 0 15 15" style="enable-background:new 0 0 15 15;" space="preserve">
    <path d="M12.299999999999999,0.3h-9.6c-0.66,0,-1.2,0.54,-1.2,1.2v12c0,0.66,0.54,1.2,1.2,1.2h9.6c0.66,0,1.2,-0.54,1.2,-1.2v-12c0,-0.66,-0.54,-1.2,-1.2,-1.2zm-7.199999999999999,12c0,0.33,-0.27,0.6,-0.6,0.6h-1.2c-0.33,0,-0.6,-0.27,-0.6,-0.6v-0.3c0,-0.33,0.27,-0.6,0.6,-0.6h1.2c0.33,0,0.6,0.27,0.6,0.6v0.3zm0,-2.4c0,0.33,-0.27,0.6,-0.6,0.6h-1.2c-0.33,0,-0.6,-0.27,-0.6,-0.6v-0.3c0,-0.33,0.27,-0.6,0.6,-0.6h1.2c0.33,0,0.6,0.27,0.6,0.6v0.3zm0,-2.4c0,0.33,-0.27,0.6,-0.6,0.6h-1.2c-0.33,0,-0.6,-0.27,-0.6,-0.6v-0.3c0,-0.33,0.27,-0.6,0.6,-0.6h1.2c0.33,0,0.6,0.27,0.6,0.6v0.3zm3.5999999999999996,4.8c0,0.33,-0.27,0.6,-0.6,0.6h-1.2c-0.33,0,-0.6,-0.27,-0.6,-0.6v-0.3c0,-0.33,0.27,-0.6,0.6,-0.6h1.2c0.33,0,0.6,0.27,0.6,0.6v0.3zm0,-2.4c0,0.33,-0.27,0.6,-0.6,0.6h-1.2c-0.33,0,-0.6,-0.27,-0.6,-0.6v-0.3c0,-0.33,0.27,-0.6,0.6,-0.6h1.2c0.33,0,0.6,0.27,0.6,0.6v0.3zm0,-2.4c0,0.33,-0.27,0.6,-0.6,0.6h-1.2c-0.33,0,-0.6,-0.27,-0.6,-0.6v-0.3c0,-0.33,0.27,-0.6,0.6,-0.6h1.2c0.33,0,0.6,0.27,0.6,0.6v0.3zm3.5999999999999996,4.8c0,0.33,-0.27,0.6,-0.6,0.6h-1.2c-0.33,0,-0.6,-0.27,-0.6,-0.6v-0.3c0,-0.33,0.27,-0.6,0.6,-0.6h1.2c0.33,0,0.6,0.27,0.6,0.6v0.3zm0,-2.4c0,0.33,-0.27,0.6,-0.6,0.6h-1.2c-0.33,0,-0.6,-0.27,-0.6,-0.6v-0.3c0,-0.33,0.27,-0.6,0.6,-0.6h1.2c0.33,0,0.6,0.27,0.6,0.6v0.3zm0,-2.4c0,0.33,-0.27,0.6,-0.6,0.6h-1.2c-0.33,0,-0.6,-0.27,-0.6,-0.6v-0.3c0,-0.33,0.27,-0.6,0.6,-0.6h1.2c0.33,0,0.6,0.27,0.6,0.6v0.3zm0,-2.6999999999999997c0,0.33,-0.27,0.6,-0.6,0.6h-8.4c-0.33,0,-0.6,-0.27,-0.6,-0.6v-2.4c0,-0.33,0.27,-0.6,0.6,-0.6h8.4c0.33,0,0.6,0.27,0.6,0.6v2.4z" fill="#FFFFFF"/>
    </svg>