<svg version="1.1" xmlns="http://www.w3.org/2000/svg" xlink="http://www.w3.org/1999/xlink" x="0px" y="0px" width="15px" height="15px" viewBox="0 0 15 15" style="enable-background:new 0 0 15 15;" space="preserve"><path d="M4.389,12.212L5.724,12.212L5.391,12.808L9.395,12.808L9.061,12.212L10.396,12.212L11.397,14L10.062,14L9.729,13.404L5.057,13.404L4.723,14L3.388,14L4.389,12.212zM9.795,9.514L8.995,10.28L8.995,10.663L10.596,10.663L10.997,10.28L10.997,9.514L9.795,9.514zM3.789,9.514L3.789,10.28L4.189,10.663L5.791,10.663L5.791,10.28L4.99,9.514L3.789,9.514zM4.189,5.3L3.789,5.683L3.789,7.216L4.99,7.982L9.795,7.982L10.997,7.216L10.997,5.683L10.596,5.3L9.795,5.3L4.99,5.3L4.189,5.3zM5.791,3.768L5.791,4.534L8.995,4.534L8.995,3.768L5.791,3.768zM5.391,3.002L9.395,3.002L11.798,5.3L11.798,11.046L10.997,11.812L3.789,11.812L2.988,11.046L2.988,5.3L5.391,3.002zM6.992,1L7.793,1L10.196,1C12.171,1.329,13.8,2.201,13.8,4.604L13.8,12.613L12.599,12.212L12.599,4.604C12.599,3.002,11.397,2.201,10.196,2.201L7.793,2.201L6.992,2.201L4.59,2.201C3.388,2.201,2.187,3.002,2.187,4.604L2.187,12.212L0.986,12.613L0.986,4.604C0.986,2.201,2.587,1,4.59,1z" fill="#FFFFFF"/></svg>