<svg version="1.1" xmlns="http://www.w3.org/2000/svg" xlink="http://www.w3.org/1999/xlink" x="0px" y="0px" width="15px" height="15px" viewBox="0 0 15 15" style="enable-background:new 0 0 15 15;" space="preserve"><path d="M11.5 2C11.5 2 10 8 10 8 10 8 12 8 12 8 12 8 11 13 11 13 11 13 15 6 15 6 15 6 13 6 13 6 13 6 14.5 2 14.5 2 14.5 2 11.5 2 11.5 2zM1.5 0C2.25 0 3 .75 3 1.5 3 2.25 2.25 3 1.5 3 .75 3 0 2.25 0 1.5 0 .75.75 0 1.5 0zM1.5 1C1.25 1 1 1.25 1 1.5 1 1.75 1.25 2 1.5 2 1.75 2 2 1.75 2 1.5 2 1.25 1.75 1 1.5 1zM1.5 13C1.75 13 2 13.25 2 13.5 2 13.75 1.75 14 1.5 14 1.25 14 1 13.75 1 13.5 1 13.25 1.25 13 1.5 13zM1.5 12C.75 12 0 12.75 0 13.5 0 14.25.75 15 1.5 15 2.25 15 3 14.25 3 13.5 3 12.75 2.25 12 1.5 12zM2 3.5C2 3 1 3 1 3.5 1 3.5 1 11.5 1 11.5 1 12 2 12 2 11.5L2 5 5.75 5C6 5.5 6.5 5.5 6.5 5.5 7 5.5 7.5 5.25 7.5 4.5 7.5 3.75 7 3.5 6.5 3.5 6.5 3.5 6 3.5 5.75 4L2 4C2 4 2 3.5 2 3.5zM6.5 7.5C6 7.5 5.5 8 5.5 8.5 5.5 8.5 5.5 9 6 9.25L6 11.25 4.5 11.25C4 11.25 4 12 4.5 12 4.5 12 8.5 12 8.5 12 9 12 9 11.25 8.5 11.25L7 11.25 7 9.25C7.5 9 7.5 8.5 7.5 8.5 7.5 8 7 7.5 6.5 7.5zM5.5 12.5C5 12.5 5 13.25 5.5 13.25 5.5 13.25 7.5 13.25 7.5 13.25 8 13.25 8 12.5 7.5 12.5 7.5 12.5 5.5 12.5 5.5 12.5zM6.25 13.75C5.75 13.75 5.75 14.5 6.25 14.5 6.25 14.5 6.75 14.5 6.75 14.5 7.25 14.5 7.25 13.75 6.75 13.75 6.75 13.75 6.25 13.75 6.25 13.75z" fill="#FFFFFF"/></svg>