<svg version="1.1" xmlns="http://www.w3.org/2000/svg" xlink="http://www.w3.org/1999/xlink" x="0px" y="0px" width="15px" height="15px" viewBox="0 0 15 15" style="enable-background:new 0 0 15 15;" space="preserve"><path d="M12 0C13 0 13 0 13 1L13 14C13 15 13 15 12 15L3 15C2 15 2 15 2 14L2 1C2 0 2 0 3 0L12 0zM10 12 4 12 4 13 10 13 10 12zM12 9 11 9 11 9.75 12 9.75 12 9zM10 2 4 2 4 10 10 10 10 2zM12 7.5 11 7.5 11 8.25 12 8.25 12 7.5zM12 6 11 6 11 6.75 12 6.75 12 6zM12 4.5 11 4.5 11 5.25 12 5.25 12 4.5zM9 5.5C9 5.5 8.25 9.5 8.25 9.5 8.25 9.75 5.75 9.75 5.75 9.5 5.75 9.5 5 5.5 5 5.5 5.25 5.75 8.75 5.75 9 5.5zM7.25 5C8 4.75 8.25 4.5 8.25 4 8.25 3.75 8 3.5 7.5 3.25 7 3 6.75 2.75 6.75 2.25 6.5 2.75 6.75 3.5 7.25 3.75 8.5 4.25 7.25 5 7.25 5zM6 5C6.39 4.888 6.611 4.89 6.6 4.5 6.6 4.281 6.625 4.156 6.266 4 5.942 3.859 5.75 3.5 5.75 3.25 5.5 3.5 5.665 4 6 4.25 6.669 4.585 6 5 6 5z" fill="#FFFFFF"/></svg>