<svg version="1.1" xmlns="http://www.w3.org/2000/svg" xlink="http://www.w3.org/1999/xlink" x="0px" y="0px" width="15px" height="15px" viewBox="0 0 15 15" style="enable-background:new 0 0 15 15;" space="preserve"><path d="M4.9071756,7.532822C4.0697978,7.7767071,3.5080452,8.4943595,3.5645239,9.2621892C3.8305804,8.9653262,4.2369,8.7090718,4.7291045,8.5405693ZM2.3154587,8.6962357L1.5749348,4.5067796c-0.00677,-0.037808,0.00653,-0.061146,0.0056,-0.061846c1.3480196,-0.7482255,2.8734101,-1.1438095,4.4111699,-1.1438095c0.037575,0,0.075383,0.00397,0.1131907,0.00443C6.4304657,2.9911912,6.8454204,2.7727448,7.3089189,2.6987624C7.7497791,2.6282808,8.1969407,2.5925732,8.6434022,2.5746027C8.4102527,2.2490336,8.0720809,2.009116,7.6685619,1.9444689C7.1105434,1.8555501,6.5497243,1.8114407,5.9914725,1.8114407c-1.7891132,0,-3.5544213,0.4532296,-5.13722404,1.3316827C0.29016203,3.4563232,-0.0120688,4.1097953,0.10392249,4.7656012L0.84444638,8.9550573C1.1765503,10.834256,4.0261552,12.270962,5.6159594,12.270962c0.083784,0,0.1575335,-0.01074,0.2336163,-0.01867C5.534042,11.853673,5.1741656,11.307557,4.9277133,10.675089C3.8165774,10.372158,2.4524545,9.4703667,2.3154587,8.6962357Zm2.27665,-3.2080811C4.5750717,5.3920009,4.5400647,5.3044823,4.4971217,5.2220981C4.3045808,5.4300423,4.0147193,5.5896762,3.6728134,5.6496556c-0.341906,0.060213,-0.6691088,0.00934,-0.9213957,-0.120659c-0.012136,0.091953,-0.014936,0.1862396,0.0021,0.2823933C2.8431367,6.3178308,3.3271728,6.6560025,3.835014,6.5668503C4.3426217,6.4776983,4.6817271,5.9945955,4.5921087,5.4881546ZM14.24109,4.6330397C12.164449,3.4805951,9.7734421,3.0598057,7.4267772,3.4346186C6.7894086,3.5363736,6.281334,4.0474821,6.1655761,4.703288L5.4250522,8.8927441C5.065876,10.924342,7.6487243,13.47335,9.1197366,13.731938C10.590749,13.99076,13.891716,12.476572,14.250892,10.444974L14.991416,6.2555175C15.107408,5.5994782,14.805177,4.9460062,14.24109,4.6330397ZM7.8641367,6.892186C7.9537558,6.3857452,8.4377918,6.0475734,8.945633,6.136959C9.4534741,6.2263447,9.7923461,6.7092138,9.7029604,7.2156547C9.6859235,7.3118084,9.6509161,7.399327,9.6079736,7.4817112C9.4154327,7.273767,9.1255712,7.1141331,8.7836653,7.0541537C8.4417594,6.993941,8.1145566,7.0448184,7.8622697,7.1748127C7.8499004,7.0826265,7.8470998,6.9883398,7.8641367,6.892186Zm1.6446492,4.638718C8.20931,11.302422,7.3261892,10.147644,7.4307447,8.8960114C7.9115135,9.4920713,8.7425899,9.9735402,9.752671,10.151145c1.010081,0.177604,1.956215,0.0086,2.612254,-0.387416c-0.330937,1.212191,-1.556897,1.995657,-2.8561391,1.767175zM12.549765,7.9988876c-0.192541,-0.2079441,-0.482636,-0.367578,-0.824542,-0.4275574c-0.341906,-0.060213,-0.669109,-0.00934,-0.921396,0.120659c-0.01214,-0.091953,-0.01494,-0.1862396,0.0021,-0.2823933c0.08962,-0.5064409,0.573655,-0.8446127,1.081496,-0.7554604c0.507608,0.089386,0.846713,0.5722548,0.757327,1.0786957c-0.01704,0.096387,-0.05204,0.1839057,-0.09499,0.2660564z" fill="#FFFFFF"/></svg>