<svg version="1.1" xmlns="http://www.w3.org/2000/svg" xlink="http://www.w3.org/1999/xlink" x="0px" y="0px" width="11.25px" height="15px" viewBox="0 0 11.25 15" style="enable-background:new 0 0 15 15;" space="preserve"><path d="m7.15042515,9.62129175c0,0.87098325,-0.7114167,1.5770662500000001,-1.588981425,1.5770662500000001c-0.8775647249999999,0,-1.5889815,-0.706083,-1.5889815,-1.5770662500000001c0,-0.58363725,0.31968315,-1.09283175,0.79449075,-1.3655662499999999V5.6786283c0,-0.43549170000000004,0.35570835,-0.7885330500000001,0.79449075,-0.7885330500000001c0.4387824,0,0.79449075,0.35304135000000003,0.79449075,0.7885330500000001v2.5770972c0.474807525,0.2727345,0.7944906749999999,0.7819290000000001,0.7944906749999999,1.3655662499999999zm0.7944913499999999,-2.08599c0.49437225000000007,0.55599075,0.79449,1.2861465,0.79449,2.08599c0,1.74206625,-1.422709275,3.154131,-3.177962775,3.154131c-0.007425000000000001,0,-0.015120000000000001,-0.000024750000000000002,-0.022568249999999998,-0.0000735c-1.7454466499999999,-0.012022499999999998,-3.1642581749999996,-1.4381107499999999,-3.155344875,-3.1704930000000004c0.0040725,-0.7934122499999999,0.30347055,-1.5173842499999999,0.794441025,-2.0695544999999997V2.5244967750000002c0,-1.306475475,1.0671252,-2.36559843,2.38347225,-2.36559843c1.3163469749999999,0,2.383473375,1.0591229549999999,2.383473375,2.36559843zm-0.39724649999999995,2.08599c0,-0.84616875,-0.48091470000000003,-1.28604675,-0.7944901499999999,-1.63871925V2.5244967750000002c0,-0.65219055,-0.5346177,-1.1827992749999998,-1.191736125,-1.1827992749999998c-0.65711835,0,-1.1917362,0.530608725,-1.1917362,1.1827992749999998V7.9825725c-0.316107975,0.35553,-0.790145775,0.79099725,-0.7944658499999999,1.6283205c-0.0055575,1.0811775,0.8829522750000001,1.9741912499999998,1.971901125,1.9816815l0.014301000000000001,0.000049500000000000004c1.09520565,0,1.9862262,-0.8843399999999999,1.9862262,-1.97133225z" fill="#FFFFFF"/></svg>