<svg version="1.1" xmlns="http://www.w3.org/2000/svg" xlink="http://www.w3.org/1999/xlink" x="0px" y="0px" width="10.312499999999998px" height="15px" viewBox="0 0 10.312499999999998 15" style="enable-background:new 0 0 15 15;" space="preserve">
    <path d="M6.012304687499999,0.6471679687499998c-0.23261718749999993,-0.8431640624999998,-1.4484374999999996,-0.8824218749999998,-1.7121093749999996,0C2.9299804687499993,5.269042968749998,0,6.524999999999999,0,9.782519531249998C0,12.666503906249996,2.3062499999999995,14.999999999999996,5.156249999999998,14.999999999999996s5.156249999999998,-2.3334960937499996,5.156249999999998,-5.217480468749999c0,-3.273925781249999,-2.9235351562499994,-4.492382812499999,-4.300195312499999,-9.135351562499999zM5.156249999999998,13.124999999999996c-1.8090820312499998,0,-3.281249999999999,-1.4721679687499996,-3.281249999999999,-3.281249999999999c0,-0.25898437499999993,0.20976562499999996,-0.4687499999999999,0.4687499999999999,-0.4687499999999999s0.4687499999999999,0.20976562499999996,0.4687499999999999,0.4687499999999999c0,1.2922851562499995,1.0514648437499998,2.3437499999999996,2.3437499999999996,2.3437499999999996c0.25898437499999993,0,0.4687499999999999,0.20976562499999996,0.4687499999999999,0.4687499999999999s-0.20976562499999996,0.4687499999999999,-0.4687499999999999,0.4687499999999999z" fill="#FFFFFF"/>
    </svg>