<svg version="1.1" xmlns="http://www.w3.org/2000/svg" xlink="http://www.w3.org/1999/xlink" x="0px" y="0px" width="6.25px" height="15px" viewBox="0 0 6.25 15" style="enable-background:new 0 0 15 15;" space="preserve"><path d="M.3125 4.6875H5.9375a.3125.3125 0 0 0 .3125-.3125 1.875 1.875 0 0 0-1.875-1.875V1.25a.625.625 0 0 0 0-1.25H1.875A.625.625 0 0 0 1.875 1.25V2.5a1.875 1.875 0 0 0-1.875 1.875A.3125.3125 0 0 0 .3125 4.6875ZM5.9375 10H.3125a.3125.3125 0 0 0-.3125.3125V14.375a.6250187500000001.6250187500000001 0 0 0 .625.625H5.625a.6250187500000001.6250187500000001 0 0 0 .625-.625V10.3125A.3125.3125 0 0 0 5.9375 10Z" fill="#FFFFFF"/></svg>