<svg version="1.1" xmlns="http://www.w3.org/2000/svg" xlink="http://www.w3.org/1999/xlink" x="0px" y="0px" width="16.363636363636363px" height="15px" viewBox="0 0 16.363636363636363 15" style="enable-background:new 0 0 15 15;" space="preserve">
    <path d="M15.68181818181818,0H0.6818181818181818A0.6838056818181818,0.6838056818181818,0,0,0,0,0.6818181818181818V14.999999999999998H3.3988636363636364V7.159090909090908A4.7829749999999995,4.7829749999999995,0,0,1,12.964772727272727,7.159090909090908V14.999999999999998H16.363636363636363V0.6818181818181818A0.6838056818181818,0.6838056818181818,0,0,0,15.68181818181818,0Z" fill="#FFFFFF"/> <path d="M10.909090909090908,11.25V9.886363636363635a1.0213295454545452,1.0213295454545452,0,0,0,-1.0227272727272727,-1.0227272727272727H6.477272727272727a1.0213295454545452,1.0213295454545452,0,0,0,-1.0227272727272727,1.0227272727272727v1.3636363636363635a1.0286556818181816,1.0286556818181816,0,0,0,-1.0227272727272727,1.0227272727272727v0.6818181818181818a1.0213295454545452,1.0213295454545452,0,0,0,1.0227272727272727,1.0227272727272727v0.3409090909090909a0.6818181818181818,0.6818181818181818,0,0,0,1.3636363636363635,0V13.977272727272727h2.727272727272727v0.3409090909090909a0.6818181818181818,0.6818181818181818,0,0,0,1.3636363636363635,0V13.977272727272727a1.0213295454545452,1.0213295454545452,0,0,0,1.0227272727272727,-1.0227272727272727V12.272727272727272a1.0286556818181816,1.0286556818181816,0,0,0,-1.0227272727272727,-1.0227272727272727ZM6.477272727272727,10.227272727272727a0.3419590909090909,0.3419590909090909,0,0,1,0.3409090909090909,-0.3409090909090909h2.727272727272727a0.3419590909090909,0.3419590909090909,0,0,1,0.3409090909090909,0.3409090909090909v1.0227272727272727H6.477272727272727Zm-0.5113636363636364,1.7045454545454544A0.5113636363636364,0.5113636363636364,0,1,1,5.454545454545454,12.443181818181817A0.5106579545454545,0.5106579545454545,0,0,1,5.965909090909091,11.931818181818182Zm4.431818181818182,1.0227272727272727A0.5113636363636364,0.5113636363636364,0,1,1,10.909090909090908,12.443181818181817A0.5106579545454545,0.5106579545454545,0,0,1,10.397727272727272,12.954545454545453Z" fill="#FFFFFF"/>
    </svg>