<svg version="1.1" xmlns="http://www.w3.org/2000/svg" xlink="http://www.w3.org/1999/xlink" x="0px" y="0px" width="15px" height="36px" viewBox="0 0 15 36" style="enable-background:new 0 0 15 15;" space="preserve">
    <path d="M0.75,11.25H14.25a0.75,0.75,0,0,0,0.75,-0.75a4.5,4.5,0,0,0,-4.5,-4.5V3a1.5,1.5,0,0,0,0,-3H4.5A1.5,1.5,0,0,0,4.5,3V6a4.5,4.5,0,0,0,-4.5,4.5A0.75,0.75,0,0,0,0.75,11.25Z" fill="#FFFFFF"/> <path d="M14.25,24H0.75a0.75,0.75,0,0,0,-0.75,0.75V34.5a1.500045,1.500045,0,0,0,1.5,1.5H13.5a1.500045,1.500045,0,0,0,1.5,-1.5V24.75A0.75,0.75,0,0,0,14.25,24Z" fill="#FFFFFF"/>
    </svg>