<svg version="1.1" xmlns="http://www.w3.org/2000/svg" xlink="http://www.w3.org/1999/xlink" x="0px" y="0px" width="15.000078125406905px" height="15px" viewBox="0 0 15.000078125406905 15" style="enable-background:new 0 0 15 15;" space="preserve">
    <path d="M1.2441502299491143,11.249980468648275H5.006376074875391A0.306104719295413,0.306104719295413,0,0,0,5.312527669414945,10.943888249417967V5.312449544008041a0.30613909447445037,0.30613909447445037,0,0,0,-0.5609716717274569,-0.1696883837936656L0.9893270277449363,10.77420924067313A0.30613909447445037,0.30613909447445037,0,0,0,1.2441502299491143,11.249980468648275Z" fill="#FFFFFF"/> <path d="M6.250185678050406,11.249980468648275H13.747821603237519a0.31385163464393045,0.31385163464393045,0,0,0,0.3146891390059323,-0.31829853280485837C13.931231933499653,5.187327017328216,10.26336283001474,0.23872311834957474,6.260345105964094,0.0005343777832176209a0.31013911530789223,0.31013911530789223,0,0,0,-0.322814181323861,0.31250162761264383V10.937938218428222A0.3123891270267033,0.3123891270267033,0,0,0,6.250185678050406,11.249980468648275Z" fill="#FFFFFF"/> <path d="M14.375074870181615,12.187485351486206H0.6250032552252877a0.6250220053229444,0.6250220053229444,0,0,0,-0.6250032552252877,0.6250032552252877a2.1874738930931934,2.1874738930931934,0,0,0,2.187511393288507,2.187511393288507H12.812566732118396a2.1874738930931934,2.1874738930931934,0,0,0,2.187511393288507,-2.187511393288507A0.6250220053229444,0.6250220053229444,0,0,0,14.375074870181615,12.187485351486206Z" fill="#FFFFFF"/>
    </svg>