<svg version="1.1" xmlns="http://www.w3.org/2000/svg" xlink="http://www.w3.org/1999/xlink" x="0px" y="0px" width="15px" height="15.000037500000001px" viewBox="0 0 15 15.000037500000001" style="enable-background:new 0 0 15 15;" space="preserve">
    <path d="M14.375,8.1250375a0.62501875,0.62501875,0,0,0,-0.625,0.625v0.9375l-3.75,-2.8125V5.462378125000001A0.779134375,0.779134375,0,0,0,8.75,4.8459375V3.3218750000000004a0.93744375,0.93744375,0,0,0,-0.06639375,-0.346525L7.8425,0.232428125a0.36856875,0.36856875,0,0,0,-0.685,0L6.31639375,2.9753499999999997A0.93744375,0.93744375,0,0,0,6.25,3.3218750000000004v1.5240624999999999a0.779134375,0.779134375,0,0,0,-1.25,0.616453125v1.412659375l-3.75,2.8125v-0.9375a0.625,0.625,0,0,0,-1.25,0v4.375a0.625,0.625,0,0,0,1.25,0v-0.625l5,-1.25v1.5625l-1.3903625,1.1909375a0.5837718749999999,0.5837718749999999,0,0,0,0.41279062499999997,0.9965625l2.22400625,-0.3125l2.2311375,0.3125a0.5837718749999999,0.5837718749999999,0,0,0,0.41279062499999997,-0.9965625L8.75,12.812537500000001v-1.5625l5,1.25v0.625a0.625,0.625,0,1,0,1.25,0v-4.375A0.62501875,0.62501875,0,0,0,14.375,8.1250375Z" fill="#FFFFFF"/>
    </svg>