<svg version="1.1" xmlns="http://www.w3.org/2000/svg" xlink="http://www.w3.org/1999/xlink" x="0px" y="0px" width="15px" height="32.72727272727273px" viewBox="0 0 15 32.72727272727273" style="enable-background:new 0 0 15 15;" space="preserve">
    <path d="M0,29.28688636363636V31.704545454545453a1.0227272727272727,1.0227272727272727,0,0,0,2.0454545454545454,0V30.68181818181818H12.954545454545453v1.0227272727272727a1.0227272727272727,1.0227272727272727,0,0,0,2.0454545454545454,0V5.454545454545454H0ZM11.59090909090909,17.045454545454543a0.6818181818181818,0.6818181818181818,0,0,1,1.3636363636363635,0v2.0454545454545454a0.6818181818181818,0.6818181818181818,0,0,1,-1.3636363636363635,0Z" fill="#FFFFFF"/> <path d="M10.909090909090908,0H4.090909090909091A4.090909090909091,4.090909090909091,0,0,0,0,4.090909090909091H14.999999999999998A4.090909090909091,4.090909090909091,0,0,0,10.909090909090908,0Z" fill="#FFFFFF"/>
    </svg>