<svg version="1.1" xmlns="http://www.w3.org/2000/svg" xlink="http://www.w3.org/1999/xlink" x="0px" y="0px" width="6.25px" height="15px" viewBox="0 0 6.25 15" style="enable-background:new 0 0 15 15;" space="preserve">
    <path d="M0.3125,4.6875H5.9375a0.3125,0.3125,0,0,0,0.3125,-0.3125a1.875,1.875,0,0,0,-1.875,-1.875V1.25a0.625,0.625,0,0,0,0,-1.25H1.875A0.625,0.625,0,0,0,1.875,1.25V2.5a1.875,1.875,0,0,0,-1.875,1.875A0.3125,0.3125,0,0,0,0.3125,4.6875Z" fill="#FFFFFF"/> <path d="M5.9375,10H0.3125a0.3125,0.3125,0,0,0,-0.3125,0.3125V14.375a0.6250187500000001,0.6250187500000001,0,0,0,0.625,0.625H5.625a0.6250187500000001,0.6250187500000001,0,0,0,0.625,-0.625V10.3125A0.3125,0.3125,0,0,0,5.9375,10Z" fill="#FFFFFF"/>
    </svg>