<svg version="1.1" xmlns="http://www.w3.org/2000/svg" xlink="http://www.w3.org/1999/xlink" x="0px" y="0px" width="15px" height="13.75px" viewBox="0 0 15 13.75" style="enable-background:new 0 0 15 15;" space="preserve">
    <path d="M14.374999999999998,0H0.6249999999999999A0.626821875,0.626821875,0,0,0,0,0.6249999999999999V13.749999999999998H3.115625V6.562499999999999A4.384393749999999,4.384393749999999,0,0,1,11.884375,6.562499999999999V13.749999999999998H14.999999999999998V0.6249999999999999A0.626821875,0.626821875,0,0,0,14.374999999999998,0Z" fill="#FFFFFF"/> <path d="M9.999999999999998,10.3125V9.062499999999998a0.9362187499999998,0.9362187499999998,0,0,0,-0.9374999999999999,-0.9374999999999999H5.937499999999999a0.9362187499999998,0.9362187499999998,0,0,0,-0.9374999999999999,0.9374999999999999v1.2499999999999998a0.9429343749999998,0.9429343749999998,0,0,0,-0.9374999999999999,0.9374999999999999v0.6249999999999999a0.9362187499999998,0.9362187499999998,0,0,0,0.9374999999999999,0.9374999999999999v0.31249999999999994a0.6249999999999999,0.6249999999999999,0,0,0,1.2499999999999998,0V12.812499999999998h2.4999999999999996v0.31249999999999994a0.6249999999999999,0.6249999999999999,0,0,0,1.2499999999999998,0V12.812499999999998a0.9362187499999998,0.9362187499999998,0,0,0,0.9374999999999999,-0.9374999999999999V11.249999999999998a0.9429343749999998,0.9429343749999998,0,0,0,-0.9374999999999999,-0.9374999999999999ZM5.937499999999999,9.374999999999998a0.3134625,0.3134625,0,0,1,0.31249999999999994,-0.31249999999999994h2.4999999999999996a0.3134625,0.3134625,0,0,1,0.31249999999999994,0.31249999999999994v0.9374999999999999H5.937499999999999Zm-0.46874999999999994,1.5624999999999998A0.46874999999999994,0.46874999999999994,0,1,1,4.999999999999999,11.406249999999998A0.4681031249999999,0.4681031249999999,0,0,1,5.46875,10.9375Zm4.0625,0.9374999999999999A0.46874999999999994,0.46874999999999994,0,1,1,9.999999999999998,11.406249999999998A0.4681031249999999,0.4681031249999999,0,0,1,9.531249999999998,11.874999999999998Z" fill="#FFFFFF"/>
    </svg>