<svg version="1.1" xmlns="http://www.w3.org/2000/svg" xlink="http://www.w3.org/1999/xlink" x="0px" y="0px" width="15px" height="14.999921874999998px" viewBox="0 0 15 14.999921874999998" style="enable-background:new 0 0 15 15;" space="preserve"><path d="M1.2441437499999999 11.249921875H5.00635A.306103125.306103125 0 0 0 5.3125 10.94383125V5.312421874999999a.30613749999999995.30613749999999995 0 0 0-.5609687499999999-.1696875L.989321875 10.774153125000002A.30613749999999995.30613749999999995 0 0 0 1.2441437499999999 11.249921875ZM6.250153124999999 11.249921875H13.747750000000002a.31385.31385 0 0 0 .31468749999999995-.318296875C13.931159374999998 5.1873000000000005 10.263309375.238721875 6.2603125.0005343749999999999a.3101375.3101375 0 0 0-.32281249999999995.3125V10.93788125A.3123875.3123875 0 0 0 6.250153124999999 11.249921875ZM14.374999999999998 12.187421875H.625a.62501875.62501875 0 0 0-.625.625 2.1874625 2.1874625 0 0 0 2.1875 2.1875H12.8125a2.1874625 2.1874625 0 0 0 2.1875-2.1875A.62501875.62501875 0 0 0 14.374999999999998 12.187421875Z" fill="#FFFFFF"/></svg>