<svg version="1.1" xmlns="http://www.w3.org/2000/svg" xlink="http://www.w3.org/1999/xlink" x="0px" y="0px" width="14.999962500093748px" height="15px" viewBox="0 0 14.999962500093748 15" style="enable-background:new 0 0 15 15;" space="preserve"><path d="M14.374964062589841,8.12501718745703a0.6250171874570313,0.6250171874570313,0,0,0,-0.6249984375039062,0.6249984375039062v0.9374976562558592l-3.749990625023437,-2.812492968767578V5.462364469088827A0.779132427168932,0.779132427168932,0,0,0,8.749978125054687,4.845925385186536V3.3218666953332616a0.9374414063964839,0.9374414063964839,0,0,0,-0.06639358401603995,-0.3465241336896658L7.842480393799015,0.23242754393114015a0.3685678285804285,0.3685678285804285,0,0,0,-0.6849982875042813,0L6.316377959055101,2.975342561643595A0.9374414063964839,0.9374414063964839,0,0,0,6.249984375039062,3.3218666953332616v1.524058689853275a0.779132427168932,0.779132427168932,0,0,0,-1.2499968750078123,0.6164515838710403v1.4126558433603915l-3.749990625023437,2.812492968767578v-0.9374976562558592a0.6249984375039062,0.6249984375039062,0,0,0,-1.2499968750078123,0v4.3749890625273435a0.6249984375039062,0.6249984375039062,0,0,0,1.2499968750078123,0v-0.6249984375039062l4.999987500031249,-1.2499968750078123v1.5624960937597654l-1.3903590241024395,1.1909345226636932a0.5837704155739609,0.5837704155739609,0,0,0,0.41278959302601737,0.9965600085999784l2.2240006899982747,-0.3124992187519531l2.2311319221701944,0.3124992187519531a0.5837704155739609,0.5837704155739609,0,0,0,0.41278959302601737,-0.9965600085999784L8.749978125054687,12.812505468736328v-1.5624960937597654l4.999987500031249,1.2499968750078123v0.6249984375039062a0.6249984375039062,0.6249984375039062,0,1,0,1.2499968750078123,0v-4.3749890625273435A0.6250171874570313,0.6250171874570313,0,0,0,14.374964062589841,8.12501718745703Z" fill="#FFFFFF"/></svg>