<svg version="1.1" xmlns="http://www.w3.org/2000/svg" xlink="http://www.w3.org/1999/xlink" x="0px" y="0px" width="15px" height="14.999921874999998px" viewBox="0 0 15 14.999921874999998" style="enable-background:new 0 0 15 15;" space="preserve">
    <path d="M1.2441437499999999,11.249921875H5.00635A0.306103125,0.306103125,0,0,0,5.3125,10.94383125V5.312421874999999a0.30613749999999995,0.30613749999999995,0,0,0,-0.5609687499999999,-0.1696875L0.989321875,10.774153125000002A0.30613749999999995,0.30613749999999995,0,0,0,1.2441437499999999,11.249921875Z" fill="#FFFFFF"/> <path d="M6.250153124999999,11.249921875H13.747750000000002a0.31385,0.31385,0,0,0,0.31468749999999995,-0.318296875C13.931159374999998,5.1873000000000005,10.263309375,0.238721875,6.2603125,0.0005343749999999999a0.3101375,0.3101375,0,0,0,-0.32281249999999995,0.3125V10.93788125A0.3123875,0.3123875,0,0,0,6.250153124999999,11.249921875Z" fill="#FFFFFF"/> <path d="M14.374999999999998,12.187421875H0.625a0.62501875,0.62501875,0,0,0,-0.625,0.625a2.1874625,2.1874625,0,0,0,2.1875,2.1875H12.8125a2.1874625,2.1874625,0,0,0,2.1875,-2.1875A0.62501875,0.62501875,0,0,0,14.374999999999998,12.187421875Z" fill="#FFFFFF"/>
    </svg>