<svg version="1.1" xmlns="http://www.w3.org/2000/svg" xlink="http://www.w3.org/1999/xlink" x="0px" y="0px" width="13.125px" height="15px" viewBox="0 0 13.125 15" style="enable-background:new 0 0 15 15;" space="preserve"><path d="M13.0072265625,2.81982421875c-0.32255859374999996,-1.3248046875,-1.38017578125,-2.4041015625,-2.69560546875,-2.745703125c-0.94306640625,-0.24492187499999996,-1.845703125,0.14941406249999997,-2.6115234375,0.7127929687499999c-0.09521484375,0.07001953125,-0.20390625,0.10927734375,-0.3076171875,0.160546875l0.8296874999999999,0.53349609375c0.21738281249999997,0.13974609374999997,0.2806640625,0.42978515624999997,0.140625,0.64775390625c-0.1306640625,0.20361328125,-0.41806640624999997,0.28886718749999996,-0.64775390625,0.140625L4.77041015625,0.376171875c-0.6064453125,-0.31787109375,-1.2708984375,-0.48046874999999994,-1.95732421875,-0.30205078124999996c-1.3154296875,0.34189453124999997,-2.373046875,1.4208984375,-2.69560546875,2.745703125c-0.29677734375000003,1.2193359375,-0.012304687499999998,2.36748046875,0.6298828125,3.23525390625c0.684375,0.9249023437500001,0.957421875,2.0115234374999997,1.0631835937499998,3.14501953125c0.12890625,1.381640625,0.30263671875,2.75859375,0.6134765625,4.1109374999999995l0.22851562499999997,0.99462890625c0.09345703124999999,0.40634765624999997,0.45380859375,0.6943359375,0.86923828125,0.6943359375c0.40927734375,0,0.7661132812499999,-0.27978515625,0.8654296874999999,-0.678515625l1.00986328125,-4.0552734374999995c0.13359374999999998,-0.53671875,0.6140625000000001,-0.912890625,1.1648437499999997,-0.912890625s1.03125,0.37646484375,1.1648437499999997,0.912890625l1.00986328125,4.0552734374999995c0.09931640625,0.39873046874999996,0.45615234375,0.678515625,0.8654296874999999,0.678515625c0.4154296875,0,0.77578125,-0.28798828125,0.86923828125,-0.6943359375l0.22851562499999997,-0.99462890625c0.31083984374999996,-1.35205078125,0.48427734375,-2.7292968749999997,0.6134765625,-4.1109374999999995c0.10576171874999998,-1.1337890625,0.37880859375,-2.2201171874999996,1.0631835937499998,-3.14501953125c0.64306640625,-0.86748046875,0.9275390625,-2.015625,0.63076171875,-3.23525390625z" fill="#FFFFFF"/></svg>