<svg version="1.1" xmlns="http://www.w3.org/2000/svg" xlink="http://www.w3.org/1999/xlink" x="0px" y="0px" width="13.125px" height="15px" viewBox="0 0 13.125 15" style="enable-background:new 0 0 15 15;" space="preserve"><path d="M0,2.4609375V1.640625c0,-0.3896484375,0.3134765625,-0.703125,0.703125,-0.703125h3.28125l0.275390625,-0.5478515625c0.1171875,-0.24023437499999997,0.3603515625,-0.3896484375,0.626953125,-0.3896484375h3.3486328125c0.2666015625,0,0.509765625,0.14941406249999997,0.6298828125,0.3896484375L9.140625,0.9375h3.28125c0.3896484375,0,0.703125,0.3134765625,0.703125,0.703125v0.8203125c0,0.193359375,-0.158203125,0.3515625,-0.3515625,0.3515625H0.3515625C0.158203125,2.8125,0,2.654296875,0,2.4609375zm12.1640625,1.6611328125L11.56640625,13.681640625c-0.046875,0.7412109375,-0.662109375,1.318359375,-1.4033203125,1.318359375H2.9619140624999996c-0.7412109375,0,-1.3564453125,-0.5771484374999999,-1.4033203125,-1.318359375L0.9609374999999999,4.122070312499999c-0.01171875,-0.2021484375,0.14941406249999997,-0.37207031249999994,0.3515625,-0.37207031249999994h10.5029296875c0.19921875,0,0.3603515625,0.16992187499999997,0.3486328125,0.37207031249999994z" fill="#FFFFFF"/></svg>