<svg version="1.1" xmlns="http://www.w3.org/2000/svg" xlink="http://www.w3.org/1999/xlink" x="0px" y="0px" width="15px" height="15px" viewBox="0 0 15 15" style="enable-background:new 0 0 15 15;" space="preserve">
    <path d="M2.808706,4.8759481L5.1537559,5.7298209C5.9619266,3.8571799,7.1336477,2.4160685,8.3460188,1.7406408C6.1440463,1.6283375,4.0105125,2.5894612,2.6382989,4.3082305C2.4846569,4.5011443,2.5772099,4.7916631,2.808706,4.8759481ZM5.8459487,5.9819867L11.322861,7.9761174C12.144122,5.1885142,11.752323,2.6558327,10.343824,2.1432334C10.173876,2.0812254,9.9963498,2.0513694,9.813541,2.0513694C8.4810584,2.0515991,6.8677025,3.639922,5.8459487,5.9819867ZM12.135165,3.1213519c0.142848,0.3743444,0.248721,0.7946207,0.30315,1.267489c0.131824,1.1457697,-0.03261,2.4856014,-0.435204,3.8348494l2.356763,0.8580066c0.231726,0.084285,0.489404,-0.078774,0.495374,-0.3254271c0.05328,-2.1976089,-0.962501,-4.3047319,-2.720083,-5.6349179zm0.884647,8.8988341H7.5323359L9.0237427,7.9212289L7.6425728,7.4182752L5.9683571,12.019956H0.52635301c-0.20301872,0,-0.3674547,0.164436,-0.3674547,0.367685v0.735139c0,0.203019,0.16443598,0.367684,0.3674547,0.367684H13.019812c0.203019,0,0.367455,-0.164665,0.367455,-0.367684v-0.735139c0,-0.203019,-0.164436,-0.367455,-0.367455,-0.367455z" fill="#FFFFFF"/>
    </svg>