<svg version="1.1" xmlns="http://www.w3.org/2000/svg" xlink="http://www.w3.org/1999/xlink" x="0px" y="0px" width="15px" height="15px" viewBox="0 0 15 15" style="enable-background:new 0 0 15 15;" space="preserve"><path d="m14.421856,7.7028206c-1.318447,-1.1591275,-2.757583,-1.1201883,-4.064828,0.7877821c-0.135813,0.201515,-0.3821119,0.1836732,-0.5059278,0c-0.063651,-0.0929,-0.8259011,-1.5587992,-2.3252789,-1.5587992c-1.1732009,0,-1.808328,0.8043679,-2.3253045,1.5587992c-0.1237903,0.1836732,-0.3700635,0.201515,-0.5058765,0C3.3897278,6.5863237,1.9616404,6.5319524,0.6298114,7.7028206C0.36808038,7.9146663,0.09373706,7.6743916,0.15054371,7.4597773C0.96706246,4.2919091,4.2065286,2.4984749,7.525847,2.4984749c3.301579,0,6.576498,1.7934342,7.375277,4.9613024c0.05655,0.2133326,-0.215999,0.4561195,-0.479268,0.2430433zM6.7055086,7.532862v3.973364c0,0.452326,-0.3679871,0.820313,-0.8203126,0.820313c-0.4523256,0,-0.8203127,-0.367987,-0.8203127,-0.820313c0,-0.453043,-0.3672694,-0.820312,-0.8203127,-0.820312c-0.4530433,0,-0.8203127,0.367269,-0.8203127,0.820312c0,1.356977,1.1039614,2.460938,2.4609381,2.460938c1.3569766,0,2.460938,-1.103961,2.460938,-2.460938V7.5402192C7.7863732,7.2632099,7.1816745,7.2906134,6.7055086,7.532862ZM8.346134,2.1237458V1.6624737c0,-0.4530433,-0.3672693,-0.82031269,-0.8203127,-0.82031269c-0.4530433,0,-0.8203127,0.36726939,-0.8203127,0.82031269v0.4610926a9.5388267,9.5388267,0,0,1,1.6406254,0.0001795z" fill="#FFFFFF"/></svg>