<?xml version="1.0" encoding="utf-8"?>
<!-- Generator: Adobe Illustrator 16.0.0, SVG Export Plug-In . SVG Version: 6.00 Build 0)  -->
<!DOCTYPE svg PUBLIC "-//W3C//DTD SVG 1.1//EN" "http://www.w3.org/Graphics/SVG/1.1/DTD/svg11.dtd">
<svg version="1.1" id="Calque_1" xmlns="http://www.w3.org/2000/svg" xmlns:xlink="http://www.w3.org/1999/xlink" x="0px" y="0px"
	 width="15px" height="15px" viewBox="0 0 15 15" enable-background="new 0 0 15 15" xml:space="preserve">
<circle fill="#2E3192" stroke="#F2F2F2" stroke-miterlimit="10" cx="7.5" cy="7.5" r="7"/>
<g>
	<path fill="#F2F2F2" d="M9.844,7.89C9.812,6.999,9.778,5.92,9.778,4.842H9.745C9.514,5.788,9.206,6.844,8.92,7.713l-0.902,2.894
		H6.708L5.917,7.735C5.675,6.867,5.421,5.811,5.246,4.842H5.224C5.18,5.843,5.146,6.987,5.091,7.912l-0.132,2.817H3.408l0.473-7.416
		h2.233l0.726,2.475c0.231,0.858,0.462,1.783,0.627,2.651h0.033C7.71,7.582,7.963,6.603,8.205,5.777l0.792-2.464h2.189l0.407,7.416
		h-1.64L9.844,7.89z"/>
</g>
</svg>
