<svg version="1.1" xmlns="http://www.w3.org/2000/svg" xlink="http://www.w3.org/1999/xlink" x="0px" y="0px" width="13.125px" height="15px" viewBox="0 0 13.125 15" style="enable-background:new 0 0 15 15;" space="preserve">
    <path d="M6.5625,7.5c2.0712890625,0,3.75,-1.6787109375,3.75,-3.75S8.6337890625,0,6.5625,0S2.8125,1.6787109375,2.8125,3.75s1.6787109375,3.75,3.75,3.75zM3.046875,12.421875c0,0.3896484375,0.3134765625,0.703125,0.703125,0.703125s0.703125,-0.3134765625,0.703125,-0.703125s-0.3134765625,-0.703125,-0.703125,-0.703125s-0.703125,0.3134765625,-0.703125,0.703125zm6.328125,-3.9667968750000004v1.435546875c1.0693359375,0.216796875,1.875,1.166015625,1.875,2.296875v1.2216796875c0,0.22265625,-0.158203125,0.416015625,-0.3779296875,0.45996093749999994l-0.943359375,0.1875c-0.1259765625,0.0263671875,-0.2490234375,-0.0556640625,-0.275390625,-0.1845703125l-0.0908203125,-0.45996093749999994c-0.0263671875,-0.1259765625,0.0556640625,-0.251953125,0.1845703125,-0.275390625l0.5654296875,-0.11425781249999999V12.1875c0,-1.8398437499999998,-2.8125,-1.9072265624999996,-2.8125,0.0556640625v0.7822265624999999l0.5654296875,0.11425781249999999c0.1259765625,0.0263671875,0.2080078125,0.14941406249999997,0.1845703125,0.275390625l-0.0908203125,0.45996093749999994c-0.0263671875,0.1259765625,-0.14941406249999997,0.2080078125,-0.275390625,0.1845703125l-0.9140624999999999,-0.123046875c-0.23144531250000003,-0.0322265625,-0.404296875,-0.22851562499999997,-0.404296875,-0.4658203125V12.1875c0,-1.130859375,0.8056640624999999,-2.0771484375,1.875,-2.296875v-1.32421875c-0.064453125,0.020507812499999997,-0.12890625,0.0322265625,-0.193359375,0.0556640625c-0.52734375,0.1845703125,-1.0927734374999998,0.287109375,-1.681640625,0.287109375s-1.1542968749999998,-0.1025390625,-1.681640625,-0.287109375c-0.216796875,-0.076171875,-0.4365234375,-0.123046875,-0.662109375,-0.15234375v2.3906249999999996c0.6767578125,0.2021484375,1.171875,0.8232421875,1.171875,1.5644531249999998c0,0.9052734374999999,-0.7353515625,1.640625,-1.640625,1.640625s-1.640625,-0.7353515625,-1.640625,-1.640625c0,-0.7412109375,0.4951171874999999,-1.3623046875,1.171875,-1.5644531249999998v-2.3554687500000004C1.4208984375,8.818359375,0,10.423828125,0,12.375v1.3124999999999998C0,14.411132812499998,0.5888671875000001,15,1.3124999999999998,15h10.499999999999998c0.7236328124999999,0,1.3124999999999998,-0.5888671875000001,1.3124999999999998,-1.3124999999999998v-1.3124999999999998c0,-2.109375,-1.6640625,-3.8173828125,-3.75,-3.919921875z" fill="#FFFFFF"/>
    </svg>