<svg version="1.1" xmlns="http://www.w3.org/2000/svg" xlink="http://www.w3.org/1999/xlink" x="0px" y="0px" width="13.125px" height="15px" viewBox="0 0 13.125 15" style="enable-background:new 0 0 15 15;" space="preserve">
    <path d="M8.12607421875,0.3509765625C7.648828125,0.13095703125,7.122363281250001,0,6.5625,0c-1.57294921875,0,-2.9150390624999996,0.9706054687500001,-3.47197265625,2.34375h2.37861328125l2.65693359375,-1.9927734374999997zM10.03447265625,2.34375c-0.23144531250000003,-0.5704101562499999,-0.60556640625,-1.060546875,-1.06904296875,-1.45078125L7.030957031250001,2.34375h3.003515625zM6.5625,7.5c2.07099609375,0,3.75,-1.6790039062500002,3.75,-3.75c0,-0.160546875,-0.02783203125,-0.3134765625,-0.047167968750000004,-0.46875H2.85966796875c-0.01962890625,0.15527343749999997,-0.047167968750000004,0.30820312499999997,-0.047167968750000004,0.46875c0,2.07099609375,1.6790039062500002,3.75,3.75,3.75zM2.34375,8.7802734375V15h3.7576171874999993l-2.88427734375,-6.48984375A3.891650390625,3.891650390625,0,0,0,2.34375,8.7802734375zM0,13.59375c0,0.77666015625,0.6295898437499999,1.40625,1.40625,1.40625V9.382031249999999C0.553125,10.104199218749999,0,11.1697265625,0,12.375V13.59375zm7.5,-1.40625h-1.6224609375l1.25009765625,2.8125H7.5c0.7754882812499999,0,1.40625,-0.63076171875,1.40625,-1.40625s-0.63076171875,-1.40625,-1.40625,-1.40625zm1.6875,-3.75h-0.48955078125c-0.6515624999999999,0.2982421875,-1.3734375,0.46875,-2.1354492187500003,0.46875s-1.48388671875,-0.1705078125,-2.1354492187500003,-0.46875h-0.21591796875l1.25009765625,2.8125H7.5c1.29228515625,0,2.34375,1.05146484375,2.34375,2.34375c0,0.5296875,-0.18339843749999998,1.01337890625,-0.48076171874999996,1.40625H11.71875c0.77666015625,0,1.40625,-0.6295898437499999,1.40625,-1.40625v-1.21875c0,-2.17470703125,-1.76279296875,-3.9375,-3.9375,-3.9375z" fill="#FFFFFF"/>
    </svg>