<svg version="1.1" xmlns="http://www.w3.org/2000/svg" xlink="http://www.w3.org/1999/xlink" x="0px" y="0px" width="15px" height="17.142857142857142px" viewBox="0 0 15 17.142857142857142" style="enable-background:new 0 0 15 15;" space="preserve">
    <path d="M10.694196428571427,10.734375L7.5,13.928571428571429l-3.194196428571429,-3.194196428571429C1.9118303571428572,10.838169642857142,0,12.796875,0,15.214285714285714v0.3214285714285714c0,0.8872767857142857,0.7198660714285714,1.6071428571428572,1.6071428571428572,1.6071428571428572h11.785714285714285c0.8872767857142857,0,1.6071428571428572,-0.7198660714285714,1.6071428571428572,-1.6071428571428572v-0.3214285714285714c0,-2.4174107142857144,-1.9118303571428572,-4.376116071428571,-4.305803571428571,-4.479910714285714zM0.45535714285714285,2.671875l0.2142857142857143,0.05022321428571429v1.9553571428571428c-0.234375,0.140625,-0.4017857142857143,0.38504464285714285,-0.4017857142857143,0.6796875c0,0.28125,0.15401785714285712,0.515625,0.3716517857142857,0.6595982142857142L0.1171875,8.102678571428571c-0.056919642857142856,0.23102678571428573,0.0703125,0.46875,0.2544642857142857,0.46875h1.3995535714285714c0.1841517857142857,0,0.3113839285714286,-0.23772321428571427,0.2544642857142857,-0.46875l-0.5223214285714285,-2.0859375C1.7209821428571428,5.872767857142857,1.875,5.638392857142857,1.875,5.357142857142857c0,-0.29464285714285715,-0.16741071428571427,-0.5390625,-0.4017857142857143,-0.6796875V2.916294642857143l2.2098214285714284,0.5323660714285714c-0.28794642857142855,0.5758928571428571,-0.46875,1.21875,-0.46875,1.9084821428571428c0,2.3671875,1.9185267857142856,4.285714285714286,4.285714285714286,4.285714285714286s4.285714285714286,-1.9185267857142856,4.285714285714286,-4.285714285714286c0,-0.6897321428571429,-0.17745535714285712,-1.3325892857142856,-0.46875,-1.9084821428571428l3.2243303571428568,-0.7767857142857142c0.609375,-0.14732142857142858,0.609375,-0.9073660714285714,0,-1.0546875l-6.375,-1.5401785714285714c-0.43526785714285715,-0.10379464285714286,-0.8939732142857142,-0.10379464285714286,-1.3292410714285714,0L0.45535714285714285,1.6138392857142858c-0.6060267857142857,0.14732142857142858,-0.6060267857142857,0.9107142857142857,0,1.0580357142857144z" fill="#FFFFFF"/>
    </svg>