<svg version="1.1" xmlns="http://www.w3.org/2000/svg" xlink="http://www.w3.org/1999/xlink" x="0px" y="0px" width="13.125px" height="15px" viewBox="0 0 13.125 15" style="enable-background:new 0 0 15 15;" space="preserve"><path d="M1.875,6.5625h0.3955078125c0.7236328124999999,1.6552734375,2.3701171875,2.8125,4.2919921875,2.8125s3.568359375,-1.1572265625,4.2919921875,-2.8125H11.25c0.2578125,0,0.46875,-0.2109375,0.46875,-0.46875v-2.8125c0,-0.2578125,-0.2109375,-0.46875,-0.46875,-0.46875h-0.3955078125C10.130859375,1.1572265625,8.484375,0,6.5625,0S2.994140625,1.1572265625,2.2705078125,2.8125H1.875c-0.2578125,0,-0.46875,0.2109375,-0.46875,0.46875v2.8125c0,0.2578125,0.2109375,0.46875,0.46875,0.46875zm1.171875,-2.578125c0,-0.6474609375,0.6298828125,-1.171875,1.40625,-1.171875h4.21875c0.7763671875,0,1.40625,0.5244140625,1.40625,1.171875v0.703125c0,1.552734375,-1.259765625,2.8125,-2.8125,2.8125h-1.40625c-1.552734375,0,-2.8125,-1.259765625,-2.8125,-2.8125v-0.703125zm2.109375,2.109375l0.3515625,-1.0546875l1.0546875,-0.3515625l-1.0546875,-0.3515625l-0.3515625,-1.0546875l-0.3515625,1.0546875l-1.0546875,0.3515625l1.0546875,0.3515625l0.3515625,1.0546875zm4.44140625,3.322265625C8.721679687499998,9.9814453125,7.681640624999999,10.3125,6.5625,10.3125s-2.1591796875,-0.3310546875,-3.0351562499999996,-0.896484375C1.5498046874999998,9.6240234375,0,11.279296875,0,13.3125v0.28125c0,0.7763671875,0.6298828125,1.40625,1.40625,1.40625h2.34375v-1.875c0,-0.5185546874999999,0.4189453125,-0.9375,0.9375,-0.9375h3.75c0.5185546874999999,0,0.9375,0.4189453125,0.9375,0.9375v1.875h2.34375c0.7763671875,0,1.40625,-0.6298828125,1.40625,-1.40625v-0.28125c0,-2.033203125,-1.5498046874999998,-3.6884765625,-3.52734375,-3.896484375zM7.96875,13.125c-0.2578125,0,-0.46875,0.2109375,-0.46875,0.46875s0.2109375,0.46875,0.46875,0.46875s0.46875,-0.2109375,0.46875,-0.46875s-0.2109375,-0.46875,-0.46875,-0.46875zm-2.8125,0c-0.2578125,0,-0.46875,0.2109375,-0.46875,0.46875v1.40625h0.9375v-1.40625c0,-0.2578125,-0.2109375,-0.46875,-0.46875,-0.46875z" fill="#FFFFFF"/></svg>