<svg version="1.1" xmlns="http://www.w3.org/2000/svg" xlink="http://www.w3.org/1999/xlink" x="0px" y="0px" width="13.125px" height="15px" viewBox="0 0 13.125 15" style="enable-background:new 0 0 15 15;" space="preserve">
    <path d="M9.357421874999998,9.392578125L6.5625,12.1875l-2.794921875,-2.794921875C1.6728515625,9.4833984375,0,11.197265625,0,13.3125v0.28125c0,0.7763671875,0.6298828125,1.40625,1.40625,1.40625h10.3125c0.7763671875,0,1.40625,-0.6298828125,1.40625,-1.40625v-0.28125c0,-2.115234375,-1.6728515625,-3.8291015625,-3.767578125,-3.919921875zM0.3984375,2.337890625l0.1875,0.0439453125v1.7109375c-0.205078125,0.123046875,-0.3515625,0.3369140625,-0.3515625,0.5947265625c0,0.24609375,0.13476562499999997,0.451171875,0.3251953125,0.5771484374999999L0.1025390625,7.08984375c-0.0498046875,0.2021484375,0.0615234375,0.41015625,0.22265625,0.41015625h1.224609375c0.1611328125,0,0.2724609375,-0.2080078125,0.22265625,-0.41015625l-0.45703124999999994,-1.8251953125C1.505859375,5.138671875,1.640625,4.93359375,1.640625,4.6875c0,-0.2578125,-0.146484375,-0.4716796875,-0.3515625,-0.5947265625V2.5517578125l1.9335937499999998,0.4658203125c-0.251953125,0.50390625,-0.41015625,1.06640625,-0.41015625,1.669921875c0,2.0712890625,1.6787109375,3.75,3.75,3.75s3.75,-1.6787109375,3.75,-3.75c0,-0.603515625,-0.15527343749999997,-1.166015625,-0.41015625,-1.669921875l2.8212890624999996,-0.6796874999999999c0.533203125,-0.12890625,0.533203125,-0.7939453125,0,-0.9228515625l-5.578125,-1.34765625c-0.380859375,-0.0908203125,-0.7822265624999999,-0.0908203125,-1.1630859375,0L0.3984375,1.412109375c-0.5302734375,0.12890625,-0.5302734375,0.796875,0,0.9257812500000001z" fill="#FFFFFF"/>
    </svg>