<svg version="1.1" xmlns="http://www.w3.org/2000/svg" xlink="http://www.w3.org/1999/xlink" x="0px" y="0px" width="15px" height="15px" viewBox="0 0 15 15" style="enable-background:new 0 0 15 15;" space="preserve">
    <path d="M7.5,0C6.4410647,0,5.5826271,0.67157287,5.5826271,1.5C5.5826271,2.3284271,6.4410647,3,7.5,3C8.5589353,3,9.4173729,2.3284271,9.4173729,1.5C9.4173729,0.67157287,8.5589353,0,7.5,0Zm0,3C5.8702331,3,4.6239407,3.975,4.6239407,5.25v3l0.9586864,0.4453125h0.029959L5.8822166,12H9.1177834L9.387414,8.6953125H9.417373L10.376059,8.25v-3C10.376059,3.975,9.1297669,3,7.5,3ZM4.6239407,12.75V13.5H3.6652542V15h7.6694918v-1.5h-0.958687v-0.75z" fill="#FFFFFF"/>
    </svg>