<?xml version="1.0" encoding="UTF-8" standalone="no"?>
<svg
   xmlns:dc="http://purl.org/dc/elements/1.1/"
   xmlns:cc="http://creativecommons.org/ns#"
   xmlns:rdf="http://www.w3.org/1999/02/22-rdf-syntax-ns#"
   xmlns:svg="http://www.w3.org/2000/svg"
   xmlns="http://www.w3.org/2000/svg"
   xmlns:sodipodi="http://sodipodi.sourceforge.net/DTD/sodipodi-0.dtd"
   xmlns:inkscape="http://www.inkscape.org/namespaces/inkscape"
   version="1.1"
   xlink="http://www.w3.org/1999/xlink"
   x="0px"
   y="0px"
   width="15px"
   height="15px"
   viewBox="0 0 15 15"
   style="enable-background:new 0 0 15 15;"
   space="preserve"
   id="svg4"
   sodipodi:docname="visualpharm-statue.svg"
   inkscape:version="0.92.4 (5da689c313, 2019-01-14)">
  <metadata
     id="metadata10">
    <rdf:RDF>
      <cc:Work
         rdf:about="">
        <dc:format>image/svg+xml</dc:format>
        <dc:type
           rdf:resource="http://purl.org/dc/dcmitype/StillImage" />
      </cc:Work>
    </rdf:RDF>
  </metadata>
  <defs
     id="defs8" />
  <sodipodi:namedview
     pagecolor="#ffffff"
     bordercolor="#666666"
     borderopacity="1"
     objecttolerance="10"
     gridtolerance="10"
     guidetolerance="10"
     inkscape:pageopacity="0"
     inkscape:pageshadow="2"
     inkscape:window-width="2490"
     inkscape:window-height="1016"
     id="namedview6"
     showgrid="false"
     inkscape:zoom="15.733333"
     inkscape:cx="7.5"
     inkscape:cy="7.5"
     inkscape:window-x="70"
     inkscape:window-y="27"
     inkscape:window-maximized="1"
     inkscape:current-layer="svg4" />
  <path
     d="M 7.5,0 C 6.4410647,0 5.5826271,0.67157287 5.5826271,1.5 5.5826271,2.3284271 6.4410647,3 7.5,3 8.5589353,3 9.4173729,2.3284271 9.4173729,1.5 9.4173729,0.67157287 8.5589353,0 7.5,0 Z m 0,3 C 5.8702331,3 4.6239407,3.975 4.6239407,5.25 v 3 l 0.9586864,0.4453125 h 0.029959 L 5.8822166,12 H 9.1177834 L 9.387414,8.6953125 H 9.417373 L 10.376059,8.25 v -3 C 10.376059,3.975 9.1297669,3 7.5,3 Z M 4.6239407,12.75 V 13.5 H 3.6652542 V 15 h 7.6694918 v -1.5 h -0.958687 v -0.75 z"
     id="path2"
     style="fill:#ffffff;stroke-width:1.35671592"
     inkscape:connector-curvature="0" />
</svg>
