<svg version="1.1" xmlns="http://www.w3.org/2000/svg" xlink="http://www.w3.org/1999/xlink" x="0px" y="0px" width="9.375px" height="15px" viewBox="0 0 9.375 15" style="enable-background:new 0 0 15 15;" space="preserve"><path d="M6.09375,2.8125c0.7763671875,0,1.40625,-0.6298828125,1.40625,-1.40625S6.8701171875,0,6.09375,0s-1.40625,0.6298828125,-1.40625,1.40625s0.6298828125,1.40625,1.40625,1.40625zm2.7685546875,4.3681640625l-0.6826171875,-0.34570312500000006l-0.2841796875,-0.8613281249999999c-0.43066406249999994,-1.306640625,-1.6318359375000002,-2.220703125,-2.994140625,-2.2236328125c-1.0546875,-0.0029296875000000004,-1.6376953125,0.2958984375,-2.7333984375,0.73828125c-0.6328125000000001,0.2548828125,-1.1513671875,0.73828125,-1.4560546875000002,1.3535156250000002L0.515625,6.240234375c-0.228515625,0.46289062500000006,-0.0439453125,1.025390625,0.41601562499999994,1.2568359375c0.45703125,0.23144531250000003,1.013671875,0.0439453125,1.2451171875,-0.41894531250000006L2.373046875,6.6796875c0.1025390625,-0.205078125,0.2724609375,-0.3662109375,0.4833984375,-0.451171875l0.78515625,-0.31640625000000006l-0.44531249999999994,1.7783203125000002c-0.15234375,0.609375,0.011718750000000002,1.2568359375,0.4365234375,1.7226562499999998l1.7548828125,1.9160156250000002c0.2109375,0.23144531250000003,0.36035156250000006,0.509765625,0.4365234375,0.8115234375l0.5361328125,2.1474609375c0.1259765625,0.5009765625,0.6357421875,0.8085937500000001,1.13671875,0.6826171875c0.5009765625,-0.1259765625,0.8085937500000001,-0.6357421875,0.6826171875,-1.13671875l-0.650390625,-2.607421875c-0.076171875,-0.3017578125,-0.2255859375,-0.5830078125,-0.4365234375,-0.8115234375l-1.3330078125,-1.4560546875000002l0.50390625,-2.0126953125l0.1611328125,0.4833984375c0.1552734375,0.47167968750000006,0.48925781249999994,0.8613281249999999,0.9287109375,1.083984375l0.6826171875,0.34570312500000006c0.45703125,0.23144531250000003,1.013671875,0.0439453125,1.2451171875,-0.41894531250000006c0.2255859375,-0.45996093749999994,0.04101562499999999,-1.0283203125,-0.41894531250000006,-1.259765625zM2.15625,11.302734375c-0.09375000000000001,0.23730468749999997,-0.234375,0.451171875,-0.41601562499999994,0.6298828125l-1.46484375,1.4677734375c-0.3662109375,0.3662109375,-0.3662109375,0.9609374999999999,0,1.3271484374999998s0.9580078125000001,0.3662109375,1.3242187500000002,0l1.740234375,-1.740234375c0.17871093749999997,-0.17871093749999997,0.3193359375,-0.392578125,0.41601562499999994,-0.6298828125l0.3955078125,-0.9902343749999999c-1.6201171874999998,-1.7666015624999998,-1.1337890625,-1.224609375,-1.388671875,-1.5732421875000002l-0.6064453125,1.5087890625z" fill="#FFFFFF"/></svg>