<svg version="1.1" xmlns="http://www.w3.org/2000/svg" xlink="http://www.w3.org/1999/xlink" x="0px" y="0px" width="15px" height="24px" viewBox="0 0 15 24" style="enable-background:new 0 0 15 15;" space="preserve">
    <path d="M9.75,4.5c1.2421875,0,2.25,-1.0078125,2.25,-2.25S10.9921875,0,9.75,0s-2.25,1.0078125,-2.25,2.25s1.0078125,2.25,2.25,2.25zm4.4296875,6.989062499999999l-1.0921875,-0.5531250000000001l-0.45468749999999997,-1.3781249999999998c-0.6890624999999999,-2.090625,-2.6109375000000004,-3.5531249999999996,-4.790625,-3.5578125000000003c-1.6875,-0.004687500000000001,-2.6203125,0.47343749999999996,-4.3734375,1.18125c-1.0125000000000002,0.40781249999999997,-1.8421874999999999,1.18125,-2.3296875000000004,2.1656250000000004L0.8250000000000001,9.984375c-0.365625,0.7406250000000001,-0.0703125,1.640625,0.6656249999999999,2.0109375c0.73125,0.37031250000000004,1.6218750000000002,0.0703125,1.9921875,-0.6703125000000001L3.796875,10.6875c0.1640625,-0.328125,0.43593750000000003,-0.5859375,0.7734375,-0.721875l1.25625,-0.5062500000000001l-0.7124999999999999,2.8453125000000004c-0.24375000000000002,0.9750000000000001,0.018750000000000003,2.0109375,0.6984375,2.7562499999999996l2.8078125,3.0656250000000003c0.3375,0.37031250000000004,0.5765625000000001,0.8156249999999999,0.6984375,1.2984375l0.8578125000000001,3.4359374999999996c0.20156249999999998,0.8015625000000001,1.0171875,1.2937500000000002,1.8187499999999999,1.0921875c0.8015625000000001,-0.20156249999999998,1.2937500000000002,-1.0171875,1.0921875,-1.8187499999999999l-1.040625,-4.171875c-0.12187500000000001,-0.48281250000000003,-0.3609375,-0.9328124999999999,-0.6984375,-1.2984375l-2.1328125,-2.3296875000000004l0.8062499999999999,-3.2203125000000004l0.2578125,0.7734375c0.24843749999999998,0.7546875000000001,0.7828124999999999,1.3781249999999998,1.4859375,1.734375l1.0921875,0.5531250000000001c0.73125,0.37031250000000004,1.6218750000000002,0.0703125,1.9921875,-0.6703125000000001c0.3609375,-0.7359374999999999,0.06562499999999999,-1.6453125000000002,-0.6703125000000001,-2.015625zM3.4499999999999997,18.084375c-0.15000000000000002,0.37968749999999996,-0.375,0.721875,-0.6656249999999999,1.0078125l-2.34375,2.3484375c-0.5859375,0.5859375,-0.5859375,1.5374999999999999,0,2.1234374999999996s1.5328125000000001,0.5859375,2.1187500000000004,0l2.784375,-2.784375c0.28593749999999996,-0.28593749999999996,0.5109375,-0.628125,0.6656249999999999,-1.0078125l0.6328125,-1.5843749999999999c-2.5921874999999996,-2.8265624999999996,-1.8140625000000001,-1.9593749999999999,-2.221875,-2.5171875000000004l-0.9703124999999999,2.4140625z" fill="#FFFFFF"/>
    </svg>