<svg version="1.1" xmlns="http://www.w3.org/2000/svg" xlink="http://www.w3.org/1999/xlink" x="0px" y="0px" width="15px" height="15px" viewBox="0 0 15 15" style="enable-background:new 0 0 15 15;" space="preserve"><path d="m14.897105,4.8182723c-4.134826,-3.82442761,-10.5656613,-3.82302741,-14.6988532,0c-0.15543229,0.1437632,-0.15846625,0.3871804,-0.008168,0.5363114l0.79909892,0.792798c0.14329648,0.1423629,0.37387778,0.1453969,0.52277528,0.00887c3.4055073,-3.119848,8.665466,-3.1205481,12.071673,0c0.148898,0.1365284,0.379479,0.133261,0.522776,-0.00887l0.799099,-0.792798c0.150065,-0.149131,0.147031,-0.3925482,-0.0084,-0.5363114zM7.5476783,9.4186945c-0.8250049,0,-1.4936435,0.6686385,-1.4936435,1.4936435c0,0.825005,0.6686386,1.493644,1.4936435,1.493644c0.8250049,0,1.4936436,-0.668639,1.4936436,-1.493644c0,-0.825005,-0.6686387,-1.4936435,-1.4936436,-1.4936435zM12.277627,7.467856C9.5876688,5.0889952,5.504654,5.0915624,2.8177292,7.467856C2.6566958,7.6102186,2.6515614,7.8573703,2.8044262,8.0081348L3.6081931,8.8013996C3.7482222,8.9395617,3.973669,8.9488967,4.1228,8.8200726c1.9592403,-1.6936518,4.8949502,-1.6899177,6.849523,0c0.149131,0.1288265,0.374578,0.1197247,0.514606,-0.018673l0.803768,-0.7932648c0.153098,-0.1507645,0.14773,-0.3981495,-0.01307,-0.5402788z" fill="#FFFFFF"/></svg>