<svg version="1.1" xmlns="http://www.w3.org/2000/svg" xlink="http://www.w3.org/1999/xlink" x="0px" y="0px" width="13.874999999999998px" height="15px" viewBox="0 0 13.874999999999998 15" style="enable-background:new 0 0 15 15;" space="preserve"><path d="m6.8884562224999994,0.6476179744999999c-2.4534047875,0,-4.5470682875,1.8780904554999998,-4.5470682875,4.258323488h2.6524564624999996c0,-0.8918486474999999,0.7903751299999999,-1.6663004574999998,1.894611825,-1.6663004574999998c1.10423651,0,1.89461164,0.77445181,1.89461164,1.6663004574999998c0,0.5554335475,-0.088131225,0.7232511174999999,-0.7822673199999999,1.06241134C6.812408734999999,6.54901036,5.834482084999999,7.336434,5.58813072,8.540125399999999C5.44942993,9.21782813,5.378430907499999,9.791444125,5.4149513874999995,10.348900924999999h2.6480159075v-0.11716234999999998l-0.00296,-0.04267024999999999C8.047756595,10.00950825,8.075811845,9.599802624999999,8.1887818175,9.047826172499999C8.1950440675,9.0172216225,8.3538859,8.6937776125,9.18641328,8.2869977625C10.513192024999999,7.6387209474999995,11.435520624999999,6.325382174999999,11.435520624999999,4.905941092499999c0,-2.38023294,-2.0936635,-4.258323441749999,-4.5470688425,-4.258323441749999zM5.410510832499999,10.275132174999998v0.07376875h0.0022384999999999996zm0,1.1846354749999999v2.592022975h2.6524564624999996v-2.592022975z" fill="#FFFFFF"/></svg>