<svg version="1.1" xmlns="http://www.w3.org/2000/svg" xlink="http://www.w3.org/1999/xlink" x="0px" y="0px" width="8.4375px" height="15px" viewBox="0 0 8.4375 15" style="enable-background:new 0 0 15 15;" space="preserve"><path d="M6.328125,13.59375h-1.171875V10.16044921875c2.0059570312500004,-0.46552734375000004,3.45849609375,-2.34111328125,3.2636718750000004,-4.51640625l-0.46728515625,-5.2177734375C7.93095703125,0.18486328124999998,7.7314453125,0,7.492382812500001,0H0.9451171875c-0.23876953125,0,-0.43857421875,0.18486328124999998,-0.4599609375,0.42626953125000006L0.017578125,5.6443359375C-0.17724609375,7.819628906250001,1.27529296875,9.695214843750001,3.2812500000000004,10.160742187499999V13.59375H2.109375c-0.64716796875,0,-1.171875,0.5247070312500001,-1.171875,1.171875c0,0.12949218750000002,0.1048828125,0.234375,0.234375,0.234375h6.09375c0.12949218750000002,0,0.234375,-0.1048828125,0.234375,-0.234375c0,-0.64716796875,-0.5247070312500001,-1.171875,-1.171875,-1.171875zM1.80908203125,1.40625h4.8193359375l0.21005859375000002,2.34375H1.5990234375l0.21005859375000002,-2.34375z" fill="#FFFFFF"/></svg>