<?xml version="1.0" encoding="UTF-8" standalone="no"?>
<svg
   xmlns:dc="http://purl.org/dc/elements/1.1/"
   xmlns:cc="http://creativecommons.org/ns#"
   xmlns:rdf="http://www.w3.org/1999/02/22-rdf-syntax-ns#"
   xmlns:svg="http://www.w3.org/2000/svg"
   xmlns="http://www.w3.org/2000/svg"
   xmlns:sodipodi="http://sodipodi.sourceforge.net/DTD/sodipodi-0.dtd"
   xmlns:inkscape="http://www.inkscape.org/namespaces/inkscape"
   version="1.1"
   id="marker-circle-blue"
   x="0px"
   y="0px"
   width="24px"
   height="36px"
   viewBox="0 0 24 36"
   enable-background="new 0 0 24 36"
   xml:space="preserve"
   sodipodi:docname="square.svg"
   inkscape:export-filename="/home/fabien/Projets/OsmGo/src/assets/mapStyle/unknow-marker/square-unknow.png"
   inkscape:export-xdpi="96"
   inkscape:export-ydpi="96"
   inkscape:version="0.92.4 (5da689c313, 2019-01-14)"><metadata
   id="metadata11"><rdf:RDF><cc:Work
       rdf:about=""><dc:format>image/svg+xml</dc:format><dc:type
         rdf:resource="http://purl.org/dc/dcmitype/StillImage" /><dc:title></dc:title></cc:Work></rdf:RDF></metadata><defs
   id="defs9" /><sodipodi:namedview
   pagecolor="#ffffff"
   bordercolor="#666666"
   borderopacity="1"
   objecttolerance="10"
   gridtolerance="10"
   guidetolerance="10"
   inkscape:pageopacity="0"
   inkscape:pageshadow="2"
   inkscape:window-width="2490"
   inkscape:window-height="1016"
   id="namedview7"
   showgrid="false"
   inkscape:zoom="6.5555556"
   inkscape:cx="5.8983051"
   inkscape:cy="18"
   inkscape:window-x="70"
   inkscape:window-y="27"
   inkscape:window-maximized="1"
   inkscape:current-layer="marker-circle-blue" /><path
   d="M 20.572,0 H 3.428 C 1.535,0 0.063,0.48794879 0.063,2.476816 L 0,20.701252 c 0,1.982856 1.526,3.731256 3.418,3.731256 H 7.976 L 11.986,36 15.952,24.432508 h 4.56 c 1.894,0 3.488,-1.747398 3.488,-3.731256 V 3.6030058 C 24,1.6131367 22.465,0 20.572,0 Z"
   id="path2"
   inkscape:connector-curvature="0"
   style="fill:#000000;stroke-width:1.0009737" /><path
   fill="#ffffff"
   transform="translate(4.5 4.5)"
   d="m7.4469797,0.70012754c-2.6523295,0,-4.9157495,2.03036806,-4.9157495,4.60359296h2.8675205c0,-0.9641607,0.8544596,-1.8014059,2.048229,-1.8014059c1.1937692,0,2.0482288,0.8372452,2.0482288,1.8014059c0,0.6004687,-0.095277,0.7818931,-0.8456944,1.1485528C7.3647662,7.0800112,6.3075482,7.93128,6.0412224,9.232568C5.8912756,9.9652196,5.8145199,10.585345,5.8540015,11.188001h2.8627199v-0.126662l-0.0032,-0.04613C8.7002774,10.82109,8.7306074,10.378165,8.8527371,9.7814337C8.8595071,9.7483477,9.031228,9.3986785,9.9312576,8.9589165C11.365613,8.2580767,12.362725,6.838251,12.362725,5.3037201c0,-2.5732248,-2.26342,-4.60359291,-4.9157501,-4.60359291zM5.8492009,11.108251v0.07975h0.00242zm0,1.280687v2.802187h2.8675205v-2.802187z"
   id="path4" /> </svg>